M48
; DRILL file KiCad 10.0.6 date 2026-09-15T18:25:48
; FORMAT={-:-/ absolute / metric / decimal}
; #@! TF.CreationDate,2026-09-15T18:25:48-06:00
; #@! TF.GenerationSoftware,Kicad,Pcbnew,10.0.6
; #@! TF.FileFunction,Plated,1,2,PTH
FMAT,2
METRIC
; #@! TA.AperFunction,Plated,PTH,ViaDrill
T1C0.300
; #@! TA.AperFunction,Plated,PTH,ViaDrill
T2C0.400
; #@! TA.AperFunction,Plated,PTH,ComponentDrill
T3C0.500
; #@! TA.AperFunction,Plated,PTH,ComponentDrill
T4C0.950
; #@! TA.AperFunction,Plated,PTH,ComponentDrill
T5C1.700
; #@! TA.AperFunction,Plated,PTH,ComponentDrill
T6C2.693
; #@! TA.AperFunction,Plated,PTH,ComponentDrill
T7C2.818
; #@! TA.AperFunction,Plated,PTH,ComponentDrill
T8C3.200
%
G90
G05
T1
X3.22Y-63.419
X3.464Y-32.039
X3.672Y-24.371
X3.95Y-35.95
X3.95Y-43.95
X3.95Y-107.95
X3.95Y-115.95
X3.95Y-123.95
X3.95Y-139.95
X4.299Y-25.318
X4.706Y-11.47
X5.296Y-10.837
X5.55Y-9.574
X6.107Y-21.657
X6.78Y-19.455
X7.509Y-19.88
X9.963Y-27.96
X10.995Y-71.811
X11.012Y-12.958
X11.095Y-80.035
X11.1Y-76.585
X11.304Y-96.126
X11.722Y-94.865
X11.95Y-35.95
X11.95Y-51.95
X11.95Y-59.95
X11.95Y-99.95
X11.95Y-107.95
X11.95Y-115.95
X11.95Y-123.95
X11.95Y-131.95
X12.418Y-21.35
X12.885Y-26.489
X13.005Y-10.804
X13.8Y-30.874
X15.09Y-11.291
X15.162Y-19.483
X15.764Y-85.913
X16.206Y-25.137
X16.49Y-63.419
X16.808Y-84.618
X18.269Y-38.401
X18.6Y-21.624
X19.295Y-85.78
X19.95Y-43.95
X19.95Y-51.95
X19.95Y-107.95
X19.95Y-115.95
X19.95Y-123.95
X19.95Y-131.95
X19.95Y-139.95
X23.54Y-84.063
X23.81Y-81.192
X24.33Y-91.214
X26.2Y-96.385
X26.523Y-78.046
X27.258Y-95.616
X27.512Y-42.354
X27.95Y-107.95
X27.95Y-115.95
X27.95Y-123.95
X27.95Y-131.95
X28.245Y-22.861
X29.786Y-75.0
X30.131Y-32.227
X31.038Y-43.66
X32.716Y-37.452
X33.34Y-91.709
X34.893Y-24.926
X35.051Y-29.62
X35.95Y-99.95
X35.95Y-107.95
X35.95Y-115.95
X35.95Y-123.95
X35.95Y-131.95
X35.95Y-139.95
X36.365Y-22.383
X37.115Y-39.014
X37.12Y-20.384
X37.209Y-36.977
X39.479Y-85.75
X40.026Y-30.95
X40.242Y-42.558
X42.365Y-69.843
X42.79Y-24.926
X43.295Y-43.213
X43.695Y-39.543
X43.95Y-107.95
X43.95Y-115.95
X43.95Y-123.95
X43.95Y-131.95
X43.95Y-139.95
X44.005Y-23.434
X44.619Y-77.246
X48.095Y-36.894
X49.061Y-80.465
X49.075Y-79.109
X50.558Y-92.338
X51.95Y-99.95
X51.95Y-107.95
X51.95Y-115.95
X51.95Y-123.95
X51.95Y-131.95
X54.658Y-79.109
X54.921Y-89.145
X56.743Y-66.486
X57.07Y-30.95
X57.07Y-48.494
X57.825Y-21.753
X59.896Y-83.73
X59.95Y-99.95
X59.95Y-107.95
X63.59Y-131.503
X63.762Y-125.067
X65.315Y-96.559
X66.919Y-53.249
X67.95Y-51.95
X67.95Y-123.95
X67.95Y-131.95
X68.513Y-70.203
X68.81Y-100.996
X71.695Y-46.557
X72.053Y-22.473
X75.95Y-11.95
X75.95Y-51.95
X75.95Y-115.95
X75.95Y-123.95
X75.95Y-131.95
X76.441Y-60.933
X77.907Y-59.857
X77.946Y-66.338
X78.026Y-98.561
X79.468Y-58.33
X81.381Y-58.192
X81.658Y-33.522
X81.695Y-34.895
X81.835Y-46.547
X82.379Y-68.929
X83.308Y-69.415
X83.95Y-59.95
X83.95Y-83.95
X83.95Y-99.95
X83.95Y-107.95
X83.95Y-123.95
X83.95Y-131.95
X83.95Y-139.95
X84.237Y-43.516
X86.008Y-91.709
X86.278Y-71.722
X86.512Y-37.638
X86.977Y-81.404
X87.401Y-33.522
X88.21Y-25.1
X89.538Y-45.695
X90.378Y-31.05
X90.608Y-66.199
X91.21Y-36.956
X91.95Y-19.95
X91.95Y-43.95
X91.95Y-59.95
X91.95Y-83.95
X91.95Y-91.95
X91.95Y-99.95
X91.95Y-107.95
X91.95Y-115.95
X91.95Y-131.95
X93.008Y-96.559
X93.062Y-68.596
X93.813Y-37.803
X97.402Y-69.679
X97.88Y-86.318
X99.95Y-11.95
X99.95Y-19.95
X99.95Y-27.95
X99.95Y-35.95
X99.95Y-43.95
X99.95Y-51.95
X99.95Y-59.95
X99.95Y-83.95
X99.95Y-91.95
X99.95Y-99.95
X99.95Y-107.95
X99.95Y-115.95
X99.95Y-123.95
X99.95Y-139.95
X102.367Y-78.733
X107.95Y-51.95
X107.95Y-59.95
X107.95Y-67.95
X107.95Y-75.95
X107.95Y-83.95
X107.95Y-91.95
X107.95Y-99.95
X107.95Y-107.95
X107.95Y-115.95
X107.95Y-123.95
X107.95Y-131.95
X107.95Y-139.95
X110.185Y-3.23
X115.95Y-11.95
X115.95Y-19.95
X115.95Y-27.95
X115.95Y-35.95
X115.95Y-43.95
X115.95Y-51.95
X115.95Y-59.95
X115.95Y-67.95
X115.95Y-75.95
X115.95Y-83.95
X115.95Y-91.95
X115.95Y-99.95
X115.95Y-107.95
X115.95Y-115.95
X115.95Y-123.95
X115.95Y-139.95
T2
X6.437Y-17.086
X8.02Y-15.235
X16.62Y-31.615
X17.633Y-78.913
X20.979Y-36.979
X21.066Y-32.131
X31.452Y-28.374
X34.93Y-94.108
X35.916Y-77.954
X38.434Y-60.056
X43.85Y-95.835
X45.343Y-29.885
X58.52Y-80.89
X77.439Y-18.613
X85.791Y-50.441
X87.469Y-28.394
X90.052Y-47.198
X91.427Y-48.843
T3
X1.6Y-4.0
X1.6Y-132.0
X2.303Y-2.303
X2.303Y-5.697
X2.303Y-130.303
X2.303Y-133.697
X4.0Y-1.6
X4.0Y-6.4
X4.0Y-129.6
X4.0Y-134.4
X5.697Y-2.303
X5.697Y-5.697
X5.697Y-130.303
X5.697Y-133.697
X6.4Y-4.0
X6.4Y-132.0
X113.6Y-4.0
X113.6Y-132.0
X114.303Y-2.303
X114.303Y-5.697
X114.303Y-130.303
X114.303Y-133.697
X116.0Y-1.6
X116.0Y-6.4
X116.0Y-129.6
X116.0Y-134.4
X117.697Y-2.303
X117.697Y-5.697
X117.697Y-130.303
X117.697Y-133.697
X118.4Y-4.0
X118.4Y-132.0
T4
X14.0Y-5.0
X16.5Y-5.0
X19.0Y-5.0
X34.0Y-5.0
X36.5Y-5.0
X39.0Y-5.0
X56.0Y-5.0
X58.5Y-5.0
X61.0Y-5.0
X63.5Y-5.0
X66.0Y-5.0
X68.5Y-5.0
X108.0Y-4.5
X108.0Y-7.0
X108.0Y-9.5
X108.0Y-12.0
T5
X86.0Y-6.0
X89.96Y-6.0
X93.92Y-6.0
X97.88Y-6.0
T6
X13.0Y-140.0
X26.1Y-140.0
X39.2Y-140.0
X52.3Y-140.0
X65.4Y-140.0
X78.5Y-140.0
X91.6Y-140.0
X104.7Y-140.0
T7
X13.0Y-144.5
X26.1Y-144.5
X39.2Y-144.5
X52.3Y-144.5
X65.4Y-144.5
X78.5Y-144.5
X91.6Y-144.5
X104.7Y-144.5
T8
X4.0Y-4.0
X4.0Y-132.0
X116.0Y-4.0
X116.0Y-132.0
M30
