%TF.GenerationSoftware,KiCad,Pcbnew,10.0.6*%
%TF.CreationDate,2026-09-15T18:25:47-06:00*%
%TF.ProjectId,tank-board,74616e6b-2d62-46f6-9172-642e6b696361,rev?*%
%TF.SameCoordinates,Original*%
%TF.FileFunction,Soldermask,Bot*%
%TF.FilePolarity,Negative*%
%FSLAX46Y46*%
G04 Gerber Fmt 4.6, Leading zero omitted, Abs format (unit mm)*
G04 Created by KiCad (PCBNEW 10.0.6) date 2026-09-15 18:25:47*
%MOMM*%
%LPD*%
G01*
G04 APERTURE LIST*
G04 Aperture macros list*
%AMRoundRect*
0 Rectangle with rounded corners*
0 $1 Rounding radius*
0 $2 $3 $4 $5 $6 $7 $8 $9 X,Y pos of 4 corners*
0 Add a 4 corners polygon primitive as box body*
4,1,4,$2,$3,$4,$5,$6,$7,$8,$9,$2,$3,0*
0 Add four circle primitives for the rounded corners*
1,1,$1+$1,$2,$3*
1,1,$1+$1,$4,$5*
1,1,$1+$1,$6,$7*
1,1,$1+$1,$8,$9*
0 Add four rect primitives between the rounded corners*
20,1,$1+$1,$2,$3,$4,$5,0*
20,1,$1+$1,$4,$5,$6,$7,0*
20,1,$1+$1,$6,$7,$8,$9,0*
20,1,$1+$1,$8,$9,$2,$3,0*%
G04 Aperture macros list end*
%ADD10C,0.800000*%
%ADD11C,6.400000*%
%ADD12C,2.476000*%
%ADD13C,4.227000*%
%ADD14C,4.039000*%
%ADD15RoundRect,0.250000X0.725000X-0.600000X0.725000X0.600000X-0.725000X0.600000X-0.725000X-0.600000X0*%
%ADD16O,1.950000X1.700000*%
%ADD17RoundRect,0.250001X-1.099999X-1.099999X1.099999X-1.099999X1.099999X1.099999X-1.099999X1.099999X0*%
%ADD18C,2.700000*%
%ADD19RoundRect,0.250000X-0.600000X-0.725000X0.600000X-0.725000X0.600000X0.725000X-0.600000X0.725000X0*%
%ADD20O,1.700000X1.950000*%
G04 APERTURE END LIST*
D10*
%TO.C,H4*%
X113600000Y-132000000D03*
X114302944Y-130302944D03*
X114302944Y-133697056D03*
X116000000Y-129600000D03*
D11*
X116000000Y-132000000D03*
D10*
X116000000Y-134400000D03*
X117697056Y-130302944D03*
X117697056Y-133697056D03*
X118400000Y-132000000D03*
%TD*%
D12*
%TO.C,J2*%
X30350000Y-147650000D03*
X21850000Y-147650000D03*
D13*
X26100000Y-144500000D03*
D14*
X26100000Y-140000000D03*
%TD*%
D12*
%TO.C,J6*%
X82750000Y-147650000D03*
X74250000Y-147650000D03*
D13*
X78500000Y-144500000D03*
D14*
X78500000Y-140000000D03*
%TD*%
D10*
%TO.C,H1*%
X1600000Y-4000000D03*
X2302944Y-2302944D03*
X2302944Y-5697056D03*
X4000000Y-1600000D03*
D11*
X4000000Y-4000000D03*
D10*
X4000000Y-6400000D03*
X5697056Y-2302944D03*
X5697056Y-5697056D03*
X6400000Y-4000000D03*
%TD*%
D12*
%TO.C,J8*%
X108950000Y-147650000D03*
X100450000Y-147650000D03*
D13*
X104700000Y-144500000D03*
D14*
X104700000Y-140000000D03*
%TD*%
D15*
%TO.C,P5*%
X108000000Y-12000000D03*
D16*
X108000000Y-9500000D03*
X108000000Y-7000000D03*
X108000000Y-4500000D03*
%TD*%
D10*
%TO.C,H2*%
X113600000Y-4000000D03*
X114302944Y-2302944D03*
X114302944Y-5697056D03*
X116000000Y-1600000D03*
D11*
X116000000Y-4000000D03*
D10*
X116000000Y-6400000D03*
X117697056Y-2302944D03*
X117697056Y-5697056D03*
X118400000Y-4000000D03*
%TD*%
D12*
%TO.C,J5*%
X69650000Y-147650000D03*
X61150000Y-147650000D03*
D13*
X65400000Y-144500000D03*
D14*
X65400000Y-140000000D03*
%TD*%
D17*
%TO.C,P4*%
X86000000Y-6000000D03*
D18*
X89960000Y-6000000D03*
X93920000Y-6000000D03*
X97880000Y-6000000D03*
%TD*%
D19*
%TO.C,P3*%
X56000000Y-5000000D03*
D20*
X58500000Y-5000000D03*
X61000000Y-5000000D03*
X63500000Y-5000000D03*
X66000000Y-5000000D03*
X68500000Y-5000000D03*
%TD*%
D12*
%TO.C,J7*%
X95850000Y-147650000D03*
X87350000Y-147650000D03*
D13*
X91600000Y-144500000D03*
D14*
X91600000Y-140000000D03*
%TD*%
D12*
%TO.C,J4*%
X56550000Y-147650000D03*
X48050000Y-147650000D03*
D13*
X52300000Y-144500000D03*
D14*
X52300000Y-140000000D03*
%TD*%
D10*
%TO.C,H3*%
X1600000Y-132000000D03*
X2302944Y-130302944D03*
X2302944Y-133697056D03*
X4000000Y-129600000D03*
D11*
X4000000Y-132000000D03*
D10*
X4000000Y-134400000D03*
X5697056Y-130302944D03*
X5697056Y-133697056D03*
X6400000Y-132000000D03*
%TD*%
D12*
%TO.C,J1*%
X17250000Y-147650000D03*
X8750000Y-147650000D03*
D13*
X13000000Y-144500000D03*
D14*
X13000000Y-140000000D03*
%TD*%
D19*
%TO.C,P2*%
X34000000Y-5000000D03*
D20*
X36500000Y-5000000D03*
X39000000Y-5000000D03*
%TD*%
D12*
%TO.C,J3*%
X43450000Y-147650000D03*
X34950000Y-147650000D03*
D13*
X39200000Y-144500000D03*
D14*
X39200000Y-140000000D03*
%TD*%
D19*
%TO.C,P1*%
X14000000Y-5000000D03*
D20*
X16500000Y-5000000D03*
X19000000Y-5000000D03*
%TD*%
M02*
