%TF.GenerationSoftware,KiCad,Pcbnew,10.0.6*%
%TF.CreationDate,2026-09-15T18:25:47-06:00*%
%TF.ProjectId,tank-board,74616e6b-2d62-46f6-9172-642e6b696361,rev?*%
%TF.SameCoordinates,Original*%
%TF.FileFunction,Soldermask,Top*%
%TF.FilePolarity,Negative*%
%FSLAX46Y46*%
G04 Gerber Fmt 4.6, Leading zero omitted, Abs format (unit mm)*
G04 Created by KiCad (PCBNEW 10.0.6) date 2026-09-15 18:25:47*
%MOMM*%
%LPD*%
G01*
G04 APERTURE LIST*
G04 Aperture macros list*
%AMRoundRect*
0 Rectangle with rounded corners*
0 $1 Rounding radius*
0 $2 $3 $4 $5 $6 $7 $8 $9 X,Y pos of 4 corners*
0 Add a 4 corners polygon primitive as box body*
4,1,4,$2,$3,$4,$5,$6,$7,$8,$9,$2,$3,0*
0 Add four circle primitives for the rounded corners*
1,1,$1+$1,$2,$3*
1,1,$1+$1,$4,$5*
1,1,$1+$1,$6,$7*
1,1,$1+$1,$8,$9*
0 Add four rect primitives between the rounded corners*
20,1,$1+$1,$2,$3,$4,$5,0*
20,1,$1+$1,$4,$5,$6,$7,0*
20,1,$1+$1,$6,$7,$8,$9,0*
20,1,$1+$1,$8,$9,$2,$3,0*%
G04 Aperture macros list end*
%ADD10RoundRect,0.200000X-0.200000X-0.275000X0.200000X-0.275000X0.200000X0.275000X-0.200000X0.275000X0*%
%ADD11C,0.800000*%
%ADD12C,6.400000*%
%ADD13C,2.476000*%
%ADD14C,4.227000*%
%ADD15C,4.039000*%
%ADD16RoundRect,0.225000X-0.225000X-0.375000X0.225000X-0.375000X0.225000X0.375000X-0.225000X0.375000X0*%
%ADD17RoundRect,0.250000X-1.250000X-0.550000X1.250000X-0.550000X1.250000X0.550000X-1.250000X0.550000X0*%
%ADD18RoundRect,0.225000X-0.225000X-0.250000X0.225000X-0.250000X0.225000X0.250000X-0.225000X0.250000X0*%
%ADD19RoundRect,0.250000X-0.362500X-1.425000X0.362500X-1.425000X0.362500X1.425000X-0.362500X1.425000X0*%
%ADD20RoundRect,0.375000X-0.625000X-0.375000X0.625000X-0.375000X0.625000X0.375000X-0.625000X0.375000X0*%
%ADD21RoundRect,0.500000X-0.500000X-1.400000X0.500000X-1.400000X0.500000X1.400000X-0.500000X1.400000X0*%
%ADD22RoundRect,0.150000X-0.825000X-0.150000X0.825000X-0.150000X0.825000X0.150000X-0.825000X0.150000X0*%
%ADD23RoundRect,0.250000X-0.312500X-0.625000X0.312500X-0.625000X0.312500X0.625000X-0.312500X0.625000X0*%
%ADD24R,1.800000X0.800000*%
%ADD25RoundRect,0.250000X0.725000X-0.600000X0.725000X0.600000X-0.725000X0.600000X-0.725000X-0.600000X0*%
%ADD26O,1.950000X1.700000*%
%ADD27RoundRect,0.250001X-1.099999X-1.099999X1.099999X-1.099999X1.099999X1.099999X-1.099999X1.099999X0*%
%ADD28C,2.700000*%
%ADD29RoundRect,0.250000X-0.600000X-0.725000X0.600000X-0.725000X0.600000X0.725000X-0.600000X0.725000X0*%
%ADD30O,1.700000X1.950000*%
G04 APERTURE END LIST*
D10*
%TO.C,R411*%
X42200000Y-94695000D03*
X43850000Y-94695000D03*
%TD*%
D11*
%TO.C,H4*%
X113600000Y-132000000D03*
X114302944Y-130302944D03*
X114302944Y-133697056D03*
X116000000Y-129600000D03*
D12*
X116000000Y-132000000D03*
D11*
X116000000Y-134400000D03*
X117697056Y-130302944D03*
X117697056Y-133697056D03*
X118400000Y-132000000D03*
%TD*%
D13*
%TO.C,J2*%
X30350000Y-147650000D03*
X21850000Y-147650000D03*
D14*
X26100000Y-144500000D03*
D15*
X26100000Y-140000000D03*
%TD*%
D10*
%TO.C,R212*%
X90480000Y-45695000D03*
X92130000Y-45695000D03*
%TD*%
D16*
%TO.C,D101*%
X28245000Y-21735000D03*
X31545000Y-21735000D03*
%TD*%
D17*
%TO.C,C402*%
X67435000Y-89225000D03*
X71835000Y-89225000D03*
%TD*%
D16*
%TO.C,D301*%
X29185000Y-61695000D03*
X32485000Y-61695000D03*
%TD*%
D18*
%TO.C,C203*%
X71050000Y-38055000D03*
X72600000Y-38055000D03*
%TD*%
D16*
%TO.C,D401*%
X67185000Y-63695000D03*
X70485000Y-63695000D03*
%TD*%
D19*
%TO.C,R407*%
X57852500Y-64475000D03*
X63777500Y-64475000D03*
%TD*%
D10*
%TO.C,R105*%
X38840000Y-12275000D03*
X40490000Y-12275000D03*
%TD*%
%TO.C,R412*%
X61540000Y-94695000D03*
X63190000Y-94695000D03*
%TD*%
%TO.C,R204*%
X66200000Y-38055000D03*
X67850000Y-38055000D03*
%TD*%
D17*
%TO.C,C304*%
X19835000Y-94865000D03*
X24235000Y-94865000D03*
%TD*%
%TO.C,C101*%
X43695000Y-38225000D03*
X48095000Y-38225000D03*
%TD*%
D10*
%TO.C,R205*%
X76840000Y-14275000D03*
X78490000Y-14275000D03*
%TD*%
%TO.C,R302*%
X4200000Y-76015000D03*
X5850000Y-76015000D03*
%TD*%
D17*
%TO.C,C207*%
X67295000Y-55505000D03*
X71695000Y-55505000D03*
%TD*%
D10*
%TO.C,R312*%
X28480000Y-92695000D03*
X30130000Y-92695000D03*
%TD*%
D17*
%TO.C,C301*%
X14895000Y-87225000D03*
X19295000Y-87225000D03*
%TD*%
D13*
%TO.C,J6*%
X82750000Y-147650000D03*
X74250000Y-147650000D03*
D14*
X78500000Y-144500000D03*
D15*
X78500000Y-140000000D03*
%TD*%
D20*
%TO.C,Q301*%
X4795000Y-61845000D03*
X4795000Y-64145000D03*
D21*
X11095000Y-64145000D03*
D20*
X4795000Y-66445000D03*
%TD*%
D11*
%TO.C,H1*%
X1600000Y-4000000D03*
X2302944Y-2302944D03*
X2302944Y-5697056D03*
X4000000Y-1600000D03*
D12*
X4000000Y-4000000D03*
D11*
X4000000Y-6400000D03*
X5697056Y-2302944D03*
X5697056Y-5697056D03*
X6400000Y-4000000D03*
%TD*%
D18*
%TO.C,C303*%
X4250000Y-85055000D03*
X5800000Y-85055000D03*
%TD*%
D10*
%TO.C,R76*%
X9000000Y-33175000D03*
X10650000Y-33175000D03*
%TD*%
%TO.C,R202*%
X91700000Y-23315000D03*
X93350000Y-23315000D03*
%TD*%
D19*
%TO.C,R107*%
X43852500Y-13475000D03*
X49777500Y-13475000D03*
%TD*%
D17*
%TO.C,C401*%
X52895000Y-89225000D03*
X57295000Y-89225000D03*
%TD*%
D20*
%TO.C,Q302*%
X9595000Y-76585000D03*
X9595000Y-78885000D03*
D21*
X15895000Y-78885000D03*
D20*
X9595000Y-81185000D03*
%TD*%
D10*
%TO.C,R56*%
X4200000Y-29875000D03*
X5850000Y-29875000D03*
%TD*%
D13*
%TO.C,J8*%
X108950000Y-147650000D03*
X100450000Y-147650000D03*
D14*
X104700000Y-144500000D03*
D15*
X104700000Y-140000000D03*
%TD*%
D17*
%TO.C,C104*%
X38895000Y-45865000D03*
X43295000Y-45865000D03*
%TD*%
%TO.C,C208*%
X77035000Y-55505000D03*
X81435000Y-55505000D03*
%TD*%
D22*
%TO.C,U4*%
X47570000Y-78080000D03*
X47570000Y-79350000D03*
X47570000Y-80620000D03*
X47570000Y-81890000D03*
X52520000Y-81890000D03*
X52520000Y-80620000D03*
X52520000Y-79350000D03*
X52520000Y-78080000D03*
%TD*%
D10*
%TO.C,R66*%
X18600000Y-23275000D03*
X20250000Y-23275000D03*
%TD*%
D17*
%TO.C,C102*%
X53435000Y-38225000D03*
X57835000Y-38225000D03*
%TD*%
D10*
%TO.C,R303*%
X4200000Y-70315000D03*
X5850000Y-70315000D03*
%TD*%
D16*
%TO.C,D202*%
X66245000Y-29435000D03*
X69545000Y-29435000D03*
%TD*%
D10*
%TO.C,R213*%
X75940000Y-45695000D03*
X77590000Y-45695000D03*
%TD*%
%TO.C,R65*%
X9000000Y-29875000D03*
X10650000Y-29875000D03*
%TD*%
D19*
%TO.C,R408*%
X58412500Y-73515000D03*
X64337500Y-73515000D03*
%TD*%
D17*
%TO.C,C302*%
X5295000Y-94865000D03*
X9695000Y-94865000D03*
%TD*%
D10*
%TO.C,R304*%
X33680000Y-76015000D03*
X35330000Y-76015000D03*
%TD*%
D18*
%TO.C,C59*%
X18650000Y-33175000D03*
X20200000Y-33175000D03*
%TD*%
%TO.C,C206*%
X90530000Y-53335000D03*
X92080000Y-53335000D03*
%TD*%
D23*
%TO.C,R210*%
X85462500Y-23715000D03*
X88387500Y-23715000D03*
%TD*%
D17*
%TO.C,C307*%
X5295000Y-102505000D03*
X9695000Y-102505000D03*
%TD*%
D10*
%TO.C,R315*%
X33280000Y-92695000D03*
X34930000Y-92695000D03*
%TD*%
D20*
%TO.C,Q202*%
X73335000Y-29585000D03*
X73335000Y-31885000D03*
D21*
X79635000Y-31885000D03*
D20*
X73335000Y-34185000D03*
%TD*%
D10*
%TO.C,R71*%
X18600000Y-29875000D03*
X20250000Y-29875000D03*
%TD*%
D18*
%TO.C,C406*%
X66530000Y-102335000D03*
X68080000Y-102335000D03*
%TD*%
D17*
%TO.C,C407*%
X43295000Y-104505000D03*
X47695000Y-104505000D03*
%TD*%
D10*
%TO.C,R415*%
X66340000Y-94695000D03*
X67990000Y-94695000D03*
%TD*%
D17*
%TO.C,C404*%
X52895000Y-96865000D03*
X57295000Y-96865000D03*
%TD*%
D10*
%TO.C,R403*%
X42200000Y-72315000D03*
X43850000Y-72315000D03*
%TD*%
D23*
%TO.C,R310*%
X9162500Y-70715000D03*
X12087500Y-70715000D03*
%TD*%
%TO.C,R110*%
X34902500Y-21715000D03*
X37827500Y-21715000D03*
%TD*%
D10*
%TO.C,R57*%
X13800000Y-23275000D03*
X15450000Y-23275000D03*
%TD*%
%TO.C,R306*%
X28880000Y-76015000D03*
X30530000Y-76015000D03*
%TD*%
%TO.C,R51*%
X9000000Y-26575000D03*
X10650000Y-26575000D03*
%TD*%
D16*
%TO.C,D1F*%
X80245000Y-76035000D03*
X83545000Y-76035000D03*
%TD*%
D24*
%TO.C,K2*%
X91835000Y-63995000D03*
X91835000Y-67195000D03*
X91835000Y-69395000D03*
X91835000Y-71595000D03*
X98835000Y-71595000D03*
X98835000Y-69395000D03*
X98835000Y-67195000D03*
X98835000Y-63995000D03*
%TD*%
D10*
%TO.C,R402*%
X42200000Y-78015000D03*
X43850000Y-78015000D03*
%TD*%
%TO.C,R406*%
X71680000Y-78015000D03*
X73330000Y-78015000D03*
%TD*%
%TO.C,R211*%
X95140000Y-38055000D03*
X96790000Y-38055000D03*
%TD*%
%TO.C,R115*%
X52340000Y-43695000D03*
X53990000Y-43695000D03*
%TD*%
%TO.C,R201*%
X90340000Y-38055000D03*
X91990000Y-38055000D03*
%TD*%
D17*
%TO.C,C107*%
X29295000Y-53505000D03*
X33695000Y-53505000D03*
%TD*%
D10*
%TO.C,R409*%
X53400000Y-72315000D03*
X55050000Y-72315000D03*
%TD*%
D17*
%TO.C,C201*%
X81695000Y-40225000D03*
X86095000Y-40225000D03*
%TD*%
D25*
%TO.C,P5*%
X108000000Y-12000000D03*
D26*
X108000000Y-9500000D03*
X108000000Y-7000000D03*
X108000000Y-4500000D03*
%TD*%
D10*
%TO.C,R111*%
X28200000Y-43695000D03*
X29850000Y-43695000D03*
%TD*%
D18*
%TO.C,C106*%
X52530000Y-51335000D03*
X54080000Y-51335000D03*
%TD*%
D10*
%TO.C,R209*%
X80500000Y-23315000D03*
X82150000Y-23315000D03*
%TD*%
%TO.C,R305*%
X14840000Y-61275000D03*
X16490000Y-61275000D03*
%TD*%
D22*
%TO.C,U1*%
X33570000Y-27080000D03*
X33570000Y-28350000D03*
X33570000Y-29620000D03*
X33570000Y-30890000D03*
X38520000Y-30890000D03*
X38520000Y-29620000D03*
X38520000Y-28350000D03*
X38520000Y-27080000D03*
%TD*%
D18*
%TO.C,C55*%
X9050000Y-23275000D03*
X10600000Y-23275000D03*
%TD*%
D16*
%TO.C,D2F*%
X96385000Y-76035000D03*
X99685000Y-76035000D03*
%TD*%
D22*
%TO.C,U5*%
X4770000Y-12315000D03*
X4770000Y-13585000D03*
X4770000Y-14855000D03*
X4770000Y-16125000D03*
X4770000Y-17395000D03*
X4770000Y-18665000D03*
X4770000Y-19935000D03*
X9720000Y-19935000D03*
X9720000Y-18665000D03*
X9720000Y-17395000D03*
X9720000Y-16125000D03*
X9720000Y-14855000D03*
X9720000Y-13585000D03*
X9720000Y-12315000D03*
%TD*%
D10*
%TO.C,R81*%
X91540000Y-75615000D03*
X93190000Y-75615000D03*
%TD*%
%TO.C,R113*%
X33000000Y-43695000D03*
X34650000Y-43695000D03*
%TD*%
%TO.C,R413*%
X47000000Y-94695000D03*
X48650000Y-94695000D03*
%TD*%
D17*
%TO.C,C408*%
X53035000Y-104505000D03*
X57435000Y-104505000D03*
%TD*%
D20*
%TO.C,Q402*%
X56835000Y-78585000D03*
X56835000Y-80885000D03*
D21*
X63135000Y-80885000D03*
D20*
X56835000Y-83185000D03*
%TD*%
D16*
%TO.C,D402*%
X67745000Y-72735000D03*
X71045000Y-72735000D03*
%TD*%
D10*
%TO.C,R72*%
X13800000Y-29875000D03*
X15450000Y-29875000D03*
%TD*%
D11*
%TO.C,H2*%
X113600000Y-4000000D03*
X114302944Y-2302944D03*
X114302944Y-5697056D03*
X116000000Y-1600000D03*
D12*
X116000000Y-4000000D03*
D11*
X116000000Y-6400000D03*
X117697056Y-2302944D03*
X117697056Y-5697056D03*
X118400000Y-4000000D03*
%TD*%
D13*
%TO.C,J5*%
X69650000Y-147650000D03*
X61150000Y-147650000D03*
D14*
X65400000Y-144500000D03*
D15*
X65400000Y-140000000D03*
%TD*%
D18*
%TO.C,C405*%
X61730000Y-102335000D03*
X63280000Y-102335000D03*
%TD*%
D16*
%TO.C,D3F*%
X80245000Y-80175000D03*
X83545000Y-80175000D03*
%TD*%
D18*
%TO.C,C306*%
X28530000Y-100335000D03*
X30080000Y-100335000D03*
%TD*%
D10*
%TO.C,R103*%
X53140000Y-12275000D03*
X54790000Y-12275000D03*
%TD*%
%TO.C,R83*%
X97880000Y-79755000D03*
X99530000Y-79755000D03*
%TD*%
D20*
%TO.C,Q102*%
X42835000Y-27585000D03*
X42835000Y-29885000D03*
D21*
X49135000Y-29885000D03*
D20*
X42835000Y-32185000D03*
%TD*%
D17*
%TO.C,C204*%
X81835000Y-47865000D03*
X86235000Y-47865000D03*
%TD*%
D10*
%TO.C,R112*%
X47540000Y-43695000D03*
X49190000Y-43695000D03*
%TD*%
%TO.C,R114*%
X28200000Y-36055000D03*
X29850000Y-36055000D03*
%TD*%
%TO.C,R401*%
X61540000Y-87055000D03*
X63190000Y-87055000D03*
%TD*%
%TO.C,R301*%
X23540000Y-85055000D03*
X25190000Y-85055000D03*
%TD*%
D18*
%TO.C,C103*%
X33050000Y-36055000D03*
X34600000Y-36055000D03*
%TD*%
D10*
%TO.C,R206*%
X92620000Y-29015000D03*
X94270000Y-29015000D03*
%TD*%
D19*
%TO.C,R308*%
X15612500Y-71515000D03*
X21537500Y-71515000D03*
%TD*%
D10*
%TO.C,R82*%
X86740000Y-75615000D03*
X88390000Y-75615000D03*
%TD*%
%TO.C,R75*%
X4200000Y-33175000D03*
X5850000Y-33175000D03*
%TD*%
%TO.C,R55*%
X18600000Y-26575000D03*
X20250000Y-26575000D03*
%TD*%
D17*
%TO.C,C308*%
X15035000Y-102505000D03*
X19435000Y-102505000D03*
%TD*%
D23*
%TO.C,R410*%
X47162500Y-72715000D03*
X50087500Y-72715000D03*
%TD*%
D27*
%TO.C,P4*%
X86000000Y-6000000D03*
D28*
X89960000Y-6000000D03*
X93920000Y-6000000D03*
X97880000Y-6000000D03*
%TD*%
D10*
%TO.C,R106*%
X52880000Y-27015000D03*
X54530000Y-27015000D03*
%TD*%
%TO.C,R314*%
X9000000Y-85055000D03*
X10650000Y-85055000D03*
%TD*%
%TO.C,R405*%
X52840000Y-63275000D03*
X54490000Y-63275000D03*
%TD*%
D29*
%TO.C,P3*%
X56000000Y-5000000D03*
D30*
X58500000Y-5000000D03*
X61000000Y-5000000D03*
X63500000Y-5000000D03*
X66000000Y-5000000D03*
X68500000Y-5000000D03*
%TD*%
D13*
%TO.C,J7*%
X95850000Y-147650000D03*
X87350000Y-147650000D03*
D14*
X91600000Y-144500000D03*
D15*
X91600000Y-140000000D03*
%TD*%
D10*
%TO.C,R104*%
X57680000Y-27015000D03*
X59330000Y-27015000D03*
%TD*%
D22*
%TO.C,U3*%
X20210000Y-76080000D03*
X20210000Y-77350000D03*
X20210000Y-78620000D03*
X20210000Y-79890000D03*
X25160000Y-79890000D03*
X25160000Y-78620000D03*
X25160000Y-77350000D03*
X25160000Y-76080000D03*
%TD*%
D13*
%TO.C,J4*%
X56550000Y-147650000D03*
X48050000Y-147650000D03*
D14*
X52300000Y-144500000D03*
D15*
X52300000Y-140000000D03*
%TD*%
D18*
%TO.C,C403*%
X47050000Y-87055000D03*
X48600000Y-87055000D03*
%TD*%
D10*
%TO.C,R53*%
X13440000Y-12275000D03*
X15090000Y-12275000D03*
%TD*%
%TO.C,R203*%
X66200000Y-23315000D03*
X67850000Y-23315000D03*
%TD*%
%TO.C,R62*%
X4200000Y-23275000D03*
X5850000Y-23275000D03*
%TD*%
D11*
%TO.C,H3*%
X1600000Y-132000000D03*
X2302944Y-130302944D03*
X2302944Y-133697056D03*
X4000000Y-129600000D03*
D12*
X4000000Y-132000000D03*
D11*
X4000000Y-134400000D03*
X5697056Y-130302944D03*
X5697056Y-133697056D03*
X6400000Y-132000000D03*
%TD*%
D20*
%TO.C,Q201*%
X66795000Y-14845000D03*
X66795000Y-17145000D03*
D21*
X73095000Y-17145000D03*
D20*
X66795000Y-19445000D03*
%TD*%
D19*
%TO.C,R307*%
X19852500Y-62475000D03*
X25777500Y-62475000D03*
%TD*%
%TO.C,R108*%
X46152500Y-22515000D03*
X52077500Y-22515000D03*
%TD*%
D10*
%TO.C,R414*%
X42200000Y-87055000D03*
X43850000Y-87055000D03*
%TD*%
%TO.C,R102*%
X28200000Y-27015000D03*
X29850000Y-27015000D03*
%TD*%
%TO.C,R84*%
X102680000Y-79755000D03*
X104330000Y-79755000D03*
%TD*%
D18*
%TO.C,C58*%
X13850000Y-33175000D03*
X15400000Y-33175000D03*
%TD*%
D13*
%TO.C,J1*%
X17250000Y-147650000D03*
X8750000Y-147650000D03*
D14*
X13000000Y-144500000D03*
D15*
X13000000Y-140000000D03*
%TD*%
D10*
%TO.C,R52*%
X4200000Y-26575000D03*
X5850000Y-26575000D03*
%TD*%
D22*
%TO.C,U2*%
X83950000Y-29080000D03*
X83950000Y-30350000D03*
X83950000Y-31620000D03*
X83950000Y-32890000D03*
X88900000Y-32890000D03*
X88900000Y-31620000D03*
X88900000Y-30350000D03*
X88900000Y-29080000D03*
%TD*%
D10*
%TO.C,R311*%
X28340000Y-85055000D03*
X29990000Y-85055000D03*
%TD*%
D29*
%TO.C,P2*%
X34000000Y-5000000D03*
D30*
X36500000Y-5000000D03*
X39000000Y-5000000D03*
%TD*%
D13*
%TO.C,J3*%
X43450000Y-147650000D03*
X34950000Y-147650000D03*
D14*
X39200000Y-144500000D03*
D15*
X39200000Y-140000000D03*
%TD*%
D10*
%TO.C,R309*%
X24900000Y-70315000D03*
X26550000Y-70315000D03*
%TD*%
D18*
%TO.C,C105*%
X47730000Y-51335000D03*
X49280000Y-51335000D03*
%TD*%
D10*
%TO.C,R109*%
X41140000Y-21315000D03*
X42790000Y-21315000D03*
%TD*%
D20*
%TO.C,Q101*%
X28795000Y-12845000D03*
X28795000Y-15145000D03*
D21*
X35095000Y-15145000D03*
D20*
X28795000Y-17445000D03*
%TD*%
D17*
%TO.C,C202*%
X67295000Y-47865000D03*
X71695000Y-47865000D03*
%TD*%
D18*
%TO.C,C51*%
X18290000Y-12275000D03*
X19840000Y-12275000D03*
%TD*%
D19*
%TO.C,R208*%
X71212500Y-24515000D03*
X77137500Y-24515000D03*
%TD*%
D10*
%TO.C,R214*%
X75800000Y-38055000D03*
X77450000Y-38055000D03*
%TD*%
D16*
%TO.C,D302*%
X29745000Y-70735000D03*
X33045000Y-70735000D03*
%TD*%
D10*
%TO.C,R101*%
X37800000Y-36055000D03*
X39450000Y-36055000D03*
%TD*%
D29*
%TO.C,P1*%
X14000000Y-5000000D03*
D30*
X16500000Y-5000000D03*
X19000000Y-5000000D03*
%TD*%
D19*
%TO.C,R207*%
X81852500Y-15475000D03*
X87777500Y-15475000D03*
%TD*%
D10*
%TO.C,R404*%
X66880000Y-78015000D03*
X68530000Y-78015000D03*
%TD*%
%TO.C,R61*%
X13800000Y-26575000D03*
X15450000Y-26575000D03*
%TD*%
D17*
%TO.C,C108*%
X39035000Y-53505000D03*
X43435000Y-53505000D03*
%TD*%
D16*
%TO.C,D102*%
X55485000Y-21735000D03*
X58785000Y-21735000D03*
%TD*%
D24*
%TO.C,K3*%
X87235000Y-80475000D03*
X87235000Y-83675000D03*
X87235000Y-85875000D03*
X87235000Y-88075000D03*
X94235000Y-88075000D03*
X94235000Y-85875000D03*
X94235000Y-83675000D03*
X94235000Y-80475000D03*
%TD*%
D10*
%TO.C,R215*%
X95280000Y-45695000D03*
X96930000Y-45695000D03*
%TD*%
D20*
%TO.C,Q401*%
X42795000Y-63845000D03*
X42795000Y-66145000D03*
D21*
X49095000Y-66145000D03*
D20*
X42795000Y-68445000D03*
%TD*%
D18*
%TO.C,C305*%
X23730000Y-100335000D03*
X25280000Y-100335000D03*
%TD*%
%TO.C,C205*%
X85730000Y-53335000D03*
X87280000Y-53335000D03*
%TD*%
D16*
%TO.C,D201*%
X91185000Y-14695000D03*
X94485000Y-14695000D03*
%TD*%
D10*
%TO.C,R313*%
X13940000Y-92695000D03*
X15590000Y-92695000D03*
%TD*%
D24*
%TO.C,K1*%
X80695000Y-63995000D03*
X80695000Y-67195000D03*
X80695000Y-69395000D03*
X80695000Y-71595000D03*
X87695000Y-71595000D03*
X87695000Y-69395000D03*
X87695000Y-67195000D03*
X87695000Y-63995000D03*
%TD*%
M02*
