%TF.GenerationSoftware,KiCad,Pcbnew,10.0.3*%
%TF.CreationDate,2026-07-02T05:10:36-05:00*%
%TF.ProjectId,power-backplane,706f7765-722d-4626-9163-6b706c616e65,rev?*%
%TF.SameCoordinates,Original*%
%TF.FileFunction,Copper,L2,Bot*%
%TF.FilePolarity,Positive*%
%FSLAX46Y46*%
G04 Gerber Fmt 4.6, Leading zero omitted, Abs format (unit mm)*
G04 Created by KiCad (PCBNEW 10.0.3) date 2026-07-02 05:10:36*
%MOMM*%
%LPD*%
G01*
G04 APERTURE LIST*
G04 Aperture macros list*
%AMRoundRect*
0 Rectangle with rounded corners*
0 $1 Rounding radius*
0 $2 $3 $4 $5 $6 $7 $8 $9 X,Y pos of 4 corners*
0 Add a 4 corners polygon primitive as box body*
4,1,4,$2,$3,$4,$5,$6,$7,$8,$9,$2,$3,0*
0 Add four circle primitives for the rounded corners*
1,1,$1+$1,$2,$3*
1,1,$1+$1,$4,$5*
1,1,$1+$1,$6,$7*
1,1,$1+$1,$8,$9*
0 Add four rect primitives between the rounded corners*
20,1,$1+$1,$2,$3,$4,$5,0*
20,1,$1+$1,$4,$5,$6,$7,0*
20,1,$1+$1,$6,$7,$8,$9,0*
20,1,$1+$1,$8,$9,$2,$3,0*%
G04 Aperture macros list end*
%TA.AperFunction,ComponentPad*%
%ADD10RoundRect,0.250000X0.750000X-0.600000X0.750000X0.600000X-0.750000X0.600000X-0.750000X-0.600000X0*%
%TD*%
%TA.AperFunction,ComponentPad*%
%ADD11O,2.000000X1.700000*%
%TD*%
%TA.AperFunction,ComponentPad*%
%ADD12RoundRect,0.250001X-1.099999X1.099999X-1.099999X-1.099999X1.099999X-1.099999X1.099999X1.099999X0*%
%TD*%
%TA.AperFunction,ComponentPad*%
%ADD13C,2.700000*%
%TD*%
%TA.AperFunction,ComponentPad*%
%ADD14RoundRect,0.250000X-0.550000X-0.550000X0.550000X-0.550000X0.550000X0.550000X-0.550000X0.550000X0*%
%TD*%
%TA.AperFunction,ComponentPad*%
%ADD15C,1.600000*%
%TD*%
%TA.AperFunction,ComponentPad*%
%ADD16RoundRect,0.250001X-1.099999X-1.099999X1.099999X-1.099999X1.099999X1.099999X-1.099999X1.099999X0*%
%TD*%
%TA.AperFunction,ComponentPad*%
%ADD17RoundRect,0.250000X-0.750000X-0.750000X0.750000X-0.750000X0.750000X0.750000X-0.750000X0.750000X0*%
%TD*%
%TA.AperFunction,ComponentPad*%
%ADD18C,2.000000*%
%TD*%
%TA.AperFunction,ComponentPad*%
%ADD19R,2.000000X2.000000*%
%TD*%
%TA.AperFunction,ComponentPad*%
%ADD20R,1.500000X2.300000*%
%TD*%
%TA.AperFunction,ComponentPad*%
%ADD21O,1.500000X2.300000*%
%TD*%
%TA.AperFunction,ViaPad*%
%ADD22C,0.600000*%
%TD*%
%TA.AperFunction,ViaPad*%
%ADD23C,0.800000*%
%TD*%
%TA.AperFunction,Conductor*%
%ADD24C,0.800000*%
%TD*%
G04 APERTURE END LIST*
D10*
%TO.P,P500,1*%
%TO.N,+30V_RAW*%
X38000000Y-46000000D03*
D11*
%TO.P,P500,2*%
%TO.N,GND_IN*%
X38000000Y-43500000D03*
%TD*%
D12*
%TO.P,P506,1*%
%TO.N,+15VA*%
X138000000Y-58000000D03*
D13*
%TO.P,P506,2*%
%TO.N,AGND*%
X138000000Y-61960000D03*
%TO.P,P506,3*%
%TO.N,-15VA*%
X138000000Y-65920000D03*
%TO.P,P506,4*%
%TO.N,+5VAUX*%
X138000000Y-69880000D03*
%TD*%
D12*
%TO.P,P601,1*%
%TO.N,+5VAUX*%
X138000000Y-78000000D03*
D13*
%TO.P,P601,2*%
%TO.N,AGND*%
X138000000Y-81960000D03*
%TO.P,P601,3*%
%TO.N,+15VA*%
X138000000Y-85920000D03*
%TO.P,P601,4*%
%TO.N,-15VA*%
X138000000Y-89880000D03*
%TD*%
D14*
%TO.P,C511,1*%
%TO.N,AGND*%
X112000000Y-70000000D03*
D15*
%TO.P,C511,2*%
%TO.N,-15VRAW*%
X114500000Y-70000000D03*
%TD*%
D14*
%TO.P,C510,1*%
%TO.N,+15VRAW*%
X102000000Y-70000000D03*
D15*
%TO.P,C510,2*%
%TO.N,AGND*%
X104500000Y-70000000D03*
%TD*%
D16*
%TO.P,P504,1*%
%TO.N,+15VA*%
X110000000Y-100000000D03*
D13*
%TO.P,P504,2*%
%TO.N,AGND*%
X113960000Y-100000000D03*
%TO.P,P504,3*%
%TO.N,-15VA*%
X117920000Y-100000000D03*
%TD*%
D14*
%TO.P,C504,1*%
%TO.N,AGND*%
X97000000Y-82000000D03*
D15*
%TO.P,C504,2*%
%TO.N,-15VA*%
X99500000Y-82000000D03*
%TD*%
D16*
%TO.P,P502,1*%
%TO.N,+15VA*%
X78000000Y-100000000D03*
D13*
%TO.P,P502,2*%
%TO.N,AGND*%
X81960000Y-100000000D03*
%TO.P,P502,3*%
%TO.N,-15VA*%
X85920000Y-100000000D03*
%TD*%
D16*
%TO.P,P505,1*%
%TO.N,+15VA*%
X126000000Y-100000000D03*
D13*
%TO.P,P505,2*%
%TO.N,AGND*%
X129960000Y-100000000D03*
%TO.P,P505,3*%
%TO.N,-15VA*%
X133920000Y-100000000D03*
%TD*%
D16*
%TO.P,P503,1*%
%TO.N,+15VA*%
X94000000Y-100000000D03*
D13*
%TO.P,P503,2*%
%TO.N,AGND*%
X97960000Y-100000000D03*
%TO.P,P503,3*%
%TO.N,-15VA*%
X101920000Y-100000000D03*
%TD*%
D14*
%TO.P,C507,1*%
%TO.N,+5VAUX*%
X60000000Y-66000000D03*
D15*
%TO.P,C507,2*%
%TO.N,AGND*%
X62500000Y-66000000D03*
%TD*%
D17*
%TO.P,C509,1*%
%TO.N,+30V_F*%
X92000000Y-64000000D03*
D18*
%TO.P,C509,2*%
%TO.N,GND_IN*%
X97000000Y-64000000D03*
%TD*%
D16*
%TO.P,P501,1*%
%TO.N,+15VA*%
X62000000Y-100000000D03*
D13*
%TO.P,P501,2*%
%TO.N,AGND*%
X65960000Y-100000000D03*
%TO.P,P501,3*%
%TO.N,-15VA*%
X69920000Y-100000000D03*
%TD*%
D17*
%TO.P,C500,1*%
%TO.N,+30V_F*%
X70000000Y-46000000D03*
D18*
%TO.P,C500,2*%
%TO.N,GND_IN*%
X75000000Y-46000000D03*
%TD*%
%TO.P,PS500,1*%
%TO.N,GND_IN*%
X113460000Y-39840000D03*
D19*
%TO.P,PS500,2*%
%TO.N,+30V_F*%
X108380000Y-39840000D03*
D18*
%TO.P,PS500,3*%
%TO.N,+15VRAW*%
X105840000Y-60160000D03*
%TO.P,PS500,4*%
%TO.N,AGND*%
X116000000Y-60160000D03*
%TO.P,PS500,5*%
%TO.N,-15VRAW*%
X126160000Y-60160000D03*
%TO.P,PS500,6*%
%TO.N,N/C*%
X121080000Y-39840000D03*
%TD*%
D14*
%TO.P,C501,1*%
%TO.N,+15VA*%
X59000000Y-82000000D03*
D15*
%TO.P,C501,2*%
%TO.N,AGND*%
X61500000Y-82000000D03*
%TD*%
D20*
%TO.P,PS501,1*%
%TO.N,+15VRAW*%
X46000000Y-66000000D03*
D21*
%TO.P,PS501,2*%
%TO.N,AGND*%
X48540000Y-66000000D03*
%TO.P,PS501,3*%
%TO.N,+5VAUX*%
X51080000Y-66000000D03*
%TD*%
D22*
%TO.N,-15VRAW*%
X110524500Y-81881200D03*
D23*
%TO.N,AGND*%
X106746834Y-81466351D03*
X105179007Y-99903299D03*
X140503097Y-36889615D03*
X82759827Y-100095576D03*
X127174723Y-69783159D03*
X73119545Y-100130874D03*
X63589289Y-65624058D03*
X120958182Y-100050501D03*
X138114256Y-82972878D03*
X42450671Y-44992202D03*
X140777643Y-37163220D03*
X77813455Y-67403761D03*
X109394212Y-69605104D03*
X115393966Y-99689215D03*
%TD*%
%TO.N,+15VA*%
D24*
X138000000Y-85920000D02*
X126000000Y-97920000D01*
X138000000Y-58000000D02*
X135990200Y-60009800D01*
X62000000Y-100000000D02*
X62000000Y-85000000D01*
X62000000Y-85000000D02*
X59000000Y-82000000D01*
X135990200Y-83910200D02*
X138000000Y-85920000D01*
X126000000Y-97920000D02*
X126000000Y-100000000D01*
X135990200Y-60009800D02*
X135990200Y-83910200D01*
%TO.N,+15VRAW*%
X102000000Y-64000000D02*
X102000000Y-70000000D01*
X105840000Y-60160000D02*
X102000000Y-64000000D01*
%TO.N,+30V_F*%
X108380000Y-41441700D02*
X92000000Y-57821700D01*
X92000000Y-57821700D02*
X92000000Y-64000000D01*
X108380000Y-39840000D02*
X108380000Y-41441700D01*
%TO.N,+5VAUX*%
X138000000Y-78000000D02*
X138000000Y-69880000D01*
%TO.N,-15VA*%
X140009800Y-87870200D02*
X138000000Y-89880000D01*
X85920000Y-100000000D02*
X87878700Y-101958700D01*
X99961300Y-101958700D02*
X101920000Y-100000000D01*
X133920000Y-93960000D02*
X133920000Y-100000000D01*
X101920000Y-84420000D02*
X99500000Y-82000000D01*
X87878700Y-101958700D02*
X99961300Y-101958700D01*
X138000000Y-89880000D02*
X133920000Y-93960000D01*
X138000000Y-65920000D02*
X140009800Y-67929800D01*
X101920000Y-100000000D02*
X101920000Y-84420000D01*
X140009800Y-67929800D02*
X140009800Y-87870200D01*
%TO.N,-15VRAW*%
X110524500Y-81881200D02*
X114500000Y-77905700D01*
X126160000Y-60160000D02*
X116320000Y-70000000D01*
X114500000Y-77905700D02*
X114500000Y-70000000D01*
X116320000Y-70000000D02*
X114500000Y-70000000D01*
%TD*%
%TA.AperFunction,Conductor*%
%TO.N,AGND*%
G36*
X139055588Y-79769454D02*
G01*
X139136370Y-79823430D01*
X139190346Y-79904212D01*
X139209300Y-79999500D01*
X139209300Y-84165605D01*
X139190346Y-84260893D01*
X139136370Y-84341675D01*
X139055588Y-84395651D01*
X138960300Y-84414605D01*
X138865012Y-84395651D01*
X138835802Y-84381246D01*
X138775896Y-84346660D01*
X138775882Y-84346653D01*
X138563885Y-84258841D01*
X138397577Y-84214280D01*
X138342238Y-84199452D01*
X138342235Y-84199451D01*
X138342236Y-84199451D01*
X138114734Y-84169500D01*
X137885266Y-84169500D01*
X137657767Y-84199451D01*
X137657764Y-84199451D01*
X137657762Y-84199452D01*
X137602421Y-84214280D01*
X137505476Y-84220632D01*
X137413478Y-84189401D01*
X137361911Y-84149833D01*
X136863630Y-83651552D01*
X136809654Y-83570770D01*
X136790700Y-83475482D01*
X136790700Y-79999500D01*
X136809654Y-79904212D01*
X136863630Y-79823430D01*
X136944412Y-79769454D01*
X137039700Y-79750500D01*
X138960300Y-79750500D01*
X139055588Y-79769454D01*
G37*
%TD.AperFunction*%
%TA.AperFunction,Conductor*%
G36*
X148846288Y-31018954D02*
G01*
X148927070Y-31072930D01*
X148981046Y-31153712D01*
X149000000Y-31249000D01*
X149000000Y-108751000D01*
X148981046Y-108846288D01*
X148927070Y-108927070D01*
X148846288Y-108981046D01*
X148751000Y-109000000D01*
X31249000Y-109000000D01*
X31153712Y-108981046D01*
X31072930Y-108927070D01*
X31018954Y-108846288D01*
X31000000Y-108751000D01*
X31000000Y-103878712D01*
X34149500Y-103878712D01*
X34149500Y-104121287D01*
X34181162Y-104361790D01*
X34181163Y-104361795D01*
X34243940Y-104596082D01*
X34243948Y-104596105D01*
X34336770Y-104820201D01*
X34336778Y-104820217D01*
X34458058Y-105030279D01*
X34458064Y-105030289D01*
X34605729Y-105222731D01*
X34605738Y-105222741D01*
X34777258Y-105394261D01*
X34777268Y-105394270D01*
X34898491Y-105487287D01*
X34969711Y-105541936D01*
X34969720Y-105541941D01*
X35179782Y-105663221D01*
X35179798Y-105663229D01*
X35319858Y-105721242D01*
X35403900Y-105756054D01*
X35403911Y-105756057D01*
X35403917Y-105756059D01*
X35587021Y-105805121D01*
X35638211Y-105818838D01*
X35878712Y-105850500D01*
X36121288Y-105850500D01*
X36361789Y-105818838D01*
X36523275Y-105775567D01*
X36596082Y-105756059D01*
X36596084Y-105756058D01*
X36596100Y-105756054D01*
X36747766Y-105693231D01*
X36820201Y-105663229D01*
X36820206Y-105663226D01*
X36820212Y-105663224D01*
X37030289Y-105541936D01*
X37222738Y-105394265D01*
X37394265Y-105222738D01*
X37541936Y-105030289D01*
X37663224Y-104820212D01*
X37756054Y-104596100D01*
X37818838Y-104361789D01*
X37850500Y-104121288D01*
X37850500Y-103878712D01*
X142149500Y-103878712D01*
X142149500Y-104121287D01*
X142181162Y-104361790D01*
X142181163Y-104361795D01*
X142243940Y-104596082D01*
X142243948Y-104596105D01*
X142336770Y-104820201D01*
X142336778Y-104820217D01*
X142458058Y-105030279D01*
X142458064Y-105030289D01*
X142605729Y-105222731D01*
X142605738Y-105222741D01*
X142777258Y-105394261D01*
X142777268Y-105394270D01*
X142898491Y-105487287D01*
X142969711Y-105541936D01*
X142969720Y-105541941D01*
X143179782Y-105663221D01*
X143179798Y-105663229D01*
X143319858Y-105721242D01*
X143403900Y-105756054D01*
X143403911Y-105756057D01*
X143403917Y-105756059D01*
X143587021Y-105805121D01*
X143638211Y-105818838D01*
X143878712Y-105850500D01*
X144121288Y-105850500D01*
X144361789Y-105818838D01*
X144523275Y-105775567D01*
X144596082Y-105756059D01*
X144596084Y-105756058D01*
X144596100Y-105756054D01*
X144747766Y-105693231D01*
X144820201Y-105663229D01*
X144820206Y-105663226D01*
X144820212Y-105663224D01*
X145030289Y-105541936D01*
X145222738Y-105394265D01*
X145394265Y-105222738D01*
X145541936Y-105030289D01*
X145663224Y-104820212D01*
X145756054Y-104596100D01*
X145818838Y-104361789D01*
X145850500Y-104121288D01*
X145850500Y-103878712D01*
X145818838Y-103638211D01*
X145756054Y-103403900D01*
X145721242Y-103319858D01*
X145663229Y-103179798D01*
X145663221Y-103179782D01*
X145541941Y-102969720D01*
X145541935Y-102969710D01*
X145394270Y-102777268D01*
X145394261Y-102777258D01*
X145222741Y-102605738D01*
X145222731Y-102605729D01*
X145030289Y-102458064D01*
X145030279Y-102458058D01*
X144820217Y-102336778D01*
X144820201Y-102336770D01*
X144596105Y-102243948D01*
X144596103Y-102243947D01*
X144596100Y-102243946D01*
X144596096Y-102243945D01*
X144596082Y-102243940D01*
X144361795Y-102181163D01*
X144361790Y-102181162D01*
X144121288Y-102149500D01*
X143878712Y-102149500D01*
X143638209Y-102181162D01*
X143638204Y-102181163D01*
X143403917Y-102243940D01*
X143403894Y-102243948D01*
X143179798Y-102336770D01*
X143179782Y-102336778D01*
X142969720Y-102458058D01*
X142969710Y-102458064D01*
X142777268Y-102605729D01*
X142777258Y-102605738D01*
X142605738Y-102777258D01*
X142605729Y-102777268D01*
X142458064Y-102969710D01*
X142458058Y-102969720D01*
X142336778Y-103179782D01*
X142336770Y-103179798D01*
X142243948Y-103403894D01*
X142243940Y-103403917D01*
X142181163Y-103638204D01*
X142181162Y-103638209D01*
X142149500Y-103878712D01*
X37850500Y-103878712D01*
X37818838Y-103638211D01*
X37756054Y-103403900D01*
X37721242Y-103319858D01*
X37663229Y-103179798D01*
X37663221Y-103179782D01*
X37541941Y-102969720D01*
X37541935Y-102969710D01*
X37394270Y-102777268D01*
X37394261Y-102777258D01*
X37222741Y-102605738D01*
X37222731Y-102605729D01*
X37030289Y-102458064D01*
X37030279Y-102458058D01*
X36820217Y-102336778D01*
X36820201Y-102336770D01*
X36596105Y-102243948D01*
X36596103Y-102243947D01*
X36596100Y-102243946D01*
X36596096Y-102243945D01*
X36596082Y-102243940D01*
X36361795Y-102181163D01*
X36361790Y-102181162D01*
X36121288Y-102149500D01*
X35878712Y-102149500D01*
X35638209Y-102181162D01*
X35638204Y-102181163D01*
X35403917Y-102243940D01*
X35403894Y-102243948D01*
X35179798Y-102336770D01*
X35179782Y-102336778D01*
X34969720Y-102458058D01*
X34969710Y-102458064D01*
X34777268Y-102605729D01*
X34777258Y-102605738D01*
X34605738Y-102777258D01*
X34605729Y-102777268D01*
X34458064Y-102969710D01*
X34458058Y-102969720D01*
X34336778Y-103179782D01*
X34336770Y-103179798D01*
X34243948Y-103403894D01*
X34243940Y-103403917D01*
X34181163Y-103638204D01*
X34181162Y-103638209D01*
X34149500Y-103878712D01*
X31000000Y-103878712D01*
X31000000Y-81384295D01*
X57799500Y-81384295D01*
X57799500Y-82615704D01*
X57802401Y-82652563D01*
X57802401Y-82652566D01*
X57802402Y-82652569D01*
X57848256Y-82810398D01*
X57931919Y-82951865D01*
X58048135Y-83068081D01*
X58189602Y-83151744D01*
X58347431Y-83197598D01*
X58384306Y-83200500D01*
X58965282Y-83200500D01*
X59060570Y-83219454D01*
X59141352Y-83273430D01*
X61126570Y-85258648D01*
X61180546Y-85339430D01*
X61199500Y-85434718D01*
X61199500Y-98000500D01*
X61180546Y-98095788D01*
X61126570Y-98176570D01*
X61045788Y-98230546D01*
X60950500Y-98249500D01*
X60834295Y-98249500D01*
X60797433Y-98252401D01*
X60797430Y-98252402D01*
X60732798Y-98271179D01*
X60639603Y-98298256D01*
X60639601Y-98298256D01*
X60639601Y-98298257D01*
X60532578Y-98361550D01*
X60498136Y-98381919D01*
X60381919Y-98498136D01*
X60298256Y-98639603D01*
X60271179Y-98732798D01*
X60252402Y-98797430D01*
X60252401Y-98797433D01*
X60249500Y-98834295D01*
X60249500Y-101165704D01*
X60252401Y-101202566D01*
X60252402Y-101202569D01*
X60298256Y-101360397D01*
X60381919Y-101501864D01*
X60498136Y-101618081D01*
X60639603Y-101701744D01*
X60797431Y-101747598D01*
X60834306Y-101750500D01*
X60834308Y-101750500D01*
X63165692Y-101750500D01*
X63165694Y-101750500D01*
X63202569Y-101747598D01*
X63360397Y-101701744D01*
X63501864Y-101618081D01*
X63618081Y-101501864D01*
X63701744Y-101360397D01*
X63747598Y-101202569D01*
X63750500Y-101165694D01*
X63750500Y-99885266D01*
X68169500Y-99885266D01*
X68169500Y-100114733D01*
X68199451Y-100342234D01*
X68258841Y-100563885D01*
X68346653Y-100775882D01*
X68346658Y-100775893D01*
X68423623Y-100909200D01*
X68461389Y-100974612D01*
X68461396Y-100974621D01*
X68546299Y-101085269D01*
X68601081Y-101156661D01*
X68763339Y-101318919D01*
X68945388Y-101458611D01*
X68945397Y-101458616D01*
X69144106Y-101573341D01*
X69144109Y-101573342D01*
X69144112Y-101573344D01*
X69356113Y-101661158D01*
X69577762Y-101720548D01*
X69805266Y-101750500D01*
X70034734Y-101750500D01*
X70262238Y-101720548D01*
X70483887Y-101661158D01*
X70695888Y-101573344D01*
X70894612Y-101458611D01*
X71076661Y-101318919D01*
X71238919Y-101156661D01*
X71378611Y-100974612D01*
X71493344Y-100775888D01*
X71581158Y-100563887D01*
X71640548Y-100342238D01*
X71670500Y-100114734D01*
X71670500Y-99885266D01*
X71640548Y-99657762D01*
X71581158Y-99436113D01*
X71493344Y-99224112D01*
X71378611Y-99025388D01*
X71238919Y-98843339D01*
X71229875Y-98834295D01*
X76249500Y-98834295D01*
X76249500Y-101165704D01*
X76252401Y-101202566D01*
X76252402Y-101202569D01*
X76298256Y-101360397D01*
X76381919Y-101501864D01*
X76498136Y-101618081D01*
X76639603Y-101701744D01*
X76797431Y-101747598D01*
X76834306Y-101750500D01*
X76834308Y-101750500D01*
X79165692Y-101750500D01*
X79165694Y-101750500D01*
X79202569Y-101747598D01*
X79360397Y-101701744D01*
X79501864Y-101618081D01*
X79618081Y-101501864D01*
X79701744Y-101360397D01*
X79747598Y-101202569D01*
X79750500Y-101165694D01*
X79750500Y-99885266D01*
X84169500Y-99885266D01*
X84169500Y-100114733D01*
X84199451Y-100342234D01*
X84258841Y-100563885D01*
X84346653Y-100775882D01*
X84346658Y-100775893D01*
X84423623Y-100909200D01*
X84461389Y-100974612D01*
X84461396Y-100974621D01*
X84546299Y-101085269D01*
X84601081Y-101156661D01*
X84763339Y-101318919D01*
X84945388Y-101458611D01*
X84945397Y-101458616D01*
X85144106Y-101573341D01*
X85144109Y-101573342D01*
X85144112Y-101573344D01*
X85356113Y-101661158D01*
X85577762Y-101720548D01*
X85805266Y-101750500D01*
X86034734Y-101750500D01*
X86262238Y-101720548D01*
X86317574Y-101705720D01*
X86414517Y-101699366D01*
X86506517Y-101730595D01*
X86558088Y-101770166D01*
X87256911Y-102468989D01*
X87256910Y-102468989D01*
X87368409Y-102580487D01*
X87368411Y-102580489D01*
X87406199Y-102605738D01*
X87499519Y-102668093D01*
X87499520Y-102668093D01*
X87499521Y-102668094D01*
X87645203Y-102728437D01*
X87645205Y-102728437D01*
X87645207Y-102728438D01*
X87795848Y-102758402D01*
X87799858Y-102759200D01*
X100040142Y-102759200D01*
X100194797Y-102728437D01*
X100340479Y-102668094D01*
X100471589Y-102580489D01*
X101281912Y-101770164D01*
X101362691Y-101716190D01*
X101457979Y-101697236D01*
X101522421Y-101705719D01*
X101577762Y-101720548D01*
X101805266Y-101750500D01*
X102034734Y-101750500D01*
X102262238Y-101720548D01*
X102483887Y-101661158D01*
X102695888Y-101573344D01*
X102894612Y-101458611D01*
X103076661Y-101318919D01*
X103238919Y-101156661D01*
X103378611Y-100974612D01*
X103493344Y-100775888D01*
X103581158Y-100563887D01*
X103640548Y-100342238D01*
X103670500Y-100114734D01*
X103670500Y-99885266D01*
X103640548Y-99657762D01*
X103581158Y-99436113D01*
X103493344Y-99224112D01*
X103378611Y-99025388D01*
X103238919Y-98843339D01*
X103229875Y-98834295D01*
X108249500Y-98834295D01*
X108249500Y-101165704D01*
X108252401Y-101202566D01*
X108252402Y-101202569D01*
X108298256Y-101360397D01*
X108381919Y-101501864D01*
X108498136Y-101618081D01*
X108639603Y-101701744D01*
X108797431Y-101747598D01*
X108834306Y-101750500D01*
X108834308Y-101750500D01*
X111165692Y-101750500D01*
X111165694Y-101750500D01*
X111202569Y-101747598D01*
X111360397Y-101701744D01*
X111501864Y-101618081D01*
X111618081Y-101501864D01*
X111701744Y-101360397D01*
X111747598Y-101202569D01*
X111750500Y-101165694D01*
X111750500Y-99885266D01*
X116169500Y-99885266D01*
X116169500Y-100114733D01*
X116199451Y-100342234D01*
X116258841Y-100563885D01*
X116346653Y-100775882D01*
X116346658Y-100775893D01*
X116423623Y-100909200D01*
X116461389Y-100974612D01*
X116461396Y-100974621D01*
X116546299Y-101085269D01*
X116601081Y-101156661D01*
X116763339Y-101318919D01*
X116945388Y-101458611D01*
X116945397Y-101458616D01*
X117144106Y-101573341D01*
X117144109Y-101573342D01*
X117144112Y-101573344D01*
X117356113Y-101661158D01*
X117577762Y-101720548D01*
X117805266Y-101750500D01*
X118034734Y-101750500D01*
X118262238Y-101720548D01*
X118483887Y-101661158D01*
X118695888Y-101573344D01*
X118894612Y-101458611D01*
X119076661Y-101318919D01*
X119238919Y-101156661D01*
X119378611Y-100974612D01*
X119493344Y-100775888D01*
X119581158Y-100563887D01*
X119640548Y-100342238D01*
X119670500Y-100114734D01*
X119670500Y-99885266D01*
X119640548Y-99657762D01*
X119581158Y-99436113D01*
X119493344Y-99224112D01*
X119378611Y-99025388D01*
X119238919Y-98843339D01*
X119229875Y-98834295D01*
X124249500Y-98834295D01*
X124249500Y-101165704D01*
X124252401Y-101202566D01*
X124252402Y-101202569D01*
X124298256Y-101360397D01*
X124381919Y-101501864D01*
X124498136Y-101618081D01*
X124639603Y-101701744D01*
X124797431Y-101747598D01*
X124834306Y-101750500D01*
X124834308Y-101750500D01*
X127165692Y-101750500D01*
X127165694Y-101750500D01*
X127202569Y-101747598D01*
X127360397Y-101701744D01*
X127501864Y-101618081D01*
X127618081Y-101501864D01*
X127701744Y-101360397D01*
X127747598Y-101202569D01*
X127750500Y-101165694D01*
X127750500Y-98834306D01*
X127747598Y-98797431D01*
X127701744Y-98639603D01*
X127618081Y-98498136D01*
X127501864Y-98381919D01*
X127360397Y-98298256D01*
X127360391Y-98298254D01*
X127294692Y-98279166D01*
X127208476Y-98234380D01*
X127145962Y-98160009D01*
X127116666Y-98067376D01*
X127125051Y-97970583D01*
X127169837Y-97884367D01*
X127188084Y-97863993D01*
X135902412Y-89149664D01*
X135983191Y-89095691D01*
X136078479Y-89076737D01*
X136173767Y-89095691D01*
X136254549Y-89149667D01*
X136308525Y-89230449D01*
X136327479Y-89325737D01*
X136318995Y-89390181D01*
X136279452Y-89537762D01*
X136279451Y-89537763D01*
X136249500Y-89765266D01*
X136249500Y-89994734D01*
X136279452Y-90222238D01*
X136294279Y-90277574D01*
X136300633Y-90374519D01*
X136269403Y-90466518D01*
X136229833Y-90518087D01*
X133409711Y-93338211D01*
X133409710Y-93338210D01*
X133298212Y-93449709D01*
X133298210Y-93449712D01*
X133210606Y-93580819D01*
X133210603Y-93580826D01*
X133150263Y-93726502D01*
X133150261Y-93726507D01*
X133119500Y-93881153D01*
X133119500Y-98297105D01*
X133100546Y-98392393D01*
X133046570Y-98473175D01*
X132995001Y-98512745D01*
X132945382Y-98541392D01*
X132763344Y-98681076D01*
X132601076Y-98843344D01*
X132461396Y-99025378D01*
X132461383Y-99025397D01*
X132346658Y-99224106D01*
X132346653Y-99224117D01*
X132258841Y-99436114D01*
X132199451Y-99657765D01*
X132169500Y-99885266D01*
X132169500Y-100114733D01*
X132199451Y-100342234D01*
X132258841Y-100563885D01*
X132346653Y-100775882D01*
X132346658Y-100775893D01*
X132423623Y-100909200D01*
X132461389Y-100974612D01*
X132461396Y-100974621D01*
X132546299Y-101085269D01*
X132601081Y-101156661D01*
X132763339Y-101318919D01*
X132945388Y-101458611D01*
X132945397Y-101458616D01*
X133144106Y-101573341D01*
X133144109Y-101573342D01*
X133144112Y-101573344D01*
X133356113Y-101661158D01*
X133577762Y-101720548D01*
X133805266Y-101750500D01*
X134034734Y-101750500D01*
X134262238Y-101720548D01*
X134483887Y-101661158D01*
X134695888Y-101573344D01*
X134894612Y-101458611D01*
X135076661Y-101318919D01*
X135238919Y-101156661D01*
X135378611Y-100974612D01*
X135493344Y-100775888D01*
X135581158Y-100563887D01*
X135640548Y-100342238D01*
X135670500Y-100114734D01*
X135670500Y-99885266D01*
X135640548Y-99657762D01*
X135581158Y-99436113D01*
X135493344Y-99224112D01*
X135378611Y-99025388D01*
X135238919Y-98843339D01*
X135076661Y-98681081D01*
X135076656Y-98681077D01*
X135076655Y-98681076D01*
X134894617Y-98541392D01*
X134894612Y-98541389D01*
X134844998Y-98512744D01*
X134771954Y-98448686D01*
X134728984Y-98361550D01*
X134720500Y-98297105D01*
X134720500Y-94394717D01*
X134739454Y-94299429D01*
X134793428Y-94218649D01*
X137361913Y-91650163D01*
X137442692Y-91596190D01*
X137537980Y-91577236D01*
X137602419Y-91585719D01*
X137657762Y-91600548D01*
X137885266Y-91630500D01*
X138114734Y-91630500D01*
X138342238Y-91600548D01*
X138563887Y-91541158D01*
X138775888Y-91453344D01*
X138974612Y-91338611D01*
X139156661Y-91198919D01*
X139318919Y-91036661D01*
X139458611Y-90854612D01*
X139573344Y-90655888D01*
X139661158Y-90443887D01*
X139720548Y-90222238D01*
X139750500Y-89994734D01*
X139750500Y-89765266D01*
X139720548Y-89537762D01*
X139705719Y-89482422D01*
X139699366Y-89385477D01*
X139730596Y-89293478D01*
X139770163Y-89241913D01*
X140631588Y-88380490D01*
X140631589Y-88380489D01*
X140719194Y-88249379D01*
X140779537Y-88103697D01*
X140810300Y-87949042D01*
X140810300Y-67850958D01*
X140779537Y-67696303D01*
X140719194Y-67550621D01*
X140719112Y-67550499D01*
X140670704Y-67478051D01*
X140631589Y-67419511D01*
X140590689Y-67378611D01*
X140520089Y-67308010D01*
X140520089Y-67308011D01*
X139770166Y-66558088D01*
X139716190Y-66477306D01*
X139697236Y-66382018D01*
X139705720Y-66317575D01*
X139720548Y-66262238D01*
X139750500Y-66034734D01*
X139750500Y-65805266D01*
X139720548Y-65577762D01*
X139661158Y-65356113D01*
X139573344Y-65144112D01*
X139529539Y-65068240D01*
X139458616Y-64945397D01*
X139458611Y-64945388D01*
X139348893Y-64802401D01*
X139318923Y-64763344D01*
X139318922Y-64763343D01*
X139318919Y-64763339D01*
X139156661Y-64601081D01*
X139156656Y-64601077D01*
X139156655Y-64601076D01*
X138974621Y-64461396D01*
X138974622Y-64461396D01*
X138974612Y-64461389D01*
X138974602Y-64461383D01*
X138775893Y-64346658D01*
X138775882Y-64346653D01*
X138563885Y-64258841D01*
X138435911Y-64224551D01*
X138342238Y-64199452D01*
X138342235Y-64199451D01*
X138342236Y-64199451D01*
X138114734Y-64169500D01*
X137885266Y-64169500D01*
X137657765Y-64199451D01*
X137436114Y-64258841D01*
X137224117Y-64346653D01*
X137224103Y-64346660D01*
X137164198Y-64381246D01*
X137072199Y-64412475D01*
X136975252Y-64406120D01*
X136888117Y-64363149D01*
X136824059Y-64290103D01*
X136792830Y-64198104D01*
X136790700Y-64165605D01*
X136790700Y-60444518D01*
X136809654Y-60349230D01*
X136863630Y-60268448D01*
X137308648Y-59823430D01*
X137389430Y-59769454D01*
X137484718Y-59750500D01*
X139165692Y-59750500D01*
X139165694Y-59750500D01*
X139202569Y-59747598D01*
X139360397Y-59701744D01*
X139501864Y-59618081D01*
X139618081Y-59501864D01*
X139701744Y-59360397D01*
X139747598Y-59202569D01*
X139750500Y-59165694D01*
X139750500Y-56834306D01*
X139747598Y-56797431D01*
X139701744Y-56639603D01*
X139618081Y-56498136D01*
X139501864Y-56381919D01*
X139360397Y-56298256D01*
X139202569Y-56252402D01*
X139202566Y-56252401D01*
X139165704Y-56249500D01*
X139165694Y-56249500D01*
X136834306Y-56249500D01*
X136834295Y-56249500D01*
X136797433Y-56252401D01*
X136797430Y-56252402D01*
X136732798Y-56271179D01*
X136639603Y-56298256D01*
X136639601Y-56298256D01*
X136639601Y-56298257D01*
X136498136Y-56381919D01*
X136381919Y-56498136D01*
X136298257Y-56639601D01*
X136252402Y-56797430D01*
X136252401Y-56797433D01*
X136249500Y-56834295D01*
X136249500Y-58515282D01*
X136230546Y-58610570D01*
X136176570Y-58691352D01*
X135479911Y-59388011D01*
X135479910Y-59388010D01*
X135368412Y-59499509D01*
X135368410Y-59499512D01*
X135280806Y-59630619D01*
X135280803Y-59630626D01*
X135220463Y-59776302D01*
X135220461Y-59776307D01*
X135189700Y-59930953D01*
X135189700Y-83989046D01*
X135220461Y-84143692D01*
X135220463Y-84143697D01*
X135280803Y-84289373D01*
X135280806Y-84289380D01*
X135315749Y-84341675D01*
X135364479Y-84414605D01*
X135368410Y-84420487D01*
X135368411Y-84420489D01*
X136229833Y-85281912D01*
X136283809Y-85362693D01*
X136302763Y-85457981D01*
X136294280Y-85522420D01*
X136279452Y-85577762D01*
X136249500Y-85805266D01*
X136249500Y-86034734D01*
X136279452Y-86262238D01*
X136294279Y-86317574D01*
X136300633Y-86414519D01*
X136269403Y-86506518D01*
X136229833Y-86558087D01*
X125489711Y-97298211D01*
X125489710Y-97298210D01*
X125378212Y-97409709D01*
X125378210Y-97409712D01*
X125290606Y-97540819D01*
X125290603Y-97540826D01*
X125230263Y-97686502D01*
X125230261Y-97686507D01*
X125199500Y-97841153D01*
X125199500Y-98000500D01*
X125180546Y-98095788D01*
X125126570Y-98176570D01*
X125045788Y-98230546D01*
X124950500Y-98249500D01*
X124834295Y-98249500D01*
X124797433Y-98252401D01*
X124797430Y-98252402D01*
X124732798Y-98271179D01*
X124639603Y-98298256D01*
X124639601Y-98298256D01*
X124639601Y-98298257D01*
X124532578Y-98361550D01*
X124498136Y-98381919D01*
X124381919Y-98498136D01*
X124298256Y-98639603D01*
X124271179Y-98732798D01*
X124252402Y-98797430D01*
X124252401Y-98797433D01*
X124249500Y-98834295D01*
X119229875Y-98834295D01*
X119076661Y-98681081D01*
X119076656Y-98681077D01*
X119076655Y-98681076D01*
X118894621Y-98541396D01*
X118894622Y-98541396D01*
X118894612Y-98541389D01*
X118894602Y-98541383D01*
X118695893Y-98426658D01*
X118695882Y-98426653D01*
X118483885Y-98338841D01*
X118332416Y-98298256D01*
X118262238Y-98279452D01*
X118262235Y-98279451D01*
X118262236Y-98279451D01*
X118034734Y-98249500D01*
X117805266Y-98249500D01*
X117577765Y-98279451D01*
X117356114Y-98338841D01*
X117144117Y-98426653D01*
X117144106Y-98426658D01*
X116945397Y-98541383D01*
X116945378Y-98541396D01*
X116763344Y-98681076D01*
X116601076Y-98843344D01*
X116461396Y-99025378D01*
X116461383Y-99025397D01*
X116346658Y-99224106D01*
X116346653Y-99224117D01*
X116258841Y-99436114D01*
X116199451Y-99657765D01*
X116169500Y-99885266D01*
X111750500Y-99885266D01*
X111750500Y-98834306D01*
X111747598Y-98797431D01*
X111701744Y-98639603D01*
X111618081Y-98498136D01*
X111501864Y-98381919D01*
X111360397Y-98298256D01*
X111202569Y-98252402D01*
X111202566Y-98252401D01*
X111165704Y-98249500D01*
X111165694Y-98249500D01*
X108834306Y-98249500D01*
X108834295Y-98249500D01*
X108797433Y-98252401D01*
X108797430Y-98252402D01*
X108732798Y-98271179D01*
X108639603Y-98298256D01*
X108639601Y-98298256D01*
X108639601Y-98298257D01*
X108532578Y-98361550D01*
X108498136Y-98381919D01*
X108381919Y-98498136D01*
X108298256Y-98639603D01*
X108271179Y-98732798D01*
X108252402Y-98797430D01*
X108252401Y-98797433D01*
X108249500Y-98834295D01*
X103229875Y-98834295D01*
X103076661Y-98681081D01*
X103076656Y-98681077D01*
X103076655Y-98681076D01*
X102894617Y-98541392D01*
X102894612Y-98541389D01*
X102844998Y-98512744D01*
X102771954Y-98448686D01*
X102728984Y-98361550D01*
X102720500Y-98297105D01*
X102720500Y-84341158D01*
X102720499Y-84341153D01*
X102689738Y-84186507D01*
X102689737Y-84186505D01*
X102689737Y-84186503D01*
X102629394Y-84040821D01*
X102541789Y-83909711D01*
X102541787Y-83909709D01*
X102430289Y-83798210D01*
X102430289Y-83798211D01*
X100773430Y-82141352D01*
X100752306Y-82109737D01*
X100728536Y-82080068D01*
X100726262Y-82070759D01*
X100719454Y-82060570D01*
X100701429Y-81986771D01*
X100700500Y-81976046D01*
X100700500Y-81905519D01*
X100684160Y-81802353D01*
X109724000Y-81802353D01*
X109724000Y-81960046D01*
X109754761Y-82114692D01*
X109754763Y-82114697D01*
X109815103Y-82260373D01*
X109815106Y-82260380D01*
X109828963Y-82281118D01*
X109902711Y-82391489D01*
X110014211Y-82502989D01*
X110014214Y-82502991D01*
X110145319Y-82590593D01*
X110145320Y-82590593D01*
X110145321Y-82590594D01*
X110291003Y-82650937D01*
X110291005Y-82650937D01*
X110291007Y-82650938D01*
X110441648Y-82680902D01*
X110445658Y-82681700D01*
X110603342Y-82681700D01*
X110757997Y-82650937D01*
X110903679Y-82590594D01*
X111034789Y-82502989D01*
X115121789Y-78415989D01*
X115209394Y-78284879D01*
X115269737Y-78139197D01*
X115300500Y-77984542D01*
X115300500Y-77826858D01*
X115300500Y-71049500D01*
X115319454Y-70954212D01*
X115373430Y-70873430D01*
X115454212Y-70819454D01*
X115549500Y-70800500D01*
X116398842Y-70800500D01*
X116553497Y-70769737D01*
X116699179Y-70709394D01*
X116830289Y-70621789D01*
X125823498Y-61628578D01*
X125904277Y-61574605D01*
X125999565Y-61555651D01*
X126038519Y-61558717D01*
X126049771Y-61560499D01*
X126049772Y-61560499D01*
X126049778Y-61560500D01*
X126049781Y-61560500D01*
X126270218Y-61560500D01*
X126270222Y-61560500D01*
X126487951Y-61526015D01*
X126697606Y-61457895D01*
X126697616Y-61457890D01*
X126894013Y-61357820D01*
X126894015Y-61357818D01*
X126894022Y-61357815D01*
X127072365Y-61228242D01*
X127228242Y-61072365D01*
X127357815Y-60894022D01*
X127457895Y-60697606D01*
X127526015Y-60487951D01*
X127560500Y-60270222D01*
X127560500Y-60049778D01*
X127526015Y-59832049D01*
X127457895Y-59622394D01*
X127457891Y-59622386D01*
X127457890Y-59622383D01*
X127357820Y-59425986D01*
X127357816Y-59425981D01*
X127357815Y-59425978D01*
X127228242Y-59247635D01*
X127072365Y-59091758D01*
X126894022Y-58962185D01*
X126894019Y-58962183D01*
X126894013Y-58962179D01*
X126697616Y-58862109D01*
X126697609Y-58862106D01*
X126697606Y-58862105D01*
X126487951Y-58793985D01*
X126487945Y-58793984D01*
X126487938Y-58793982D01*
X126270232Y-58759501D01*
X126270225Y-58759500D01*
X126270222Y-58759500D01*
X126049778Y-58759500D01*
X126049775Y-58759500D01*
X126049767Y-58759501D01*
X125832061Y-58793982D01*
X125832054Y-58793984D01*
X125832052Y-58793984D01*
X125832049Y-58793985D01*
X125622394Y-58862105D01*
X125622392Y-58862105D01*
X125622392Y-58862106D01*
X125622383Y-58862109D01*
X125425986Y-58962179D01*
X125425979Y-58962184D01*
X125247633Y-59091759D01*
X125091759Y-59247633D01*
X124962184Y-59425979D01*
X124962179Y-59425986D01*
X124862109Y-59622383D01*
X124862105Y-59622392D01*
X124862105Y-59622394D01*
X124793985Y-59832049D01*
X124793984Y-59832052D01*
X124793984Y-59832054D01*
X124793982Y-59832061D01*
X124759501Y-60049767D01*
X124759500Y-60049782D01*
X124759500Y-60270217D01*
X124759501Y-60270235D01*
X124761283Y-60281486D01*
X124757467Y-60378566D01*
X124716789Y-60466796D01*
X124691418Y-60496502D01*
X116061352Y-69126570D01*
X115980570Y-69180546D01*
X115885282Y-69199500D01*
X115500402Y-69199500D01*
X115405114Y-69180546D01*
X115324335Y-69126572D01*
X115282073Y-69084310D01*
X115282069Y-69084307D01*
X115282068Y-69084306D01*
X115232283Y-69048135D01*
X115129199Y-68973240D01*
X114960832Y-68887453D01*
X114960829Y-68887452D01*
X114960827Y-68887451D01*
X114831345Y-68845380D01*
X114781118Y-68829060D01*
X114781116Y-68829059D01*
X114781114Y-68829059D01*
X114594492Y-68799501D01*
X114594483Y-68799500D01*
X114594481Y-68799500D01*
X114405519Y-68799500D01*
X114405516Y-68799500D01*
X114405507Y-68799501D01*
X114218885Y-68829059D01*
X114039172Y-68887451D01*
X114039168Y-68887452D01*
X114039168Y-68887453D01*
X113870801Y-68973240D01*
X113870800Y-68973241D01*
X113717931Y-69084306D01*
X113584306Y-69217931D01*
X113495454Y-69340226D01*
X113473240Y-69370801D01*
X113466359Y-69384306D01*
X113387451Y-69539172D01*
X113329059Y-69718885D01*
X113299501Y-69905507D01*
X113299500Y-69905523D01*
X113299500Y-70094476D01*
X113299501Y-70094492D01*
X113329059Y-70281114D01*
X113329060Y-70281118D01*
X113387453Y-70460832D01*
X113473240Y-70629199D01*
X113531507Y-70709396D01*
X113575346Y-70769736D01*
X113584310Y-70782073D01*
X113626572Y-70824335D01*
X113680546Y-70905114D01*
X113699500Y-71000402D01*
X113699500Y-77470982D01*
X113680546Y-77566270D01*
X113626570Y-77647052D01*
X109902708Y-81370914D01*
X109815106Y-81502019D01*
X109815103Y-81502026D01*
X109754763Y-81647702D01*
X109754761Y-81647707D01*
X109724000Y-81802353D01*
X100684160Y-81802353D01*
X100670940Y-81718882D01*
X100612547Y-81539168D01*
X100526760Y-81370801D01*
X100415690Y-81217927D01*
X100282073Y-81084310D01*
X100282069Y-81084307D01*
X100282068Y-81084306D01*
X100232283Y-81048135D01*
X100129199Y-80973240D01*
X99960832Y-80887453D01*
X99960829Y-80887452D01*
X99960827Y-80887451D01*
X99840197Y-80848256D01*
X99781118Y-80829060D01*
X99781116Y-80829059D01*
X99781114Y-80829059D01*
X99594492Y-80799501D01*
X99594483Y-80799500D01*
X99594481Y-80799500D01*
X99405519Y-80799500D01*
X99405516Y-80799500D01*
X99405507Y-80799501D01*
X99218885Y-80829059D01*
X99039172Y-80887451D01*
X99039168Y-80887452D01*
X99039168Y-80887453D01*
X98870801Y-80973240D01*
X98870800Y-80973241D01*
X98717931Y-81084306D01*
X98584306Y-81217931D01*
X98495454Y-81340226D01*
X98473240Y-81370801D01*
X98466359Y-81384306D01*
X98387451Y-81539172D01*
X98329059Y-81718885D01*
X98299501Y-81905507D01*
X98299500Y-81905523D01*
X98299500Y-82094476D01*
X98299501Y-82094492D01*
X98325774Y-82260373D01*
X98329060Y-82281118D01*
X98387453Y-82460832D01*
X98473240Y-82629199D01*
X98584310Y-82782073D01*
X98717927Y-82915690D01*
X98870801Y-83026760D01*
X99039168Y-83112547D01*
X99218882Y-83170940D01*
X99405519Y-83200500D01*
X99465282Y-83200500D01*
X99560570Y-83219454D01*
X99641352Y-83273430D01*
X101046570Y-84678648D01*
X101100546Y-84759430D01*
X101119500Y-84854718D01*
X101119500Y-98297105D01*
X101100546Y-98392393D01*
X101046570Y-98473175D01*
X100995001Y-98512745D01*
X100945382Y-98541392D01*
X100763344Y-98681076D01*
X100601076Y-98843344D01*
X100461396Y-99025378D01*
X100461383Y-99025397D01*
X100346658Y-99224106D01*
X100346653Y-99224117D01*
X100258841Y-99436114D01*
X100199451Y-99657765D01*
X100169500Y-99885266D01*
X100169500Y-100114733D01*
X100199451Y-100342236D01*
X100199452Y-100342237D01*
X100214279Y-100397574D01*
X100220633Y-100494521D01*
X100189402Y-100586520D01*
X100149833Y-100638087D01*
X99702653Y-101085269D01*
X99621872Y-101139246D01*
X99526584Y-101158200D01*
X95999500Y-101158200D01*
X95904212Y-101139246D01*
X95823430Y-101085270D01*
X95769454Y-101004488D01*
X95750500Y-100909200D01*
X95750500Y-98834308D01*
X95750499Y-98834295D01*
X95747598Y-98797433D01*
X95747598Y-98797431D01*
X95701744Y-98639603D01*
X95618081Y-98498136D01*
X95501864Y-98381919D01*
X95360397Y-98298256D01*
X95202569Y-98252402D01*
X95202566Y-98252401D01*
X95165704Y-98249500D01*
X95165694Y-98249500D01*
X92834306Y-98249500D01*
X92834295Y-98249500D01*
X92797433Y-98252401D01*
X92797430Y-98252402D01*
X92732798Y-98271179D01*
X92639603Y-98298256D01*
X92639601Y-98298256D01*
X92639601Y-98298257D01*
X92532578Y-98361550D01*
X92498136Y-98381919D01*
X92381919Y-98498136D01*
X92298256Y-98639603D01*
X92271179Y-98732798D01*
X92252402Y-98797430D01*
X92252401Y-98797433D01*
X92249500Y-98834295D01*
X92249500Y-100909200D01*
X92230546Y-101004488D01*
X92176570Y-101085270D01*
X92095788Y-101139246D01*
X92000500Y-101158200D01*
X88313418Y-101158200D01*
X88218130Y-101139246D01*
X88137348Y-101085270D01*
X87690166Y-100638088D01*
X87636190Y-100557306D01*
X87617236Y-100462018D01*
X87625720Y-100397575D01*
X87640548Y-100342238D01*
X87670500Y-100114734D01*
X87670500Y-99885266D01*
X87640548Y-99657762D01*
X87581158Y-99436113D01*
X87493344Y-99224112D01*
X87378611Y-99025388D01*
X87238919Y-98843339D01*
X87076661Y-98681081D01*
X87076656Y-98681077D01*
X87076655Y-98681076D01*
X86894621Y-98541396D01*
X86894622Y-98541396D01*
X86894612Y-98541389D01*
X86894602Y-98541383D01*
X86695893Y-98426658D01*
X86695882Y-98426653D01*
X86483885Y-98338841D01*
X86332416Y-98298256D01*
X86262238Y-98279452D01*
X86262235Y-98279451D01*
X86262236Y-98279451D01*
X86034734Y-98249500D01*
X85805266Y-98249500D01*
X85577765Y-98279451D01*
X85356114Y-98338841D01*
X85144117Y-98426653D01*
X85144106Y-98426658D01*
X84945397Y-98541383D01*
X84945378Y-98541396D01*
X84763344Y-98681076D01*
X84601076Y-98843344D01*
X84461396Y-99025378D01*
X84461383Y-99025397D01*
X84346658Y-99224106D01*
X84346653Y-99224117D01*
X84258841Y-99436114D01*
X84199451Y-99657765D01*
X84169500Y-99885266D01*
X79750500Y-99885266D01*
X79750500Y-98834306D01*
X79747598Y-98797431D01*
X79701744Y-98639603D01*
X79618081Y-98498136D01*
X79501864Y-98381919D01*
X79360397Y-98298256D01*
X79202569Y-98252402D01*
X79202566Y-98252401D01*
X79165704Y-98249500D01*
X79165694Y-98249500D01*
X76834306Y-98249500D01*
X76834295Y-98249500D01*
X76797433Y-98252401D01*
X76797430Y-98252402D01*
X76732798Y-98271179D01*
X76639603Y-98298256D01*
X76639601Y-98298256D01*
X76639601Y-98298257D01*
X76532578Y-98361550D01*
X76498136Y-98381919D01*
X76381919Y-98498136D01*
X76298256Y-98639603D01*
X76271179Y-98732798D01*
X76252402Y-98797430D01*
X76252401Y-98797433D01*
X76249500Y-98834295D01*
X71229875Y-98834295D01*
X71076661Y-98681081D01*
X71076656Y-98681077D01*
X71076655Y-98681076D01*
X70894621Y-98541396D01*
X70894622Y-98541396D01*
X70894612Y-98541389D01*
X70894602Y-98541383D01*
X70695893Y-98426658D01*
X70695882Y-98426653D01*
X70483885Y-98338841D01*
X70332416Y-98298256D01*
X70262238Y-98279452D01*
X70262235Y-98279451D01*
X70262236Y-98279451D01*
X70034734Y-98249500D01*
X69805266Y-98249500D01*
X69577765Y-98279451D01*
X69356114Y-98338841D01*
X69144117Y-98426653D01*
X69144106Y-98426658D01*
X68945397Y-98541383D01*
X68945378Y-98541396D01*
X68763344Y-98681076D01*
X68601076Y-98843344D01*
X68461396Y-99025378D01*
X68461383Y-99025397D01*
X68346658Y-99224106D01*
X68346653Y-99224117D01*
X68258841Y-99436114D01*
X68199451Y-99657765D01*
X68169500Y-99885266D01*
X63750500Y-99885266D01*
X63750500Y-98834306D01*
X63747598Y-98797431D01*
X63701744Y-98639603D01*
X63618081Y-98498136D01*
X63501864Y-98381919D01*
X63360397Y-98298256D01*
X63202569Y-98252402D01*
X63202566Y-98252401D01*
X63165704Y-98249500D01*
X63165694Y-98249500D01*
X63049500Y-98249500D01*
X62954212Y-98230546D01*
X62873430Y-98176570D01*
X62819454Y-98095788D01*
X62800500Y-98000500D01*
X62800500Y-84921160D01*
X62800500Y-84921158D01*
X62769738Y-84766503D01*
X62733347Y-84678648D01*
X62709396Y-84620825D01*
X62709393Y-84620820D01*
X62621791Y-84489714D01*
X62621789Y-84489711D01*
X60273430Y-82141352D01*
X60219454Y-82060570D01*
X60200500Y-81965282D01*
X60200500Y-81384308D01*
X60200499Y-81384295D01*
X60197598Y-81347436D01*
X60197598Y-81347431D01*
X60151744Y-81189602D01*
X60068081Y-81048135D01*
X59951865Y-80931919D01*
X59810398Y-80848256D01*
X59652569Y-80802402D01*
X59652566Y-80802401D01*
X59652563Y-80802401D01*
X59615704Y-80799500D01*
X59615694Y-80799500D01*
X58384306Y-80799500D01*
X58384295Y-80799500D01*
X58347436Y-80802401D01*
X58347427Y-80802403D01*
X58189601Y-80848256D01*
X58048135Y-80931919D01*
X57931919Y-81048135D01*
X57848256Y-81189601D01*
X57802403Y-81347427D01*
X57802401Y-81347436D01*
X57799500Y-81384295D01*
X31000000Y-81384295D01*
X31000000Y-69384295D01*
X100799500Y-69384295D01*
X100799500Y-70615704D01*
X100802401Y-70652563D01*
X100802401Y-70652566D01*
X100802402Y-70652569D01*
X100848256Y-70810398D01*
X100931919Y-70951865D01*
X101048135Y-71068081D01*
X101189602Y-71151744D01*
X101347431Y-71197598D01*
X101384306Y-71200500D01*
X101384308Y-71200500D01*
X102615692Y-71200500D01*
X102615694Y-71200500D01*
X102652569Y-71197598D01*
X102810398Y-71151744D01*
X102951865Y-71068081D01*
X103068081Y-70951865D01*
X103151744Y-70810398D01*
X103197598Y-70652569D01*
X103200500Y-70615694D01*
X103200500Y-69384306D01*
X103197598Y-69347431D01*
X103151744Y-69189602D01*
X103068081Y-69048135D01*
X102951865Y-68931919D01*
X102922746Y-68914698D01*
X102850377Y-68849878D01*
X102808322Y-68762297D01*
X102800500Y-68700375D01*
X102800500Y-64434717D01*
X102819454Y-64339429D01*
X102873428Y-64258649D01*
X105503498Y-61628578D01*
X105584277Y-61574605D01*
X105679565Y-61555651D01*
X105718519Y-61558717D01*
X105729771Y-61560499D01*
X105729772Y-61560499D01*
X105729778Y-61560500D01*
X105729781Y-61560500D01*
X105950218Y-61560500D01*
X105950222Y-61560500D01*
X106167951Y-61526015D01*
X106377606Y-61457895D01*
X106377616Y-61457890D01*
X106574013Y-61357820D01*
X106574015Y-61357818D01*
X106574022Y-61357815D01*
X106752365Y-61228242D01*
X106908242Y-61072365D01*
X107037815Y-60894022D01*
X107137895Y-60697606D01*
X107206015Y-60487951D01*
X107240500Y-60270222D01*
X107240500Y-60049778D01*
X107206015Y-59832049D01*
X107137895Y-59622394D01*
X107137891Y-59622386D01*
X107137890Y-59622383D01*
X107037820Y-59425986D01*
X107037816Y-59425981D01*
X107037815Y-59425978D01*
X106908242Y-59247635D01*
X106752365Y-59091758D01*
X106574022Y-58962185D01*
X106574019Y-58962183D01*
X106574013Y-58962179D01*
X106377616Y-58862109D01*
X106377609Y-58862106D01*
X106377606Y-58862105D01*
X106167951Y-58793985D01*
X106167945Y-58793984D01*
X106167938Y-58793982D01*
X105950232Y-58759501D01*
X105950225Y-58759500D01*
X105950222Y-58759500D01*
X105729778Y-58759500D01*
X105729775Y-58759500D01*
X105729767Y-58759501D01*
X105512061Y-58793982D01*
X105512054Y-58793984D01*
X105512052Y-58793984D01*
X105512049Y-58793985D01*
X105302394Y-58862105D01*
X105302392Y-58862105D01*
X105302392Y-58862106D01*
X105302383Y-58862109D01*
X105105986Y-58962179D01*
X105105979Y-58962184D01*
X104927633Y-59091759D01*
X104771759Y-59247633D01*
X104642184Y-59425979D01*
X104642179Y-59425986D01*
X104542109Y-59622383D01*
X104542105Y-59622392D01*
X104542105Y-59622394D01*
X104473985Y-59832049D01*
X104473984Y-59832052D01*
X104473984Y-59832054D01*
X104473982Y-59832061D01*
X104439501Y-60049767D01*
X104439500Y-60049782D01*
X104439500Y-60270217D01*
X104439501Y-60270235D01*
X104441283Y-60281486D01*
X104437467Y-60378566D01*
X104396789Y-60466796D01*
X104371418Y-60496502D01*
X101489711Y-63378211D01*
X101489710Y-63378210D01*
X101378212Y-63489709D01*
X101378210Y-63489712D01*
X101290606Y-63620819D01*
X101290603Y-63620826D01*
X101230263Y-63766502D01*
X101230261Y-63766507D01*
X101199500Y-63921153D01*
X101199500Y-68700375D01*
X101180546Y-68795663D01*
X101126570Y-68876445D01*
X101077253Y-68914699D01*
X101048135Y-68931919D01*
X100931919Y-69048135D01*
X100848256Y-69189601D01*
X100802403Y-69347427D01*
X100802401Y-69347436D01*
X100799500Y-69384295D01*
X31000000Y-69384295D01*
X31000000Y-64818485D01*
X44849500Y-64818485D01*
X44849500Y-67181515D01*
X44864353Y-67275299D01*
X44864354Y-67275304D01*
X44921950Y-67388342D01*
X45011658Y-67478050D01*
X45011660Y-67478051D01*
X45124696Y-67535646D01*
X45124700Y-67535647D01*
X45198462Y-67547329D01*
X45218481Y-67550500D01*
X46781518Y-67550499D01*
X46875304Y-67535646D01*
X46988342Y-67478050D01*
X47078050Y-67388342D01*
X47135646Y-67275304D01*
X47150500Y-67181519D01*
X47150499Y-65509458D01*
X49929500Y-65509458D01*
X49929500Y-66490541D01*
X49929501Y-66490556D01*
X49957827Y-66669401D01*
X49957831Y-66669418D01*
X50013786Y-66841632D01*
X50013794Y-66841649D01*
X50069951Y-66951864D01*
X50096004Y-67002994D01*
X50202447Y-67149501D01*
X50330499Y-67277553D01*
X50477006Y-67383996D01*
X50638361Y-67466211D01*
X50638366Y-67466212D01*
X50638367Y-67466213D01*
X50810581Y-67522168D01*
X50810583Y-67522168D01*
X50810591Y-67522171D01*
X50989454Y-67550500D01*
X50989458Y-67550500D01*
X51170542Y-67550500D01*
X51170546Y-67550500D01*
X51349409Y-67522171D01*
X51521639Y-67466211D01*
X51682994Y-67383996D01*
X51829501Y-67277553D01*
X51957553Y-67149501D01*
X52063996Y-67002994D01*
X52146211Y-66841639D01*
X52202171Y-66669409D01*
X52230500Y-66490546D01*
X52230500Y-65509454D01*
X52228276Y-65495415D01*
X52216074Y-65418368D01*
X52210677Y-65384295D01*
X58799500Y-65384295D01*
X58799500Y-66615704D01*
X58802401Y-66652563D01*
X58802401Y-66652566D01*
X58802402Y-66652569D01*
X58848256Y-66810398D01*
X58931919Y-66951865D01*
X59048135Y-67068081D01*
X59189602Y-67151744D01*
X59347431Y-67197598D01*
X59384306Y-67200500D01*
X59384308Y-67200500D01*
X60615692Y-67200500D01*
X60615694Y-67200500D01*
X60652569Y-67197598D01*
X60810398Y-67151744D01*
X60951865Y-67068081D01*
X61068081Y-66951865D01*
X61151744Y-66810398D01*
X61197598Y-66652569D01*
X61200500Y-66615694D01*
X61200500Y-65384306D01*
X61197598Y-65347431D01*
X61151744Y-65189602D01*
X61068081Y-65048135D01*
X60951865Y-64931919D01*
X60810398Y-64848256D01*
X60652569Y-64802402D01*
X60652566Y-64802401D01*
X60652563Y-64802401D01*
X60615704Y-64799500D01*
X60615694Y-64799500D01*
X59384306Y-64799500D01*
X59384295Y-64799500D01*
X59347436Y-64802401D01*
X59347427Y-64802403D01*
X59189601Y-64848256D01*
X59048135Y-64931919D01*
X58931919Y-65048135D01*
X58848256Y-65189601D01*
X58802403Y-65347427D01*
X58802401Y-65347436D01*
X58799500Y-65384295D01*
X52210677Y-65384295D01*
X52202172Y-65330598D01*
X52202171Y-65330591D01*
X52146211Y-65158361D01*
X52063996Y-64997006D01*
X51957553Y-64850499D01*
X51829501Y-64722447D01*
X51682994Y-64616004D01*
X51682991Y-64616002D01*
X51682985Y-64615999D01*
X51521649Y-64533794D01*
X51521646Y-64533792D01*
X51521639Y-64533789D01*
X51521636Y-64533788D01*
X51521632Y-64533786D01*
X51349418Y-64477831D01*
X51349401Y-64477827D01*
X51170556Y-64449501D01*
X51170549Y-64449500D01*
X51170546Y-64449500D01*
X50989454Y-64449500D01*
X50989451Y-64449500D01*
X50989443Y-64449501D01*
X50810598Y-64477827D01*
X50810581Y-64477831D01*
X50638367Y-64533786D01*
X50638350Y-64533794D01*
X50477014Y-64615999D01*
X50477007Y-64616003D01*
X50330501Y-64722445D01*
X50202445Y-64850501D01*
X50096003Y-64997007D01*
X50095999Y-64997014D01*
X50013794Y-65158350D01*
X50013786Y-65158367D01*
X49957831Y-65330581D01*
X49957827Y-65330598D01*
X49929501Y-65509443D01*
X49929500Y-65509458D01*
X47150499Y-65509458D01*
X47150499Y-64818482D01*
X47135646Y-64724696D01*
X47078050Y-64611658D01*
X46988342Y-64521950D01*
X46988339Y-64521948D01*
X46875303Y-64464353D01*
X46875299Y-64464352D01*
X46781530Y-64449501D01*
X46781522Y-64449500D01*
X46781519Y-64449500D01*
X46781514Y-64449500D01*
X45218484Y-64449500D01*
X45124695Y-64464354D01*
X45011659Y-64521949D01*
X44921948Y-64611660D01*
X44864353Y-64724696D01*
X44864352Y-64724700D01*
X44849501Y-64818469D01*
X44849500Y-64818485D01*
X31000000Y-64818485D01*
X31000000Y-63184295D01*
X90599500Y-63184295D01*
X90599500Y-64815704D01*
X90602401Y-64852563D01*
X90602401Y-64852566D01*
X90602402Y-64852569D01*
X90648256Y-65010398D01*
X90731919Y-65151865D01*
X90848135Y-65268081D01*
X90989602Y-65351744D01*
X91147431Y-65397598D01*
X91184306Y-65400500D01*
X91184308Y-65400500D01*
X92815692Y-65400500D01*
X92815694Y-65400500D01*
X92852569Y-65397598D01*
X93010398Y-65351744D01*
X93151865Y-65268081D01*
X93268081Y-65151865D01*
X93351744Y-65010398D01*
X93397598Y-64852569D01*
X93400500Y-64815694D01*
X93400500Y-63889782D01*
X95599500Y-63889782D01*
X95599500Y-64110217D01*
X95599501Y-64110232D01*
X95633982Y-64327938D01*
X95633984Y-64327945D01*
X95633985Y-64327951D01*
X95702105Y-64537606D01*
X95702106Y-64537607D01*
X95702109Y-64537616D01*
X95802179Y-64734013D01*
X95802183Y-64734019D01*
X95802185Y-64734022D01*
X95931758Y-64912365D01*
X96087635Y-65068242D01*
X96265978Y-65197815D01*
X96265981Y-65197816D01*
X96265986Y-65197820D01*
X96462383Y-65297890D01*
X96462386Y-65297891D01*
X96462394Y-65297895D01*
X96672049Y-65366015D01*
X96672060Y-65366016D01*
X96672061Y-65366017D01*
X96732640Y-65375611D01*
X96889778Y-65400500D01*
X96889782Y-65400500D01*
X97110218Y-65400500D01*
X97110222Y-65400500D01*
X97327951Y-65366015D01*
X97537606Y-65297895D01*
X97596121Y-65268080D01*
X97734013Y-65197820D01*
X97734015Y-65197818D01*
X97734022Y-65197815D01*
X97912365Y-65068242D01*
X98068242Y-64912365D01*
X98197815Y-64734022D01*
X98202568Y-64724695D01*
X98297890Y-64537616D01*
X98297890Y-64537615D01*
X98297895Y-64537606D01*
X98366015Y-64327951D01*
X98400500Y-64110222D01*
X98400500Y-63889778D01*
X98366015Y-63672049D01*
X98297895Y-63462394D01*
X98297891Y-63462386D01*
X98297890Y-63462383D01*
X98197820Y-63265986D01*
X98197816Y-63265981D01*
X98197815Y-63265978D01*
X98068242Y-63087635D01*
X97912365Y-62931758D01*
X97734022Y-62802185D01*
X97734019Y-62802183D01*
X97734013Y-62802179D01*
X97537616Y-62702109D01*
X97537609Y-62702106D01*
X97537606Y-62702105D01*
X97327951Y-62633985D01*
X97327945Y-62633984D01*
X97327938Y-62633982D01*
X97110232Y-62599501D01*
X97110225Y-62599500D01*
X97110222Y-62599500D01*
X96889778Y-62599500D01*
X96889775Y-62599500D01*
X96889767Y-62599501D01*
X96672061Y-62633982D01*
X96672054Y-62633984D01*
X96672052Y-62633984D01*
X96672049Y-62633985D01*
X96462394Y-62702105D01*
X96462392Y-62702105D01*
X96462392Y-62702106D01*
X96462383Y-62702109D01*
X96265986Y-62802179D01*
X96265979Y-62802184D01*
X96087633Y-62931759D01*
X95931759Y-63087633D01*
X95802184Y-63265979D01*
X95802179Y-63265986D01*
X95702109Y-63462383D01*
X95702105Y-63462392D01*
X95702105Y-63462394D01*
X95633985Y-63672049D01*
X95633984Y-63672052D01*
X95633984Y-63672054D01*
X95633982Y-63672061D01*
X95599501Y-63889767D01*
X95599500Y-63889782D01*
X93400500Y-63889782D01*
X93400500Y-63184306D01*
X93397598Y-63147431D01*
X93351744Y-62989602D01*
X93268081Y-62848135D01*
X93151865Y-62731919D01*
X93010398Y-62648256D01*
X93010395Y-62648255D01*
X92980027Y-62639432D01*
X92893811Y-62594644D01*
X92831297Y-62520273D01*
X92802003Y-62427639D01*
X92800500Y-62400320D01*
X92800500Y-58256417D01*
X92819454Y-58161129D01*
X92873427Y-58080350D01*
X109001789Y-41951989D01*
X109089394Y-41820879D01*
X109149737Y-41675197D01*
X109180500Y-41520542D01*
X109180500Y-41488853D01*
X109199454Y-41393565D01*
X109253430Y-41312783D01*
X109334212Y-41258807D01*
X109401937Y-41242549D01*
X109401855Y-41242029D01*
X109408468Y-41240981D01*
X109409979Y-41240619D01*
X109411501Y-41240499D01*
X109411518Y-41240499D01*
X109505304Y-41225646D01*
X109618342Y-41168050D01*
X109708050Y-41078342D01*
X109765646Y-40965304D01*
X109780500Y-40871519D01*
X109780499Y-39729782D01*
X112059500Y-39729782D01*
X112059500Y-39950217D01*
X112059501Y-39950232D01*
X112093982Y-40167938D01*
X112093984Y-40167945D01*
X112093985Y-40167951D01*
X112162105Y-40377606D01*
X112162106Y-40377607D01*
X112162109Y-40377616D01*
X112262179Y-40574013D01*
X112262183Y-40574019D01*
X112262185Y-40574022D01*
X112391758Y-40752365D01*
X112547635Y-40908242D01*
X112725978Y-41037815D01*
X112725981Y-41037816D01*
X112725986Y-41037820D01*
X112922383Y-41137890D01*
X112922386Y-41137891D01*
X112922394Y-41137895D01*
X113132049Y-41206015D01*
X113132060Y-41206016D01*
X113132061Y-41206017D01*
X113192640Y-41215611D01*
X113349778Y-41240500D01*
X113349782Y-41240500D01*
X113570218Y-41240500D01*
X113570222Y-41240500D01*
X113787951Y-41206015D01*
X113997606Y-41137895D01*
X113997616Y-41137890D01*
X114194013Y-41037820D01*
X114194015Y-41037818D01*
X114194022Y-41037815D01*
X114372365Y-40908242D01*
X114528242Y-40752365D01*
X114657815Y-40574022D01*
X114757895Y-40377606D01*
X114826015Y-40167951D01*
X114860500Y-39950222D01*
X114860500Y-39729782D01*
X119679500Y-39729782D01*
X119679500Y-39950217D01*
X119679501Y-39950232D01*
X119713982Y-40167938D01*
X119713984Y-40167945D01*
X119713985Y-40167951D01*
X119782105Y-40377606D01*
X119782106Y-40377607D01*
X119782109Y-40377616D01*
X119882179Y-40574013D01*
X119882183Y-40574019D01*
X119882185Y-40574022D01*
X120011758Y-40752365D01*
X120167635Y-40908242D01*
X120345978Y-41037815D01*
X120345981Y-41037816D01*
X120345986Y-41037820D01*
X120542383Y-41137890D01*
X120542386Y-41137891D01*
X120542394Y-41137895D01*
X120752049Y-41206015D01*
X120752060Y-41206016D01*
X120752061Y-41206017D01*
X120812640Y-41215611D01*
X120969778Y-41240500D01*
X120969782Y-41240500D01*
X121190218Y-41240500D01*
X121190222Y-41240500D01*
X121407951Y-41206015D01*
X121617606Y-41137895D01*
X121617616Y-41137890D01*
X121814013Y-41037820D01*
X121814015Y-41037818D01*
X121814022Y-41037815D01*
X121992365Y-40908242D01*
X122148242Y-40752365D01*
X122277815Y-40574022D01*
X122377895Y-40377606D01*
X122446015Y-40167951D01*
X122480500Y-39950222D01*
X122480500Y-39729778D01*
X122446015Y-39512049D01*
X122377895Y-39302394D01*
X122377891Y-39302386D01*
X122377890Y-39302383D01*
X122277820Y-39105986D01*
X122277816Y-39105981D01*
X122277815Y-39105978D01*
X122148242Y-38927635D01*
X121992365Y-38771758D01*
X121814022Y-38642185D01*
X121814019Y-38642183D01*
X121814013Y-38642179D01*
X121617616Y-38542109D01*
X121617609Y-38542106D01*
X121617606Y-38542105D01*
X121407951Y-38473985D01*
X121407945Y-38473984D01*
X121407938Y-38473982D01*
X121190232Y-38439501D01*
X121190225Y-38439500D01*
X121190222Y-38439500D01*
X120969778Y-38439500D01*
X120969775Y-38439500D01*
X120969767Y-38439501D01*
X120752061Y-38473982D01*
X120752054Y-38473984D01*
X120752052Y-38473984D01*
X120752049Y-38473985D01*
X120542394Y-38542105D01*
X120542392Y-38542105D01*
X120542392Y-38542106D01*
X120542383Y-38542109D01*
X120345986Y-38642179D01*
X120345979Y-38642184D01*
X120167633Y-38771759D01*
X120011759Y-38927633D01*
X119882184Y-39105979D01*
X119882179Y-39105986D01*
X119782109Y-39302383D01*
X119782105Y-39302392D01*
X119782105Y-39302394D01*
X119713985Y-39512049D01*
X119713984Y-39512052D01*
X119713984Y-39512054D01*
X119713982Y-39512061D01*
X119679501Y-39729767D01*
X119679500Y-39729782D01*
X114860500Y-39729782D01*
X114860500Y-39729778D01*
X114826015Y-39512049D01*
X114757895Y-39302394D01*
X114757891Y-39302386D01*
X114757890Y-39302383D01*
X114657820Y-39105986D01*
X114657816Y-39105981D01*
X114657815Y-39105978D01*
X114528242Y-38927635D01*
X114372365Y-38771758D01*
X114194022Y-38642185D01*
X114194019Y-38642183D01*
X114194013Y-38642179D01*
X113997616Y-38542109D01*
X113997609Y-38542106D01*
X113997606Y-38542105D01*
X113787951Y-38473985D01*
X113787945Y-38473984D01*
X113787938Y-38473982D01*
X113570232Y-38439501D01*
X113570225Y-38439500D01*
X113570222Y-38439500D01*
X113349778Y-38439500D01*
X113349775Y-38439500D01*
X113349767Y-38439501D01*
X113132061Y-38473982D01*
X113132054Y-38473984D01*
X113132052Y-38473984D01*
X113132049Y-38473985D01*
X112922394Y-38542105D01*
X112922392Y-38542105D01*
X112922392Y-38542106D01*
X112922383Y-38542109D01*
X112725986Y-38642179D01*
X112725979Y-38642184D01*
X112547633Y-38771759D01*
X112391759Y-38927633D01*
X112262184Y-39105979D01*
X112262179Y-39105986D01*
X112162109Y-39302383D01*
X112162105Y-39302392D01*
X112162105Y-39302394D01*
X112093985Y-39512049D01*
X112093984Y-39512052D01*
X112093984Y-39512054D01*
X112093982Y-39512061D01*
X112059501Y-39729767D01*
X112059500Y-39729782D01*
X109780499Y-39729782D01*
X109780499Y-38808482D01*
X109765646Y-38714696D01*
X109708050Y-38601658D01*
X109618342Y-38511950D01*
X109618339Y-38511948D01*
X109505303Y-38454353D01*
X109505299Y-38454352D01*
X109411530Y-38439501D01*
X109411522Y-38439500D01*
X109411519Y-38439500D01*
X109411514Y-38439500D01*
X107348484Y-38439500D01*
X107254695Y-38454354D01*
X107141659Y-38511949D01*
X107051948Y-38601660D01*
X106994353Y-38714696D01*
X106994352Y-38714700D01*
X106979501Y-38808469D01*
X106979500Y-38808485D01*
X106979500Y-40871515D01*
X106985317Y-40908242D01*
X106994354Y-40965304D01*
X107051950Y-41078342D01*
X107141658Y-41168050D01*
X107141660Y-41168051D01*
X107155515Y-41181906D01*
X107152311Y-41185109D01*
X107192525Y-41229112D01*
X107225632Y-41320452D01*
X107221264Y-41417509D01*
X107180086Y-41505506D01*
X107155549Y-41534071D01*
X91489711Y-57199911D01*
X91489710Y-57199910D01*
X91378212Y-57311409D01*
X91378210Y-57311412D01*
X91290606Y-57442519D01*
X91290603Y-57442526D01*
X91230263Y-57588202D01*
X91230261Y-57588207D01*
X91199500Y-57742853D01*
X91199500Y-62400320D01*
X91180546Y-62495608D01*
X91126570Y-62576390D01*
X91045788Y-62630366D01*
X91019973Y-62639432D01*
X90989604Y-62648255D01*
X90989601Y-62648256D01*
X90848135Y-62731919D01*
X90731919Y-62848135D01*
X90648256Y-62989601D01*
X90602403Y-63147427D01*
X90602401Y-63147436D01*
X90599500Y-63184295D01*
X31000000Y-63184295D01*
X31000000Y-43401587D01*
X36599500Y-43401587D01*
X36599500Y-43598412D01*
X36599501Y-43598428D01*
X36630290Y-43792822D01*
X36630291Y-43792826D01*
X36691116Y-43980025D01*
X36780476Y-44155405D01*
X36780479Y-44155409D01*
X36780479Y-44155410D01*
X36896169Y-44314642D01*
X36896172Y-44314646D01*
X37007797Y-44426271D01*
X37061771Y-44507050D01*
X37080725Y-44602338D01*
X37061771Y-44697626D01*
X37007795Y-44778408D01*
X36958478Y-44816662D01*
X36848135Y-44881919D01*
X36731919Y-44998135D01*
X36648256Y-45139601D01*
X36602403Y-45297427D01*
X36602401Y-45297436D01*
X36599500Y-45334295D01*
X36599500Y-46665704D01*
X36602401Y-46702563D01*
X36602401Y-46702566D01*
X36602402Y-46702569D01*
X36648256Y-46860398D01*
X36731919Y-47001865D01*
X36848135Y-47118081D01*
X36989602Y-47201744D01*
X37147431Y-47247598D01*
X37184306Y-47250500D01*
X37184308Y-47250500D01*
X38815692Y-47250500D01*
X38815694Y-47250500D01*
X38852569Y-47247598D01*
X39010398Y-47201744D01*
X39151865Y-47118081D01*
X39268081Y-47001865D01*
X39351744Y-46860398D01*
X39397598Y-46702569D01*
X39400500Y-46665694D01*
X39400500Y-45334306D01*
X39397598Y-45297431D01*
X39364729Y-45184295D01*
X68599500Y-45184295D01*
X68599500Y-46815704D01*
X68602401Y-46852563D01*
X68602401Y-46852566D01*
X68602402Y-46852569D01*
X68648256Y-47010398D01*
X68731919Y-47151865D01*
X68848135Y-47268081D01*
X68989602Y-47351744D01*
X69147431Y-47397598D01*
X69184306Y-47400500D01*
X69184308Y-47400500D01*
X70815692Y-47400500D01*
X70815694Y-47400500D01*
X70852569Y-47397598D01*
X71010398Y-47351744D01*
X71151865Y-47268081D01*
X71268081Y-47151865D01*
X71351744Y-47010398D01*
X71397598Y-46852569D01*
X71400500Y-46815694D01*
X71400500Y-45889782D01*
X73599500Y-45889782D01*
X73599500Y-46110217D01*
X73599501Y-46110232D01*
X73633982Y-46327938D01*
X73633984Y-46327945D01*
X73633985Y-46327951D01*
X73702105Y-46537606D01*
X73702106Y-46537607D01*
X73702109Y-46537616D01*
X73802179Y-46734013D01*
X73802183Y-46734019D01*
X73802185Y-46734022D01*
X73931758Y-46912365D01*
X74087635Y-47068242D01*
X74265978Y-47197815D01*
X74265981Y-47197816D01*
X74265986Y-47197820D01*
X74462383Y-47297890D01*
X74462386Y-47297891D01*
X74462394Y-47297895D01*
X74672049Y-47366015D01*
X74672060Y-47366016D01*
X74672061Y-47366017D01*
X74732640Y-47375611D01*
X74889778Y-47400500D01*
X74889782Y-47400500D01*
X75110218Y-47400500D01*
X75110222Y-47400500D01*
X75327951Y-47366015D01*
X75537606Y-47297895D01*
X75630625Y-47250499D01*
X75734013Y-47197820D01*
X75734015Y-47197818D01*
X75734022Y-47197815D01*
X75912365Y-47068242D01*
X76068242Y-46912365D01*
X76197815Y-46734022D01*
X76213842Y-46702569D01*
X76297890Y-46537616D01*
X76297890Y-46537615D01*
X76297895Y-46537606D01*
X76366015Y-46327951D01*
X76400500Y-46110222D01*
X76400500Y-45889778D01*
X76366015Y-45672049D01*
X76297895Y-45462394D01*
X76297891Y-45462386D01*
X76297890Y-45462383D01*
X76197820Y-45265986D01*
X76197816Y-45265981D01*
X76197815Y-45265978D01*
X76068242Y-45087635D01*
X75912365Y-44931758D01*
X75734022Y-44802185D01*
X75734019Y-44802183D01*
X75734013Y-44802179D01*
X75537616Y-44702109D01*
X75537609Y-44702106D01*
X75537606Y-44702105D01*
X75327951Y-44633985D01*
X75327945Y-44633984D01*
X75327938Y-44633982D01*
X75110232Y-44599501D01*
X75110225Y-44599500D01*
X75110222Y-44599500D01*
X74889778Y-44599500D01*
X74889775Y-44599500D01*
X74889767Y-44599501D01*
X74672061Y-44633982D01*
X74672054Y-44633984D01*
X74672052Y-44633984D01*
X74672049Y-44633985D01*
X74462394Y-44702105D01*
X74462392Y-44702105D01*
X74462392Y-44702106D01*
X74462383Y-44702109D01*
X74265986Y-44802179D01*
X74265979Y-44802184D01*
X74087633Y-44931759D01*
X73931759Y-45087633D01*
X73802184Y-45265979D01*
X73802179Y-45265986D01*
X73702109Y-45462383D01*
X73702105Y-45462392D01*
X73702105Y-45462394D01*
X73633985Y-45672049D01*
X73633984Y-45672052D01*
X73633984Y-45672054D01*
X73633982Y-45672061D01*
X73599501Y-45889767D01*
X73599500Y-45889782D01*
X71400500Y-45889782D01*
X71400500Y-45184306D01*
X71397598Y-45147431D01*
X71351744Y-44989602D01*
X71268081Y-44848135D01*
X71151865Y-44731919D01*
X71010398Y-44648256D01*
X70852569Y-44602402D01*
X70852566Y-44602401D01*
X70852563Y-44602401D01*
X70815704Y-44599500D01*
X70815694Y-44599500D01*
X69184306Y-44599500D01*
X69184295Y-44599500D01*
X69147436Y-44602401D01*
X69147427Y-44602403D01*
X68989601Y-44648256D01*
X68848135Y-44731919D01*
X68731919Y-44848135D01*
X68648256Y-44989601D01*
X68602403Y-45147427D01*
X68602401Y-45147436D01*
X68599500Y-45184295D01*
X39364729Y-45184295D01*
X39351744Y-45139602D01*
X39268081Y-44998135D01*
X39151865Y-44881919D01*
X39151862Y-44881917D01*
X39041522Y-44816662D01*
X38969152Y-44751842D01*
X38927097Y-44664261D01*
X38921758Y-44567253D01*
X38953950Y-44475586D01*
X38992201Y-44426272D01*
X39103828Y-44314646D01*
X39219524Y-44155405D01*
X39308884Y-43980025D01*
X39369709Y-43792826D01*
X39400500Y-43598417D01*
X39400500Y-43401583D01*
X39369709Y-43207174D01*
X39308884Y-43019975D01*
X39219524Y-42844595D01*
X39103828Y-42685354D01*
X38964646Y-42546172D01*
X38964642Y-42546169D01*
X38805410Y-42430479D01*
X38805407Y-42430477D01*
X38805405Y-42430476D01*
X38630025Y-42341116D01*
X38630024Y-42341115D01*
X38630023Y-42341115D01*
X38630017Y-42341113D01*
X38522928Y-42306318D01*
X38442826Y-42280291D01*
X38442824Y-42280290D01*
X38442822Y-42280290D01*
X38248428Y-42249501D01*
X38248419Y-42249500D01*
X38248417Y-42249500D01*
X37751583Y-42249500D01*
X37751580Y-42249500D01*
X37751571Y-42249501D01*
X37557177Y-42280290D01*
X37369982Y-42341113D01*
X37369976Y-42341115D01*
X37278740Y-42387602D01*
X37194595Y-42430476D01*
X37194592Y-42430477D01*
X37194590Y-42430479D01*
X37194589Y-42430479D01*
X37035357Y-42546169D01*
X36896169Y-42685357D01*
X36780479Y-42844589D01*
X36780479Y-42844590D01*
X36691115Y-43019976D01*
X36691113Y-43019982D01*
X36630290Y-43207177D01*
X36599501Y-43401571D01*
X36599500Y-43401587D01*
X31000000Y-43401587D01*
X31000000Y-35878712D01*
X34149500Y-35878712D01*
X34149500Y-36121287D01*
X34181162Y-36361790D01*
X34181163Y-36361795D01*
X34243940Y-36596082D01*
X34243948Y-36596105D01*
X34336770Y-36820201D01*
X34336778Y-36820217D01*
X34458058Y-37030279D01*
X34458064Y-37030289D01*
X34605729Y-37222731D01*
X34605738Y-37222741D01*
X34777258Y-37394261D01*
X34777268Y-37394270D01*
X34898491Y-37487287D01*
X34969711Y-37541936D01*
X34969720Y-37541941D01*
X35179782Y-37663221D01*
X35179798Y-37663229D01*
X35319858Y-37721242D01*
X35403900Y-37756054D01*
X35403911Y-37756057D01*
X35403917Y-37756059D01*
X35587021Y-37805121D01*
X35638211Y-37818838D01*
X35878712Y-37850500D01*
X36121288Y-37850500D01*
X36361789Y-37818838D01*
X36523275Y-37775567D01*
X36596082Y-37756059D01*
X36596084Y-37756058D01*
X36596100Y-37756054D01*
X36747766Y-37693231D01*
X36820201Y-37663229D01*
X36820206Y-37663226D01*
X36820212Y-37663224D01*
X37030289Y-37541936D01*
X37222738Y-37394265D01*
X37394265Y-37222738D01*
X37541936Y-37030289D01*
X37663224Y-36820212D01*
X37756054Y-36596100D01*
X37818838Y-36361789D01*
X37850500Y-36121288D01*
X37850500Y-35878712D01*
X142149500Y-35878712D01*
X142149500Y-36121287D01*
X142181162Y-36361790D01*
X142181163Y-36361795D01*
X142243940Y-36596082D01*
X142243948Y-36596105D01*
X142336770Y-36820201D01*
X142336778Y-36820217D01*
X142458058Y-37030279D01*
X142458064Y-37030289D01*
X142605729Y-37222731D01*
X142605738Y-37222741D01*
X142777258Y-37394261D01*
X142777268Y-37394270D01*
X142898491Y-37487287D01*
X142969711Y-37541936D01*
X142969720Y-37541941D01*
X143179782Y-37663221D01*
X143179798Y-37663229D01*
X143319858Y-37721242D01*
X143403900Y-37756054D01*
X143403911Y-37756057D01*
X143403917Y-37756059D01*
X143587021Y-37805121D01*
X143638211Y-37818838D01*
X143878712Y-37850500D01*
X144121288Y-37850500D01*
X144361789Y-37818838D01*
X144523275Y-37775567D01*
X144596082Y-37756059D01*
X144596084Y-37756058D01*
X144596100Y-37756054D01*
X144747766Y-37693231D01*
X144820201Y-37663229D01*
X144820206Y-37663226D01*
X144820212Y-37663224D01*
X145030289Y-37541936D01*
X145222738Y-37394265D01*
X145394265Y-37222738D01*
X145541936Y-37030289D01*
X145663224Y-36820212D01*
X145756054Y-36596100D01*
X145818838Y-36361789D01*
X145850500Y-36121288D01*
X145850500Y-35878712D01*
X145818838Y-35638211D01*
X145756054Y-35403900D01*
X145721242Y-35319858D01*
X145663229Y-35179798D01*
X145663221Y-35179782D01*
X145541941Y-34969720D01*
X145541935Y-34969710D01*
X145394270Y-34777268D01*
X145394261Y-34777258D01*
X145222741Y-34605738D01*
X145222731Y-34605729D01*
X145030289Y-34458064D01*
X145030279Y-34458058D01*
X144820217Y-34336778D01*
X144820201Y-34336770D01*
X144596105Y-34243948D01*
X144596103Y-34243947D01*
X144596100Y-34243946D01*
X144596096Y-34243945D01*
X144596082Y-34243940D01*
X144361795Y-34181163D01*
X144361790Y-34181162D01*
X144121288Y-34149500D01*
X143878712Y-34149500D01*
X143638209Y-34181162D01*
X143638204Y-34181163D01*
X143403917Y-34243940D01*
X143403894Y-34243948D01*
X143179798Y-34336770D01*
X143179782Y-34336778D01*
X142969720Y-34458058D01*
X142969710Y-34458064D01*
X142777268Y-34605729D01*
X142777258Y-34605738D01*
X142605738Y-34777258D01*
X142605729Y-34777268D01*
X142458064Y-34969710D01*
X142458058Y-34969720D01*
X142336778Y-35179782D01*
X142336770Y-35179798D01*
X142243948Y-35403894D01*
X142243940Y-35403917D01*
X142181163Y-35638204D01*
X142181162Y-35638209D01*
X142149500Y-35878712D01*
X37850500Y-35878712D01*
X37818838Y-35638211D01*
X37756054Y-35403900D01*
X37721242Y-35319858D01*
X37663229Y-35179798D01*
X37663221Y-35179782D01*
X37541941Y-34969720D01*
X37541935Y-34969710D01*
X37394270Y-34777268D01*
X37394261Y-34777258D01*
X37222741Y-34605738D01*
X37222731Y-34605729D01*
X37030289Y-34458064D01*
X37030279Y-34458058D01*
X36820217Y-34336778D01*
X36820201Y-34336770D01*
X36596105Y-34243948D01*
X36596103Y-34243947D01*
X36596100Y-34243946D01*
X36596096Y-34243945D01*
X36596082Y-34243940D01*
X36361795Y-34181163D01*
X36361790Y-34181162D01*
X36121288Y-34149500D01*
X35878712Y-34149500D01*
X35638209Y-34181162D01*
X35638204Y-34181163D01*
X35403917Y-34243940D01*
X35403894Y-34243948D01*
X35179798Y-34336770D01*
X35179782Y-34336778D01*
X34969720Y-34458058D01*
X34969710Y-34458064D01*
X34777268Y-34605729D01*
X34777258Y-34605738D01*
X34605738Y-34777258D01*
X34605729Y-34777268D01*
X34458064Y-34969710D01*
X34458058Y-34969720D01*
X34336778Y-35179782D01*
X34336770Y-35179798D01*
X34243948Y-35403894D01*
X34243940Y-35403917D01*
X34181163Y-35638204D01*
X34181162Y-35638209D01*
X34149500Y-35878712D01*
X31000000Y-35878712D01*
X31000000Y-31249000D01*
X31018954Y-31153712D01*
X31072930Y-31072930D01*
X31153712Y-31018954D01*
X31249000Y-31000000D01*
X148751000Y-31000000D01*
X148846288Y-31018954D01*
G37*
%TD.AperFunction*%
%TD*%
M02*
