%TF.GenerationSoftware,KiCad,Pcbnew,10.0.3*%
%TF.CreationDate,2026-07-02T05:10:36-05:00*%
%TF.ProjectId,power-backplane,706f7765-722d-4626-9163-6b706c616e65,rev?*%
%TF.SameCoordinates,Original*%
%TF.FileFunction,AssemblyDrawing,Top*%
%FSLAX46Y46*%
G04 Gerber Fmt 4.6, Leading zero omitted, Abs format (unit mm)*
G04 Created by KiCad (PCBNEW 10.0.3) date 2026-07-02 05:10:36*
%MOMM*%
%LPD*%
G01*
G04 APERTURE LIST*
%ADD10C,0.150000*%
%ADD11C,0.120000*%
%ADD12C,0.060000*%
%ADD13C,0.080000*%
%ADD14C,0.100000*%
G04 APERTURE END LIST*
D10*
X40909524Y-45204819D02*
X40909524Y-44204819D01*
X40909524Y-44204819D02*
X41290476Y-44204819D01*
X41290476Y-44204819D02*
X41385714Y-44252438D01*
X41385714Y-44252438D02*
X41433333Y-44300057D01*
X41433333Y-44300057D02*
X41480952Y-44395295D01*
X41480952Y-44395295D02*
X41480952Y-44538152D01*
X41480952Y-44538152D02*
X41433333Y-44633390D01*
X41433333Y-44633390D02*
X41385714Y-44681009D01*
X41385714Y-44681009D02*
X41290476Y-44728628D01*
X41290476Y-44728628D02*
X40909524Y-44728628D01*
X42385714Y-44204819D02*
X41909524Y-44204819D01*
X41909524Y-44204819D02*
X41861905Y-44681009D01*
X41861905Y-44681009D02*
X41909524Y-44633390D01*
X41909524Y-44633390D02*
X42004762Y-44585771D01*
X42004762Y-44585771D02*
X42242857Y-44585771D01*
X42242857Y-44585771D02*
X42338095Y-44633390D01*
X42338095Y-44633390D02*
X42385714Y-44681009D01*
X42385714Y-44681009D02*
X42433333Y-44776247D01*
X42433333Y-44776247D02*
X42433333Y-45014342D01*
X42433333Y-45014342D02*
X42385714Y-45109580D01*
X42385714Y-45109580D02*
X42338095Y-45157200D01*
X42338095Y-45157200D02*
X42242857Y-45204819D01*
X42242857Y-45204819D02*
X42004762Y-45204819D01*
X42004762Y-45204819D02*
X41909524Y-45157200D01*
X41909524Y-45157200D02*
X41861905Y-45109580D01*
X43052381Y-44204819D02*
X43147619Y-44204819D01*
X43147619Y-44204819D02*
X43242857Y-44252438D01*
X43242857Y-44252438D02*
X43290476Y-44300057D01*
X43290476Y-44300057D02*
X43338095Y-44395295D01*
X43338095Y-44395295D02*
X43385714Y-44585771D01*
X43385714Y-44585771D02*
X43385714Y-44823866D01*
X43385714Y-44823866D02*
X43338095Y-45014342D01*
X43338095Y-45014342D02*
X43290476Y-45109580D01*
X43290476Y-45109580D02*
X43242857Y-45157200D01*
X43242857Y-45157200D02*
X43147619Y-45204819D01*
X43147619Y-45204819D02*
X43052381Y-45204819D01*
X43052381Y-45204819D02*
X42957143Y-45157200D01*
X42957143Y-45157200D02*
X42909524Y-45109580D01*
X42909524Y-45109580D02*
X42861905Y-45014342D01*
X42861905Y-45014342D02*
X42814286Y-44823866D01*
X42814286Y-44823866D02*
X42814286Y-44585771D01*
X42814286Y-44585771D02*
X42861905Y-44395295D01*
X42861905Y-44395295D02*
X42909524Y-44300057D01*
X42909524Y-44300057D02*
X42957143Y-44252438D01*
X42957143Y-44252438D02*
X43052381Y-44204819D01*
X44004762Y-44204819D02*
X44100000Y-44204819D01*
X44100000Y-44204819D02*
X44195238Y-44252438D01*
X44195238Y-44252438D02*
X44242857Y-44300057D01*
X44242857Y-44300057D02*
X44290476Y-44395295D01*
X44290476Y-44395295D02*
X44338095Y-44585771D01*
X44338095Y-44585771D02*
X44338095Y-44823866D01*
X44338095Y-44823866D02*
X44290476Y-45014342D01*
X44290476Y-45014342D02*
X44242857Y-45109580D01*
X44242857Y-45109580D02*
X44195238Y-45157200D01*
X44195238Y-45157200D02*
X44100000Y-45204819D01*
X44100000Y-45204819D02*
X44004762Y-45204819D01*
X44004762Y-45204819D02*
X43909524Y-45157200D01*
X43909524Y-45157200D02*
X43861905Y-45109580D01*
X43861905Y-45109580D02*
X43814286Y-45014342D01*
X43814286Y-45014342D02*
X43766667Y-44823866D01*
X43766667Y-44823866D02*
X43766667Y-44585771D01*
X43766667Y-44585771D02*
X43814286Y-44395295D01*
X43814286Y-44395295D02*
X43861905Y-44300057D01*
X43861905Y-44300057D02*
X43909524Y-44252438D01*
X43909524Y-44252438D02*
X44004762Y-44204819D01*
X39009524Y-45204819D02*
X39009524Y-44204819D01*
X39009524Y-44204819D02*
X39390476Y-44204819D01*
X39390476Y-44204819D02*
X39485714Y-44252438D01*
X39485714Y-44252438D02*
X39533333Y-44300057D01*
X39533333Y-44300057D02*
X39580952Y-44395295D01*
X39580952Y-44395295D02*
X39580952Y-44538152D01*
X39580952Y-44538152D02*
X39533333Y-44633390D01*
X39533333Y-44633390D02*
X39485714Y-44681009D01*
X39485714Y-44681009D02*
X39390476Y-44728628D01*
X39390476Y-44728628D02*
X39009524Y-44728628D01*
X40485714Y-44204819D02*
X40009524Y-44204819D01*
X40009524Y-44204819D02*
X39961905Y-44681009D01*
X39961905Y-44681009D02*
X40009524Y-44633390D01*
X40009524Y-44633390D02*
X40104762Y-44585771D01*
X40104762Y-44585771D02*
X40342857Y-44585771D01*
X40342857Y-44585771D02*
X40438095Y-44633390D01*
X40438095Y-44633390D02*
X40485714Y-44681009D01*
X40485714Y-44681009D02*
X40533333Y-44776247D01*
X40533333Y-44776247D02*
X40533333Y-45014342D01*
X40533333Y-45014342D02*
X40485714Y-45109580D01*
X40485714Y-45109580D02*
X40438095Y-45157200D01*
X40438095Y-45157200D02*
X40342857Y-45204819D01*
X40342857Y-45204819D02*
X40104762Y-45204819D01*
X40104762Y-45204819D02*
X40009524Y-45157200D01*
X40009524Y-45157200D02*
X39961905Y-45109580D01*
X41152381Y-44204819D02*
X41247619Y-44204819D01*
X41247619Y-44204819D02*
X41342857Y-44252438D01*
X41342857Y-44252438D02*
X41390476Y-44300057D01*
X41390476Y-44300057D02*
X41438095Y-44395295D01*
X41438095Y-44395295D02*
X41485714Y-44585771D01*
X41485714Y-44585771D02*
X41485714Y-44823866D01*
X41485714Y-44823866D02*
X41438095Y-45014342D01*
X41438095Y-45014342D02*
X41390476Y-45109580D01*
X41390476Y-45109580D02*
X41342857Y-45157200D01*
X41342857Y-45157200D02*
X41247619Y-45204819D01*
X41247619Y-45204819D02*
X41152381Y-45204819D01*
X41152381Y-45204819D02*
X41057143Y-45157200D01*
X41057143Y-45157200D02*
X41009524Y-45109580D01*
X41009524Y-45109580D02*
X40961905Y-45014342D01*
X40961905Y-45014342D02*
X40914286Y-44823866D01*
X40914286Y-44823866D02*
X40914286Y-44585771D01*
X40914286Y-44585771D02*
X40961905Y-44395295D01*
X40961905Y-44395295D02*
X41009524Y-44300057D01*
X41009524Y-44300057D02*
X41057143Y-44252438D01*
X41057143Y-44252438D02*
X41152381Y-44204819D01*
X42104762Y-44204819D02*
X42200000Y-44204819D01*
X42200000Y-44204819D02*
X42295238Y-44252438D01*
X42295238Y-44252438D02*
X42342857Y-44300057D01*
X42342857Y-44300057D02*
X42390476Y-44395295D01*
X42390476Y-44395295D02*
X42438095Y-44585771D01*
X42438095Y-44585771D02*
X42438095Y-44823866D01*
X42438095Y-44823866D02*
X42390476Y-45014342D01*
X42390476Y-45014342D02*
X42342857Y-45109580D01*
X42342857Y-45109580D02*
X42295238Y-45157200D01*
X42295238Y-45157200D02*
X42200000Y-45204819D01*
X42200000Y-45204819D02*
X42104762Y-45204819D01*
X42104762Y-45204819D02*
X42009524Y-45157200D01*
X42009524Y-45157200D02*
X41961905Y-45109580D01*
X41961905Y-45109580D02*
X41914286Y-45014342D01*
X41914286Y-45014342D02*
X41866667Y-44823866D01*
X41866667Y-44823866D02*
X41866667Y-44585771D01*
X41866667Y-44585771D02*
X41914286Y-44395295D01*
X41914286Y-44395295D02*
X41961905Y-44300057D01*
X41961905Y-44300057D02*
X42009524Y-44252438D01*
X42009524Y-44252438D02*
X42104762Y-44204819D01*
X80952381Y-49007200D02*
X81095238Y-49054819D01*
X81095238Y-49054819D02*
X81333333Y-49054819D01*
X81333333Y-49054819D02*
X81428571Y-49007200D01*
X81428571Y-49007200D02*
X81476190Y-48959580D01*
X81476190Y-48959580D02*
X81523809Y-48864342D01*
X81523809Y-48864342D02*
X81523809Y-48769104D01*
X81523809Y-48769104D02*
X81476190Y-48673866D01*
X81476190Y-48673866D02*
X81428571Y-48626247D01*
X81428571Y-48626247D02*
X81333333Y-48578628D01*
X81333333Y-48578628D02*
X81142857Y-48531009D01*
X81142857Y-48531009D02*
X81047619Y-48483390D01*
X81047619Y-48483390D02*
X81000000Y-48435771D01*
X81000000Y-48435771D02*
X80952381Y-48340533D01*
X80952381Y-48340533D02*
X80952381Y-48245295D01*
X80952381Y-48245295D02*
X81000000Y-48150057D01*
X81000000Y-48150057D02*
X81047619Y-48102438D01*
X81047619Y-48102438D02*
X81142857Y-48054819D01*
X81142857Y-48054819D02*
X81380952Y-48054819D01*
X81380952Y-48054819D02*
X81523809Y-48102438D01*
X81952381Y-49054819D02*
X81952381Y-48054819D01*
X81952381Y-48054819D02*
X82285714Y-48769104D01*
X82285714Y-48769104D02*
X82619047Y-48054819D01*
X82619047Y-48054819D02*
X82619047Y-49054819D01*
X83047619Y-48769104D02*
X83523809Y-48769104D01*
X82952381Y-49054819D02*
X83285714Y-48054819D01*
X83285714Y-48054819D02*
X83619047Y-49054819D01*
X84238095Y-48054819D02*
X84238095Y-48769104D01*
X84238095Y-48769104D02*
X84190476Y-48911961D01*
X84190476Y-48911961D02*
X84095238Y-49007200D01*
X84095238Y-49007200D02*
X83952381Y-49054819D01*
X83952381Y-49054819D02*
X83857143Y-49054819D01*
X84619048Y-48054819D02*
X85238095Y-48054819D01*
X85238095Y-48054819D02*
X84904762Y-48435771D01*
X84904762Y-48435771D02*
X85047619Y-48435771D01*
X85047619Y-48435771D02*
X85142857Y-48483390D01*
X85142857Y-48483390D02*
X85190476Y-48531009D01*
X85190476Y-48531009D02*
X85238095Y-48626247D01*
X85238095Y-48626247D02*
X85238095Y-48864342D01*
X85238095Y-48864342D02*
X85190476Y-48959580D01*
X85190476Y-48959580D02*
X85142857Y-49007200D01*
X85142857Y-49007200D02*
X85047619Y-49054819D01*
X85047619Y-49054819D02*
X84761905Y-49054819D01*
X84761905Y-49054819D02*
X84666667Y-49007200D01*
X84666667Y-49007200D02*
X84619048Y-48959580D01*
X85571429Y-48054819D02*
X86190476Y-48054819D01*
X86190476Y-48054819D02*
X85857143Y-48435771D01*
X85857143Y-48435771D02*
X86000000Y-48435771D01*
X86000000Y-48435771D02*
X86095238Y-48483390D01*
X86095238Y-48483390D02*
X86142857Y-48531009D01*
X86142857Y-48531009D02*
X86190476Y-48626247D01*
X86190476Y-48626247D02*
X86190476Y-48864342D01*
X86190476Y-48864342D02*
X86142857Y-48959580D01*
X86142857Y-48959580D02*
X86095238Y-49007200D01*
X86095238Y-49007200D02*
X86000000Y-49054819D01*
X86000000Y-49054819D02*
X85714286Y-49054819D01*
X85714286Y-49054819D02*
X85619048Y-49007200D01*
X85619048Y-49007200D02*
X85571429Y-48959580D01*
X86571429Y-48769104D02*
X87047619Y-48769104D01*
X86476191Y-49054819D02*
X86809524Y-48054819D01*
X86809524Y-48054819D02*
X87142857Y-49054819D01*
X81380952Y-42954819D02*
X81952380Y-42954819D01*
X81666666Y-43954819D02*
X81666666Y-42954819D01*
X82142857Y-42954819D02*
X82476190Y-43954819D01*
X82476190Y-43954819D02*
X82809523Y-42954819D01*
X83095238Y-43907200D02*
X83238095Y-43954819D01*
X83238095Y-43954819D02*
X83476190Y-43954819D01*
X83476190Y-43954819D02*
X83571428Y-43907200D01*
X83571428Y-43907200D02*
X83619047Y-43859580D01*
X83619047Y-43859580D02*
X83666666Y-43764342D01*
X83666666Y-43764342D02*
X83666666Y-43669104D01*
X83666666Y-43669104D02*
X83619047Y-43573866D01*
X83619047Y-43573866D02*
X83571428Y-43526247D01*
X83571428Y-43526247D02*
X83476190Y-43478628D01*
X83476190Y-43478628D02*
X83285714Y-43431009D01*
X83285714Y-43431009D02*
X83190476Y-43383390D01*
X83190476Y-43383390D02*
X83142857Y-43335771D01*
X83142857Y-43335771D02*
X83095238Y-43240533D01*
X83095238Y-43240533D02*
X83095238Y-43145295D01*
X83095238Y-43145295D02*
X83142857Y-43050057D01*
X83142857Y-43050057D02*
X83190476Y-43002438D01*
X83190476Y-43002438D02*
X83285714Y-42954819D01*
X83285714Y-42954819D02*
X83523809Y-42954819D01*
X83523809Y-42954819D02*
X83666666Y-43002438D01*
X84571428Y-42954819D02*
X84095238Y-42954819D01*
X84095238Y-42954819D02*
X84047619Y-43431009D01*
X84047619Y-43431009D02*
X84095238Y-43383390D01*
X84095238Y-43383390D02*
X84190476Y-43335771D01*
X84190476Y-43335771D02*
X84428571Y-43335771D01*
X84428571Y-43335771D02*
X84523809Y-43383390D01*
X84523809Y-43383390D02*
X84571428Y-43431009D01*
X84571428Y-43431009D02*
X84619047Y-43526247D01*
X84619047Y-43526247D02*
X84619047Y-43764342D01*
X84619047Y-43764342D02*
X84571428Y-43859580D01*
X84571428Y-43859580D02*
X84523809Y-43907200D01*
X84523809Y-43907200D02*
X84428571Y-43954819D01*
X84428571Y-43954819D02*
X84190476Y-43954819D01*
X84190476Y-43954819D02*
X84095238Y-43907200D01*
X84095238Y-43907200D02*
X84047619Y-43859580D01*
X85238095Y-42954819D02*
X85333333Y-42954819D01*
X85333333Y-42954819D02*
X85428571Y-43002438D01*
X85428571Y-43002438D02*
X85476190Y-43050057D01*
X85476190Y-43050057D02*
X85523809Y-43145295D01*
X85523809Y-43145295D02*
X85571428Y-43335771D01*
X85571428Y-43335771D02*
X85571428Y-43573866D01*
X85571428Y-43573866D02*
X85523809Y-43764342D01*
X85523809Y-43764342D02*
X85476190Y-43859580D01*
X85476190Y-43859580D02*
X85428571Y-43907200D01*
X85428571Y-43907200D02*
X85333333Y-43954819D01*
X85333333Y-43954819D02*
X85238095Y-43954819D01*
X85238095Y-43954819D02*
X85142857Y-43907200D01*
X85142857Y-43907200D02*
X85095238Y-43859580D01*
X85095238Y-43859580D02*
X85047619Y-43764342D01*
X85047619Y-43764342D02*
X85000000Y-43573866D01*
X85000000Y-43573866D02*
X85000000Y-43335771D01*
X85000000Y-43335771D02*
X85047619Y-43145295D01*
X85047619Y-43145295D02*
X85095238Y-43050057D01*
X85095238Y-43050057D02*
X85142857Y-43002438D01*
X85142857Y-43002438D02*
X85238095Y-42954819D01*
X86190476Y-42954819D02*
X86285714Y-42954819D01*
X86285714Y-42954819D02*
X86380952Y-43002438D01*
X86380952Y-43002438D02*
X86428571Y-43050057D01*
X86428571Y-43050057D02*
X86476190Y-43145295D01*
X86476190Y-43145295D02*
X86523809Y-43335771D01*
X86523809Y-43335771D02*
X86523809Y-43573866D01*
X86523809Y-43573866D02*
X86476190Y-43764342D01*
X86476190Y-43764342D02*
X86428571Y-43859580D01*
X86428571Y-43859580D02*
X86380952Y-43907200D01*
X86380952Y-43907200D02*
X86285714Y-43954819D01*
X86285714Y-43954819D02*
X86190476Y-43954819D01*
X86190476Y-43954819D02*
X86095238Y-43907200D01*
X86095238Y-43907200D02*
X86047619Y-43859580D01*
X86047619Y-43859580D02*
X86000000Y-43764342D01*
X86000000Y-43764342D02*
X85952381Y-43573866D01*
X85952381Y-43573866D02*
X85952381Y-43335771D01*
X85952381Y-43335771D02*
X86000000Y-43145295D01*
X86000000Y-43145295D02*
X86047619Y-43050057D01*
X86047619Y-43050057D02*
X86095238Y-43002438D01*
X86095238Y-43002438D02*
X86190476Y-42954819D01*
X130309524Y-64394819D02*
X130309524Y-63394819D01*
X130309524Y-63394819D02*
X130690476Y-63394819D01*
X130690476Y-63394819D02*
X130785714Y-63442438D01*
X130785714Y-63442438D02*
X130833333Y-63490057D01*
X130833333Y-63490057D02*
X130880952Y-63585295D01*
X130880952Y-63585295D02*
X130880952Y-63728152D01*
X130880952Y-63728152D02*
X130833333Y-63823390D01*
X130833333Y-63823390D02*
X130785714Y-63871009D01*
X130785714Y-63871009D02*
X130690476Y-63918628D01*
X130690476Y-63918628D02*
X130309524Y-63918628D01*
X131785714Y-63394819D02*
X131309524Y-63394819D01*
X131309524Y-63394819D02*
X131261905Y-63871009D01*
X131261905Y-63871009D02*
X131309524Y-63823390D01*
X131309524Y-63823390D02*
X131404762Y-63775771D01*
X131404762Y-63775771D02*
X131642857Y-63775771D01*
X131642857Y-63775771D02*
X131738095Y-63823390D01*
X131738095Y-63823390D02*
X131785714Y-63871009D01*
X131785714Y-63871009D02*
X131833333Y-63966247D01*
X131833333Y-63966247D02*
X131833333Y-64204342D01*
X131833333Y-64204342D02*
X131785714Y-64299580D01*
X131785714Y-64299580D02*
X131738095Y-64347200D01*
X131738095Y-64347200D02*
X131642857Y-64394819D01*
X131642857Y-64394819D02*
X131404762Y-64394819D01*
X131404762Y-64394819D02*
X131309524Y-64347200D01*
X131309524Y-64347200D02*
X131261905Y-64299580D01*
X132452381Y-63394819D02*
X132547619Y-63394819D01*
X132547619Y-63394819D02*
X132642857Y-63442438D01*
X132642857Y-63442438D02*
X132690476Y-63490057D01*
X132690476Y-63490057D02*
X132738095Y-63585295D01*
X132738095Y-63585295D02*
X132785714Y-63775771D01*
X132785714Y-63775771D02*
X132785714Y-64013866D01*
X132785714Y-64013866D02*
X132738095Y-64204342D01*
X132738095Y-64204342D02*
X132690476Y-64299580D01*
X132690476Y-64299580D02*
X132642857Y-64347200D01*
X132642857Y-64347200D02*
X132547619Y-64394819D01*
X132547619Y-64394819D02*
X132452381Y-64394819D01*
X132452381Y-64394819D02*
X132357143Y-64347200D01*
X132357143Y-64347200D02*
X132309524Y-64299580D01*
X132309524Y-64299580D02*
X132261905Y-64204342D01*
X132261905Y-64204342D02*
X132214286Y-64013866D01*
X132214286Y-64013866D02*
X132214286Y-63775771D01*
X132214286Y-63775771D02*
X132261905Y-63585295D01*
X132261905Y-63585295D02*
X132309524Y-63490057D01*
X132309524Y-63490057D02*
X132357143Y-63442438D01*
X132357143Y-63442438D02*
X132452381Y-63394819D01*
X133642857Y-63394819D02*
X133452381Y-63394819D01*
X133452381Y-63394819D02*
X133357143Y-63442438D01*
X133357143Y-63442438D02*
X133309524Y-63490057D01*
X133309524Y-63490057D02*
X133214286Y-63632914D01*
X133214286Y-63632914D02*
X133166667Y-63823390D01*
X133166667Y-63823390D02*
X133166667Y-64204342D01*
X133166667Y-64204342D02*
X133214286Y-64299580D01*
X133214286Y-64299580D02*
X133261905Y-64347200D01*
X133261905Y-64347200D02*
X133357143Y-64394819D01*
X133357143Y-64394819D02*
X133547619Y-64394819D01*
X133547619Y-64394819D02*
X133642857Y-64347200D01*
X133642857Y-64347200D02*
X133690476Y-64299580D01*
X133690476Y-64299580D02*
X133738095Y-64204342D01*
X133738095Y-64204342D02*
X133738095Y-63966247D01*
X133738095Y-63966247D02*
X133690476Y-63871009D01*
X133690476Y-63871009D02*
X133642857Y-63823390D01*
X133642857Y-63823390D02*
X133547619Y-63775771D01*
X133547619Y-63775771D02*
X133357143Y-63775771D01*
X133357143Y-63775771D02*
X133261905Y-63823390D01*
X133261905Y-63823390D02*
X133214286Y-63871009D01*
X133214286Y-63871009D02*
X133166667Y-63966247D01*
X132209524Y-64394819D02*
X132209524Y-63394819D01*
X132209524Y-63394819D02*
X132590476Y-63394819D01*
X132590476Y-63394819D02*
X132685714Y-63442438D01*
X132685714Y-63442438D02*
X132733333Y-63490057D01*
X132733333Y-63490057D02*
X132780952Y-63585295D01*
X132780952Y-63585295D02*
X132780952Y-63728152D01*
X132780952Y-63728152D02*
X132733333Y-63823390D01*
X132733333Y-63823390D02*
X132685714Y-63871009D01*
X132685714Y-63871009D02*
X132590476Y-63918628D01*
X132590476Y-63918628D02*
X132209524Y-63918628D01*
X133685714Y-63394819D02*
X133209524Y-63394819D01*
X133209524Y-63394819D02*
X133161905Y-63871009D01*
X133161905Y-63871009D02*
X133209524Y-63823390D01*
X133209524Y-63823390D02*
X133304762Y-63775771D01*
X133304762Y-63775771D02*
X133542857Y-63775771D01*
X133542857Y-63775771D02*
X133638095Y-63823390D01*
X133638095Y-63823390D02*
X133685714Y-63871009D01*
X133685714Y-63871009D02*
X133733333Y-63966247D01*
X133733333Y-63966247D02*
X133733333Y-64204342D01*
X133733333Y-64204342D02*
X133685714Y-64299580D01*
X133685714Y-64299580D02*
X133638095Y-64347200D01*
X133638095Y-64347200D02*
X133542857Y-64394819D01*
X133542857Y-64394819D02*
X133304762Y-64394819D01*
X133304762Y-64394819D02*
X133209524Y-64347200D01*
X133209524Y-64347200D02*
X133161905Y-64299580D01*
X134352381Y-63394819D02*
X134447619Y-63394819D01*
X134447619Y-63394819D02*
X134542857Y-63442438D01*
X134542857Y-63442438D02*
X134590476Y-63490057D01*
X134590476Y-63490057D02*
X134638095Y-63585295D01*
X134638095Y-63585295D02*
X134685714Y-63775771D01*
X134685714Y-63775771D02*
X134685714Y-64013866D01*
X134685714Y-64013866D02*
X134638095Y-64204342D01*
X134638095Y-64204342D02*
X134590476Y-64299580D01*
X134590476Y-64299580D02*
X134542857Y-64347200D01*
X134542857Y-64347200D02*
X134447619Y-64394819D01*
X134447619Y-64394819D02*
X134352381Y-64394819D01*
X134352381Y-64394819D02*
X134257143Y-64347200D01*
X134257143Y-64347200D02*
X134209524Y-64299580D01*
X134209524Y-64299580D02*
X134161905Y-64204342D01*
X134161905Y-64204342D02*
X134114286Y-64013866D01*
X134114286Y-64013866D02*
X134114286Y-63775771D01*
X134114286Y-63775771D02*
X134161905Y-63585295D01*
X134161905Y-63585295D02*
X134209524Y-63490057D01*
X134209524Y-63490057D02*
X134257143Y-63442438D01*
X134257143Y-63442438D02*
X134352381Y-63394819D01*
X135542857Y-63394819D02*
X135352381Y-63394819D01*
X135352381Y-63394819D02*
X135257143Y-63442438D01*
X135257143Y-63442438D02*
X135209524Y-63490057D01*
X135209524Y-63490057D02*
X135114286Y-63632914D01*
X135114286Y-63632914D02*
X135066667Y-63823390D01*
X135066667Y-63823390D02*
X135066667Y-64204342D01*
X135066667Y-64204342D02*
X135114286Y-64299580D01*
X135114286Y-64299580D02*
X135161905Y-64347200D01*
X135161905Y-64347200D02*
X135257143Y-64394819D01*
X135257143Y-64394819D02*
X135447619Y-64394819D01*
X135447619Y-64394819D02*
X135542857Y-64347200D01*
X135542857Y-64347200D02*
X135590476Y-64299580D01*
X135590476Y-64299580D02*
X135638095Y-64204342D01*
X135638095Y-64204342D02*
X135638095Y-63966247D01*
X135638095Y-63966247D02*
X135590476Y-63871009D01*
X135590476Y-63871009D02*
X135542857Y-63823390D01*
X135542857Y-63823390D02*
X135447619Y-63775771D01*
X135447619Y-63775771D02*
X135257143Y-63775771D01*
X135257143Y-63775771D02*
X135161905Y-63823390D01*
X135161905Y-63823390D02*
X135114286Y-63871009D01*
X135114286Y-63871009D02*
X135066667Y-63966247D01*
X130309524Y-84394819D02*
X130309524Y-83394819D01*
X130309524Y-83394819D02*
X130690476Y-83394819D01*
X130690476Y-83394819D02*
X130785714Y-83442438D01*
X130785714Y-83442438D02*
X130833333Y-83490057D01*
X130833333Y-83490057D02*
X130880952Y-83585295D01*
X130880952Y-83585295D02*
X130880952Y-83728152D01*
X130880952Y-83728152D02*
X130833333Y-83823390D01*
X130833333Y-83823390D02*
X130785714Y-83871009D01*
X130785714Y-83871009D02*
X130690476Y-83918628D01*
X130690476Y-83918628D02*
X130309524Y-83918628D01*
X131738095Y-83394819D02*
X131547619Y-83394819D01*
X131547619Y-83394819D02*
X131452381Y-83442438D01*
X131452381Y-83442438D02*
X131404762Y-83490057D01*
X131404762Y-83490057D02*
X131309524Y-83632914D01*
X131309524Y-83632914D02*
X131261905Y-83823390D01*
X131261905Y-83823390D02*
X131261905Y-84204342D01*
X131261905Y-84204342D02*
X131309524Y-84299580D01*
X131309524Y-84299580D02*
X131357143Y-84347200D01*
X131357143Y-84347200D02*
X131452381Y-84394819D01*
X131452381Y-84394819D02*
X131642857Y-84394819D01*
X131642857Y-84394819D02*
X131738095Y-84347200D01*
X131738095Y-84347200D02*
X131785714Y-84299580D01*
X131785714Y-84299580D02*
X131833333Y-84204342D01*
X131833333Y-84204342D02*
X131833333Y-83966247D01*
X131833333Y-83966247D02*
X131785714Y-83871009D01*
X131785714Y-83871009D02*
X131738095Y-83823390D01*
X131738095Y-83823390D02*
X131642857Y-83775771D01*
X131642857Y-83775771D02*
X131452381Y-83775771D01*
X131452381Y-83775771D02*
X131357143Y-83823390D01*
X131357143Y-83823390D02*
X131309524Y-83871009D01*
X131309524Y-83871009D02*
X131261905Y-83966247D01*
X132452381Y-83394819D02*
X132547619Y-83394819D01*
X132547619Y-83394819D02*
X132642857Y-83442438D01*
X132642857Y-83442438D02*
X132690476Y-83490057D01*
X132690476Y-83490057D02*
X132738095Y-83585295D01*
X132738095Y-83585295D02*
X132785714Y-83775771D01*
X132785714Y-83775771D02*
X132785714Y-84013866D01*
X132785714Y-84013866D02*
X132738095Y-84204342D01*
X132738095Y-84204342D02*
X132690476Y-84299580D01*
X132690476Y-84299580D02*
X132642857Y-84347200D01*
X132642857Y-84347200D02*
X132547619Y-84394819D01*
X132547619Y-84394819D02*
X132452381Y-84394819D01*
X132452381Y-84394819D02*
X132357143Y-84347200D01*
X132357143Y-84347200D02*
X132309524Y-84299580D01*
X132309524Y-84299580D02*
X132261905Y-84204342D01*
X132261905Y-84204342D02*
X132214286Y-84013866D01*
X132214286Y-84013866D02*
X132214286Y-83775771D01*
X132214286Y-83775771D02*
X132261905Y-83585295D01*
X132261905Y-83585295D02*
X132309524Y-83490057D01*
X132309524Y-83490057D02*
X132357143Y-83442438D01*
X132357143Y-83442438D02*
X132452381Y-83394819D01*
X133738095Y-84394819D02*
X133166667Y-84394819D01*
X133452381Y-84394819D02*
X133452381Y-83394819D01*
X133452381Y-83394819D02*
X133357143Y-83537676D01*
X133357143Y-83537676D02*
X133261905Y-83632914D01*
X133261905Y-83632914D02*
X133166667Y-83680533D01*
X132209524Y-84394819D02*
X132209524Y-83394819D01*
X132209524Y-83394819D02*
X132590476Y-83394819D01*
X132590476Y-83394819D02*
X132685714Y-83442438D01*
X132685714Y-83442438D02*
X132733333Y-83490057D01*
X132733333Y-83490057D02*
X132780952Y-83585295D01*
X132780952Y-83585295D02*
X132780952Y-83728152D01*
X132780952Y-83728152D02*
X132733333Y-83823390D01*
X132733333Y-83823390D02*
X132685714Y-83871009D01*
X132685714Y-83871009D02*
X132590476Y-83918628D01*
X132590476Y-83918628D02*
X132209524Y-83918628D01*
X133638095Y-83394819D02*
X133447619Y-83394819D01*
X133447619Y-83394819D02*
X133352381Y-83442438D01*
X133352381Y-83442438D02*
X133304762Y-83490057D01*
X133304762Y-83490057D02*
X133209524Y-83632914D01*
X133209524Y-83632914D02*
X133161905Y-83823390D01*
X133161905Y-83823390D02*
X133161905Y-84204342D01*
X133161905Y-84204342D02*
X133209524Y-84299580D01*
X133209524Y-84299580D02*
X133257143Y-84347200D01*
X133257143Y-84347200D02*
X133352381Y-84394819D01*
X133352381Y-84394819D02*
X133542857Y-84394819D01*
X133542857Y-84394819D02*
X133638095Y-84347200D01*
X133638095Y-84347200D02*
X133685714Y-84299580D01*
X133685714Y-84299580D02*
X133733333Y-84204342D01*
X133733333Y-84204342D02*
X133733333Y-83966247D01*
X133733333Y-83966247D02*
X133685714Y-83871009D01*
X133685714Y-83871009D02*
X133638095Y-83823390D01*
X133638095Y-83823390D02*
X133542857Y-83775771D01*
X133542857Y-83775771D02*
X133352381Y-83775771D01*
X133352381Y-83775771D02*
X133257143Y-83823390D01*
X133257143Y-83823390D02*
X133209524Y-83871009D01*
X133209524Y-83871009D02*
X133161905Y-83966247D01*
X134352381Y-83394819D02*
X134447619Y-83394819D01*
X134447619Y-83394819D02*
X134542857Y-83442438D01*
X134542857Y-83442438D02*
X134590476Y-83490057D01*
X134590476Y-83490057D02*
X134638095Y-83585295D01*
X134638095Y-83585295D02*
X134685714Y-83775771D01*
X134685714Y-83775771D02*
X134685714Y-84013866D01*
X134685714Y-84013866D02*
X134638095Y-84204342D01*
X134638095Y-84204342D02*
X134590476Y-84299580D01*
X134590476Y-84299580D02*
X134542857Y-84347200D01*
X134542857Y-84347200D02*
X134447619Y-84394819D01*
X134447619Y-84394819D02*
X134352381Y-84394819D01*
X134352381Y-84394819D02*
X134257143Y-84347200D01*
X134257143Y-84347200D02*
X134209524Y-84299580D01*
X134209524Y-84299580D02*
X134161905Y-84204342D01*
X134161905Y-84204342D02*
X134114286Y-84013866D01*
X134114286Y-84013866D02*
X134114286Y-83775771D01*
X134114286Y-83775771D02*
X134161905Y-83585295D01*
X134161905Y-83585295D02*
X134209524Y-83490057D01*
X134209524Y-83490057D02*
X134257143Y-83442438D01*
X134257143Y-83442438D02*
X134352381Y-83394819D01*
X135638095Y-84394819D02*
X135066667Y-84394819D01*
X135352381Y-84394819D02*
X135352381Y-83394819D01*
X135352381Y-83394819D02*
X135257143Y-83537676D01*
X135257143Y-83537676D02*
X135161905Y-83632914D01*
X135161905Y-83632914D02*
X135066667Y-83680533D01*
X112607142Y-74854819D02*
X112035714Y-74854819D01*
X112321428Y-74854819D02*
X112321428Y-73854819D01*
X112321428Y-73854819D02*
X112226190Y-73997676D01*
X112226190Y-73997676D02*
X112130952Y-74092914D01*
X112130952Y-74092914D02*
X112035714Y-74140533D01*
X113226190Y-73854819D02*
X113321428Y-73854819D01*
X113321428Y-73854819D02*
X113416666Y-73902438D01*
X113416666Y-73902438D02*
X113464285Y-73950057D01*
X113464285Y-73950057D02*
X113511904Y-74045295D01*
X113511904Y-74045295D02*
X113559523Y-74235771D01*
X113559523Y-74235771D02*
X113559523Y-74473866D01*
X113559523Y-74473866D02*
X113511904Y-74664342D01*
X113511904Y-74664342D02*
X113464285Y-74759580D01*
X113464285Y-74759580D02*
X113416666Y-74807200D01*
X113416666Y-74807200D02*
X113321428Y-74854819D01*
X113321428Y-74854819D02*
X113226190Y-74854819D01*
X113226190Y-74854819D02*
X113130952Y-74807200D01*
X113130952Y-74807200D02*
X113083333Y-74759580D01*
X113083333Y-74759580D02*
X113035714Y-74664342D01*
X113035714Y-74664342D02*
X112988095Y-74473866D01*
X112988095Y-74473866D02*
X112988095Y-74235771D01*
X112988095Y-74235771D02*
X113035714Y-74045295D01*
X113035714Y-74045295D02*
X113083333Y-73950057D01*
X113083333Y-73950057D02*
X113130952Y-73902438D01*
X113130952Y-73902438D02*
X113226190Y-73854819D01*
X114416666Y-74188152D02*
X114416666Y-74854819D01*
X113988095Y-74188152D02*
X113988095Y-74711961D01*
X113988095Y-74711961D02*
X114035714Y-74807200D01*
X114035714Y-74807200D02*
X114130952Y-74854819D01*
X114130952Y-74854819D02*
X114273809Y-74854819D01*
X114273809Y-74854819D02*
X114369047Y-74807200D01*
X114369047Y-74807200D02*
X114416666Y-74759580D01*
X112130952Y-70359580D02*
X112083333Y-70407200D01*
X112083333Y-70407200D02*
X111940476Y-70454819D01*
X111940476Y-70454819D02*
X111845238Y-70454819D01*
X111845238Y-70454819D02*
X111702381Y-70407200D01*
X111702381Y-70407200D02*
X111607143Y-70311961D01*
X111607143Y-70311961D02*
X111559524Y-70216723D01*
X111559524Y-70216723D02*
X111511905Y-70026247D01*
X111511905Y-70026247D02*
X111511905Y-69883390D01*
X111511905Y-69883390D02*
X111559524Y-69692914D01*
X111559524Y-69692914D02*
X111607143Y-69597676D01*
X111607143Y-69597676D02*
X111702381Y-69502438D01*
X111702381Y-69502438D02*
X111845238Y-69454819D01*
X111845238Y-69454819D02*
X111940476Y-69454819D01*
X111940476Y-69454819D02*
X112083333Y-69502438D01*
X112083333Y-69502438D02*
X112130952Y-69550057D01*
X113035714Y-69454819D02*
X112559524Y-69454819D01*
X112559524Y-69454819D02*
X112511905Y-69931009D01*
X112511905Y-69931009D02*
X112559524Y-69883390D01*
X112559524Y-69883390D02*
X112654762Y-69835771D01*
X112654762Y-69835771D02*
X112892857Y-69835771D01*
X112892857Y-69835771D02*
X112988095Y-69883390D01*
X112988095Y-69883390D02*
X113035714Y-69931009D01*
X113035714Y-69931009D02*
X113083333Y-70026247D01*
X113083333Y-70026247D02*
X113083333Y-70264342D01*
X113083333Y-70264342D02*
X113035714Y-70359580D01*
X113035714Y-70359580D02*
X112988095Y-70407200D01*
X112988095Y-70407200D02*
X112892857Y-70454819D01*
X112892857Y-70454819D02*
X112654762Y-70454819D01*
X112654762Y-70454819D02*
X112559524Y-70407200D01*
X112559524Y-70407200D02*
X112511905Y-70359580D01*
X114035714Y-70454819D02*
X113464286Y-70454819D01*
X113750000Y-70454819D02*
X113750000Y-69454819D01*
X113750000Y-69454819D02*
X113654762Y-69597676D01*
X113654762Y-69597676D02*
X113559524Y-69692914D01*
X113559524Y-69692914D02*
X113464286Y-69740533D01*
X114988095Y-70454819D02*
X114416667Y-70454819D01*
X114702381Y-70454819D02*
X114702381Y-69454819D01*
X114702381Y-69454819D02*
X114607143Y-69597676D01*
X114607143Y-69597676D02*
X114511905Y-69692914D01*
X114511905Y-69692914D02*
X114416667Y-69740533D01*
X113880952Y-84304819D02*
X113309524Y-84304819D01*
X113595238Y-84304819D02*
X113595238Y-83304819D01*
X113595238Y-83304819D02*
X113500000Y-83447676D01*
X113500000Y-83447676D02*
X113404762Y-83542914D01*
X113404762Y-83542914D02*
X113309524Y-83590533D01*
X114500000Y-83304819D02*
X114595238Y-83304819D01*
X114595238Y-83304819D02*
X114690476Y-83352438D01*
X114690476Y-83352438D02*
X114738095Y-83400057D01*
X114738095Y-83400057D02*
X114785714Y-83495295D01*
X114785714Y-83495295D02*
X114833333Y-83685771D01*
X114833333Y-83685771D02*
X114833333Y-83923866D01*
X114833333Y-83923866D02*
X114785714Y-84114342D01*
X114785714Y-84114342D02*
X114738095Y-84209580D01*
X114738095Y-84209580D02*
X114690476Y-84257200D01*
X114690476Y-84257200D02*
X114595238Y-84304819D01*
X114595238Y-84304819D02*
X114500000Y-84304819D01*
X114500000Y-84304819D02*
X114404762Y-84257200D01*
X114404762Y-84257200D02*
X114357143Y-84209580D01*
X114357143Y-84209580D02*
X114309524Y-84114342D01*
X114309524Y-84114342D02*
X114261905Y-83923866D01*
X114261905Y-83923866D02*
X114261905Y-83685771D01*
X114261905Y-83685771D02*
X114309524Y-83495295D01*
X114309524Y-83495295D02*
X114357143Y-83400057D01*
X114357143Y-83400057D02*
X114404762Y-83352438D01*
X114404762Y-83352438D02*
X114500000Y-83304819D01*
X115452381Y-83304819D02*
X115547619Y-83304819D01*
X115547619Y-83304819D02*
X115642857Y-83352438D01*
X115642857Y-83352438D02*
X115690476Y-83400057D01*
X115690476Y-83400057D02*
X115738095Y-83495295D01*
X115738095Y-83495295D02*
X115785714Y-83685771D01*
X115785714Y-83685771D02*
X115785714Y-83923866D01*
X115785714Y-83923866D02*
X115738095Y-84114342D01*
X115738095Y-84114342D02*
X115690476Y-84209580D01*
X115690476Y-84209580D02*
X115642857Y-84257200D01*
X115642857Y-84257200D02*
X115547619Y-84304819D01*
X115547619Y-84304819D02*
X115452381Y-84304819D01*
X115452381Y-84304819D02*
X115357143Y-84257200D01*
X115357143Y-84257200D02*
X115309524Y-84209580D01*
X115309524Y-84209580D02*
X115261905Y-84114342D01*
X115261905Y-84114342D02*
X115214286Y-83923866D01*
X115214286Y-83923866D02*
X115214286Y-83685771D01*
X115214286Y-83685771D02*
X115261905Y-83495295D01*
X115261905Y-83495295D02*
X115309524Y-83400057D01*
X115309524Y-83400057D02*
X115357143Y-83352438D01*
X115357143Y-83352438D02*
X115452381Y-83304819D01*
X116214286Y-83638152D02*
X116214286Y-84304819D01*
X116214286Y-83733390D02*
X116261905Y-83685771D01*
X116261905Y-83685771D02*
X116357143Y-83638152D01*
X116357143Y-83638152D02*
X116500000Y-83638152D01*
X116500000Y-83638152D02*
X116595238Y-83685771D01*
X116595238Y-83685771D02*
X116642857Y-83781009D01*
X116642857Y-83781009D02*
X116642857Y-84304819D01*
D11*
X114104762Y-82287664D02*
X114066666Y-82325760D01*
X114066666Y-82325760D02*
X113952381Y-82363855D01*
X113952381Y-82363855D02*
X113876190Y-82363855D01*
X113876190Y-82363855D02*
X113761904Y-82325760D01*
X113761904Y-82325760D02*
X113685714Y-82249569D01*
X113685714Y-82249569D02*
X113647619Y-82173379D01*
X113647619Y-82173379D02*
X113609523Y-82020998D01*
X113609523Y-82020998D02*
X113609523Y-81906712D01*
X113609523Y-81906712D02*
X113647619Y-81754331D01*
X113647619Y-81754331D02*
X113685714Y-81678140D01*
X113685714Y-81678140D02*
X113761904Y-81601950D01*
X113761904Y-81601950D02*
X113876190Y-81563855D01*
X113876190Y-81563855D02*
X113952381Y-81563855D01*
X113952381Y-81563855D02*
X114066666Y-81601950D01*
X114066666Y-81601950D02*
X114104762Y-81640045D01*
X114828571Y-81563855D02*
X114447619Y-81563855D01*
X114447619Y-81563855D02*
X114409523Y-81944807D01*
X114409523Y-81944807D02*
X114447619Y-81906712D01*
X114447619Y-81906712D02*
X114523809Y-81868617D01*
X114523809Y-81868617D02*
X114714285Y-81868617D01*
X114714285Y-81868617D02*
X114790476Y-81906712D01*
X114790476Y-81906712D02*
X114828571Y-81944807D01*
X114828571Y-81944807D02*
X114866666Y-82020998D01*
X114866666Y-82020998D02*
X114866666Y-82211474D01*
X114866666Y-82211474D02*
X114828571Y-82287664D01*
X114828571Y-82287664D02*
X114790476Y-82325760D01*
X114790476Y-82325760D02*
X114714285Y-82363855D01*
X114714285Y-82363855D02*
X114523809Y-82363855D01*
X114523809Y-82363855D02*
X114447619Y-82325760D01*
X114447619Y-82325760D02*
X114409523Y-82287664D01*
X115361905Y-81563855D02*
X115438095Y-81563855D01*
X115438095Y-81563855D02*
X115514286Y-81601950D01*
X115514286Y-81601950D02*
X115552381Y-81640045D01*
X115552381Y-81640045D02*
X115590476Y-81716236D01*
X115590476Y-81716236D02*
X115628571Y-81868617D01*
X115628571Y-81868617D02*
X115628571Y-82059093D01*
X115628571Y-82059093D02*
X115590476Y-82211474D01*
X115590476Y-82211474D02*
X115552381Y-82287664D01*
X115552381Y-82287664D02*
X115514286Y-82325760D01*
X115514286Y-82325760D02*
X115438095Y-82363855D01*
X115438095Y-82363855D02*
X115361905Y-82363855D01*
X115361905Y-82363855D02*
X115285714Y-82325760D01*
X115285714Y-82325760D02*
X115247619Y-82287664D01*
X115247619Y-82287664D02*
X115209524Y-82211474D01*
X115209524Y-82211474D02*
X115171428Y-82059093D01*
X115171428Y-82059093D02*
X115171428Y-81868617D01*
X115171428Y-81868617D02*
X115209524Y-81716236D01*
X115209524Y-81716236D02*
X115247619Y-81640045D01*
X115247619Y-81640045D02*
X115285714Y-81601950D01*
X115285714Y-81601950D02*
X115361905Y-81563855D01*
X116314286Y-81563855D02*
X116161905Y-81563855D01*
X116161905Y-81563855D02*
X116085714Y-81601950D01*
X116085714Y-81601950D02*
X116047619Y-81640045D01*
X116047619Y-81640045D02*
X115971429Y-81754331D01*
X115971429Y-81754331D02*
X115933333Y-81906712D01*
X115933333Y-81906712D02*
X115933333Y-82211474D01*
X115933333Y-82211474D02*
X115971429Y-82287664D01*
X115971429Y-82287664D02*
X116009524Y-82325760D01*
X116009524Y-82325760D02*
X116085714Y-82363855D01*
X116085714Y-82363855D02*
X116238095Y-82363855D01*
X116238095Y-82363855D02*
X116314286Y-82325760D01*
X116314286Y-82325760D02*
X116352381Y-82287664D01*
X116352381Y-82287664D02*
X116390476Y-82211474D01*
X116390476Y-82211474D02*
X116390476Y-82020998D01*
X116390476Y-82020998D02*
X116352381Y-81944807D01*
X116352381Y-81944807D02*
X116314286Y-81906712D01*
X116314286Y-81906712D02*
X116238095Y-81868617D01*
X116238095Y-81868617D02*
X116085714Y-81868617D01*
X116085714Y-81868617D02*
X116009524Y-81906712D01*
X116009524Y-81906712D02*
X115971429Y-81944807D01*
X115971429Y-81944807D02*
X115933333Y-82020998D01*
D10*
X102607142Y-74854819D02*
X102035714Y-74854819D01*
X102321428Y-74854819D02*
X102321428Y-73854819D01*
X102321428Y-73854819D02*
X102226190Y-73997676D01*
X102226190Y-73997676D02*
X102130952Y-74092914D01*
X102130952Y-74092914D02*
X102035714Y-74140533D01*
X103226190Y-73854819D02*
X103321428Y-73854819D01*
X103321428Y-73854819D02*
X103416666Y-73902438D01*
X103416666Y-73902438D02*
X103464285Y-73950057D01*
X103464285Y-73950057D02*
X103511904Y-74045295D01*
X103511904Y-74045295D02*
X103559523Y-74235771D01*
X103559523Y-74235771D02*
X103559523Y-74473866D01*
X103559523Y-74473866D02*
X103511904Y-74664342D01*
X103511904Y-74664342D02*
X103464285Y-74759580D01*
X103464285Y-74759580D02*
X103416666Y-74807200D01*
X103416666Y-74807200D02*
X103321428Y-74854819D01*
X103321428Y-74854819D02*
X103226190Y-74854819D01*
X103226190Y-74854819D02*
X103130952Y-74807200D01*
X103130952Y-74807200D02*
X103083333Y-74759580D01*
X103083333Y-74759580D02*
X103035714Y-74664342D01*
X103035714Y-74664342D02*
X102988095Y-74473866D01*
X102988095Y-74473866D02*
X102988095Y-74235771D01*
X102988095Y-74235771D02*
X103035714Y-74045295D01*
X103035714Y-74045295D02*
X103083333Y-73950057D01*
X103083333Y-73950057D02*
X103130952Y-73902438D01*
X103130952Y-73902438D02*
X103226190Y-73854819D01*
X104416666Y-74188152D02*
X104416666Y-74854819D01*
X103988095Y-74188152D02*
X103988095Y-74711961D01*
X103988095Y-74711961D02*
X104035714Y-74807200D01*
X104035714Y-74807200D02*
X104130952Y-74854819D01*
X104130952Y-74854819D02*
X104273809Y-74854819D01*
X104273809Y-74854819D02*
X104369047Y-74807200D01*
X104369047Y-74807200D02*
X104416666Y-74759580D01*
X102130952Y-70359580D02*
X102083333Y-70407200D01*
X102083333Y-70407200D02*
X101940476Y-70454819D01*
X101940476Y-70454819D02*
X101845238Y-70454819D01*
X101845238Y-70454819D02*
X101702381Y-70407200D01*
X101702381Y-70407200D02*
X101607143Y-70311961D01*
X101607143Y-70311961D02*
X101559524Y-70216723D01*
X101559524Y-70216723D02*
X101511905Y-70026247D01*
X101511905Y-70026247D02*
X101511905Y-69883390D01*
X101511905Y-69883390D02*
X101559524Y-69692914D01*
X101559524Y-69692914D02*
X101607143Y-69597676D01*
X101607143Y-69597676D02*
X101702381Y-69502438D01*
X101702381Y-69502438D02*
X101845238Y-69454819D01*
X101845238Y-69454819D02*
X101940476Y-69454819D01*
X101940476Y-69454819D02*
X102083333Y-69502438D01*
X102083333Y-69502438D02*
X102130952Y-69550057D01*
X103035714Y-69454819D02*
X102559524Y-69454819D01*
X102559524Y-69454819D02*
X102511905Y-69931009D01*
X102511905Y-69931009D02*
X102559524Y-69883390D01*
X102559524Y-69883390D02*
X102654762Y-69835771D01*
X102654762Y-69835771D02*
X102892857Y-69835771D01*
X102892857Y-69835771D02*
X102988095Y-69883390D01*
X102988095Y-69883390D02*
X103035714Y-69931009D01*
X103035714Y-69931009D02*
X103083333Y-70026247D01*
X103083333Y-70026247D02*
X103083333Y-70264342D01*
X103083333Y-70264342D02*
X103035714Y-70359580D01*
X103035714Y-70359580D02*
X102988095Y-70407200D01*
X102988095Y-70407200D02*
X102892857Y-70454819D01*
X102892857Y-70454819D02*
X102654762Y-70454819D01*
X102654762Y-70454819D02*
X102559524Y-70407200D01*
X102559524Y-70407200D02*
X102511905Y-70359580D01*
X104035714Y-70454819D02*
X103464286Y-70454819D01*
X103750000Y-70454819D02*
X103750000Y-69454819D01*
X103750000Y-69454819D02*
X103654762Y-69597676D01*
X103654762Y-69597676D02*
X103559524Y-69692914D01*
X103559524Y-69692914D02*
X103464286Y-69740533D01*
X104654762Y-69454819D02*
X104750000Y-69454819D01*
X104750000Y-69454819D02*
X104845238Y-69502438D01*
X104845238Y-69502438D02*
X104892857Y-69550057D01*
X104892857Y-69550057D02*
X104940476Y-69645295D01*
X104940476Y-69645295D02*
X104988095Y-69835771D01*
X104988095Y-69835771D02*
X104988095Y-70073866D01*
X104988095Y-70073866D02*
X104940476Y-70264342D01*
X104940476Y-70264342D02*
X104892857Y-70359580D01*
X104892857Y-70359580D02*
X104845238Y-70407200D01*
X104845238Y-70407200D02*
X104750000Y-70454819D01*
X104750000Y-70454819D02*
X104654762Y-70454819D01*
X104654762Y-70454819D02*
X104559524Y-70407200D01*
X104559524Y-70407200D02*
X104511905Y-70359580D01*
X104511905Y-70359580D02*
X104464286Y-70264342D01*
X104464286Y-70264342D02*
X104416667Y-70073866D01*
X104416667Y-70073866D02*
X104416667Y-69835771D01*
X104416667Y-69835771D02*
X104464286Y-69645295D01*
X104464286Y-69645295D02*
X104511905Y-69550057D01*
X104511905Y-69550057D02*
X104559524Y-69502438D01*
X104559524Y-69502438D02*
X104654762Y-69454819D01*
X112269524Y-106454819D02*
X112269524Y-105454819D01*
X112269524Y-105454819D02*
X112650476Y-105454819D01*
X112650476Y-105454819D02*
X112745714Y-105502438D01*
X112745714Y-105502438D02*
X112793333Y-105550057D01*
X112793333Y-105550057D02*
X112840952Y-105645295D01*
X112840952Y-105645295D02*
X112840952Y-105788152D01*
X112840952Y-105788152D02*
X112793333Y-105883390D01*
X112793333Y-105883390D02*
X112745714Y-105931009D01*
X112745714Y-105931009D02*
X112650476Y-105978628D01*
X112650476Y-105978628D02*
X112269524Y-105978628D01*
X113745714Y-105454819D02*
X113269524Y-105454819D01*
X113269524Y-105454819D02*
X113221905Y-105931009D01*
X113221905Y-105931009D02*
X113269524Y-105883390D01*
X113269524Y-105883390D02*
X113364762Y-105835771D01*
X113364762Y-105835771D02*
X113602857Y-105835771D01*
X113602857Y-105835771D02*
X113698095Y-105883390D01*
X113698095Y-105883390D02*
X113745714Y-105931009D01*
X113745714Y-105931009D02*
X113793333Y-106026247D01*
X113793333Y-106026247D02*
X113793333Y-106264342D01*
X113793333Y-106264342D02*
X113745714Y-106359580D01*
X113745714Y-106359580D02*
X113698095Y-106407200D01*
X113698095Y-106407200D02*
X113602857Y-106454819D01*
X113602857Y-106454819D02*
X113364762Y-106454819D01*
X113364762Y-106454819D02*
X113269524Y-106407200D01*
X113269524Y-106407200D02*
X113221905Y-106359580D01*
X114412381Y-105454819D02*
X114507619Y-105454819D01*
X114507619Y-105454819D02*
X114602857Y-105502438D01*
X114602857Y-105502438D02*
X114650476Y-105550057D01*
X114650476Y-105550057D02*
X114698095Y-105645295D01*
X114698095Y-105645295D02*
X114745714Y-105835771D01*
X114745714Y-105835771D02*
X114745714Y-106073866D01*
X114745714Y-106073866D02*
X114698095Y-106264342D01*
X114698095Y-106264342D02*
X114650476Y-106359580D01*
X114650476Y-106359580D02*
X114602857Y-106407200D01*
X114602857Y-106407200D02*
X114507619Y-106454819D01*
X114507619Y-106454819D02*
X114412381Y-106454819D01*
X114412381Y-106454819D02*
X114317143Y-106407200D01*
X114317143Y-106407200D02*
X114269524Y-106359580D01*
X114269524Y-106359580D02*
X114221905Y-106264342D01*
X114221905Y-106264342D02*
X114174286Y-106073866D01*
X114174286Y-106073866D02*
X114174286Y-105835771D01*
X114174286Y-105835771D02*
X114221905Y-105645295D01*
X114221905Y-105645295D02*
X114269524Y-105550057D01*
X114269524Y-105550057D02*
X114317143Y-105502438D01*
X114317143Y-105502438D02*
X114412381Y-105454819D01*
X115602857Y-105788152D02*
X115602857Y-106454819D01*
X115364762Y-105407200D02*
X115126667Y-106121485D01*
X115126667Y-106121485D02*
X115745714Y-106121485D01*
X112269524Y-104554819D02*
X112269524Y-103554819D01*
X112269524Y-103554819D02*
X112650476Y-103554819D01*
X112650476Y-103554819D02*
X112745714Y-103602438D01*
X112745714Y-103602438D02*
X112793333Y-103650057D01*
X112793333Y-103650057D02*
X112840952Y-103745295D01*
X112840952Y-103745295D02*
X112840952Y-103888152D01*
X112840952Y-103888152D02*
X112793333Y-103983390D01*
X112793333Y-103983390D02*
X112745714Y-104031009D01*
X112745714Y-104031009D02*
X112650476Y-104078628D01*
X112650476Y-104078628D02*
X112269524Y-104078628D01*
X113745714Y-103554819D02*
X113269524Y-103554819D01*
X113269524Y-103554819D02*
X113221905Y-104031009D01*
X113221905Y-104031009D02*
X113269524Y-103983390D01*
X113269524Y-103983390D02*
X113364762Y-103935771D01*
X113364762Y-103935771D02*
X113602857Y-103935771D01*
X113602857Y-103935771D02*
X113698095Y-103983390D01*
X113698095Y-103983390D02*
X113745714Y-104031009D01*
X113745714Y-104031009D02*
X113793333Y-104126247D01*
X113793333Y-104126247D02*
X113793333Y-104364342D01*
X113793333Y-104364342D02*
X113745714Y-104459580D01*
X113745714Y-104459580D02*
X113698095Y-104507200D01*
X113698095Y-104507200D02*
X113602857Y-104554819D01*
X113602857Y-104554819D02*
X113364762Y-104554819D01*
X113364762Y-104554819D02*
X113269524Y-104507200D01*
X113269524Y-104507200D02*
X113221905Y-104459580D01*
X114412381Y-103554819D02*
X114507619Y-103554819D01*
X114507619Y-103554819D02*
X114602857Y-103602438D01*
X114602857Y-103602438D02*
X114650476Y-103650057D01*
X114650476Y-103650057D02*
X114698095Y-103745295D01*
X114698095Y-103745295D02*
X114745714Y-103935771D01*
X114745714Y-103935771D02*
X114745714Y-104173866D01*
X114745714Y-104173866D02*
X114698095Y-104364342D01*
X114698095Y-104364342D02*
X114650476Y-104459580D01*
X114650476Y-104459580D02*
X114602857Y-104507200D01*
X114602857Y-104507200D02*
X114507619Y-104554819D01*
X114507619Y-104554819D02*
X114412381Y-104554819D01*
X114412381Y-104554819D02*
X114317143Y-104507200D01*
X114317143Y-104507200D02*
X114269524Y-104459580D01*
X114269524Y-104459580D02*
X114221905Y-104364342D01*
X114221905Y-104364342D02*
X114174286Y-104173866D01*
X114174286Y-104173866D02*
X114174286Y-103935771D01*
X114174286Y-103935771D02*
X114221905Y-103745295D01*
X114221905Y-103745295D02*
X114269524Y-103650057D01*
X114269524Y-103650057D02*
X114317143Y-103602438D01*
X114317143Y-103602438D02*
X114412381Y-103554819D01*
X115602857Y-103888152D02*
X115602857Y-104554819D01*
X115364762Y-103507200D02*
X115126667Y-104221485D01*
X115126667Y-104221485D02*
X115745714Y-104221485D01*
X143190476Y-108604819D02*
X143190476Y-107604819D01*
X143190476Y-107604819D02*
X143523809Y-108319104D01*
X143523809Y-108319104D02*
X143857142Y-107604819D01*
X143857142Y-107604819D02*
X143857142Y-108604819D01*
X144238095Y-107604819D02*
X144857142Y-107604819D01*
X144857142Y-107604819D02*
X144523809Y-107985771D01*
X144523809Y-107985771D02*
X144666666Y-107985771D01*
X144666666Y-107985771D02*
X144761904Y-108033390D01*
X144761904Y-108033390D02*
X144809523Y-108081009D01*
X144809523Y-108081009D02*
X144857142Y-108176247D01*
X144857142Y-108176247D02*
X144857142Y-108414342D01*
X144857142Y-108414342D02*
X144809523Y-108509580D01*
X144809523Y-108509580D02*
X144761904Y-108557200D01*
X144761904Y-108557200D02*
X144666666Y-108604819D01*
X144666666Y-108604819D02*
X144380952Y-108604819D01*
X144380952Y-108604819D02*
X144285714Y-108557200D01*
X144285714Y-108557200D02*
X144238095Y-108509580D01*
X143238095Y-104454819D02*
X143238095Y-103454819D01*
X143238095Y-103931009D02*
X143809523Y-103931009D01*
X143809523Y-104454819D02*
X143809523Y-103454819D01*
X144714285Y-103788152D02*
X144714285Y-104454819D01*
X144476190Y-103407200D02*
X144238095Y-104121485D01*
X144238095Y-104121485D02*
X144857142Y-104121485D01*
X82238095Y-83361009D02*
X82380952Y-83408628D01*
X82380952Y-83408628D02*
X82428571Y-83456247D01*
X82428571Y-83456247D02*
X82476190Y-83551485D01*
X82476190Y-83551485D02*
X82476190Y-83694342D01*
X82476190Y-83694342D02*
X82428571Y-83789580D01*
X82428571Y-83789580D02*
X82380952Y-83837200D01*
X82380952Y-83837200D02*
X82285714Y-83884819D01*
X82285714Y-83884819D02*
X81904762Y-83884819D01*
X81904762Y-83884819D02*
X81904762Y-82884819D01*
X81904762Y-82884819D02*
X82238095Y-82884819D01*
X82238095Y-82884819D02*
X82333333Y-82932438D01*
X82333333Y-82932438D02*
X82380952Y-82980057D01*
X82380952Y-82980057D02*
X82428571Y-83075295D01*
X82428571Y-83075295D02*
X82428571Y-83170533D01*
X82428571Y-83170533D02*
X82380952Y-83265771D01*
X82380952Y-83265771D02*
X82333333Y-83313390D01*
X82333333Y-83313390D02*
X82238095Y-83361009D01*
X82238095Y-83361009D02*
X81904762Y-83361009D01*
X83380952Y-83884819D02*
X82904762Y-83884819D01*
X82904762Y-83884819D02*
X82904762Y-82884819D01*
X83714286Y-83884819D02*
X83714286Y-82884819D01*
X83714286Y-82884819D02*
X84047619Y-83599104D01*
X84047619Y-83599104D02*
X84380952Y-82884819D01*
X84380952Y-82884819D02*
X84380952Y-83884819D01*
X85380952Y-83884819D02*
X84809524Y-83884819D01*
X85095238Y-83884819D02*
X85095238Y-82884819D01*
X85095238Y-82884819D02*
X85000000Y-83027676D01*
X85000000Y-83027676D02*
X84904762Y-83122914D01*
X84904762Y-83122914D02*
X84809524Y-83170533D01*
X85952381Y-83313390D02*
X85857143Y-83265771D01*
X85857143Y-83265771D02*
X85809524Y-83218152D01*
X85809524Y-83218152D02*
X85761905Y-83122914D01*
X85761905Y-83122914D02*
X85761905Y-83075295D01*
X85761905Y-83075295D02*
X85809524Y-82980057D01*
X85809524Y-82980057D02*
X85857143Y-82932438D01*
X85857143Y-82932438D02*
X85952381Y-82884819D01*
X85952381Y-82884819D02*
X86142857Y-82884819D01*
X86142857Y-82884819D02*
X86238095Y-82932438D01*
X86238095Y-82932438D02*
X86285714Y-82980057D01*
X86285714Y-82980057D02*
X86333333Y-83075295D01*
X86333333Y-83075295D02*
X86333333Y-83122914D01*
X86333333Y-83122914D02*
X86285714Y-83218152D01*
X86285714Y-83218152D02*
X86238095Y-83265771D01*
X86238095Y-83265771D02*
X86142857Y-83313390D01*
X86142857Y-83313390D02*
X85952381Y-83313390D01*
X85952381Y-83313390D02*
X85857143Y-83361009D01*
X85857143Y-83361009D02*
X85809524Y-83408628D01*
X85809524Y-83408628D02*
X85761905Y-83503866D01*
X85761905Y-83503866D02*
X85761905Y-83694342D01*
X85761905Y-83694342D02*
X85809524Y-83789580D01*
X85809524Y-83789580D02*
X85857143Y-83837200D01*
X85857143Y-83837200D02*
X85952381Y-83884819D01*
X85952381Y-83884819D02*
X86142857Y-83884819D01*
X86142857Y-83884819D02*
X86238095Y-83837200D01*
X86238095Y-83837200D02*
X86285714Y-83789580D01*
X86285714Y-83789580D02*
X86333333Y-83694342D01*
X86333333Y-83694342D02*
X86333333Y-83503866D01*
X86333333Y-83503866D02*
X86285714Y-83408628D01*
X86285714Y-83408628D02*
X86238095Y-83361009D01*
X86238095Y-83361009D02*
X86142857Y-83313390D01*
X86761905Y-83884819D02*
X86761905Y-82884819D01*
X86761905Y-82884819D02*
X87142857Y-82884819D01*
X87142857Y-82884819D02*
X87238095Y-82932438D01*
X87238095Y-82932438D02*
X87285714Y-82980057D01*
X87285714Y-82980057D02*
X87333333Y-83075295D01*
X87333333Y-83075295D02*
X87333333Y-83218152D01*
X87333333Y-83218152D02*
X87285714Y-83313390D01*
X87285714Y-83313390D02*
X87238095Y-83361009D01*
X87238095Y-83361009D02*
X87142857Y-83408628D01*
X87142857Y-83408628D02*
X86761905Y-83408628D01*
X88285714Y-82932438D02*
X88190476Y-82884819D01*
X88190476Y-82884819D02*
X88047619Y-82884819D01*
X88047619Y-82884819D02*
X87904762Y-82932438D01*
X87904762Y-82932438D02*
X87809524Y-83027676D01*
X87809524Y-83027676D02*
X87761905Y-83122914D01*
X87761905Y-83122914D02*
X87714286Y-83313390D01*
X87714286Y-83313390D02*
X87714286Y-83456247D01*
X87714286Y-83456247D02*
X87761905Y-83646723D01*
X87761905Y-83646723D02*
X87809524Y-83741961D01*
X87809524Y-83741961D02*
X87904762Y-83837200D01*
X87904762Y-83837200D02*
X88047619Y-83884819D01*
X88047619Y-83884819D02*
X88142857Y-83884819D01*
X88142857Y-83884819D02*
X88285714Y-83837200D01*
X88285714Y-83837200D02*
X88333333Y-83789580D01*
X88333333Y-83789580D02*
X88333333Y-83456247D01*
X88333333Y-83456247D02*
X88142857Y-83456247D01*
X89190476Y-83218152D02*
X89190476Y-83884819D01*
X88952381Y-82837200D02*
X88714286Y-83551485D01*
X88714286Y-83551485D02*
X89333333Y-83551485D01*
X89619048Y-82884819D02*
X90285714Y-82884819D01*
X90285714Y-82884819D02*
X89857143Y-83884819D01*
X91190476Y-83884819D02*
X90619048Y-83884819D01*
X90904762Y-83884819D02*
X90904762Y-82884819D01*
X90904762Y-82884819D02*
X90809524Y-83027676D01*
X90809524Y-83027676D02*
X90714286Y-83122914D01*
X90714286Y-83122914D02*
X90619048Y-83170533D01*
X91571429Y-83837200D02*
X91714286Y-83884819D01*
X91714286Y-83884819D02*
X91952381Y-83884819D01*
X91952381Y-83884819D02*
X92047619Y-83837200D01*
X92047619Y-83837200D02*
X92095238Y-83789580D01*
X92095238Y-83789580D02*
X92142857Y-83694342D01*
X92142857Y-83694342D02*
X92142857Y-83599104D01*
X92142857Y-83599104D02*
X92095238Y-83503866D01*
X92095238Y-83503866D02*
X92047619Y-83456247D01*
X92047619Y-83456247D02*
X91952381Y-83408628D01*
X91952381Y-83408628D02*
X91761905Y-83361009D01*
X91761905Y-83361009D02*
X91666667Y-83313390D01*
X91666667Y-83313390D02*
X91619048Y-83265771D01*
X91619048Y-83265771D02*
X91571429Y-83170533D01*
X91571429Y-83170533D02*
X91571429Y-83075295D01*
X91571429Y-83075295D02*
X91619048Y-82980057D01*
X91619048Y-82980057D02*
X91666667Y-82932438D01*
X91666667Y-82932438D02*
X91761905Y-82884819D01*
X91761905Y-82884819D02*
X92000000Y-82884819D01*
X92000000Y-82884819D02*
X92142857Y-82932438D01*
X92571429Y-83884819D02*
X92571429Y-82884819D01*
X92571429Y-82884819D02*
X93142857Y-83884819D01*
X93142857Y-83884819D02*
X93142857Y-82884819D01*
X94142857Y-83884819D02*
X93571429Y-83884819D01*
X93857143Y-83884819D02*
X93857143Y-82884819D01*
X93857143Y-82884819D02*
X93761905Y-83027676D01*
X93761905Y-83027676D02*
X93666667Y-83122914D01*
X93666667Y-83122914D02*
X93571429Y-83170533D01*
D12*
X87285715Y-81972403D02*
X87152382Y-81972403D01*
X87152382Y-82181927D02*
X87152382Y-81781927D01*
X87152382Y-81781927D02*
X87342858Y-81781927D01*
X87628572Y-81972403D02*
X87685715Y-81991451D01*
X87685715Y-81991451D02*
X87704762Y-82010499D01*
X87704762Y-82010499D02*
X87723810Y-82048594D01*
X87723810Y-82048594D02*
X87723810Y-82105737D01*
X87723810Y-82105737D02*
X87704762Y-82143832D01*
X87704762Y-82143832D02*
X87685715Y-82162880D01*
X87685715Y-82162880D02*
X87647620Y-82181927D01*
X87647620Y-82181927D02*
X87495239Y-82181927D01*
X87495239Y-82181927D02*
X87495239Y-81781927D01*
X87495239Y-81781927D02*
X87628572Y-81781927D01*
X87628572Y-81781927D02*
X87666667Y-81800975D01*
X87666667Y-81800975D02*
X87685715Y-81820022D01*
X87685715Y-81820022D02*
X87704762Y-81858118D01*
X87704762Y-81858118D02*
X87704762Y-81896213D01*
X87704762Y-81896213D02*
X87685715Y-81934308D01*
X87685715Y-81934308D02*
X87666667Y-81953356D01*
X87666667Y-81953356D02*
X87628572Y-81972403D01*
X87628572Y-81972403D02*
X87495239Y-81972403D01*
X88085715Y-81781927D02*
X87895239Y-81781927D01*
X87895239Y-81781927D02*
X87876191Y-81972403D01*
X87876191Y-81972403D02*
X87895239Y-81953356D01*
X87895239Y-81953356D02*
X87933334Y-81934308D01*
X87933334Y-81934308D02*
X88028572Y-81934308D01*
X88028572Y-81934308D02*
X88066667Y-81953356D01*
X88066667Y-81953356D02*
X88085715Y-81972403D01*
X88085715Y-81972403D02*
X88104762Y-82010499D01*
X88104762Y-82010499D02*
X88104762Y-82105737D01*
X88104762Y-82105737D02*
X88085715Y-82143832D01*
X88085715Y-82143832D02*
X88066667Y-82162880D01*
X88066667Y-82162880D02*
X88028572Y-82181927D01*
X88028572Y-82181927D02*
X87933334Y-82181927D01*
X87933334Y-82181927D02*
X87895239Y-82162880D01*
X87895239Y-82162880D02*
X87876191Y-82143832D01*
X88352381Y-81781927D02*
X88390476Y-81781927D01*
X88390476Y-81781927D02*
X88428572Y-81800975D01*
X88428572Y-81800975D02*
X88447619Y-81820022D01*
X88447619Y-81820022D02*
X88466667Y-81858118D01*
X88466667Y-81858118D02*
X88485714Y-81934308D01*
X88485714Y-81934308D02*
X88485714Y-82029546D01*
X88485714Y-82029546D02*
X88466667Y-82105737D01*
X88466667Y-82105737D02*
X88447619Y-82143832D01*
X88447619Y-82143832D02*
X88428572Y-82162880D01*
X88428572Y-82162880D02*
X88390476Y-82181927D01*
X88390476Y-82181927D02*
X88352381Y-82181927D01*
X88352381Y-82181927D02*
X88314286Y-82162880D01*
X88314286Y-82162880D02*
X88295238Y-82143832D01*
X88295238Y-82143832D02*
X88276191Y-82105737D01*
X88276191Y-82105737D02*
X88257143Y-82029546D01*
X88257143Y-82029546D02*
X88257143Y-81934308D01*
X88257143Y-81934308D02*
X88276191Y-81858118D01*
X88276191Y-81858118D02*
X88295238Y-81820022D01*
X88295238Y-81820022D02*
X88314286Y-81800975D01*
X88314286Y-81800975D02*
X88352381Y-81781927D01*
X88866666Y-82181927D02*
X88638095Y-82181927D01*
X88752381Y-82181927D02*
X88752381Y-81781927D01*
X88752381Y-81781927D02*
X88714285Y-81839070D01*
X88714285Y-81839070D02*
X88676190Y-81877165D01*
X88676190Y-81877165D02*
X88638095Y-81896213D01*
D10*
X75880952Y-84304819D02*
X75309524Y-84304819D01*
X75595238Y-84304819D02*
X75595238Y-83304819D01*
X75595238Y-83304819D02*
X75500000Y-83447676D01*
X75500000Y-83447676D02*
X75404762Y-83542914D01*
X75404762Y-83542914D02*
X75309524Y-83590533D01*
X76500000Y-83304819D02*
X76595238Y-83304819D01*
X76595238Y-83304819D02*
X76690476Y-83352438D01*
X76690476Y-83352438D02*
X76738095Y-83400057D01*
X76738095Y-83400057D02*
X76785714Y-83495295D01*
X76785714Y-83495295D02*
X76833333Y-83685771D01*
X76833333Y-83685771D02*
X76833333Y-83923866D01*
X76833333Y-83923866D02*
X76785714Y-84114342D01*
X76785714Y-84114342D02*
X76738095Y-84209580D01*
X76738095Y-84209580D02*
X76690476Y-84257200D01*
X76690476Y-84257200D02*
X76595238Y-84304819D01*
X76595238Y-84304819D02*
X76500000Y-84304819D01*
X76500000Y-84304819D02*
X76404762Y-84257200D01*
X76404762Y-84257200D02*
X76357143Y-84209580D01*
X76357143Y-84209580D02*
X76309524Y-84114342D01*
X76309524Y-84114342D02*
X76261905Y-83923866D01*
X76261905Y-83923866D02*
X76261905Y-83685771D01*
X76261905Y-83685771D02*
X76309524Y-83495295D01*
X76309524Y-83495295D02*
X76357143Y-83400057D01*
X76357143Y-83400057D02*
X76404762Y-83352438D01*
X76404762Y-83352438D02*
X76500000Y-83304819D01*
X77452381Y-83304819D02*
X77547619Y-83304819D01*
X77547619Y-83304819D02*
X77642857Y-83352438D01*
X77642857Y-83352438D02*
X77690476Y-83400057D01*
X77690476Y-83400057D02*
X77738095Y-83495295D01*
X77738095Y-83495295D02*
X77785714Y-83685771D01*
X77785714Y-83685771D02*
X77785714Y-83923866D01*
X77785714Y-83923866D02*
X77738095Y-84114342D01*
X77738095Y-84114342D02*
X77690476Y-84209580D01*
X77690476Y-84209580D02*
X77642857Y-84257200D01*
X77642857Y-84257200D02*
X77547619Y-84304819D01*
X77547619Y-84304819D02*
X77452381Y-84304819D01*
X77452381Y-84304819D02*
X77357143Y-84257200D01*
X77357143Y-84257200D02*
X77309524Y-84209580D01*
X77309524Y-84209580D02*
X77261905Y-84114342D01*
X77261905Y-84114342D02*
X77214286Y-83923866D01*
X77214286Y-83923866D02*
X77214286Y-83685771D01*
X77214286Y-83685771D02*
X77261905Y-83495295D01*
X77261905Y-83495295D02*
X77309524Y-83400057D01*
X77309524Y-83400057D02*
X77357143Y-83352438D01*
X77357143Y-83352438D02*
X77452381Y-83304819D01*
X78214286Y-83638152D02*
X78214286Y-84304819D01*
X78214286Y-83733390D02*
X78261905Y-83685771D01*
X78261905Y-83685771D02*
X78357143Y-83638152D01*
X78357143Y-83638152D02*
X78500000Y-83638152D01*
X78500000Y-83638152D02*
X78595238Y-83685771D01*
X78595238Y-83685771D02*
X78642857Y-83781009D01*
X78642857Y-83781009D02*
X78642857Y-84304819D01*
D11*
X76104762Y-82287664D02*
X76066666Y-82325760D01*
X76066666Y-82325760D02*
X75952381Y-82363855D01*
X75952381Y-82363855D02*
X75876190Y-82363855D01*
X75876190Y-82363855D02*
X75761904Y-82325760D01*
X75761904Y-82325760D02*
X75685714Y-82249569D01*
X75685714Y-82249569D02*
X75647619Y-82173379D01*
X75647619Y-82173379D02*
X75609523Y-82020998D01*
X75609523Y-82020998D02*
X75609523Y-81906712D01*
X75609523Y-81906712D02*
X75647619Y-81754331D01*
X75647619Y-81754331D02*
X75685714Y-81678140D01*
X75685714Y-81678140D02*
X75761904Y-81601950D01*
X75761904Y-81601950D02*
X75876190Y-81563855D01*
X75876190Y-81563855D02*
X75952381Y-81563855D01*
X75952381Y-81563855D02*
X76066666Y-81601950D01*
X76066666Y-81601950D02*
X76104762Y-81640045D01*
X76828571Y-81563855D02*
X76447619Y-81563855D01*
X76447619Y-81563855D02*
X76409523Y-81944807D01*
X76409523Y-81944807D02*
X76447619Y-81906712D01*
X76447619Y-81906712D02*
X76523809Y-81868617D01*
X76523809Y-81868617D02*
X76714285Y-81868617D01*
X76714285Y-81868617D02*
X76790476Y-81906712D01*
X76790476Y-81906712D02*
X76828571Y-81944807D01*
X76828571Y-81944807D02*
X76866666Y-82020998D01*
X76866666Y-82020998D02*
X76866666Y-82211474D01*
X76866666Y-82211474D02*
X76828571Y-82287664D01*
X76828571Y-82287664D02*
X76790476Y-82325760D01*
X76790476Y-82325760D02*
X76714285Y-82363855D01*
X76714285Y-82363855D02*
X76523809Y-82363855D01*
X76523809Y-82363855D02*
X76447619Y-82325760D01*
X76447619Y-82325760D02*
X76409523Y-82287664D01*
X77361905Y-81563855D02*
X77438095Y-81563855D01*
X77438095Y-81563855D02*
X77514286Y-81601950D01*
X77514286Y-81601950D02*
X77552381Y-81640045D01*
X77552381Y-81640045D02*
X77590476Y-81716236D01*
X77590476Y-81716236D02*
X77628571Y-81868617D01*
X77628571Y-81868617D02*
X77628571Y-82059093D01*
X77628571Y-82059093D02*
X77590476Y-82211474D01*
X77590476Y-82211474D02*
X77552381Y-82287664D01*
X77552381Y-82287664D02*
X77514286Y-82325760D01*
X77514286Y-82325760D02*
X77438095Y-82363855D01*
X77438095Y-82363855D02*
X77361905Y-82363855D01*
X77361905Y-82363855D02*
X77285714Y-82325760D01*
X77285714Y-82325760D02*
X77247619Y-82287664D01*
X77247619Y-82287664D02*
X77209524Y-82211474D01*
X77209524Y-82211474D02*
X77171428Y-82059093D01*
X77171428Y-82059093D02*
X77171428Y-81868617D01*
X77171428Y-81868617D02*
X77209524Y-81716236D01*
X77209524Y-81716236D02*
X77247619Y-81640045D01*
X77247619Y-81640045D02*
X77285714Y-81601950D01*
X77285714Y-81601950D02*
X77361905Y-81563855D01*
X77895238Y-81563855D02*
X78390476Y-81563855D01*
X78390476Y-81563855D02*
X78123810Y-81868617D01*
X78123810Y-81868617D02*
X78238095Y-81868617D01*
X78238095Y-81868617D02*
X78314286Y-81906712D01*
X78314286Y-81906712D02*
X78352381Y-81944807D01*
X78352381Y-81944807D02*
X78390476Y-82020998D01*
X78390476Y-82020998D02*
X78390476Y-82211474D01*
X78390476Y-82211474D02*
X78352381Y-82287664D01*
X78352381Y-82287664D02*
X78314286Y-82325760D01*
X78314286Y-82325760D02*
X78238095Y-82363855D01*
X78238095Y-82363855D02*
X78009524Y-82363855D01*
X78009524Y-82363855D02*
X77933333Y-82325760D01*
X77933333Y-82325760D02*
X77895238Y-82287664D01*
D10*
X66880952Y-68134819D02*
X66309524Y-68134819D01*
X66595238Y-68134819D02*
X66595238Y-67134819D01*
X66595238Y-67134819D02*
X66500000Y-67277676D01*
X66500000Y-67277676D02*
X66404762Y-67372914D01*
X66404762Y-67372914D02*
X66309524Y-67420533D01*
X67500000Y-67134819D02*
X67595238Y-67134819D01*
X67595238Y-67134819D02*
X67690476Y-67182438D01*
X67690476Y-67182438D02*
X67738095Y-67230057D01*
X67738095Y-67230057D02*
X67785714Y-67325295D01*
X67785714Y-67325295D02*
X67833333Y-67515771D01*
X67833333Y-67515771D02*
X67833333Y-67753866D01*
X67833333Y-67753866D02*
X67785714Y-67944342D01*
X67785714Y-67944342D02*
X67738095Y-68039580D01*
X67738095Y-68039580D02*
X67690476Y-68087200D01*
X67690476Y-68087200D02*
X67595238Y-68134819D01*
X67595238Y-68134819D02*
X67500000Y-68134819D01*
X67500000Y-68134819D02*
X67404762Y-68087200D01*
X67404762Y-68087200D02*
X67357143Y-68039580D01*
X67357143Y-68039580D02*
X67309524Y-67944342D01*
X67309524Y-67944342D02*
X67261905Y-67753866D01*
X67261905Y-67753866D02*
X67261905Y-67515771D01*
X67261905Y-67515771D02*
X67309524Y-67325295D01*
X67309524Y-67325295D02*
X67357143Y-67230057D01*
X67357143Y-67230057D02*
X67404762Y-67182438D01*
X67404762Y-67182438D02*
X67500000Y-67134819D01*
X68452381Y-67134819D02*
X68547619Y-67134819D01*
X68547619Y-67134819D02*
X68642857Y-67182438D01*
X68642857Y-67182438D02*
X68690476Y-67230057D01*
X68690476Y-67230057D02*
X68738095Y-67325295D01*
X68738095Y-67325295D02*
X68785714Y-67515771D01*
X68785714Y-67515771D02*
X68785714Y-67753866D01*
X68785714Y-67753866D02*
X68738095Y-67944342D01*
X68738095Y-67944342D02*
X68690476Y-68039580D01*
X68690476Y-68039580D02*
X68642857Y-68087200D01*
X68642857Y-68087200D02*
X68547619Y-68134819D01*
X68547619Y-68134819D02*
X68452381Y-68134819D01*
X68452381Y-68134819D02*
X68357143Y-68087200D01*
X68357143Y-68087200D02*
X68309524Y-68039580D01*
X68309524Y-68039580D02*
X68261905Y-67944342D01*
X68261905Y-67944342D02*
X68214286Y-67753866D01*
X68214286Y-67753866D02*
X68214286Y-67515771D01*
X68214286Y-67515771D02*
X68261905Y-67325295D01*
X68261905Y-67325295D02*
X68309524Y-67230057D01*
X68309524Y-67230057D02*
X68357143Y-67182438D01*
X68357143Y-67182438D02*
X68452381Y-67134819D01*
X69214286Y-67468152D02*
X69214286Y-68134819D01*
X69214286Y-67563390D02*
X69261905Y-67515771D01*
X69261905Y-67515771D02*
X69357143Y-67468152D01*
X69357143Y-67468152D02*
X69500000Y-67468152D01*
X69500000Y-67468152D02*
X69595238Y-67515771D01*
X69595238Y-67515771D02*
X69642857Y-67611009D01*
X69642857Y-67611009D02*
X69642857Y-68134819D01*
D13*
X67440476Y-66179530D02*
X67416667Y-66203340D01*
X67416667Y-66203340D02*
X67345238Y-66227149D01*
X67345238Y-66227149D02*
X67297619Y-66227149D01*
X67297619Y-66227149D02*
X67226191Y-66203340D01*
X67226191Y-66203340D02*
X67178572Y-66155720D01*
X67178572Y-66155720D02*
X67154762Y-66108101D01*
X67154762Y-66108101D02*
X67130953Y-66012863D01*
X67130953Y-66012863D02*
X67130953Y-65941435D01*
X67130953Y-65941435D02*
X67154762Y-65846197D01*
X67154762Y-65846197D02*
X67178572Y-65798578D01*
X67178572Y-65798578D02*
X67226191Y-65750959D01*
X67226191Y-65750959D02*
X67297619Y-65727149D01*
X67297619Y-65727149D02*
X67345238Y-65727149D01*
X67345238Y-65727149D02*
X67416667Y-65750959D01*
X67416667Y-65750959D02*
X67440476Y-65774768D01*
X67892857Y-65727149D02*
X67654762Y-65727149D01*
X67654762Y-65727149D02*
X67630953Y-65965244D01*
X67630953Y-65965244D02*
X67654762Y-65941435D01*
X67654762Y-65941435D02*
X67702381Y-65917625D01*
X67702381Y-65917625D02*
X67821429Y-65917625D01*
X67821429Y-65917625D02*
X67869048Y-65941435D01*
X67869048Y-65941435D02*
X67892857Y-65965244D01*
X67892857Y-65965244D02*
X67916667Y-66012863D01*
X67916667Y-66012863D02*
X67916667Y-66131911D01*
X67916667Y-66131911D02*
X67892857Y-66179530D01*
X67892857Y-66179530D02*
X67869048Y-66203340D01*
X67869048Y-66203340D02*
X67821429Y-66227149D01*
X67821429Y-66227149D02*
X67702381Y-66227149D01*
X67702381Y-66227149D02*
X67654762Y-66203340D01*
X67654762Y-66203340D02*
X67630953Y-66179530D01*
X68226190Y-65727149D02*
X68273809Y-65727149D01*
X68273809Y-65727149D02*
X68321428Y-65750959D01*
X68321428Y-65750959D02*
X68345238Y-65774768D01*
X68345238Y-65774768D02*
X68369047Y-65822387D01*
X68369047Y-65822387D02*
X68392857Y-65917625D01*
X68392857Y-65917625D02*
X68392857Y-66036673D01*
X68392857Y-66036673D02*
X68369047Y-66131911D01*
X68369047Y-66131911D02*
X68345238Y-66179530D01*
X68345238Y-66179530D02*
X68321428Y-66203340D01*
X68321428Y-66203340D02*
X68273809Y-66227149D01*
X68273809Y-66227149D02*
X68226190Y-66227149D01*
X68226190Y-66227149D02*
X68178571Y-66203340D01*
X68178571Y-66203340D02*
X68154762Y-66179530D01*
X68154762Y-66179530D02*
X68130952Y-66131911D01*
X68130952Y-66131911D02*
X68107143Y-66036673D01*
X68107143Y-66036673D02*
X68107143Y-65917625D01*
X68107143Y-65917625D02*
X68130952Y-65822387D01*
X68130952Y-65822387D02*
X68154762Y-65774768D01*
X68154762Y-65774768D02*
X68178571Y-65750959D01*
X68178571Y-65750959D02*
X68226190Y-65727149D01*
X68678571Y-65941435D02*
X68630952Y-65917625D01*
X68630952Y-65917625D02*
X68607142Y-65893816D01*
X68607142Y-65893816D02*
X68583333Y-65846197D01*
X68583333Y-65846197D02*
X68583333Y-65822387D01*
X68583333Y-65822387D02*
X68607142Y-65774768D01*
X68607142Y-65774768D02*
X68630952Y-65750959D01*
X68630952Y-65750959D02*
X68678571Y-65727149D01*
X68678571Y-65727149D02*
X68773809Y-65727149D01*
X68773809Y-65727149D02*
X68821428Y-65750959D01*
X68821428Y-65750959D02*
X68845237Y-65774768D01*
X68845237Y-65774768D02*
X68869047Y-65822387D01*
X68869047Y-65822387D02*
X68869047Y-65846197D01*
X68869047Y-65846197D02*
X68845237Y-65893816D01*
X68845237Y-65893816D02*
X68821428Y-65917625D01*
X68821428Y-65917625D02*
X68773809Y-65941435D01*
X68773809Y-65941435D02*
X68678571Y-65941435D01*
X68678571Y-65941435D02*
X68630952Y-65965244D01*
X68630952Y-65965244D02*
X68607142Y-65989054D01*
X68607142Y-65989054D02*
X68583333Y-66036673D01*
X68583333Y-66036673D02*
X68583333Y-66131911D01*
X68583333Y-66131911D02*
X68607142Y-66179530D01*
X68607142Y-66179530D02*
X68630952Y-66203340D01*
X68630952Y-66203340D02*
X68678571Y-66227149D01*
X68678571Y-66227149D02*
X68773809Y-66227149D01*
X68773809Y-66227149D02*
X68821428Y-66203340D01*
X68821428Y-66203340D02*
X68845237Y-66179530D01*
X68845237Y-66179530D02*
X68869047Y-66131911D01*
X68869047Y-66131911D02*
X68869047Y-66036673D01*
X68869047Y-66036673D02*
X68845237Y-65989054D01*
X68845237Y-65989054D02*
X68821428Y-65965244D01*
X68821428Y-65965244D02*
X68773809Y-65941435D01*
D10*
X35190476Y-40604819D02*
X35190476Y-39604819D01*
X35190476Y-39604819D02*
X35523809Y-40319104D01*
X35523809Y-40319104D02*
X35857142Y-39604819D01*
X35857142Y-39604819D02*
X35857142Y-40604819D01*
X36238095Y-39604819D02*
X36857142Y-39604819D01*
X36857142Y-39604819D02*
X36523809Y-39985771D01*
X36523809Y-39985771D02*
X36666666Y-39985771D01*
X36666666Y-39985771D02*
X36761904Y-40033390D01*
X36761904Y-40033390D02*
X36809523Y-40081009D01*
X36809523Y-40081009D02*
X36857142Y-40176247D01*
X36857142Y-40176247D02*
X36857142Y-40414342D01*
X36857142Y-40414342D02*
X36809523Y-40509580D01*
X36809523Y-40509580D02*
X36761904Y-40557200D01*
X36761904Y-40557200D02*
X36666666Y-40604819D01*
X36666666Y-40604819D02*
X36380952Y-40604819D01*
X36380952Y-40604819D02*
X36285714Y-40557200D01*
X36285714Y-40557200D02*
X36238095Y-40509580D01*
X35238095Y-36454819D02*
X35238095Y-35454819D01*
X35238095Y-35931009D02*
X35809523Y-35931009D01*
X35809523Y-36454819D02*
X35809523Y-35454819D01*
X36809523Y-36454819D02*
X36238095Y-36454819D01*
X36523809Y-36454819D02*
X36523809Y-35454819D01*
X36523809Y-35454819D02*
X36428571Y-35597676D01*
X36428571Y-35597676D02*
X36333333Y-35692914D01*
X36333333Y-35692914D02*
X36238095Y-35740533D01*
X125952381Y-75284819D02*
X126047619Y-75284819D01*
X126047619Y-75284819D02*
X126142857Y-75332438D01*
X126142857Y-75332438D02*
X126190476Y-75380057D01*
X126190476Y-75380057D02*
X126238095Y-75475295D01*
X126238095Y-75475295D02*
X126285714Y-75665771D01*
X126285714Y-75665771D02*
X126285714Y-75903866D01*
X126285714Y-75903866D02*
X126238095Y-76094342D01*
X126238095Y-76094342D02*
X126190476Y-76189580D01*
X126190476Y-76189580D02*
X126142857Y-76237200D01*
X126142857Y-76237200D02*
X126047619Y-76284819D01*
X126047619Y-76284819D02*
X125952381Y-76284819D01*
X125952381Y-76284819D02*
X125857143Y-76237200D01*
X125857143Y-76237200D02*
X125809524Y-76189580D01*
X125809524Y-76189580D02*
X125761905Y-76094342D01*
X125761905Y-76094342D02*
X125714286Y-75903866D01*
X125714286Y-75903866D02*
X125714286Y-75665771D01*
X125714286Y-75665771D02*
X125761905Y-75475295D01*
X125761905Y-75475295D02*
X125809524Y-75380057D01*
X125809524Y-75380057D02*
X125857143Y-75332438D01*
X125857143Y-75332438D02*
X125952381Y-75284819D01*
D11*
X125104762Y-74363855D02*
X124838095Y-73982902D01*
X124647619Y-74363855D02*
X124647619Y-73563855D01*
X124647619Y-73563855D02*
X124952381Y-73563855D01*
X124952381Y-73563855D02*
X125028571Y-73601950D01*
X125028571Y-73601950D02*
X125066666Y-73640045D01*
X125066666Y-73640045D02*
X125104762Y-73716236D01*
X125104762Y-73716236D02*
X125104762Y-73830521D01*
X125104762Y-73830521D02*
X125066666Y-73906712D01*
X125066666Y-73906712D02*
X125028571Y-73944807D01*
X125028571Y-73944807D02*
X124952381Y-73982902D01*
X124952381Y-73982902D02*
X124647619Y-73982902D01*
X125828571Y-73563855D02*
X125447619Y-73563855D01*
X125447619Y-73563855D02*
X125409523Y-73944807D01*
X125409523Y-73944807D02*
X125447619Y-73906712D01*
X125447619Y-73906712D02*
X125523809Y-73868617D01*
X125523809Y-73868617D02*
X125714285Y-73868617D01*
X125714285Y-73868617D02*
X125790476Y-73906712D01*
X125790476Y-73906712D02*
X125828571Y-73944807D01*
X125828571Y-73944807D02*
X125866666Y-74020998D01*
X125866666Y-74020998D02*
X125866666Y-74211474D01*
X125866666Y-74211474D02*
X125828571Y-74287664D01*
X125828571Y-74287664D02*
X125790476Y-74325760D01*
X125790476Y-74325760D02*
X125714285Y-74363855D01*
X125714285Y-74363855D02*
X125523809Y-74363855D01*
X125523809Y-74363855D02*
X125447619Y-74325760D01*
X125447619Y-74325760D02*
X125409523Y-74287664D01*
X126361905Y-73563855D02*
X126438095Y-73563855D01*
X126438095Y-73563855D02*
X126514286Y-73601950D01*
X126514286Y-73601950D02*
X126552381Y-73640045D01*
X126552381Y-73640045D02*
X126590476Y-73716236D01*
X126590476Y-73716236D02*
X126628571Y-73868617D01*
X126628571Y-73868617D02*
X126628571Y-74059093D01*
X126628571Y-74059093D02*
X126590476Y-74211474D01*
X126590476Y-74211474D02*
X126552381Y-74287664D01*
X126552381Y-74287664D02*
X126514286Y-74325760D01*
X126514286Y-74325760D02*
X126438095Y-74363855D01*
X126438095Y-74363855D02*
X126361905Y-74363855D01*
X126361905Y-74363855D02*
X126285714Y-74325760D01*
X126285714Y-74325760D02*
X126247619Y-74287664D01*
X126247619Y-74287664D02*
X126209524Y-74211474D01*
X126209524Y-74211474D02*
X126171428Y-74059093D01*
X126171428Y-74059093D02*
X126171428Y-73868617D01*
X126171428Y-73868617D02*
X126209524Y-73716236D01*
X126209524Y-73716236D02*
X126247619Y-73640045D01*
X126247619Y-73640045D02*
X126285714Y-73601950D01*
X126285714Y-73601950D02*
X126361905Y-73563855D01*
X127123810Y-73563855D02*
X127200000Y-73563855D01*
X127200000Y-73563855D02*
X127276191Y-73601950D01*
X127276191Y-73601950D02*
X127314286Y-73640045D01*
X127314286Y-73640045D02*
X127352381Y-73716236D01*
X127352381Y-73716236D02*
X127390476Y-73868617D01*
X127390476Y-73868617D02*
X127390476Y-74059093D01*
X127390476Y-74059093D02*
X127352381Y-74211474D01*
X127352381Y-74211474D02*
X127314286Y-74287664D01*
X127314286Y-74287664D02*
X127276191Y-74325760D01*
X127276191Y-74325760D02*
X127200000Y-74363855D01*
X127200000Y-74363855D02*
X127123810Y-74363855D01*
X127123810Y-74363855D02*
X127047619Y-74325760D01*
X127047619Y-74325760D02*
X127009524Y-74287664D01*
X127009524Y-74287664D02*
X126971429Y-74211474D01*
X126971429Y-74211474D02*
X126933333Y-74059093D01*
X126933333Y-74059093D02*
X126933333Y-73868617D01*
X126933333Y-73868617D02*
X126971429Y-73716236D01*
X126971429Y-73716236D02*
X127009524Y-73640045D01*
X127009524Y-73640045D02*
X127047619Y-73601950D01*
X127047619Y-73601950D02*
X127123810Y-73563855D01*
D10*
X97130952Y-86854819D02*
X96559524Y-86854819D01*
X96845238Y-86854819D02*
X96845238Y-85854819D01*
X96845238Y-85854819D02*
X96750000Y-85997676D01*
X96750000Y-85997676D02*
X96654762Y-86092914D01*
X96654762Y-86092914D02*
X96559524Y-86140533D01*
X97750000Y-85854819D02*
X97845238Y-85854819D01*
X97845238Y-85854819D02*
X97940476Y-85902438D01*
X97940476Y-85902438D02*
X97988095Y-85950057D01*
X97988095Y-85950057D02*
X98035714Y-86045295D01*
X98035714Y-86045295D02*
X98083333Y-86235771D01*
X98083333Y-86235771D02*
X98083333Y-86473866D01*
X98083333Y-86473866D02*
X98035714Y-86664342D01*
X98035714Y-86664342D02*
X97988095Y-86759580D01*
X97988095Y-86759580D02*
X97940476Y-86807200D01*
X97940476Y-86807200D02*
X97845238Y-86854819D01*
X97845238Y-86854819D02*
X97750000Y-86854819D01*
X97750000Y-86854819D02*
X97654762Y-86807200D01*
X97654762Y-86807200D02*
X97607143Y-86759580D01*
X97607143Y-86759580D02*
X97559524Y-86664342D01*
X97559524Y-86664342D02*
X97511905Y-86473866D01*
X97511905Y-86473866D02*
X97511905Y-86235771D01*
X97511905Y-86235771D02*
X97559524Y-86045295D01*
X97559524Y-86045295D02*
X97607143Y-85950057D01*
X97607143Y-85950057D02*
X97654762Y-85902438D01*
X97654762Y-85902438D02*
X97750000Y-85854819D01*
X98702381Y-85854819D02*
X98797619Y-85854819D01*
X98797619Y-85854819D02*
X98892857Y-85902438D01*
X98892857Y-85902438D02*
X98940476Y-85950057D01*
X98940476Y-85950057D02*
X98988095Y-86045295D01*
X98988095Y-86045295D02*
X99035714Y-86235771D01*
X99035714Y-86235771D02*
X99035714Y-86473866D01*
X99035714Y-86473866D02*
X98988095Y-86664342D01*
X98988095Y-86664342D02*
X98940476Y-86759580D01*
X98940476Y-86759580D02*
X98892857Y-86807200D01*
X98892857Y-86807200D02*
X98797619Y-86854819D01*
X98797619Y-86854819D02*
X98702381Y-86854819D01*
X98702381Y-86854819D02*
X98607143Y-86807200D01*
X98607143Y-86807200D02*
X98559524Y-86759580D01*
X98559524Y-86759580D02*
X98511905Y-86664342D01*
X98511905Y-86664342D02*
X98464286Y-86473866D01*
X98464286Y-86473866D02*
X98464286Y-86235771D01*
X98464286Y-86235771D02*
X98511905Y-86045295D01*
X98511905Y-86045295D02*
X98559524Y-85950057D01*
X98559524Y-85950057D02*
X98607143Y-85902438D01*
X98607143Y-85902438D02*
X98702381Y-85854819D01*
X99892857Y-86188152D02*
X99892857Y-86854819D01*
X99464286Y-86188152D02*
X99464286Y-86711961D01*
X99464286Y-86711961D02*
X99511905Y-86807200D01*
X99511905Y-86807200D02*
X99607143Y-86854819D01*
X99607143Y-86854819D02*
X99750000Y-86854819D01*
X99750000Y-86854819D02*
X99845238Y-86807200D01*
X99845238Y-86807200D02*
X99892857Y-86759580D01*
X97130952Y-82359580D02*
X97083333Y-82407200D01*
X97083333Y-82407200D02*
X96940476Y-82454819D01*
X96940476Y-82454819D02*
X96845238Y-82454819D01*
X96845238Y-82454819D02*
X96702381Y-82407200D01*
X96702381Y-82407200D02*
X96607143Y-82311961D01*
X96607143Y-82311961D02*
X96559524Y-82216723D01*
X96559524Y-82216723D02*
X96511905Y-82026247D01*
X96511905Y-82026247D02*
X96511905Y-81883390D01*
X96511905Y-81883390D02*
X96559524Y-81692914D01*
X96559524Y-81692914D02*
X96607143Y-81597676D01*
X96607143Y-81597676D02*
X96702381Y-81502438D01*
X96702381Y-81502438D02*
X96845238Y-81454819D01*
X96845238Y-81454819D02*
X96940476Y-81454819D01*
X96940476Y-81454819D02*
X97083333Y-81502438D01*
X97083333Y-81502438D02*
X97130952Y-81550057D01*
X98035714Y-81454819D02*
X97559524Y-81454819D01*
X97559524Y-81454819D02*
X97511905Y-81931009D01*
X97511905Y-81931009D02*
X97559524Y-81883390D01*
X97559524Y-81883390D02*
X97654762Y-81835771D01*
X97654762Y-81835771D02*
X97892857Y-81835771D01*
X97892857Y-81835771D02*
X97988095Y-81883390D01*
X97988095Y-81883390D02*
X98035714Y-81931009D01*
X98035714Y-81931009D02*
X98083333Y-82026247D01*
X98083333Y-82026247D02*
X98083333Y-82264342D01*
X98083333Y-82264342D02*
X98035714Y-82359580D01*
X98035714Y-82359580D02*
X97988095Y-82407200D01*
X97988095Y-82407200D02*
X97892857Y-82454819D01*
X97892857Y-82454819D02*
X97654762Y-82454819D01*
X97654762Y-82454819D02*
X97559524Y-82407200D01*
X97559524Y-82407200D02*
X97511905Y-82359580D01*
X98702381Y-81454819D02*
X98797619Y-81454819D01*
X98797619Y-81454819D02*
X98892857Y-81502438D01*
X98892857Y-81502438D02*
X98940476Y-81550057D01*
X98940476Y-81550057D02*
X98988095Y-81645295D01*
X98988095Y-81645295D02*
X99035714Y-81835771D01*
X99035714Y-81835771D02*
X99035714Y-82073866D01*
X99035714Y-82073866D02*
X98988095Y-82264342D01*
X98988095Y-82264342D02*
X98940476Y-82359580D01*
X98940476Y-82359580D02*
X98892857Y-82407200D01*
X98892857Y-82407200D02*
X98797619Y-82454819D01*
X98797619Y-82454819D02*
X98702381Y-82454819D01*
X98702381Y-82454819D02*
X98607143Y-82407200D01*
X98607143Y-82407200D02*
X98559524Y-82359580D01*
X98559524Y-82359580D02*
X98511905Y-82264342D01*
X98511905Y-82264342D02*
X98464286Y-82073866D01*
X98464286Y-82073866D02*
X98464286Y-81835771D01*
X98464286Y-81835771D02*
X98511905Y-81645295D01*
X98511905Y-81645295D02*
X98559524Y-81550057D01*
X98559524Y-81550057D02*
X98607143Y-81502438D01*
X98607143Y-81502438D02*
X98702381Y-81454819D01*
X99892857Y-81788152D02*
X99892857Y-82454819D01*
X99654762Y-81407200D02*
X99416667Y-82121485D01*
X99416667Y-82121485D02*
X100035714Y-82121485D01*
X80269524Y-106454819D02*
X80269524Y-105454819D01*
X80269524Y-105454819D02*
X80650476Y-105454819D01*
X80650476Y-105454819D02*
X80745714Y-105502438D01*
X80745714Y-105502438D02*
X80793333Y-105550057D01*
X80793333Y-105550057D02*
X80840952Y-105645295D01*
X80840952Y-105645295D02*
X80840952Y-105788152D01*
X80840952Y-105788152D02*
X80793333Y-105883390D01*
X80793333Y-105883390D02*
X80745714Y-105931009D01*
X80745714Y-105931009D02*
X80650476Y-105978628D01*
X80650476Y-105978628D02*
X80269524Y-105978628D01*
X81745714Y-105454819D02*
X81269524Y-105454819D01*
X81269524Y-105454819D02*
X81221905Y-105931009D01*
X81221905Y-105931009D02*
X81269524Y-105883390D01*
X81269524Y-105883390D02*
X81364762Y-105835771D01*
X81364762Y-105835771D02*
X81602857Y-105835771D01*
X81602857Y-105835771D02*
X81698095Y-105883390D01*
X81698095Y-105883390D02*
X81745714Y-105931009D01*
X81745714Y-105931009D02*
X81793333Y-106026247D01*
X81793333Y-106026247D02*
X81793333Y-106264342D01*
X81793333Y-106264342D02*
X81745714Y-106359580D01*
X81745714Y-106359580D02*
X81698095Y-106407200D01*
X81698095Y-106407200D02*
X81602857Y-106454819D01*
X81602857Y-106454819D02*
X81364762Y-106454819D01*
X81364762Y-106454819D02*
X81269524Y-106407200D01*
X81269524Y-106407200D02*
X81221905Y-106359580D01*
X82412381Y-105454819D02*
X82507619Y-105454819D01*
X82507619Y-105454819D02*
X82602857Y-105502438D01*
X82602857Y-105502438D02*
X82650476Y-105550057D01*
X82650476Y-105550057D02*
X82698095Y-105645295D01*
X82698095Y-105645295D02*
X82745714Y-105835771D01*
X82745714Y-105835771D02*
X82745714Y-106073866D01*
X82745714Y-106073866D02*
X82698095Y-106264342D01*
X82698095Y-106264342D02*
X82650476Y-106359580D01*
X82650476Y-106359580D02*
X82602857Y-106407200D01*
X82602857Y-106407200D02*
X82507619Y-106454819D01*
X82507619Y-106454819D02*
X82412381Y-106454819D01*
X82412381Y-106454819D02*
X82317143Y-106407200D01*
X82317143Y-106407200D02*
X82269524Y-106359580D01*
X82269524Y-106359580D02*
X82221905Y-106264342D01*
X82221905Y-106264342D02*
X82174286Y-106073866D01*
X82174286Y-106073866D02*
X82174286Y-105835771D01*
X82174286Y-105835771D02*
X82221905Y-105645295D01*
X82221905Y-105645295D02*
X82269524Y-105550057D01*
X82269524Y-105550057D02*
X82317143Y-105502438D01*
X82317143Y-105502438D02*
X82412381Y-105454819D01*
X83126667Y-105550057D02*
X83174286Y-105502438D01*
X83174286Y-105502438D02*
X83269524Y-105454819D01*
X83269524Y-105454819D02*
X83507619Y-105454819D01*
X83507619Y-105454819D02*
X83602857Y-105502438D01*
X83602857Y-105502438D02*
X83650476Y-105550057D01*
X83650476Y-105550057D02*
X83698095Y-105645295D01*
X83698095Y-105645295D02*
X83698095Y-105740533D01*
X83698095Y-105740533D02*
X83650476Y-105883390D01*
X83650476Y-105883390D02*
X83079048Y-106454819D01*
X83079048Y-106454819D02*
X83698095Y-106454819D01*
X80269524Y-104554819D02*
X80269524Y-103554819D01*
X80269524Y-103554819D02*
X80650476Y-103554819D01*
X80650476Y-103554819D02*
X80745714Y-103602438D01*
X80745714Y-103602438D02*
X80793333Y-103650057D01*
X80793333Y-103650057D02*
X80840952Y-103745295D01*
X80840952Y-103745295D02*
X80840952Y-103888152D01*
X80840952Y-103888152D02*
X80793333Y-103983390D01*
X80793333Y-103983390D02*
X80745714Y-104031009D01*
X80745714Y-104031009D02*
X80650476Y-104078628D01*
X80650476Y-104078628D02*
X80269524Y-104078628D01*
X81745714Y-103554819D02*
X81269524Y-103554819D01*
X81269524Y-103554819D02*
X81221905Y-104031009D01*
X81221905Y-104031009D02*
X81269524Y-103983390D01*
X81269524Y-103983390D02*
X81364762Y-103935771D01*
X81364762Y-103935771D02*
X81602857Y-103935771D01*
X81602857Y-103935771D02*
X81698095Y-103983390D01*
X81698095Y-103983390D02*
X81745714Y-104031009D01*
X81745714Y-104031009D02*
X81793333Y-104126247D01*
X81793333Y-104126247D02*
X81793333Y-104364342D01*
X81793333Y-104364342D02*
X81745714Y-104459580D01*
X81745714Y-104459580D02*
X81698095Y-104507200D01*
X81698095Y-104507200D02*
X81602857Y-104554819D01*
X81602857Y-104554819D02*
X81364762Y-104554819D01*
X81364762Y-104554819D02*
X81269524Y-104507200D01*
X81269524Y-104507200D02*
X81221905Y-104459580D01*
X82412381Y-103554819D02*
X82507619Y-103554819D01*
X82507619Y-103554819D02*
X82602857Y-103602438D01*
X82602857Y-103602438D02*
X82650476Y-103650057D01*
X82650476Y-103650057D02*
X82698095Y-103745295D01*
X82698095Y-103745295D02*
X82745714Y-103935771D01*
X82745714Y-103935771D02*
X82745714Y-104173866D01*
X82745714Y-104173866D02*
X82698095Y-104364342D01*
X82698095Y-104364342D02*
X82650476Y-104459580D01*
X82650476Y-104459580D02*
X82602857Y-104507200D01*
X82602857Y-104507200D02*
X82507619Y-104554819D01*
X82507619Y-104554819D02*
X82412381Y-104554819D01*
X82412381Y-104554819D02*
X82317143Y-104507200D01*
X82317143Y-104507200D02*
X82269524Y-104459580D01*
X82269524Y-104459580D02*
X82221905Y-104364342D01*
X82221905Y-104364342D02*
X82174286Y-104173866D01*
X82174286Y-104173866D02*
X82174286Y-103935771D01*
X82174286Y-103935771D02*
X82221905Y-103745295D01*
X82221905Y-103745295D02*
X82269524Y-103650057D01*
X82269524Y-103650057D02*
X82317143Y-103602438D01*
X82317143Y-103602438D02*
X82412381Y-103554819D01*
X83126667Y-103650057D02*
X83174286Y-103602438D01*
X83174286Y-103602438D02*
X83269524Y-103554819D01*
X83269524Y-103554819D02*
X83507619Y-103554819D01*
X83507619Y-103554819D02*
X83602857Y-103602438D01*
X83602857Y-103602438D02*
X83650476Y-103650057D01*
X83650476Y-103650057D02*
X83698095Y-103745295D01*
X83698095Y-103745295D02*
X83698095Y-103840533D01*
X83698095Y-103840533D02*
X83650476Y-103983390D01*
X83650476Y-103983390D02*
X83079048Y-104554819D01*
X83079048Y-104554819D02*
X83698095Y-104554819D01*
X53904761Y-49104819D02*
X53333333Y-49104819D01*
X53619047Y-49104819D02*
X53619047Y-48104819D01*
X53619047Y-48104819D02*
X53523809Y-48247676D01*
X53523809Y-48247676D02*
X53428571Y-48342914D01*
X53428571Y-48342914D02*
X53333333Y-48390533D01*
X54333333Y-49009580D02*
X54380952Y-49057200D01*
X54380952Y-49057200D02*
X54333333Y-49104819D01*
X54333333Y-49104819D02*
X54285714Y-49057200D01*
X54285714Y-49057200D02*
X54333333Y-49009580D01*
X54333333Y-49009580D02*
X54333333Y-49104819D01*
X55333332Y-49104819D02*
X54761904Y-49104819D01*
X55047618Y-49104819D02*
X55047618Y-48104819D01*
X55047618Y-48104819D02*
X54952380Y-48247676D01*
X54952380Y-48247676D02*
X54857142Y-48342914D01*
X54857142Y-48342914D02*
X54761904Y-48390533D01*
X55714285Y-48819104D02*
X56190475Y-48819104D01*
X55619047Y-49104819D02*
X55952380Y-48104819D01*
X55952380Y-48104819D02*
X56285713Y-49104819D01*
X57380952Y-49104819D02*
X57380952Y-48104819D01*
X57380952Y-48104819D02*
X57761904Y-48104819D01*
X57761904Y-48104819D02*
X57857142Y-48152438D01*
X57857142Y-48152438D02*
X57904761Y-48200057D01*
X57904761Y-48200057D02*
X57952380Y-48295295D01*
X57952380Y-48295295D02*
X57952380Y-48438152D01*
X57952380Y-48438152D02*
X57904761Y-48533390D01*
X57904761Y-48533390D02*
X57857142Y-48581009D01*
X57857142Y-48581009D02*
X57761904Y-48628628D01*
X57761904Y-48628628D02*
X57380952Y-48628628D01*
X58238095Y-48104819D02*
X58809523Y-48104819D01*
X58523809Y-49104819D02*
X58523809Y-48104819D01*
X59714285Y-49009580D02*
X59666666Y-49057200D01*
X59666666Y-49057200D02*
X59523809Y-49104819D01*
X59523809Y-49104819D02*
X59428571Y-49104819D01*
X59428571Y-49104819D02*
X59285714Y-49057200D01*
X59285714Y-49057200D02*
X59190476Y-48961961D01*
X59190476Y-48961961D02*
X59142857Y-48866723D01*
X59142857Y-48866723D02*
X59095238Y-48676247D01*
X59095238Y-48676247D02*
X59095238Y-48533390D01*
X59095238Y-48533390D02*
X59142857Y-48342914D01*
X59142857Y-48342914D02*
X59190476Y-48247676D01*
X59190476Y-48247676D02*
X59285714Y-48152438D01*
X59285714Y-48152438D02*
X59428571Y-48104819D01*
X59428571Y-48104819D02*
X59523809Y-48104819D01*
X59523809Y-48104819D02*
X59666666Y-48152438D01*
X59666666Y-48152438D02*
X59714285Y-48200057D01*
X60904762Y-49104819D02*
X60904762Y-48104819D01*
X60904762Y-48104819D02*
X61238095Y-48819104D01*
X61238095Y-48819104D02*
X61571428Y-48104819D01*
X61571428Y-48104819D02*
X61571428Y-49104819D01*
X62380952Y-48581009D02*
X62047619Y-48581009D01*
X62047619Y-49104819D02*
X62047619Y-48104819D01*
X62047619Y-48104819D02*
X62523809Y-48104819D01*
X62904762Y-48723866D02*
X63666667Y-48723866D01*
X64142857Y-49104819D02*
X64142857Y-48104819D01*
X64142857Y-48104819D02*
X64476190Y-48819104D01*
X64476190Y-48819104D02*
X64809523Y-48104819D01*
X64809523Y-48104819D02*
X64809523Y-49104819D01*
X65238095Y-49057200D02*
X65380952Y-49104819D01*
X65380952Y-49104819D02*
X65619047Y-49104819D01*
X65619047Y-49104819D02*
X65714285Y-49057200D01*
X65714285Y-49057200D02*
X65761904Y-49009580D01*
X65761904Y-49009580D02*
X65809523Y-48914342D01*
X65809523Y-48914342D02*
X65809523Y-48819104D01*
X65809523Y-48819104D02*
X65761904Y-48723866D01*
X65761904Y-48723866D02*
X65714285Y-48676247D01*
X65714285Y-48676247D02*
X65619047Y-48628628D01*
X65619047Y-48628628D02*
X65428571Y-48581009D01*
X65428571Y-48581009D02*
X65333333Y-48533390D01*
X65333333Y-48533390D02*
X65285714Y-48485771D01*
X65285714Y-48485771D02*
X65238095Y-48390533D01*
X65238095Y-48390533D02*
X65238095Y-48295295D01*
X65238095Y-48295295D02*
X65285714Y-48200057D01*
X65285714Y-48200057D02*
X65333333Y-48152438D01*
X65333333Y-48152438D02*
X65428571Y-48104819D01*
X65428571Y-48104819D02*
X65666666Y-48104819D01*
X65666666Y-48104819D02*
X65809523Y-48152438D01*
X66238095Y-49104819D02*
X66238095Y-48104819D01*
X66238095Y-48104819D02*
X66571428Y-48819104D01*
X66571428Y-48819104D02*
X66904761Y-48104819D01*
X66904761Y-48104819D02*
X66904761Y-49104819D01*
X67714285Y-48581009D02*
X67380952Y-48581009D01*
X67380952Y-49104819D02*
X67380952Y-48104819D01*
X67380952Y-48104819D02*
X67857142Y-48104819D01*
X68761904Y-49104819D02*
X68190476Y-49104819D01*
X68476190Y-49104819D02*
X68476190Y-48104819D01*
X68476190Y-48104819D02*
X68380952Y-48247676D01*
X68380952Y-48247676D02*
X68285714Y-48342914D01*
X68285714Y-48342914D02*
X68190476Y-48390533D01*
X69714285Y-49104819D02*
X69142857Y-49104819D01*
X69428571Y-49104819D02*
X69428571Y-48104819D01*
X69428571Y-48104819D02*
X69333333Y-48247676D01*
X69333333Y-48247676D02*
X69238095Y-48342914D01*
X69238095Y-48342914D02*
X69142857Y-48390533D01*
X70333333Y-48104819D02*
X70428571Y-48104819D01*
X70428571Y-48104819D02*
X70523809Y-48152438D01*
X70523809Y-48152438D02*
X70571428Y-48200057D01*
X70571428Y-48200057D02*
X70619047Y-48295295D01*
X70619047Y-48295295D02*
X70666666Y-48485771D01*
X70666666Y-48485771D02*
X70666666Y-48723866D01*
X70666666Y-48723866D02*
X70619047Y-48914342D01*
X70619047Y-48914342D02*
X70571428Y-49009580D01*
X70571428Y-49009580D02*
X70523809Y-49057200D01*
X70523809Y-49057200D02*
X70428571Y-49104819D01*
X70428571Y-49104819D02*
X70333333Y-49104819D01*
X70333333Y-49104819D02*
X70238095Y-49057200D01*
X70238095Y-49057200D02*
X70190476Y-49009580D01*
X70190476Y-49009580D02*
X70142857Y-48914342D01*
X70142857Y-48914342D02*
X70095238Y-48723866D01*
X70095238Y-48723866D02*
X70095238Y-48485771D01*
X70095238Y-48485771D02*
X70142857Y-48295295D01*
X70142857Y-48295295D02*
X70190476Y-48200057D01*
X70190476Y-48200057D02*
X70238095Y-48152438D01*
X70238095Y-48152438D02*
X70333333Y-48104819D01*
X60714285Y-45931009D02*
X60380952Y-45931009D01*
X60380952Y-46454819D02*
X60380952Y-45454819D01*
X60380952Y-45454819D02*
X60857142Y-45454819D01*
X61714285Y-45454819D02*
X61238095Y-45454819D01*
X61238095Y-45454819D02*
X61190476Y-45931009D01*
X61190476Y-45931009D02*
X61238095Y-45883390D01*
X61238095Y-45883390D02*
X61333333Y-45835771D01*
X61333333Y-45835771D02*
X61571428Y-45835771D01*
X61571428Y-45835771D02*
X61666666Y-45883390D01*
X61666666Y-45883390D02*
X61714285Y-45931009D01*
X61714285Y-45931009D02*
X61761904Y-46026247D01*
X61761904Y-46026247D02*
X61761904Y-46264342D01*
X61761904Y-46264342D02*
X61714285Y-46359580D01*
X61714285Y-46359580D02*
X61666666Y-46407200D01*
X61666666Y-46407200D02*
X61571428Y-46454819D01*
X61571428Y-46454819D02*
X61333333Y-46454819D01*
X61333333Y-46454819D02*
X61238095Y-46407200D01*
X61238095Y-46407200D02*
X61190476Y-46359580D01*
X62380952Y-45454819D02*
X62476190Y-45454819D01*
X62476190Y-45454819D02*
X62571428Y-45502438D01*
X62571428Y-45502438D02*
X62619047Y-45550057D01*
X62619047Y-45550057D02*
X62666666Y-45645295D01*
X62666666Y-45645295D02*
X62714285Y-45835771D01*
X62714285Y-45835771D02*
X62714285Y-46073866D01*
X62714285Y-46073866D02*
X62666666Y-46264342D01*
X62666666Y-46264342D02*
X62619047Y-46359580D01*
X62619047Y-46359580D02*
X62571428Y-46407200D01*
X62571428Y-46407200D02*
X62476190Y-46454819D01*
X62476190Y-46454819D02*
X62380952Y-46454819D01*
X62380952Y-46454819D02*
X62285714Y-46407200D01*
X62285714Y-46407200D02*
X62238095Y-46359580D01*
X62238095Y-46359580D02*
X62190476Y-46264342D01*
X62190476Y-46264342D02*
X62142857Y-46073866D01*
X62142857Y-46073866D02*
X62142857Y-45835771D01*
X62142857Y-45835771D02*
X62190476Y-45645295D01*
X62190476Y-45645295D02*
X62238095Y-45550057D01*
X62238095Y-45550057D02*
X62285714Y-45502438D01*
X62285714Y-45502438D02*
X62380952Y-45454819D01*
X63333333Y-45454819D02*
X63428571Y-45454819D01*
X63428571Y-45454819D02*
X63523809Y-45502438D01*
X63523809Y-45502438D02*
X63571428Y-45550057D01*
X63571428Y-45550057D02*
X63619047Y-45645295D01*
X63619047Y-45645295D02*
X63666666Y-45835771D01*
X63666666Y-45835771D02*
X63666666Y-46073866D01*
X63666666Y-46073866D02*
X63619047Y-46264342D01*
X63619047Y-46264342D02*
X63571428Y-46359580D01*
X63571428Y-46359580D02*
X63523809Y-46407200D01*
X63523809Y-46407200D02*
X63428571Y-46454819D01*
X63428571Y-46454819D02*
X63333333Y-46454819D01*
X63333333Y-46454819D02*
X63238095Y-46407200D01*
X63238095Y-46407200D02*
X63190476Y-46359580D01*
X63190476Y-46359580D02*
X63142857Y-46264342D01*
X63142857Y-46264342D02*
X63095238Y-46073866D01*
X63095238Y-46073866D02*
X63095238Y-45835771D01*
X63095238Y-45835771D02*
X63142857Y-45645295D01*
X63142857Y-45645295D02*
X63190476Y-45550057D01*
X63190476Y-45550057D02*
X63238095Y-45502438D01*
X63238095Y-45502438D02*
X63333333Y-45454819D01*
X44238095Y-83361009D02*
X44380952Y-83408628D01*
X44380952Y-83408628D02*
X44428571Y-83456247D01*
X44428571Y-83456247D02*
X44476190Y-83551485D01*
X44476190Y-83551485D02*
X44476190Y-83694342D01*
X44476190Y-83694342D02*
X44428571Y-83789580D01*
X44428571Y-83789580D02*
X44380952Y-83837200D01*
X44380952Y-83837200D02*
X44285714Y-83884819D01*
X44285714Y-83884819D02*
X43904762Y-83884819D01*
X43904762Y-83884819D02*
X43904762Y-82884819D01*
X43904762Y-82884819D02*
X44238095Y-82884819D01*
X44238095Y-82884819D02*
X44333333Y-82932438D01*
X44333333Y-82932438D02*
X44380952Y-82980057D01*
X44380952Y-82980057D02*
X44428571Y-83075295D01*
X44428571Y-83075295D02*
X44428571Y-83170533D01*
X44428571Y-83170533D02*
X44380952Y-83265771D01*
X44380952Y-83265771D02*
X44333333Y-83313390D01*
X44333333Y-83313390D02*
X44238095Y-83361009D01*
X44238095Y-83361009D02*
X43904762Y-83361009D01*
X45380952Y-83884819D02*
X44904762Y-83884819D01*
X44904762Y-83884819D02*
X44904762Y-82884819D01*
X45714286Y-83884819D02*
X45714286Y-82884819D01*
X45714286Y-82884819D02*
X46047619Y-83599104D01*
X46047619Y-83599104D02*
X46380952Y-82884819D01*
X46380952Y-82884819D02*
X46380952Y-83884819D01*
X47380952Y-83884819D02*
X46809524Y-83884819D01*
X47095238Y-83884819D02*
X47095238Y-82884819D01*
X47095238Y-82884819D02*
X47000000Y-83027676D01*
X47000000Y-83027676D02*
X46904762Y-83122914D01*
X46904762Y-83122914D02*
X46809524Y-83170533D01*
X47952381Y-83313390D02*
X47857143Y-83265771D01*
X47857143Y-83265771D02*
X47809524Y-83218152D01*
X47809524Y-83218152D02*
X47761905Y-83122914D01*
X47761905Y-83122914D02*
X47761905Y-83075295D01*
X47761905Y-83075295D02*
X47809524Y-82980057D01*
X47809524Y-82980057D02*
X47857143Y-82932438D01*
X47857143Y-82932438D02*
X47952381Y-82884819D01*
X47952381Y-82884819D02*
X48142857Y-82884819D01*
X48142857Y-82884819D02*
X48238095Y-82932438D01*
X48238095Y-82932438D02*
X48285714Y-82980057D01*
X48285714Y-82980057D02*
X48333333Y-83075295D01*
X48333333Y-83075295D02*
X48333333Y-83122914D01*
X48333333Y-83122914D02*
X48285714Y-83218152D01*
X48285714Y-83218152D02*
X48238095Y-83265771D01*
X48238095Y-83265771D02*
X48142857Y-83313390D01*
X48142857Y-83313390D02*
X47952381Y-83313390D01*
X47952381Y-83313390D02*
X47857143Y-83361009D01*
X47857143Y-83361009D02*
X47809524Y-83408628D01*
X47809524Y-83408628D02*
X47761905Y-83503866D01*
X47761905Y-83503866D02*
X47761905Y-83694342D01*
X47761905Y-83694342D02*
X47809524Y-83789580D01*
X47809524Y-83789580D02*
X47857143Y-83837200D01*
X47857143Y-83837200D02*
X47952381Y-83884819D01*
X47952381Y-83884819D02*
X48142857Y-83884819D01*
X48142857Y-83884819D02*
X48238095Y-83837200D01*
X48238095Y-83837200D02*
X48285714Y-83789580D01*
X48285714Y-83789580D02*
X48333333Y-83694342D01*
X48333333Y-83694342D02*
X48333333Y-83503866D01*
X48333333Y-83503866D02*
X48285714Y-83408628D01*
X48285714Y-83408628D02*
X48238095Y-83361009D01*
X48238095Y-83361009D02*
X48142857Y-83313390D01*
X48761905Y-83884819D02*
X48761905Y-82884819D01*
X48761905Y-82884819D02*
X49142857Y-82884819D01*
X49142857Y-82884819D02*
X49238095Y-82932438D01*
X49238095Y-82932438D02*
X49285714Y-82980057D01*
X49285714Y-82980057D02*
X49333333Y-83075295D01*
X49333333Y-83075295D02*
X49333333Y-83218152D01*
X49333333Y-83218152D02*
X49285714Y-83313390D01*
X49285714Y-83313390D02*
X49238095Y-83361009D01*
X49238095Y-83361009D02*
X49142857Y-83408628D01*
X49142857Y-83408628D02*
X48761905Y-83408628D01*
X50285714Y-82932438D02*
X50190476Y-82884819D01*
X50190476Y-82884819D02*
X50047619Y-82884819D01*
X50047619Y-82884819D02*
X49904762Y-82932438D01*
X49904762Y-82932438D02*
X49809524Y-83027676D01*
X49809524Y-83027676D02*
X49761905Y-83122914D01*
X49761905Y-83122914D02*
X49714286Y-83313390D01*
X49714286Y-83313390D02*
X49714286Y-83456247D01*
X49714286Y-83456247D02*
X49761905Y-83646723D01*
X49761905Y-83646723D02*
X49809524Y-83741961D01*
X49809524Y-83741961D02*
X49904762Y-83837200D01*
X49904762Y-83837200D02*
X50047619Y-83884819D01*
X50047619Y-83884819D02*
X50142857Y-83884819D01*
X50142857Y-83884819D02*
X50285714Y-83837200D01*
X50285714Y-83837200D02*
X50333333Y-83789580D01*
X50333333Y-83789580D02*
X50333333Y-83456247D01*
X50333333Y-83456247D02*
X50142857Y-83456247D01*
X51190476Y-83218152D02*
X51190476Y-83884819D01*
X50952381Y-82837200D02*
X50714286Y-83551485D01*
X50714286Y-83551485D02*
X51333333Y-83551485D01*
X51619048Y-82884819D02*
X52285714Y-82884819D01*
X52285714Y-82884819D02*
X51857143Y-83884819D01*
X53190476Y-83884819D02*
X52619048Y-83884819D01*
X52904762Y-83884819D02*
X52904762Y-82884819D01*
X52904762Y-82884819D02*
X52809524Y-83027676D01*
X52809524Y-83027676D02*
X52714286Y-83122914D01*
X52714286Y-83122914D02*
X52619048Y-83170533D01*
X53571429Y-83837200D02*
X53714286Y-83884819D01*
X53714286Y-83884819D02*
X53952381Y-83884819D01*
X53952381Y-83884819D02*
X54047619Y-83837200D01*
X54047619Y-83837200D02*
X54095238Y-83789580D01*
X54095238Y-83789580D02*
X54142857Y-83694342D01*
X54142857Y-83694342D02*
X54142857Y-83599104D01*
X54142857Y-83599104D02*
X54095238Y-83503866D01*
X54095238Y-83503866D02*
X54047619Y-83456247D01*
X54047619Y-83456247D02*
X53952381Y-83408628D01*
X53952381Y-83408628D02*
X53761905Y-83361009D01*
X53761905Y-83361009D02*
X53666667Y-83313390D01*
X53666667Y-83313390D02*
X53619048Y-83265771D01*
X53619048Y-83265771D02*
X53571429Y-83170533D01*
X53571429Y-83170533D02*
X53571429Y-83075295D01*
X53571429Y-83075295D02*
X53619048Y-82980057D01*
X53619048Y-82980057D02*
X53666667Y-82932438D01*
X53666667Y-82932438D02*
X53761905Y-82884819D01*
X53761905Y-82884819D02*
X54000000Y-82884819D01*
X54000000Y-82884819D02*
X54142857Y-82932438D01*
X54571429Y-83884819D02*
X54571429Y-82884819D01*
X54571429Y-82884819D02*
X55142857Y-83884819D01*
X55142857Y-83884819D02*
X55142857Y-82884819D01*
X56142857Y-83884819D02*
X55571429Y-83884819D01*
X55857143Y-83884819D02*
X55857143Y-82884819D01*
X55857143Y-82884819D02*
X55761905Y-83027676D01*
X55761905Y-83027676D02*
X55666667Y-83122914D01*
X55666667Y-83122914D02*
X55571429Y-83170533D01*
D12*
X49285715Y-81972403D02*
X49152382Y-81972403D01*
X49152382Y-82181927D02*
X49152382Y-81781927D01*
X49152382Y-81781927D02*
X49342858Y-81781927D01*
X49628572Y-81972403D02*
X49685715Y-81991451D01*
X49685715Y-81991451D02*
X49704762Y-82010499D01*
X49704762Y-82010499D02*
X49723810Y-82048594D01*
X49723810Y-82048594D02*
X49723810Y-82105737D01*
X49723810Y-82105737D02*
X49704762Y-82143832D01*
X49704762Y-82143832D02*
X49685715Y-82162880D01*
X49685715Y-82162880D02*
X49647620Y-82181927D01*
X49647620Y-82181927D02*
X49495239Y-82181927D01*
X49495239Y-82181927D02*
X49495239Y-81781927D01*
X49495239Y-81781927D02*
X49628572Y-81781927D01*
X49628572Y-81781927D02*
X49666667Y-81800975D01*
X49666667Y-81800975D02*
X49685715Y-81820022D01*
X49685715Y-81820022D02*
X49704762Y-81858118D01*
X49704762Y-81858118D02*
X49704762Y-81896213D01*
X49704762Y-81896213D02*
X49685715Y-81934308D01*
X49685715Y-81934308D02*
X49666667Y-81953356D01*
X49666667Y-81953356D02*
X49628572Y-81972403D01*
X49628572Y-81972403D02*
X49495239Y-81972403D01*
X50085715Y-81781927D02*
X49895239Y-81781927D01*
X49895239Y-81781927D02*
X49876191Y-81972403D01*
X49876191Y-81972403D02*
X49895239Y-81953356D01*
X49895239Y-81953356D02*
X49933334Y-81934308D01*
X49933334Y-81934308D02*
X50028572Y-81934308D01*
X50028572Y-81934308D02*
X50066667Y-81953356D01*
X50066667Y-81953356D02*
X50085715Y-81972403D01*
X50085715Y-81972403D02*
X50104762Y-82010499D01*
X50104762Y-82010499D02*
X50104762Y-82105737D01*
X50104762Y-82105737D02*
X50085715Y-82143832D01*
X50085715Y-82143832D02*
X50066667Y-82162880D01*
X50066667Y-82162880D02*
X50028572Y-82181927D01*
X50028572Y-82181927D02*
X49933334Y-82181927D01*
X49933334Y-82181927D02*
X49895239Y-82162880D01*
X49895239Y-82162880D02*
X49876191Y-82143832D01*
X50352381Y-81781927D02*
X50390476Y-81781927D01*
X50390476Y-81781927D02*
X50428572Y-81800975D01*
X50428572Y-81800975D02*
X50447619Y-81820022D01*
X50447619Y-81820022D02*
X50466667Y-81858118D01*
X50466667Y-81858118D02*
X50485714Y-81934308D01*
X50485714Y-81934308D02*
X50485714Y-82029546D01*
X50485714Y-82029546D02*
X50466667Y-82105737D01*
X50466667Y-82105737D02*
X50447619Y-82143832D01*
X50447619Y-82143832D02*
X50428572Y-82162880D01*
X50428572Y-82162880D02*
X50390476Y-82181927D01*
X50390476Y-82181927D02*
X50352381Y-82181927D01*
X50352381Y-82181927D02*
X50314286Y-82162880D01*
X50314286Y-82162880D02*
X50295238Y-82143832D01*
X50295238Y-82143832D02*
X50276191Y-82105737D01*
X50276191Y-82105737D02*
X50257143Y-82029546D01*
X50257143Y-82029546D02*
X50257143Y-81934308D01*
X50257143Y-81934308D02*
X50276191Y-81858118D01*
X50276191Y-81858118D02*
X50295238Y-81820022D01*
X50295238Y-81820022D02*
X50314286Y-81800975D01*
X50314286Y-81800975D02*
X50352381Y-81781927D01*
X50733333Y-81781927D02*
X50771428Y-81781927D01*
X50771428Y-81781927D02*
X50809524Y-81800975D01*
X50809524Y-81800975D02*
X50828571Y-81820022D01*
X50828571Y-81820022D02*
X50847619Y-81858118D01*
X50847619Y-81858118D02*
X50866666Y-81934308D01*
X50866666Y-81934308D02*
X50866666Y-82029546D01*
X50866666Y-82029546D02*
X50847619Y-82105737D01*
X50847619Y-82105737D02*
X50828571Y-82143832D01*
X50828571Y-82143832D02*
X50809524Y-82162880D01*
X50809524Y-82162880D02*
X50771428Y-82181927D01*
X50771428Y-82181927D02*
X50733333Y-82181927D01*
X50733333Y-82181927D02*
X50695238Y-82162880D01*
X50695238Y-82162880D02*
X50676190Y-82143832D01*
X50676190Y-82143832D02*
X50657143Y-82105737D01*
X50657143Y-82105737D02*
X50638095Y-82029546D01*
X50638095Y-82029546D02*
X50638095Y-81934308D01*
X50638095Y-81934308D02*
X50657143Y-81858118D01*
X50657143Y-81858118D02*
X50676190Y-81820022D01*
X50676190Y-81820022D02*
X50695238Y-81800975D01*
X50695238Y-81800975D02*
X50733333Y-81781927D01*
D10*
X128269524Y-106454819D02*
X128269524Y-105454819D01*
X128269524Y-105454819D02*
X128650476Y-105454819D01*
X128650476Y-105454819D02*
X128745714Y-105502438D01*
X128745714Y-105502438D02*
X128793333Y-105550057D01*
X128793333Y-105550057D02*
X128840952Y-105645295D01*
X128840952Y-105645295D02*
X128840952Y-105788152D01*
X128840952Y-105788152D02*
X128793333Y-105883390D01*
X128793333Y-105883390D02*
X128745714Y-105931009D01*
X128745714Y-105931009D02*
X128650476Y-105978628D01*
X128650476Y-105978628D02*
X128269524Y-105978628D01*
X129745714Y-105454819D02*
X129269524Y-105454819D01*
X129269524Y-105454819D02*
X129221905Y-105931009D01*
X129221905Y-105931009D02*
X129269524Y-105883390D01*
X129269524Y-105883390D02*
X129364762Y-105835771D01*
X129364762Y-105835771D02*
X129602857Y-105835771D01*
X129602857Y-105835771D02*
X129698095Y-105883390D01*
X129698095Y-105883390D02*
X129745714Y-105931009D01*
X129745714Y-105931009D02*
X129793333Y-106026247D01*
X129793333Y-106026247D02*
X129793333Y-106264342D01*
X129793333Y-106264342D02*
X129745714Y-106359580D01*
X129745714Y-106359580D02*
X129698095Y-106407200D01*
X129698095Y-106407200D02*
X129602857Y-106454819D01*
X129602857Y-106454819D02*
X129364762Y-106454819D01*
X129364762Y-106454819D02*
X129269524Y-106407200D01*
X129269524Y-106407200D02*
X129221905Y-106359580D01*
X130412381Y-105454819D02*
X130507619Y-105454819D01*
X130507619Y-105454819D02*
X130602857Y-105502438D01*
X130602857Y-105502438D02*
X130650476Y-105550057D01*
X130650476Y-105550057D02*
X130698095Y-105645295D01*
X130698095Y-105645295D02*
X130745714Y-105835771D01*
X130745714Y-105835771D02*
X130745714Y-106073866D01*
X130745714Y-106073866D02*
X130698095Y-106264342D01*
X130698095Y-106264342D02*
X130650476Y-106359580D01*
X130650476Y-106359580D02*
X130602857Y-106407200D01*
X130602857Y-106407200D02*
X130507619Y-106454819D01*
X130507619Y-106454819D02*
X130412381Y-106454819D01*
X130412381Y-106454819D02*
X130317143Y-106407200D01*
X130317143Y-106407200D02*
X130269524Y-106359580D01*
X130269524Y-106359580D02*
X130221905Y-106264342D01*
X130221905Y-106264342D02*
X130174286Y-106073866D01*
X130174286Y-106073866D02*
X130174286Y-105835771D01*
X130174286Y-105835771D02*
X130221905Y-105645295D01*
X130221905Y-105645295D02*
X130269524Y-105550057D01*
X130269524Y-105550057D02*
X130317143Y-105502438D01*
X130317143Y-105502438D02*
X130412381Y-105454819D01*
X131650476Y-105454819D02*
X131174286Y-105454819D01*
X131174286Y-105454819D02*
X131126667Y-105931009D01*
X131126667Y-105931009D02*
X131174286Y-105883390D01*
X131174286Y-105883390D02*
X131269524Y-105835771D01*
X131269524Y-105835771D02*
X131507619Y-105835771D01*
X131507619Y-105835771D02*
X131602857Y-105883390D01*
X131602857Y-105883390D02*
X131650476Y-105931009D01*
X131650476Y-105931009D02*
X131698095Y-106026247D01*
X131698095Y-106026247D02*
X131698095Y-106264342D01*
X131698095Y-106264342D02*
X131650476Y-106359580D01*
X131650476Y-106359580D02*
X131602857Y-106407200D01*
X131602857Y-106407200D02*
X131507619Y-106454819D01*
X131507619Y-106454819D02*
X131269524Y-106454819D01*
X131269524Y-106454819D02*
X131174286Y-106407200D01*
X131174286Y-106407200D02*
X131126667Y-106359580D01*
X128269524Y-104554819D02*
X128269524Y-103554819D01*
X128269524Y-103554819D02*
X128650476Y-103554819D01*
X128650476Y-103554819D02*
X128745714Y-103602438D01*
X128745714Y-103602438D02*
X128793333Y-103650057D01*
X128793333Y-103650057D02*
X128840952Y-103745295D01*
X128840952Y-103745295D02*
X128840952Y-103888152D01*
X128840952Y-103888152D02*
X128793333Y-103983390D01*
X128793333Y-103983390D02*
X128745714Y-104031009D01*
X128745714Y-104031009D02*
X128650476Y-104078628D01*
X128650476Y-104078628D02*
X128269524Y-104078628D01*
X129745714Y-103554819D02*
X129269524Y-103554819D01*
X129269524Y-103554819D02*
X129221905Y-104031009D01*
X129221905Y-104031009D02*
X129269524Y-103983390D01*
X129269524Y-103983390D02*
X129364762Y-103935771D01*
X129364762Y-103935771D02*
X129602857Y-103935771D01*
X129602857Y-103935771D02*
X129698095Y-103983390D01*
X129698095Y-103983390D02*
X129745714Y-104031009D01*
X129745714Y-104031009D02*
X129793333Y-104126247D01*
X129793333Y-104126247D02*
X129793333Y-104364342D01*
X129793333Y-104364342D02*
X129745714Y-104459580D01*
X129745714Y-104459580D02*
X129698095Y-104507200D01*
X129698095Y-104507200D02*
X129602857Y-104554819D01*
X129602857Y-104554819D02*
X129364762Y-104554819D01*
X129364762Y-104554819D02*
X129269524Y-104507200D01*
X129269524Y-104507200D02*
X129221905Y-104459580D01*
X130412381Y-103554819D02*
X130507619Y-103554819D01*
X130507619Y-103554819D02*
X130602857Y-103602438D01*
X130602857Y-103602438D02*
X130650476Y-103650057D01*
X130650476Y-103650057D02*
X130698095Y-103745295D01*
X130698095Y-103745295D02*
X130745714Y-103935771D01*
X130745714Y-103935771D02*
X130745714Y-104173866D01*
X130745714Y-104173866D02*
X130698095Y-104364342D01*
X130698095Y-104364342D02*
X130650476Y-104459580D01*
X130650476Y-104459580D02*
X130602857Y-104507200D01*
X130602857Y-104507200D02*
X130507619Y-104554819D01*
X130507619Y-104554819D02*
X130412381Y-104554819D01*
X130412381Y-104554819D02*
X130317143Y-104507200D01*
X130317143Y-104507200D02*
X130269524Y-104459580D01*
X130269524Y-104459580D02*
X130221905Y-104364342D01*
X130221905Y-104364342D02*
X130174286Y-104173866D01*
X130174286Y-104173866D02*
X130174286Y-103935771D01*
X130174286Y-103935771D02*
X130221905Y-103745295D01*
X130221905Y-103745295D02*
X130269524Y-103650057D01*
X130269524Y-103650057D02*
X130317143Y-103602438D01*
X130317143Y-103602438D02*
X130412381Y-103554819D01*
X131650476Y-103554819D02*
X131174286Y-103554819D01*
X131174286Y-103554819D02*
X131126667Y-104031009D01*
X131126667Y-104031009D02*
X131174286Y-103983390D01*
X131174286Y-103983390D02*
X131269524Y-103935771D01*
X131269524Y-103935771D02*
X131507619Y-103935771D01*
X131507619Y-103935771D02*
X131602857Y-103983390D01*
X131602857Y-103983390D02*
X131650476Y-104031009D01*
X131650476Y-104031009D02*
X131698095Y-104126247D01*
X131698095Y-104126247D02*
X131698095Y-104364342D01*
X131698095Y-104364342D02*
X131650476Y-104459580D01*
X131650476Y-104459580D02*
X131602857Y-104507200D01*
X131602857Y-104507200D02*
X131507619Y-104554819D01*
X131507619Y-104554819D02*
X131269524Y-104554819D01*
X131269524Y-104554819D02*
X131174286Y-104507200D01*
X131174286Y-104507200D02*
X131126667Y-104459580D01*
X96269524Y-106454819D02*
X96269524Y-105454819D01*
X96269524Y-105454819D02*
X96650476Y-105454819D01*
X96650476Y-105454819D02*
X96745714Y-105502438D01*
X96745714Y-105502438D02*
X96793333Y-105550057D01*
X96793333Y-105550057D02*
X96840952Y-105645295D01*
X96840952Y-105645295D02*
X96840952Y-105788152D01*
X96840952Y-105788152D02*
X96793333Y-105883390D01*
X96793333Y-105883390D02*
X96745714Y-105931009D01*
X96745714Y-105931009D02*
X96650476Y-105978628D01*
X96650476Y-105978628D02*
X96269524Y-105978628D01*
X97745714Y-105454819D02*
X97269524Y-105454819D01*
X97269524Y-105454819D02*
X97221905Y-105931009D01*
X97221905Y-105931009D02*
X97269524Y-105883390D01*
X97269524Y-105883390D02*
X97364762Y-105835771D01*
X97364762Y-105835771D02*
X97602857Y-105835771D01*
X97602857Y-105835771D02*
X97698095Y-105883390D01*
X97698095Y-105883390D02*
X97745714Y-105931009D01*
X97745714Y-105931009D02*
X97793333Y-106026247D01*
X97793333Y-106026247D02*
X97793333Y-106264342D01*
X97793333Y-106264342D02*
X97745714Y-106359580D01*
X97745714Y-106359580D02*
X97698095Y-106407200D01*
X97698095Y-106407200D02*
X97602857Y-106454819D01*
X97602857Y-106454819D02*
X97364762Y-106454819D01*
X97364762Y-106454819D02*
X97269524Y-106407200D01*
X97269524Y-106407200D02*
X97221905Y-106359580D01*
X98412381Y-105454819D02*
X98507619Y-105454819D01*
X98507619Y-105454819D02*
X98602857Y-105502438D01*
X98602857Y-105502438D02*
X98650476Y-105550057D01*
X98650476Y-105550057D02*
X98698095Y-105645295D01*
X98698095Y-105645295D02*
X98745714Y-105835771D01*
X98745714Y-105835771D02*
X98745714Y-106073866D01*
X98745714Y-106073866D02*
X98698095Y-106264342D01*
X98698095Y-106264342D02*
X98650476Y-106359580D01*
X98650476Y-106359580D02*
X98602857Y-106407200D01*
X98602857Y-106407200D02*
X98507619Y-106454819D01*
X98507619Y-106454819D02*
X98412381Y-106454819D01*
X98412381Y-106454819D02*
X98317143Y-106407200D01*
X98317143Y-106407200D02*
X98269524Y-106359580D01*
X98269524Y-106359580D02*
X98221905Y-106264342D01*
X98221905Y-106264342D02*
X98174286Y-106073866D01*
X98174286Y-106073866D02*
X98174286Y-105835771D01*
X98174286Y-105835771D02*
X98221905Y-105645295D01*
X98221905Y-105645295D02*
X98269524Y-105550057D01*
X98269524Y-105550057D02*
X98317143Y-105502438D01*
X98317143Y-105502438D02*
X98412381Y-105454819D01*
X99079048Y-105454819D02*
X99698095Y-105454819D01*
X99698095Y-105454819D02*
X99364762Y-105835771D01*
X99364762Y-105835771D02*
X99507619Y-105835771D01*
X99507619Y-105835771D02*
X99602857Y-105883390D01*
X99602857Y-105883390D02*
X99650476Y-105931009D01*
X99650476Y-105931009D02*
X99698095Y-106026247D01*
X99698095Y-106026247D02*
X99698095Y-106264342D01*
X99698095Y-106264342D02*
X99650476Y-106359580D01*
X99650476Y-106359580D02*
X99602857Y-106407200D01*
X99602857Y-106407200D02*
X99507619Y-106454819D01*
X99507619Y-106454819D02*
X99221905Y-106454819D01*
X99221905Y-106454819D02*
X99126667Y-106407200D01*
X99126667Y-106407200D02*
X99079048Y-106359580D01*
X96269524Y-104554819D02*
X96269524Y-103554819D01*
X96269524Y-103554819D02*
X96650476Y-103554819D01*
X96650476Y-103554819D02*
X96745714Y-103602438D01*
X96745714Y-103602438D02*
X96793333Y-103650057D01*
X96793333Y-103650057D02*
X96840952Y-103745295D01*
X96840952Y-103745295D02*
X96840952Y-103888152D01*
X96840952Y-103888152D02*
X96793333Y-103983390D01*
X96793333Y-103983390D02*
X96745714Y-104031009D01*
X96745714Y-104031009D02*
X96650476Y-104078628D01*
X96650476Y-104078628D02*
X96269524Y-104078628D01*
X97745714Y-103554819D02*
X97269524Y-103554819D01*
X97269524Y-103554819D02*
X97221905Y-104031009D01*
X97221905Y-104031009D02*
X97269524Y-103983390D01*
X97269524Y-103983390D02*
X97364762Y-103935771D01*
X97364762Y-103935771D02*
X97602857Y-103935771D01*
X97602857Y-103935771D02*
X97698095Y-103983390D01*
X97698095Y-103983390D02*
X97745714Y-104031009D01*
X97745714Y-104031009D02*
X97793333Y-104126247D01*
X97793333Y-104126247D02*
X97793333Y-104364342D01*
X97793333Y-104364342D02*
X97745714Y-104459580D01*
X97745714Y-104459580D02*
X97698095Y-104507200D01*
X97698095Y-104507200D02*
X97602857Y-104554819D01*
X97602857Y-104554819D02*
X97364762Y-104554819D01*
X97364762Y-104554819D02*
X97269524Y-104507200D01*
X97269524Y-104507200D02*
X97221905Y-104459580D01*
X98412381Y-103554819D02*
X98507619Y-103554819D01*
X98507619Y-103554819D02*
X98602857Y-103602438D01*
X98602857Y-103602438D02*
X98650476Y-103650057D01*
X98650476Y-103650057D02*
X98698095Y-103745295D01*
X98698095Y-103745295D02*
X98745714Y-103935771D01*
X98745714Y-103935771D02*
X98745714Y-104173866D01*
X98745714Y-104173866D02*
X98698095Y-104364342D01*
X98698095Y-104364342D02*
X98650476Y-104459580D01*
X98650476Y-104459580D02*
X98602857Y-104507200D01*
X98602857Y-104507200D02*
X98507619Y-104554819D01*
X98507619Y-104554819D02*
X98412381Y-104554819D01*
X98412381Y-104554819D02*
X98317143Y-104507200D01*
X98317143Y-104507200D02*
X98269524Y-104459580D01*
X98269524Y-104459580D02*
X98221905Y-104364342D01*
X98221905Y-104364342D02*
X98174286Y-104173866D01*
X98174286Y-104173866D02*
X98174286Y-103935771D01*
X98174286Y-103935771D02*
X98221905Y-103745295D01*
X98221905Y-103745295D02*
X98269524Y-103650057D01*
X98269524Y-103650057D02*
X98317143Y-103602438D01*
X98317143Y-103602438D02*
X98412381Y-103554819D01*
X99079048Y-103554819D02*
X99698095Y-103554819D01*
X99698095Y-103554819D02*
X99364762Y-103935771D01*
X99364762Y-103935771D02*
X99507619Y-103935771D01*
X99507619Y-103935771D02*
X99602857Y-103983390D01*
X99602857Y-103983390D02*
X99650476Y-104031009D01*
X99650476Y-104031009D02*
X99698095Y-104126247D01*
X99698095Y-104126247D02*
X99698095Y-104364342D01*
X99698095Y-104364342D02*
X99650476Y-104459580D01*
X99650476Y-104459580D02*
X99602857Y-104507200D01*
X99602857Y-104507200D02*
X99507619Y-104554819D01*
X99507619Y-104554819D02*
X99221905Y-104554819D01*
X99221905Y-104554819D02*
X99126667Y-104507200D01*
X99126667Y-104507200D02*
X99079048Y-104459580D01*
X60511904Y-70188152D02*
X60511904Y-70854819D01*
X60273809Y-69807200D02*
X60035714Y-70521485D01*
X60035714Y-70521485D02*
X60654761Y-70521485D01*
X60940476Y-69854819D02*
X61607142Y-69854819D01*
X61607142Y-69854819D02*
X61178571Y-70854819D01*
X62416666Y-70188152D02*
X62416666Y-70854819D01*
X61988095Y-70188152D02*
X61988095Y-70711961D01*
X61988095Y-70711961D02*
X62035714Y-70807200D01*
X62035714Y-70807200D02*
X62130952Y-70854819D01*
X62130952Y-70854819D02*
X62273809Y-70854819D01*
X62273809Y-70854819D02*
X62369047Y-70807200D01*
X62369047Y-70807200D02*
X62416666Y-70759580D01*
X60130952Y-66359580D02*
X60083333Y-66407200D01*
X60083333Y-66407200D02*
X59940476Y-66454819D01*
X59940476Y-66454819D02*
X59845238Y-66454819D01*
X59845238Y-66454819D02*
X59702381Y-66407200D01*
X59702381Y-66407200D02*
X59607143Y-66311961D01*
X59607143Y-66311961D02*
X59559524Y-66216723D01*
X59559524Y-66216723D02*
X59511905Y-66026247D01*
X59511905Y-66026247D02*
X59511905Y-65883390D01*
X59511905Y-65883390D02*
X59559524Y-65692914D01*
X59559524Y-65692914D02*
X59607143Y-65597676D01*
X59607143Y-65597676D02*
X59702381Y-65502438D01*
X59702381Y-65502438D02*
X59845238Y-65454819D01*
X59845238Y-65454819D02*
X59940476Y-65454819D01*
X59940476Y-65454819D02*
X60083333Y-65502438D01*
X60083333Y-65502438D02*
X60130952Y-65550057D01*
X61035714Y-65454819D02*
X60559524Y-65454819D01*
X60559524Y-65454819D02*
X60511905Y-65931009D01*
X60511905Y-65931009D02*
X60559524Y-65883390D01*
X60559524Y-65883390D02*
X60654762Y-65835771D01*
X60654762Y-65835771D02*
X60892857Y-65835771D01*
X60892857Y-65835771D02*
X60988095Y-65883390D01*
X60988095Y-65883390D02*
X61035714Y-65931009D01*
X61035714Y-65931009D02*
X61083333Y-66026247D01*
X61083333Y-66026247D02*
X61083333Y-66264342D01*
X61083333Y-66264342D02*
X61035714Y-66359580D01*
X61035714Y-66359580D02*
X60988095Y-66407200D01*
X60988095Y-66407200D02*
X60892857Y-66454819D01*
X60892857Y-66454819D02*
X60654762Y-66454819D01*
X60654762Y-66454819D02*
X60559524Y-66407200D01*
X60559524Y-66407200D02*
X60511905Y-66359580D01*
X61702381Y-65454819D02*
X61797619Y-65454819D01*
X61797619Y-65454819D02*
X61892857Y-65502438D01*
X61892857Y-65502438D02*
X61940476Y-65550057D01*
X61940476Y-65550057D02*
X61988095Y-65645295D01*
X61988095Y-65645295D02*
X62035714Y-65835771D01*
X62035714Y-65835771D02*
X62035714Y-66073866D01*
X62035714Y-66073866D02*
X61988095Y-66264342D01*
X61988095Y-66264342D02*
X61940476Y-66359580D01*
X61940476Y-66359580D02*
X61892857Y-66407200D01*
X61892857Y-66407200D02*
X61797619Y-66454819D01*
X61797619Y-66454819D02*
X61702381Y-66454819D01*
X61702381Y-66454819D02*
X61607143Y-66407200D01*
X61607143Y-66407200D02*
X61559524Y-66359580D01*
X61559524Y-66359580D02*
X61511905Y-66264342D01*
X61511905Y-66264342D02*
X61464286Y-66073866D01*
X61464286Y-66073866D02*
X61464286Y-65835771D01*
X61464286Y-65835771D02*
X61511905Y-65645295D01*
X61511905Y-65645295D02*
X61559524Y-65550057D01*
X61559524Y-65550057D02*
X61607143Y-65502438D01*
X61607143Y-65502438D02*
X61702381Y-65454819D01*
X62369048Y-65454819D02*
X63035714Y-65454819D01*
X63035714Y-65454819D02*
X62607143Y-66454819D01*
X93380952Y-70704819D02*
X92809524Y-70704819D01*
X93095238Y-70704819D02*
X93095238Y-69704819D01*
X93095238Y-69704819D02*
X93000000Y-69847676D01*
X93000000Y-69847676D02*
X92904762Y-69942914D01*
X92904762Y-69942914D02*
X92809524Y-69990533D01*
X94000000Y-69704819D02*
X94095238Y-69704819D01*
X94095238Y-69704819D02*
X94190476Y-69752438D01*
X94190476Y-69752438D02*
X94238095Y-69800057D01*
X94238095Y-69800057D02*
X94285714Y-69895295D01*
X94285714Y-69895295D02*
X94333333Y-70085771D01*
X94333333Y-70085771D02*
X94333333Y-70323866D01*
X94333333Y-70323866D02*
X94285714Y-70514342D01*
X94285714Y-70514342D02*
X94238095Y-70609580D01*
X94238095Y-70609580D02*
X94190476Y-70657200D01*
X94190476Y-70657200D02*
X94095238Y-70704819D01*
X94095238Y-70704819D02*
X94000000Y-70704819D01*
X94000000Y-70704819D02*
X93904762Y-70657200D01*
X93904762Y-70657200D02*
X93857143Y-70609580D01*
X93857143Y-70609580D02*
X93809524Y-70514342D01*
X93809524Y-70514342D02*
X93761905Y-70323866D01*
X93761905Y-70323866D02*
X93761905Y-70085771D01*
X93761905Y-70085771D02*
X93809524Y-69895295D01*
X93809524Y-69895295D02*
X93857143Y-69800057D01*
X93857143Y-69800057D02*
X93904762Y-69752438D01*
X93904762Y-69752438D02*
X94000000Y-69704819D01*
X94952381Y-69704819D02*
X95047619Y-69704819D01*
X95047619Y-69704819D02*
X95142857Y-69752438D01*
X95142857Y-69752438D02*
X95190476Y-69800057D01*
X95190476Y-69800057D02*
X95238095Y-69895295D01*
X95238095Y-69895295D02*
X95285714Y-70085771D01*
X95285714Y-70085771D02*
X95285714Y-70323866D01*
X95285714Y-70323866D02*
X95238095Y-70514342D01*
X95238095Y-70514342D02*
X95190476Y-70609580D01*
X95190476Y-70609580D02*
X95142857Y-70657200D01*
X95142857Y-70657200D02*
X95047619Y-70704819D01*
X95047619Y-70704819D02*
X94952381Y-70704819D01*
X94952381Y-70704819D02*
X94857143Y-70657200D01*
X94857143Y-70657200D02*
X94809524Y-70609580D01*
X94809524Y-70609580D02*
X94761905Y-70514342D01*
X94761905Y-70514342D02*
X94714286Y-70323866D01*
X94714286Y-70323866D02*
X94714286Y-70085771D01*
X94714286Y-70085771D02*
X94761905Y-69895295D01*
X94761905Y-69895295D02*
X94809524Y-69800057D01*
X94809524Y-69800057D02*
X94857143Y-69752438D01*
X94857143Y-69752438D02*
X94952381Y-69704819D01*
X96142857Y-70038152D02*
X96142857Y-70704819D01*
X95714286Y-70038152D02*
X95714286Y-70561961D01*
X95714286Y-70561961D02*
X95761905Y-70657200D01*
X95761905Y-70657200D02*
X95857143Y-70704819D01*
X95857143Y-70704819D02*
X96000000Y-70704819D01*
X96000000Y-70704819D02*
X96095238Y-70657200D01*
X96095238Y-70657200D02*
X96142857Y-70609580D01*
X93380952Y-64359580D02*
X93333333Y-64407200D01*
X93333333Y-64407200D02*
X93190476Y-64454819D01*
X93190476Y-64454819D02*
X93095238Y-64454819D01*
X93095238Y-64454819D02*
X92952381Y-64407200D01*
X92952381Y-64407200D02*
X92857143Y-64311961D01*
X92857143Y-64311961D02*
X92809524Y-64216723D01*
X92809524Y-64216723D02*
X92761905Y-64026247D01*
X92761905Y-64026247D02*
X92761905Y-63883390D01*
X92761905Y-63883390D02*
X92809524Y-63692914D01*
X92809524Y-63692914D02*
X92857143Y-63597676D01*
X92857143Y-63597676D02*
X92952381Y-63502438D01*
X92952381Y-63502438D02*
X93095238Y-63454819D01*
X93095238Y-63454819D02*
X93190476Y-63454819D01*
X93190476Y-63454819D02*
X93333333Y-63502438D01*
X93333333Y-63502438D02*
X93380952Y-63550057D01*
X94285714Y-63454819D02*
X93809524Y-63454819D01*
X93809524Y-63454819D02*
X93761905Y-63931009D01*
X93761905Y-63931009D02*
X93809524Y-63883390D01*
X93809524Y-63883390D02*
X93904762Y-63835771D01*
X93904762Y-63835771D02*
X94142857Y-63835771D01*
X94142857Y-63835771D02*
X94238095Y-63883390D01*
X94238095Y-63883390D02*
X94285714Y-63931009D01*
X94285714Y-63931009D02*
X94333333Y-64026247D01*
X94333333Y-64026247D02*
X94333333Y-64264342D01*
X94333333Y-64264342D02*
X94285714Y-64359580D01*
X94285714Y-64359580D02*
X94238095Y-64407200D01*
X94238095Y-64407200D02*
X94142857Y-64454819D01*
X94142857Y-64454819D02*
X93904762Y-64454819D01*
X93904762Y-64454819D02*
X93809524Y-64407200D01*
X93809524Y-64407200D02*
X93761905Y-64359580D01*
X94952381Y-63454819D02*
X95047619Y-63454819D01*
X95047619Y-63454819D02*
X95142857Y-63502438D01*
X95142857Y-63502438D02*
X95190476Y-63550057D01*
X95190476Y-63550057D02*
X95238095Y-63645295D01*
X95238095Y-63645295D02*
X95285714Y-63835771D01*
X95285714Y-63835771D02*
X95285714Y-64073866D01*
X95285714Y-64073866D02*
X95238095Y-64264342D01*
X95238095Y-64264342D02*
X95190476Y-64359580D01*
X95190476Y-64359580D02*
X95142857Y-64407200D01*
X95142857Y-64407200D02*
X95047619Y-64454819D01*
X95047619Y-64454819D02*
X94952381Y-64454819D01*
X94952381Y-64454819D02*
X94857143Y-64407200D01*
X94857143Y-64407200D02*
X94809524Y-64359580D01*
X94809524Y-64359580D02*
X94761905Y-64264342D01*
X94761905Y-64264342D02*
X94714286Y-64073866D01*
X94714286Y-64073866D02*
X94714286Y-63835771D01*
X94714286Y-63835771D02*
X94761905Y-63645295D01*
X94761905Y-63645295D02*
X94809524Y-63550057D01*
X94809524Y-63550057D02*
X94857143Y-63502438D01*
X94857143Y-63502438D02*
X94952381Y-63454819D01*
X95761905Y-64454819D02*
X95952381Y-64454819D01*
X95952381Y-64454819D02*
X96047619Y-64407200D01*
X96047619Y-64407200D02*
X96095238Y-64359580D01*
X96095238Y-64359580D02*
X96190476Y-64216723D01*
X96190476Y-64216723D02*
X96238095Y-64026247D01*
X96238095Y-64026247D02*
X96238095Y-63645295D01*
X96238095Y-63645295D02*
X96190476Y-63550057D01*
X96190476Y-63550057D02*
X96142857Y-63502438D01*
X96142857Y-63502438D02*
X96047619Y-63454819D01*
X96047619Y-63454819D02*
X95857143Y-63454819D01*
X95857143Y-63454819D02*
X95761905Y-63502438D01*
X95761905Y-63502438D02*
X95714286Y-63550057D01*
X95714286Y-63550057D02*
X95666667Y-63645295D01*
X95666667Y-63645295D02*
X95666667Y-63883390D01*
X95666667Y-63883390D02*
X95714286Y-63978628D01*
X95714286Y-63978628D02*
X95761905Y-64026247D01*
X95761905Y-64026247D02*
X95857143Y-64073866D01*
X95857143Y-64073866D02*
X96047619Y-64073866D01*
X96047619Y-64073866D02*
X96142857Y-64026247D01*
X96142857Y-64026247D02*
X96190476Y-63978628D01*
X96190476Y-63978628D02*
X96238095Y-63883390D01*
X143190476Y-40604819D02*
X143190476Y-39604819D01*
X143190476Y-39604819D02*
X143523809Y-40319104D01*
X143523809Y-40319104D02*
X143857142Y-39604819D01*
X143857142Y-39604819D02*
X143857142Y-40604819D01*
X144238095Y-39604819D02*
X144857142Y-39604819D01*
X144857142Y-39604819D02*
X144523809Y-39985771D01*
X144523809Y-39985771D02*
X144666666Y-39985771D01*
X144666666Y-39985771D02*
X144761904Y-40033390D01*
X144761904Y-40033390D02*
X144809523Y-40081009D01*
X144809523Y-40081009D02*
X144857142Y-40176247D01*
X144857142Y-40176247D02*
X144857142Y-40414342D01*
X144857142Y-40414342D02*
X144809523Y-40509580D01*
X144809523Y-40509580D02*
X144761904Y-40557200D01*
X144761904Y-40557200D02*
X144666666Y-40604819D01*
X144666666Y-40604819D02*
X144380952Y-40604819D01*
X144380952Y-40604819D02*
X144285714Y-40557200D01*
X144285714Y-40557200D02*
X144238095Y-40509580D01*
X143238095Y-36454819D02*
X143238095Y-35454819D01*
X143238095Y-35931009D02*
X143809523Y-35931009D01*
X143809523Y-36454819D02*
X143809523Y-35454819D01*
X144238095Y-35550057D02*
X144285714Y-35502438D01*
X144285714Y-35502438D02*
X144380952Y-35454819D01*
X144380952Y-35454819D02*
X144619047Y-35454819D01*
X144619047Y-35454819D02*
X144714285Y-35502438D01*
X144714285Y-35502438D02*
X144761904Y-35550057D01*
X144761904Y-35550057D02*
X144809523Y-35645295D01*
X144809523Y-35645295D02*
X144809523Y-35740533D01*
X144809523Y-35740533D02*
X144761904Y-35883390D01*
X144761904Y-35883390D02*
X144190476Y-36454819D01*
X144190476Y-36454819D02*
X144809523Y-36454819D01*
X64269524Y-106454819D02*
X64269524Y-105454819D01*
X64269524Y-105454819D02*
X64650476Y-105454819D01*
X64650476Y-105454819D02*
X64745714Y-105502438D01*
X64745714Y-105502438D02*
X64793333Y-105550057D01*
X64793333Y-105550057D02*
X64840952Y-105645295D01*
X64840952Y-105645295D02*
X64840952Y-105788152D01*
X64840952Y-105788152D02*
X64793333Y-105883390D01*
X64793333Y-105883390D02*
X64745714Y-105931009D01*
X64745714Y-105931009D02*
X64650476Y-105978628D01*
X64650476Y-105978628D02*
X64269524Y-105978628D01*
X65745714Y-105454819D02*
X65269524Y-105454819D01*
X65269524Y-105454819D02*
X65221905Y-105931009D01*
X65221905Y-105931009D02*
X65269524Y-105883390D01*
X65269524Y-105883390D02*
X65364762Y-105835771D01*
X65364762Y-105835771D02*
X65602857Y-105835771D01*
X65602857Y-105835771D02*
X65698095Y-105883390D01*
X65698095Y-105883390D02*
X65745714Y-105931009D01*
X65745714Y-105931009D02*
X65793333Y-106026247D01*
X65793333Y-106026247D02*
X65793333Y-106264342D01*
X65793333Y-106264342D02*
X65745714Y-106359580D01*
X65745714Y-106359580D02*
X65698095Y-106407200D01*
X65698095Y-106407200D02*
X65602857Y-106454819D01*
X65602857Y-106454819D02*
X65364762Y-106454819D01*
X65364762Y-106454819D02*
X65269524Y-106407200D01*
X65269524Y-106407200D02*
X65221905Y-106359580D01*
X66412381Y-105454819D02*
X66507619Y-105454819D01*
X66507619Y-105454819D02*
X66602857Y-105502438D01*
X66602857Y-105502438D02*
X66650476Y-105550057D01*
X66650476Y-105550057D02*
X66698095Y-105645295D01*
X66698095Y-105645295D02*
X66745714Y-105835771D01*
X66745714Y-105835771D02*
X66745714Y-106073866D01*
X66745714Y-106073866D02*
X66698095Y-106264342D01*
X66698095Y-106264342D02*
X66650476Y-106359580D01*
X66650476Y-106359580D02*
X66602857Y-106407200D01*
X66602857Y-106407200D02*
X66507619Y-106454819D01*
X66507619Y-106454819D02*
X66412381Y-106454819D01*
X66412381Y-106454819D02*
X66317143Y-106407200D01*
X66317143Y-106407200D02*
X66269524Y-106359580D01*
X66269524Y-106359580D02*
X66221905Y-106264342D01*
X66221905Y-106264342D02*
X66174286Y-106073866D01*
X66174286Y-106073866D02*
X66174286Y-105835771D01*
X66174286Y-105835771D02*
X66221905Y-105645295D01*
X66221905Y-105645295D02*
X66269524Y-105550057D01*
X66269524Y-105550057D02*
X66317143Y-105502438D01*
X66317143Y-105502438D02*
X66412381Y-105454819D01*
X67698095Y-106454819D02*
X67126667Y-106454819D01*
X67412381Y-106454819D02*
X67412381Y-105454819D01*
X67412381Y-105454819D02*
X67317143Y-105597676D01*
X67317143Y-105597676D02*
X67221905Y-105692914D01*
X67221905Y-105692914D02*
X67126667Y-105740533D01*
X64269524Y-104554819D02*
X64269524Y-103554819D01*
X64269524Y-103554819D02*
X64650476Y-103554819D01*
X64650476Y-103554819D02*
X64745714Y-103602438D01*
X64745714Y-103602438D02*
X64793333Y-103650057D01*
X64793333Y-103650057D02*
X64840952Y-103745295D01*
X64840952Y-103745295D02*
X64840952Y-103888152D01*
X64840952Y-103888152D02*
X64793333Y-103983390D01*
X64793333Y-103983390D02*
X64745714Y-104031009D01*
X64745714Y-104031009D02*
X64650476Y-104078628D01*
X64650476Y-104078628D02*
X64269524Y-104078628D01*
X65745714Y-103554819D02*
X65269524Y-103554819D01*
X65269524Y-103554819D02*
X65221905Y-104031009D01*
X65221905Y-104031009D02*
X65269524Y-103983390D01*
X65269524Y-103983390D02*
X65364762Y-103935771D01*
X65364762Y-103935771D02*
X65602857Y-103935771D01*
X65602857Y-103935771D02*
X65698095Y-103983390D01*
X65698095Y-103983390D02*
X65745714Y-104031009D01*
X65745714Y-104031009D02*
X65793333Y-104126247D01*
X65793333Y-104126247D02*
X65793333Y-104364342D01*
X65793333Y-104364342D02*
X65745714Y-104459580D01*
X65745714Y-104459580D02*
X65698095Y-104507200D01*
X65698095Y-104507200D02*
X65602857Y-104554819D01*
X65602857Y-104554819D02*
X65364762Y-104554819D01*
X65364762Y-104554819D02*
X65269524Y-104507200D01*
X65269524Y-104507200D02*
X65221905Y-104459580D01*
X66412381Y-103554819D02*
X66507619Y-103554819D01*
X66507619Y-103554819D02*
X66602857Y-103602438D01*
X66602857Y-103602438D02*
X66650476Y-103650057D01*
X66650476Y-103650057D02*
X66698095Y-103745295D01*
X66698095Y-103745295D02*
X66745714Y-103935771D01*
X66745714Y-103935771D02*
X66745714Y-104173866D01*
X66745714Y-104173866D02*
X66698095Y-104364342D01*
X66698095Y-104364342D02*
X66650476Y-104459580D01*
X66650476Y-104459580D02*
X66602857Y-104507200D01*
X66602857Y-104507200D02*
X66507619Y-104554819D01*
X66507619Y-104554819D02*
X66412381Y-104554819D01*
X66412381Y-104554819D02*
X66317143Y-104507200D01*
X66317143Y-104507200D02*
X66269524Y-104459580D01*
X66269524Y-104459580D02*
X66221905Y-104364342D01*
X66221905Y-104364342D02*
X66174286Y-104173866D01*
X66174286Y-104173866D02*
X66174286Y-103935771D01*
X66174286Y-103935771D02*
X66221905Y-103745295D01*
X66221905Y-103745295D02*
X66269524Y-103650057D01*
X66269524Y-103650057D02*
X66317143Y-103602438D01*
X66317143Y-103602438D02*
X66412381Y-103554819D01*
X67698095Y-104554819D02*
X67126667Y-104554819D01*
X67412381Y-104554819D02*
X67412381Y-103554819D01*
X67412381Y-103554819D02*
X67317143Y-103697676D01*
X67317143Y-103697676D02*
X67221905Y-103792914D01*
X67221905Y-103792914D02*
X67126667Y-103840533D01*
X35190476Y-108604819D02*
X35190476Y-107604819D01*
X35190476Y-107604819D02*
X35523809Y-108319104D01*
X35523809Y-108319104D02*
X35857142Y-107604819D01*
X35857142Y-107604819D02*
X35857142Y-108604819D01*
X36238095Y-107604819D02*
X36857142Y-107604819D01*
X36857142Y-107604819D02*
X36523809Y-107985771D01*
X36523809Y-107985771D02*
X36666666Y-107985771D01*
X36666666Y-107985771D02*
X36761904Y-108033390D01*
X36761904Y-108033390D02*
X36809523Y-108081009D01*
X36809523Y-108081009D02*
X36857142Y-108176247D01*
X36857142Y-108176247D02*
X36857142Y-108414342D01*
X36857142Y-108414342D02*
X36809523Y-108509580D01*
X36809523Y-108509580D02*
X36761904Y-108557200D01*
X36761904Y-108557200D02*
X36666666Y-108604819D01*
X36666666Y-108604819D02*
X36380952Y-108604819D01*
X36380952Y-108604819D02*
X36285714Y-108557200D01*
X36285714Y-108557200D02*
X36238095Y-108509580D01*
X35238095Y-104454819D02*
X35238095Y-103454819D01*
X35238095Y-103931009D02*
X35809523Y-103931009D01*
X35809523Y-104454819D02*
X35809523Y-103454819D01*
X36190476Y-103454819D02*
X36809523Y-103454819D01*
X36809523Y-103454819D02*
X36476190Y-103835771D01*
X36476190Y-103835771D02*
X36619047Y-103835771D01*
X36619047Y-103835771D02*
X36714285Y-103883390D01*
X36714285Y-103883390D02*
X36761904Y-103931009D01*
X36761904Y-103931009D02*
X36809523Y-104026247D01*
X36809523Y-104026247D02*
X36809523Y-104264342D01*
X36809523Y-104264342D02*
X36761904Y-104359580D01*
X36761904Y-104359580D02*
X36714285Y-104407200D01*
X36714285Y-104407200D02*
X36619047Y-104454819D01*
X36619047Y-104454819D02*
X36333333Y-104454819D01*
X36333333Y-104454819D02*
X36238095Y-104407200D01*
X36238095Y-104407200D02*
X36190476Y-104359580D01*
X105357142Y-84304819D02*
X104785714Y-84304819D01*
X105071428Y-84304819D02*
X105071428Y-83304819D01*
X105071428Y-83304819D02*
X104976190Y-83447676D01*
X104976190Y-83447676D02*
X104880952Y-83542914D01*
X104880952Y-83542914D02*
X104785714Y-83590533D01*
X105976190Y-83304819D02*
X106071428Y-83304819D01*
X106071428Y-83304819D02*
X106166666Y-83352438D01*
X106166666Y-83352438D02*
X106214285Y-83400057D01*
X106214285Y-83400057D02*
X106261904Y-83495295D01*
X106261904Y-83495295D02*
X106309523Y-83685771D01*
X106309523Y-83685771D02*
X106309523Y-83923866D01*
X106309523Y-83923866D02*
X106261904Y-84114342D01*
X106261904Y-84114342D02*
X106214285Y-84209580D01*
X106214285Y-84209580D02*
X106166666Y-84257200D01*
X106166666Y-84257200D02*
X106071428Y-84304819D01*
X106071428Y-84304819D02*
X105976190Y-84304819D01*
X105976190Y-84304819D02*
X105880952Y-84257200D01*
X105880952Y-84257200D02*
X105833333Y-84209580D01*
X105833333Y-84209580D02*
X105785714Y-84114342D01*
X105785714Y-84114342D02*
X105738095Y-83923866D01*
X105738095Y-83923866D02*
X105738095Y-83685771D01*
X105738095Y-83685771D02*
X105785714Y-83495295D01*
X105785714Y-83495295D02*
X105833333Y-83400057D01*
X105833333Y-83400057D02*
X105880952Y-83352438D01*
X105880952Y-83352438D02*
X105976190Y-83304819D01*
X107166666Y-83638152D02*
X107166666Y-84304819D01*
X106738095Y-83638152D02*
X106738095Y-84161961D01*
X106738095Y-84161961D02*
X106785714Y-84257200D01*
X106785714Y-84257200D02*
X106880952Y-84304819D01*
X106880952Y-84304819D02*
X107023809Y-84304819D01*
X107023809Y-84304819D02*
X107119047Y-84257200D01*
X107119047Y-84257200D02*
X107166666Y-84209580D01*
D11*
X105104762Y-82287664D02*
X105066666Y-82325760D01*
X105066666Y-82325760D02*
X104952381Y-82363855D01*
X104952381Y-82363855D02*
X104876190Y-82363855D01*
X104876190Y-82363855D02*
X104761904Y-82325760D01*
X104761904Y-82325760D02*
X104685714Y-82249569D01*
X104685714Y-82249569D02*
X104647619Y-82173379D01*
X104647619Y-82173379D02*
X104609523Y-82020998D01*
X104609523Y-82020998D02*
X104609523Y-81906712D01*
X104609523Y-81906712D02*
X104647619Y-81754331D01*
X104647619Y-81754331D02*
X104685714Y-81678140D01*
X104685714Y-81678140D02*
X104761904Y-81601950D01*
X104761904Y-81601950D02*
X104876190Y-81563855D01*
X104876190Y-81563855D02*
X104952381Y-81563855D01*
X104952381Y-81563855D02*
X105066666Y-81601950D01*
X105066666Y-81601950D02*
X105104762Y-81640045D01*
X105828571Y-81563855D02*
X105447619Y-81563855D01*
X105447619Y-81563855D02*
X105409523Y-81944807D01*
X105409523Y-81944807D02*
X105447619Y-81906712D01*
X105447619Y-81906712D02*
X105523809Y-81868617D01*
X105523809Y-81868617D02*
X105714285Y-81868617D01*
X105714285Y-81868617D02*
X105790476Y-81906712D01*
X105790476Y-81906712D02*
X105828571Y-81944807D01*
X105828571Y-81944807D02*
X105866666Y-82020998D01*
X105866666Y-82020998D02*
X105866666Y-82211474D01*
X105866666Y-82211474D02*
X105828571Y-82287664D01*
X105828571Y-82287664D02*
X105790476Y-82325760D01*
X105790476Y-82325760D02*
X105714285Y-82363855D01*
X105714285Y-82363855D02*
X105523809Y-82363855D01*
X105523809Y-82363855D02*
X105447619Y-82325760D01*
X105447619Y-82325760D02*
X105409523Y-82287664D01*
X106361905Y-81563855D02*
X106438095Y-81563855D01*
X106438095Y-81563855D02*
X106514286Y-81601950D01*
X106514286Y-81601950D02*
X106552381Y-81640045D01*
X106552381Y-81640045D02*
X106590476Y-81716236D01*
X106590476Y-81716236D02*
X106628571Y-81868617D01*
X106628571Y-81868617D02*
X106628571Y-82059093D01*
X106628571Y-82059093D02*
X106590476Y-82211474D01*
X106590476Y-82211474D02*
X106552381Y-82287664D01*
X106552381Y-82287664D02*
X106514286Y-82325760D01*
X106514286Y-82325760D02*
X106438095Y-82363855D01*
X106438095Y-82363855D02*
X106361905Y-82363855D01*
X106361905Y-82363855D02*
X106285714Y-82325760D01*
X106285714Y-82325760D02*
X106247619Y-82287664D01*
X106247619Y-82287664D02*
X106209524Y-82211474D01*
X106209524Y-82211474D02*
X106171428Y-82059093D01*
X106171428Y-82059093D02*
X106171428Y-81868617D01*
X106171428Y-81868617D02*
X106209524Y-81716236D01*
X106209524Y-81716236D02*
X106247619Y-81640045D01*
X106247619Y-81640045D02*
X106285714Y-81601950D01*
X106285714Y-81601950D02*
X106361905Y-81563855D01*
X107352381Y-81563855D02*
X106971429Y-81563855D01*
X106971429Y-81563855D02*
X106933333Y-81944807D01*
X106933333Y-81944807D02*
X106971429Y-81906712D01*
X106971429Y-81906712D02*
X107047619Y-81868617D01*
X107047619Y-81868617D02*
X107238095Y-81868617D01*
X107238095Y-81868617D02*
X107314286Y-81906712D01*
X107314286Y-81906712D02*
X107352381Y-81944807D01*
X107352381Y-81944807D02*
X107390476Y-82020998D01*
X107390476Y-82020998D02*
X107390476Y-82211474D01*
X107390476Y-82211474D02*
X107352381Y-82287664D01*
X107352381Y-82287664D02*
X107314286Y-82325760D01*
X107314286Y-82325760D02*
X107238095Y-82363855D01*
X107238095Y-82363855D02*
X107047619Y-82363855D01*
X107047619Y-82363855D02*
X106971429Y-82325760D01*
X106971429Y-82325760D02*
X106933333Y-82287664D01*
D10*
X50285714Y-49007200D02*
X50428571Y-49054819D01*
X50428571Y-49054819D02*
X50666666Y-49054819D01*
X50666666Y-49054819D02*
X50761904Y-49007200D01*
X50761904Y-49007200D02*
X50809523Y-48959580D01*
X50809523Y-48959580D02*
X50857142Y-48864342D01*
X50857142Y-48864342D02*
X50857142Y-48769104D01*
X50857142Y-48769104D02*
X50809523Y-48673866D01*
X50809523Y-48673866D02*
X50761904Y-48626247D01*
X50761904Y-48626247D02*
X50666666Y-48578628D01*
X50666666Y-48578628D02*
X50476190Y-48531009D01*
X50476190Y-48531009D02*
X50380952Y-48483390D01*
X50380952Y-48483390D02*
X50333333Y-48435771D01*
X50333333Y-48435771D02*
X50285714Y-48340533D01*
X50285714Y-48340533D02*
X50285714Y-48245295D01*
X50285714Y-48245295D02*
X50333333Y-48150057D01*
X50333333Y-48150057D02*
X50380952Y-48102438D01*
X50380952Y-48102438D02*
X50476190Y-48054819D01*
X50476190Y-48054819D02*
X50714285Y-48054819D01*
X50714285Y-48054819D02*
X50857142Y-48102438D01*
X51238095Y-49007200D02*
X51380952Y-49054819D01*
X51380952Y-49054819D02*
X51619047Y-49054819D01*
X51619047Y-49054819D02*
X51714285Y-49007200D01*
X51714285Y-49007200D02*
X51761904Y-48959580D01*
X51761904Y-48959580D02*
X51809523Y-48864342D01*
X51809523Y-48864342D02*
X51809523Y-48769104D01*
X51809523Y-48769104D02*
X51761904Y-48673866D01*
X51761904Y-48673866D02*
X51714285Y-48626247D01*
X51714285Y-48626247D02*
X51619047Y-48578628D01*
X51619047Y-48578628D02*
X51428571Y-48531009D01*
X51428571Y-48531009D02*
X51333333Y-48483390D01*
X51333333Y-48483390D02*
X51285714Y-48435771D01*
X51285714Y-48435771D02*
X51238095Y-48340533D01*
X51238095Y-48340533D02*
X51238095Y-48245295D01*
X51238095Y-48245295D02*
X51285714Y-48150057D01*
X51285714Y-48150057D02*
X51333333Y-48102438D01*
X51333333Y-48102438D02*
X51428571Y-48054819D01*
X51428571Y-48054819D02*
X51666666Y-48054819D01*
X51666666Y-48054819D02*
X51809523Y-48102438D01*
X52142857Y-48054819D02*
X52761904Y-48054819D01*
X52761904Y-48054819D02*
X52428571Y-48435771D01*
X52428571Y-48435771D02*
X52571428Y-48435771D01*
X52571428Y-48435771D02*
X52666666Y-48483390D01*
X52666666Y-48483390D02*
X52714285Y-48531009D01*
X52714285Y-48531009D02*
X52761904Y-48626247D01*
X52761904Y-48626247D02*
X52761904Y-48864342D01*
X52761904Y-48864342D02*
X52714285Y-48959580D01*
X52714285Y-48959580D02*
X52666666Y-49007200D01*
X52666666Y-49007200D02*
X52571428Y-49054819D01*
X52571428Y-49054819D02*
X52285714Y-49054819D01*
X52285714Y-49054819D02*
X52190476Y-49007200D01*
X52190476Y-49007200D02*
X52142857Y-48959580D01*
X53619047Y-48388152D02*
X53619047Y-49054819D01*
X53380952Y-48007200D02*
X53142857Y-48721485D01*
X53142857Y-48721485D02*
X53761904Y-48721485D01*
X50309524Y-43954819D02*
X50309524Y-42954819D01*
X50309524Y-42954819D02*
X50547619Y-42954819D01*
X50547619Y-42954819D02*
X50690476Y-43002438D01*
X50690476Y-43002438D02*
X50785714Y-43097676D01*
X50785714Y-43097676D02*
X50833333Y-43192914D01*
X50833333Y-43192914D02*
X50880952Y-43383390D01*
X50880952Y-43383390D02*
X50880952Y-43526247D01*
X50880952Y-43526247D02*
X50833333Y-43716723D01*
X50833333Y-43716723D02*
X50785714Y-43811961D01*
X50785714Y-43811961D02*
X50690476Y-43907200D01*
X50690476Y-43907200D02*
X50547619Y-43954819D01*
X50547619Y-43954819D02*
X50309524Y-43954819D01*
X51785714Y-42954819D02*
X51309524Y-42954819D01*
X51309524Y-42954819D02*
X51261905Y-43431009D01*
X51261905Y-43431009D02*
X51309524Y-43383390D01*
X51309524Y-43383390D02*
X51404762Y-43335771D01*
X51404762Y-43335771D02*
X51642857Y-43335771D01*
X51642857Y-43335771D02*
X51738095Y-43383390D01*
X51738095Y-43383390D02*
X51785714Y-43431009D01*
X51785714Y-43431009D02*
X51833333Y-43526247D01*
X51833333Y-43526247D02*
X51833333Y-43764342D01*
X51833333Y-43764342D02*
X51785714Y-43859580D01*
X51785714Y-43859580D02*
X51738095Y-43907200D01*
X51738095Y-43907200D02*
X51642857Y-43954819D01*
X51642857Y-43954819D02*
X51404762Y-43954819D01*
X51404762Y-43954819D02*
X51309524Y-43907200D01*
X51309524Y-43907200D02*
X51261905Y-43859580D01*
X52452381Y-42954819D02*
X52547619Y-42954819D01*
X52547619Y-42954819D02*
X52642857Y-43002438D01*
X52642857Y-43002438D02*
X52690476Y-43050057D01*
X52690476Y-43050057D02*
X52738095Y-43145295D01*
X52738095Y-43145295D02*
X52785714Y-43335771D01*
X52785714Y-43335771D02*
X52785714Y-43573866D01*
X52785714Y-43573866D02*
X52738095Y-43764342D01*
X52738095Y-43764342D02*
X52690476Y-43859580D01*
X52690476Y-43859580D02*
X52642857Y-43907200D01*
X52642857Y-43907200D02*
X52547619Y-43954819D01*
X52547619Y-43954819D02*
X52452381Y-43954819D01*
X52452381Y-43954819D02*
X52357143Y-43907200D01*
X52357143Y-43907200D02*
X52309524Y-43859580D01*
X52309524Y-43859580D02*
X52261905Y-43764342D01*
X52261905Y-43764342D02*
X52214286Y-43573866D01*
X52214286Y-43573866D02*
X52214286Y-43335771D01*
X52214286Y-43335771D02*
X52261905Y-43145295D01*
X52261905Y-43145295D02*
X52309524Y-43050057D01*
X52309524Y-43050057D02*
X52357143Y-43002438D01*
X52357143Y-43002438D02*
X52452381Y-42954819D01*
X53404762Y-42954819D02*
X53500000Y-42954819D01*
X53500000Y-42954819D02*
X53595238Y-43002438D01*
X53595238Y-43002438D02*
X53642857Y-43050057D01*
X53642857Y-43050057D02*
X53690476Y-43145295D01*
X53690476Y-43145295D02*
X53738095Y-43335771D01*
X53738095Y-43335771D02*
X53738095Y-43573866D01*
X53738095Y-43573866D02*
X53690476Y-43764342D01*
X53690476Y-43764342D02*
X53642857Y-43859580D01*
X53642857Y-43859580D02*
X53595238Y-43907200D01*
X53595238Y-43907200D02*
X53500000Y-43954819D01*
X53500000Y-43954819D02*
X53404762Y-43954819D01*
X53404762Y-43954819D02*
X53309524Y-43907200D01*
X53309524Y-43907200D02*
X53261905Y-43859580D01*
X53261905Y-43859580D02*
X53214286Y-43764342D01*
X53214286Y-43764342D02*
X53166667Y-43573866D01*
X53166667Y-43573866D02*
X53166667Y-43335771D01*
X53166667Y-43335771D02*
X53214286Y-43145295D01*
X53214286Y-43145295D02*
X53261905Y-43050057D01*
X53261905Y-43050057D02*
X53309524Y-43002438D01*
X53309524Y-43002438D02*
X53404762Y-42954819D01*
X70809524Y-51800057D02*
X70857143Y-51752438D01*
X70857143Y-51752438D02*
X70952381Y-51704819D01*
X70952381Y-51704819D02*
X71190476Y-51704819D01*
X71190476Y-51704819D02*
X71285714Y-51752438D01*
X71285714Y-51752438D02*
X71333333Y-51800057D01*
X71333333Y-51800057D02*
X71380952Y-51895295D01*
X71380952Y-51895295D02*
X71380952Y-51990533D01*
X71380952Y-51990533D02*
X71333333Y-52133390D01*
X71333333Y-52133390D02*
X70761905Y-52704819D01*
X70761905Y-52704819D02*
X71380952Y-52704819D01*
X71761905Y-51800057D02*
X71809524Y-51752438D01*
X71809524Y-51752438D02*
X71904762Y-51704819D01*
X71904762Y-51704819D02*
X72142857Y-51704819D01*
X72142857Y-51704819D02*
X72238095Y-51752438D01*
X72238095Y-51752438D02*
X72285714Y-51800057D01*
X72285714Y-51800057D02*
X72333333Y-51895295D01*
X72333333Y-51895295D02*
X72333333Y-51990533D01*
X72333333Y-51990533D02*
X72285714Y-52133390D01*
X72285714Y-52133390D02*
X71714286Y-52704819D01*
X71714286Y-52704819D02*
X72333333Y-52704819D01*
X72952381Y-51704819D02*
X73047619Y-51704819D01*
X73047619Y-51704819D02*
X73142857Y-51752438D01*
X73142857Y-51752438D02*
X73190476Y-51800057D01*
X73190476Y-51800057D02*
X73238095Y-51895295D01*
X73238095Y-51895295D02*
X73285714Y-52085771D01*
X73285714Y-52085771D02*
X73285714Y-52323866D01*
X73285714Y-52323866D02*
X73238095Y-52514342D01*
X73238095Y-52514342D02*
X73190476Y-52609580D01*
X73190476Y-52609580D02*
X73142857Y-52657200D01*
X73142857Y-52657200D02*
X73047619Y-52704819D01*
X73047619Y-52704819D02*
X72952381Y-52704819D01*
X72952381Y-52704819D02*
X72857143Y-52657200D01*
X72857143Y-52657200D02*
X72809524Y-52609580D01*
X72809524Y-52609580D02*
X72761905Y-52514342D01*
X72761905Y-52514342D02*
X72714286Y-52323866D01*
X72714286Y-52323866D02*
X72714286Y-52085771D01*
X72714286Y-52085771D02*
X72761905Y-51895295D01*
X72761905Y-51895295D02*
X72809524Y-51800057D01*
X72809524Y-51800057D02*
X72857143Y-51752438D01*
X72857143Y-51752438D02*
X72952381Y-51704819D01*
X74142857Y-52038152D02*
X74142857Y-52704819D01*
X73714286Y-52038152D02*
X73714286Y-52561961D01*
X73714286Y-52561961D02*
X73761905Y-52657200D01*
X73761905Y-52657200D02*
X73857143Y-52704819D01*
X73857143Y-52704819D02*
X74000000Y-52704819D01*
X74000000Y-52704819D02*
X74095238Y-52657200D01*
X74095238Y-52657200D02*
X74142857Y-52609580D01*
X71380952Y-46359580D02*
X71333333Y-46407200D01*
X71333333Y-46407200D02*
X71190476Y-46454819D01*
X71190476Y-46454819D02*
X71095238Y-46454819D01*
X71095238Y-46454819D02*
X70952381Y-46407200D01*
X70952381Y-46407200D02*
X70857143Y-46311961D01*
X70857143Y-46311961D02*
X70809524Y-46216723D01*
X70809524Y-46216723D02*
X70761905Y-46026247D01*
X70761905Y-46026247D02*
X70761905Y-45883390D01*
X70761905Y-45883390D02*
X70809524Y-45692914D01*
X70809524Y-45692914D02*
X70857143Y-45597676D01*
X70857143Y-45597676D02*
X70952381Y-45502438D01*
X70952381Y-45502438D02*
X71095238Y-45454819D01*
X71095238Y-45454819D02*
X71190476Y-45454819D01*
X71190476Y-45454819D02*
X71333333Y-45502438D01*
X71333333Y-45502438D02*
X71380952Y-45550057D01*
X72285714Y-45454819D02*
X71809524Y-45454819D01*
X71809524Y-45454819D02*
X71761905Y-45931009D01*
X71761905Y-45931009D02*
X71809524Y-45883390D01*
X71809524Y-45883390D02*
X71904762Y-45835771D01*
X71904762Y-45835771D02*
X72142857Y-45835771D01*
X72142857Y-45835771D02*
X72238095Y-45883390D01*
X72238095Y-45883390D02*
X72285714Y-45931009D01*
X72285714Y-45931009D02*
X72333333Y-46026247D01*
X72333333Y-46026247D02*
X72333333Y-46264342D01*
X72333333Y-46264342D02*
X72285714Y-46359580D01*
X72285714Y-46359580D02*
X72238095Y-46407200D01*
X72238095Y-46407200D02*
X72142857Y-46454819D01*
X72142857Y-46454819D02*
X71904762Y-46454819D01*
X71904762Y-46454819D02*
X71809524Y-46407200D01*
X71809524Y-46407200D02*
X71761905Y-46359580D01*
X72952381Y-45454819D02*
X73047619Y-45454819D01*
X73047619Y-45454819D02*
X73142857Y-45502438D01*
X73142857Y-45502438D02*
X73190476Y-45550057D01*
X73190476Y-45550057D02*
X73238095Y-45645295D01*
X73238095Y-45645295D02*
X73285714Y-45835771D01*
X73285714Y-45835771D02*
X73285714Y-46073866D01*
X73285714Y-46073866D02*
X73238095Y-46264342D01*
X73238095Y-46264342D02*
X73190476Y-46359580D01*
X73190476Y-46359580D02*
X73142857Y-46407200D01*
X73142857Y-46407200D02*
X73047619Y-46454819D01*
X73047619Y-46454819D02*
X72952381Y-46454819D01*
X72952381Y-46454819D02*
X72857143Y-46407200D01*
X72857143Y-46407200D02*
X72809524Y-46359580D01*
X72809524Y-46359580D02*
X72761905Y-46264342D01*
X72761905Y-46264342D02*
X72714286Y-46073866D01*
X72714286Y-46073866D02*
X72714286Y-45835771D01*
X72714286Y-45835771D02*
X72761905Y-45645295D01*
X72761905Y-45645295D02*
X72809524Y-45550057D01*
X72809524Y-45550057D02*
X72857143Y-45502438D01*
X72857143Y-45502438D02*
X72952381Y-45454819D01*
X73904762Y-45454819D02*
X74000000Y-45454819D01*
X74000000Y-45454819D02*
X74095238Y-45502438D01*
X74095238Y-45502438D02*
X74142857Y-45550057D01*
X74142857Y-45550057D02*
X74190476Y-45645295D01*
X74190476Y-45645295D02*
X74238095Y-45835771D01*
X74238095Y-45835771D02*
X74238095Y-46073866D01*
X74238095Y-46073866D02*
X74190476Y-46264342D01*
X74190476Y-46264342D02*
X74142857Y-46359580D01*
X74142857Y-46359580D02*
X74095238Y-46407200D01*
X74095238Y-46407200D02*
X74000000Y-46454819D01*
X74000000Y-46454819D02*
X73904762Y-46454819D01*
X73904762Y-46454819D02*
X73809524Y-46407200D01*
X73809524Y-46407200D02*
X73761905Y-46359580D01*
X73761905Y-46359580D02*
X73714286Y-46264342D01*
X73714286Y-46264342D02*
X73666667Y-46073866D01*
X73666667Y-46073866D02*
X73666667Y-45835771D01*
X73666667Y-45835771D02*
X73714286Y-45645295D01*
X73714286Y-45645295D02*
X73761905Y-45550057D01*
X73761905Y-45550057D02*
X73809524Y-45502438D01*
X73809524Y-45502438D02*
X73904762Y-45454819D01*
X108261905Y-63954819D02*
X108261905Y-64764342D01*
X108261905Y-64764342D02*
X108309524Y-64859580D01*
X108309524Y-64859580D02*
X108357143Y-64907200D01*
X108357143Y-64907200D02*
X108452381Y-64954819D01*
X108452381Y-64954819D02*
X108642857Y-64954819D01*
X108642857Y-64954819D02*
X108738095Y-64907200D01*
X108738095Y-64907200D02*
X108785714Y-64859580D01*
X108785714Y-64859580D02*
X108833333Y-64764342D01*
X108833333Y-64764342D02*
X108833333Y-63954819D01*
X109880952Y-64954819D02*
X109547619Y-64478628D01*
X109309524Y-64954819D02*
X109309524Y-63954819D01*
X109309524Y-63954819D02*
X109690476Y-63954819D01*
X109690476Y-63954819D02*
X109785714Y-64002438D01*
X109785714Y-64002438D02*
X109833333Y-64050057D01*
X109833333Y-64050057D02*
X109880952Y-64145295D01*
X109880952Y-64145295D02*
X109880952Y-64288152D01*
X109880952Y-64288152D02*
X109833333Y-64383390D01*
X109833333Y-64383390D02*
X109785714Y-64431009D01*
X109785714Y-64431009D02*
X109690476Y-64478628D01*
X109690476Y-64478628D02*
X109309524Y-64478628D01*
X110261905Y-64669104D02*
X110738095Y-64669104D01*
X110166667Y-64954819D02*
X110500000Y-63954819D01*
X110500000Y-63954819D02*
X110833333Y-64954819D01*
X111119048Y-64050057D02*
X111166667Y-64002438D01*
X111166667Y-64002438D02*
X111261905Y-63954819D01*
X111261905Y-63954819D02*
X111500000Y-63954819D01*
X111500000Y-63954819D02*
X111595238Y-64002438D01*
X111595238Y-64002438D02*
X111642857Y-64050057D01*
X111642857Y-64050057D02*
X111690476Y-64145295D01*
X111690476Y-64145295D02*
X111690476Y-64240533D01*
X111690476Y-64240533D02*
X111642857Y-64383390D01*
X111642857Y-64383390D02*
X111071429Y-64954819D01*
X111071429Y-64954819D02*
X111690476Y-64954819D01*
X112547619Y-64288152D02*
X112547619Y-64954819D01*
X112309524Y-63907200D02*
X112071429Y-64621485D01*
X112071429Y-64621485D02*
X112690476Y-64621485D01*
X113595238Y-64954819D02*
X113023810Y-64954819D01*
X113309524Y-64954819D02*
X113309524Y-63954819D01*
X113309524Y-63954819D02*
X113214286Y-64097676D01*
X113214286Y-64097676D02*
X113119048Y-64192914D01*
X113119048Y-64192914D02*
X113023810Y-64240533D01*
X114500000Y-63954819D02*
X114023810Y-63954819D01*
X114023810Y-63954819D02*
X113976191Y-64431009D01*
X113976191Y-64431009D02*
X114023810Y-64383390D01*
X114023810Y-64383390D02*
X114119048Y-64335771D01*
X114119048Y-64335771D02*
X114357143Y-64335771D01*
X114357143Y-64335771D02*
X114452381Y-64383390D01*
X114452381Y-64383390D02*
X114500000Y-64431009D01*
X114500000Y-64431009D02*
X114547619Y-64526247D01*
X114547619Y-64526247D02*
X114547619Y-64764342D01*
X114547619Y-64764342D02*
X114500000Y-64859580D01*
X114500000Y-64859580D02*
X114452381Y-64907200D01*
X114452381Y-64907200D02*
X114357143Y-64954819D01*
X114357143Y-64954819D02*
X114119048Y-64954819D01*
X114119048Y-64954819D02*
X114023810Y-64907200D01*
X114023810Y-64907200D02*
X113976191Y-64859580D01*
X115166667Y-64478628D02*
X115166667Y-64954819D01*
X114833334Y-63954819D02*
X115166667Y-64478628D01*
X115166667Y-64478628D02*
X115500000Y-63954819D01*
X115833334Y-64954819D02*
X115833334Y-63954819D01*
X115833334Y-63954819D02*
X116166667Y-64669104D01*
X116166667Y-64669104D02*
X116500000Y-63954819D01*
X116500000Y-63954819D02*
X116500000Y-64954819D01*
X116976191Y-64954819D02*
X116976191Y-63954819D01*
X116976191Y-63954819D02*
X117214286Y-63954819D01*
X117214286Y-63954819D02*
X117357143Y-64002438D01*
X117357143Y-64002438D02*
X117452381Y-64097676D01*
X117452381Y-64097676D02*
X117500000Y-64192914D01*
X117500000Y-64192914D02*
X117547619Y-64383390D01*
X117547619Y-64383390D02*
X117547619Y-64526247D01*
X117547619Y-64526247D02*
X117500000Y-64716723D01*
X117500000Y-64716723D02*
X117452381Y-64811961D01*
X117452381Y-64811961D02*
X117357143Y-64907200D01*
X117357143Y-64907200D02*
X117214286Y-64954819D01*
X117214286Y-64954819D02*
X116976191Y-64954819D01*
X117976191Y-64573866D02*
X118738096Y-64573866D01*
X119738095Y-64954819D02*
X119166667Y-64954819D01*
X119452381Y-64954819D02*
X119452381Y-63954819D01*
X119452381Y-63954819D02*
X119357143Y-64097676D01*
X119357143Y-64097676D02*
X119261905Y-64192914D01*
X119261905Y-64192914D02*
X119166667Y-64240533D01*
X120357143Y-63954819D02*
X120452381Y-63954819D01*
X120452381Y-63954819D02*
X120547619Y-64002438D01*
X120547619Y-64002438D02*
X120595238Y-64050057D01*
X120595238Y-64050057D02*
X120642857Y-64145295D01*
X120642857Y-64145295D02*
X120690476Y-64335771D01*
X120690476Y-64335771D02*
X120690476Y-64573866D01*
X120690476Y-64573866D02*
X120642857Y-64764342D01*
X120642857Y-64764342D02*
X120595238Y-64859580D01*
X120595238Y-64859580D02*
X120547619Y-64907200D01*
X120547619Y-64907200D02*
X120452381Y-64954819D01*
X120452381Y-64954819D02*
X120357143Y-64954819D01*
X120357143Y-64954819D02*
X120261905Y-64907200D01*
X120261905Y-64907200D02*
X120214286Y-64859580D01*
X120214286Y-64859580D02*
X120166667Y-64764342D01*
X120166667Y-64764342D02*
X120119048Y-64573866D01*
X120119048Y-64573866D02*
X120119048Y-64335771D01*
X120119048Y-64335771D02*
X120166667Y-64145295D01*
X120166667Y-64145295D02*
X120214286Y-64050057D01*
X120214286Y-64050057D02*
X120261905Y-64002438D01*
X120261905Y-64002438D02*
X120357143Y-63954819D01*
X121023810Y-63954819D02*
X121261905Y-64954819D01*
X121261905Y-64954819D02*
X121452381Y-64240533D01*
X121452381Y-64240533D02*
X121642857Y-64954819D01*
X121642857Y-64954819D02*
X121880953Y-63954819D01*
X122833333Y-64954819D02*
X122500000Y-64478628D01*
X122261905Y-64954819D02*
X122261905Y-63954819D01*
X122261905Y-63954819D02*
X122642857Y-63954819D01*
X122642857Y-63954819D02*
X122738095Y-64002438D01*
X122738095Y-64002438D02*
X122785714Y-64050057D01*
X122785714Y-64050057D02*
X122833333Y-64145295D01*
X122833333Y-64145295D02*
X122833333Y-64288152D01*
X122833333Y-64288152D02*
X122785714Y-64383390D01*
X122785714Y-64383390D02*
X122738095Y-64431009D01*
X122738095Y-64431009D02*
X122642857Y-64478628D01*
X122642857Y-64478628D02*
X122261905Y-64478628D01*
X123166667Y-63954819D02*
X123785714Y-63954819D01*
X123785714Y-63954819D02*
X123452381Y-64335771D01*
X123452381Y-64335771D02*
X123595238Y-64335771D01*
X123595238Y-64335771D02*
X123690476Y-64383390D01*
X123690476Y-64383390D02*
X123738095Y-64431009D01*
X123738095Y-64431009D02*
X123785714Y-64526247D01*
X123785714Y-64526247D02*
X123785714Y-64764342D01*
X123785714Y-64764342D02*
X123738095Y-64859580D01*
X123738095Y-64859580D02*
X123690476Y-64907200D01*
X123690476Y-64907200D02*
X123595238Y-64954819D01*
X123595238Y-64954819D02*
X123309524Y-64954819D01*
X123309524Y-64954819D02*
X123214286Y-64907200D01*
X123214286Y-64907200D02*
X123166667Y-64859580D01*
X45357142Y-58304819D02*
X44785714Y-58304819D01*
X45071428Y-58304819D02*
X45071428Y-57304819D01*
X45071428Y-57304819D02*
X44976190Y-57447676D01*
X44976190Y-57447676D02*
X44880952Y-57542914D01*
X44880952Y-57542914D02*
X44785714Y-57590533D01*
X45976190Y-57304819D02*
X46071428Y-57304819D01*
X46071428Y-57304819D02*
X46166666Y-57352438D01*
X46166666Y-57352438D02*
X46214285Y-57400057D01*
X46214285Y-57400057D02*
X46261904Y-57495295D01*
X46261904Y-57495295D02*
X46309523Y-57685771D01*
X46309523Y-57685771D02*
X46309523Y-57923866D01*
X46309523Y-57923866D02*
X46261904Y-58114342D01*
X46261904Y-58114342D02*
X46214285Y-58209580D01*
X46214285Y-58209580D02*
X46166666Y-58257200D01*
X46166666Y-58257200D02*
X46071428Y-58304819D01*
X46071428Y-58304819D02*
X45976190Y-58304819D01*
X45976190Y-58304819D02*
X45880952Y-58257200D01*
X45880952Y-58257200D02*
X45833333Y-58209580D01*
X45833333Y-58209580D02*
X45785714Y-58114342D01*
X45785714Y-58114342D02*
X45738095Y-57923866D01*
X45738095Y-57923866D02*
X45738095Y-57685771D01*
X45738095Y-57685771D02*
X45785714Y-57495295D01*
X45785714Y-57495295D02*
X45833333Y-57400057D01*
X45833333Y-57400057D02*
X45880952Y-57352438D01*
X45880952Y-57352438D02*
X45976190Y-57304819D01*
X47166666Y-57638152D02*
X47166666Y-58304819D01*
X46738095Y-57638152D02*
X46738095Y-58161961D01*
X46738095Y-58161961D02*
X46785714Y-58257200D01*
X46785714Y-58257200D02*
X46880952Y-58304819D01*
X46880952Y-58304819D02*
X47023809Y-58304819D01*
X47023809Y-58304819D02*
X47119047Y-58257200D01*
X47119047Y-58257200D02*
X47166666Y-58209580D01*
D11*
X45104762Y-56287664D02*
X45066666Y-56325760D01*
X45066666Y-56325760D02*
X44952381Y-56363855D01*
X44952381Y-56363855D02*
X44876190Y-56363855D01*
X44876190Y-56363855D02*
X44761904Y-56325760D01*
X44761904Y-56325760D02*
X44685714Y-56249569D01*
X44685714Y-56249569D02*
X44647619Y-56173379D01*
X44647619Y-56173379D02*
X44609523Y-56020998D01*
X44609523Y-56020998D02*
X44609523Y-55906712D01*
X44609523Y-55906712D02*
X44647619Y-55754331D01*
X44647619Y-55754331D02*
X44685714Y-55678140D01*
X44685714Y-55678140D02*
X44761904Y-55601950D01*
X44761904Y-55601950D02*
X44876190Y-55563855D01*
X44876190Y-55563855D02*
X44952381Y-55563855D01*
X44952381Y-55563855D02*
X45066666Y-55601950D01*
X45066666Y-55601950D02*
X45104762Y-55640045D01*
X45828571Y-55563855D02*
X45447619Y-55563855D01*
X45447619Y-55563855D02*
X45409523Y-55944807D01*
X45409523Y-55944807D02*
X45447619Y-55906712D01*
X45447619Y-55906712D02*
X45523809Y-55868617D01*
X45523809Y-55868617D02*
X45714285Y-55868617D01*
X45714285Y-55868617D02*
X45790476Y-55906712D01*
X45790476Y-55906712D02*
X45828571Y-55944807D01*
X45828571Y-55944807D02*
X45866666Y-56020998D01*
X45866666Y-56020998D02*
X45866666Y-56211474D01*
X45866666Y-56211474D02*
X45828571Y-56287664D01*
X45828571Y-56287664D02*
X45790476Y-56325760D01*
X45790476Y-56325760D02*
X45714285Y-56363855D01*
X45714285Y-56363855D02*
X45523809Y-56363855D01*
X45523809Y-56363855D02*
X45447619Y-56325760D01*
X45447619Y-56325760D02*
X45409523Y-56287664D01*
X46628571Y-56363855D02*
X46171428Y-56363855D01*
X46400000Y-56363855D02*
X46400000Y-55563855D01*
X46400000Y-55563855D02*
X46323809Y-55678140D01*
X46323809Y-55678140D02*
X46247619Y-55754331D01*
X46247619Y-55754331D02*
X46171428Y-55792426D01*
X46933333Y-55640045D02*
X46971429Y-55601950D01*
X46971429Y-55601950D02*
X47047619Y-55563855D01*
X47047619Y-55563855D02*
X47238095Y-55563855D01*
X47238095Y-55563855D02*
X47314286Y-55601950D01*
X47314286Y-55601950D02*
X47352381Y-55640045D01*
X47352381Y-55640045D02*
X47390476Y-55716236D01*
X47390476Y-55716236D02*
X47390476Y-55792426D01*
X47390476Y-55792426D02*
X47352381Y-55906712D01*
X47352381Y-55906712D02*
X46895238Y-56363855D01*
X46895238Y-56363855D02*
X47390476Y-56363855D01*
D10*
X59130952Y-86854819D02*
X58559524Y-86854819D01*
X58845238Y-86854819D02*
X58845238Y-85854819D01*
X58845238Y-85854819D02*
X58750000Y-85997676D01*
X58750000Y-85997676D02*
X58654762Y-86092914D01*
X58654762Y-86092914D02*
X58559524Y-86140533D01*
X59750000Y-85854819D02*
X59845238Y-85854819D01*
X59845238Y-85854819D02*
X59940476Y-85902438D01*
X59940476Y-85902438D02*
X59988095Y-85950057D01*
X59988095Y-85950057D02*
X60035714Y-86045295D01*
X60035714Y-86045295D02*
X60083333Y-86235771D01*
X60083333Y-86235771D02*
X60083333Y-86473866D01*
X60083333Y-86473866D02*
X60035714Y-86664342D01*
X60035714Y-86664342D02*
X59988095Y-86759580D01*
X59988095Y-86759580D02*
X59940476Y-86807200D01*
X59940476Y-86807200D02*
X59845238Y-86854819D01*
X59845238Y-86854819D02*
X59750000Y-86854819D01*
X59750000Y-86854819D02*
X59654762Y-86807200D01*
X59654762Y-86807200D02*
X59607143Y-86759580D01*
X59607143Y-86759580D02*
X59559524Y-86664342D01*
X59559524Y-86664342D02*
X59511905Y-86473866D01*
X59511905Y-86473866D02*
X59511905Y-86235771D01*
X59511905Y-86235771D02*
X59559524Y-86045295D01*
X59559524Y-86045295D02*
X59607143Y-85950057D01*
X59607143Y-85950057D02*
X59654762Y-85902438D01*
X59654762Y-85902438D02*
X59750000Y-85854819D01*
X60702381Y-85854819D02*
X60797619Y-85854819D01*
X60797619Y-85854819D02*
X60892857Y-85902438D01*
X60892857Y-85902438D02*
X60940476Y-85950057D01*
X60940476Y-85950057D02*
X60988095Y-86045295D01*
X60988095Y-86045295D02*
X61035714Y-86235771D01*
X61035714Y-86235771D02*
X61035714Y-86473866D01*
X61035714Y-86473866D02*
X60988095Y-86664342D01*
X60988095Y-86664342D02*
X60940476Y-86759580D01*
X60940476Y-86759580D02*
X60892857Y-86807200D01*
X60892857Y-86807200D02*
X60797619Y-86854819D01*
X60797619Y-86854819D02*
X60702381Y-86854819D01*
X60702381Y-86854819D02*
X60607143Y-86807200D01*
X60607143Y-86807200D02*
X60559524Y-86759580D01*
X60559524Y-86759580D02*
X60511905Y-86664342D01*
X60511905Y-86664342D02*
X60464286Y-86473866D01*
X60464286Y-86473866D02*
X60464286Y-86235771D01*
X60464286Y-86235771D02*
X60511905Y-86045295D01*
X60511905Y-86045295D02*
X60559524Y-85950057D01*
X60559524Y-85950057D02*
X60607143Y-85902438D01*
X60607143Y-85902438D02*
X60702381Y-85854819D01*
X61892857Y-86188152D02*
X61892857Y-86854819D01*
X61464286Y-86188152D02*
X61464286Y-86711961D01*
X61464286Y-86711961D02*
X61511905Y-86807200D01*
X61511905Y-86807200D02*
X61607143Y-86854819D01*
X61607143Y-86854819D02*
X61750000Y-86854819D01*
X61750000Y-86854819D02*
X61845238Y-86807200D01*
X61845238Y-86807200D02*
X61892857Y-86759580D01*
X59130952Y-82359580D02*
X59083333Y-82407200D01*
X59083333Y-82407200D02*
X58940476Y-82454819D01*
X58940476Y-82454819D02*
X58845238Y-82454819D01*
X58845238Y-82454819D02*
X58702381Y-82407200D01*
X58702381Y-82407200D02*
X58607143Y-82311961D01*
X58607143Y-82311961D02*
X58559524Y-82216723D01*
X58559524Y-82216723D02*
X58511905Y-82026247D01*
X58511905Y-82026247D02*
X58511905Y-81883390D01*
X58511905Y-81883390D02*
X58559524Y-81692914D01*
X58559524Y-81692914D02*
X58607143Y-81597676D01*
X58607143Y-81597676D02*
X58702381Y-81502438D01*
X58702381Y-81502438D02*
X58845238Y-81454819D01*
X58845238Y-81454819D02*
X58940476Y-81454819D01*
X58940476Y-81454819D02*
X59083333Y-81502438D01*
X59083333Y-81502438D02*
X59130952Y-81550057D01*
X60035714Y-81454819D02*
X59559524Y-81454819D01*
X59559524Y-81454819D02*
X59511905Y-81931009D01*
X59511905Y-81931009D02*
X59559524Y-81883390D01*
X59559524Y-81883390D02*
X59654762Y-81835771D01*
X59654762Y-81835771D02*
X59892857Y-81835771D01*
X59892857Y-81835771D02*
X59988095Y-81883390D01*
X59988095Y-81883390D02*
X60035714Y-81931009D01*
X60035714Y-81931009D02*
X60083333Y-82026247D01*
X60083333Y-82026247D02*
X60083333Y-82264342D01*
X60083333Y-82264342D02*
X60035714Y-82359580D01*
X60035714Y-82359580D02*
X59988095Y-82407200D01*
X59988095Y-82407200D02*
X59892857Y-82454819D01*
X59892857Y-82454819D02*
X59654762Y-82454819D01*
X59654762Y-82454819D02*
X59559524Y-82407200D01*
X59559524Y-82407200D02*
X59511905Y-82359580D01*
X60702381Y-81454819D02*
X60797619Y-81454819D01*
X60797619Y-81454819D02*
X60892857Y-81502438D01*
X60892857Y-81502438D02*
X60940476Y-81550057D01*
X60940476Y-81550057D02*
X60988095Y-81645295D01*
X60988095Y-81645295D02*
X61035714Y-81835771D01*
X61035714Y-81835771D02*
X61035714Y-82073866D01*
X61035714Y-82073866D02*
X60988095Y-82264342D01*
X60988095Y-82264342D02*
X60940476Y-82359580D01*
X60940476Y-82359580D02*
X60892857Y-82407200D01*
X60892857Y-82407200D02*
X60797619Y-82454819D01*
X60797619Y-82454819D02*
X60702381Y-82454819D01*
X60702381Y-82454819D02*
X60607143Y-82407200D01*
X60607143Y-82407200D02*
X60559524Y-82359580D01*
X60559524Y-82359580D02*
X60511905Y-82264342D01*
X60511905Y-82264342D02*
X60464286Y-82073866D01*
X60464286Y-82073866D02*
X60464286Y-81835771D01*
X60464286Y-81835771D02*
X60511905Y-81645295D01*
X60511905Y-81645295D02*
X60559524Y-81550057D01*
X60559524Y-81550057D02*
X60607143Y-81502438D01*
X60607143Y-81502438D02*
X60702381Y-81454819D01*
X61988095Y-82454819D02*
X61416667Y-82454819D01*
X61702381Y-82454819D02*
X61702381Y-81454819D01*
X61702381Y-81454819D02*
X61607143Y-81597676D01*
X61607143Y-81597676D02*
X61511905Y-81692914D01*
X61511905Y-81692914D02*
X61416667Y-81740533D01*
X67357142Y-84304819D02*
X66785714Y-84304819D01*
X67071428Y-84304819D02*
X67071428Y-83304819D01*
X67071428Y-83304819D02*
X66976190Y-83447676D01*
X66976190Y-83447676D02*
X66880952Y-83542914D01*
X66880952Y-83542914D02*
X66785714Y-83590533D01*
X67976190Y-83304819D02*
X68071428Y-83304819D01*
X68071428Y-83304819D02*
X68166666Y-83352438D01*
X68166666Y-83352438D02*
X68214285Y-83400057D01*
X68214285Y-83400057D02*
X68261904Y-83495295D01*
X68261904Y-83495295D02*
X68309523Y-83685771D01*
X68309523Y-83685771D02*
X68309523Y-83923866D01*
X68309523Y-83923866D02*
X68261904Y-84114342D01*
X68261904Y-84114342D02*
X68214285Y-84209580D01*
X68214285Y-84209580D02*
X68166666Y-84257200D01*
X68166666Y-84257200D02*
X68071428Y-84304819D01*
X68071428Y-84304819D02*
X67976190Y-84304819D01*
X67976190Y-84304819D02*
X67880952Y-84257200D01*
X67880952Y-84257200D02*
X67833333Y-84209580D01*
X67833333Y-84209580D02*
X67785714Y-84114342D01*
X67785714Y-84114342D02*
X67738095Y-83923866D01*
X67738095Y-83923866D02*
X67738095Y-83685771D01*
X67738095Y-83685771D02*
X67785714Y-83495295D01*
X67785714Y-83495295D02*
X67833333Y-83400057D01*
X67833333Y-83400057D02*
X67880952Y-83352438D01*
X67880952Y-83352438D02*
X67976190Y-83304819D01*
X69166666Y-83638152D02*
X69166666Y-84304819D01*
X68738095Y-83638152D02*
X68738095Y-84161961D01*
X68738095Y-84161961D02*
X68785714Y-84257200D01*
X68785714Y-84257200D02*
X68880952Y-84304819D01*
X68880952Y-84304819D02*
X69023809Y-84304819D01*
X69023809Y-84304819D02*
X69119047Y-84257200D01*
X69119047Y-84257200D02*
X69166666Y-84209580D01*
D11*
X67104762Y-82287664D02*
X67066666Y-82325760D01*
X67066666Y-82325760D02*
X66952381Y-82363855D01*
X66952381Y-82363855D02*
X66876190Y-82363855D01*
X66876190Y-82363855D02*
X66761904Y-82325760D01*
X66761904Y-82325760D02*
X66685714Y-82249569D01*
X66685714Y-82249569D02*
X66647619Y-82173379D01*
X66647619Y-82173379D02*
X66609523Y-82020998D01*
X66609523Y-82020998D02*
X66609523Y-81906712D01*
X66609523Y-81906712D02*
X66647619Y-81754331D01*
X66647619Y-81754331D02*
X66685714Y-81678140D01*
X66685714Y-81678140D02*
X66761904Y-81601950D01*
X66761904Y-81601950D02*
X66876190Y-81563855D01*
X66876190Y-81563855D02*
X66952381Y-81563855D01*
X66952381Y-81563855D02*
X67066666Y-81601950D01*
X67066666Y-81601950D02*
X67104762Y-81640045D01*
X67828571Y-81563855D02*
X67447619Y-81563855D01*
X67447619Y-81563855D02*
X67409523Y-81944807D01*
X67409523Y-81944807D02*
X67447619Y-81906712D01*
X67447619Y-81906712D02*
X67523809Y-81868617D01*
X67523809Y-81868617D02*
X67714285Y-81868617D01*
X67714285Y-81868617D02*
X67790476Y-81906712D01*
X67790476Y-81906712D02*
X67828571Y-81944807D01*
X67828571Y-81944807D02*
X67866666Y-82020998D01*
X67866666Y-82020998D02*
X67866666Y-82211474D01*
X67866666Y-82211474D02*
X67828571Y-82287664D01*
X67828571Y-82287664D02*
X67790476Y-82325760D01*
X67790476Y-82325760D02*
X67714285Y-82363855D01*
X67714285Y-82363855D02*
X67523809Y-82363855D01*
X67523809Y-82363855D02*
X67447619Y-82325760D01*
X67447619Y-82325760D02*
X67409523Y-82287664D01*
X68361905Y-81563855D02*
X68438095Y-81563855D01*
X68438095Y-81563855D02*
X68514286Y-81601950D01*
X68514286Y-81601950D02*
X68552381Y-81640045D01*
X68552381Y-81640045D02*
X68590476Y-81716236D01*
X68590476Y-81716236D02*
X68628571Y-81868617D01*
X68628571Y-81868617D02*
X68628571Y-82059093D01*
X68628571Y-82059093D02*
X68590476Y-82211474D01*
X68590476Y-82211474D02*
X68552381Y-82287664D01*
X68552381Y-82287664D02*
X68514286Y-82325760D01*
X68514286Y-82325760D02*
X68438095Y-82363855D01*
X68438095Y-82363855D02*
X68361905Y-82363855D01*
X68361905Y-82363855D02*
X68285714Y-82325760D01*
X68285714Y-82325760D02*
X68247619Y-82287664D01*
X68247619Y-82287664D02*
X68209524Y-82211474D01*
X68209524Y-82211474D02*
X68171428Y-82059093D01*
X68171428Y-82059093D02*
X68171428Y-81868617D01*
X68171428Y-81868617D02*
X68209524Y-81716236D01*
X68209524Y-81716236D02*
X68247619Y-81640045D01*
X68247619Y-81640045D02*
X68285714Y-81601950D01*
X68285714Y-81601950D02*
X68361905Y-81563855D01*
X68933333Y-81640045D02*
X68971429Y-81601950D01*
X68971429Y-81601950D02*
X69047619Y-81563855D01*
X69047619Y-81563855D02*
X69238095Y-81563855D01*
X69238095Y-81563855D02*
X69314286Y-81601950D01*
X69314286Y-81601950D02*
X69352381Y-81640045D01*
X69352381Y-81640045D02*
X69390476Y-81716236D01*
X69390476Y-81716236D02*
X69390476Y-81792426D01*
X69390476Y-81792426D02*
X69352381Y-81906712D01*
X69352381Y-81906712D02*
X68895238Y-82363855D01*
X68895238Y-82363855D02*
X69390476Y-82363855D01*
D10*
X43825714Y-69454819D02*
X43492381Y-68978628D01*
X43254286Y-69454819D02*
X43254286Y-68454819D01*
X43254286Y-68454819D02*
X43635238Y-68454819D01*
X43635238Y-68454819D02*
X43730476Y-68502438D01*
X43730476Y-68502438D02*
X43778095Y-68550057D01*
X43778095Y-68550057D02*
X43825714Y-68645295D01*
X43825714Y-68645295D02*
X43825714Y-68788152D01*
X43825714Y-68788152D02*
X43778095Y-68883390D01*
X43778095Y-68883390D02*
X43730476Y-68931009D01*
X43730476Y-68931009D02*
X43635238Y-68978628D01*
X43635238Y-68978628D02*
X43254286Y-68978628D01*
X44254286Y-69073866D02*
X45016191Y-69073866D01*
X45397143Y-68454819D02*
X46063809Y-68454819D01*
X46063809Y-68454819D02*
X45635238Y-69454819D01*
X46587619Y-68883390D02*
X46492381Y-68835771D01*
X46492381Y-68835771D02*
X46444762Y-68788152D01*
X46444762Y-68788152D02*
X46397143Y-68692914D01*
X46397143Y-68692914D02*
X46397143Y-68645295D01*
X46397143Y-68645295D02*
X46444762Y-68550057D01*
X46444762Y-68550057D02*
X46492381Y-68502438D01*
X46492381Y-68502438D02*
X46587619Y-68454819D01*
X46587619Y-68454819D02*
X46778095Y-68454819D01*
X46778095Y-68454819D02*
X46873333Y-68502438D01*
X46873333Y-68502438D02*
X46920952Y-68550057D01*
X46920952Y-68550057D02*
X46968571Y-68645295D01*
X46968571Y-68645295D02*
X46968571Y-68692914D01*
X46968571Y-68692914D02*
X46920952Y-68788152D01*
X46920952Y-68788152D02*
X46873333Y-68835771D01*
X46873333Y-68835771D02*
X46778095Y-68883390D01*
X46778095Y-68883390D02*
X46587619Y-68883390D01*
X46587619Y-68883390D02*
X46492381Y-68931009D01*
X46492381Y-68931009D02*
X46444762Y-68978628D01*
X46444762Y-68978628D02*
X46397143Y-69073866D01*
X46397143Y-69073866D02*
X46397143Y-69264342D01*
X46397143Y-69264342D02*
X46444762Y-69359580D01*
X46444762Y-69359580D02*
X46492381Y-69407200D01*
X46492381Y-69407200D02*
X46587619Y-69454819D01*
X46587619Y-69454819D02*
X46778095Y-69454819D01*
X46778095Y-69454819D02*
X46873333Y-69407200D01*
X46873333Y-69407200D02*
X46920952Y-69359580D01*
X46920952Y-69359580D02*
X46968571Y-69264342D01*
X46968571Y-69264342D02*
X46968571Y-69073866D01*
X46968571Y-69073866D02*
X46920952Y-68978628D01*
X46920952Y-68978628D02*
X46873333Y-68931009D01*
X46873333Y-68931009D02*
X46778095Y-68883390D01*
X47397143Y-68931009D02*
X47730476Y-68931009D01*
X47873333Y-69454819D02*
X47397143Y-69454819D01*
X47397143Y-69454819D02*
X47397143Y-68454819D01*
X47397143Y-68454819D02*
X47873333Y-68454819D01*
X48778095Y-68454819D02*
X48301905Y-68454819D01*
X48301905Y-68454819D02*
X48254286Y-68931009D01*
X48254286Y-68931009D02*
X48301905Y-68883390D01*
X48301905Y-68883390D02*
X48397143Y-68835771D01*
X48397143Y-68835771D02*
X48635238Y-68835771D01*
X48635238Y-68835771D02*
X48730476Y-68883390D01*
X48730476Y-68883390D02*
X48778095Y-68931009D01*
X48778095Y-68931009D02*
X48825714Y-69026247D01*
X48825714Y-69026247D02*
X48825714Y-69264342D01*
X48825714Y-69264342D02*
X48778095Y-69359580D01*
X48778095Y-69359580D02*
X48730476Y-69407200D01*
X48730476Y-69407200D02*
X48635238Y-69454819D01*
X48635238Y-69454819D02*
X48397143Y-69454819D01*
X48397143Y-69454819D02*
X48301905Y-69407200D01*
X48301905Y-69407200D02*
X48254286Y-69359580D01*
X49254286Y-69359580D02*
X49301905Y-69407200D01*
X49301905Y-69407200D02*
X49254286Y-69454819D01*
X49254286Y-69454819D02*
X49206667Y-69407200D01*
X49206667Y-69407200D02*
X49254286Y-69359580D01*
X49254286Y-69359580D02*
X49254286Y-69454819D01*
X49920952Y-68454819D02*
X50016190Y-68454819D01*
X50016190Y-68454819D02*
X50111428Y-68502438D01*
X50111428Y-68502438D02*
X50159047Y-68550057D01*
X50159047Y-68550057D02*
X50206666Y-68645295D01*
X50206666Y-68645295D02*
X50254285Y-68835771D01*
X50254285Y-68835771D02*
X50254285Y-69073866D01*
X50254285Y-69073866D02*
X50206666Y-69264342D01*
X50206666Y-69264342D02*
X50159047Y-69359580D01*
X50159047Y-69359580D02*
X50111428Y-69407200D01*
X50111428Y-69407200D02*
X50016190Y-69454819D01*
X50016190Y-69454819D02*
X49920952Y-69454819D01*
X49920952Y-69454819D02*
X49825714Y-69407200D01*
X49825714Y-69407200D02*
X49778095Y-69359580D01*
X49778095Y-69359580D02*
X49730476Y-69264342D01*
X49730476Y-69264342D02*
X49682857Y-69073866D01*
X49682857Y-69073866D02*
X49682857Y-68835771D01*
X49682857Y-68835771D02*
X49730476Y-68645295D01*
X49730476Y-68645295D02*
X49778095Y-68550057D01*
X49778095Y-68550057D02*
X49825714Y-68502438D01*
X49825714Y-68502438D02*
X49920952Y-68454819D01*
X50682857Y-69073866D02*
X51444762Y-69073866D01*
X52111428Y-68454819D02*
X52206666Y-68454819D01*
X52206666Y-68454819D02*
X52301904Y-68502438D01*
X52301904Y-68502438D02*
X52349523Y-68550057D01*
X52349523Y-68550057D02*
X52397142Y-68645295D01*
X52397142Y-68645295D02*
X52444761Y-68835771D01*
X52444761Y-68835771D02*
X52444761Y-69073866D01*
X52444761Y-69073866D02*
X52397142Y-69264342D01*
X52397142Y-69264342D02*
X52349523Y-69359580D01*
X52349523Y-69359580D02*
X52301904Y-69407200D01*
X52301904Y-69407200D02*
X52206666Y-69454819D01*
X52206666Y-69454819D02*
X52111428Y-69454819D01*
X52111428Y-69454819D02*
X52016190Y-69407200D01*
X52016190Y-69407200D02*
X51968571Y-69359580D01*
X51968571Y-69359580D02*
X51920952Y-69264342D01*
X51920952Y-69264342D02*
X51873333Y-69073866D01*
X51873333Y-69073866D02*
X51873333Y-68835771D01*
X51873333Y-68835771D02*
X51920952Y-68645295D01*
X51920952Y-68645295D02*
X51968571Y-68550057D01*
X51968571Y-68550057D02*
X52016190Y-68502438D01*
X52016190Y-68502438D02*
X52111428Y-68454819D01*
X52873333Y-69359580D02*
X52920952Y-69407200D01*
X52920952Y-69407200D02*
X52873333Y-69454819D01*
X52873333Y-69454819D02*
X52825714Y-69407200D01*
X52825714Y-69407200D02*
X52873333Y-69359580D01*
X52873333Y-69359580D02*
X52873333Y-69454819D01*
X53825713Y-68454819D02*
X53349523Y-68454819D01*
X53349523Y-68454819D02*
X53301904Y-68931009D01*
X53301904Y-68931009D02*
X53349523Y-68883390D01*
X53349523Y-68883390D02*
X53444761Y-68835771D01*
X53444761Y-68835771D02*
X53682856Y-68835771D01*
X53682856Y-68835771D02*
X53778094Y-68883390D01*
X53778094Y-68883390D02*
X53825713Y-68931009D01*
X53825713Y-68931009D02*
X53873332Y-69026247D01*
X53873332Y-69026247D02*
X53873332Y-69264342D01*
X53873332Y-69264342D02*
X53825713Y-69359580D01*
X53825713Y-69359580D02*
X53778094Y-69407200D01*
X53778094Y-69407200D02*
X53682856Y-69454819D01*
X53682856Y-69454819D02*
X53444761Y-69454819D01*
X53444761Y-69454819D02*
X53349523Y-69407200D01*
X53349523Y-69407200D02*
X53301904Y-69359580D01*
X46373333Y-64204819D02*
X46373333Y-63204819D01*
X46373333Y-63204819D02*
X46754285Y-63204819D01*
X46754285Y-63204819D02*
X46849523Y-63252438D01*
X46849523Y-63252438D02*
X46897142Y-63300057D01*
X46897142Y-63300057D02*
X46944761Y-63395295D01*
X46944761Y-63395295D02*
X46944761Y-63538152D01*
X46944761Y-63538152D02*
X46897142Y-63633390D01*
X46897142Y-63633390D02*
X46849523Y-63681009D01*
X46849523Y-63681009D02*
X46754285Y-63728628D01*
X46754285Y-63728628D02*
X46373333Y-63728628D01*
X47325714Y-64157200D02*
X47468571Y-64204819D01*
X47468571Y-64204819D02*
X47706666Y-64204819D01*
X47706666Y-64204819D02*
X47801904Y-64157200D01*
X47801904Y-64157200D02*
X47849523Y-64109580D01*
X47849523Y-64109580D02*
X47897142Y-64014342D01*
X47897142Y-64014342D02*
X47897142Y-63919104D01*
X47897142Y-63919104D02*
X47849523Y-63823866D01*
X47849523Y-63823866D02*
X47801904Y-63776247D01*
X47801904Y-63776247D02*
X47706666Y-63728628D01*
X47706666Y-63728628D02*
X47516190Y-63681009D01*
X47516190Y-63681009D02*
X47420952Y-63633390D01*
X47420952Y-63633390D02*
X47373333Y-63585771D01*
X47373333Y-63585771D02*
X47325714Y-63490533D01*
X47325714Y-63490533D02*
X47325714Y-63395295D01*
X47325714Y-63395295D02*
X47373333Y-63300057D01*
X47373333Y-63300057D02*
X47420952Y-63252438D01*
X47420952Y-63252438D02*
X47516190Y-63204819D01*
X47516190Y-63204819D02*
X47754285Y-63204819D01*
X47754285Y-63204819D02*
X47897142Y-63252438D01*
X48801904Y-63204819D02*
X48325714Y-63204819D01*
X48325714Y-63204819D02*
X48278095Y-63681009D01*
X48278095Y-63681009D02*
X48325714Y-63633390D01*
X48325714Y-63633390D02*
X48420952Y-63585771D01*
X48420952Y-63585771D02*
X48659047Y-63585771D01*
X48659047Y-63585771D02*
X48754285Y-63633390D01*
X48754285Y-63633390D02*
X48801904Y-63681009D01*
X48801904Y-63681009D02*
X48849523Y-63776247D01*
X48849523Y-63776247D02*
X48849523Y-64014342D01*
X48849523Y-64014342D02*
X48801904Y-64109580D01*
X48801904Y-64109580D02*
X48754285Y-64157200D01*
X48754285Y-64157200D02*
X48659047Y-64204819D01*
X48659047Y-64204819D02*
X48420952Y-64204819D01*
X48420952Y-64204819D02*
X48325714Y-64157200D01*
X48325714Y-64157200D02*
X48278095Y-64109580D01*
X49468571Y-63204819D02*
X49563809Y-63204819D01*
X49563809Y-63204819D02*
X49659047Y-63252438D01*
X49659047Y-63252438D02*
X49706666Y-63300057D01*
X49706666Y-63300057D02*
X49754285Y-63395295D01*
X49754285Y-63395295D02*
X49801904Y-63585771D01*
X49801904Y-63585771D02*
X49801904Y-63823866D01*
X49801904Y-63823866D02*
X49754285Y-64014342D01*
X49754285Y-64014342D02*
X49706666Y-64109580D01*
X49706666Y-64109580D02*
X49659047Y-64157200D01*
X49659047Y-64157200D02*
X49563809Y-64204819D01*
X49563809Y-64204819D02*
X49468571Y-64204819D01*
X49468571Y-64204819D02*
X49373333Y-64157200D01*
X49373333Y-64157200D02*
X49325714Y-64109580D01*
X49325714Y-64109580D02*
X49278095Y-64014342D01*
X49278095Y-64014342D02*
X49230476Y-63823866D01*
X49230476Y-63823866D02*
X49230476Y-63585771D01*
X49230476Y-63585771D02*
X49278095Y-63395295D01*
X49278095Y-63395295D02*
X49325714Y-63300057D01*
X49325714Y-63300057D02*
X49373333Y-63252438D01*
X49373333Y-63252438D02*
X49468571Y-63204819D01*
X50754285Y-64204819D02*
X50182857Y-64204819D01*
X50468571Y-64204819D02*
X50468571Y-63204819D01*
X50468571Y-63204819D02*
X50373333Y-63347676D01*
X50373333Y-63347676D02*
X50278095Y-63442914D01*
X50278095Y-63442914D02*
X50182857Y-63490533D01*
%TO.C,P500*%
D14*
X35650000Y-46625000D02*
X36650000Y-46000000D01*
X36650000Y-46000000D02*
X35650000Y-45375000D01*
X35650000Y-41050000D02*
X41400000Y-41050000D01*
X41400000Y-48450000D01*
X35650000Y-48450000D01*
X35650000Y-41050000D01*
%TO.C,TVS500*%
X81700000Y-47500000D02*
X81700000Y-44500000D01*
X83350560Y-45200920D02*
X83350560Y-46801120D01*
X83350560Y-46001020D02*
X82448860Y-46001020D01*
X83350560Y-46001020D02*
X84501180Y-45200920D01*
X83350560Y-46001020D02*
X84501180Y-46750320D01*
X84501180Y-46001020D02*
X85499400Y-46001020D01*
X84501180Y-46750320D02*
X84501180Y-45200920D01*
X86300000Y-44500000D02*
X81700000Y-44500000D01*
X86300000Y-44500000D02*
X86300000Y-47500000D01*
X86300000Y-47500000D02*
X81700000Y-47500000D01*
%TO.C,P506*%
X137000000Y-56050000D02*
X138000000Y-57050000D01*
X139000000Y-56050000D02*
X138000000Y-57050000D01*
X140000000Y-57250000D02*
X141700000Y-57250000D01*
X141700000Y-57250000D02*
X141700000Y-70630000D01*
X141700000Y-70630000D02*
X140000000Y-70630000D01*
X133200000Y-56050000D02*
X140000000Y-56050000D01*
X140000000Y-71830000D01*
X133200000Y-71830000D01*
X133200000Y-56050000D01*
%TO.C,P601*%
X137000000Y-76050000D02*
X138000000Y-77050000D01*
X139000000Y-76050000D02*
X138000000Y-77050000D01*
X140000000Y-77250000D02*
X141700000Y-77250000D01*
X141700000Y-77250000D02*
X141700000Y-90630000D01*
X141700000Y-90630000D02*
X140000000Y-90630000D01*
X133200000Y-76050000D02*
X140000000Y-76050000D01*
X140000000Y-91830000D01*
X133200000Y-91830000D01*
X133200000Y-76050000D01*
%TO.C,C511*%
X110556028Y-68626500D02*
X111186028Y-68626500D01*
X110871028Y-68311500D02*
X110871028Y-68941500D01*
X116400000Y-70000000D02*
G75*
G02*
X110100000Y-70000000I-3150000J0D01*
G01*
X110100000Y-70000000D02*
G75*
G02*
X116400000Y-70000000I3150000J0D01*
G01*
%TO.C,C506*%
X113400000Y-81200000D02*
X116600000Y-81200000D01*
X116600000Y-82800000D01*
X113400000Y-82800000D01*
X113400000Y-81200000D01*
%TO.C,C510*%
X100556028Y-68626500D02*
X101186028Y-68626500D01*
X100871028Y-68311500D02*
X100871028Y-68941500D01*
X106400000Y-70000000D02*
G75*
G02*
X100100000Y-70000000I-3150000J0D01*
G01*
X100100000Y-70000000D02*
G75*
G02*
X106400000Y-70000000I3150000J0D01*
G01*
%TO.C,P504*%
X108050000Y-99000000D02*
X109050000Y-100000000D01*
X108050000Y-101000000D02*
X109050000Y-100000000D01*
X109250000Y-96300000D02*
X118670000Y-96300000D01*
X109250000Y-98000000D02*
X109250000Y-96300000D01*
X118670000Y-96300000D02*
X118670000Y-98000000D01*
X108050000Y-98000000D02*
X119870000Y-98000000D01*
X119870000Y-104800000D01*
X108050000Y-104800000D01*
X108050000Y-98000000D01*
%TO.C,FB501*%
X87200000Y-81600000D02*
X88800000Y-81600000D01*
X88800000Y-82400000D01*
X87200000Y-82400000D01*
X87200000Y-81600000D01*
%TO.C,C503*%
X75400000Y-81200000D02*
X78600000Y-81200000D01*
X78600000Y-82800000D01*
X75400000Y-82800000D01*
X75400000Y-81200000D01*
%TO.C,C508*%
X67000000Y-65375000D02*
X69000000Y-65375000D01*
X69000000Y-66625000D01*
X67000000Y-66625000D01*
X67000000Y-65375000D01*
%TO.C,R500*%
X124400000Y-73200000D02*
X127600000Y-73200000D01*
X127600000Y-74800000D01*
X124400000Y-74800000D01*
X124400000Y-73200000D01*
%TO.C,C504*%
X95556028Y-80626500D02*
X96186028Y-80626500D01*
X95871028Y-80311500D02*
X95871028Y-80941500D01*
X101400000Y-82000000D02*
G75*
G02*
X95100000Y-82000000I-3150000J0D01*
G01*
X95100000Y-82000000D02*
G75*
G02*
X101400000Y-82000000I3150000J0D01*
G01*
%TO.C,P502*%
X76050000Y-99000000D02*
X77050000Y-100000000D01*
X76050000Y-101000000D02*
X77050000Y-100000000D01*
X77250000Y-96300000D02*
X86670000Y-96300000D01*
X77250000Y-98000000D02*
X77250000Y-96300000D01*
X86670000Y-96300000D02*
X86670000Y-98000000D01*
X76050000Y-98000000D02*
X87870000Y-98000000D01*
X87870000Y-104800000D01*
X76050000Y-104800000D01*
X76050000Y-98000000D01*
%TO.C,F500*%
X59750000Y-44400000D02*
X64250000Y-44400000D01*
X64250000Y-47600000D01*
X59750000Y-47600000D01*
X59750000Y-44400000D01*
%TO.C,FB500*%
X49200000Y-81600000D02*
X50800000Y-81600000D01*
X50800000Y-82400000D01*
X49200000Y-82400000D01*
X49200000Y-81600000D01*
%TO.C,P505*%
X124050000Y-99000000D02*
X125050000Y-100000000D01*
X124050000Y-101000000D02*
X125050000Y-100000000D01*
X125250000Y-96300000D02*
X134670000Y-96300000D01*
X125250000Y-98000000D02*
X125250000Y-96300000D01*
X134670000Y-96300000D02*
X134670000Y-98000000D01*
X124050000Y-98000000D02*
X135870000Y-98000000D01*
X135870000Y-104800000D01*
X124050000Y-104800000D01*
X124050000Y-98000000D01*
%TO.C,P503*%
X92050000Y-99000000D02*
X93050000Y-100000000D01*
X92050000Y-101000000D02*
X93050000Y-100000000D01*
X93250000Y-96300000D02*
X102670000Y-96300000D01*
X93250000Y-98000000D02*
X93250000Y-96300000D01*
X102670000Y-96300000D02*
X102670000Y-98000000D01*
X92050000Y-98000000D02*
X103870000Y-98000000D01*
X103870000Y-104800000D01*
X92050000Y-104800000D01*
X92050000Y-98000000D01*
%TO.C,C507*%
X58556028Y-64626500D02*
X59186028Y-64626500D01*
X58871028Y-64311500D02*
X58871028Y-64941500D01*
X64400000Y-66000000D02*
G75*
G02*
X58100000Y-66000000I-3150000J0D01*
G01*
X58100000Y-66000000D02*
G75*
G02*
X64400000Y-66000000I3150000J0D01*
G01*
%TO.C,C509*%
X90211139Y-61812500D02*
X91211139Y-61812500D01*
X90711139Y-61312500D02*
X90711139Y-62312500D01*
X99500000Y-64000000D02*
G75*
G02*
X89500000Y-64000000I-5000000J0D01*
G01*
X89500000Y-64000000D02*
G75*
G02*
X99500000Y-64000000I5000000J0D01*
G01*
%TO.C,P501*%
X60050000Y-99000000D02*
X61050000Y-100000000D01*
X60050000Y-101000000D02*
X61050000Y-100000000D01*
X61250000Y-96300000D02*
X70670000Y-96300000D01*
X61250000Y-98000000D02*
X61250000Y-96300000D01*
X70670000Y-96300000D02*
X70670000Y-98000000D01*
X60050000Y-98000000D02*
X71870000Y-98000000D01*
X71870000Y-104800000D01*
X60050000Y-104800000D01*
X60050000Y-98000000D01*
%TO.C,C505*%
X104400000Y-81200000D02*
X107600000Y-81200000D01*
X107600000Y-82800000D01*
X104400000Y-82800000D01*
X104400000Y-81200000D01*
%TO.C,D500*%
X49700000Y-47500000D02*
X49700000Y-44500000D01*
X51350560Y-45200920D02*
X51350560Y-46801120D01*
X51350560Y-46001020D02*
X50448860Y-46001020D01*
X51350560Y-46001020D02*
X52501180Y-45200920D01*
X51350560Y-46001020D02*
X52501180Y-46750320D01*
X52501180Y-46001020D02*
X53499400Y-46001020D01*
X52501180Y-46750320D02*
X52501180Y-45200920D01*
X54300000Y-44500000D02*
X49700000Y-44500000D01*
X54300000Y-44500000D02*
X54300000Y-47500000D01*
X54300000Y-47500000D02*
X49700000Y-47500000D01*
%TO.C,C500*%
X68211139Y-43812500D02*
X69211139Y-43812500D01*
X68711139Y-43312500D02*
X68711139Y-44312500D01*
X77500000Y-46000000D02*
G75*
G02*
X67500000Y-46000000I-5000000J0D01*
G01*
X67500000Y-46000000D02*
G75*
G02*
X77500000Y-46000000I5000000J0D01*
G01*
%TO.C,PS500*%
X103300000Y-37300000D02*
X128700000Y-37300000D01*
X128700000Y-62700000D01*
X103300000Y-62700000D01*
X103300000Y-37300000D01*
%TO.C,C512*%
X44400000Y-55200000D02*
X47600000Y-55200000D01*
X47600000Y-56800000D01*
X44400000Y-56800000D01*
X44400000Y-55200000D01*
%TO.C,C501*%
X57556028Y-80626500D02*
X58186028Y-80626500D01*
X57871028Y-80311500D02*
X57871028Y-80941500D01*
X63400000Y-82000000D02*
G75*
G02*
X57100000Y-82000000I-3150000J0D01*
G01*
X57100000Y-82000000D02*
G75*
G02*
X63400000Y-82000000I3150000J0D01*
G01*
%TO.C,C502*%
X66400000Y-81200000D02*
X69600000Y-81200000D01*
X69600000Y-82800000D01*
X66400000Y-82800000D01*
X66400000Y-81200000D01*
%TO.C,PS501*%
X42690000Y-59500000D02*
X54290000Y-59500000D01*
X42690000Y-67000000D02*
X42690000Y-59500000D01*
X43690000Y-68000000D02*
X42690000Y-67000000D01*
X54290000Y-59500000D02*
X54290000Y-68000000D01*
X54290000Y-68000000D02*
X43690000Y-68000000D01*
%TD*%
M02*
