%TF.GenerationSoftware,KiCad,Pcbnew,10.0.3*%
%TF.CreationDate,2026-07-02T05:10:36-05:00*%
%TF.ProjectId,power-backplane,706f7765-722d-4626-9163-6b706c616e65,rev?*%
%TF.SameCoordinates,Original*%
%TF.FileFunction,Soldermask,Bot*%
%TF.FilePolarity,Negative*%
%FSLAX46Y46*%
G04 Gerber Fmt 4.6, Leading zero omitted, Abs format (unit mm)*
G04 Created by KiCad (PCBNEW 10.0.3) date 2026-07-02 05:10:36*
%MOMM*%
%LPD*%
G01*
G04 APERTURE LIST*
G04 Aperture macros list*
%AMRoundRect*
0 Rectangle with rounded corners*
0 $1 Rounding radius*
0 $2 $3 $4 $5 $6 $7 $8 $9 X,Y pos of 4 corners*
0 Add a 4 corners polygon primitive as box body*
4,1,4,$2,$3,$4,$5,$6,$7,$8,$9,$2,$3,0*
0 Add four circle primitives for the rounded corners*
1,1,$1+$1,$2,$3*
1,1,$1+$1,$4,$5*
1,1,$1+$1,$6,$7*
1,1,$1+$1,$8,$9*
0 Add four rect primitives between the rounded corners*
20,1,$1+$1,$2,$3,$4,$5,0*
20,1,$1+$1,$4,$5,$6,$7,0*
20,1,$1+$1,$6,$7,$8,$9,0*
20,1,$1+$1,$8,$9,$2,$3,0*%
G04 Aperture macros list end*
%ADD10RoundRect,0.250000X0.750000X-0.600000X0.750000X0.600000X-0.750000X0.600000X-0.750000X-0.600000X0*%
%ADD11O,2.000000X1.700000*%
%ADD12RoundRect,0.250001X-1.099999X1.099999X-1.099999X-1.099999X1.099999X-1.099999X1.099999X1.099999X0*%
%ADD13C,2.700000*%
%ADD14RoundRect,0.250000X-0.550000X-0.550000X0.550000X-0.550000X0.550000X0.550000X-0.550000X0.550000X0*%
%ADD15C,1.600000*%
%ADD16RoundRect,0.250001X-1.099999X-1.099999X1.099999X-1.099999X1.099999X1.099999X-1.099999X1.099999X0*%
%ADD17C,3.200000*%
%ADD18RoundRect,0.250000X-0.750000X-0.750000X0.750000X-0.750000X0.750000X0.750000X-0.750000X0.750000X0*%
%ADD19C,2.000000*%
%ADD20R,2.000000X2.000000*%
%ADD21R,1.500000X2.300000*%
%ADD22O,1.500000X2.300000*%
G04 APERTURE END LIST*
D10*
%TO.C,P500*%
X38000000Y-46000000D03*
D11*
X38000000Y-43500000D03*
%TD*%
D12*
%TO.C,P506*%
X138000000Y-58000000D03*
D13*
X138000000Y-61960000D03*
X138000000Y-65920000D03*
X138000000Y-69880000D03*
%TD*%
D12*
%TO.C,P601*%
X138000000Y-78000000D03*
D13*
X138000000Y-81960000D03*
X138000000Y-85920000D03*
X138000000Y-89880000D03*
%TD*%
D14*
%TO.C,C511*%
X112000000Y-70000000D03*
D15*
X114500000Y-70000000D03*
%TD*%
D14*
%TO.C,C510*%
X102000000Y-70000000D03*
D15*
X104500000Y-70000000D03*
%TD*%
D16*
%TO.C,P504*%
X110000000Y-100000000D03*
D13*
X113960000Y-100000000D03*
X117920000Y-100000000D03*
%TD*%
D17*
%TO.C,H4*%
X144000000Y-104000000D03*
%TD*%
%TO.C,H1*%
X36000000Y-36000000D03*
%TD*%
D14*
%TO.C,C504*%
X97000000Y-82000000D03*
D15*
X99500000Y-82000000D03*
%TD*%
D16*
%TO.C,P502*%
X78000000Y-100000000D03*
D13*
X81960000Y-100000000D03*
X85920000Y-100000000D03*
%TD*%
D16*
%TO.C,P505*%
X126000000Y-100000000D03*
D13*
X129960000Y-100000000D03*
X133920000Y-100000000D03*
%TD*%
D16*
%TO.C,P503*%
X94000000Y-100000000D03*
D13*
X97960000Y-100000000D03*
X101920000Y-100000000D03*
%TD*%
D14*
%TO.C,C507*%
X60000000Y-66000000D03*
D15*
X62500000Y-66000000D03*
%TD*%
D18*
%TO.C,C509*%
X92000000Y-64000000D03*
D19*
X97000000Y-64000000D03*
%TD*%
D17*
%TO.C,H2*%
X144000000Y-36000000D03*
%TD*%
D16*
%TO.C,P501*%
X62000000Y-100000000D03*
D13*
X65960000Y-100000000D03*
X69920000Y-100000000D03*
%TD*%
D17*
%TO.C,H3*%
X36000000Y-104000000D03*
%TD*%
D18*
%TO.C,C500*%
X70000000Y-46000000D03*
D19*
X75000000Y-46000000D03*
%TD*%
%TO.C,PS500*%
X113460000Y-39840000D03*
D20*
X108380000Y-39840000D03*
D19*
X105840000Y-60160000D03*
X116000000Y-60160000D03*
X126160000Y-60160000D03*
X121080000Y-39840000D03*
%TD*%
D14*
%TO.C,C501*%
X59000000Y-82000000D03*
D15*
X61500000Y-82000000D03*
%TD*%
D21*
%TO.C,PS501*%
X46000000Y-66000000D03*
D22*
X48540000Y-66000000D03*
X51080000Y-66000000D03*
%TD*%
M02*
