%TF.GenerationSoftware,KiCad,Pcbnew,10.0.3*%
%TF.CreationDate,2026-07-02T03:05:27-05:00*%
%TF.ProjectId,power-backplane,706f7765-722d-4626-9163-6b706c616e65,rev?*%
%TF.SameCoordinates,Original*%
%TF.FileFunction,Other,User*%
%FSLAX46Y46*%
G04 Gerber Fmt 4.6, Leading zero omitted, Abs format (unit mm)*
G04 Created by KiCad (PCBNEW 10.0.3) date 2026-07-02 03:05:27*
%MOMM*%
%LPD*%
G01*
G04 APERTURE LIST*
%ADD10C,0.050000*%
G04 APERTURE END LIST*
%TO.C,P501*%
D10*
X59550000Y-95800000D02*
X72370000Y-95800000D01*
X72370000Y-105300000D01*
X59550000Y-105300000D01*
X59550000Y-95800000D01*
%TO.C,H3*%
X39450000Y-104000000D02*
G75*
G02*
X32550000Y-104000000I-3450000J0D01*
G01*
X32550000Y-104000000D02*
G75*
G02*
X39450000Y-104000000I3450000J0D01*
G01*
%TO.C,H1*%
X39450000Y-36000000D02*
G75*
G02*
X32550000Y-36000000I-3450000J0D01*
G01*
X32550000Y-36000000D02*
G75*
G02*
X39450000Y-36000000I3450000J0D01*
G01*
%TO.C,P505*%
X123550000Y-95800000D02*
X136370000Y-95800000D01*
X136370000Y-105300000D01*
X123550000Y-105300000D01*
X123550000Y-95800000D01*
%TO.C,C511*%
X116650000Y-70000000D02*
G75*
G02*
X109850000Y-70000000I-3400000J0D01*
G01*
X109850000Y-70000000D02*
G75*
G02*
X116650000Y-70000000I3400000J0D01*
G01*
%TO.C,C506*%
X112700000Y-80850000D02*
X117300000Y-80850000D01*
X117300000Y-83150000D01*
X112700000Y-83150000D01*
X112700000Y-80850000D01*
%TO.C,C510*%
X106650000Y-70000000D02*
G75*
G02*
X99850000Y-70000000I-3400000J0D01*
G01*
X99850000Y-70000000D02*
G75*
G02*
X106650000Y-70000000I3400000J0D01*
G01*
%TO.C,H2*%
X147450000Y-36000000D02*
G75*
G02*
X140550000Y-36000000I-3450000J0D01*
G01*
X140550000Y-36000000D02*
G75*
G02*
X147450000Y-36000000I3450000J0D01*
G01*
%TO.C,P500*%
X35150000Y-40550000D02*
X41900000Y-40550000D01*
X41900000Y-48950000D01*
X35150000Y-48950000D01*
X35150000Y-40550000D01*
%TO.C,C503*%
X74700000Y-80850000D02*
X79300000Y-80850000D01*
X79300000Y-83150000D01*
X74700000Y-83150000D01*
X74700000Y-80850000D01*
%TO.C,C508*%
X66300000Y-65020000D02*
X69700000Y-65020000D01*
X69700000Y-66980000D01*
X66300000Y-66980000D01*
X66300000Y-65020000D01*
%TO.C,TVS500*%
X80500000Y-44250000D02*
X87500000Y-44250000D01*
X80500000Y-47750000D02*
X80500000Y-44250000D01*
X87500000Y-44250000D02*
X87500000Y-47750000D01*
X87500000Y-47750000D02*
X80500000Y-47750000D01*
%TO.C,P601*%
X132700000Y-75550000D02*
X142200000Y-75550000D01*
X142200000Y-92330000D01*
X132700000Y-92330000D01*
X132700000Y-75550000D01*
%TO.C,C504*%
X101650000Y-82000000D02*
G75*
G02*
X94850000Y-82000000I-3400000J0D01*
G01*
X94850000Y-82000000D02*
G75*
G02*
X101650000Y-82000000I3400000J0D01*
G01*
%TO.C,P502*%
X75550000Y-95800000D02*
X88370000Y-95800000D01*
X88370000Y-105300000D01*
X75550000Y-105300000D01*
X75550000Y-95800000D01*
%TO.C,P503*%
X91550000Y-95800000D02*
X104370000Y-95800000D01*
X104370000Y-105300000D01*
X91550000Y-105300000D01*
X91550000Y-95800000D01*
%TO.C,FB500*%
X48520000Y-81270000D02*
X51480000Y-81270000D01*
X51480000Y-82730000D01*
X48520000Y-82730000D01*
X48520000Y-81270000D01*
%TO.C,FB501*%
X86520000Y-81270000D02*
X89480000Y-81270000D01*
X89480000Y-82730000D01*
X86520000Y-82730000D01*
X86520000Y-81270000D01*
%TO.C,C507*%
X64650000Y-66000000D02*
G75*
G02*
X57850000Y-66000000I-3400000J0D01*
G01*
X57850000Y-66000000D02*
G75*
G02*
X64650000Y-66000000I3400000J0D01*
G01*
%TO.C,C509*%
X99750000Y-64000000D02*
G75*
G02*
X89250000Y-64000000I-5250000J0D01*
G01*
X89250000Y-64000000D02*
G75*
G02*
X99750000Y-64000000I5250000J0D01*
G01*
%TO.C,C505*%
X103700000Y-80850000D02*
X108300000Y-80850000D01*
X108300000Y-83150000D01*
X103700000Y-83150000D01*
X103700000Y-80850000D01*
%TO.C,F500*%
X59050000Y-44050000D02*
X64950000Y-44050000D01*
X64950000Y-47950000D01*
X59050000Y-47950000D01*
X59050000Y-44050000D01*
%TO.C,C500*%
X77750000Y-46000000D02*
G75*
G02*
X67250000Y-46000000I-5250000J0D01*
G01*
X67250000Y-46000000D02*
G75*
G02*
X77750000Y-46000000I5250000J0D01*
G01*
%TO.C,P506*%
X132700000Y-55550000D02*
X142200000Y-55550000D01*
X142200000Y-72330000D01*
X132700000Y-72330000D01*
X132700000Y-55550000D01*
%TO.C,PS500*%
X102800000Y-36800000D02*
X129200000Y-36800000D01*
X129200000Y-63200000D01*
X102800000Y-63200000D01*
X102800000Y-36800000D01*
%TO.C,R500*%
X123720000Y-72870000D02*
X128280000Y-72870000D01*
X128280000Y-75130000D01*
X123720000Y-75130000D01*
X123720000Y-72870000D01*
%TO.C,D500*%
X48500000Y-44250000D02*
X55500000Y-44250000D01*
X48500000Y-47750000D02*
X48500000Y-44250000D01*
X55500000Y-44250000D02*
X55500000Y-47750000D01*
X55500000Y-47750000D02*
X48500000Y-47750000D01*
%TO.C,P504*%
X107550000Y-95800000D02*
X120370000Y-95800000D01*
X120370000Y-105300000D01*
X107550000Y-105300000D01*
X107550000Y-95800000D01*
%TO.C,C501*%
X63650000Y-82000000D02*
G75*
G02*
X56850000Y-82000000I-3400000J0D01*
G01*
X56850000Y-82000000D02*
G75*
G02*
X63650000Y-82000000I3400000J0D01*
G01*
%TO.C,PS501*%
X42430000Y-59250000D02*
X54540000Y-59250000D01*
X54540000Y-68250000D01*
X42430000Y-68250000D01*
X42430000Y-59250000D01*
%TO.C,C502*%
X65700000Y-80850000D02*
X70300000Y-80850000D01*
X70300000Y-83150000D01*
X65700000Y-83150000D01*
X65700000Y-80850000D01*
%TO.C,H4*%
X147450000Y-104000000D02*
G75*
G02*
X140550000Y-104000000I-3450000J0D01*
G01*
X140550000Y-104000000D02*
G75*
G02*
X147450000Y-104000000I3450000J0D01*
G01*
%TD*%
M02*
