M48
; DRILL file KiCad 10.0.3 date 2026-07-02T05:10:37
; FORMAT={-:-/ absolute / metric / decimal}
; #@! TF.CreationDate,2026-07-02T05:10:37-05:00
; #@! TF.GenerationSoftware,Kicad,Pcbnew,10.0.3
; #@! TF.FileFunction,MixedPlating,1,2
FMAT,2
METRIC
; #@! TA.AperFunction,Plated,PTH,ViaDrill
T1C0.300
; #@! TA.AperFunction,Plated,PTH,ViaDrill
T2C0.400
; #@! TA.AperFunction,Plated,PTH,ComponentDrill
T3C0.800
; #@! TA.AperFunction,Plated,PTH,ComponentDrill
T4C1.000
; #@! TA.AperFunction,Plated,PTH,ComponentDrill
T5C1.300
; #@! TA.AperFunction,Plated,PTH,ComponentDrill
T6C1.700
; #@! TA.AperFunction,NonPlated,NPTH,ComponentDrill
T7C3.200
%
G90
G05
T1
X110.524Y-81.881
T2
X42.451Y-44.992
X63.589Y-65.624
X73.12Y-100.131
X77.813Y-67.404
X82.76Y-100.096
X105.179Y-99.903
X106.747Y-81.466
X109.394Y-69.605
X115.394Y-99.689
X120.958Y-100.051
X127.175Y-69.783
X138.114Y-82.973
X140.503Y-36.89
X140.778Y-37.163
T3
X59.0Y-82.0
X60.0Y-66.0
X61.5Y-82.0
X62.5Y-66.0
X97.0Y-82.0
X99.5Y-82.0
X102.0Y-70.0
X104.5Y-70.0
X112.0Y-70.0
X114.5Y-70.0
T4
X38.0Y-43.5
X38.0Y-46.0
X46.0Y-66.0
X48.54Y-66.0
X51.08Y-66.0
X70.0Y-46.0
X75.0Y-46.0
X92.0Y-64.0
X97.0Y-64.0
T5
X105.84Y-60.16
X108.38Y-39.84
X113.46Y-39.84
X116.0Y-60.16
X121.08Y-39.84
X126.16Y-60.16
T6
X62.0Y-100.0
X65.96Y-100.0
X69.92Y-100.0
X78.0Y-100.0
X81.96Y-100.0
X85.92Y-100.0
X94.0Y-100.0
X97.96Y-100.0
X101.92Y-100.0
X110.0Y-100.0
X113.96Y-100.0
X117.92Y-100.0
X126.0Y-100.0
X129.96Y-100.0
X133.92Y-100.0
X138.0Y-58.0
X138.0Y-61.96
X138.0Y-65.92
X138.0Y-69.88
X138.0Y-78.0
X138.0Y-81.96
X138.0Y-85.92
X138.0Y-89.88
T7
X36.0Y-36.0
X36.0Y-104.0
X144.0Y-36.0
X144.0Y-104.0
M30
