%TF.GenerationSoftware,KiCad,Pcbnew,10.0.3*%
%TF.CreationDate,2026-07-02T03:05:27-05:00*%
%TF.ProjectId,power-backplane,706f7765-722d-4626-9163-6b706c616e65,rev?*%
%TF.SameCoordinates,Original*%
%TF.FileFunction,Copper,L1,Top*%
%TF.FilePolarity,Positive*%
%FSLAX46Y46*%
G04 Gerber Fmt 4.6, Leading zero omitted, Abs format (unit mm)*
G04 Created by KiCad (PCBNEW 10.0.3) date 2026-07-02 03:05:27*
%MOMM*%
%LPD*%
G01*
G04 APERTURE LIST*
G04 Aperture macros list*
%AMRoundRect*
0 Rectangle with rounded corners*
0 $1 Rounding radius*
0 $2 $3 $4 $5 $6 $7 $8 $9 X,Y pos of 4 corners*
0 Add a 4 corners polygon primitive as box body*
4,1,4,$2,$3,$4,$5,$6,$7,$8,$9,$2,$3,0*
0 Add four circle primitives for the rounded corners*
1,1,$1+$1,$2,$3*
1,1,$1+$1,$4,$5*
1,1,$1+$1,$6,$7*
1,1,$1+$1,$8,$9*
0 Add four rect primitives between the rounded corners*
20,1,$1+$1,$2,$3,$4,$5,0*
20,1,$1+$1,$4,$5,$6,$7,0*
20,1,$1+$1,$6,$7,$8,$9,0*
20,1,$1+$1,$8,$9,$2,$3,0*%
G04 Aperture macros list end*
%TA.AperFunction,ComponentPad*%
%ADD10RoundRect,0.250001X-1.099999X-1.099999X1.099999X-1.099999X1.099999X1.099999X-1.099999X1.099999X0*%
%TD*%
%TA.AperFunction,ComponentPad*%
%ADD11C,2.700000*%
%TD*%
%TA.AperFunction,ComponentPad*%
%ADD12RoundRect,0.250000X-0.550000X-0.550000X0.550000X-0.550000X0.550000X0.550000X-0.550000X0.550000X0*%
%TD*%
%TA.AperFunction,ComponentPad*%
%ADD13C,1.600000*%
%TD*%
%TA.AperFunction,SMDPad,CuDef*%
%ADD14RoundRect,0.250000X-0.325000X-0.650000X0.325000X-0.650000X0.325000X0.650000X-0.325000X0.650000X0*%
%TD*%
%TA.AperFunction,ComponentPad*%
%ADD15RoundRect,0.250000X0.750000X-0.600000X0.750000X0.600000X-0.750000X0.600000X-0.750000X-0.600000X0*%
%TD*%
%TA.AperFunction,ComponentPad*%
%ADD16O,2.000000X1.700000*%
%TD*%
%TA.AperFunction,SMDPad,CuDef*%
%ADD17RoundRect,0.250000X-0.250000X-0.475000X0.250000X-0.475000X0.250000X0.475000X-0.250000X0.475000X0*%
%TD*%
%TA.AperFunction,SMDPad,CuDef*%
%ADD18RoundRect,0.250000X-1.000000X-0.650000X1.000000X-0.650000X1.000000X0.650000X-1.000000X0.650000X0*%
%TD*%
%TA.AperFunction,ComponentPad*%
%ADD19RoundRect,0.250001X-1.099999X1.099999X-1.099999X-1.099999X1.099999X-1.099999X1.099999X1.099999X0*%
%TD*%
%TA.AperFunction,SMDPad,CuDef*%
%ADD20RoundRect,0.218750X-0.218750X-0.256250X0.218750X-0.256250X0.218750X0.256250X-0.218750X0.256250X0*%
%TD*%
%TA.AperFunction,ComponentPad*%
%ADD21RoundRect,0.250000X-0.750000X-0.750000X0.750000X-0.750000X0.750000X0.750000X-0.750000X0.750000X0*%
%TD*%
%TA.AperFunction,ComponentPad*%
%ADD22C,2.000000*%
%TD*%
%TA.AperFunction,SMDPad,CuDef*%
%ADD23RoundRect,0.250000X-0.312500X-1.450000X0.312500X-1.450000X0.312500X1.450000X-0.312500X1.450000X0*%
%TD*%
%TA.AperFunction,ComponentPad*%
%ADD24R,2.000000X2.000000*%
%TD*%
%TA.AperFunction,SMDPad,CuDef*%
%ADD25RoundRect,0.250000X-0.312500X-0.625000X0.312500X-0.625000X0.312500X0.625000X-0.312500X0.625000X0*%
%TD*%
%TA.AperFunction,ComponentPad*%
%ADD26R,1.500000X2.300000*%
%TD*%
%TA.AperFunction,ComponentPad*%
%ADD27O,1.500000X2.300000*%
%TD*%
%TA.AperFunction,ViaPad*%
%ADD28C,0.600000*%
%TD*%
%TA.AperFunction,ViaPad*%
%ADD29C,0.800000*%
%TD*%
%TA.AperFunction,Conductor*%
%ADD30C,0.800000*%
%TD*%
G04 APERTURE END LIST*
D10*
%TO.P,P501,1*%
%TO.N,+15VA*%
X62000000Y-100000000D03*
D11*
%TO.P,P501,2*%
%TO.N,AGND*%
X65960000Y-100000000D03*
%TO.P,P501,3*%
%TO.N,-15VA*%
X69920000Y-100000000D03*
%TD*%
D10*
%TO.P,P505,1*%
%TO.N,+15VA*%
X126000000Y-100000000D03*
D11*
%TO.P,P505,2*%
%TO.N,AGND*%
X129960000Y-100000000D03*
%TO.P,P505,3*%
%TO.N,-15VA*%
X133920000Y-100000000D03*
%TD*%
D12*
%TO.P,C511,1*%
%TO.N,AGND*%
X112000000Y-70000000D03*
D13*
%TO.P,C511,2*%
%TO.N,-15VRAW*%
X114500000Y-70000000D03*
%TD*%
D14*
%TO.P,C506,1*%
%TO.N,-15VA*%
X113525000Y-82000000D03*
%TO.P,C506,2*%
%TO.N,AGND*%
X116475000Y-82000000D03*
%TD*%
D12*
%TO.P,C510,1*%
%TO.N,+15VRAW*%
X102000000Y-70000000D03*
D13*
%TO.P,C510,2*%
%TO.N,AGND*%
X104500000Y-70000000D03*
%TD*%
D15*
%TO.P,P500,1*%
%TO.N,+30V_RAW*%
X38000000Y-46000000D03*
D16*
%TO.P,P500,2*%
%TO.N,GND_IN*%
X38000000Y-43500000D03*
%TD*%
D14*
%TO.P,C503,1*%
%TO.N,+15VA*%
X75525000Y-82000000D03*
%TO.P,C503,2*%
%TO.N,AGND*%
X78475000Y-82000000D03*
%TD*%
D17*
%TO.P,C508,1*%
%TO.N,+5VAUX*%
X67050000Y-66000000D03*
%TO.P,C508,2*%
%TO.N,AGND*%
X68950000Y-66000000D03*
%TD*%
D18*
%TO.P,TVS500,1*%
%TO.N,+30V_F*%
X82000000Y-46000000D03*
%TO.P,TVS500,2*%
%TO.N,GND_IN*%
X86000000Y-46000000D03*
%TD*%
D19*
%TO.P,P601,1*%
%TO.N,+5VAUX*%
X138000000Y-78000000D03*
D11*
%TO.P,P601,2*%
%TO.N,AGND*%
X138000000Y-81960000D03*
%TO.P,P601,3*%
%TO.N,+15VA*%
X138000000Y-85920000D03*
%TO.P,P601,4*%
%TO.N,-15VA*%
X138000000Y-89880000D03*
%TD*%
D12*
%TO.P,C504,1*%
%TO.N,AGND*%
X97000000Y-82000000D03*
D13*
%TO.P,C504,2*%
%TO.N,-15VA*%
X99500000Y-82000000D03*
%TD*%
D10*
%TO.P,P502,1*%
%TO.N,+15VA*%
X78000000Y-100000000D03*
D11*
%TO.P,P502,2*%
%TO.N,AGND*%
X81960000Y-100000000D03*
%TO.P,P502,3*%
%TO.N,-15VA*%
X85920000Y-100000000D03*
%TD*%
D10*
%TO.P,P503,1*%
%TO.N,+15VA*%
X94000000Y-100000000D03*
D11*
%TO.P,P503,2*%
%TO.N,AGND*%
X97960000Y-100000000D03*
%TO.P,P503,3*%
%TO.N,-15VA*%
X101920000Y-100000000D03*
%TD*%
D20*
%TO.P,FB500,1*%
%TO.N,+15VRAW*%
X49212500Y-82000000D03*
%TO.P,FB500,2*%
%TO.N,+15VA*%
X50787500Y-82000000D03*
%TD*%
%TO.P,FB501,1*%
%TO.N,-15VRAW*%
X87212500Y-82000000D03*
%TO.P,FB501,2*%
%TO.N,-15VA*%
X88787500Y-82000000D03*
%TD*%
D12*
%TO.P,C507,1*%
%TO.N,+5VAUX*%
X60000000Y-66000000D03*
D13*
%TO.P,C507,2*%
%TO.N,AGND*%
X62500000Y-66000000D03*
%TD*%
D21*
%TO.P,C509,1*%
%TO.N,+30V_F*%
X92000000Y-64000000D03*
D22*
%TO.P,C509,2*%
%TO.N,GND_IN*%
X97000000Y-64000000D03*
%TD*%
D14*
%TO.P,C505,1*%
%TO.N,-15VA*%
X104525000Y-82000000D03*
%TO.P,C505,2*%
%TO.N,AGND*%
X107475000Y-82000000D03*
%TD*%
D23*
%TO.P,F500,1*%
%TO.N,+30V_D*%
X59862500Y-46000000D03*
%TO.P,F500,2*%
%TO.N,+30V_F*%
X64137500Y-46000000D03*
%TD*%
D21*
%TO.P,C500,1*%
%TO.N,+30V_F*%
X70000000Y-46000000D03*
D22*
%TO.P,C500,2*%
%TO.N,GND_IN*%
X75000000Y-46000000D03*
%TD*%
D19*
%TO.P,P506,1*%
%TO.N,+15VA*%
X138000000Y-58000000D03*
D11*
%TO.P,P506,2*%
%TO.N,AGND*%
X138000000Y-61960000D03*
%TO.P,P506,3*%
%TO.N,-15VA*%
X138000000Y-65920000D03*
%TO.P,P506,4*%
%TO.N,+5VAUX*%
X138000000Y-69880000D03*
%TD*%
D22*
%TO.P,PS500,1*%
%TO.N,GND_IN*%
X113460000Y-39840000D03*
D24*
%TO.P,PS500,2*%
%TO.N,+30V_F*%
X108380000Y-39840000D03*
D22*
%TO.P,PS500,3*%
%TO.N,+15VRAW*%
X105840000Y-60160000D03*
%TO.P,PS500,4*%
%TO.N,AGND*%
X116000000Y-60160000D03*
%TO.P,PS500,5*%
%TO.N,-15VRAW*%
X126160000Y-60160000D03*
%TO.P,PS500,6*%
%TO.N,N/C*%
X121080000Y-39840000D03*
%TD*%
D25*
%TO.P,R500,1*%
%TO.N,GND_IN*%
X124537500Y-74000000D03*
%TO.P,R500,2*%
%TO.N,AGND*%
X127462500Y-74000000D03*
%TD*%
D18*
%TO.P,D500,1*%
%TO.N,+30V_D*%
X50000000Y-46000000D03*
%TO.P,D500,2*%
%TO.N,+30V_RAW*%
X54000000Y-46000000D03*
%TD*%
D10*
%TO.P,P504,1*%
%TO.N,+15VA*%
X110000000Y-100000000D03*
D11*
%TO.P,P504,2*%
%TO.N,AGND*%
X113960000Y-100000000D03*
%TO.P,P504,3*%
%TO.N,-15VA*%
X117920000Y-100000000D03*
%TD*%
D12*
%TO.P,C501,1*%
%TO.N,+15VA*%
X59000000Y-82000000D03*
D13*
%TO.P,C501,2*%
%TO.N,AGND*%
X61500000Y-82000000D03*
%TD*%
D26*
%TO.P,PS501,1*%
%TO.N,+15VA*%
X46000000Y-66000000D03*
D27*
%TO.P,PS501,2*%
%TO.N,AGND*%
X48540000Y-66000000D03*
%TO.P,PS501,3*%
%TO.N,+5VAUX*%
X51080000Y-66000000D03*
%TD*%
D14*
%TO.P,C502,1*%
%TO.N,+15VA*%
X66525000Y-82000000D03*
%TO.P,C502,2*%
%TO.N,AGND*%
X69475000Y-82000000D03*
%TD*%
D28*
%TO.N,+15VRAW*%
X98797300Y-73157600D03*
%TO.N,+30V_RAW*%
X52000100Y-46236400D03*
%TO.N,-15VRAW*%
X110524500Y-81881200D03*
D29*
%TO.N,AGND*%
X92626957Y-69490979D03*
X138148212Y-83238292D03*
X115568499Y-99722414D03*
X107078823Y-80693983D03*
X82964642Y-100190476D03*
X140781656Y-37486858D03*
D28*
%TO.N,GND_IN*%
X104660900Y-73157600D03*
%TD*%
%TO.N,+15VA*%
D30*
X75987600Y-102012400D02*
X64012400Y-102012400D01*
X95978100Y-98021900D02*
X94000000Y-100000000D01*
X66525000Y-83425000D02*
X60425000Y-83425000D01*
X92016900Y-101983100D02*
X79983100Y-101983100D01*
X75525000Y-82000000D02*
X74005000Y-83520000D01*
X78000000Y-100000000D02*
X75987600Y-102012400D01*
X50787500Y-82000000D02*
X59000000Y-82000000D01*
X66620000Y-83520000D02*
X66525000Y-83425000D01*
X74005000Y-83520000D02*
X66620000Y-83520000D01*
X110000000Y-98021900D02*
X110000000Y-100000000D01*
X126000000Y-100000000D02*
X124021900Y-98021900D01*
X66525000Y-83425000D02*
X66525000Y-82000000D01*
X124021900Y-98021900D02*
X110000000Y-98021900D01*
X110000000Y-98021900D02*
X95978100Y-98021900D01*
X79983100Y-101983100D02*
X78000000Y-100000000D01*
X60425000Y-83425000D02*
X59000000Y-82000000D01*
X64012400Y-102012400D02*
X62000000Y-100000000D01*
X94000000Y-100000000D02*
X92016900Y-101983100D01*
%TO.N,+15VRAW*%
X57941300Y-73157600D02*
X49212500Y-81886400D01*
X98797300Y-73157600D02*
X57941300Y-73157600D01*
X49212500Y-81886400D02*
X49212500Y-82000000D01*
%TO.N,+30V_D*%
X51510700Y-47510700D02*
X50000000Y-46000000D01*
X58351800Y-47510700D02*
X51510700Y-47510700D01*
X59862500Y-46000000D02*
X58351800Y-47510700D01*
%TO.N,+30V_F*%
X88160000Y-39840000D02*
X82000000Y-46000000D01*
X64137500Y-46000000D02*
X70000000Y-46000000D01*
X108380000Y-39840000D02*
X88160000Y-39840000D01*
%TO.N,+30V_RAW*%
X53763600Y-46236400D02*
X54000000Y-46000000D01*
X52000100Y-46236400D02*
X53763600Y-46236400D01*
%TO.N,+5VAUX*%
X51080000Y-66000000D02*
X60000000Y-66000000D01*
X67050000Y-66115700D02*
X65716600Y-67449100D01*
X67050000Y-66115700D02*
X67050000Y-66000000D01*
X61449100Y-67449100D02*
X60000000Y-66000000D01*
X136419900Y-71460100D02*
X72394400Y-71460100D01*
X138000000Y-69880000D02*
X136419900Y-71460100D01*
X65716600Y-67449100D02*
X61449100Y-67449100D01*
X72394400Y-71460100D02*
X67050000Y-66115700D01*
%TO.N,-15VA*%
X88787500Y-82000000D02*
X90240100Y-80547400D01*
X83910200Y-97990200D02*
X71929800Y-97990200D01*
X71929800Y-97990200D02*
X69920000Y-100000000D01*
X111950800Y-83574200D02*
X106099200Y-83574200D01*
X98047400Y-80547400D02*
X99500000Y-82000000D01*
X85920000Y-100000000D02*
X83910200Y-97990200D01*
X131915200Y-102004800D02*
X117920000Y-102004800D01*
X106099200Y-83574200D02*
X104525000Y-82000000D01*
X117920000Y-102004800D02*
X103924800Y-102004800D01*
X113525000Y-82000000D02*
X111950800Y-83574200D01*
X90240100Y-80547400D02*
X98047400Y-80547400D01*
X104525000Y-82000000D02*
X99500000Y-82000000D01*
X103924800Y-102004800D02*
X101920000Y-100000000D01*
X117920000Y-102004800D02*
X117920000Y-100000000D01*
X133920000Y-100000000D02*
X131915200Y-102004800D01*
%TO.N,-15VRAW*%
X108185800Y-79542500D02*
X110524500Y-81881200D01*
X89534900Y-79542500D02*
X108185800Y-79542500D01*
X87212500Y-82000000D02*
X87212500Y-81864900D01*
X87212500Y-81864900D02*
X89534900Y-79542500D01*
%TO.N,GND_IN*%
X113460000Y-39840000D02*
X107300000Y-46000000D01*
X84433500Y-47566500D02*
X76566500Y-47566500D01*
X104660900Y-73157600D02*
X123695100Y-73157600D01*
X38000000Y-43500000D02*
X72500000Y-43500000D01*
X86000000Y-46000000D02*
X84433500Y-47566500D01*
X97000000Y-64000000D02*
X97000000Y-60133000D01*
X72500000Y-43500000D02*
X75000000Y-46000000D01*
X76566500Y-47566500D02*
X75000000Y-46000000D01*
X97000000Y-60133000D02*
X84433500Y-47566500D01*
X123695100Y-73157600D02*
X124537500Y-74000000D01*
X107300000Y-46000000D02*
X86000000Y-46000000D01*
%TD*%
%TA.AperFunction,Conductor*%
%TO.N,AGND*%
G36*
X116379323Y-98826400D02*
G01*
X116393498Y-98825556D01*
X116412181Y-98836048D01*
X116432739Y-98842085D01*
X116442036Y-98852815D01*
X116454419Y-98859769D01*
X116464464Y-98878697D01*
X116478494Y-98894889D01*
X116480514Y-98908943D01*
X116487171Y-98921486D01*
X116485388Y-98942837D01*
X116488438Y-98964047D01*
X116482426Y-98978320D01*
X116481358Y-98991113D01*
X116464077Y-99021884D01*
X116462929Y-99023380D01*
X116461389Y-99025387D01*
X116346657Y-99224109D01*
X116346650Y-99224123D01*
X116258842Y-99436112D01*
X116199453Y-99657759D01*
X116199451Y-99657770D01*
X116169500Y-99885258D01*
X116169500Y-100114741D01*
X116194446Y-100304215D01*
X116199452Y-100342238D01*
X116232958Y-100467284D01*
X116258842Y-100563887D01*
X116346650Y-100775876D01*
X116346657Y-100775890D01*
X116461392Y-100974617D01*
X116484563Y-101004813D01*
X116509758Y-101069982D01*
X116495720Y-101138427D01*
X116446907Y-101188417D01*
X116386188Y-101204300D01*
X111874500Y-101204300D01*
X111807461Y-101184615D01*
X111761706Y-101131811D01*
X111750500Y-101080300D01*
X111750500Y-98946400D01*
X111770185Y-98879361D01*
X111822989Y-98833606D01*
X111874500Y-98822400D01*
X116365700Y-98822400D01*
X116379323Y-98826400D01*
G37*
%TD.AperFunction*%
%TA.AperFunction,Conductor*%
G36*
X83594299Y-98810385D02*
G01*
X83614941Y-98827019D01*
X84200863Y-99412941D01*
X84234348Y-99474264D01*
X84232957Y-99532715D01*
X84199454Y-99657751D01*
X84199452Y-99657763D01*
X84169500Y-99885258D01*
X84169500Y-100114741D01*
X84194446Y-100304215D01*
X84199452Y-100342238D01*
X84232958Y-100467284D01*
X84258842Y-100563887D01*
X84346650Y-100775876D01*
X84346656Y-100775888D01*
X84461389Y-100974612D01*
X84461391Y-100974614D01*
X84461393Y-100974618D01*
X84467911Y-100983112D01*
X84493107Y-101048280D01*
X84479070Y-101116725D01*
X84430257Y-101166716D01*
X84369537Y-101182600D01*
X80366040Y-101182600D01*
X80299001Y-101162915D01*
X80278359Y-101146281D01*
X79786819Y-100654741D01*
X79753334Y-100593418D01*
X79750500Y-100567060D01*
X79750500Y-98914700D01*
X79770185Y-98847661D01*
X79822989Y-98801906D01*
X79874500Y-98790700D01*
X83527260Y-98790700D01*
X83594299Y-98810385D01*
G37*
%TD.AperFunction*%
%TA.AperFunction,Conductor*%
G36*
X107869899Y-80362685D02*
G01*
X107890541Y-80379319D01*
X110010427Y-82499206D01*
X110010430Y-82499208D01*
X110014211Y-82502989D01*
X110080103Y-82547016D01*
X110080744Y-82547456D01*
X110102344Y-82573960D01*
X110124282Y-82600210D01*
X110124381Y-82601000D01*
X110124884Y-82601617D01*
X110128727Y-82635601D01*
X110132989Y-82669535D01*
X110132645Y-82670252D01*
X110132735Y-82671044D01*
X110117593Y-82701714D01*
X110102835Y-82732562D01*
X110102157Y-82732980D01*
X110101805Y-82733695D01*
X110072487Y-82751308D01*
X110043392Y-82769282D01*
X110042334Y-82769424D01*
X110041914Y-82769677D01*
X110040725Y-82769641D01*
X110010586Y-82773700D01*
X106482140Y-82773700D01*
X106415101Y-82754015D01*
X106394459Y-82737381D01*
X105536819Y-81879741D01*
X105503334Y-81818418D01*
X105500500Y-81792060D01*
X105500500Y-81284313D01*
X105500499Y-81284298D01*
X105497598Y-81247432D01*
X105497597Y-81247426D01*
X105451745Y-81089606D01*
X105451744Y-81089603D01*
X105451744Y-81089602D01*
X105368081Y-80948135D01*
X105368079Y-80948133D01*
X105368076Y-80948129D01*
X105251870Y-80831923D01*
X105251862Y-80831917D01*
X105110396Y-80748255D01*
X105110393Y-80748254D01*
X104952573Y-80702402D01*
X104952567Y-80702401D01*
X104915701Y-80699500D01*
X104915694Y-80699500D01*
X104134306Y-80699500D01*
X104134298Y-80699500D01*
X104097432Y-80702401D01*
X104097426Y-80702402D01*
X103939606Y-80748254D01*
X103939603Y-80748255D01*
X103798137Y-80831917D01*
X103798129Y-80831923D01*
X103681923Y-80948129D01*
X103681917Y-80948137D01*
X103598255Y-81089603D01*
X103592303Y-81110093D01*
X103554697Y-81168980D01*
X103491225Y-81198187D01*
X103473226Y-81199500D01*
X100448625Y-81199500D01*
X100381586Y-81179815D01*
X100360944Y-81163181D01*
X100282075Y-81084312D01*
X100282073Y-81084310D01*
X100129199Y-80973240D01*
X99960836Y-80887454D01*
X99781118Y-80829059D01*
X99594486Y-80799500D01*
X99594481Y-80799500D01*
X99482940Y-80799500D01*
X99415901Y-80779815D01*
X99395259Y-80763181D01*
X99186759Y-80554681D01*
X99153274Y-80493358D01*
X99158258Y-80423666D01*
X99200130Y-80367733D01*
X99265594Y-80343316D01*
X99274440Y-80343000D01*
X107802860Y-80343000D01*
X107869899Y-80362685D01*
G37*
%TD.AperFunction*%
%TA.AperFunction,Conductor*%
G36*
X148943039Y-31019685D02*
G01*
X148988794Y-31072489D01*
X149000000Y-31124000D01*
X149000000Y-108876000D01*
X148980315Y-108943039D01*
X148927511Y-108988794D01*
X148876000Y-109000000D01*
X31124000Y-109000000D01*
X31056961Y-108980315D01*
X31011206Y-108927511D01*
X31000000Y-108876000D01*
X31000000Y-103878711D01*
X34149500Y-103878711D01*
X34149500Y-104121288D01*
X34181161Y-104361785D01*
X34243947Y-104596104D01*
X34336773Y-104820205D01*
X34336776Y-104820212D01*
X34458064Y-105030289D01*
X34458066Y-105030292D01*
X34458067Y-105030293D01*
X34605733Y-105222736D01*
X34605739Y-105222743D01*
X34777256Y-105394260D01*
X34777262Y-105394265D01*
X34969711Y-105541936D01*
X35179788Y-105663224D01*
X35403900Y-105756054D01*
X35638211Y-105818838D01*
X35818586Y-105842584D01*
X35878711Y-105850500D01*
X35878712Y-105850500D01*
X36121289Y-105850500D01*
X36169388Y-105844167D01*
X36361789Y-105818838D01*
X36596100Y-105756054D01*
X36820212Y-105663224D01*
X37030289Y-105541936D01*
X37222738Y-105394265D01*
X37394265Y-105222738D01*
X37541936Y-105030289D01*
X37663224Y-104820212D01*
X37756054Y-104596100D01*
X37818838Y-104361789D01*
X37850500Y-104121288D01*
X37850500Y-103878712D01*
X37850500Y-103878711D01*
X142149500Y-103878711D01*
X142149500Y-104121288D01*
X142181161Y-104361785D01*
X142243947Y-104596104D01*
X142336773Y-104820205D01*
X142336776Y-104820212D01*
X142458064Y-105030289D01*
X142458066Y-105030292D01*
X142458067Y-105030293D01*
X142605733Y-105222736D01*
X142605739Y-105222743D01*
X142777256Y-105394260D01*
X142777262Y-105394265D01*
X142969711Y-105541936D01*
X143179788Y-105663224D01*
X143403900Y-105756054D01*
X143638211Y-105818838D01*
X143818586Y-105842584D01*
X143878711Y-105850500D01*
X143878712Y-105850500D01*
X144121289Y-105850500D01*
X144169388Y-105844167D01*
X144361789Y-105818838D01*
X144596100Y-105756054D01*
X144820212Y-105663224D01*
X145030289Y-105541936D01*
X145222738Y-105394265D01*
X145394265Y-105222738D01*
X145541936Y-105030289D01*
X145663224Y-104820212D01*
X145756054Y-104596100D01*
X145818838Y-104361789D01*
X145850500Y-104121288D01*
X145850500Y-103878712D01*
X145818838Y-103638211D01*
X145756054Y-103403900D01*
X145663224Y-103179788D01*
X145541936Y-102969711D01*
X145415779Y-102805299D01*
X145394266Y-102777263D01*
X145394260Y-102777256D01*
X145222743Y-102605739D01*
X145222736Y-102605733D01*
X145030293Y-102458067D01*
X145030292Y-102458066D01*
X145030289Y-102458064D01*
X144820212Y-102336776D01*
X144820205Y-102336773D01*
X144596104Y-102243947D01*
X144361785Y-102181161D01*
X144121289Y-102149500D01*
X144121288Y-102149500D01*
X143878712Y-102149500D01*
X143878711Y-102149500D01*
X143638214Y-102181161D01*
X143403895Y-102243947D01*
X143179794Y-102336773D01*
X143179785Y-102336777D01*
X142969706Y-102458067D01*
X142777263Y-102605733D01*
X142777256Y-102605739D01*
X142605739Y-102777256D01*
X142605733Y-102777263D01*
X142458067Y-102969706D01*
X142336777Y-103179785D01*
X142336773Y-103179794D01*
X142243947Y-103403895D01*
X142181161Y-103638214D01*
X142149500Y-103878711D01*
X37850500Y-103878711D01*
X37818838Y-103638211D01*
X37756054Y-103403900D01*
X37663224Y-103179788D01*
X37541936Y-102969711D01*
X37415779Y-102805299D01*
X37394266Y-102777263D01*
X37394260Y-102777256D01*
X37222743Y-102605739D01*
X37222736Y-102605733D01*
X37030293Y-102458067D01*
X37030292Y-102458066D01*
X37030289Y-102458064D01*
X36820212Y-102336776D01*
X36820205Y-102336773D01*
X36596104Y-102243947D01*
X36361785Y-102181161D01*
X36121289Y-102149500D01*
X36121288Y-102149500D01*
X35878712Y-102149500D01*
X35878711Y-102149500D01*
X35638214Y-102181161D01*
X35403895Y-102243947D01*
X35179794Y-102336773D01*
X35179785Y-102336777D01*
X34969706Y-102458067D01*
X34777263Y-102605733D01*
X34777256Y-102605739D01*
X34605739Y-102777256D01*
X34605733Y-102777263D01*
X34458067Y-102969706D01*
X34336777Y-103179785D01*
X34336773Y-103179794D01*
X34243947Y-103403895D01*
X34181161Y-103638214D01*
X34149500Y-103878711D01*
X31000000Y-103878711D01*
X31000000Y-98834298D01*
X60249500Y-98834298D01*
X60249500Y-101165701D01*
X60252401Y-101202567D01*
X60252402Y-101202573D01*
X60298253Y-101360392D01*
X60298255Y-101360395D01*
X60381917Y-101501861D01*
X60381923Y-101501869D01*
X60498130Y-101618076D01*
X60498134Y-101618079D01*
X60498136Y-101618081D01*
X60639603Y-101701744D01*
X60639604Y-101701744D01*
X60639607Y-101701746D01*
X60797426Y-101747597D01*
X60797429Y-101747597D01*
X60797431Y-101747598D01*
X60834306Y-101750500D01*
X62567060Y-101750500D01*
X62634099Y-101770185D01*
X62654741Y-101786819D01*
X63390611Y-102522689D01*
X63472808Y-102604886D01*
X63502112Y-102634190D01*
X63589375Y-102692497D01*
X63633221Y-102721794D01*
X63736233Y-102764462D01*
X63778902Y-102782137D01*
X63933552Y-102812899D01*
X63933555Y-102812900D01*
X63933557Y-102812900D01*
X76066444Y-102812900D01*
X76066445Y-102812899D01*
X76221097Y-102782137D01*
X76366779Y-102721794D01*
X76497889Y-102634189D01*
X77345259Y-101786819D01*
X77406582Y-101753334D01*
X77432940Y-101750500D01*
X78567060Y-101750500D01*
X78634099Y-101770185D01*
X78654741Y-101786819D01*
X79361311Y-102493389D01*
X79472808Y-102604886D01*
X79472812Y-102604890D01*
X79603914Y-102692490D01*
X79603927Y-102692497D01*
X79674665Y-102721797D01*
X79749603Y-102752837D01*
X79858691Y-102774536D01*
X79904253Y-102783599D01*
X79904256Y-102783600D01*
X79904258Y-102783600D01*
X92095744Y-102783600D01*
X92095745Y-102783599D01*
X92250397Y-102752837D01*
X92396079Y-102692494D01*
X92527189Y-102604889D01*
X93345259Y-101786819D01*
X93406582Y-101753334D01*
X93432940Y-101750500D01*
X95165686Y-101750500D01*
X95165694Y-101750500D01*
X95202569Y-101747598D01*
X95202571Y-101747597D01*
X95202573Y-101747597D01*
X95360392Y-101701746D01*
X95360393Y-101701745D01*
X95360397Y-101701744D01*
X95501864Y-101618081D01*
X95618081Y-101501864D01*
X95701744Y-101360397D01*
X95701745Y-101360393D01*
X95701746Y-101360392D01*
X95747597Y-101202573D01*
X95747598Y-101202567D01*
X95747685Y-101201466D01*
X95750500Y-101165694D01*
X95750500Y-99432940D01*
X95770185Y-99365901D01*
X95786819Y-99345259D01*
X96273359Y-98858719D01*
X96334682Y-98825234D01*
X96361040Y-98822400D01*
X100365700Y-98822400D01*
X100432739Y-98842085D01*
X100478494Y-98894889D01*
X100488438Y-98964047D01*
X100464076Y-99021885D01*
X100462929Y-99023380D01*
X100461389Y-99025387D01*
X100346657Y-99224109D01*
X100346650Y-99224123D01*
X100258842Y-99436112D01*
X100199453Y-99657759D01*
X100199451Y-99657770D01*
X100169500Y-99885258D01*
X100169500Y-100114741D01*
X100194446Y-100304215D01*
X100199452Y-100342238D01*
X100232958Y-100467284D01*
X100258842Y-100563887D01*
X100346650Y-100775876D01*
X100346657Y-100775890D01*
X100461392Y-100974617D01*
X100601081Y-101156661D01*
X100601089Y-101156670D01*
X100763330Y-101318911D01*
X100763338Y-101318918D01*
X100945382Y-101458607D01*
X100945385Y-101458608D01*
X100945388Y-101458611D01*
X101144112Y-101573344D01*
X101144117Y-101573346D01*
X101144123Y-101573349D01*
X101235480Y-101611190D01*
X101356113Y-101661158D01*
X101577762Y-101720548D01*
X101805266Y-101750500D01*
X101805273Y-101750500D01*
X102034727Y-101750500D01*
X102034734Y-101750500D01*
X102262238Y-101720548D01*
X102387284Y-101687042D01*
X102457134Y-101688705D01*
X102507058Y-101719136D01*
X103303011Y-102515089D01*
X103392808Y-102604886D01*
X103414512Y-102626590D01*
X103545614Y-102714190D01*
X103545627Y-102714197D01*
X103638913Y-102752837D01*
X103638914Y-102752837D01*
X103691302Y-102774537D01*
X103845952Y-102805299D01*
X103845955Y-102805300D01*
X103845957Y-102805300D01*
X131994044Y-102805300D01*
X131994045Y-102805299D01*
X132148697Y-102774537D01*
X132276031Y-102721794D01*
X132294372Y-102714197D01*
X132294372Y-102714196D01*
X132294379Y-102714194D01*
X132425489Y-102626589D01*
X133332943Y-101719133D01*
X133394264Y-101685650D01*
X133452711Y-101687040D01*
X133577762Y-101720548D01*
X133778235Y-101746941D01*
X133783223Y-101747598D01*
X133805266Y-101750500D01*
X133805273Y-101750500D01*
X134034727Y-101750500D01*
X134034734Y-101750500D01*
X134262238Y-101720548D01*
X134483887Y-101661158D01*
X134695888Y-101573344D01*
X134894612Y-101458611D01*
X135076661Y-101318919D01*
X135076665Y-101318914D01*
X135076670Y-101318911D01*
X135238911Y-101156670D01*
X135238914Y-101156665D01*
X135238919Y-101156661D01*
X135378611Y-100974612D01*
X135493344Y-100775888D01*
X135581158Y-100563887D01*
X135640548Y-100342238D01*
X135670500Y-100114734D01*
X135670500Y-99885266D01*
X135640548Y-99657762D01*
X135581158Y-99436113D01*
X135493344Y-99224112D01*
X135378611Y-99025388D01*
X135378608Y-99025385D01*
X135378607Y-99025382D01*
X135266050Y-98878697D01*
X135238919Y-98843339D01*
X135238918Y-98843338D01*
X135238911Y-98843330D01*
X135076670Y-98681089D01*
X135076661Y-98681081D01*
X134894617Y-98541392D01*
X134695890Y-98426657D01*
X134695876Y-98426650D01*
X134483887Y-98338842D01*
X134456434Y-98331486D01*
X134262238Y-98279452D01*
X134224215Y-98274446D01*
X134034741Y-98249500D01*
X134034734Y-98249500D01*
X133805266Y-98249500D01*
X133805258Y-98249500D01*
X133588715Y-98278009D01*
X133577762Y-98279452D01*
X133507584Y-98298256D01*
X133356112Y-98338842D01*
X133144123Y-98426650D01*
X133144109Y-98426657D01*
X132945382Y-98541392D01*
X132763338Y-98681081D01*
X132601081Y-98843338D01*
X132461392Y-99025382D01*
X132346657Y-99224109D01*
X132346650Y-99224123D01*
X132258842Y-99436112D01*
X132199453Y-99657759D01*
X132199451Y-99657770D01*
X132169500Y-99885258D01*
X132169500Y-100114741D01*
X132199452Y-100342236D01*
X132199454Y-100342248D01*
X132232957Y-100467283D01*
X132231294Y-100537133D01*
X132200863Y-100587057D01*
X131619941Y-101167981D01*
X131558618Y-101201466D01*
X131532260Y-101204300D01*
X127874500Y-101204300D01*
X127807461Y-101184615D01*
X127761706Y-101131811D01*
X127750500Y-101080300D01*
X127750500Y-98834313D01*
X127750499Y-98834298D01*
X127749926Y-98827019D01*
X127747598Y-98797431D01*
X127746466Y-98793534D01*
X127701746Y-98639607D01*
X127701744Y-98639604D01*
X127701744Y-98639603D01*
X127618081Y-98498136D01*
X127618079Y-98498134D01*
X127618076Y-98498130D01*
X127501869Y-98381923D01*
X127501861Y-98381917D01*
X127360395Y-98298255D01*
X127360392Y-98298253D01*
X127202573Y-98252402D01*
X127202567Y-98252401D01*
X127165701Y-98249500D01*
X127165694Y-98249500D01*
X125432940Y-98249500D01*
X125365901Y-98229815D01*
X125345259Y-98213181D01*
X124532192Y-97400113D01*
X124532188Y-97400110D01*
X124401085Y-97312509D01*
X124401072Y-97312502D01*
X124255401Y-97252164D01*
X124255389Y-97252161D01*
X124100745Y-97221400D01*
X124100742Y-97221400D01*
X110078842Y-97221400D01*
X96056943Y-97221400D01*
X95899258Y-97221400D01*
X95899255Y-97221400D01*
X95744610Y-97252161D01*
X95744598Y-97252164D01*
X95598927Y-97312502D01*
X95598914Y-97312509D01*
X95467811Y-97400110D01*
X95467807Y-97400113D01*
X94654741Y-98213181D01*
X94593418Y-98246666D01*
X94567060Y-98249500D01*
X92834298Y-98249500D01*
X92797432Y-98252401D01*
X92797426Y-98252402D01*
X92639607Y-98298253D01*
X92639604Y-98298255D01*
X92498138Y-98381917D01*
X92498130Y-98381923D01*
X92381923Y-98498130D01*
X92381917Y-98498138D01*
X92298255Y-98639604D01*
X92298253Y-98639607D01*
X92252402Y-98797426D01*
X92252401Y-98797432D01*
X92249500Y-98834298D01*
X92249500Y-100567060D01*
X92229815Y-100634099D01*
X92213181Y-100654741D01*
X91721641Y-101146281D01*
X91660318Y-101179766D01*
X91633960Y-101182600D01*
X87470463Y-101182600D01*
X87403424Y-101162915D01*
X87357669Y-101110111D01*
X87347725Y-101040953D01*
X87372089Y-100983112D01*
X87378606Y-100974618D01*
X87378607Y-100974617D01*
X87378611Y-100974612D01*
X87493344Y-100775888D01*
X87581158Y-100563887D01*
X87640548Y-100342238D01*
X87670500Y-100114734D01*
X87670500Y-99885266D01*
X87640548Y-99657762D01*
X87581158Y-99436113D01*
X87493344Y-99224112D01*
X87378611Y-99025388D01*
X87378608Y-99025385D01*
X87378607Y-99025382D01*
X87266050Y-98878697D01*
X87238919Y-98843339D01*
X87238918Y-98843338D01*
X87238911Y-98843330D01*
X87076670Y-98681089D01*
X87076661Y-98681081D01*
X86894617Y-98541392D01*
X86695890Y-98426657D01*
X86695876Y-98426650D01*
X86483887Y-98338842D01*
X86456434Y-98331486D01*
X86262238Y-98279452D01*
X86224215Y-98274446D01*
X86034741Y-98249500D01*
X86034734Y-98249500D01*
X85805266Y-98249500D01*
X85805258Y-98249500D01*
X85603040Y-98276124D01*
X85577762Y-98279452D01*
X85577760Y-98279452D01*
X85577751Y-98279454D01*
X85452715Y-98312957D01*
X85382865Y-98311294D01*
X85332941Y-98280863D01*
X84420491Y-97368412D01*
X84420488Y-97368410D01*
X84289385Y-97280809D01*
X84289372Y-97280802D01*
X84143701Y-97220464D01*
X84143689Y-97220461D01*
X83989045Y-97189700D01*
X83989042Y-97189700D01*
X72008642Y-97189700D01*
X71850957Y-97189700D01*
X71850954Y-97189700D01*
X71696309Y-97220461D01*
X71696297Y-97220464D01*
X71653632Y-97238136D01*
X71653633Y-97238137D01*
X71550623Y-97280804D01*
X71550614Y-97280809D01*
X71419512Y-97368409D01*
X71419510Y-97368412D01*
X70507057Y-98280863D01*
X70445734Y-98314348D01*
X70387283Y-98312957D01*
X70262248Y-98279454D01*
X70262241Y-98279452D01*
X70262238Y-98279452D01*
X70211681Y-98272796D01*
X70034741Y-98249500D01*
X70034734Y-98249500D01*
X69805266Y-98249500D01*
X69805258Y-98249500D01*
X69588715Y-98278009D01*
X69577762Y-98279452D01*
X69507584Y-98298256D01*
X69356112Y-98338842D01*
X69144123Y-98426650D01*
X69144109Y-98426657D01*
X68945382Y-98541392D01*
X68763338Y-98681081D01*
X68601081Y-98843338D01*
X68461392Y-99025382D01*
X68346657Y-99224109D01*
X68346650Y-99224123D01*
X68258842Y-99436112D01*
X68199453Y-99657759D01*
X68199451Y-99657770D01*
X68169500Y-99885258D01*
X68169500Y-100114741D01*
X68194446Y-100304215D01*
X68199452Y-100342238D01*
X68232958Y-100467284D01*
X68258842Y-100563887D01*
X68346650Y-100775876D01*
X68346657Y-100775890D01*
X68461392Y-100974617D01*
X68490395Y-101012413D01*
X68515590Y-101077581D01*
X68501552Y-101146026D01*
X68452739Y-101196017D01*
X68392020Y-101211900D01*
X64395340Y-101211900D01*
X64328301Y-101192215D01*
X64307659Y-101175581D01*
X63786819Y-100654741D01*
X63753334Y-100593418D01*
X63750500Y-100567060D01*
X63750500Y-98834313D01*
X63750499Y-98834298D01*
X63749926Y-98827019D01*
X63747598Y-98797431D01*
X63746466Y-98793534D01*
X63701746Y-98639607D01*
X63701744Y-98639604D01*
X63701744Y-98639603D01*
X63618081Y-98498136D01*
X63618079Y-98498134D01*
X63618076Y-98498130D01*
X63501869Y-98381923D01*
X63501861Y-98381917D01*
X63360395Y-98298255D01*
X63360392Y-98298253D01*
X63202573Y-98252402D01*
X63202567Y-98252401D01*
X63165701Y-98249500D01*
X63165694Y-98249500D01*
X60834306Y-98249500D01*
X60834298Y-98249500D01*
X60797432Y-98252401D01*
X60797426Y-98252402D01*
X60639607Y-98298253D01*
X60639604Y-98298255D01*
X60498138Y-98381917D01*
X60498130Y-98381923D01*
X60381923Y-98498130D01*
X60381917Y-98498138D01*
X60298255Y-98639604D01*
X60298253Y-98639607D01*
X60252402Y-98797426D01*
X60252401Y-98797432D01*
X60249500Y-98834298D01*
X31000000Y-98834298D01*
X31000000Y-89765258D01*
X136249500Y-89765258D01*
X136249500Y-89994741D01*
X136274446Y-90184215D01*
X136279452Y-90222238D01*
X136279453Y-90222240D01*
X136338842Y-90443887D01*
X136426650Y-90655876D01*
X136426657Y-90655890D01*
X136541392Y-90854617D01*
X136681081Y-91036661D01*
X136681089Y-91036670D01*
X136843330Y-91198911D01*
X136843338Y-91198918D01*
X137025382Y-91338607D01*
X137025385Y-91338608D01*
X137025388Y-91338611D01*
X137224112Y-91453344D01*
X137224117Y-91453346D01*
X137224123Y-91453349D01*
X137315480Y-91491190D01*
X137436113Y-91541158D01*
X137657762Y-91600548D01*
X137885266Y-91630500D01*
X137885273Y-91630500D01*
X138114727Y-91630500D01*
X138114734Y-91630500D01*
X138342238Y-91600548D01*
X138563887Y-91541158D01*
X138775888Y-91453344D01*
X138974612Y-91338611D01*
X139156661Y-91198919D01*
X139156665Y-91198914D01*
X139156670Y-91198911D01*
X139318911Y-91036670D01*
X139318914Y-91036665D01*
X139318919Y-91036661D01*
X139458611Y-90854612D01*
X139573344Y-90655888D01*
X139661158Y-90443887D01*
X139720548Y-90222238D01*
X139750500Y-89994734D01*
X139750500Y-89765266D01*
X139720548Y-89537762D01*
X139661158Y-89316113D01*
X139573344Y-89104112D01*
X139458611Y-88905388D01*
X139458608Y-88905385D01*
X139458607Y-88905382D01*
X139318918Y-88723338D01*
X139318911Y-88723330D01*
X139156670Y-88561089D01*
X139156661Y-88561081D01*
X138974617Y-88421392D01*
X138775890Y-88306657D01*
X138775876Y-88306650D01*
X138563887Y-88218842D01*
X138342238Y-88159452D01*
X138304215Y-88154446D01*
X138114741Y-88129500D01*
X138114734Y-88129500D01*
X137885266Y-88129500D01*
X137885258Y-88129500D01*
X137668715Y-88158009D01*
X137657762Y-88159452D01*
X137564076Y-88184554D01*
X137436112Y-88218842D01*
X137224123Y-88306650D01*
X137224109Y-88306657D01*
X137025382Y-88421392D01*
X136843338Y-88561081D01*
X136681081Y-88723338D01*
X136541392Y-88905382D01*
X136426657Y-89104109D01*
X136426650Y-89104123D01*
X136338842Y-89316112D01*
X136279453Y-89537759D01*
X136279451Y-89537770D01*
X136249500Y-89765258D01*
X31000000Y-89765258D01*
X31000000Y-85805258D01*
X136249500Y-85805258D01*
X136249500Y-86034741D01*
X136274446Y-86224215D01*
X136279452Y-86262238D01*
X136279453Y-86262240D01*
X136338842Y-86483887D01*
X136426650Y-86695876D01*
X136426657Y-86695890D01*
X136541392Y-86894617D01*
X136681081Y-87076661D01*
X136681089Y-87076670D01*
X136843330Y-87238911D01*
X136843338Y-87238918D01*
X137025382Y-87378607D01*
X137025385Y-87378608D01*
X137025388Y-87378611D01*
X137224112Y-87493344D01*
X137224117Y-87493346D01*
X137224123Y-87493349D01*
X137315480Y-87531190D01*
X137436113Y-87581158D01*
X137657762Y-87640548D01*
X137885266Y-87670500D01*
X137885273Y-87670500D01*
X138114727Y-87670500D01*
X138114734Y-87670500D01*
X138342238Y-87640548D01*
X138563887Y-87581158D01*
X138775888Y-87493344D01*
X138974612Y-87378611D01*
X139156661Y-87238919D01*
X139156665Y-87238914D01*
X139156670Y-87238911D01*
X139318911Y-87076670D01*
X139318914Y-87076665D01*
X139318919Y-87076661D01*
X139458611Y-86894612D01*
X139573344Y-86695888D01*
X139661158Y-86483887D01*
X139720548Y-86262238D01*
X139750500Y-86034734D01*
X139750500Y-85805266D01*
X139720548Y-85577762D01*
X139661158Y-85356113D01*
X139573344Y-85144112D01*
X139458611Y-84945388D01*
X139458608Y-84945385D01*
X139458607Y-84945382D01*
X139318918Y-84763338D01*
X139318911Y-84763330D01*
X139156670Y-84601089D01*
X139156661Y-84601081D01*
X138974617Y-84461392D01*
X138775890Y-84346657D01*
X138775876Y-84346650D01*
X138563887Y-84258842D01*
X138342238Y-84199452D01*
X138304215Y-84194446D01*
X138114741Y-84169500D01*
X138114734Y-84169500D01*
X137885266Y-84169500D01*
X137885258Y-84169500D01*
X137668715Y-84198009D01*
X137657762Y-84199452D01*
X137564076Y-84224554D01*
X137436112Y-84258842D01*
X137224123Y-84346650D01*
X137224109Y-84346657D01*
X137025382Y-84461392D01*
X136843338Y-84601081D01*
X136681081Y-84763338D01*
X136541392Y-84945382D01*
X136426657Y-85144109D01*
X136426650Y-85144123D01*
X136338842Y-85356112D01*
X136279453Y-85577759D01*
X136279451Y-85577770D01*
X136249500Y-85805258D01*
X31000000Y-85805258D01*
X31000000Y-81681207D01*
X48374500Y-81681207D01*
X48374500Y-82318775D01*
X48374501Y-82318797D01*
X48377262Y-82353887D01*
X48377262Y-82353888D01*
X48420913Y-82504139D01*
X48500554Y-82638805D01*
X48500561Y-82638814D01*
X48611185Y-82749438D01*
X48611194Y-82749445D01*
X48644737Y-82769282D01*
X48745861Y-82829087D01*
X48896108Y-82872737D01*
X48931213Y-82875500D01*
X49493786Y-82875499D01*
X49528892Y-82872737D01*
X49679139Y-82829087D01*
X49813809Y-82749443D01*
X49862041Y-82701211D01*
X49912319Y-82650934D01*
X49973642Y-82617449D01*
X50043334Y-82622433D01*
X50087681Y-82650934D01*
X50186185Y-82749438D01*
X50186194Y-82749445D01*
X50219737Y-82769282D01*
X50320861Y-82829087D01*
X50471108Y-82872737D01*
X50506213Y-82875500D01*
X51068786Y-82875499D01*
X51103892Y-82872737D01*
X51254139Y-82829087D01*
X51273278Y-82817767D01*
X51336399Y-82800500D01*
X57771674Y-82800500D01*
X57838713Y-82820185D01*
X57878406Y-82861379D01*
X57931917Y-82951862D01*
X57931923Y-82951870D01*
X58048129Y-83068076D01*
X58048133Y-83068079D01*
X58048135Y-83068081D01*
X58189602Y-83151744D01*
X58231224Y-83163836D01*
X58347426Y-83197597D01*
X58347429Y-83197597D01*
X58347431Y-83197598D01*
X58384306Y-83200500D01*
X59017060Y-83200500D01*
X59084099Y-83220185D01*
X59104741Y-83236819D01*
X59798870Y-83930947D01*
X59798891Y-83930970D01*
X59914707Y-84046786D01*
X59914711Y-84046789D01*
X60045814Y-84134390D01*
X60045827Y-84134397D01*
X60191498Y-84194735D01*
X60191503Y-84194737D01*
X60191507Y-84194737D01*
X60191508Y-84194738D01*
X60346154Y-84225500D01*
X60346157Y-84225500D01*
X60346158Y-84225500D01*
X66206755Y-84225500D01*
X66254207Y-84234939D01*
X66386498Y-84289735D01*
X66386503Y-84289737D01*
X66386507Y-84289737D01*
X66386508Y-84289738D01*
X66541154Y-84320500D01*
X66541157Y-84320500D01*
X74083844Y-84320500D01*
X74083845Y-84320499D01*
X74238497Y-84289737D01*
X74384179Y-84229394D01*
X74515289Y-84141789D01*
X75320259Y-83336819D01*
X75381582Y-83303334D01*
X75407940Y-83300500D01*
X75915686Y-83300500D01*
X75915694Y-83300500D01*
X75952569Y-83297598D01*
X75952571Y-83297597D01*
X75952573Y-83297597D01*
X75994191Y-83285505D01*
X76110398Y-83251744D01*
X76251865Y-83168081D01*
X76368081Y-83051865D01*
X76451744Y-82910398D01*
X76497598Y-82752569D01*
X76500500Y-82715694D01*
X76500500Y-81681207D01*
X86374500Y-81681207D01*
X86374500Y-82318775D01*
X86374501Y-82318797D01*
X86377262Y-82353887D01*
X86377262Y-82353888D01*
X86420913Y-82504139D01*
X86500554Y-82638805D01*
X86500561Y-82638814D01*
X86611185Y-82749438D01*
X86611194Y-82749445D01*
X86644737Y-82769282D01*
X86745861Y-82829087D01*
X86896108Y-82872737D01*
X86931213Y-82875500D01*
X87493786Y-82875499D01*
X87528892Y-82872737D01*
X87679139Y-82829087D01*
X87813809Y-82749443D01*
X87862041Y-82701211D01*
X87912319Y-82650934D01*
X87973642Y-82617449D01*
X88043334Y-82622433D01*
X88087681Y-82650934D01*
X88186185Y-82749438D01*
X88186194Y-82749445D01*
X88219737Y-82769282D01*
X88320861Y-82829087D01*
X88471108Y-82872737D01*
X88506213Y-82875500D01*
X89068786Y-82875499D01*
X89103892Y-82872737D01*
X89254139Y-82829087D01*
X89388809Y-82749443D01*
X89499443Y-82638809D01*
X89579087Y-82504139D01*
X89622737Y-82353892D01*
X89624021Y-82337572D01*
X89648903Y-82272285D01*
X89659950Y-82259626D01*
X90535359Y-81384219D01*
X90596682Y-81350734D01*
X90623040Y-81347900D01*
X97664460Y-81347900D01*
X97731499Y-81367585D01*
X97752141Y-81384219D01*
X98263181Y-81895259D01*
X98296666Y-81956582D01*
X98299500Y-81982940D01*
X98299500Y-82094486D01*
X98329059Y-82281118D01*
X98387454Y-82460836D01*
X98458469Y-82600210D01*
X98473240Y-82629199D01*
X98584310Y-82782073D01*
X98717927Y-82915690D01*
X98870801Y-83026760D01*
X98950347Y-83067290D01*
X99039163Y-83112545D01*
X99039165Y-83112545D01*
X99039168Y-83112547D01*
X99135497Y-83143846D01*
X99218881Y-83170940D01*
X99405514Y-83200500D01*
X99405519Y-83200500D01*
X99594486Y-83200500D01*
X99781118Y-83170940D01*
X99789932Y-83168076D01*
X99960832Y-83112547D01*
X100129199Y-83026760D01*
X100282073Y-82915690D01*
X100360944Y-82836819D01*
X100422267Y-82803334D01*
X100448625Y-82800500D01*
X103473226Y-82800500D01*
X103540265Y-82820185D01*
X103586020Y-82872989D01*
X103592303Y-82889907D01*
X103598255Y-82910396D01*
X103681917Y-83051862D01*
X103681923Y-83051870D01*
X103798129Y-83168076D01*
X103798133Y-83168079D01*
X103798135Y-83168081D01*
X103939602Y-83251744D01*
X103981224Y-83263836D01*
X104097426Y-83297597D01*
X104097429Y-83297597D01*
X104097431Y-83297598D01*
X104134306Y-83300500D01*
X104642060Y-83300500D01*
X104709099Y-83320185D01*
X104729741Y-83336819D01*
X105477411Y-84084489D01*
X105534708Y-84141786D01*
X105588912Y-84195990D01*
X105720014Y-84283590D01*
X105720027Y-84283597D01*
X105865698Y-84343935D01*
X105865703Y-84343937D01*
X106020353Y-84374699D01*
X106020356Y-84374700D01*
X106020358Y-84374700D01*
X112029644Y-84374700D01*
X112029645Y-84374699D01*
X112184297Y-84343937D01*
X112315146Y-84289738D01*
X112329972Y-84283597D01*
X112329972Y-84283596D01*
X112329979Y-84283594D01*
X112461089Y-84195989D01*
X113320259Y-83336819D01*
X113381582Y-83303334D01*
X113407940Y-83300500D01*
X113915686Y-83300500D01*
X113915694Y-83300500D01*
X113952569Y-83297598D01*
X113952571Y-83297597D01*
X113952573Y-83297597D01*
X113994191Y-83285505D01*
X114110398Y-83251744D01*
X114251865Y-83168081D01*
X114368081Y-83051865D01*
X114451744Y-82910398D01*
X114497598Y-82752569D01*
X114500500Y-82715694D01*
X114500500Y-81284306D01*
X114497598Y-81247431D01*
X114465985Y-81138621D01*
X114451745Y-81089606D01*
X114451744Y-81089603D01*
X114451744Y-81089602D01*
X114368081Y-80948135D01*
X114368079Y-80948133D01*
X114368076Y-80948129D01*
X114251870Y-80831923D01*
X114251862Y-80831917D01*
X114110396Y-80748255D01*
X114110393Y-80748254D01*
X113952573Y-80702402D01*
X113952567Y-80702401D01*
X113915701Y-80699500D01*
X113915694Y-80699500D01*
X113134306Y-80699500D01*
X113134298Y-80699500D01*
X113097432Y-80702401D01*
X113097426Y-80702402D01*
X112939606Y-80748254D01*
X112939603Y-80748255D01*
X112798137Y-80831917D01*
X112798129Y-80831923D01*
X112681923Y-80948129D01*
X112681917Y-80948137D01*
X112598255Y-81089603D01*
X112598254Y-81089606D01*
X112552402Y-81247426D01*
X112552401Y-81247432D01*
X112549500Y-81284298D01*
X112549500Y-81792060D01*
X112529815Y-81859099D01*
X112513181Y-81879741D01*
X111655541Y-82737381D01*
X111594218Y-82770866D01*
X111567860Y-82773700D01*
X111038414Y-82773700D01*
X110971375Y-82754015D01*
X110925620Y-82701211D01*
X110915676Y-82632053D01*
X110944701Y-82568497D01*
X110969523Y-82546598D01*
X110978191Y-82540805D01*
X111034789Y-82502989D01*
X111146289Y-82391489D01*
X111233893Y-82260379D01*
X111294237Y-82114697D01*
X111325000Y-81960042D01*
X111325000Y-81802357D01*
X111325000Y-81802354D01*
X111294238Y-81647708D01*
X111294237Y-81647707D01*
X111294237Y-81647703D01*
X111233893Y-81502021D01*
X111229776Y-81495860D01*
X111146290Y-81370912D01*
X111146284Y-81370905D01*
X108696092Y-78920713D01*
X108696088Y-78920710D01*
X108564985Y-78833109D01*
X108564972Y-78833102D01*
X108419301Y-78772764D01*
X108419289Y-78772761D01*
X108264645Y-78742000D01*
X108264642Y-78742000D01*
X89613743Y-78742000D01*
X89456058Y-78742000D01*
X89456053Y-78742000D01*
X89301410Y-78772760D01*
X89301402Y-78772762D01*
X89155724Y-78833104D01*
X89155714Y-78833109D01*
X89024611Y-78920710D01*
X89024607Y-78920713D01*
X86808611Y-81136709D01*
X86755534Y-81168102D01*
X86745863Y-81170912D01*
X86745855Y-81170915D01*
X86611194Y-81250554D01*
X86611185Y-81250561D01*
X86500561Y-81361185D01*
X86500554Y-81361194D01*
X86420913Y-81495860D01*
X86377262Y-81646111D01*
X86374500Y-81681207D01*
X76500500Y-81681207D01*
X76500500Y-81284306D01*
X76497598Y-81247431D01*
X76465985Y-81138621D01*
X76451745Y-81089606D01*
X76451744Y-81089603D01*
X76451744Y-81089602D01*
X76368081Y-80948135D01*
X76368079Y-80948133D01*
X76368076Y-80948129D01*
X76251870Y-80831923D01*
X76251862Y-80831917D01*
X76110396Y-80748255D01*
X76110393Y-80748254D01*
X75952573Y-80702402D01*
X75952567Y-80702401D01*
X75915701Y-80699500D01*
X75915694Y-80699500D01*
X75134306Y-80699500D01*
X75134298Y-80699500D01*
X75097432Y-80702401D01*
X75097426Y-80702402D01*
X74939606Y-80748254D01*
X74939603Y-80748255D01*
X74798137Y-80831917D01*
X74798129Y-80831923D01*
X74681923Y-80948129D01*
X74681917Y-80948137D01*
X74598255Y-81089603D01*
X74598254Y-81089606D01*
X74552402Y-81247426D01*
X74552401Y-81247432D01*
X74549500Y-81284298D01*
X74549500Y-81792060D01*
X74529815Y-81859099D01*
X74513181Y-81879741D01*
X73709741Y-82683181D01*
X73648418Y-82716666D01*
X73622060Y-82719500D01*
X67624500Y-82719500D01*
X67557461Y-82699815D01*
X67511706Y-82647011D01*
X67500500Y-82595500D01*
X67500500Y-81284313D01*
X67500499Y-81284298D01*
X67497598Y-81247432D01*
X67497597Y-81247426D01*
X67451745Y-81089606D01*
X67451744Y-81089603D01*
X67451744Y-81089602D01*
X67368081Y-80948135D01*
X67368079Y-80948133D01*
X67368076Y-80948129D01*
X67251870Y-80831923D01*
X67251862Y-80831917D01*
X67110396Y-80748255D01*
X67110393Y-80748254D01*
X66952573Y-80702402D01*
X66952567Y-80702401D01*
X66915701Y-80699500D01*
X66915694Y-80699500D01*
X66134306Y-80699500D01*
X66134298Y-80699500D01*
X66097432Y-80702401D01*
X66097426Y-80702402D01*
X65939606Y-80748254D01*
X65939603Y-80748255D01*
X65798137Y-80831917D01*
X65798129Y-80831923D01*
X65681923Y-80948129D01*
X65681917Y-80948137D01*
X65598255Y-81089603D01*
X65598254Y-81089606D01*
X65552402Y-81247426D01*
X65552401Y-81247432D01*
X65549500Y-81284298D01*
X65549500Y-82500500D01*
X65529815Y-82567539D01*
X65477011Y-82613294D01*
X65425500Y-82624500D01*
X60807939Y-82624500D01*
X60740900Y-82604815D01*
X60720258Y-82588181D01*
X60236819Y-82104741D01*
X60203334Y-82043418D01*
X60200500Y-82017060D01*
X60200500Y-81384313D01*
X60200499Y-81384298D01*
X60197598Y-81347432D01*
X60197597Y-81347426D01*
X60151745Y-81189606D01*
X60151744Y-81189603D01*
X60151744Y-81189602D01*
X60068081Y-81048135D01*
X60068079Y-81048133D01*
X60068076Y-81048129D01*
X59951870Y-80931923D01*
X59951862Y-80931917D01*
X59810396Y-80848255D01*
X59810393Y-80848254D01*
X59652573Y-80802402D01*
X59652567Y-80802401D01*
X59615701Y-80799500D01*
X59615694Y-80799500D01*
X58384306Y-80799500D01*
X58384298Y-80799500D01*
X58347432Y-80802401D01*
X58347426Y-80802402D01*
X58189606Y-80848254D01*
X58189603Y-80848255D01*
X58048137Y-80931917D01*
X58048129Y-80931923D01*
X57931923Y-81048129D01*
X57931917Y-81048137D01*
X57878406Y-81138621D01*
X57827337Y-81186304D01*
X57771674Y-81199500D01*
X51336399Y-81199500D01*
X51320493Y-81195147D01*
X51305888Y-81195688D01*
X51273263Y-81182223D01*
X51269769Y-81180156D01*
X51222093Y-81129080D01*
X51209598Y-81060337D01*
X51236253Y-80995751D01*
X51245215Y-80985761D01*
X55396679Y-76834298D01*
X136249500Y-76834298D01*
X136249500Y-79165701D01*
X136252401Y-79202567D01*
X136252402Y-79202573D01*
X136298253Y-79360392D01*
X136298255Y-79360395D01*
X136381917Y-79501861D01*
X136381923Y-79501869D01*
X136498130Y-79618076D01*
X136498134Y-79618079D01*
X136498136Y-79618081D01*
X136639603Y-79701744D01*
X136639604Y-79701744D01*
X136639607Y-79701746D01*
X136797426Y-79747597D01*
X136797429Y-79747597D01*
X136797431Y-79747598D01*
X136834306Y-79750500D01*
X136834314Y-79750500D01*
X139165686Y-79750500D01*
X139165694Y-79750500D01*
X139202569Y-79747598D01*
X139202571Y-79747597D01*
X139202573Y-79747597D01*
X139360392Y-79701746D01*
X139360393Y-79701745D01*
X139360397Y-79701744D01*
X139501864Y-79618081D01*
X139618081Y-79501864D01*
X139701744Y-79360397D01*
X139701745Y-79360393D01*
X139701746Y-79360392D01*
X139747597Y-79202573D01*
X139747598Y-79202567D01*
X139750499Y-79165701D01*
X139750500Y-79165694D01*
X139750500Y-76834306D01*
X139747598Y-76797431D01*
X139732130Y-76744190D01*
X139701746Y-76639607D01*
X139701744Y-76639604D01*
X139701744Y-76639603D01*
X139618081Y-76498136D01*
X139618079Y-76498134D01*
X139618076Y-76498130D01*
X139501869Y-76381923D01*
X139501861Y-76381917D01*
X139360395Y-76298255D01*
X139360392Y-76298253D01*
X139202573Y-76252402D01*
X139202567Y-76252401D01*
X139165701Y-76249500D01*
X139165694Y-76249500D01*
X136834306Y-76249500D01*
X136834298Y-76249500D01*
X136797432Y-76252401D01*
X136797426Y-76252402D01*
X136639607Y-76298253D01*
X136639604Y-76298255D01*
X136498138Y-76381917D01*
X136498130Y-76381923D01*
X136381923Y-76498130D01*
X136381917Y-76498138D01*
X136298255Y-76639604D01*
X136298253Y-76639607D01*
X136252402Y-76797426D01*
X136252401Y-76797432D01*
X136249500Y-76834298D01*
X55396679Y-76834298D01*
X58236559Y-73994419D01*
X58297882Y-73960934D01*
X58324240Y-73958100D01*
X98876144Y-73958100D01*
X98876145Y-73958099D01*
X99030797Y-73927337D01*
X99176479Y-73866994D01*
X99307589Y-73779389D01*
X99419089Y-73667889D01*
X99506694Y-73536779D01*
X99567037Y-73391097D01*
X99597800Y-73236442D01*
X99597800Y-73078758D01*
X99597800Y-73078755D01*
X99597799Y-73078753D01*
X99567037Y-72924103D01*
X99567035Y-72924098D01*
X99506697Y-72778427D01*
X99506690Y-72778414D01*
X99419089Y-72647311D01*
X99419086Y-72647307D01*
X99307591Y-72535812D01*
X99307588Y-72535810D01*
X99235590Y-72487702D01*
X99190785Y-72434089D01*
X99182078Y-72364764D01*
X99212233Y-72301737D01*
X99271676Y-72265018D01*
X99304481Y-72260600D01*
X104153719Y-72260600D01*
X104220758Y-72280285D01*
X104266513Y-72333089D01*
X104276457Y-72402247D01*
X104247432Y-72465803D01*
X104222610Y-72487702D01*
X104150611Y-72535810D01*
X104150609Y-72535812D01*
X104039113Y-72647307D01*
X104039110Y-72647311D01*
X103951509Y-72778414D01*
X103951502Y-72778427D01*
X103891164Y-72924098D01*
X103891161Y-72924110D01*
X103860400Y-73078753D01*
X103860400Y-73236446D01*
X103891161Y-73391089D01*
X103891164Y-73391101D01*
X103951502Y-73536772D01*
X103951509Y-73536785D01*
X104039110Y-73667888D01*
X104039113Y-73667892D01*
X104150607Y-73779386D01*
X104150611Y-73779389D01*
X104281714Y-73866990D01*
X104281727Y-73866997D01*
X104427398Y-73927335D01*
X104427403Y-73927337D01*
X104582053Y-73958099D01*
X104582056Y-73958100D01*
X104582058Y-73958100D01*
X123312160Y-73958100D01*
X123341600Y-73966744D01*
X123371587Y-73973268D01*
X123376602Y-73977022D01*
X123379199Y-73977785D01*
X123399841Y-73994419D01*
X123538181Y-74132759D01*
X123571666Y-74194082D01*
X123574500Y-74220440D01*
X123574500Y-74690701D01*
X123577401Y-74727567D01*
X123577402Y-74727573D01*
X123623254Y-74885393D01*
X123623255Y-74885396D01*
X123706917Y-75026862D01*
X123706923Y-75026870D01*
X123823129Y-75143076D01*
X123823133Y-75143079D01*
X123823135Y-75143081D01*
X123964602Y-75226744D01*
X124006224Y-75238836D01*
X124122426Y-75272597D01*
X124122429Y-75272597D01*
X124122431Y-75272598D01*
X124159306Y-75275500D01*
X124159314Y-75275500D01*
X124915686Y-75275500D01*
X124915694Y-75275500D01*
X124952569Y-75272598D01*
X124952571Y-75272597D01*
X124952573Y-75272597D01*
X124994191Y-75260505D01*
X125110398Y-75226744D01*
X125251865Y-75143081D01*
X125368081Y-75026865D01*
X125451744Y-74885398D01*
X125497598Y-74727569D01*
X125500500Y-74690694D01*
X125500500Y-73309306D01*
X125497598Y-73272431D01*
X125487143Y-73236446D01*
X125451745Y-73114606D01*
X125451744Y-73114603D01*
X125451744Y-73114602D01*
X125368081Y-72973135D01*
X125368079Y-72973133D01*
X125368076Y-72973129D01*
X125251870Y-72856923D01*
X125251862Y-72856917D01*
X125173681Y-72810681D01*
X125110398Y-72773256D01*
X125110397Y-72773255D01*
X125110396Y-72773255D01*
X125110393Y-72773254D01*
X124952573Y-72727402D01*
X124952567Y-72727401D01*
X124915701Y-72724500D01*
X124915694Y-72724500D01*
X124445440Y-72724500D01*
X124378401Y-72704815D01*
X124357763Y-72688185D01*
X124205389Y-72535811D01*
X124205388Y-72535810D01*
X124205387Y-72535809D01*
X124133390Y-72487702D01*
X124088585Y-72434089D01*
X124079878Y-72364764D01*
X124110033Y-72301737D01*
X124169476Y-72265018D01*
X124202281Y-72260600D01*
X136498744Y-72260600D01*
X136498745Y-72260599D01*
X136653397Y-72229837D01*
X136799079Y-72169494D01*
X136930189Y-72081889D01*
X137412944Y-71599132D01*
X137474264Y-71565650D01*
X137532711Y-71567040D01*
X137657762Y-71600548D01*
X137885266Y-71630500D01*
X137885273Y-71630500D01*
X138114727Y-71630500D01*
X138114734Y-71630500D01*
X138342238Y-71600548D01*
X138563887Y-71541158D01*
X138775888Y-71453344D01*
X138974612Y-71338611D01*
X139156661Y-71198919D01*
X139156665Y-71198914D01*
X139156670Y-71198911D01*
X139318911Y-71036670D01*
X139318914Y-71036665D01*
X139318919Y-71036661D01*
X139458611Y-70854612D01*
X139573344Y-70655888D01*
X139661158Y-70443887D01*
X139720548Y-70222238D01*
X139750500Y-69994734D01*
X139750500Y-69765266D01*
X139720548Y-69537762D01*
X139661158Y-69316113D01*
X139573344Y-69104112D01*
X139458611Y-68905388D01*
X139458608Y-68905385D01*
X139458607Y-68905382D01*
X139318918Y-68723338D01*
X139318911Y-68723330D01*
X139156670Y-68561089D01*
X139156661Y-68561081D01*
X138974617Y-68421392D01*
X138775890Y-68306657D01*
X138775876Y-68306650D01*
X138563887Y-68218842D01*
X138563861Y-68218835D01*
X138342238Y-68159452D01*
X138304215Y-68154446D01*
X138114741Y-68129500D01*
X138114734Y-68129500D01*
X137885266Y-68129500D01*
X137885258Y-68129500D01*
X137668715Y-68158009D01*
X137657762Y-68159452D01*
X137564076Y-68184554D01*
X137436112Y-68218842D01*
X137224123Y-68306650D01*
X137224109Y-68306657D01*
X137025382Y-68421392D01*
X136843338Y-68561081D01*
X136681081Y-68723338D01*
X136541392Y-68905382D01*
X136426657Y-69104109D01*
X136426650Y-69104123D01*
X136338842Y-69316112D01*
X136279453Y-69537759D01*
X136279451Y-69537770D01*
X136249500Y-69765258D01*
X136249500Y-69994741D01*
X136279452Y-70222236D01*
X136279454Y-70222248D01*
X136312957Y-70347283D01*
X136312671Y-70359282D01*
X136316866Y-70370529D01*
X136311855Y-70393565D01*
X136311294Y-70417133D01*
X136304195Y-70428779D01*
X136302015Y-70438802D01*
X136280863Y-70467057D01*
X136124639Y-70623282D01*
X136063319Y-70656766D01*
X136036960Y-70659600D01*
X115713620Y-70659600D01*
X115646581Y-70639915D01*
X115600826Y-70587111D01*
X115590882Y-70517953D01*
X115603135Y-70479306D01*
X115612544Y-70460839D01*
X115612544Y-70460835D01*
X115612547Y-70460832D01*
X115670940Y-70281118D01*
X115680267Y-70222229D01*
X115700500Y-70094486D01*
X115700500Y-69905513D01*
X115670940Y-69718881D01*
X115612545Y-69539163D01*
X115567290Y-69450347D01*
X115526760Y-69370801D01*
X115415690Y-69217927D01*
X115282073Y-69084310D01*
X115129199Y-68973240D01*
X114960836Y-68887454D01*
X114781118Y-68829059D01*
X114594486Y-68799500D01*
X114594481Y-68799500D01*
X114405519Y-68799500D01*
X114405514Y-68799500D01*
X114218881Y-68829059D01*
X114039163Y-68887454D01*
X113870800Y-68973240D01*
X113783579Y-69036610D01*
X113717927Y-69084310D01*
X113717925Y-69084312D01*
X113717924Y-69084312D01*
X113584312Y-69217924D01*
X113584312Y-69217925D01*
X113584310Y-69217927D01*
X113536610Y-69283579D01*
X113473240Y-69370800D01*
X113387454Y-69539163D01*
X113329059Y-69718881D01*
X113299500Y-69905513D01*
X113299500Y-70094486D01*
X113329059Y-70281118D01*
X113387455Y-70460839D01*
X113396865Y-70479306D01*
X113409761Y-70547976D01*
X113383484Y-70612716D01*
X113326377Y-70652972D01*
X113286380Y-70659600D01*
X103324500Y-70659600D01*
X103257461Y-70639915D01*
X103211706Y-70587111D01*
X103200500Y-70535600D01*
X103200500Y-69384313D01*
X103200499Y-69384298D01*
X103197598Y-69347432D01*
X103197597Y-69347426D01*
X103151745Y-69189606D01*
X103151744Y-69189603D01*
X103151744Y-69189602D01*
X103068081Y-69048135D01*
X103068079Y-69048133D01*
X103068076Y-69048129D01*
X102951870Y-68931923D01*
X102951862Y-68931917D01*
X102810396Y-68848255D01*
X102810393Y-68848254D01*
X102652573Y-68802402D01*
X102652567Y-68802401D01*
X102615701Y-68799500D01*
X102615694Y-68799500D01*
X101384306Y-68799500D01*
X101384298Y-68799500D01*
X101347432Y-68802401D01*
X101347426Y-68802402D01*
X101189606Y-68848254D01*
X101189603Y-68848255D01*
X101048137Y-68931917D01*
X101048129Y-68931923D01*
X100931923Y-69048129D01*
X100931917Y-69048137D01*
X100848255Y-69189603D01*
X100848254Y-69189606D01*
X100802402Y-69347426D01*
X100802401Y-69347432D01*
X100799500Y-69384298D01*
X100799500Y-70535600D01*
X100779815Y-70602639D01*
X100727011Y-70648394D01*
X100675500Y-70659600D01*
X72777340Y-70659600D01*
X72710301Y-70639915D01*
X72689659Y-70623281D01*
X67986819Y-65920441D01*
X67972115Y-65893513D01*
X67955523Y-65867695D01*
X67954631Y-65861494D01*
X67953334Y-65859118D01*
X67950500Y-65832760D01*
X67950500Y-65805258D01*
X136249500Y-65805258D01*
X136249500Y-66034741D01*
X136274446Y-66224215D01*
X136279452Y-66262238D01*
X136279453Y-66262240D01*
X136338842Y-66483887D01*
X136426650Y-66695876D01*
X136426657Y-66695890D01*
X136541392Y-66894617D01*
X136681081Y-67076661D01*
X136681089Y-67076670D01*
X136843330Y-67238911D01*
X136843338Y-67238918D01*
X137025382Y-67378607D01*
X137025385Y-67378608D01*
X137025388Y-67378611D01*
X137224112Y-67493344D01*
X137224117Y-67493346D01*
X137224123Y-67493349D01*
X137293704Y-67522170D01*
X137436113Y-67581158D01*
X137657762Y-67640548D01*
X137885266Y-67670500D01*
X137885273Y-67670500D01*
X138114727Y-67670500D01*
X138114734Y-67670500D01*
X138342238Y-67640548D01*
X138563887Y-67581158D01*
X138775888Y-67493344D01*
X138974612Y-67378611D01*
X139156661Y-67238919D01*
X139156665Y-67238914D01*
X139156670Y-67238911D01*
X139318911Y-67076670D01*
X139318914Y-67076665D01*
X139318919Y-67076661D01*
X139458611Y-66894612D01*
X139573344Y-66695888D01*
X139661158Y-66483887D01*
X139720548Y-66262238D01*
X139750500Y-66034734D01*
X139750500Y-65805266D01*
X139720548Y-65577762D01*
X139661158Y-65356113D01*
X139595589Y-65197815D01*
X139573349Y-65144123D01*
X139573346Y-65144117D01*
X139573344Y-65144112D01*
X139458611Y-64945388D01*
X139458608Y-64945385D01*
X139458607Y-64945382D01*
X139348893Y-64802402D01*
X139318919Y-64763339D01*
X139318918Y-64763338D01*
X139318911Y-64763330D01*
X139156670Y-64601089D01*
X139156661Y-64601081D01*
X138974617Y-64461392D01*
X138954019Y-64449500D01*
X138775888Y-64346656D01*
X138775876Y-64346650D01*
X138563887Y-64258842D01*
X138342238Y-64199452D01*
X138304215Y-64194446D01*
X138114741Y-64169500D01*
X138114734Y-64169500D01*
X137885266Y-64169500D01*
X137885258Y-64169500D01*
X137668715Y-64198009D01*
X137657762Y-64199452D01*
X137564076Y-64224554D01*
X137436112Y-64258842D01*
X137224123Y-64346650D01*
X137224109Y-64346657D01*
X137025382Y-64461392D01*
X136843338Y-64601081D01*
X136681081Y-64763338D01*
X136541392Y-64945382D01*
X136426657Y-65144109D01*
X136426650Y-65144123D01*
X136338842Y-65356112D01*
X136321074Y-65422426D01*
X136297757Y-65509448D01*
X136279453Y-65577759D01*
X136279451Y-65577770D01*
X136249500Y-65805258D01*
X67950500Y-65805258D01*
X67950500Y-65459313D01*
X67950499Y-65459298D01*
X67947598Y-65422432D01*
X67947597Y-65422426D01*
X67901745Y-65264606D01*
X67901744Y-65264603D01*
X67901744Y-65264602D01*
X67818081Y-65123135D01*
X67818079Y-65123133D01*
X67818076Y-65123129D01*
X67701870Y-65006923D01*
X67701862Y-65006917D01*
X67560396Y-64923255D01*
X67560393Y-64923254D01*
X67402573Y-64877402D01*
X67402567Y-64877401D01*
X67365701Y-64874500D01*
X67365694Y-64874500D01*
X66734306Y-64874500D01*
X66734298Y-64874500D01*
X66697432Y-64877401D01*
X66697426Y-64877402D01*
X66539606Y-64923254D01*
X66539603Y-64923255D01*
X66398137Y-65006917D01*
X66398129Y-65006923D01*
X66281923Y-65123129D01*
X66281917Y-65123137D01*
X66198255Y-65264603D01*
X66198254Y-65264606D01*
X66152402Y-65422426D01*
X66152401Y-65422432D01*
X66149500Y-65459298D01*
X66149500Y-65832760D01*
X66129815Y-65899799D01*
X66113181Y-65920441D01*
X65421341Y-66612281D01*
X65360018Y-66645766D01*
X65333660Y-66648600D01*
X61832040Y-66648600D01*
X61765001Y-66628915D01*
X61744359Y-66612281D01*
X61236819Y-66104741D01*
X61203334Y-66043418D01*
X61200500Y-66017060D01*
X61200500Y-65384313D01*
X61200499Y-65384298D01*
X61199060Y-65366015D01*
X61197598Y-65347431D01*
X61192705Y-65330591D01*
X61151745Y-65189606D01*
X61151744Y-65189603D01*
X61151744Y-65189602D01*
X61068081Y-65048135D01*
X61068079Y-65048133D01*
X61068076Y-65048129D01*
X60951870Y-64931923D01*
X60951862Y-64931917D01*
X60854774Y-64874500D01*
X60810398Y-64848256D01*
X60810397Y-64848255D01*
X60810396Y-64848255D01*
X60810393Y-64848254D01*
X60652573Y-64802402D01*
X60652567Y-64802401D01*
X60615701Y-64799500D01*
X60615694Y-64799500D01*
X59384306Y-64799500D01*
X59384298Y-64799500D01*
X59347432Y-64802401D01*
X59347426Y-64802402D01*
X59189606Y-64848254D01*
X59189603Y-64848255D01*
X59048137Y-64931917D01*
X59048129Y-64931923D01*
X58931923Y-65048129D01*
X58931917Y-65048137D01*
X58878406Y-65138621D01*
X58827337Y-65186304D01*
X58771674Y-65199500D01*
X52243160Y-65199500D01*
X52176121Y-65179815D01*
X52132675Y-65131795D01*
X52100293Y-65068243D01*
X52063996Y-64997006D01*
X52016708Y-64931919D01*
X51957558Y-64850505D01*
X51957554Y-64850500D01*
X51829499Y-64722445D01*
X51829494Y-64722441D01*
X51682997Y-64616006D01*
X51682996Y-64616005D01*
X51682994Y-64616004D01*
X51631300Y-64589664D01*
X51521639Y-64533788D01*
X51521636Y-64533787D01*
X51349410Y-64477829D01*
X51170551Y-64449500D01*
X51170546Y-64449500D01*
X50989454Y-64449500D01*
X50989449Y-64449500D01*
X50810589Y-64477829D01*
X50638363Y-64533787D01*
X50638360Y-64533788D01*
X50477002Y-64616006D01*
X50330505Y-64722441D01*
X50330500Y-64722445D01*
X50202445Y-64850500D01*
X50202441Y-64850505D01*
X50096006Y-64997002D01*
X50013788Y-65158360D01*
X50013787Y-65158363D01*
X49957829Y-65330589D01*
X49929500Y-65509448D01*
X49929500Y-66490551D01*
X49957829Y-66669410D01*
X50013787Y-66841636D01*
X50013788Y-66841639D01*
X50096006Y-67002997D01*
X50202441Y-67149494D01*
X50202445Y-67149499D01*
X50330500Y-67277554D01*
X50330505Y-67277558D01*
X50410200Y-67335459D01*
X50477006Y-67383996D01*
X50582484Y-67437740D01*
X50638360Y-67466211D01*
X50638363Y-67466212D01*
X50674792Y-67478048D01*
X50810591Y-67522171D01*
X50893429Y-67535291D01*
X50989449Y-67550500D01*
X50989454Y-67550500D01*
X51170551Y-67550500D01*
X51257259Y-67536765D01*
X51349409Y-67522171D01*
X51521639Y-67466211D01*
X51682994Y-67383996D01*
X51829501Y-67277553D01*
X51957553Y-67149501D01*
X52063996Y-67002994D01*
X52132675Y-66868205D01*
X52180650Y-66817409D01*
X52243160Y-66800500D01*
X58771674Y-66800500D01*
X58838713Y-66820185D01*
X58878406Y-66861379D01*
X58931917Y-66951862D01*
X58931923Y-66951870D01*
X59048129Y-67068076D01*
X59048133Y-67068079D01*
X59048135Y-67068081D01*
X59189602Y-67151744D01*
X59231224Y-67163836D01*
X59347426Y-67197597D01*
X59347429Y-67197597D01*
X59347431Y-67197598D01*
X59384306Y-67200500D01*
X60017060Y-67200500D01*
X60084099Y-67220185D01*
X60104741Y-67236819D01*
X60827311Y-67959389D01*
X60938808Y-68070886D01*
X60938812Y-68070890D01*
X61069914Y-68158490D01*
X61069927Y-68158497D01*
X61215598Y-68218835D01*
X61215603Y-68218837D01*
X61370253Y-68249599D01*
X61370256Y-68249600D01*
X61370258Y-68249600D01*
X65795444Y-68249600D01*
X65795445Y-68249599D01*
X65950097Y-68218837D01*
X66095779Y-68158494D01*
X66226889Y-68070889D01*
X66962319Y-67335459D01*
X67023642Y-67301974D01*
X67093333Y-67306958D01*
X67137681Y-67335459D01*
X71772611Y-71970389D01*
X71884111Y-72081889D01*
X71884112Y-72081890D01*
X71956110Y-72129998D01*
X72000915Y-72183611D01*
X72009622Y-72252936D01*
X71979467Y-72315963D01*
X71920024Y-72352682D01*
X71887219Y-72357100D01*
X57862454Y-72357100D01*
X57707809Y-72387861D01*
X57707797Y-72387864D01*
X57665132Y-72405536D01*
X57665133Y-72405537D01*
X57562123Y-72448204D01*
X57562114Y-72448209D01*
X57431012Y-72535809D01*
X57431010Y-72535812D01*
X48838914Y-81127906D01*
X48785828Y-81159301D01*
X48745865Y-81170911D01*
X48745862Y-81170912D01*
X48611194Y-81250554D01*
X48611185Y-81250561D01*
X48500561Y-81361185D01*
X48500554Y-81361194D01*
X48420913Y-81495860D01*
X48377262Y-81646111D01*
X48374500Y-81681207D01*
X31000000Y-81681207D01*
X31000000Y-64818475D01*
X44849500Y-64818475D01*
X44849500Y-67181517D01*
X44858592Y-67238919D01*
X44864354Y-67275304D01*
X44921950Y-67388342D01*
X44921952Y-67388344D01*
X44921954Y-67388347D01*
X45011652Y-67478045D01*
X45011654Y-67478046D01*
X45011658Y-67478050D01*
X45124694Y-67535645D01*
X45124698Y-67535647D01*
X45218475Y-67550499D01*
X45218481Y-67550500D01*
X46781518Y-67550499D01*
X46875304Y-67535646D01*
X46988342Y-67478050D01*
X47078050Y-67388342D01*
X47135646Y-67275304D01*
X47135646Y-67275302D01*
X47135647Y-67275301D01*
X47147953Y-67197598D01*
X47150500Y-67181519D01*
X47150499Y-64818482D01*
X47135646Y-64724696D01*
X47078050Y-64611658D01*
X47078046Y-64611654D01*
X47078045Y-64611652D01*
X46988347Y-64521954D01*
X46988344Y-64521952D01*
X46988342Y-64521950D01*
X46901750Y-64477829D01*
X46875301Y-64464352D01*
X46781524Y-64449500D01*
X45218482Y-64449500D01*
X45137519Y-64462323D01*
X45124696Y-64464354D01*
X45011658Y-64521950D01*
X45011657Y-64521951D01*
X45011652Y-64521954D01*
X44921954Y-64611652D01*
X44921951Y-64611657D01*
X44864352Y-64724698D01*
X44849500Y-64818475D01*
X31000000Y-64818475D01*
X31000000Y-63184298D01*
X90599500Y-63184298D01*
X90599500Y-64815701D01*
X90602401Y-64852567D01*
X90602402Y-64852573D01*
X90648254Y-65010393D01*
X90648255Y-65010396D01*
X90731917Y-65151862D01*
X90731923Y-65151870D01*
X90848129Y-65268076D01*
X90848133Y-65268079D01*
X90848135Y-65268081D01*
X90989602Y-65351744D01*
X91004637Y-65356112D01*
X91147426Y-65397597D01*
X91147429Y-65397597D01*
X91147431Y-65397598D01*
X91184306Y-65400500D01*
X91184314Y-65400500D01*
X92815686Y-65400500D01*
X92815694Y-65400500D01*
X92852569Y-65397598D01*
X92852571Y-65397597D01*
X92852573Y-65397597D01*
X92898347Y-65384298D01*
X93010398Y-65351744D01*
X93151865Y-65268081D01*
X93268081Y-65151865D01*
X93351744Y-65010398D01*
X93397598Y-64852569D01*
X93400500Y-64815694D01*
X93400500Y-63184306D01*
X93397598Y-63147431D01*
X93380225Y-63087635D01*
X93351745Y-62989606D01*
X93351744Y-62989603D01*
X93351744Y-62989602D01*
X93268081Y-62848135D01*
X93268079Y-62848133D01*
X93268076Y-62848129D01*
X93151870Y-62731923D01*
X93151862Y-62731917D01*
X93010396Y-62648255D01*
X93010393Y-62648254D01*
X92852573Y-62602402D01*
X92852567Y-62602401D01*
X92815701Y-62599500D01*
X92815694Y-62599500D01*
X91184306Y-62599500D01*
X91184298Y-62599500D01*
X91147432Y-62602401D01*
X91147426Y-62602402D01*
X90989606Y-62648254D01*
X90989603Y-62648255D01*
X90848137Y-62731917D01*
X90848129Y-62731923D01*
X90731923Y-62848129D01*
X90731917Y-62848137D01*
X90648255Y-62989603D01*
X90648254Y-62989606D01*
X90602402Y-63147426D01*
X90602401Y-63147432D01*
X90599500Y-63184298D01*
X31000000Y-63184298D01*
X31000000Y-43401577D01*
X36599500Y-43401577D01*
X36599500Y-43598422D01*
X36630290Y-43792826D01*
X36691117Y-43980029D01*
X36780476Y-44155405D01*
X36896172Y-44314646D01*
X37035354Y-44453828D01*
X37035357Y-44453830D01*
X37156156Y-44541596D01*
X37198822Y-44596926D01*
X37204801Y-44666539D01*
X37172195Y-44728334D01*
X37117867Y-44760990D01*
X36989604Y-44798254D01*
X36989603Y-44798255D01*
X36848137Y-44881917D01*
X36848129Y-44881923D01*
X36731923Y-44998129D01*
X36731917Y-44998137D01*
X36648255Y-45139603D01*
X36648254Y-45139606D01*
X36602402Y-45297426D01*
X36602401Y-45297432D01*
X36599500Y-45334298D01*
X36599500Y-46665701D01*
X36602401Y-46702567D01*
X36602402Y-46702573D01*
X36648254Y-46860393D01*
X36648255Y-46860396D01*
X36731917Y-47001862D01*
X36731923Y-47001870D01*
X36848129Y-47118076D01*
X36848133Y-47118079D01*
X36848135Y-47118081D01*
X36989602Y-47201744D01*
X37031224Y-47213836D01*
X37147426Y-47247597D01*
X37147429Y-47247597D01*
X37147431Y-47247598D01*
X37184306Y-47250500D01*
X37184314Y-47250500D01*
X38815686Y-47250500D01*
X38815694Y-47250500D01*
X38852569Y-47247598D01*
X38852571Y-47247597D01*
X38852573Y-47247597D01*
X38894191Y-47235505D01*
X39010398Y-47201744D01*
X39151865Y-47118081D01*
X39268081Y-47001865D01*
X39351744Y-46860398D01*
X39397598Y-46702569D01*
X39400500Y-46665694D01*
X39400500Y-45334306D01*
X39397598Y-45297431D01*
X39393782Y-45284298D01*
X39354019Y-45147432D01*
X39351744Y-45139602D01*
X39268081Y-44998135D01*
X39268079Y-44998133D01*
X39268076Y-44998129D01*
X39151870Y-44881923D01*
X39151862Y-44881917D01*
X39017045Y-44802187D01*
X39010398Y-44798256D01*
X39010397Y-44798255D01*
X39010396Y-44798255D01*
X39010395Y-44798254D01*
X38882132Y-44760990D01*
X38823247Y-44723383D01*
X38794041Y-44659911D01*
X38803787Y-44590724D01*
X38843840Y-44541598D01*
X38964646Y-44453828D01*
X39081656Y-44336818D01*
X39142979Y-44303334D01*
X39169337Y-44300500D01*
X58780539Y-44300500D01*
X58847578Y-44320185D01*
X58893333Y-44372989D01*
X58903277Y-44442147D01*
X58902520Y-44446785D01*
X58902401Y-44447431D01*
X58899500Y-44484298D01*
X58899500Y-45779560D01*
X58879815Y-45846599D01*
X58863181Y-45867241D01*
X58056541Y-46673881D01*
X57995218Y-46707366D01*
X57968860Y-46710200D01*
X55774500Y-46710200D01*
X55707461Y-46690515D01*
X55661706Y-46637711D01*
X55650500Y-46586200D01*
X55650500Y-45284313D01*
X55650499Y-45284298D01*
X55649057Y-45265978D01*
X55647598Y-45247431D01*
X55632849Y-45196666D01*
X55601745Y-45089606D01*
X55601744Y-45089603D01*
X55601744Y-45089602D01*
X55518081Y-44948135D01*
X55518079Y-44948133D01*
X55518076Y-44948129D01*
X55401870Y-44831923D01*
X55401862Y-44831917D01*
X55281930Y-44760990D01*
X55260398Y-44748256D01*
X55260397Y-44748255D01*
X55260396Y-44748255D01*
X55260393Y-44748254D01*
X55102573Y-44702402D01*
X55102567Y-44702401D01*
X55065701Y-44699500D01*
X55065694Y-44699500D01*
X52934306Y-44699500D01*
X52934298Y-44699500D01*
X52897432Y-44702401D01*
X52897426Y-44702402D01*
X52739606Y-44748254D01*
X52739603Y-44748255D01*
X52598137Y-44831917D01*
X52598129Y-44831923D01*
X52481923Y-44948129D01*
X52481917Y-44948137D01*
X52398255Y-45089603D01*
X52398254Y-45089606D01*
X52352402Y-45247426D01*
X52352401Y-45247432D01*
X52349500Y-45284298D01*
X52349500Y-45311900D01*
X52329815Y-45378939D01*
X52277011Y-45424694D01*
X52225500Y-45435900D01*
X51921253Y-45435900D01*
X51798691Y-45460279D01*
X51729099Y-45454052D01*
X51673922Y-45411188D01*
X51650678Y-45345299D01*
X51650500Y-45338662D01*
X51650500Y-45284313D01*
X51650499Y-45284298D01*
X51649057Y-45265978D01*
X51647598Y-45247431D01*
X51632849Y-45196666D01*
X51601745Y-45089606D01*
X51601744Y-45089603D01*
X51601744Y-45089602D01*
X51518081Y-44948135D01*
X51518079Y-44948133D01*
X51518076Y-44948129D01*
X51401870Y-44831923D01*
X51401862Y-44831917D01*
X51281930Y-44760990D01*
X51260398Y-44748256D01*
X51260397Y-44748255D01*
X51260396Y-44748255D01*
X51260393Y-44748254D01*
X51102573Y-44702402D01*
X51102567Y-44702401D01*
X51065701Y-44699500D01*
X51065694Y-44699500D01*
X48934306Y-44699500D01*
X48934298Y-44699500D01*
X48897432Y-44702401D01*
X48897426Y-44702402D01*
X48739606Y-44748254D01*
X48739603Y-44748255D01*
X48598137Y-44831917D01*
X48598129Y-44831923D01*
X48481923Y-44948129D01*
X48481917Y-44948137D01*
X48398255Y-45089603D01*
X48398254Y-45089606D01*
X48352402Y-45247426D01*
X48352401Y-45247432D01*
X48349500Y-45284298D01*
X48349500Y-46715701D01*
X48352401Y-46752567D01*
X48352402Y-46752573D01*
X48398254Y-46910393D01*
X48398255Y-46910396D01*
X48481917Y-47051862D01*
X48481923Y-47051870D01*
X48598129Y-47168076D01*
X48598133Y-47168079D01*
X48598135Y-47168081D01*
X48739602Y-47251744D01*
X48781224Y-47263836D01*
X48897426Y-47297597D01*
X48897429Y-47297597D01*
X48897431Y-47297598D01*
X48934306Y-47300500D01*
X50117060Y-47300500D01*
X50184099Y-47320185D01*
X50204740Y-47336818D01*
X50888911Y-48020989D01*
X50965519Y-48097597D01*
X51000412Y-48132490D01*
X51131515Y-48220090D01*
X51131521Y-48220094D01*
X51234533Y-48262762D01*
X51277202Y-48280437D01*
X51431852Y-48311199D01*
X51431855Y-48311200D01*
X51431857Y-48311200D01*
X58430644Y-48311200D01*
X58430645Y-48311199D01*
X58585297Y-48280437D01*
X58730979Y-48220094D01*
X58862089Y-48132489D01*
X59003690Y-47990887D01*
X59065009Y-47957405D01*
X59134701Y-47962389D01*
X59154489Y-47971839D01*
X59289602Y-48051744D01*
X59331224Y-48063836D01*
X59447426Y-48097597D01*
X59447429Y-48097597D01*
X59447431Y-48097598D01*
X59484306Y-48100500D01*
X59484314Y-48100500D01*
X60240686Y-48100500D01*
X60240694Y-48100500D01*
X60277569Y-48097598D01*
X60277571Y-48097597D01*
X60277573Y-48097597D01*
X60319191Y-48085505D01*
X60435398Y-48051744D01*
X60576865Y-47968081D01*
X60693081Y-47851865D01*
X60776744Y-47710398D01*
X60822598Y-47552569D01*
X60825500Y-47515694D01*
X60825500Y-44484306D01*
X60822598Y-44447431D01*
X60822480Y-44446785D01*
X60822518Y-44446419D01*
X60822101Y-44441114D01*
X60823085Y-44441036D01*
X60829796Y-44377299D01*
X60873517Y-44322799D01*
X60939763Y-44300589D01*
X60944461Y-44300500D01*
X63055539Y-44300500D01*
X63122578Y-44320185D01*
X63168333Y-44372989D01*
X63178277Y-44442147D01*
X63177520Y-44446785D01*
X63177401Y-44447431D01*
X63174500Y-44484298D01*
X63174500Y-47515701D01*
X63177401Y-47552567D01*
X63177402Y-47552573D01*
X63223254Y-47710393D01*
X63223255Y-47710396D01*
X63306917Y-47851862D01*
X63306923Y-47851870D01*
X63423129Y-47968076D01*
X63423133Y-47968079D01*
X63423135Y-47968081D01*
X63564602Y-48051744D01*
X63606224Y-48063836D01*
X63722426Y-48097597D01*
X63722429Y-48097597D01*
X63722431Y-48097598D01*
X63759306Y-48100500D01*
X63759314Y-48100500D01*
X64515686Y-48100500D01*
X64515694Y-48100500D01*
X64552569Y-48097598D01*
X64552571Y-48097597D01*
X64552573Y-48097597D01*
X64594191Y-48085505D01*
X64710398Y-48051744D01*
X64851865Y-47968081D01*
X64968081Y-47851865D01*
X65051744Y-47710398D01*
X65097598Y-47552569D01*
X65100500Y-47515694D01*
X65100500Y-46924500D01*
X65120185Y-46857461D01*
X65172989Y-46811706D01*
X65224500Y-46800500D01*
X68494173Y-46800500D01*
X68561212Y-46820185D01*
X68606967Y-46872989D01*
X68613249Y-46889905D01*
X68648254Y-47010393D01*
X68648255Y-47010396D01*
X68731917Y-47151862D01*
X68731923Y-47151870D01*
X68848129Y-47268076D01*
X68848133Y-47268079D01*
X68848135Y-47268081D01*
X68989602Y-47351744D01*
X69031224Y-47363836D01*
X69147426Y-47397597D01*
X69147429Y-47397597D01*
X69147431Y-47397598D01*
X69184306Y-47400500D01*
X69184314Y-47400500D01*
X70815686Y-47400500D01*
X70815694Y-47400500D01*
X70852569Y-47397598D01*
X70852571Y-47397597D01*
X70852573Y-47397597D01*
X70917034Y-47378869D01*
X71010398Y-47351744D01*
X71151865Y-47268081D01*
X71268081Y-47151865D01*
X71351744Y-47010398D01*
X71391665Y-46872989D01*
X71397597Y-46852573D01*
X71397598Y-46852567D01*
X71399294Y-46831020D01*
X71400500Y-46815694D01*
X71400500Y-45184306D01*
X71397598Y-45147431D01*
X71395323Y-45139602D01*
X71351745Y-44989606D01*
X71351744Y-44989603D01*
X71351744Y-44989602D01*
X71268081Y-44848135D01*
X71268079Y-44848133D01*
X71268076Y-44848129D01*
X71151870Y-44731923D01*
X71151862Y-44731917D01*
X71035635Y-44663181D01*
X71010398Y-44648256D01*
X71010397Y-44648255D01*
X71010396Y-44648255D01*
X71010393Y-44648254D01*
X70852573Y-44602402D01*
X70852567Y-44602401D01*
X70815701Y-44599500D01*
X70815694Y-44599500D01*
X69184306Y-44599500D01*
X69184298Y-44599500D01*
X69147432Y-44602401D01*
X69147426Y-44602402D01*
X68989606Y-44648254D01*
X68989603Y-44648255D01*
X68848137Y-44731917D01*
X68848129Y-44731923D01*
X68731923Y-44848129D01*
X68731917Y-44848137D01*
X68648255Y-44989603D01*
X68648254Y-44989606D01*
X68613249Y-45110095D01*
X68575643Y-45168981D01*
X68512171Y-45198187D01*
X68494173Y-45199500D01*
X65224500Y-45199500D01*
X65157461Y-45179815D01*
X65111706Y-45127011D01*
X65100500Y-45075500D01*
X65100500Y-44484313D01*
X65100499Y-44484298D01*
X65097598Y-44447431D01*
X65097480Y-44446785D01*
X65097518Y-44446419D01*
X65097101Y-44441114D01*
X65098085Y-44441036D01*
X65104796Y-44377299D01*
X65148517Y-44322799D01*
X65214763Y-44300589D01*
X65219461Y-44300500D01*
X72117060Y-44300500D01*
X72184099Y-44320185D01*
X72204741Y-44336819D01*
X73576454Y-45708532D01*
X73609939Y-45769855D01*
X73611246Y-45815611D01*
X73599500Y-45889772D01*
X73599500Y-46110221D01*
X73633985Y-46327952D01*
X73702103Y-46537603D01*
X73702104Y-46537606D01*
X73755297Y-46642000D01*
X73799973Y-46729681D01*
X73802187Y-46734025D01*
X73931752Y-46912358D01*
X73931756Y-46912363D01*
X74087636Y-47068243D01*
X74087641Y-47068247D01*
X74225052Y-47168081D01*
X74265978Y-47197815D01*
X74394375Y-47263237D01*
X74462393Y-47297895D01*
X74462396Y-47297896D01*
X74567221Y-47331955D01*
X74672049Y-47366015D01*
X74889778Y-47400500D01*
X74889779Y-47400500D01*
X75110219Y-47400500D01*
X75110222Y-47400500D01*
X75184389Y-47388752D01*
X75253679Y-47397706D01*
X75291466Y-47423544D01*
X76056207Y-48188286D01*
X76056211Y-48188289D01*
X76187314Y-48275890D01*
X76187318Y-48275892D01*
X76187321Y-48275894D01*
X76333003Y-48336238D01*
X76487653Y-48366999D01*
X76487657Y-48367000D01*
X76487658Y-48367000D01*
X84050560Y-48367000D01*
X84117599Y-48386685D01*
X84138241Y-48403319D01*
X96163181Y-60428259D01*
X96196666Y-60489582D01*
X96199500Y-60515940D01*
X96199500Y-62787301D01*
X96179815Y-62854340D01*
X96148387Y-62887618D01*
X96087635Y-62931757D01*
X95931756Y-63087636D01*
X95931752Y-63087641D01*
X95802187Y-63265974D01*
X95702104Y-63462393D01*
X95702103Y-63462396D01*
X95633985Y-63672047D01*
X95599500Y-63889778D01*
X95599500Y-64110221D01*
X95633985Y-64327952D01*
X95702103Y-64537603D01*
X95702104Y-64537606D01*
X95742051Y-64616004D01*
X95797434Y-64724698D01*
X95802187Y-64734025D01*
X95931752Y-64912358D01*
X95931756Y-64912363D01*
X96087636Y-65068243D01*
X96087641Y-65068247D01*
X96241203Y-65179815D01*
X96265978Y-65197815D01*
X96394375Y-65263237D01*
X96462393Y-65297895D01*
X96462396Y-65297896D01*
X96563017Y-65330589D01*
X96672049Y-65366015D01*
X96889778Y-65400500D01*
X96889779Y-65400500D01*
X97110221Y-65400500D01*
X97110222Y-65400500D01*
X97327951Y-65366015D01*
X97537606Y-65297895D01*
X97734022Y-65197815D01*
X97912365Y-65068242D01*
X98068242Y-64912365D01*
X98197815Y-64734022D01*
X98297895Y-64537606D01*
X98366015Y-64327951D01*
X98400500Y-64110222D01*
X98400500Y-63889778D01*
X98366015Y-63672049D01*
X98297895Y-63462394D01*
X98297895Y-63462393D01*
X98263237Y-63394375D01*
X98197815Y-63265978D01*
X98181260Y-63243192D01*
X98068247Y-63087641D01*
X98068243Y-63087636D01*
X97912364Y-62931757D01*
X97851613Y-62887618D01*
X97808948Y-62832287D01*
X97800500Y-62787301D01*
X97800500Y-60054156D01*
X97799629Y-60049777D01*
X104439500Y-60049777D01*
X104439500Y-60270221D01*
X104473985Y-60487952D01*
X104542103Y-60697603D01*
X104542104Y-60697606D01*
X104642187Y-60894025D01*
X104771752Y-61072358D01*
X104771756Y-61072363D01*
X104927636Y-61228243D01*
X104927641Y-61228247D01*
X105083192Y-61341260D01*
X105105978Y-61357815D01*
X105234375Y-61423237D01*
X105302393Y-61457895D01*
X105302396Y-61457896D01*
X105407221Y-61491955D01*
X105512049Y-61526015D01*
X105729778Y-61560500D01*
X105729779Y-61560500D01*
X105950221Y-61560500D01*
X105950222Y-61560500D01*
X106167951Y-61526015D01*
X106377606Y-61457895D01*
X106574022Y-61357815D01*
X106752365Y-61228242D01*
X106908242Y-61072365D01*
X107037815Y-60894022D01*
X107137895Y-60697606D01*
X107206015Y-60487951D01*
X107240500Y-60270222D01*
X107240500Y-60049778D01*
X107240500Y-60049777D01*
X124759500Y-60049777D01*
X124759500Y-60270221D01*
X124793985Y-60487952D01*
X124862103Y-60697603D01*
X124862104Y-60697606D01*
X124962187Y-60894025D01*
X125091752Y-61072358D01*
X125091756Y-61072363D01*
X125247636Y-61228243D01*
X125247641Y-61228247D01*
X125403192Y-61341260D01*
X125425978Y-61357815D01*
X125554375Y-61423237D01*
X125622393Y-61457895D01*
X125622396Y-61457896D01*
X125727221Y-61491955D01*
X125832049Y-61526015D01*
X126049778Y-61560500D01*
X126049779Y-61560500D01*
X126270221Y-61560500D01*
X126270222Y-61560500D01*
X126487951Y-61526015D01*
X126697606Y-61457895D01*
X126894022Y-61357815D01*
X127072365Y-61228242D01*
X127228242Y-61072365D01*
X127357815Y-60894022D01*
X127457895Y-60697606D01*
X127526015Y-60487951D01*
X127560500Y-60270222D01*
X127560500Y-60049778D01*
X127526015Y-59832049D01*
X127457895Y-59622394D01*
X127457895Y-59622393D01*
X127423237Y-59554375D01*
X127357815Y-59425978D01*
X127310168Y-59360397D01*
X127228247Y-59247641D01*
X127228243Y-59247636D01*
X127072363Y-59091756D01*
X127072358Y-59091752D01*
X126894025Y-58962187D01*
X126894024Y-58962186D01*
X126894022Y-58962185D01*
X126831096Y-58930122D01*
X126697606Y-58862104D01*
X126697603Y-58862103D01*
X126487952Y-58793985D01*
X126379086Y-58776742D01*
X126270222Y-58759500D01*
X126049778Y-58759500D01*
X125977201Y-58770995D01*
X125832047Y-58793985D01*
X125622396Y-58862103D01*
X125622393Y-58862104D01*
X125425974Y-58962187D01*
X125247641Y-59091752D01*
X125247636Y-59091756D01*
X125091756Y-59247636D01*
X125091752Y-59247641D01*
X124962187Y-59425974D01*
X124862104Y-59622393D01*
X124862103Y-59622396D01*
X124793985Y-59832047D01*
X124759501Y-60049771D01*
X124759500Y-60049777D01*
X107240500Y-60049777D01*
X107206015Y-59832049D01*
X107137895Y-59622394D01*
X107137895Y-59622393D01*
X107103237Y-59554375D01*
X107037815Y-59425978D01*
X106990168Y-59360397D01*
X106908247Y-59247641D01*
X106908243Y-59247636D01*
X106752363Y-59091756D01*
X106752358Y-59091752D01*
X106574025Y-58962187D01*
X106574024Y-58962186D01*
X106574022Y-58962185D01*
X106511096Y-58930122D01*
X106377606Y-58862104D01*
X106377603Y-58862103D01*
X106167952Y-58793985D01*
X106059086Y-58776742D01*
X105950222Y-58759500D01*
X105729778Y-58759500D01*
X105657201Y-58770995D01*
X105512047Y-58793985D01*
X105302396Y-58862103D01*
X105302393Y-58862104D01*
X105105974Y-58962187D01*
X104927641Y-59091752D01*
X104927636Y-59091756D01*
X104771756Y-59247636D01*
X104771752Y-59247641D01*
X104642187Y-59425974D01*
X104542104Y-59622393D01*
X104542103Y-59622396D01*
X104473985Y-59832047D01*
X104439501Y-60049771D01*
X104439500Y-60049777D01*
X97799629Y-60049777D01*
X97799628Y-60049771D01*
X97799628Y-60049770D01*
X97769739Y-59899510D01*
X97769738Y-59899503D01*
X97709394Y-59753821D01*
X97709392Y-59753818D01*
X97709390Y-59753814D01*
X97621789Y-59622711D01*
X97621786Y-59622707D01*
X94833377Y-56834298D01*
X136249500Y-56834298D01*
X136249500Y-59165701D01*
X136252401Y-59202567D01*
X136252402Y-59202573D01*
X136298253Y-59360392D01*
X136298255Y-59360395D01*
X136381917Y-59501861D01*
X136381923Y-59501869D01*
X136498130Y-59618076D01*
X136498134Y-59618079D01*
X136498136Y-59618081D01*
X136639603Y-59701744D01*
X136639604Y-59701744D01*
X136639607Y-59701746D01*
X136797426Y-59747597D01*
X136797429Y-59747597D01*
X136797431Y-59747598D01*
X136834306Y-59750500D01*
X136834314Y-59750500D01*
X139165686Y-59750500D01*
X139165694Y-59750500D01*
X139202569Y-59747598D01*
X139202571Y-59747597D01*
X139202573Y-59747597D01*
X139360392Y-59701746D01*
X139360393Y-59701745D01*
X139360397Y-59701744D01*
X139501864Y-59618081D01*
X139618081Y-59501864D01*
X139701744Y-59360397D01*
X139701745Y-59360393D01*
X139701746Y-59360392D01*
X139747597Y-59202573D01*
X139747598Y-59202567D01*
X139750499Y-59165701D01*
X139750500Y-59165694D01*
X139750500Y-56834306D01*
X139747598Y-56797431D01*
X139747597Y-56797426D01*
X139701746Y-56639607D01*
X139701744Y-56639604D01*
X139701744Y-56639603D01*
X139618081Y-56498136D01*
X139618079Y-56498134D01*
X139618076Y-56498130D01*
X139501869Y-56381923D01*
X139501861Y-56381917D01*
X139360395Y-56298255D01*
X139360392Y-56298253D01*
X139202573Y-56252402D01*
X139202567Y-56252401D01*
X139165701Y-56249500D01*
X139165694Y-56249500D01*
X136834306Y-56249500D01*
X136834298Y-56249500D01*
X136797432Y-56252401D01*
X136797426Y-56252402D01*
X136639607Y-56298253D01*
X136639604Y-56298255D01*
X136498138Y-56381917D01*
X136498130Y-56381923D01*
X136381923Y-56498130D01*
X136381917Y-56498138D01*
X136298255Y-56639604D01*
X136298253Y-56639607D01*
X136252402Y-56797426D01*
X136252401Y-56797432D01*
X136249500Y-56834298D01*
X94833377Y-56834298D01*
X85653259Y-47654180D01*
X85648920Y-47646234D01*
X85641673Y-47640809D01*
X85632438Y-47616049D01*
X85619774Y-47592857D01*
X85620419Y-47583827D01*
X85617256Y-47575345D01*
X85622872Y-47549524D01*
X85624758Y-47523165D01*
X85630576Y-47514110D01*
X85632108Y-47507072D01*
X85653253Y-47478824D01*
X85795261Y-47336816D01*
X85856582Y-47303334D01*
X85882940Y-47300500D01*
X87065686Y-47300500D01*
X87065694Y-47300500D01*
X87102569Y-47297598D01*
X87102571Y-47297597D01*
X87102573Y-47297597D01*
X87144191Y-47285505D01*
X87260398Y-47251744D01*
X87401865Y-47168081D01*
X87518081Y-47051865D01*
X87601744Y-46910398D01*
X87607698Y-46889905D01*
X87645303Y-46831020D01*
X87708775Y-46801813D01*
X87726774Y-46800500D01*
X107378844Y-46800500D01*
X107378845Y-46800499D01*
X107533497Y-46769737D01*
X107646166Y-46723067D01*
X107679172Y-46709397D01*
X107679172Y-46709396D01*
X107679179Y-46709394D01*
X107810289Y-46621789D01*
X113168534Y-41263542D01*
X113229855Y-41230059D01*
X113275606Y-41228752D01*
X113349778Y-41240500D01*
X113349780Y-41240500D01*
X113570221Y-41240500D01*
X113570222Y-41240500D01*
X113787951Y-41206015D01*
X113997606Y-41137895D01*
X114194022Y-41037815D01*
X114372365Y-40908242D01*
X114528242Y-40752365D01*
X114657815Y-40574022D01*
X114757895Y-40377606D01*
X114826015Y-40167951D01*
X114860500Y-39950222D01*
X114860500Y-39729778D01*
X119679500Y-39729778D01*
X119679500Y-39950221D01*
X119713985Y-40167952D01*
X119782103Y-40377603D01*
X119782104Y-40377606D01*
X119882187Y-40574025D01*
X120011752Y-40752358D01*
X120011756Y-40752363D01*
X120167636Y-40908243D01*
X120167641Y-40908247D01*
X120323192Y-41021260D01*
X120345978Y-41037815D01*
X120425526Y-41078347D01*
X120542393Y-41137895D01*
X120542396Y-41137896D01*
X120635197Y-41168048D01*
X120752049Y-41206015D01*
X120969778Y-41240500D01*
X120969779Y-41240500D01*
X121190221Y-41240500D01*
X121190222Y-41240500D01*
X121407951Y-41206015D01*
X121617606Y-41137895D01*
X121814022Y-41037815D01*
X121992365Y-40908242D01*
X122148242Y-40752365D01*
X122277815Y-40574022D01*
X122377895Y-40377606D01*
X122446015Y-40167951D01*
X122480500Y-39950222D01*
X122480500Y-39729778D01*
X122446015Y-39512049D01*
X122377895Y-39302394D01*
X122377895Y-39302393D01*
X122335001Y-39218210D01*
X122277815Y-39105978D01*
X122188132Y-38982539D01*
X122148247Y-38927641D01*
X122148243Y-38927636D01*
X121992363Y-38771756D01*
X121992358Y-38771752D01*
X121814025Y-38642187D01*
X121814024Y-38642186D01*
X121814022Y-38642185D01*
X121734482Y-38601657D01*
X121617606Y-38542104D01*
X121617603Y-38542103D01*
X121407952Y-38473985D01*
X121284006Y-38454354D01*
X121190222Y-38439500D01*
X120969778Y-38439500D01*
X120897201Y-38450995D01*
X120752047Y-38473985D01*
X120542396Y-38542103D01*
X120542393Y-38542104D01*
X120345974Y-38642187D01*
X120167641Y-38771752D01*
X120167636Y-38771756D01*
X120011756Y-38927636D01*
X120011752Y-38927641D01*
X119882187Y-39105974D01*
X119782104Y-39302393D01*
X119782103Y-39302396D01*
X119713985Y-39512047D01*
X119679500Y-39729778D01*
X114860500Y-39729778D01*
X114826015Y-39512049D01*
X114757895Y-39302394D01*
X114757895Y-39302393D01*
X114715001Y-39218210D01*
X114657815Y-39105978D01*
X114568132Y-38982539D01*
X114528247Y-38927641D01*
X114528243Y-38927636D01*
X114372363Y-38771756D01*
X114372358Y-38771752D01*
X114194025Y-38642187D01*
X114194024Y-38642186D01*
X114194022Y-38642185D01*
X114114482Y-38601657D01*
X113997606Y-38542104D01*
X113997603Y-38542103D01*
X113787952Y-38473985D01*
X113664006Y-38454354D01*
X113570222Y-38439500D01*
X113349778Y-38439500D01*
X113277201Y-38450995D01*
X113132047Y-38473985D01*
X112922396Y-38542103D01*
X112922393Y-38542104D01*
X112725974Y-38642187D01*
X112547641Y-38771752D01*
X112547636Y-38771756D01*
X112391756Y-38927636D01*
X112391752Y-38927641D01*
X112262187Y-39105974D01*
X112162104Y-39302393D01*
X112162103Y-39302396D01*
X112093985Y-39512047D01*
X112059500Y-39729778D01*
X112059500Y-39950227D01*
X112071246Y-40024387D01*
X112062292Y-40093680D01*
X112036454Y-40131466D01*
X107004741Y-45163181D01*
X106943418Y-45196666D01*
X106917060Y-45199500D01*
X87726774Y-45199500D01*
X87659735Y-45179815D01*
X87613980Y-45127011D01*
X87607697Y-45110093D01*
X87601744Y-45089603D01*
X87601744Y-45089602D01*
X87518081Y-44948135D01*
X87518079Y-44948133D01*
X87518076Y-44948129D01*
X87401870Y-44831923D01*
X87401862Y-44831917D01*
X87281930Y-44760990D01*
X87260398Y-44748256D01*
X87260397Y-44748255D01*
X87260396Y-44748255D01*
X87260393Y-44748254D01*
X87102573Y-44702402D01*
X87102567Y-44702401D01*
X87065701Y-44699500D01*
X87065694Y-44699500D01*
X84934306Y-44699500D01*
X84934298Y-44699500D01*
X84897432Y-44702401D01*
X84897426Y-44702402D01*
X84739606Y-44748254D01*
X84739600Y-44748256D01*
X84713743Y-44763548D01*
X84646018Y-44780729D01*
X84579756Y-44758568D01*
X84535994Y-44704101D01*
X84528626Y-44634621D01*
X84559992Y-44572188D01*
X84562914Y-44569163D01*
X88455259Y-40676819D01*
X88516582Y-40643334D01*
X88542940Y-40640500D01*
X106855501Y-40640500D01*
X106922540Y-40660185D01*
X106968295Y-40712989D01*
X106979501Y-40764500D01*
X106979501Y-40871518D01*
X106994354Y-40965304D01*
X107051950Y-41078342D01*
X107051952Y-41078344D01*
X107051954Y-41078347D01*
X107141652Y-41168045D01*
X107141654Y-41168046D01*
X107141658Y-41168050D01*
X107254694Y-41225645D01*
X107254698Y-41225647D01*
X107348475Y-41240499D01*
X107348481Y-41240500D01*
X109411518Y-41240499D01*
X109505304Y-41225646D01*
X109618342Y-41168050D01*
X109708050Y-41078342D01*
X109765646Y-40965304D01*
X109765646Y-40965302D01*
X109765647Y-40965301D01*
X109780499Y-40871524D01*
X109780500Y-40871519D01*
X109780499Y-38808482D01*
X109765646Y-38714696D01*
X109708050Y-38601658D01*
X109708046Y-38601654D01*
X109708045Y-38601652D01*
X109618347Y-38511954D01*
X109618344Y-38511952D01*
X109618342Y-38511950D01*
X109541517Y-38472805D01*
X109505301Y-38454352D01*
X109411524Y-38439500D01*
X107348482Y-38439500D01*
X107267519Y-38452323D01*
X107254696Y-38454354D01*
X107141658Y-38511950D01*
X107141657Y-38511951D01*
X107141652Y-38511954D01*
X107051954Y-38601652D01*
X107051951Y-38601657D01*
X106994352Y-38714698D01*
X106979500Y-38808475D01*
X106979500Y-38915500D01*
X106959815Y-38982539D01*
X106907011Y-39028294D01*
X106855500Y-39039500D01*
X88081153Y-39039500D01*
X87926510Y-39070260D01*
X87926502Y-39070262D01*
X87780824Y-39130604D01*
X87780814Y-39130609D01*
X87649711Y-39218210D01*
X87649707Y-39218213D01*
X82204741Y-44663181D01*
X82143418Y-44696666D01*
X82117060Y-44699500D01*
X80934298Y-44699500D01*
X80897432Y-44702401D01*
X80897426Y-44702402D01*
X80739606Y-44748254D01*
X80739603Y-44748255D01*
X80598137Y-44831917D01*
X80598129Y-44831923D01*
X80481923Y-44948129D01*
X80481917Y-44948137D01*
X80398255Y-45089603D01*
X80398254Y-45089606D01*
X80352402Y-45247426D01*
X80352401Y-45247432D01*
X80349500Y-45284298D01*
X80349500Y-46642000D01*
X80329815Y-46709039D01*
X80277011Y-46754794D01*
X80225500Y-46766000D01*
X76949440Y-46766000D01*
X76882401Y-46746315D01*
X76861759Y-46729681D01*
X76423544Y-46291466D01*
X76390059Y-46230143D01*
X76388752Y-46184392D01*
X76400500Y-46110222D01*
X76400500Y-45889778D01*
X76366015Y-45672049D01*
X76331955Y-45567221D01*
X76297896Y-45462396D01*
X76297895Y-45462393D01*
X76238231Y-45345299D01*
X76197815Y-45265978D01*
X76147457Y-45196666D01*
X76068247Y-45087641D01*
X76068243Y-45087636D01*
X75912363Y-44931756D01*
X75912358Y-44931752D01*
X75734025Y-44802187D01*
X75734024Y-44802186D01*
X75734022Y-44802185D01*
X75671096Y-44770122D01*
X75537606Y-44702104D01*
X75537603Y-44702103D01*
X75327952Y-44633985D01*
X75128544Y-44602402D01*
X75110222Y-44599500D01*
X74889778Y-44599500D01*
X74889773Y-44599500D01*
X74815611Y-44611246D01*
X74746317Y-44602291D01*
X74708532Y-44576454D01*
X73010292Y-42878213D01*
X73010288Y-42878210D01*
X72879185Y-42790609D01*
X72879172Y-42790602D01*
X72733501Y-42730264D01*
X72733489Y-42730261D01*
X72578845Y-42699500D01*
X72578842Y-42699500D01*
X39169337Y-42699500D01*
X39102298Y-42679815D01*
X39081656Y-42663182D01*
X38964646Y-42546172D01*
X38805405Y-42430476D01*
X38630029Y-42341117D01*
X38442826Y-42280290D01*
X38248422Y-42249500D01*
X38248417Y-42249500D01*
X37751583Y-42249500D01*
X37751578Y-42249500D01*
X37557173Y-42280290D01*
X37369970Y-42341117D01*
X37194594Y-42430476D01*
X37103741Y-42496485D01*
X37035354Y-42546172D01*
X37035352Y-42546174D01*
X37035351Y-42546174D01*
X36896174Y-42685351D01*
X36896174Y-42685352D01*
X36896172Y-42685354D01*
X36863545Y-42730261D01*
X36780476Y-42844594D01*
X36691117Y-43019970D01*
X36630290Y-43207173D01*
X36599500Y-43401577D01*
X31000000Y-43401577D01*
X31000000Y-35878711D01*
X34149500Y-35878711D01*
X34149500Y-36121288D01*
X34181161Y-36361785D01*
X34243947Y-36596104D01*
X34336773Y-36820205D01*
X34336776Y-36820212D01*
X34458064Y-37030289D01*
X34458066Y-37030292D01*
X34458067Y-37030293D01*
X34605733Y-37222736D01*
X34605739Y-37222743D01*
X34777256Y-37394260D01*
X34777262Y-37394265D01*
X34969711Y-37541936D01*
X35179788Y-37663224D01*
X35403900Y-37756054D01*
X35638211Y-37818838D01*
X35818586Y-37842584D01*
X35878711Y-37850500D01*
X35878712Y-37850500D01*
X36121289Y-37850500D01*
X36169388Y-37844167D01*
X36361789Y-37818838D01*
X36596100Y-37756054D01*
X36820212Y-37663224D01*
X37030289Y-37541936D01*
X37222738Y-37394265D01*
X37394265Y-37222738D01*
X37541936Y-37030289D01*
X37663224Y-36820212D01*
X37756054Y-36596100D01*
X37818838Y-36361789D01*
X37850500Y-36121288D01*
X37850500Y-35878712D01*
X37850500Y-35878711D01*
X142149500Y-35878711D01*
X142149500Y-36121288D01*
X142181161Y-36361785D01*
X142243947Y-36596104D01*
X142336773Y-36820205D01*
X142336776Y-36820212D01*
X142458064Y-37030289D01*
X142458066Y-37030292D01*
X142458067Y-37030293D01*
X142605733Y-37222736D01*
X142605739Y-37222743D01*
X142777256Y-37394260D01*
X142777262Y-37394265D01*
X142969711Y-37541936D01*
X143179788Y-37663224D01*
X143403900Y-37756054D01*
X143638211Y-37818838D01*
X143818586Y-37842584D01*
X143878711Y-37850500D01*
X143878712Y-37850500D01*
X144121289Y-37850500D01*
X144169388Y-37844167D01*
X144361789Y-37818838D01*
X144596100Y-37756054D01*
X144820212Y-37663224D01*
X145030289Y-37541936D01*
X145222738Y-37394265D01*
X145394265Y-37222738D01*
X145541936Y-37030289D01*
X145663224Y-36820212D01*
X145756054Y-36596100D01*
X145818838Y-36361789D01*
X145850500Y-36121288D01*
X145850500Y-35878712D01*
X145818838Y-35638211D01*
X145756054Y-35403900D01*
X145663224Y-35179788D01*
X145541936Y-34969711D01*
X145394265Y-34777262D01*
X145394260Y-34777256D01*
X145222743Y-34605739D01*
X145222736Y-34605733D01*
X145030293Y-34458067D01*
X145030292Y-34458066D01*
X145030289Y-34458064D01*
X144820212Y-34336776D01*
X144820205Y-34336773D01*
X144596104Y-34243947D01*
X144361785Y-34181161D01*
X144121289Y-34149500D01*
X144121288Y-34149500D01*
X143878712Y-34149500D01*
X143878711Y-34149500D01*
X143638214Y-34181161D01*
X143403895Y-34243947D01*
X143179794Y-34336773D01*
X143179785Y-34336777D01*
X142969706Y-34458067D01*
X142777263Y-34605733D01*
X142777256Y-34605739D01*
X142605739Y-34777256D01*
X142605733Y-34777263D01*
X142458067Y-34969706D01*
X142336777Y-35179785D01*
X142336773Y-35179794D01*
X142243947Y-35403895D01*
X142181161Y-35638214D01*
X142149500Y-35878711D01*
X37850500Y-35878711D01*
X37818838Y-35638211D01*
X37756054Y-35403900D01*
X37663224Y-35179788D01*
X37541936Y-34969711D01*
X37394265Y-34777262D01*
X37394260Y-34777256D01*
X37222743Y-34605739D01*
X37222736Y-34605733D01*
X37030293Y-34458067D01*
X37030292Y-34458066D01*
X37030289Y-34458064D01*
X36820212Y-34336776D01*
X36820205Y-34336773D01*
X36596104Y-34243947D01*
X36361785Y-34181161D01*
X36121289Y-34149500D01*
X36121288Y-34149500D01*
X35878712Y-34149500D01*
X35878711Y-34149500D01*
X35638214Y-34181161D01*
X35403895Y-34243947D01*
X35179794Y-34336773D01*
X35179785Y-34336777D01*
X34969706Y-34458067D01*
X34777263Y-34605733D01*
X34777256Y-34605739D01*
X34605739Y-34777256D01*
X34605733Y-34777263D01*
X34458067Y-34969706D01*
X34336777Y-35179785D01*
X34336773Y-35179794D01*
X34243947Y-35403895D01*
X34181161Y-35638214D01*
X34149500Y-35878711D01*
X31000000Y-35878711D01*
X31000000Y-31124000D01*
X31019685Y-31056961D01*
X31072489Y-31011206D01*
X31124000Y-31000000D01*
X148876000Y-31000000D01*
X148943039Y-31019685D01*
G37*
%TD.AperFunction*%
%TD*%
M02*
