M48
; DRILL file KiCad 10.0.3 date 2026-07-02T03:44:47
; FORMAT={-:-/ absolute / metric / decimal}
; #@! TF.CreationDate,2026-07-02T03:44:47-05:00
; #@! TF.GenerationSoftware,Kicad,Pcbnew,10.0.3
; #@! TF.FileFunction,MixedPlating,1,2
FMAT,2
METRIC
; #@! TA.AperFunction,Plated,PTH,ViaDrill
T1C0.300
; #@! TA.AperFunction,Plated,PTH,ViaDrill
T2C0.400
; #@! TA.AperFunction,Plated,PTH,ComponentDrill
T3C0.700
; #@! TA.AperFunction,Plated,PTH,ComponentDrill
T4C0.950
; #@! TA.AperFunction,Plated,PTH,ComponentDrill
T5C1.700
; #@! TA.AperFunction,NonPlated,NPTH,ComponentDrill
T6C3.200
%
G90
G05
T1
X40.34Y-89.548
X55.255Y-86.638
X55.293Y-42.955
X60.817Y-65.208
X63.631Y-68.662
X63.751Y-62.413
X64.182Y-89.526
X64.206Y-92.459
X65.25Y-91.883
X67.59Y-69.031
X67.971Y-67.09
X72.05Y-62.633
X72.05Y-83.729
X73.153Y-40.083
X75.297Y-92.458
X76.136Y-65.442
X78.732Y-67.081
X79.213Y-68.116
X85.089Y-48.812
X88.069Y-54.632
X88.069Y-83.286
X91.051Y-39.765
X91.521Y-67.349
X91.523Y-69.032
X91.982Y-68.227
X93.084Y-65.369
X93.246Y-98.277
X102.983Y-95.369
X106.454Y-39.786
X112.0Y-51.722
X112.0Y-53.264
X121.237Y-45.903
X124.228Y-89.548
X130.961Y-77.909
X133.553Y-60.451
X135.796Y-83.729
X138.523Y-101.348
X156.677Y-45.903
T2
X49.754Y-66.525
X58.948Y-45.017
X60.709Y-67.281
X61.17Y-78.506
X95.792Y-53.879
X99.074Y-84.996
X99.077Y-39.989
X103.82Y-78.988
X106.611Y-75.747
X114.399Y-93.766
T3
X148.0Y-48.38
X148.0Y-56.0
X148.0Y-66.38
X148.0Y-74.0
X148.0Y-84.38
X148.0Y-92.0
X155.62Y-48.38
X155.62Y-56.0
X155.62Y-66.38
X155.62Y-74.0
X155.62Y-84.38
X155.62Y-92.0
X160.7Y-48.38
X160.7Y-56.0
X160.7Y-66.38
X160.7Y-74.0
X160.7Y-84.38
X160.7Y-92.0
X165.78Y-48.38
X165.78Y-56.0
X165.78Y-66.38
X165.78Y-74.0
X165.78Y-84.38
X165.78Y-92.0
T4
X38.0Y-45.0
X38.0Y-47.5
X38.0Y-50.0
X52.0Y-112.0
X54.5Y-112.0
X57.0Y-112.0
X59.5Y-112.0
X62.0Y-112.0
X64.5Y-112.0
X67.0Y-112.0
X69.5Y-112.0
X72.0Y-112.0
X74.5Y-112.0
X77.0Y-112.0
X79.5Y-112.0
X108.0Y-112.0
X110.5Y-112.0
X113.0Y-112.0
X115.5Y-112.0
X118.0Y-112.0
X120.5Y-112.0
X123.0Y-112.0
X125.5Y-112.0
X128.0Y-112.0
X130.5Y-112.0
X133.0Y-112.0
X135.5Y-112.0
X162.0Y-102.0
X162.0Y-104.5
X162.0Y-107.0
T5
X38.0Y-72.08
X38.0Y-76.04
X38.0Y-80.0
T6
X36.0Y-36.0
X36.0Y-114.0
X164.0Y-36.0
X164.0Y-114.0
M30
