%TF.GenerationSoftware,KiCad,Pcbnew,10.0.3*%
%TF.CreationDate,2026-07-02T03:44:45-05:00*%
%TF.ProjectId,filter-clipper,66696c74-6572-42d6-936c-69707065722e,rev?*%
%TF.SameCoordinates,Original*%
%TF.FileFunction,Legend,Top*%
%TF.FilePolarity,Positive*%
%FSLAX46Y46*%
G04 Gerber Fmt 4.6, Leading zero omitted, Abs format (unit mm)*
G04 Created by KiCad (PCBNEW 10.0.3) date 2026-07-02 03:44:45*
%MOMM*%
%LPD*%
G01*
G04 APERTURE LIST*
%ADD10C,0.150000*%
%ADD11C,0.120000*%
G04 APERTURE END LIST*
D10*
X116309524Y-45454819D02*
X116309524Y-44454819D01*
X116309524Y-44454819D02*
X116547619Y-44454819D01*
X116547619Y-44454819D02*
X116690476Y-44502438D01*
X116690476Y-44502438D02*
X116785714Y-44597676D01*
X116785714Y-44597676D02*
X116833333Y-44692914D01*
X116833333Y-44692914D02*
X116880952Y-44883390D01*
X116880952Y-44883390D02*
X116880952Y-45026247D01*
X116880952Y-45026247D02*
X116833333Y-45216723D01*
X116833333Y-45216723D02*
X116785714Y-45311961D01*
X116785714Y-45311961D02*
X116690476Y-45407200D01*
X116690476Y-45407200D02*
X116547619Y-45454819D01*
X116547619Y-45454819D02*
X116309524Y-45454819D01*
X117738095Y-44788152D02*
X117738095Y-45454819D01*
X117500000Y-44407200D02*
X117261905Y-45121485D01*
X117261905Y-45121485D02*
X117880952Y-45121485D01*
X118452381Y-44454819D02*
X118547619Y-44454819D01*
X118547619Y-44454819D02*
X118642857Y-44502438D01*
X118642857Y-44502438D02*
X118690476Y-44550057D01*
X118690476Y-44550057D02*
X118738095Y-44645295D01*
X118738095Y-44645295D02*
X118785714Y-44835771D01*
X118785714Y-44835771D02*
X118785714Y-45073866D01*
X118785714Y-45073866D02*
X118738095Y-45264342D01*
X118738095Y-45264342D02*
X118690476Y-45359580D01*
X118690476Y-45359580D02*
X118642857Y-45407200D01*
X118642857Y-45407200D02*
X118547619Y-45454819D01*
X118547619Y-45454819D02*
X118452381Y-45454819D01*
X118452381Y-45454819D02*
X118357143Y-45407200D01*
X118357143Y-45407200D02*
X118309524Y-45359580D01*
X118309524Y-45359580D02*
X118261905Y-45264342D01*
X118261905Y-45264342D02*
X118214286Y-45073866D01*
X118214286Y-45073866D02*
X118214286Y-44835771D01*
X118214286Y-44835771D02*
X118261905Y-44645295D01*
X118261905Y-44645295D02*
X118309524Y-44550057D01*
X118309524Y-44550057D02*
X118357143Y-44502438D01*
X118357143Y-44502438D02*
X118452381Y-44454819D01*
X119166667Y-44550057D02*
X119214286Y-44502438D01*
X119214286Y-44502438D02*
X119309524Y-44454819D01*
X119309524Y-44454819D02*
X119547619Y-44454819D01*
X119547619Y-44454819D02*
X119642857Y-44502438D01*
X119642857Y-44502438D02*
X119690476Y-44550057D01*
X119690476Y-44550057D02*
X119738095Y-44645295D01*
X119738095Y-44645295D02*
X119738095Y-44740533D01*
X119738095Y-44740533D02*
X119690476Y-44883390D01*
X119690476Y-44883390D02*
X119119048Y-45454819D01*
X119119048Y-45454819D02*
X119738095Y-45454819D01*
X86880952Y-97804819D02*
X86547619Y-97328628D01*
X86309524Y-97804819D02*
X86309524Y-96804819D01*
X86309524Y-96804819D02*
X86690476Y-96804819D01*
X86690476Y-96804819D02*
X86785714Y-96852438D01*
X86785714Y-96852438D02*
X86833333Y-96900057D01*
X86833333Y-96900057D02*
X86880952Y-96995295D01*
X86880952Y-96995295D02*
X86880952Y-97138152D01*
X86880952Y-97138152D02*
X86833333Y-97233390D01*
X86833333Y-97233390D02*
X86785714Y-97281009D01*
X86785714Y-97281009D02*
X86690476Y-97328628D01*
X86690476Y-97328628D02*
X86309524Y-97328628D01*
X87738095Y-97138152D02*
X87738095Y-97804819D01*
X87500000Y-96757200D02*
X87261905Y-97471485D01*
X87261905Y-97471485D02*
X87880952Y-97471485D01*
X88214286Y-96900057D02*
X88261905Y-96852438D01*
X88261905Y-96852438D02*
X88357143Y-96804819D01*
X88357143Y-96804819D02*
X88595238Y-96804819D01*
X88595238Y-96804819D02*
X88690476Y-96852438D01*
X88690476Y-96852438D02*
X88738095Y-96900057D01*
X88738095Y-96900057D02*
X88785714Y-96995295D01*
X88785714Y-96995295D02*
X88785714Y-97090533D01*
X88785714Y-97090533D02*
X88738095Y-97233390D01*
X88738095Y-97233390D02*
X88166667Y-97804819D01*
X88166667Y-97804819D02*
X88785714Y-97804819D01*
X89642857Y-96804819D02*
X89452381Y-96804819D01*
X89452381Y-96804819D02*
X89357143Y-96852438D01*
X89357143Y-96852438D02*
X89309524Y-96900057D01*
X89309524Y-96900057D02*
X89214286Y-97042914D01*
X89214286Y-97042914D02*
X89166667Y-97233390D01*
X89166667Y-97233390D02*
X89166667Y-97614342D01*
X89166667Y-97614342D02*
X89214286Y-97709580D01*
X89214286Y-97709580D02*
X89261905Y-97757200D01*
X89261905Y-97757200D02*
X89357143Y-97804819D01*
X89357143Y-97804819D02*
X89547619Y-97804819D01*
X89547619Y-97804819D02*
X89642857Y-97757200D01*
X89642857Y-97757200D02*
X89690476Y-97709580D01*
X89690476Y-97709580D02*
X89738095Y-97614342D01*
X89738095Y-97614342D02*
X89738095Y-97376247D01*
X89738095Y-97376247D02*
X89690476Y-97281009D01*
X89690476Y-97281009D02*
X89642857Y-97233390D01*
X89642857Y-97233390D02*
X89547619Y-97185771D01*
X89547619Y-97185771D02*
X89357143Y-97185771D01*
X89357143Y-97185771D02*
X89261905Y-97233390D01*
X89261905Y-97233390D02*
X89214286Y-97281009D01*
X89214286Y-97281009D02*
X89166667Y-97376247D01*
X35238095Y-32304819D02*
X35238095Y-31304819D01*
X35238095Y-31781009D02*
X35809523Y-31781009D01*
X35809523Y-32304819D02*
X35809523Y-31304819D01*
X36809523Y-32304819D02*
X36238095Y-32304819D01*
X36523809Y-32304819D02*
X36523809Y-31304819D01*
X36523809Y-31304819D02*
X36428571Y-31447676D01*
X36428571Y-31447676D02*
X36333333Y-31542914D01*
X36333333Y-31542914D02*
X36238095Y-31590533D01*
X132880952Y-72804819D02*
X132547619Y-72328628D01*
X132309524Y-72804819D02*
X132309524Y-71804819D01*
X132309524Y-71804819D02*
X132690476Y-71804819D01*
X132690476Y-71804819D02*
X132785714Y-71852438D01*
X132785714Y-71852438D02*
X132833333Y-71900057D01*
X132833333Y-71900057D02*
X132880952Y-71995295D01*
X132880952Y-71995295D02*
X132880952Y-72138152D01*
X132880952Y-72138152D02*
X132833333Y-72233390D01*
X132833333Y-72233390D02*
X132785714Y-72281009D01*
X132785714Y-72281009D02*
X132690476Y-72328628D01*
X132690476Y-72328628D02*
X132309524Y-72328628D01*
X133738095Y-72138152D02*
X133738095Y-72804819D01*
X133500000Y-71757200D02*
X133261905Y-72471485D01*
X133261905Y-72471485D02*
X133880952Y-72471485D01*
X134166667Y-71804819D02*
X134785714Y-71804819D01*
X134785714Y-71804819D02*
X134452381Y-72185771D01*
X134452381Y-72185771D02*
X134595238Y-72185771D01*
X134595238Y-72185771D02*
X134690476Y-72233390D01*
X134690476Y-72233390D02*
X134738095Y-72281009D01*
X134738095Y-72281009D02*
X134785714Y-72376247D01*
X134785714Y-72376247D02*
X134785714Y-72614342D01*
X134785714Y-72614342D02*
X134738095Y-72709580D01*
X134738095Y-72709580D02*
X134690476Y-72757200D01*
X134690476Y-72757200D02*
X134595238Y-72804819D01*
X134595238Y-72804819D02*
X134309524Y-72804819D01*
X134309524Y-72804819D02*
X134214286Y-72757200D01*
X134214286Y-72757200D02*
X134166667Y-72709580D01*
X135166667Y-71900057D02*
X135214286Y-71852438D01*
X135214286Y-71852438D02*
X135309524Y-71804819D01*
X135309524Y-71804819D02*
X135547619Y-71804819D01*
X135547619Y-71804819D02*
X135642857Y-71852438D01*
X135642857Y-71852438D02*
X135690476Y-71900057D01*
X135690476Y-71900057D02*
X135738095Y-71995295D01*
X135738095Y-71995295D02*
X135738095Y-72090533D01*
X135738095Y-72090533D02*
X135690476Y-72233390D01*
X135690476Y-72233390D02*
X135119048Y-72804819D01*
X135119048Y-72804819D02*
X135738095Y-72804819D01*
X56880952Y-66679580D02*
X56833333Y-66727200D01*
X56833333Y-66727200D02*
X56690476Y-66774819D01*
X56690476Y-66774819D02*
X56595238Y-66774819D01*
X56595238Y-66774819D02*
X56452381Y-66727200D01*
X56452381Y-66727200D02*
X56357143Y-66631961D01*
X56357143Y-66631961D02*
X56309524Y-66536723D01*
X56309524Y-66536723D02*
X56261905Y-66346247D01*
X56261905Y-66346247D02*
X56261905Y-66203390D01*
X56261905Y-66203390D02*
X56309524Y-66012914D01*
X56309524Y-66012914D02*
X56357143Y-65917676D01*
X56357143Y-65917676D02*
X56452381Y-65822438D01*
X56452381Y-65822438D02*
X56595238Y-65774819D01*
X56595238Y-65774819D02*
X56690476Y-65774819D01*
X56690476Y-65774819D02*
X56833333Y-65822438D01*
X56833333Y-65822438D02*
X56880952Y-65870057D01*
X57785714Y-65774819D02*
X57309524Y-65774819D01*
X57309524Y-65774819D02*
X57261905Y-66251009D01*
X57261905Y-66251009D02*
X57309524Y-66203390D01*
X57309524Y-66203390D02*
X57404762Y-66155771D01*
X57404762Y-66155771D02*
X57642857Y-66155771D01*
X57642857Y-66155771D02*
X57738095Y-66203390D01*
X57738095Y-66203390D02*
X57785714Y-66251009D01*
X57785714Y-66251009D02*
X57833333Y-66346247D01*
X57833333Y-66346247D02*
X57833333Y-66584342D01*
X57833333Y-66584342D02*
X57785714Y-66679580D01*
X57785714Y-66679580D02*
X57738095Y-66727200D01*
X57738095Y-66727200D02*
X57642857Y-66774819D01*
X57642857Y-66774819D02*
X57404762Y-66774819D01*
X57404762Y-66774819D02*
X57309524Y-66727200D01*
X57309524Y-66727200D02*
X57261905Y-66679580D01*
X58309524Y-66774819D02*
X58500000Y-66774819D01*
X58500000Y-66774819D02*
X58595238Y-66727200D01*
X58595238Y-66727200D02*
X58642857Y-66679580D01*
X58642857Y-66679580D02*
X58738095Y-66536723D01*
X58738095Y-66536723D02*
X58785714Y-66346247D01*
X58785714Y-66346247D02*
X58785714Y-65965295D01*
X58785714Y-65965295D02*
X58738095Y-65870057D01*
X58738095Y-65870057D02*
X58690476Y-65822438D01*
X58690476Y-65822438D02*
X58595238Y-65774819D01*
X58595238Y-65774819D02*
X58404762Y-65774819D01*
X58404762Y-65774819D02*
X58309524Y-65822438D01*
X58309524Y-65822438D02*
X58261905Y-65870057D01*
X58261905Y-65870057D02*
X58214286Y-65965295D01*
X58214286Y-65965295D02*
X58214286Y-66203390D01*
X58214286Y-66203390D02*
X58261905Y-66298628D01*
X58261905Y-66298628D02*
X58309524Y-66346247D01*
X58309524Y-66346247D02*
X58404762Y-66393866D01*
X58404762Y-66393866D02*
X58595238Y-66393866D01*
X58595238Y-66393866D02*
X58690476Y-66346247D01*
X58690476Y-66346247D02*
X58738095Y-66298628D01*
X58738095Y-66298628D02*
X58785714Y-66203390D01*
X59166667Y-65870057D02*
X59214286Y-65822438D01*
X59214286Y-65822438D02*
X59309524Y-65774819D01*
X59309524Y-65774819D02*
X59547619Y-65774819D01*
X59547619Y-65774819D02*
X59642857Y-65822438D01*
X59642857Y-65822438D02*
X59690476Y-65870057D01*
X59690476Y-65870057D02*
X59738095Y-65965295D01*
X59738095Y-65965295D02*
X59738095Y-66060533D01*
X59738095Y-66060533D02*
X59690476Y-66203390D01*
X59690476Y-66203390D02*
X59119048Y-66774819D01*
X59119048Y-66774819D02*
X59738095Y-66774819D01*
X163238095Y-32304819D02*
X163238095Y-31304819D01*
X163238095Y-31781009D02*
X163809523Y-31781009D01*
X163809523Y-32304819D02*
X163809523Y-31304819D01*
X164238095Y-31400057D02*
X164285714Y-31352438D01*
X164285714Y-31352438D02*
X164380952Y-31304819D01*
X164380952Y-31304819D02*
X164619047Y-31304819D01*
X164619047Y-31304819D02*
X164714285Y-31352438D01*
X164714285Y-31352438D02*
X164761904Y-31400057D01*
X164761904Y-31400057D02*
X164809523Y-31495295D01*
X164809523Y-31495295D02*
X164809523Y-31590533D01*
X164809523Y-31590533D02*
X164761904Y-31733390D01*
X164761904Y-31733390D02*
X164190476Y-32304819D01*
X164190476Y-32304819D02*
X164809523Y-32304819D01*
X124309524Y-38804819D02*
X124309524Y-37804819D01*
X124309524Y-37804819D02*
X124547619Y-37804819D01*
X124547619Y-37804819D02*
X124690476Y-37852438D01*
X124690476Y-37852438D02*
X124785714Y-37947676D01*
X124785714Y-37947676D02*
X124833333Y-38042914D01*
X124833333Y-38042914D02*
X124880952Y-38233390D01*
X124880952Y-38233390D02*
X124880952Y-38376247D01*
X124880952Y-38376247D02*
X124833333Y-38566723D01*
X124833333Y-38566723D02*
X124785714Y-38661961D01*
X124785714Y-38661961D02*
X124690476Y-38757200D01*
X124690476Y-38757200D02*
X124547619Y-38804819D01*
X124547619Y-38804819D02*
X124309524Y-38804819D01*
X125738095Y-38138152D02*
X125738095Y-38804819D01*
X125500000Y-37757200D02*
X125261905Y-38471485D01*
X125261905Y-38471485D02*
X125880952Y-38471485D01*
X126452381Y-37804819D02*
X126547619Y-37804819D01*
X126547619Y-37804819D02*
X126642857Y-37852438D01*
X126642857Y-37852438D02*
X126690476Y-37900057D01*
X126690476Y-37900057D02*
X126738095Y-37995295D01*
X126738095Y-37995295D02*
X126785714Y-38185771D01*
X126785714Y-38185771D02*
X126785714Y-38423866D01*
X126785714Y-38423866D02*
X126738095Y-38614342D01*
X126738095Y-38614342D02*
X126690476Y-38709580D01*
X126690476Y-38709580D02*
X126642857Y-38757200D01*
X126642857Y-38757200D02*
X126547619Y-38804819D01*
X126547619Y-38804819D02*
X126452381Y-38804819D01*
X126452381Y-38804819D02*
X126357143Y-38757200D01*
X126357143Y-38757200D02*
X126309524Y-38709580D01*
X126309524Y-38709580D02*
X126261905Y-38614342D01*
X126261905Y-38614342D02*
X126214286Y-38423866D01*
X126214286Y-38423866D02*
X126214286Y-38185771D01*
X126214286Y-38185771D02*
X126261905Y-37995295D01*
X126261905Y-37995295D02*
X126309524Y-37900057D01*
X126309524Y-37900057D02*
X126357143Y-37852438D01*
X126357143Y-37852438D02*
X126452381Y-37804819D01*
X127690476Y-37804819D02*
X127214286Y-37804819D01*
X127214286Y-37804819D02*
X127166667Y-38281009D01*
X127166667Y-38281009D02*
X127214286Y-38233390D01*
X127214286Y-38233390D02*
X127309524Y-38185771D01*
X127309524Y-38185771D02*
X127547619Y-38185771D01*
X127547619Y-38185771D02*
X127642857Y-38233390D01*
X127642857Y-38233390D02*
X127690476Y-38281009D01*
X127690476Y-38281009D02*
X127738095Y-38376247D01*
X127738095Y-38376247D02*
X127738095Y-38614342D01*
X127738095Y-38614342D02*
X127690476Y-38709580D01*
X127690476Y-38709580D02*
X127642857Y-38757200D01*
X127642857Y-38757200D02*
X127547619Y-38804819D01*
X127547619Y-38804819D02*
X127309524Y-38804819D01*
X127309524Y-38804819D02*
X127214286Y-38757200D01*
X127214286Y-38757200D02*
X127166667Y-38709580D01*
X86880952Y-38804819D02*
X86547619Y-38328628D01*
X86309524Y-38804819D02*
X86309524Y-37804819D01*
X86309524Y-37804819D02*
X86690476Y-37804819D01*
X86690476Y-37804819D02*
X86785714Y-37852438D01*
X86785714Y-37852438D02*
X86833333Y-37900057D01*
X86833333Y-37900057D02*
X86880952Y-37995295D01*
X86880952Y-37995295D02*
X86880952Y-38138152D01*
X86880952Y-38138152D02*
X86833333Y-38233390D01*
X86833333Y-38233390D02*
X86785714Y-38281009D01*
X86785714Y-38281009D02*
X86690476Y-38328628D01*
X86690476Y-38328628D02*
X86309524Y-38328628D01*
X87738095Y-38138152D02*
X87738095Y-38804819D01*
X87500000Y-37757200D02*
X87261905Y-38471485D01*
X87261905Y-38471485D02*
X87880952Y-38471485D01*
X88452381Y-37804819D02*
X88547619Y-37804819D01*
X88547619Y-37804819D02*
X88642857Y-37852438D01*
X88642857Y-37852438D02*
X88690476Y-37900057D01*
X88690476Y-37900057D02*
X88738095Y-37995295D01*
X88738095Y-37995295D02*
X88785714Y-38185771D01*
X88785714Y-38185771D02*
X88785714Y-38423866D01*
X88785714Y-38423866D02*
X88738095Y-38614342D01*
X88738095Y-38614342D02*
X88690476Y-38709580D01*
X88690476Y-38709580D02*
X88642857Y-38757200D01*
X88642857Y-38757200D02*
X88547619Y-38804819D01*
X88547619Y-38804819D02*
X88452381Y-38804819D01*
X88452381Y-38804819D02*
X88357143Y-38757200D01*
X88357143Y-38757200D02*
X88309524Y-38709580D01*
X88309524Y-38709580D02*
X88261905Y-38614342D01*
X88261905Y-38614342D02*
X88214286Y-38423866D01*
X88214286Y-38423866D02*
X88214286Y-38185771D01*
X88214286Y-38185771D02*
X88261905Y-37995295D01*
X88261905Y-37995295D02*
X88309524Y-37900057D01*
X88309524Y-37900057D02*
X88357143Y-37852438D01*
X88357143Y-37852438D02*
X88452381Y-37804819D01*
X89119048Y-37804819D02*
X89738095Y-37804819D01*
X89738095Y-37804819D02*
X89404762Y-38185771D01*
X89404762Y-38185771D02*
X89547619Y-38185771D01*
X89547619Y-38185771D02*
X89642857Y-38233390D01*
X89642857Y-38233390D02*
X89690476Y-38281009D01*
X89690476Y-38281009D02*
X89738095Y-38376247D01*
X89738095Y-38376247D02*
X89738095Y-38614342D01*
X89738095Y-38614342D02*
X89690476Y-38709580D01*
X89690476Y-38709580D02*
X89642857Y-38757200D01*
X89642857Y-38757200D02*
X89547619Y-38804819D01*
X89547619Y-38804819D02*
X89261905Y-38804819D01*
X89261905Y-38804819D02*
X89166667Y-38757200D01*
X89166667Y-38757200D02*
X89119048Y-38709580D01*
X124309524Y-97804819D02*
X124309524Y-96804819D01*
X124309524Y-96804819D02*
X124547619Y-96804819D01*
X124547619Y-96804819D02*
X124690476Y-96852438D01*
X124690476Y-96852438D02*
X124785714Y-96947676D01*
X124785714Y-96947676D02*
X124833333Y-97042914D01*
X124833333Y-97042914D02*
X124880952Y-97233390D01*
X124880952Y-97233390D02*
X124880952Y-97376247D01*
X124880952Y-97376247D02*
X124833333Y-97566723D01*
X124833333Y-97566723D02*
X124785714Y-97661961D01*
X124785714Y-97661961D02*
X124690476Y-97757200D01*
X124690476Y-97757200D02*
X124547619Y-97804819D01*
X124547619Y-97804819D02*
X124309524Y-97804819D01*
X125738095Y-97138152D02*
X125738095Y-97804819D01*
X125500000Y-96757200D02*
X125261905Y-97471485D01*
X125261905Y-97471485D02*
X125880952Y-97471485D01*
X126452381Y-96804819D02*
X126547619Y-96804819D01*
X126547619Y-96804819D02*
X126642857Y-96852438D01*
X126642857Y-96852438D02*
X126690476Y-96900057D01*
X126690476Y-96900057D02*
X126738095Y-96995295D01*
X126738095Y-96995295D02*
X126785714Y-97185771D01*
X126785714Y-97185771D02*
X126785714Y-97423866D01*
X126785714Y-97423866D02*
X126738095Y-97614342D01*
X126738095Y-97614342D02*
X126690476Y-97709580D01*
X126690476Y-97709580D02*
X126642857Y-97757200D01*
X126642857Y-97757200D02*
X126547619Y-97804819D01*
X126547619Y-97804819D02*
X126452381Y-97804819D01*
X126452381Y-97804819D02*
X126357143Y-97757200D01*
X126357143Y-97757200D02*
X126309524Y-97709580D01*
X126309524Y-97709580D02*
X126261905Y-97614342D01*
X126261905Y-97614342D02*
X126214286Y-97423866D01*
X126214286Y-97423866D02*
X126214286Y-97185771D01*
X126214286Y-97185771D02*
X126261905Y-96995295D01*
X126261905Y-96995295D02*
X126309524Y-96900057D01*
X126309524Y-96900057D02*
X126357143Y-96852438D01*
X126357143Y-96852438D02*
X126452381Y-96804819D01*
X127357143Y-97233390D02*
X127261905Y-97185771D01*
X127261905Y-97185771D02*
X127214286Y-97138152D01*
X127214286Y-97138152D02*
X127166667Y-97042914D01*
X127166667Y-97042914D02*
X127166667Y-96995295D01*
X127166667Y-96995295D02*
X127214286Y-96900057D01*
X127214286Y-96900057D02*
X127261905Y-96852438D01*
X127261905Y-96852438D02*
X127357143Y-96804819D01*
X127357143Y-96804819D02*
X127547619Y-96804819D01*
X127547619Y-96804819D02*
X127642857Y-96852438D01*
X127642857Y-96852438D02*
X127690476Y-96900057D01*
X127690476Y-96900057D02*
X127738095Y-96995295D01*
X127738095Y-96995295D02*
X127738095Y-97042914D01*
X127738095Y-97042914D02*
X127690476Y-97138152D01*
X127690476Y-97138152D02*
X127642857Y-97185771D01*
X127642857Y-97185771D02*
X127547619Y-97233390D01*
X127547619Y-97233390D02*
X127357143Y-97233390D01*
X127357143Y-97233390D02*
X127261905Y-97281009D01*
X127261905Y-97281009D02*
X127214286Y-97328628D01*
X127214286Y-97328628D02*
X127166667Y-97423866D01*
X127166667Y-97423866D02*
X127166667Y-97614342D01*
X127166667Y-97614342D02*
X127214286Y-97709580D01*
X127214286Y-97709580D02*
X127261905Y-97757200D01*
X127261905Y-97757200D02*
X127357143Y-97804819D01*
X127357143Y-97804819D02*
X127547619Y-97804819D01*
X127547619Y-97804819D02*
X127642857Y-97757200D01*
X127642857Y-97757200D02*
X127690476Y-97709580D01*
X127690476Y-97709580D02*
X127738095Y-97614342D01*
X127738095Y-97614342D02*
X127738095Y-97423866D01*
X127738095Y-97423866D02*
X127690476Y-97328628D01*
X127690476Y-97328628D02*
X127642857Y-97281009D01*
X127642857Y-97281009D02*
X127547619Y-97233390D01*
X143809524Y-70644819D02*
X143809524Y-69644819D01*
X144380952Y-70644819D02*
X143952381Y-70073390D01*
X144380952Y-69644819D02*
X143809524Y-70216247D01*
X145238095Y-69978152D02*
X145238095Y-70644819D01*
X145000000Y-69597200D02*
X144761905Y-70311485D01*
X144761905Y-70311485D02*
X145380952Y-70311485D01*
X145952381Y-69644819D02*
X146047619Y-69644819D01*
X146047619Y-69644819D02*
X146142857Y-69692438D01*
X146142857Y-69692438D02*
X146190476Y-69740057D01*
X146190476Y-69740057D02*
X146238095Y-69835295D01*
X146238095Y-69835295D02*
X146285714Y-70025771D01*
X146285714Y-70025771D02*
X146285714Y-70263866D01*
X146285714Y-70263866D02*
X146238095Y-70454342D01*
X146238095Y-70454342D02*
X146190476Y-70549580D01*
X146190476Y-70549580D02*
X146142857Y-70597200D01*
X146142857Y-70597200D02*
X146047619Y-70644819D01*
X146047619Y-70644819D02*
X145952381Y-70644819D01*
X145952381Y-70644819D02*
X145857143Y-70597200D01*
X145857143Y-70597200D02*
X145809524Y-70549580D01*
X145809524Y-70549580D02*
X145761905Y-70454342D01*
X145761905Y-70454342D02*
X145714286Y-70263866D01*
X145714286Y-70263866D02*
X145714286Y-70025771D01*
X145714286Y-70025771D02*
X145761905Y-69835295D01*
X145761905Y-69835295D02*
X145809524Y-69740057D01*
X145809524Y-69740057D02*
X145857143Y-69692438D01*
X145857143Y-69692438D02*
X145952381Y-69644819D01*
X146666667Y-69740057D02*
X146714286Y-69692438D01*
X146714286Y-69692438D02*
X146809524Y-69644819D01*
X146809524Y-69644819D02*
X147047619Y-69644819D01*
X147047619Y-69644819D02*
X147142857Y-69692438D01*
X147142857Y-69692438D02*
X147190476Y-69740057D01*
X147190476Y-69740057D02*
X147238095Y-69835295D01*
X147238095Y-69835295D02*
X147238095Y-69930533D01*
X147238095Y-69930533D02*
X147190476Y-70073390D01*
X147190476Y-70073390D02*
X146619048Y-70644819D01*
X146619048Y-70644819D02*
X147238095Y-70644819D01*
X76880952Y-90059580D02*
X76833333Y-90107200D01*
X76833333Y-90107200D02*
X76690476Y-90154819D01*
X76690476Y-90154819D02*
X76595238Y-90154819D01*
X76595238Y-90154819D02*
X76452381Y-90107200D01*
X76452381Y-90107200D02*
X76357143Y-90011961D01*
X76357143Y-90011961D02*
X76309524Y-89916723D01*
X76309524Y-89916723D02*
X76261905Y-89726247D01*
X76261905Y-89726247D02*
X76261905Y-89583390D01*
X76261905Y-89583390D02*
X76309524Y-89392914D01*
X76309524Y-89392914D02*
X76357143Y-89297676D01*
X76357143Y-89297676D02*
X76452381Y-89202438D01*
X76452381Y-89202438D02*
X76595238Y-89154819D01*
X76595238Y-89154819D02*
X76690476Y-89154819D01*
X76690476Y-89154819D02*
X76833333Y-89202438D01*
X76833333Y-89202438D02*
X76880952Y-89250057D01*
X77738095Y-89488152D02*
X77738095Y-90154819D01*
X77500000Y-89107200D02*
X77261905Y-89821485D01*
X77261905Y-89821485D02*
X77880952Y-89821485D01*
X78214286Y-89250057D02*
X78261905Y-89202438D01*
X78261905Y-89202438D02*
X78357143Y-89154819D01*
X78357143Y-89154819D02*
X78595238Y-89154819D01*
X78595238Y-89154819D02*
X78690476Y-89202438D01*
X78690476Y-89202438D02*
X78738095Y-89250057D01*
X78738095Y-89250057D02*
X78785714Y-89345295D01*
X78785714Y-89345295D02*
X78785714Y-89440533D01*
X78785714Y-89440533D02*
X78738095Y-89583390D01*
X78738095Y-89583390D02*
X78166667Y-90154819D01*
X78166667Y-90154819D02*
X78785714Y-90154819D01*
X79119048Y-89154819D02*
X79738095Y-89154819D01*
X79738095Y-89154819D02*
X79404762Y-89535771D01*
X79404762Y-89535771D02*
X79547619Y-89535771D01*
X79547619Y-89535771D02*
X79642857Y-89583390D01*
X79642857Y-89583390D02*
X79690476Y-89631009D01*
X79690476Y-89631009D02*
X79738095Y-89726247D01*
X79738095Y-89726247D02*
X79738095Y-89964342D01*
X79738095Y-89964342D02*
X79690476Y-90059580D01*
X79690476Y-90059580D02*
X79642857Y-90107200D01*
X79642857Y-90107200D02*
X79547619Y-90154819D01*
X79547619Y-90154819D02*
X79261905Y-90154819D01*
X79261905Y-90154819D02*
X79166667Y-90107200D01*
X79166667Y-90107200D02*
X79119048Y-90059580D01*
X48880952Y-66679580D02*
X48833333Y-66727200D01*
X48833333Y-66727200D02*
X48690476Y-66774819D01*
X48690476Y-66774819D02*
X48595238Y-66774819D01*
X48595238Y-66774819D02*
X48452381Y-66727200D01*
X48452381Y-66727200D02*
X48357143Y-66631961D01*
X48357143Y-66631961D02*
X48309524Y-66536723D01*
X48309524Y-66536723D02*
X48261905Y-66346247D01*
X48261905Y-66346247D02*
X48261905Y-66203390D01*
X48261905Y-66203390D02*
X48309524Y-66012914D01*
X48309524Y-66012914D02*
X48357143Y-65917676D01*
X48357143Y-65917676D02*
X48452381Y-65822438D01*
X48452381Y-65822438D02*
X48595238Y-65774819D01*
X48595238Y-65774819D02*
X48690476Y-65774819D01*
X48690476Y-65774819D02*
X48833333Y-65822438D01*
X48833333Y-65822438D02*
X48880952Y-65870057D01*
X49785714Y-65774819D02*
X49309524Y-65774819D01*
X49309524Y-65774819D02*
X49261905Y-66251009D01*
X49261905Y-66251009D02*
X49309524Y-66203390D01*
X49309524Y-66203390D02*
X49404762Y-66155771D01*
X49404762Y-66155771D02*
X49642857Y-66155771D01*
X49642857Y-66155771D02*
X49738095Y-66203390D01*
X49738095Y-66203390D02*
X49785714Y-66251009D01*
X49785714Y-66251009D02*
X49833333Y-66346247D01*
X49833333Y-66346247D02*
X49833333Y-66584342D01*
X49833333Y-66584342D02*
X49785714Y-66679580D01*
X49785714Y-66679580D02*
X49738095Y-66727200D01*
X49738095Y-66727200D02*
X49642857Y-66774819D01*
X49642857Y-66774819D02*
X49404762Y-66774819D01*
X49404762Y-66774819D02*
X49309524Y-66727200D01*
X49309524Y-66727200D02*
X49261905Y-66679580D01*
X50309524Y-66774819D02*
X50500000Y-66774819D01*
X50500000Y-66774819D02*
X50595238Y-66727200D01*
X50595238Y-66727200D02*
X50642857Y-66679580D01*
X50642857Y-66679580D02*
X50738095Y-66536723D01*
X50738095Y-66536723D02*
X50785714Y-66346247D01*
X50785714Y-66346247D02*
X50785714Y-65965295D01*
X50785714Y-65965295D02*
X50738095Y-65870057D01*
X50738095Y-65870057D02*
X50690476Y-65822438D01*
X50690476Y-65822438D02*
X50595238Y-65774819D01*
X50595238Y-65774819D02*
X50404762Y-65774819D01*
X50404762Y-65774819D02*
X50309524Y-65822438D01*
X50309524Y-65822438D02*
X50261905Y-65870057D01*
X50261905Y-65870057D02*
X50214286Y-65965295D01*
X50214286Y-65965295D02*
X50214286Y-66203390D01*
X50214286Y-66203390D02*
X50261905Y-66298628D01*
X50261905Y-66298628D02*
X50309524Y-66346247D01*
X50309524Y-66346247D02*
X50404762Y-66393866D01*
X50404762Y-66393866D02*
X50595238Y-66393866D01*
X50595238Y-66393866D02*
X50690476Y-66346247D01*
X50690476Y-66346247D02*
X50738095Y-66298628D01*
X50738095Y-66298628D02*
X50785714Y-66203390D01*
X51738095Y-66774819D02*
X51166667Y-66774819D01*
X51452381Y-66774819D02*
X51452381Y-65774819D01*
X51452381Y-65774819D02*
X51357143Y-65917676D01*
X51357143Y-65917676D02*
X51261905Y-66012914D01*
X51261905Y-66012914D02*
X51166667Y-66060533D01*
X66880952Y-38804819D02*
X66547619Y-38328628D01*
X66309524Y-38804819D02*
X66309524Y-37804819D01*
X66309524Y-37804819D02*
X66690476Y-37804819D01*
X66690476Y-37804819D02*
X66785714Y-37852438D01*
X66785714Y-37852438D02*
X66833333Y-37900057D01*
X66833333Y-37900057D02*
X66880952Y-37995295D01*
X66880952Y-37995295D02*
X66880952Y-38138152D01*
X66880952Y-38138152D02*
X66833333Y-38233390D01*
X66833333Y-38233390D02*
X66785714Y-38281009D01*
X66785714Y-38281009D02*
X66690476Y-38328628D01*
X66690476Y-38328628D02*
X66309524Y-38328628D01*
X67738095Y-38138152D02*
X67738095Y-38804819D01*
X67500000Y-37757200D02*
X67261905Y-38471485D01*
X67261905Y-38471485D02*
X67880952Y-38471485D01*
X68452381Y-37804819D02*
X68547619Y-37804819D01*
X68547619Y-37804819D02*
X68642857Y-37852438D01*
X68642857Y-37852438D02*
X68690476Y-37900057D01*
X68690476Y-37900057D02*
X68738095Y-37995295D01*
X68738095Y-37995295D02*
X68785714Y-38185771D01*
X68785714Y-38185771D02*
X68785714Y-38423866D01*
X68785714Y-38423866D02*
X68738095Y-38614342D01*
X68738095Y-38614342D02*
X68690476Y-38709580D01*
X68690476Y-38709580D02*
X68642857Y-38757200D01*
X68642857Y-38757200D02*
X68547619Y-38804819D01*
X68547619Y-38804819D02*
X68452381Y-38804819D01*
X68452381Y-38804819D02*
X68357143Y-38757200D01*
X68357143Y-38757200D02*
X68309524Y-38709580D01*
X68309524Y-38709580D02*
X68261905Y-38614342D01*
X68261905Y-38614342D02*
X68214286Y-38423866D01*
X68214286Y-38423866D02*
X68214286Y-38185771D01*
X68214286Y-38185771D02*
X68261905Y-37995295D01*
X68261905Y-37995295D02*
X68309524Y-37900057D01*
X68309524Y-37900057D02*
X68357143Y-37852438D01*
X68357143Y-37852438D02*
X68452381Y-37804819D01*
X69166667Y-37900057D02*
X69214286Y-37852438D01*
X69214286Y-37852438D02*
X69309524Y-37804819D01*
X69309524Y-37804819D02*
X69547619Y-37804819D01*
X69547619Y-37804819D02*
X69642857Y-37852438D01*
X69642857Y-37852438D02*
X69690476Y-37900057D01*
X69690476Y-37900057D02*
X69738095Y-37995295D01*
X69738095Y-37995295D02*
X69738095Y-38090533D01*
X69738095Y-38090533D02*
X69690476Y-38233390D01*
X69690476Y-38233390D02*
X69119048Y-38804819D01*
X69119048Y-38804819D02*
X69738095Y-38804819D01*
X66880952Y-90804819D02*
X66547619Y-90328628D01*
X66309524Y-90804819D02*
X66309524Y-89804819D01*
X66309524Y-89804819D02*
X66690476Y-89804819D01*
X66690476Y-89804819D02*
X66785714Y-89852438D01*
X66785714Y-89852438D02*
X66833333Y-89900057D01*
X66833333Y-89900057D02*
X66880952Y-89995295D01*
X66880952Y-89995295D02*
X66880952Y-90138152D01*
X66880952Y-90138152D02*
X66833333Y-90233390D01*
X66833333Y-90233390D02*
X66785714Y-90281009D01*
X66785714Y-90281009D02*
X66690476Y-90328628D01*
X66690476Y-90328628D02*
X66309524Y-90328628D01*
X67738095Y-90138152D02*
X67738095Y-90804819D01*
X67500000Y-89757200D02*
X67261905Y-90471485D01*
X67261905Y-90471485D02*
X67880952Y-90471485D01*
X68214286Y-89900057D02*
X68261905Y-89852438D01*
X68261905Y-89852438D02*
X68357143Y-89804819D01*
X68357143Y-89804819D02*
X68595238Y-89804819D01*
X68595238Y-89804819D02*
X68690476Y-89852438D01*
X68690476Y-89852438D02*
X68738095Y-89900057D01*
X68738095Y-89900057D02*
X68785714Y-89995295D01*
X68785714Y-89995295D02*
X68785714Y-90090533D01*
X68785714Y-90090533D02*
X68738095Y-90233390D01*
X68738095Y-90233390D02*
X68166667Y-90804819D01*
X68166667Y-90804819D02*
X68785714Y-90804819D01*
X69166667Y-89900057D02*
X69214286Y-89852438D01*
X69214286Y-89852438D02*
X69309524Y-89804819D01*
X69309524Y-89804819D02*
X69547619Y-89804819D01*
X69547619Y-89804819D02*
X69642857Y-89852438D01*
X69642857Y-89852438D02*
X69690476Y-89900057D01*
X69690476Y-89900057D02*
X69738095Y-89995295D01*
X69738095Y-89995295D02*
X69738095Y-90090533D01*
X69738095Y-90090533D02*
X69690476Y-90233390D01*
X69690476Y-90233390D02*
X69119048Y-90804819D01*
X69119048Y-90804819D02*
X69738095Y-90804819D01*
X124309524Y-90804819D02*
X124309524Y-89804819D01*
X124309524Y-89804819D02*
X124547619Y-89804819D01*
X124547619Y-89804819D02*
X124690476Y-89852438D01*
X124690476Y-89852438D02*
X124785714Y-89947676D01*
X124785714Y-89947676D02*
X124833333Y-90042914D01*
X124833333Y-90042914D02*
X124880952Y-90233390D01*
X124880952Y-90233390D02*
X124880952Y-90376247D01*
X124880952Y-90376247D02*
X124833333Y-90566723D01*
X124833333Y-90566723D02*
X124785714Y-90661961D01*
X124785714Y-90661961D02*
X124690476Y-90757200D01*
X124690476Y-90757200D02*
X124547619Y-90804819D01*
X124547619Y-90804819D02*
X124309524Y-90804819D01*
X125738095Y-90138152D02*
X125738095Y-90804819D01*
X125500000Y-89757200D02*
X125261905Y-90471485D01*
X125261905Y-90471485D02*
X125880952Y-90471485D01*
X126452381Y-89804819D02*
X126547619Y-89804819D01*
X126547619Y-89804819D02*
X126642857Y-89852438D01*
X126642857Y-89852438D02*
X126690476Y-89900057D01*
X126690476Y-89900057D02*
X126738095Y-89995295D01*
X126738095Y-89995295D02*
X126785714Y-90185771D01*
X126785714Y-90185771D02*
X126785714Y-90423866D01*
X126785714Y-90423866D02*
X126738095Y-90614342D01*
X126738095Y-90614342D02*
X126690476Y-90709580D01*
X126690476Y-90709580D02*
X126642857Y-90757200D01*
X126642857Y-90757200D02*
X126547619Y-90804819D01*
X126547619Y-90804819D02*
X126452381Y-90804819D01*
X126452381Y-90804819D02*
X126357143Y-90757200D01*
X126357143Y-90757200D02*
X126309524Y-90709580D01*
X126309524Y-90709580D02*
X126261905Y-90614342D01*
X126261905Y-90614342D02*
X126214286Y-90423866D01*
X126214286Y-90423866D02*
X126214286Y-90185771D01*
X126214286Y-90185771D02*
X126261905Y-89995295D01*
X126261905Y-89995295D02*
X126309524Y-89900057D01*
X126309524Y-89900057D02*
X126357143Y-89852438D01*
X126357143Y-89852438D02*
X126452381Y-89804819D01*
X127119048Y-89804819D02*
X127785714Y-89804819D01*
X127785714Y-89804819D02*
X127357143Y-90804819D01*
X120059524Y-108904819D02*
X120059524Y-107904819D01*
X120059524Y-107904819D02*
X120440476Y-107904819D01*
X120440476Y-107904819D02*
X120535714Y-107952438D01*
X120535714Y-107952438D02*
X120583333Y-108000057D01*
X120583333Y-108000057D02*
X120630952Y-108095295D01*
X120630952Y-108095295D02*
X120630952Y-108238152D01*
X120630952Y-108238152D02*
X120583333Y-108333390D01*
X120583333Y-108333390D02*
X120535714Y-108381009D01*
X120535714Y-108381009D02*
X120440476Y-108428628D01*
X120440476Y-108428628D02*
X120059524Y-108428628D01*
X121488095Y-108238152D02*
X121488095Y-108904819D01*
X121250000Y-107857200D02*
X121011905Y-108571485D01*
X121011905Y-108571485D02*
X121630952Y-108571485D01*
X122202381Y-107904819D02*
X122297619Y-107904819D01*
X122297619Y-107904819D02*
X122392857Y-107952438D01*
X122392857Y-107952438D02*
X122440476Y-108000057D01*
X122440476Y-108000057D02*
X122488095Y-108095295D01*
X122488095Y-108095295D02*
X122535714Y-108285771D01*
X122535714Y-108285771D02*
X122535714Y-108523866D01*
X122535714Y-108523866D02*
X122488095Y-108714342D01*
X122488095Y-108714342D02*
X122440476Y-108809580D01*
X122440476Y-108809580D02*
X122392857Y-108857200D01*
X122392857Y-108857200D02*
X122297619Y-108904819D01*
X122297619Y-108904819D02*
X122202381Y-108904819D01*
X122202381Y-108904819D02*
X122107143Y-108857200D01*
X122107143Y-108857200D02*
X122059524Y-108809580D01*
X122059524Y-108809580D02*
X122011905Y-108714342D01*
X122011905Y-108714342D02*
X121964286Y-108523866D01*
X121964286Y-108523866D02*
X121964286Y-108285771D01*
X121964286Y-108285771D02*
X122011905Y-108095295D01*
X122011905Y-108095295D02*
X122059524Y-108000057D01*
X122059524Y-108000057D02*
X122107143Y-107952438D01*
X122107143Y-107952438D02*
X122202381Y-107904819D01*
X123440476Y-107904819D02*
X122964286Y-107904819D01*
X122964286Y-107904819D02*
X122916667Y-108381009D01*
X122916667Y-108381009D02*
X122964286Y-108333390D01*
X122964286Y-108333390D02*
X123059524Y-108285771D01*
X123059524Y-108285771D02*
X123297619Y-108285771D01*
X123297619Y-108285771D02*
X123392857Y-108333390D01*
X123392857Y-108333390D02*
X123440476Y-108381009D01*
X123440476Y-108381009D02*
X123488095Y-108476247D01*
X123488095Y-108476247D02*
X123488095Y-108714342D01*
X123488095Y-108714342D02*
X123440476Y-108809580D01*
X123440476Y-108809580D02*
X123392857Y-108857200D01*
X123392857Y-108857200D02*
X123297619Y-108904819D01*
X123297619Y-108904819D02*
X123059524Y-108904819D01*
X123059524Y-108904819D02*
X122964286Y-108857200D01*
X122964286Y-108857200D02*
X122916667Y-108809580D01*
X102880952Y-97804819D02*
X102547619Y-97328628D01*
X102309524Y-97804819D02*
X102309524Y-96804819D01*
X102309524Y-96804819D02*
X102690476Y-96804819D01*
X102690476Y-96804819D02*
X102785714Y-96852438D01*
X102785714Y-96852438D02*
X102833333Y-96900057D01*
X102833333Y-96900057D02*
X102880952Y-96995295D01*
X102880952Y-96995295D02*
X102880952Y-97138152D01*
X102880952Y-97138152D02*
X102833333Y-97233390D01*
X102833333Y-97233390D02*
X102785714Y-97281009D01*
X102785714Y-97281009D02*
X102690476Y-97328628D01*
X102690476Y-97328628D02*
X102309524Y-97328628D01*
X103738095Y-97138152D02*
X103738095Y-97804819D01*
X103500000Y-96757200D02*
X103261905Y-97471485D01*
X103261905Y-97471485D02*
X103880952Y-97471485D01*
X104214286Y-96900057D02*
X104261905Y-96852438D01*
X104261905Y-96852438D02*
X104357143Y-96804819D01*
X104357143Y-96804819D02*
X104595238Y-96804819D01*
X104595238Y-96804819D02*
X104690476Y-96852438D01*
X104690476Y-96852438D02*
X104738095Y-96900057D01*
X104738095Y-96900057D02*
X104785714Y-96995295D01*
X104785714Y-96995295D02*
X104785714Y-97090533D01*
X104785714Y-97090533D02*
X104738095Y-97233390D01*
X104738095Y-97233390D02*
X104166667Y-97804819D01*
X104166667Y-97804819D02*
X104785714Y-97804819D01*
X105119048Y-96804819D02*
X105785714Y-96804819D01*
X105785714Y-96804819D02*
X105357143Y-97804819D01*
X116309524Y-38454819D02*
X116309524Y-37454819D01*
X116309524Y-37454819D02*
X116547619Y-37454819D01*
X116547619Y-37454819D02*
X116690476Y-37502438D01*
X116690476Y-37502438D02*
X116785714Y-37597676D01*
X116785714Y-37597676D02*
X116833333Y-37692914D01*
X116833333Y-37692914D02*
X116880952Y-37883390D01*
X116880952Y-37883390D02*
X116880952Y-38026247D01*
X116880952Y-38026247D02*
X116833333Y-38216723D01*
X116833333Y-38216723D02*
X116785714Y-38311961D01*
X116785714Y-38311961D02*
X116690476Y-38407200D01*
X116690476Y-38407200D02*
X116547619Y-38454819D01*
X116547619Y-38454819D02*
X116309524Y-38454819D01*
X117738095Y-37788152D02*
X117738095Y-38454819D01*
X117500000Y-37407200D02*
X117261905Y-38121485D01*
X117261905Y-38121485D02*
X117880952Y-38121485D01*
X118452381Y-37454819D02*
X118547619Y-37454819D01*
X118547619Y-37454819D02*
X118642857Y-37502438D01*
X118642857Y-37502438D02*
X118690476Y-37550057D01*
X118690476Y-37550057D02*
X118738095Y-37645295D01*
X118738095Y-37645295D02*
X118785714Y-37835771D01*
X118785714Y-37835771D02*
X118785714Y-38073866D01*
X118785714Y-38073866D02*
X118738095Y-38264342D01*
X118738095Y-38264342D02*
X118690476Y-38359580D01*
X118690476Y-38359580D02*
X118642857Y-38407200D01*
X118642857Y-38407200D02*
X118547619Y-38454819D01*
X118547619Y-38454819D02*
X118452381Y-38454819D01*
X118452381Y-38454819D02*
X118357143Y-38407200D01*
X118357143Y-38407200D02*
X118309524Y-38359580D01*
X118309524Y-38359580D02*
X118261905Y-38264342D01*
X118261905Y-38264342D02*
X118214286Y-38073866D01*
X118214286Y-38073866D02*
X118214286Y-37835771D01*
X118214286Y-37835771D02*
X118261905Y-37645295D01*
X118261905Y-37645295D02*
X118309524Y-37550057D01*
X118309524Y-37550057D02*
X118357143Y-37502438D01*
X118357143Y-37502438D02*
X118452381Y-37454819D01*
X119738095Y-38454819D02*
X119166667Y-38454819D01*
X119452381Y-38454819D02*
X119452381Y-37454819D01*
X119452381Y-37454819D02*
X119357143Y-37597676D01*
X119357143Y-37597676D02*
X119261905Y-37692914D01*
X119261905Y-37692914D02*
X119166667Y-37740533D01*
X94880952Y-50059580D02*
X94833333Y-50107200D01*
X94833333Y-50107200D02*
X94690476Y-50154819D01*
X94690476Y-50154819D02*
X94595238Y-50154819D01*
X94595238Y-50154819D02*
X94452381Y-50107200D01*
X94452381Y-50107200D02*
X94357143Y-50011961D01*
X94357143Y-50011961D02*
X94309524Y-49916723D01*
X94309524Y-49916723D02*
X94261905Y-49726247D01*
X94261905Y-49726247D02*
X94261905Y-49583390D01*
X94261905Y-49583390D02*
X94309524Y-49392914D01*
X94309524Y-49392914D02*
X94357143Y-49297676D01*
X94357143Y-49297676D02*
X94452381Y-49202438D01*
X94452381Y-49202438D02*
X94595238Y-49154819D01*
X94595238Y-49154819D02*
X94690476Y-49154819D01*
X94690476Y-49154819D02*
X94833333Y-49202438D01*
X94833333Y-49202438D02*
X94880952Y-49250057D01*
X95738095Y-49488152D02*
X95738095Y-50154819D01*
X95500000Y-49107200D02*
X95261905Y-49821485D01*
X95261905Y-49821485D02*
X95880952Y-49821485D01*
X96452381Y-49154819D02*
X96547619Y-49154819D01*
X96547619Y-49154819D02*
X96642857Y-49202438D01*
X96642857Y-49202438D02*
X96690476Y-49250057D01*
X96690476Y-49250057D02*
X96738095Y-49345295D01*
X96738095Y-49345295D02*
X96785714Y-49535771D01*
X96785714Y-49535771D02*
X96785714Y-49773866D01*
X96785714Y-49773866D02*
X96738095Y-49964342D01*
X96738095Y-49964342D02*
X96690476Y-50059580D01*
X96690476Y-50059580D02*
X96642857Y-50107200D01*
X96642857Y-50107200D02*
X96547619Y-50154819D01*
X96547619Y-50154819D02*
X96452381Y-50154819D01*
X96452381Y-50154819D02*
X96357143Y-50107200D01*
X96357143Y-50107200D02*
X96309524Y-50059580D01*
X96309524Y-50059580D02*
X96261905Y-49964342D01*
X96261905Y-49964342D02*
X96214286Y-49773866D01*
X96214286Y-49773866D02*
X96214286Y-49535771D01*
X96214286Y-49535771D02*
X96261905Y-49345295D01*
X96261905Y-49345295D02*
X96309524Y-49250057D01*
X96309524Y-49250057D02*
X96357143Y-49202438D01*
X96357143Y-49202438D02*
X96452381Y-49154819D01*
X97642857Y-49154819D02*
X97452381Y-49154819D01*
X97452381Y-49154819D02*
X97357143Y-49202438D01*
X97357143Y-49202438D02*
X97309524Y-49250057D01*
X97309524Y-49250057D02*
X97214286Y-49392914D01*
X97214286Y-49392914D02*
X97166667Y-49583390D01*
X97166667Y-49583390D02*
X97166667Y-49964342D01*
X97166667Y-49964342D02*
X97214286Y-50059580D01*
X97214286Y-50059580D02*
X97261905Y-50107200D01*
X97261905Y-50107200D02*
X97357143Y-50154819D01*
X97357143Y-50154819D02*
X97547619Y-50154819D01*
X97547619Y-50154819D02*
X97642857Y-50107200D01*
X97642857Y-50107200D02*
X97690476Y-50059580D01*
X97690476Y-50059580D02*
X97738095Y-49964342D01*
X97738095Y-49964342D02*
X97738095Y-49726247D01*
X97738095Y-49726247D02*
X97690476Y-49631009D01*
X97690476Y-49631009D02*
X97642857Y-49583390D01*
X97642857Y-49583390D02*
X97547619Y-49535771D01*
X97547619Y-49535771D02*
X97357143Y-49535771D01*
X97357143Y-49535771D02*
X97261905Y-49583390D01*
X97261905Y-49583390D02*
X97214286Y-49631009D01*
X97214286Y-49631009D02*
X97166667Y-49726247D01*
X94880952Y-97059580D02*
X94833333Y-97107200D01*
X94833333Y-97107200D02*
X94690476Y-97154819D01*
X94690476Y-97154819D02*
X94595238Y-97154819D01*
X94595238Y-97154819D02*
X94452381Y-97107200D01*
X94452381Y-97107200D02*
X94357143Y-97011961D01*
X94357143Y-97011961D02*
X94309524Y-96916723D01*
X94309524Y-96916723D02*
X94261905Y-96726247D01*
X94261905Y-96726247D02*
X94261905Y-96583390D01*
X94261905Y-96583390D02*
X94309524Y-96392914D01*
X94309524Y-96392914D02*
X94357143Y-96297676D01*
X94357143Y-96297676D02*
X94452381Y-96202438D01*
X94452381Y-96202438D02*
X94595238Y-96154819D01*
X94595238Y-96154819D02*
X94690476Y-96154819D01*
X94690476Y-96154819D02*
X94833333Y-96202438D01*
X94833333Y-96202438D02*
X94880952Y-96250057D01*
X95738095Y-96488152D02*
X95738095Y-97154819D01*
X95500000Y-96107200D02*
X95261905Y-96821485D01*
X95261905Y-96821485D02*
X95880952Y-96821485D01*
X96214286Y-96250057D02*
X96261905Y-96202438D01*
X96261905Y-96202438D02*
X96357143Y-96154819D01*
X96357143Y-96154819D02*
X96595238Y-96154819D01*
X96595238Y-96154819D02*
X96690476Y-96202438D01*
X96690476Y-96202438D02*
X96738095Y-96250057D01*
X96738095Y-96250057D02*
X96785714Y-96345295D01*
X96785714Y-96345295D02*
X96785714Y-96440533D01*
X96785714Y-96440533D02*
X96738095Y-96583390D01*
X96738095Y-96583390D02*
X96166667Y-97154819D01*
X96166667Y-97154819D02*
X96785714Y-97154819D01*
X97642857Y-96154819D02*
X97452381Y-96154819D01*
X97452381Y-96154819D02*
X97357143Y-96202438D01*
X97357143Y-96202438D02*
X97309524Y-96250057D01*
X97309524Y-96250057D02*
X97214286Y-96392914D01*
X97214286Y-96392914D02*
X97166667Y-96583390D01*
X97166667Y-96583390D02*
X97166667Y-96964342D01*
X97166667Y-96964342D02*
X97214286Y-97059580D01*
X97214286Y-97059580D02*
X97261905Y-97107200D01*
X97261905Y-97107200D02*
X97357143Y-97154819D01*
X97357143Y-97154819D02*
X97547619Y-97154819D01*
X97547619Y-97154819D02*
X97642857Y-97107200D01*
X97642857Y-97107200D02*
X97690476Y-97059580D01*
X97690476Y-97059580D02*
X97738095Y-96964342D01*
X97738095Y-96964342D02*
X97738095Y-96726247D01*
X97738095Y-96726247D02*
X97690476Y-96631009D01*
X97690476Y-96631009D02*
X97642857Y-96583390D01*
X97642857Y-96583390D02*
X97547619Y-96535771D01*
X97547619Y-96535771D02*
X97357143Y-96535771D01*
X97357143Y-96535771D02*
X97261905Y-96583390D01*
X97261905Y-96583390D02*
X97214286Y-96631009D01*
X97214286Y-96631009D02*
X97166667Y-96726247D01*
X163859524Y-104954819D02*
X163859524Y-103954819D01*
X163859524Y-103954819D02*
X164240476Y-103954819D01*
X164240476Y-103954819D02*
X164335714Y-104002438D01*
X164335714Y-104002438D02*
X164383333Y-104050057D01*
X164383333Y-104050057D02*
X164430952Y-104145295D01*
X164430952Y-104145295D02*
X164430952Y-104288152D01*
X164430952Y-104288152D02*
X164383333Y-104383390D01*
X164383333Y-104383390D02*
X164335714Y-104431009D01*
X164335714Y-104431009D02*
X164240476Y-104478628D01*
X164240476Y-104478628D02*
X163859524Y-104478628D01*
X165288095Y-104288152D02*
X165288095Y-104954819D01*
X165050000Y-103907200D02*
X164811905Y-104621485D01*
X164811905Y-104621485D02*
X165430952Y-104621485D01*
X166002381Y-103954819D02*
X166097619Y-103954819D01*
X166097619Y-103954819D02*
X166192857Y-104002438D01*
X166192857Y-104002438D02*
X166240476Y-104050057D01*
X166240476Y-104050057D02*
X166288095Y-104145295D01*
X166288095Y-104145295D02*
X166335714Y-104335771D01*
X166335714Y-104335771D02*
X166335714Y-104573866D01*
X166335714Y-104573866D02*
X166288095Y-104764342D01*
X166288095Y-104764342D02*
X166240476Y-104859580D01*
X166240476Y-104859580D02*
X166192857Y-104907200D01*
X166192857Y-104907200D02*
X166097619Y-104954819D01*
X166097619Y-104954819D02*
X166002381Y-104954819D01*
X166002381Y-104954819D02*
X165907143Y-104907200D01*
X165907143Y-104907200D02*
X165859524Y-104859580D01*
X165859524Y-104859580D02*
X165811905Y-104764342D01*
X165811905Y-104764342D02*
X165764286Y-104573866D01*
X165764286Y-104573866D02*
X165764286Y-104335771D01*
X165764286Y-104335771D02*
X165811905Y-104145295D01*
X165811905Y-104145295D02*
X165859524Y-104050057D01*
X165859524Y-104050057D02*
X165907143Y-104002438D01*
X165907143Y-104002438D02*
X166002381Y-103954819D01*
X166716667Y-104050057D02*
X166764286Y-104002438D01*
X166764286Y-104002438D02*
X166859524Y-103954819D01*
X166859524Y-103954819D02*
X167097619Y-103954819D01*
X167097619Y-103954819D02*
X167192857Y-104002438D01*
X167192857Y-104002438D02*
X167240476Y-104050057D01*
X167240476Y-104050057D02*
X167288095Y-104145295D01*
X167288095Y-104145295D02*
X167288095Y-104240533D01*
X167288095Y-104240533D02*
X167240476Y-104383390D01*
X167240476Y-104383390D02*
X166669048Y-104954819D01*
X166669048Y-104954819D02*
X167288095Y-104954819D01*
X86880952Y-83804819D02*
X86547619Y-83328628D01*
X86309524Y-83804819D02*
X86309524Y-82804819D01*
X86309524Y-82804819D02*
X86690476Y-82804819D01*
X86690476Y-82804819D02*
X86785714Y-82852438D01*
X86785714Y-82852438D02*
X86833333Y-82900057D01*
X86833333Y-82900057D02*
X86880952Y-82995295D01*
X86880952Y-82995295D02*
X86880952Y-83138152D01*
X86880952Y-83138152D02*
X86833333Y-83233390D01*
X86833333Y-83233390D02*
X86785714Y-83281009D01*
X86785714Y-83281009D02*
X86690476Y-83328628D01*
X86690476Y-83328628D02*
X86309524Y-83328628D01*
X87738095Y-83138152D02*
X87738095Y-83804819D01*
X87500000Y-82757200D02*
X87261905Y-83471485D01*
X87261905Y-83471485D02*
X87880952Y-83471485D01*
X88214286Y-82900057D02*
X88261905Y-82852438D01*
X88261905Y-82852438D02*
X88357143Y-82804819D01*
X88357143Y-82804819D02*
X88595238Y-82804819D01*
X88595238Y-82804819D02*
X88690476Y-82852438D01*
X88690476Y-82852438D02*
X88738095Y-82900057D01*
X88738095Y-82900057D02*
X88785714Y-82995295D01*
X88785714Y-82995295D02*
X88785714Y-83090533D01*
X88785714Y-83090533D02*
X88738095Y-83233390D01*
X88738095Y-83233390D02*
X88166667Y-83804819D01*
X88166667Y-83804819D02*
X88785714Y-83804819D01*
X89119048Y-82804819D02*
X89738095Y-82804819D01*
X89738095Y-82804819D02*
X89404762Y-83185771D01*
X89404762Y-83185771D02*
X89547619Y-83185771D01*
X89547619Y-83185771D02*
X89642857Y-83233390D01*
X89642857Y-83233390D02*
X89690476Y-83281009D01*
X89690476Y-83281009D02*
X89738095Y-83376247D01*
X89738095Y-83376247D02*
X89738095Y-83614342D01*
X89738095Y-83614342D02*
X89690476Y-83709580D01*
X89690476Y-83709580D02*
X89642857Y-83757200D01*
X89642857Y-83757200D02*
X89547619Y-83804819D01*
X89547619Y-83804819D02*
X89261905Y-83804819D01*
X89261905Y-83804819D02*
X89166667Y-83757200D01*
X89166667Y-83757200D02*
X89119048Y-83709580D01*
X56880952Y-90804819D02*
X56547619Y-90328628D01*
X56309524Y-90804819D02*
X56309524Y-89804819D01*
X56309524Y-89804819D02*
X56690476Y-89804819D01*
X56690476Y-89804819D02*
X56785714Y-89852438D01*
X56785714Y-89852438D02*
X56833333Y-89900057D01*
X56833333Y-89900057D02*
X56880952Y-89995295D01*
X56880952Y-89995295D02*
X56880952Y-90138152D01*
X56880952Y-90138152D02*
X56833333Y-90233390D01*
X56833333Y-90233390D02*
X56785714Y-90281009D01*
X56785714Y-90281009D02*
X56690476Y-90328628D01*
X56690476Y-90328628D02*
X56309524Y-90328628D01*
X57738095Y-90138152D02*
X57738095Y-90804819D01*
X57500000Y-89757200D02*
X57261905Y-90471485D01*
X57261905Y-90471485D02*
X57880952Y-90471485D01*
X58214286Y-89900057D02*
X58261905Y-89852438D01*
X58261905Y-89852438D02*
X58357143Y-89804819D01*
X58357143Y-89804819D02*
X58595238Y-89804819D01*
X58595238Y-89804819D02*
X58690476Y-89852438D01*
X58690476Y-89852438D02*
X58738095Y-89900057D01*
X58738095Y-89900057D02*
X58785714Y-89995295D01*
X58785714Y-89995295D02*
X58785714Y-90090533D01*
X58785714Y-90090533D02*
X58738095Y-90233390D01*
X58738095Y-90233390D02*
X58166667Y-90804819D01*
X58166667Y-90804819D02*
X58785714Y-90804819D01*
X59738095Y-90804819D02*
X59166667Y-90804819D01*
X59452381Y-90804819D02*
X59452381Y-89804819D01*
X59452381Y-89804819D02*
X59357143Y-89947676D01*
X59357143Y-89947676D02*
X59261905Y-90042914D01*
X59261905Y-90042914D02*
X59166667Y-90090533D01*
X110880952Y-50059580D02*
X110833333Y-50107200D01*
X110833333Y-50107200D02*
X110690476Y-50154819D01*
X110690476Y-50154819D02*
X110595238Y-50154819D01*
X110595238Y-50154819D02*
X110452381Y-50107200D01*
X110452381Y-50107200D02*
X110357143Y-50011961D01*
X110357143Y-50011961D02*
X110309524Y-49916723D01*
X110309524Y-49916723D02*
X110261905Y-49726247D01*
X110261905Y-49726247D02*
X110261905Y-49583390D01*
X110261905Y-49583390D02*
X110309524Y-49392914D01*
X110309524Y-49392914D02*
X110357143Y-49297676D01*
X110357143Y-49297676D02*
X110452381Y-49202438D01*
X110452381Y-49202438D02*
X110595238Y-49154819D01*
X110595238Y-49154819D02*
X110690476Y-49154819D01*
X110690476Y-49154819D02*
X110833333Y-49202438D01*
X110833333Y-49202438D02*
X110880952Y-49250057D01*
X111738095Y-49488152D02*
X111738095Y-50154819D01*
X111500000Y-49107200D02*
X111261905Y-49821485D01*
X111261905Y-49821485D02*
X111880952Y-49821485D01*
X112452381Y-49154819D02*
X112547619Y-49154819D01*
X112547619Y-49154819D02*
X112642857Y-49202438D01*
X112642857Y-49202438D02*
X112690476Y-49250057D01*
X112690476Y-49250057D02*
X112738095Y-49345295D01*
X112738095Y-49345295D02*
X112785714Y-49535771D01*
X112785714Y-49535771D02*
X112785714Y-49773866D01*
X112785714Y-49773866D02*
X112738095Y-49964342D01*
X112738095Y-49964342D02*
X112690476Y-50059580D01*
X112690476Y-50059580D02*
X112642857Y-50107200D01*
X112642857Y-50107200D02*
X112547619Y-50154819D01*
X112547619Y-50154819D02*
X112452381Y-50154819D01*
X112452381Y-50154819D02*
X112357143Y-50107200D01*
X112357143Y-50107200D02*
X112309524Y-50059580D01*
X112309524Y-50059580D02*
X112261905Y-49964342D01*
X112261905Y-49964342D02*
X112214286Y-49773866D01*
X112214286Y-49773866D02*
X112214286Y-49535771D01*
X112214286Y-49535771D02*
X112261905Y-49345295D01*
X112261905Y-49345295D02*
X112309524Y-49250057D01*
X112309524Y-49250057D02*
X112357143Y-49202438D01*
X112357143Y-49202438D02*
X112452381Y-49154819D01*
X113119048Y-49154819D02*
X113785714Y-49154819D01*
X113785714Y-49154819D02*
X113357143Y-50154819D01*
X48880952Y-56059580D02*
X48833333Y-56107200D01*
X48833333Y-56107200D02*
X48690476Y-56154819D01*
X48690476Y-56154819D02*
X48595238Y-56154819D01*
X48595238Y-56154819D02*
X48452381Y-56107200D01*
X48452381Y-56107200D02*
X48357143Y-56011961D01*
X48357143Y-56011961D02*
X48309524Y-55916723D01*
X48309524Y-55916723D02*
X48261905Y-55726247D01*
X48261905Y-55726247D02*
X48261905Y-55583390D01*
X48261905Y-55583390D02*
X48309524Y-55392914D01*
X48309524Y-55392914D02*
X48357143Y-55297676D01*
X48357143Y-55297676D02*
X48452381Y-55202438D01*
X48452381Y-55202438D02*
X48595238Y-55154819D01*
X48595238Y-55154819D02*
X48690476Y-55154819D01*
X48690476Y-55154819D02*
X48833333Y-55202438D01*
X48833333Y-55202438D02*
X48880952Y-55250057D01*
X49785714Y-55154819D02*
X49309524Y-55154819D01*
X49309524Y-55154819D02*
X49261905Y-55631009D01*
X49261905Y-55631009D02*
X49309524Y-55583390D01*
X49309524Y-55583390D02*
X49404762Y-55535771D01*
X49404762Y-55535771D02*
X49642857Y-55535771D01*
X49642857Y-55535771D02*
X49738095Y-55583390D01*
X49738095Y-55583390D02*
X49785714Y-55631009D01*
X49785714Y-55631009D02*
X49833333Y-55726247D01*
X49833333Y-55726247D02*
X49833333Y-55964342D01*
X49833333Y-55964342D02*
X49785714Y-56059580D01*
X49785714Y-56059580D02*
X49738095Y-56107200D01*
X49738095Y-56107200D02*
X49642857Y-56154819D01*
X49642857Y-56154819D02*
X49404762Y-56154819D01*
X49404762Y-56154819D02*
X49309524Y-56107200D01*
X49309524Y-56107200D02*
X49261905Y-56059580D01*
X50309524Y-56154819D02*
X50500000Y-56154819D01*
X50500000Y-56154819D02*
X50595238Y-56107200D01*
X50595238Y-56107200D02*
X50642857Y-56059580D01*
X50642857Y-56059580D02*
X50738095Y-55916723D01*
X50738095Y-55916723D02*
X50785714Y-55726247D01*
X50785714Y-55726247D02*
X50785714Y-55345295D01*
X50785714Y-55345295D02*
X50738095Y-55250057D01*
X50738095Y-55250057D02*
X50690476Y-55202438D01*
X50690476Y-55202438D02*
X50595238Y-55154819D01*
X50595238Y-55154819D02*
X50404762Y-55154819D01*
X50404762Y-55154819D02*
X50309524Y-55202438D01*
X50309524Y-55202438D02*
X50261905Y-55250057D01*
X50261905Y-55250057D02*
X50214286Y-55345295D01*
X50214286Y-55345295D02*
X50214286Y-55583390D01*
X50214286Y-55583390D02*
X50261905Y-55678628D01*
X50261905Y-55678628D02*
X50309524Y-55726247D01*
X50309524Y-55726247D02*
X50404762Y-55773866D01*
X50404762Y-55773866D02*
X50595238Y-55773866D01*
X50595238Y-55773866D02*
X50690476Y-55726247D01*
X50690476Y-55726247D02*
X50738095Y-55678628D01*
X50738095Y-55678628D02*
X50785714Y-55583390D01*
X51690476Y-55154819D02*
X51214286Y-55154819D01*
X51214286Y-55154819D02*
X51166667Y-55631009D01*
X51166667Y-55631009D02*
X51214286Y-55583390D01*
X51214286Y-55583390D02*
X51309524Y-55535771D01*
X51309524Y-55535771D02*
X51547619Y-55535771D01*
X51547619Y-55535771D02*
X51642857Y-55583390D01*
X51642857Y-55583390D02*
X51690476Y-55631009D01*
X51690476Y-55631009D02*
X51738095Y-55726247D01*
X51738095Y-55726247D02*
X51738095Y-55964342D01*
X51738095Y-55964342D02*
X51690476Y-56059580D01*
X51690476Y-56059580D02*
X51642857Y-56107200D01*
X51642857Y-56107200D02*
X51547619Y-56154819D01*
X51547619Y-56154819D02*
X51309524Y-56154819D01*
X51309524Y-56154819D02*
X51214286Y-56107200D01*
X51214286Y-56107200D02*
X51166667Y-56059580D01*
X86880952Y-50804819D02*
X86547619Y-50328628D01*
X86309524Y-50804819D02*
X86309524Y-49804819D01*
X86309524Y-49804819D02*
X86690476Y-49804819D01*
X86690476Y-49804819D02*
X86785714Y-49852438D01*
X86785714Y-49852438D02*
X86833333Y-49900057D01*
X86833333Y-49900057D02*
X86880952Y-49995295D01*
X86880952Y-49995295D02*
X86880952Y-50138152D01*
X86880952Y-50138152D02*
X86833333Y-50233390D01*
X86833333Y-50233390D02*
X86785714Y-50281009D01*
X86785714Y-50281009D02*
X86690476Y-50328628D01*
X86690476Y-50328628D02*
X86309524Y-50328628D01*
X87738095Y-50138152D02*
X87738095Y-50804819D01*
X87500000Y-49757200D02*
X87261905Y-50471485D01*
X87261905Y-50471485D02*
X87880952Y-50471485D01*
X88452381Y-49804819D02*
X88547619Y-49804819D01*
X88547619Y-49804819D02*
X88642857Y-49852438D01*
X88642857Y-49852438D02*
X88690476Y-49900057D01*
X88690476Y-49900057D02*
X88738095Y-49995295D01*
X88738095Y-49995295D02*
X88785714Y-50185771D01*
X88785714Y-50185771D02*
X88785714Y-50423866D01*
X88785714Y-50423866D02*
X88738095Y-50614342D01*
X88738095Y-50614342D02*
X88690476Y-50709580D01*
X88690476Y-50709580D02*
X88642857Y-50757200D01*
X88642857Y-50757200D02*
X88547619Y-50804819D01*
X88547619Y-50804819D02*
X88452381Y-50804819D01*
X88452381Y-50804819D02*
X88357143Y-50757200D01*
X88357143Y-50757200D02*
X88309524Y-50709580D01*
X88309524Y-50709580D02*
X88261905Y-50614342D01*
X88261905Y-50614342D02*
X88214286Y-50423866D01*
X88214286Y-50423866D02*
X88214286Y-50185771D01*
X88214286Y-50185771D02*
X88261905Y-49995295D01*
X88261905Y-49995295D02*
X88309524Y-49900057D01*
X88309524Y-49900057D02*
X88357143Y-49852438D01*
X88357143Y-49852438D02*
X88452381Y-49804819D01*
X89642857Y-49804819D02*
X89452381Y-49804819D01*
X89452381Y-49804819D02*
X89357143Y-49852438D01*
X89357143Y-49852438D02*
X89309524Y-49900057D01*
X89309524Y-49900057D02*
X89214286Y-50042914D01*
X89214286Y-50042914D02*
X89166667Y-50233390D01*
X89166667Y-50233390D02*
X89166667Y-50614342D01*
X89166667Y-50614342D02*
X89214286Y-50709580D01*
X89214286Y-50709580D02*
X89261905Y-50757200D01*
X89261905Y-50757200D02*
X89357143Y-50804819D01*
X89357143Y-50804819D02*
X89547619Y-50804819D01*
X89547619Y-50804819D02*
X89642857Y-50757200D01*
X89642857Y-50757200D02*
X89690476Y-50709580D01*
X89690476Y-50709580D02*
X89738095Y-50614342D01*
X89738095Y-50614342D02*
X89738095Y-50376247D01*
X89738095Y-50376247D02*
X89690476Y-50281009D01*
X89690476Y-50281009D02*
X89642857Y-50233390D01*
X89642857Y-50233390D02*
X89547619Y-50185771D01*
X89547619Y-50185771D02*
X89357143Y-50185771D01*
X89357143Y-50185771D02*
X89261905Y-50233390D01*
X89261905Y-50233390D02*
X89214286Y-50281009D01*
X89214286Y-50281009D02*
X89166667Y-50376247D01*
X56880952Y-56059580D02*
X56833333Y-56107200D01*
X56833333Y-56107200D02*
X56690476Y-56154819D01*
X56690476Y-56154819D02*
X56595238Y-56154819D01*
X56595238Y-56154819D02*
X56452381Y-56107200D01*
X56452381Y-56107200D02*
X56357143Y-56011961D01*
X56357143Y-56011961D02*
X56309524Y-55916723D01*
X56309524Y-55916723D02*
X56261905Y-55726247D01*
X56261905Y-55726247D02*
X56261905Y-55583390D01*
X56261905Y-55583390D02*
X56309524Y-55392914D01*
X56309524Y-55392914D02*
X56357143Y-55297676D01*
X56357143Y-55297676D02*
X56452381Y-55202438D01*
X56452381Y-55202438D02*
X56595238Y-55154819D01*
X56595238Y-55154819D02*
X56690476Y-55154819D01*
X56690476Y-55154819D02*
X56833333Y-55202438D01*
X56833333Y-55202438D02*
X56880952Y-55250057D01*
X57785714Y-55154819D02*
X57309524Y-55154819D01*
X57309524Y-55154819D02*
X57261905Y-55631009D01*
X57261905Y-55631009D02*
X57309524Y-55583390D01*
X57309524Y-55583390D02*
X57404762Y-55535771D01*
X57404762Y-55535771D02*
X57642857Y-55535771D01*
X57642857Y-55535771D02*
X57738095Y-55583390D01*
X57738095Y-55583390D02*
X57785714Y-55631009D01*
X57785714Y-55631009D02*
X57833333Y-55726247D01*
X57833333Y-55726247D02*
X57833333Y-55964342D01*
X57833333Y-55964342D02*
X57785714Y-56059580D01*
X57785714Y-56059580D02*
X57738095Y-56107200D01*
X57738095Y-56107200D02*
X57642857Y-56154819D01*
X57642857Y-56154819D02*
X57404762Y-56154819D01*
X57404762Y-56154819D02*
X57309524Y-56107200D01*
X57309524Y-56107200D02*
X57261905Y-56059580D01*
X58309524Y-56154819D02*
X58500000Y-56154819D01*
X58500000Y-56154819D02*
X58595238Y-56107200D01*
X58595238Y-56107200D02*
X58642857Y-56059580D01*
X58642857Y-56059580D02*
X58738095Y-55916723D01*
X58738095Y-55916723D02*
X58785714Y-55726247D01*
X58785714Y-55726247D02*
X58785714Y-55345295D01*
X58785714Y-55345295D02*
X58738095Y-55250057D01*
X58738095Y-55250057D02*
X58690476Y-55202438D01*
X58690476Y-55202438D02*
X58595238Y-55154819D01*
X58595238Y-55154819D02*
X58404762Y-55154819D01*
X58404762Y-55154819D02*
X58309524Y-55202438D01*
X58309524Y-55202438D02*
X58261905Y-55250057D01*
X58261905Y-55250057D02*
X58214286Y-55345295D01*
X58214286Y-55345295D02*
X58214286Y-55583390D01*
X58214286Y-55583390D02*
X58261905Y-55678628D01*
X58261905Y-55678628D02*
X58309524Y-55726247D01*
X58309524Y-55726247D02*
X58404762Y-55773866D01*
X58404762Y-55773866D02*
X58595238Y-55773866D01*
X58595238Y-55773866D02*
X58690476Y-55726247D01*
X58690476Y-55726247D02*
X58738095Y-55678628D01*
X58738095Y-55678628D02*
X58785714Y-55583390D01*
X59642857Y-55154819D02*
X59452381Y-55154819D01*
X59452381Y-55154819D02*
X59357143Y-55202438D01*
X59357143Y-55202438D02*
X59309524Y-55250057D01*
X59309524Y-55250057D02*
X59214286Y-55392914D01*
X59214286Y-55392914D02*
X59166667Y-55583390D01*
X59166667Y-55583390D02*
X59166667Y-55964342D01*
X59166667Y-55964342D02*
X59214286Y-56059580D01*
X59214286Y-56059580D02*
X59261905Y-56107200D01*
X59261905Y-56107200D02*
X59357143Y-56154819D01*
X59357143Y-56154819D02*
X59547619Y-56154819D01*
X59547619Y-56154819D02*
X59642857Y-56107200D01*
X59642857Y-56107200D02*
X59690476Y-56059580D01*
X59690476Y-56059580D02*
X59738095Y-55964342D01*
X59738095Y-55964342D02*
X59738095Y-55726247D01*
X59738095Y-55726247D02*
X59690476Y-55631009D01*
X59690476Y-55631009D02*
X59642857Y-55583390D01*
X59642857Y-55583390D02*
X59547619Y-55535771D01*
X59547619Y-55535771D02*
X59357143Y-55535771D01*
X59357143Y-55535771D02*
X59261905Y-55583390D01*
X59261905Y-55583390D02*
X59214286Y-55631009D01*
X59214286Y-55631009D02*
X59166667Y-55726247D01*
X110880952Y-83804819D02*
X110547619Y-83328628D01*
X110309524Y-83804819D02*
X110309524Y-82804819D01*
X110309524Y-82804819D02*
X110690476Y-82804819D01*
X110690476Y-82804819D02*
X110785714Y-82852438D01*
X110785714Y-82852438D02*
X110833333Y-82900057D01*
X110833333Y-82900057D02*
X110880952Y-82995295D01*
X110880952Y-82995295D02*
X110880952Y-83138152D01*
X110880952Y-83138152D02*
X110833333Y-83233390D01*
X110833333Y-83233390D02*
X110785714Y-83281009D01*
X110785714Y-83281009D02*
X110690476Y-83328628D01*
X110690476Y-83328628D02*
X110309524Y-83328628D01*
X111738095Y-83138152D02*
X111738095Y-83804819D01*
X111500000Y-82757200D02*
X111261905Y-83471485D01*
X111261905Y-83471485D02*
X111880952Y-83471485D01*
X112214286Y-82900057D02*
X112261905Y-82852438D01*
X112261905Y-82852438D02*
X112357143Y-82804819D01*
X112357143Y-82804819D02*
X112595238Y-82804819D01*
X112595238Y-82804819D02*
X112690476Y-82852438D01*
X112690476Y-82852438D02*
X112738095Y-82900057D01*
X112738095Y-82900057D02*
X112785714Y-82995295D01*
X112785714Y-82995295D02*
X112785714Y-83090533D01*
X112785714Y-83090533D02*
X112738095Y-83233390D01*
X112738095Y-83233390D02*
X112166667Y-83804819D01*
X112166667Y-83804819D02*
X112785714Y-83804819D01*
X113690476Y-82804819D02*
X113214286Y-82804819D01*
X113214286Y-82804819D02*
X113166667Y-83281009D01*
X113166667Y-83281009D02*
X113214286Y-83233390D01*
X113214286Y-83233390D02*
X113309524Y-83185771D01*
X113309524Y-83185771D02*
X113547619Y-83185771D01*
X113547619Y-83185771D02*
X113642857Y-83233390D01*
X113642857Y-83233390D02*
X113690476Y-83281009D01*
X113690476Y-83281009D02*
X113738095Y-83376247D01*
X113738095Y-83376247D02*
X113738095Y-83614342D01*
X113738095Y-83614342D02*
X113690476Y-83709580D01*
X113690476Y-83709580D02*
X113642857Y-83757200D01*
X113642857Y-83757200D02*
X113547619Y-83804819D01*
X113547619Y-83804819D02*
X113309524Y-83804819D01*
X113309524Y-83804819D02*
X113214286Y-83757200D01*
X113214286Y-83757200D02*
X113166667Y-83709580D01*
X143809524Y-88644819D02*
X143809524Y-87644819D01*
X144380952Y-88644819D02*
X143952381Y-88073390D01*
X144380952Y-87644819D02*
X143809524Y-88216247D01*
X145238095Y-87978152D02*
X145238095Y-88644819D01*
X145000000Y-87597200D02*
X144761905Y-88311485D01*
X144761905Y-88311485D02*
X145380952Y-88311485D01*
X145952381Y-87644819D02*
X146047619Y-87644819D01*
X146047619Y-87644819D02*
X146142857Y-87692438D01*
X146142857Y-87692438D02*
X146190476Y-87740057D01*
X146190476Y-87740057D02*
X146238095Y-87835295D01*
X146238095Y-87835295D02*
X146285714Y-88025771D01*
X146285714Y-88025771D02*
X146285714Y-88263866D01*
X146285714Y-88263866D02*
X146238095Y-88454342D01*
X146238095Y-88454342D02*
X146190476Y-88549580D01*
X146190476Y-88549580D02*
X146142857Y-88597200D01*
X146142857Y-88597200D02*
X146047619Y-88644819D01*
X146047619Y-88644819D02*
X145952381Y-88644819D01*
X145952381Y-88644819D02*
X145857143Y-88597200D01*
X145857143Y-88597200D02*
X145809524Y-88549580D01*
X145809524Y-88549580D02*
X145761905Y-88454342D01*
X145761905Y-88454342D02*
X145714286Y-88263866D01*
X145714286Y-88263866D02*
X145714286Y-88025771D01*
X145714286Y-88025771D02*
X145761905Y-87835295D01*
X145761905Y-87835295D02*
X145809524Y-87740057D01*
X145809524Y-87740057D02*
X145857143Y-87692438D01*
X145857143Y-87692438D02*
X145952381Y-87644819D01*
X146619048Y-87644819D02*
X147238095Y-87644819D01*
X147238095Y-87644819D02*
X146904762Y-88025771D01*
X146904762Y-88025771D02*
X147047619Y-88025771D01*
X147047619Y-88025771D02*
X147142857Y-88073390D01*
X147142857Y-88073390D02*
X147190476Y-88121009D01*
X147190476Y-88121009D02*
X147238095Y-88216247D01*
X147238095Y-88216247D02*
X147238095Y-88454342D01*
X147238095Y-88454342D02*
X147190476Y-88549580D01*
X147190476Y-88549580D02*
X147142857Y-88597200D01*
X147142857Y-88597200D02*
X147047619Y-88644819D01*
X147047619Y-88644819D02*
X146761905Y-88644819D01*
X146761905Y-88644819D02*
X146666667Y-88597200D01*
X146666667Y-88597200D02*
X146619048Y-88549580D01*
X154880952Y-38804819D02*
X154547619Y-38328628D01*
X154309524Y-38804819D02*
X154309524Y-37804819D01*
X154309524Y-37804819D02*
X154690476Y-37804819D01*
X154690476Y-37804819D02*
X154785714Y-37852438D01*
X154785714Y-37852438D02*
X154833333Y-37900057D01*
X154833333Y-37900057D02*
X154880952Y-37995295D01*
X154880952Y-37995295D02*
X154880952Y-38138152D01*
X154880952Y-38138152D02*
X154833333Y-38233390D01*
X154833333Y-38233390D02*
X154785714Y-38281009D01*
X154785714Y-38281009D02*
X154690476Y-38328628D01*
X154690476Y-38328628D02*
X154309524Y-38328628D01*
X155738095Y-38138152D02*
X155738095Y-38804819D01*
X155500000Y-37757200D02*
X155261905Y-38471485D01*
X155261905Y-38471485D02*
X155880952Y-38471485D01*
X156452381Y-37804819D02*
X156547619Y-37804819D01*
X156547619Y-37804819D02*
X156642857Y-37852438D01*
X156642857Y-37852438D02*
X156690476Y-37900057D01*
X156690476Y-37900057D02*
X156738095Y-37995295D01*
X156738095Y-37995295D02*
X156785714Y-38185771D01*
X156785714Y-38185771D02*
X156785714Y-38423866D01*
X156785714Y-38423866D02*
X156738095Y-38614342D01*
X156738095Y-38614342D02*
X156690476Y-38709580D01*
X156690476Y-38709580D02*
X156642857Y-38757200D01*
X156642857Y-38757200D02*
X156547619Y-38804819D01*
X156547619Y-38804819D02*
X156452381Y-38804819D01*
X156452381Y-38804819D02*
X156357143Y-38757200D01*
X156357143Y-38757200D02*
X156309524Y-38709580D01*
X156309524Y-38709580D02*
X156261905Y-38614342D01*
X156261905Y-38614342D02*
X156214286Y-38423866D01*
X156214286Y-38423866D02*
X156214286Y-38185771D01*
X156214286Y-38185771D02*
X156261905Y-37995295D01*
X156261905Y-37995295D02*
X156309524Y-37900057D01*
X156309524Y-37900057D02*
X156357143Y-37852438D01*
X156357143Y-37852438D02*
X156452381Y-37804819D01*
X157357143Y-38233390D02*
X157261905Y-38185771D01*
X157261905Y-38185771D02*
X157214286Y-38138152D01*
X157214286Y-38138152D02*
X157166667Y-38042914D01*
X157166667Y-38042914D02*
X157166667Y-37995295D01*
X157166667Y-37995295D02*
X157214286Y-37900057D01*
X157214286Y-37900057D02*
X157261905Y-37852438D01*
X157261905Y-37852438D02*
X157357143Y-37804819D01*
X157357143Y-37804819D02*
X157547619Y-37804819D01*
X157547619Y-37804819D02*
X157642857Y-37852438D01*
X157642857Y-37852438D02*
X157690476Y-37900057D01*
X157690476Y-37900057D02*
X157738095Y-37995295D01*
X157738095Y-37995295D02*
X157738095Y-38042914D01*
X157738095Y-38042914D02*
X157690476Y-38138152D01*
X157690476Y-38138152D02*
X157642857Y-38185771D01*
X157642857Y-38185771D02*
X157547619Y-38233390D01*
X157547619Y-38233390D02*
X157357143Y-38233390D01*
X157357143Y-38233390D02*
X157261905Y-38281009D01*
X157261905Y-38281009D02*
X157214286Y-38328628D01*
X157214286Y-38328628D02*
X157166667Y-38423866D01*
X157166667Y-38423866D02*
X157166667Y-38614342D01*
X157166667Y-38614342D02*
X157214286Y-38709580D01*
X157214286Y-38709580D02*
X157261905Y-38757200D01*
X157261905Y-38757200D02*
X157357143Y-38804819D01*
X157357143Y-38804819D02*
X157547619Y-38804819D01*
X157547619Y-38804819D02*
X157642857Y-38757200D01*
X157642857Y-38757200D02*
X157690476Y-38709580D01*
X157690476Y-38709580D02*
X157738095Y-38614342D01*
X157738095Y-38614342D02*
X157738095Y-38423866D01*
X157738095Y-38423866D02*
X157690476Y-38328628D01*
X157690476Y-38328628D02*
X157642857Y-38281009D01*
X157642857Y-38281009D02*
X157547619Y-38233390D01*
X102880952Y-83679580D02*
X102833333Y-83727200D01*
X102833333Y-83727200D02*
X102690476Y-83774819D01*
X102690476Y-83774819D02*
X102595238Y-83774819D01*
X102595238Y-83774819D02*
X102452381Y-83727200D01*
X102452381Y-83727200D02*
X102357143Y-83631961D01*
X102357143Y-83631961D02*
X102309524Y-83536723D01*
X102309524Y-83536723D02*
X102261905Y-83346247D01*
X102261905Y-83346247D02*
X102261905Y-83203390D01*
X102261905Y-83203390D02*
X102309524Y-83012914D01*
X102309524Y-83012914D02*
X102357143Y-82917676D01*
X102357143Y-82917676D02*
X102452381Y-82822438D01*
X102452381Y-82822438D02*
X102595238Y-82774819D01*
X102595238Y-82774819D02*
X102690476Y-82774819D01*
X102690476Y-82774819D02*
X102833333Y-82822438D01*
X102833333Y-82822438D02*
X102880952Y-82870057D01*
X103738095Y-83108152D02*
X103738095Y-83774819D01*
X103500000Y-82727200D02*
X103261905Y-83441485D01*
X103261905Y-83441485D02*
X103880952Y-83441485D01*
X104214286Y-82870057D02*
X104261905Y-82822438D01*
X104261905Y-82822438D02*
X104357143Y-82774819D01*
X104357143Y-82774819D02*
X104595238Y-82774819D01*
X104595238Y-82774819D02*
X104690476Y-82822438D01*
X104690476Y-82822438D02*
X104738095Y-82870057D01*
X104738095Y-82870057D02*
X104785714Y-82965295D01*
X104785714Y-82965295D02*
X104785714Y-83060533D01*
X104785714Y-83060533D02*
X104738095Y-83203390D01*
X104738095Y-83203390D02*
X104166667Y-83774819D01*
X104166667Y-83774819D02*
X104785714Y-83774819D01*
X105690476Y-82774819D02*
X105214286Y-82774819D01*
X105214286Y-82774819D02*
X105166667Y-83251009D01*
X105166667Y-83251009D02*
X105214286Y-83203390D01*
X105214286Y-83203390D02*
X105309524Y-83155771D01*
X105309524Y-83155771D02*
X105547619Y-83155771D01*
X105547619Y-83155771D02*
X105642857Y-83203390D01*
X105642857Y-83203390D02*
X105690476Y-83251009D01*
X105690476Y-83251009D02*
X105738095Y-83346247D01*
X105738095Y-83346247D02*
X105738095Y-83584342D01*
X105738095Y-83584342D02*
X105690476Y-83679580D01*
X105690476Y-83679580D02*
X105642857Y-83727200D01*
X105642857Y-83727200D02*
X105547619Y-83774819D01*
X105547619Y-83774819D02*
X105309524Y-83774819D01*
X105309524Y-83774819D02*
X105214286Y-83727200D01*
X105214286Y-83727200D02*
X105166667Y-83679580D01*
X110880952Y-97059580D02*
X110833333Y-97107200D01*
X110833333Y-97107200D02*
X110690476Y-97154819D01*
X110690476Y-97154819D02*
X110595238Y-97154819D01*
X110595238Y-97154819D02*
X110452381Y-97107200D01*
X110452381Y-97107200D02*
X110357143Y-97011961D01*
X110357143Y-97011961D02*
X110309524Y-96916723D01*
X110309524Y-96916723D02*
X110261905Y-96726247D01*
X110261905Y-96726247D02*
X110261905Y-96583390D01*
X110261905Y-96583390D02*
X110309524Y-96392914D01*
X110309524Y-96392914D02*
X110357143Y-96297676D01*
X110357143Y-96297676D02*
X110452381Y-96202438D01*
X110452381Y-96202438D02*
X110595238Y-96154819D01*
X110595238Y-96154819D02*
X110690476Y-96154819D01*
X110690476Y-96154819D02*
X110833333Y-96202438D01*
X110833333Y-96202438D02*
X110880952Y-96250057D01*
X111738095Y-96488152D02*
X111738095Y-97154819D01*
X111500000Y-96107200D02*
X111261905Y-96821485D01*
X111261905Y-96821485D02*
X111880952Y-96821485D01*
X112214286Y-96250057D02*
X112261905Y-96202438D01*
X112261905Y-96202438D02*
X112357143Y-96154819D01*
X112357143Y-96154819D02*
X112595238Y-96154819D01*
X112595238Y-96154819D02*
X112690476Y-96202438D01*
X112690476Y-96202438D02*
X112738095Y-96250057D01*
X112738095Y-96250057D02*
X112785714Y-96345295D01*
X112785714Y-96345295D02*
X112785714Y-96440533D01*
X112785714Y-96440533D02*
X112738095Y-96583390D01*
X112738095Y-96583390D02*
X112166667Y-97154819D01*
X112166667Y-97154819D02*
X112785714Y-97154819D01*
X113119048Y-96154819D02*
X113785714Y-96154819D01*
X113785714Y-96154819D02*
X113357143Y-97154819D01*
X132309524Y-90454819D02*
X132309524Y-89454819D01*
X132309524Y-89454819D02*
X132547619Y-89454819D01*
X132547619Y-89454819D02*
X132690476Y-89502438D01*
X132690476Y-89502438D02*
X132785714Y-89597676D01*
X132785714Y-89597676D02*
X132833333Y-89692914D01*
X132833333Y-89692914D02*
X132880952Y-89883390D01*
X132880952Y-89883390D02*
X132880952Y-90026247D01*
X132880952Y-90026247D02*
X132833333Y-90216723D01*
X132833333Y-90216723D02*
X132785714Y-90311961D01*
X132785714Y-90311961D02*
X132690476Y-90407200D01*
X132690476Y-90407200D02*
X132547619Y-90454819D01*
X132547619Y-90454819D02*
X132309524Y-90454819D01*
X133738095Y-89788152D02*
X133738095Y-90454819D01*
X133500000Y-89407200D02*
X133261905Y-90121485D01*
X133261905Y-90121485D02*
X133880952Y-90121485D01*
X134785714Y-90454819D02*
X134214286Y-90454819D01*
X134500000Y-90454819D02*
X134500000Y-89454819D01*
X134500000Y-89454819D02*
X134404762Y-89597676D01*
X134404762Y-89597676D02*
X134309524Y-89692914D01*
X134309524Y-89692914D02*
X134214286Y-89740533D01*
X135738095Y-90454819D02*
X135166667Y-90454819D01*
X135452381Y-90454819D02*
X135452381Y-89454819D01*
X135452381Y-89454819D02*
X135357143Y-89597676D01*
X135357143Y-89597676D02*
X135261905Y-89692914D01*
X135261905Y-89692914D02*
X135166667Y-89740533D01*
X31409524Y-76494819D02*
X31409524Y-75494819D01*
X31409524Y-75494819D02*
X31790476Y-75494819D01*
X31790476Y-75494819D02*
X31885714Y-75542438D01*
X31885714Y-75542438D02*
X31933333Y-75590057D01*
X31933333Y-75590057D02*
X31980952Y-75685295D01*
X31980952Y-75685295D02*
X31980952Y-75828152D01*
X31980952Y-75828152D02*
X31933333Y-75923390D01*
X31933333Y-75923390D02*
X31885714Y-75971009D01*
X31885714Y-75971009D02*
X31790476Y-76018628D01*
X31790476Y-76018628D02*
X31409524Y-76018628D01*
X32838095Y-75828152D02*
X32838095Y-76494819D01*
X32600000Y-75447200D02*
X32361905Y-76161485D01*
X32361905Y-76161485D02*
X32980952Y-76161485D01*
X33552381Y-75494819D02*
X33647619Y-75494819D01*
X33647619Y-75494819D02*
X33742857Y-75542438D01*
X33742857Y-75542438D02*
X33790476Y-75590057D01*
X33790476Y-75590057D02*
X33838095Y-75685295D01*
X33838095Y-75685295D02*
X33885714Y-75875771D01*
X33885714Y-75875771D02*
X33885714Y-76113866D01*
X33885714Y-76113866D02*
X33838095Y-76304342D01*
X33838095Y-76304342D02*
X33790476Y-76399580D01*
X33790476Y-76399580D02*
X33742857Y-76447200D01*
X33742857Y-76447200D02*
X33647619Y-76494819D01*
X33647619Y-76494819D02*
X33552381Y-76494819D01*
X33552381Y-76494819D02*
X33457143Y-76447200D01*
X33457143Y-76447200D02*
X33409524Y-76399580D01*
X33409524Y-76399580D02*
X33361905Y-76304342D01*
X33361905Y-76304342D02*
X33314286Y-76113866D01*
X33314286Y-76113866D02*
X33314286Y-75875771D01*
X33314286Y-75875771D02*
X33361905Y-75685295D01*
X33361905Y-75685295D02*
X33409524Y-75590057D01*
X33409524Y-75590057D02*
X33457143Y-75542438D01*
X33457143Y-75542438D02*
X33552381Y-75494819D01*
X34742857Y-75828152D02*
X34742857Y-76494819D01*
X34504762Y-75447200D02*
X34266667Y-76161485D01*
X34266667Y-76161485D02*
X34885714Y-76161485D01*
X32759524Y-47954819D02*
X32759524Y-46954819D01*
X32759524Y-46954819D02*
X33140476Y-46954819D01*
X33140476Y-46954819D02*
X33235714Y-47002438D01*
X33235714Y-47002438D02*
X33283333Y-47050057D01*
X33283333Y-47050057D02*
X33330952Y-47145295D01*
X33330952Y-47145295D02*
X33330952Y-47288152D01*
X33330952Y-47288152D02*
X33283333Y-47383390D01*
X33283333Y-47383390D02*
X33235714Y-47431009D01*
X33235714Y-47431009D02*
X33140476Y-47478628D01*
X33140476Y-47478628D02*
X32759524Y-47478628D01*
X34188095Y-47288152D02*
X34188095Y-47954819D01*
X33950000Y-46907200D02*
X33711905Y-47621485D01*
X33711905Y-47621485D02*
X34330952Y-47621485D01*
X34902381Y-46954819D02*
X34997619Y-46954819D01*
X34997619Y-46954819D02*
X35092857Y-47002438D01*
X35092857Y-47002438D02*
X35140476Y-47050057D01*
X35140476Y-47050057D02*
X35188095Y-47145295D01*
X35188095Y-47145295D02*
X35235714Y-47335771D01*
X35235714Y-47335771D02*
X35235714Y-47573866D01*
X35235714Y-47573866D02*
X35188095Y-47764342D01*
X35188095Y-47764342D02*
X35140476Y-47859580D01*
X35140476Y-47859580D02*
X35092857Y-47907200D01*
X35092857Y-47907200D02*
X34997619Y-47954819D01*
X34997619Y-47954819D02*
X34902381Y-47954819D01*
X34902381Y-47954819D02*
X34807143Y-47907200D01*
X34807143Y-47907200D02*
X34759524Y-47859580D01*
X34759524Y-47859580D02*
X34711905Y-47764342D01*
X34711905Y-47764342D02*
X34664286Y-47573866D01*
X34664286Y-47573866D02*
X34664286Y-47335771D01*
X34664286Y-47335771D02*
X34711905Y-47145295D01*
X34711905Y-47145295D02*
X34759524Y-47050057D01*
X34759524Y-47050057D02*
X34807143Y-47002438D01*
X34807143Y-47002438D02*
X34902381Y-46954819D01*
X36188095Y-47954819D02*
X35616667Y-47954819D01*
X35902381Y-47954819D02*
X35902381Y-46954819D01*
X35902381Y-46954819D02*
X35807143Y-47097676D01*
X35807143Y-47097676D02*
X35711905Y-47192914D01*
X35711905Y-47192914D02*
X35616667Y-47240533D01*
X116309524Y-90454819D02*
X116309524Y-89454819D01*
X116309524Y-89454819D02*
X116547619Y-89454819D01*
X116547619Y-89454819D02*
X116690476Y-89502438D01*
X116690476Y-89502438D02*
X116785714Y-89597676D01*
X116785714Y-89597676D02*
X116833333Y-89692914D01*
X116833333Y-89692914D02*
X116880952Y-89883390D01*
X116880952Y-89883390D02*
X116880952Y-90026247D01*
X116880952Y-90026247D02*
X116833333Y-90216723D01*
X116833333Y-90216723D02*
X116785714Y-90311961D01*
X116785714Y-90311961D02*
X116690476Y-90407200D01*
X116690476Y-90407200D02*
X116547619Y-90454819D01*
X116547619Y-90454819D02*
X116309524Y-90454819D01*
X117738095Y-89788152D02*
X117738095Y-90454819D01*
X117500000Y-89407200D02*
X117261905Y-90121485D01*
X117261905Y-90121485D02*
X117880952Y-90121485D01*
X118452381Y-89454819D02*
X118547619Y-89454819D01*
X118547619Y-89454819D02*
X118642857Y-89502438D01*
X118642857Y-89502438D02*
X118690476Y-89550057D01*
X118690476Y-89550057D02*
X118738095Y-89645295D01*
X118738095Y-89645295D02*
X118785714Y-89835771D01*
X118785714Y-89835771D02*
X118785714Y-90073866D01*
X118785714Y-90073866D02*
X118738095Y-90264342D01*
X118738095Y-90264342D02*
X118690476Y-90359580D01*
X118690476Y-90359580D02*
X118642857Y-90407200D01*
X118642857Y-90407200D02*
X118547619Y-90454819D01*
X118547619Y-90454819D02*
X118452381Y-90454819D01*
X118452381Y-90454819D02*
X118357143Y-90407200D01*
X118357143Y-90407200D02*
X118309524Y-90359580D01*
X118309524Y-90359580D02*
X118261905Y-90264342D01*
X118261905Y-90264342D02*
X118214286Y-90073866D01*
X118214286Y-90073866D02*
X118214286Y-89835771D01*
X118214286Y-89835771D02*
X118261905Y-89645295D01*
X118261905Y-89645295D02*
X118309524Y-89550057D01*
X118309524Y-89550057D02*
X118357143Y-89502438D01*
X118357143Y-89502438D02*
X118452381Y-89454819D01*
X119119048Y-89454819D02*
X119738095Y-89454819D01*
X119738095Y-89454819D02*
X119404762Y-89835771D01*
X119404762Y-89835771D02*
X119547619Y-89835771D01*
X119547619Y-89835771D02*
X119642857Y-89883390D01*
X119642857Y-89883390D02*
X119690476Y-89931009D01*
X119690476Y-89931009D02*
X119738095Y-90026247D01*
X119738095Y-90026247D02*
X119738095Y-90264342D01*
X119738095Y-90264342D02*
X119690476Y-90359580D01*
X119690476Y-90359580D02*
X119642857Y-90407200D01*
X119642857Y-90407200D02*
X119547619Y-90454819D01*
X119547619Y-90454819D02*
X119261905Y-90454819D01*
X119261905Y-90454819D02*
X119166667Y-90407200D01*
X119166667Y-90407200D02*
X119119048Y-90359580D01*
X56880952Y-38804819D02*
X56547619Y-38328628D01*
X56309524Y-38804819D02*
X56309524Y-37804819D01*
X56309524Y-37804819D02*
X56690476Y-37804819D01*
X56690476Y-37804819D02*
X56785714Y-37852438D01*
X56785714Y-37852438D02*
X56833333Y-37900057D01*
X56833333Y-37900057D02*
X56880952Y-37995295D01*
X56880952Y-37995295D02*
X56880952Y-38138152D01*
X56880952Y-38138152D02*
X56833333Y-38233390D01*
X56833333Y-38233390D02*
X56785714Y-38281009D01*
X56785714Y-38281009D02*
X56690476Y-38328628D01*
X56690476Y-38328628D02*
X56309524Y-38328628D01*
X57738095Y-38138152D02*
X57738095Y-38804819D01*
X57500000Y-37757200D02*
X57261905Y-38471485D01*
X57261905Y-38471485D02*
X57880952Y-38471485D01*
X58452381Y-37804819D02*
X58547619Y-37804819D01*
X58547619Y-37804819D02*
X58642857Y-37852438D01*
X58642857Y-37852438D02*
X58690476Y-37900057D01*
X58690476Y-37900057D02*
X58738095Y-37995295D01*
X58738095Y-37995295D02*
X58785714Y-38185771D01*
X58785714Y-38185771D02*
X58785714Y-38423866D01*
X58785714Y-38423866D02*
X58738095Y-38614342D01*
X58738095Y-38614342D02*
X58690476Y-38709580D01*
X58690476Y-38709580D02*
X58642857Y-38757200D01*
X58642857Y-38757200D02*
X58547619Y-38804819D01*
X58547619Y-38804819D02*
X58452381Y-38804819D01*
X58452381Y-38804819D02*
X58357143Y-38757200D01*
X58357143Y-38757200D02*
X58309524Y-38709580D01*
X58309524Y-38709580D02*
X58261905Y-38614342D01*
X58261905Y-38614342D02*
X58214286Y-38423866D01*
X58214286Y-38423866D02*
X58214286Y-38185771D01*
X58214286Y-38185771D02*
X58261905Y-37995295D01*
X58261905Y-37995295D02*
X58309524Y-37900057D01*
X58309524Y-37900057D02*
X58357143Y-37852438D01*
X58357143Y-37852438D02*
X58452381Y-37804819D01*
X59738095Y-38804819D02*
X59166667Y-38804819D01*
X59452381Y-38804819D02*
X59452381Y-37804819D01*
X59452381Y-37804819D02*
X59357143Y-37947676D01*
X59357143Y-37947676D02*
X59261905Y-38042914D01*
X59261905Y-38042914D02*
X59166667Y-38090533D01*
X102880952Y-50804819D02*
X102547619Y-50328628D01*
X102309524Y-50804819D02*
X102309524Y-49804819D01*
X102309524Y-49804819D02*
X102690476Y-49804819D01*
X102690476Y-49804819D02*
X102785714Y-49852438D01*
X102785714Y-49852438D02*
X102833333Y-49900057D01*
X102833333Y-49900057D02*
X102880952Y-49995295D01*
X102880952Y-49995295D02*
X102880952Y-50138152D01*
X102880952Y-50138152D02*
X102833333Y-50233390D01*
X102833333Y-50233390D02*
X102785714Y-50281009D01*
X102785714Y-50281009D02*
X102690476Y-50328628D01*
X102690476Y-50328628D02*
X102309524Y-50328628D01*
X103738095Y-50138152D02*
X103738095Y-50804819D01*
X103500000Y-49757200D02*
X103261905Y-50471485D01*
X103261905Y-50471485D02*
X103880952Y-50471485D01*
X104452381Y-49804819D02*
X104547619Y-49804819D01*
X104547619Y-49804819D02*
X104642857Y-49852438D01*
X104642857Y-49852438D02*
X104690476Y-49900057D01*
X104690476Y-49900057D02*
X104738095Y-49995295D01*
X104738095Y-49995295D02*
X104785714Y-50185771D01*
X104785714Y-50185771D02*
X104785714Y-50423866D01*
X104785714Y-50423866D02*
X104738095Y-50614342D01*
X104738095Y-50614342D02*
X104690476Y-50709580D01*
X104690476Y-50709580D02*
X104642857Y-50757200D01*
X104642857Y-50757200D02*
X104547619Y-50804819D01*
X104547619Y-50804819D02*
X104452381Y-50804819D01*
X104452381Y-50804819D02*
X104357143Y-50757200D01*
X104357143Y-50757200D02*
X104309524Y-50709580D01*
X104309524Y-50709580D02*
X104261905Y-50614342D01*
X104261905Y-50614342D02*
X104214286Y-50423866D01*
X104214286Y-50423866D02*
X104214286Y-50185771D01*
X104214286Y-50185771D02*
X104261905Y-49995295D01*
X104261905Y-49995295D02*
X104309524Y-49900057D01*
X104309524Y-49900057D02*
X104357143Y-49852438D01*
X104357143Y-49852438D02*
X104452381Y-49804819D01*
X105119048Y-49804819D02*
X105785714Y-49804819D01*
X105785714Y-49804819D02*
X105357143Y-50804819D01*
X163238095Y-110304819D02*
X163238095Y-109304819D01*
X163238095Y-109781009D02*
X163809523Y-109781009D01*
X163809523Y-110304819D02*
X163809523Y-109304819D01*
X164714285Y-109638152D02*
X164714285Y-110304819D01*
X164476190Y-109257200D02*
X164238095Y-109971485D01*
X164238095Y-109971485D02*
X164857142Y-109971485D01*
X116309524Y-97454819D02*
X116309524Y-96454819D01*
X116309524Y-96454819D02*
X116547619Y-96454819D01*
X116547619Y-96454819D02*
X116690476Y-96502438D01*
X116690476Y-96502438D02*
X116785714Y-96597676D01*
X116785714Y-96597676D02*
X116833333Y-96692914D01*
X116833333Y-96692914D02*
X116880952Y-96883390D01*
X116880952Y-96883390D02*
X116880952Y-97026247D01*
X116880952Y-97026247D02*
X116833333Y-97216723D01*
X116833333Y-97216723D02*
X116785714Y-97311961D01*
X116785714Y-97311961D02*
X116690476Y-97407200D01*
X116690476Y-97407200D02*
X116547619Y-97454819D01*
X116547619Y-97454819D02*
X116309524Y-97454819D01*
X117738095Y-96788152D02*
X117738095Y-97454819D01*
X117500000Y-96407200D02*
X117261905Y-97121485D01*
X117261905Y-97121485D02*
X117880952Y-97121485D01*
X118452381Y-96454819D02*
X118547619Y-96454819D01*
X118547619Y-96454819D02*
X118642857Y-96502438D01*
X118642857Y-96502438D02*
X118690476Y-96550057D01*
X118690476Y-96550057D02*
X118738095Y-96645295D01*
X118738095Y-96645295D02*
X118785714Y-96835771D01*
X118785714Y-96835771D02*
X118785714Y-97073866D01*
X118785714Y-97073866D02*
X118738095Y-97264342D01*
X118738095Y-97264342D02*
X118690476Y-97359580D01*
X118690476Y-97359580D02*
X118642857Y-97407200D01*
X118642857Y-97407200D02*
X118547619Y-97454819D01*
X118547619Y-97454819D02*
X118452381Y-97454819D01*
X118452381Y-97454819D02*
X118357143Y-97407200D01*
X118357143Y-97407200D02*
X118309524Y-97359580D01*
X118309524Y-97359580D02*
X118261905Y-97264342D01*
X118261905Y-97264342D02*
X118214286Y-97073866D01*
X118214286Y-97073866D02*
X118214286Y-96835771D01*
X118214286Y-96835771D02*
X118261905Y-96645295D01*
X118261905Y-96645295D02*
X118309524Y-96550057D01*
X118309524Y-96550057D02*
X118357143Y-96502438D01*
X118357143Y-96502438D02*
X118452381Y-96454819D01*
X119642857Y-96788152D02*
X119642857Y-97454819D01*
X119404762Y-96407200D02*
X119166667Y-97121485D01*
X119166667Y-97121485D02*
X119785714Y-97121485D01*
X46880952Y-90059580D02*
X46833333Y-90107200D01*
X46833333Y-90107200D02*
X46690476Y-90154819D01*
X46690476Y-90154819D02*
X46595238Y-90154819D01*
X46595238Y-90154819D02*
X46452381Y-90107200D01*
X46452381Y-90107200D02*
X46357143Y-90011961D01*
X46357143Y-90011961D02*
X46309524Y-89916723D01*
X46309524Y-89916723D02*
X46261905Y-89726247D01*
X46261905Y-89726247D02*
X46261905Y-89583390D01*
X46261905Y-89583390D02*
X46309524Y-89392914D01*
X46309524Y-89392914D02*
X46357143Y-89297676D01*
X46357143Y-89297676D02*
X46452381Y-89202438D01*
X46452381Y-89202438D02*
X46595238Y-89154819D01*
X46595238Y-89154819D02*
X46690476Y-89154819D01*
X46690476Y-89154819D02*
X46833333Y-89202438D01*
X46833333Y-89202438D02*
X46880952Y-89250057D01*
X47738095Y-89488152D02*
X47738095Y-90154819D01*
X47500000Y-89107200D02*
X47261905Y-89821485D01*
X47261905Y-89821485D02*
X47880952Y-89821485D01*
X48214286Y-89250057D02*
X48261905Y-89202438D01*
X48261905Y-89202438D02*
X48357143Y-89154819D01*
X48357143Y-89154819D02*
X48595238Y-89154819D01*
X48595238Y-89154819D02*
X48690476Y-89202438D01*
X48690476Y-89202438D02*
X48738095Y-89250057D01*
X48738095Y-89250057D02*
X48785714Y-89345295D01*
X48785714Y-89345295D02*
X48785714Y-89440533D01*
X48785714Y-89440533D02*
X48738095Y-89583390D01*
X48738095Y-89583390D02*
X48166667Y-90154819D01*
X48166667Y-90154819D02*
X48785714Y-90154819D01*
X49738095Y-90154819D02*
X49166667Y-90154819D01*
X49452381Y-90154819D02*
X49452381Y-89154819D01*
X49452381Y-89154819D02*
X49357143Y-89297676D01*
X49357143Y-89297676D02*
X49261905Y-89392914D01*
X49261905Y-89392914D02*
X49166667Y-89440533D01*
X110880952Y-38804819D02*
X110547619Y-38328628D01*
X110309524Y-38804819D02*
X110309524Y-37804819D01*
X110309524Y-37804819D02*
X110690476Y-37804819D01*
X110690476Y-37804819D02*
X110785714Y-37852438D01*
X110785714Y-37852438D02*
X110833333Y-37900057D01*
X110833333Y-37900057D02*
X110880952Y-37995295D01*
X110880952Y-37995295D02*
X110880952Y-38138152D01*
X110880952Y-38138152D02*
X110833333Y-38233390D01*
X110833333Y-38233390D02*
X110785714Y-38281009D01*
X110785714Y-38281009D02*
X110690476Y-38328628D01*
X110690476Y-38328628D02*
X110309524Y-38328628D01*
X111738095Y-38138152D02*
X111738095Y-38804819D01*
X111500000Y-37757200D02*
X111261905Y-38471485D01*
X111261905Y-38471485D02*
X111880952Y-38471485D01*
X112452381Y-37804819D02*
X112547619Y-37804819D01*
X112547619Y-37804819D02*
X112642857Y-37852438D01*
X112642857Y-37852438D02*
X112690476Y-37900057D01*
X112690476Y-37900057D02*
X112738095Y-37995295D01*
X112738095Y-37995295D02*
X112785714Y-38185771D01*
X112785714Y-38185771D02*
X112785714Y-38423866D01*
X112785714Y-38423866D02*
X112738095Y-38614342D01*
X112738095Y-38614342D02*
X112690476Y-38709580D01*
X112690476Y-38709580D02*
X112642857Y-38757200D01*
X112642857Y-38757200D02*
X112547619Y-38804819D01*
X112547619Y-38804819D02*
X112452381Y-38804819D01*
X112452381Y-38804819D02*
X112357143Y-38757200D01*
X112357143Y-38757200D02*
X112309524Y-38709580D01*
X112309524Y-38709580D02*
X112261905Y-38614342D01*
X112261905Y-38614342D02*
X112214286Y-38423866D01*
X112214286Y-38423866D02*
X112214286Y-38185771D01*
X112214286Y-38185771D02*
X112261905Y-37995295D01*
X112261905Y-37995295D02*
X112309524Y-37900057D01*
X112309524Y-37900057D02*
X112357143Y-37852438D01*
X112357143Y-37852438D02*
X112452381Y-37804819D01*
X113690476Y-37804819D02*
X113214286Y-37804819D01*
X113214286Y-37804819D02*
X113166667Y-38281009D01*
X113166667Y-38281009D02*
X113214286Y-38233390D01*
X113214286Y-38233390D02*
X113309524Y-38185771D01*
X113309524Y-38185771D02*
X113547619Y-38185771D01*
X113547619Y-38185771D02*
X113642857Y-38233390D01*
X113642857Y-38233390D02*
X113690476Y-38281009D01*
X113690476Y-38281009D02*
X113738095Y-38376247D01*
X113738095Y-38376247D02*
X113738095Y-38614342D01*
X113738095Y-38614342D02*
X113690476Y-38709580D01*
X113690476Y-38709580D02*
X113642857Y-38757200D01*
X113642857Y-38757200D02*
X113547619Y-38804819D01*
X113547619Y-38804819D02*
X113309524Y-38804819D01*
X113309524Y-38804819D02*
X113214286Y-38757200D01*
X113214286Y-38757200D02*
X113166667Y-38709580D01*
X148880952Y-104804819D02*
X148547619Y-104328628D01*
X148309524Y-104804819D02*
X148309524Y-103804819D01*
X148309524Y-103804819D02*
X148690476Y-103804819D01*
X148690476Y-103804819D02*
X148785714Y-103852438D01*
X148785714Y-103852438D02*
X148833333Y-103900057D01*
X148833333Y-103900057D02*
X148880952Y-103995295D01*
X148880952Y-103995295D02*
X148880952Y-104138152D01*
X148880952Y-104138152D02*
X148833333Y-104233390D01*
X148833333Y-104233390D02*
X148785714Y-104281009D01*
X148785714Y-104281009D02*
X148690476Y-104328628D01*
X148690476Y-104328628D02*
X148309524Y-104328628D01*
X149738095Y-104138152D02*
X149738095Y-104804819D01*
X149500000Y-103757200D02*
X149261905Y-104471485D01*
X149261905Y-104471485D02*
X149880952Y-104471485D01*
X150214286Y-103900057D02*
X150261905Y-103852438D01*
X150261905Y-103852438D02*
X150357143Y-103804819D01*
X150357143Y-103804819D02*
X150595238Y-103804819D01*
X150595238Y-103804819D02*
X150690476Y-103852438D01*
X150690476Y-103852438D02*
X150738095Y-103900057D01*
X150738095Y-103900057D02*
X150785714Y-103995295D01*
X150785714Y-103995295D02*
X150785714Y-104090533D01*
X150785714Y-104090533D02*
X150738095Y-104233390D01*
X150738095Y-104233390D02*
X150166667Y-104804819D01*
X150166667Y-104804819D02*
X150785714Y-104804819D01*
X151357143Y-104233390D02*
X151261905Y-104185771D01*
X151261905Y-104185771D02*
X151214286Y-104138152D01*
X151214286Y-104138152D02*
X151166667Y-104042914D01*
X151166667Y-104042914D02*
X151166667Y-103995295D01*
X151166667Y-103995295D02*
X151214286Y-103900057D01*
X151214286Y-103900057D02*
X151261905Y-103852438D01*
X151261905Y-103852438D02*
X151357143Y-103804819D01*
X151357143Y-103804819D02*
X151547619Y-103804819D01*
X151547619Y-103804819D02*
X151642857Y-103852438D01*
X151642857Y-103852438D02*
X151690476Y-103900057D01*
X151690476Y-103900057D02*
X151738095Y-103995295D01*
X151738095Y-103995295D02*
X151738095Y-104042914D01*
X151738095Y-104042914D02*
X151690476Y-104138152D01*
X151690476Y-104138152D02*
X151642857Y-104185771D01*
X151642857Y-104185771D02*
X151547619Y-104233390D01*
X151547619Y-104233390D02*
X151357143Y-104233390D01*
X151357143Y-104233390D02*
X151261905Y-104281009D01*
X151261905Y-104281009D02*
X151214286Y-104328628D01*
X151214286Y-104328628D02*
X151166667Y-104423866D01*
X151166667Y-104423866D02*
X151166667Y-104614342D01*
X151166667Y-104614342D02*
X151214286Y-104709580D01*
X151214286Y-104709580D02*
X151261905Y-104757200D01*
X151261905Y-104757200D02*
X151357143Y-104804819D01*
X151357143Y-104804819D02*
X151547619Y-104804819D01*
X151547619Y-104804819D02*
X151642857Y-104757200D01*
X151642857Y-104757200D02*
X151690476Y-104709580D01*
X151690476Y-104709580D02*
X151738095Y-104614342D01*
X151738095Y-104614342D02*
X151738095Y-104423866D01*
X151738095Y-104423866D02*
X151690476Y-104328628D01*
X151690476Y-104328628D02*
X151642857Y-104281009D01*
X151642857Y-104281009D02*
X151547619Y-104233390D01*
X64059524Y-108904819D02*
X64059524Y-107904819D01*
X64059524Y-107904819D02*
X64440476Y-107904819D01*
X64440476Y-107904819D02*
X64535714Y-107952438D01*
X64535714Y-107952438D02*
X64583333Y-108000057D01*
X64583333Y-108000057D02*
X64630952Y-108095295D01*
X64630952Y-108095295D02*
X64630952Y-108238152D01*
X64630952Y-108238152D02*
X64583333Y-108333390D01*
X64583333Y-108333390D02*
X64535714Y-108381009D01*
X64535714Y-108381009D02*
X64440476Y-108428628D01*
X64440476Y-108428628D02*
X64059524Y-108428628D01*
X65488095Y-108238152D02*
X65488095Y-108904819D01*
X65250000Y-107857200D02*
X65011905Y-108571485D01*
X65011905Y-108571485D02*
X65630952Y-108571485D01*
X66202381Y-107904819D02*
X66297619Y-107904819D01*
X66297619Y-107904819D02*
X66392857Y-107952438D01*
X66392857Y-107952438D02*
X66440476Y-108000057D01*
X66440476Y-108000057D02*
X66488095Y-108095295D01*
X66488095Y-108095295D02*
X66535714Y-108285771D01*
X66535714Y-108285771D02*
X66535714Y-108523866D01*
X66535714Y-108523866D02*
X66488095Y-108714342D01*
X66488095Y-108714342D02*
X66440476Y-108809580D01*
X66440476Y-108809580D02*
X66392857Y-108857200D01*
X66392857Y-108857200D02*
X66297619Y-108904819D01*
X66297619Y-108904819D02*
X66202381Y-108904819D01*
X66202381Y-108904819D02*
X66107143Y-108857200D01*
X66107143Y-108857200D02*
X66059524Y-108809580D01*
X66059524Y-108809580D02*
X66011905Y-108714342D01*
X66011905Y-108714342D02*
X65964286Y-108523866D01*
X65964286Y-108523866D02*
X65964286Y-108285771D01*
X65964286Y-108285771D02*
X66011905Y-108095295D01*
X66011905Y-108095295D02*
X66059524Y-108000057D01*
X66059524Y-108000057D02*
X66107143Y-107952438D01*
X66107143Y-107952438D02*
X66202381Y-107904819D01*
X66869048Y-107904819D02*
X67488095Y-107904819D01*
X67488095Y-107904819D02*
X67154762Y-108285771D01*
X67154762Y-108285771D02*
X67297619Y-108285771D01*
X67297619Y-108285771D02*
X67392857Y-108333390D01*
X67392857Y-108333390D02*
X67440476Y-108381009D01*
X67440476Y-108381009D02*
X67488095Y-108476247D01*
X67488095Y-108476247D02*
X67488095Y-108714342D01*
X67488095Y-108714342D02*
X67440476Y-108809580D01*
X67440476Y-108809580D02*
X67392857Y-108857200D01*
X67392857Y-108857200D02*
X67297619Y-108904819D01*
X67297619Y-108904819D02*
X67011905Y-108904819D01*
X67011905Y-108904819D02*
X66916667Y-108857200D01*
X66916667Y-108857200D02*
X66869048Y-108809580D01*
X56880952Y-72679580D02*
X56833333Y-72727200D01*
X56833333Y-72727200D02*
X56690476Y-72774819D01*
X56690476Y-72774819D02*
X56595238Y-72774819D01*
X56595238Y-72774819D02*
X56452381Y-72727200D01*
X56452381Y-72727200D02*
X56357143Y-72631961D01*
X56357143Y-72631961D02*
X56309524Y-72536723D01*
X56309524Y-72536723D02*
X56261905Y-72346247D01*
X56261905Y-72346247D02*
X56261905Y-72203390D01*
X56261905Y-72203390D02*
X56309524Y-72012914D01*
X56309524Y-72012914D02*
X56357143Y-71917676D01*
X56357143Y-71917676D02*
X56452381Y-71822438D01*
X56452381Y-71822438D02*
X56595238Y-71774819D01*
X56595238Y-71774819D02*
X56690476Y-71774819D01*
X56690476Y-71774819D02*
X56833333Y-71822438D01*
X56833333Y-71822438D02*
X56880952Y-71870057D01*
X57785714Y-71774819D02*
X57309524Y-71774819D01*
X57309524Y-71774819D02*
X57261905Y-72251009D01*
X57261905Y-72251009D02*
X57309524Y-72203390D01*
X57309524Y-72203390D02*
X57404762Y-72155771D01*
X57404762Y-72155771D02*
X57642857Y-72155771D01*
X57642857Y-72155771D02*
X57738095Y-72203390D01*
X57738095Y-72203390D02*
X57785714Y-72251009D01*
X57785714Y-72251009D02*
X57833333Y-72346247D01*
X57833333Y-72346247D02*
X57833333Y-72584342D01*
X57833333Y-72584342D02*
X57785714Y-72679580D01*
X57785714Y-72679580D02*
X57738095Y-72727200D01*
X57738095Y-72727200D02*
X57642857Y-72774819D01*
X57642857Y-72774819D02*
X57404762Y-72774819D01*
X57404762Y-72774819D02*
X57309524Y-72727200D01*
X57309524Y-72727200D02*
X57261905Y-72679580D01*
X58309524Y-72774819D02*
X58500000Y-72774819D01*
X58500000Y-72774819D02*
X58595238Y-72727200D01*
X58595238Y-72727200D02*
X58642857Y-72679580D01*
X58642857Y-72679580D02*
X58738095Y-72536723D01*
X58738095Y-72536723D02*
X58785714Y-72346247D01*
X58785714Y-72346247D02*
X58785714Y-71965295D01*
X58785714Y-71965295D02*
X58738095Y-71870057D01*
X58738095Y-71870057D02*
X58690476Y-71822438D01*
X58690476Y-71822438D02*
X58595238Y-71774819D01*
X58595238Y-71774819D02*
X58404762Y-71774819D01*
X58404762Y-71774819D02*
X58309524Y-71822438D01*
X58309524Y-71822438D02*
X58261905Y-71870057D01*
X58261905Y-71870057D02*
X58214286Y-71965295D01*
X58214286Y-71965295D02*
X58214286Y-72203390D01*
X58214286Y-72203390D02*
X58261905Y-72298628D01*
X58261905Y-72298628D02*
X58309524Y-72346247D01*
X58309524Y-72346247D02*
X58404762Y-72393866D01*
X58404762Y-72393866D02*
X58595238Y-72393866D01*
X58595238Y-72393866D02*
X58690476Y-72346247D01*
X58690476Y-72346247D02*
X58738095Y-72298628D01*
X58738095Y-72298628D02*
X58785714Y-72203390D01*
X59642857Y-72108152D02*
X59642857Y-72774819D01*
X59404762Y-71727200D02*
X59166667Y-72441485D01*
X59166667Y-72441485D02*
X59785714Y-72441485D01*
X46880952Y-38059580D02*
X46833333Y-38107200D01*
X46833333Y-38107200D02*
X46690476Y-38154819D01*
X46690476Y-38154819D02*
X46595238Y-38154819D01*
X46595238Y-38154819D02*
X46452381Y-38107200D01*
X46452381Y-38107200D02*
X46357143Y-38011961D01*
X46357143Y-38011961D02*
X46309524Y-37916723D01*
X46309524Y-37916723D02*
X46261905Y-37726247D01*
X46261905Y-37726247D02*
X46261905Y-37583390D01*
X46261905Y-37583390D02*
X46309524Y-37392914D01*
X46309524Y-37392914D02*
X46357143Y-37297676D01*
X46357143Y-37297676D02*
X46452381Y-37202438D01*
X46452381Y-37202438D02*
X46595238Y-37154819D01*
X46595238Y-37154819D02*
X46690476Y-37154819D01*
X46690476Y-37154819D02*
X46833333Y-37202438D01*
X46833333Y-37202438D02*
X46880952Y-37250057D01*
X47738095Y-37488152D02*
X47738095Y-38154819D01*
X47500000Y-37107200D02*
X47261905Y-37821485D01*
X47261905Y-37821485D02*
X47880952Y-37821485D01*
X48452381Y-37154819D02*
X48547619Y-37154819D01*
X48547619Y-37154819D02*
X48642857Y-37202438D01*
X48642857Y-37202438D02*
X48690476Y-37250057D01*
X48690476Y-37250057D02*
X48738095Y-37345295D01*
X48738095Y-37345295D02*
X48785714Y-37535771D01*
X48785714Y-37535771D02*
X48785714Y-37773866D01*
X48785714Y-37773866D02*
X48738095Y-37964342D01*
X48738095Y-37964342D02*
X48690476Y-38059580D01*
X48690476Y-38059580D02*
X48642857Y-38107200D01*
X48642857Y-38107200D02*
X48547619Y-38154819D01*
X48547619Y-38154819D02*
X48452381Y-38154819D01*
X48452381Y-38154819D02*
X48357143Y-38107200D01*
X48357143Y-38107200D02*
X48309524Y-38059580D01*
X48309524Y-38059580D02*
X48261905Y-37964342D01*
X48261905Y-37964342D02*
X48214286Y-37773866D01*
X48214286Y-37773866D02*
X48214286Y-37535771D01*
X48214286Y-37535771D02*
X48261905Y-37345295D01*
X48261905Y-37345295D02*
X48309524Y-37250057D01*
X48309524Y-37250057D02*
X48357143Y-37202438D01*
X48357143Y-37202438D02*
X48452381Y-37154819D01*
X49738095Y-38154819D02*
X49166667Y-38154819D01*
X49452381Y-38154819D02*
X49452381Y-37154819D01*
X49452381Y-37154819D02*
X49357143Y-37297676D01*
X49357143Y-37297676D02*
X49261905Y-37392914D01*
X49261905Y-37392914D02*
X49166667Y-37440533D01*
X132309524Y-65454819D02*
X132309524Y-64454819D01*
X132309524Y-64454819D02*
X132547619Y-64454819D01*
X132547619Y-64454819D02*
X132690476Y-64502438D01*
X132690476Y-64502438D02*
X132785714Y-64597676D01*
X132785714Y-64597676D02*
X132833333Y-64692914D01*
X132833333Y-64692914D02*
X132880952Y-64883390D01*
X132880952Y-64883390D02*
X132880952Y-65026247D01*
X132880952Y-65026247D02*
X132833333Y-65216723D01*
X132833333Y-65216723D02*
X132785714Y-65311961D01*
X132785714Y-65311961D02*
X132690476Y-65407200D01*
X132690476Y-65407200D02*
X132547619Y-65454819D01*
X132547619Y-65454819D02*
X132309524Y-65454819D01*
X133738095Y-64788152D02*
X133738095Y-65454819D01*
X133500000Y-64407200D02*
X133261905Y-65121485D01*
X133261905Y-65121485D02*
X133880952Y-65121485D01*
X134214286Y-64550057D02*
X134261905Y-64502438D01*
X134261905Y-64502438D02*
X134357143Y-64454819D01*
X134357143Y-64454819D02*
X134595238Y-64454819D01*
X134595238Y-64454819D02*
X134690476Y-64502438D01*
X134690476Y-64502438D02*
X134738095Y-64550057D01*
X134738095Y-64550057D02*
X134785714Y-64645295D01*
X134785714Y-64645295D02*
X134785714Y-64740533D01*
X134785714Y-64740533D02*
X134738095Y-64883390D01*
X134738095Y-64883390D02*
X134166667Y-65454819D01*
X134166667Y-65454819D02*
X134785714Y-65454819D01*
X135166667Y-64550057D02*
X135214286Y-64502438D01*
X135214286Y-64502438D02*
X135309524Y-64454819D01*
X135309524Y-64454819D02*
X135547619Y-64454819D01*
X135547619Y-64454819D02*
X135642857Y-64502438D01*
X135642857Y-64502438D02*
X135690476Y-64550057D01*
X135690476Y-64550057D02*
X135738095Y-64645295D01*
X135738095Y-64645295D02*
X135738095Y-64740533D01*
X135738095Y-64740533D02*
X135690476Y-64883390D01*
X135690476Y-64883390D02*
X135119048Y-65454819D01*
X135119048Y-65454819D02*
X135738095Y-65454819D01*
X143809524Y-52644819D02*
X143809524Y-51644819D01*
X144380952Y-52644819D02*
X143952381Y-52073390D01*
X144380952Y-51644819D02*
X143809524Y-52216247D01*
X145238095Y-51978152D02*
X145238095Y-52644819D01*
X145000000Y-51597200D02*
X144761905Y-52311485D01*
X144761905Y-52311485D02*
X145380952Y-52311485D01*
X145952381Y-51644819D02*
X146047619Y-51644819D01*
X146047619Y-51644819D02*
X146142857Y-51692438D01*
X146142857Y-51692438D02*
X146190476Y-51740057D01*
X146190476Y-51740057D02*
X146238095Y-51835295D01*
X146238095Y-51835295D02*
X146285714Y-52025771D01*
X146285714Y-52025771D02*
X146285714Y-52263866D01*
X146285714Y-52263866D02*
X146238095Y-52454342D01*
X146238095Y-52454342D02*
X146190476Y-52549580D01*
X146190476Y-52549580D02*
X146142857Y-52597200D01*
X146142857Y-52597200D02*
X146047619Y-52644819D01*
X146047619Y-52644819D02*
X145952381Y-52644819D01*
X145952381Y-52644819D02*
X145857143Y-52597200D01*
X145857143Y-52597200D02*
X145809524Y-52549580D01*
X145809524Y-52549580D02*
X145761905Y-52454342D01*
X145761905Y-52454342D02*
X145714286Y-52263866D01*
X145714286Y-52263866D02*
X145714286Y-52025771D01*
X145714286Y-52025771D02*
X145761905Y-51835295D01*
X145761905Y-51835295D02*
X145809524Y-51740057D01*
X145809524Y-51740057D02*
X145857143Y-51692438D01*
X145857143Y-51692438D02*
X145952381Y-51644819D01*
X147238095Y-52644819D02*
X146666667Y-52644819D01*
X146952381Y-52644819D02*
X146952381Y-51644819D01*
X146952381Y-51644819D02*
X146857143Y-51787676D01*
X146857143Y-51787676D02*
X146761905Y-51882914D01*
X146761905Y-51882914D02*
X146666667Y-51930533D01*
X132309524Y-58454819D02*
X132309524Y-57454819D01*
X132309524Y-57454819D02*
X132547619Y-57454819D01*
X132547619Y-57454819D02*
X132690476Y-57502438D01*
X132690476Y-57502438D02*
X132785714Y-57597676D01*
X132785714Y-57597676D02*
X132833333Y-57692914D01*
X132833333Y-57692914D02*
X132880952Y-57883390D01*
X132880952Y-57883390D02*
X132880952Y-58026247D01*
X132880952Y-58026247D02*
X132833333Y-58216723D01*
X132833333Y-58216723D02*
X132785714Y-58311961D01*
X132785714Y-58311961D02*
X132690476Y-58407200D01*
X132690476Y-58407200D02*
X132547619Y-58454819D01*
X132547619Y-58454819D02*
X132309524Y-58454819D01*
X133738095Y-57788152D02*
X133738095Y-58454819D01*
X133500000Y-57407200D02*
X133261905Y-58121485D01*
X133261905Y-58121485D02*
X133880952Y-58121485D01*
X134214286Y-57550057D02*
X134261905Y-57502438D01*
X134261905Y-57502438D02*
X134357143Y-57454819D01*
X134357143Y-57454819D02*
X134595238Y-57454819D01*
X134595238Y-57454819D02*
X134690476Y-57502438D01*
X134690476Y-57502438D02*
X134738095Y-57550057D01*
X134738095Y-57550057D02*
X134785714Y-57645295D01*
X134785714Y-57645295D02*
X134785714Y-57740533D01*
X134785714Y-57740533D02*
X134738095Y-57883390D01*
X134738095Y-57883390D02*
X134166667Y-58454819D01*
X134166667Y-58454819D02*
X134785714Y-58454819D01*
X135738095Y-58454819D02*
X135166667Y-58454819D01*
X135452381Y-58454819D02*
X135452381Y-57454819D01*
X135452381Y-57454819D02*
X135357143Y-57597676D01*
X135357143Y-57597676D02*
X135261905Y-57692914D01*
X135261905Y-57692914D02*
X135166667Y-57740533D01*
X132309524Y-45454819D02*
X132309524Y-44454819D01*
X132309524Y-44454819D02*
X132547619Y-44454819D01*
X132547619Y-44454819D02*
X132690476Y-44502438D01*
X132690476Y-44502438D02*
X132785714Y-44597676D01*
X132785714Y-44597676D02*
X132833333Y-44692914D01*
X132833333Y-44692914D02*
X132880952Y-44883390D01*
X132880952Y-44883390D02*
X132880952Y-45026247D01*
X132880952Y-45026247D02*
X132833333Y-45216723D01*
X132833333Y-45216723D02*
X132785714Y-45311961D01*
X132785714Y-45311961D02*
X132690476Y-45407200D01*
X132690476Y-45407200D02*
X132547619Y-45454819D01*
X132547619Y-45454819D02*
X132309524Y-45454819D01*
X133738095Y-44788152D02*
X133738095Y-45454819D01*
X133500000Y-44407200D02*
X133261905Y-45121485D01*
X133261905Y-45121485D02*
X133880952Y-45121485D01*
X134785714Y-45454819D02*
X134214286Y-45454819D01*
X134500000Y-45454819D02*
X134500000Y-44454819D01*
X134500000Y-44454819D02*
X134404762Y-44597676D01*
X134404762Y-44597676D02*
X134309524Y-44692914D01*
X134309524Y-44692914D02*
X134214286Y-44740533D01*
X135404762Y-44454819D02*
X135500000Y-44454819D01*
X135500000Y-44454819D02*
X135595238Y-44502438D01*
X135595238Y-44502438D02*
X135642857Y-44550057D01*
X135642857Y-44550057D02*
X135690476Y-44645295D01*
X135690476Y-44645295D02*
X135738095Y-44835771D01*
X135738095Y-44835771D02*
X135738095Y-45073866D01*
X135738095Y-45073866D02*
X135690476Y-45264342D01*
X135690476Y-45264342D02*
X135642857Y-45359580D01*
X135642857Y-45359580D02*
X135595238Y-45407200D01*
X135595238Y-45407200D02*
X135500000Y-45454819D01*
X135500000Y-45454819D02*
X135404762Y-45454819D01*
X135404762Y-45454819D02*
X135309524Y-45407200D01*
X135309524Y-45407200D02*
X135261905Y-45359580D01*
X135261905Y-45359580D02*
X135214286Y-45264342D01*
X135214286Y-45264342D02*
X135166667Y-45073866D01*
X135166667Y-45073866D02*
X135166667Y-44835771D01*
X135166667Y-44835771D02*
X135214286Y-44645295D01*
X135214286Y-44645295D02*
X135261905Y-44550057D01*
X135261905Y-44550057D02*
X135309524Y-44502438D01*
X135309524Y-44502438D02*
X135404762Y-44454819D01*
X132309524Y-97454819D02*
X132309524Y-96454819D01*
X132309524Y-96454819D02*
X132547619Y-96454819D01*
X132547619Y-96454819D02*
X132690476Y-96502438D01*
X132690476Y-96502438D02*
X132785714Y-96597676D01*
X132785714Y-96597676D02*
X132833333Y-96692914D01*
X132833333Y-96692914D02*
X132880952Y-96883390D01*
X132880952Y-96883390D02*
X132880952Y-97026247D01*
X132880952Y-97026247D02*
X132833333Y-97216723D01*
X132833333Y-97216723D02*
X132785714Y-97311961D01*
X132785714Y-97311961D02*
X132690476Y-97407200D01*
X132690476Y-97407200D02*
X132547619Y-97454819D01*
X132547619Y-97454819D02*
X132309524Y-97454819D01*
X133738095Y-96788152D02*
X133738095Y-97454819D01*
X133500000Y-96407200D02*
X133261905Y-97121485D01*
X133261905Y-97121485D02*
X133880952Y-97121485D01*
X134785714Y-97454819D02*
X134214286Y-97454819D01*
X134500000Y-97454819D02*
X134500000Y-96454819D01*
X134500000Y-96454819D02*
X134404762Y-96597676D01*
X134404762Y-96597676D02*
X134309524Y-96692914D01*
X134309524Y-96692914D02*
X134214286Y-96740533D01*
X135166667Y-96550057D02*
X135214286Y-96502438D01*
X135214286Y-96502438D02*
X135309524Y-96454819D01*
X135309524Y-96454819D02*
X135547619Y-96454819D01*
X135547619Y-96454819D02*
X135642857Y-96502438D01*
X135642857Y-96502438D02*
X135690476Y-96550057D01*
X135690476Y-96550057D02*
X135738095Y-96645295D01*
X135738095Y-96645295D02*
X135738095Y-96740533D01*
X135738095Y-96740533D02*
X135690476Y-96883390D01*
X135690476Y-96883390D02*
X135119048Y-97454819D01*
X135119048Y-97454819D02*
X135738095Y-97454819D01*
X35238095Y-110304819D02*
X35238095Y-109304819D01*
X35238095Y-109781009D02*
X35809523Y-109781009D01*
X35809523Y-110304819D02*
X35809523Y-109304819D01*
X36190476Y-109304819D02*
X36809523Y-109304819D01*
X36809523Y-109304819D02*
X36476190Y-109685771D01*
X36476190Y-109685771D02*
X36619047Y-109685771D01*
X36619047Y-109685771D02*
X36714285Y-109733390D01*
X36714285Y-109733390D02*
X36761904Y-109781009D01*
X36761904Y-109781009D02*
X36809523Y-109876247D01*
X36809523Y-109876247D02*
X36809523Y-110114342D01*
X36809523Y-110114342D02*
X36761904Y-110209580D01*
X36761904Y-110209580D02*
X36714285Y-110257200D01*
X36714285Y-110257200D02*
X36619047Y-110304819D01*
X36619047Y-110304819D02*
X36333333Y-110304819D01*
X36333333Y-110304819D02*
X36238095Y-110257200D01*
X36238095Y-110257200D02*
X36190476Y-110209580D01*
X48880952Y-72679580D02*
X48833333Y-72727200D01*
X48833333Y-72727200D02*
X48690476Y-72774819D01*
X48690476Y-72774819D02*
X48595238Y-72774819D01*
X48595238Y-72774819D02*
X48452381Y-72727200D01*
X48452381Y-72727200D02*
X48357143Y-72631961D01*
X48357143Y-72631961D02*
X48309524Y-72536723D01*
X48309524Y-72536723D02*
X48261905Y-72346247D01*
X48261905Y-72346247D02*
X48261905Y-72203390D01*
X48261905Y-72203390D02*
X48309524Y-72012914D01*
X48309524Y-72012914D02*
X48357143Y-71917676D01*
X48357143Y-71917676D02*
X48452381Y-71822438D01*
X48452381Y-71822438D02*
X48595238Y-71774819D01*
X48595238Y-71774819D02*
X48690476Y-71774819D01*
X48690476Y-71774819D02*
X48833333Y-71822438D01*
X48833333Y-71822438D02*
X48880952Y-71870057D01*
X49785714Y-71774819D02*
X49309524Y-71774819D01*
X49309524Y-71774819D02*
X49261905Y-72251009D01*
X49261905Y-72251009D02*
X49309524Y-72203390D01*
X49309524Y-72203390D02*
X49404762Y-72155771D01*
X49404762Y-72155771D02*
X49642857Y-72155771D01*
X49642857Y-72155771D02*
X49738095Y-72203390D01*
X49738095Y-72203390D02*
X49785714Y-72251009D01*
X49785714Y-72251009D02*
X49833333Y-72346247D01*
X49833333Y-72346247D02*
X49833333Y-72584342D01*
X49833333Y-72584342D02*
X49785714Y-72679580D01*
X49785714Y-72679580D02*
X49738095Y-72727200D01*
X49738095Y-72727200D02*
X49642857Y-72774819D01*
X49642857Y-72774819D02*
X49404762Y-72774819D01*
X49404762Y-72774819D02*
X49309524Y-72727200D01*
X49309524Y-72727200D02*
X49261905Y-72679580D01*
X50309524Y-72774819D02*
X50500000Y-72774819D01*
X50500000Y-72774819D02*
X50595238Y-72727200D01*
X50595238Y-72727200D02*
X50642857Y-72679580D01*
X50642857Y-72679580D02*
X50738095Y-72536723D01*
X50738095Y-72536723D02*
X50785714Y-72346247D01*
X50785714Y-72346247D02*
X50785714Y-71965295D01*
X50785714Y-71965295D02*
X50738095Y-71870057D01*
X50738095Y-71870057D02*
X50690476Y-71822438D01*
X50690476Y-71822438D02*
X50595238Y-71774819D01*
X50595238Y-71774819D02*
X50404762Y-71774819D01*
X50404762Y-71774819D02*
X50309524Y-71822438D01*
X50309524Y-71822438D02*
X50261905Y-71870057D01*
X50261905Y-71870057D02*
X50214286Y-71965295D01*
X50214286Y-71965295D02*
X50214286Y-72203390D01*
X50214286Y-72203390D02*
X50261905Y-72298628D01*
X50261905Y-72298628D02*
X50309524Y-72346247D01*
X50309524Y-72346247D02*
X50404762Y-72393866D01*
X50404762Y-72393866D02*
X50595238Y-72393866D01*
X50595238Y-72393866D02*
X50690476Y-72346247D01*
X50690476Y-72346247D02*
X50738095Y-72298628D01*
X50738095Y-72298628D02*
X50785714Y-72203390D01*
X51119048Y-71774819D02*
X51738095Y-71774819D01*
X51738095Y-71774819D02*
X51404762Y-72155771D01*
X51404762Y-72155771D02*
X51547619Y-72155771D01*
X51547619Y-72155771D02*
X51642857Y-72203390D01*
X51642857Y-72203390D02*
X51690476Y-72251009D01*
X51690476Y-72251009D02*
X51738095Y-72346247D01*
X51738095Y-72346247D02*
X51738095Y-72584342D01*
X51738095Y-72584342D02*
X51690476Y-72679580D01*
X51690476Y-72679580D02*
X51642857Y-72727200D01*
X51642857Y-72727200D02*
X51547619Y-72774819D01*
X51547619Y-72774819D02*
X51261905Y-72774819D01*
X51261905Y-72774819D02*
X51166667Y-72727200D01*
X51166667Y-72727200D02*
X51119048Y-72679580D01*
X124309524Y-45804819D02*
X124309524Y-44804819D01*
X124309524Y-44804819D02*
X124547619Y-44804819D01*
X124547619Y-44804819D02*
X124690476Y-44852438D01*
X124690476Y-44852438D02*
X124785714Y-44947676D01*
X124785714Y-44947676D02*
X124833333Y-45042914D01*
X124833333Y-45042914D02*
X124880952Y-45233390D01*
X124880952Y-45233390D02*
X124880952Y-45376247D01*
X124880952Y-45376247D02*
X124833333Y-45566723D01*
X124833333Y-45566723D02*
X124785714Y-45661961D01*
X124785714Y-45661961D02*
X124690476Y-45757200D01*
X124690476Y-45757200D02*
X124547619Y-45804819D01*
X124547619Y-45804819D02*
X124309524Y-45804819D01*
X125738095Y-45138152D02*
X125738095Y-45804819D01*
X125500000Y-44757200D02*
X125261905Y-45471485D01*
X125261905Y-45471485D02*
X125880952Y-45471485D01*
X126452381Y-44804819D02*
X126547619Y-44804819D01*
X126547619Y-44804819D02*
X126642857Y-44852438D01*
X126642857Y-44852438D02*
X126690476Y-44900057D01*
X126690476Y-44900057D02*
X126738095Y-44995295D01*
X126738095Y-44995295D02*
X126785714Y-45185771D01*
X126785714Y-45185771D02*
X126785714Y-45423866D01*
X126785714Y-45423866D02*
X126738095Y-45614342D01*
X126738095Y-45614342D02*
X126690476Y-45709580D01*
X126690476Y-45709580D02*
X126642857Y-45757200D01*
X126642857Y-45757200D02*
X126547619Y-45804819D01*
X126547619Y-45804819D02*
X126452381Y-45804819D01*
X126452381Y-45804819D02*
X126357143Y-45757200D01*
X126357143Y-45757200D02*
X126309524Y-45709580D01*
X126309524Y-45709580D02*
X126261905Y-45614342D01*
X126261905Y-45614342D02*
X126214286Y-45423866D01*
X126214286Y-45423866D02*
X126214286Y-45185771D01*
X126214286Y-45185771D02*
X126261905Y-44995295D01*
X126261905Y-44995295D02*
X126309524Y-44900057D01*
X126309524Y-44900057D02*
X126357143Y-44852438D01*
X126357143Y-44852438D02*
X126452381Y-44804819D01*
X127642857Y-44804819D02*
X127452381Y-44804819D01*
X127452381Y-44804819D02*
X127357143Y-44852438D01*
X127357143Y-44852438D02*
X127309524Y-44900057D01*
X127309524Y-44900057D02*
X127214286Y-45042914D01*
X127214286Y-45042914D02*
X127166667Y-45233390D01*
X127166667Y-45233390D02*
X127166667Y-45614342D01*
X127166667Y-45614342D02*
X127214286Y-45709580D01*
X127214286Y-45709580D02*
X127261905Y-45757200D01*
X127261905Y-45757200D02*
X127357143Y-45804819D01*
X127357143Y-45804819D02*
X127547619Y-45804819D01*
X127547619Y-45804819D02*
X127642857Y-45757200D01*
X127642857Y-45757200D02*
X127690476Y-45709580D01*
X127690476Y-45709580D02*
X127738095Y-45614342D01*
X127738095Y-45614342D02*
X127738095Y-45376247D01*
X127738095Y-45376247D02*
X127690476Y-45281009D01*
X127690476Y-45281009D02*
X127642857Y-45233390D01*
X127642857Y-45233390D02*
X127547619Y-45185771D01*
X127547619Y-45185771D02*
X127357143Y-45185771D01*
X127357143Y-45185771D02*
X127261905Y-45233390D01*
X127261905Y-45233390D02*
X127214286Y-45281009D01*
X127214286Y-45281009D02*
X127166667Y-45376247D01*
X76880952Y-38059580D02*
X76833333Y-38107200D01*
X76833333Y-38107200D02*
X76690476Y-38154819D01*
X76690476Y-38154819D02*
X76595238Y-38154819D01*
X76595238Y-38154819D02*
X76452381Y-38107200D01*
X76452381Y-38107200D02*
X76357143Y-38011961D01*
X76357143Y-38011961D02*
X76309524Y-37916723D01*
X76309524Y-37916723D02*
X76261905Y-37726247D01*
X76261905Y-37726247D02*
X76261905Y-37583390D01*
X76261905Y-37583390D02*
X76309524Y-37392914D01*
X76309524Y-37392914D02*
X76357143Y-37297676D01*
X76357143Y-37297676D02*
X76452381Y-37202438D01*
X76452381Y-37202438D02*
X76595238Y-37154819D01*
X76595238Y-37154819D02*
X76690476Y-37154819D01*
X76690476Y-37154819D02*
X76833333Y-37202438D01*
X76833333Y-37202438D02*
X76880952Y-37250057D01*
X77738095Y-37488152D02*
X77738095Y-38154819D01*
X77500000Y-37107200D02*
X77261905Y-37821485D01*
X77261905Y-37821485D02*
X77880952Y-37821485D01*
X78452381Y-37154819D02*
X78547619Y-37154819D01*
X78547619Y-37154819D02*
X78642857Y-37202438D01*
X78642857Y-37202438D02*
X78690476Y-37250057D01*
X78690476Y-37250057D02*
X78738095Y-37345295D01*
X78738095Y-37345295D02*
X78785714Y-37535771D01*
X78785714Y-37535771D02*
X78785714Y-37773866D01*
X78785714Y-37773866D02*
X78738095Y-37964342D01*
X78738095Y-37964342D02*
X78690476Y-38059580D01*
X78690476Y-38059580D02*
X78642857Y-38107200D01*
X78642857Y-38107200D02*
X78547619Y-38154819D01*
X78547619Y-38154819D02*
X78452381Y-38154819D01*
X78452381Y-38154819D02*
X78357143Y-38107200D01*
X78357143Y-38107200D02*
X78309524Y-38059580D01*
X78309524Y-38059580D02*
X78261905Y-37964342D01*
X78261905Y-37964342D02*
X78214286Y-37773866D01*
X78214286Y-37773866D02*
X78214286Y-37535771D01*
X78214286Y-37535771D02*
X78261905Y-37345295D01*
X78261905Y-37345295D02*
X78309524Y-37250057D01*
X78309524Y-37250057D02*
X78357143Y-37202438D01*
X78357143Y-37202438D02*
X78452381Y-37154819D01*
X79119048Y-37154819D02*
X79738095Y-37154819D01*
X79738095Y-37154819D02*
X79404762Y-37535771D01*
X79404762Y-37535771D02*
X79547619Y-37535771D01*
X79547619Y-37535771D02*
X79642857Y-37583390D01*
X79642857Y-37583390D02*
X79690476Y-37631009D01*
X79690476Y-37631009D02*
X79738095Y-37726247D01*
X79738095Y-37726247D02*
X79738095Y-37964342D01*
X79738095Y-37964342D02*
X79690476Y-38059580D01*
X79690476Y-38059580D02*
X79642857Y-38107200D01*
X79642857Y-38107200D02*
X79547619Y-38154819D01*
X79547619Y-38154819D02*
X79261905Y-38154819D01*
X79261905Y-38154819D02*
X79166667Y-38107200D01*
X79166667Y-38107200D02*
X79119048Y-38059580D01*
X102880952Y-38679580D02*
X102833333Y-38727200D01*
X102833333Y-38727200D02*
X102690476Y-38774819D01*
X102690476Y-38774819D02*
X102595238Y-38774819D01*
X102595238Y-38774819D02*
X102452381Y-38727200D01*
X102452381Y-38727200D02*
X102357143Y-38631961D01*
X102357143Y-38631961D02*
X102309524Y-38536723D01*
X102309524Y-38536723D02*
X102261905Y-38346247D01*
X102261905Y-38346247D02*
X102261905Y-38203390D01*
X102261905Y-38203390D02*
X102309524Y-38012914D01*
X102309524Y-38012914D02*
X102357143Y-37917676D01*
X102357143Y-37917676D02*
X102452381Y-37822438D01*
X102452381Y-37822438D02*
X102595238Y-37774819D01*
X102595238Y-37774819D02*
X102690476Y-37774819D01*
X102690476Y-37774819D02*
X102833333Y-37822438D01*
X102833333Y-37822438D02*
X102880952Y-37870057D01*
X103738095Y-38108152D02*
X103738095Y-38774819D01*
X103500000Y-37727200D02*
X103261905Y-38441485D01*
X103261905Y-38441485D02*
X103880952Y-38441485D01*
X104452381Y-37774819D02*
X104547619Y-37774819D01*
X104547619Y-37774819D02*
X104642857Y-37822438D01*
X104642857Y-37822438D02*
X104690476Y-37870057D01*
X104690476Y-37870057D02*
X104738095Y-37965295D01*
X104738095Y-37965295D02*
X104785714Y-38155771D01*
X104785714Y-38155771D02*
X104785714Y-38393866D01*
X104785714Y-38393866D02*
X104738095Y-38584342D01*
X104738095Y-38584342D02*
X104690476Y-38679580D01*
X104690476Y-38679580D02*
X104642857Y-38727200D01*
X104642857Y-38727200D02*
X104547619Y-38774819D01*
X104547619Y-38774819D02*
X104452381Y-38774819D01*
X104452381Y-38774819D02*
X104357143Y-38727200D01*
X104357143Y-38727200D02*
X104309524Y-38679580D01*
X104309524Y-38679580D02*
X104261905Y-38584342D01*
X104261905Y-38584342D02*
X104214286Y-38393866D01*
X104214286Y-38393866D02*
X104214286Y-38155771D01*
X104214286Y-38155771D02*
X104261905Y-37965295D01*
X104261905Y-37965295D02*
X104309524Y-37870057D01*
X104309524Y-37870057D02*
X104357143Y-37822438D01*
X104357143Y-37822438D02*
X104452381Y-37774819D01*
X105690476Y-37774819D02*
X105214286Y-37774819D01*
X105214286Y-37774819D02*
X105166667Y-38251009D01*
X105166667Y-38251009D02*
X105214286Y-38203390D01*
X105214286Y-38203390D02*
X105309524Y-38155771D01*
X105309524Y-38155771D02*
X105547619Y-38155771D01*
X105547619Y-38155771D02*
X105642857Y-38203390D01*
X105642857Y-38203390D02*
X105690476Y-38251009D01*
X105690476Y-38251009D02*
X105738095Y-38346247D01*
X105738095Y-38346247D02*
X105738095Y-38584342D01*
X105738095Y-38584342D02*
X105690476Y-38679580D01*
X105690476Y-38679580D02*
X105642857Y-38727200D01*
X105642857Y-38727200D02*
X105547619Y-38774819D01*
X105547619Y-38774819D02*
X105309524Y-38774819D01*
X105309524Y-38774819D02*
X105214286Y-38727200D01*
X105214286Y-38727200D02*
X105166667Y-38679580D01*
X66285714Y-60174819D02*
X66285714Y-60984342D01*
X66285714Y-60984342D02*
X66333333Y-61079580D01*
X66333333Y-61079580D02*
X66380952Y-61127200D01*
X66380952Y-61127200D02*
X66476190Y-61174819D01*
X66476190Y-61174819D02*
X66666666Y-61174819D01*
X66666666Y-61174819D02*
X66761904Y-61127200D01*
X66761904Y-61127200D02*
X66809523Y-61079580D01*
X66809523Y-61079580D02*
X66857142Y-60984342D01*
X66857142Y-60984342D02*
X66857142Y-60174819D01*
X67761904Y-60508152D02*
X67761904Y-61174819D01*
X67523809Y-60127200D02*
X67285714Y-60841485D01*
X67285714Y-60841485D02*
X67904761Y-60841485D01*
X68476190Y-60174819D02*
X68571428Y-60174819D01*
X68571428Y-60174819D02*
X68666666Y-60222438D01*
X68666666Y-60222438D02*
X68714285Y-60270057D01*
X68714285Y-60270057D02*
X68761904Y-60365295D01*
X68761904Y-60365295D02*
X68809523Y-60555771D01*
X68809523Y-60555771D02*
X68809523Y-60793866D01*
X68809523Y-60793866D02*
X68761904Y-60984342D01*
X68761904Y-60984342D02*
X68714285Y-61079580D01*
X68714285Y-61079580D02*
X68666666Y-61127200D01*
X68666666Y-61127200D02*
X68571428Y-61174819D01*
X68571428Y-61174819D02*
X68476190Y-61174819D01*
X68476190Y-61174819D02*
X68380952Y-61127200D01*
X68380952Y-61127200D02*
X68333333Y-61079580D01*
X68333333Y-61079580D02*
X68285714Y-60984342D01*
X68285714Y-60984342D02*
X68238095Y-60793866D01*
X68238095Y-60793866D02*
X68238095Y-60555771D01*
X68238095Y-60555771D02*
X68285714Y-60365295D01*
X68285714Y-60365295D02*
X68333333Y-60270057D01*
X68333333Y-60270057D02*
X68380952Y-60222438D01*
X68380952Y-60222438D02*
X68476190Y-60174819D01*
X69761904Y-61174819D02*
X69190476Y-61174819D01*
X69476190Y-61174819D02*
X69476190Y-60174819D01*
X69476190Y-60174819D02*
X69380952Y-60317676D01*
X69380952Y-60317676D02*
X69285714Y-60412914D01*
X69285714Y-60412914D02*
X69190476Y-60460533D01*
X132309524Y-38454819D02*
X132309524Y-37454819D01*
X132309524Y-37454819D02*
X132547619Y-37454819D01*
X132547619Y-37454819D02*
X132690476Y-37502438D01*
X132690476Y-37502438D02*
X132785714Y-37597676D01*
X132785714Y-37597676D02*
X132833333Y-37692914D01*
X132833333Y-37692914D02*
X132880952Y-37883390D01*
X132880952Y-37883390D02*
X132880952Y-38026247D01*
X132880952Y-38026247D02*
X132833333Y-38216723D01*
X132833333Y-38216723D02*
X132785714Y-38311961D01*
X132785714Y-38311961D02*
X132690476Y-38407200D01*
X132690476Y-38407200D02*
X132547619Y-38454819D01*
X132547619Y-38454819D02*
X132309524Y-38454819D01*
X133738095Y-37788152D02*
X133738095Y-38454819D01*
X133500000Y-37407200D02*
X133261905Y-38121485D01*
X133261905Y-38121485D02*
X133880952Y-38121485D01*
X134452381Y-37454819D02*
X134547619Y-37454819D01*
X134547619Y-37454819D02*
X134642857Y-37502438D01*
X134642857Y-37502438D02*
X134690476Y-37550057D01*
X134690476Y-37550057D02*
X134738095Y-37645295D01*
X134738095Y-37645295D02*
X134785714Y-37835771D01*
X134785714Y-37835771D02*
X134785714Y-38073866D01*
X134785714Y-38073866D02*
X134738095Y-38264342D01*
X134738095Y-38264342D02*
X134690476Y-38359580D01*
X134690476Y-38359580D02*
X134642857Y-38407200D01*
X134642857Y-38407200D02*
X134547619Y-38454819D01*
X134547619Y-38454819D02*
X134452381Y-38454819D01*
X134452381Y-38454819D02*
X134357143Y-38407200D01*
X134357143Y-38407200D02*
X134309524Y-38359580D01*
X134309524Y-38359580D02*
X134261905Y-38264342D01*
X134261905Y-38264342D02*
X134214286Y-38073866D01*
X134214286Y-38073866D02*
X134214286Y-37835771D01*
X134214286Y-37835771D02*
X134261905Y-37645295D01*
X134261905Y-37645295D02*
X134309524Y-37550057D01*
X134309524Y-37550057D02*
X134357143Y-37502438D01*
X134357143Y-37502438D02*
X134452381Y-37454819D01*
X135261905Y-38454819D02*
X135452381Y-38454819D01*
X135452381Y-38454819D02*
X135547619Y-38407200D01*
X135547619Y-38407200D02*
X135595238Y-38359580D01*
X135595238Y-38359580D02*
X135690476Y-38216723D01*
X135690476Y-38216723D02*
X135738095Y-38026247D01*
X135738095Y-38026247D02*
X135738095Y-37645295D01*
X135738095Y-37645295D02*
X135690476Y-37550057D01*
X135690476Y-37550057D02*
X135642857Y-37502438D01*
X135642857Y-37502438D02*
X135547619Y-37454819D01*
X135547619Y-37454819D02*
X135357143Y-37454819D01*
X135357143Y-37454819D02*
X135261905Y-37502438D01*
X135261905Y-37502438D02*
X135214286Y-37550057D01*
X135214286Y-37550057D02*
X135166667Y-37645295D01*
X135166667Y-37645295D02*
X135166667Y-37883390D01*
X135166667Y-37883390D02*
X135214286Y-37978628D01*
X135214286Y-37978628D02*
X135261905Y-38026247D01*
X135261905Y-38026247D02*
X135357143Y-38073866D01*
X135357143Y-38073866D02*
X135547619Y-38073866D01*
X135547619Y-38073866D02*
X135642857Y-38026247D01*
X135642857Y-38026247D02*
X135690476Y-37978628D01*
X135690476Y-37978628D02*
X135738095Y-37883390D01*
X94880952Y-38804819D02*
X94547619Y-38328628D01*
X94309524Y-38804819D02*
X94309524Y-37804819D01*
X94309524Y-37804819D02*
X94690476Y-37804819D01*
X94690476Y-37804819D02*
X94785714Y-37852438D01*
X94785714Y-37852438D02*
X94833333Y-37900057D01*
X94833333Y-37900057D02*
X94880952Y-37995295D01*
X94880952Y-37995295D02*
X94880952Y-38138152D01*
X94880952Y-38138152D02*
X94833333Y-38233390D01*
X94833333Y-38233390D02*
X94785714Y-38281009D01*
X94785714Y-38281009D02*
X94690476Y-38328628D01*
X94690476Y-38328628D02*
X94309524Y-38328628D01*
X95738095Y-38138152D02*
X95738095Y-38804819D01*
X95500000Y-37757200D02*
X95261905Y-38471485D01*
X95261905Y-38471485D02*
X95880952Y-38471485D01*
X96452381Y-37804819D02*
X96547619Y-37804819D01*
X96547619Y-37804819D02*
X96642857Y-37852438D01*
X96642857Y-37852438D02*
X96690476Y-37900057D01*
X96690476Y-37900057D02*
X96738095Y-37995295D01*
X96738095Y-37995295D02*
X96785714Y-38185771D01*
X96785714Y-38185771D02*
X96785714Y-38423866D01*
X96785714Y-38423866D02*
X96738095Y-38614342D01*
X96738095Y-38614342D02*
X96690476Y-38709580D01*
X96690476Y-38709580D02*
X96642857Y-38757200D01*
X96642857Y-38757200D02*
X96547619Y-38804819D01*
X96547619Y-38804819D02*
X96452381Y-38804819D01*
X96452381Y-38804819D02*
X96357143Y-38757200D01*
X96357143Y-38757200D02*
X96309524Y-38709580D01*
X96309524Y-38709580D02*
X96261905Y-38614342D01*
X96261905Y-38614342D02*
X96214286Y-38423866D01*
X96214286Y-38423866D02*
X96214286Y-38185771D01*
X96214286Y-38185771D02*
X96261905Y-37995295D01*
X96261905Y-37995295D02*
X96309524Y-37900057D01*
X96309524Y-37900057D02*
X96357143Y-37852438D01*
X96357143Y-37852438D02*
X96452381Y-37804819D01*
X97642857Y-38138152D02*
X97642857Y-38804819D01*
X97404762Y-37757200D02*
X97166667Y-38471485D01*
X97166667Y-38471485D02*
X97785714Y-38471485D01*
X90285714Y-60174819D02*
X90285714Y-60984342D01*
X90285714Y-60984342D02*
X90333333Y-61079580D01*
X90333333Y-61079580D02*
X90380952Y-61127200D01*
X90380952Y-61127200D02*
X90476190Y-61174819D01*
X90476190Y-61174819D02*
X90666666Y-61174819D01*
X90666666Y-61174819D02*
X90761904Y-61127200D01*
X90761904Y-61127200D02*
X90809523Y-61079580D01*
X90809523Y-61079580D02*
X90857142Y-60984342D01*
X90857142Y-60984342D02*
X90857142Y-60174819D01*
X91761904Y-60508152D02*
X91761904Y-61174819D01*
X91523809Y-60127200D02*
X91285714Y-60841485D01*
X91285714Y-60841485D02*
X91904761Y-60841485D01*
X92476190Y-60174819D02*
X92571428Y-60174819D01*
X92571428Y-60174819D02*
X92666666Y-60222438D01*
X92666666Y-60222438D02*
X92714285Y-60270057D01*
X92714285Y-60270057D02*
X92761904Y-60365295D01*
X92761904Y-60365295D02*
X92809523Y-60555771D01*
X92809523Y-60555771D02*
X92809523Y-60793866D01*
X92809523Y-60793866D02*
X92761904Y-60984342D01*
X92761904Y-60984342D02*
X92714285Y-61079580D01*
X92714285Y-61079580D02*
X92666666Y-61127200D01*
X92666666Y-61127200D02*
X92571428Y-61174819D01*
X92571428Y-61174819D02*
X92476190Y-61174819D01*
X92476190Y-61174819D02*
X92380952Y-61127200D01*
X92380952Y-61127200D02*
X92333333Y-61079580D01*
X92333333Y-61079580D02*
X92285714Y-60984342D01*
X92285714Y-60984342D02*
X92238095Y-60793866D01*
X92238095Y-60793866D02*
X92238095Y-60555771D01*
X92238095Y-60555771D02*
X92285714Y-60365295D01*
X92285714Y-60365295D02*
X92333333Y-60270057D01*
X92333333Y-60270057D02*
X92380952Y-60222438D01*
X92380952Y-60222438D02*
X92476190Y-60174819D01*
X93190476Y-60270057D02*
X93238095Y-60222438D01*
X93238095Y-60222438D02*
X93333333Y-60174819D01*
X93333333Y-60174819D02*
X93571428Y-60174819D01*
X93571428Y-60174819D02*
X93666666Y-60222438D01*
X93666666Y-60222438D02*
X93714285Y-60270057D01*
X93714285Y-60270057D02*
X93761904Y-60365295D01*
X93761904Y-60365295D02*
X93761904Y-60460533D01*
X93761904Y-60460533D02*
X93714285Y-60603390D01*
X93714285Y-60603390D02*
X93142857Y-61174819D01*
X93142857Y-61174819D02*
X93761904Y-61174819D01*
X94880952Y-83804819D02*
X94547619Y-83328628D01*
X94309524Y-83804819D02*
X94309524Y-82804819D01*
X94309524Y-82804819D02*
X94690476Y-82804819D01*
X94690476Y-82804819D02*
X94785714Y-82852438D01*
X94785714Y-82852438D02*
X94833333Y-82900057D01*
X94833333Y-82900057D02*
X94880952Y-82995295D01*
X94880952Y-82995295D02*
X94880952Y-83138152D01*
X94880952Y-83138152D02*
X94833333Y-83233390D01*
X94833333Y-83233390D02*
X94785714Y-83281009D01*
X94785714Y-83281009D02*
X94690476Y-83328628D01*
X94690476Y-83328628D02*
X94309524Y-83328628D01*
X95738095Y-83138152D02*
X95738095Y-83804819D01*
X95500000Y-82757200D02*
X95261905Y-83471485D01*
X95261905Y-83471485D02*
X95880952Y-83471485D01*
X96214286Y-82900057D02*
X96261905Y-82852438D01*
X96261905Y-82852438D02*
X96357143Y-82804819D01*
X96357143Y-82804819D02*
X96595238Y-82804819D01*
X96595238Y-82804819D02*
X96690476Y-82852438D01*
X96690476Y-82852438D02*
X96738095Y-82900057D01*
X96738095Y-82900057D02*
X96785714Y-82995295D01*
X96785714Y-82995295D02*
X96785714Y-83090533D01*
X96785714Y-83090533D02*
X96738095Y-83233390D01*
X96738095Y-83233390D02*
X96166667Y-83804819D01*
X96166667Y-83804819D02*
X96785714Y-83804819D01*
X97642857Y-83138152D02*
X97642857Y-83804819D01*
X97404762Y-82757200D02*
X97166667Y-83471485D01*
X97166667Y-83471485D02*
X97785714Y-83471485D01*
%TO.C,D402*%
D11*
X115640000Y-46000000D02*
X115640000Y-48000000D01*
X115640000Y-46000000D02*
X119650000Y-46000000D01*
X115640000Y-48000000D02*
X119650000Y-48000000D01*
%TO.C,R426*%
X87772936Y-98265000D02*
X88227064Y-98265000D01*
X87772936Y-99735000D02*
X88227064Y-99735000D01*
%TO.C,R432*%
X133772936Y-73265000D02*
X134227064Y-73265000D01*
X133772936Y-74735000D02*
X134227064Y-74735000D01*
%TO.C,C592*%
X57738748Y-67265000D02*
X58261252Y-67265000D01*
X57738748Y-68735000D02*
X58261252Y-68735000D01*
%TO.C,D405*%
X124315000Y-39040000D02*
X124315000Y-40960000D01*
X124315000Y-40960000D02*
X127000000Y-40960000D01*
X127000000Y-39040000D02*
X124315000Y-39040000D01*
%TO.C,R403*%
X87772936Y-39265000D02*
X88227064Y-39265000D01*
X87772936Y-40735000D02*
X88227064Y-40735000D01*
%TO.C,D408*%
X124315000Y-98040000D02*
X124315000Y-99960000D01*
X124315000Y-99960000D02*
X127000000Y-99960000D01*
X127000000Y-98040000D02*
X124315000Y-98040000D01*
%TO.C,K402*%
X146450000Y-75540000D02*
X146450000Y-74330000D01*
X146600000Y-65000000D02*
X146600000Y-75380000D01*
X146600000Y-71700000D02*
X147640000Y-71700000D01*
X146600000Y-75380000D02*
X167190000Y-75380000D01*
X147660000Y-68700000D02*
X146600000Y-68700000D01*
X147660000Y-71700000D02*
X147660000Y-68700000D01*
X147750000Y-75540000D02*
X146450000Y-75540000D01*
X147810000Y-69830000D02*
X147810000Y-70530000D01*
X147810000Y-70530000D02*
X149010000Y-70530000D01*
X148440000Y-69830000D02*
X148440000Y-68730000D01*
X148440000Y-70530000D02*
X148440000Y-71630000D01*
X148610000Y-70530000D02*
X148210000Y-69830000D01*
X149010000Y-69830000D02*
X147810000Y-69830000D01*
X149010000Y-70530000D02*
X149010000Y-69830000D01*
X167190000Y-65000000D02*
X146600000Y-65000000D01*
X167190000Y-75380000D02*
X167190000Y-65000000D01*
%TO.C,C423*%
X77288748Y-90640000D02*
X78711252Y-90640000D01*
X77288748Y-93360000D02*
X78711252Y-93360000D01*
%TO.C,C591*%
X49738748Y-67265000D02*
X50261252Y-67265000D01*
X49738748Y-68735000D02*
X50261252Y-68735000D01*
%TO.C,R402*%
X67772936Y-39265000D02*
X68227064Y-39265000D01*
X67772936Y-40735000D02*
X68227064Y-40735000D01*
%TO.C,R422*%
X67772936Y-91265000D02*
X68227064Y-91265000D01*
X67772936Y-92735000D02*
X68227064Y-92735000D01*
%TO.C,D407*%
X124315000Y-91040000D02*
X124315000Y-92960000D01*
X124315000Y-92960000D02*
X127000000Y-92960000D01*
X127000000Y-91040000D02*
X124315000Y-91040000D01*
%TO.C,P405*%
X105150000Y-109250000D02*
X105150000Y-110500000D01*
X105450000Y-111800000D02*
X106200000Y-111800000D01*
X106200000Y-111800000D02*
X106200000Y-114750000D01*
X106200000Y-114750000D02*
X121750000Y-114750000D01*
X106400000Y-109250000D02*
X105150000Y-109250000D01*
X137300000Y-111800000D02*
X137300000Y-114750000D01*
X137300000Y-114750000D02*
X121750000Y-114750000D01*
X138050000Y-111800000D02*
X137300000Y-111800000D01*
X105440000Y-109540000D02*
X138060000Y-109540000D01*
X138060000Y-115510000D01*
X105440000Y-115510000D01*
X105440000Y-109540000D01*
X105450000Y-109550000D02*
X107250000Y-109550000D01*
X107250000Y-110300000D01*
X105450000Y-110300000D01*
X105450000Y-109550000D01*
X108750000Y-109550000D02*
X134750000Y-109550000D01*
X134750000Y-110300000D01*
X108750000Y-110300000D01*
X108750000Y-109550000D01*
X136250000Y-109550000D02*
X138050000Y-109550000D01*
X138050000Y-110300000D01*
X136250000Y-110300000D01*
X136250000Y-109550000D01*
%TO.C,R427*%
X103772936Y-98265000D02*
X104227064Y-98265000D01*
X103772936Y-99735000D02*
X104227064Y-99735000D01*
%TO.C,D401*%
X115640000Y-39000000D02*
X115640000Y-41000000D01*
X115640000Y-39000000D02*
X119650000Y-39000000D01*
X115640000Y-41000000D02*
X119650000Y-41000000D01*
%TO.C,C406*%
X95288748Y-50640000D02*
X96711252Y-50640000D01*
X95288748Y-53360000D02*
X96711252Y-53360000D01*
%TO.C,C426*%
X95288748Y-97640000D02*
X96711252Y-97640000D01*
X95288748Y-100360000D02*
X96711252Y-100360000D01*
%TO.C,P402*%
X159250000Y-100200000D02*
X159250000Y-104500000D01*
X159250000Y-108800000D02*
X159250000Y-104500000D01*
X162200000Y-99450000D02*
X162200000Y-100200000D01*
X162200000Y-100200000D02*
X159250000Y-100200000D01*
X162200000Y-108800000D02*
X159250000Y-108800000D01*
X162200000Y-109550000D02*
X162200000Y-108800000D01*
X164750000Y-99150000D02*
X163500000Y-99150000D01*
X164750000Y-100400000D02*
X164750000Y-99150000D01*
X163700000Y-99450000D02*
X164450000Y-99450000D01*
X164450000Y-101250000D01*
X163700000Y-101250000D01*
X163700000Y-99450000D01*
X163700000Y-102750000D02*
X164450000Y-102750000D01*
X164450000Y-106250000D01*
X163700000Y-106250000D01*
X163700000Y-102750000D01*
X163700000Y-107750000D02*
X164450000Y-107750000D01*
X164450000Y-109550000D01*
X163700000Y-109550000D01*
X163700000Y-107750000D01*
X158490000Y-99440000D02*
X164460000Y-99440000D01*
X164460000Y-109560000D01*
X158490000Y-109560000D01*
X158490000Y-99440000D01*
%TO.C,R423*%
X87772936Y-84265000D02*
X88227064Y-84265000D01*
X87772936Y-85735000D02*
X88227064Y-85735000D01*
%TO.C,R421*%
X57772936Y-91265000D02*
X58227064Y-91265000D01*
X57772936Y-92735000D02*
X58227064Y-92735000D01*
%TO.C,C407*%
X111288748Y-50640000D02*
X112711252Y-50640000D01*
X111288748Y-53360000D02*
X112711252Y-53360000D01*
%TO.C,C595*%
X49288748Y-56640000D02*
X50711252Y-56640000D01*
X49288748Y-59360000D02*
X50711252Y-59360000D01*
%TO.C,R406*%
X87772936Y-51265000D02*
X88227064Y-51265000D01*
X87772936Y-52735000D02*
X88227064Y-52735000D01*
%TO.C,C596*%
X57288748Y-56640000D02*
X58711252Y-56640000D01*
X57288748Y-59360000D02*
X58711252Y-59360000D01*
%TO.C,R425*%
X111772936Y-84265000D02*
X112227064Y-84265000D01*
X111772936Y-85735000D02*
X112227064Y-85735000D01*
%TO.C,K403*%
X146450000Y-93540000D02*
X146450000Y-92330000D01*
X146600000Y-83000000D02*
X146600000Y-93380000D01*
X146600000Y-89700000D02*
X147640000Y-89700000D01*
X146600000Y-93380000D02*
X167190000Y-93380000D01*
X147660000Y-86700000D02*
X146600000Y-86700000D01*
X147660000Y-89700000D02*
X147660000Y-86700000D01*
X147750000Y-93540000D02*
X146450000Y-93540000D01*
X147810000Y-87830000D02*
X147810000Y-88530000D01*
X147810000Y-88530000D02*
X149010000Y-88530000D01*
X148440000Y-87830000D02*
X148440000Y-86730000D01*
X148440000Y-88530000D02*
X148440000Y-89630000D01*
X148610000Y-88530000D02*
X148210000Y-87830000D01*
X149010000Y-87830000D02*
X147810000Y-87830000D01*
X149010000Y-88530000D02*
X149010000Y-87830000D01*
X167190000Y-83000000D02*
X146600000Y-83000000D01*
X167190000Y-93380000D02*
X167190000Y-83000000D01*
%TO.C,R408*%
X155772936Y-39265000D02*
X156227064Y-39265000D01*
X155772936Y-40735000D02*
X156227064Y-40735000D01*
%TO.C,C425*%
X103738748Y-84265000D02*
X104261252Y-84265000D01*
X103738748Y-85735000D02*
X104261252Y-85735000D01*
%TO.C,C427*%
X111288748Y-97640000D02*
X112711252Y-97640000D01*
X111288748Y-100360000D02*
X112711252Y-100360000D01*
%TO.C,D411*%
X131640000Y-91000000D02*
X131640000Y-93000000D01*
X131640000Y-91000000D02*
X135650000Y-91000000D01*
X131640000Y-93000000D02*
X135650000Y-93000000D01*
%TO.C,P404*%
X34190000Y-71220000D02*
X35890000Y-71220000D01*
X34190000Y-80860000D02*
X34190000Y-71220000D01*
X35890000Y-70020000D02*
X42910000Y-70020000D01*
X35890000Y-71220000D02*
X35890000Y-70020000D01*
X35890000Y-80860000D02*
X34190000Y-80860000D01*
X35890000Y-82060000D02*
X35890000Y-80860000D01*
X37700000Y-82860000D02*
X38000000Y-82260000D01*
X38000000Y-82260000D02*
X38300000Y-82860000D01*
X38300000Y-82860000D02*
X37700000Y-82860000D01*
X42910000Y-70020000D02*
X42910000Y-82060000D01*
X42910000Y-82060000D02*
X35890000Y-82060000D01*
%TO.C,P401*%
X35250000Y-51600000D02*
X35250000Y-52850000D01*
X35250000Y-52850000D02*
X36500000Y-52850000D01*
X37800000Y-42450000D02*
X37800000Y-43200000D01*
X37800000Y-43200000D02*
X40750000Y-43200000D01*
X37800000Y-51800000D02*
X40750000Y-51800000D01*
X37800000Y-52550000D02*
X37800000Y-51800000D01*
X40750000Y-43200000D02*
X40750000Y-47500000D01*
X40750000Y-51800000D02*
X40750000Y-47500000D01*
X35540000Y-42440000D02*
X41510000Y-42440000D01*
X41510000Y-52560000D01*
X35540000Y-52560000D01*
X35540000Y-42440000D01*
X35550000Y-42450000D02*
X36300000Y-42450000D01*
X36300000Y-44250000D01*
X35550000Y-44250000D01*
X35550000Y-42450000D01*
X35550000Y-45750000D02*
X36300000Y-45750000D01*
X36300000Y-49250000D01*
X35550000Y-49250000D01*
X35550000Y-45750000D01*
X35550000Y-50750000D02*
X36300000Y-50750000D01*
X36300000Y-52550000D01*
X35550000Y-52550000D01*
X35550000Y-50750000D01*
%TO.C,D403*%
X115640000Y-91000000D02*
X115640000Y-93000000D01*
X115640000Y-91000000D02*
X119650000Y-91000000D01*
X115640000Y-93000000D02*
X119650000Y-93000000D01*
%TO.C,R401*%
X57772936Y-39265000D02*
X58227064Y-39265000D01*
X57772936Y-40735000D02*
X58227064Y-40735000D01*
%TO.C,R407*%
X103772936Y-51265000D02*
X104227064Y-51265000D01*
X103772936Y-52735000D02*
X104227064Y-52735000D01*
%TO.C,D404*%
X115640000Y-98000000D02*
X115640000Y-100000000D01*
X115640000Y-98000000D02*
X119650000Y-98000000D01*
X115640000Y-100000000D02*
X119650000Y-100000000D01*
%TO.C,C421*%
X47288748Y-90640000D02*
X48711252Y-90640000D01*
X47288748Y-93360000D02*
X48711252Y-93360000D01*
%TO.C,R405*%
X111772936Y-39265000D02*
X112227064Y-39265000D01*
X111772936Y-40735000D02*
X112227064Y-40735000D01*
%TO.C,R428*%
X149772936Y-105265000D02*
X150227064Y-105265000D01*
X149772936Y-106735000D02*
X150227064Y-106735000D01*
%TO.C,P403*%
X49150000Y-109250000D02*
X49150000Y-110500000D01*
X49450000Y-111800000D02*
X50200000Y-111800000D01*
X50200000Y-111800000D02*
X50200000Y-114750000D01*
X50200000Y-114750000D02*
X65750000Y-114750000D01*
X50400000Y-109250000D02*
X49150000Y-109250000D01*
X81300000Y-111800000D02*
X81300000Y-114750000D01*
X81300000Y-114750000D02*
X65750000Y-114750000D01*
X82050000Y-111800000D02*
X81300000Y-111800000D01*
X49440000Y-109540000D02*
X82060000Y-109540000D01*
X82060000Y-115510000D01*
X49440000Y-115510000D01*
X49440000Y-109540000D01*
X49450000Y-109550000D02*
X51250000Y-109550000D01*
X51250000Y-110300000D01*
X49450000Y-110300000D01*
X49450000Y-109550000D01*
X52750000Y-109550000D02*
X78750000Y-109550000D01*
X78750000Y-110300000D01*
X52750000Y-110300000D01*
X52750000Y-109550000D01*
X80250000Y-109550000D02*
X82050000Y-109550000D01*
X82050000Y-110300000D01*
X80250000Y-110300000D01*
X80250000Y-109550000D01*
%TO.C,C594*%
X57738748Y-73265000D02*
X58261252Y-73265000D01*
X57738748Y-74735000D02*
X58261252Y-74735000D01*
%TO.C,C401*%
X47288748Y-38640000D02*
X48711252Y-38640000D01*
X47288748Y-41360000D02*
X48711252Y-41360000D01*
%TO.C,D422*%
X131640000Y-66000000D02*
X131640000Y-68000000D01*
X131640000Y-66000000D02*
X135650000Y-66000000D01*
X131640000Y-68000000D02*
X135650000Y-68000000D01*
%TO.C,K401*%
X146450000Y-57540000D02*
X146450000Y-56330000D01*
X146600000Y-47000000D02*
X146600000Y-57380000D01*
X146600000Y-53700000D02*
X147640000Y-53700000D01*
X146600000Y-57380000D02*
X167190000Y-57380000D01*
X147660000Y-50700000D02*
X146600000Y-50700000D01*
X147660000Y-53700000D02*
X147660000Y-50700000D01*
X147750000Y-57540000D02*
X146450000Y-57540000D01*
X147810000Y-51830000D02*
X147810000Y-52530000D01*
X147810000Y-52530000D02*
X149010000Y-52530000D01*
X148440000Y-51830000D02*
X148440000Y-50730000D01*
X148440000Y-52530000D02*
X148440000Y-53630000D01*
X148610000Y-52530000D02*
X148210000Y-51830000D01*
X149010000Y-51830000D02*
X147810000Y-51830000D01*
X149010000Y-52530000D02*
X149010000Y-51830000D01*
X167190000Y-47000000D02*
X146600000Y-47000000D01*
X167190000Y-57380000D02*
X167190000Y-47000000D01*
%TO.C,D421*%
X131640000Y-59000000D02*
X131640000Y-61000000D01*
X131640000Y-59000000D02*
X135650000Y-59000000D01*
X131640000Y-61000000D02*
X135650000Y-61000000D01*
%TO.C,D410*%
X131640000Y-46000000D02*
X131640000Y-48000000D01*
X131640000Y-46000000D02*
X135650000Y-46000000D01*
X131640000Y-48000000D02*
X135650000Y-48000000D01*
%TO.C,D412*%
X131640000Y-98000000D02*
X131640000Y-100000000D01*
X131640000Y-98000000D02*
X135650000Y-98000000D01*
X131640000Y-100000000D02*
X135650000Y-100000000D01*
%TO.C,C593*%
X49738748Y-73265000D02*
X50261252Y-73265000D01*
X49738748Y-74735000D02*
X50261252Y-74735000D01*
%TO.C,D406*%
X124315000Y-46040000D02*
X124315000Y-47960000D01*
X124315000Y-47960000D02*
X127000000Y-47960000D01*
X127000000Y-46040000D02*
X124315000Y-46040000D01*
%TO.C,C403*%
X77288748Y-38640000D02*
X78711252Y-38640000D01*
X77288748Y-41360000D02*
X78711252Y-41360000D01*
%TO.C,C405*%
X103738748Y-39265000D02*
X104261252Y-39265000D01*
X103738748Y-40735000D02*
X104261252Y-40735000D01*
%TO.C,U401*%
X65940000Y-61565000D02*
X70060000Y-61565000D01*
X65940000Y-61630000D02*
X65940000Y-61565000D01*
X65940000Y-70435000D02*
X65940000Y-70370000D01*
X70060000Y-61565000D02*
X70060000Y-61630000D01*
X70060000Y-70370000D02*
X70060000Y-70435000D01*
X70060000Y-70435000D02*
X65940000Y-70435000D01*
X65400000Y-61630000D02*
X65160000Y-61300000D01*
X65640000Y-61300000D01*
X65400000Y-61630000D01*
G36*
X65400000Y-61630000D02*
G01*
X65160000Y-61300000D01*
X65640000Y-61300000D01*
X65400000Y-61630000D01*
G37*
%TO.C,D409*%
X131640000Y-39000000D02*
X131640000Y-41000000D01*
X131640000Y-39000000D02*
X135650000Y-39000000D01*
X131640000Y-41000000D02*
X135650000Y-41000000D01*
%TO.C,R404*%
X95772936Y-39265000D02*
X96227064Y-39265000D01*
X95772936Y-40735000D02*
X96227064Y-40735000D01*
%TO.C,U402*%
X89940000Y-61565000D02*
X94060000Y-61565000D01*
X89940000Y-61630000D02*
X89940000Y-61565000D01*
X89940000Y-70435000D02*
X89940000Y-70370000D01*
X94060000Y-61565000D02*
X94060000Y-61630000D01*
X94060000Y-70370000D02*
X94060000Y-70435000D01*
X94060000Y-70435000D02*
X89940000Y-70435000D01*
X89400000Y-61630000D02*
X89160000Y-61300000D01*
X89640000Y-61300000D01*
X89400000Y-61630000D01*
G36*
X89400000Y-61630000D02*
G01*
X89160000Y-61300000D01*
X89640000Y-61300000D01*
X89400000Y-61630000D01*
G37*
%TO.C,R424*%
X95772936Y-84265000D02*
X96227064Y-84265000D01*
X95772936Y-85735000D02*
X96227064Y-85735000D01*
%TD*%
M02*
