%TF.GenerationSoftware,KiCad,Pcbnew,10.0.3*%
%TF.CreationDate,2026-07-02T03:44:45-05:00*%
%TF.ProjectId,filter-clipper,66696c74-6572-42d6-936c-69707065722e,rev?*%
%TF.SameCoordinates,Original*%
%TF.FileFunction,Other,User*%
%FSLAX46Y46*%
G04 Gerber Fmt 4.6, Leading zero omitted, Abs format (unit mm)*
G04 Created by KiCad (PCBNEW 10.0.3) date 2026-07-02 03:44:45*
%MOMM*%
%LPD*%
G01*
G04 APERTURE LIST*
%ADD10C,0.050000*%
G04 APERTURE END LIST*
%TO.C,D402*%
D10*
X115650000Y-45850000D02*
X115650000Y-48150000D01*
X115650000Y-45850000D02*
X120350000Y-45850000D01*
X120350000Y-45850000D02*
X120350000Y-48150000D01*
X120350000Y-48150000D02*
X115650000Y-48150000D01*
%TO.C,R426*%
X86320000Y-98050000D02*
X89680000Y-98050000D01*
X89680000Y-99950000D01*
X86320000Y-99950000D01*
X86320000Y-98050000D01*
%TO.C,H1*%
X39450000Y-36000000D02*
G75*
G02*
X32550000Y-36000000I-3450000J0D01*
G01*
X32550000Y-36000000D02*
G75*
G02*
X39450000Y-36000000I3450000J0D01*
G01*
%TO.C,R432*%
X132320000Y-73050000D02*
X135680000Y-73050000D01*
X135680000Y-74950000D01*
X132320000Y-74950000D01*
X132320000Y-73050000D01*
%TO.C,C592*%
X56300000Y-67020000D02*
X59700000Y-67020000D01*
X59700000Y-68980000D01*
X56300000Y-68980000D01*
X56300000Y-67020000D01*
%TO.C,H2*%
X167450000Y-36000000D02*
G75*
G02*
X160550000Y-36000000I-3450000J0D01*
G01*
X160550000Y-36000000D02*
G75*
G02*
X167450000Y-36000000I3450000J0D01*
G01*
%TO.C,D405*%
X124320000Y-39050000D02*
X127680000Y-39050000D01*
X127680000Y-40950000D01*
X124320000Y-40950000D01*
X124320000Y-39050000D01*
%TO.C,R403*%
X86320000Y-39050000D02*
X89680000Y-39050000D01*
X89680000Y-40950000D01*
X86320000Y-40950000D01*
X86320000Y-39050000D01*
%TO.C,D408*%
X124320000Y-98050000D02*
X127680000Y-98050000D01*
X127680000Y-99950000D01*
X124320000Y-99950000D01*
X124320000Y-98050000D01*
%TO.C,K402*%
X146500000Y-64900000D02*
X167300000Y-64900000D01*
X146500000Y-75480000D02*
X146500000Y-64900000D01*
X146500000Y-75480000D02*
X167300000Y-75480000D01*
X167300000Y-64900000D02*
X167300000Y-75480000D01*
%TO.C,C423*%
X75700000Y-90400000D02*
X80300000Y-90400000D01*
X80300000Y-93600000D01*
X75700000Y-93600000D01*
X75700000Y-90400000D01*
%TO.C,C591*%
X48300000Y-67020000D02*
X51700000Y-67020000D01*
X51700000Y-68980000D01*
X48300000Y-68980000D01*
X48300000Y-67020000D01*
%TO.C,R402*%
X66320000Y-39050000D02*
X69680000Y-39050000D01*
X69680000Y-40950000D01*
X66320000Y-40950000D01*
X66320000Y-39050000D01*
%TO.C,R422*%
X66320000Y-91050000D02*
X69680000Y-91050000D01*
X69680000Y-92950000D01*
X66320000Y-92950000D01*
X66320000Y-91050000D01*
%TO.C,D407*%
X124320000Y-91050000D02*
X127680000Y-91050000D01*
X127680000Y-92950000D01*
X124320000Y-92950000D01*
X124320000Y-91050000D01*
%TO.C,P405*%
X105050000Y-109150000D02*
X138450000Y-109150000D01*
X138450000Y-115900000D01*
X105050000Y-115900000D01*
X105050000Y-109150000D01*
%TO.C,R427*%
X102320000Y-98050000D02*
X105680000Y-98050000D01*
X105680000Y-99950000D01*
X102320000Y-99950000D01*
X102320000Y-98050000D01*
%TO.C,D401*%
X115650000Y-38850000D02*
X115650000Y-41150000D01*
X115650000Y-38850000D02*
X120350000Y-38850000D01*
X120350000Y-38850000D02*
X120350000Y-41150000D01*
X120350000Y-41150000D02*
X115650000Y-41150000D01*
%TO.C,C406*%
X93700000Y-50400000D02*
X98300000Y-50400000D01*
X98300000Y-53600000D01*
X93700000Y-53600000D01*
X93700000Y-50400000D01*
%TO.C,C426*%
X93700000Y-97400000D02*
X98300000Y-97400000D01*
X98300000Y-100600000D01*
X93700000Y-100600000D01*
X93700000Y-97400000D01*
%TO.C,P402*%
X158100000Y-99050000D02*
X164850000Y-99050000D01*
X164850000Y-109950000D01*
X158100000Y-109950000D01*
X158100000Y-99050000D01*
%TO.C,R423*%
X86320000Y-84050000D02*
X89680000Y-84050000D01*
X89680000Y-85950000D01*
X86320000Y-85950000D01*
X86320000Y-84050000D01*
%TO.C,R421*%
X56320000Y-91050000D02*
X59680000Y-91050000D01*
X59680000Y-92950000D01*
X56320000Y-92950000D01*
X56320000Y-91050000D01*
%TO.C,C407*%
X109700000Y-50400000D02*
X114300000Y-50400000D01*
X114300000Y-53600000D01*
X109700000Y-53600000D01*
X109700000Y-50400000D01*
%TO.C,C595*%
X47700000Y-56400000D02*
X52300000Y-56400000D01*
X52300000Y-59600000D01*
X47700000Y-59600000D01*
X47700000Y-56400000D01*
%TO.C,R406*%
X86320000Y-51050000D02*
X89680000Y-51050000D01*
X89680000Y-52950000D01*
X86320000Y-52950000D01*
X86320000Y-51050000D01*
%TO.C,C596*%
X55700000Y-56400000D02*
X60300000Y-56400000D01*
X60300000Y-59600000D01*
X55700000Y-59600000D01*
X55700000Y-56400000D01*
%TO.C,R425*%
X110320000Y-84050000D02*
X113680000Y-84050000D01*
X113680000Y-85950000D01*
X110320000Y-85950000D01*
X110320000Y-84050000D01*
%TO.C,K403*%
X146500000Y-82900000D02*
X167300000Y-82900000D01*
X146500000Y-93480000D02*
X146500000Y-82900000D01*
X146500000Y-93480000D02*
X167300000Y-93480000D01*
X167300000Y-82900000D02*
X167300000Y-93480000D01*
%TO.C,R408*%
X154320000Y-39050000D02*
X157680000Y-39050000D01*
X157680000Y-40950000D01*
X154320000Y-40950000D01*
X154320000Y-39050000D01*
%TO.C,C425*%
X102300000Y-84020000D02*
X105700000Y-84020000D01*
X105700000Y-85980000D01*
X102300000Y-85980000D01*
X102300000Y-84020000D01*
%TO.C,C427*%
X109700000Y-97400000D02*
X114300000Y-97400000D01*
X114300000Y-100600000D01*
X109700000Y-100600000D01*
X109700000Y-97400000D01*
%TO.C,D411*%
X131650000Y-90850000D02*
X131650000Y-93150000D01*
X131650000Y-90850000D02*
X136350000Y-90850000D01*
X136350000Y-90850000D02*
X136350000Y-93150000D01*
X136350000Y-93150000D02*
X131650000Y-93150000D01*
%TO.C,P404*%
X33800000Y-69630000D02*
X43300000Y-69630000D01*
X43300000Y-82450000D01*
X33800000Y-82450000D01*
X33800000Y-69630000D01*
%TO.C,P401*%
X35150000Y-42050000D02*
X41900000Y-42050000D01*
X41900000Y-52950000D01*
X35150000Y-52950000D01*
X35150000Y-42050000D01*
%TO.C,D403*%
X115650000Y-90850000D02*
X115650000Y-93150000D01*
X115650000Y-90850000D02*
X120350000Y-90850000D01*
X120350000Y-90850000D02*
X120350000Y-93150000D01*
X120350000Y-93150000D02*
X115650000Y-93150000D01*
%TO.C,R401*%
X56320000Y-39050000D02*
X59680000Y-39050000D01*
X59680000Y-40950000D01*
X56320000Y-40950000D01*
X56320000Y-39050000D01*
%TO.C,R407*%
X102320000Y-51050000D02*
X105680000Y-51050000D01*
X105680000Y-52950000D01*
X102320000Y-52950000D01*
X102320000Y-51050000D01*
%TO.C,H4*%
X167450000Y-114000000D02*
G75*
G02*
X160550000Y-114000000I-3450000J0D01*
G01*
X160550000Y-114000000D02*
G75*
G02*
X167450000Y-114000000I3450000J0D01*
G01*
%TO.C,D404*%
X115650000Y-97850000D02*
X115650000Y-100150000D01*
X115650000Y-97850000D02*
X120350000Y-97850000D01*
X120350000Y-97850000D02*
X120350000Y-100150000D01*
X120350000Y-100150000D02*
X115650000Y-100150000D01*
%TO.C,C421*%
X45700000Y-90400000D02*
X50300000Y-90400000D01*
X50300000Y-93600000D01*
X45700000Y-93600000D01*
X45700000Y-90400000D01*
%TO.C,R405*%
X110320000Y-39050000D02*
X113680000Y-39050000D01*
X113680000Y-40950000D01*
X110320000Y-40950000D01*
X110320000Y-39050000D01*
%TO.C,R428*%
X148320000Y-105050000D02*
X151680000Y-105050000D01*
X151680000Y-106950000D01*
X148320000Y-106950000D01*
X148320000Y-105050000D01*
%TO.C,P403*%
X49050000Y-109150000D02*
X82450000Y-109150000D01*
X82450000Y-115900000D01*
X49050000Y-115900000D01*
X49050000Y-109150000D01*
%TO.C,C594*%
X56300000Y-73020000D02*
X59700000Y-73020000D01*
X59700000Y-74980000D01*
X56300000Y-74980000D01*
X56300000Y-73020000D01*
%TO.C,C401*%
X45700000Y-38400000D02*
X50300000Y-38400000D01*
X50300000Y-41600000D01*
X45700000Y-41600000D01*
X45700000Y-38400000D01*
%TO.C,D422*%
X131650000Y-65850000D02*
X131650000Y-68150000D01*
X131650000Y-65850000D02*
X136350000Y-65850000D01*
X136350000Y-65850000D02*
X136350000Y-68150000D01*
X136350000Y-68150000D02*
X131650000Y-68150000D01*
%TO.C,K401*%
X146500000Y-46900000D02*
X167300000Y-46900000D01*
X146500000Y-57480000D02*
X146500000Y-46900000D01*
X146500000Y-57480000D02*
X167300000Y-57480000D01*
X167300000Y-46900000D02*
X167300000Y-57480000D01*
%TO.C,D421*%
X131650000Y-58850000D02*
X131650000Y-61150000D01*
X131650000Y-58850000D02*
X136350000Y-58850000D01*
X136350000Y-58850000D02*
X136350000Y-61150000D01*
X136350000Y-61150000D02*
X131650000Y-61150000D01*
%TO.C,D410*%
X131650000Y-45850000D02*
X131650000Y-48150000D01*
X131650000Y-45850000D02*
X136350000Y-45850000D01*
X136350000Y-45850000D02*
X136350000Y-48150000D01*
X136350000Y-48150000D02*
X131650000Y-48150000D01*
%TO.C,D412*%
X131650000Y-97850000D02*
X131650000Y-100150000D01*
X131650000Y-97850000D02*
X136350000Y-97850000D01*
X136350000Y-97850000D02*
X136350000Y-100150000D01*
X136350000Y-100150000D02*
X131650000Y-100150000D01*
%TO.C,H3*%
X39450000Y-114000000D02*
G75*
G02*
X32550000Y-114000000I-3450000J0D01*
G01*
X32550000Y-114000000D02*
G75*
G02*
X39450000Y-114000000I3450000J0D01*
G01*
%TO.C,C593*%
X48300000Y-73020000D02*
X51700000Y-73020000D01*
X51700000Y-74980000D01*
X48300000Y-74980000D01*
X48300000Y-73020000D01*
%TO.C,D406*%
X124320000Y-46050000D02*
X127680000Y-46050000D01*
X127680000Y-47950000D01*
X124320000Y-47950000D01*
X124320000Y-46050000D01*
%TO.C,C403*%
X75700000Y-38400000D02*
X80300000Y-38400000D01*
X80300000Y-41600000D01*
X75700000Y-41600000D01*
X75700000Y-38400000D01*
%TO.C,C405*%
X102300000Y-39020000D02*
X105700000Y-39020000D01*
X105700000Y-40980000D01*
X102300000Y-40980000D01*
X102300000Y-39020000D01*
%TO.C,U401*%
X64300000Y-61640000D02*
X65800000Y-61640000D01*
X64300000Y-70360000D02*
X64300000Y-61640000D01*
X65800000Y-61420000D02*
X70200000Y-61420000D01*
X65800000Y-61640000D02*
X65800000Y-61420000D01*
X65800000Y-70360000D02*
X64300000Y-70360000D01*
X65800000Y-70580000D02*
X65800000Y-70360000D01*
X70200000Y-61420000D02*
X70200000Y-61640000D01*
X70200000Y-61640000D02*
X71700000Y-61640000D01*
X70200000Y-70360000D02*
X70200000Y-70580000D01*
X70200000Y-70580000D02*
X65800000Y-70580000D01*
X71700000Y-61640000D02*
X71700000Y-70360000D01*
X71700000Y-70360000D02*
X70200000Y-70360000D01*
%TO.C,D409*%
X131650000Y-38850000D02*
X131650000Y-41150000D01*
X131650000Y-38850000D02*
X136350000Y-38850000D01*
X136350000Y-38850000D02*
X136350000Y-41150000D01*
X136350000Y-41150000D02*
X131650000Y-41150000D01*
%TO.C,R404*%
X94320000Y-39050000D02*
X97680000Y-39050000D01*
X97680000Y-40950000D01*
X94320000Y-40950000D01*
X94320000Y-39050000D01*
%TO.C,U402*%
X88300000Y-61640000D02*
X89800000Y-61640000D01*
X88300000Y-70360000D02*
X88300000Y-61640000D01*
X89800000Y-61420000D02*
X94200000Y-61420000D01*
X89800000Y-61640000D02*
X89800000Y-61420000D01*
X89800000Y-70360000D02*
X88300000Y-70360000D01*
X89800000Y-70580000D02*
X89800000Y-70360000D01*
X94200000Y-61420000D02*
X94200000Y-61640000D01*
X94200000Y-61640000D02*
X95700000Y-61640000D01*
X94200000Y-70360000D02*
X94200000Y-70580000D01*
X94200000Y-70580000D02*
X89800000Y-70580000D01*
X95700000Y-61640000D02*
X95700000Y-70360000D01*
X95700000Y-70360000D02*
X94200000Y-70360000D01*
%TO.C,R424*%
X94320000Y-84050000D02*
X97680000Y-84050000D01*
X97680000Y-85950000D01*
X94320000Y-85950000D01*
X94320000Y-84050000D01*
%TD*%
M02*
