%TF.GenerationSoftware,KiCad,Pcbnew,10.0.6*%
%TF.CreationDate,2026-09-15T18:26:14-06:00*%
%TF.ProjectId,power-board,706f7765-722d-4626-9f61-72642e6b6963,rev?*%
%TF.SameCoordinates,Original*%
%TF.FileFunction,Legend,Top*%
%TF.FilePolarity,Positive*%
%FSLAX46Y46*%
G04 Gerber Fmt 4.6, Leading zero omitted, Abs format (unit mm)*
G04 Created by KiCad (PCBNEW 10.0.6) date 2026-09-15 18:26:14*
%MOMM*%
%LPD*%
G01*
G04 APERTURE LIST*
G04 Aperture macros list*
%AMRoundRect*
0 Rectangle with rounded corners*
0 $1 Rounding radius*
0 $2 $3 $4 $5 $6 $7 $8 $9 X,Y pos of 4 corners*
0 Add a 4 corners polygon primitive as box body*
4,1,4,$2,$3,$4,$5,$6,$7,$8,$9,$2,$3,0*
0 Add four circle primitives for the rounded corners*
1,1,$1+$1,$2,$3*
1,1,$1+$1,$4,$5*
1,1,$1+$1,$6,$7*
1,1,$1+$1,$8,$9*
0 Add four rect primitives between the rounded corners*
20,1,$1+$1,$2,$3,$4,$5,0*
20,1,$1+$1,$4,$5,$6,$7,0*
20,1,$1+$1,$6,$7,$8,$9,0*
20,1,$1+$1,$8,$9,$2,$3,0*%
G04 Aperture macros list end*
%ADD10C,0.150000*%
%ADD11C,0.120000*%
%ADD12C,0.800000*%
%ADD13C,6.400000*%
%ADD14RoundRect,0.250000X-0.325000X-0.650000X0.325000X-0.650000X0.325000X0.650000X-0.325000X0.650000X0*%
%ADD15RoundRect,0.218750X-0.218750X-0.381250X0.218750X-0.381250X0.218750X0.381250X-0.218750X0.381250X0*%
%ADD16RoundRect,0.250000X-1.950000X-1.000000X1.950000X-1.000000X1.950000X1.000000X-1.950000X1.000000X0*%
%ADD17RoundRect,0.250001X-1.099999X-1.099999X1.099999X-1.099999X1.099999X1.099999X-1.099999X1.099999X0*%
%ADD18C,2.700000*%
%ADD19RoundRect,0.250000X-0.600000X-0.725000X0.600000X-0.725000X0.600000X0.725000X-0.600000X0.725000X0*%
%ADD20O,1.700000X1.950000*%
%ADD21RoundRect,0.250000X-0.325000X-1.100000X0.325000X-1.100000X0.325000X1.100000X-0.325000X1.100000X0*%
%ADD22R,2.000000X1.500000*%
%ADD23O,2.000000X1.500000*%
%ADD24RoundRect,0.250001X1.099999X-1.099999X1.099999X1.099999X-1.099999X1.099999X-1.099999X-1.099999X0*%
%ADD25R,1.500000X2.300000*%
%ADD26O,1.500000X2.300000*%
%ADD27RoundRect,0.250000X-1.000000X-0.650000X1.000000X-0.650000X1.000000X0.650000X-1.000000X0.650000X0*%
%ADD28RoundRect,0.250000X-0.312500X-0.625000X0.312500X-0.625000X0.312500X0.625000X-0.312500X0.625000X0*%
%ADD29RoundRect,0.225000X-0.225000X-0.250000X0.225000X-0.250000X0.225000X0.250000X-0.225000X0.250000X0*%
%ADD30RoundRect,0.250000X-0.312500X-1.450000X0.312500X-1.450000X0.312500X1.450000X-0.312500X1.450000X0*%
G04 APERTURE END LIST*
D10*
X58282142Y-26594580D02*
X58234523Y-26642200D01*
X58234523Y-26642200D02*
X58091666Y-26689819D01*
X58091666Y-26689819D02*
X57996428Y-26689819D01*
X57996428Y-26689819D02*
X57853571Y-26642200D01*
X57853571Y-26642200D02*
X57758333Y-26546961D01*
X57758333Y-26546961D02*
X57710714Y-26451723D01*
X57710714Y-26451723D02*
X57663095Y-26261247D01*
X57663095Y-26261247D02*
X57663095Y-26118390D01*
X57663095Y-26118390D02*
X57710714Y-25927914D01*
X57710714Y-25927914D02*
X57758333Y-25832676D01*
X57758333Y-25832676D02*
X57853571Y-25737438D01*
X57853571Y-25737438D02*
X57996428Y-25689819D01*
X57996428Y-25689819D02*
X58091666Y-25689819D01*
X58091666Y-25689819D02*
X58234523Y-25737438D01*
X58234523Y-25737438D02*
X58282142Y-25785057D01*
X59234523Y-26689819D02*
X58663095Y-26689819D01*
X58948809Y-26689819D02*
X58948809Y-25689819D01*
X58948809Y-25689819D02*
X58853571Y-25832676D01*
X58853571Y-25832676D02*
X58758333Y-25927914D01*
X58758333Y-25927914D02*
X58663095Y-25975533D01*
X59615476Y-25785057D02*
X59663095Y-25737438D01*
X59663095Y-25737438D02*
X59758333Y-25689819D01*
X59758333Y-25689819D02*
X59996428Y-25689819D01*
X59996428Y-25689819D02*
X60091666Y-25737438D01*
X60091666Y-25737438D02*
X60139285Y-25785057D01*
X60139285Y-25785057D02*
X60186904Y-25880295D01*
X60186904Y-25880295D02*
X60186904Y-25975533D01*
X60186904Y-25975533D02*
X60139285Y-26118390D01*
X60139285Y-26118390D02*
X59567857Y-26689819D01*
X59567857Y-26689819D02*
X60186904Y-26689819D01*
X69548333Y-26689819D02*
X69072143Y-26689819D01*
X69072143Y-26689819D02*
X69072143Y-25689819D01*
X70405476Y-26689819D02*
X69834048Y-26689819D01*
X70119762Y-26689819D02*
X70119762Y-25689819D01*
X70119762Y-25689819D02*
X70024524Y-25832676D01*
X70024524Y-25832676D02*
X69929286Y-25927914D01*
X69929286Y-25927914D02*
X69834048Y-25975533D01*
X43052142Y-26494580D02*
X43004523Y-26542200D01*
X43004523Y-26542200D02*
X42861666Y-26589819D01*
X42861666Y-26589819D02*
X42766428Y-26589819D01*
X42766428Y-26589819D02*
X42623571Y-26542200D01*
X42623571Y-26542200D02*
X42528333Y-26446961D01*
X42528333Y-26446961D02*
X42480714Y-26351723D01*
X42480714Y-26351723D02*
X42433095Y-26161247D01*
X42433095Y-26161247D02*
X42433095Y-26018390D01*
X42433095Y-26018390D02*
X42480714Y-25827914D01*
X42480714Y-25827914D02*
X42528333Y-25732676D01*
X42528333Y-25732676D02*
X42623571Y-25637438D01*
X42623571Y-25637438D02*
X42766428Y-25589819D01*
X42766428Y-25589819D02*
X42861666Y-25589819D01*
X42861666Y-25589819D02*
X43004523Y-25637438D01*
X43004523Y-25637438D02*
X43052142Y-25685057D01*
X43433095Y-25685057D02*
X43480714Y-25637438D01*
X43480714Y-25637438D02*
X43575952Y-25589819D01*
X43575952Y-25589819D02*
X43814047Y-25589819D01*
X43814047Y-25589819D02*
X43909285Y-25637438D01*
X43909285Y-25637438D02*
X43956904Y-25685057D01*
X43956904Y-25685057D02*
X44004523Y-25780295D01*
X44004523Y-25780295D02*
X44004523Y-25875533D01*
X44004523Y-25875533D02*
X43956904Y-26018390D01*
X43956904Y-26018390D02*
X43385476Y-26589819D01*
X43385476Y-26589819D02*
X44004523Y-26589819D01*
X44385476Y-25685057D02*
X44433095Y-25637438D01*
X44433095Y-25637438D02*
X44528333Y-25589819D01*
X44528333Y-25589819D02*
X44766428Y-25589819D01*
X44766428Y-25589819D02*
X44861666Y-25637438D01*
X44861666Y-25637438D02*
X44909285Y-25685057D01*
X44909285Y-25685057D02*
X44956904Y-25780295D01*
X44956904Y-25780295D02*
X44956904Y-25875533D01*
X44956904Y-25875533D02*
X44909285Y-26018390D01*
X44909285Y-26018390D02*
X44337857Y-26589819D01*
X44337857Y-26589819D02*
X44956904Y-26589819D01*
X91201905Y-50554819D02*
X91201905Y-49554819D01*
X91201905Y-49554819D02*
X91582857Y-49554819D01*
X91582857Y-49554819D02*
X91678095Y-49602438D01*
X91678095Y-49602438D02*
X91725714Y-49650057D01*
X91725714Y-49650057D02*
X91773333Y-49745295D01*
X91773333Y-49745295D02*
X91773333Y-49888152D01*
X91773333Y-49888152D02*
X91725714Y-49983390D01*
X91725714Y-49983390D02*
X91678095Y-50031009D01*
X91678095Y-50031009D02*
X91582857Y-50078628D01*
X91582857Y-50078628D02*
X91201905Y-50078628D01*
X92678095Y-49554819D02*
X92201905Y-49554819D01*
X92201905Y-49554819D02*
X92154286Y-50031009D01*
X92154286Y-50031009D02*
X92201905Y-49983390D01*
X92201905Y-49983390D02*
X92297143Y-49935771D01*
X92297143Y-49935771D02*
X92535238Y-49935771D01*
X92535238Y-49935771D02*
X92630476Y-49983390D01*
X92630476Y-49983390D02*
X92678095Y-50031009D01*
X92678095Y-50031009D02*
X92725714Y-50126247D01*
X92725714Y-50126247D02*
X92725714Y-50364342D01*
X92725714Y-50364342D02*
X92678095Y-50459580D01*
X92678095Y-50459580D02*
X92630476Y-50507200D01*
X92630476Y-50507200D02*
X92535238Y-50554819D01*
X92535238Y-50554819D02*
X92297143Y-50554819D01*
X92297143Y-50554819D02*
X92201905Y-50507200D01*
X92201905Y-50507200D02*
X92154286Y-50459580D01*
X58342142Y-1104580D02*
X58294523Y-1152200D01*
X58294523Y-1152200D02*
X58151666Y-1199819D01*
X58151666Y-1199819D02*
X58056428Y-1199819D01*
X58056428Y-1199819D02*
X57913571Y-1152200D01*
X57913571Y-1152200D02*
X57818333Y-1056961D01*
X57818333Y-1056961D02*
X57770714Y-961723D01*
X57770714Y-961723D02*
X57723095Y-771247D01*
X57723095Y-771247D02*
X57723095Y-628390D01*
X57723095Y-628390D02*
X57770714Y-437914D01*
X57770714Y-437914D02*
X57818333Y-342676D01*
X57818333Y-342676D02*
X57913571Y-247438D01*
X57913571Y-247438D02*
X58056428Y-199819D01*
X58056428Y-199819D02*
X58151666Y-199819D01*
X58151666Y-199819D02*
X58294523Y-247438D01*
X58294523Y-247438D02*
X58342142Y-295057D01*
X58723095Y-295057D02*
X58770714Y-247438D01*
X58770714Y-247438D02*
X58865952Y-199819D01*
X58865952Y-199819D02*
X59104047Y-199819D01*
X59104047Y-199819D02*
X59199285Y-247438D01*
X59199285Y-247438D02*
X59246904Y-295057D01*
X59246904Y-295057D02*
X59294523Y-390295D01*
X59294523Y-390295D02*
X59294523Y-485533D01*
X59294523Y-485533D02*
X59246904Y-628390D01*
X59246904Y-628390D02*
X58675476Y-1199819D01*
X58675476Y-1199819D02*
X59294523Y-1199819D01*
X60246904Y-1199819D02*
X59675476Y-1199819D01*
X59961190Y-1199819D02*
X59961190Y-199819D01*
X59961190Y-199819D02*
X59865952Y-342676D01*
X59865952Y-342676D02*
X59770714Y-437914D01*
X59770714Y-437914D02*
X59675476Y-485533D01*
X39128333Y-36779819D02*
X38652143Y-36779819D01*
X38652143Y-36779819D02*
X38652143Y-35779819D01*
X39414048Y-35875057D02*
X39461667Y-35827438D01*
X39461667Y-35827438D02*
X39556905Y-35779819D01*
X39556905Y-35779819D02*
X39795000Y-35779819D01*
X39795000Y-35779819D02*
X39890238Y-35827438D01*
X39890238Y-35827438D02*
X39937857Y-35875057D01*
X39937857Y-35875057D02*
X39985476Y-35970295D01*
X39985476Y-35970295D02*
X39985476Y-36065533D01*
X39985476Y-36065533D02*
X39937857Y-36208390D01*
X39937857Y-36208390D02*
X39366429Y-36779819D01*
X39366429Y-36779819D02*
X39985476Y-36779819D01*
X78202142Y-11294580D02*
X78154523Y-11342200D01*
X78154523Y-11342200D02*
X78011666Y-11389819D01*
X78011666Y-11389819D02*
X77916428Y-11389819D01*
X77916428Y-11389819D02*
X77773571Y-11342200D01*
X77773571Y-11342200D02*
X77678333Y-11246961D01*
X77678333Y-11246961D02*
X77630714Y-11151723D01*
X77630714Y-11151723D02*
X77583095Y-10961247D01*
X77583095Y-10961247D02*
X77583095Y-10818390D01*
X77583095Y-10818390D02*
X77630714Y-10627914D01*
X77630714Y-10627914D02*
X77678333Y-10532676D01*
X77678333Y-10532676D02*
X77773571Y-10437438D01*
X77773571Y-10437438D02*
X77916428Y-10389819D01*
X77916428Y-10389819D02*
X78011666Y-10389819D01*
X78011666Y-10389819D02*
X78154523Y-10437438D01*
X78154523Y-10437438D02*
X78202142Y-10485057D01*
X79059285Y-10723152D02*
X79059285Y-11389819D01*
X78821190Y-10342200D02*
X78583095Y-11056485D01*
X78583095Y-11056485D02*
X79202142Y-11056485D01*
X79535476Y-10485057D02*
X79583095Y-10437438D01*
X79583095Y-10437438D02*
X79678333Y-10389819D01*
X79678333Y-10389819D02*
X79916428Y-10389819D01*
X79916428Y-10389819D02*
X80011666Y-10437438D01*
X80011666Y-10437438D02*
X80059285Y-10485057D01*
X80059285Y-10485057D02*
X80106904Y-10580295D01*
X80106904Y-10580295D02*
X80106904Y-10675533D01*
X80106904Y-10675533D02*
X80059285Y-10818390D01*
X80059285Y-10818390D02*
X79487857Y-11389819D01*
X79487857Y-11389819D02*
X80106904Y-11389819D01*
X102488095Y-39904819D02*
X103059523Y-39904819D01*
X102773809Y-40904819D02*
X102773809Y-39904819D01*
X103392857Y-40904819D02*
X103392857Y-39904819D01*
X103392857Y-39904819D02*
X103773809Y-39904819D01*
X103773809Y-39904819D02*
X103869047Y-39952438D01*
X103869047Y-39952438D02*
X103916666Y-40000057D01*
X103916666Y-40000057D02*
X103964285Y-40095295D01*
X103964285Y-40095295D02*
X103964285Y-40238152D01*
X103964285Y-40238152D02*
X103916666Y-40333390D01*
X103916666Y-40333390D02*
X103869047Y-40381009D01*
X103869047Y-40381009D02*
X103773809Y-40428628D01*
X103773809Y-40428628D02*
X103392857Y-40428628D01*
X104916666Y-40904819D02*
X104345238Y-40904819D01*
X104630952Y-40904819D02*
X104630952Y-39904819D01*
X104630952Y-39904819D02*
X104535714Y-40047676D01*
X104535714Y-40047676D02*
X104440476Y-40142914D01*
X104440476Y-40142914D02*
X104345238Y-40190533D01*
X91402142Y-1204580D02*
X91354523Y-1252200D01*
X91354523Y-1252200D02*
X91211666Y-1299819D01*
X91211666Y-1299819D02*
X91116428Y-1299819D01*
X91116428Y-1299819D02*
X90973571Y-1252200D01*
X90973571Y-1252200D02*
X90878333Y-1156961D01*
X90878333Y-1156961D02*
X90830714Y-1061723D01*
X90830714Y-1061723D02*
X90783095Y-871247D01*
X90783095Y-871247D02*
X90783095Y-728390D01*
X90783095Y-728390D02*
X90830714Y-537914D01*
X90830714Y-537914D02*
X90878333Y-442676D01*
X90878333Y-442676D02*
X90973571Y-347438D01*
X90973571Y-347438D02*
X91116428Y-299819D01*
X91116428Y-299819D02*
X91211666Y-299819D01*
X91211666Y-299819D02*
X91354523Y-347438D01*
X91354523Y-347438D02*
X91402142Y-395057D01*
X92259285Y-633152D02*
X92259285Y-1299819D01*
X92021190Y-252200D02*
X91783095Y-966485D01*
X91783095Y-966485D02*
X92402142Y-966485D01*
X93306904Y-1299819D02*
X92735476Y-1299819D01*
X93021190Y-1299819D02*
X93021190Y-299819D01*
X93021190Y-299819D02*
X92925952Y-442676D01*
X92925952Y-442676D02*
X92830714Y-537914D01*
X92830714Y-537914D02*
X92735476Y-585533D01*
X69201905Y-50554819D02*
X69201905Y-49554819D01*
X69201905Y-49554819D02*
X69582857Y-49554819D01*
X69582857Y-49554819D02*
X69678095Y-49602438D01*
X69678095Y-49602438D02*
X69725714Y-49650057D01*
X69725714Y-49650057D02*
X69773333Y-49745295D01*
X69773333Y-49745295D02*
X69773333Y-49888152D01*
X69773333Y-49888152D02*
X69725714Y-49983390D01*
X69725714Y-49983390D02*
X69678095Y-50031009D01*
X69678095Y-50031009D02*
X69582857Y-50078628D01*
X69582857Y-50078628D02*
X69201905Y-50078628D01*
X70630476Y-49888152D02*
X70630476Y-50554819D01*
X70392381Y-49507200D02*
X70154286Y-50221485D01*
X70154286Y-50221485D02*
X70773333Y-50221485D01*
X43430714Y-649819D02*
X43430714Y350180D01*
X43430714Y350180D02*
X43811666Y350180D01*
X43811666Y350180D02*
X43906904Y302561D01*
X43906904Y302561D02*
X43954523Y254942D01*
X43954523Y254942D02*
X44002142Y159704D01*
X44002142Y159704D02*
X44002142Y16847D01*
X44002142Y16847D02*
X43954523Y-78390D01*
X43954523Y-78390D02*
X43906904Y-126009D01*
X43906904Y-126009D02*
X43811666Y-173628D01*
X43811666Y-173628D02*
X43430714Y-173628D01*
X44383095Y-602200D02*
X44525952Y-649819D01*
X44525952Y-649819D02*
X44764047Y-649819D01*
X44764047Y-649819D02*
X44859285Y-602200D01*
X44859285Y-602200D02*
X44906904Y-554580D01*
X44906904Y-554580D02*
X44954523Y-459342D01*
X44954523Y-459342D02*
X44954523Y-364104D01*
X44954523Y-364104D02*
X44906904Y-268866D01*
X44906904Y-268866D02*
X44859285Y-221247D01*
X44859285Y-221247D02*
X44764047Y-173628D01*
X44764047Y-173628D02*
X44573571Y-126009D01*
X44573571Y-126009D02*
X44478333Y-78390D01*
X44478333Y-78390D02*
X44430714Y-30771D01*
X44430714Y-30771D02*
X44383095Y64466D01*
X44383095Y64466D02*
X44383095Y159704D01*
X44383095Y159704D02*
X44430714Y254942D01*
X44430714Y254942D02*
X44478333Y302561D01*
X44478333Y302561D02*
X44573571Y350180D01*
X44573571Y350180D02*
X44811666Y350180D01*
X44811666Y350180D02*
X44954523Y302561D01*
X45906904Y-649819D02*
X45335476Y-649819D01*
X45621190Y-649819D02*
X45621190Y350180D01*
X45621190Y350180D02*
X45525952Y207323D01*
X45525952Y207323D02*
X45430714Y112085D01*
X45430714Y112085D02*
X45335476Y64466D01*
X3554819Y-18758094D02*
X2554819Y-18758094D01*
X2554819Y-18758094D02*
X2554819Y-18377142D01*
X2554819Y-18377142D02*
X2602438Y-18281904D01*
X2602438Y-18281904D02*
X2650057Y-18234285D01*
X2650057Y-18234285D02*
X2745295Y-18186666D01*
X2745295Y-18186666D02*
X2888152Y-18186666D01*
X2888152Y-18186666D02*
X2983390Y-18234285D01*
X2983390Y-18234285D02*
X3031009Y-18281904D01*
X3031009Y-18281904D02*
X3078628Y-18377142D01*
X3078628Y-18377142D02*
X3078628Y-18758094D01*
X3554819Y-17234285D02*
X3554819Y-17805713D01*
X3554819Y-17519999D02*
X2554819Y-17519999D01*
X2554819Y-17519999D02*
X2697676Y-17615237D01*
X2697676Y-17615237D02*
X2792914Y-17710475D01*
X2792914Y-17710475D02*
X2840533Y-17805713D01*
X20528333Y-1104580D02*
X20480714Y-1152200D01*
X20480714Y-1152200D02*
X20337857Y-1199819D01*
X20337857Y-1199819D02*
X20242619Y-1199819D01*
X20242619Y-1199819D02*
X20099762Y-1152200D01*
X20099762Y-1152200D02*
X20004524Y-1056961D01*
X20004524Y-1056961D02*
X19956905Y-961723D01*
X19956905Y-961723D02*
X19909286Y-771247D01*
X19909286Y-771247D02*
X19909286Y-628390D01*
X19909286Y-628390D02*
X19956905Y-437914D01*
X19956905Y-437914D02*
X20004524Y-342676D01*
X20004524Y-342676D02*
X20099762Y-247438D01*
X20099762Y-247438D02*
X20242619Y-199819D01*
X20242619Y-199819D02*
X20337857Y-199819D01*
X20337857Y-199819D02*
X20480714Y-247438D01*
X20480714Y-247438D02*
X20528333Y-295057D01*
X21480714Y-1199819D02*
X20909286Y-1199819D01*
X21195000Y-1199819D02*
X21195000Y-199819D01*
X21195000Y-199819D02*
X21099762Y-342676D01*
X21099762Y-342676D02*
X21004524Y-437914D01*
X21004524Y-437914D02*
X20909286Y-485533D01*
X25201905Y-50554819D02*
X25201905Y-49554819D01*
X25201905Y-49554819D02*
X25582857Y-49554819D01*
X25582857Y-49554819D02*
X25678095Y-49602438D01*
X25678095Y-49602438D02*
X25725714Y-49650057D01*
X25725714Y-49650057D02*
X25773333Y-49745295D01*
X25773333Y-49745295D02*
X25773333Y-49888152D01*
X25773333Y-49888152D02*
X25725714Y-49983390D01*
X25725714Y-49983390D02*
X25678095Y-50031009D01*
X25678095Y-50031009D02*
X25582857Y-50078628D01*
X25582857Y-50078628D02*
X25201905Y-50078628D01*
X26154286Y-49650057D02*
X26201905Y-49602438D01*
X26201905Y-49602438D02*
X26297143Y-49554819D01*
X26297143Y-49554819D02*
X26535238Y-49554819D01*
X26535238Y-49554819D02*
X26630476Y-49602438D01*
X26630476Y-49602438D02*
X26678095Y-49650057D01*
X26678095Y-49650057D02*
X26725714Y-49745295D01*
X26725714Y-49745295D02*
X26725714Y-49840533D01*
X26725714Y-49840533D02*
X26678095Y-49983390D01*
X26678095Y-49983390D02*
X26106667Y-50554819D01*
X26106667Y-50554819D02*
X26725714Y-50554819D01*
X47201905Y-50554819D02*
X47201905Y-49554819D01*
X47201905Y-49554819D02*
X47582857Y-49554819D01*
X47582857Y-49554819D02*
X47678095Y-49602438D01*
X47678095Y-49602438D02*
X47725714Y-49650057D01*
X47725714Y-49650057D02*
X47773333Y-49745295D01*
X47773333Y-49745295D02*
X47773333Y-49888152D01*
X47773333Y-49888152D02*
X47725714Y-49983390D01*
X47725714Y-49983390D02*
X47678095Y-50031009D01*
X47678095Y-50031009D02*
X47582857Y-50078628D01*
X47582857Y-50078628D02*
X47201905Y-50078628D01*
X48106667Y-49554819D02*
X48725714Y-49554819D01*
X48725714Y-49554819D02*
X48392381Y-49935771D01*
X48392381Y-49935771D02*
X48535238Y-49935771D01*
X48535238Y-49935771D02*
X48630476Y-49983390D01*
X48630476Y-49983390D02*
X48678095Y-50031009D01*
X48678095Y-50031009D02*
X48725714Y-50126247D01*
X48725714Y-50126247D02*
X48725714Y-50364342D01*
X48725714Y-50364342D02*
X48678095Y-50459580D01*
X48678095Y-50459580D02*
X48630476Y-50507200D01*
X48630476Y-50507200D02*
X48535238Y-50554819D01*
X48535238Y-50554819D02*
X48249524Y-50554819D01*
X48249524Y-50554819D02*
X48154286Y-50507200D01*
X48154286Y-50507200D02*
X48106667Y-50459580D01*
X81440714Y-1189819D02*
X81440714Y-189819D01*
X81440714Y-189819D02*
X81821666Y-189819D01*
X81821666Y-189819D02*
X81916904Y-237438D01*
X81916904Y-237438D02*
X81964523Y-285057D01*
X81964523Y-285057D02*
X82012142Y-380295D01*
X82012142Y-380295D02*
X82012142Y-523152D01*
X82012142Y-523152D02*
X81964523Y-618390D01*
X81964523Y-618390D02*
X81916904Y-666009D01*
X81916904Y-666009D02*
X81821666Y-713628D01*
X81821666Y-713628D02*
X81440714Y-713628D01*
X82393095Y-1142200D02*
X82535952Y-1189819D01*
X82535952Y-1189819D02*
X82774047Y-1189819D01*
X82774047Y-1189819D02*
X82869285Y-1142200D01*
X82869285Y-1142200D02*
X82916904Y-1094580D01*
X82916904Y-1094580D02*
X82964523Y-999342D01*
X82964523Y-999342D02*
X82964523Y-904104D01*
X82964523Y-904104D02*
X82916904Y-808866D01*
X82916904Y-808866D02*
X82869285Y-761247D01*
X82869285Y-761247D02*
X82774047Y-713628D01*
X82774047Y-713628D02*
X82583571Y-666009D01*
X82583571Y-666009D02*
X82488333Y-618390D01*
X82488333Y-618390D02*
X82440714Y-570771D01*
X82440714Y-570771D02*
X82393095Y-475533D01*
X82393095Y-475533D02*
X82393095Y-380295D01*
X82393095Y-380295D02*
X82440714Y-285057D01*
X82440714Y-285057D02*
X82488333Y-237438D01*
X82488333Y-237438D02*
X82583571Y-189819D01*
X82583571Y-189819D02*
X82821666Y-189819D01*
X82821666Y-189819D02*
X82964523Y-237438D01*
X83345476Y-285057D02*
X83393095Y-237438D01*
X83393095Y-237438D02*
X83488333Y-189819D01*
X83488333Y-189819D02*
X83726428Y-189819D01*
X83726428Y-189819D02*
X83821666Y-237438D01*
X83821666Y-237438D02*
X83869285Y-285057D01*
X83869285Y-285057D02*
X83916904Y-380295D01*
X83916904Y-380295D02*
X83916904Y-475533D01*
X83916904Y-475533D02*
X83869285Y-618390D01*
X83869285Y-618390D02*
X83297857Y-1189819D01*
X83297857Y-1189819D02*
X83916904Y-1189819D01*
X30696905Y-1249819D02*
X30696905Y-249819D01*
X30696905Y-249819D02*
X30935000Y-249819D01*
X30935000Y-249819D02*
X31077857Y-297438D01*
X31077857Y-297438D02*
X31173095Y-392676D01*
X31173095Y-392676D02*
X31220714Y-487914D01*
X31220714Y-487914D02*
X31268333Y-678390D01*
X31268333Y-678390D02*
X31268333Y-821247D01*
X31268333Y-821247D02*
X31220714Y-1011723D01*
X31220714Y-1011723D02*
X31173095Y-1106961D01*
X31173095Y-1106961D02*
X31077857Y-1202200D01*
X31077857Y-1202200D02*
X30935000Y-1249819D01*
X30935000Y-1249819D02*
X30696905Y-1249819D01*
X32220714Y-1249819D02*
X31649286Y-1249819D01*
X31935000Y-1249819D02*
X31935000Y-249819D01*
X31935000Y-249819D02*
X31839762Y-392676D01*
X31839762Y-392676D02*
X31744524Y-487914D01*
X31744524Y-487914D02*
X31649286Y-535533D01*
X64428333Y-26689819D02*
X64095000Y-26213628D01*
X63856905Y-26689819D02*
X63856905Y-25689819D01*
X63856905Y-25689819D02*
X64237857Y-25689819D01*
X64237857Y-25689819D02*
X64333095Y-25737438D01*
X64333095Y-25737438D02*
X64380714Y-25785057D01*
X64380714Y-25785057D02*
X64428333Y-25880295D01*
X64428333Y-25880295D02*
X64428333Y-26023152D01*
X64428333Y-26023152D02*
X64380714Y-26118390D01*
X64380714Y-26118390D02*
X64333095Y-26166009D01*
X64333095Y-26166009D02*
X64237857Y-26213628D01*
X64237857Y-26213628D02*
X63856905Y-26213628D01*
X65380714Y-26689819D02*
X64809286Y-26689819D01*
X65095000Y-26689819D02*
X65095000Y-25689819D01*
X65095000Y-25689819D02*
X64999762Y-25832676D01*
X64999762Y-25832676D02*
X64904524Y-25927914D01*
X64904524Y-25927914D02*
X64809286Y-25975533D01*
X17306905Y-11339819D02*
X17306905Y-10339819D01*
X17306905Y-10339819D02*
X17545000Y-10339819D01*
X17545000Y-10339819D02*
X17687857Y-10387438D01*
X17687857Y-10387438D02*
X17783095Y-10482676D01*
X17783095Y-10482676D02*
X17830714Y-10577914D01*
X17830714Y-10577914D02*
X17878333Y-10768390D01*
X17878333Y-10768390D02*
X17878333Y-10911247D01*
X17878333Y-10911247D02*
X17830714Y-11101723D01*
X17830714Y-11101723D02*
X17783095Y-11196961D01*
X17783095Y-11196961D02*
X17687857Y-11292200D01*
X17687857Y-11292200D02*
X17545000Y-11339819D01*
X17545000Y-11339819D02*
X17306905Y-11339819D01*
X18259286Y-10435057D02*
X18306905Y-10387438D01*
X18306905Y-10387438D02*
X18402143Y-10339819D01*
X18402143Y-10339819D02*
X18640238Y-10339819D01*
X18640238Y-10339819D02*
X18735476Y-10387438D01*
X18735476Y-10387438D02*
X18783095Y-10435057D01*
X18783095Y-10435057D02*
X18830714Y-10530295D01*
X18830714Y-10530295D02*
X18830714Y-10625533D01*
X18830714Y-10625533D02*
X18783095Y-10768390D01*
X18783095Y-10768390D02*
X18211667Y-11339819D01*
X18211667Y-11339819D02*
X18830714Y-11339819D01*
X47022142Y-36684580D02*
X46974523Y-36732200D01*
X46974523Y-36732200D02*
X46831666Y-36779819D01*
X46831666Y-36779819D02*
X46736428Y-36779819D01*
X46736428Y-36779819D02*
X46593571Y-36732200D01*
X46593571Y-36732200D02*
X46498333Y-36636961D01*
X46498333Y-36636961D02*
X46450714Y-36541723D01*
X46450714Y-36541723D02*
X46403095Y-36351247D01*
X46403095Y-36351247D02*
X46403095Y-36208390D01*
X46403095Y-36208390D02*
X46450714Y-36017914D01*
X46450714Y-36017914D02*
X46498333Y-35922676D01*
X46498333Y-35922676D02*
X46593571Y-35827438D01*
X46593571Y-35827438D02*
X46736428Y-35779819D01*
X46736428Y-35779819D02*
X46831666Y-35779819D01*
X46831666Y-35779819D02*
X46974523Y-35827438D01*
X46974523Y-35827438D02*
X47022142Y-35875057D01*
X47355476Y-35779819D02*
X47974523Y-35779819D01*
X47974523Y-35779819D02*
X47641190Y-36160771D01*
X47641190Y-36160771D02*
X47784047Y-36160771D01*
X47784047Y-36160771D02*
X47879285Y-36208390D01*
X47879285Y-36208390D02*
X47926904Y-36256009D01*
X47926904Y-36256009D02*
X47974523Y-36351247D01*
X47974523Y-36351247D02*
X47974523Y-36589342D01*
X47974523Y-36589342D02*
X47926904Y-36684580D01*
X47926904Y-36684580D02*
X47879285Y-36732200D01*
X47879285Y-36732200D02*
X47784047Y-36779819D01*
X47784047Y-36779819D02*
X47498333Y-36779819D01*
X47498333Y-36779819D02*
X47403095Y-36732200D01*
X47403095Y-36732200D02*
X47355476Y-36684580D01*
X48355476Y-35875057D02*
X48403095Y-35827438D01*
X48403095Y-35827438D02*
X48498333Y-35779819D01*
X48498333Y-35779819D02*
X48736428Y-35779819D01*
X48736428Y-35779819D02*
X48831666Y-35827438D01*
X48831666Y-35827438D02*
X48879285Y-35875057D01*
X48879285Y-35875057D02*
X48926904Y-35970295D01*
X48926904Y-35970295D02*
X48926904Y-36065533D01*
X48926904Y-36065533D02*
X48879285Y-36208390D01*
X48879285Y-36208390D02*
X48307857Y-36779819D01*
X48307857Y-36779819D02*
X48926904Y-36779819D01*
X31758333Y-11294580D02*
X31710714Y-11342200D01*
X31710714Y-11342200D02*
X31567857Y-11389819D01*
X31567857Y-11389819D02*
X31472619Y-11389819D01*
X31472619Y-11389819D02*
X31329762Y-11342200D01*
X31329762Y-11342200D02*
X31234524Y-11246961D01*
X31234524Y-11246961D02*
X31186905Y-11151723D01*
X31186905Y-11151723D02*
X31139286Y-10961247D01*
X31139286Y-10961247D02*
X31139286Y-10818390D01*
X31139286Y-10818390D02*
X31186905Y-10627914D01*
X31186905Y-10627914D02*
X31234524Y-10532676D01*
X31234524Y-10532676D02*
X31329762Y-10437438D01*
X31329762Y-10437438D02*
X31472619Y-10389819D01*
X31472619Y-10389819D02*
X31567857Y-10389819D01*
X31567857Y-10389819D02*
X31710714Y-10437438D01*
X31710714Y-10437438D02*
X31758333Y-10485057D01*
X32139286Y-10485057D02*
X32186905Y-10437438D01*
X32186905Y-10437438D02*
X32282143Y-10389819D01*
X32282143Y-10389819D02*
X32520238Y-10389819D01*
X32520238Y-10389819D02*
X32615476Y-10437438D01*
X32615476Y-10437438D02*
X32663095Y-10485057D01*
X32663095Y-10485057D02*
X32710714Y-10580295D01*
X32710714Y-10580295D02*
X32710714Y-10675533D01*
X32710714Y-10675533D02*
X32663095Y-10818390D01*
X32663095Y-10818390D02*
X32091667Y-11389819D01*
X32091667Y-11389819D02*
X32710714Y-11389819D01*
X42972142Y-36684580D02*
X42924523Y-36732200D01*
X42924523Y-36732200D02*
X42781666Y-36779819D01*
X42781666Y-36779819D02*
X42686428Y-36779819D01*
X42686428Y-36779819D02*
X42543571Y-36732200D01*
X42543571Y-36732200D02*
X42448333Y-36636961D01*
X42448333Y-36636961D02*
X42400714Y-36541723D01*
X42400714Y-36541723D02*
X42353095Y-36351247D01*
X42353095Y-36351247D02*
X42353095Y-36208390D01*
X42353095Y-36208390D02*
X42400714Y-36017914D01*
X42400714Y-36017914D02*
X42448333Y-35922676D01*
X42448333Y-35922676D02*
X42543571Y-35827438D01*
X42543571Y-35827438D02*
X42686428Y-35779819D01*
X42686428Y-35779819D02*
X42781666Y-35779819D01*
X42781666Y-35779819D02*
X42924523Y-35827438D01*
X42924523Y-35827438D02*
X42972142Y-35875057D01*
X43305476Y-35779819D02*
X43924523Y-35779819D01*
X43924523Y-35779819D02*
X43591190Y-36160771D01*
X43591190Y-36160771D02*
X43734047Y-36160771D01*
X43734047Y-36160771D02*
X43829285Y-36208390D01*
X43829285Y-36208390D02*
X43876904Y-36256009D01*
X43876904Y-36256009D02*
X43924523Y-36351247D01*
X43924523Y-36351247D02*
X43924523Y-36589342D01*
X43924523Y-36589342D02*
X43876904Y-36684580D01*
X43876904Y-36684580D02*
X43829285Y-36732200D01*
X43829285Y-36732200D02*
X43734047Y-36779819D01*
X43734047Y-36779819D02*
X43448333Y-36779819D01*
X43448333Y-36779819D02*
X43353095Y-36732200D01*
X43353095Y-36732200D02*
X43305476Y-36684580D01*
X44876904Y-36779819D02*
X44305476Y-36779819D01*
X44591190Y-36779819D02*
X44591190Y-35779819D01*
X44591190Y-35779819D02*
X44495952Y-35922676D01*
X44495952Y-35922676D02*
X44400714Y-36017914D01*
X44400714Y-36017914D02*
X44305476Y-36065533D01*
X52592142Y-26594580D02*
X52544523Y-26642200D01*
X52544523Y-26642200D02*
X52401666Y-26689819D01*
X52401666Y-26689819D02*
X52306428Y-26689819D01*
X52306428Y-26689819D02*
X52163571Y-26642200D01*
X52163571Y-26642200D02*
X52068333Y-26546961D01*
X52068333Y-26546961D02*
X52020714Y-26451723D01*
X52020714Y-26451723D02*
X51973095Y-26261247D01*
X51973095Y-26261247D02*
X51973095Y-26118390D01*
X51973095Y-26118390D02*
X52020714Y-25927914D01*
X52020714Y-25927914D02*
X52068333Y-25832676D01*
X52068333Y-25832676D02*
X52163571Y-25737438D01*
X52163571Y-25737438D02*
X52306428Y-25689819D01*
X52306428Y-25689819D02*
X52401666Y-25689819D01*
X52401666Y-25689819D02*
X52544523Y-25737438D01*
X52544523Y-25737438D02*
X52592142Y-25785057D01*
X53544523Y-26689819D02*
X52973095Y-26689819D01*
X53258809Y-26689819D02*
X53258809Y-25689819D01*
X53258809Y-25689819D02*
X53163571Y-25832676D01*
X53163571Y-25832676D02*
X53068333Y-25927914D01*
X53068333Y-25927914D02*
X52973095Y-25975533D01*
X54496904Y-26689819D02*
X53925476Y-26689819D01*
X54211190Y-26689819D02*
X54211190Y-25689819D01*
X54211190Y-25689819D02*
X54115952Y-25832676D01*
X54115952Y-25832676D02*
X54020714Y-25927914D01*
X54020714Y-25927914D02*
X53925476Y-25975533D01*
X25251666Y-10866009D02*
X24918333Y-10866009D01*
X24918333Y-11389819D02*
X24918333Y-10389819D01*
X24918333Y-10389819D02*
X25394523Y-10389819D01*
X26299285Y-11389819D02*
X25727857Y-11389819D01*
X26013571Y-11389819D02*
X26013571Y-10389819D01*
X26013571Y-10389819D02*
X25918333Y-10532676D01*
X25918333Y-10532676D02*
X25823095Y-10627914D01*
X25823095Y-10627914D02*
X25727857Y-10675533D01*
%TO.C,C12*%
D11*
X58213748Y-27175000D02*
X59636252Y-27175000D01*
X58213748Y-28995000D02*
X59636252Y-28995000D01*
%TO.C,L1*%
X69315378Y-27225000D02*
X70114622Y-27225000D01*
X69315378Y-28345000D02*
X70114622Y-28345000D01*
%TO.C,C22*%
X38095000Y-28925000D02*
X39095000Y-28925000D01*
X38595000Y-28425000D02*
X38595000Y-29425000D01*
X39335000Y-28139437D02*
X39335000Y-29925000D01*
X39335000Y-28139437D02*
X40399437Y-27075000D01*
X39335000Y-34730563D02*
X39335000Y-32945000D01*
X39335000Y-34730563D02*
X40399437Y-35795000D01*
X40399437Y-27075000D02*
X48055000Y-27075000D01*
X40399437Y-35795000D02*
X48055000Y-35795000D01*
X48055000Y-27075000D02*
X48055000Y-29925000D01*
X48055000Y-35795000D02*
X48055000Y-32945000D01*
%TO.C,P5*%
X83140000Y-54700000D02*
X83740000Y-55000000D01*
X83140000Y-55300000D02*
X83140000Y-54700000D01*
X83740000Y-55000000D02*
X83140000Y-55300000D01*
X83940000Y-52890000D02*
X85140000Y-52890000D01*
X83940000Y-59910000D02*
X83940000Y-52890000D01*
X85140000Y-51190000D02*
X98740000Y-51190000D01*
X85140000Y-52890000D02*
X85140000Y-51190000D01*
X98740000Y-51190000D02*
X98740000Y-52890000D01*
X98740000Y-52890000D02*
X99940000Y-52890000D01*
X99940000Y-52890000D02*
X99940000Y-59910000D01*
X99940000Y-59910000D02*
X83940000Y-59910000D01*
%TO.C,C21*%
X53385000Y-3535000D02*
X54385000Y-3535000D01*
X53885000Y-3035000D02*
X53885000Y-4035000D01*
X54625000Y-2749437D02*
X54625000Y-4535000D01*
X54625000Y-2749437D02*
X55689437Y-1685000D01*
X54625000Y-9340563D02*
X54625000Y-7555000D01*
X54625000Y-9340563D02*
X55689437Y-10405000D01*
X55689437Y-1685000D02*
X63345000Y-1685000D01*
X55689437Y-10405000D02*
X63345000Y-10405000D01*
X63345000Y-1685000D02*
X63345000Y-4535000D01*
X63345000Y-10405000D02*
X63345000Y-7555000D01*
%TO.C,L2*%
X38895378Y-37315000D02*
X39694622Y-37315000D01*
X38895378Y-38435000D02*
X39694622Y-38435000D01*
%TO.C,C42*%
X78133748Y-11875000D02*
X79556252Y-11875000D01*
X78133748Y-13695000D02*
X79556252Y-13695000D01*
%TO.C,TP1*%
X97150000Y-41250000D02*
X97150000Y-42500000D01*
X97450000Y-43800000D02*
X98200000Y-43800000D01*
X98200000Y-43800000D02*
X98200000Y-46750000D01*
X98200000Y-46750000D02*
X103750000Y-46750000D01*
X98400000Y-41250000D02*
X97150000Y-41250000D01*
X109300000Y-43800000D02*
X109300000Y-46750000D01*
X109300000Y-46750000D02*
X103750000Y-46750000D01*
X110050000Y-43800000D02*
X109300000Y-43800000D01*
X97440000Y-41540000D02*
X110060000Y-41540000D01*
X110060000Y-47510000D01*
X97440000Y-47510000D01*
X97440000Y-41540000D01*
X97450000Y-41550000D02*
X99250000Y-41550000D01*
X99250000Y-42300000D01*
X97450000Y-42300000D01*
X97450000Y-41550000D01*
X100750000Y-41550000D02*
X106750000Y-41550000D01*
X106750000Y-42300000D01*
X100750000Y-42300000D01*
X100750000Y-41550000D01*
X108250000Y-41550000D02*
X110050000Y-41550000D01*
X110050000Y-42300000D01*
X108250000Y-42300000D01*
X108250000Y-41550000D01*
%TO.C,C41*%
X91333748Y-1785000D02*
X92756252Y-1785000D01*
X91333748Y-4505000D02*
X92756252Y-4505000D01*
%TO.C,P4*%
X61140000Y-54700000D02*
X61740000Y-55000000D01*
X61140000Y-55300000D02*
X61140000Y-54700000D01*
X61740000Y-55000000D02*
X61140000Y-55300000D01*
X61940000Y-52890000D02*
X63140000Y-52890000D01*
X61940000Y-59910000D02*
X61940000Y-52890000D01*
X63140000Y-51190000D02*
X76740000Y-51190000D01*
X63140000Y-52890000D02*
X63140000Y-51190000D01*
X76740000Y-51190000D02*
X76740000Y-52890000D01*
X76740000Y-52890000D02*
X77940000Y-52890000D01*
X77940000Y-52890000D02*
X77940000Y-59910000D01*
X77940000Y-59910000D02*
X61940000Y-59910000D01*
%TO.C,PS1*%
X37685000Y-2750000D02*
X37685000Y-25695000D01*
X37685000Y-25705000D02*
X51605000Y-25705000D01*
X38750000Y-1685000D02*
X37685000Y-2750000D01*
X51595000Y-1685000D02*
X38750000Y-1685000D01*
X51605000Y-25695000D02*
X51605000Y-1695000D01*
%TO.C,P1*%
X4190000Y-15180000D02*
X5890000Y-15180000D01*
X4190000Y-20860000D02*
X4190000Y-15180000D01*
X5890000Y-13980000D02*
X12910000Y-13980000D01*
X5890000Y-15180000D02*
X5890000Y-13980000D01*
X5890000Y-20860000D02*
X4190000Y-20860000D01*
X5890000Y-22060000D02*
X5890000Y-20860000D01*
X7700000Y-22860000D02*
X8000000Y-22260000D01*
X8000000Y-22260000D02*
X8300000Y-22860000D01*
X8300000Y-22860000D02*
X7700000Y-22860000D01*
X12910000Y-13980000D02*
X12910000Y-22060000D01*
X12910000Y-22060000D02*
X5890000Y-22060000D01*
%TO.C,C1*%
X15095000Y-3535000D02*
X16095000Y-3535000D01*
X15595000Y-3035000D02*
X15595000Y-4035000D01*
X16335000Y-2749437D02*
X16335000Y-4535000D01*
X16335000Y-2749437D02*
X17399437Y-1685000D01*
X16335000Y-9340563D02*
X16335000Y-7555000D01*
X16335000Y-9340563D02*
X17399437Y-10405000D01*
X17399437Y-1685000D02*
X25055000Y-1685000D01*
X17399437Y-10405000D02*
X25055000Y-10405000D01*
X25055000Y-1685000D02*
X25055000Y-4535000D01*
X25055000Y-10405000D02*
X25055000Y-7555000D01*
%TO.C,P2*%
X17140000Y-54700000D02*
X17740000Y-55000000D01*
X17140000Y-55300000D02*
X17140000Y-54700000D01*
X17740000Y-55000000D02*
X17140000Y-55300000D01*
X17940000Y-52890000D02*
X19140000Y-52890000D01*
X17940000Y-59910000D02*
X17940000Y-52890000D01*
X19140000Y-51190000D02*
X32740000Y-51190000D01*
X19140000Y-52890000D02*
X19140000Y-51190000D01*
X32740000Y-51190000D02*
X32740000Y-52890000D01*
X32740000Y-52890000D02*
X33940000Y-52890000D01*
X33940000Y-52890000D02*
X33940000Y-59910000D01*
X33940000Y-59910000D02*
X17940000Y-59910000D01*
%TO.C,P3*%
X39140000Y-54700000D02*
X39740000Y-55000000D01*
X39140000Y-55300000D02*
X39140000Y-54700000D01*
X39740000Y-55000000D02*
X39140000Y-55300000D01*
X39940000Y-52890000D02*
X41140000Y-52890000D01*
X39940000Y-59910000D02*
X39940000Y-52890000D01*
X41140000Y-51190000D02*
X54740000Y-51190000D01*
X41140000Y-52890000D02*
X41140000Y-51190000D01*
X54740000Y-51190000D02*
X54740000Y-52890000D01*
X54740000Y-52890000D02*
X55940000Y-52890000D01*
X55940000Y-52890000D02*
X55940000Y-59910000D01*
X55940000Y-59910000D02*
X39940000Y-59910000D01*
%TO.C,PS2*%
X76505000Y-9355000D02*
X76505000Y-10595000D01*
X76505000Y-10595000D02*
X77745000Y-10595000D01*
X76745000Y-1735000D02*
X88465000Y-1735000D01*
X76745000Y-10355000D02*
X76745000Y-1735000D01*
X88465000Y-1735000D02*
X88465000Y-10355000D01*
X88465000Y-10355000D02*
X76745000Y-10355000D01*
%TO.C,D1*%
X27925000Y-1645000D02*
X27925000Y-4945000D01*
X27925000Y-1645000D02*
X33435000Y-1645000D01*
X27925000Y-4945000D02*
X33435000Y-4945000D01*
%TO.C,R1*%
X63867936Y-27155000D02*
X65322064Y-27155000D01*
X63867936Y-28975000D02*
X65322064Y-28975000D01*
%TO.C,D2*%
X14535000Y-11735000D02*
X14535000Y-15035000D01*
X14535000Y-11735000D02*
X20045000Y-11735000D01*
X14535000Y-15035000D02*
X20045000Y-15035000D01*
%TO.C,C32*%
X47524420Y-37245000D02*
X47805580Y-37245000D01*
X47524420Y-38265000D02*
X47805580Y-38265000D01*
%TO.C,C2*%
X31213748Y-11875000D02*
X32636252Y-11875000D01*
X31213748Y-14595000D02*
X32636252Y-14595000D01*
%TO.C,C31*%
X43474420Y-37245000D02*
X43755580Y-37245000D01*
X43474420Y-38265000D02*
X43755580Y-38265000D01*
%TO.C,C11*%
X52523748Y-27175000D02*
X53946252Y-27175000D01*
X52523748Y-28995000D02*
X53946252Y-28995000D01*
%TO.C,F1*%
X24198748Y-11875000D02*
X26971252Y-11875000D01*
X24198748Y-15295000D02*
X26971252Y-15295000D01*
%TD*%
%LPC*%
D12*
%TO.C,H2*%
X113600000Y-4000000D03*
X114302944Y-2302944D03*
X114302944Y-5697056D03*
X116000000Y-1600000D03*
D13*
X116000000Y-4000000D03*
D12*
X116000000Y-6400000D03*
X117697056Y-2302944D03*
X117697056Y-5697056D03*
X118400000Y-4000000D03*
%TD*%
D14*
%TO.C,C12*%
X57450000Y-28085000D03*
X60400000Y-28085000D03*
%TD*%
D15*
%TO.C,L1*%
X68652500Y-27785000D03*
X70777500Y-27785000D03*
%TD*%
D16*
%TO.C,C22*%
X39995000Y-31435000D03*
X47395000Y-31435000D03*
%TD*%
D17*
%TO.C,P5*%
X86000000Y-55000000D03*
D18*
X89960000Y-55000000D03*
X93920000Y-55000000D03*
X97880000Y-55000000D03*
%TD*%
D16*
%TO.C,C21*%
X55285000Y-6045000D03*
X62685000Y-6045000D03*
%TD*%
D15*
%TO.C,L2*%
X38232500Y-37875000D03*
X40357500Y-37875000D03*
%TD*%
D14*
%TO.C,C42*%
X77370000Y-12785000D03*
X80320000Y-12785000D03*
%TD*%
D19*
%TO.C,TP1*%
X100000000Y-44000000D03*
D20*
X102500000Y-44000000D03*
X105000000Y-44000000D03*
X107500000Y-44000000D03*
%TD*%
D12*
%TO.C,H4*%
X113600000Y-58000000D03*
X114302944Y-56302944D03*
X114302944Y-59697056D03*
X116000000Y-55600000D03*
D13*
X116000000Y-58000000D03*
D12*
X116000000Y-60400000D03*
X117697056Y-56302944D03*
X117697056Y-59697056D03*
X118400000Y-58000000D03*
%TD*%
D21*
%TO.C,C41*%
X90570000Y-3145000D03*
X93520000Y-3145000D03*
%TD*%
D17*
%TO.C,P4*%
X64000000Y-55000000D03*
D18*
X67960000Y-55000000D03*
X71920000Y-55000000D03*
X75880000Y-55000000D03*
%TD*%
D22*
%TO.C,PS1*%
X39565000Y-4795000D03*
D23*
X39565000Y-22575000D03*
X49725000Y-22575000D03*
X49725000Y-20035000D03*
X49725000Y-4795000D03*
%TD*%
D24*
%TO.C,P1*%
X8000000Y-20000000D03*
D18*
X8000000Y-16040000D03*
%TD*%
D16*
%TO.C,C1*%
X16995000Y-6045000D03*
X24395000Y-6045000D03*
%TD*%
D17*
%TO.C,P2*%
X20000000Y-55000000D03*
D18*
X23960000Y-55000000D03*
X27920000Y-55000000D03*
X31880000Y-55000000D03*
%TD*%
D17*
%TO.C,P3*%
X42000000Y-55000000D03*
D18*
X45960000Y-55000000D03*
X49920000Y-55000000D03*
X53880000Y-55000000D03*
%TD*%
D25*
%TO.C,PS2*%
X80115000Y-8295000D03*
D26*
X82655000Y-8295000D03*
X85195000Y-8295000D03*
%TD*%
D12*
%TO.C,H1*%
X1600000Y-4000000D03*
X2302944Y-2302944D03*
X2302944Y-5697056D03*
X4000000Y-1600000D03*
D13*
X4000000Y-4000000D03*
D12*
X4000000Y-6400000D03*
X5697056Y-2302944D03*
X5697056Y-5697056D03*
X6400000Y-4000000D03*
%TD*%
D27*
%TO.C,D1*%
X29435000Y-3295000D03*
X33435000Y-3295000D03*
%TD*%
D12*
%TO.C,H3*%
X1600000Y-58000000D03*
X2302944Y-56302944D03*
X2302944Y-59697056D03*
X4000000Y-55600000D03*
D13*
X4000000Y-58000000D03*
D12*
X4000000Y-60400000D03*
X5697056Y-56302944D03*
X5697056Y-59697056D03*
X6400000Y-58000000D03*
%TD*%
D28*
%TO.C,R1*%
X63132500Y-28065000D03*
X66057500Y-28065000D03*
%TD*%
D27*
%TO.C,D2*%
X16045000Y-13385000D03*
X20045000Y-13385000D03*
%TD*%
D29*
%TO.C,C32*%
X46890000Y-37755000D03*
X48440000Y-37755000D03*
%TD*%
D21*
%TO.C,C2*%
X30450000Y-13235000D03*
X33400000Y-13235000D03*
%TD*%
D29*
%TO.C,C31*%
X42840000Y-37755000D03*
X44390000Y-37755000D03*
%TD*%
D14*
%TO.C,C11*%
X51760000Y-28085000D03*
X54710000Y-28085000D03*
%TD*%
D30*
%TO.C,F1*%
X23447500Y-13585000D03*
X27722500Y-13585000D03*
%TD*%
%LPD*%
M02*
