M48
; DRILL file KiCad 10.0.6 date 2026-09-15T18:26:16
; FORMAT={-:-/ absolute / metric / decimal}
; #@! TF.CreationDate,2026-09-15T18:26:16-06:00
; #@! TF.GenerationSoftware,Kicad,Pcbnew,10.0.6
; #@! TF.FileFunction,Plated,1,2,PTH
FMAT,2
METRIC
; #@! TA.AperFunction,Plated,PTH,ViaDrill
T1C0.300
; #@! TA.AperFunction,Plated,PTH,ViaDrill
T2C0.400
; #@! TA.AperFunction,Plated,PTH,ComponentDrill
T3C0.500
; #@! TA.AperFunction,Plated,PTH,ComponentDrill
T4C0.700
; #@! TA.AperFunction,Plated,PTH,ComponentDrill
T5C0.950
; #@! TA.AperFunction,Plated,PTH,ComponentDrill
T6C1.000
; #@! TA.AperFunction,Plated,PTH,ComponentDrill
T7C1.700
; #@! TA.AperFunction,Plated,PTH,ComponentDrill
T8C3.200
%
G90
G05
T1
X3.95Y-11.95
X3.95Y-19.95
X3.95Y-27.95
X3.95Y-35.95
X3.95Y-43.95
X3.95Y-51.95
X11.95Y-11.95
X11.95Y-27.95
X11.95Y-35.95
X11.95Y-43.95
X11.95Y-51.95
X19.95Y-27.95
X19.95Y-35.95
X19.95Y-43.95
X19.95Y-51.95
X27.95Y-27.95
X27.95Y-35.95
X27.95Y-43.95
X27.95Y-51.95
X35.95Y-11.95
X35.95Y-27.95
X43.95Y-11.95
X43.95Y-27.95
X43.95Y-35.95
X51.95Y-11.95
X67.95Y-11.95
X75.95Y-3.95
X75.95Y-19.95
X75.95Y-27.95
X83.95Y-11.95
X83.95Y-19.95
X83.95Y-27.95
X83.95Y-35.95
X91.95Y-11.95
X91.95Y-19.95
X91.95Y-35.95
X91.95Y-51.95
X99.95Y-3.95
X99.95Y-11.95
X99.95Y-19.95
X99.95Y-27.95
X107.95Y-3.95
X107.95Y-11.95
X107.95Y-19.95
X107.95Y-27.95
X107.95Y-35.95
X107.95Y-51.95
X115.95Y-11.95
X115.95Y-19.95
X115.95Y-27.95
X115.95Y-35.95
X115.95Y-43.95
X115.95Y-51.95
T2
X64.422Y-28.065
T3
X1.6Y-4.0
X1.6Y-58.0
X2.303Y-2.303
X2.303Y-5.697
X2.303Y-56.303
X2.303Y-59.697
X4.0Y-1.6
X4.0Y-6.4
X4.0Y-55.6
X4.0Y-60.4
X5.697Y-2.303
X5.697Y-5.697
X5.697Y-56.303
X5.697Y-59.697
X6.4Y-4.0
X6.4Y-58.0
X113.6Y-4.0
X113.6Y-58.0
X114.303Y-2.303
X114.303Y-5.697
X114.303Y-56.303
X114.303Y-59.697
X116.0Y-1.6
X116.0Y-6.4
X116.0Y-55.6
X116.0Y-60.4
X117.697Y-2.303
X117.697Y-5.697
X117.697Y-56.303
X117.697Y-59.697
X118.4Y-4.0
X118.4Y-58.0
T4
X39.565Y-4.795
X39.565Y-22.575
X49.725Y-4.795
X49.725Y-20.035
X49.725Y-22.575
T5
X100.0Y-44.0
X102.5Y-44.0
X105.0Y-44.0
X107.5Y-44.0
T6
X80.115Y-8.295
X82.655Y-8.295
X85.195Y-8.295
T7
X8.0Y-16.04
X8.0Y-20.0
X20.0Y-55.0
X23.96Y-55.0
X27.92Y-55.0
X31.88Y-55.0
X42.0Y-55.0
X45.96Y-55.0
X49.92Y-55.0
X53.88Y-55.0
X64.0Y-55.0
X67.96Y-55.0
X71.92Y-55.0
X75.88Y-55.0
X86.0Y-55.0
X89.96Y-55.0
X93.92Y-55.0
X97.88Y-55.0
T8
X4.0Y-4.0
X4.0Y-58.0
X116.0Y-4.0
X116.0Y-58.0
M30
