%TF.GenerationSoftware,KiCad,Pcbnew,10.0.6*%
%TF.CreationDate,2026-09-15T18:26:14-06:00*%
%TF.ProjectId,power-board,706f7765-722d-4626-9f61-72642e6b6963,rev?*%
%TF.SameCoordinates,Original*%
%TF.FileFunction,Copper,L1,Top*%
%TF.FilePolarity,Positive*%
%FSLAX46Y46*%
G04 Gerber Fmt 4.6, Leading zero omitted, Abs format (unit mm)*
G04 Created by KiCad (PCBNEW 10.0.6) date 2026-09-15 18:26:14*
%MOMM*%
%LPD*%
G01*
G04 APERTURE LIST*
G04 Aperture macros list*
%AMRoundRect*
0 Rectangle with rounded corners*
0 $1 Rounding radius*
0 $2 $3 $4 $5 $6 $7 $8 $9 X,Y pos of 4 corners*
0 Add a 4 corners polygon primitive as box body*
4,1,4,$2,$3,$4,$5,$6,$7,$8,$9,$2,$3,0*
0 Add four circle primitives for the rounded corners*
1,1,$1+$1,$2,$3*
1,1,$1+$1,$4,$5*
1,1,$1+$1,$6,$7*
1,1,$1+$1,$8,$9*
0 Add four rect primitives between the rounded corners*
20,1,$1+$1,$2,$3,$4,$5,0*
20,1,$1+$1,$4,$5,$6,$7,0*
20,1,$1+$1,$6,$7,$8,$9,0*
20,1,$1+$1,$8,$9,$2,$3,0*%
G04 Aperture macros list end*
%TA.AperFunction,ComponentPad*%
%ADD10C,0.800000*%
%TD*%
%TA.AperFunction,ComponentPad*%
%ADD11C,6.400000*%
%TD*%
%TA.AperFunction,SMDPad,CuDef*%
%ADD12RoundRect,0.250000X-0.325000X-0.650000X0.325000X-0.650000X0.325000X0.650000X-0.325000X0.650000X0*%
%TD*%
%TA.AperFunction,SMDPad,CuDef*%
%ADD13RoundRect,0.218750X-0.218750X-0.381250X0.218750X-0.381250X0.218750X0.381250X-0.218750X0.381250X0*%
%TD*%
%TA.AperFunction,SMDPad,CuDef*%
%ADD14RoundRect,0.250000X-1.950000X-1.000000X1.950000X-1.000000X1.950000X1.000000X-1.950000X1.000000X0*%
%TD*%
%TA.AperFunction,ComponentPad*%
%ADD15RoundRect,0.250001X-1.099999X-1.099999X1.099999X-1.099999X1.099999X1.099999X-1.099999X1.099999X0*%
%TD*%
%TA.AperFunction,ComponentPad*%
%ADD16C,2.700000*%
%TD*%
%TA.AperFunction,ComponentPad*%
%ADD17RoundRect,0.250000X-0.600000X-0.725000X0.600000X-0.725000X0.600000X0.725000X-0.600000X0.725000X0*%
%TD*%
%TA.AperFunction,ComponentPad*%
%ADD18O,1.700000X1.950000*%
%TD*%
%TA.AperFunction,SMDPad,CuDef*%
%ADD19RoundRect,0.250000X-0.325000X-1.100000X0.325000X-1.100000X0.325000X1.100000X-0.325000X1.100000X0*%
%TD*%
%TA.AperFunction,ComponentPad*%
%ADD20R,2.000000X1.500000*%
%TD*%
%TA.AperFunction,ComponentPad*%
%ADD21O,2.000000X1.500000*%
%TD*%
%TA.AperFunction,ComponentPad*%
%ADD22RoundRect,0.250001X1.099999X-1.099999X1.099999X1.099999X-1.099999X1.099999X-1.099999X-1.099999X0*%
%TD*%
%TA.AperFunction,ComponentPad*%
%ADD23R,1.500000X2.300000*%
%TD*%
%TA.AperFunction,ComponentPad*%
%ADD24O,1.500000X2.300000*%
%TD*%
%TA.AperFunction,SMDPad,CuDef*%
%ADD25RoundRect,0.250000X-1.000000X-0.650000X1.000000X-0.650000X1.000000X0.650000X-1.000000X0.650000X0*%
%TD*%
%TA.AperFunction,SMDPad,CuDef*%
%ADD26RoundRect,0.250000X-0.312500X-0.625000X0.312500X-0.625000X0.312500X0.625000X-0.312500X0.625000X0*%
%TD*%
%TA.AperFunction,SMDPad,CuDef*%
%ADD27RoundRect,0.225000X-0.225000X-0.250000X0.225000X-0.250000X0.225000X0.250000X-0.225000X0.250000X0*%
%TD*%
%TA.AperFunction,SMDPad,CuDef*%
%ADD28RoundRect,0.250000X-0.312500X-1.450000X0.312500X-1.450000X0.312500X1.450000X-0.312500X1.450000X0*%
%TD*%
%TA.AperFunction,ViaPad*%
%ADD29C,0.600000*%
%TD*%
%TA.AperFunction,ViaPad*%
%ADD30C,0.800000*%
%TD*%
%TA.AperFunction,Conductor*%
%ADD31C,0.600000*%
%TD*%
G04 APERTURE END LIST*
D10*
%TO.P,H2,1*%
%TO.N,AGND*%
X113600000Y-4000000D03*
X114302944Y-2302944D03*
X114302944Y-5697056D03*
X116000000Y-1600000D03*
D11*
X116000000Y-4000000D03*
D10*
X116000000Y-6400000D03*
X117697056Y-2302944D03*
X117697056Y-5697056D03*
X118400000Y-4000000D03*
%TD*%
D12*
%TO.P,C12,1*%
%TO.N,AGND*%
X57450000Y-28085000D03*
%TO.P,C12,2*%
%TO.N,-15V_DC*%
X60400000Y-28085000D03*
%TD*%
D13*
%TO.P,L1,1*%
%TO.N,+15V_DC*%
X68652500Y-27785000D03*
%TO.P,L1,2*%
%TO.N,+15VA*%
X70777500Y-27785000D03*
%TD*%
D14*
%TO.P,C22,1*%
%TO.N,AGND*%
X39995000Y-31435000D03*
%TO.P,C22,2*%
%TO.N,-15VA*%
X47395000Y-31435000D03*
%TD*%
D15*
%TO.P,P5,1*%
%TO.N,+15VA*%
X86000000Y-55000000D03*
D16*
%TO.P,P5,2*%
%TO.N,AGND*%
X89960000Y-55000000D03*
%TO.P,P5,3*%
%TO.N,-15VA*%
X93920000Y-55000000D03*
%TO.P,P5,4*%
%TO.N,+5VAUX*%
X97880000Y-55000000D03*
%TD*%
D14*
%TO.P,C21,1*%
%TO.N,+15VA*%
X55285000Y-6045000D03*
%TO.P,C21,2*%
%TO.N,AGND*%
X62685000Y-6045000D03*
%TD*%
D13*
%TO.P,L2,1*%
%TO.N,-15V_DC*%
X38232500Y-37875000D03*
%TO.P,L2,2*%
%TO.N,-15VA*%
X40357500Y-37875000D03*
%TD*%
D12*
%TO.P,C42,1*%
%TO.N,+5VAUX*%
X77370000Y-12785000D03*
%TO.P,C42,2*%
%TO.N,AGND*%
X80320000Y-12785000D03*
%TD*%
D17*
%TO.P,TP1,1*%
%TO.N,+15VA*%
X100000000Y-44000000D03*
D18*
%TO.P,TP1,2*%
%TO.N,AGND*%
X102500000Y-44000000D03*
%TO.P,TP1,3*%
%TO.N,-15VA*%
X105000000Y-44000000D03*
%TO.P,TP1,4*%
%TO.N,+5VAUX*%
X107500000Y-44000000D03*
%TD*%
D10*
%TO.P,H4,1*%
%TO.N,AGND*%
X113600000Y-58000000D03*
X114302944Y-56302944D03*
X114302944Y-59697056D03*
X116000000Y-55600000D03*
D11*
X116000000Y-58000000D03*
D10*
X116000000Y-60400000D03*
X117697056Y-56302944D03*
X117697056Y-59697056D03*
X118400000Y-58000000D03*
%TD*%
D19*
%TO.P,C41,1*%
%TO.N,VIN_PROT*%
X90570000Y-3145000D03*
%TO.P,C41,2*%
%TO.N,PGND*%
X93520000Y-3145000D03*
%TD*%
D15*
%TO.P,P4,1*%
%TO.N,+15VA*%
X64000000Y-55000000D03*
D16*
%TO.P,P4,2*%
%TO.N,AGND*%
X67960000Y-55000000D03*
%TO.P,P4,3*%
%TO.N,-15VA*%
X71920000Y-55000000D03*
%TO.P,P4,4*%
%TO.N,+5VAUX*%
X75880000Y-55000000D03*
%TD*%
D20*
%TO.P,PS1,1*%
%TO.N,PGND*%
X39565000Y-4795000D03*
D21*
%TO.P,PS1,8*%
%TO.N,AGND*%
X39565000Y-22575000D03*
%TO.P,PS1,9*%
%TO.N,+15V_DC*%
X49725000Y-22575000D03*
%TO.P,PS1,10*%
%TO.N,-15V_DC*%
X49725000Y-20035000D03*
%TO.P,PS1,16*%
%TO.N,VIN_PROT*%
X49725000Y-4795000D03*
%TD*%
D22*
%TO.P,P1,1*%
%TO.N,VIN_RAW*%
X8000000Y-20000000D03*
D16*
%TO.P,P1,2*%
%TO.N,PGND*%
X8000000Y-16040000D03*
%TD*%
D14*
%TO.P,C1,1*%
%TO.N,VIN_PROT*%
X16995000Y-6045000D03*
%TO.P,C1,2*%
%TO.N,PGND*%
X24395000Y-6045000D03*
%TD*%
D15*
%TO.P,P2,1*%
%TO.N,+15VA*%
X20000000Y-55000000D03*
D16*
%TO.P,P2,2*%
%TO.N,AGND*%
X23960000Y-55000000D03*
%TO.P,P2,3*%
%TO.N,-15VA*%
X27920000Y-55000000D03*
%TO.P,P2,4*%
%TO.N,+5VAUX*%
X31880000Y-55000000D03*
%TD*%
D15*
%TO.P,P3,1*%
%TO.N,+15VA*%
X42000000Y-55000000D03*
D16*
%TO.P,P3,2*%
%TO.N,AGND*%
X45960000Y-55000000D03*
%TO.P,P3,3*%
%TO.N,-15VA*%
X49920000Y-55000000D03*
%TO.P,P3,4*%
%TO.N,+5VAUX*%
X53880000Y-55000000D03*
%TD*%
D23*
%TO.P,PS2,1*%
%TO.N,VIN_PROT*%
X80115000Y-8295000D03*
D24*
%TO.P,PS2,2*%
%TO.N,PGND*%
X82655000Y-8295000D03*
%TO.P,PS2,3*%
%TO.N,+5VAUX*%
X85195000Y-8295000D03*
%TD*%
D10*
%TO.P,H1,1*%
%TO.N,AGND*%
X1600000Y-4000000D03*
X2302944Y-2302944D03*
X2302944Y-5697056D03*
X4000000Y-1600000D03*
D11*
X4000000Y-4000000D03*
D10*
X4000000Y-6400000D03*
X5697056Y-2302944D03*
X5697056Y-5697056D03*
X6400000Y-4000000D03*
%TD*%
D25*
%TO.P,D1,1*%
%TO.N,VIN_PROT*%
X29435000Y-3295000D03*
%TO.P,D1,2*%
%TO.N,VIN_FUSED*%
X33435000Y-3295000D03*
%TD*%
D10*
%TO.P,H3,1*%
%TO.N,AGND*%
X1600000Y-58000000D03*
X2302944Y-56302944D03*
X2302944Y-59697056D03*
X4000000Y-55600000D03*
D11*
X4000000Y-58000000D03*
D10*
X4000000Y-60400000D03*
X5697056Y-56302944D03*
X5697056Y-59697056D03*
X6400000Y-58000000D03*
%TD*%
D26*
%TO.P,R1,1*%
%TO.N,PGND*%
X63132500Y-28065000D03*
%TO.P,R1,2*%
%TO.N,AGND*%
X66057500Y-28065000D03*
%TD*%
D25*
%TO.P,D2,1*%
%TO.N,VIN_PROT*%
X16045000Y-13385000D03*
%TO.P,D2,2*%
%TO.N,PGND*%
X20045000Y-13385000D03*
%TD*%
D27*
%TO.P,C32,1*%
%TO.N,AGND*%
X46890000Y-37755000D03*
%TO.P,C32,2*%
%TO.N,-15VA*%
X48440000Y-37755000D03*
%TD*%
D19*
%TO.P,C2,1*%
%TO.N,VIN_PROT*%
X30450000Y-13235000D03*
%TO.P,C2,2*%
%TO.N,PGND*%
X33400000Y-13235000D03*
%TD*%
D27*
%TO.P,C31,1*%
%TO.N,+15VA*%
X42840000Y-37755000D03*
%TO.P,C31,2*%
%TO.N,AGND*%
X44390000Y-37755000D03*
%TD*%
D12*
%TO.P,C11,1*%
%TO.N,+15V_DC*%
X51760000Y-28085000D03*
%TO.P,C11,2*%
%TO.N,AGND*%
X54710000Y-28085000D03*
%TD*%
D28*
%TO.P,F1,1*%
%TO.N,VIN_RAW*%
X23447500Y-13585000D03*
%TO.P,F1,2*%
%TO.N,VIN_FUSED*%
X27722500Y-13585000D03*
%TD*%
D29*
%TO.N,AGND*%
X99950000Y-11950000D03*
X27950000Y-35950000D03*
X107950000Y-11950000D03*
X91950000Y-11950000D03*
X27950000Y-43950000D03*
X11950000Y-27950000D03*
X107950000Y-51950000D03*
X11950000Y-35950000D03*
X43950000Y-11950000D03*
X107950000Y-3950000D03*
X83950000Y-35950000D03*
X3950000Y-43950000D03*
X99950000Y-3950000D03*
X115950000Y-35950000D03*
X99950000Y-19950000D03*
X11950000Y-51950000D03*
X115950000Y-19950000D03*
X19950000Y-51950000D03*
X27950000Y-51950000D03*
X3950000Y-19950000D03*
X19950000Y-35950000D03*
X43950000Y-35950000D03*
X3950000Y-11950000D03*
X115950000Y-51950000D03*
X35950000Y-11950000D03*
X3950000Y-51950000D03*
X43950000Y-27950000D03*
X75950000Y-27950000D03*
X91950000Y-19950000D03*
X75950000Y-19950000D03*
X67950000Y-11950000D03*
X75950000Y-3950000D03*
X107950000Y-27950000D03*
X35950000Y-27950000D03*
X11950000Y-11950000D03*
X107950000Y-35950000D03*
X83950000Y-27950000D03*
X27950000Y-27950000D03*
X99950000Y-27950000D03*
X91950000Y-35950000D03*
X115950000Y-43950000D03*
X3950000Y-27950000D03*
X115950000Y-27950000D03*
X83950000Y-19950000D03*
X91950000Y-51950000D03*
X19950000Y-27950000D03*
X115950000Y-11950000D03*
X11950000Y-43950000D03*
X83950000Y-11950000D03*
X107950000Y-19950000D03*
X3950000Y-35950000D03*
X51950000Y-11950000D03*
X19950000Y-43950000D03*
D30*
%TO.N,PGND*%
X64422400Y-28065000D03*
%TD*%
%TO.N,AGND*%
D31*
X2302900Y-57297100D02*
X2302900Y-56302900D01*
X4000000Y-59697100D02*
X4000000Y-58000000D01*
X2302900Y-5697100D02*
X1600000Y-4994200D01*
X62685000Y-6045000D02*
X70881200Y-14241200D01*
X113600000Y-5697100D02*
X114302900Y-5697100D01*
X5697100Y-5697100D02*
X4351400Y-5697100D01*
X58902700Y-26632300D02*
X64624800Y-26632300D01*
X2302900Y-2302900D02*
X3297100Y-2302900D01*
X115297100Y-59697100D02*
X115297100Y-58702900D01*
X116702900Y-2302900D02*
X116000000Y-1600000D01*
X114302900Y-59697100D02*
X115297100Y-59697100D01*
X4000000Y-60400000D02*
X4000000Y-59697100D01*
X44390000Y-35830000D02*
X39995000Y-31435000D01*
X20960000Y-58000000D02*
X6400000Y-58000000D01*
X2654300Y-6048500D02*
X2302900Y-5697100D01*
X1600000Y-58994200D02*
X1600000Y-58000000D01*
X5697100Y-2302900D02*
X4702900Y-2302900D01*
X116000000Y-55600000D02*
X116702900Y-56302900D01*
X116702900Y-3297100D02*
X116000000Y-4000000D01*
X54695200Y-4238600D02*
X54696700Y-4240100D01*
X54710000Y-28085000D02*
X57450000Y-28085000D01*
X41611000Y-29579100D02*
X53215900Y-29579100D01*
X2302900Y-59697100D02*
X1600000Y-58994200D01*
X113600000Y-5697100D02*
X113600000Y-4000000D01*
X41611000Y-29579100D02*
X41611000Y-25922700D01*
X3297100Y-2302900D02*
X4000000Y-1600000D01*
X70881200Y-14241200D02*
X78863800Y-14241200D01*
X39565000Y-22575000D02*
X39565000Y-17635800D01*
X4000000Y-6048500D02*
X2654300Y-6048500D01*
X52962200Y-4238600D02*
X54695200Y-4238600D01*
X116702900Y-56302900D02*
X117697100Y-56302900D01*
X64624800Y-26632300D02*
X66057500Y-28065000D01*
X115297100Y-59697100D02*
X116000000Y-60400000D01*
X41611000Y-29819000D02*
X41611000Y-29579100D01*
X116702900Y-2302900D02*
X116702900Y-3297100D01*
X80320000Y-12785000D02*
X106512100Y-12785000D01*
X4000000Y-59697100D02*
X2302900Y-59697100D01*
X115297100Y-5697100D02*
X116000000Y-6400000D01*
X4351400Y-4351400D02*
X4000000Y-4000000D01*
X53215900Y-29579100D02*
X54710000Y-28085000D01*
X1600000Y-58000000D02*
X2302900Y-57297100D01*
X78863800Y-14241200D02*
X80320000Y-12785000D01*
X113600000Y-58000000D02*
X114302900Y-58702900D01*
X116000000Y-6400000D02*
X116994200Y-6400000D01*
X116994200Y-6400000D02*
X117697100Y-5697100D01*
X60880100Y-4240100D02*
X62685000Y-6045000D01*
X57450000Y-28085000D02*
X58902700Y-26632300D01*
X41611000Y-25922700D02*
X39565000Y-23876700D01*
X54696700Y-4240100D02*
X60880100Y-4240100D01*
X4351400Y-5697100D02*
X4000000Y-6048500D01*
X106512100Y-12785000D02*
X113600000Y-5697100D01*
X39995000Y-31435000D02*
X41611000Y-29819000D01*
X4702900Y-2302900D02*
X4000000Y-1600000D01*
X44390000Y-37755000D02*
X46890000Y-37755000D01*
X39565000Y-17635800D02*
X52962200Y-4238600D01*
X4351400Y-5697100D02*
X4351400Y-4351400D01*
X4000000Y-6048500D02*
X4000000Y-6400000D01*
X1600000Y-4994200D02*
X1600000Y-4000000D01*
X23960000Y-55000000D02*
X20960000Y-58000000D01*
X114302900Y-5697100D02*
X115297100Y-5697100D01*
X5697100Y-59697100D02*
X4000000Y-59697100D01*
X39565000Y-22575000D02*
X39565000Y-23876700D01*
X115297100Y-58702900D02*
X116000000Y-58000000D01*
X44390000Y-37755000D02*
X44390000Y-35830000D01*
X117697100Y-2302900D02*
X116702900Y-2302900D01*
X114302900Y-58702900D02*
X114302900Y-59697100D01*
%TO.N,-15V_DC*%
X69658500Y-28481600D02*
X68586900Y-29553200D01*
X49725000Y-20035000D02*
X62613600Y-20035000D01*
X61868200Y-29553200D02*
X60400000Y-28085000D01*
X60400000Y-28085000D02*
X48835000Y-39650000D01*
X68586900Y-29553200D02*
X61868200Y-29553200D01*
X69658500Y-27079900D02*
X69658500Y-28481600D01*
X62613600Y-20035000D02*
X69658500Y-27079900D01*
X48835000Y-39650000D02*
X40007500Y-39650000D01*
X40007500Y-39650000D02*
X38232500Y-37875000D01*
%TO.N,+15V_DC*%
X49725000Y-22575000D02*
X49725000Y-23876700D01*
X49725000Y-23876700D02*
X51760000Y-25911700D01*
X51760000Y-25911700D02*
X51760000Y-28085000D01*
X68652500Y-27785000D02*
X66637900Y-25770400D01*
X66637900Y-25770400D02*
X51901300Y-25770400D01*
X51901300Y-25770400D02*
X51760000Y-25911700D01*
%TO.N,+15VA*%
X36344600Y-36815400D02*
X36344600Y-49344600D01*
X70777500Y-27785000D02*
X70777500Y-21537500D01*
X100000000Y-44000000D02*
X86992500Y-44000000D01*
X62096300Y-53096300D02*
X64000000Y-55000000D01*
X37302600Y-35857400D02*
X36344600Y-36815400D01*
X86992500Y-54007500D02*
X86000000Y-55000000D01*
X36344600Y-49344600D02*
X42000000Y-55000000D01*
X51900000Y-55717500D02*
X51900000Y-54275300D01*
X86992500Y-44000000D02*
X86992500Y-54007500D01*
X53079000Y-53096300D02*
X62096300Y-53096300D01*
X42840000Y-37755000D02*
X40942400Y-35857400D01*
X43901700Y-56901700D02*
X50715800Y-56901700D01*
X36344600Y-49344600D02*
X25655400Y-49344600D01*
X70777500Y-21537500D02*
X55285000Y-6045000D01*
X86992500Y-44000000D02*
X70777500Y-27785000D01*
X40942400Y-35857400D02*
X37302600Y-35857400D01*
X51900000Y-54275300D02*
X53079000Y-53096300D01*
X50715800Y-56901700D02*
X51900000Y-55717500D01*
X25655400Y-49344600D02*
X20000000Y-55000000D01*
X42000000Y-55000000D02*
X43901700Y-56901700D01*
%TO.N,-15VA*%
X39193400Y-36710900D02*
X40357500Y-37875000D01*
X93920000Y-55000000D02*
X91997000Y-56923000D01*
X37240500Y-38573700D02*
X37240500Y-37137000D01*
X47395000Y-31435000D02*
X48440000Y-32480000D01*
X48440000Y-32480000D02*
X48440000Y-37755000D01*
X51342500Y-52241100D02*
X51125200Y-52458400D01*
X51125200Y-52458400D02*
X37240500Y-38573700D01*
X48440000Y-37779700D02*
X47430000Y-38789700D01*
X91997000Y-56923000D02*
X83449100Y-56923000D01*
X51125200Y-52458400D02*
X49920000Y-53663600D01*
X69161100Y-52241100D02*
X51342500Y-52241100D01*
X48440000Y-37755000D02*
X48440000Y-37779700D01*
X41272200Y-38789700D02*
X40357500Y-37875000D01*
X37666600Y-36710900D02*
X39193400Y-36710900D01*
X71920000Y-55000000D02*
X69161100Y-52241100D01*
X47430000Y-38789700D02*
X41272200Y-38789700D01*
X73822500Y-53097500D02*
X71920000Y-55000000D01*
X37240500Y-37137000D02*
X37666600Y-36710900D01*
X83449100Y-56923000D02*
X79623600Y-53097500D01*
X49920000Y-53663600D02*
X49920000Y-55000000D01*
X79623600Y-53097500D02*
X73822500Y-53097500D01*
%TO.N,+5VAUX*%
X80097100Y-10057900D02*
X77370000Y-12785000D01*
X107500000Y-44000000D02*
X107500000Y-45526700D01*
X107500000Y-45526700D02*
X107353300Y-45526700D01*
X97880000Y-55000000D02*
X95096700Y-57783300D01*
X85195000Y-8295000D02*
X83432100Y-10057900D01*
X55802800Y-56922800D02*
X73957200Y-56922800D01*
X83432100Y-10057900D02*
X80097100Y-10057900D01*
X73957200Y-56922800D02*
X75880000Y-55000000D01*
X95096700Y-57783300D02*
X78663300Y-57783300D01*
X53880000Y-55000000D02*
X55802800Y-56922800D01*
X78663300Y-57783300D02*
X75880000Y-55000000D01*
X107353300Y-45526700D02*
X97880000Y-55000000D01*
%TO.N,VIN_PROT*%
X29435000Y-3295000D02*
X19745000Y-3295000D01*
X73846000Y-3327700D02*
X49890600Y-3327700D01*
X36625500Y-3495000D02*
X34900900Y-1770400D01*
X16045000Y-13385000D02*
X16045000Y-6995000D01*
X16045000Y-6995000D02*
X16995000Y-6045000D01*
X34900900Y-1770400D02*
X30959600Y-1770400D01*
X30450000Y-13235000D02*
X36625500Y-7059500D01*
X36625500Y-3495000D02*
X36627200Y-3493300D01*
X78813300Y-8295000D02*
X73846000Y-3327700D01*
X90570000Y-3145000D02*
X85265000Y-3145000D01*
X85265000Y-3145000D02*
X80115000Y-8295000D01*
X36625500Y-7059500D02*
X36625500Y-3495000D01*
X36627200Y-3493300D02*
X49725000Y-3493300D01*
X49890600Y-3327700D02*
X49725000Y-3493300D01*
X19745000Y-3295000D02*
X16995000Y-6045000D01*
X80115000Y-8295000D02*
X78813300Y-8295000D01*
X49725000Y-4795000D02*
X49725000Y-3493300D01*
X30959600Y-1770400D02*
X29435000Y-3295000D01*
%TO.N,PGND*%
X25419500Y-14249200D02*
X25419500Y-12602300D01*
X39565000Y-6096700D02*
X33400000Y-12261700D01*
X33400000Y-13235000D02*
X30796600Y-15838400D01*
X23123600Y-10306400D02*
X20045000Y-13385000D01*
X90211900Y-6453100D02*
X93520000Y-3145000D01*
X23123600Y-7316400D02*
X24395000Y-6045000D01*
X25419500Y-12602300D02*
X23123600Y-10306400D01*
X27008700Y-15838400D02*
X25419500Y-14249200D01*
X84496900Y-6453100D02*
X90211900Y-6453100D01*
X17390000Y-16040000D02*
X8000000Y-16040000D01*
X63132500Y-28065000D02*
X64422400Y-28065000D01*
X23123600Y-10306400D02*
X23123600Y-7316400D01*
X39565000Y-4795000D02*
X39565000Y-6096700D01*
X33400000Y-12261700D02*
X33400000Y-13235000D01*
X20045000Y-13385000D02*
X17390000Y-16040000D01*
X30796600Y-15838400D02*
X27008700Y-15838400D01*
X82655000Y-8295000D02*
X84496900Y-6453100D01*
%TO.N,VIN_RAW*%
X23447500Y-13585000D02*
X17032500Y-20000000D01*
X17032500Y-20000000D02*
X8000000Y-20000000D01*
%TO.N,VIN_FUSED*%
X27722500Y-9007500D02*
X33435000Y-3295000D01*
X27722500Y-13585000D02*
X27722500Y-9007500D01*
%TD*%
%TA.AperFunction,Conductor*%
%TO.N,AGND*%
G36*
X68928042Y-52861285D02*
G01*
X68948684Y-52877919D01*
X70348159Y-54277394D01*
X70381644Y-54338717D01*
X70378409Y-54403393D01*
X70310140Y-54613502D01*
X70310140Y-54613505D01*
X70269500Y-54870097D01*
X70269500Y-55129902D01*
X70310140Y-55386493D01*
X70390422Y-55633576D01*
X70471534Y-55792764D01*
X70494370Y-55837583D01*
X70508368Y-55865054D01*
X70661066Y-56075225D01*
X70661071Y-56075231D01*
X70696459Y-56110619D01*
X70729944Y-56171942D01*
X70724960Y-56241634D01*
X70683088Y-56297567D01*
X70617624Y-56321984D01*
X70608778Y-56322300D01*
X65768761Y-56322300D01*
X65701722Y-56302615D01*
X65655967Y-56249811D01*
X65645646Y-56183514D01*
X65647036Y-56171942D01*
X65650500Y-56143099D01*
X65650499Y-53856902D01*
X65639876Y-53768436D01*
X65584361Y-53627658D01*
X65583102Y-53625998D01*
X65492922Y-53507077D01*
X65372344Y-53415640D01*
X65372342Y-53415639D01*
X65231564Y-53360124D01*
X65231561Y-53360123D01*
X65143099Y-53349500D01*
X63250097Y-53349500D01*
X63183058Y-53329815D01*
X63162416Y-53313181D01*
X62902516Y-53053281D01*
X62869031Y-52991958D01*
X62874015Y-52922266D01*
X62915887Y-52866333D01*
X62981351Y-52841916D01*
X62990197Y-52841600D01*
X68861003Y-52841600D01*
X68928042Y-52861285D01*
G37*
%TD.AperFunction*%
%TA.AperFunction,Conductor*%
G36*
X37150303Y-39333184D02*
G01*
X37156781Y-39339216D01*
X50188283Y-52370718D01*
X50221768Y-52432041D01*
X50216784Y-52501733D01*
X50188283Y-52546080D01*
X49551286Y-53183078D01*
X49439481Y-53294882D01*
X49439480Y-53294884D01*
X49414418Y-53338294D01*
X49401815Y-53360123D01*
X49401813Y-53360126D01*
X49373871Y-53408521D01*
X49323303Y-53456736D01*
X49304807Y-53464449D01*
X49286430Y-53470420D01*
X49054945Y-53588368D01*
X48844774Y-53741066D01*
X48844768Y-53741071D01*
X48661071Y-53924768D01*
X48661066Y-53924774D01*
X48508368Y-54134945D01*
X48390422Y-54366423D01*
X48310140Y-54613506D01*
X48269500Y-54870097D01*
X48269500Y-55129902D01*
X48310140Y-55386493D01*
X48390422Y-55633576D01*
X48471534Y-55792764D01*
X48494370Y-55837583D01*
X48508368Y-55865054D01*
X48661066Y-56075225D01*
X48661071Y-56075231D01*
X48675359Y-56089519D01*
X48708844Y-56150842D01*
X48703860Y-56220534D01*
X48661988Y-56276467D01*
X48596524Y-56300884D01*
X48587678Y-56301200D01*
X44201797Y-56301200D01*
X44134758Y-56281515D01*
X44114116Y-56264881D01*
X43686818Y-55837583D01*
X43653333Y-55776260D01*
X43650499Y-55749902D01*
X43650499Y-53856908D01*
X43650499Y-53856902D01*
X43639876Y-53768436D01*
X43584361Y-53627658D01*
X43583102Y-53625998D01*
X43492922Y-53507077D01*
X43372344Y-53415640D01*
X43372342Y-53415639D01*
X43231564Y-53360124D01*
X43231561Y-53360123D01*
X43143099Y-53349500D01*
X41250097Y-53349500D01*
X41183058Y-53329815D01*
X41162416Y-53313181D01*
X36981419Y-49132184D01*
X36947934Y-49070861D01*
X36945100Y-49044503D01*
X36945100Y-39426897D01*
X36964785Y-39359858D01*
X37017589Y-39314103D01*
X37086747Y-39304159D01*
X37150303Y-39333184D01*
G37*
%TD.AperFunction*%
%TA.AperFunction,Conductor*%
G36*
X119442539Y-520185D02*
G01*
X119488294Y-572989D01*
X119499500Y-624500D01*
X119499500Y-61375500D01*
X119479815Y-61442539D01*
X119427011Y-61488294D01*
X119375500Y-61499500D01*
X624500Y-61499500D01*
X557461Y-61479815D01*
X511706Y-61427011D01*
X500500Y-61375500D01*
X500500Y-53856900D01*
X18349500Y-53856900D01*
X18349500Y-56143091D01*
X18360123Y-56231562D01*
X18415639Y-56372342D01*
X18415640Y-56372344D01*
X18507077Y-56492922D01*
X18611145Y-56571839D01*
X18627658Y-56584361D01*
X18768436Y-56639876D01*
X18856901Y-56650500D01*
X21143098Y-56650499D01*
X21231564Y-56639876D01*
X21372342Y-56584361D01*
X21492922Y-56492922D01*
X21584361Y-56372342D01*
X21639876Y-56231564D01*
X21650500Y-56143099D01*
X21650499Y-54870097D01*
X26269500Y-54870097D01*
X26269500Y-55129902D01*
X26310140Y-55386493D01*
X26390422Y-55633576D01*
X26471534Y-55792764D01*
X26508366Y-55865051D01*
X26661069Y-56075229D01*
X26844771Y-56258931D01*
X27054949Y-56411634D01*
X27202445Y-56486787D01*
X27286423Y-56529577D01*
X27286425Y-56529577D01*
X27286428Y-56529579D01*
X27533507Y-56609860D01*
X27665706Y-56630797D01*
X27790098Y-56650500D01*
X27790103Y-56650500D01*
X28049902Y-56650500D01*
X28163298Y-56632539D01*
X28306493Y-56609860D01*
X28553572Y-56529579D01*
X28785051Y-56411634D01*
X28995229Y-56258931D01*
X29178931Y-56075229D01*
X29331634Y-55865051D01*
X29449579Y-55633572D01*
X29529860Y-55386493D01*
X29552539Y-55243298D01*
X29570500Y-55129902D01*
X29570500Y-54870097D01*
X30229500Y-54870097D01*
X30229500Y-55129902D01*
X30270140Y-55386493D01*
X30350422Y-55633576D01*
X30431534Y-55792764D01*
X30468366Y-55865051D01*
X30621069Y-56075229D01*
X30804771Y-56258931D01*
X31014949Y-56411634D01*
X31162445Y-56486787D01*
X31246423Y-56529577D01*
X31246425Y-56529577D01*
X31246428Y-56529579D01*
X31493507Y-56609860D01*
X31625706Y-56630797D01*
X31750098Y-56650500D01*
X31750103Y-56650500D01*
X32009902Y-56650500D01*
X32123298Y-56632539D01*
X32266493Y-56609860D01*
X32513572Y-56529579D01*
X32745051Y-56411634D01*
X32955229Y-56258931D01*
X33138931Y-56075229D01*
X33291634Y-55865051D01*
X33409579Y-55633572D01*
X33489860Y-55386493D01*
X33512539Y-55243298D01*
X33530500Y-55129902D01*
X33530500Y-54870097D01*
X33508947Y-54734021D01*
X33489860Y-54613507D01*
X33409579Y-54366428D01*
X33409577Y-54366425D01*
X33409577Y-54366423D01*
X33350305Y-54250097D01*
X33291634Y-54134949D01*
X33138931Y-53924771D01*
X32955229Y-53741069D01*
X32955225Y-53741066D01*
X32745054Y-53588368D01*
X32745053Y-53588367D01*
X32745051Y-53588366D01*
X32672764Y-53551534D01*
X32513576Y-53470422D01*
X32266493Y-53390140D01*
X32009902Y-53349500D01*
X32009897Y-53349500D01*
X31750103Y-53349500D01*
X31750098Y-53349500D01*
X31493506Y-53390140D01*
X31246423Y-53470422D01*
X31014945Y-53588368D01*
X30804774Y-53741066D01*
X30804768Y-53741071D01*
X30621071Y-53924768D01*
X30621066Y-53924774D01*
X30468368Y-54134945D01*
X30350422Y-54366423D01*
X30270140Y-54613506D01*
X30229500Y-54870097D01*
X29570500Y-54870097D01*
X29548947Y-54734021D01*
X29529860Y-54613507D01*
X29449579Y-54366428D01*
X29449577Y-54366425D01*
X29449577Y-54366423D01*
X29390305Y-54250097D01*
X29331634Y-54134949D01*
X29178931Y-53924771D01*
X28995229Y-53741069D01*
X28995225Y-53741066D01*
X28785054Y-53588368D01*
X28785053Y-53588367D01*
X28785051Y-53588366D01*
X28712764Y-53551534D01*
X28553576Y-53470422D01*
X28306493Y-53390140D01*
X28049902Y-53349500D01*
X28049897Y-53349500D01*
X27790103Y-53349500D01*
X27790098Y-53349500D01*
X27533506Y-53390140D01*
X27286423Y-53470422D01*
X27054945Y-53588368D01*
X26844774Y-53741066D01*
X26844768Y-53741071D01*
X26661071Y-53924768D01*
X26661066Y-53924774D01*
X26508368Y-54134945D01*
X26390422Y-54366423D01*
X26310140Y-54613506D01*
X26269500Y-54870097D01*
X21650499Y-54870097D01*
X21650499Y-54250095D01*
X21670184Y-54183057D01*
X21686813Y-54162420D01*
X25867816Y-49981419D01*
X25929139Y-49947934D01*
X25955497Y-49945100D01*
X36044503Y-49945100D01*
X36111542Y-49964785D01*
X36132184Y-49981419D01*
X40313181Y-54162416D01*
X40346666Y-54223739D01*
X40349500Y-54250097D01*
X40349500Y-56143091D01*
X40360123Y-56231562D01*
X40415639Y-56372342D01*
X40415640Y-56372344D01*
X40507077Y-56492922D01*
X40611145Y-56571839D01*
X40627658Y-56584361D01*
X40768436Y-56639876D01*
X40856901Y-56650500D01*
X42749902Y-56650499D01*
X42816941Y-56670184D01*
X42837583Y-56686818D01*
X43416839Y-57266074D01*
X43416849Y-57266085D01*
X43421179Y-57270415D01*
X43421180Y-57270416D01*
X43532984Y-57382220D01*
X43532986Y-57382221D01*
X43589041Y-57414584D01*
X43589040Y-57414584D01*
X43589043Y-57414585D01*
X43669909Y-57461274D01*
X43669910Y-57461275D01*
X43669912Y-57461275D01*
X43669915Y-57461277D01*
X43822643Y-57502201D01*
X43822646Y-57502201D01*
X43988353Y-57502201D01*
X43988369Y-57502200D01*
X50629131Y-57502200D01*
X50629147Y-57502201D01*
X50636743Y-57502201D01*
X50794854Y-57502201D01*
X50794857Y-57502201D01*
X50947585Y-57461277D01*
X51028459Y-57414584D01*
X51084516Y-57382220D01*
X51196320Y-57270416D01*
X51196320Y-57270414D01*
X51206524Y-57260211D01*
X51206527Y-57260206D01*
X52380520Y-56086216D01*
X52395095Y-56060971D01*
X52445659Y-56012756D01*
X52514266Y-55999531D01*
X52579131Y-56025497D01*
X52602800Y-56050085D01*
X52621063Y-56075223D01*
X52621069Y-56075229D01*
X52804771Y-56258931D01*
X53014949Y-56411634D01*
X53162445Y-56486787D01*
X53246423Y-56529577D01*
X53246425Y-56529577D01*
X53246428Y-56529579D01*
X53493507Y-56609860D01*
X53625706Y-56630797D01*
X53750098Y-56650500D01*
X53750103Y-56650500D01*
X54009902Y-56650500D01*
X54266493Y-56609860D01*
X54266496Y-56609859D01*
X54476609Y-56541588D01*
X54546445Y-56539594D01*
X54602604Y-56571839D01*
X55317939Y-57287174D01*
X55317949Y-57287185D01*
X55322279Y-57291515D01*
X55322280Y-57291516D01*
X55434084Y-57403320D01*
X55520895Y-57453439D01*
X55520897Y-57453441D01*
X55558951Y-57475411D01*
X55571015Y-57482377D01*
X55723743Y-57523301D01*
X55723746Y-57523301D01*
X55889453Y-57523301D01*
X55889469Y-57523300D01*
X73870531Y-57523300D01*
X73870547Y-57523301D01*
X73878143Y-57523301D01*
X74036254Y-57523301D01*
X74036257Y-57523301D01*
X74188985Y-57482377D01*
X74239104Y-57453439D01*
X74325916Y-57403320D01*
X74437720Y-57291516D01*
X74437720Y-57291514D01*
X74447928Y-57281307D01*
X74447930Y-57281304D01*
X75157396Y-56571837D01*
X75218717Y-56538354D01*
X75283390Y-56541588D01*
X75442225Y-56593197D01*
X75493506Y-56609860D01*
X75750098Y-56650500D01*
X75750103Y-56650500D01*
X76009902Y-56650500D01*
X76266493Y-56609860D01*
X76266496Y-56609859D01*
X76476609Y-56541588D01*
X76546445Y-56539594D01*
X76602603Y-56571838D01*
X78294584Y-58263820D01*
X78294586Y-58263821D01*
X78294590Y-58263824D01*
X78431509Y-58342873D01*
X78431516Y-58342877D01*
X78584243Y-58383801D01*
X78584245Y-58383801D01*
X78749954Y-58383801D01*
X78749970Y-58383800D01*
X95010031Y-58383800D01*
X95010047Y-58383801D01*
X95017643Y-58383801D01*
X95175754Y-58383801D01*
X95175757Y-58383801D01*
X95328485Y-58342877D01*
X95378604Y-58313939D01*
X95465416Y-58263820D01*
X95577220Y-58152016D01*
X95577220Y-58152014D01*
X95587428Y-58141807D01*
X95587430Y-58141804D01*
X97157396Y-56571837D01*
X97218717Y-56538354D01*
X97283390Y-56541588D01*
X97442225Y-56593197D01*
X97493506Y-56609860D01*
X97750098Y-56650500D01*
X97750103Y-56650500D01*
X98009902Y-56650500D01*
X98123298Y-56632539D01*
X98266493Y-56609860D01*
X98513572Y-56529579D01*
X98745051Y-56411634D01*
X98955229Y-56258931D01*
X99138931Y-56075229D01*
X99291634Y-55865051D01*
X99409579Y-55633572D01*
X99489860Y-55386493D01*
X99512539Y-55243298D01*
X99530500Y-55129902D01*
X99530500Y-54870097D01*
X99489860Y-54613506D01*
X99473197Y-54562225D01*
X99421588Y-54403390D01*
X99419594Y-54333553D01*
X99451837Y-54277396D01*
X107586952Y-46142281D01*
X107642535Y-46110190D01*
X107731784Y-46086277D01*
X107731788Y-46086274D01*
X107731790Y-46086274D01*
X107868709Y-46007224D01*
X107868708Y-46007224D01*
X107868716Y-46007220D01*
X107980520Y-45895416D01*
X108059577Y-45758484D01*
X108100500Y-45605757D01*
X108100500Y-45173989D01*
X108120185Y-45106950D01*
X108151616Y-45073670D01*
X108249497Y-45002556D01*
X108249497Y-45002555D01*
X108249501Y-45002553D01*
X108377553Y-44874501D01*
X108483996Y-44727994D01*
X108566211Y-44566639D01*
X108622171Y-44394409D01*
X108637102Y-44300136D01*
X108650500Y-44215551D01*
X108650500Y-43784448D01*
X108634019Y-43680397D01*
X108622171Y-43605591D01*
X108566211Y-43433361D01*
X108566211Y-43433360D01*
X108530452Y-43363181D01*
X108483996Y-43272006D01*
X108454856Y-43231898D01*
X108377558Y-43125505D01*
X108377554Y-43125500D01*
X108249499Y-42997445D01*
X108249494Y-42997441D01*
X108102997Y-42891006D01*
X108102996Y-42891005D01*
X108102994Y-42891004D01*
X108051300Y-42864664D01*
X107941639Y-42808788D01*
X107941636Y-42808787D01*
X107769410Y-42752829D01*
X107590551Y-42724500D01*
X107590546Y-42724500D01*
X107409454Y-42724500D01*
X107409449Y-42724500D01*
X107230589Y-42752829D01*
X107058363Y-42808787D01*
X107058360Y-42808788D01*
X106897002Y-42891006D01*
X106750505Y-42997441D01*
X106750500Y-42997445D01*
X106622445Y-43125500D01*
X106622441Y-43125505D01*
X106516006Y-43272002D01*
X106433788Y-43433360D01*
X106433787Y-43433363D01*
X106377829Y-43605589D01*
X106372473Y-43639406D01*
X106342543Y-43702540D01*
X106283232Y-43739471D01*
X106213369Y-43738473D01*
X106155137Y-43699863D01*
X106127527Y-43639406D01*
X106126083Y-43630291D01*
X106122171Y-43605591D01*
X106066211Y-43433361D01*
X106066211Y-43433360D01*
X106030452Y-43363181D01*
X105983996Y-43272006D01*
X105954856Y-43231898D01*
X105877558Y-43125505D01*
X105877554Y-43125500D01*
X105749499Y-42997445D01*
X105749494Y-42997441D01*
X105602997Y-42891006D01*
X105602996Y-42891005D01*
X105602994Y-42891004D01*
X105551300Y-42864664D01*
X105441639Y-42808788D01*
X105441636Y-42808787D01*
X105269410Y-42752829D01*
X105090551Y-42724500D01*
X105090546Y-42724500D01*
X104909454Y-42724500D01*
X104909449Y-42724500D01*
X104730589Y-42752829D01*
X104558363Y-42808787D01*
X104558360Y-42808788D01*
X104397002Y-42891006D01*
X104250505Y-42997441D01*
X104250500Y-42997445D01*
X104122445Y-43125500D01*
X104122441Y-43125505D01*
X104016006Y-43272002D01*
X103933788Y-43433360D01*
X103933787Y-43433363D01*
X103877829Y-43605589D01*
X103849500Y-43784448D01*
X103849500Y-44215551D01*
X103877829Y-44394410D01*
X103933787Y-44566636D01*
X103933788Y-44566639D01*
X104016006Y-44727997D01*
X104122441Y-44874494D01*
X104122445Y-44874499D01*
X104250500Y-45002554D01*
X104250505Y-45002558D01*
X104370047Y-45089409D01*
X104397006Y-45108996D01*
X104493150Y-45157984D01*
X104558360Y-45191211D01*
X104558363Y-45191212D01*
X104644476Y-45219191D01*
X104730591Y-45247171D01*
X104813429Y-45260291D01*
X104909449Y-45275500D01*
X104909454Y-45275500D01*
X105090551Y-45275500D01*
X105177259Y-45261765D01*
X105269409Y-45247171D01*
X105441639Y-45191211D01*
X105602994Y-45108996D01*
X105749501Y-45002553D01*
X105877553Y-44874501D01*
X105983996Y-44727994D01*
X106066211Y-44566639D01*
X106122171Y-44394409D01*
X106127527Y-44360594D01*
X106157456Y-44297459D01*
X106216768Y-44260528D01*
X106286630Y-44261526D01*
X106344863Y-44300136D01*
X106372473Y-44360594D01*
X106377829Y-44394410D01*
X106433787Y-44566636D01*
X106433788Y-44566639D01*
X106516006Y-44727997D01*
X106622441Y-44874494D01*
X106622445Y-44874499D01*
X106750500Y-45002554D01*
X106793890Y-45034079D01*
X106836555Y-45089409D01*
X106842534Y-45159023D01*
X106809928Y-45220818D01*
X106808685Y-45222078D01*
X98602604Y-53428159D01*
X98541281Y-53461644D01*
X98476605Y-53458409D01*
X98266496Y-53390140D01*
X98009902Y-53349500D01*
X98009897Y-53349500D01*
X97750103Y-53349500D01*
X97750098Y-53349500D01*
X97493506Y-53390140D01*
X97246423Y-53470422D01*
X97014945Y-53588368D01*
X96804774Y-53741066D01*
X96804768Y-53741071D01*
X96621071Y-53924768D01*
X96621066Y-53924774D01*
X96468368Y-54134945D01*
X96350422Y-54366423D01*
X96270140Y-54613506D01*
X96229500Y-54870097D01*
X96229500Y-55129902D01*
X96270140Y-55386494D01*
X96270140Y-55386497D01*
X96338409Y-55596605D01*
X96340404Y-55666446D01*
X96308159Y-55722604D01*
X94884284Y-57146481D01*
X94822961Y-57179966D01*
X94796603Y-57182800D01*
X92885797Y-57182800D01*
X92818758Y-57163115D01*
X92773003Y-57110311D01*
X92763059Y-57041153D01*
X92792084Y-56977597D01*
X92798116Y-56971119D01*
X93082416Y-56686818D01*
X93197396Y-56571837D01*
X93258717Y-56538354D01*
X93323390Y-56541588D01*
X93482225Y-56593197D01*
X93533506Y-56609860D01*
X93790098Y-56650500D01*
X93790103Y-56650500D01*
X94049902Y-56650500D01*
X94163298Y-56632539D01*
X94306493Y-56609860D01*
X94553572Y-56529579D01*
X94785051Y-56411634D01*
X94995229Y-56258931D01*
X95178931Y-56075229D01*
X95331634Y-55865051D01*
X95449579Y-55633572D01*
X95529860Y-55386493D01*
X95552539Y-55243298D01*
X95570500Y-55129902D01*
X95570500Y-54870097D01*
X95548947Y-54734021D01*
X95529860Y-54613507D01*
X95449579Y-54366428D01*
X95449577Y-54366425D01*
X95449577Y-54366423D01*
X95390305Y-54250097D01*
X95331634Y-54134949D01*
X95178931Y-53924771D01*
X94995229Y-53741069D01*
X94995225Y-53741066D01*
X94785054Y-53588368D01*
X94785053Y-53588367D01*
X94785051Y-53588366D01*
X94712764Y-53551534D01*
X94553576Y-53470422D01*
X94306493Y-53390140D01*
X94049902Y-53349500D01*
X94049897Y-53349500D01*
X93790103Y-53349500D01*
X93790098Y-53349500D01*
X93533506Y-53390140D01*
X93286423Y-53470422D01*
X93054945Y-53588368D01*
X92844774Y-53741066D01*
X92844768Y-53741071D01*
X92661071Y-53924768D01*
X92661066Y-53924774D01*
X92508368Y-54134945D01*
X92390422Y-54366423D01*
X92310140Y-54613506D01*
X92269500Y-54870097D01*
X92269500Y-55129902D01*
X92310140Y-55386494D01*
X92310140Y-55386497D01*
X92378409Y-55596605D01*
X92380404Y-55666446D01*
X92348159Y-55722604D01*
X91784584Y-56286181D01*
X91723261Y-56319666D01*
X91696903Y-56322500D01*
X87768737Y-56322500D01*
X87701698Y-56302815D01*
X87655943Y-56250011D01*
X87645622Y-56183714D01*
X87647036Y-56171942D01*
X87650500Y-56143099D01*
X87650499Y-53856902D01*
X87639876Y-53768436D01*
X87601645Y-53671487D01*
X87593000Y-53625998D01*
X87593000Y-44724500D01*
X87612685Y-44657461D01*
X87665489Y-44611706D01*
X87717000Y-44600500D01*
X98725500Y-44600500D01*
X98792539Y-44620185D01*
X98838294Y-44672989D01*
X98849500Y-44724500D01*
X98849500Y-44768102D01*
X98855126Y-44814954D01*
X98860122Y-44856561D01*
X98860122Y-44856563D01*
X98860123Y-44856564D01*
X98877722Y-44901192D01*
X98915639Y-44997343D01*
X99007077Y-45117922D01*
X99127656Y-45209360D01*
X99127657Y-45209360D01*
X99127658Y-45209361D01*
X99268436Y-45264877D01*
X99356898Y-45275500D01*
X99356903Y-45275500D01*
X100643097Y-45275500D01*
X100643102Y-45275500D01*
X100731564Y-45264877D01*
X100872342Y-45209361D01*
X100992922Y-45117922D01*
X101084361Y-44997342D01*
X101139877Y-44856564D01*
X101150500Y-44768102D01*
X101150500Y-43231898D01*
X101139877Y-43143436D01*
X101084361Y-43002658D01*
X101084360Y-43002657D01*
X101084360Y-43002656D01*
X100992922Y-42882077D01*
X100872343Y-42790639D01*
X100731561Y-42735122D01*
X100685926Y-42729642D01*
X100643102Y-42724500D01*
X99356898Y-42724500D01*
X99317853Y-42729188D01*
X99268438Y-42735122D01*
X99127656Y-42790639D01*
X99007077Y-42882077D01*
X98915639Y-43002656D01*
X98860122Y-43143438D01*
X98854188Y-43192853D01*
X98849500Y-43231898D01*
X98849500Y-43231903D01*
X98849500Y-43275500D01*
X98829815Y-43342539D01*
X98777011Y-43388294D01*
X98725500Y-43399500D01*
X87292597Y-43399500D01*
X87225558Y-43379815D01*
X87204916Y-43363181D01*
X71551819Y-27710084D01*
X71518334Y-27648761D01*
X71515500Y-27622403D01*
X71515500Y-27363097D01*
X71508936Y-27308438D01*
X71505479Y-27279654D01*
X71453115Y-27146868D01*
X71453113Y-27146865D01*
X71403196Y-27081039D01*
X71378373Y-27015727D01*
X71378000Y-27006114D01*
X71378000Y-21626560D01*
X71378001Y-21626547D01*
X71378001Y-21458444D01*
X71354930Y-21372344D01*
X71337077Y-21305716D01*
X71294264Y-21231561D01*
X71258024Y-21168790D01*
X71258018Y-21168782D01*
X64467332Y-14378096D01*
X57660917Y-7571682D01*
X57627433Y-7510360D01*
X57632417Y-7440668D01*
X57649794Y-7409079D01*
X57719361Y-7317342D01*
X57774877Y-7176564D01*
X57785500Y-7088102D01*
X57785500Y-5001898D01*
X57774877Y-4913436D01*
X57719361Y-4772658D01*
X57719360Y-4772657D01*
X57719360Y-4772656D01*
X57627922Y-4652077D01*
X57507343Y-4560639D01*
X57400016Y-4518315D01*
X57366564Y-4505123D01*
X57366563Y-4505122D01*
X57366561Y-4505122D01*
X57320926Y-4499642D01*
X57278102Y-4494500D01*
X53291898Y-4494500D01*
X53252853Y-4499188D01*
X53203438Y-4505122D01*
X53062656Y-4560639D01*
X52942077Y-4652077D01*
X52850639Y-4772656D01*
X52795122Y-4913438D01*
X52789188Y-4962853D01*
X52784500Y-5001898D01*
X52784500Y-7088102D01*
X52787422Y-7112433D01*
X52795122Y-7176561D01*
X52850639Y-7317343D01*
X52942077Y-7437922D01*
X53062656Y-7529360D01*
X53062657Y-7529360D01*
X53062658Y-7529361D01*
X53203436Y-7584877D01*
X53291898Y-7595500D01*
X55934903Y-7595500D01*
X56001942Y-7615185D01*
X56022584Y-7631819D01*
X70140681Y-21749916D01*
X70174166Y-21811239D01*
X70177000Y-21837597D01*
X70177000Y-26449803D01*
X70157315Y-26516842D01*
X70104511Y-26562597D01*
X70035353Y-26572541D01*
X69971797Y-26543516D01*
X69965319Y-26537484D01*
X63101190Y-19673355D01*
X63101188Y-19673352D01*
X62982317Y-19554481D01*
X62982316Y-19554480D01*
X62895504Y-19504360D01*
X62895504Y-19504359D01*
X62895500Y-19504358D01*
X62845385Y-19475423D01*
X62692657Y-19434499D01*
X62534543Y-19434499D01*
X62526947Y-19434499D01*
X62526931Y-19434500D01*
X50903465Y-19434500D01*
X50836426Y-19414815D01*
X50800364Y-19379392D01*
X50790979Y-19365347D01*
X50790974Y-19365341D01*
X50644657Y-19219024D01*
X50558626Y-19161541D01*
X50472598Y-19104059D01*
X50281420Y-19024870D01*
X50281412Y-19024868D01*
X50078469Y-18984500D01*
X50078465Y-18984500D01*
X49371535Y-18984500D01*
X49371530Y-18984500D01*
X49168587Y-19024868D01*
X49168579Y-19024870D01*
X48977403Y-19104058D01*
X48805342Y-19219024D01*
X48659024Y-19365342D01*
X48544058Y-19537403D01*
X48464870Y-19728579D01*
X48464868Y-19728587D01*
X48424500Y-19931530D01*
X48424500Y-20138469D01*
X48464868Y-20341412D01*
X48464870Y-20341420D01*
X48544058Y-20532596D01*
X48659024Y-20704657D01*
X48805342Y-20850975D01*
X48805345Y-20850977D01*
X48977402Y-20965941D01*
X49168580Y-21045130D01*
X49371530Y-21085499D01*
X49371534Y-21085500D01*
X49371535Y-21085500D01*
X50078466Y-21085500D01*
X50078467Y-21085499D01*
X50281420Y-21045130D01*
X50472598Y-20965941D01*
X50644655Y-20850977D01*
X50790977Y-20704655D01*
X50791018Y-20704592D01*
X50800364Y-20690608D01*
X50853977Y-20645803D01*
X50903465Y-20635500D01*
X62313503Y-20635500D01*
X62380542Y-20655185D01*
X62401184Y-20671819D01*
X66687583Y-24958218D01*
X66721068Y-25019541D01*
X66716084Y-25089233D01*
X66674212Y-25145166D01*
X66608748Y-25169583D01*
X66599902Y-25169899D01*
X66551247Y-25169899D01*
X66551231Y-25169900D01*
X51918798Y-25169900D01*
X51851759Y-25150215D01*
X51831117Y-25133581D01*
X50413525Y-23715989D01*
X50380040Y-23654666D01*
X50385024Y-23584974D01*
X50426896Y-23529041D01*
X50453753Y-23513747D01*
X50456538Y-23512593D01*
X50472598Y-23505941D01*
X50644655Y-23390977D01*
X50790977Y-23244655D01*
X50905941Y-23072598D01*
X50985130Y-22881420D01*
X51025500Y-22678465D01*
X51025500Y-22471535D01*
X50985130Y-22268580D01*
X50905941Y-22077402D01*
X50790977Y-21905345D01*
X50790975Y-21905342D01*
X50644657Y-21759024D01*
X50558626Y-21701541D01*
X50472598Y-21644059D01*
X50462499Y-21639876D01*
X50281420Y-21564870D01*
X50281412Y-21564868D01*
X50078469Y-21524500D01*
X50078465Y-21524500D01*
X49371535Y-21524500D01*
X49371530Y-21524500D01*
X49168587Y-21564868D01*
X49168579Y-21564870D01*
X48977403Y-21644058D01*
X48805342Y-21759024D01*
X48659024Y-21905342D01*
X48544058Y-22077403D01*
X48464870Y-22268579D01*
X48464868Y-22268587D01*
X48424500Y-22471530D01*
X48424500Y-22678469D01*
X48464868Y-22881412D01*
X48464870Y-22881420D01*
X48544058Y-23072596D01*
X48659024Y-23244657D01*
X48805342Y-23390975D01*
X48977405Y-23505943D01*
X49047952Y-23535164D01*
X49102356Y-23579005D01*
X49124421Y-23645299D01*
X49124500Y-23649725D01*
X49124500Y-23790030D01*
X49124499Y-23790048D01*
X49124499Y-23955754D01*
X49124498Y-23955754D01*
X49165423Y-24108485D01*
X49194358Y-24158600D01*
X49194359Y-24158604D01*
X49194360Y-24158604D01*
X49244479Y-24245414D01*
X49244481Y-24245417D01*
X49363349Y-24364285D01*
X49363355Y-24364290D01*
X51123181Y-26124116D01*
X51156666Y-26185439D01*
X51159500Y-26211797D01*
X51159500Y-26891444D01*
X51139815Y-26958483D01*
X51110426Y-26990247D01*
X51042079Y-27042076D01*
X51042074Y-27042082D01*
X50950639Y-27162656D01*
X50895122Y-27303438D01*
X50894522Y-27308438D01*
X50884500Y-27391898D01*
X50884500Y-28778102D01*
X50887135Y-28800043D01*
X50895122Y-28866561D01*
X50950639Y-29007343D01*
X51042077Y-29127922D01*
X51162656Y-29219360D01*
X51162657Y-29219360D01*
X51162658Y-29219361D01*
X51303436Y-29274877D01*
X51391898Y-29285500D01*
X51391903Y-29285500D01*
X52128097Y-29285500D01*
X52128102Y-29285500D01*
X52216564Y-29274877D01*
X52357342Y-29219361D01*
X52477922Y-29127922D01*
X52569361Y-29007342D01*
X52624877Y-28866564D01*
X52635500Y-28778102D01*
X52635500Y-27391898D01*
X52624877Y-27303436D01*
X52569361Y-27162658D01*
X52569360Y-27162657D01*
X52569360Y-27162656D01*
X52477925Y-27042082D01*
X52477920Y-27042076D01*
X52409574Y-26990247D01*
X52368051Y-26934054D01*
X52360500Y-26891444D01*
X52360500Y-26494900D01*
X52380185Y-26427861D01*
X52432989Y-26382106D01*
X52484500Y-26370900D01*
X66337803Y-26370900D01*
X66404842Y-26390585D01*
X66425484Y-26407219D01*
X67878181Y-27859916D01*
X67911666Y-27921239D01*
X67914500Y-27947597D01*
X67914500Y-28206902D01*
X67924520Y-28290343D01*
X67924520Y-28290344D01*
X67976886Y-28423134D01*
X68063132Y-28536867D01*
X68176865Y-28623113D01*
X68176868Y-28623115D01*
X68309654Y-28675479D01*
X68325416Y-28677372D01*
X68329330Y-28677842D01*
X68393545Y-28705379D01*
X68432677Y-28763262D01*
X68434303Y-28833113D01*
X68402228Y-28888637D01*
X68374483Y-28916381D01*
X68313163Y-28949866D01*
X68286803Y-28952700D01*
X64733187Y-28952700D01*
X64666148Y-28933015D01*
X64620393Y-28880211D01*
X64610449Y-28811053D01*
X64639474Y-28747497D01*
X64685735Y-28714139D01*
X64754204Y-28685778D01*
X64754204Y-28685777D01*
X64754211Y-28685775D01*
X64868942Y-28609114D01*
X64966514Y-28511542D01*
X65043175Y-28396811D01*
X65095980Y-28269328D01*
X65122900Y-28133993D01*
X65122900Y-27996007D01*
X65122900Y-27996004D01*
X65095981Y-27860677D01*
X65095980Y-27860676D01*
X65095980Y-27860672D01*
X65095667Y-27859916D01*
X65043178Y-27733195D01*
X65043171Y-27733182D01*
X64966514Y-27618458D01*
X64966511Y-27618454D01*
X64868945Y-27520888D01*
X64868941Y-27520885D01*
X64754217Y-27444228D01*
X64754204Y-27444221D01*
X64626732Y-27391421D01*
X64626722Y-27391418D01*
X64491395Y-27364500D01*
X64491393Y-27364500D01*
X64353407Y-27364500D01*
X64353405Y-27364500D01*
X64218077Y-27391418D01*
X64218067Y-27391421D01*
X64156491Y-27416927D01*
X64087022Y-27424396D01*
X64024543Y-27393120D01*
X63988891Y-27333031D01*
X63985923Y-27317148D01*
X63984877Y-27308438D01*
X63984877Y-27308436D01*
X63929361Y-27167658D01*
X63929360Y-27167657D01*
X63929360Y-27167656D01*
X63837922Y-27047077D01*
X63717343Y-26955639D01*
X63576561Y-26900122D01*
X63530926Y-26894642D01*
X63488102Y-26889500D01*
X62776898Y-26889500D01*
X62737853Y-26894188D01*
X62688438Y-26900122D01*
X62547656Y-26955639D01*
X62427077Y-27047077D01*
X62335639Y-27167656D01*
X62280122Y-27308438D01*
X62277169Y-27333031D01*
X62269500Y-27396898D01*
X62269500Y-28733102D01*
X62270158Y-28738580D01*
X62277538Y-28800043D01*
X62265985Y-28868951D01*
X62219013Y-28920674D01*
X62151533Y-28938791D01*
X62084970Y-28917550D01*
X62066741Y-28902506D01*
X61311819Y-28147584D01*
X61278334Y-28086261D01*
X61275500Y-28059903D01*
X61275500Y-27391903D01*
X61275500Y-27391898D01*
X61264877Y-27303436D01*
X61209361Y-27162658D01*
X61209360Y-27162657D01*
X61209360Y-27162656D01*
X61117922Y-27042077D01*
X60997343Y-26950639D01*
X60869243Y-26900123D01*
X60856564Y-26895123D01*
X60856563Y-26895122D01*
X60856561Y-26895122D01*
X60809739Y-26889500D01*
X60768102Y-26884500D01*
X60031898Y-26884500D01*
X59992853Y-26889188D01*
X59943438Y-26895122D01*
X59802656Y-26950639D01*
X59682077Y-27042077D01*
X59590639Y-27162656D01*
X59535122Y-27303438D01*
X59534522Y-27308438D01*
X59524500Y-27391898D01*
X59524500Y-27391903D01*
X59524500Y-28059903D01*
X59504815Y-28126942D01*
X59488181Y-28147584D01*
X49388649Y-38247115D01*
X49327326Y-38280600D01*
X49257634Y-38275616D01*
X49201701Y-38233744D01*
X49177284Y-38168280D01*
X49179911Y-38138544D01*
X49179411Y-38138484D01*
X49181712Y-38119321D01*
X49190500Y-38046144D01*
X49190500Y-37463856D01*
X49180359Y-37379410D01*
X49127364Y-37245025D01*
X49127363Y-37245024D01*
X49127363Y-37245023D01*
X49065696Y-37163703D01*
X49040873Y-37098392D01*
X49040500Y-37088778D01*
X49040500Y-33109500D01*
X49060185Y-33042461D01*
X49112989Y-32996706D01*
X49164500Y-32985500D01*
X49388097Y-32985500D01*
X49388102Y-32985500D01*
X49476564Y-32974877D01*
X49617342Y-32919361D01*
X49737922Y-32827922D01*
X49829361Y-32707342D01*
X49884877Y-32566564D01*
X49895500Y-32478102D01*
X49895500Y-30391898D01*
X49884877Y-30303436D01*
X49829361Y-30162658D01*
X49829360Y-30162657D01*
X49829360Y-30162656D01*
X49737922Y-30042077D01*
X49617343Y-29950639D01*
X49476561Y-29895122D01*
X49430926Y-29889642D01*
X49388102Y-29884500D01*
X45401898Y-29884500D01*
X45362853Y-29889188D01*
X45313438Y-29895122D01*
X45172656Y-29950639D01*
X45052077Y-30042077D01*
X44960639Y-30162656D01*
X44905122Y-30303438D01*
X44899188Y-30352853D01*
X44894500Y-30391898D01*
X44894500Y-32478102D01*
X44900126Y-32524954D01*
X44905122Y-32566561D01*
X44960639Y-32707343D01*
X45052077Y-32827922D01*
X45172656Y-32919360D01*
X45172657Y-32919360D01*
X45172658Y-32919361D01*
X45313436Y-32974877D01*
X45401898Y-32985500D01*
X47715500Y-32985500D01*
X47782539Y-33005185D01*
X47828294Y-33057989D01*
X47839500Y-33109500D01*
X47839500Y-37088778D01*
X47819815Y-37155817D01*
X47814304Y-37163703D01*
X47752636Y-37245023D01*
X47699640Y-37379411D01*
X47694065Y-37425841D01*
X47689500Y-37463856D01*
X47689500Y-37463862D01*
X47689500Y-37629602D01*
X47669815Y-37696641D01*
X47653181Y-37717283D01*
X47217584Y-38152881D01*
X47156261Y-38186366D01*
X47129903Y-38189200D01*
X43713102Y-38189200D01*
X43646063Y-38169515D01*
X43600308Y-38116711D01*
X43589987Y-38050413D01*
X43590500Y-38046141D01*
X43590500Y-37463862D01*
X43590500Y-37463856D01*
X43580359Y-37379410D01*
X43527364Y-37245025D01*
X43527363Y-37245024D01*
X43527363Y-37245023D01*
X43440078Y-37129921D01*
X43324976Y-37042636D01*
X43190588Y-36989640D01*
X43147242Y-36984435D01*
X43106144Y-36979500D01*
X43106138Y-36979500D01*
X42965098Y-36979500D01*
X42898059Y-36959815D01*
X42877417Y-36943181D01*
X41429990Y-35495755D01*
X41429988Y-35495752D01*
X41311117Y-35376881D01*
X41311116Y-35376880D01*
X41224304Y-35326760D01*
X41224304Y-35326759D01*
X41224300Y-35326758D01*
X41174185Y-35297823D01*
X41021457Y-35256899D01*
X40863343Y-35256899D01*
X40855747Y-35256899D01*
X40855731Y-35256900D01*
X37389270Y-35256900D01*
X37389254Y-35256899D01*
X37381658Y-35256899D01*
X37223543Y-35256899D01*
X37147179Y-35277361D01*
X37070814Y-35297823D01*
X37070809Y-35297826D01*
X36933890Y-35376875D01*
X36933882Y-35376881D01*
X35864080Y-36446683D01*
X35857422Y-36458216D01*
X35845356Y-36479116D01*
X35785023Y-36583615D01*
X35744099Y-36736343D01*
X35744099Y-36736345D01*
X35744099Y-36904446D01*
X35744100Y-36904459D01*
X35744100Y-48620100D01*
X35724415Y-48687139D01*
X35671611Y-48732894D01*
X35620100Y-48744100D01*
X25576340Y-48744100D01*
X25535419Y-48755064D01*
X25535419Y-48755065D01*
X25498151Y-48765051D01*
X25423614Y-48785023D01*
X25423609Y-48785026D01*
X25286690Y-48864075D01*
X25286682Y-48864081D01*
X25174878Y-48975886D01*
X20837582Y-53313181D01*
X20776259Y-53346666D01*
X20749901Y-53349500D01*
X18856908Y-53349500D01*
X18768437Y-53360123D01*
X18627657Y-53415639D01*
X18627655Y-53415640D01*
X18507077Y-53507077D01*
X18415640Y-53627655D01*
X18415639Y-53627658D01*
X18370916Y-53741071D01*
X18360124Y-53768437D01*
X18360123Y-53768438D01*
X18349500Y-53856900D01*
X500500Y-53856900D01*
X500500Y-15910097D01*
X6349500Y-15910097D01*
X6349500Y-16169902D01*
X6390140Y-16426493D01*
X6470422Y-16673576D01*
X6488067Y-16708205D01*
X6588366Y-16905051D01*
X6741069Y-17115229D01*
X6924771Y-17298931D01*
X7134949Y-17451634D01*
X7282445Y-17526787D01*
X7366423Y-17569577D01*
X7366425Y-17569577D01*
X7366428Y-17569579D01*
X7613507Y-17649860D01*
X7745706Y-17670797D01*
X7870098Y-17690500D01*
X7870103Y-17690500D01*
X8129902Y-17690500D01*
X8243298Y-17672539D01*
X8386493Y-17649860D01*
X8633572Y-17569579D01*
X8865051Y-17451634D01*
X9075229Y-17298931D01*
X9258931Y-17115229D01*
X9411634Y-16905051D01*
X9511933Y-16708203D01*
X9559907Y-16657409D01*
X9622417Y-16640500D01*
X17303331Y-16640500D01*
X17303347Y-16640501D01*
X17310943Y-16640501D01*
X17469054Y-16640501D01*
X17469057Y-16640501D01*
X17621785Y-16599577D01*
X17671904Y-16570639D01*
X17758716Y-16520520D01*
X17870520Y-16408716D01*
X17870520Y-16408714D01*
X17880728Y-16398507D01*
X17880729Y-16398504D01*
X19657416Y-14621819D01*
X19718739Y-14588334D01*
X19745097Y-14585500D01*
X21088097Y-14585500D01*
X21088102Y-14585500D01*
X21176564Y-14574877D01*
X21317342Y-14519361D01*
X21317347Y-14519357D01*
X21322682Y-14516358D01*
X21390765Y-14500656D01*
X21456528Y-14524255D01*
X21499094Y-14579663D01*
X21504946Y-14649287D01*
X21472228Y-14711023D01*
X21471142Y-14712122D01*
X16820084Y-19363181D01*
X16758761Y-19396666D01*
X16732403Y-19399500D01*
X9774499Y-19399500D01*
X9707460Y-19379815D01*
X9661705Y-19327011D01*
X9650499Y-19275500D01*
X9650499Y-18856908D01*
X9650499Y-18856902D01*
X9639876Y-18768436D01*
X9584361Y-18627658D01*
X9584359Y-18627655D01*
X9492922Y-18507077D01*
X9372344Y-18415640D01*
X9372342Y-18415639D01*
X9231564Y-18360124D01*
X9231561Y-18360123D01*
X9143099Y-18349500D01*
X6856908Y-18349500D01*
X6768437Y-18360123D01*
X6627657Y-18415639D01*
X6627655Y-18415640D01*
X6507077Y-18507077D01*
X6415640Y-18627655D01*
X6360124Y-18768437D01*
X6360123Y-18768438D01*
X6349500Y-18856900D01*
X6349500Y-21143091D01*
X6360123Y-21231562D01*
X6415639Y-21372342D01*
X6415640Y-21372344D01*
X6507077Y-21492922D01*
X6601955Y-21564870D01*
X6627658Y-21584361D01*
X6768436Y-21639876D01*
X6856901Y-21650500D01*
X9143098Y-21650499D01*
X9231564Y-21639876D01*
X9372342Y-21584361D01*
X9492922Y-21492922D01*
X9584361Y-21372342D01*
X9639876Y-21231564D01*
X9650500Y-21143099D01*
X9650500Y-20724500D01*
X9670185Y-20657461D01*
X9722989Y-20611706D01*
X9774500Y-20600500D01*
X16945831Y-20600500D01*
X16945847Y-20600501D01*
X16953443Y-20600501D01*
X17111554Y-20600501D01*
X17111557Y-20600501D01*
X17264285Y-20559577D01*
X17314404Y-20530639D01*
X17401216Y-20480520D01*
X17513020Y-20368716D01*
X17513020Y-20368714D01*
X17523228Y-20358507D01*
X17523230Y-20358504D01*
X22517200Y-15364533D01*
X22578521Y-15331050D01*
X22648213Y-15336034D01*
X22703683Y-15377291D01*
X22742077Y-15427922D01*
X22862656Y-15519360D01*
X22862657Y-15519360D01*
X22862658Y-15519361D01*
X23003436Y-15574877D01*
X23091898Y-15585500D01*
X23091903Y-15585500D01*
X23803097Y-15585500D01*
X23803102Y-15585500D01*
X23891564Y-15574877D01*
X24032342Y-15519361D01*
X24152922Y-15427922D01*
X24244361Y-15307342D01*
X24299877Y-15166564D01*
X24310500Y-15078102D01*
X24310500Y-12641897D01*
X24330185Y-12574858D01*
X24382989Y-12529103D01*
X24452147Y-12519159D01*
X24515703Y-12548184D01*
X24522181Y-12554216D01*
X24782681Y-12814716D01*
X24816166Y-12876039D01*
X24819000Y-12902397D01*
X24819000Y-14162530D01*
X24818999Y-14162548D01*
X24818999Y-14328254D01*
X24818998Y-14328254D01*
X24818999Y-14328257D01*
X24857971Y-14473702D01*
X24859924Y-14480987D01*
X24876917Y-14510419D01*
X24876918Y-14510421D01*
X24938977Y-14617912D01*
X24938981Y-14617917D01*
X25057849Y-14736785D01*
X25057855Y-14736790D01*
X26523839Y-16202774D01*
X26523849Y-16202785D01*
X26528179Y-16207115D01*
X26528180Y-16207116D01*
X26639984Y-16318920D01*
X26726795Y-16369039D01*
X26726797Y-16369041D01*
X26776913Y-16397976D01*
X26776915Y-16397977D01*
X26929642Y-16438900D01*
X26929643Y-16438900D01*
X30709931Y-16438900D01*
X30709947Y-16438901D01*
X30717543Y-16438901D01*
X30875654Y-16438901D01*
X30875657Y-16438901D01*
X31028385Y-16397977D01*
X31078504Y-16369039D01*
X31165316Y-16318920D01*
X31277120Y-16207116D01*
X31277120Y-16207114D01*
X31287328Y-16196907D01*
X31287329Y-16196904D01*
X32647974Y-14836260D01*
X32709295Y-14802777D01*
X32778987Y-14807761D01*
X32796430Y-14815859D01*
X32802656Y-14819360D01*
X32802657Y-14819360D01*
X32802658Y-14819361D01*
X32943436Y-14874877D01*
X33031898Y-14885500D01*
X33031903Y-14885500D01*
X33768097Y-14885500D01*
X33768102Y-14885500D01*
X33856564Y-14874877D01*
X33997342Y-14819361D01*
X34117922Y-14727922D01*
X34209361Y-14607342D01*
X34264877Y-14466564D01*
X34275500Y-14378102D01*
X34275500Y-12286797D01*
X34295185Y-12219758D01*
X34311819Y-12199116D01*
X37146280Y-9364655D01*
X40045520Y-6465416D01*
X40124577Y-6328484D01*
X40165501Y-6175757D01*
X40165501Y-6017642D01*
X40165501Y-6010047D01*
X40165500Y-6010029D01*
X40165500Y-5969499D01*
X40185185Y-5902460D01*
X40237989Y-5856705D01*
X40289500Y-5845499D01*
X40609856Y-5845499D01*
X40609864Y-5845499D01*
X40609879Y-5845497D01*
X40609882Y-5845497D01*
X40634987Y-5842586D01*
X40634988Y-5842585D01*
X40634991Y-5842585D01*
X40737765Y-5797206D01*
X40817206Y-5717765D01*
X40862585Y-5614991D01*
X40865500Y-5589865D01*
X40865499Y-4217799D01*
X40885184Y-4150761D01*
X40937987Y-4105006D01*
X40989499Y-4093800D01*
X48448114Y-4093800D01*
X48515153Y-4113485D01*
X48560908Y-4166289D01*
X48570852Y-4235447D01*
X48551216Y-4286691D01*
X48544058Y-4297402D01*
X48464870Y-4488579D01*
X48464868Y-4488587D01*
X48424500Y-4691530D01*
X48424500Y-4898469D01*
X48464868Y-5101412D01*
X48464870Y-5101420D01*
X48544058Y-5292596D01*
X48659024Y-5464657D01*
X48805342Y-5610975D01*
X48805345Y-5610977D01*
X48977402Y-5725941D01*
X49168580Y-5805130D01*
X49356875Y-5842584D01*
X49371530Y-5845499D01*
X49371534Y-5845500D01*
X49371535Y-5845500D01*
X50078466Y-5845500D01*
X50078467Y-5845499D01*
X50281420Y-5805130D01*
X50472598Y-5725941D01*
X50644655Y-5610977D01*
X50790977Y-5464655D01*
X50905941Y-5292598D01*
X50985130Y-5101420D01*
X51025500Y-4898465D01*
X51025500Y-4691535D01*
X50985130Y-4488580D01*
X50905941Y-4297402D01*
X50790977Y-4125345D01*
X50788134Y-4121090D01*
X50767257Y-4054413D01*
X50785742Y-3987033D01*
X50837721Y-3940343D01*
X50891237Y-3928200D01*
X73545903Y-3928200D01*
X73612942Y-3947885D01*
X73633584Y-3964519D01*
X78328439Y-8659374D01*
X78328449Y-8659385D01*
X78332779Y-8663715D01*
X78332780Y-8663716D01*
X78444584Y-8775520D01*
X78484329Y-8798466D01*
X78531395Y-8825639D01*
X78531397Y-8825641D01*
X78569451Y-8847611D01*
X78581515Y-8854577D01*
X78734243Y-8895501D01*
X78734246Y-8895501D01*
X78899953Y-8895501D01*
X78899969Y-8895500D01*
X78940501Y-8895500D01*
X79007540Y-8915185D01*
X79053295Y-8967989D01*
X79064501Y-9019500D01*
X79064501Y-9489856D01*
X79064502Y-9489882D01*
X79067413Y-9514987D01*
X79067415Y-9514991D01*
X79112793Y-9617764D01*
X79112794Y-9617765D01*
X79192235Y-9697206D01*
X79295009Y-9742585D01*
X79295014Y-9742585D01*
X79299498Y-9743806D01*
X79359018Y-9780400D01*
X79389305Y-9843364D01*
X79380744Y-9912707D01*
X79354625Y-9951138D01*
X77757584Y-11548181D01*
X77696261Y-11581666D01*
X77669903Y-11584500D01*
X77001898Y-11584500D01*
X76962853Y-11589188D01*
X76913438Y-11595122D01*
X76772656Y-11650639D01*
X76652077Y-11742077D01*
X76560639Y-11862656D01*
X76505122Y-12003438D01*
X76499188Y-12052853D01*
X76494500Y-12091898D01*
X76494500Y-13478102D01*
X76500126Y-13524954D01*
X76505122Y-13566561D01*
X76560639Y-13707343D01*
X76652077Y-13827922D01*
X76772656Y-13919360D01*
X76772657Y-13919360D01*
X76772658Y-13919361D01*
X76913436Y-13974877D01*
X77001898Y-13985500D01*
X77001903Y-13985500D01*
X77738097Y-13985500D01*
X77738102Y-13985500D01*
X77826564Y-13974877D01*
X77967342Y-13919361D01*
X78087922Y-13827922D01*
X78179361Y-13707342D01*
X78234877Y-13566564D01*
X78245500Y-13478102D01*
X78245500Y-12810097D01*
X78265185Y-12743058D01*
X78281819Y-12722416D01*
X80309517Y-10694719D01*
X80370840Y-10661234D01*
X80397198Y-10658400D01*
X83345431Y-10658400D01*
X83345447Y-10658401D01*
X83353043Y-10658401D01*
X83511154Y-10658401D01*
X83511157Y-10658401D01*
X83663885Y-10617477D01*
X83714004Y-10588539D01*
X83800816Y-10538420D01*
X83912620Y-10426616D01*
X83912620Y-10426614D01*
X83922828Y-10416407D01*
X83922830Y-10416404D01*
X84650053Y-9689180D01*
X84711374Y-9655697D01*
X84781066Y-9660681D01*
X84785185Y-9662302D01*
X84888580Y-9705130D01*
X85076870Y-9742583D01*
X85091530Y-9745499D01*
X85091534Y-9745500D01*
X85091535Y-9745500D01*
X85298466Y-9745500D01*
X85298467Y-9745499D01*
X85501420Y-9705130D01*
X85692598Y-9625941D01*
X85864655Y-9510977D01*
X86010977Y-9364655D01*
X86125941Y-9192598D01*
X86205130Y-9001420D01*
X86245500Y-8798465D01*
X86245500Y-7791535D01*
X86205130Y-7588580D01*
X86125941Y-7397402D01*
X86072447Y-7317342D01*
X86025106Y-7246490D01*
X86004228Y-7179813D01*
X86022713Y-7112433D01*
X86074692Y-7065743D01*
X86128208Y-7053600D01*
X90125231Y-7053600D01*
X90125247Y-7053601D01*
X90132843Y-7053601D01*
X90290954Y-7053601D01*
X90290957Y-7053601D01*
X90443685Y-7012677D01*
X90513732Y-6972235D01*
X90580616Y-6933620D01*
X90692420Y-6821816D01*
X90692420Y-6821814D01*
X90702624Y-6811611D01*
X90702628Y-6811606D01*
X92767974Y-4746259D01*
X92829295Y-4712776D01*
X92898987Y-4717760D01*
X92916436Y-4725862D01*
X92922656Y-4729359D01*
X92922658Y-4729361D01*
X93063436Y-4784877D01*
X93151898Y-4795500D01*
X93151903Y-4795500D01*
X93888097Y-4795500D01*
X93888102Y-4795500D01*
X93976564Y-4784877D01*
X94117342Y-4729361D01*
X94237922Y-4637922D01*
X94329361Y-4517342D01*
X94384877Y-4376564D01*
X94395500Y-4288102D01*
X94395500Y-2001898D01*
X94384877Y-1913436D01*
X94329361Y-1772658D01*
X94329360Y-1772657D01*
X94329360Y-1772656D01*
X94237922Y-1652077D01*
X94117343Y-1560639D01*
X93976561Y-1505122D01*
X93930926Y-1499642D01*
X93888102Y-1494500D01*
X93151898Y-1494500D01*
X93112853Y-1499188D01*
X93063438Y-1505122D01*
X92922656Y-1560639D01*
X92802077Y-1652077D01*
X92710639Y-1772656D01*
X92655122Y-1913438D01*
X92649188Y-1962853D01*
X92644500Y-2001898D01*
X92644500Y-2001903D01*
X92644500Y-3119902D01*
X92624815Y-3186941D01*
X92608181Y-3207583D01*
X91657181Y-4158583D01*
X91595858Y-4192068D01*
X91526166Y-4187084D01*
X91470233Y-4145212D01*
X91445816Y-4079748D01*
X91445500Y-4070902D01*
X91445500Y-2001903D01*
X91445500Y-2001898D01*
X91434877Y-1913436D01*
X91379361Y-1772658D01*
X91379360Y-1772657D01*
X91379360Y-1772656D01*
X91287922Y-1652077D01*
X91167343Y-1560639D01*
X91026561Y-1505122D01*
X90980926Y-1499642D01*
X90938102Y-1494500D01*
X90201898Y-1494500D01*
X90162853Y-1499188D01*
X90113438Y-1505122D01*
X89972656Y-1560639D01*
X89852077Y-1652077D01*
X89760639Y-1772656D01*
X89705122Y-1913438D01*
X89699188Y-1962853D01*
X89694500Y-2001898D01*
X89694500Y-2001903D01*
X89694500Y-2420500D01*
X89674815Y-2487539D01*
X89622011Y-2533294D01*
X89570500Y-2544500D01*
X85351669Y-2544500D01*
X85351653Y-2544499D01*
X85344057Y-2544499D01*
X85185943Y-2544499D01*
X85106010Y-2565917D01*
X85033216Y-2585422D01*
X85004678Y-2601899D01*
X85004677Y-2601898D01*
X84896287Y-2664477D01*
X84896282Y-2664481D01*
X84784478Y-2776286D01*
X80752582Y-6808181D01*
X80691259Y-6841666D01*
X80664901Y-6844500D01*
X79320143Y-6844500D01*
X79320117Y-6844502D01*
X79295012Y-6847413D01*
X79295008Y-6847415D01*
X79192235Y-6892793D01*
X79112794Y-6972234D01*
X79067415Y-7075006D01*
X79067415Y-7075008D01*
X79064500Y-7100131D01*
X79064500Y-7397603D01*
X79044815Y-7464642D01*
X78992011Y-7510397D01*
X78922853Y-7520341D01*
X78859297Y-7491316D01*
X78852819Y-7485284D01*
X74333590Y-2966055D01*
X74333588Y-2966052D01*
X74214717Y-2847181D01*
X74214716Y-2847180D01*
X74127904Y-2797060D01*
X74127904Y-2797059D01*
X74127900Y-2797058D01*
X74077785Y-2768123D01*
X73925057Y-2727199D01*
X73766943Y-2727199D01*
X73759347Y-2727199D01*
X73759331Y-2727200D01*
X49977270Y-2727200D01*
X49977254Y-2727199D01*
X49969658Y-2727199D01*
X49811543Y-2727199D01*
X49735179Y-2747661D01*
X49658814Y-2768123D01*
X49658809Y-2768126D01*
X49521890Y-2847175D01*
X49521882Y-2847181D01*
X49512583Y-2856481D01*
X49451260Y-2889966D01*
X49424902Y-2892800D01*
X36923898Y-2892800D01*
X36856859Y-2873115D01*
X36836217Y-2856481D01*
X35388490Y-1408755D01*
X35388488Y-1408752D01*
X35269617Y-1289881D01*
X35269616Y-1289880D01*
X35182804Y-1239760D01*
X35182804Y-1239759D01*
X35182800Y-1239758D01*
X35132685Y-1210823D01*
X34979957Y-1169899D01*
X34821843Y-1169899D01*
X34814247Y-1169899D01*
X34814231Y-1169900D01*
X31046269Y-1169900D01*
X31046253Y-1169899D01*
X31038657Y-1169899D01*
X30880543Y-1169899D01*
X30773187Y-1198665D01*
X30727810Y-1210824D01*
X30727809Y-1210825D01*
X30677696Y-1239759D01*
X30677695Y-1239760D01*
X30634289Y-1264820D01*
X30590885Y-1289879D01*
X30590882Y-1289881D01*
X30479078Y-1401686D01*
X29822584Y-2058181D01*
X29761261Y-2091666D01*
X29734903Y-2094500D01*
X28391898Y-2094500D01*
X28352853Y-2099188D01*
X28303438Y-2105122D01*
X28162656Y-2160639D01*
X28042077Y-2252077D01*
X27950639Y-2372656D01*
X27895122Y-2513438D01*
X27892738Y-2533294D01*
X27886494Y-2585285D01*
X27858959Y-2649498D01*
X27801077Y-2688631D01*
X27763380Y-2694500D01*
X19824057Y-2694500D01*
X19665942Y-2694500D01*
X19513215Y-2735423D01*
X19513214Y-2735423D01*
X19513212Y-2735424D01*
X19513209Y-2735425D01*
X19463096Y-2764359D01*
X19463095Y-2764360D01*
X19419689Y-2789420D01*
X19376285Y-2814479D01*
X19376282Y-2814481D01*
X19317649Y-2873115D01*
X19264480Y-2926284D01*
X19264478Y-2926286D01*
X18483349Y-3707416D01*
X17732584Y-4458181D01*
X17671261Y-4491666D01*
X17644903Y-4494500D01*
X15001898Y-4494500D01*
X14962853Y-4499188D01*
X14913438Y-4505122D01*
X14772656Y-4560639D01*
X14652077Y-4652077D01*
X14560639Y-4772656D01*
X14505122Y-4913438D01*
X14499188Y-4962853D01*
X14494500Y-5001898D01*
X14494500Y-7088102D01*
X14497422Y-7112433D01*
X14505122Y-7176561D01*
X14560639Y-7317343D01*
X14652077Y-7437922D01*
X14772656Y-7529360D01*
X14772657Y-7529360D01*
X14772658Y-7529361D01*
X14913436Y-7584877D01*
X15001898Y-7595500D01*
X15320500Y-7595500D01*
X15387539Y-7615185D01*
X15433294Y-7667989D01*
X15444500Y-7719500D01*
X15444500Y-12060500D01*
X15424815Y-12127539D01*
X15372011Y-12173294D01*
X15320500Y-12184500D01*
X15001898Y-12184500D01*
X14962853Y-12189188D01*
X14913438Y-12195122D01*
X14772656Y-12250639D01*
X14652077Y-12342077D01*
X14560639Y-12462656D01*
X14505122Y-12603438D01*
X14500504Y-12641897D01*
X14494500Y-12691898D01*
X14494500Y-14078102D01*
X14497363Y-14101941D01*
X14505122Y-14166561D01*
X14505122Y-14166563D01*
X14505123Y-14166564D01*
X14522722Y-14211192D01*
X14560639Y-14307343D01*
X14652077Y-14427922D01*
X14772656Y-14519360D01*
X14772657Y-14519360D01*
X14772658Y-14519361D01*
X14913436Y-14574877D01*
X15001898Y-14585500D01*
X15001903Y-14585500D01*
X17088097Y-14585500D01*
X17088102Y-14585500D01*
X17176564Y-14574877D01*
X17317342Y-14519361D01*
X17437922Y-14427922D01*
X17529361Y-14307342D01*
X17584877Y-14166564D01*
X17595500Y-14078102D01*
X17595500Y-12691898D01*
X17584877Y-12603436D01*
X17529361Y-12462658D01*
X17529360Y-12462657D01*
X17529360Y-12462656D01*
X17437922Y-12342077D01*
X17317343Y-12250639D01*
X17176561Y-12195122D01*
X17130926Y-12189642D01*
X17088102Y-12184500D01*
X17088097Y-12184500D01*
X16769500Y-12184500D01*
X16702461Y-12164815D01*
X16656706Y-12112011D01*
X16645500Y-12060500D01*
X16645500Y-7719500D01*
X16665185Y-7652461D01*
X16717989Y-7606706D01*
X16769500Y-7595500D01*
X18988097Y-7595500D01*
X18988102Y-7595500D01*
X19076564Y-7584877D01*
X19217342Y-7529361D01*
X19337922Y-7437922D01*
X19429361Y-7317342D01*
X19484877Y-7176564D01*
X19495500Y-7088102D01*
X19495500Y-5001898D01*
X19484877Y-4913436D01*
X19429361Y-4772658D01*
X19429360Y-4772657D01*
X19429360Y-4772656D01*
X19359795Y-4680921D01*
X19334972Y-4615610D01*
X19349400Y-4547246D01*
X19370914Y-4518319D01*
X19957416Y-3931819D01*
X20018739Y-3898334D01*
X20045097Y-3895500D01*
X27763380Y-3895500D01*
X27830419Y-3915185D01*
X27876174Y-3967989D01*
X27886494Y-4004712D01*
X27887363Y-4011941D01*
X27895122Y-4076561D01*
X27950639Y-4217343D01*
X28042077Y-4337922D01*
X28162656Y-4429360D01*
X28162657Y-4429360D01*
X28162658Y-4429361D01*
X28303436Y-4484877D01*
X28391898Y-4495500D01*
X28391903Y-4495500D01*
X30478097Y-4495500D01*
X30478102Y-4495500D01*
X30566564Y-4484877D01*
X30707342Y-4429361D01*
X30827922Y-4337922D01*
X30919361Y-4217342D01*
X30974877Y-4076564D01*
X30985500Y-3988102D01*
X30985500Y-2645096D01*
X31005185Y-2578057D01*
X31021814Y-2557420D01*
X31172017Y-2407216D01*
X31233339Y-2373734D01*
X31259697Y-2370900D01*
X31772458Y-2370900D01*
X31839497Y-2390585D01*
X31885252Y-2443389D01*
X31895574Y-2509684D01*
X31895123Y-2513434D01*
X31895123Y-2513436D01*
X31884500Y-2601898D01*
X31884500Y-2601904D01*
X31884500Y-3944902D01*
X31864815Y-4011941D01*
X31848181Y-4032583D01*
X27353786Y-8526978D01*
X27353784Y-8526980D01*
X27297882Y-8582881D01*
X27241981Y-8638782D01*
X27241980Y-8638784D01*
X27227586Y-8663716D01*
X27193022Y-8723583D01*
X27163036Y-8775520D01*
X27162923Y-8775715D01*
X27121999Y-8928443D01*
X27121999Y-8928445D01*
X27121999Y-9096546D01*
X27122000Y-9096559D01*
X27122000Y-11600923D01*
X27102315Y-11667962D01*
X27072927Y-11699726D01*
X27017076Y-11742079D01*
X27017074Y-11742082D01*
X26925639Y-11862656D01*
X26870122Y-12003438D01*
X26864188Y-12052853D01*
X26859500Y-12091898D01*
X26859500Y-12091903D01*
X26859500Y-14540603D01*
X26839815Y-14607642D01*
X26787011Y-14653397D01*
X26717853Y-14663341D01*
X26654297Y-14634316D01*
X26647819Y-14628284D01*
X26056319Y-14036784D01*
X26022834Y-13975461D01*
X26020000Y-13949103D01*
X26020000Y-12691359D01*
X26020001Y-12691346D01*
X26020001Y-12523245D01*
X26020001Y-12523243D01*
X25979077Y-12370515D01*
X25950139Y-12320395D01*
X25900020Y-12233584D01*
X25788216Y-12121780D01*
X25788215Y-12121779D01*
X25783885Y-12117449D01*
X25783874Y-12117439D01*
X23760419Y-10093984D01*
X23726934Y-10032661D01*
X23724100Y-10006303D01*
X23724100Y-7719500D01*
X23743785Y-7652461D01*
X23796589Y-7606706D01*
X23848100Y-7595500D01*
X26388097Y-7595500D01*
X26388102Y-7595500D01*
X26476564Y-7584877D01*
X26617342Y-7529361D01*
X26737922Y-7437922D01*
X26829361Y-7317342D01*
X26884877Y-7176564D01*
X26895500Y-7088102D01*
X26895500Y-5001898D01*
X26884877Y-4913436D01*
X26829361Y-4772658D01*
X26829360Y-4772657D01*
X26829360Y-4772656D01*
X26737922Y-4652077D01*
X26617343Y-4560639D01*
X26510016Y-4518315D01*
X26476564Y-4505123D01*
X26476563Y-4505122D01*
X26476561Y-4505122D01*
X26430926Y-4499642D01*
X26388102Y-4494500D01*
X22401898Y-4494500D01*
X22362853Y-4499188D01*
X22313438Y-4505122D01*
X22172656Y-4560639D01*
X22052077Y-4652077D01*
X21960639Y-4772656D01*
X21905122Y-4913438D01*
X21899188Y-4962853D01*
X21894500Y-5001898D01*
X21894500Y-7088102D01*
X21897422Y-7112433D01*
X21905122Y-7176561D01*
X21960639Y-7317343D01*
X22052077Y-7437922D01*
X22172656Y-7529360D01*
X22172657Y-7529360D01*
X22172658Y-7529361D01*
X22313436Y-7584877D01*
X22401898Y-7595500D01*
X22401911Y-7595500D01*
X22405603Y-7595722D01*
X22405503Y-7597380D01*
X22466139Y-7615185D01*
X22511894Y-7667989D01*
X22523100Y-7719500D01*
X22523100Y-10006303D01*
X22503415Y-10073342D01*
X22486781Y-10093984D01*
X20432584Y-12148181D01*
X20371261Y-12181666D01*
X20344903Y-12184500D01*
X19001898Y-12184500D01*
X18962853Y-12189188D01*
X18913438Y-12195122D01*
X18772656Y-12250639D01*
X18652077Y-12342077D01*
X18560639Y-12462656D01*
X18505122Y-12603438D01*
X18500504Y-12641897D01*
X18494500Y-12691898D01*
X18494500Y-12691903D01*
X18494500Y-14034902D01*
X18474815Y-14101941D01*
X18458181Y-14122583D01*
X17177584Y-15403181D01*
X17116261Y-15436666D01*
X17089903Y-15439500D01*
X9622417Y-15439500D01*
X9555378Y-15419815D01*
X9511933Y-15371796D01*
X9411634Y-15174949D01*
X9258931Y-14964771D01*
X9075229Y-14781069D01*
X9014277Y-14736785D01*
X8865054Y-14628368D01*
X8865053Y-14628367D01*
X8865051Y-14628366D01*
X8780922Y-14585500D01*
X8633576Y-14510422D01*
X8386493Y-14430140D01*
X8129902Y-14389500D01*
X8129897Y-14389500D01*
X7870103Y-14389500D01*
X7870098Y-14389500D01*
X7613506Y-14430140D01*
X7366423Y-14510422D01*
X7134945Y-14628368D01*
X6924774Y-14781066D01*
X6924768Y-14781071D01*
X6741071Y-14964768D01*
X6741066Y-14964774D01*
X6588368Y-15174945D01*
X6470422Y-15406423D01*
X6390140Y-15653506D01*
X6349500Y-15910097D01*
X500500Y-15910097D01*
X500500Y-624500D01*
X520185Y-557461D01*
X572989Y-511706D01*
X624500Y-500500D01*
X119375500Y-500500D01*
X119442539Y-520185D01*
G37*
%TD.AperFunction*%
%TD*%
M02*
