%TF.GenerationSoftware,KiCad,Pcbnew,10.0.5*%
%TF.CreationDate,2026-08-05T00:31:21-05:00*%
%TF.ProjectId,tank-driver-recovery,74616e6b-2d64-4726-9976-65722d726563,rev?*%
%TF.SameCoordinates,Original*%
%TF.FileFunction,Drillmap*%
%TF.FilePolarity,Positive*%
%FSLAX45Y45*%
G04 Gerber Fmt 4.5, Leading zero omitted, Abs format (unit mm)*
G04 Created by KiCad (PCBNEW 10.0.5) date 2026-08-05 00:31:21*
%MOMM*%
%LPD*%
G01*
G04 APERTURE LIST*
%ADD10C,0.100000*%
%ADD11C,0.200000*%
%ADD12C,0.170000*%
%ADD13C,0.269260*%
%ADD14C,0.281800*%
%ADD15C,0.247600*%
%ADD16C,0.320000*%
G04 APERTURE END LIST*
D10*
X0Y0D02*
X17000000Y0D01*
X0Y-11000000D02*
X0Y0D01*
X17000000Y0D02*
X17000000Y-11000000D01*
X17000000Y-11000000D02*
X0Y-11000000D01*
D11*
D10*
X985010Y-4795370D02*
X1015010Y-4825370D01*
X1015010Y-4795370D02*
X985010Y-4825370D01*
X1065980Y-3055590D02*
X1095980Y-3085590D01*
X1095980Y-3055590D02*
X1065980Y-3085590D01*
X1553910Y-3322350D02*
X1583910Y-3352350D01*
X1583910Y-3322350D02*
X1553910Y-3352350D01*
X1695370Y-5430470D02*
X1725370Y-5460470D01*
X1725370Y-5430470D02*
X1695370Y-5460470D01*
X1920680Y-1354390D02*
X1950680Y-1384390D01*
X1950680Y-1354390D02*
X1920680Y-1384390D01*
X1937150Y-4018230D02*
X1967150Y-4048230D01*
X1967150Y-4018230D02*
X1937150Y-4048230D01*
X1985010Y-4813910D02*
X2015010Y-4843910D01*
X2015010Y-4813910D02*
X1985010Y-4843910D01*
X2007940Y-1334390D02*
X2037940Y-1364390D01*
X2037940Y-1334390D02*
X2007940Y-1364390D01*
X2019760Y-2762010D02*
X2049760Y-2792010D01*
X2049760Y-2762010D02*
X2019760Y-2792010D01*
X2166780Y-3697920D02*
X2196780Y-3727920D01*
X2196780Y-3697920D02*
X2166780Y-3727920D01*
X2214500Y-5484960D02*
X2244500Y-5514960D01*
X2244500Y-5484960D02*
X2214500Y-5514960D01*
X2235870Y-2817110D02*
X2265870Y-2847110D01*
X2265870Y-2817110D02*
X2235870Y-2847110D01*
X2414670Y-4791220D02*
X2444670Y-4821220D01*
X2444670Y-4791220D02*
X2414670Y-4821220D01*
X2442330Y-3115280D02*
X2472330Y-3145280D01*
X2472330Y-3115280D02*
X2442330Y-3145280D01*
X3090810Y-2586360D02*
X3120810Y-2616360D01*
X3120810Y-2586360D02*
X3090810Y-2616360D01*
X3181420Y-2427440D02*
X3211420Y-2457440D01*
X3211420Y-2427440D02*
X3181420Y-2457440D01*
X3435090Y-1338780D02*
X3465090Y-1368780D01*
X3465090Y-1338780D02*
X3435090Y-1368780D01*
X3456650Y-4889280D02*
X3486650Y-4919280D01*
X3486650Y-4889280D02*
X3456650Y-4919280D01*
X3956790Y-7374130D02*
X3986790Y-7404130D01*
X3986790Y-7374130D02*
X3956790Y-7404130D01*
X4006100Y-5886920D02*
X4036100Y-5916920D01*
X4036100Y-5886920D02*
X4006100Y-5916920D01*
X4304700Y-4591440D02*
X4334700Y-4621440D01*
X4334700Y-4591440D02*
X4304700Y-4621440D01*
X4309660Y-2190450D02*
X4339660Y-2220450D01*
X4339660Y-2190450D02*
X4309660Y-2220450D01*
X4384350Y-3995760D02*
X4414350Y-4025760D01*
X4414350Y-3995760D02*
X4384350Y-4025760D01*
X4539100Y-1856990D02*
X4569100Y-1886990D01*
X4569100Y-1856990D02*
X4539100Y-1886990D01*
X4600250Y-1449440D02*
X4630250Y-1479440D01*
X4630250Y-1449440D02*
X4600250Y-1479440D01*
X4603300Y-7867680D02*
X4633300Y-7897680D01*
X4633300Y-7867680D02*
X4603300Y-7897680D01*
X4612460Y-2293490D02*
X4642460Y-2323490D01*
X4642460Y-2293490D02*
X4612460Y-2323490D01*
X4901900Y-5914320D02*
X4931900Y-5944320D01*
X4931900Y-5914320D02*
X4901900Y-5944320D01*
X4949130Y-1161880D02*
X4979130Y-1191880D01*
X4979130Y-1161880D02*
X4949130Y-1191880D01*
X5012320Y-2240160D02*
X5042320Y-2270160D01*
X5042320Y-2240160D02*
X5012320Y-2270160D01*
X5061910Y-1254930D02*
X5091910Y-1284930D01*
X5091910Y-1254930D02*
X5061910Y-1284930D01*
X5200500Y-1590750D02*
X5230500Y-1620750D01*
X5230500Y-1590750D02*
X5200500Y-1620750D01*
X5525040Y-1070520D02*
X5555040Y-1100520D01*
X5555040Y-1070520D02*
X5525040Y-1100520D01*
X5609780Y-969300D02*
X5639780Y-999300D01*
X5639780Y-969300D02*
X5609780Y-999300D01*
X6019760Y-5575370D02*
X6049760Y-5605370D01*
X6049760Y-5575370D02*
X6019760Y-5605370D01*
X6022050Y-4533850D02*
X6052050Y-4563850D01*
X6052050Y-4533850D02*
X6022050Y-4563850D01*
X6096300Y-2506540D02*
X6126300Y-2536540D01*
X6126300Y-2506540D02*
X6096300Y-2536540D01*
X6096300Y-3995760D02*
X6126300Y-4025760D01*
X6126300Y-3995760D02*
X6096300Y-4025760D01*
X6098900Y-4954250D02*
X6128900Y-4984250D01*
X6128900Y-4954250D02*
X6098900Y-4984250D01*
X6336510Y-2465610D02*
X6366510Y-2495610D01*
X6366510Y-2465610D02*
X6336510Y-2495610D01*
X6377860Y-3037190D02*
X6407860Y-3067190D01*
X6407860Y-3037190D02*
X6377860Y-3067190D01*
X6384540Y-4250570D02*
X6414540Y-4280570D01*
X6414540Y-4250570D02*
X6384540Y-4280570D01*
X6520110Y-2746780D02*
X6550110Y-2776780D01*
X6550110Y-2746780D02*
X6520110Y-2776780D01*
X6704100Y-2524640D02*
X6734100Y-2554640D01*
X6734100Y-2524640D02*
X6704100Y-2554640D01*
X6704100Y-5484960D02*
X6734100Y-5514960D01*
X6734100Y-5484960D02*
X6704100Y-5514960D01*
X6733570Y-2442870D02*
X6763570Y-2472870D01*
X6763570Y-2442870D02*
X6733570Y-2472870D01*
X6754650Y-3398970D02*
X6784650Y-3428970D01*
X6784650Y-3398970D02*
X6754650Y-3428970D01*
X6762040Y-3231970D02*
X6792040Y-3261970D01*
X6792040Y-3231970D02*
X6762040Y-3261970D01*
X7297190Y-2513020D02*
X7327190Y-2543020D01*
X7327190Y-2513020D02*
X7297190Y-2543020D01*
X7580590Y-3193650D02*
X7610590Y-3223650D01*
X7610590Y-3193650D02*
X7580590Y-3223650D01*
X7858220Y-921300D02*
X7888220Y-951300D01*
X7888220Y-921300D02*
X7858220Y-951300D01*
X7926090Y-1146570D02*
X7956090Y-1176570D01*
X7956090Y-1146570D02*
X7926090Y-1176570D01*
X8084010Y-4668810D02*
X8114010Y-4698810D01*
X8114010Y-4668810D02*
X8084010Y-4698810D01*
X8106850Y-1910880D02*
X8136850Y-1940880D01*
X8136850Y-1910880D02*
X8106850Y-1940880D01*
X8186500Y-3995760D02*
X8216500Y-4025760D01*
X8216500Y-3995760D02*
X8186500Y-4025760D01*
X8186500Y-7136450D02*
X8216500Y-7166450D01*
X8216500Y-7136450D02*
X8186500Y-7166450D01*
X8404000Y-1184830D02*
X8434000Y-1214830D01*
X8434000Y-1184830D02*
X8404000Y-1214830D01*
X8445780Y-4242700D02*
X8475780Y-4272700D01*
X8475780Y-4242700D02*
X8445780Y-4272700D01*
X8608950Y-3117360D02*
X8638950Y-3147360D01*
X8638950Y-3117360D02*
X8608950Y-3147360D01*
X8761180Y-3804760D02*
X8791180Y-3834760D01*
X8791180Y-3804760D02*
X8761180Y-3834760D01*
X8800440Y-1017560D02*
X8830440Y-1047560D01*
X8830440Y-1017560D02*
X8800440Y-1047560D01*
X8864410Y-2895490D02*
X8894410Y-2925490D01*
X8894410Y-2895490D02*
X8864410Y-2925490D01*
X9303430Y-3674140D02*
X9333430Y-3704140D01*
X9333430Y-3674140D02*
X9303430Y-3704140D01*
X9385010Y-4795370D02*
X9415010Y-4825370D01*
X9415010Y-4795370D02*
X9385010Y-4825370D01*
X9473360Y-921220D02*
X9503360Y-951220D01*
X9503360Y-921220D02*
X9473360Y-951220D01*
X9591030Y-1221750D02*
X9621030Y-1251750D01*
X9621030Y-1221750D02*
X9591030Y-1251750D01*
X9594880Y-748260D02*
X9624880Y-778260D01*
X9624880Y-748260D02*
X9594880Y-778260D01*
X9623380Y-1333750D02*
X9653380Y-1363750D01*
X9653380Y-1333750D02*
X9623380Y-1363750D01*
X9679500Y-2784850D02*
X9709500Y-2814850D01*
X9709500Y-2784850D02*
X9679500Y-2814850D01*
X9688990Y-1624190D02*
X9718990Y-1654190D01*
X9718990Y-1624190D02*
X9688990Y-1654190D01*
X9715230Y-715600D02*
X9745230Y-745600D01*
X9745230Y-715600D02*
X9715230Y-745600D01*
X9719270Y-3323450D02*
X9749270Y-3353450D01*
X9749270Y-3323450D02*
X9719270Y-3353450D01*
X9735740Y-4056480D02*
X9765740Y-4086480D01*
X9765740Y-4056480D02*
X9735740Y-4086480D01*
X9759030Y-3951340D02*
X9789030Y-3981340D01*
X9789030Y-3951340D02*
X9759030Y-3981340D01*
X9790220Y-3784900D02*
X9820220Y-3814900D01*
X9820220Y-3784900D02*
X9790220Y-3814900D01*
X9797600Y-2615270D02*
X9827600Y-2645270D01*
X9827600Y-2615270D02*
X9797600Y-2645270D01*
X9888380Y-821740D02*
X9918380Y-851740D01*
X9918380Y-821740D02*
X9888380Y-851740D01*
X9986580Y-749750D02*
X10016580Y-779750D01*
X10016580Y-749750D02*
X9986580Y-779750D01*
X10058450Y-4573710D02*
X10088450Y-4603710D01*
X10088450Y-4573710D02*
X10058450Y-4603710D01*
X10169580Y-3465480D02*
X10199580Y-3495480D01*
X10199580Y-3465480D02*
X10169580Y-3495480D01*
X10195920Y-5570200D02*
X10225920Y-5600200D01*
X10225920Y-5570200D02*
X10195920Y-5600200D01*
X10221120Y-5435440D02*
X10251120Y-5465440D01*
X10251120Y-5435440D02*
X10221120Y-5465440D01*
X10276700Y-2586360D02*
X10306700Y-2616360D01*
X10306700Y-2586360D02*
X10276700Y-2616360D01*
X10276700Y-7570000D02*
X10306700Y-7600000D01*
X10306700Y-7570000D02*
X10276700Y-7600000D01*
X10323020Y-7465510D02*
X10353020Y-7495510D01*
X10353020Y-7465510D02*
X10323020Y-7495510D01*
X10339410Y-5371760D02*
X10369410Y-5401760D01*
X10369410Y-5371760D02*
X10339410Y-5401760D01*
X10495120Y-3398740D02*
X10525120Y-3428740D01*
X10525120Y-3398740D02*
X10495120Y-3428740D01*
X10575300Y-2829360D02*
X10605300Y-2859360D01*
X10605300Y-2829360D02*
X10575300Y-2859360D01*
X10599050Y-2924220D02*
X10629050Y-2954220D01*
X10629050Y-2924220D02*
X10599050Y-2954220D01*
X10620010Y-2742860D02*
X10650010Y-2772860D01*
X10650010Y-2742860D02*
X10620010Y-2772860D01*
X10811170Y-2614820D02*
X10841170Y-2644820D01*
X10841170Y-2614820D02*
X10811170Y-2644820D01*
X10879800Y-4894700D02*
X10909800Y-4924700D01*
X10909800Y-4894700D02*
X10879800Y-4924700D01*
X10892220Y-2528640D02*
X10922220Y-2558640D01*
X10922220Y-2528640D02*
X10892220Y-2558640D01*
X10916260Y-3303660D02*
X10946260Y-3333660D01*
X10946260Y-3303660D02*
X10916260Y-3333660D01*
X11159950Y-682200D02*
X11189950Y-712200D01*
X11189950Y-682200D02*
X11159950Y-712200D01*
X11418480Y-845920D02*
X11448480Y-875920D01*
X11448480Y-845920D02*
X11418480Y-875920D01*
X11463760Y-2051760D02*
X11493760Y-2081760D01*
X11493760Y-2051760D02*
X11463760Y-2081760D01*
X11591710Y-2568930D02*
X11621710Y-2598930D01*
X11621710Y-2568930D02*
X11591710Y-2598930D01*
X11730690Y-2447290D02*
X11760690Y-2477290D01*
X11760690Y-2447290D02*
X11730690Y-2477290D01*
X11849470Y-1990010D02*
X11879470Y-2020010D01*
X11879470Y-1990010D02*
X11849470Y-2020010D01*
X12029940Y-1745450D02*
X12059940Y-1775450D01*
X12059940Y-1745450D02*
X12029940Y-1775450D01*
X12275850Y-678010D02*
X12305850Y-708010D01*
X12305850Y-678010D02*
X12275850Y-708010D01*
X12372030Y-2812080D02*
X12402030Y-2842080D01*
X12402030Y-2812080D02*
X12372030Y-2842080D01*
X12439820Y-1035610D02*
X12469820Y-1065610D01*
X12469820Y-1035610D02*
X12439820Y-1065610D01*
X12539760Y-887660D02*
X12569760Y-917660D01*
X12569760Y-887660D02*
X12539760Y-917660D01*
X12665500Y-5187120D02*
X12695500Y-5217120D01*
X12695500Y-5187120D02*
X12665500Y-5217120D01*
X13062340Y-3888550D02*
X13092340Y-3918550D01*
X13092340Y-3888550D02*
X13062340Y-3918550D01*
X13247900Y-3102240D02*
X13277900Y-3132240D01*
X13277900Y-3102240D02*
X13247900Y-3132240D01*
X13262700Y-2115280D02*
X13292700Y-2145280D01*
X13292700Y-2115280D02*
X13262700Y-2145280D01*
X13328230Y-909480D02*
X13358230Y-939480D01*
X13358230Y-909480D02*
X13328230Y-939480D01*
X13345570Y-4081150D02*
X13375570Y-4111150D01*
X13375570Y-4081150D02*
X13345570Y-4111150D01*
X13379580Y-3544060D02*
X13409580Y-3574060D01*
X13409580Y-3544060D02*
X13379580Y-3574060D01*
X13793860Y-3691680D02*
X13823860Y-3721680D01*
X13823860Y-3691680D02*
X13793860Y-3721680D01*
X13851990Y-4581620D02*
X13881990Y-4611620D01*
X13881990Y-4581620D02*
X13851990Y-4611620D01*
X13859900Y-3995760D02*
X13889900Y-4025760D01*
X13889900Y-3995760D02*
X13859900Y-4025760D01*
X13859900Y-7159820D02*
X13889900Y-7189820D01*
X13889900Y-7159820D02*
X13859900Y-7189820D01*
X14406360Y-5556570D02*
X14436360Y-5586570D01*
X14436360Y-5556570D02*
X14406360Y-5586570D01*
X14457100Y-7569840D02*
X14487100Y-7599840D01*
X14487100Y-7569840D02*
X14457100Y-7599840D01*
X14571690Y-2621090D02*
X14601690Y-2651090D01*
X14601690Y-2621090D02*
X14571690Y-2651090D01*
X14594330Y-5431260D02*
X14624330Y-5461260D01*
X14624330Y-5431260D02*
X14594330Y-5461260D01*
X14642320Y-2427160D02*
X14672320Y-2457160D01*
X14672320Y-2427160D02*
X14642320Y-2457160D01*
X14740860Y-2714420D02*
X14770860Y-2744420D01*
X14770860Y-2714420D02*
X14740860Y-2744420D01*
X14755700Y-2884020D02*
X14785700Y-2914020D01*
X14785700Y-2884020D02*
X14755700Y-2914020D01*
X14774570Y-5494860D02*
X14804570Y-5524860D01*
X14804570Y-5494860D02*
X14774570Y-5524860D01*
X15054300Y-900260D02*
X15084300Y-930260D01*
X15084300Y-900260D02*
X15054300Y-930260D01*
X15654190Y-2586080D02*
X15684190Y-2616080D01*
X15684190Y-2586080D02*
X15654190Y-2616080D01*
X16252790Y-2505200D02*
X16282790Y-2535200D01*
X16282790Y-2505200D02*
X16252790Y-2535200D01*
X16845790Y-2506560D02*
X16875790Y-2536560D01*
X16875790Y-2506560D02*
X16845790Y-2536560D01*
X1045000Y-1139820D02*
G75*
G02*
X950000Y-1139820I-47500J0D01*
G01*
X950000Y-1139820D02*
G75*
G02*
X1045000Y-1139820I47500J0D01*
G01*
X1295000Y-1139820D02*
G75*
G02*
X1200000Y-1139820I-47500J0D01*
G01*
X1200000Y-1139820D02*
G75*
G02*
X1295000Y-1139820I47500J0D01*
G01*
X1545000Y-1139820D02*
G75*
G02*
X1450000Y-1139820I-47500J0D01*
G01*
X1450000Y-1139820D02*
G75*
G02*
X1545000Y-1139820I47500J0D01*
G01*
X1795000Y-1139820D02*
G75*
G02*
X1700000Y-1139820I-47500J0D01*
G01*
X1700000Y-1139820D02*
G75*
G02*
X1795000Y-1139820I47500J0D01*
G01*
X2045000Y-1139820D02*
G75*
G02*
X1950000Y-1139820I-47500J0D01*
G01*
X1950000Y-1139820D02*
G75*
G02*
X2045000Y-1139820I47500J0D01*
G01*
X2295000Y-1139820D02*
G75*
G02*
X2200000Y-1139820I-47500J0D01*
G01*
X2200000Y-1139820D02*
G75*
G02*
X2295000Y-1139820I47500J0D01*
G01*
X3190000Y-1139820D02*
G75*
G02*
X3095000Y-1139820I-47500J0D01*
G01*
X3095000Y-1139820D02*
G75*
G02*
X3190000Y-1139820I47500J0D01*
G01*
X3440000Y-1139820D02*
G75*
G02*
X3345000Y-1139820I-47500J0D01*
G01*
X3345000Y-1139820D02*
G75*
G02*
X3440000Y-1139820I47500J0D01*
G01*
X3690000Y-1139820D02*
G75*
G02*
X3595000Y-1139820I-47500J0D01*
G01*
X3595000Y-1139820D02*
G75*
G02*
X3690000Y-1139820I47500J0D01*
G01*
X3940000Y-1139820D02*
G75*
G02*
X3845000Y-1139820I-47500J0D01*
G01*
X3845000Y-1139820D02*
G75*
G02*
X3940000Y-1139820I47500J0D01*
G01*
X4190000Y-1139820D02*
G75*
G02*
X4095000Y-1139820I-47500J0D01*
G01*
X4095000Y-1139820D02*
G75*
G02*
X4190000Y-1139820I47500J0D01*
G01*
X4440000Y-1139820D02*
G75*
G02*
X4345000Y-1139820I-47500J0D01*
G01*
X4345000Y-1139820D02*
G75*
G02*
X4440000Y-1139820I47500J0D01*
G01*
X2000000Y-7550000D02*
X2000000Y-7650000D01*
X1950000Y-7600000D02*
X2050000Y-7600000D01*
X2228000Y-7550000D02*
X2228000Y-7650000D01*
X2178000Y-7600000D02*
X2278000Y-7600000D01*
X2456000Y-7550000D02*
X2456000Y-7650000D01*
X2406000Y-7600000D02*
X2506000Y-7600000D01*
X4000000Y-7550000D02*
X4000000Y-7650000D01*
X3950000Y-7600000D02*
X4050000Y-7600000D01*
X4228000Y-7550000D02*
X4228000Y-7650000D01*
X4178000Y-7600000D02*
X4278000Y-7600000D01*
X4456000Y-7550000D02*
X4456000Y-7650000D01*
X4406000Y-7600000D02*
X4506000Y-7600000D01*
X6000000Y-7550000D02*
X6000000Y-7650000D01*
X5950000Y-7600000D02*
X6050000Y-7600000D01*
X6228000Y-7550000D02*
X6228000Y-7650000D01*
X6178000Y-7600000D02*
X6278000Y-7600000D01*
X6456000Y-7550000D02*
X6456000Y-7650000D01*
X6406000Y-7600000D02*
X6506000Y-7600000D01*
X8000000Y-7550000D02*
X8000000Y-7650000D01*
X7950000Y-7600000D02*
X8050000Y-7600000D01*
X8228000Y-7550000D02*
X8228000Y-7650000D01*
X8178000Y-7600000D02*
X8278000Y-7600000D01*
X8456000Y-7550000D02*
X8456000Y-7650000D01*
X8406000Y-7600000D02*
X8506000Y-7600000D01*
X11797190Y-1029820D02*
X11797190Y-1129820D01*
X11747190Y-1079820D02*
X11847190Y-1079820D01*
X12025190Y-1029820D02*
X12025190Y-1129820D01*
X11975190Y-1079820D02*
X12075190Y-1079820D01*
X12253190Y-1029820D02*
X12253190Y-1129820D01*
X12203190Y-1079820D02*
X12303190Y-1079820D01*
X12952190Y-1029820D02*
X12952190Y-1129820D01*
X12902190Y-1079820D02*
X13002190Y-1079820D01*
X13180190Y-1029820D02*
X13180190Y-1129820D01*
X13130190Y-1079820D02*
X13230190Y-1079820D01*
X13408190Y-1029820D02*
X13408190Y-1129820D01*
X13358190Y-1079820D02*
X13458190Y-1079820D01*
X14107190Y-1029820D02*
X14107190Y-1129820D01*
X14057190Y-1079820D02*
X14157190Y-1079820D01*
X14335190Y-1029820D02*
X14335190Y-1129820D01*
X14285190Y-1079820D02*
X14385190Y-1079820D01*
X14563190Y-1029820D02*
X14563190Y-1129820D01*
X14513190Y-1079820D02*
X14613190Y-1079820D01*
X15262190Y-1029820D02*
X15262190Y-1129820D01*
X15212190Y-1079820D02*
X15312190Y-1079820D01*
X15490190Y-1029820D02*
X15490190Y-1129820D01*
X15440190Y-1079820D02*
X15540190Y-1079820D01*
X15718190Y-1029820D02*
X15718190Y-1129820D01*
X15668190Y-1079820D02*
X15768190Y-1079820D01*
D12*
X5342105Y-1334925D02*
X5342105Y-1214715D01*
X5221895Y-1214715D01*
X5221895Y-1334925D01*
X5342105Y-1334925D01*
X5738105Y-1334925D02*
X5738105Y-1214715D01*
X5617895Y-1214715D01*
X5617895Y-1334925D01*
X5738105Y-1334925D01*
X6134105Y-1334925D02*
X6134105Y-1214715D01*
X6013895Y-1214715D01*
X6013895Y-1334925D01*
X6134105Y-1334925D01*
D13*
X1400000Y-9084630D02*
X1534630Y-8950000D01*
X1400000Y-8815370D01*
X1265370Y-8950000D01*
X1400000Y-9084630D01*
X3000000Y-9084630D02*
X3134630Y-8950000D01*
X3000000Y-8815370D01*
X2865370Y-8950000D01*
X3000000Y-9084630D01*
X4600000Y-9084630D02*
X4734630Y-8950000D01*
X4600000Y-8815370D01*
X4465370Y-8950000D01*
X4600000Y-9084630D01*
X6200000Y-9084630D02*
X6334630Y-8950000D01*
X6200000Y-8815370D01*
X6065370Y-8950000D01*
X6200000Y-9084630D01*
X7800000Y-9084630D02*
X7934630Y-8950000D01*
X7800000Y-8815370D01*
X7665370Y-8950000D01*
X7800000Y-9084630D01*
X9400000Y-9084630D02*
X9534630Y-8950000D01*
X9400000Y-8815370D01*
X9265370Y-8950000D01*
X9400000Y-9084630D01*
X11000000Y-9084630D02*
X11134630Y-8950000D01*
X11000000Y-8815370D01*
X10865370Y-8950000D01*
X11000000Y-9084630D01*
X12600000Y-9084630D02*
X12734630Y-8950000D01*
X12600000Y-8815370D01*
X12465370Y-8950000D01*
X12600000Y-9084630D01*
D14*
X1259100Y-9259100D02*
X1540900Y-9540900D01*
X1540900Y-9259100D02*
X1259100Y-9540900D01*
X1540900Y-9400000D02*
G75*
G02*
X1259100Y-9400000I-140900J0D01*
G01*
X1259100Y-9400000D02*
G75*
G02*
X1540900Y-9400000I140900J0D01*
G01*
X2859100Y-9259100D02*
X3140900Y-9540900D01*
X3140900Y-9259100D02*
X2859100Y-9540900D01*
X3140900Y-9400000D02*
G75*
G02*
X2859100Y-9400000I-140900J0D01*
G01*
X2859100Y-9400000D02*
G75*
G02*
X3140900Y-9400000I140900J0D01*
G01*
X4459100Y-9259100D02*
X4740900Y-9540900D01*
X4740900Y-9259100D02*
X4459100Y-9540900D01*
X4740900Y-9400000D02*
G75*
G02*
X4459100Y-9400000I-140900J0D01*
G01*
X4459100Y-9400000D02*
G75*
G02*
X4740900Y-9400000I140900J0D01*
G01*
X6059100Y-9259100D02*
X6340900Y-9540900D01*
X6340900Y-9259100D02*
X6059100Y-9540900D01*
X6340900Y-9400000D02*
G75*
G02*
X6059100Y-9400000I-140900J0D01*
G01*
X6059100Y-9400000D02*
G75*
G02*
X6340900Y-9400000I140900J0D01*
G01*
X7659100Y-9259100D02*
X7940900Y-9540900D01*
X7940900Y-9259100D02*
X7659100Y-9540900D01*
X7940900Y-9400000D02*
G75*
G02*
X7659100Y-9400000I-140900J0D01*
G01*
X7659100Y-9400000D02*
G75*
G02*
X7940900Y-9400000I140900J0D01*
G01*
X9259100Y-9259100D02*
X9540900Y-9540900D01*
X9540900Y-9259100D02*
X9259100Y-9540900D01*
X9540900Y-9400000D02*
G75*
G02*
X9259100Y-9400000I-140900J0D01*
G01*
X9259100Y-9400000D02*
G75*
G02*
X9540900Y-9400000I140900J0D01*
G01*
X10859100Y-9259100D02*
X11140900Y-9540900D01*
X11140900Y-9259100D02*
X10859100Y-9540900D01*
X11140900Y-9400000D02*
G75*
G02*
X10859100Y-9400000I-140900J0D01*
G01*
X10859100Y-9400000D02*
G75*
G02*
X11140900Y-9400000I140900J0D01*
G01*
X12459100Y-9259100D02*
X12740900Y-9540900D01*
X12740900Y-9259100D02*
X12459100Y-9540900D01*
X12740900Y-9400000D02*
G75*
G02*
X12459100Y-9400000I-140900J0D01*
G01*
X12459100Y-9400000D02*
G75*
G02*
X12740900Y-9400000I140900J0D01*
G01*
D15*
X851200Y-9591200D02*
X1098800Y-9838800D01*
X1098800Y-9591200D02*
X851200Y-9838800D01*
X975000Y-9591200D02*
X975000Y-9838800D01*
X851200Y-9715000D02*
X1098800Y-9715000D01*
X1701200Y-9591200D02*
X1948800Y-9838800D01*
X1948800Y-9591200D02*
X1701200Y-9838800D01*
X1825000Y-9591200D02*
X1825000Y-9838800D01*
X1701200Y-9715000D02*
X1948800Y-9715000D01*
X2451200Y-9591200D02*
X2698800Y-9838800D01*
X2698800Y-9591200D02*
X2451200Y-9838800D01*
X2575000Y-9591200D02*
X2575000Y-9838800D01*
X2451200Y-9715000D02*
X2698800Y-9715000D01*
X3301200Y-9591200D02*
X3548800Y-9838800D01*
X3548800Y-9591200D02*
X3301200Y-9838800D01*
X3425000Y-9591200D02*
X3425000Y-9838800D01*
X3301200Y-9715000D02*
X3548800Y-9715000D01*
X4051200Y-9591200D02*
X4298800Y-9838800D01*
X4298800Y-9591200D02*
X4051200Y-9838800D01*
X4175000Y-9591200D02*
X4175000Y-9838800D01*
X4051200Y-9715000D02*
X4298800Y-9715000D01*
X4901200Y-9591200D02*
X5148800Y-9838800D01*
X5148800Y-9591200D02*
X4901200Y-9838800D01*
X5025000Y-9591200D02*
X5025000Y-9838800D01*
X4901200Y-9715000D02*
X5148800Y-9715000D01*
X5651200Y-9591200D02*
X5898800Y-9838800D01*
X5898800Y-9591200D02*
X5651200Y-9838800D01*
X5775000Y-9591200D02*
X5775000Y-9838800D01*
X5651200Y-9715000D02*
X5898800Y-9715000D01*
X6501200Y-9591200D02*
X6748800Y-9838800D01*
X6748800Y-9591200D02*
X6501200Y-9838800D01*
X6625000Y-9591200D02*
X6625000Y-9838800D01*
X6501200Y-9715000D02*
X6748800Y-9715000D01*
X7251200Y-9591200D02*
X7498800Y-9838800D01*
X7498800Y-9591200D02*
X7251200Y-9838800D01*
X7375000Y-9591200D02*
X7375000Y-9838800D01*
X7251200Y-9715000D02*
X7498800Y-9715000D01*
X8101200Y-9591200D02*
X8348800Y-9838800D01*
X8348800Y-9591200D02*
X8101200Y-9838800D01*
X8225000Y-9591200D02*
X8225000Y-9838800D01*
X8101200Y-9715000D02*
X8348800Y-9715000D01*
X8851200Y-9591200D02*
X9098800Y-9838800D01*
X9098800Y-9591200D02*
X8851200Y-9838800D01*
X8975000Y-9591200D02*
X8975000Y-9838800D01*
X8851200Y-9715000D02*
X9098800Y-9715000D01*
X9701200Y-9591200D02*
X9948800Y-9838800D01*
X9948800Y-9591200D02*
X9701200Y-9838800D01*
X9825000Y-9591200D02*
X9825000Y-9838800D01*
X9701200Y-9715000D02*
X9948800Y-9715000D01*
X10451200Y-9591200D02*
X10698800Y-9838800D01*
X10698800Y-9591200D02*
X10451200Y-9838800D01*
X10575000Y-9591200D02*
X10575000Y-9838800D01*
X10451200Y-9715000D02*
X10698800Y-9715000D01*
X11301200Y-9591200D02*
X11548800Y-9838800D01*
X11548800Y-9591200D02*
X11301200Y-9838800D01*
X11425000Y-9591200D02*
X11425000Y-9838800D01*
X11301200Y-9715000D02*
X11548800Y-9715000D01*
X12051200Y-9591200D02*
X12298800Y-9838800D01*
X12298800Y-9591200D02*
X12051200Y-9838800D01*
X12175000Y-9591200D02*
X12175000Y-9838800D01*
X12051200Y-9715000D02*
X12298800Y-9715000D01*
X12901200Y-9591200D02*
X13148800Y-9838800D01*
X13148800Y-9591200D02*
X12901200Y-9838800D01*
X13025000Y-9591200D02*
X13025000Y-9838800D01*
X12901200Y-9715000D02*
X13148800Y-9715000D01*
D16*
X190000Y-190000D02*
X510000Y-510000D01*
X510000Y-190000D02*
X190000Y-510000D01*
X463138Y-463138D02*
X463138Y-236862D01*
X236862Y-236862D01*
X236862Y-463138D01*
X463138Y-463138D01*
X190000Y-10490000D02*
X510000Y-10810000D01*
X510000Y-10490000D02*
X190000Y-10810000D01*
X463138Y-10763138D02*
X463138Y-10536862D01*
X236862Y-10536862D01*
X236862Y-10763138D01*
X463138Y-10763138D01*
X16490000Y-190000D02*
X16810000Y-510000D01*
X16810000Y-190000D02*
X16490000Y-510000D01*
X16763138Y-463138D02*
X16763138Y-236862D01*
X16536862Y-236862D01*
X16536862Y-463138D01*
X16763138Y-463138D01*
X16490000Y-10490000D02*
X16810000Y-10810000D01*
X16810000Y-10490000D02*
X16490000Y-10810000D01*
X16763138Y-10763138D02*
X16763138Y-10536862D01*
X16536862Y-10536862D01*
X16536862Y-10763138D01*
X16763138Y-10763138D01*
D11*
X255777Y-11316484D02*
X255777Y-11116484D01*
X255777Y-11116484D02*
X303396Y-11116484D01*
X303396Y-11116484D02*
X331967Y-11126008D01*
X331967Y-11126008D02*
X351015Y-11145055D01*
X351015Y-11145055D02*
X360539Y-11164103D01*
X360539Y-11164103D02*
X370062Y-11202198D01*
X370062Y-11202198D02*
X370062Y-11230769D01*
X370062Y-11230769D02*
X360539Y-11268865D01*
X360539Y-11268865D02*
X351015Y-11287912D01*
X351015Y-11287912D02*
X331967Y-11306960D01*
X331967Y-11306960D02*
X303396Y-11316484D01*
X303396Y-11316484D02*
X255777Y-11316484D01*
X455777Y-11316484D02*
X455777Y-11183150D01*
X455777Y-11221246D02*
X465301Y-11202198D01*
X465301Y-11202198D02*
X474824Y-11192674D01*
X474824Y-11192674D02*
X493872Y-11183150D01*
X493872Y-11183150D02*
X512920Y-11183150D01*
X579586Y-11316484D02*
X579586Y-11183150D01*
X579586Y-11116484D02*
X570063Y-11126008D01*
X570063Y-11126008D02*
X579586Y-11135531D01*
X579586Y-11135531D02*
X589110Y-11126008D01*
X589110Y-11126008D02*
X579586Y-11116484D01*
X579586Y-11116484D02*
X579586Y-11135531D01*
X703396Y-11316484D02*
X684348Y-11306960D01*
X684348Y-11306960D02*
X674824Y-11287912D01*
X674824Y-11287912D02*
X674824Y-11116484D01*
X808158Y-11316484D02*
X789110Y-11306960D01*
X789110Y-11306960D02*
X779586Y-11287912D01*
X779586Y-11287912D02*
X779586Y-11116484D01*
X1036729Y-11316484D02*
X1036729Y-11116484D01*
X1036729Y-11116484D02*
X1103396Y-11259341D01*
X1103396Y-11259341D02*
X1170063Y-11116484D01*
X1170063Y-11116484D02*
X1170063Y-11316484D01*
X1351015Y-11316484D02*
X1351015Y-11211722D01*
X1351015Y-11211722D02*
X1341491Y-11192674D01*
X1341491Y-11192674D02*
X1322444Y-11183150D01*
X1322444Y-11183150D02*
X1284348Y-11183150D01*
X1284348Y-11183150D02*
X1265301Y-11192674D01*
X1351015Y-11306960D02*
X1331967Y-11316484D01*
X1331967Y-11316484D02*
X1284348Y-11316484D01*
X1284348Y-11316484D02*
X1265301Y-11306960D01*
X1265301Y-11306960D02*
X1255777Y-11287912D01*
X1255777Y-11287912D02*
X1255777Y-11268865D01*
X1255777Y-11268865D02*
X1265301Y-11249817D01*
X1265301Y-11249817D02*
X1284348Y-11240293D01*
X1284348Y-11240293D02*
X1331967Y-11240293D01*
X1331967Y-11240293D02*
X1351015Y-11230769D01*
X1446253Y-11183150D02*
X1446253Y-11383150D01*
X1446253Y-11192674D02*
X1465301Y-11183150D01*
X1465301Y-11183150D02*
X1503396Y-11183150D01*
X1503396Y-11183150D02*
X1522443Y-11192674D01*
X1522443Y-11192674D02*
X1531967Y-11202198D01*
X1531967Y-11202198D02*
X1541491Y-11221246D01*
X1541491Y-11221246D02*
X1541491Y-11278388D01*
X1541491Y-11278388D02*
X1531967Y-11297436D01*
X1531967Y-11297436D02*
X1522443Y-11306960D01*
X1522443Y-11306960D02*
X1503396Y-11316484D01*
X1503396Y-11316484D02*
X1465301Y-11316484D01*
X1465301Y-11316484D02*
X1446253Y-11306960D01*
X1627205Y-11297436D02*
X1636729Y-11306960D01*
X1636729Y-11306960D02*
X1627205Y-11316484D01*
X1627205Y-11316484D02*
X1617682Y-11306960D01*
X1617682Y-11306960D02*
X1627205Y-11297436D01*
X1627205Y-11297436D02*
X1627205Y-11316484D01*
X1627205Y-11192674D02*
X1636729Y-11202198D01*
X1636729Y-11202198D02*
X1627205Y-11211722D01*
X1627205Y-11211722D02*
X1617682Y-11202198D01*
X1617682Y-11202198D02*
X1627205Y-11192674D01*
X1627205Y-11192674D02*
X1627205Y-11211722D01*
D10*
X-35000Y-11630000D02*
X-5000Y-11660000D01*
X-5000Y-11630000D02*
X-35000Y-11660000D01*
D11*
X293872Y-11536484D02*
X312920Y-11536484D01*
X312920Y-11536484D02*
X331967Y-11546008D01*
X331967Y-11546008D02*
X341491Y-11555531D01*
X341491Y-11555531D02*
X351015Y-11574579D01*
X351015Y-11574579D02*
X360539Y-11612674D01*
X360539Y-11612674D02*
X360539Y-11660293D01*
X360539Y-11660293D02*
X351015Y-11698388D01*
X351015Y-11698388D02*
X341491Y-11717436D01*
X341491Y-11717436D02*
X331967Y-11726960D01*
X331967Y-11726960D02*
X312920Y-11736484D01*
X312920Y-11736484D02*
X293872Y-11736484D01*
X293872Y-11736484D02*
X274824Y-11726960D01*
X274824Y-11726960D02*
X265301Y-11717436D01*
X265301Y-11717436D02*
X255777Y-11698388D01*
X255777Y-11698388D02*
X246253Y-11660293D01*
X246253Y-11660293D02*
X246253Y-11612674D01*
X246253Y-11612674D02*
X255777Y-11574579D01*
X255777Y-11574579D02*
X265301Y-11555531D01*
X265301Y-11555531D02*
X274824Y-11546008D01*
X274824Y-11546008D02*
X293872Y-11536484D01*
X446253Y-11717436D02*
X455777Y-11726960D01*
X455777Y-11726960D02*
X446253Y-11736484D01*
X446253Y-11736484D02*
X436729Y-11726960D01*
X436729Y-11726960D02*
X446253Y-11717436D01*
X446253Y-11717436D02*
X446253Y-11736484D01*
X522443Y-11536484D02*
X646253Y-11536484D01*
X646253Y-11536484D02*
X579586Y-11612674D01*
X579586Y-11612674D02*
X608158Y-11612674D01*
X608158Y-11612674D02*
X627205Y-11622198D01*
X627205Y-11622198D02*
X636729Y-11631722D01*
X636729Y-11631722D02*
X646253Y-11650769D01*
X646253Y-11650769D02*
X646253Y-11698388D01*
X646253Y-11698388D02*
X636729Y-11717436D01*
X636729Y-11717436D02*
X627205Y-11726960D01*
X627205Y-11726960D02*
X608158Y-11736484D01*
X608158Y-11736484D02*
X551015Y-11736484D01*
X551015Y-11736484D02*
X531967Y-11726960D01*
X531967Y-11726960D02*
X522443Y-11717436D01*
X770062Y-11536484D02*
X789110Y-11536484D01*
X789110Y-11536484D02*
X808158Y-11546008D01*
X808158Y-11546008D02*
X817682Y-11555531D01*
X817682Y-11555531D02*
X827205Y-11574579D01*
X827205Y-11574579D02*
X836729Y-11612674D01*
X836729Y-11612674D02*
X836729Y-11660293D01*
X836729Y-11660293D02*
X827205Y-11698388D01*
X827205Y-11698388D02*
X817682Y-11717436D01*
X817682Y-11717436D02*
X808158Y-11726960D01*
X808158Y-11726960D02*
X789110Y-11736484D01*
X789110Y-11736484D02*
X770062Y-11736484D01*
X770062Y-11736484D02*
X751015Y-11726960D01*
X751015Y-11726960D02*
X741491Y-11717436D01*
X741491Y-11717436D02*
X731967Y-11698388D01*
X731967Y-11698388D02*
X722443Y-11660293D01*
X722443Y-11660293D02*
X722443Y-11612674D01*
X722443Y-11612674D02*
X731967Y-11574579D01*
X731967Y-11574579D02*
X741491Y-11555531D01*
X741491Y-11555531D02*
X751015Y-11546008D01*
X751015Y-11546008D02*
X770062Y-11536484D01*
X960539Y-11536484D02*
X979586Y-11536484D01*
X979586Y-11536484D02*
X998634Y-11546008D01*
X998634Y-11546008D02*
X1008158Y-11555531D01*
X1008158Y-11555531D02*
X1017682Y-11574579D01*
X1017682Y-11574579D02*
X1027205Y-11612674D01*
X1027205Y-11612674D02*
X1027205Y-11660293D01*
X1027205Y-11660293D02*
X1017682Y-11698388D01*
X1017682Y-11698388D02*
X1008158Y-11717436D01*
X1008158Y-11717436D02*
X998634Y-11726960D01*
X998634Y-11726960D02*
X979586Y-11736484D01*
X979586Y-11736484D02*
X960539Y-11736484D01*
X960539Y-11736484D02*
X941491Y-11726960D01*
X941491Y-11726960D02*
X931967Y-11717436D01*
X931967Y-11717436D02*
X922443Y-11698388D01*
X922443Y-11698388D02*
X912920Y-11660293D01*
X912920Y-11660293D02*
X912920Y-11612674D01*
X912920Y-11612674D02*
X922443Y-11574579D01*
X922443Y-11574579D02*
X931967Y-11555531D01*
X931967Y-11555531D02*
X941491Y-11546008D01*
X941491Y-11546008D02*
X960539Y-11536484D01*
X1112920Y-11736484D02*
X1112920Y-11603150D01*
X1112920Y-11622198D02*
X1122444Y-11612674D01*
X1122444Y-11612674D02*
X1141491Y-11603150D01*
X1141491Y-11603150D02*
X1170063Y-11603150D01*
X1170063Y-11603150D02*
X1189110Y-11612674D01*
X1189110Y-11612674D02*
X1198634Y-11631722D01*
X1198634Y-11631722D02*
X1198634Y-11736484D01*
X1198634Y-11631722D02*
X1208158Y-11612674D01*
X1208158Y-11612674D02*
X1227205Y-11603150D01*
X1227205Y-11603150D02*
X1255777Y-11603150D01*
X1255777Y-11603150D02*
X1274825Y-11612674D01*
X1274825Y-11612674D02*
X1284348Y-11631722D01*
X1284348Y-11631722D02*
X1284348Y-11736484D01*
X1379586Y-11736484D02*
X1379586Y-11603150D01*
X1379586Y-11622198D02*
X1389110Y-11612674D01*
X1389110Y-11612674D02*
X1408158Y-11603150D01*
X1408158Y-11603150D02*
X1436729Y-11603150D01*
X1436729Y-11603150D02*
X1455777Y-11612674D01*
X1455777Y-11612674D02*
X1465301Y-11631722D01*
X1465301Y-11631722D02*
X1465301Y-11736484D01*
X1465301Y-11631722D02*
X1474824Y-11612674D01*
X1474824Y-11612674D02*
X1493872Y-11603150D01*
X1493872Y-11603150D02*
X1522443Y-11603150D01*
X1522443Y-11603150D02*
X1541491Y-11612674D01*
X1541491Y-11612674D02*
X1551015Y-11631722D01*
X1551015Y-11631722D02*
X1551015Y-11736484D01*
X1941491Y-11526960D02*
X1770063Y-11784103D01*
X2198634Y-11536484D02*
X2217682Y-11536484D01*
X2217682Y-11536484D02*
X2236729Y-11546008D01*
X2236729Y-11546008D02*
X2246253Y-11555531D01*
X2246253Y-11555531D02*
X2255777Y-11574579D01*
X2255777Y-11574579D02*
X2265301Y-11612674D01*
X2265301Y-11612674D02*
X2265301Y-11660293D01*
X2265301Y-11660293D02*
X2255777Y-11698388D01*
X2255777Y-11698388D02*
X2246253Y-11717436D01*
X2246253Y-11717436D02*
X2236729Y-11726960D01*
X2236729Y-11726960D02*
X2217682Y-11736484D01*
X2217682Y-11736484D02*
X2198634Y-11736484D01*
X2198634Y-11736484D02*
X2179587Y-11726960D01*
X2179587Y-11726960D02*
X2170063Y-11717436D01*
X2170063Y-11717436D02*
X2160539Y-11698388D01*
X2160539Y-11698388D02*
X2151015Y-11660293D01*
X2151015Y-11660293D02*
X2151015Y-11612674D01*
X2151015Y-11612674D02*
X2160539Y-11574579D01*
X2160539Y-11574579D02*
X2170063Y-11555531D01*
X2170063Y-11555531D02*
X2179587Y-11546008D01*
X2179587Y-11546008D02*
X2198634Y-11536484D01*
X2351015Y-11717436D02*
X2360539Y-11726960D01*
X2360539Y-11726960D02*
X2351015Y-11736484D01*
X2351015Y-11736484D02*
X2341491Y-11726960D01*
X2341491Y-11726960D02*
X2351015Y-11717436D01*
X2351015Y-11717436D02*
X2351015Y-11736484D01*
X2484348Y-11536484D02*
X2503396Y-11536484D01*
X2503396Y-11536484D02*
X2522444Y-11546008D01*
X2522444Y-11546008D02*
X2531968Y-11555531D01*
X2531968Y-11555531D02*
X2541491Y-11574579D01*
X2541491Y-11574579D02*
X2551015Y-11612674D01*
X2551015Y-11612674D02*
X2551015Y-11660293D01*
X2551015Y-11660293D02*
X2541491Y-11698388D01*
X2541491Y-11698388D02*
X2531968Y-11717436D01*
X2531968Y-11717436D02*
X2522444Y-11726960D01*
X2522444Y-11726960D02*
X2503396Y-11736484D01*
X2503396Y-11736484D02*
X2484348Y-11736484D01*
X2484348Y-11736484D02*
X2465301Y-11726960D01*
X2465301Y-11726960D02*
X2455777Y-11717436D01*
X2455777Y-11717436D02*
X2446253Y-11698388D01*
X2446253Y-11698388D02*
X2436729Y-11660293D01*
X2436729Y-11660293D02*
X2436729Y-11612674D01*
X2436729Y-11612674D02*
X2446253Y-11574579D01*
X2446253Y-11574579D02*
X2455777Y-11555531D01*
X2455777Y-11555531D02*
X2465301Y-11546008D01*
X2465301Y-11546008D02*
X2484348Y-11536484D01*
X2741491Y-11736484D02*
X2627206Y-11736484D01*
X2684348Y-11736484D02*
X2684348Y-11536484D01*
X2684348Y-11536484D02*
X2665301Y-11565055D01*
X2665301Y-11565055D02*
X2646253Y-11584103D01*
X2646253Y-11584103D02*
X2627206Y-11593627D01*
X2931967Y-11736484D02*
X2817682Y-11736484D01*
X2874825Y-11736484D02*
X2874825Y-11536484D01*
X2874825Y-11536484D02*
X2855777Y-11565055D01*
X2855777Y-11565055D02*
X2836729Y-11584103D01*
X2836729Y-11584103D02*
X2817682Y-11593627D01*
X3046253Y-11622198D02*
X3027206Y-11612674D01*
X3027206Y-11612674D02*
X3017682Y-11603150D01*
X3017682Y-11603150D02*
X3008158Y-11584103D01*
X3008158Y-11584103D02*
X3008158Y-11574579D01*
X3008158Y-11574579D02*
X3017682Y-11555531D01*
X3017682Y-11555531D02*
X3027206Y-11546008D01*
X3027206Y-11546008D02*
X3046253Y-11536484D01*
X3046253Y-11536484D02*
X3084348Y-11536484D01*
X3084348Y-11536484D02*
X3103396Y-11546008D01*
X3103396Y-11546008D02*
X3112920Y-11555531D01*
X3112920Y-11555531D02*
X3122444Y-11574579D01*
X3122444Y-11574579D02*
X3122444Y-11584103D01*
X3122444Y-11584103D02*
X3112920Y-11603150D01*
X3112920Y-11603150D02*
X3103396Y-11612674D01*
X3103396Y-11612674D02*
X3084348Y-11622198D01*
X3084348Y-11622198D02*
X3046253Y-11622198D01*
X3046253Y-11622198D02*
X3027206Y-11631722D01*
X3027206Y-11631722D02*
X3017682Y-11641246D01*
X3017682Y-11641246D02*
X3008158Y-11660293D01*
X3008158Y-11660293D02*
X3008158Y-11698388D01*
X3008158Y-11698388D02*
X3017682Y-11717436D01*
X3017682Y-11717436D02*
X3027206Y-11726960D01*
X3027206Y-11726960D02*
X3046253Y-11736484D01*
X3046253Y-11736484D02*
X3084348Y-11736484D01*
X3084348Y-11736484D02*
X3103396Y-11726960D01*
X3103396Y-11726960D02*
X3112920Y-11717436D01*
X3112920Y-11717436D02*
X3122444Y-11698388D01*
X3122444Y-11698388D02*
X3122444Y-11660293D01*
X3122444Y-11660293D02*
X3112920Y-11641246D01*
X3112920Y-11641246D02*
X3103396Y-11631722D01*
X3103396Y-11631722D02*
X3084348Y-11622198D01*
X3198634Y-11536484D02*
X3198634Y-11574579D01*
X3274825Y-11536484D02*
X3274825Y-11574579D01*
X3570063Y-11812674D02*
X3560539Y-11803150D01*
X3560539Y-11803150D02*
X3541491Y-11774579D01*
X3541491Y-11774579D02*
X3531968Y-11755531D01*
X3531968Y-11755531D02*
X3522444Y-11726960D01*
X3522444Y-11726960D02*
X3512920Y-11679341D01*
X3512920Y-11679341D02*
X3512920Y-11641246D01*
X3512920Y-11641246D02*
X3522444Y-11593627D01*
X3522444Y-11593627D02*
X3531968Y-11565055D01*
X3531968Y-11565055D02*
X3541491Y-11546008D01*
X3541491Y-11546008D02*
X3560539Y-11517436D01*
X3560539Y-11517436D02*
X3570063Y-11507912D01*
X3751015Y-11736484D02*
X3636729Y-11736484D01*
X3693872Y-11736484D02*
X3693872Y-11536484D01*
X3693872Y-11536484D02*
X3674825Y-11565055D01*
X3674825Y-11565055D02*
X3655777Y-11584103D01*
X3655777Y-11584103D02*
X3636729Y-11593627D01*
X3827206Y-11555531D02*
X3836729Y-11546008D01*
X3836729Y-11546008D02*
X3855777Y-11536484D01*
X3855777Y-11536484D02*
X3903396Y-11536484D01*
X3903396Y-11536484D02*
X3922444Y-11546008D01*
X3922444Y-11546008D02*
X3931968Y-11555531D01*
X3931968Y-11555531D02*
X3941491Y-11574579D01*
X3941491Y-11574579D02*
X3941491Y-11593627D01*
X3941491Y-11593627D02*
X3931968Y-11622198D01*
X3931968Y-11622198D02*
X3817682Y-11736484D01*
X3817682Y-11736484D02*
X3941491Y-11736484D01*
X4055777Y-11622198D02*
X4036729Y-11612674D01*
X4036729Y-11612674D02*
X4027206Y-11603150D01*
X4027206Y-11603150D02*
X4017682Y-11584103D01*
X4017682Y-11584103D02*
X4017682Y-11574579D01*
X4017682Y-11574579D02*
X4027206Y-11555531D01*
X4027206Y-11555531D02*
X4036729Y-11546008D01*
X4036729Y-11546008D02*
X4055777Y-11536484D01*
X4055777Y-11536484D02*
X4093872Y-11536484D01*
X4093872Y-11536484D02*
X4112920Y-11546008D01*
X4112920Y-11546008D02*
X4122444Y-11555531D01*
X4122444Y-11555531D02*
X4131968Y-11574579D01*
X4131968Y-11574579D02*
X4131968Y-11584103D01*
X4131968Y-11584103D02*
X4122444Y-11603150D01*
X4122444Y-11603150D02*
X4112920Y-11612674D01*
X4112920Y-11612674D02*
X4093872Y-11622198D01*
X4093872Y-11622198D02*
X4055777Y-11622198D01*
X4055777Y-11622198D02*
X4036729Y-11631722D01*
X4036729Y-11631722D02*
X4027206Y-11641246D01*
X4027206Y-11641246D02*
X4017682Y-11660293D01*
X4017682Y-11660293D02*
X4017682Y-11698388D01*
X4017682Y-11698388D02*
X4027206Y-11717436D01*
X4027206Y-11717436D02*
X4036729Y-11726960D01*
X4036729Y-11726960D02*
X4055777Y-11736484D01*
X4055777Y-11736484D02*
X4093872Y-11736484D01*
X4093872Y-11736484D02*
X4112920Y-11726960D01*
X4112920Y-11726960D02*
X4122444Y-11717436D01*
X4122444Y-11717436D02*
X4131968Y-11698388D01*
X4131968Y-11698388D02*
X4131968Y-11660293D01*
X4131968Y-11660293D02*
X4122444Y-11641246D01*
X4122444Y-11641246D02*
X4112920Y-11631722D01*
X4112920Y-11631722D02*
X4093872Y-11622198D01*
X4370063Y-11736484D02*
X4370063Y-11536484D01*
X4455777Y-11736484D02*
X4455777Y-11631722D01*
X4455777Y-11631722D02*
X4446253Y-11612674D01*
X4446253Y-11612674D02*
X4427206Y-11603150D01*
X4427206Y-11603150D02*
X4398634Y-11603150D01*
X4398634Y-11603150D02*
X4379587Y-11612674D01*
X4379587Y-11612674D02*
X4370063Y-11622198D01*
X4579587Y-11736484D02*
X4560539Y-11726960D01*
X4560539Y-11726960D02*
X4551015Y-11717436D01*
X4551015Y-11717436D02*
X4541492Y-11698388D01*
X4541492Y-11698388D02*
X4541492Y-11641246D01*
X4541492Y-11641246D02*
X4551015Y-11622198D01*
X4551015Y-11622198D02*
X4560539Y-11612674D01*
X4560539Y-11612674D02*
X4579587Y-11603150D01*
X4579587Y-11603150D02*
X4608158Y-11603150D01*
X4608158Y-11603150D02*
X4627206Y-11612674D01*
X4627206Y-11612674D02*
X4636730Y-11622198D01*
X4636730Y-11622198D02*
X4646253Y-11641246D01*
X4646253Y-11641246D02*
X4646253Y-11698388D01*
X4646253Y-11698388D02*
X4636730Y-11717436D01*
X4636730Y-11717436D02*
X4627206Y-11726960D01*
X4627206Y-11726960D02*
X4608158Y-11736484D01*
X4608158Y-11736484D02*
X4579587Y-11736484D01*
X4760539Y-11736484D02*
X4741492Y-11726960D01*
X4741492Y-11726960D02*
X4731968Y-11707912D01*
X4731968Y-11707912D02*
X4731968Y-11536484D01*
X4912920Y-11726960D02*
X4893873Y-11736484D01*
X4893873Y-11736484D02*
X4855777Y-11736484D01*
X4855777Y-11736484D02*
X4836730Y-11726960D01*
X4836730Y-11726960D02*
X4827206Y-11707912D01*
X4827206Y-11707912D02*
X4827206Y-11631722D01*
X4827206Y-11631722D02*
X4836730Y-11612674D01*
X4836730Y-11612674D02*
X4855777Y-11603150D01*
X4855777Y-11603150D02*
X4893873Y-11603150D01*
X4893873Y-11603150D02*
X4912920Y-11612674D01*
X4912920Y-11612674D02*
X4922444Y-11631722D01*
X4922444Y-11631722D02*
X4922444Y-11650769D01*
X4922444Y-11650769D02*
X4827206Y-11669817D01*
X4998634Y-11726960D02*
X5017682Y-11736484D01*
X5017682Y-11736484D02*
X5055777Y-11736484D01*
X5055777Y-11736484D02*
X5074825Y-11726960D01*
X5074825Y-11726960D02*
X5084349Y-11707912D01*
X5084349Y-11707912D02*
X5084349Y-11698388D01*
X5084349Y-11698388D02*
X5074825Y-11679341D01*
X5074825Y-11679341D02*
X5055777Y-11669817D01*
X5055777Y-11669817D02*
X5027206Y-11669817D01*
X5027206Y-11669817D02*
X5008158Y-11660293D01*
X5008158Y-11660293D02*
X4998634Y-11641246D01*
X4998634Y-11641246D02*
X4998634Y-11631722D01*
X4998634Y-11631722D02*
X5008158Y-11612674D01*
X5008158Y-11612674D02*
X5027206Y-11603150D01*
X5027206Y-11603150D02*
X5055777Y-11603150D01*
X5055777Y-11603150D02*
X5074825Y-11612674D01*
X5151015Y-11812674D02*
X5160539Y-11803150D01*
X5160539Y-11803150D02*
X5179587Y-11774579D01*
X5179587Y-11774579D02*
X5189111Y-11755531D01*
X5189111Y-11755531D02*
X5198634Y-11726960D01*
X5198634Y-11726960D02*
X5208158Y-11679341D01*
X5208158Y-11679341D02*
X5208158Y-11641246D01*
X5208158Y-11641246D02*
X5198634Y-11593627D01*
X5198634Y-11593627D02*
X5189111Y-11565055D01*
X5189111Y-11565055D02*
X5179587Y-11546008D01*
X5179587Y-11546008D02*
X5160539Y-11517436D01*
X5160539Y-11517436D02*
X5151015Y-11507912D01*
D10*
X-5000Y-11909000D02*
G75*
G02*
X-100000Y-11909000I-47500J0D01*
G01*
X-100000Y-11909000D02*
G75*
G02*
X-5000Y-11909000I47500J0D01*
G01*
D11*
X293872Y-11800484D02*
X312920Y-11800484D01*
X312920Y-11800484D02*
X331967Y-11810008D01*
X331967Y-11810008D02*
X341491Y-11819531D01*
X341491Y-11819531D02*
X351015Y-11838579D01*
X351015Y-11838579D02*
X360539Y-11876674D01*
X360539Y-11876674D02*
X360539Y-11924293D01*
X360539Y-11924293D02*
X351015Y-11962388D01*
X351015Y-11962388D02*
X341491Y-11981436D01*
X341491Y-11981436D02*
X331967Y-11990960D01*
X331967Y-11990960D02*
X312920Y-12000484D01*
X312920Y-12000484D02*
X293872Y-12000484D01*
X293872Y-12000484D02*
X274824Y-11990960D01*
X274824Y-11990960D02*
X265301Y-11981436D01*
X265301Y-11981436D02*
X255777Y-11962388D01*
X255777Y-11962388D02*
X246253Y-11924293D01*
X246253Y-11924293D02*
X246253Y-11876674D01*
X246253Y-11876674D02*
X255777Y-11838579D01*
X255777Y-11838579D02*
X265301Y-11819531D01*
X265301Y-11819531D02*
X274824Y-11810008D01*
X274824Y-11810008D02*
X293872Y-11800484D01*
X446253Y-11981436D02*
X455777Y-11990960D01*
X455777Y-11990960D02*
X446253Y-12000484D01*
X446253Y-12000484D02*
X436729Y-11990960D01*
X436729Y-11990960D02*
X446253Y-11981436D01*
X446253Y-11981436D02*
X446253Y-12000484D01*
X551015Y-12000484D02*
X589110Y-12000484D01*
X589110Y-12000484D02*
X608158Y-11990960D01*
X608158Y-11990960D02*
X617682Y-11981436D01*
X617682Y-11981436D02*
X636729Y-11952865D01*
X636729Y-11952865D02*
X646253Y-11914769D01*
X646253Y-11914769D02*
X646253Y-11838579D01*
X646253Y-11838579D02*
X636729Y-11819531D01*
X636729Y-11819531D02*
X627205Y-11810008D01*
X627205Y-11810008D02*
X608158Y-11800484D01*
X608158Y-11800484D02*
X570063Y-11800484D01*
X570063Y-11800484D02*
X551015Y-11810008D01*
X551015Y-11810008D02*
X541491Y-11819531D01*
X541491Y-11819531D02*
X531967Y-11838579D01*
X531967Y-11838579D02*
X531967Y-11886198D01*
X531967Y-11886198D02*
X541491Y-11905246D01*
X541491Y-11905246D02*
X551015Y-11914769D01*
X551015Y-11914769D02*
X570063Y-11924293D01*
X570063Y-11924293D02*
X608158Y-11924293D01*
X608158Y-11924293D02*
X627205Y-11914769D01*
X627205Y-11914769D02*
X636729Y-11905246D01*
X636729Y-11905246D02*
X646253Y-11886198D01*
X827205Y-11800484D02*
X731967Y-11800484D01*
X731967Y-11800484D02*
X722443Y-11895722D01*
X722443Y-11895722D02*
X731967Y-11886198D01*
X731967Y-11886198D02*
X751015Y-11876674D01*
X751015Y-11876674D02*
X798634Y-11876674D01*
X798634Y-11876674D02*
X817682Y-11886198D01*
X817682Y-11886198D02*
X827205Y-11895722D01*
X827205Y-11895722D02*
X836729Y-11914769D01*
X836729Y-11914769D02*
X836729Y-11962388D01*
X836729Y-11962388D02*
X827205Y-11981436D01*
X827205Y-11981436D02*
X817682Y-11990960D01*
X817682Y-11990960D02*
X798634Y-12000484D01*
X798634Y-12000484D02*
X751015Y-12000484D01*
X751015Y-12000484D02*
X731967Y-11990960D01*
X731967Y-11990960D02*
X722443Y-11981436D01*
X960539Y-11800484D02*
X979586Y-11800484D01*
X979586Y-11800484D02*
X998634Y-11810008D01*
X998634Y-11810008D02*
X1008158Y-11819531D01*
X1008158Y-11819531D02*
X1017682Y-11838579D01*
X1017682Y-11838579D02*
X1027205Y-11876674D01*
X1027205Y-11876674D02*
X1027205Y-11924293D01*
X1027205Y-11924293D02*
X1017682Y-11962388D01*
X1017682Y-11962388D02*
X1008158Y-11981436D01*
X1008158Y-11981436D02*
X998634Y-11990960D01*
X998634Y-11990960D02*
X979586Y-12000484D01*
X979586Y-12000484D02*
X960539Y-12000484D01*
X960539Y-12000484D02*
X941491Y-11990960D01*
X941491Y-11990960D02*
X931967Y-11981436D01*
X931967Y-11981436D02*
X922443Y-11962388D01*
X922443Y-11962388D02*
X912920Y-11924293D01*
X912920Y-11924293D02*
X912920Y-11876674D01*
X912920Y-11876674D02*
X922443Y-11838579D01*
X922443Y-11838579D02*
X931967Y-11819531D01*
X931967Y-11819531D02*
X941491Y-11810008D01*
X941491Y-11810008D02*
X960539Y-11800484D01*
X1112920Y-12000484D02*
X1112920Y-11867150D01*
X1112920Y-11886198D02*
X1122444Y-11876674D01*
X1122444Y-11876674D02*
X1141491Y-11867150D01*
X1141491Y-11867150D02*
X1170063Y-11867150D01*
X1170063Y-11867150D02*
X1189110Y-11876674D01*
X1189110Y-11876674D02*
X1198634Y-11895722D01*
X1198634Y-11895722D02*
X1198634Y-12000484D01*
X1198634Y-11895722D02*
X1208158Y-11876674D01*
X1208158Y-11876674D02*
X1227205Y-11867150D01*
X1227205Y-11867150D02*
X1255777Y-11867150D01*
X1255777Y-11867150D02*
X1274825Y-11876674D01*
X1274825Y-11876674D02*
X1284348Y-11895722D01*
X1284348Y-11895722D02*
X1284348Y-12000484D01*
X1379586Y-12000484D02*
X1379586Y-11867150D01*
X1379586Y-11886198D02*
X1389110Y-11876674D01*
X1389110Y-11876674D02*
X1408158Y-11867150D01*
X1408158Y-11867150D02*
X1436729Y-11867150D01*
X1436729Y-11867150D02*
X1455777Y-11876674D01*
X1455777Y-11876674D02*
X1465301Y-11895722D01*
X1465301Y-11895722D02*
X1465301Y-12000484D01*
X1465301Y-11895722D02*
X1474824Y-11876674D01*
X1474824Y-11876674D02*
X1493872Y-11867150D01*
X1493872Y-11867150D02*
X1522443Y-11867150D01*
X1522443Y-11867150D02*
X1541491Y-11876674D01*
X1541491Y-11876674D02*
X1551015Y-11895722D01*
X1551015Y-11895722D02*
X1551015Y-12000484D01*
X1941491Y-11790960D02*
X1770063Y-12048103D01*
X2198634Y-11800484D02*
X2217682Y-11800484D01*
X2217682Y-11800484D02*
X2236729Y-11810008D01*
X2236729Y-11810008D02*
X2246253Y-11819531D01*
X2246253Y-11819531D02*
X2255777Y-11838579D01*
X2255777Y-11838579D02*
X2265301Y-11876674D01*
X2265301Y-11876674D02*
X2265301Y-11924293D01*
X2265301Y-11924293D02*
X2255777Y-11962388D01*
X2255777Y-11962388D02*
X2246253Y-11981436D01*
X2246253Y-11981436D02*
X2236729Y-11990960D01*
X2236729Y-11990960D02*
X2217682Y-12000484D01*
X2217682Y-12000484D02*
X2198634Y-12000484D01*
X2198634Y-12000484D02*
X2179587Y-11990960D01*
X2179587Y-11990960D02*
X2170063Y-11981436D01*
X2170063Y-11981436D02*
X2160539Y-11962388D01*
X2160539Y-11962388D02*
X2151015Y-11924293D01*
X2151015Y-11924293D02*
X2151015Y-11876674D01*
X2151015Y-11876674D02*
X2160539Y-11838579D01*
X2160539Y-11838579D02*
X2170063Y-11819531D01*
X2170063Y-11819531D02*
X2179587Y-11810008D01*
X2179587Y-11810008D02*
X2198634Y-11800484D01*
X2351015Y-11981436D02*
X2360539Y-11990960D01*
X2360539Y-11990960D02*
X2351015Y-12000484D01*
X2351015Y-12000484D02*
X2341491Y-11990960D01*
X2341491Y-11990960D02*
X2351015Y-11981436D01*
X2351015Y-11981436D02*
X2351015Y-12000484D01*
X2484348Y-11800484D02*
X2503396Y-11800484D01*
X2503396Y-11800484D02*
X2522444Y-11810008D01*
X2522444Y-11810008D02*
X2531968Y-11819531D01*
X2531968Y-11819531D02*
X2541491Y-11838579D01*
X2541491Y-11838579D02*
X2551015Y-11876674D01*
X2551015Y-11876674D02*
X2551015Y-11924293D01*
X2551015Y-11924293D02*
X2541491Y-11962388D01*
X2541491Y-11962388D02*
X2531968Y-11981436D01*
X2531968Y-11981436D02*
X2522444Y-11990960D01*
X2522444Y-11990960D02*
X2503396Y-12000484D01*
X2503396Y-12000484D02*
X2484348Y-12000484D01*
X2484348Y-12000484D02*
X2465301Y-11990960D01*
X2465301Y-11990960D02*
X2455777Y-11981436D01*
X2455777Y-11981436D02*
X2446253Y-11962388D01*
X2446253Y-11962388D02*
X2436729Y-11924293D01*
X2436729Y-11924293D02*
X2436729Y-11876674D01*
X2436729Y-11876674D02*
X2446253Y-11838579D01*
X2446253Y-11838579D02*
X2455777Y-11819531D01*
X2455777Y-11819531D02*
X2465301Y-11810008D01*
X2465301Y-11810008D02*
X2484348Y-11800484D01*
X2617682Y-11800484D02*
X2741491Y-11800484D01*
X2741491Y-11800484D02*
X2674825Y-11876674D01*
X2674825Y-11876674D02*
X2703396Y-11876674D01*
X2703396Y-11876674D02*
X2722444Y-11886198D01*
X2722444Y-11886198D02*
X2731968Y-11895722D01*
X2731968Y-11895722D02*
X2741491Y-11914769D01*
X2741491Y-11914769D02*
X2741491Y-11962388D01*
X2741491Y-11962388D02*
X2731968Y-11981436D01*
X2731968Y-11981436D02*
X2722444Y-11990960D01*
X2722444Y-11990960D02*
X2703396Y-12000484D01*
X2703396Y-12000484D02*
X2646253Y-12000484D01*
X2646253Y-12000484D02*
X2627206Y-11990960D01*
X2627206Y-11990960D02*
X2617682Y-11981436D01*
X2808158Y-11800484D02*
X2941491Y-11800484D01*
X2941491Y-11800484D02*
X2855777Y-12000484D01*
X3103396Y-11867150D02*
X3103396Y-12000484D01*
X3055777Y-11790960D02*
X3008158Y-11933817D01*
X3008158Y-11933817D02*
X3131967Y-11933817D01*
X3198634Y-11800484D02*
X3198634Y-11838579D01*
X3274825Y-11800484D02*
X3274825Y-11838579D01*
X3570063Y-12076674D02*
X3560539Y-12067150D01*
X3560539Y-12067150D02*
X3541491Y-12038579D01*
X3541491Y-12038579D02*
X3531968Y-12019531D01*
X3531968Y-12019531D02*
X3522444Y-11990960D01*
X3522444Y-11990960D02*
X3512920Y-11943341D01*
X3512920Y-11943341D02*
X3512920Y-11905246D01*
X3512920Y-11905246D02*
X3522444Y-11857627D01*
X3522444Y-11857627D02*
X3531968Y-11829055D01*
X3531968Y-11829055D02*
X3541491Y-11810008D01*
X3541491Y-11810008D02*
X3560539Y-11781436D01*
X3560539Y-11781436D02*
X3570063Y-11771912D01*
X3751015Y-12000484D02*
X3636729Y-12000484D01*
X3693872Y-12000484D02*
X3693872Y-11800484D01*
X3693872Y-11800484D02*
X3674825Y-11829055D01*
X3674825Y-11829055D02*
X3655777Y-11848103D01*
X3655777Y-11848103D02*
X3636729Y-11857627D01*
X3827206Y-11819531D02*
X3836729Y-11810008D01*
X3836729Y-11810008D02*
X3855777Y-11800484D01*
X3855777Y-11800484D02*
X3903396Y-11800484D01*
X3903396Y-11800484D02*
X3922444Y-11810008D01*
X3922444Y-11810008D02*
X3931968Y-11819531D01*
X3931968Y-11819531D02*
X3941491Y-11838579D01*
X3941491Y-11838579D02*
X3941491Y-11857627D01*
X3941491Y-11857627D02*
X3931968Y-11886198D01*
X3931968Y-11886198D02*
X3817682Y-12000484D01*
X3817682Y-12000484D02*
X3941491Y-12000484D01*
X4179587Y-12000484D02*
X4179587Y-11800484D01*
X4265301Y-12000484D02*
X4265301Y-11895722D01*
X4265301Y-11895722D02*
X4255777Y-11876674D01*
X4255777Y-11876674D02*
X4236730Y-11867150D01*
X4236730Y-11867150D02*
X4208158Y-11867150D01*
X4208158Y-11867150D02*
X4189110Y-11876674D01*
X4189110Y-11876674D02*
X4179587Y-11886198D01*
X4389111Y-12000484D02*
X4370063Y-11990960D01*
X4370063Y-11990960D02*
X4360539Y-11981436D01*
X4360539Y-11981436D02*
X4351015Y-11962388D01*
X4351015Y-11962388D02*
X4351015Y-11905246D01*
X4351015Y-11905246D02*
X4360539Y-11886198D01*
X4360539Y-11886198D02*
X4370063Y-11876674D01*
X4370063Y-11876674D02*
X4389111Y-11867150D01*
X4389111Y-11867150D02*
X4417682Y-11867150D01*
X4417682Y-11867150D02*
X4436730Y-11876674D01*
X4436730Y-11876674D02*
X4446253Y-11886198D01*
X4446253Y-11886198D02*
X4455777Y-11905246D01*
X4455777Y-11905246D02*
X4455777Y-11962388D01*
X4455777Y-11962388D02*
X4446253Y-11981436D01*
X4446253Y-11981436D02*
X4436730Y-11990960D01*
X4436730Y-11990960D02*
X4417682Y-12000484D01*
X4417682Y-12000484D02*
X4389111Y-12000484D01*
X4570063Y-12000484D02*
X4551015Y-11990960D01*
X4551015Y-11990960D02*
X4541492Y-11971912D01*
X4541492Y-11971912D02*
X4541492Y-11800484D01*
X4722444Y-11990960D02*
X4703396Y-12000484D01*
X4703396Y-12000484D02*
X4665301Y-12000484D01*
X4665301Y-12000484D02*
X4646253Y-11990960D01*
X4646253Y-11990960D02*
X4636730Y-11971912D01*
X4636730Y-11971912D02*
X4636730Y-11895722D01*
X4636730Y-11895722D02*
X4646253Y-11876674D01*
X4646253Y-11876674D02*
X4665301Y-11867150D01*
X4665301Y-11867150D02*
X4703396Y-11867150D01*
X4703396Y-11867150D02*
X4722444Y-11876674D01*
X4722444Y-11876674D02*
X4731968Y-11895722D01*
X4731968Y-11895722D02*
X4731968Y-11914769D01*
X4731968Y-11914769D02*
X4636730Y-11933817D01*
X4808158Y-11990960D02*
X4827206Y-12000484D01*
X4827206Y-12000484D02*
X4865301Y-12000484D01*
X4865301Y-12000484D02*
X4884349Y-11990960D01*
X4884349Y-11990960D02*
X4893873Y-11971912D01*
X4893873Y-11971912D02*
X4893873Y-11962388D01*
X4893873Y-11962388D02*
X4884349Y-11943341D01*
X4884349Y-11943341D02*
X4865301Y-11933817D01*
X4865301Y-11933817D02*
X4836730Y-11933817D01*
X4836730Y-11933817D02*
X4817682Y-11924293D01*
X4817682Y-11924293D02*
X4808158Y-11905246D01*
X4808158Y-11905246D02*
X4808158Y-11895722D01*
X4808158Y-11895722D02*
X4817682Y-11876674D01*
X4817682Y-11876674D02*
X4836730Y-11867150D01*
X4836730Y-11867150D02*
X4865301Y-11867150D01*
X4865301Y-11867150D02*
X4884349Y-11876674D01*
X4960539Y-12076674D02*
X4970063Y-12067150D01*
X4970063Y-12067150D02*
X4989111Y-12038579D01*
X4989111Y-12038579D02*
X4998634Y-12019531D01*
X4998634Y-12019531D02*
X5008158Y-11990960D01*
X5008158Y-11990960D02*
X5017682Y-11943341D01*
X5017682Y-11943341D02*
X5017682Y-11905246D01*
X5017682Y-11905246D02*
X5008158Y-11857627D01*
X5008158Y-11857627D02*
X4998634Y-11829055D01*
X4998634Y-11829055D02*
X4989111Y-11810008D01*
X4989111Y-11810008D02*
X4970063Y-11781436D01*
X4970063Y-11781436D02*
X4960539Y-11771912D01*
D10*
X-55000Y-12123000D02*
X-55000Y-12223000D01*
X-105000Y-12173000D02*
X-5000Y-12173000D01*
D11*
X360539Y-12264484D02*
X246253Y-12264484D01*
X303396Y-12264484D02*
X303396Y-12064484D01*
X303396Y-12064484D02*
X284348Y-12093055D01*
X284348Y-12093055D02*
X265301Y-12112103D01*
X265301Y-12112103D02*
X246253Y-12121627D01*
X446253Y-12245436D02*
X455777Y-12254960D01*
X455777Y-12254960D02*
X446253Y-12264484D01*
X446253Y-12264484D02*
X436729Y-12254960D01*
X436729Y-12254960D02*
X446253Y-12245436D01*
X446253Y-12245436D02*
X446253Y-12264484D01*
X579586Y-12064484D02*
X598634Y-12064484D01*
X598634Y-12064484D02*
X617682Y-12074008D01*
X617682Y-12074008D02*
X627205Y-12083531D01*
X627205Y-12083531D02*
X636729Y-12102579D01*
X636729Y-12102579D02*
X646253Y-12140674D01*
X646253Y-12140674D02*
X646253Y-12188293D01*
X646253Y-12188293D02*
X636729Y-12226388D01*
X636729Y-12226388D02*
X627205Y-12245436D01*
X627205Y-12245436D02*
X617682Y-12254960D01*
X617682Y-12254960D02*
X598634Y-12264484D01*
X598634Y-12264484D02*
X579586Y-12264484D01*
X579586Y-12264484D02*
X560539Y-12254960D01*
X560539Y-12254960D02*
X551015Y-12245436D01*
X551015Y-12245436D02*
X541491Y-12226388D01*
X541491Y-12226388D02*
X531967Y-12188293D01*
X531967Y-12188293D02*
X531967Y-12140674D01*
X531967Y-12140674D02*
X541491Y-12102579D01*
X541491Y-12102579D02*
X551015Y-12083531D01*
X551015Y-12083531D02*
X560539Y-12074008D01*
X560539Y-12074008D02*
X579586Y-12064484D01*
X770062Y-12064484D02*
X789110Y-12064484D01*
X789110Y-12064484D02*
X808158Y-12074008D01*
X808158Y-12074008D02*
X817682Y-12083531D01*
X817682Y-12083531D02*
X827205Y-12102579D01*
X827205Y-12102579D02*
X836729Y-12140674D01*
X836729Y-12140674D02*
X836729Y-12188293D01*
X836729Y-12188293D02*
X827205Y-12226388D01*
X827205Y-12226388D02*
X817682Y-12245436D01*
X817682Y-12245436D02*
X808158Y-12254960D01*
X808158Y-12254960D02*
X789110Y-12264484D01*
X789110Y-12264484D02*
X770062Y-12264484D01*
X770062Y-12264484D02*
X751015Y-12254960D01*
X751015Y-12254960D02*
X741491Y-12245436D01*
X741491Y-12245436D02*
X731967Y-12226388D01*
X731967Y-12226388D02*
X722443Y-12188293D01*
X722443Y-12188293D02*
X722443Y-12140674D01*
X722443Y-12140674D02*
X731967Y-12102579D01*
X731967Y-12102579D02*
X741491Y-12083531D01*
X741491Y-12083531D02*
X751015Y-12074008D01*
X751015Y-12074008D02*
X770062Y-12064484D01*
X960539Y-12064484D02*
X979586Y-12064484D01*
X979586Y-12064484D02*
X998634Y-12074008D01*
X998634Y-12074008D02*
X1008158Y-12083531D01*
X1008158Y-12083531D02*
X1017682Y-12102579D01*
X1017682Y-12102579D02*
X1027205Y-12140674D01*
X1027205Y-12140674D02*
X1027205Y-12188293D01*
X1027205Y-12188293D02*
X1017682Y-12226388D01*
X1017682Y-12226388D02*
X1008158Y-12245436D01*
X1008158Y-12245436D02*
X998634Y-12254960D01*
X998634Y-12254960D02*
X979586Y-12264484D01*
X979586Y-12264484D02*
X960539Y-12264484D01*
X960539Y-12264484D02*
X941491Y-12254960D01*
X941491Y-12254960D02*
X931967Y-12245436D01*
X931967Y-12245436D02*
X922443Y-12226388D01*
X922443Y-12226388D02*
X912920Y-12188293D01*
X912920Y-12188293D02*
X912920Y-12140674D01*
X912920Y-12140674D02*
X922443Y-12102579D01*
X922443Y-12102579D02*
X931967Y-12083531D01*
X931967Y-12083531D02*
X941491Y-12074008D01*
X941491Y-12074008D02*
X960539Y-12064484D01*
X1112920Y-12264484D02*
X1112920Y-12131150D01*
X1112920Y-12150198D02*
X1122444Y-12140674D01*
X1122444Y-12140674D02*
X1141491Y-12131150D01*
X1141491Y-12131150D02*
X1170063Y-12131150D01*
X1170063Y-12131150D02*
X1189110Y-12140674D01*
X1189110Y-12140674D02*
X1198634Y-12159722D01*
X1198634Y-12159722D02*
X1198634Y-12264484D01*
X1198634Y-12159722D02*
X1208158Y-12140674D01*
X1208158Y-12140674D02*
X1227205Y-12131150D01*
X1227205Y-12131150D02*
X1255777Y-12131150D01*
X1255777Y-12131150D02*
X1274825Y-12140674D01*
X1274825Y-12140674D02*
X1284348Y-12159722D01*
X1284348Y-12159722D02*
X1284348Y-12264484D01*
X1379586Y-12264484D02*
X1379586Y-12131150D01*
X1379586Y-12150198D02*
X1389110Y-12140674D01*
X1389110Y-12140674D02*
X1408158Y-12131150D01*
X1408158Y-12131150D02*
X1436729Y-12131150D01*
X1436729Y-12131150D02*
X1455777Y-12140674D01*
X1455777Y-12140674D02*
X1465301Y-12159722D01*
X1465301Y-12159722D02*
X1465301Y-12264484D01*
X1465301Y-12159722D02*
X1474824Y-12140674D01*
X1474824Y-12140674D02*
X1493872Y-12131150D01*
X1493872Y-12131150D02*
X1522443Y-12131150D01*
X1522443Y-12131150D02*
X1541491Y-12140674D01*
X1541491Y-12140674D02*
X1551015Y-12159722D01*
X1551015Y-12159722D02*
X1551015Y-12264484D01*
X1941491Y-12054960D02*
X1770063Y-12312103D01*
X2198634Y-12064484D02*
X2217682Y-12064484D01*
X2217682Y-12064484D02*
X2236729Y-12074008D01*
X2236729Y-12074008D02*
X2246253Y-12083531D01*
X2246253Y-12083531D02*
X2255777Y-12102579D01*
X2255777Y-12102579D02*
X2265301Y-12140674D01*
X2265301Y-12140674D02*
X2265301Y-12188293D01*
X2265301Y-12188293D02*
X2255777Y-12226388D01*
X2255777Y-12226388D02*
X2246253Y-12245436D01*
X2246253Y-12245436D02*
X2236729Y-12254960D01*
X2236729Y-12254960D02*
X2217682Y-12264484D01*
X2217682Y-12264484D02*
X2198634Y-12264484D01*
X2198634Y-12264484D02*
X2179587Y-12254960D01*
X2179587Y-12254960D02*
X2170063Y-12245436D01*
X2170063Y-12245436D02*
X2160539Y-12226388D01*
X2160539Y-12226388D02*
X2151015Y-12188293D01*
X2151015Y-12188293D02*
X2151015Y-12140674D01*
X2151015Y-12140674D02*
X2160539Y-12102579D01*
X2160539Y-12102579D02*
X2170063Y-12083531D01*
X2170063Y-12083531D02*
X2179587Y-12074008D01*
X2179587Y-12074008D02*
X2198634Y-12064484D01*
X2351015Y-12245436D02*
X2360539Y-12254960D01*
X2360539Y-12254960D02*
X2351015Y-12264484D01*
X2351015Y-12264484D02*
X2341491Y-12254960D01*
X2341491Y-12254960D02*
X2351015Y-12245436D01*
X2351015Y-12245436D02*
X2351015Y-12264484D01*
X2484348Y-12064484D02*
X2503396Y-12064484D01*
X2503396Y-12064484D02*
X2522444Y-12074008D01*
X2522444Y-12074008D02*
X2531968Y-12083531D01*
X2531968Y-12083531D02*
X2541491Y-12102579D01*
X2541491Y-12102579D02*
X2551015Y-12140674D01*
X2551015Y-12140674D02*
X2551015Y-12188293D01*
X2551015Y-12188293D02*
X2541491Y-12226388D01*
X2541491Y-12226388D02*
X2531968Y-12245436D01*
X2531968Y-12245436D02*
X2522444Y-12254960D01*
X2522444Y-12254960D02*
X2503396Y-12264484D01*
X2503396Y-12264484D02*
X2484348Y-12264484D01*
X2484348Y-12264484D02*
X2465301Y-12254960D01*
X2465301Y-12254960D02*
X2455777Y-12245436D01*
X2455777Y-12245436D02*
X2446253Y-12226388D01*
X2446253Y-12226388D02*
X2436729Y-12188293D01*
X2436729Y-12188293D02*
X2436729Y-12140674D01*
X2436729Y-12140674D02*
X2446253Y-12102579D01*
X2446253Y-12102579D02*
X2455777Y-12083531D01*
X2455777Y-12083531D02*
X2465301Y-12074008D01*
X2465301Y-12074008D02*
X2484348Y-12064484D01*
X2617682Y-12064484D02*
X2741491Y-12064484D01*
X2741491Y-12064484D02*
X2674825Y-12140674D01*
X2674825Y-12140674D02*
X2703396Y-12140674D01*
X2703396Y-12140674D02*
X2722444Y-12150198D01*
X2722444Y-12150198D02*
X2731968Y-12159722D01*
X2731968Y-12159722D02*
X2741491Y-12178769D01*
X2741491Y-12178769D02*
X2741491Y-12226388D01*
X2741491Y-12226388D02*
X2731968Y-12245436D01*
X2731968Y-12245436D02*
X2722444Y-12254960D01*
X2722444Y-12254960D02*
X2703396Y-12264484D01*
X2703396Y-12264484D02*
X2646253Y-12264484D01*
X2646253Y-12264484D02*
X2627206Y-12254960D01*
X2627206Y-12254960D02*
X2617682Y-12245436D01*
X2836729Y-12264484D02*
X2874825Y-12264484D01*
X2874825Y-12264484D02*
X2893872Y-12254960D01*
X2893872Y-12254960D02*
X2903396Y-12245436D01*
X2903396Y-12245436D02*
X2922444Y-12216865D01*
X2922444Y-12216865D02*
X2931967Y-12178769D01*
X2931967Y-12178769D02*
X2931967Y-12102579D01*
X2931967Y-12102579D02*
X2922444Y-12083531D01*
X2922444Y-12083531D02*
X2912920Y-12074008D01*
X2912920Y-12074008D02*
X2893872Y-12064484D01*
X2893872Y-12064484D02*
X2855777Y-12064484D01*
X2855777Y-12064484D02*
X2836729Y-12074008D01*
X2836729Y-12074008D02*
X2827206Y-12083531D01*
X2827206Y-12083531D02*
X2817682Y-12102579D01*
X2817682Y-12102579D02*
X2817682Y-12150198D01*
X2817682Y-12150198D02*
X2827206Y-12169246D01*
X2827206Y-12169246D02*
X2836729Y-12178769D01*
X2836729Y-12178769D02*
X2855777Y-12188293D01*
X2855777Y-12188293D02*
X2893872Y-12188293D01*
X2893872Y-12188293D02*
X2912920Y-12178769D01*
X2912920Y-12178769D02*
X2922444Y-12169246D01*
X2922444Y-12169246D02*
X2931967Y-12150198D01*
X3103396Y-12131150D02*
X3103396Y-12264484D01*
X3055777Y-12054960D02*
X3008158Y-12197817D01*
X3008158Y-12197817D02*
X3131967Y-12197817D01*
X3198634Y-12064484D02*
X3198634Y-12102579D01*
X3274825Y-12064484D02*
X3274825Y-12102579D01*
X3570063Y-12340674D02*
X3560539Y-12331150D01*
X3560539Y-12331150D02*
X3541491Y-12302579D01*
X3541491Y-12302579D02*
X3531968Y-12283531D01*
X3531968Y-12283531D02*
X3522444Y-12254960D01*
X3522444Y-12254960D02*
X3512920Y-12207341D01*
X3512920Y-12207341D02*
X3512920Y-12169246D01*
X3512920Y-12169246D02*
X3522444Y-12121627D01*
X3522444Y-12121627D02*
X3531968Y-12093055D01*
X3531968Y-12093055D02*
X3541491Y-12074008D01*
X3541491Y-12074008D02*
X3560539Y-12045436D01*
X3560539Y-12045436D02*
X3570063Y-12035912D01*
X3636729Y-12083531D02*
X3646253Y-12074008D01*
X3646253Y-12074008D02*
X3665301Y-12064484D01*
X3665301Y-12064484D02*
X3712920Y-12064484D01*
X3712920Y-12064484D02*
X3731968Y-12074008D01*
X3731968Y-12074008D02*
X3741491Y-12083531D01*
X3741491Y-12083531D02*
X3751015Y-12102579D01*
X3751015Y-12102579D02*
X3751015Y-12121627D01*
X3751015Y-12121627D02*
X3741491Y-12150198D01*
X3741491Y-12150198D02*
X3627206Y-12264484D01*
X3627206Y-12264484D02*
X3751015Y-12264484D01*
X3922444Y-12131150D02*
X3922444Y-12264484D01*
X3874825Y-12054960D02*
X3827206Y-12197817D01*
X3827206Y-12197817D02*
X3951015Y-12197817D01*
X4179587Y-12264484D02*
X4179587Y-12064484D01*
X4265301Y-12264484D02*
X4265301Y-12159722D01*
X4265301Y-12159722D02*
X4255777Y-12140674D01*
X4255777Y-12140674D02*
X4236730Y-12131150D01*
X4236730Y-12131150D02*
X4208158Y-12131150D01*
X4208158Y-12131150D02*
X4189110Y-12140674D01*
X4189110Y-12140674D02*
X4179587Y-12150198D01*
X4389111Y-12264484D02*
X4370063Y-12254960D01*
X4370063Y-12254960D02*
X4360539Y-12245436D01*
X4360539Y-12245436D02*
X4351015Y-12226388D01*
X4351015Y-12226388D02*
X4351015Y-12169246D01*
X4351015Y-12169246D02*
X4360539Y-12150198D01*
X4360539Y-12150198D02*
X4370063Y-12140674D01*
X4370063Y-12140674D02*
X4389111Y-12131150D01*
X4389111Y-12131150D02*
X4417682Y-12131150D01*
X4417682Y-12131150D02*
X4436730Y-12140674D01*
X4436730Y-12140674D02*
X4446253Y-12150198D01*
X4446253Y-12150198D02*
X4455777Y-12169246D01*
X4455777Y-12169246D02*
X4455777Y-12226388D01*
X4455777Y-12226388D02*
X4446253Y-12245436D01*
X4446253Y-12245436D02*
X4436730Y-12254960D01*
X4436730Y-12254960D02*
X4417682Y-12264484D01*
X4417682Y-12264484D02*
X4389111Y-12264484D01*
X4570063Y-12264484D02*
X4551015Y-12254960D01*
X4551015Y-12254960D02*
X4541492Y-12235912D01*
X4541492Y-12235912D02*
X4541492Y-12064484D01*
X4722444Y-12254960D02*
X4703396Y-12264484D01*
X4703396Y-12264484D02*
X4665301Y-12264484D01*
X4665301Y-12264484D02*
X4646253Y-12254960D01*
X4646253Y-12254960D02*
X4636730Y-12235912D01*
X4636730Y-12235912D02*
X4636730Y-12159722D01*
X4636730Y-12159722D02*
X4646253Y-12140674D01*
X4646253Y-12140674D02*
X4665301Y-12131150D01*
X4665301Y-12131150D02*
X4703396Y-12131150D01*
X4703396Y-12131150D02*
X4722444Y-12140674D01*
X4722444Y-12140674D02*
X4731968Y-12159722D01*
X4731968Y-12159722D02*
X4731968Y-12178769D01*
X4731968Y-12178769D02*
X4636730Y-12197817D01*
X4808158Y-12254960D02*
X4827206Y-12264484D01*
X4827206Y-12264484D02*
X4865301Y-12264484D01*
X4865301Y-12264484D02*
X4884349Y-12254960D01*
X4884349Y-12254960D02*
X4893873Y-12235912D01*
X4893873Y-12235912D02*
X4893873Y-12226388D01*
X4893873Y-12226388D02*
X4884349Y-12207341D01*
X4884349Y-12207341D02*
X4865301Y-12197817D01*
X4865301Y-12197817D02*
X4836730Y-12197817D01*
X4836730Y-12197817D02*
X4817682Y-12188293D01*
X4817682Y-12188293D02*
X4808158Y-12169246D01*
X4808158Y-12169246D02*
X4808158Y-12159722D01*
X4808158Y-12159722D02*
X4817682Y-12140674D01*
X4817682Y-12140674D02*
X4836730Y-12131150D01*
X4836730Y-12131150D02*
X4865301Y-12131150D01*
X4865301Y-12131150D02*
X4884349Y-12140674D01*
X4960539Y-12340674D02*
X4970063Y-12331150D01*
X4970063Y-12331150D02*
X4989111Y-12302579D01*
X4989111Y-12302579D02*
X4998634Y-12283531D01*
X4998634Y-12283531D02*
X5008158Y-12254960D01*
X5008158Y-12254960D02*
X5017682Y-12207341D01*
X5017682Y-12207341D02*
X5017682Y-12169246D01*
X5017682Y-12169246D02*
X5008158Y-12121627D01*
X5008158Y-12121627D02*
X4998634Y-12093055D01*
X4998634Y-12093055D02*
X4989111Y-12074008D01*
X4989111Y-12074008D02*
X4970063Y-12045436D01*
X4970063Y-12045436D02*
X4960539Y-12035912D01*
D12*
X-29895Y-12497105D02*
X-29895Y-12376895D01*
X-150105Y-12376895D01*
X-150105Y-12497105D01*
X-29895Y-12497105D01*
D11*
X360539Y-12528484D02*
X246253Y-12528484D01*
X303396Y-12528484D02*
X303396Y-12328484D01*
X303396Y-12328484D02*
X284348Y-12357055D01*
X284348Y-12357055D02*
X265301Y-12376103D01*
X265301Y-12376103D02*
X246253Y-12385627D01*
X446253Y-12509436D02*
X455777Y-12518960D01*
X455777Y-12518960D02*
X446253Y-12528484D01*
X446253Y-12528484D02*
X436729Y-12518960D01*
X436729Y-12518960D02*
X446253Y-12509436D01*
X446253Y-12509436D02*
X446253Y-12528484D01*
X522443Y-12328484D02*
X655777Y-12328484D01*
X655777Y-12328484D02*
X570063Y-12528484D01*
X770062Y-12328484D02*
X789110Y-12328484D01*
X789110Y-12328484D02*
X808158Y-12338008D01*
X808158Y-12338008D02*
X817682Y-12347531D01*
X817682Y-12347531D02*
X827205Y-12366579D01*
X827205Y-12366579D02*
X836729Y-12404674D01*
X836729Y-12404674D02*
X836729Y-12452293D01*
X836729Y-12452293D02*
X827205Y-12490388D01*
X827205Y-12490388D02*
X817682Y-12509436D01*
X817682Y-12509436D02*
X808158Y-12518960D01*
X808158Y-12518960D02*
X789110Y-12528484D01*
X789110Y-12528484D02*
X770062Y-12528484D01*
X770062Y-12528484D02*
X751015Y-12518960D01*
X751015Y-12518960D02*
X741491Y-12509436D01*
X741491Y-12509436D02*
X731967Y-12490388D01*
X731967Y-12490388D02*
X722443Y-12452293D01*
X722443Y-12452293D02*
X722443Y-12404674D01*
X722443Y-12404674D02*
X731967Y-12366579D01*
X731967Y-12366579D02*
X741491Y-12347531D01*
X741491Y-12347531D02*
X751015Y-12338008D01*
X751015Y-12338008D02*
X770062Y-12328484D01*
X960539Y-12328484D02*
X979586Y-12328484D01*
X979586Y-12328484D02*
X998634Y-12338008D01*
X998634Y-12338008D02*
X1008158Y-12347531D01*
X1008158Y-12347531D02*
X1017682Y-12366579D01*
X1017682Y-12366579D02*
X1027205Y-12404674D01*
X1027205Y-12404674D02*
X1027205Y-12452293D01*
X1027205Y-12452293D02*
X1017682Y-12490388D01*
X1017682Y-12490388D02*
X1008158Y-12509436D01*
X1008158Y-12509436D02*
X998634Y-12518960D01*
X998634Y-12518960D02*
X979586Y-12528484D01*
X979586Y-12528484D02*
X960539Y-12528484D01*
X960539Y-12528484D02*
X941491Y-12518960D01*
X941491Y-12518960D02*
X931967Y-12509436D01*
X931967Y-12509436D02*
X922443Y-12490388D01*
X922443Y-12490388D02*
X912920Y-12452293D01*
X912920Y-12452293D02*
X912920Y-12404674D01*
X912920Y-12404674D02*
X922443Y-12366579D01*
X922443Y-12366579D02*
X931967Y-12347531D01*
X931967Y-12347531D02*
X941491Y-12338008D01*
X941491Y-12338008D02*
X960539Y-12328484D01*
X1112920Y-12528484D02*
X1112920Y-12395150D01*
X1112920Y-12414198D02*
X1122444Y-12404674D01*
X1122444Y-12404674D02*
X1141491Y-12395150D01*
X1141491Y-12395150D02*
X1170063Y-12395150D01*
X1170063Y-12395150D02*
X1189110Y-12404674D01*
X1189110Y-12404674D02*
X1198634Y-12423722D01*
X1198634Y-12423722D02*
X1198634Y-12528484D01*
X1198634Y-12423722D02*
X1208158Y-12404674D01*
X1208158Y-12404674D02*
X1227205Y-12395150D01*
X1227205Y-12395150D02*
X1255777Y-12395150D01*
X1255777Y-12395150D02*
X1274825Y-12404674D01*
X1274825Y-12404674D02*
X1284348Y-12423722D01*
X1284348Y-12423722D02*
X1284348Y-12528484D01*
X1379586Y-12528484D02*
X1379586Y-12395150D01*
X1379586Y-12414198D02*
X1389110Y-12404674D01*
X1389110Y-12404674D02*
X1408158Y-12395150D01*
X1408158Y-12395150D02*
X1436729Y-12395150D01*
X1436729Y-12395150D02*
X1455777Y-12404674D01*
X1455777Y-12404674D02*
X1465301Y-12423722D01*
X1465301Y-12423722D02*
X1465301Y-12528484D01*
X1465301Y-12423722D02*
X1474824Y-12404674D01*
X1474824Y-12404674D02*
X1493872Y-12395150D01*
X1493872Y-12395150D02*
X1522443Y-12395150D01*
X1522443Y-12395150D02*
X1541491Y-12404674D01*
X1541491Y-12404674D02*
X1551015Y-12423722D01*
X1551015Y-12423722D02*
X1551015Y-12528484D01*
X1941491Y-12318960D02*
X1770063Y-12576103D01*
X2198634Y-12328484D02*
X2217682Y-12328484D01*
X2217682Y-12328484D02*
X2236729Y-12338008D01*
X2236729Y-12338008D02*
X2246253Y-12347531D01*
X2246253Y-12347531D02*
X2255777Y-12366579D01*
X2255777Y-12366579D02*
X2265301Y-12404674D01*
X2265301Y-12404674D02*
X2265301Y-12452293D01*
X2265301Y-12452293D02*
X2255777Y-12490388D01*
X2255777Y-12490388D02*
X2246253Y-12509436D01*
X2246253Y-12509436D02*
X2236729Y-12518960D01*
X2236729Y-12518960D02*
X2217682Y-12528484D01*
X2217682Y-12528484D02*
X2198634Y-12528484D01*
X2198634Y-12528484D02*
X2179587Y-12518960D01*
X2179587Y-12518960D02*
X2170063Y-12509436D01*
X2170063Y-12509436D02*
X2160539Y-12490388D01*
X2160539Y-12490388D02*
X2151015Y-12452293D01*
X2151015Y-12452293D02*
X2151015Y-12404674D01*
X2151015Y-12404674D02*
X2160539Y-12366579D01*
X2160539Y-12366579D02*
X2170063Y-12347531D01*
X2170063Y-12347531D02*
X2179587Y-12338008D01*
X2179587Y-12338008D02*
X2198634Y-12328484D01*
X2351015Y-12509436D02*
X2360539Y-12518960D01*
X2360539Y-12518960D02*
X2351015Y-12528484D01*
X2351015Y-12528484D02*
X2341491Y-12518960D01*
X2341491Y-12518960D02*
X2351015Y-12509436D01*
X2351015Y-12509436D02*
X2351015Y-12528484D01*
X2484348Y-12328484D02*
X2503396Y-12328484D01*
X2503396Y-12328484D02*
X2522444Y-12338008D01*
X2522444Y-12338008D02*
X2531968Y-12347531D01*
X2531968Y-12347531D02*
X2541491Y-12366579D01*
X2541491Y-12366579D02*
X2551015Y-12404674D01*
X2551015Y-12404674D02*
X2551015Y-12452293D01*
X2551015Y-12452293D02*
X2541491Y-12490388D01*
X2541491Y-12490388D02*
X2531968Y-12509436D01*
X2531968Y-12509436D02*
X2522444Y-12518960D01*
X2522444Y-12518960D02*
X2503396Y-12528484D01*
X2503396Y-12528484D02*
X2484348Y-12528484D01*
X2484348Y-12528484D02*
X2465301Y-12518960D01*
X2465301Y-12518960D02*
X2455777Y-12509436D01*
X2455777Y-12509436D02*
X2446253Y-12490388D01*
X2446253Y-12490388D02*
X2436729Y-12452293D01*
X2436729Y-12452293D02*
X2436729Y-12404674D01*
X2436729Y-12404674D02*
X2446253Y-12366579D01*
X2446253Y-12366579D02*
X2455777Y-12347531D01*
X2455777Y-12347531D02*
X2465301Y-12338008D01*
X2465301Y-12338008D02*
X2484348Y-12328484D01*
X2722444Y-12328484D02*
X2684348Y-12328484D01*
X2684348Y-12328484D02*
X2665301Y-12338008D01*
X2665301Y-12338008D02*
X2655777Y-12347531D01*
X2655777Y-12347531D02*
X2636729Y-12376103D01*
X2636729Y-12376103D02*
X2627206Y-12414198D01*
X2627206Y-12414198D02*
X2627206Y-12490388D01*
X2627206Y-12490388D02*
X2636729Y-12509436D01*
X2636729Y-12509436D02*
X2646253Y-12518960D01*
X2646253Y-12518960D02*
X2665301Y-12528484D01*
X2665301Y-12528484D02*
X2703396Y-12528484D01*
X2703396Y-12528484D02*
X2722444Y-12518960D01*
X2722444Y-12518960D02*
X2731968Y-12509436D01*
X2731968Y-12509436D02*
X2741491Y-12490388D01*
X2741491Y-12490388D02*
X2741491Y-12442769D01*
X2741491Y-12442769D02*
X2731968Y-12423722D01*
X2731968Y-12423722D02*
X2722444Y-12414198D01*
X2722444Y-12414198D02*
X2703396Y-12404674D01*
X2703396Y-12404674D02*
X2665301Y-12404674D01*
X2665301Y-12404674D02*
X2646253Y-12414198D01*
X2646253Y-12414198D02*
X2636729Y-12423722D01*
X2636729Y-12423722D02*
X2627206Y-12442769D01*
X2912920Y-12328484D02*
X2874825Y-12328484D01*
X2874825Y-12328484D02*
X2855777Y-12338008D01*
X2855777Y-12338008D02*
X2846253Y-12347531D01*
X2846253Y-12347531D02*
X2827206Y-12376103D01*
X2827206Y-12376103D02*
X2817682Y-12414198D01*
X2817682Y-12414198D02*
X2817682Y-12490388D01*
X2817682Y-12490388D02*
X2827206Y-12509436D01*
X2827206Y-12509436D02*
X2836729Y-12518960D01*
X2836729Y-12518960D02*
X2855777Y-12528484D01*
X2855777Y-12528484D02*
X2893872Y-12528484D01*
X2893872Y-12528484D02*
X2912920Y-12518960D01*
X2912920Y-12518960D02*
X2922444Y-12509436D01*
X2922444Y-12509436D02*
X2931967Y-12490388D01*
X2931967Y-12490388D02*
X2931967Y-12442769D01*
X2931967Y-12442769D02*
X2922444Y-12423722D01*
X2922444Y-12423722D02*
X2912920Y-12414198D01*
X2912920Y-12414198D02*
X2893872Y-12404674D01*
X2893872Y-12404674D02*
X2855777Y-12404674D01*
X2855777Y-12404674D02*
X2836729Y-12414198D01*
X2836729Y-12414198D02*
X2827206Y-12423722D01*
X2827206Y-12423722D02*
X2817682Y-12442769D01*
X3027206Y-12528484D02*
X3065301Y-12528484D01*
X3065301Y-12528484D02*
X3084348Y-12518960D01*
X3084348Y-12518960D02*
X3093872Y-12509436D01*
X3093872Y-12509436D02*
X3112920Y-12480865D01*
X3112920Y-12480865D02*
X3122444Y-12442769D01*
X3122444Y-12442769D02*
X3122444Y-12366579D01*
X3122444Y-12366579D02*
X3112920Y-12347531D01*
X3112920Y-12347531D02*
X3103396Y-12338008D01*
X3103396Y-12338008D02*
X3084348Y-12328484D01*
X3084348Y-12328484D02*
X3046253Y-12328484D01*
X3046253Y-12328484D02*
X3027206Y-12338008D01*
X3027206Y-12338008D02*
X3017682Y-12347531D01*
X3017682Y-12347531D02*
X3008158Y-12366579D01*
X3008158Y-12366579D02*
X3008158Y-12414198D01*
X3008158Y-12414198D02*
X3017682Y-12433246D01*
X3017682Y-12433246D02*
X3027206Y-12442769D01*
X3027206Y-12442769D02*
X3046253Y-12452293D01*
X3046253Y-12452293D02*
X3084348Y-12452293D01*
X3084348Y-12452293D02*
X3103396Y-12442769D01*
X3103396Y-12442769D02*
X3112920Y-12433246D01*
X3112920Y-12433246D02*
X3122444Y-12414198D01*
X3198634Y-12328484D02*
X3198634Y-12366579D01*
X3274825Y-12328484D02*
X3274825Y-12366579D01*
X3570063Y-12604674D02*
X3560539Y-12595150D01*
X3560539Y-12595150D02*
X3541491Y-12566579D01*
X3541491Y-12566579D02*
X3531968Y-12547531D01*
X3531968Y-12547531D02*
X3522444Y-12518960D01*
X3522444Y-12518960D02*
X3512920Y-12471341D01*
X3512920Y-12471341D02*
X3512920Y-12433246D01*
X3512920Y-12433246D02*
X3522444Y-12385627D01*
X3522444Y-12385627D02*
X3531968Y-12357055D01*
X3531968Y-12357055D02*
X3541491Y-12338008D01*
X3541491Y-12338008D02*
X3560539Y-12309436D01*
X3560539Y-12309436D02*
X3570063Y-12299912D01*
X3627206Y-12328484D02*
X3751015Y-12328484D01*
X3751015Y-12328484D02*
X3684348Y-12404674D01*
X3684348Y-12404674D02*
X3712920Y-12404674D01*
X3712920Y-12404674D02*
X3731968Y-12414198D01*
X3731968Y-12414198D02*
X3741491Y-12423722D01*
X3741491Y-12423722D02*
X3751015Y-12442769D01*
X3751015Y-12442769D02*
X3751015Y-12490388D01*
X3751015Y-12490388D02*
X3741491Y-12509436D01*
X3741491Y-12509436D02*
X3731968Y-12518960D01*
X3731968Y-12518960D02*
X3712920Y-12528484D01*
X3712920Y-12528484D02*
X3655777Y-12528484D01*
X3655777Y-12528484D02*
X3636729Y-12518960D01*
X3636729Y-12518960D02*
X3627206Y-12509436D01*
X3989110Y-12528484D02*
X3989110Y-12328484D01*
X4074825Y-12528484D02*
X4074825Y-12423722D01*
X4074825Y-12423722D02*
X4065301Y-12404674D01*
X4065301Y-12404674D02*
X4046253Y-12395150D01*
X4046253Y-12395150D02*
X4017682Y-12395150D01*
X4017682Y-12395150D02*
X3998634Y-12404674D01*
X3998634Y-12404674D02*
X3989110Y-12414198D01*
X4198634Y-12528484D02*
X4179587Y-12518960D01*
X4179587Y-12518960D02*
X4170063Y-12509436D01*
X4170063Y-12509436D02*
X4160539Y-12490388D01*
X4160539Y-12490388D02*
X4160539Y-12433246D01*
X4160539Y-12433246D02*
X4170063Y-12414198D01*
X4170063Y-12414198D02*
X4179587Y-12404674D01*
X4179587Y-12404674D02*
X4198634Y-12395150D01*
X4198634Y-12395150D02*
X4227206Y-12395150D01*
X4227206Y-12395150D02*
X4246253Y-12404674D01*
X4246253Y-12404674D02*
X4255777Y-12414198D01*
X4255777Y-12414198D02*
X4265301Y-12433246D01*
X4265301Y-12433246D02*
X4265301Y-12490388D01*
X4265301Y-12490388D02*
X4255777Y-12509436D01*
X4255777Y-12509436D02*
X4246253Y-12518960D01*
X4246253Y-12518960D02*
X4227206Y-12528484D01*
X4227206Y-12528484D02*
X4198634Y-12528484D01*
X4379587Y-12528484D02*
X4360539Y-12518960D01*
X4360539Y-12518960D02*
X4351015Y-12499912D01*
X4351015Y-12499912D02*
X4351015Y-12328484D01*
X4531968Y-12518960D02*
X4512920Y-12528484D01*
X4512920Y-12528484D02*
X4474825Y-12528484D01*
X4474825Y-12528484D02*
X4455777Y-12518960D01*
X4455777Y-12518960D02*
X4446253Y-12499912D01*
X4446253Y-12499912D02*
X4446253Y-12423722D01*
X4446253Y-12423722D02*
X4455777Y-12404674D01*
X4455777Y-12404674D02*
X4474825Y-12395150D01*
X4474825Y-12395150D02*
X4512920Y-12395150D01*
X4512920Y-12395150D02*
X4531968Y-12404674D01*
X4531968Y-12404674D02*
X4541492Y-12423722D01*
X4541492Y-12423722D02*
X4541492Y-12442769D01*
X4541492Y-12442769D02*
X4446253Y-12461817D01*
X4617682Y-12518960D02*
X4636730Y-12528484D01*
X4636730Y-12528484D02*
X4674825Y-12528484D01*
X4674825Y-12528484D02*
X4693873Y-12518960D01*
X4693873Y-12518960D02*
X4703396Y-12499912D01*
X4703396Y-12499912D02*
X4703396Y-12490388D01*
X4703396Y-12490388D02*
X4693873Y-12471341D01*
X4693873Y-12471341D02*
X4674825Y-12461817D01*
X4674825Y-12461817D02*
X4646253Y-12461817D01*
X4646253Y-12461817D02*
X4627206Y-12452293D01*
X4627206Y-12452293D02*
X4617682Y-12433246D01*
X4617682Y-12433246D02*
X4617682Y-12423722D01*
X4617682Y-12423722D02*
X4627206Y-12404674D01*
X4627206Y-12404674D02*
X4646253Y-12395150D01*
X4646253Y-12395150D02*
X4674825Y-12395150D01*
X4674825Y-12395150D02*
X4693873Y-12404674D01*
X4770063Y-12604674D02*
X4779587Y-12595150D01*
X4779587Y-12595150D02*
X4798634Y-12566579D01*
X4798634Y-12566579D02*
X4808158Y-12547531D01*
X4808158Y-12547531D02*
X4817682Y-12518960D01*
X4817682Y-12518960D02*
X4827206Y-12471341D01*
X4827206Y-12471341D02*
X4827206Y-12433246D01*
X4827206Y-12433246D02*
X4817682Y-12385627D01*
X4817682Y-12385627D02*
X4808158Y-12357055D01*
X4808158Y-12357055D02*
X4798634Y-12338008D01*
X4798634Y-12338008D02*
X4779587Y-12309436D01*
X4779587Y-12309436D02*
X4770063Y-12299912D01*
X-105000Y-12827000D02*
X-5000Y-12727000D01*
X-105000Y-12627000D01*
X-205000Y-12727000D01*
X-105000Y-12827000D01*
X246253Y-12637531D02*
X255777Y-12628008D01*
X255777Y-12628008D02*
X274824Y-12618484D01*
X274824Y-12618484D02*
X322444Y-12618484D01*
X322444Y-12618484D02*
X341491Y-12628008D01*
X341491Y-12628008D02*
X351015Y-12637531D01*
X351015Y-12637531D02*
X360539Y-12656579D01*
X360539Y-12656579D02*
X360539Y-12675627D01*
X360539Y-12675627D02*
X351015Y-12704198D01*
X351015Y-12704198D02*
X236729Y-12818484D01*
X236729Y-12818484D02*
X360539Y-12818484D01*
X446253Y-12799436D02*
X455777Y-12808960D01*
X455777Y-12808960D02*
X446253Y-12818484D01*
X446253Y-12818484D02*
X436729Y-12808960D01*
X436729Y-12808960D02*
X446253Y-12799436D01*
X446253Y-12799436D02*
X446253Y-12818484D01*
X627205Y-12618484D02*
X589110Y-12618484D01*
X589110Y-12618484D02*
X570063Y-12628008D01*
X570063Y-12628008D02*
X560539Y-12637531D01*
X560539Y-12637531D02*
X541491Y-12666103D01*
X541491Y-12666103D02*
X531967Y-12704198D01*
X531967Y-12704198D02*
X531967Y-12780388D01*
X531967Y-12780388D02*
X541491Y-12799436D01*
X541491Y-12799436D02*
X551015Y-12808960D01*
X551015Y-12808960D02*
X570063Y-12818484D01*
X570063Y-12818484D02*
X608158Y-12818484D01*
X608158Y-12818484D02*
X627205Y-12808960D01*
X627205Y-12808960D02*
X636729Y-12799436D01*
X636729Y-12799436D02*
X646253Y-12780388D01*
X646253Y-12780388D02*
X646253Y-12732769D01*
X646253Y-12732769D02*
X636729Y-12713722D01*
X636729Y-12713722D02*
X627205Y-12704198D01*
X627205Y-12704198D02*
X608158Y-12694674D01*
X608158Y-12694674D02*
X570063Y-12694674D01*
X570063Y-12694674D02*
X551015Y-12704198D01*
X551015Y-12704198D02*
X541491Y-12713722D01*
X541491Y-12713722D02*
X531967Y-12732769D01*
X741491Y-12818484D02*
X779586Y-12818484D01*
X779586Y-12818484D02*
X798634Y-12808960D01*
X798634Y-12808960D02*
X808158Y-12799436D01*
X808158Y-12799436D02*
X827205Y-12770865D01*
X827205Y-12770865D02*
X836729Y-12732769D01*
X836729Y-12732769D02*
X836729Y-12656579D01*
X836729Y-12656579D02*
X827205Y-12637531D01*
X827205Y-12637531D02*
X817682Y-12628008D01*
X817682Y-12628008D02*
X798634Y-12618484D01*
X798634Y-12618484D02*
X760539Y-12618484D01*
X760539Y-12618484D02*
X741491Y-12628008D01*
X741491Y-12628008D02*
X731967Y-12637531D01*
X731967Y-12637531D02*
X722443Y-12656579D01*
X722443Y-12656579D02*
X722443Y-12704198D01*
X722443Y-12704198D02*
X731967Y-12723246D01*
X731967Y-12723246D02*
X741491Y-12732769D01*
X741491Y-12732769D02*
X760539Y-12742293D01*
X760539Y-12742293D02*
X798634Y-12742293D01*
X798634Y-12742293D02*
X817682Y-12732769D01*
X817682Y-12732769D02*
X827205Y-12723246D01*
X827205Y-12723246D02*
X836729Y-12704198D01*
X903396Y-12618484D02*
X1027205Y-12618484D01*
X1027205Y-12618484D02*
X960539Y-12694674D01*
X960539Y-12694674D02*
X989110Y-12694674D01*
X989110Y-12694674D02*
X1008158Y-12704198D01*
X1008158Y-12704198D02*
X1017682Y-12713722D01*
X1017682Y-12713722D02*
X1027205Y-12732769D01*
X1027205Y-12732769D02*
X1027205Y-12780388D01*
X1027205Y-12780388D02*
X1017682Y-12799436D01*
X1017682Y-12799436D02*
X1008158Y-12808960D01*
X1008158Y-12808960D02*
X989110Y-12818484D01*
X989110Y-12818484D02*
X931967Y-12818484D01*
X931967Y-12818484D02*
X912920Y-12808960D01*
X912920Y-12808960D02*
X903396Y-12799436D01*
X1112920Y-12818484D02*
X1112920Y-12685150D01*
X1112920Y-12704198D02*
X1122444Y-12694674D01*
X1122444Y-12694674D02*
X1141491Y-12685150D01*
X1141491Y-12685150D02*
X1170063Y-12685150D01*
X1170063Y-12685150D02*
X1189110Y-12694674D01*
X1189110Y-12694674D02*
X1198634Y-12713722D01*
X1198634Y-12713722D02*
X1198634Y-12818484D01*
X1198634Y-12713722D02*
X1208158Y-12694674D01*
X1208158Y-12694674D02*
X1227205Y-12685150D01*
X1227205Y-12685150D02*
X1255777Y-12685150D01*
X1255777Y-12685150D02*
X1274825Y-12694674D01*
X1274825Y-12694674D02*
X1284348Y-12713722D01*
X1284348Y-12713722D02*
X1284348Y-12818484D01*
X1379586Y-12818484D02*
X1379586Y-12685150D01*
X1379586Y-12704198D02*
X1389110Y-12694674D01*
X1389110Y-12694674D02*
X1408158Y-12685150D01*
X1408158Y-12685150D02*
X1436729Y-12685150D01*
X1436729Y-12685150D02*
X1455777Y-12694674D01*
X1455777Y-12694674D02*
X1465301Y-12713722D01*
X1465301Y-12713722D02*
X1465301Y-12818484D01*
X1465301Y-12713722D02*
X1474824Y-12694674D01*
X1474824Y-12694674D02*
X1493872Y-12685150D01*
X1493872Y-12685150D02*
X1522443Y-12685150D01*
X1522443Y-12685150D02*
X1541491Y-12694674D01*
X1541491Y-12694674D02*
X1551015Y-12713722D01*
X1551015Y-12713722D02*
X1551015Y-12818484D01*
X1941491Y-12608960D02*
X1770063Y-12866103D01*
X2198634Y-12618484D02*
X2217682Y-12618484D01*
X2217682Y-12618484D02*
X2236729Y-12628008D01*
X2236729Y-12628008D02*
X2246253Y-12637531D01*
X2246253Y-12637531D02*
X2255777Y-12656579D01*
X2255777Y-12656579D02*
X2265301Y-12694674D01*
X2265301Y-12694674D02*
X2265301Y-12742293D01*
X2265301Y-12742293D02*
X2255777Y-12780388D01*
X2255777Y-12780388D02*
X2246253Y-12799436D01*
X2246253Y-12799436D02*
X2236729Y-12808960D01*
X2236729Y-12808960D02*
X2217682Y-12818484D01*
X2217682Y-12818484D02*
X2198634Y-12818484D01*
X2198634Y-12818484D02*
X2179587Y-12808960D01*
X2179587Y-12808960D02*
X2170063Y-12799436D01*
X2170063Y-12799436D02*
X2160539Y-12780388D01*
X2160539Y-12780388D02*
X2151015Y-12742293D01*
X2151015Y-12742293D02*
X2151015Y-12694674D01*
X2151015Y-12694674D02*
X2160539Y-12656579D01*
X2160539Y-12656579D02*
X2170063Y-12637531D01*
X2170063Y-12637531D02*
X2179587Y-12628008D01*
X2179587Y-12628008D02*
X2198634Y-12618484D01*
X2351015Y-12799436D02*
X2360539Y-12808960D01*
X2360539Y-12808960D02*
X2351015Y-12818484D01*
X2351015Y-12818484D02*
X2341491Y-12808960D01*
X2341491Y-12808960D02*
X2351015Y-12799436D01*
X2351015Y-12799436D02*
X2351015Y-12818484D01*
X2551015Y-12818484D02*
X2436729Y-12818484D01*
X2493872Y-12818484D02*
X2493872Y-12618484D01*
X2493872Y-12618484D02*
X2474825Y-12647055D01*
X2474825Y-12647055D02*
X2455777Y-12666103D01*
X2455777Y-12666103D02*
X2436729Y-12675627D01*
X2674825Y-12618484D02*
X2693872Y-12618484D01*
X2693872Y-12618484D02*
X2712920Y-12628008D01*
X2712920Y-12628008D02*
X2722444Y-12637531D01*
X2722444Y-12637531D02*
X2731968Y-12656579D01*
X2731968Y-12656579D02*
X2741491Y-12694674D01*
X2741491Y-12694674D02*
X2741491Y-12742293D01*
X2741491Y-12742293D02*
X2731968Y-12780388D01*
X2731968Y-12780388D02*
X2722444Y-12799436D01*
X2722444Y-12799436D02*
X2712920Y-12808960D01*
X2712920Y-12808960D02*
X2693872Y-12818484D01*
X2693872Y-12818484D02*
X2674825Y-12818484D01*
X2674825Y-12818484D02*
X2655777Y-12808960D01*
X2655777Y-12808960D02*
X2646253Y-12799436D01*
X2646253Y-12799436D02*
X2636729Y-12780388D01*
X2636729Y-12780388D02*
X2627206Y-12742293D01*
X2627206Y-12742293D02*
X2627206Y-12694674D01*
X2627206Y-12694674D02*
X2636729Y-12656579D01*
X2636729Y-12656579D02*
X2646253Y-12637531D01*
X2646253Y-12637531D02*
X2655777Y-12628008D01*
X2655777Y-12628008D02*
X2674825Y-12618484D01*
X2912920Y-12618484D02*
X2874825Y-12618484D01*
X2874825Y-12618484D02*
X2855777Y-12628008D01*
X2855777Y-12628008D02*
X2846253Y-12637531D01*
X2846253Y-12637531D02*
X2827206Y-12666103D01*
X2827206Y-12666103D02*
X2817682Y-12704198D01*
X2817682Y-12704198D02*
X2817682Y-12780388D01*
X2817682Y-12780388D02*
X2827206Y-12799436D01*
X2827206Y-12799436D02*
X2836729Y-12808960D01*
X2836729Y-12808960D02*
X2855777Y-12818484D01*
X2855777Y-12818484D02*
X2893872Y-12818484D01*
X2893872Y-12818484D02*
X2912920Y-12808960D01*
X2912920Y-12808960D02*
X2922444Y-12799436D01*
X2922444Y-12799436D02*
X2931967Y-12780388D01*
X2931967Y-12780388D02*
X2931967Y-12732769D01*
X2931967Y-12732769D02*
X2922444Y-12713722D01*
X2922444Y-12713722D02*
X2912920Y-12704198D01*
X2912920Y-12704198D02*
X2893872Y-12694674D01*
X2893872Y-12694674D02*
X2855777Y-12694674D01*
X2855777Y-12694674D02*
X2836729Y-12704198D01*
X2836729Y-12704198D02*
X2827206Y-12713722D01*
X2827206Y-12713722D02*
X2817682Y-12732769D01*
X3055777Y-12618484D02*
X3074825Y-12618484D01*
X3074825Y-12618484D02*
X3093872Y-12628008D01*
X3093872Y-12628008D02*
X3103396Y-12637531D01*
X3103396Y-12637531D02*
X3112920Y-12656579D01*
X3112920Y-12656579D02*
X3122444Y-12694674D01*
X3122444Y-12694674D02*
X3122444Y-12742293D01*
X3122444Y-12742293D02*
X3112920Y-12780388D01*
X3112920Y-12780388D02*
X3103396Y-12799436D01*
X3103396Y-12799436D02*
X3093872Y-12808960D01*
X3093872Y-12808960D02*
X3074825Y-12818484D01*
X3074825Y-12818484D02*
X3055777Y-12818484D01*
X3055777Y-12818484D02*
X3036729Y-12808960D01*
X3036729Y-12808960D02*
X3027206Y-12799436D01*
X3027206Y-12799436D02*
X3017682Y-12780388D01*
X3017682Y-12780388D02*
X3008158Y-12742293D01*
X3008158Y-12742293D02*
X3008158Y-12694674D01*
X3008158Y-12694674D02*
X3017682Y-12656579D01*
X3017682Y-12656579D02*
X3027206Y-12637531D01*
X3027206Y-12637531D02*
X3036729Y-12628008D01*
X3036729Y-12628008D02*
X3055777Y-12618484D01*
X3198634Y-12618484D02*
X3198634Y-12656579D01*
X3274825Y-12618484D02*
X3274825Y-12656579D01*
X3570063Y-12894674D02*
X3560539Y-12885150D01*
X3560539Y-12885150D02*
X3541491Y-12856579D01*
X3541491Y-12856579D02*
X3531968Y-12837531D01*
X3531968Y-12837531D02*
X3522444Y-12808960D01*
X3522444Y-12808960D02*
X3512920Y-12761341D01*
X3512920Y-12761341D02*
X3512920Y-12723246D01*
X3512920Y-12723246D02*
X3522444Y-12675627D01*
X3522444Y-12675627D02*
X3531968Y-12647055D01*
X3531968Y-12647055D02*
X3541491Y-12628008D01*
X3541491Y-12628008D02*
X3560539Y-12599436D01*
X3560539Y-12599436D02*
X3570063Y-12589912D01*
X3674825Y-12704198D02*
X3655777Y-12694674D01*
X3655777Y-12694674D02*
X3646253Y-12685150D01*
X3646253Y-12685150D02*
X3636729Y-12666103D01*
X3636729Y-12666103D02*
X3636729Y-12656579D01*
X3636729Y-12656579D02*
X3646253Y-12637531D01*
X3646253Y-12637531D02*
X3655777Y-12628008D01*
X3655777Y-12628008D02*
X3674825Y-12618484D01*
X3674825Y-12618484D02*
X3712920Y-12618484D01*
X3712920Y-12618484D02*
X3731968Y-12628008D01*
X3731968Y-12628008D02*
X3741491Y-12637531D01*
X3741491Y-12637531D02*
X3751015Y-12656579D01*
X3751015Y-12656579D02*
X3751015Y-12666103D01*
X3751015Y-12666103D02*
X3741491Y-12685150D01*
X3741491Y-12685150D02*
X3731968Y-12694674D01*
X3731968Y-12694674D02*
X3712920Y-12704198D01*
X3712920Y-12704198D02*
X3674825Y-12704198D01*
X3674825Y-12704198D02*
X3655777Y-12713722D01*
X3655777Y-12713722D02*
X3646253Y-12723246D01*
X3646253Y-12723246D02*
X3636729Y-12742293D01*
X3636729Y-12742293D02*
X3636729Y-12780388D01*
X3636729Y-12780388D02*
X3646253Y-12799436D01*
X3646253Y-12799436D02*
X3655777Y-12808960D01*
X3655777Y-12808960D02*
X3674825Y-12818484D01*
X3674825Y-12818484D02*
X3712920Y-12818484D01*
X3712920Y-12818484D02*
X3731968Y-12808960D01*
X3731968Y-12808960D02*
X3741491Y-12799436D01*
X3741491Y-12799436D02*
X3751015Y-12780388D01*
X3751015Y-12780388D02*
X3751015Y-12742293D01*
X3751015Y-12742293D02*
X3741491Y-12723246D01*
X3741491Y-12723246D02*
X3731968Y-12713722D01*
X3731968Y-12713722D02*
X3712920Y-12704198D01*
X3989110Y-12818484D02*
X3989110Y-12618484D01*
X4074825Y-12818484D02*
X4074825Y-12713722D01*
X4074825Y-12713722D02*
X4065301Y-12694674D01*
X4065301Y-12694674D02*
X4046253Y-12685150D01*
X4046253Y-12685150D02*
X4017682Y-12685150D01*
X4017682Y-12685150D02*
X3998634Y-12694674D01*
X3998634Y-12694674D02*
X3989110Y-12704198D01*
X4198634Y-12818484D02*
X4179587Y-12808960D01*
X4179587Y-12808960D02*
X4170063Y-12799436D01*
X4170063Y-12799436D02*
X4160539Y-12780388D01*
X4160539Y-12780388D02*
X4160539Y-12723246D01*
X4160539Y-12723246D02*
X4170063Y-12704198D01*
X4170063Y-12704198D02*
X4179587Y-12694674D01*
X4179587Y-12694674D02*
X4198634Y-12685150D01*
X4198634Y-12685150D02*
X4227206Y-12685150D01*
X4227206Y-12685150D02*
X4246253Y-12694674D01*
X4246253Y-12694674D02*
X4255777Y-12704198D01*
X4255777Y-12704198D02*
X4265301Y-12723246D01*
X4265301Y-12723246D02*
X4265301Y-12780388D01*
X4265301Y-12780388D02*
X4255777Y-12799436D01*
X4255777Y-12799436D02*
X4246253Y-12808960D01*
X4246253Y-12808960D02*
X4227206Y-12818484D01*
X4227206Y-12818484D02*
X4198634Y-12818484D01*
X4379587Y-12818484D02*
X4360539Y-12808960D01*
X4360539Y-12808960D02*
X4351015Y-12789912D01*
X4351015Y-12789912D02*
X4351015Y-12618484D01*
X4531968Y-12808960D02*
X4512920Y-12818484D01*
X4512920Y-12818484D02*
X4474825Y-12818484D01*
X4474825Y-12818484D02*
X4455777Y-12808960D01*
X4455777Y-12808960D02*
X4446253Y-12789912D01*
X4446253Y-12789912D02*
X4446253Y-12713722D01*
X4446253Y-12713722D02*
X4455777Y-12694674D01*
X4455777Y-12694674D02*
X4474825Y-12685150D01*
X4474825Y-12685150D02*
X4512920Y-12685150D01*
X4512920Y-12685150D02*
X4531968Y-12694674D01*
X4531968Y-12694674D02*
X4541492Y-12713722D01*
X4541492Y-12713722D02*
X4541492Y-12732769D01*
X4541492Y-12732769D02*
X4446253Y-12751817D01*
X4617682Y-12808960D02*
X4636730Y-12818484D01*
X4636730Y-12818484D02*
X4674825Y-12818484D01*
X4674825Y-12818484D02*
X4693873Y-12808960D01*
X4693873Y-12808960D02*
X4703396Y-12789912D01*
X4703396Y-12789912D02*
X4703396Y-12780388D01*
X4703396Y-12780388D02*
X4693873Y-12761341D01*
X4693873Y-12761341D02*
X4674825Y-12751817D01*
X4674825Y-12751817D02*
X4646253Y-12751817D01*
X4646253Y-12751817D02*
X4627206Y-12742293D01*
X4627206Y-12742293D02*
X4617682Y-12723246D01*
X4617682Y-12723246D02*
X4617682Y-12713722D01*
X4617682Y-12713722D02*
X4627206Y-12694674D01*
X4627206Y-12694674D02*
X4646253Y-12685150D01*
X4646253Y-12685150D02*
X4674825Y-12685150D01*
X4674825Y-12685150D02*
X4693873Y-12694674D01*
X4770063Y-12894674D02*
X4779587Y-12885150D01*
X4779587Y-12885150D02*
X4798634Y-12856579D01*
X4798634Y-12856579D02*
X4808158Y-12837531D01*
X4808158Y-12837531D02*
X4817682Y-12808960D01*
X4817682Y-12808960D02*
X4827206Y-12761341D01*
X4827206Y-12761341D02*
X4827206Y-12723246D01*
X4827206Y-12723246D02*
X4817682Y-12675627D01*
X4817682Y-12675627D02*
X4808158Y-12647055D01*
X4808158Y-12647055D02*
X4798634Y-12628008D01*
X4798634Y-12628008D02*
X4779587Y-12599436D01*
X4779587Y-12599436D02*
X4770063Y-12589912D01*
X-205000Y-12947000D02*
X-5000Y-13147000D01*
X-5000Y-12947000D02*
X-205000Y-13147000D01*
X-5000Y-13047000D02*
G75*
G02*
X-205000Y-13047000I-100000J0D01*
G01*
X-205000Y-13047000D02*
G75*
G02*
X-5000Y-13047000I100000J0D01*
G01*
X246253Y-12957531D02*
X255777Y-12948008D01*
X255777Y-12948008D02*
X274824Y-12938484D01*
X274824Y-12938484D02*
X322444Y-12938484D01*
X322444Y-12938484D02*
X341491Y-12948008D01*
X341491Y-12948008D02*
X351015Y-12957531D01*
X351015Y-12957531D02*
X360539Y-12976579D01*
X360539Y-12976579D02*
X360539Y-12995627D01*
X360539Y-12995627D02*
X351015Y-13024198D01*
X351015Y-13024198D02*
X236729Y-13138484D01*
X236729Y-13138484D02*
X360539Y-13138484D01*
X446253Y-13119436D02*
X455777Y-13128960D01*
X455777Y-13128960D02*
X446253Y-13138484D01*
X446253Y-13138484D02*
X436729Y-13128960D01*
X436729Y-13128960D02*
X446253Y-13119436D01*
X446253Y-13119436D02*
X446253Y-13138484D01*
X570063Y-13024198D02*
X551015Y-13014674D01*
X551015Y-13014674D02*
X541491Y-13005150D01*
X541491Y-13005150D02*
X531967Y-12986103D01*
X531967Y-12986103D02*
X531967Y-12976579D01*
X531967Y-12976579D02*
X541491Y-12957531D01*
X541491Y-12957531D02*
X551015Y-12948008D01*
X551015Y-12948008D02*
X570063Y-12938484D01*
X570063Y-12938484D02*
X608158Y-12938484D01*
X608158Y-12938484D02*
X627205Y-12948008D01*
X627205Y-12948008D02*
X636729Y-12957531D01*
X636729Y-12957531D02*
X646253Y-12976579D01*
X646253Y-12976579D02*
X646253Y-12986103D01*
X646253Y-12986103D02*
X636729Y-13005150D01*
X636729Y-13005150D02*
X627205Y-13014674D01*
X627205Y-13014674D02*
X608158Y-13024198D01*
X608158Y-13024198D02*
X570063Y-13024198D01*
X570063Y-13024198D02*
X551015Y-13033722D01*
X551015Y-13033722D02*
X541491Y-13043246D01*
X541491Y-13043246D02*
X531967Y-13062293D01*
X531967Y-13062293D02*
X531967Y-13100388D01*
X531967Y-13100388D02*
X541491Y-13119436D01*
X541491Y-13119436D02*
X551015Y-13128960D01*
X551015Y-13128960D02*
X570063Y-13138484D01*
X570063Y-13138484D02*
X608158Y-13138484D01*
X608158Y-13138484D02*
X627205Y-13128960D01*
X627205Y-13128960D02*
X636729Y-13119436D01*
X636729Y-13119436D02*
X646253Y-13100388D01*
X646253Y-13100388D02*
X646253Y-13062293D01*
X646253Y-13062293D02*
X636729Y-13043246D01*
X636729Y-13043246D02*
X627205Y-13033722D01*
X627205Y-13033722D02*
X608158Y-13024198D01*
X836729Y-13138484D02*
X722443Y-13138484D01*
X779586Y-13138484D02*
X779586Y-12938484D01*
X779586Y-12938484D02*
X760539Y-12967055D01*
X760539Y-12967055D02*
X741491Y-12986103D01*
X741491Y-12986103D02*
X722443Y-12995627D01*
X951015Y-13024198D02*
X931967Y-13014674D01*
X931967Y-13014674D02*
X922443Y-13005150D01*
X922443Y-13005150D02*
X912920Y-12986103D01*
X912920Y-12986103D02*
X912920Y-12976579D01*
X912920Y-12976579D02*
X922443Y-12957531D01*
X922443Y-12957531D02*
X931967Y-12948008D01*
X931967Y-12948008D02*
X951015Y-12938484D01*
X951015Y-12938484D02*
X989110Y-12938484D01*
X989110Y-12938484D02*
X1008158Y-12948008D01*
X1008158Y-12948008D02*
X1017682Y-12957531D01*
X1017682Y-12957531D02*
X1027205Y-12976579D01*
X1027205Y-12976579D02*
X1027205Y-12986103D01*
X1027205Y-12986103D02*
X1017682Y-13005150D01*
X1017682Y-13005150D02*
X1008158Y-13014674D01*
X1008158Y-13014674D02*
X989110Y-13024198D01*
X989110Y-13024198D02*
X951015Y-13024198D01*
X951015Y-13024198D02*
X931967Y-13033722D01*
X931967Y-13033722D02*
X922443Y-13043246D01*
X922443Y-13043246D02*
X912920Y-13062293D01*
X912920Y-13062293D02*
X912920Y-13100388D01*
X912920Y-13100388D02*
X922443Y-13119436D01*
X922443Y-13119436D02*
X931967Y-13128960D01*
X931967Y-13128960D02*
X951015Y-13138484D01*
X951015Y-13138484D02*
X989110Y-13138484D01*
X989110Y-13138484D02*
X1008158Y-13128960D01*
X1008158Y-13128960D02*
X1017682Y-13119436D01*
X1017682Y-13119436D02*
X1027205Y-13100388D01*
X1027205Y-13100388D02*
X1027205Y-13062293D01*
X1027205Y-13062293D02*
X1017682Y-13043246D01*
X1017682Y-13043246D02*
X1008158Y-13033722D01*
X1008158Y-13033722D02*
X989110Y-13024198D01*
X1112920Y-13138484D02*
X1112920Y-13005150D01*
X1112920Y-13024198D02*
X1122444Y-13014674D01*
X1122444Y-13014674D02*
X1141491Y-13005150D01*
X1141491Y-13005150D02*
X1170063Y-13005150D01*
X1170063Y-13005150D02*
X1189110Y-13014674D01*
X1189110Y-13014674D02*
X1198634Y-13033722D01*
X1198634Y-13033722D02*
X1198634Y-13138484D01*
X1198634Y-13033722D02*
X1208158Y-13014674D01*
X1208158Y-13014674D02*
X1227205Y-13005150D01*
X1227205Y-13005150D02*
X1255777Y-13005150D01*
X1255777Y-13005150D02*
X1274825Y-13014674D01*
X1274825Y-13014674D02*
X1284348Y-13033722D01*
X1284348Y-13033722D02*
X1284348Y-13138484D01*
X1379586Y-13138484D02*
X1379586Y-13005150D01*
X1379586Y-13024198D02*
X1389110Y-13014674D01*
X1389110Y-13014674D02*
X1408158Y-13005150D01*
X1408158Y-13005150D02*
X1436729Y-13005150D01*
X1436729Y-13005150D02*
X1455777Y-13014674D01*
X1455777Y-13014674D02*
X1465301Y-13033722D01*
X1465301Y-13033722D02*
X1465301Y-13138484D01*
X1465301Y-13033722D02*
X1474824Y-13014674D01*
X1474824Y-13014674D02*
X1493872Y-13005150D01*
X1493872Y-13005150D02*
X1522443Y-13005150D01*
X1522443Y-13005150D02*
X1541491Y-13014674D01*
X1541491Y-13014674D02*
X1551015Y-13033722D01*
X1551015Y-13033722D02*
X1551015Y-13138484D01*
X1941491Y-12928960D02*
X1770063Y-13186103D01*
X2198634Y-12938484D02*
X2217682Y-12938484D01*
X2217682Y-12938484D02*
X2236729Y-12948008D01*
X2236729Y-12948008D02*
X2246253Y-12957531D01*
X2246253Y-12957531D02*
X2255777Y-12976579D01*
X2255777Y-12976579D02*
X2265301Y-13014674D01*
X2265301Y-13014674D02*
X2265301Y-13062293D01*
X2265301Y-13062293D02*
X2255777Y-13100388D01*
X2255777Y-13100388D02*
X2246253Y-13119436D01*
X2246253Y-13119436D02*
X2236729Y-13128960D01*
X2236729Y-13128960D02*
X2217682Y-13138484D01*
X2217682Y-13138484D02*
X2198634Y-13138484D01*
X2198634Y-13138484D02*
X2179587Y-13128960D01*
X2179587Y-13128960D02*
X2170063Y-13119436D01*
X2170063Y-13119436D02*
X2160539Y-13100388D01*
X2160539Y-13100388D02*
X2151015Y-13062293D01*
X2151015Y-13062293D02*
X2151015Y-13014674D01*
X2151015Y-13014674D02*
X2160539Y-12976579D01*
X2160539Y-12976579D02*
X2170063Y-12957531D01*
X2170063Y-12957531D02*
X2179587Y-12948008D01*
X2179587Y-12948008D02*
X2198634Y-12938484D01*
X2351015Y-13119436D02*
X2360539Y-13128960D01*
X2360539Y-13128960D02*
X2351015Y-13138484D01*
X2351015Y-13138484D02*
X2341491Y-13128960D01*
X2341491Y-13128960D02*
X2351015Y-13119436D01*
X2351015Y-13119436D02*
X2351015Y-13138484D01*
X2551015Y-13138484D02*
X2436729Y-13138484D01*
X2493872Y-13138484D02*
X2493872Y-12938484D01*
X2493872Y-12938484D02*
X2474825Y-12967055D01*
X2474825Y-12967055D02*
X2455777Y-12986103D01*
X2455777Y-12986103D02*
X2436729Y-12995627D01*
X2741491Y-13138484D02*
X2627206Y-13138484D01*
X2684348Y-13138484D02*
X2684348Y-12938484D01*
X2684348Y-12938484D02*
X2665301Y-12967055D01*
X2665301Y-12967055D02*
X2646253Y-12986103D01*
X2646253Y-12986103D02*
X2627206Y-12995627D01*
X2865301Y-12938484D02*
X2884348Y-12938484D01*
X2884348Y-12938484D02*
X2903396Y-12948008D01*
X2903396Y-12948008D02*
X2912920Y-12957531D01*
X2912920Y-12957531D02*
X2922444Y-12976579D01*
X2922444Y-12976579D02*
X2931967Y-13014674D01*
X2931967Y-13014674D02*
X2931967Y-13062293D01*
X2931967Y-13062293D02*
X2922444Y-13100388D01*
X2922444Y-13100388D02*
X2912920Y-13119436D01*
X2912920Y-13119436D02*
X2903396Y-13128960D01*
X2903396Y-13128960D02*
X2884348Y-13138484D01*
X2884348Y-13138484D02*
X2865301Y-13138484D01*
X2865301Y-13138484D02*
X2846253Y-13128960D01*
X2846253Y-13128960D02*
X2836729Y-13119436D01*
X2836729Y-13119436D02*
X2827206Y-13100388D01*
X2827206Y-13100388D02*
X2817682Y-13062293D01*
X2817682Y-13062293D02*
X2817682Y-13014674D01*
X2817682Y-13014674D02*
X2827206Y-12976579D01*
X2827206Y-12976579D02*
X2836729Y-12957531D01*
X2836729Y-12957531D02*
X2846253Y-12948008D01*
X2846253Y-12948008D02*
X2865301Y-12938484D01*
X3027206Y-13138484D02*
X3065301Y-13138484D01*
X3065301Y-13138484D02*
X3084348Y-13128960D01*
X3084348Y-13128960D02*
X3093872Y-13119436D01*
X3093872Y-13119436D02*
X3112920Y-13090865D01*
X3112920Y-13090865D02*
X3122444Y-13052769D01*
X3122444Y-13052769D02*
X3122444Y-12976579D01*
X3122444Y-12976579D02*
X3112920Y-12957531D01*
X3112920Y-12957531D02*
X3103396Y-12948008D01*
X3103396Y-12948008D02*
X3084348Y-12938484D01*
X3084348Y-12938484D02*
X3046253Y-12938484D01*
X3046253Y-12938484D02*
X3027206Y-12948008D01*
X3027206Y-12948008D02*
X3017682Y-12957531D01*
X3017682Y-12957531D02*
X3008158Y-12976579D01*
X3008158Y-12976579D02*
X3008158Y-13024198D01*
X3008158Y-13024198D02*
X3017682Y-13043246D01*
X3017682Y-13043246D02*
X3027206Y-13052769D01*
X3027206Y-13052769D02*
X3046253Y-13062293D01*
X3046253Y-13062293D02*
X3084348Y-13062293D01*
X3084348Y-13062293D02*
X3103396Y-13052769D01*
X3103396Y-13052769D02*
X3112920Y-13043246D01*
X3112920Y-13043246D02*
X3122444Y-13024198D01*
X3198634Y-12938484D02*
X3198634Y-12976579D01*
X3274825Y-12938484D02*
X3274825Y-12976579D01*
X3570063Y-13214674D02*
X3560539Y-13205150D01*
X3560539Y-13205150D02*
X3541491Y-13176579D01*
X3541491Y-13176579D02*
X3531968Y-13157531D01*
X3531968Y-13157531D02*
X3522444Y-13128960D01*
X3522444Y-13128960D02*
X3512920Y-13081341D01*
X3512920Y-13081341D02*
X3512920Y-13043246D01*
X3512920Y-13043246D02*
X3522444Y-12995627D01*
X3522444Y-12995627D02*
X3531968Y-12967055D01*
X3531968Y-12967055D02*
X3541491Y-12948008D01*
X3541491Y-12948008D02*
X3560539Y-12919436D01*
X3560539Y-12919436D02*
X3570063Y-12909912D01*
X3674825Y-13024198D02*
X3655777Y-13014674D01*
X3655777Y-13014674D02*
X3646253Y-13005150D01*
X3646253Y-13005150D02*
X3636729Y-12986103D01*
X3636729Y-12986103D02*
X3636729Y-12976579D01*
X3636729Y-12976579D02*
X3646253Y-12957531D01*
X3646253Y-12957531D02*
X3655777Y-12948008D01*
X3655777Y-12948008D02*
X3674825Y-12938484D01*
X3674825Y-12938484D02*
X3712920Y-12938484D01*
X3712920Y-12938484D02*
X3731968Y-12948008D01*
X3731968Y-12948008D02*
X3741491Y-12957531D01*
X3741491Y-12957531D02*
X3751015Y-12976579D01*
X3751015Y-12976579D02*
X3751015Y-12986103D01*
X3751015Y-12986103D02*
X3741491Y-13005150D01*
X3741491Y-13005150D02*
X3731968Y-13014674D01*
X3731968Y-13014674D02*
X3712920Y-13024198D01*
X3712920Y-13024198D02*
X3674825Y-13024198D01*
X3674825Y-13024198D02*
X3655777Y-13033722D01*
X3655777Y-13033722D02*
X3646253Y-13043246D01*
X3646253Y-13043246D02*
X3636729Y-13062293D01*
X3636729Y-13062293D02*
X3636729Y-13100388D01*
X3636729Y-13100388D02*
X3646253Y-13119436D01*
X3646253Y-13119436D02*
X3655777Y-13128960D01*
X3655777Y-13128960D02*
X3674825Y-13138484D01*
X3674825Y-13138484D02*
X3712920Y-13138484D01*
X3712920Y-13138484D02*
X3731968Y-13128960D01*
X3731968Y-13128960D02*
X3741491Y-13119436D01*
X3741491Y-13119436D02*
X3751015Y-13100388D01*
X3751015Y-13100388D02*
X3751015Y-13062293D01*
X3751015Y-13062293D02*
X3741491Y-13043246D01*
X3741491Y-13043246D02*
X3731968Y-13033722D01*
X3731968Y-13033722D02*
X3712920Y-13024198D01*
X3989110Y-13138484D02*
X3989110Y-12938484D01*
X4074825Y-13138484D02*
X4074825Y-13033722D01*
X4074825Y-13033722D02*
X4065301Y-13014674D01*
X4065301Y-13014674D02*
X4046253Y-13005150D01*
X4046253Y-13005150D02*
X4017682Y-13005150D01*
X4017682Y-13005150D02*
X3998634Y-13014674D01*
X3998634Y-13014674D02*
X3989110Y-13024198D01*
X4198634Y-13138484D02*
X4179587Y-13128960D01*
X4179587Y-13128960D02*
X4170063Y-13119436D01*
X4170063Y-13119436D02*
X4160539Y-13100388D01*
X4160539Y-13100388D02*
X4160539Y-13043246D01*
X4160539Y-13043246D02*
X4170063Y-13024198D01*
X4170063Y-13024198D02*
X4179587Y-13014674D01*
X4179587Y-13014674D02*
X4198634Y-13005150D01*
X4198634Y-13005150D02*
X4227206Y-13005150D01*
X4227206Y-13005150D02*
X4246253Y-13014674D01*
X4246253Y-13014674D02*
X4255777Y-13024198D01*
X4255777Y-13024198D02*
X4265301Y-13043246D01*
X4265301Y-13043246D02*
X4265301Y-13100388D01*
X4265301Y-13100388D02*
X4255777Y-13119436D01*
X4255777Y-13119436D02*
X4246253Y-13128960D01*
X4246253Y-13128960D02*
X4227206Y-13138484D01*
X4227206Y-13138484D02*
X4198634Y-13138484D01*
X4379587Y-13138484D02*
X4360539Y-13128960D01*
X4360539Y-13128960D02*
X4351015Y-13109912D01*
X4351015Y-13109912D02*
X4351015Y-12938484D01*
X4531968Y-13128960D02*
X4512920Y-13138484D01*
X4512920Y-13138484D02*
X4474825Y-13138484D01*
X4474825Y-13138484D02*
X4455777Y-13128960D01*
X4455777Y-13128960D02*
X4446253Y-13109912D01*
X4446253Y-13109912D02*
X4446253Y-13033722D01*
X4446253Y-13033722D02*
X4455777Y-13014674D01*
X4455777Y-13014674D02*
X4474825Y-13005150D01*
X4474825Y-13005150D02*
X4512920Y-13005150D01*
X4512920Y-13005150D02*
X4531968Y-13014674D01*
X4531968Y-13014674D02*
X4541492Y-13033722D01*
X4541492Y-13033722D02*
X4541492Y-13052769D01*
X4541492Y-13052769D02*
X4446253Y-13071817D01*
X4617682Y-13128960D02*
X4636730Y-13138484D01*
X4636730Y-13138484D02*
X4674825Y-13138484D01*
X4674825Y-13138484D02*
X4693873Y-13128960D01*
X4693873Y-13128960D02*
X4703396Y-13109912D01*
X4703396Y-13109912D02*
X4703396Y-13100388D01*
X4703396Y-13100388D02*
X4693873Y-13081341D01*
X4693873Y-13081341D02*
X4674825Y-13071817D01*
X4674825Y-13071817D02*
X4646253Y-13071817D01*
X4646253Y-13071817D02*
X4627206Y-13062293D01*
X4627206Y-13062293D02*
X4617682Y-13043246D01*
X4617682Y-13043246D02*
X4617682Y-13033722D01*
X4617682Y-13033722D02*
X4627206Y-13014674D01*
X4627206Y-13014674D02*
X4646253Y-13005150D01*
X4646253Y-13005150D02*
X4674825Y-13005150D01*
X4674825Y-13005150D02*
X4693873Y-13014674D01*
X4770063Y-13214674D02*
X4779587Y-13205150D01*
X4779587Y-13205150D02*
X4798634Y-13176579D01*
X4798634Y-13176579D02*
X4808158Y-13157531D01*
X4808158Y-13157531D02*
X4817682Y-13128960D01*
X4817682Y-13128960D02*
X4827206Y-13081341D01*
X4827206Y-13081341D02*
X4827206Y-13043246D01*
X4827206Y-13043246D02*
X4817682Y-12995627D01*
X4817682Y-12995627D02*
X4808158Y-12967055D01*
X4808158Y-12967055D02*
X4798634Y-12948008D01*
X4798634Y-12948008D02*
X4779587Y-12919436D01*
X4779587Y-12919436D02*
X4770063Y-12909912D01*
X-205000Y-13267000D02*
X-5000Y-13467000D01*
X-5000Y-13267000D02*
X-205000Y-13467000D01*
X-105000Y-13267000D02*
X-105000Y-13467000D01*
X-205000Y-13367000D02*
X-5000Y-13367000D01*
X246253Y-13277531D02*
X255777Y-13268008D01*
X255777Y-13268008D02*
X274824Y-13258484D01*
X274824Y-13258484D02*
X322444Y-13258484D01*
X322444Y-13258484D02*
X341491Y-13268008D01*
X341491Y-13268008D02*
X351015Y-13277531D01*
X351015Y-13277531D02*
X360539Y-13296579D01*
X360539Y-13296579D02*
X360539Y-13315627D01*
X360539Y-13315627D02*
X351015Y-13344198D01*
X351015Y-13344198D02*
X236729Y-13458484D01*
X236729Y-13458484D02*
X360539Y-13458484D01*
X446253Y-13439436D02*
X455777Y-13448960D01*
X455777Y-13448960D02*
X446253Y-13458484D01*
X446253Y-13458484D02*
X436729Y-13448960D01*
X436729Y-13448960D02*
X446253Y-13439436D01*
X446253Y-13439436D02*
X446253Y-13458484D01*
X627205Y-13325150D02*
X627205Y-13458484D01*
X579586Y-13248960D02*
X531967Y-13391817D01*
X531967Y-13391817D02*
X655777Y-13391817D01*
X712920Y-13258484D02*
X846253Y-13258484D01*
X846253Y-13258484D02*
X760539Y-13458484D01*
X1008158Y-13258484D02*
X970062Y-13258484D01*
X970062Y-13258484D02*
X951015Y-13268008D01*
X951015Y-13268008D02*
X941491Y-13277531D01*
X941491Y-13277531D02*
X922443Y-13306103D01*
X922443Y-13306103D02*
X912920Y-13344198D01*
X912920Y-13344198D02*
X912920Y-13420388D01*
X912920Y-13420388D02*
X922443Y-13439436D01*
X922443Y-13439436D02*
X931967Y-13448960D01*
X931967Y-13448960D02*
X951015Y-13458484D01*
X951015Y-13458484D02*
X989110Y-13458484D01*
X989110Y-13458484D02*
X1008158Y-13448960D01*
X1008158Y-13448960D02*
X1017682Y-13439436D01*
X1017682Y-13439436D02*
X1027205Y-13420388D01*
X1027205Y-13420388D02*
X1027205Y-13372769D01*
X1027205Y-13372769D02*
X1017682Y-13353722D01*
X1017682Y-13353722D02*
X1008158Y-13344198D01*
X1008158Y-13344198D02*
X989110Y-13334674D01*
X989110Y-13334674D02*
X951015Y-13334674D01*
X951015Y-13334674D02*
X931967Y-13344198D01*
X931967Y-13344198D02*
X922443Y-13353722D01*
X922443Y-13353722D02*
X912920Y-13372769D01*
X1112920Y-13458484D02*
X1112920Y-13325150D01*
X1112920Y-13344198D02*
X1122444Y-13334674D01*
X1122444Y-13334674D02*
X1141491Y-13325150D01*
X1141491Y-13325150D02*
X1170063Y-13325150D01*
X1170063Y-13325150D02*
X1189110Y-13334674D01*
X1189110Y-13334674D02*
X1198634Y-13353722D01*
X1198634Y-13353722D02*
X1198634Y-13458484D01*
X1198634Y-13353722D02*
X1208158Y-13334674D01*
X1208158Y-13334674D02*
X1227205Y-13325150D01*
X1227205Y-13325150D02*
X1255777Y-13325150D01*
X1255777Y-13325150D02*
X1274825Y-13334674D01*
X1274825Y-13334674D02*
X1284348Y-13353722D01*
X1284348Y-13353722D02*
X1284348Y-13458484D01*
X1379586Y-13458484D02*
X1379586Y-13325150D01*
X1379586Y-13344198D02*
X1389110Y-13334674D01*
X1389110Y-13334674D02*
X1408158Y-13325150D01*
X1408158Y-13325150D02*
X1436729Y-13325150D01*
X1436729Y-13325150D02*
X1455777Y-13334674D01*
X1455777Y-13334674D02*
X1465301Y-13353722D01*
X1465301Y-13353722D02*
X1465301Y-13458484D01*
X1465301Y-13353722D02*
X1474824Y-13334674D01*
X1474824Y-13334674D02*
X1493872Y-13325150D01*
X1493872Y-13325150D02*
X1522443Y-13325150D01*
X1522443Y-13325150D02*
X1541491Y-13334674D01*
X1541491Y-13334674D02*
X1551015Y-13353722D01*
X1551015Y-13353722D02*
X1551015Y-13458484D01*
X1941491Y-13248960D02*
X1770063Y-13506103D01*
X2198634Y-13258484D02*
X2217682Y-13258484D01*
X2217682Y-13258484D02*
X2236729Y-13268008D01*
X2236729Y-13268008D02*
X2246253Y-13277531D01*
X2246253Y-13277531D02*
X2255777Y-13296579D01*
X2255777Y-13296579D02*
X2265301Y-13334674D01*
X2265301Y-13334674D02*
X2265301Y-13382293D01*
X2265301Y-13382293D02*
X2255777Y-13420388D01*
X2255777Y-13420388D02*
X2246253Y-13439436D01*
X2246253Y-13439436D02*
X2236729Y-13448960D01*
X2236729Y-13448960D02*
X2217682Y-13458484D01*
X2217682Y-13458484D02*
X2198634Y-13458484D01*
X2198634Y-13458484D02*
X2179587Y-13448960D01*
X2179587Y-13448960D02*
X2170063Y-13439436D01*
X2170063Y-13439436D02*
X2160539Y-13420388D01*
X2160539Y-13420388D02*
X2151015Y-13382293D01*
X2151015Y-13382293D02*
X2151015Y-13334674D01*
X2151015Y-13334674D02*
X2160539Y-13296579D01*
X2160539Y-13296579D02*
X2170063Y-13277531D01*
X2170063Y-13277531D02*
X2179587Y-13268008D01*
X2179587Y-13268008D02*
X2198634Y-13258484D01*
X2351015Y-13439436D02*
X2360539Y-13448960D01*
X2360539Y-13448960D02*
X2351015Y-13458484D01*
X2351015Y-13458484D02*
X2341491Y-13448960D01*
X2341491Y-13448960D02*
X2351015Y-13439436D01*
X2351015Y-13439436D02*
X2351015Y-13458484D01*
X2484348Y-13258484D02*
X2503396Y-13258484D01*
X2503396Y-13258484D02*
X2522444Y-13268008D01*
X2522444Y-13268008D02*
X2531968Y-13277531D01*
X2531968Y-13277531D02*
X2541491Y-13296579D01*
X2541491Y-13296579D02*
X2551015Y-13334674D01*
X2551015Y-13334674D02*
X2551015Y-13382293D01*
X2551015Y-13382293D02*
X2541491Y-13420388D01*
X2541491Y-13420388D02*
X2531968Y-13439436D01*
X2531968Y-13439436D02*
X2522444Y-13448960D01*
X2522444Y-13448960D02*
X2503396Y-13458484D01*
X2503396Y-13458484D02*
X2484348Y-13458484D01*
X2484348Y-13458484D02*
X2465301Y-13448960D01*
X2465301Y-13448960D02*
X2455777Y-13439436D01*
X2455777Y-13439436D02*
X2446253Y-13420388D01*
X2446253Y-13420388D02*
X2436729Y-13382293D01*
X2436729Y-13382293D02*
X2436729Y-13334674D01*
X2436729Y-13334674D02*
X2446253Y-13296579D01*
X2446253Y-13296579D02*
X2455777Y-13277531D01*
X2455777Y-13277531D02*
X2465301Y-13268008D01*
X2465301Y-13268008D02*
X2484348Y-13258484D01*
X2646253Y-13458484D02*
X2684348Y-13458484D01*
X2684348Y-13458484D02*
X2703396Y-13448960D01*
X2703396Y-13448960D02*
X2712920Y-13439436D01*
X2712920Y-13439436D02*
X2731968Y-13410865D01*
X2731968Y-13410865D02*
X2741491Y-13372769D01*
X2741491Y-13372769D02*
X2741491Y-13296579D01*
X2741491Y-13296579D02*
X2731968Y-13277531D01*
X2731968Y-13277531D02*
X2722444Y-13268008D01*
X2722444Y-13268008D02*
X2703396Y-13258484D01*
X2703396Y-13258484D02*
X2665301Y-13258484D01*
X2665301Y-13258484D02*
X2646253Y-13268008D01*
X2646253Y-13268008D02*
X2636729Y-13277531D01*
X2636729Y-13277531D02*
X2627206Y-13296579D01*
X2627206Y-13296579D02*
X2627206Y-13344198D01*
X2627206Y-13344198D02*
X2636729Y-13363246D01*
X2636729Y-13363246D02*
X2646253Y-13372769D01*
X2646253Y-13372769D02*
X2665301Y-13382293D01*
X2665301Y-13382293D02*
X2703396Y-13382293D01*
X2703396Y-13382293D02*
X2722444Y-13372769D01*
X2722444Y-13372769D02*
X2731968Y-13363246D01*
X2731968Y-13363246D02*
X2741491Y-13344198D01*
X2808158Y-13258484D02*
X2941491Y-13258484D01*
X2941491Y-13258484D02*
X2855777Y-13458484D01*
X3112920Y-13258484D02*
X3017682Y-13258484D01*
X3017682Y-13258484D02*
X3008158Y-13353722D01*
X3008158Y-13353722D02*
X3017682Y-13344198D01*
X3017682Y-13344198D02*
X3036729Y-13334674D01*
X3036729Y-13334674D02*
X3084348Y-13334674D01*
X3084348Y-13334674D02*
X3103396Y-13344198D01*
X3103396Y-13344198D02*
X3112920Y-13353722D01*
X3112920Y-13353722D02*
X3122444Y-13372769D01*
X3122444Y-13372769D02*
X3122444Y-13420388D01*
X3122444Y-13420388D02*
X3112920Y-13439436D01*
X3112920Y-13439436D02*
X3103396Y-13448960D01*
X3103396Y-13448960D02*
X3084348Y-13458484D01*
X3084348Y-13458484D02*
X3036729Y-13458484D01*
X3036729Y-13458484D02*
X3017682Y-13448960D01*
X3017682Y-13448960D02*
X3008158Y-13439436D01*
X3198634Y-13258484D02*
X3198634Y-13296579D01*
X3274825Y-13258484D02*
X3274825Y-13296579D01*
X3570063Y-13534674D02*
X3560539Y-13525150D01*
X3560539Y-13525150D02*
X3541491Y-13496579D01*
X3541491Y-13496579D02*
X3531968Y-13477531D01*
X3531968Y-13477531D02*
X3522444Y-13448960D01*
X3522444Y-13448960D02*
X3512920Y-13401341D01*
X3512920Y-13401341D02*
X3512920Y-13363246D01*
X3512920Y-13363246D02*
X3522444Y-13315627D01*
X3522444Y-13315627D02*
X3531968Y-13287055D01*
X3531968Y-13287055D02*
X3541491Y-13268008D01*
X3541491Y-13268008D02*
X3560539Y-13239436D01*
X3560539Y-13239436D02*
X3570063Y-13229912D01*
X3751015Y-13458484D02*
X3636729Y-13458484D01*
X3693872Y-13458484D02*
X3693872Y-13258484D01*
X3693872Y-13258484D02*
X3674825Y-13287055D01*
X3674825Y-13287055D02*
X3655777Y-13306103D01*
X3655777Y-13306103D02*
X3636729Y-13315627D01*
X3922444Y-13258484D02*
X3884348Y-13258484D01*
X3884348Y-13258484D02*
X3865301Y-13268008D01*
X3865301Y-13268008D02*
X3855777Y-13277531D01*
X3855777Y-13277531D02*
X3836729Y-13306103D01*
X3836729Y-13306103D02*
X3827206Y-13344198D01*
X3827206Y-13344198D02*
X3827206Y-13420388D01*
X3827206Y-13420388D02*
X3836729Y-13439436D01*
X3836729Y-13439436D02*
X3846253Y-13448960D01*
X3846253Y-13448960D02*
X3865301Y-13458484D01*
X3865301Y-13458484D02*
X3903396Y-13458484D01*
X3903396Y-13458484D02*
X3922444Y-13448960D01*
X3922444Y-13448960D02*
X3931968Y-13439436D01*
X3931968Y-13439436D02*
X3941491Y-13420388D01*
X3941491Y-13420388D02*
X3941491Y-13372769D01*
X3941491Y-13372769D02*
X3931968Y-13353722D01*
X3931968Y-13353722D02*
X3922444Y-13344198D01*
X3922444Y-13344198D02*
X3903396Y-13334674D01*
X3903396Y-13334674D02*
X3865301Y-13334674D01*
X3865301Y-13334674D02*
X3846253Y-13344198D01*
X3846253Y-13344198D02*
X3836729Y-13353722D01*
X3836729Y-13353722D02*
X3827206Y-13372769D01*
X4179587Y-13458484D02*
X4179587Y-13258484D01*
X4265301Y-13458484D02*
X4265301Y-13353722D01*
X4265301Y-13353722D02*
X4255777Y-13334674D01*
X4255777Y-13334674D02*
X4236730Y-13325150D01*
X4236730Y-13325150D02*
X4208158Y-13325150D01*
X4208158Y-13325150D02*
X4189110Y-13334674D01*
X4189110Y-13334674D02*
X4179587Y-13344198D01*
X4389111Y-13458484D02*
X4370063Y-13448960D01*
X4370063Y-13448960D02*
X4360539Y-13439436D01*
X4360539Y-13439436D02*
X4351015Y-13420388D01*
X4351015Y-13420388D02*
X4351015Y-13363246D01*
X4351015Y-13363246D02*
X4360539Y-13344198D01*
X4360539Y-13344198D02*
X4370063Y-13334674D01*
X4370063Y-13334674D02*
X4389111Y-13325150D01*
X4389111Y-13325150D02*
X4417682Y-13325150D01*
X4417682Y-13325150D02*
X4436730Y-13334674D01*
X4436730Y-13334674D02*
X4446253Y-13344198D01*
X4446253Y-13344198D02*
X4455777Y-13363246D01*
X4455777Y-13363246D02*
X4455777Y-13420388D01*
X4455777Y-13420388D02*
X4446253Y-13439436D01*
X4446253Y-13439436D02*
X4436730Y-13448960D01*
X4436730Y-13448960D02*
X4417682Y-13458484D01*
X4417682Y-13458484D02*
X4389111Y-13458484D01*
X4570063Y-13458484D02*
X4551015Y-13448960D01*
X4551015Y-13448960D02*
X4541492Y-13429912D01*
X4541492Y-13429912D02*
X4541492Y-13258484D01*
X4722444Y-13448960D02*
X4703396Y-13458484D01*
X4703396Y-13458484D02*
X4665301Y-13458484D01*
X4665301Y-13458484D02*
X4646253Y-13448960D01*
X4646253Y-13448960D02*
X4636730Y-13429912D01*
X4636730Y-13429912D02*
X4636730Y-13353722D01*
X4636730Y-13353722D02*
X4646253Y-13334674D01*
X4646253Y-13334674D02*
X4665301Y-13325150D01*
X4665301Y-13325150D02*
X4703396Y-13325150D01*
X4703396Y-13325150D02*
X4722444Y-13334674D01*
X4722444Y-13334674D02*
X4731968Y-13353722D01*
X4731968Y-13353722D02*
X4731968Y-13372769D01*
X4731968Y-13372769D02*
X4636730Y-13391817D01*
X4808158Y-13448960D02*
X4827206Y-13458484D01*
X4827206Y-13458484D02*
X4865301Y-13458484D01*
X4865301Y-13458484D02*
X4884349Y-13448960D01*
X4884349Y-13448960D02*
X4893873Y-13429912D01*
X4893873Y-13429912D02*
X4893873Y-13420388D01*
X4893873Y-13420388D02*
X4884349Y-13401341D01*
X4884349Y-13401341D02*
X4865301Y-13391817D01*
X4865301Y-13391817D02*
X4836730Y-13391817D01*
X4836730Y-13391817D02*
X4817682Y-13382293D01*
X4817682Y-13382293D02*
X4808158Y-13363246D01*
X4808158Y-13363246D02*
X4808158Y-13353722D01*
X4808158Y-13353722D02*
X4817682Y-13334674D01*
X4817682Y-13334674D02*
X4836730Y-13325150D01*
X4836730Y-13325150D02*
X4865301Y-13325150D01*
X4865301Y-13325150D02*
X4884349Y-13334674D01*
X4960539Y-13534674D02*
X4970063Y-13525150D01*
X4970063Y-13525150D02*
X4989111Y-13496579D01*
X4989111Y-13496579D02*
X4998634Y-13477531D01*
X4998634Y-13477531D02*
X5008158Y-13448960D01*
X5008158Y-13448960D02*
X5017682Y-13401341D01*
X5017682Y-13401341D02*
X5017682Y-13363246D01*
X5017682Y-13363246D02*
X5008158Y-13315627D01*
X5008158Y-13315627D02*
X4998634Y-13287055D01*
X4998634Y-13287055D02*
X4989111Y-13268008D01*
X4989111Y-13268008D02*
X4970063Y-13239436D01*
X4970063Y-13239436D02*
X4960539Y-13229912D01*
X5322444Y-13534674D02*
X5312920Y-13525150D01*
X5312920Y-13525150D02*
X5293873Y-13496579D01*
X5293873Y-13496579D02*
X5284349Y-13477531D01*
X5284349Y-13477531D02*
X5274825Y-13448960D01*
X5274825Y-13448960D02*
X5265301Y-13401341D01*
X5265301Y-13401341D02*
X5265301Y-13363246D01*
X5265301Y-13363246D02*
X5274825Y-13315627D01*
X5274825Y-13315627D02*
X5284349Y-13287055D01*
X5284349Y-13287055D02*
X5293873Y-13268008D01*
X5293873Y-13268008D02*
X5312920Y-13239436D01*
X5312920Y-13239436D02*
X5322444Y-13229912D01*
X5398634Y-13325150D02*
X5398634Y-13458484D01*
X5398634Y-13344198D02*
X5408158Y-13334674D01*
X5408158Y-13334674D02*
X5427206Y-13325150D01*
X5427206Y-13325150D02*
X5455777Y-13325150D01*
X5455777Y-13325150D02*
X5474825Y-13334674D01*
X5474825Y-13334674D02*
X5484349Y-13353722D01*
X5484349Y-13353722D02*
X5484349Y-13458484D01*
X5608158Y-13458484D02*
X5589111Y-13448960D01*
X5589111Y-13448960D02*
X5579587Y-13439436D01*
X5579587Y-13439436D02*
X5570063Y-13420388D01*
X5570063Y-13420388D02*
X5570063Y-13363246D01*
X5570063Y-13363246D02*
X5579587Y-13344198D01*
X5579587Y-13344198D02*
X5589111Y-13334674D01*
X5589111Y-13334674D02*
X5608158Y-13325150D01*
X5608158Y-13325150D02*
X5636730Y-13325150D01*
X5636730Y-13325150D02*
X5655777Y-13334674D01*
X5655777Y-13334674D02*
X5665301Y-13344198D01*
X5665301Y-13344198D02*
X5674825Y-13363246D01*
X5674825Y-13363246D02*
X5674825Y-13420388D01*
X5674825Y-13420388D02*
X5665301Y-13439436D01*
X5665301Y-13439436D02*
X5655777Y-13448960D01*
X5655777Y-13448960D02*
X5636730Y-13458484D01*
X5636730Y-13458484D02*
X5608158Y-13458484D01*
X5731968Y-13325150D02*
X5808158Y-13325150D01*
X5760539Y-13258484D02*
X5760539Y-13429912D01*
X5760539Y-13429912D02*
X5770063Y-13448960D01*
X5770063Y-13448960D02*
X5789111Y-13458484D01*
X5789111Y-13458484D02*
X5808158Y-13458484D01*
X6027206Y-13325150D02*
X6027206Y-13525150D01*
X6027206Y-13334674D02*
X6046253Y-13325150D01*
X6046253Y-13325150D02*
X6084349Y-13325150D01*
X6084349Y-13325150D02*
X6103396Y-13334674D01*
X6103396Y-13334674D02*
X6112920Y-13344198D01*
X6112920Y-13344198D02*
X6122444Y-13363246D01*
X6122444Y-13363246D02*
X6122444Y-13420388D01*
X6122444Y-13420388D02*
X6112920Y-13439436D01*
X6112920Y-13439436D02*
X6103396Y-13448960D01*
X6103396Y-13448960D02*
X6084349Y-13458484D01*
X6084349Y-13458484D02*
X6046253Y-13458484D01*
X6046253Y-13458484D02*
X6027206Y-13448960D01*
X6236730Y-13458484D02*
X6217682Y-13448960D01*
X6217682Y-13448960D02*
X6208158Y-13429912D01*
X6208158Y-13429912D02*
X6208158Y-13258484D01*
X6398634Y-13458484D02*
X6398634Y-13353722D01*
X6398634Y-13353722D02*
X6389111Y-13334674D01*
X6389111Y-13334674D02*
X6370063Y-13325150D01*
X6370063Y-13325150D02*
X6331968Y-13325150D01*
X6331968Y-13325150D02*
X6312920Y-13334674D01*
X6398634Y-13448960D02*
X6379587Y-13458484D01*
X6379587Y-13458484D02*
X6331968Y-13458484D01*
X6331968Y-13458484D02*
X6312920Y-13448960D01*
X6312920Y-13448960D02*
X6303396Y-13429912D01*
X6303396Y-13429912D02*
X6303396Y-13410865D01*
X6303396Y-13410865D02*
X6312920Y-13391817D01*
X6312920Y-13391817D02*
X6331968Y-13382293D01*
X6331968Y-13382293D02*
X6379587Y-13382293D01*
X6379587Y-13382293D02*
X6398634Y-13372769D01*
X6465301Y-13325150D02*
X6541492Y-13325150D01*
X6493873Y-13258484D02*
X6493873Y-13429912D01*
X6493873Y-13429912D02*
X6503396Y-13448960D01*
X6503396Y-13448960D02*
X6522444Y-13458484D01*
X6522444Y-13458484D02*
X6541492Y-13458484D01*
X6684349Y-13448960D02*
X6665301Y-13458484D01*
X6665301Y-13458484D02*
X6627206Y-13458484D01*
X6627206Y-13458484D02*
X6608158Y-13448960D01*
X6608158Y-13448960D02*
X6598634Y-13429912D01*
X6598634Y-13429912D02*
X6598634Y-13353722D01*
X6598634Y-13353722D02*
X6608158Y-13334674D01*
X6608158Y-13334674D02*
X6627206Y-13325150D01*
X6627206Y-13325150D02*
X6665301Y-13325150D01*
X6665301Y-13325150D02*
X6684349Y-13334674D01*
X6684349Y-13334674D02*
X6693873Y-13353722D01*
X6693873Y-13353722D02*
X6693873Y-13372769D01*
X6693873Y-13372769D02*
X6598634Y-13391817D01*
X6865301Y-13458484D02*
X6865301Y-13258484D01*
X6865301Y-13448960D02*
X6846254Y-13458484D01*
X6846254Y-13458484D02*
X6808158Y-13458484D01*
X6808158Y-13458484D02*
X6789111Y-13448960D01*
X6789111Y-13448960D02*
X6779587Y-13439436D01*
X6779587Y-13439436D02*
X6770063Y-13420388D01*
X6770063Y-13420388D02*
X6770063Y-13363246D01*
X6770063Y-13363246D02*
X6779587Y-13344198D01*
X6779587Y-13344198D02*
X6789111Y-13334674D01*
X6789111Y-13334674D02*
X6808158Y-13325150D01*
X6808158Y-13325150D02*
X6846254Y-13325150D01*
X6846254Y-13325150D02*
X6865301Y-13334674D01*
X6941492Y-13534674D02*
X6951015Y-13525150D01*
X6951015Y-13525150D02*
X6970063Y-13496579D01*
X6970063Y-13496579D02*
X6979587Y-13477531D01*
X6979587Y-13477531D02*
X6989111Y-13448960D01*
X6989111Y-13448960D02*
X6998634Y-13401341D01*
X6998634Y-13401341D02*
X6998634Y-13363246D01*
X6998634Y-13363246D02*
X6989111Y-13315627D01*
X6989111Y-13315627D02*
X6979587Y-13287055D01*
X6979587Y-13287055D02*
X6970063Y-13268008D01*
X6970063Y-13268008D02*
X6951015Y-13239436D01*
X6951015Y-13239436D02*
X6941492Y-13229912D01*
X-205000Y-13587000D02*
X-5000Y-13787000D01*
X-5000Y-13587000D02*
X-205000Y-13787000D01*
X-34289Y-13757711D02*
X-34289Y-13616289D01*
X-175711Y-13616289D01*
X-175711Y-13757711D01*
X-34289Y-13757711D01*
X236729Y-13578484D02*
X360539Y-13578484D01*
X360539Y-13578484D02*
X293872Y-13654674D01*
X293872Y-13654674D02*
X322444Y-13654674D01*
X322444Y-13654674D02*
X341491Y-13664198D01*
X341491Y-13664198D02*
X351015Y-13673722D01*
X351015Y-13673722D02*
X360539Y-13692769D01*
X360539Y-13692769D02*
X360539Y-13740388D01*
X360539Y-13740388D02*
X351015Y-13759436D01*
X351015Y-13759436D02*
X341491Y-13768960D01*
X341491Y-13768960D02*
X322444Y-13778484D01*
X322444Y-13778484D02*
X265301Y-13778484D01*
X265301Y-13778484D02*
X246253Y-13768960D01*
X246253Y-13768960D02*
X236729Y-13759436D01*
X446253Y-13759436D02*
X455777Y-13768960D01*
X455777Y-13768960D02*
X446253Y-13778484D01*
X446253Y-13778484D02*
X436729Y-13768960D01*
X436729Y-13768960D02*
X446253Y-13759436D01*
X446253Y-13759436D02*
X446253Y-13778484D01*
X531967Y-13597531D02*
X541491Y-13588008D01*
X541491Y-13588008D02*
X560539Y-13578484D01*
X560539Y-13578484D02*
X608158Y-13578484D01*
X608158Y-13578484D02*
X627205Y-13588008D01*
X627205Y-13588008D02*
X636729Y-13597531D01*
X636729Y-13597531D02*
X646253Y-13616579D01*
X646253Y-13616579D02*
X646253Y-13635627D01*
X646253Y-13635627D02*
X636729Y-13664198D01*
X636729Y-13664198D02*
X522443Y-13778484D01*
X522443Y-13778484D02*
X646253Y-13778484D01*
X770062Y-13578484D02*
X789110Y-13578484D01*
X789110Y-13578484D02*
X808158Y-13588008D01*
X808158Y-13588008D02*
X817682Y-13597531D01*
X817682Y-13597531D02*
X827205Y-13616579D01*
X827205Y-13616579D02*
X836729Y-13654674D01*
X836729Y-13654674D02*
X836729Y-13702293D01*
X836729Y-13702293D02*
X827205Y-13740388D01*
X827205Y-13740388D02*
X817682Y-13759436D01*
X817682Y-13759436D02*
X808158Y-13768960D01*
X808158Y-13768960D02*
X789110Y-13778484D01*
X789110Y-13778484D02*
X770062Y-13778484D01*
X770062Y-13778484D02*
X751015Y-13768960D01*
X751015Y-13768960D02*
X741491Y-13759436D01*
X741491Y-13759436D02*
X731967Y-13740388D01*
X731967Y-13740388D02*
X722443Y-13702293D01*
X722443Y-13702293D02*
X722443Y-13654674D01*
X722443Y-13654674D02*
X731967Y-13616579D01*
X731967Y-13616579D02*
X741491Y-13597531D01*
X741491Y-13597531D02*
X751015Y-13588008D01*
X751015Y-13588008D02*
X770062Y-13578484D01*
X960539Y-13578484D02*
X979586Y-13578484D01*
X979586Y-13578484D02*
X998634Y-13588008D01*
X998634Y-13588008D02*
X1008158Y-13597531D01*
X1008158Y-13597531D02*
X1017682Y-13616579D01*
X1017682Y-13616579D02*
X1027205Y-13654674D01*
X1027205Y-13654674D02*
X1027205Y-13702293D01*
X1027205Y-13702293D02*
X1017682Y-13740388D01*
X1017682Y-13740388D02*
X1008158Y-13759436D01*
X1008158Y-13759436D02*
X998634Y-13768960D01*
X998634Y-13768960D02*
X979586Y-13778484D01*
X979586Y-13778484D02*
X960539Y-13778484D01*
X960539Y-13778484D02*
X941491Y-13768960D01*
X941491Y-13768960D02*
X931967Y-13759436D01*
X931967Y-13759436D02*
X922443Y-13740388D01*
X922443Y-13740388D02*
X912920Y-13702293D01*
X912920Y-13702293D02*
X912920Y-13654674D01*
X912920Y-13654674D02*
X922443Y-13616579D01*
X922443Y-13616579D02*
X931967Y-13597531D01*
X931967Y-13597531D02*
X941491Y-13588008D01*
X941491Y-13588008D02*
X960539Y-13578484D01*
X1112920Y-13778484D02*
X1112920Y-13645150D01*
X1112920Y-13664198D02*
X1122444Y-13654674D01*
X1122444Y-13654674D02*
X1141491Y-13645150D01*
X1141491Y-13645150D02*
X1170063Y-13645150D01*
X1170063Y-13645150D02*
X1189110Y-13654674D01*
X1189110Y-13654674D02*
X1198634Y-13673722D01*
X1198634Y-13673722D02*
X1198634Y-13778484D01*
X1198634Y-13673722D02*
X1208158Y-13654674D01*
X1208158Y-13654674D02*
X1227205Y-13645150D01*
X1227205Y-13645150D02*
X1255777Y-13645150D01*
X1255777Y-13645150D02*
X1274825Y-13654674D01*
X1274825Y-13654674D02*
X1284348Y-13673722D01*
X1284348Y-13673722D02*
X1284348Y-13778484D01*
X1379586Y-13778484D02*
X1379586Y-13645150D01*
X1379586Y-13664198D02*
X1389110Y-13654674D01*
X1389110Y-13654674D02*
X1408158Y-13645150D01*
X1408158Y-13645150D02*
X1436729Y-13645150D01*
X1436729Y-13645150D02*
X1455777Y-13654674D01*
X1455777Y-13654674D02*
X1465301Y-13673722D01*
X1465301Y-13673722D02*
X1465301Y-13778484D01*
X1465301Y-13673722D02*
X1474824Y-13654674D01*
X1474824Y-13654674D02*
X1493872Y-13645150D01*
X1493872Y-13645150D02*
X1522443Y-13645150D01*
X1522443Y-13645150D02*
X1541491Y-13654674D01*
X1541491Y-13654674D02*
X1551015Y-13673722D01*
X1551015Y-13673722D02*
X1551015Y-13778484D01*
X1941491Y-13568960D02*
X1770063Y-13826103D01*
X2198634Y-13578484D02*
X2217682Y-13578484D01*
X2217682Y-13578484D02*
X2236729Y-13588008D01*
X2236729Y-13588008D02*
X2246253Y-13597531D01*
X2246253Y-13597531D02*
X2255777Y-13616579D01*
X2255777Y-13616579D02*
X2265301Y-13654674D01*
X2265301Y-13654674D02*
X2265301Y-13702293D01*
X2265301Y-13702293D02*
X2255777Y-13740388D01*
X2255777Y-13740388D02*
X2246253Y-13759436D01*
X2246253Y-13759436D02*
X2236729Y-13768960D01*
X2236729Y-13768960D02*
X2217682Y-13778484D01*
X2217682Y-13778484D02*
X2198634Y-13778484D01*
X2198634Y-13778484D02*
X2179587Y-13768960D01*
X2179587Y-13768960D02*
X2170063Y-13759436D01*
X2170063Y-13759436D02*
X2160539Y-13740388D01*
X2160539Y-13740388D02*
X2151015Y-13702293D01*
X2151015Y-13702293D02*
X2151015Y-13654674D01*
X2151015Y-13654674D02*
X2160539Y-13616579D01*
X2160539Y-13616579D02*
X2170063Y-13597531D01*
X2170063Y-13597531D02*
X2179587Y-13588008D01*
X2179587Y-13588008D02*
X2198634Y-13578484D01*
X2351015Y-13759436D02*
X2360539Y-13768960D01*
X2360539Y-13768960D02*
X2351015Y-13778484D01*
X2351015Y-13778484D02*
X2341491Y-13768960D01*
X2341491Y-13768960D02*
X2351015Y-13759436D01*
X2351015Y-13759436D02*
X2351015Y-13778484D01*
X2551015Y-13778484D02*
X2436729Y-13778484D01*
X2493872Y-13778484D02*
X2493872Y-13578484D01*
X2493872Y-13578484D02*
X2474825Y-13607055D01*
X2474825Y-13607055D02*
X2455777Y-13626103D01*
X2455777Y-13626103D02*
X2436729Y-13635627D01*
X2627206Y-13597531D02*
X2636729Y-13588008D01*
X2636729Y-13588008D02*
X2655777Y-13578484D01*
X2655777Y-13578484D02*
X2703396Y-13578484D01*
X2703396Y-13578484D02*
X2722444Y-13588008D01*
X2722444Y-13588008D02*
X2731968Y-13597531D01*
X2731968Y-13597531D02*
X2741491Y-13616579D01*
X2741491Y-13616579D02*
X2741491Y-13635627D01*
X2741491Y-13635627D02*
X2731968Y-13664198D01*
X2731968Y-13664198D02*
X2617682Y-13778484D01*
X2617682Y-13778484D02*
X2741491Y-13778484D01*
X2912920Y-13578484D02*
X2874825Y-13578484D01*
X2874825Y-13578484D02*
X2855777Y-13588008D01*
X2855777Y-13588008D02*
X2846253Y-13597531D01*
X2846253Y-13597531D02*
X2827206Y-13626103D01*
X2827206Y-13626103D02*
X2817682Y-13664198D01*
X2817682Y-13664198D02*
X2817682Y-13740388D01*
X2817682Y-13740388D02*
X2827206Y-13759436D01*
X2827206Y-13759436D02*
X2836729Y-13768960D01*
X2836729Y-13768960D02*
X2855777Y-13778484D01*
X2855777Y-13778484D02*
X2893872Y-13778484D01*
X2893872Y-13778484D02*
X2912920Y-13768960D01*
X2912920Y-13768960D02*
X2922444Y-13759436D01*
X2922444Y-13759436D02*
X2931967Y-13740388D01*
X2931967Y-13740388D02*
X2931967Y-13692769D01*
X2931967Y-13692769D02*
X2922444Y-13673722D01*
X2922444Y-13673722D02*
X2912920Y-13664198D01*
X2912920Y-13664198D02*
X2893872Y-13654674D01*
X2893872Y-13654674D02*
X2855777Y-13654674D01*
X2855777Y-13654674D02*
X2836729Y-13664198D01*
X2836729Y-13664198D02*
X2827206Y-13673722D01*
X2827206Y-13673722D02*
X2817682Y-13692769D01*
X3055777Y-13578484D02*
X3074825Y-13578484D01*
X3074825Y-13578484D02*
X3093872Y-13588008D01*
X3093872Y-13588008D02*
X3103396Y-13597531D01*
X3103396Y-13597531D02*
X3112920Y-13616579D01*
X3112920Y-13616579D02*
X3122444Y-13654674D01*
X3122444Y-13654674D02*
X3122444Y-13702293D01*
X3122444Y-13702293D02*
X3112920Y-13740388D01*
X3112920Y-13740388D02*
X3103396Y-13759436D01*
X3103396Y-13759436D02*
X3093872Y-13768960D01*
X3093872Y-13768960D02*
X3074825Y-13778484D01*
X3074825Y-13778484D02*
X3055777Y-13778484D01*
X3055777Y-13778484D02*
X3036729Y-13768960D01*
X3036729Y-13768960D02*
X3027206Y-13759436D01*
X3027206Y-13759436D02*
X3017682Y-13740388D01*
X3017682Y-13740388D02*
X3008158Y-13702293D01*
X3008158Y-13702293D02*
X3008158Y-13654674D01*
X3008158Y-13654674D02*
X3017682Y-13616579D01*
X3017682Y-13616579D02*
X3027206Y-13597531D01*
X3027206Y-13597531D02*
X3036729Y-13588008D01*
X3036729Y-13588008D02*
X3055777Y-13578484D01*
X3198634Y-13578484D02*
X3198634Y-13616579D01*
X3274825Y-13578484D02*
X3274825Y-13616579D01*
X3570063Y-13854674D02*
X3560539Y-13845150D01*
X3560539Y-13845150D02*
X3541491Y-13816579D01*
X3541491Y-13816579D02*
X3531968Y-13797531D01*
X3531968Y-13797531D02*
X3522444Y-13768960D01*
X3522444Y-13768960D02*
X3512920Y-13721341D01*
X3512920Y-13721341D02*
X3512920Y-13683246D01*
X3512920Y-13683246D02*
X3522444Y-13635627D01*
X3522444Y-13635627D02*
X3531968Y-13607055D01*
X3531968Y-13607055D02*
X3541491Y-13588008D01*
X3541491Y-13588008D02*
X3560539Y-13559436D01*
X3560539Y-13559436D02*
X3570063Y-13549912D01*
X3731968Y-13645150D02*
X3731968Y-13778484D01*
X3684348Y-13568960D02*
X3636729Y-13711817D01*
X3636729Y-13711817D02*
X3760539Y-13711817D01*
X3989110Y-13778484D02*
X3989110Y-13578484D01*
X4074825Y-13778484D02*
X4074825Y-13673722D01*
X4074825Y-13673722D02*
X4065301Y-13654674D01*
X4065301Y-13654674D02*
X4046253Y-13645150D01*
X4046253Y-13645150D02*
X4017682Y-13645150D01*
X4017682Y-13645150D02*
X3998634Y-13654674D01*
X3998634Y-13654674D02*
X3989110Y-13664198D01*
X4198634Y-13778484D02*
X4179587Y-13768960D01*
X4179587Y-13768960D02*
X4170063Y-13759436D01*
X4170063Y-13759436D02*
X4160539Y-13740388D01*
X4160539Y-13740388D02*
X4160539Y-13683246D01*
X4160539Y-13683246D02*
X4170063Y-13664198D01*
X4170063Y-13664198D02*
X4179587Y-13654674D01*
X4179587Y-13654674D02*
X4198634Y-13645150D01*
X4198634Y-13645150D02*
X4227206Y-13645150D01*
X4227206Y-13645150D02*
X4246253Y-13654674D01*
X4246253Y-13654674D02*
X4255777Y-13664198D01*
X4255777Y-13664198D02*
X4265301Y-13683246D01*
X4265301Y-13683246D02*
X4265301Y-13740388D01*
X4265301Y-13740388D02*
X4255777Y-13759436D01*
X4255777Y-13759436D02*
X4246253Y-13768960D01*
X4246253Y-13768960D02*
X4227206Y-13778484D01*
X4227206Y-13778484D02*
X4198634Y-13778484D01*
X4379587Y-13778484D02*
X4360539Y-13768960D01*
X4360539Y-13768960D02*
X4351015Y-13749912D01*
X4351015Y-13749912D02*
X4351015Y-13578484D01*
X4531968Y-13768960D02*
X4512920Y-13778484D01*
X4512920Y-13778484D02*
X4474825Y-13778484D01*
X4474825Y-13778484D02*
X4455777Y-13768960D01*
X4455777Y-13768960D02*
X4446253Y-13749912D01*
X4446253Y-13749912D02*
X4446253Y-13673722D01*
X4446253Y-13673722D02*
X4455777Y-13654674D01*
X4455777Y-13654674D02*
X4474825Y-13645150D01*
X4474825Y-13645150D02*
X4512920Y-13645150D01*
X4512920Y-13645150D02*
X4531968Y-13654674D01*
X4531968Y-13654674D02*
X4541492Y-13673722D01*
X4541492Y-13673722D02*
X4541492Y-13692769D01*
X4541492Y-13692769D02*
X4446253Y-13711817D01*
X4617682Y-13768960D02*
X4636730Y-13778484D01*
X4636730Y-13778484D02*
X4674825Y-13778484D01*
X4674825Y-13778484D02*
X4693873Y-13768960D01*
X4693873Y-13768960D02*
X4703396Y-13749912D01*
X4703396Y-13749912D02*
X4703396Y-13740388D01*
X4703396Y-13740388D02*
X4693873Y-13721341D01*
X4693873Y-13721341D02*
X4674825Y-13711817D01*
X4674825Y-13711817D02*
X4646253Y-13711817D01*
X4646253Y-13711817D02*
X4627206Y-13702293D01*
X4627206Y-13702293D02*
X4617682Y-13683246D01*
X4617682Y-13683246D02*
X4617682Y-13673722D01*
X4617682Y-13673722D02*
X4627206Y-13654674D01*
X4627206Y-13654674D02*
X4646253Y-13645150D01*
X4646253Y-13645150D02*
X4674825Y-13645150D01*
X4674825Y-13645150D02*
X4693873Y-13654674D01*
X4770063Y-13854674D02*
X4779587Y-13845150D01*
X4779587Y-13845150D02*
X4798634Y-13816579D01*
X4798634Y-13816579D02*
X4808158Y-13797531D01*
X4808158Y-13797531D02*
X4817682Y-13768960D01*
X4817682Y-13768960D02*
X4827206Y-13721341D01*
X4827206Y-13721341D02*
X4827206Y-13683246D01*
X4827206Y-13683246D02*
X4817682Y-13635627D01*
X4817682Y-13635627D02*
X4808158Y-13607055D01*
X4808158Y-13607055D02*
X4798634Y-13588008D01*
X4798634Y-13588008D02*
X4779587Y-13559436D01*
X4779587Y-13559436D02*
X4770063Y-13549912D01*
X5131968Y-13854674D02*
X5122444Y-13845150D01*
X5122444Y-13845150D02*
X5103396Y-13816579D01*
X5103396Y-13816579D02*
X5093873Y-13797531D01*
X5093873Y-13797531D02*
X5084349Y-13768960D01*
X5084349Y-13768960D02*
X5074825Y-13721341D01*
X5074825Y-13721341D02*
X5074825Y-13683246D01*
X5074825Y-13683246D02*
X5084349Y-13635627D01*
X5084349Y-13635627D02*
X5093873Y-13607055D01*
X5093873Y-13607055D02*
X5103396Y-13588008D01*
X5103396Y-13588008D02*
X5122444Y-13559436D01*
X5122444Y-13559436D02*
X5131968Y-13549912D01*
X5208158Y-13645150D02*
X5208158Y-13778484D01*
X5208158Y-13664198D02*
X5217682Y-13654674D01*
X5217682Y-13654674D02*
X5236730Y-13645150D01*
X5236730Y-13645150D02*
X5265301Y-13645150D01*
X5265301Y-13645150D02*
X5284349Y-13654674D01*
X5284349Y-13654674D02*
X5293873Y-13673722D01*
X5293873Y-13673722D02*
X5293873Y-13778484D01*
X5417682Y-13778484D02*
X5398634Y-13768960D01*
X5398634Y-13768960D02*
X5389111Y-13759436D01*
X5389111Y-13759436D02*
X5379587Y-13740388D01*
X5379587Y-13740388D02*
X5379587Y-13683246D01*
X5379587Y-13683246D02*
X5389111Y-13664198D01*
X5389111Y-13664198D02*
X5398634Y-13654674D01*
X5398634Y-13654674D02*
X5417682Y-13645150D01*
X5417682Y-13645150D02*
X5446254Y-13645150D01*
X5446254Y-13645150D02*
X5465301Y-13654674D01*
X5465301Y-13654674D02*
X5474825Y-13664198D01*
X5474825Y-13664198D02*
X5484349Y-13683246D01*
X5484349Y-13683246D02*
X5484349Y-13740388D01*
X5484349Y-13740388D02*
X5474825Y-13759436D01*
X5474825Y-13759436D02*
X5465301Y-13768960D01*
X5465301Y-13768960D02*
X5446254Y-13778484D01*
X5446254Y-13778484D02*
X5417682Y-13778484D01*
X5541492Y-13645150D02*
X5617682Y-13645150D01*
X5570063Y-13578484D02*
X5570063Y-13749912D01*
X5570063Y-13749912D02*
X5579587Y-13768960D01*
X5579587Y-13768960D02*
X5598634Y-13778484D01*
X5598634Y-13778484D02*
X5617682Y-13778484D01*
X5836730Y-13645150D02*
X5836730Y-13845150D01*
X5836730Y-13654674D02*
X5855777Y-13645150D01*
X5855777Y-13645150D02*
X5893873Y-13645150D01*
X5893873Y-13645150D02*
X5912920Y-13654674D01*
X5912920Y-13654674D02*
X5922444Y-13664198D01*
X5922444Y-13664198D02*
X5931968Y-13683246D01*
X5931968Y-13683246D02*
X5931968Y-13740388D01*
X5931968Y-13740388D02*
X5922444Y-13759436D01*
X5922444Y-13759436D02*
X5912920Y-13768960D01*
X5912920Y-13768960D02*
X5893873Y-13778484D01*
X5893873Y-13778484D02*
X5855777Y-13778484D01*
X5855777Y-13778484D02*
X5836730Y-13768960D01*
X6046253Y-13778484D02*
X6027206Y-13768960D01*
X6027206Y-13768960D02*
X6017682Y-13749912D01*
X6017682Y-13749912D02*
X6017682Y-13578484D01*
X6208158Y-13778484D02*
X6208158Y-13673722D01*
X6208158Y-13673722D02*
X6198634Y-13654674D01*
X6198634Y-13654674D02*
X6179587Y-13645150D01*
X6179587Y-13645150D02*
X6141492Y-13645150D01*
X6141492Y-13645150D02*
X6122444Y-13654674D01*
X6208158Y-13768960D02*
X6189111Y-13778484D01*
X6189111Y-13778484D02*
X6141492Y-13778484D01*
X6141492Y-13778484D02*
X6122444Y-13768960D01*
X6122444Y-13768960D02*
X6112920Y-13749912D01*
X6112920Y-13749912D02*
X6112920Y-13730865D01*
X6112920Y-13730865D02*
X6122444Y-13711817D01*
X6122444Y-13711817D02*
X6141492Y-13702293D01*
X6141492Y-13702293D02*
X6189111Y-13702293D01*
X6189111Y-13702293D02*
X6208158Y-13692769D01*
X6274825Y-13645150D02*
X6351015Y-13645150D01*
X6303396Y-13578484D02*
X6303396Y-13749912D01*
X6303396Y-13749912D02*
X6312920Y-13768960D01*
X6312920Y-13768960D02*
X6331968Y-13778484D01*
X6331968Y-13778484D02*
X6351015Y-13778484D01*
X6493873Y-13768960D02*
X6474825Y-13778484D01*
X6474825Y-13778484D02*
X6436730Y-13778484D01*
X6436730Y-13778484D02*
X6417682Y-13768960D01*
X6417682Y-13768960D02*
X6408158Y-13749912D01*
X6408158Y-13749912D02*
X6408158Y-13673722D01*
X6408158Y-13673722D02*
X6417682Y-13654674D01*
X6417682Y-13654674D02*
X6436730Y-13645150D01*
X6436730Y-13645150D02*
X6474825Y-13645150D01*
X6474825Y-13645150D02*
X6493873Y-13654674D01*
X6493873Y-13654674D02*
X6503396Y-13673722D01*
X6503396Y-13673722D02*
X6503396Y-13692769D01*
X6503396Y-13692769D02*
X6408158Y-13711817D01*
X6674825Y-13778484D02*
X6674825Y-13578484D01*
X6674825Y-13768960D02*
X6655777Y-13778484D01*
X6655777Y-13778484D02*
X6617682Y-13778484D01*
X6617682Y-13778484D02*
X6598634Y-13768960D01*
X6598634Y-13768960D02*
X6589111Y-13759436D01*
X6589111Y-13759436D02*
X6579587Y-13740388D01*
X6579587Y-13740388D02*
X6579587Y-13683246D01*
X6579587Y-13683246D02*
X6589111Y-13664198D01*
X6589111Y-13664198D02*
X6598634Y-13654674D01*
X6598634Y-13654674D02*
X6617682Y-13645150D01*
X6617682Y-13645150D02*
X6655777Y-13645150D01*
X6655777Y-13645150D02*
X6674825Y-13654674D01*
X6751015Y-13854674D02*
X6760539Y-13845150D01*
X6760539Y-13845150D02*
X6779587Y-13816579D01*
X6779587Y-13816579D02*
X6789111Y-13797531D01*
X6789111Y-13797531D02*
X6798634Y-13768960D01*
X6798634Y-13768960D02*
X6808158Y-13721341D01*
X6808158Y-13721341D02*
X6808158Y-13683246D01*
X6808158Y-13683246D02*
X6798634Y-13635627D01*
X6798634Y-13635627D02*
X6789111Y-13607055D01*
X6789111Y-13607055D02*
X6779587Y-13588008D01*
X6779587Y-13588008D02*
X6760539Y-13559436D01*
X6760539Y-13559436D02*
X6751015Y-13549912D01*
M02*
