%TF.GenerationSoftware,KiCad,Pcbnew,10.0.5*%
%TF.CreationDate,2026-08-05T00:31:20-05:00*%
%TF.ProjectId,tank-driver-recovery,74616e6b-2d64-4726-9976-65722d726563,rev?*%
%TF.SameCoordinates,Original*%
%TF.FileFunction,Soldermask,Bot*%
%TF.FilePolarity,Negative*%
%FSLAX46Y46*%
G04 Gerber Fmt 4.6, Leading zero omitted, Abs format (unit mm)*
G04 Created by KiCad (PCBNEW 10.0.5) date 2026-08-05 00:31:20*
%MOMM*%
%LPD*%
G01*
G04 APERTURE LIST*
G04 Aperture macros list*
%AMRoundRect*
0 Rectangle with rounded corners*
0 $1 Rounding radius*
0 $2 $3 $4 $5 $6 $7 $8 $9 X,Y pos of 4 corners*
0 Add a 4 corners polygon primitive as box body*
4,1,4,$2,$3,$4,$5,$6,$7,$8,$9,$2,$3,0*
0 Add four circle primitives for the rounded corners*
1,1,$1+$1,$2,$3*
1,1,$1+$1,$4,$5*
1,1,$1+$1,$6,$7*
1,1,$1+$1,$8,$9*
0 Add four rect primitives between the rounded corners*
20,1,$1+$1,$2,$3,$4,$5,0*
20,1,$1+$1,$4,$5,$6,$7,0*
20,1,$1+$1,$6,$7,$8,$9,0*
20,1,$1+$1,$8,$9,$2,$3,0*%
G04 Aperture macros list end*
%ADD10C,2.476000*%
%ADD11C,4.227000*%
%ADD12C,4.039000*%
%ADD13RoundRect,0.250001X-1.099999X-1.099999X1.099999X-1.099999X1.099999X1.099999X-1.099999X1.099999X0*%
%ADD14C,2.700000*%
%ADD15C,3.200000*%
%ADD16R,1.710000X1.800000*%
%ADD17O,1.710000X1.800000*%
%ADD18RoundRect,0.250000X-0.600000X-0.725000X0.600000X-0.725000X0.600000X0.725000X-0.600000X0.725000X0*%
%ADD19O,1.700000X1.950000*%
G04 APERTURE END LIST*
D10*
%TO.C,J102*%
X34250000Y-97150000D03*
X25750000Y-97150000D03*
D11*
X30000000Y-94000000D03*
D12*
X30000000Y-89500000D03*
%TD*%
D13*
%TO.C,P103*%
X52820000Y-12748200D03*
D14*
X56780000Y-12748200D03*
X60740000Y-12748200D03*
%TD*%
D15*
%TO.C,H2*%
X166500000Y-3500000D03*
%TD*%
D16*
%TO.C,Q104*%
X152621900Y-10798200D03*
D17*
X154901900Y-10798200D03*
X157181900Y-10798200D03*
%TD*%
D10*
%TO.C,J101*%
X18250000Y-97150000D03*
X9750000Y-97150000D03*
D11*
X14000000Y-94000000D03*
D12*
X14000000Y-89500000D03*
%TD*%
D16*
%TO.C,Q101*%
X117971900Y-10798200D03*
D17*
X120251900Y-10798200D03*
X122531900Y-10798200D03*
%TD*%
D10*
%TO.C,J108*%
X130250000Y-97150000D03*
X121750000Y-97150000D03*
D11*
X126000000Y-94000000D03*
D12*
X126000000Y-89500000D03*
%TD*%
D16*
%TO.C,Q103*%
X141071900Y-10798200D03*
D17*
X143351900Y-10798200D03*
X145631900Y-10798200D03*
%TD*%
D10*
%TO.C,J106*%
X98250000Y-97150000D03*
X89750000Y-97150000D03*
D11*
X94000000Y-94000000D03*
D12*
X94000000Y-89500000D03*
%TD*%
D15*
%TO.C,H3*%
X166500000Y-106500000D03*
%TD*%
%TO.C,H1*%
X3500000Y-3500000D03*
%TD*%
D18*
%TO.C,P101*%
X9975000Y-11398200D03*
D19*
X12475000Y-11398200D03*
X14975000Y-11398200D03*
X17475000Y-11398200D03*
X19975000Y-11398200D03*
X22475000Y-11398200D03*
%TD*%
D10*
%TO.C,J105*%
X82250000Y-97150000D03*
X73750000Y-97150000D03*
D11*
X78000000Y-94000000D03*
D12*
X78000000Y-89500000D03*
%TD*%
D16*
%TO.C,Q108*%
X80000000Y-76000000D03*
D17*
X82280000Y-76000000D03*
X84560000Y-76000000D03*
%TD*%
D10*
%TO.C,J104*%
X66250000Y-97150000D03*
X57750000Y-97150000D03*
D11*
X62000000Y-94000000D03*
D12*
X62000000Y-89500000D03*
%TD*%
D16*
%TO.C,Q105*%
X20000000Y-76000000D03*
D17*
X22280000Y-76000000D03*
X24560000Y-76000000D03*
%TD*%
D10*
%TO.C,J107*%
X114250000Y-97150000D03*
X105750000Y-97150000D03*
D11*
X110000000Y-94000000D03*
D12*
X110000000Y-89500000D03*
%TD*%
D16*
%TO.C,Q106*%
X40000000Y-76000000D03*
D17*
X42280000Y-76000000D03*
X44560000Y-76000000D03*
%TD*%
D15*
%TO.C,H4*%
X3500000Y-106500000D03*
%TD*%
D16*
%TO.C,Q107*%
X60000000Y-76000000D03*
D17*
X62280000Y-76000000D03*
X64560000Y-76000000D03*
%TD*%
D16*
%TO.C,Q102*%
X129521900Y-10798200D03*
D17*
X131801900Y-10798200D03*
X134081900Y-10798200D03*
%TD*%
D10*
%TO.C,J103*%
X50250000Y-97150000D03*
X41750000Y-97150000D03*
D11*
X46000000Y-94000000D03*
D12*
X46000000Y-89500000D03*
%TD*%
D18*
%TO.C,P102*%
X31425000Y-11398200D03*
D19*
X33925000Y-11398200D03*
X36425000Y-11398200D03*
X38925000Y-11398200D03*
X41425000Y-11398200D03*
X43925000Y-11398200D03*
%TD*%
M02*
