%TF.GenerationSoftware,KiCad,Pcbnew,10.0.5*%
%TF.CreationDate,2026-08-05T00:31:20-05:00*%
%TF.ProjectId,tank-driver-recovery,74616e6b-2d64-4726-9976-65722d726563,rev?*%
%TF.SameCoordinates,Original*%
%TF.FileFunction,Other,User*%
%FSLAX46Y46*%
G04 Gerber Fmt 4.6, Leading zero omitted, Abs format (unit mm)*
G04 Created by KiCad (PCBNEW 10.0.5) date 2026-08-05 00:31:20*
%MOMM*%
%LPD*%
G01*
G04 APERTURE LIST*
%ADD10C,0.050000*%
%ADD11C,0.100000*%
G04 APERTURE END LIST*
%TO.C,U101*%
D10*
X67235200Y-8788200D02*
X68735200Y-8788200D01*
X67235200Y-13708200D02*
X67235200Y-8788200D01*
X68735200Y-8548200D02*
X73135200Y-8548200D01*
X68735200Y-8788200D02*
X68735200Y-8548200D01*
X68735200Y-13708200D02*
X67235200Y-13708200D01*
X68735200Y-13948200D02*
X68735200Y-13708200D01*
X73135200Y-8548200D02*
X73135200Y-8788200D01*
X73135200Y-8788200D02*
X74635200Y-8788200D01*
X73135200Y-13708200D02*
X73135200Y-13948200D01*
X73135200Y-13948200D02*
X68735200Y-13948200D01*
X74635200Y-8788200D02*
X74635200Y-13708200D01*
X74635200Y-13708200D02*
X73135200Y-13708200D01*
%TO.C,R207*%
X49720000Y-31870000D02*
X54280000Y-31870000D01*
X54280000Y-34130000D01*
X49720000Y-34130000D01*
X49720000Y-31870000D01*
%TO.C,C404*%
X152050000Y-46950000D02*
X152050000Y-49050000D01*
X152050000Y-49050000D02*
X153100000Y-49050000D01*
X153100000Y-46250000D02*
X153100000Y-46950000D01*
X153100000Y-46250000D02*
X154250000Y-45100000D01*
X153100000Y-46950000D02*
X152050000Y-46950000D01*
X153100000Y-49050000D02*
X153100000Y-49750000D01*
X153100000Y-49750000D02*
X154250000Y-50900000D01*
X154250000Y-45100000D02*
X158900000Y-45100000D01*
X154250000Y-50900000D02*
X158900000Y-50900000D01*
X158900000Y-45100000D02*
X158900000Y-46950000D01*
X158900000Y-46950000D02*
X159950000Y-46950000D01*
X158900000Y-49050000D02*
X158900000Y-50900000D01*
X159950000Y-46950000D02*
X159950000Y-49050000D01*
X159950000Y-49050000D02*
X158900000Y-49050000D01*
%TO.C,C104*%
X26050000Y-46950000D02*
X26050000Y-49050000D01*
X26050000Y-49050000D02*
X27100000Y-49050000D01*
X27100000Y-46250000D02*
X27100000Y-46950000D01*
X27100000Y-46250000D02*
X28250000Y-45100000D01*
X27100000Y-46950000D02*
X26050000Y-46950000D01*
X27100000Y-49050000D02*
X27100000Y-49750000D01*
X27100000Y-49750000D02*
X28250000Y-50900000D01*
X28250000Y-45100000D02*
X32900000Y-45100000D01*
X28250000Y-50900000D02*
X32900000Y-50900000D01*
X32900000Y-45100000D02*
X32900000Y-46950000D01*
X32900000Y-46950000D02*
X33950000Y-46950000D01*
X32900000Y-49050000D02*
X32900000Y-50900000D01*
X33950000Y-46950000D02*
X33950000Y-49050000D01*
X33950000Y-49050000D02*
X32900000Y-49050000D01*
%TO.C,J102*%
D11*
X23512000Y-86481000D02*
X36488000Y-86481000D01*
X23512000Y-108500000D02*
X23512000Y-86481000D01*
X36488000Y-86481000D02*
X36488000Y-108500000D01*
X36488000Y-108500000D02*
X23512000Y-108500000D01*
%TO.C,R209*%
D10*
X62520000Y-32270000D02*
X65480000Y-32270000D01*
X65480000Y-33730000D01*
X62520000Y-33730000D01*
X62520000Y-32270000D01*
%TO.C,P103*%
X50370000Y-8548200D02*
X63190000Y-8548200D01*
X63190000Y-18048200D01*
X50370000Y-18048200D01*
X50370000Y-8548200D01*
%TO.C,D101*%
X7650000Y-54850000D02*
X7650000Y-57150000D01*
X7650000Y-54850000D02*
X12350000Y-54850000D01*
X12350000Y-54850000D02*
X12350000Y-57150000D01*
X12350000Y-57150000D02*
X7650000Y-57150000D01*
%TO.C,D401*%
X133650000Y-54850000D02*
X133650000Y-57150000D01*
X133650000Y-54850000D02*
X138350000Y-54850000D01*
X138350000Y-54850000D02*
X138350000Y-57150000D01*
X138350000Y-57150000D02*
X133650000Y-57150000D01*
%TO.C,R314*%
X98520000Y-39270000D02*
X101480000Y-39270000D01*
X101480000Y-40730000D01*
X98520000Y-40730000D01*
X98520000Y-39270000D01*
%TO.C,R406*%
X164520000Y-25270000D02*
X167480000Y-25270000D01*
X167480000Y-26730000D01*
X164520000Y-26730000D01*
X164520000Y-25270000D01*
%TO.C,Q104*%
X150651900Y-8548200D02*
X159151900Y-8548200D01*
X159151900Y-12298200D01*
X150651900Y-12298200D01*
X150651900Y-8548200D01*
%TO.C,C402*%
X142050000Y-46950000D02*
X142050000Y-49050000D01*
X142050000Y-49050000D02*
X143100000Y-49050000D01*
X143100000Y-46250000D02*
X143100000Y-46950000D01*
X143100000Y-46250000D02*
X144250000Y-45100000D01*
X143100000Y-46950000D02*
X142050000Y-46950000D01*
X143100000Y-49050000D02*
X143100000Y-49750000D01*
X143100000Y-49750000D02*
X144250000Y-50900000D01*
X144250000Y-45100000D02*
X148900000Y-45100000D01*
X144250000Y-50900000D02*
X148900000Y-50900000D01*
X148900000Y-45100000D02*
X148900000Y-46950000D01*
X148900000Y-46950000D02*
X149950000Y-46950000D01*
X148900000Y-49050000D02*
X148900000Y-50900000D01*
X149950000Y-46950000D02*
X149950000Y-49050000D01*
X149950000Y-49050000D02*
X148900000Y-49050000D01*
%TO.C,R208*%
X55720000Y-31870000D02*
X60280000Y-31870000D01*
X60280000Y-34130000D01*
X55720000Y-34130000D01*
X55720000Y-31870000D01*
%TO.C,J101*%
D11*
X7512000Y-86481000D02*
X20488000Y-86481000D01*
X7512000Y-108500000D02*
X7512000Y-86481000D01*
X20488000Y-86481000D02*
X20488000Y-108500000D01*
X20488000Y-108500000D02*
X7512000Y-108500000D01*
%TO.C,D402*%
D10*
X141650000Y-54850000D02*
X141650000Y-57150000D01*
X141650000Y-54850000D02*
X146350000Y-54850000D01*
X146350000Y-54850000D02*
X146350000Y-57150000D01*
X146350000Y-57150000D02*
X141650000Y-57150000D01*
%TO.C,Q101*%
X116001900Y-8548200D02*
X124501900Y-8548200D01*
X124501900Y-12298200D01*
X116001900Y-12298200D01*
X116001900Y-8548200D01*
%TO.C,R408*%
X139720000Y-31870000D02*
X144280000Y-31870000D01*
X144280000Y-34130000D01*
X139720000Y-34130000D01*
X139720000Y-31870000D01*
%TO.C,U102*%
X79675700Y-8788200D02*
X81175700Y-8788200D01*
X79675700Y-13708200D02*
X79675700Y-8788200D01*
X81175700Y-8548200D02*
X85575700Y-8548200D01*
X81175700Y-8788200D02*
X81175700Y-8548200D01*
X81175700Y-13708200D02*
X79675700Y-13708200D01*
X81175700Y-13948200D02*
X81175700Y-13708200D01*
X85575700Y-8548200D02*
X85575700Y-8788200D01*
X85575700Y-8788200D02*
X87075700Y-8788200D01*
X85575700Y-13708200D02*
X85575700Y-13948200D01*
X85575700Y-13948200D02*
X81175700Y-13948200D01*
X87075700Y-8788200D02*
X87075700Y-13708200D01*
X87075700Y-13708200D02*
X85575700Y-13708200D01*
%TO.C,D302*%
X99650000Y-54850000D02*
X99650000Y-57150000D01*
X99650000Y-54850000D02*
X104350000Y-54850000D01*
X104350000Y-54850000D02*
X104350000Y-57150000D01*
X104350000Y-57150000D02*
X99650000Y-57150000D01*
%TO.C,R309*%
X104520000Y-32270000D02*
X107480000Y-32270000D01*
X107480000Y-33730000D01*
X104520000Y-33730000D01*
X104520000Y-32270000D01*
%TO.C,R104*%
X26520000Y-25270000D02*
X29480000Y-25270000D01*
X29480000Y-26730000D01*
X26520000Y-26730000D01*
X26520000Y-25270000D01*
%TO.C,R401*%
X134520000Y-25270000D02*
X137480000Y-25270000D01*
X137480000Y-26730000D01*
X134520000Y-26730000D01*
X134520000Y-25270000D01*
%TO.C,R215*%
X62520000Y-39270000D02*
X65480000Y-39270000D01*
X65480000Y-40730000D01*
X62520000Y-40730000D01*
X62520000Y-39270000D01*
%TO.C,R108*%
X13720000Y-31870000D02*
X18280000Y-31870000D01*
X18280000Y-34130000D01*
X13720000Y-34130000D01*
X13720000Y-31870000D01*
%TO.C,R107*%
X7720000Y-31870000D02*
X12280000Y-31870000D01*
X12280000Y-34130000D01*
X7720000Y-34130000D01*
X7720000Y-31870000D01*
%TO.C,R113*%
X8520000Y-39270000D02*
X11480000Y-39270000D01*
X11480000Y-40730000D01*
X8520000Y-40730000D01*
X8520000Y-39270000D01*
%TO.C,R106*%
X38520000Y-25270000D02*
X41480000Y-25270000D01*
X41480000Y-26730000D01*
X38520000Y-26730000D01*
X38520000Y-25270000D01*
%TO.C,C303*%
X122520000Y-47270000D02*
X125480000Y-47270000D01*
X125480000Y-48730000D01*
X122520000Y-48730000D01*
X122520000Y-47270000D01*
%TO.C,R115*%
X20520000Y-39270000D02*
X23480000Y-39270000D01*
X23480000Y-40730000D01*
X20520000Y-40730000D01*
X20520000Y-39270000D01*
%TO.C,C202*%
X58050000Y-46950000D02*
X58050000Y-49050000D01*
X58050000Y-49050000D02*
X59100000Y-49050000D01*
X59100000Y-46250000D02*
X59100000Y-46950000D01*
X59100000Y-46250000D02*
X60250000Y-45100000D01*
X59100000Y-46950000D02*
X58050000Y-46950000D01*
X59100000Y-49050000D02*
X59100000Y-49750000D01*
X59100000Y-49750000D02*
X60250000Y-50900000D01*
X60250000Y-45100000D02*
X64900000Y-45100000D01*
X60250000Y-50900000D02*
X64900000Y-50900000D01*
X64900000Y-45100000D02*
X64900000Y-46950000D01*
X64900000Y-46950000D02*
X65950000Y-46950000D01*
X64900000Y-49050000D02*
X64900000Y-50900000D01*
X65950000Y-46950000D02*
X65950000Y-49050000D01*
X65950000Y-49050000D02*
X64900000Y-49050000D01*
%TO.C,C304*%
X110050000Y-46950000D02*
X110050000Y-49050000D01*
X110050000Y-49050000D02*
X111100000Y-49050000D01*
X111100000Y-46250000D02*
X111100000Y-46950000D01*
X111100000Y-46250000D02*
X112250000Y-45100000D01*
X111100000Y-46950000D02*
X110050000Y-46950000D01*
X111100000Y-49050000D02*
X111100000Y-49750000D01*
X111100000Y-49750000D02*
X112250000Y-50900000D01*
X112250000Y-45100000D02*
X116900000Y-45100000D01*
X112250000Y-50900000D02*
X116900000Y-50900000D01*
X116900000Y-45100000D02*
X116900000Y-46950000D01*
X116900000Y-46950000D02*
X117950000Y-46950000D01*
X116900000Y-49050000D02*
X116900000Y-50900000D01*
X117950000Y-46950000D02*
X117950000Y-49050000D01*
X117950000Y-49050000D02*
X116900000Y-49050000D01*
%TO.C,R412*%
X164520000Y-32270000D02*
X167480000Y-32270000D01*
X167480000Y-33730000D01*
X164520000Y-33730000D01*
X164520000Y-32270000D01*
%TO.C,C101*%
X6050000Y-46950000D02*
X6050000Y-49050000D01*
X6050000Y-49050000D02*
X7100000Y-49050000D01*
X7100000Y-46250000D02*
X7100000Y-46950000D01*
X7100000Y-46250000D02*
X8250000Y-45100000D01*
X7100000Y-46950000D02*
X6050000Y-46950000D01*
X7100000Y-49050000D02*
X7100000Y-49750000D01*
X7100000Y-49750000D02*
X8250000Y-50900000D01*
X8250000Y-45100000D02*
X12900000Y-45100000D01*
X8250000Y-50900000D02*
X12900000Y-50900000D01*
X12900000Y-45100000D02*
X12900000Y-46950000D01*
X12900000Y-46950000D02*
X13950000Y-46950000D01*
X12900000Y-49050000D02*
X12900000Y-50900000D01*
X13950000Y-46950000D02*
X13950000Y-49050000D01*
X13950000Y-49050000D02*
X12900000Y-49050000D01*
%TO.C,C401*%
X132050000Y-46950000D02*
X132050000Y-49050000D01*
X132050000Y-49050000D02*
X133100000Y-49050000D01*
X133100000Y-46250000D02*
X133100000Y-46950000D01*
X133100000Y-46250000D02*
X134250000Y-45100000D01*
X133100000Y-46950000D02*
X132050000Y-46950000D01*
X133100000Y-49050000D02*
X133100000Y-49750000D01*
X133100000Y-49750000D02*
X134250000Y-50900000D01*
X134250000Y-45100000D02*
X138900000Y-45100000D01*
X134250000Y-50900000D02*
X138900000Y-50900000D01*
X138900000Y-45100000D02*
X138900000Y-46950000D01*
X138900000Y-46950000D02*
X139950000Y-46950000D01*
X138900000Y-49050000D02*
X138900000Y-50900000D01*
X139950000Y-46950000D02*
X139950000Y-49050000D01*
X139950000Y-49050000D02*
X138900000Y-49050000D01*
%TO.C,R410*%
X152520000Y-32270000D02*
X155480000Y-32270000D01*
X155480000Y-33730000D01*
X152520000Y-33730000D01*
X152520000Y-32270000D01*
%TO.C,J108*%
D11*
X119512000Y-86481000D02*
X132488000Y-86481000D01*
X119512000Y-108500000D02*
X119512000Y-86481000D01*
X132488000Y-86481000D02*
X132488000Y-108500000D01*
X132488000Y-108500000D02*
X119512000Y-108500000D01*
%TO.C,Q103*%
D10*
X139101900Y-8548200D02*
X147601900Y-8548200D01*
X147601900Y-12298200D01*
X139101900Y-12298200D01*
X139101900Y-8548200D01*
%TO.C,R310*%
X110520000Y-32270000D02*
X113480000Y-32270000D01*
X113480000Y-33730000D01*
X110520000Y-33730000D01*
X110520000Y-32270000D01*
%TO.C,J106*%
D11*
X87512000Y-86481000D02*
X100488000Y-86481000D01*
X87512000Y-108500000D02*
X87512000Y-86481000D01*
X100488000Y-86481000D02*
X100488000Y-108500000D01*
X100488000Y-108500000D02*
X87512000Y-108500000D01*
%TO.C,R102*%
D10*
X14520000Y-25270000D02*
X17480000Y-25270000D01*
X17480000Y-26730000D01*
X14520000Y-26730000D01*
X14520000Y-25270000D01*
%TO.C,R307*%
X91720000Y-31870000D02*
X96280000Y-31870000D01*
X96280000Y-34130000D01*
X91720000Y-34130000D01*
X91720000Y-31870000D01*
%TO.C,D102*%
X15650000Y-54850000D02*
X15650000Y-57150000D01*
X15650000Y-54850000D02*
X20350000Y-54850000D01*
X20350000Y-54850000D02*
X20350000Y-57150000D01*
X20350000Y-57150000D02*
X15650000Y-57150000D01*
%TO.C,R414*%
X140520000Y-39270000D02*
X143480000Y-39270000D01*
X143480000Y-40730000D01*
X140520000Y-40730000D01*
X140520000Y-39270000D01*
%TO.C,R212*%
X80520000Y-32270000D02*
X83480000Y-32270000D01*
X83480000Y-33730000D01*
X80520000Y-33730000D01*
X80520000Y-32270000D01*
%TO.C,R305*%
X116520000Y-25270000D02*
X119480000Y-25270000D01*
X119480000Y-26730000D01*
X116520000Y-26730000D01*
X116520000Y-25270000D01*
%TO.C,R214*%
X56520000Y-39270000D02*
X59480000Y-39270000D01*
X59480000Y-40730000D01*
X56520000Y-40730000D01*
X56520000Y-39270000D01*
%TO.C,R301*%
X92520000Y-25270000D02*
X95480000Y-25270000D01*
X95480000Y-26730000D01*
X92520000Y-26730000D01*
X92520000Y-25270000D01*
%TO.C,U103*%
X92116200Y-8788200D02*
X93616200Y-8788200D01*
X92116200Y-13708200D02*
X92116200Y-8788200D01*
X93616200Y-8548200D02*
X98016200Y-8548200D01*
X93616200Y-8788200D02*
X93616200Y-8548200D01*
X93616200Y-13708200D02*
X92116200Y-13708200D01*
X93616200Y-13948200D02*
X93616200Y-13708200D01*
X98016200Y-8548200D02*
X98016200Y-8788200D01*
X98016200Y-8788200D02*
X99516200Y-8788200D01*
X98016200Y-13708200D02*
X98016200Y-13948200D01*
X98016200Y-13948200D02*
X93616200Y-13948200D01*
X99516200Y-8788200D02*
X99516200Y-13708200D01*
X99516200Y-13708200D02*
X98016200Y-13708200D01*
%TO.C,R405*%
X158520000Y-25270000D02*
X161480000Y-25270000D01*
X161480000Y-26730000D01*
X158520000Y-26730000D01*
X158520000Y-25270000D01*
%TO.C,R210*%
X68520000Y-32270000D02*
X71480000Y-32270000D01*
X71480000Y-33730000D01*
X68520000Y-33730000D01*
X68520000Y-32270000D01*
%TO.C,R101*%
X8520000Y-25270000D02*
X11480000Y-25270000D01*
X11480000Y-26730000D01*
X8520000Y-26730000D01*
X8520000Y-25270000D01*
%TO.C,C103*%
X38520000Y-47270000D02*
X41480000Y-47270000D01*
X41480000Y-48730000D01*
X38520000Y-48730000D01*
X38520000Y-47270000D01*
%TO.C,R105*%
X32520000Y-25270000D02*
X35480000Y-25270000D01*
X35480000Y-26730000D01*
X32520000Y-26730000D01*
X32520000Y-25270000D01*
%TO.C,R109*%
X20520000Y-32270000D02*
X23480000Y-32270000D01*
X23480000Y-33730000D01*
X20520000Y-33730000D01*
X20520000Y-32270000D01*
%TO.C,C204*%
X68050000Y-46950000D02*
X68050000Y-49050000D01*
X68050000Y-49050000D02*
X69100000Y-49050000D01*
X69100000Y-46250000D02*
X69100000Y-46950000D01*
X69100000Y-46250000D02*
X70250000Y-45100000D01*
X69100000Y-46950000D02*
X68050000Y-46950000D01*
X69100000Y-49050000D02*
X69100000Y-49750000D01*
X69100000Y-49750000D02*
X70250000Y-50900000D01*
X70250000Y-45100000D02*
X74900000Y-45100000D01*
X70250000Y-50900000D02*
X74900000Y-50900000D01*
X74900000Y-45100000D02*
X74900000Y-46950000D01*
X74900000Y-46950000D02*
X75950000Y-46950000D01*
X74900000Y-49050000D02*
X74900000Y-50900000D01*
X75950000Y-46950000D02*
X75950000Y-49050000D01*
X75950000Y-49050000D02*
X74900000Y-49050000D01*
%TO.C,C302*%
X100050000Y-46950000D02*
X100050000Y-49050000D01*
X100050000Y-49050000D02*
X101100000Y-49050000D01*
X101100000Y-46250000D02*
X101100000Y-46950000D01*
X101100000Y-46250000D02*
X102250000Y-45100000D01*
X101100000Y-46950000D02*
X100050000Y-46950000D01*
X101100000Y-49050000D02*
X101100000Y-49750000D01*
X101100000Y-49750000D02*
X102250000Y-50900000D01*
X102250000Y-45100000D02*
X106900000Y-45100000D01*
X102250000Y-50900000D02*
X106900000Y-50900000D01*
X106900000Y-45100000D02*
X106900000Y-46950000D01*
X106900000Y-46950000D02*
X107950000Y-46950000D01*
X106900000Y-49050000D02*
X106900000Y-50900000D01*
X107950000Y-46950000D02*
X107950000Y-49050000D01*
X107950000Y-49050000D02*
X106900000Y-49050000D01*
%TO.C,R409*%
X146520000Y-32270000D02*
X149480000Y-32270000D01*
X149480000Y-33730000D01*
X146520000Y-33730000D01*
X146520000Y-32270000D01*
%TO.C,C201*%
X48050000Y-46950000D02*
X48050000Y-49050000D01*
X48050000Y-49050000D02*
X49100000Y-49050000D01*
X49100000Y-46250000D02*
X49100000Y-46950000D01*
X49100000Y-46250000D02*
X50250000Y-45100000D01*
X49100000Y-46950000D02*
X48050000Y-46950000D01*
X49100000Y-49050000D02*
X49100000Y-49750000D01*
X49100000Y-49750000D02*
X50250000Y-50900000D01*
X50250000Y-45100000D02*
X54900000Y-45100000D01*
X50250000Y-50900000D02*
X54900000Y-50900000D01*
X54900000Y-45100000D02*
X54900000Y-46950000D01*
X54900000Y-46950000D02*
X55950000Y-46950000D01*
X54900000Y-49050000D02*
X54900000Y-50900000D01*
X55950000Y-46950000D02*
X55950000Y-49050000D01*
X55950000Y-49050000D02*
X54900000Y-49050000D01*
%TO.C,R411*%
X158520000Y-32270000D02*
X161480000Y-32270000D01*
X161480000Y-33730000D01*
X158520000Y-33730000D01*
X158520000Y-32270000D01*
%TO.C,C301*%
X90050000Y-46950000D02*
X90050000Y-49050000D01*
X90050000Y-49050000D02*
X91100000Y-49050000D01*
X91100000Y-46250000D02*
X91100000Y-46950000D01*
X91100000Y-46250000D02*
X92250000Y-45100000D01*
X91100000Y-46950000D02*
X90050000Y-46950000D01*
X91100000Y-49050000D02*
X91100000Y-49750000D01*
X91100000Y-49750000D02*
X92250000Y-50900000D01*
X92250000Y-45100000D02*
X96900000Y-45100000D01*
X92250000Y-50900000D02*
X96900000Y-50900000D01*
X96900000Y-45100000D02*
X96900000Y-46950000D01*
X96900000Y-46950000D02*
X97950000Y-46950000D01*
X96900000Y-49050000D02*
X96900000Y-50900000D01*
X97950000Y-46950000D02*
X97950000Y-49050000D01*
X97950000Y-49050000D02*
X96900000Y-49050000D01*
%TO.C,P101*%
X7025000Y-8548200D02*
X25425000Y-8548200D01*
X25425000Y-15298200D01*
X7025000Y-15298200D01*
X7025000Y-8548200D01*
%TO.C,R304*%
X110520000Y-25270000D02*
X113480000Y-25270000D01*
X113480000Y-26730000D01*
X110520000Y-26730000D01*
X110520000Y-25270000D01*
%TO.C,C403*%
X164520000Y-47270000D02*
X167480000Y-47270000D01*
X167480000Y-48730000D01*
X164520000Y-48730000D01*
X164520000Y-47270000D01*
%TO.C,R413*%
X134520000Y-39270000D02*
X137480000Y-39270000D01*
X137480000Y-40730000D01*
X134520000Y-40730000D01*
X134520000Y-39270000D01*
%TO.C,J105*%
D11*
X71512000Y-86481000D02*
X84488000Y-86481000D01*
X71512000Y-108500000D02*
X71512000Y-86481000D01*
X84488000Y-86481000D02*
X84488000Y-108500000D01*
X84488000Y-108500000D02*
X71512000Y-108500000D01*
%TO.C,Q108*%
D10*
X78030000Y-73750000D02*
X86530000Y-73750000D01*
X86530000Y-77500000D01*
X78030000Y-77500000D01*
X78030000Y-73750000D01*
%TO.C,J104*%
D11*
X55512000Y-86481000D02*
X68488000Y-86481000D01*
X55512000Y-108500000D02*
X55512000Y-86481000D01*
X68488000Y-86481000D02*
X68488000Y-108500000D01*
X68488000Y-108500000D02*
X55512000Y-108500000D01*
%TO.C,R114*%
D10*
X14520000Y-39270000D02*
X17480000Y-39270000D01*
X17480000Y-40730000D01*
X14520000Y-40730000D01*
X14520000Y-39270000D01*
%TO.C,D201*%
X49650000Y-54850000D02*
X49650000Y-57150000D01*
X49650000Y-54850000D02*
X54350000Y-54850000D01*
X54350000Y-54850000D02*
X54350000Y-57150000D01*
X54350000Y-57150000D02*
X49650000Y-57150000D01*
%TO.C,R404*%
X152520000Y-25270000D02*
X155480000Y-25270000D01*
X155480000Y-26730000D01*
X152520000Y-26730000D01*
X152520000Y-25270000D01*
%TO.C,R202*%
X56520000Y-25270000D02*
X59480000Y-25270000D01*
X59480000Y-26730000D01*
X56520000Y-26730000D01*
X56520000Y-25270000D01*
%TO.C,C102*%
X16050000Y-46950000D02*
X16050000Y-49050000D01*
X16050000Y-49050000D02*
X17100000Y-49050000D01*
X17100000Y-46250000D02*
X17100000Y-46950000D01*
X17100000Y-46250000D02*
X18250000Y-45100000D01*
X17100000Y-46950000D02*
X16050000Y-46950000D01*
X17100000Y-49050000D02*
X17100000Y-49750000D01*
X17100000Y-49750000D02*
X18250000Y-50900000D01*
X18250000Y-45100000D02*
X22900000Y-45100000D01*
X18250000Y-50900000D02*
X22900000Y-50900000D01*
X22900000Y-45100000D02*
X22900000Y-46950000D01*
X22900000Y-46950000D02*
X23950000Y-46950000D01*
X22900000Y-49050000D02*
X22900000Y-50900000D01*
X23950000Y-46950000D02*
X23950000Y-49050000D01*
X23950000Y-49050000D02*
X22900000Y-49050000D01*
%TO.C,R402*%
X140520000Y-25270000D02*
X143480000Y-25270000D01*
X143480000Y-26730000D01*
X140520000Y-26730000D01*
X140520000Y-25270000D01*
%TO.C,C203*%
X80520000Y-47270000D02*
X83480000Y-47270000D01*
X83480000Y-48730000D01*
X80520000Y-48730000D01*
X80520000Y-47270000D01*
%TO.C,Q105*%
X18030000Y-73750000D02*
X26530000Y-73750000D01*
X26530000Y-77500000D01*
X18030000Y-77500000D01*
X18030000Y-73750000D01*
%TO.C,R306*%
X122520000Y-25270000D02*
X125480000Y-25270000D01*
X125480000Y-26730000D01*
X122520000Y-26730000D01*
X122520000Y-25270000D01*
%TO.C,R213*%
X50520000Y-39270000D02*
X53480000Y-39270000D01*
X53480000Y-40730000D01*
X50520000Y-40730000D01*
X50520000Y-39270000D01*
%TO.C,R206*%
X80520000Y-25270000D02*
X83480000Y-25270000D01*
X83480000Y-26730000D01*
X80520000Y-26730000D01*
X80520000Y-25270000D01*
%TO.C,D301*%
X91650000Y-54850000D02*
X91650000Y-57150000D01*
X91650000Y-54850000D02*
X96350000Y-54850000D01*
X96350000Y-54850000D02*
X96350000Y-57150000D01*
X96350000Y-57150000D02*
X91650000Y-57150000D01*
%TO.C,R112*%
X38520000Y-32270000D02*
X41480000Y-32270000D01*
X41480000Y-33730000D01*
X38520000Y-33730000D01*
X38520000Y-32270000D01*
%TO.C,R312*%
X122520000Y-32270000D02*
X125480000Y-32270000D01*
X125480000Y-33730000D01*
X122520000Y-33730000D01*
X122520000Y-32270000D01*
%TO.C,R111*%
X32520000Y-32270000D02*
X35480000Y-32270000D01*
X35480000Y-33730000D01*
X32520000Y-33730000D01*
X32520000Y-32270000D01*
%TO.C,R205*%
X74520000Y-25270000D02*
X77480000Y-25270000D01*
X77480000Y-26730000D01*
X74520000Y-26730000D01*
X74520000Y-25270000D01*
%TO.C,R204*%
X68520000Y-25270000D02*
X71480000Y-25270000D01*
X71480000Y-26730000D01*
X68520000Y-26730000D01*
X68520000Y-25270000D01*
%TO.C,J107*%
D11*
X103512000Y-86481000D02*
X116488000Y-86481000D01*
X103512000Y-108500000D02*
X103512000Y-86481000D01*
X116488000Y-86481000D02*
X116488000Y-108500000D01*
X116488000Y-108500000D02*
X103512000Y-108500000D01*
%TO.C,Q106*%
D10*
X38030000Y-73750000D02*
X46530000Y-73750000D01*
X46530000Y-77500000D01*
X38030000Y-77500000D01*
X38030000Y-73750000D01*
%TO.C,R311*%
X116520000Y-32270000D02*
X119480000Y-32270000D01*
X119480000Y-33730000D01*
X116520000Y-33730000D01*
X116520000Y-32270000D01*
%TO.C,R415*%
X146520000Y-39270000D02*
X149480000Y-39270000D01*
X149480000Y-40730000D01*
X146520000Y-40730000D01*
X146520000Y-39270000D01*
%TO.C,R315*%
X104520000Y-39270000D02*
X107480000Y-39270000D01*
X107480000Y-40730000D01*
X104520000Y-40730000D01*
X104520000Y-39270000D01*
%TO.C,R403*%
X146520000Y-25270000D02*
X149480000Y-25270000D01*
X149480000Y-26730000D01*
X146520000Y-26730000D01*
X146520000Y-25270000D01*
%TO.C,R201*%
X50520000Y-25270000D02*
X53480000Y-25270000D01*
X53480000Y-26730000D01*
X50520000Y-26730000D01*
X50520000Y-25270000D01*
%TO.C,R303*%
X104520000Y-25270000D02*
X107480000Y-25270000D01*
X107480000Y-26730000D01*
X104520000Y-26730000D01*
X104520000Y-25270000D01*
%TO.C,U104*%
X104556700Y-8788200D02*
X106056700Y-8788200D01*
X104556700Y-13708200D02*
X104556700Y-8788200D01*
X106056700Y-8548200D02*
X110456700Y-8548200D01*
X106056700Y-8788200D02*
X106056700Y-8548200D01*
X106056700Y-13708200D02*
X104556700Y-13708200D01*
X106056700Y-13948200D02*
X106056700Y-13708200D01*
X110456700Y-8548200D02*
X110456700Y-8788200D01*
X110456700Y-8788200D02*
X111956700Y-8788200D01*
X110456700Y-13708200D02*
X110456700Y-13948200D01*
X110456700Y-13948200D02*
X106056700Y-13948200D01*
X111956700Y-8788200D02*
X111956700Y-13708200D01*
X111956700Y-13708200D02*
X110456700Y-13708200D01*
%TO.C,R203*%
X62520000Y-25270000D02*
X65480000Y-25270000D01*
X65480000Y-26730000D01*
X62520000Y-26730000D01*
X62520000Y-25270000D01*
%TO.C,R110*%
X26520000Y-32270000D02*
X29480000Y-32270000D01*
X29480000Y-33730000D01*
X26520000Y-33730000D01*
X26520000Y-32270000D01*
%TO.C,R302*%
X98520000Y-25270000D02*
X101480000Y-25270000D01*
X101480000Y-26730000D01*
X98520000Y-26730000D01*
X98520000Y-25270000D01*
%TO.C,Q107*%
X58030000Y-73750000D02*
X66530000Y-73750000D01*
X66530000Y-77500000D01*
X58030000Y-77500000D01*
X58030000Y-73750000D01*
%TO.C,Q102*%
X127551900Y-8548200D02*
X136051900Y-8548200D01*
X136051900Y-12298200D01*
X127551900Y-12298200D01*
X127551900Y-8548200D01*
%TO.C,R407*%
X133720000Y-31870000D02*
X138280000Y-31870000D01*
X138280000Y-34130000D01*
X133720000Y-34130000D01*
X133720000Y-31870000D01*
%TO.C,D202*%
X57650000Y-54850000D02*
X57650000Y-57150000D01*
X57650000Y-54850000D02*
X62350000Y-54850000D01*
X62350000Y-54850000D02*
X62350000Y-57150000D01*
X62350000Y-57150000D02*
X57650000Y-57150000D01*
%TO.C,J103*%
D11*
X39512000Y-86481000D02*
X52488000Y-86481000D01*
X39512000Y-108500000D02*
X39512000Y-86481000D01*
X52488000Y-86481000D02*
X52488000Y-108500000D01*
X52488000Y-108500000D02*
X39512000Y-108500000D01*
%TO.C,R211*%
D10*
X74520000Y-32270000D02*
X77480000Y-32270000D01*
X77480000Y-33730000D01*
X74520000Y-33730000D01*
X74520000Y-32270000D01*
%TO.C,R103*%
X20520000Y-25270000D02*
X23480000Y-25270000D01*
X23480000Y-26730000D01*
X20520000Y-26730000D01*
X20520000Y-25270000D01*
%TO.C,P102*%
X28475000Y-8548200D02*
X46875000Y-8548200D01*
X46875000Y-15298200D01*
X28475000Y-15298200D01*
X28475000Y-8548200D01*
%TO.C,R308*%
X97720000Y-31870000D02*
X102280000Y-31870000D01*
X102280000Y-34130000D01*
X97720000Y-34130000D01*
X97720000Y-31870000D01*
%TO.C,R313*%
X92520000Y-39270000D02*
X95480000Y-39270000D01*
X95480000Y-40730000D01*
X92520000Y-40730000D01*
X92520000Y-39270000D01*
%TD*%
M02*
