M48
; DRILL file KiCad 10.0.3 date 2026-07-02T05:10:48
; FORMAT={-:-/ absolute / metric / decimal}
; #@! TF.CreationDate,2026-07-02T05:10:48-05:00
; #@! TF.GenerationSoftware,Kicad,Pcbnew,10.0.3
; #@! TF.FileFunction,MixedPlating,1,2
FMAT,2
METRIC
; #@! TA.AperFunction,Plated,PTH,ViaDrill
T1C0.300
; #@! TA.AperFunction,Plated,PTH,ViaDrill
T2C0.400
; #@! TA.AperFunction,Plated,PTH,ComponentDrill
T3C0.950
; #@! TA.AperFunction,Plated,PTH,ComponentDrill
T4C1.700
; #@! TA.AperFunction,NonPlated,NPTH,ComponentDrill
T5C3.200
%
G90
G05
T1
X52.15Y-80.515
X55.207Y-77.438
X57.575Y-46.132
X63.512Y-55.139
X63.869Y-72.179
X66.471Y-60.947
X66.848Y-57.244
X66.945Y-70.9
X66.984Y-74.73
X70.107Y-71.681
X70.442Y-60.372
X71.701Y-78.801
X72.176Y-58.508
X77.607Y-52.832
X85.347Y-45.974
X89.413Y-84.049
X89.992Y-82.706
X93.415Y-77.353
X100.727Y-72.231
X102.475Y-73.905
X103.733Y-76.999
X103.955Y-71.44
X104.161Y-72.523
X107.7Y-75.366
X109.409Y-75.991
X114.241Y-65.557
X132.549Y-51.293
X133.06Y-55.76
X133.719Y-53.744
X134.526Y-57.817
X134.761Y-56.788
X135.944Y-48.698
X137.675Y-59.905
X137.675Y-59.905
X164.475Y-59.905
X164.475Y-59.905
T2
X32.0Y-32.0
X32.0Y-40.0
X32.0Y-48.0
X32.0Y-56.0
X32.0Y-64.0
X32.0Y-72.0
X32.0Y-80.0
X32.0Y-88.0
X32.0Y-96.0
X40.0Y-32.0
X40.0Y-40.0
X40.0Y-48.0
X40.0Y-72.0
X40.0Y-80.0
X40.0Y-88.0
X40.0Y-96.0
X48.0Y-32.0
X48.0Y-56.0
X48.0Y-80.0
X48.0Y-96.0
X49.387Y-42.651
X51.15Y-52.512
X53.487Y-73.398
X53.852Y-85.967
X56.0Y-32.0
X56.0Y-40.0
X56.0Y-48.0
X56.0Y-64.0
X56.0Y-72.0
X56.0Y-80.0
X56.0Y-88.0
X56.0Y-96.0
X59.373Y-65.346
X61.659Y-56.077
X62.51Y-85.989
X64.0Y-32.0
X64.0Y-40.0
X64.0Y-48.0
X64.0Y-80.0
X67.883Y-86.007
X70.882Y-55.476
X72.0Y-32.0
X72.0Y-48.0
X72.0Y-64.0
X72.0Y-72.0
X72.0Y-88.0
X72.0Y-96.0
X73.979Y-74.384
X74.889Y-65.039
X76.55Y-42.026
X76.556Y-85.999
X79.801Y-54.283
X80.0Y-32.0
X80.0Y-40.0
X80.0Y-64.0
X80.0Y-72.0
X80.0Y-96.0
X80.107Y-79.476
X85.694Y-84.162
X86.041Y-74.601
X88.0Y-32.0
X88.0Y-40.0
X88.0Y-48.0
X88.0Y-56.0
X88.0Y-64.0
X88.0Y-72.0
X88.0Y-88.0
X95.95Y-74.63
X96.0Y-32.0
X96.0Y-40.0
X96.0Y-48.0
X96.0Y-56.0
X96.0Y-64.0
X96.0Y-80.0
X96.0Y-88.0
X96.0Y-96.0
X98.562Y-72.301
X99.871Y-68.029
X102.987Y-80.592
X103.012Y-92.87
X104.0Y-32.0
X104.0Y-40.0
X104.0Y-48.0
X104.0Y-56.0
X104.0Y-64.0
X104.0Y-88.0
X105.123Y-69.066
X106.555Y-72.02
X106.642Y-97.437
X112.0Y-32.0
X112.0Y-40.0
X112.0Y-48.0
X112.0Y-56.0
X112.0Y-64.0
X112.0Y-80.0
X112.0Y-88.0
X117.102Y-96.479
X120.0Y-32.0
X120.0Y-40.0
X120.0Y-48.0
X120.0Y-56.0
X120.0Y-80.0
X120.0Y-88.0
X125.039Y-50.475
X125.459Y-61.408
X128.0Y-32.0
X128.0Y-40.0
X128.0Y-48.0
X128.0Y-72.0
X128.0Y-80.0
X131.568Y-47.892
X132.889Y-69.912
X136.0Y-32.0
X136.0Y-40.0
X136.0Y-64.0
X136.0Y-72.0
X136.0Y-80.0
X139.594Y-57.663
X142.355Y-42.583
X144.0Y-32.0
X144.0Y-48.0
X144.0Y-64.0
X144.0Y-72.0
X144.0Y-80.0
X144.0Y-96.0
X152.0Y-32.0
X152.0Y-40.0
X152.0Y-48.0
X152.0Y-64.0
X152.0Y-72.0
X152.0Y-80.0
X152.0Y-96.0
X158.509Y-44.395
X160.0Y-32.0
X160.0Y-40.0
X160.0Y-64.0
X160.0Y-72.0
X160.0Y-80.0
X160.0Y-88.0
X162.391Y-48.046
X167.301Y-42.172
X168.0Y-32.0
X168.0Y-48.0
X168.0Y-56.0
X168.0Y-64.0
X168.0Y-72.0
X168.0Y-80.0
X168.0Y-88.0
X168.0Y-96.0
X170.555Y-39.609
X171.146Y-49.401
X175.427Y-36.144
X176.0Y-32.0
X176.0Y-40.0
X176.0Y-48.0
X176.0Y-56.0
X176.0Y-64.0
X176.0Y-72.0
X176.0Y-80.0
X176.0Y-88.0
X176.0Y-96.0
X184.0Y-32.0
X184.0Y-40.0
X184.0Y-48.0
X184.0Y-56.0
X184.0Y-64.0
X184.0Y-72.0
X184.0Y-80.0
X184.0Y-88.0
X184.0Y-96.0
T3
X50.0Y-38.0
X52.5Y-38.0
X55.0Y-38.0
X64.0Y-97.0
X66.5Y-97.0
X69.0Y-97.0
X72.0Y-38.0
X74.5Y-38.0
X77.0Y-38.0
X84.0Y-97.0
X86.5Y-97.0
X89.0Y-97.0
X104.0Y-97.0
X106.5Y-97.0
X109.0Y-97.0
X124.0Y-97.0
X126.5Y-97.0
X129.0Y-97.0
X131.5Y-97.0
X134.0Y-97.0
X136.5Y-97.0
X142.0Y-38.0
X144.5Y-38.0
X147.0Y-38.0
X158.0Y-97.0
X160.5Y-97.0
X163.0Y-97.0
X164.0Y-38.0
X166.5Y-38.0
X169.0Y-38.0
T4
X38.0Y-56.08
X38.0Y-60.04
X38.0Y-64.0
T5
X36.0Y-36.0
X36.0Y-99.0
X184.0Y-36.0
X184.0Y-99.0
M30
