%TF.GenerationSoftware,KiCad,Pcbnew,10.0.3*%
%TF.CreationDate,2026-07-02T04:08:36-05:00*%
%TF.ProjectId,io-board,696f2d62-6f61-4726-942e-6b696361645f,rev?*%
%TF.SameCoordinates,Original*%
%TF.FileFunction,Copper,L1,Top*%
%TF.FilePolarity,Positive*%
%FSLAX46Y46*%
G04 Gerber Fmt 4.6, Leading zero omitted, Abs format (unit mm)*
G04 Created by KiCad (PCBNEW 10.0.3) date 2026-07-02 04:08:36*
%MOMM*%
%LPD*%
G01*
G04 APERTURE LIST*
G04 Aperture macros list*
%AMRoundRect*
0 Rectangle with rounded corners*
0 $1 Rounding radius*
0 $2 $3 $4 $5 $6 $7 $8 $9 X,Y pos of 4 corners*
0 Add a 4 corners polygon primitive as box body*
4,1,4,$2,$3,$4,$5,$6,$7,$8,$9,$2,$3,0*
0 Add four circle primitives for the rounded corners*
1,1,$1+$1,$2,$3*
1,1,$1+$1,$4,$5*
1,1,$1+$1,$6,$7*
1,1,$1+$1,$8,$9*
0 Add four rect primitives between the rounded corners*
20,1,$1+$1,$2,$3,$4,$5,0*
20,1,$1+$1,$4,$5,$6,$7,0*
20,1,$1+$1,$6,$7,$8,$9,0*
20,1,$1+$1,$8,$9,$2,$3,0*%
G04 Aperture macros list end*
%TA.AperFunction,SMDPad,CuDef*%
%ADD10RoundRect,0.150000X-0.825000X-0.150000X0.825000X-0.150000X0.825000X0.150000X-0.825000X0.150000X0*%
%TD*%
%TA.AperFunction,ComponentPad*%
%ADD11RoundRect,0.250000X-0.600000X-0.725000X0.600000X-0.725000X0.600000X0.725000X-0.600000X0.725000X0*%
%TD*%
%TA.AperFunction,ComponentPad*%
%ADD12O,1.700000X1.950000*%
%TD*%
%TA.AperFunction,SMDPad,CuDef*%
%ADD13RoundRect,0.250000X-0.262500X-0.450000X0.262500X-0.450000X0.262500X0.450000X-0.262500X0.450000X0*%
%TD*%
%TA.AperFunction,SMDPad,CuDef*%
%ADD14RoundRect,0.250000X-0.250000X-0.475000X0.250000X-0.475000X0.250000X0.475000X-0.250000X0.475000X0*%
%TD*%
%TA.AperFunction,ComponentPad*%
%ADD15RoundRect,0.250001X1.099999X-1.099999X1.099999X1.099999X-1.099999X1.099999X-1.099999X-1.099999X0*%
%TD*%
%TA.AperFunction,ComponentPad*%
%ADD16C,2.700000*%
%TD*%
%TA.AperFunction,SMDPad,CuDef*%
%ADD17RoundRect,0.250000X-0.325000X-1.100000X0.325000X-1.100000X0.325000X1.100000X-0.325000X1.100000X0*%
%TD*%
%TA.AperFunction,ViaPad*%
%ADD18C,0.600000*%
%TD*%
%TA.AperFunction,ViaPad*%
%ADD19C,0.800000*%
%TD*%
%TA.AperFunction,Conductor*%
%ADD20C,0.200000*%
%TD*%
%TA.AperFunction,Conductor*%
%ADD21C,0.800000*%
%TD*%
%TA.AperFunction,Conductor*%
%ADD22C,0.601000*%
%TD*%
%TA.AperFunction,Conductor*%
%ADD23C,0.250000*%
%TD*%
G04 APERTURE END LIST*
D10*
%TO.P,U3,1*%
%TO.N,N_HOT_L*%
X131525000Y-56095000D03*
%TO.P,U3,2*%
X131525000Y-57365000D03*
%TO.P,U3,3*%
%TO.N,L_BLEND*%
X131525000Y-58635000D03*
%TO.P,U3,4*%
%TO.N,-15VA*%
X131525000Y-59905000D03*
%TO.P,U3,5*%
%TO.N,AGND*%
X136475000Y-59905000D03*
%TO.P,U3,6*%
%TO.N,N_U3B_M*%
X136475000Y-58635000D03*
%TO.P,U3,7*%
%TO.N,N_COLD_L*%
X136475000Y-57365000D03*
%TO.P,U3,8*%
%TO.N,+15VA*%
X136475000Y-56095000D03*
%TD*%
D11*
%TO.P,P5,1*%
%TO.N,L_PROG*%
X124000000Y-97000000D03*
D12*
%TO.P,P5,2*%
%TO.N,WD_L_WIPER*%
X126500000Y-97000000D03*
%TO.P,P5,3*%
%TO.N,WET_SUM_L*%
X129000000Y-97000000D03*
%TO.P,P5,4*%
%TO.N,R_PROG*%
X131500000Y-97000000D03*
%TO.P,P5,5*%
%TO.N,WD_R_WIPER*%
X134000000Y-97000000D03*
%TO.P,P5,6*%
%TO.N,WET_SUM_R*%
X136500000Y-97000000D03*
%TD*%
D13*
%TO.P,R21,1*%
%TO.N,L_PROG*%
X45087500Y-72000000D03*
%TO.P,R21,2*%
%TO.N,DRY_L*%
X46912500Y-72000000D03*
%TD*%
%TO.P,R1,1*%
%TO.N,IN_BAL_L_P*%
X45087500Y-46000000D03*
%TO.P,R1,2*%
%TO.N,N_INL_P*%
X46912500Y-46000000D03*
%TD*%
D14*
%TO.P,C97,1*%
%TO.N,+15VA*%
X87050000Y-86000000D03*
%TO.P,C97,2*%
%TO.N,AGND*%
X88950000Y-86000000D03*
%TD*%
D13*
%TO.P,R35,1*%
%TO.N,L_BLEND*%
X94087500Y-82000000D03*
%TO.P,R35,2*%
%TO.N,N_U2A_M*%
X95912500Y-82000000D03*
%TD*%
%TO.P,R24,1*%
%TO.N,R_PROG*%
X66087500Y-72000000D03*
%TO.P,R24,2*%
%TO.N,WET_SEND_R*%
X67912500Y-72000000D03*
%TD*%
%TO.P,R53,1*%
%TO.N,R_BLEND*%
X151087500Y-46000000D03*
%TO.P,R53,2*%
%TO.N,N_U4B_M*%
X152912500Y-46000000D03*
%TD*%
%TO.P,R18,1*%
%TO.N,N_U1B_P*%
X96087500Y-54000000D03*
%TO.P,R18,2*%
%TO.N,AGND*%
X97912500Y-54000000D03*
%TD*%
D14*
%TO.P,C92,1*%
%TO.N,-15VA*%
X52050000Y-86000000D03*
%TO.P,C92,2*%
%TO.N,AGND*%
X53950000Y-86000000D03*
%TD*%
%TO.P,C96,1*%
%TO.N,-15VA*%
X80050000Y-86000000D03*
%TO.P,C96,2*%
%TO.N,AGND*%
X81950000Y-86000000D03*
%TD*%
D13*
%TO.P,R14,1*%
%TO.N,N_U1A_P*%
X66087500Y-54000000D03*
%TO.P,R14,2*%
%TO.N,AGND*%
X67912500Y-54000000D03*
%TD*%
D11*
%TO.P,P3,1*%
%TO.N,WET_SUM_L*%
X84000000Y-97000000D03*
D12*
%TO.P,P3,2*%
%TO.N,AGND*%
X86500000Y-97000000D03*
%TO.P,P3,3*%
%TO.N,WET_SUM_R*%
X89000000Y-97000000D03*
%TD*%
D13*
%TO.P,R13,1*%
%TO.N,N_INL_P*%
X59087500Y-54000000D03*
%TO.P,R13,2*%
%TO.N,N_U1A_P*%
X60912500Y-54000000D03*
%TD*%
%TO.P,R4,1*%
%TO.N,IN_BAL_R_N*%
X82087500Y-46000000D03*
%TO.P,R4,2*%
%TO.N,N_INR_N*%
X83912500Y-46000000D03*
%TD*%
%TO.P,R15,1*%
%TO.N,N_INR_N*%
X75087500Y-54000000D03*
%TO.P,R15,2*%
%TO.N,N_U1B_M*%
X76912500Y-54000000D03*
%TD*%
D10*
%TO.P,U4,1*%
%TO.N,N_HOT_R*%
X159525000Y-56095000D03*
%TO.P,U4,2*%
X159525000Y-57365000D03*
%TO.P,U4,3*%
%TO.N,R_BLEND*%
X159525000Y-58635000D03*
%TO.P,U4,4*%
%TO.N,-15VA*%
X159525000Y-59905000D03*
%TO.P,U4,5*%
%TO.N,AGND*%
X164475000Y-59905000D03*
%TO.P,U4,6*%
%TO.N,N_U4B_M*%
X164475000Y-58635000D03*
%TO.P,U4,7*%
%TO.N,N_COLD_R*%
X164475000Y-57365000D03*
%TO.P,U4,8*%
%TO.N,+15VA*%
X164475000Y-56095000D03*
%TD*%
D14*
%TO.P,C3,1*%
%TO.N,IN_BAL_R_P*%
X89050000Y-46000000D03*
%TO.P,C3,2*%
%TO.N,AGND*%
X90950000Y-46000000D03*
%TD*%
D13*
%TO.P,R17,1*%
%TO.N,N_INR_P*%
X89087500Y-54000000D03*
%TO.P,R17,2*%
%TO.N,N_U1B_P*%
X90912500Y-54000000D03*
%TD*%
D14*
%TO.P,C94,1*%
%TO.N,-15VA*%
X66050000Y-86000000D03*
%TO.P,C94,2*%
%TO.N,AGND*%
X67950000Y-86000000D03*
%TD*%
D13*
%TO.P,R23,1*%
%TO.N,R_PROG*%
X59087500Y-72000000D03*
%TO.P,R23,2*%
%TO.N,DRY_R*%
X60912500Y-72000000D03*
%TD*%
%TO.P,R50,1*%
%TO.N,N_COLD_L*%
X142087500Y-46000000D03*
%TO.P,R50,2*%
%TO.N,OUT_BAL_L_N*%
X143912500Y-46000000D03*
%TD*%
%TO.P,R43,1*%
%TO.N,L_BLEND*%
X121087500Y-46000000D03*
%TO.P,R43,2*%
%TO.N,N_U3B_M*%
X122912500Y-46000000D03*
%TD*%
%TO.P,R3,1*%
%TO.N,IN_BAL_R_P*%
X75087500Y-46000000D03*
%TO.P,R3,2*%
%TO.N,N_INR_P*%
X76912500Y-46000000D03*
%TD*%
D14*
%TO.P,C4,1*%
%TO.N,IN_BAL_R_N*%
X96050000Y-46000000D03*
%TO.P,C4,2*%
%TO.N,AGND*%
X97950000Y-46000000D03*
%TD*%
D15*
%TO.P,P1,1*%
%TO.N,+15VA*%
X38000000Y-64000000D03*
D16*
%TO.P,P1,2*%
%TO.N,AGND*%
X38000000Y-60040000D03*
%TO.P,P1,3*%
%TO.N,-15VA*%
X38000000Y-56080000D03*
%TD*%
D13*
%TO.P,R32,1*%
%TO.N,WD_R_WIPER*%
X101087500Y-82000000D03*
%TO.P,R32,2*%
%TO.N,N_U2B_M*%
X102912500Y-82000000D03*
%TD*%
D11*
%TO.P,J1,1*%
%TO.N,IN_BAL_L_P*%
X50000000Y-38000000D03*
D12*
%TO.P,J1,2*%
%TO.N,IN_BAL_L_N*%
X52500000Y-38000000D03*
%TO.P,J1,3*%
%TO.N,AGND*%
X55000000Y-38000000D03*
%TD*%
D13*
%TO.P,R22,1*%
%TO.N,L_PROG*%
X52087500Y-72000000D03*
%TO.P,R22,2*%
%TO.N,WET_SEND_L*%
X53912500Y-72000000D03*
%TD*%
D11*
%TO.P,P4,1*%
%TO.N,DRY_L*%
X104000000Y-97000000D03*
D12*
%TO.P,P4,2*%
%TO.N,AGND*%
X106500000Y-97000000D03*
%TO.P,P4,3*%
%TO.N,DRY_R*%
X109000000Y-97000000D03*
%TD*%
D11*
%TO.P,P2,1*%
%TO.N,WET_SEND_L*%
X64000000Y-97000000D03*
D12*
%TO.P,P2,2*%
%TO.N,AGND*%
X66500000Y-97000000D03*
%TO.P,P2,3*%
%TO.N,WET_SEND_R*%
X69000000Y-97000000D03*
%TD*%
D14*
%TO.P,C93,1*%
%TO.N,+15VA*%
X59050000Y-86000000D03*
%TO.P,C93,2*%
%TO.N,AGND*%
X60950000Y-86000000D03*
%TD*%
%TO.P,C95,1*%
%TO.N,+15VA*%
X73050000Y-86000000D03*
%TO.P,C95,2*%
%TO.N,AGND*%
X74950000Y-86000000D03*
%TD*%
D11*
%TO.P,J3,1*%
%TO.N,OUT_BAL_L_P*%
X142000000Y-38000000D03*
D12*
%TO.P,J3,2*%
%TO.N,OUT_BAL_L_N*%
X144500000Y-38000000D03*
%TO.P,J3,3*%
%TO.N,AGND*%
X147000000Y-38000000D03*
%TD*%
D13*
%TO.P,R16,1*%
%TO.N,R_RX*%
X82087500Y-54000000D03*
%TO.P,R16,2*%
%TO.N,N_U1B_M*%
X83912500Y-54000000D03*
%TD*%
%TO.P,R36,1*%
%TO.N,R_BLEND*%
X108087500Y-82000000D03*
%TO.P,R36,2*%
%TO.N,N_U2B_M*%
X109912500Y-82000000D03*
%TD*%
%TO.P,R44,1*%
%TO.N,N_COLD_L*%
X128087500Y-46000000D03*
%TO.P,R44,2*%
%TO.N,N_U3B_M*%
X129912500Y-46000000D03*
%TD*%
D11*
%TO.P,J4,1*%
%TO.N,OUT_BAL_R_P*%
X164000000Y-38000000D03*
D12*
%TO.P,J4,2*%
%TO.N,OUT_BAL_R_N*%
X166500000Y-38000000D03*
%TO.P,J4,3*%
%TO.N,AGND*%
X169000000Y-38000000D03*
%TD*%
D13*
%TO.P,R59,1*%
%TO.N,N_HOT_R*%
X165087500Y-46000000D03*
%TO.P,R59,2*%
%TO.N,OUT_BAL_R_P*%
X166912500Y-46000000D03*
%TD*%
%TO.P,R31,1*%
%TO.N,WD_L_WIPER*%
X87087500Y-82000000D03*
%TO.P,R31,2*%
%TO.N,N_U2A_M*%
X88912500Y-82000000D03*
%TD*%
%TO.P,R2,1*%
%TO.N,IN_BAL_L_N*%
X52087500Y-46000000D03*
%TO.P,R2,2*%
%TO.N,N_INL_N*%
X53912500Y-46000000D03*
%TD*%
D14*
%TO.P,C91,1*%
%TO.N,+15VA*%
X45050000Y-86000000D03*
%TO.P,C91,2*%
%TO.N,AGND*%
X46950000Y-86000000D03*
%TD*%
D13*
%TO.P,R49,1*%
%TO.N,N_HOT_L*%
X135087500Y-46000000D03*
%TO.P,R49,2*%
%TO.N,OUT_BAL_L_P*%
X136912500Y-46000000D03*
%TD*%
D17*
%TO.P,C99,1*%
%TO.N,+15VA*%
X112525000Y-72000000D03*
%TO.P,C99,2*%
%TO.N,AGND*%
X115475000Y-72000000D03*
%TD*%
D14*
%TO.P,C1,1*%
%TO.N,IN_BAL_L_P*%
X59050000Y-46000000D03*
%TO.P,C1,2*%
%TO.N,AGND*%
X60950000Y-46000000D03*
%TD*%
D13*
%TO.P,R54,1*%
%TO.N,N_COLD_R*%
X158087500Y-46000000D03*
%TO.P,R54,2*%
%TO.N,N_U4B_M*%
X159912500Y-46000000D03*
%TD*%
D11*
%TO.P,P6,1*%
%TO.N,L_RX*%
X158000000Y-97000000D03*
D12*
%TO.P,P6,2*%
%TO.N,MONO_C*%
X160500000Y-97000000D03*
%TO.P,P6,3*%
%TO.N,R_RX*%
X163000000Y-97000000D03*
%TD*%
D14*
%TO.P,C98,1*%
%TO.N,-15VA*%
X94050000Y-86000000D03*
%TO.P,C98,2*%
%TO.N,AGND*%
X95950000Y-86000000D03*
%TD*%
D11*
%TO.P,J2,1*%
%TO.N,IN_BAL_R_P*%
X72000000Y-38000000D03*
D12*
%TO.P,J2,2*%
%TO.N,IN_BAL_R_N*%
X74500000Y-38000000D03*
%TO.P,J2,3*%
%TO.N,AGND*%
X77000000Y-38000000D03*
%TD*%
D17*
%TO.P,C100,1*%
%TO.N,-15VA*%
X120525000Y-72000000D03*
%TO.P,C100,2*%
%TO.N,AGND*%
X123475000Y-72000000D03*
%TD*%
D13*
%TO.P,R11,1*%
%TO.N,N_INL_N*%
X45087500Y-54000000D03*
%TO.P,R11,2*%
%TO.N,N_U1A_M*%
X46912500Y-54000000D03*
%TD*%
D14*
%TO.P,C2,1*%
%TO.N,IN_BAL_L_N*%
X66050000Y-46000000D03*
%TO.P,C2,2*%
%TO.N,AGND*%
X67950000Y-46000000D03*
%TD*%
D13*
%TO.P,R60,1*%
%TO.N,N_COLD_R*%
X172087500Y-46000000D03*
%TO.P,R60,2*%
%TO.N,OUT_BAL_R_N*%
X173912500Y-46000000D03*
%TD*%
D10*
%TO.P,U2,1*%
%TO.N,L_BLEND*%
X97525000Y-70095000D03*
%TO.P,U2,2*%
%TO.N,N_U2A_M*%
X97525000Y-71365000D03*
%TO.P,U2,3*%
%TO.N,AGND*%
X97525000Y-72635000D03*
%TO.P,U2,4*%
%TO.N,-15VA*%
X97525000Y-73905000D03*
%TO.P,U2,5*%
%TO.N,AGND*%
X102475000Y-73905000D03*
%TO.P,U2,6*%
%TO.N,N_U2B_M*%
X102475000Y-72635000D03*
%TO.P,U2,7*%
%TO.N,R_BLEND*%
X102475000Y-71365000D03*
%TO.P,U2,8*%
%TO.N,+15VA*%
X102475000Y-70095000D03*
%TD*%
D13*
%TO.P,R12,1*%
%TO.N,L_RX*%
X52087500Y-54000000D03*
%TO.P,R12,2*%
%TO.N,N_U1A_M*%
X53912500Y-54000000D03*
%TD*%
D10*
%TO.P,U1,1*%
%TO.N,L_RX*%
X63525000Y-56190000D03*
%TO.P,U1,2*%
%TO.N,N_U1A_M*%
X63525000Y-57460000D03*
%TO.P,U1,3*%
%TO.N,N_U1A_P*%
X63525000Y-58730000D03*
%TO.P,U1,4*%
%TO.N,+15VA*%
X63525000Y-60000000D03*
%TO.P,U1,5*%
%TO.N,N_U1B_P*%
X63525000Y-61270000D03*
%TO.P,U1,6*%
%TO.N,N_U1B_M*%
X63525000Y-62540000D03*
%TO.P,U1,7*%
%TO.N,R_RX*%
X63525000Y-63810000D03*
%TO.P,U1,8*%
%TO.N,L_PROG*%
X68475000Y-63810000D03*
%TO.P,U1,9*%
X68475000Y-62540000D03*
%TO.P,U1,10*%
%TO.N,L_RX*%
X68475000Y-61270000D03*
%TO.P,U1,11*%
%TO.N,-15VA*%
X68475000Y-60000000D03*
%TO.P,U1,12*%
%TO.N,MONO_C*%
X68475000Y-58730000D03*
%TO.P,U1,13*%
%TO.N,R_PROG*%
X68475000Y-57460000D03*
%TO.P,U1,14*%
X68475000Y-56190000D03*
%TD*%
D18*
%TO.N,N_HOT_L*%
X132921000Y-48065500D03*
X133117600Y-55757500D03*
%TO.N,L_BLEND*%
X129513300Y-60006500D03*
X99800700Y-69976500D03*
X120384400Y-48698200D03*
%TO.N,-15VA*%
X70198200Y-60395100D03*
D19*
%TO.N,AGND*%
X104979079Y-80721368D03*
X120354496Y-96475856D03*
X64000000Y-32000000D03*
X112000000Y-40000000D03*
X169715413Y-47866893D03*
X80000000Y-88000000D03*
X120000000Y-32000000D03*
X32000000Y-32000000D03*
X88000000Y-40000000D03*
X40000000Y-96000000D03*
X184000000Y-64000000D03*
X184000000Y-32000000D03*
X32000000Y-88000000D03*
X152000000Y-32000000D03*
X120000000Y-80000000D03*
X160000000Y-88000000D03*
X80000000Y-64000000D03*
X184000000Y-88000000D03*
X56000000Y-48000000D03*
X89849757Y-84400037D03*
X144000000Y-72000000D03*
X168000000Y-72000000D03*
X128000000Y-32000000D03*
X40000000Y-72000000D03*
X176000000Y-72000000D03*
X93140407Y-97523632D03*
X129138122Y-56577480D03*
X96000000Y-56000000D03*
X168000000Y-80000000D03*
X88000000Y-48000000D03*
X128000000Y-48000000D03*
X46886360Y-86009450D03*
X75508991Y-57572921D03*
X58201226Y-65592112D03*
X88000000Y-56000000D03*
X136000000Y-64000000D03*
X71454855Y-55901128D03*
X128000000Y-40000000D03*
X96000000Y-40000000D03*
X88000000Y-32000000D03*
X120000000Y-40000000D03*
X96000000Y-88000000D03*
X160000000Y-72000000D03*
X80000000Y-40000000D03*
X80000000Y-32000000D03*
X144000000Y-96000000D03*
X112000000Y-48000000D03*
X152000000Y-80000000D03*
X100112020Y-74621486D03*
X84396294Y-85740488D03*
X89865854Y-80681456D03*
X111127812Y-79048590D03*
X175864387Y-35867530D03*
X184000000Y-48000000D03*
X32000000Y-56000000D03*
X64000000Y-80000000D03*
X144000000Y-64000000D03*
X176220439Y-36297971D03*
X136000000Y-88000000D03*
X160000000Y-64000000D03*
X96000000Y-48000000D03*
X76550453Y-42027698D03*
X56000000Y-32000000D03*
X48000000Y-32000000D03*
X104000000Y-64000000D03*
X80000000Y-96000000D03*
X163141984Y-47544640D03*
X65259343Y-73356083D03*
D18*
X163275000Y-59905000D03*
D19*
X40000000Y-40000000D03*
X56000000Y-72000000D03*
X112000000Y-32000000D03*
X32000000Y-72000000D03*
X176000000Y-88000000D03*
X140174198Y-44375991D03*
X184000000Y-80000000D03*
X144000000Y-88000000D03*
X128000000Y-72000000D03*
X152000000Y-40000000D03*
X32000000Y-80000000D03*
X76554022Y-85984472D03*
X85907661Y-59894295D03*
X168000000Y-64000000D03*
X112000000Y-56000000D03*
X56000000Y-80000000D03*
X83775597Y-69023802D03*
X32000000Y-48000000D03*
X120000000Y-88000000D03*
X32000000Y-40000000D03*
X96000000Y-32000000D03*
X144000000Y-48000000D03*
X49386001Y-42649816D03*
X56000000Y-96000000D03*
X56000000Y-40000000D03*
X72000000Y-32000000D03*
X176000000Y-56000000D03*
X48000000Y-80000000D03*
X152000000Y-64000000D03*
X136000000Y-48000000D03*
X160000000Y-40000000D03*
X152000000Y-96000000D03*
X72000000Y-64000000D03*
X184000000Y-56000000D03*
X48000000Y-56000000D03*
X168000000Y-32000000D03*
X40000000Y-32000000D03*
X32000000Y-64000000D03*
X176000000Y-32000000D03*
X136000000Y-32000000D03*
X128000000Y-88000000D03*
X160000000Y-32000000D03*
X64000000Y-48000000D03*
X144000000Y-32000000D03*
X162937406Y-42269776D03*
X88000000Y-80000000D03*
X64000000Y-40000000D03*
X184000000Y-96000000D03*
X128000000Y-80000000D03*
X50619773Y-51947124D03*
X176000000Y-80000000D03*
X184000000Y-72000000D03*
X120000000Y-56000000D03*
X176000000Y-64000000D03*
D18*
X137675000Y-59905000D03*
D19*
X40000000Y-80000000D03*
X168000000Y-88000000D03*
X104000000Y-32000000D03*
X104792689Y-72761563D03*
X104000000Y-40000000D03*
X40000000Y-88000000D03*
X72000000Y-48000000D03*
X168000000Y-96000000D03*
X168000000Y-56000000D03*
X129803003Y-60938377D03*
X40000000Y-48000000D03*
X136000000Y-80000000D03*
X176000000Y-96000000D03*
X152000000Y-72000000D03*
X105895597Y-97462487D03*
X176000000Y-48000000D03*
X56000000Y-64000000D03*
X53038728Y-73113545D03*
X96000000Y-64000000D03*
X160000000Y-80000000D03*
X152000000Y-48000000D03*
X104000000Y-88000000D03*
X104000000Y-56000000D03*
X80000000Y-80000000D03*
X109826527Y-72658277D03*
X48000000Y-96000000D03*
X176000000Y-40000000D03*
X148182139Y-57403678D03*
X62434634Y-85953163D03*
X104000000Y-48000000D03*
X32000000Y-96000000D03*
X136000000Y-40000000D03*
X112000000Y-88000000D03*
X70506322Y-85752574D03*
X112000000Y-64000000D03*
X184000000Y-40000000D03*
X91837124Y-67569236D03*
X72000000Y-96000000D03*
X72000000Y-80000000D03*
X55420692Y-85938921D03*
X48000000Y-64000000D03*
X41952759Y-76529747D03*
D18*
%TO.N,N_U3B_M*%
X135217900Y-53739100D03*
X134719300Y-57506200D03*
%TO.N,N_COLD_L*%
X138184600Y-51590600D03*
X138359300Y-56618900D03*
%TO.N,L_PROG*%
X90708400Y-71681500D03*
%TO.N,WD_L_WIPER*%
X94355600Y-72008900D03*
%TO.N,R_PROG*%
X66944800Y-70900300D03*
X66480700Y-61244700D03*
%TO.N,WD_R_WIPER*%
X102359800Y-80159200D03*
%TO.N,DRY_L*%
X69950500Y-72681200D03*
%TO.N,IN_BAL_L_P*%
X57574700Y-46131800D03*
%TO.N,WET_SEND_R*%
X66983800Y-74729800D03*
%TO.N,N_INR_N*%
X77613200Y-52824000D03*
X85346700Y-45990900D03*
%TO.N,N_COLD_R*%
X162689900Y-57080700D03*
X168941800Y-46790900D03*
%TO.N,DRY_R*%
X61979900Y-71978800D03*
%TO.N,WET_SEND_L*%
X55117000Y-74729800D03*
%TO.N,R_RX*%
X119786500Y-62599400D03*
%TO.N,OUT_BAL_R_P*%
X168378900Y-46161600D03*
%TO.N,L_RX*%
X65737000Y-56379000D03*
X71289900Y-60671000D03*
%TO.N,MONO_C*%
X71618200Y-58972600D03*
%TD*%
%TO.N,N_HOT_L*%
D20*
X133022000Y-48065500D02*
X135087500Y-46000000D01*
X132780100Y-56095000D02*
X133117600Y-55757500D01*
X132921000Y-48065500D02*
X133022000Y-48065500D01*
X131525000Y-56095000D02*
X132780100Y-56095000D01*
X131525000Y-57365000D02*
X131525000Y-56095000D01*
%TO.N,L_BLEND*%
X121087500Y-47995100D02*
X121087500Y-46000000D01*
X99800700Y-69976500D02*
X99682200Y-70095000D01*
X130884800Y-58635000D02*
X129513300Y-60006500D01*
X99682200Y-70095000D02*
X97525000Y-70095000D01*
X94087500Y-73127900D02*
X97120300Y-70095100D01*
X120384400Y-48698200D02*
X121087500Y-47995100D01*
X97120300Y-70095000D02*
X97525000Y-70095000D01*
X131525000Y-58635000D02*
X130884800Y-58635000D01*
X94087500Y-82000000D02*
X94087500Y-73127900D01*
X97120300Y-70095100D02*
X97120300Y-70095000D01*
%TO.N,-15VA*%
D21*
X158608400Y-60821600D02*
X131703400Y-60821600D01*
X48554900Y-86325900D02*
X48554900Y-86325800D01*
X38000000Y-56080000D02*
X36021400Y-58058600D01*
X53346900Y-87327700D02*
X52375900Y-86356700D01*
X80050000Y-86108200D02*
X78830500Y-87327700D01*
X98866100Y-83680600D02*
X97575800Y-82390300D01*
X66375800Y-86325800D02*
X66050000Y-86000000D01*
X52375800Y-86325800D02*
X52050000Y-86000000D01*
X120525000Y-73345100D02*
X110139200Y-83730900D01*
X101856700Y-83680600D02*
X98866100Y-83680600D01*
X51724200Y-86325800D02*
X52050000Y-86000000D01*
X66050000Y-86000000D02*
X64722300Y-87327700D01*
X67346900Y-87327700D02*
X66375900Y-86356700D01*
X94050000Y-85916100D02*
X97575800Y-82390300D01*
X101907000Y-83730900D02*
X101856700Y-83680600D01*
X70198200Y-60395100D02*
X70198200Y-60369200D01*
X44370800Y-87327700D02*
X47553100Y-87327700D01*
X78830500Y-87327700D02*
X67346900Y-87327700D01*
X94050000Y-86000000D02*
X94050000Y-85916100D01*
X120525000Y-72000000D02*
X120525000Y-73345100D01*
X80050000Y-86108200D02*
X80050000Y-86000000D01*
X97575800Y-73955800D02*
X97525000Y-73905000D01*
X131703400Y-60821600D02*
X120525000Y-72000000D01*
X131703400Y-60821600D02*
X131703400Y-60083400D01*
X92675900Y-87374100D02*
X81315900Y-87374100D01*
D22*
X68844200Y-60369200D02*
X68475000Y-60000000D01*
D21*
X81315900Y-87374100D02*
X80050000Y-86108200D01*
X36021400Y-58058600D02*
X36021400Y-78978300D01*
X64722300Y-87327700D02*
X53346900Y-87327700D01*
X110139200Y-83730900D02*
X101907000Y-83730900D01*
X36021400Y-78978300D02*
X44370800Y-87327700D01*
X94050000Y-86000000D02*
X92675900Y-87374100D01*
X159525000Y-59905000D02*
X158608400Y-60821600D01*
X131703400Y-60083400D02*
X131525000Y-59905000D01*
X52375900Y-86325800D02*
X52375800Y-86325800D01*
D22*
X70198200Y-60369200D02*
X68844200Y-60369200D01*
D21*
X48554900Y-86325800D02*
X51724200Y-86325800D01*
X66375900Y-86325800D02*
X66375800Y-86325800D01*
X97575800Y-82390300D02*
X97575800Y-73955800D01*
X47553100Y-87327700D02*
X48554900Y-86325900D01*
X52375900Y-86356700D02*
X52375900Y-86325800D01*
X66375900Y-86356700D02*
X66375900Y-86325800D01*
%TO.N,AGND*%
D23*
X136475000Y-59905000D02*
X137675000Y-59905000D01*
X164475000Y-59905000D02*
X163275000Y-59905000D01*
%TO.N,N_U3B_M*%
D20*
X135848100Y-58635000D02*
X134719300Y-57506200D01*
X129912500Y-46381400D02*
X129284500Y-47009400D01*
X129284500Y-47009400D02*
X123921900Y-47009400D01*
X123921900Y-47009400D02*
X122912500Y-46000000D01*
X135217900Y-53739100D02*
X135217900Y-52942800D01*
X135217900Y-52942800D02*
X129284500Y-47009400D01*
X136475000Y-58635000D02*
X135848100Y-58635000D01*
X129912500Y-46000000D02*
X129912500Y-46381400D01*
%TO.N,N_COLD_L*%
X138184600Y-51590600D02*
X138184600Y-50813100D01*
X136475000Y-57365000D02*
X137613200Y-57365000D01*
X142087500Y-46000000D02*
X142087500Y-46910200D01*
X130380400Y-44947000D02*
X129140500Y-44947000D01*
X129140500Y-44947000D02*
X128087500Y-46000000D01*
X137613200Y-57365000D02*
X138359300Y-56618900D01*
X130850900Y-45417500D02*
X130380400Y-44947000D01*
X142087500Y-46910200D02*
X138184600Y-50813100D01*
X130850900Y-46851500D02*
X130850900Y-45417500D01*
X138184600Y-50813100D02*
X134812500Y-50813100D01*
X134812500Y-50813100D02*
X130850900Y-46851500D01*
%TO.N,+15VA*%
D21*
X43564400Y-64000000D02*
X38000000Y-64000000D01*
X74299000Y-84633200D02*
X73050000Y-85882200D01*
X87050000Y-86000000D02*
X85953600Y-84903600D01*
X96014600Y-69074800D02*
X101454800Y-69074800D01*
X112525000Y-70464200D02*
X112525000Y-72000000D01*
D22*
X113077700Y-70464200D02*
X112525000Y-70464200D01*
D21*
X135221500Y-54841500D02*
X136475000Y-56095000D01*
X43564400Y-81942100D02*
X46294600Y-84672300D01*
X164475000Y-56095000D02*
X163571500Y-55191500D01*
X137378500Y-55191500D02*
X136475000Y-56095000D01*
X113077700Y-70464200D02*
X113196900Y-70464200D01*
X46294600Y-84672300D02*
X45050000Y-85916900D01*
X101454800Y-69074800D02*
X102475000Y-70095000D01*
X71840100Y-84672300D02*
X59050000Y-84672300D01*
D22*
X112525000Y-70464200D02*
X102844200Y-70464200D01*
D21*
X163571500Y-55191500D02*
X137378500Y-55191500D01*
X63525000Y-60000000D02*
X47564400Y-60000000D01*
D22*
X102844200Y-70464200D02*
X102475000Y-70095000D01*
D21*
X85953600Y-84633200D02*
X74299000Y-84633200D01*
X73050000Y-85882200D02*
X73050000Y-86000000D01*
X47564400Y-60000000D02*
X43564400Y-64000000D01*
X59050000Y-84672300D02*
X59050000Y-86000000D01*
X59050000Y-84672300D02*
X46294600Y-84672300D01*
X113196900Y-70464200D02*
X128819600Y-54841500D01*
X45050000Y-85916900D02*
X45050000Y-86000000D01*
X85953600Y-84903600D02*
X85953600Y-84633200D01*
X85953600Y-79135800D02*
X96014600Y-69074800D01*
X85953600Y-84633200D02*
X85953600Y-79135800D01*
X128819600Y-54841500D02*
X135221500Y-54841500D01*
X73050000Y-85882200D02*
X71840100Y-84672300D01*
X43564400Y-64000000D02*
X43564400Y-81942100D01*
%TO.N,L_PROG*%
D20*
X76346500Y-71681500D02*
X90708400Y-71681500D01*
X62831100Y-69453900D02*
X54633600Y-69453900D01*
X46096900Y-70990600D02*
X45087500Y-72000000D01*
X52087500Y-72000000D02*
X51078100Y-70990600D01*
X68475000Y-63810000D02*
X62831100Y-69453900D01*
X54633600Y-69453900D02*
X52087500Y-72000000D01*
X68475000Y-63810000D02*
X76346500Y-71681500D01*
X51078100Y-70990600D02*
X46096900Y-70990600D01*
X68475000Y-62540000D02*
X68475000Y-63810000D01*
%TO.N,WD_L_WIPER*%
X87087500Y-82000000D02*
X87087500Y-79550400D01*
X94355600Y-72282300D02*
X94355600Y-72008900D01*
X87087500Y-79550400D02*
X94355600Y-72282300D01*
%TO.N,WET_SUM_L*%
X129000000Y-97000000D02*
X127848300Y-97000000D01*
X127848300Y-97000000D02*
X127848300Y-96568100D01*
X127848300Y-96568100D02*
X126985800Y-95705600D01*
X126985800Y-95705600D02*
X85294400Y-95705600D01*
X85294400Y-95705600D02*
X84000000Y-97000000D01*
%TO.N,R_PROG*%
X66944800Y-70900300D02*
X66087500Y-71757600D01*
X66480700Y-61244700D02*
X66480700Y-59042900D01*
X66087500Y-71757600D02*
X66087500Y-72000000D01*
X60097100Y-70990400D02*
X59087500Y-72000000D01*
X66087500Y-71757600D02*
X65320300Y-70990400D01*
X65320300Y-70990400D02*
X60097100Y-70990400D01*
X68063600Y-57460000D02*
X68475000Y-57460000D01*
X66480700Y-59042900D02*
X68063600Y-57460000D01*
X68475000Y-56190000D02*
X68475000Y-57460000D01*
%TO.N,WD_R_WIPER*%
X102359800Y-80727700D02*
X102359800Y-80159200D01*
X101087500Y-82000000D02*
X102359800Y-80727700D01*
%TO.N,WET_SUM_R*%
X134458700Y-98295100D02*
X91446800Y-98295100D01*
X135348300Y-97000000D02*
X135348300Y-97405500D01*
X91446800Y-98295100D02*
X90151700Y-97000000D01*
X135348300Y-97405500D02*
X134458700Y-98295100D01*
X136500000Y-97000000D02*
X135348300Y-97000000D01*
X89000000Y-97000000D02*
X90151700Y-97000000D01*
%TO.N,DRY_L*%
X67264100Y-75367600D02*
X69950500Y-72681200D01*
X50280100Y-75367600D02*
X67264100Y-75367600D01*
X46912500Y-72000000D02*
X50280100Y-75367600D01*
%TO.N,IN_BAL_L_P*%
X57574700Y-46131800D02*
X58918200Y-46131800D01*
X45087500Y-42912500D02*
X50000000Y-38000000D01*
X58918200Y-46131800D02*
X59050000Y-46000000D01*
X45087500Y-46000000D02*
X45087500Y-42912500D01*
%TO.N,N_INL_P*%
X59087500Y-54000000D02*
X53895900Y-48808400D01*
X53895900Y-48808400D02*
X49720900Y-48808400D01*
X49720900Y-48808400D02*
X46912500Y-46000000D01*
%TO.N,N_U2A_M*%
X94881500Y-83031000D02*
X89943500Y-83031000D01*
X95912500Y-72630300D02*
X95912500Y-82000000D01*
X95912500Y-82000000D02*
X94881500Y-83031000D01*
X97525000Y-71365000D02*
X97177800Y-71365000D01*
X97177800Y-71365000D02*
X95912500Y-72630300D01*
X89943500Y-83031000D02*
X88912500Y-82000000D01*
%TO.N,WET_SEND_R*%
X66983800Y-72928700D02*
X66983800Y-74729800D01*
X67912500Y-72000000D02*
X66983800Y-72928700D01*
%TO.N,R_BLEND*%
X108087500Y-74541600D02*
X108087500Y-82000000D01*
X167835400Y-38618200D02*
X167835400Y-37563600D01*
X133590600Y-58000000D02*
X130503400Y-58000000D01*
X160942900Y-58635000D02*
X162850300Y-60542400D01*
X173244100Y-44026900D02*
X167835400Y-38618200D01*
X104910900Y-71365000D02*
X108087500Y-74541600D01*
X102475000Y-71365000D02*
X104910900Y-71365000D01*
X160367800Y-36719700D02*
X151087500Y-46000000D01*
X134860600Y-59270000D02*
X133590600Y-58000000D01*
X174743000Y-45292100D02*
X173477800Y-44026900D01*
X159525000Y-58635000D02*
X158890000Y-59270000D01*
X165455700Y-60542400D02*
X174743000Y-51255100D01*
X167835400Y-37563600D02*
X166991500Y-36719700D01*
X173477800Y-44026900D02*
X173244100Y-44026900D01*
X128377100Y-61319300D02*
X115154800Y-74541600D01*
X115154800Y-74541600D02*
X108087500Y-74541600D01*
X166991500Y-36719700D02*
X160367800Y-36719700D01*
X128377100Y-60126300D02*
X128377100Y-61319300D01*
X162850300Y-60542400D02*
X165455700Y-60542400D01*
X174743000Y-51255100D02*
X174743000Y-45292100D01*
X158890000Y-59270000D02*
X134860600Y-59270000D01*
X130503400Y-58000000D02*
X128377100Y-60126300D01*
X159525000Y-58635000D02*
X160942900Y-58635000D01*
%TO.N,N_U4B_M*%
X158885000Y-47027500D02*
X153940000Y-47027500D01*
X153940000Y-47027500D02*
X152912500Y-46000000D01*
X158885000Y-47027500D02*
X165788100Y-53930600D01*
X165788100Y-57747800D02*
X164900900Y-58635000D01*
X159912500Y-46000000D02*
X158885000Y-47027500D01*
X165788100Y-53930600D02*
X165788100Y-57747800D01*
X164900900Y-58635000D02*
X164475000Y-58635000D01*
%TO.N,N_U1B_P*%
X67000000Y-53415900D02*
X67000000Y-56534900D01*
X65932100Y-57602800D02*
X65932100Y-59237800D01*
X90912500Y-54000000D02*
X89853600Y-55058900D01*
X96087500Y-54000000D02*
X90912500Y-54000000D01*
X63899900Y-61270000D02*
X63525000Y-61270000D01*
X68222000Y-52193900D02*
X67000000Y-53415900D01*
X89853600Y-55058900D02*
X88129800Y-55058900D01*
X65932100Y-59237800D02*
X63899900Y-61270000D01*
X88129800Y-55058900D02*
X85264800Y-52193900D01*
X85264800Y-52193900D02*
X68222000Y-52193900D01*
X67000000Y-56534900D02*
X65932100Y-57602800D01*
%TO.N,N_U1A_P*%
X66338700Y-56628200D02*
X66338700Y-54251200D01*
X63525000Y-58730000D02*
X64213700Y-58730000D01*
X65963000Y-56980700D02*
X65986200Y-56980700D01*
X66087500Y-54000000D02*
X60912500Y-54000000D01*
X65986200Y-56980700D02*
X66338700Y-56628200D01*
X66338700Y-54251200D02*
X66087500Y-54000000D01*
X64213700Y-58730000D02*
X65963000Y-56980700D01*
%TO.N,IN_BAL_R_N*%
X82087500Y-46000000D02*
X82087500Y-44926900D01*
X94976900Y-44926900D02*
X96050000Y-46000000D01*
X82087500Y-44926900D02*
X94976900Y-44926900D01*
X74500000Y-38000000D02*
X75651700Y-38000000D01*
X75651700Y-38491100D02*
X82087500Y-44926900D01*
X75651700Y-38000000D02*
X75651700Y-38491100D01*
%TO.N,N_INR_N*%
X85337600Y-46000000D02*
X85346700Y-45990900D01*
X76263500Y-52824000D02*
X77613200Y-52824000D01*
X75087500Y-54000000D02*
X76263500Y-52824000D01*
X83912500Y-46000000D02*
X85337600Y-46000000D01*
%TO.N,N_U1B_M*%
X71159800Y-59365000D02*
X67493200Y-59365000D01*
X71369100Y-59574300D02*
X71159800Y-59365000D01*
X76912500Y-54000000D02*
X76912500Y-54529200D01*
X66067500Y-62540000D02*
X63525000Y-62540000D01*
X67083700Y-59774500D02*
X67083700Y-61523800D01*
X67083700Y-61523800D02*
X66067500Y-62540000D01*
X71867400Y-59574300D02*
X71369100Y-59574300D01*
X76912500Y-54000000D02*
X78819100Y-54000000D01*
X76912500Y-54529200D02*
X71867400Y-59574300D01*
X67493200Y-59365000D02*
X67083700Y-59774500D01*
X79838400Y-52980700D02*
X82893200Y-52980700D01*
X78819100Y-54000000D02*
X79838400Y-52980700D01*
X82893200Y-52980700D02*
X83912500Y-54000000D01*
%TO.N,N_HOT_R*%
X163480500Y-59270000D02*
X165455400Y-59270000D01*
X161575500Y-57365000D02*
X163480500Y-59270000D01*
X159525000Y-57365000D02*
X159525000Y-56095000D01*
X166221600Y-58503800D02*
X166221600Y-47134100D01*
X165455400Y-59270000D02*
X166221600Y-58503800D01*
X166221600Y-47134100D02*
X165087500Y-46000000D01*
X159525000Y-57365000D02*
X161575500Y-57365000D01*
%TO.N,N_COLD_R*%
X168980700Y-45873500D02*
X168096400Y-44989200D01*
X162974200Y-57365000D02*
X162689900Y-57080700D01*
X168096400Y-44989200D02*
X159098300Y-44989200D01*
X168980700Y-46752000D02*
X168980700Y-46000000D01*
X159098300Y-44989200D02*
X158087500Y-46000000D01*
X168941800Y-46790900D02*
X168980700Y-46752000D01*
X168980700Y-46000000D02*
X168980700Y-45873500D01*
X164475000Y-57365000D02*
X162974200Y-57365000D01*
X172087500Y-46000000D02*
X168980700Y-46000000D01*
%TO.N,IN_BAL_R_P*%
X72000000Y-40907100D02*
X76090200Y-44997300D01*
X75087500Y-46000000D02*
X76090200Y-44997300D01*
X88029000Y-47021000D02*
X89050000Y-46000000D01*
X77834200Y-44997300D02*
X79857900Y-47021000D01*
X76090200Y-44997300D02*
X77834200Y-44997300D01*
X72000000Y-38000000D02*
X72000000Y-40907100D01*
X79857900Y-47021000D02*
X88029000Y-47021000D01*
%TO.N,N_INR_P*%
X89087500Y-54000000D02*
X84836500Y-49749000D01*
X84836500Y-49749000D02*
X80661500Y-49749000D01*
X80661500Y-49749000D02*
X76912500Y-46000000D01*
%TO.N,DRY_R*%
X61979900Y-71978800D02*
X60933700Y-71978800D01*
X60933700Y-71978800D02*
X60912500Y-72000000D01*
%TO.N,OUT_BAL_L_N*%
X144500000Y-45412500D02*
X144500000Y-38000000D01*
X143912500Y-46000000D02*
X144500000Y-45412500D01*
%TO.N,N_U2B_M*%
X103767700Y-73530000D02*
X103767700Y-81144800D01*
X103767700Y-81144800D02*
X102912500Y-82000000D01*
X102872700Y-72635000D02*
X103767700Y-73530000D01*
X102475000Y-72635000D02*
X102872700Y-72635000D01*
X109912500Y-82000000D02*
X108900500Y-83012000D01*
X108900500Y-83012000D02*
X103924500Y-83012000D01*
X103924500Y-83012000D02*
X102912500Y-82000000D01*
%TO.N,IN_BAL_L_N*%
X64961600Y-44911600D02*
X66050000Y-46000000D01*
X53175900Y-44911600D02*
X64961600Y-44911600D01*
X53175900Y-39952600D02*
X53175900Y-44911600D01*
X52500000Y-38000000D02*
X52500000Y-39276700D01*
X52500000Y-39276700D02*
X53175900Y-39952600D01*
X52087500Y-46000000D02*
X53175900Y-44911600D01*
%TO.N,WET_SEND_L*%
X53912500Y-72000000D02*
X55117000Y-73204500D01*
X55117000Y-73204500D02*
X55117000Y-74729800D01*
%TO.N,OUT_BAL_L_P*%
X136912500Y-46000000D02*
X142000000Y-40912500D01*
X142000000Y-40912500D02*
X142000000Y-38000000D01*
%TO.N,R_RX*%
X67382900Y-61905100D02*
X74182400Y-61905100D01*
X82087500Y-54000000D02*
X90686900Y-62599400D01*
X63525000Y-63810000D02*
X65478000Y-63810000D01*
X74182400Y-61905100D02*
X82087500Y-54000000D01*
X65478000Y-63810000D02*
X67382900Y-61905100D01*
X90686900Y-62599400D02*
X119786500Y-62599400D01*
%TO.N,OUT_BAL_R_P*%
X166912500Y-46000000D02*
X168217300Y-46000000D01*
X168217300Y-46000000D02*
X168378900Y-46161600D01*
%TO.N,OUT_BAL_R_N*%
X173912500Y-46000000D02*
X167189200Y-39276700D01*
X166500000Y-38000000D02*
X166500000Y-39276700D01*
X167189200Y-39276700D02*
X166500000Y-39276700D01*
%TO.N,N_INL_N*%
X53912500Y-46000000D02*
X52907900Y-47004600D01*
X47496200Y-44969000D02*
X46409500Y-44969000D01*
X46000000Y-45378500D02*
X46000000Y-53087500D01*
X49531800Y-47004600D02*
X47496200Y-44969000D01*
X46409500Y-44969000D02*
X46000000Y-45378500D01*
X52907900Y-47004600D02*
X49531800Y-47004600D01*
X46000000Y-53087500D02*
X45087500Y-54000000D01*
%TO.N,L_RX*%
X65548000Y-56190000D02*
X63525000Y-56190000D01*
X53116900Y-52970600D02*
X56133800Y-52970600D01*
X59353200Y-56190000D02*
X63525000Y-56190000D01*
X70690900Y-61270000D02*
X71289900Y-60671000D01*
X65737000Y-56379000D02*
X65548000Y-56190000D01*
X52087500Y-54000000D02*
X53116900Y-52970600D01*
X56133800Y-52970600D02*
X59353200Y-56190000D01*
X68475000Y-61270000D02*
X70690900Y-61270000D01*
%TO.N,MONO_C*%
X68475000Y-58730000D02*
X71375600Y-58730000D01*
X71375600Y-58730000D02*
X71618200Y-58972600D01*
%TO.N,N_U1A_M*%
X63525000Y-57460000D02*
X57372500Y-57460000D01*
X52897500Y-55015000D02*
X47927500Y-55015000D01*
X47927500Y-55015000D02*
X46912500Y-54000000D01*
X57372500Y-57460000D02*
X53912500Y-54000000D01*
X53912500Y-54000000D02*
X52897500Y-55015000D01*
%TD*%
%TA.AperFunction,Conductor*%
%TO.N,AGND*%
G36*
X102595788Y-96225054D02*
G01*
X102676570Y-96279030D01*
X102730546Y-96359812D01*
X102749500Y-96455100D01*
X102749500Y-97545600D01*
X102730546Y-97640888D01*
X102676570Y-97721670D01*
X102595788Y-97775646D01*
X102500500Y-97794600D01*
X91757254Y-97794600D01*
X91661966Y-97775646D01*
X91581184Y-97721670D01*
X91040676Y-97181162D01*
X90490680Y-96631166D01*
X90436707Y-96550388D01*
X90417753Y-96455100D01*
X90436707Y-96359812D01*
X90490683Y-96279030D01*
X90571465Y-96225054D01*
X90666753Y-96206100D01*
X102500500Y-96206100D01*
X102595788Y-96225054D01*
G37*
%TD.AperFunction*%
%TA.AperFunction,Conductor*%
G36*
X107598001Y-96213705D02*
G01*
X107636711Y-96218287D01*
X107645346Y-96223123D01*
X107655054Y-96225054D01*
X107687468Y-96246712D01*
X107721479Y-96265759D01*
X107727605Y-96273530D01*
X107735836Y-96279030D01*
X107757494Y-96311445D01*
X107781627Y-96342057D01*
X107784313Y-96351582D01*
X107789812Y-96359812D01*
X107797417Y-96398047D01*
X107807998Y-96435564D01*
X107806834Y-96445391D01*
X107808766Y-96455100D01*
X107796579Y-96532045D01*
X107780290Y-96582177D01*
X107749501Y-96776571D01*
X107749500Y-96776587D01*
X107749500Y-97223412D01*
X107749501Y-97223428D01*
X107780289Y-97417819D01*
X107796807Y-97468656D01*
X107808225Y-97565138D01*
X107781853Y-97658645D01*
X107721704Y-97734942D01*
X107636937Y-97782414D01*
X107559993Y-97794600D01*
X105499500Y-97794600D01*
X105404212Y-97775646D01*
X105323430Y-97721670D01*
X105269454Y-97640888D01*
X105250500Y-97545600D01*
X105250500Y-96455100D01*
X105269454Y-96359812D01*
X105323430Y-96279030D01*
X105404212Y-96225054D01*
X105499500Y-96206100D01*
X107559766Y-96206100D01*
X107598001Y-96213705D01*
G37*
%TD.AperFunction*%
%TA.AperFunction,Conductor*%
G36*
X122595788Y-96225054D02*
G01*
X122676570Y-96279030D01*
X122730546Y-96359812D01*
X122749500Y-96455100D01*
X122749500Y-97545600D01*
X122730546Y-97640888D01*
X122676570Y-97721670D01*
X122595788Y-97775646D01*
X122500500Y-97794600D01*
X110440007Y-97794600D01*
X110344719Y-97775646D01*
X110263937Y-97721670D01*
X110209961Y-97640888D01*
X110191007Y-97545600D01*
X110203193Y-97468656D01*
X110219709Y-97417826D01*
X110250500Y-97223417D01*
X110250500Y-96776583D01*
X110219709Y-96582174D01*
X110203420Y-96532044D01*
X110192002Y-96435564D01*
X110218373Y-96342057D01*
X110278521Y-96265759D01*
X110363289Y-96218287D01*
X110440234Y-96206100D01*
X122500500Y-96206100D01*
X122595788Y-96225054D01*
G37*
%TD.AperFunction*%
%TA.AperFunction,Conductor*%
G36*
X85343770Y-85452654D02*
G01*
X85424552Y-85506630D01*
X86066452Y-86148530D01*
X86120428Y-86229312D01*
X86139382Y-86324600D01*
X86120428Y-86419888D01*
X86066452Y-86500670D01*
X85985670Y-86554646D01*
X85890382Y-86573600D01*
X81750618Y-86573600D01*
X81655330Y-86554646D01*
X81574548Y-86500670D01*
X81023430Y-85949552D01*
X80969454Y-85868770D01*
X80950500Y-85773482D01*
X80950500Y-85682700D01*
X80969454Y-85587412D01*
X81023430Y-85506630D01*
X81104212Y-85452654D01*
X81199500Y-85433700D01*
X85248482Y-85433700D01*
X85343770Y-85452654D01*
G37*
%TD.AperFunction*%
%TA.AperFunction,Conductor*%
G36*
X88095288Y-82842039D02*
G01*
X88176066Y-82896012D01*
X88248135Y-82968081D01*
X88389602Y-83051744D01*
X88547431Y-83097598D01*
X88584306Y-83100500D01*
X88584308Y-83100500D01*
X89202047Y-83100500D01*
X89297335Y-83119454D01*
X89378117Y-83173430D01*
X89542998Y-83338311D01*
X89543000Y-83338314D01*
X89636186Y-83431500D01*
X89750314Y-83497392D01*
X89877607Y-83531500D01*
X94701382Y-83531500D01*
X94796670Y-83550454D01*
X94877452Y-83604430D01*
X94931428Y-83685212D01*
X94950382Y-83780500D01*
X94931428Y-83875788D01*
X94877452Y-83956570D01*
X94032452Y-84801570D01*
X93951670Y-84855546D01*
X93856382Y-84874500D01*
X93734295Y-84874500D01*
X93697436Y-84877401D01*
X93697427Y-84877403D01*
X93539601Y-84923256D01*
X93398135Y-85006919D01*
X93281919Y-85123135D01*
X93198256Y-85264601D01*
X93152403Y-85422427D01*
X93152401Y-85422436D01*
X93149500Y-85459295D01*
X93149500Y-85665282D01*
X93130546Y-85760570D01*
X93076570Y-85841352D01*
X92417252Y-86500670D01*
X92336470Y-86554646D01*
X92241182Y-86573600D01*
X88199500Y-86573600D01*
X88104212Y-86554646D01*
X88023430Y-86500670D01*
X87969454Y-86419888D01*
X87950500Y-86324600D01*
X87950500Y-85459308D01*
X87950499Y-85459295D01*
X87949976Y-85452654D01*
X87947598Y-85422431D01*
X87901744Y-85264602D01*
X87818081Y-85123135D01*
X87701865Y-85006919D01*
X87560398Y-84923256D01*
X87402569Y-84877402D01*
X87402566Y-84877401D01*
X87402563Y-84877401D01*
X87365704Y-84874500D01*
X87365694Y-84874500D01*
X87159718Y-84874500D01*
X87064430Y-84855546D01*
X86983648Y-84801570D01*
X86827030Y-84644952D01*
X86773054Y-84564170D01*
X86754100Y-84468882D01*
X86754100Y-83349500D01*
X86773054Y-83254212D01*
X86827030Y-83173430D01*
X86907812Y-83119454D01*
X87003100Y-83100500D01*
X87415692Y-83100500D01*
X87415694Y-83100500D01*
X87452569Y-83097598D01*
X87610398Y-83051744D01*
X87751865Y-82968081D01*
X87823933Y-82896012D01*
X87904712Y-82842039D01*
X88000000Y-82823085D01*
X88095288Y-82842039D01*
G37*
%TD.AperFunction*%
%TA.AperFunction,Conductor*%
G36*
X47770070Y-85491754D02*
G01*
X47850852Y-85545730D01*
X47904828Y-85626512D01*
X47923782Y-85721800D01*
X47904828Y-85817088D01*
X47850852Y-85897869D01*
X47294453Y-86454269D01*
X47213671Y-86508246D01*
X47118383Y-86527200D01*
X46199500Y-86527200D01*
X46104212Y-86508246D01*
X46023430Y-86454270D01*
X45969454Y-86373488D01*
X45950500Y-86278200D01*
X45950500Y-86251618D01*
X45969454Y-86156330D01*
X46023430Y-86075548D01*
X46553248Y-85545730D01*
X46634030Y-85491754D01*
X46729318Y-85472800D01*
X47674782Y-85472800D01*
X47770070Y-85491754D01*
G37*
%TD.AperFunction*%
%TA.AperFunction,Conductor*%
G36*
X57995788Y-85491754D02*
G01*
X58076570Y-85545730D01*
X58130546Y-85626512D01*
X58149500Y-85721800D01*
X58149500Y-86278200D01*
X58130546Y-86373488D01*
X58076570Y-86454270D01*
X57995788Y-86508246D01*
X57900500Y-86527200D01*
X53781618Y-86527200D01*
X53686330Y-86508246D01*
X53605548Y-86454270D01*
X53077250Y-85925972D01*
X53046284Y-85888238D01*
X53027507Y-85860136D01*
X52990327Y-85770377D01*
X52990328Y-85673222D01*
X53027508Y-85583462D01*
X53096207Y-85514764D01*
X53185966Y-85477584D01*
X53234543Y-85472800D01*
X57900500Y-85472800D01*
X57995788Y-85491754D01*
G37*
%TD.AperFunction*%
%TA.AperFunction,Conductor*%
G36*
X64939270Y-85491754D02*
G01*
X65020052Y-85545730D01*
X65074028Y-85626512D01*
X65092982Y-85721800D01*
X65074028Y-85817088D01*
X65020052Y-85897870D01*
X64463652Y-86454270D01*
X64382870Y-86508246D01*
X64287582Y-86527200D01*
X60199500Y-86527200D01*
X60104212Y-86508246D01*
X60023430Y-86454270D01*
X59969454Y-86373488D01*
X59950500Y-86278200D01*
X59950500Y-85721800D01*
X59969454Y-85626512D01*
X60023430Y-85545730D01*
X60104212Y-85491754D01*
X60199500Y-85472800D01*
X64843982Y-85472800D01*
X64939270Y-85491754D01*
G37*
%TD.AperFunction*%
%TA.AperFunction,Conductor*%
G36*
X71500670Y-85491754D02*
G01*
X71581452Y-85545730D01*
X72076570Y-86040848D01*
X72130546Y-86121630D01*
X72149500Y-86216918D01*
X72149500Y-86278200D01*
X72130546Y-86373488D01*
X72076570Y-86454270D01*
X71995788Y-86508246D01*
X71900500Y-86527200D01*
X67781618Y-86527200D01*
X67686330Y-86508246D01*
X67605548Y-86454270D01*
X67077250Y-85925972D01*
X67046284Y-85888238D01*
X67027507Y-85860136D01*
X66990327Y-85770377D01*
X66990328Y-85673222D01*
X67027508Y-85583462D01*
X67096207Y-85514764D01*
X67185966Y-85477584D01*
X67234543Y-85472800D01*
X71405382Y-85472800D01*
X71500670Y-85491754D01*
G37*
%TD.AperFunction*%
%TA.AperFunction,Conductor*%
G36*
X78995788Y-85452654D02*
G01*
X79076570Y-85506630D01*
X79130546Y-85587412D01*
X79149500Y-85682700D01*
X79149500Y-85773482D01*
X79130546Y-85868770D01*
X79076570Y-85949552D01*
X78571852Y-86454270D01*
X78491070Y-86508246D01*
X78395782Y-86527200D01*
X74199500Y-86527200D01*
X74104212Y-86508246D01*
X74023430Y-86454270D01*
X73969454Y-86373488D01*
X73950500Y-86278200D01*
X73950500Y-86216918D01*
X73969454Y-86121630D01*
X74023430Y-86040848D01*
X74557648Y-85506630D01*
X74638430Y-85452654D01*
X74733718Y-85433700D01*
X78900500Y-85433700D01*
X78995788Y-85452654D01*
G37*
%TD.AperFunction*%
%TA.AperFunction,Conductor*%
G36*
X42610188Y-64819454D02*
G01*
X42690970Y-64873430D01*
X42744946Y-64954212D01*
X42763900Y-65049500D01*
X42763900Y-82020946D01*
X42794661Y-82175592D01*
X42794663Y-82175597D01*
X42855003Y-82321273D01*
X42855006Y-82321280D01*
X42933377Y-82438570D01*
X42942611Y-82452389D01*
X43987614Y-83497392D01*
X44939652Y-84449430D01*
X44993628Y-84530212D01*
X45012582Y-84625500D01*
X44993628Y-84720788D01*
X44939652Y-84801570D01*
X44858870Y-84855546D01*
X44763582Y-84874500D01*
X44734295Y-84874500D01*
X44697436Y-84877401D01*
X44697427Y-84877403D01*
X44539601Y-84923256D01*
X44398135Y-85006919D01*
X44281919Y-85123135D01*
X44198256Y-85264601D01*
X44152400Y-85422435D01*
X44152023Y-85424503D01*
X44151185Y-85426617D01*
X44148852Y-85434650D01*
X44148092Y-85434429D01*
X44116254Y-85514834D01*
X44048640Y-85584601D01*
X43959474Y-85623182D01*
X43862331Y-85624705D01*
X43772000Y-85588936D01*
X43731006Y-85555828D01*
X36894830Y-78719652D01*
X36840854Y-78638870D01*
X36821900Y-78543582D01*
X36821900Y-65999500D01*
X36840854Y-65904212D01*
X36894830Y-65823430D01*
X36975612Y-65769454D01*
X37070900Y-65750500D01*
X39165692Y-65750500D01*
X39165694Y-65750500D01*
X39202569Y-65747598D01*
X39360397Y-65701744D01*
X39501864Y-65618081D01*
X39618081Y-65501864D01*
X39701744Y-65360397D01*
X39747598Y-65202569D01*
X39750500Y-65165694D01*
X39750500Y-65049500D01*
X39769454Y-64954212D01*
X39823430Y-64873430D01*
X39904212Y-64819454D01*
X39999500Y-64800500D01*
X42514900Y-64800500D01*
X42610188Y-64819454D01*
G37*
%TD.AperFunction*%
%TA.AperFunction,Conductor*%
G36*
X68570287Y-64639907D02*
G01*
X68651069Y-64693883D01*
X76039186Y-72082000D01*
X76153314Y-72147892D01*
X76280608Y-72182000D01*
X76412392Y-72182000D01*
X90121052Y-72182000D01*
X90216340Y-72200954D01*
X90259389Y-72223964D01*
X90261857Y-72225613D01*
X90261858Y-72225614D01*
X90275398Y-72234661D01*
X90376587Y-72302274D01*
X90376589Y-72302275D01*
X90500091Y-72353431D01*
X90504072Y-72355080D01*
X90504075Y-72355081D01*
X90637603Y-72381641D01*
X90639407Y-72382000D01*
X90777393Y-72382000D01*
X90845060Y-72368540D01*
X90912724Y-72355081D01*
X90912724Y-72355080D01*
X90912728Y-72355080D01*
X90933280Y-72346566D01*
X91028568Y-72327612D01*
X91123857Y-72346565D01*
X91204639Y-72400541D01*
X91258615Y-72481322D01*
X91277570Y-72576610D01*
X91258617Y-72671899D01*
X91204641Y-72752681D01*
X85443311Y-78514011D01*
X85443310Y-78514010D01*
X85331812Y-78625509D01*
X85331810Y-78625512D01*
X85244206Y-78756619D01*
X85244203Y-78756626D01*
X85183863Y-78902302D01*
X85183861Y-78902307D01*
X85153100Y-79056953D01*
X85153100Y-83583700D01*
X85134146Y-83678988D01*
X85080170Y-83759770D01*
X84999388Y-83813746D01*
X84904100Y-83832700D01*
X74377843Y-83832700D01*
X74220158Y-83832700D01*
X74065503Y-83863462D01*
X74065502Y-83863462D01*
X74065499Y-83863463D01*
X73919825Y-83923803D01*
X73919820Y-83923806D01*
X73788712Y-84011410D01*
X73788710Y-84011411D01*
X73226068Y-84574052D01*
X73145287Y-84628028D01*
X73049999Y-84646982D01*
X72954710Y-84628028D01*
X72873932Y-84574054D01*
X72350389Y-84050511D01*
X72291872Y-84011411D01*
X72219280Y-83962906D01*
X72219273Y-83962903D01*
X72073597Y-83902563D01*
X72073592Y-83902561D01*
X71918946Y-83871800D01*
X71918942Y-83871800D01*
X59128842Y-83871800D01*
X46729318Y-83871800D01*
X46634030Y-83852846D01*
X46553248Y-83798870D01*
X44437830Y-81683452D01*
X44383854Y-81602670D01*
X44364900Y-81507382D01*
X44364900Y-73325362D01*
X44383854Y-73230074D01*
X44437830Y-73149292D01*
X44518612Y-73095316D01*
X44613900Y-73076362D01*
X44683370Y-73086249D01*
X44722431Y-73097598D01*
X44759306Y-73100500D01*
X44759308Y-73100500D01*
X45415692Y-73100500D01*
X45415694Y-73100500D01*
X45452569Y-73097598D01*
X45610398Y-73051744D01*
X45751865Y-72968081D01*
X45823933Y-72896012D01*
X45904712Y-72842039D01*
X46000000Y-72823085D01*
X46095288Y-72842039D01*
X46176066Y-72896012D01*
X46248135Y-72968081D01*
X46389602Y-73051744D01*
X46547431Y-73097598D01*
X46584306Y-73100500D01*
X46584308Y-73100500D01*
X47202046Y-73100500D01*
X47297334Y-73119454D01*
X47378116Y-73173430D01*
X49972786Y-75768100D01*
X50086914Y-75833992D01*
X50214208Y-75868100D01*
X67329992Y-75868100D01*
X67457286Y-75833992D01*
X67571414Y-75768100D01*
X69889091Y-73450421D01*
X69969870Y-73396448D01*
X70016581Y-73382278D01*
X70019487Y-73381700D01*
X70019493Y-73381700D01*
X70154828Y-73354780D01*
X70282311Y-73301975D01*
X70397042Y-73225314D01*
X70494614Y-73127742D01*
X70571275Y-73013011D01*
X70624080Y-72885528D01*
X70651000Y-72750193D01*
X70651000Y-72612207D01*
X70639136Y-72552563D01*
X70624081Y-72476875D01*
X70624080Y-72476872D01*
X70609593Y-72441898D01*
X70571275Y-72349389D01*
X70569389Y-72346567D01*
X70494616Y-72234661D01*
X70494614Y-72234658D01*
X70397042Y-72137086D01*
X70380041Y-72125726D01*
X70282312Y-72060425D01*
X70282309Y-72060424D01*
X70244970Y-72044958D01*
X70154827Y-72007619D01*
X70154824Y-72007618D01*
X70019497Y-71980700D01*
X70019493Y-71980700D01*
X69881507Y-71980700D01*
X69881502Y-71980700D01*
X69746175Y-72007618D01*
X69746172Y-72007619D01*
X69618691Y-72060424D01*
X69618687Y-72060425D01*
X69503961Y-72137083D01*
X69406383Y-72234661D01*
X69329725Y-72349387D01*
X69304546Y-72410177D01*
X69250569Y-72490958D01*
X69169788Y-72544934D01*
X69074499Y-72563888D01*
X68979211Y-72544934D01*
X68898430Y-72490957D01*
X68844454Y-72410176D01*
X68825500Y-72314888D01*
X68825500Y-71484308D01*
X68825499Y-71484295D01*
X68824939Y-71477175D01*
X68822598Y-71447431D01*
X68776744Y-71289602D01*
X68693081Y-71148135D01*
X68576865Y-71031919D01*
X68435398Y-70948256D01*
X68277569Y-70902402D01*
X68277566Y-70902401D01*
X68277563Y-70902401D01*
X68240704Y-70899500D01*
X68240694Y-70899500D01*
X67863213Y-70899500D01*
X67767925Y-70880546D01*
X67687143Y-70826570D01*
X67633167Y-70745788D01*
X67618997Y-70699075D01*
X67618380Y-70695972D01*
X67565575Y-70568489D01*
X67535987Y-70524208D01*
X67488916Y-70453761D01*
X67488914Y-70453758D01*
X67391342Y-70356186D01*
X67391338Y-70356183D01*
X67276612Y-70279525D01*
X67276609Y-70279524D01*
X67237962Y-70263516D01*
X67149127Y-70226719D01*
X67149124Y-70226718D01*
X67013797Y-70199800D01*
X67013793Y-70199800D01*
X66875807Y-70199800D01*
X66875802Y-70199800D01*
X66740475Y-70226718D01*
X66740472Y-70226719D01*
X66612991Y-70279524D01*
X66612987Y-70279525D01*
X66498261Y-70356183D01*
X66400683Y-70453761D01*
X66324025Y-70568487D01*
X66324024Y-70568491D01*
X66271219Y-70695972D01*
X66267669Y-70707678D01*
X66264882Y-70706832D01*
X66235734Y-70777196D01*
X66167032Y-70845892D01*
X66077271Y-70883068D01*
X65980116Y-70883063D01*
X65890358Y-70845880D01*
X65852635Y-70814920D01*
X65627615Y-70589901D01*
X65627616Y-70589901D01*
X65609680Y-70579546D01*
X65513486Y-70524008D01*
X65513483Y-70524007D01*
X65513481Y-70524006D01*
X65386192Y-70489900D01*
X60162992Y-70489900D01*
X60031208Y-70489900D01*
X59903918Y-70524006D01*
X59903914Y-70524007D01*
X59903914Y-70524008D01*
X59827828Y-70567936D01*
X59789784Y-70589901D01*
X59553115Y-70826570D01*
X59472334Y-70880546D01*
X59377046Y-70899500D01*
X58759295Y-70899500D01*
X58722436Y-70902401D01*
X58722427Y-70902403D01*
X58564601Y-70948256D01*
X58423135Y-71031919D01*
X58306919Y-71148135D01*
X58223256Y-71289601D01*
X58177403Y-71447427D01*
X58177401Y-71447436D01*
X58174500Y-71484295D01*
X58174500Y-72515704D01*
X58177401Y-72552563D01*
X58177401Y-72552566D01*
X58177402Y-72552569D01*
X58223256Y-72710398D01*
X58306919Y-72851865D01*
X58423135Y-72968081D01*
X58564602Y-73051744D01*
X58722431Y-73097598D01*
X58759306Y-73100500D01*
X58759308Y-73100500D01*
X59415692Y-73100500D01*
X59415694Y-73100500D01*
X59452569Y-73097598D01*
X59610398Y-73051744D01*
X59751865Y-72968081D01*
X59823933Y-72896012D01*
X59904712Y-72842039D01*
X60000000Y-72823085D01*
X60095288Y-72842039D01*
X60176066Y-72896012D01*
X60248135Y-72968081D01*
X60389602Y-73051744D01*
X60547431Y-73097598D01*
X60584306Y-73100500D01*
X60584308Y-73100500D01*
X61240692Y-73100500D01*
X61240694Y-73100500D01*
X61277569Y-73097598D01*
X61435398Y-73051744D01*
X61576865Y-72968081D01*
X61693081Y-72851865D01*
X61722838Y-72801546D01*
X61787657Y-72729179D01*
X61875238Y-72687123D01*
X61937162Y-72679300D01*
X62048893Y-72679300D01*
X62116560Y-72665840D01*
X62184224Y-72652381D01*
X62184225Y-72652380D01*
X62184228Y-72652380D01*
X62311711Y-72599575D01*
X62426442Y-72522914D01*
X62524014Y-72425342D01*
X62600675Y-72310611D01*
X62653480Y-72183128D01*
X62653705Y-72182000D01*
X62677887Y-72060425D01*
X62680400Y-72047793D01*
X62680400Y-71909807D01*
X62656265Y-71788478D01*
X62656265Y-71691324D01*
X62693444Y-71601564D01*
X62762143Y-71532865D01*
X62851902Y-71495685D01*
X62900481Y-71490900D01*
X64925500Y-71490900D01*
X65020788Y-71509854D01*
X65101570Y-71563830D01*
X65155546Y-71644612D01*
X65174500Y-71739900D01*
X65174500Y-72515704D01*
X65177401Y-72552563D01*
X65177401Y-72552566D01*
X65177402Y-72552569D01*
X65223256Y-72710398D01*
X65306919Y-72851865D01*
X65423135Y-72968081D01*
X65564602Y-73051744D01*
X65722431Y-73097598D01*
X65759306Y-73100500D01*
X65759308Y-73100500D01*
X66234300Y-73100500D01*
X66329588Y-73119454D01*
X66410370Y-73173430D01*
X66464346Y-73254212D01*
X66483300Y-73349500D01*
X66483300Y-74142451D01*
X66464346Y-74237739D01*
X66441336Y-74280788D01*
X66439686Y-74283258D01*
X66363025Y-74397989D01*
X66310220Y-74525472D01*
X66283300Y-74660807D01*
X66283300Y-74660811D01*
X66282133Y-74666678D01*
X66244953Y-74756437D01*
X66176254Y-74825136D01*
X66086494Y-74862316D01*
X66037917Y-74867100D01*
X56062883Y-74867100D01*
X55967595Y-74848146D01*
X55886813Y-74794170D01*
X55832837Y-74713388D01*
X55818667Y-74666678D01*
X55817500Y-74660811D01*
X55817500Y-74660807D01*
X55790580Y-74525472D01*
X55737775Y-74397989D01*
X55661114Y-74283258D01*
X55659464Y-74280788D01*
X55622284Y-74191028D01*
X55617500Y-74142451D01*
X55617500Y-73138610D01*
X55617499Y-73138606D01*
X55616804Y-73136014D01*
X55614588Y-73127742D01*
X55583392Y-73011314D01*
X55517500Y-72897186D01*
X55424314Y-72804000D01*
X55424311Y-72803998D01*
X55415618Y-72795304D01*
X55415612Y-72795299D01*
X54898430Y-72278116D01*
X54844454Y-72197335D01*
X54825500Y-72102047D01*
X54825500Y-71484308D01*
X54825499Y-71484295D01*
X54824939Y-71477175D01*
X54822598Y-71447431D01*
X54776744Y-71289602D01*
X54693081Y-71148135D01*
X54576865Y-71031919D01*
X54435398Y-70948256D01*
X54435394Y-70948254D01*
X54383822Y-70933271D01*
X54297606Y-70888484D01*
X54235092Y-70814113D01*
X54205797Y-70721480D01*
X54214182Y-70624687D01*
X54258969Y-70538471D01*
X54277225Y-70518089D01*
X54767985Y-70027330D01*
X54848766Y-69973354D01*
X54944054Y-69954400D01*
X62896992Y-69954400D01*
X63024286Y-69920292D01*
X63138414Y-69854400D01*
X68298935Y-64693878D01*
X68379711Y-64639907D01*
X68474999Y-64620953D01*
X68570287Y-64639907D01*
G37*
%TD.AperFunction*%
%TA.AperFunction,Conductor*%
G36*
X100945788Y-69894254D02*
G01*
X101026570Y-69948230D01*
X101080546Y-70029012D01*
X101099500Y-70124300D01*
X101099500Y-70288102D01*
X101101927Y-70308311D01*
X101110123Y-70376564D01*
X101110124Y-70376568D01*
X101165638Y-70517342D01*
X101212809Y-70579546D01*
X101255283Y-70666924D01*
X101261085Y-70763906D01*
X101229332Y-70855726D01*
X101212809Y-70880454D01*
X101165638Y-70942657D01*
X101110124Y-71083431D01*
X101110123Y-71083435D01*
X101110123Y-71083436D01*
X101099500Y-71171898D01*
X101099500Y-71558102D01*
X101103363Y-71590270D01*
X101110123Y-71646564D01*
X101110124Y-71646568D01*
X101165638Y-71787342D01*
X101212809Y-71849546D01*
X101255283Y-71936924D01*
X101261085Y-72033906D01*
X101229332Y-72125726D01*
X101212809Y-72150454D01*
X101165638Y-72212657D01*
X101110124Y-72353431D01*
X101110123Y-72353435D01*
X101109925Y-72355081D01*
X101099500Y-72441898D01*
X101099500Y-72828102D01*
X101102354Y-72851865D01*
X101110123Y-72916564D01*
X101110124Y-72916568D01*
X101165637Y-73057340D01*
X101212740Y-73119454D01*
X101257078Y-73177922D01*
X101339231Y-73240221D01*
X101377659Y-73269362D01*
X101512158Y-73322401D01*
X101518436Y-73324877D01*
X101606898Y-73335500D01*
X102762246Y-73335500D01*
X102857534Y-73354454D01*
X102938316Y-73408430D01*
X103194270Y-73664384D01*
X103248246Y-73745166D01*
X103267200Y-73840454D01*
X103267200Y-79474805D01*
X103248246Y-79570093D01*
X103194270Y-79650875D01*
X103113488Y-79704851D01*
X103018200Y-79723805D01*
X102922912Y-79704851D01*
X102842133Y-79650877D01*
X102806342Y-79615086D01*
X102806338Y-79615083D01*
X102691612Y-79538425D01*
X102691609Y-79538424D01*
X102654270Y-79522958D01*
X102564127Y-79485619D01*
X102564124Y-79485618D01*
X102428797Y-79458700D01*
X102428793Y-79458700D01*
X102290807Y-79458700D01*
X102290802Y-79458700D01*
X102155475Y-79485618D01*
X102155472Y-79485619D01*
X102027991Y-79538424D01*
X102027987Y-79538425D01*
X101913261Y-79615083D01*
X101815683Y-79712661D01*
X101739025Y-79827387D01*
X101739024Y-79827391D01*
X101686219Y-79954872D01*
X101686218Y-79954875D01*
X101659300Y-80090202D01*
X101659300Y-80228197D01*
X101686218Y-80363524D01*
X101686221Y-80363532D01*
X101719183Y-80443111D01*
X101719186Y-80443115D01*
X101719186Y-80443117D01*
X101738140Y-80538405D01*
X101719186Y-80633693D01*
X101665210Y-80714473D01*
X101553115Y-80826569D01*
X101472334Y-80880546D01*
X101377046Y-80899500D01*
X100759295Y-80899500D01*
X100722436Y-80902401D01*
X100722427Y-80902403D01*
X100564601Y-80948256D01*
X100423135Y-81031919D01*
X100306919Y-81148135D01*
X100223256Y-81289601D01*
X100177403Y-81447427D01*
X100177401Y-81447436D01*
X100174500Y-81484295D01*
X100174500Y-82515704D01*
X100177401Y-82552563D01*
X100177403Y-82552575D01*
X100180033Y-82561625D01*
X100188419Y-82658418D01*
X100159125Y-82751051D01*
X100096612Y-82825423D01*
X100010397Y-82870211D01*
X99940922Y-82880100D01*
X99300818Y-82880100D01*
X99205530Y-82861146D01*
X99124748Y-82807170D01*
X98449230Y-82131652D01*
X98395254Y-82050870D01*
X98376300Y-81955582D01*
X98376300Y-74805856D01*
X98395254Y-74710568D01*
X98449230Y-74629786D01*
X98530012Y-74575810D01*
X98533861Y-74574253D01*
X98622342Y-74539361D01*
X98742922Y-74447922D01*
X98834361Y-74327342D01*
X98889877Y-74186564D01*
X98900500Y-74098102D01*
X98900500Y-73711898D01*
X98889877Y-73623436D01*
X98870527Y-73574367D01*
X98834362Y-73482659D01*
X98769924Y-73397686D01*
X98742922Y-73362078D01*
X98663665Y-73301975D01*
X98622340Y-73270637D01*
X98481568Y-73215124D01*
X98481564Y-73215123D01*
X98393102Y-73204500D01*
X98393099Y-73204500D01*
X97975180Y-73204500D01*
X97879895Y-73185547D01*
X97758497Y-73135263D01*
X97758492Y-73135262D01*
X97758490Y-73135261D01*
X97603846Y-73104500D01*
X97603842Y-73104500D01*
X97446158Y-73104500D01*
X97446153Y-73104500D01*
X97291509Y-73135261D01*
X97291505Y-73135262D01*
X97291503Y-73135263D01*
X97170104Y-73185547D01*
X97074820Y-73204500D01*
X96662000Y-73204500D01*
X96566712Y-73185546D01*
X96485930Y-73131570D01*
X96431954Y-73050788D01*
X96413000Y-72955500D01*
X96413000Y-72940754D01*
X96431954Y-72845466D01*
X96485930Y-72764684D01*
X97112184Y-72138430D01*
X97192966Y-72084454D01*
X97288254Y-72065500D01*
X98393099Y-72065500D01*
X98393102Y-72065500D01*
X98481564Y-72054877D01*
X98581929Y-72015298D01*
X98622340Y-71999362D01*
X98622340Y-71999361D01*
X98622342Y-71999361D01*
X98742922Y-71907922D01*
X98834361Y-71787342D01*
X98889877Y-71646564D01*
X98900500Y-71558102D01*
X98900500Y-71171898D01*
X98889877Y-71083436D01*
X98834361Y-70942658D01*
X98831675Y-70935846D01*
X98823381Y-70890078D01*
X98814315Y-70844500D01*
X98814737Y-70842378D01*
X98814351Y-70840248D01*
X98824198Y-70794811D01*
X98833269Y-70749212D01*
X98834471Y-70747411D01*
X98834930Y-70745298D01*
X98861388Y-70707127D01*
X98887245Y-70668430D01*
X98889046Y-70667226D01*
X98890278Y-70665450D01*
X98929351Y-70640295D01*
X98968027Y-70614454D01*
X98970148Y-70614032D01*
X98971969Y-70612860D01*
X99063315Y-70595500D01*
X99415075Y-70595500D01*
X99510363Y-70614454D01*
X99596372Y-70650080D01*
X99596375Y-70650081D01*
X99719827Y-70674637D01*
X99731707Y-70677000D01*
X99869693Y-70677000D01*
X99937360Y-70663540D01*
X100005024Y-70650081D01*
X100005025Y-70650080D01*
X100005028Y-70650080D01*
X100132511Y-70597275D01*
X100247242Y-70520614D01*
X100344814Y-70423042D01*
X100421475Y-70308311D01*
X100474280Y-70180828D01*
X100495187Y-70075719D01*
X100532366Y-69985963D01*
X100601065Y-69917264D01*
X100690824Y-69880085D01*
X100739402Y-69875300D01*
X100850500Y-69875300D01*
X100945788Y-69894254D01*
G37*
%TD.AperFunction*%
%TA.AperFunction,Conductor*%
G36*
X93433288Y-74129808D02*
G01*
X93514070Y-74183784D01*
X93568046Y-74264566D01*
X93587000Y-74359854D01*
X93587000Y-80792982D01*
X93568046Y-80888270D01*
X93514070Y-80969052D01*
X93464754Y-81007305D01*
X93423137Y-81031917D01*
X93306919Y-81148135D01*
X93223256Y-81289601D01*
X93177403Y-81447427D01*
X93177401Y-81447436D01*
X93174500Y-81484295D01*
X93174500Y-82281500D01*
X93155546Y-82376788D01*
X93101570Y-82457570D01*
X93020788Y-82511546D01*
X92925500Y-82530500D01*
X90253952Y-82530500D01*
X90253951Y-82530499D01*
X90253951Y-82530500D01*
X90158663Y-82511546D01*
X90126306Y-82489926D01*
X90077885Y-82457572D01*
X89898430Y-82278116D01*
X89844454Y-82197335D01*
X89842458Y-82187299D01*
X89825500Y-82102047D01*
X89825500Y-81484308D01*
X89825499Y-81484295D01*
X89825000Y-81477952D01*
X89822598Y-81447431D01*
X89776744Y-81289602D01*
X89693081Y-81148135D01*
X89576865Y-81031919D01*
X89435398Y-80948256D01*
X89277569Y-80902402D01*
X89277566Y-80902401D01*
X89277563Y-80902401D01*
X89240704Y-80899500D01*
X89240694Y-80899500D01*
X88584306Y-80899500D01*
X88584295Y-80899500D01*
X88547436Y-80902401D01*
X88547427Y-80902403D01*
X88389601Y-80948256D01*
X88289755Y-81007305D01*
X88248135Y-81031919D01*
X88176066Y-81103987D01*
X88145219Y-81124598D01*
X88116444Y-81148010D01*
X88105117Y-81151393D01*
X88095288Y-81157961D01*
X88058899Y-81165199D01*
X88023354Y-81175817D01*
X88011595Y-81174608D01*
X88000000Y-81176915D01*
X87963611Y-81169676D01*
X87926708Y-81165884D01*
X87917912Y-81160586D01*
X87904712Y-81157961D01*
X87841220Y-81119722D01*
X87832206Y-81112260D01*
X87751865Y-81031919D01*
X87693348Y-80997312D01*
X87678220Y-80984789D01*
X87659715Y-80962044D01*
X87637877Y-80942484D01*
X87629345Y-80924716D01*
X87616905Y-80909426D01*
X87608513Y-80881333D01*
X87595822Y-80854903D01*
X87592307Y-80827079D01*
X87589098Y-80816336D01*
X87589928Y-80808251D01*
X87588000Y-80792982D01*
X87588000Y-79860854D01*
X87606954Y-79765566D01*
X87660930Y-79684784D01*
X93161930Y-74183784D01*
X93242712Y-74129808D01*
X93338000Y-74110854D01*
X93433288Y-74129808D01*
G37*
%TD.AperFunction*%
%TA.AperFunction,Conductor*%
G36*
X104695734Y-71884454D02*
G01*
X104776516Y-71938430D01*
X107514070Y-74675984D01*
X107568046Y-74756766D01*
X107587000Y-74852054D01*
X107587000Y-80792982D01*
X107568046Y-80888270D01*
X107514070Y-80969052D01*
X107464754Y-81007305D01*
X107423137Y-81031917D01*
X107306919Y-81148135D01*
X107223256Y-81289601D01*
X107177403Y-81447427D01*
X107177401Y-81447436D01*
X107174500Y-81484295D01*
X107174500Y-82262500D01*
X107155546Y-82357788D01*
X107101570Y-82438570D01*
X107020788Y-82492546D01*
X106925500Y-82511500D01*
X104234954Y-82511500D01*
X104139666Y-82492546D01*
X104058884Y-82438570D01*
X103898430Y-82278116D01*
X103844454Y-82197334D01*
X103825500Y-82102046D01*
X103825500Y-81897953D01*
X103844454Y-81802665D01*
X103898427Y-81721886D01*
X104168199Y-81452115D01*
X104170904Y-81447431D01*
X104234092Y-81337986D01*
X104247056Y-81289602D01*
X104268200Y-81210693D01*
X104268200Y-81078908D01*
X104268200Y-73464108D01*
X104264534Y-73450424D01*
X104250402Y-73397685D01*
X104250401Y-73397682D01*
X104234092Y-73336814D01*
X104168200Y-73222686D01*
X104168198Y-73222684D01*
X103923430Y-72977915D01*
X103869454Y-72897134D01*
X103850500Y-72801846D01*
X103850500Y-72441900D01*
X103848511Y-72425338D01*
X103839877Y-72353436D01*
X103784361Y-72212658D01*
X103781675Y-72205846D01*
X103764351Y-72110248D01*
X103784930Y-72015298D01*
X103840278Y-71935450D01*
X103921969Y-71882860D01*
X104013315Y-71865500D01*
X104600446Y-71865500D01*
X104695734Y-71884454D01*
G37*
%TD.AperFunction*%
%TA.AperFunction,Conductor*%
G36*
X119395788Y-71225807D02*
G01*
X119476570Y-71279783D01*
X119530546Y-71360565D01*
X119549500Y-71455853D01*
X119549500Y-73085381D01*
X119530546Y-73180669D01*
X119476570Y-73261451D01*
X111225671Y-81512350D01*
X111144889Y-81566326D01*
X111049601Y-81585280D01*
X110954313Y-81566326D01*
X110873531Y-81512350D01*
X110819555Y-81431568D01*
X110810488Y-81405750D01*
X110776744Y-81289602D01*
X110693081Y-81148135D01*
X110576865Y-81031919D01*
X110435398Y-80948256D01*
X110277569Y-80902402D01*
X110277566Y-80902401D01*
X110277563Y-80902401D01*
X110240704Y-80899500D01*
X110240694Y-80899500D01*
X109584306Y-80899500D01*
X109584295Y-80899500D01*
X109547436Y-80902401D01*
X109547427Y-80902403D01*
X109389601Y-80948256D01*
X109289755Y-81007305D01*
X109248135Y-81031919D01*
X109176066Y-81103987D01*
X109145219Y-81124598D01*
X109116444Y-81148010D01*
X109105117Y-81151393D01*
X109095288Y-81157961D01*
X109058899Y-81165199D01*
X109023354Y-81175817D01*
X109011595Y-81174608D01*
X109000000Y-81176915D01*
X108963611Y-81169676D01*
X108926708Y-81165884D01*
X108917912Y-81160586D01*
X108904712Y-81157961D01*
X108841220Y-81119722D01*
X108832206Y-81112260D01*
X108751865Y-81031919D01*
X108693348Y-80997312D01*
X108678220Y-80984789D01*
X108659715Y-80962044D01*
X108637877Y-80942484D01*
X108629345Y-80924716D01*
X108616905Y-80909426D01*
X108608513Y-80881333D01*
X108595822Y-80854903D01*
X108592307Y-80827079D01*
X108589098Y-80816336D01*
X108589928Y-80808251D01*
X108588000Y-80792982D01*
X108588000Y-75291100D01*
X108606954Y-75195812D01*
X108660930Y-75115030D01*
X108741712Y-75061054D01*
X108837000Y-75042100D01*
X115220692Y-75042100D01*
X115347986Y-75007992D01*
X115462114Y-74942100D01*
X119124433Y-71279780D01*
X119205212Y-71225807D01*
X119300500Y-71206853D01*
X119395788Y-71225807D01*
G37*
%TD.AperFunction*%
%TA.AperFunction,Conductor*%
G36*
X50862934Y-71510054D02*
G01*
X50943716Y-71564030D01*
X51101570Y-71721884D01*
X51155546Y-71802666D01*
X51174500Y-71897954D01*
X51174500Y-72515704D01*
X51177401Y-72552563D01*
X51177401Y-72552566D01*
X51177402Y-72552569D01*
X51223256Y-72710398D01*
X51306919Y-72851865D01*
X51423135Y-72968081D01*
X51564602Y-73051744D01*
X51722431Y-73097598D01*
X51759306Y-73100500D01*
X51759308Y-73100500D01*
X52415692Y-73100500D01*
X52415694Y-73100500D01*
X52452569Y-73097598D01*
X52610398Y-73051744D01*
X52751865Y-72968081D01*
X52823933Y-72896012D01*
X52904712Y-72842039D01*
X53000000Y-72823085D01*
X53095288Y-72842039D01*
X53176066Y-72896012D01*
X53248135Y-72968081D01*
X53389602Y-73051744D01*
X53547431Y-73097598D01*
X53584306Y-73100500D01*
X53584308Y-73100500D01*
X54202047Y-73100500D01*
X54297335Y-73119454D01*
X54378117Y-73173430D01*
X54543570Y-73338883D01*
X54597546Y-73419665D01*
X54616500Y-73514953D01*
X54616500Y-74142451D01*
X54597546Y-74237739D01*
X54574536Y-74280788D01*
X54572886Y-74283258D01*
X54496225Y-74397989D01*
X54443420Y-74525472D01*
X54416500Y-74660807D01*
X54416500Y-74660811D01*
X54415333Y-74666678D01*
X54378153Y-74756437D01*
X54309454Y-74825136D01*
X54219694Y-74862316D01*
X54171117Y-74867100D01*
X50590554Y-74867100D01*
X50495266Y-74848146D01*
X50414484Y-74794170D01*
X47898430Y-72278116D01*
X47844454Y-72197334D01*
X47825500Y-72102046D01*
X47825500Y-71740100D01*
X47844454Y-71644812D01*
X47898430Y-71564030D01*
X47979212Y-71510054D01*
X48074500Y-71491100D01*
X50767646Y-71491100D01*
X50862934Y-71510054D01*
G37*
%TD.AperFunction*%
%TA.AperFunction,Conductor*%
G36*
X111395788Y-71184154D02*
G01*
X111476570Y-71238130D01*
X111530546Y-71318912D01*
X111549500Y-71414200D01*
X111549500Y-73165704D01*
X111552401Y-73202563D01*
X111552401Y-73202566D01*
X111552402Y-73202569D01*
X111598256Y-73360398D01*
X111681919Y-73501865D01*
X111796087Y-73616033D01*
X111850061Y-73696812D01*
X111869015Y-73792100D01*
X111850061Y-73887388D01*
X111796085Y-73968170D01*
X111715303Y-74022146D01*
X111620015Y-74041100D01*
X108397954Y-74041100D01*
X108302666Y-74022146D01*
X108221884Y-73968170D01*
X105843984Y-71590270D01*
X105790008Y-71509488D01*
X105771054Y-71414200D01*
X105790008Y-71318912D01*
X105843984Y-71238130D01*
X105924766Y-71184154D01*
X106020054Y-71165200D01*
X111300500Y-71165200D01*
X111395788Y-71184154D01*
G37*
%TD.AperFunction*%
%TA.AperFunction,Conductor*%
G36*
X129908111Y-55643472D02*
G01*
X129915594Y-55642445D01*
X129955519Y-55652902D01*
X129995995Y-55660954D01*
X130002274Y-55665149D01*
X130009579Y-55667063D01*
X130042459Y-55692000D01*
X130076777Y-55714930D01*
X130080972Y-55721208D01*
X130086989Y-55725772D01*
X130107827Y-55761401D01*
X130130753Y-55795712D01*
X130132225Y-55803116D01*
X130136039Y-55809636D01*
X130141657Y-55850530D01*
X130149707Y-55891000D01*
X130149500Y-55897924D01*
X130149500Y-55901898D01*
X130149500Y-56288102D01*
X130160123Y-56376564D01*
X130160124Y-56376568D01*
X130215638Y-56517342D01*
X130262809Y-56579546D01*
X130305283Y-56666924D01*
X130311085Y-56763906D01*
X130279332Y-56855726D01*
X130262809Y-56880454D01*
X130215638Y-56942657D01*
X130160124Y-57083431D01*
X130160123Y-57083435D01*
X130149500Y-57171900D01*
X130149500Y-57542946D01*
X130130546Y-57638234D01*
X130076570Y-57719015D01*
X128069786Y-59725799D01*
X128069786Y-59725800D01*
X128069785Y-59725799D01*
X127976602Y-59818983D01*
X127976601Y-59818983D01*
X127910706Y-59933118D01*
X127876600Y-60060407D01*
X127876600Y-61008846D01*
X127857646Y-61104134D01*
X127803670Y-61184916D01*
X115020416Y-73968170D01*
X114939634Y-74022146D01*
X114844346Y-74041100D01*
X113429985Y-74041100D01*
X113334697Y-74022146D01*
X113253915Y-73968170D01*
X113199939Y-73887388D01*
X113180985Y-73792100D01*
X113199939Y-73696812D01*
X113253912Y-73616033D01*
X113368081Y-73501865D01*
X113451744Y-73360398D01*
X113497598Y-73202569D01*
X113500500Y-73165694D01*
X113500500Y-71357187D01*
X113519454Y-71261899D01*
X113573430Y-71181117D01*
X113611164Y-71150151D01*
X113707183Y-71085993D01*
X113707182Y-71085993D01*
X113707189Y-71085989D01*
X129078248Y-55714930D01*
X129159030Y-55660954D01*
X129254318Y-55642000D01*
X129900707Y-55642000D01*
X129908111Y-55643472D01*
G37*
%TD.AperFunction*%
%TA.AperFunction,Conductor*%
G36*
X82472334Y-55119454D02*
G01*
X82553116Y-55173430D01*
X90379586Y-62999900D01*
X90493714Y-63065792D01*
X90621007Y-63099900D01*
X90621008Y-63099900D01*
X118827981Y-63099900D01*
X118923269Y-63118854D01*
X119004051Y-63172830D01*
X119058027Y-63253612D01*
X119076981Y-63348900D01*
X119058027Y-63444188D01*
X119004051Y-63524970D01*
X112916049Y-69612971D01*
X112835267Y-69666947D01*
X112739979Y-69685901D01*
X112691403Y-69681117D01*
X112603842Y-69663700D01*
X112446158Y-69663700D01*
X112446153Y-69663700D01*
X112291509Y-69694461D01*
X112291505Y-69694462D01*
X112291503Y-69694463D01*
X112171311Y-69744247D01*
X112076027Y-69763200D01*
X103976697Y-69763200D01*
X103881409Y-69744246D01*
X103800627Y-69690270D01*
X103778293Y-69664656D01*
X103739099Y-69612971D01*
X103692922Y-69552078D01*
X103649195Y-69518919D01*
X103572340Y-69460637D01*
X103431568Y-69405124D01*
X103431564Y-69405123D01*
X103343102Y-69394500D01*
X103343099Y-69394500D01*
X103009718Y-69394500D01*
X102914430Y-69375546D01*
X102833649Y-69321570D01*
X101965089Y-68453011D01*
X101921187Y-68423676D01*
X101833980Y-68365406D01*
X101833973Y-68365403D01*
X101688297Y-68305063D01*
X101688292Y-68305061D01*
X101533646Y-68274300D01*
X101533642Y-68274300D01*
X96093443Y-68274300D01*
X95935758Y-68274300D01*
X95781103Y-68305062D01*
X95781102Y-68305062D01*
X95781099Y-68305063D01*
X95635425Y-68365403D01*
X95635420Y-68365406D01*
X95504314Y-68453008D01*
X91779582Y-72177740D01*
X91698800Y-72231716D01*
X91603512Y-72250670D01*
X91508224Y-72231716D01*
X91427442Y-72177740D01*
X91373466Y-72096958D01*
X91354512Y-72001670D01*
X91373466Y-71906382D01*
X91373467Y-71906380D01*
X91376957Y-71897954D01*
X91381980Y-71885828D01*
X91382254Y-71884454D01*
X91408899Y-71750497D01*
X91408900Y-71750492D01*
X91408900Y-71612507D01*
X91408899Y-71612502D01*
X91381981Y-71477175D01*
X91381980Y-71477172D01*
X91329175Y-71349689D01*
X91308610Y-71318912D01*
X91252516Y-71234961D01*
X91252514Y-71234958D01*
X91154942Y-71137386D01*
X91111068Y-71108070D01*
X91040212Y-71060725D01*
X91040209Y-71060724D01*
X90970667Y-71031919D01*
X90912727Y-71007919D01*
X90912724Y-71007918D01*
X90777397Y-70981000D01*
X90777393Y-70981000D01*
X90639407Y-70981000D01*
X90639402Y-70981000D01*
X90504075Y-71007918D01*
X90504072Y-71007919D01*
X90376591Y-71060724D01*
X90376587Y-71060725D01*
X90305732Y-71108070D01*
X90261863Y-71137383D01*
X90259389Y-71139036D01*
X90169630Y-71176215D01*
X90121052Y-71181000D01*
X76656954Y-71181000D01*
X76561666Y-71162046D01*
X76480884Y-71108070D01*
X69849162Y-64476348D01*
X69795186Y-64395566D01*
X69776232Y-64300278D01*
X69793592Y-64208932D01*
X69839877Y-64091564D01*
X69850500Y-64003102D01*
X69850500Y-63616898D01*
X69839877Y-63528436D01*
X69784455Y-63387896D01*
X69784362Y-63387659D01*
X69754970Y-63348900D01*
X69737189Y-63325453D01*
X69694717Y-63238078D01*
X69688914Y-63141096D01*
X69720666Y-63049276D01*
X69737190Y-63024546D01*
X69784361Y-62962342D01*
X69839877Y-62821564D01*
X69850500Y-62733102D01*
X69850500Y-62654600D01*
X69869454Y-62559312D01*
X69923430Y-62478530D01*
X70004212Y-62424554D01*
X70099500Y-62405600D01*
X74248292Y-62405600D01*
X74375586Y-62371492D01*
X74489714Y-62305600D01*
X81621883Y-55173429D01*
X81702665Y-55119454D01*
X81797953Y-55100500D01*
X82377046Y-55100500D01*
X82472334Y-55119454D01*
G37*
%TD.AperFunction*%
%TA.AperFunction,Conductor*%
G36*
X61997289Y-60819454D02*
G01*
X62078071Y-60873430D01*
X62132047Y-60954212D01*
X62151001Y-61049500D01*
X62149807Y-61069463D01*
X62149944Y-61069472D01*
X62149500Y-61076892D01*
X62149500Y-61463099D01*
X62160123Y-61551564D01*
X62160124Y-61551568D01*
X62215638Y-61692342D01*
X62262809Y-61754546D01*
X62305283Y-61841924D01*
X62311085Y-61938906D01*
X62279332Y-62030726D01*
X62262809Y-62055454D01*
X62215638Y-62117657D01*
X62160124Y-62258431D01*
X62160123Y-62258435D01*
X62149500Y-62346900D01*
X62149500Y-62733099D01*
X62160123Y-62821564D01*
X62160124Y-62821568D01*
X62215638Y-62962342D01*
X62262809Y-63024546D01*
X62305283Y-63111924D01*
X62311085Y-63208906D01*
X62279332Y-63300726D01*
X62262809Y-63325454D01*
X62215638Y-63387657D01*
X62160124Y-63528431D01*
X62160123Y-63528435D01*
X62149500Y-63616900D01*
X62149500Y-64003099D01*
X62160123Y-64091564D01*
X62160124Y-64091568D01*
X62215637Y-64232340D01*
X62249043Y-64276392D01*
X62307078Y-64352922D01*
X62389231Y-64415221D01*
X62427659Y-64444362D01*
X62562158Y-64497401D01*
X62568436Y-64499877D01*
X62656898Y-64510500D01*
X62656901Y-64510500D01*
X64393099Y-64510500D01*
X64393102Y-64510500D01*
X64481564Y-64499877D01*
X64575416Y-64462866D01*
X64622340Y-64444362D01*
X64622340Y-64444361D01*
X64622342Y-64444361D01*
X64732144Y-64361094D01*
X64819521Y-64318622D01*
X64882598Y-64310500D01*
X65543892Y-64310500D01*
X65671186Y-64276392D01*
X65785314Y-64210500D01*
X66688698Y-63307114D01*
X66769480Y-63253138D01*
X66864768Y-63234184D01*
X66960056Y-63253138D01*
X67040837Y-63307114D01*
X67094814Y-63387896D01*
X67113768Y-63483184D01*
X67111992Y-63512871D01*
X67099500Y-63616899D01*
X67099500Y-64003099D01*
X67110123Y-64091564D01*
X67110124Y-64091568D01*
X67156406Y-64208930D01*
X67173731Y-64304528D01*
X67153153Y-64399479D01*
X67100837Y-64476347D01*
X62696716Y-68880470D01*
X62615934Y-68934446D01*
X62520646Y-68953400D01*
X54567707Y-68953400D01*
X54440417Y-68987507D01*
X54440416Y-68987507D01*
X54440414Y-68987508D01*
X54346195Y-69041905D01*
X54326284Y-69053401D01*
X52553114Y-70826570D01*
X52472333Y-70880546D01*
X52377045Y-70899500D01*
X51797954Y-70899500D01*
X51702666Y-70880546D01*
X51621885Y-70826570D01*
X51385415Y-70590101D01*
X51385416Y-70590101D01*
X51347986Y-70568491D01*
X51271286Y-70524208D01*
X51271283Y-70524207D01*
X51271281Y-70524206D01*
X51143992Y-70490100D01*
X46162792Y-70490100D01*
X46031007Y-70490100D01*
X45903717Y-70524207D01*
X45903716Y-70524207D01*
X45903714Y-70524208D01*
X45827021Y-70568487D01*
X45789584Y-70590101D01*
X45553115Y-70826570D01*
X45472334Y-70880546D01*
X45377046Y-70899500D01*
X44759295Y-70899500D01*
X44722436Y-70902401D01*
X44722420Y-70902404D01*
X44683368Y-70913750D01*
X44586575Y-70922133D01*
X44493942Y-70892837D01*
X44419572Y-70830322D01*
X44374787Y-70744105D01*
X44364900Y-70674637D01*
X44364900Y-64434718D01*
X44383854Y-64339430D01*
X44437830Y-64258648D01*
X47823048Y-60873430D01*
X47903830Y-60819454D01*
X47999118Y-60800500D01*
X61902001Y-60800500D01*
X61997289Y-60819454D01*
G37*
%TD.AperFunction*%
%TA.AperFunction,Conductor*%
G36*
X130285830Y-60442003D02*
G01*
X130340999Y-60473646D01*
X130441229Y-60549653D01*
X130438772Y-60552892D01*
X130487855Y-60594973D01*
X130531800Y-60681621D01*
X130539241Y-60778491D01*
X130509044Y-60870834D01*
X130468092Y-60924829D01*
X121202334Y-70190586D01*
X121121552Y-70244562D01*
X121026264Y-70263516D01*
X120956801Y-70253631D01*
X120952576Y-70252403D01*
X120952563Y-70252401D01*
X120915704Y-70249500D01*
X120915694Y-70249500D01*
X120755854Y-70249500D01*
X120660566Y-70230546D01*
X120579784Y-70176570D01*
X120525808Y-70095788D01*
X120506854Y-70000500D01*
X120525808Y-69905212D01*
X120579784Y-69824430D01*
X122129914Y-68274300D01*
X128777600Y-61626614D01*
X128843492Y-61512486D01*
X128877600Y-61385192D01*
X128877600Y-61253408D01*
X128877600Y-60874054D01*
X128896554Y-60778766D01*
X128950530Y-60697984D01*
X129031312Y-60644008D01*
X129126600Y-60625054D01*
X129221884Y-60644007D01*
X129308972Y-60680080D01*
X129308975Y-60680080D01*
X129308976Y-60680081D01*
X129308975Y-60680081D01*
X129442503Y-60706641D01*
X129444307Y-60707000D01*
X129582293Y-60707000D01*
X129649960Y-60693540D01*
X129717624Y-60680081D01*
X129717625Y-60680080D01*
X129717628Y-60680080D01*
X129845111Y-60627275D01*
X129959842Y-60550614D01*
X130014476Y-60495979D01*
X130095254Y-60442005D01*
X130190542Y-60423050D01*
X130285830Y-60442003D01*
G37*
%TD.AperFunction*%
%TA.AperFunction,Conductor*%
G36*
X81020788Y-53500154D02*
G01*
X81101570Y-53554130D01*
X81155546Y-53634912D01*
X81174500Y-53730200D01*
X81174500Y-54102046D01*
X81155546Y-54197334D01*
X81101570Y-54278116D01*
X74048016Y-61331670D01*
X73967234Y-61385646D01*
X73871946Y-61404600D01*
X72108054Y-61404600D01*
X72012766Y-61385646D01*
X71931984Y-61331670D01*
X71878008Y-61250888D01*
X71859054Y-61155600D01*
X71878008Y-61060312D01*
X71901020Y-61017260D01*
X71910675Y-61002811D01*
X71963480Y-60875328D01*
X71963734Y-60874054D01*
X71979321Y-60795688D01*
X71990400Y-60739993D01*
X71990400Y-60602007D01*
X71977939Y-60539361D01*
X71963481Y-60466675D01*
X71963480Y-60466672D01*
X71955714Y-60447923D01*
X71922381Y-60367451D01*
X71903428Y-60272165D01*
X71922382Y-60176877D01*
X71976358Y-60096096D01*
X72046622Y-60049146D01*
X72046452Y-60048851D01*
X72050953Y-60046251D01*
X72057139Y-60042119D01*
X72060577Y-60040694D01*
X72060586Y-60040692D01*
X72174714Y-59974800D01*
X76976084Y-55173430D01*
X77056866Y-55119454D01*
X77152154Y-55100500D01*
X77240692Y-55100500D01*
X77240694Y-55100500D01*
X77277569Y-55097598D01*
X77435398Y-55051744D01*
X77576865Y-54968081D01*
X77693081Y-54851865D01*
X77776744Y-54710398D01*
X77785566Y-54680031D01*
X77830351Y-54593815D01*
X77904722Y-54531300D01*
X77997355Y-54502004D01*
X78024679Y-54500500D01*
X78884992Y-54500500D01*
X79012286Y-54466392D01*
X79126414Y-54400500D01*
X79734914Y-53792000D01*
X79972785Y-53554130D01*
X80053566Y-53500154D01*
X80148854Y-53481200D01*
X80925500Y-53481200D01*
X81020788Y-53500154D01*
G37*
%TD.AperFunction*%
%TA.AperFunction,Conductor*%
G36*
X157995788Y-56010954D02*
G01*
X158076570Y-56064930D01*
X158130546Y-56145712D01*
X158149500Y-56240999D01*
X158149500Y-56288102D01*
X158160123Y-56376564D01*
X158160124Y-56376568D01*
X158215638Y-56517342D01*
X158262809Y-56579546D01*
X158305283Y-56666924D01*
X158311085Y-56763906D01*
X158279332Y-56855726D01*
X158262809Y-56880454D01*
X158215638Y-56942657D01*
X158160124Y-57083431D01*
X158160123Y-57083435D01*
X158160123Y-57083436D01*
X158149500Y-57171898D01*
X158149500Y-57558102D01*
X158154471Y-57599500D01*
X158160123Y-57646564D01*
X158160124Y-57646568D01*
X158215638Y-57787342D01*
X158262809Y-57849546D01*
X158305283Y-57936924D01*
X158311085Y-58033906D01*
X158279332Y-58125726D01*
X158262809Y-58150454D01*
X158215638Y-58212657D01*
X158160124Y-58353431D01*
X158160123Y-58353435D01*
X158160123Y-58353436D01*
X158150406Y-58434359D01*
X158149500Y-58441900D01*
X158149500Y-58520500D01*
X158130546Y-58615788D01*
X158076570Y-58696570D01*
X157995788Y-58750546D01*
X157900500Y-58769500D01*
X138099500Y-58769500D01*
X138004212Y-58750546D01*
X137923430Y-58696570D01*
X137869454Y-58615788D01*
X137850500Y-58520500D01*
X137850500Y-58441900D01*
X137850500Y-58441898D01*
X137839877Y-58353436D01*
X137807802Y-58272100D01*
X137784361Y-58212657D01*
X137760562Y-58181273D01*
X137718088Y-58093894D01*
X137712286Y-57996912D01*
X137744040Y-57905092D01*
X137808513Y-57832414D01*
X137834458Y-57815184D01*
X137920514Y-57765500D01*
X138297892Y-57388121D01*
X138378671Y-57334148D01*
X138425382Y-57319978D01*
X138428288Y-57319400D01*
X138428293Y-57319400D01*
X138563628Y-57292480D01*
X138691111Y-57239675D01*
X138805842Y-57163014D01*
X138903414Y-57065442D01*
X138980075Y-56950711D01*
X139032880Y-56823228D01*
X139039272Y-56791096D01*
X139051551Y-56729361D01*
X139059800Y-56687893D01*
X139059800Y-56549907D01*
X139045412Y-56477574D01*
X139032881Y-56414575D01*
X139032878Y-56414568D01*
X139000454Y-56336287D01*
X138981500Y-56240999D01*
X139000454Y-56145711D01*
X139054431Y-56064930D01*
X139135213Y-56010954D01*
X139230500Y-55992000D01*
X157900500Y-55992000D01*
X157995788Y-56010954D01*
G37*
%TD.AperFunction*%
%TA.AperFunction,Conductor*%
G36*
X74254803Y-52713354D02*
G01*
X74335585Y-52767330D01*
X74389561Y-52848112D01*
X74408515Y-52943400D01*
X74389561Y-53038688D01*
X74335587Y-53119466D01*
X74306919Y-53148135D01*
X74223256Y-53289601D01*
X74177403Y-53447427D01*
X74177401Y-53447436D01*
X74174500Y-53484295D01*
X74174500Y-54515704D01*
X74177401Y-54552563D01*
X74177401Y-54552566D01*
X74177402Y-54552569D01*
X74223256Y-54710398D01*
X74306919Y-54851865D01*
X74423135Y-54968081D01*
X74564602Y-55051744D01*
X74722431Y-55097598D01*
X74759306Y-55100500D01*
X74759308Y-55100500D01*
X75032245Y-55100500D01*
X75127533Y-55119454D01*
X75208315Y-55173430D01*
X75262291Y-55254212D01*
X75281245Y-55349500D01*
X75262291Y-55444788D01*
X75208315Y-55525570D01*
X72353501Y-58380383D01*
X72272719Y-58434359D01*
X72177431Y-58453313D01*
X72082143Y-58434359D01*
X72039093Y-58411348D01*
X71950014Y-58351827D01*
X71950013Y-58351826D01*
X71950011Y-58351825D01*
X71912670Y-58336358D01*
X71822527Y-58299019D01*
X71822524Y-58299018D01*
X71687197Y-58272100D01*
X71687193Y-58272100D01*
X71633261Y-58272100D01*
X71568816Y-58263616D01*
X71441492Y-58229500D01*
X70013315Y-58229500D01*
X69918027Y-58210546D01*
X69837245Y-58156570D01*
X69783269Y-58075788D01*
X69764315Y-57980500D01*
X69781675Y-57889154D01*
X69804805Y-57830500D01*
X69839877Y-57741564D01*
X69850500Y-57653102D01*
X69850500Y-57266898D01*
X69839877Y-57178436D01*
X69802414Y-57083436D01*
X69784362Y-57037659D01*
X69764682Y-57011707D01*
X69737189Y-56975453D01*
X69694717Y-56888078D01*
X69688914Y-56791096D01*
X69720666Y-56699276D01*
X69737186Y-56674550D01*
X69784361Y-56612342D01*
X69788063Y-56602956D01*
X69821824Y-56517342D01*
X69839877Y-56471564D01*
X69850500Y-56383102D01*
X69850500Y-55996898D01*
X69839877Y-55908436D01*
X69833001Y-55891000D01*
X69784362Y-55767659D01*
X69744376Y-55714930D01*
X69692922Y-55647078D01*
X69577302Y-55559400D01*
X69572340Y-55555637D01*
X69431568Y-55500124D01*
X69431564Y-55500123D01*
X69343102Y-55489500D01*
X67749500Y-55489500D01*
X67654212Y-55470546D01*
X67573430Y-55416570D01*
X67519454Y-55335788D01*
X67500500Y-55240500D01*
X67500500Y-53726354D01*
X67519454Y-53631066D01*
X67573430Y-53550284D01*
X68356384Y-52767330D01*
X68437166Y-52713354D01*
X68532454Y-52694400D01*
X74159515Y-52694400D01*
X74254803Y-52713354D01*
G37*
%TD.AperFunction*%
%TA.AperFunction,Conductor*%
G36*
X171070609Y-46519454D02*
G01*
X171151391Y-46573430D01*
X171205367Y-46654212D01*
X171214432Y-46680028D01*
X171223256Y-46710398D01*
X171306919Y-46851865D01*
X171423135Y-46968081D01*
X171564602Y-47051744D01*
X171722431Y-47097598D01*
X171759306Y-47100500D01*
X171759308Y-47100500D01*
X172415692Y-47100500D01*
X172415694Y-47100500D01*
X172452569Y-47097598D01*
X172610398Y-47051744D01*
X172751865Y-46968081D01*
X172823933Y-46896012D01*
X172904712Y-46842039D01*
X173000000Y-46823085D01*
X173095288Y-46842039D01*
X173176066Y-46896012D01*
X173248135Y-46968081D01*
X173389602Y-47051744D01*
X173547431Y-47097598D01*
X173584306Y-47100500D01*
X173584308Y-47100500D01*
X173993500Y-47100500D01*
X174088788Y-47119454D01*
X174169570Y-47173430D01*
X174223546Y-47254212D01*
X174242500Y-47349500D01*
X174242500Y-50944646D01*
X174223546Y-51039934D01*
X174169570Y-51120716D01*
X167147170Y-58143116D01*
X167066388Y-58197092D01*
X166971100Y-58216046D01*
X166875812Y-58197092D01*
X166795030Y-58143116D01*
X166741054Y-58062334D01*
X166722100Y-57967046D01*
X166722100Y-47349500D01*
X166741054Y-47254212D01*
X166795030Y-47173430D01*
X166875812Y-47119454D01*
X166971100Y-47100500D01*
X167240692Y-47100500D01*
X167240694Y-47100500D01*
X167277569Y-47097598D01*
X167435398Y-47051744D01*
X167576865Y-46968081D01*
X167693081Y-46851865D01*
X167693085Y-46851856D01*
X167702680Y-46839489D01*
X167704831Y-46841157D01*
X167753677Y-46786608D01*
X167841252Y-46744540D01*
X167938260Y-46739187D01*
X168008917Y-46760259D01*
X168025924Y-46768233D01*
X168047089Y-46782375D01*
X168124259Y-46814339D01*
X168129391Y-46816746D01*
X168164012Y-46842243D01*
X168199752Y-46866124D01*
X168202963Y-46870930D01*
X168207620Y-46874360D01*
X168229845Y-46911161D01*
X168253729Y-46946905D01*
X168256047Y-46954546D01*
X168257846Y-46957525D01*
X168258742Y-46963430D01*
X168267898Y-46993613D01*
X168268220Y-46995228D01*
X168320977Y-47122596D01*
X168321024Y-47122708D01*
X168321025Y-47122712D01*
X168397683Y-47237438D01*
X168397686Y-47237442D01*
X168495258Y-47335014D01*
X168495261Y-47335016D01*
X168609987Y-47411674D01*
X168609989Y-47411675D01*
X168737470Y-47464479D01*
X168737472Y-47464480D01*
X168737475Y-47464481D01*
X168871003Y-47491041D01*
X168872807Y-47491400D01*
X169010793Y-47491400D01*
X169091401Y-47475366D01*
X169146124Y-47464481D01*
X169146125Y-47464480D01*
X169146128Y-47464480D01*
X169273611Y-47411675D01*
X169388342Y-47335014D01*
X169485914Y-47237442D01*
X169562575Y-47122711D01*
X169615380Y-46995228D01*
X169615885Y-46992692D01*
X169639767Y-46872627D01*
X169642300Y-46859893D01*
X169642300Y-46749500D01*
X169661254Y-46654212D01*
X169715230Y-46573430D01*
X169796012Y-46519454D01*
X169891300Y-46500500D01*
X170975321Y-46500500D01*
X171070609Y-46519454D01*
G37*
%TD.AperFunction*%
%TA.AperFunction,Conductor*%
G36*
X47297334Y-47119454D02*
G01*
X47378116Y-47173430D01*
X49320400Y-49115714D01*
X49320399Y-49115714D01*
X49413583Y-49208897D01*
X49413583Y-49208898D01*
X49413585Y-49208899D01*
X49413586Y-49208900D01*
X49527714Y-49274792D01*
X49655007Y-49308900D01*
X49655008Y-49308900D01*
X53585446Y-49308900D01*
X53680734Y-49327854D01*
X53761516Y-49381830D01*
X56430635Y-52050949D01*
X56484611Y-52131731D01*
X56503565Y-52227019D01*
X56484611Y-52322307D01*
X56430635Y-52403089D01*
X56349853Y-52457065D01*
X56254565Y-52476019D01*
X56216043Y-52470948D01*
X56215875Y-52472230D01*
X56199695Y-52470100D01*
X56199692Y-52470100D01*
X53182792Y-52470100D01*
X53051007Y-52470100D01*
X53051004Y-52470100D01*
X52968572Y-52492188D01*
X52968570Y-52492189D01*
X52923718Y-52504206D01*
X52923714Y-52504207D01*
X52923714Y-52504208D01*
X52857739Y-52542299D01*
X52809584Y-52570101D01*
X52666332Y-52713354D01*
X52553113Y-52826571D01*
X52472334Y-52880546D01*
X52377046Y-52899500D01*
X51759295Y-52899500D01*
X51722436Y-52902401D01*
X51722427Y-52902403D01*
X51564601Y-52948256D01*
X51423135Y-53031919D01*
X51306919Y-53148135D01*
X51223256Y-53289601D01*
X51177403Y-53447427D01*
X51177401Y-53447436D01*
X51174500Y-53484295D01*
X51174500Y-54265500D01*
X51155546Y-54360788D01*
X51101570Y-54441570D01*
X51020788Y-54495546D01*
X50925500Y-54514500D01*
X48237954Y-54514500D01*
X48142666Y-54495546D01*
X48061884Y-54441570D01*
X47898430Y-54278116D01*
X47844454Y-54197334D01*
X47825500Y-54102046D01*
X47825500Y-53484308D01*
X47825499Y-53484295D01*
X47822598Y-53447431D01*
X47776744Y-53289602D01*
X47693081Y-53148135D01*
X47576865Y-53031919D01*
X47435398Y-52948256D01*
X47277569Y-52902402D01*
X47277566Y-52902401D01*
X47277563Y-52902401D01*
X47240704Y-52899500D01*
X47240694Y-52899500D01*
X46749500Y-52899500D01*
X46654212Y-52880546D01*
X46573430Y-52826570D01*
X46519454Y-52745788D01*
X46500500Y-52650500D01*
X46500500Y-47349500D01*
X46519454Y-47254212D01*
X46573430Y-47173430D01*
X46654212Y-47119454D01*
X46749500Y-47100500D01*
X47202046Y-47100500D01*
X47297334Y-47119454D01*
G37*
%TD.AperFunction*%
%TA.AperFunction,Conductor*%
G36*
X164020788Y-45508654D02*
G01*
X164101570Y-45562630D01*
X164155546Y-45643412D01*
X164174500Y-45738700D01*
X164174500Y-46515704D01*
X164177401Y-46552563D01*
X164177401Y-46552566D01*
X164177402Y-46552569D01*
X164223256Y-46710398D01*
X164306919Y-46851865D01*
X164423135Y-46968081D01*
X164564602Y-47051744D01*
X164722431Y-47097598D01*
X164759306Y-47100500D01*
X164759308Y-47100500D01*
X165377046Y-47100500D01*
X165472334Y-47119454D01*
X165553116Y-47173430D01*
X165648170Y-47268484D01*
X165702146Y-47349266D01*
X165721100Y-47444554D01*
X165721100Y-52554646D01*
X165702146Y-52649934D01*
X165648170Y-52730716D01*
X165567388Y-52784692D01*
X165472100Y-52803646D01*
X165376812Y-52784692D01*
X165296030Y-52730716D01*
X160089681Y-47524367D01*
X160035705Y-47443585D01*
X160016751Y-47348297D01*
X160035705Y-47253009D01*
X160089681Y-47172227D01*
X160170463Y-47118251D01*
X160246211Y-47100065D01*
X160277569Y-47097598D01*
X160435398Y-47051744D01*
X160576865Y-46968081D01*
X160693081Y-46851865D01*
X160776744Y-46710398D01*
X160822598Y-46552569D01*
X160825500Y-46515694D01*
X160825500Y-45738700D01*
X160844454Y-45643412D01*
X160898430Y-45562630D01*
X160979212Y-45508654D01*
X161074500Y-45489700D01*
X163925500Y-45489700D01*
X164020788Y-45508654D01*
G37*
%TD.AperFunction*%
%TA.AperFunction,Conductor*%
G36*
X143401524Y-38898476D02*
G01*
X143432745Y-38896758D01*
X143449486Y-38902637D01*
X143467166Y-38904171D01*
X143494913Y-38918589D01*
X143524412Y-38928949D01*
X143543824Y-38944006D01*
X143553376Y-38948970D01*
X143564050Y-38957524D01*
X143685354Y-39078828D01*
X143844595Y-39194524D01*
X143886294Y-39215770D01*
X143906215Y-39231735D01*
X143968719Y-39306115D01*
X143998000Y-39398753D01*
X143999500Y-39426039D01*
X143999500Y-44650500D01*
X143980546Y-44745788D01*
X143926570Y-44826570D01*
X143845788Y-44880546D01*
X143750500Y-44899500D01*
X143584295Y-44899500D01*
X143547436Y-44902401D01*
X143547427Y-44902403D01*
X143389601Y-44948256D01*
X143319204Y-44989889D01*
X143248135Y-45031919D01*
X143176066Y-45103987D01*
X143095288Y-45157961D01*
X143000000Y-45176915D01*
X142904712Y-45157961D01*
X142823933Y-45103987D01*
X142751865Y-45031919D01*
X142610398Y-44948256D01*
X142452569Y-44902402D01*
X142452566Y-44902401D01*
X142452563Y-44902401D01*
X142415704Y-44899500D01*
X142415694Y-44899500D01*
X141759306Y-44899500D01*
X141759295Y-44899500D01*
X141722436Y-44902401D01*
X141722427Y-44902403D01*
X141564601Y-44948256D01*
X141423135Y-45031919D01*
X141306919Y-45148135D01*
X141223256Y-45289601D01*
X141177403Y-45447427D01*
X141177401Y-45447436D01*
X141174500Y-45484295D01*
X141174500Y-46515704D01*
X141177401Y-46552563D01*
X141177401Y-46552566D01*
X141177402Y-46552569D01*
X141223256Y-46710398D01*
X141257321Y-46768000D01*
X141289512Y-46859664D01*
X141284173Y-46956673D01*
X141242118Y-47044254D01*
X141219066Y-47070819D01*
X138050216Y-50239670D01*
X137969434Y-50293646D01*
X137874146Y-50312600D01*
X135122954Y-50312600D01*
X135027666Y-50293646D01*
X134946884Y-50239670D01*
X133511133Y-48803919D01*
X133457157Y-48723137D01*
X133438203Y-48627849D01*
X133457157Y-48532561D01*
X133462625Y-48520304D01*
X133470293Y-48504290D01*
X133541775Y-48397311D01*
X133594580Y-48269828D01*
X133603111Y-48226936D01*
X133616637Y-48198692D01*
X133627342Y-48184401D01*
X133634175Y-48167906D01*
X133665146Y-48130167D01*
X134621884Y-47173430D01*
X134702665Y-47119454D01*
X134797953Y-47100500D01*
X135415692Y-47100500D01*
X135415694Y-47100500D01*
X135452569Y-47097598D01*
X135610398Y-47051744D01*
X135751865Y-46968081D01*
X135823933Y-46896012D01*
X135904712Y-46842039D01*
X136000000Y-46823085D01*
X136095288Y-46842039D01*
X136176066Y-46896012D01*
X136248135Y-46968081D01*
X136389602Y-47051744D01*
X136547431Y-47097598D01*
X136584306Y-47100500D01*
X136584308Y-47100500D01*
X137240692Y-47100500D01*
X137240694Y-47100500D01*
X137277569Y-47097598D01*
X137435398Y-47051744D01*
X137576865Y-46968081D01*
X137693081Y-46851865D01*
X137776744Y-46710398D01*
X137822598Y-46552569D01*
X137825500Y-46515694D01*
X137825500Y-45897953D01*
X137844454Y-45802665D01*
X137898427Y-45721886D01*
X142400499Y-41219815D01*
X142403618Y-41214414D01*
X142466392Y-41105686D01*
X142500500Y-40978392D01*
X142500500Y-39617145D01*
X142519454Y-39521857D01*
X142573430Y-39441075D01*
X142654212Y-39387099D01*
X142690430Y-39376423D01*
X142690350Y-39376148D01*
X142702576Y-39372596D01*
X142860398Y-39326744D01*
X143001865Y-39243081D01*
X143118081Y-39126865D01*
X143183338Y-39016520D01*
X143195173Y-39003306D01*
X143203357Y-38987559D01*
X143227297Y-38967440D01*
X143248156Y-38944153D01*
X143264149Y-38936472D01*
X143277737Y-38925055D01*
X143307553Y-38915630D01*
X143335737Y-38902097D01*
X143353455Y-38901121D01*
X143370375Y-38895774D01*
X143401524Y-38898476D01*
G37*
%TD.AperFunction*%
%TA.AperFunction,Conductor*%
G36*
X162595788Y-37239154D02*
G01*
X162676570Y-37293130D01*
X162730546Y-37373912D01*
X162749500Y-37469200D01*
X162749500Y-38790704D01*
X162752401Y-38827563D01*
X162752401Y-38827566D01*
X162752402Y-38827569D01*
X162798256Y-38985398D01*
X162881919Y-39126865D01*
X162998135Y-39243081D01*
X163139602Y-39326744D01*
X163297431Y-39372598D01*
X163334306Y-39375500D01*
X163334308Y-39375500D01*
X164665692Y-39375500D01*
X164665694Y-39375500D01*
X164702569Y-39372598D01*
X164860398Y-39326744D01*
X165001865Y-39243081D01*
X165118081Y-39126865D01*
X165183338Y-39016520D01*
X165194543Y-39004009D01*
X165202176Y-38989045D01*
X165226671Y-38968139D01*
X165248156Y-38944153D01*
X165263298Y-38936881D01*
X165276077Y-38925976D01*
X165306709Y-38916035D01*
X165335737Y-38902097D01*
X165352509Y-38901173D01*
X165368488Y-38895989D01*
X165400590Y-38898527D01*
X165432745Y-38896758D01*
X165448593Y-38902323D01*
X165465341Y-38903648D01*
X165484716Y-38915008D01*
X165524412Y-38928949D01*
X165551890Y-38947789D01*
X165563380Y-38956854D01*
X165685354Y-39078828D01*
X165844595Y-39194524D01*
X165901155Y-39223342D01*
X165920450Y-39238565D01*
X165936338Y-39257182D01*
X165955561Y-39272336D01*
X165967567Y-39293774D01*
X165983519Y-39312466D01*
X165991073Y-39335748D01*
X166003034Y-39357104D01*
X166006736Y-39369603D01*
X166033605Y-39469879D01*
X166033607Y-39469882D01*
X166033608Y-39469886D01*
X166099500Y-39584014D01*
X166192686Y-39677200D01*
X166306814Y-39743092D01*
X166434108Y-39777200D01*
X166878746Y-39777200D01*
X166974034Y-39796154D01*
X167054816Y-39850130D01*
X171722775Y-44518089D01*
X171776751Y-44598871D01*
X171795705Y-44694159D01*
X171776751Y-44789447D01*
X171722775Y-44870229D01*
X171641993Y-44924205D01*
X171616178Y-44933271D01*
X171564604Y-44948255D01*
X171564601Y-44948256D01*
X171423135Y-45031919D01*
X171306919Y-45148135D01*
X171223256Y-45289601D01*
X171223255Y-45289605D01*
X171214434Y-45319968D01*
X171169649Y-45406185D01*
X171095278Y-45468700D01*
X171002645Y-45497996D01*
X170975321Y-45499500D01*
X169417654Y-45499500D01*
X169322366Y-45480546D01*
X169241585Y-45426570D01*
X168403715Y-44588701D01*
X168403716Y-44588701D01*
X168386761Y-44578912D01*
X168289586Y-44522808D01*
X168289583Y-44522807D01*
X168289581Y-44522806D01*
X168162292Y-44488700D01*
X159164192Y-44488700D01*
X159032407Y-44488700D01*
X158905117Y-44522807D01*
X158905116Y-44522807D01*
X158905114Y-44522808D01*
X158825972Y-44568501D01*
X158790984Y-44588701D01*
X158553115Y-44826570D01*
X158472334Y-44880546D01*
X158377046Y-44899500D01*
X157759295Y-44899500D01*
X157722436Y-44902401D01*
X157722427Y-44902403D01*
X157564601Y-44948256D01*
X157423135Y-45031919D01*
X157306919Y-45148135D01*
X157223256Y-45289601D01*
X157177403Y-45447427D01*
X157177401Y-45447436D01*
X157174500Y-45484295D01*
X157174500Y-46278000D01*
X157155546Y-46373288D01*
X157101570Y-46454070D01*
X157020788Y-46508046D01*
X156925500Y-46527000D01*
X154250454Y-46527000D01*
X154155166Y-46508046D01*
X154074384Y-46454070D01*
X153898430Y-46278116D01*
X153844454Y-46197334D01*
X153825500Y-46102046D01*
X153825500Y-45484308D01*
X153825499Y-45484295D01*
X153825204Y-45480546D01*
X153822598Y-45447431D01*
X153776744Y-45289602D01*
X153693081Y-45148135D01*
X153576865Y-45031919D01*
X153435398Y-44948256D01*
X153435394Y-44948254D01*
X153383822Y-44933271D01*
X153297606Y-44888484D01*
X153235092Y-44814113D01*
X153205797Y-44721480D01*
X153214182Y-44624687D01*
X153258969Y-44538471D01*
X153277215Y-44518098D01*
X160502184Y-37293130D01*
X160582966Y-37239154D01*
X160678254Y-37220200D01*
X162500500Y-37220200D01*
X162595788Y-37239154D01*
G37*
%TD.AperFunction*%
%TA.AperFunction,Conductor*%
G36*
X73524412Y-38928949D02*
G01*
X73573726Y-38967200D01*
X73685354Y-39078828D01*
X73685357Y-39078830D01*
X73751469Y-39126864D01*
X73844595Y-39194524D01*
X74019975Y-39283884D01*
X74207174Y-39344709D01*
X74401583Y-39375500D01*
X74401587Y-39375500D01*
X74598413Y-39375500D01*
X74598417Y-39375500D01*
X74792826Y-39344709D01*
X74980025Y-39283884D01*
X75155405Y-39194524D01*
X75268261Y-39112528D01*
X75356488Y-39071854D01*
X75453568Y-39068038D01*
X75544718Y-39101664D01*
X75590689Y-39137903D01*
X81280123Y-44827337D01*
X81334099Y-44908119D01*
X81353053Y-45003407D01*
X81334099Y-45098695D01*
X81313646Y-45133913D01*
X81314894Y-45134651D01*
X81306920Y-45148133D01*
X81306919Y-45148135D01*
X81301108Y-45157961D01*
X81223256Y-45289601D01*
X81177403Y-45447427D01*
X81177401Y-45447436D01*
X81174500Y-45484295D01*
X81174500Y-46271500D01*
X81155546Y-46366788D01*
X81101570Y-46447570D01*
X81020788Y-46501546D01*
X80925500Y-46520500D01*
X80168354Y-46520500D01*
X80073066Y-46501546D01*
X79992284Y-46447570D01*
X79078322Y-45533608D01*
X78141514Y-44596800D01*
X78027386Y-44530908D01*
X78027383Y-44530907D01*
X78027381Y-44530906D01*
X77900092Y-44496800D01*
X76400653Y-44496800D01*
X76305365Y-44477846D01*
X76224583Y-44423870D01*
X72573430Y-40772716D01*
X72519454Y-40691934D01*
X72500500Y-40596646D01*
X72500500Y-39617145D01*
X72519454Y-39521857D01*
X72573430Y-39441075D01*
X72654212Y-39387099D01*
X72690430Y-39376423D01*
X72690350Y-39376148D01*
X72702576Y-39372596D01*
X72860398Y-39326744D01*
X73001865Y-39243081D01*
X73118081Y-39126865D01*
X73183338Y-39016520D01*
X73248156Y-38944153D01*
X73335737Y-38902097D01*
X73432745Y-38896758D01*
X73524412Y-38928949D01*
G37*
%TD.AperFunction*%
%TA.AperFunction,Conductor*%
G36*
X51400590Y-38898527D02*
G01*
X51432745Y-38896758D01*
X51448593Y-38902323D01*
X51465341Y-38903648D01*
X51494029Y-38918279D01*
X51524412Y-38928949D01*
X51542578Y-38943039D01*
X51551890Y-38947789D01*
X51563380Y-38956854D01*
X51685354Y-39078828D01*
X51844595Y-39194524D01*
X51901155Y-39223342D01*
X51920450Y-39238565D01*
X51983519Y-39312466D01*
X52006736Y-39369603D01*
X52033605Y-39469879D01*
X52033607Y-39469882D01*
X52033608Y-39469886D01*
X52099500Y-39584014D01*
X52602472Y-40086986D01*
X52656446Y-40167765D01*
X52675400Y-40263053D01*
X52675400Y-44601146D01*
X52656446Y-44696434D01*
X52602470Y-44777214D01*
X52553114Y-44826571D01*
X52472334Y-44880546D01*
X52377046Y-44899500D01*
X51759295Y-44899500D01*
X51722436Y-44902401D01*
X51722427Y-44902403D01*
X51564601Y-44948256D01*
X51423135Y-45031919D01*
X51306919Y-45148135D01*
X51223256Y-45289601D01*
X51177403Y-45447427D01*
X51177401Y-45447436D01*
X51174500Y-45484295D01*
X51174500Y-46255100D01*
X51155546Y-46350388D01*
X51101570Y-46431170D01*
X51020788Y-46485146D01*
X50925500Y-46504100D01*
X49842254Y-46504100D01*
X49746966Y-46485146D01*
X49666184Y-46431170D01*
X48735343Y-45500329D01*
X47803514Y-44568500D01*
X47689386Y-44502608D01*
X47689383Y-44502607D01*
X47689381Y-44502606D01*
X47562092Y-44468500D01*
X46475392Y-44468500D01*
X46343607Y-44468500D01*
X46289598Y-44482971D01*
X46289596Y-44482972D01*
X46251082Y-44493292D01*
X46216314Y-44502608D01*
X46102186Y-44568500D01*
X46102185Y-44568501D01*
X45994872Y-44675813D01*
X45973333Y-44689907D01*
X45951690Y-44698628D01*
X45932288Y-44711592D01*
X45907069Y-44716608D01*
X45883219Y-44726219D01*
X45859885Y-44725993D01*
X45837000Y-44730546D01*
X45811779Y-44725529D01*
X45786068Y-44725281D01*
X45764599Y-44716144D01*
X45741712Y-44711592D01*
X45720329Y-44697304D01*
X45696672Y-44687237D01*
X45680334Y-44670581D01*
X45660930Y-44657616D01*
X45646642Y-44636233D01*
X45628639Y-44617879D01*
X45619917Y-44596236D01*
X45606954Y-44576834D01*
X45601937Y-44551615D01*
X45592327Y-44527765D01*
X45592552Y-44504431D01*
X45588000Y-44481546D01*
X45588000Y-43222953D01*
X45606954Y-43127665D01*
X45660928Y-43046885D01*
X49259383Y-39448429D01*
X49340165Y-39394454D01*
X49435453Y-39375500D01*
X50665692Y-39375500D01*
X50665694Y-39375500D01*
X50702569Y-39372598D01*
X50860398Y-39326744D01*
X51001865Y-39243081D01*
X51118081Y-39126865D01*
X51183338Y-39016520D01*
X51194543Y-39004009D01*
X51202176Y-38989045D01*
X51226671Y-38968139D01*
X51248156Y-38944153D01*
X51263298Y-38936881D01*
X51276077Y-38925976D01*
X51306709Y-38916035D01*
X51335737Y-38902097D01*
X51352509Y-38901173D01*
X51368488Y-38895989D01*
X51400590Y-38898527D01*
G37*
%TD.AperFunction*%
%TA.AperFunction,Conductor*%
G36*
X188846288Y-31018954D02*
G01*
X188927070Y-31072930D01*
X188981046Y-31153712D01*
X189000000Y-31249000D01*
X189000000Y-103751000D01*
X188981046Y-103846288D01*
X188927070Y-103927070D01*
X188846288Y-103981046D01*
X188751000Y-104000000D01*
X31249000Y-104000000D01*
X31153712Y-103981046D01*
X31072930Y-103927070D01*
X31018954Y-103846288D01*
X31000000Y-103751000D01*
X31000000Y-98878712D01*
X34149500Y-98878712D01*
X34149500Y-99121287D01*
X34181162Y-99361790D01*
X34181163Y-99361795D01*
X34243940Y-99596082D01*
X34243948Y-99596105D01*
X34336770Y-99820201D01*
X34336778Y-99820217D01*
X34458058Y-100030279D01*
X34458064Y-100030289D01*
X34605729Y-100222731D01*
X34605738Y-100222741D01*
X34777258Y-100394261D01*
X34777268Y-100394270D01*
X34898491Y-100487287D01*
X34969711Y-100541936D01*
X34969720Y-100541941D01*
X35179782Y-100663221D01*
X35179798Y-100663229D01*
X35319858Y-100721242D01*
X35403900Y-100756054D01*
X35403911Y-100756057D01*
X35403917Y-100756059D01*
X35587021Y-100805121D01*
X35638211Y-100818838D01*
X35878712Y-100850500D01*
X36121288Y-100850500D01*
X36361789Y-100818838D01*
X36523275Y-100775567D01*
X36596082Y-100756059D01*
X36596084Y-100756058D01*
X36596100Y-100756054D01*
X36747766Y-100693231D01*
X36820201Y-100663229D01*
X36820206Y-100663226D01*
X36820212Y-100663224D01*
X37030289Y-100541936D01*
X37222738Y-100394265D01*
X37394265Y-100222738D01*
X37541936Y-100030289D01*
X37663224Y-99820212D01*
X37756054Y-99596100D01*
X37818838Y-99361789D01*
X37850500Y-99121288D01*
X37850500Y-98878712D01*
X182149500Y-98878712D01*
X182149500Y-99121287D01*
X182181162Y-99361790D01*
X182181163Y-99361795D01*
X182243940Y-99596082D01*
X182243948Y-99596105D01*
X182336770Y-99820201D01*
X182336778Y-99820217D01*
X182458058Y-100030279D01*
X182458064Y-100030289D01*
X182605729Y-100222731D01*
X182605738Y-100222741D01*
X182777258Y-100394261D01*
X182777268Y-100394270D01*
X182898491Y-100487287D01*
X182969711Y-100541936D01*
X182969720Y-100541941D01*
X183179782Y-100663221D01*
X183179798Y-100663229D01*
X183319858Y-100721242D01*
X183403900Y-100756054D01*
X183403911Y-100756057D01*
X183403917Y-100756059D01*
X183587021Y-100805121D01*
X183638211Y-100818838D01*
X183878712Y-100850500D01*
X184121288Y-100850500D01*
X184361789Y-100818838D01*
X184523275Y-100775567D01*
X184596082Y-100756059D01*
X184596084Y-100756058D01*
X184596100Y-100756054D01*
X184747766Y-100693231D01*
X184820201Y-100663229D01*
X184820206Y-100663226D01*
X184820212Y-100663224D01*
X185030289Y-100541936D01*
X185222738Y-100394265D01*
X185394265Y-100222738D01*
X185541936Y-100030289D01*
X185663224Y-99820212D01*
X185756054Y-99596100D01*
X185818838Y-99361789D01*
X185850500Y-99121288D01*
X185850500Y-98878712D01*
X185818838Y-98638211D01*
X185756054Y-98403900D01*
X185689441Y-98243081D01*
X185663229Y-98179798D01*
X185663221Y-98179782D01*
X185541941Y-97969720D01*
X185541935Y-97969710D01*
X185394270Y-97777268D01*
X185394261Y-97777258D01*
X185222741Y-97605738D01*
X185222731Y-97605729D01*
X185030289Y-97458064D01*
X185030279Y-97458058D01*
X184820217Y-97336778D01*
X184820201Y-97336770D01*
X184596105Y-97243948D01*
X184596103Y-97243947D01*
X184596100Y-97243946D01*
X184596096Y-97243945D01*
X184596082Y-97243940D01*
X184361795Y-97181163D01*
X184361790Y-97181162D01*
X184121288Y-97149500D01*
X183878712Y-97149500D01*
X183638209Y-97181162D01*
X183638204Y-97181163D01*
X183403917Y-97243940D01*
X183403894Y-97243948D01*
X183179798Y-97336770D01*
X183179782Y-97336778D01*
X182969720Y-97458058D01*
X182969710Y-97458064D01*
X182777268Y-97605729D01*
X182777258Y-97605738D01*
X182605738Y-97777258D01*
X182605729Y-97777268D01*
X182458064Y-97969710D01*
X182458058Y-97969720D01*
X182336778Y-98179782D01*
X182336770Y-98179798D01*
X182243948Y-98403894D01*
X182243940Y-98403917D01*
X182181163Y-98638204D01*
X182181162Y-98638209D01*
X182149500Y-98878712D01*
X37850500Y-98878712D01*
X37818838Y-98638211D01*
X37756054Y-98403900D01*
X37689441Y-98243081D01*
X37663229Y-98179798D01*
X37663221Y-98179782D01*
X37541941Y-97969720D01*
X37541935Y-97969710D01*
X37394270Y-97777268D01*
X37394261Y-97777258D01*
X37222741Y-97605738D01*
X37222731Y-97605729D01*
X37030289Y-97458064D01*
X37030279Y-97458058D01*
X36820217Y-97336778D01*
X36820201Y-97336770D01*
X36596105Y-97243948D01*
X36596103Y-97243947D01*
X36596100Y-97243946D01*
X36596096Y-97243945D01*
X36596082Y-97243940D01*
X36361795Y-97181163D01*
X36361790Y-97181162D01*
X36121288Y-97149500D01*
X35878712Y-97149500D01*
X35638209Y-97181162D01*
X35638204Y-97181163D01*
X35403917Y-97243940D01*
X35403894Y-97243948D01*
X35179798Y-97336770D01*
X35179782Y-97336778D01*
X34969720Y-97458058D01*
X34969710Y-97458064D01*
X34777268Y-97605729D01*
X34777258Y-97605738D01*
X34605738Y-97777258D01*
X34605729Y-97777268D01*
X34458064Y-97969710D01*
X34458058Y-97969720D01*
X34336778Y-98179782D01*
X34336770Y-98179798D01*
X34243948Y-98403894D01*
X34243940Y-98403917D01*
X34181163Y-98638204D01*
X34181162Y-98638209D01*
X34149500Y-98878712D01*
X31000000Y-98878712D01*
X31000000Y-96209295D01*
X62749500Y-96209295D01*
X62749500Y-97790704D01*
X62752401Y-97827563D01*
X62752401Y-97827566D01*
X62752402Y-97827569D01*
X62798256Y-97985398D01*
X62881919Y-98126865D01*
X62998135Y-98243081D01*
X63139602Y-98326744D01*
X63297431Y-98372598D01*
X63334306Y-98375500D01*
X63334308Y-98375500D01*
X64665692Y-98375500D01*
X64665694Y-98375500D01*
X64702569Y-98372598D01*
X64860398Y-98326744D01*
X65001865Y-98243081D01*
X65118081Y-98126865D01*
X65201744Y-97985398D01*
X65247598Y-97827569D01*
X65250500Y-97790694D01*
X65250500Y-96776587D01*
X67749500Y-96776587D01*
X67749500Y-97223412D01*
X67749501Y-97223428D01*
X67780290Y-97417822D01*
X67821807Y-97545600D01*
X67841116Y-97605025D01*
X67930476Y-97780405D01*
X67930479Y-97780409D01*
X67930479Y-97780410D01*
X68036718Y-97926634D01*
X68046172Y-97939646D01*
X68185354Y-98078828D01*
X68185357Y-98078830D01*
X68324326Y-98179798D01*
X68344595Y-98194524D01*
X68519975Y-98283884D01*
X68707174Y-98344709D01*
X68901583Y-98375500D01*
X68901587Y-98375500D01*
X69098413Y-98375500D01*
X69098417Y-98375500D01*
X69292826Y-98344709D01*
X69480025Y-98283884D01*
X69655405Y-98194524D01*
X69814646Y-98078828D01*
X69953828Y-97939646D01*
X70069524Y-97780405D01*
X70158884Y-97605025D01*
X70219709Y-97417826D01*
X70250500Y-97223417D01*
X70250500Y-96776583D01*
X70219709Y-96582174D01*
X70158884Y-96394975D01*
X70069524Y-96219595D01*
X70069521Y-96219591D01*
X70069520Y-96219589D01*
X70062041Y-96209295D01*
X82749500Y-96209295D01*
X82749500Y-97790704D01*
X82752401Y-97827563D01*
X82752401Y-97827566D01*
X82752402Y-97827569D01*
X82798256Y-97985398D01*
X82881919Y-98126865D01*
X82998135Y-98243081D01*
X83139602Y-98326744D01*
X83297431Y-98372598D01*
X83334306Y-98375500D01*
X83334308Y-98375500D01*
X84665692Y-98375500D01*
X84665694Y-98375500D01*
X84702569Y-98372598D01*
X84860398Y-98326744D01*
X85001865Y-98243081D01*
X85118081Y-98126865D01*
X85201744Y-97985398D01*
X85247598Y-97827569D01*
X85250500Y-97790694D01*
X85250500Y-96560454D01*
X85269454Y-96465166D01*
X85323430Y-96384384D01*
X85428784Y-96279030D01*
X85509566Y-96225054D01*
X85604854Y-96206100D01*
X87559766Y-96206100D01*
X87655054Y-96225054D01*
X87735836Y-96279030D01*
X87789812Y-96359812D01*
X87808766Y-96455100D01*
X87796579Y-96532045D01*
X87780290Y-96582177D01*
X87749501Y-96776571D01*
X87749500Y-96776587D01*
X87749500Y-97223412D01*
X87749501Y-97223428D01*
X87780290Y-97417822D01*
X87821807Y-97545600D01*
X87841116Y-97605025D01*
X87930476Y-97780405D01*
X87930479Y-97780409D01*
X87930479Y-97780410D01*
X88036718Y-97926634D01*
X88046172Y-97939646D01*
X88185354Y-98078828D01*
X88185357Y-98078830D01*
X88324326Y-98179798D01*
X88344595Y-98194524D01*
X88519975Y-98283884D01*
X88707174Y-98344709D01*
X88901583Y-98375500D01*
X88901587Y-98375500D01*
X89098413Y-98375500D01*
X89098417Y-98375500D01*
X89292826Y-98344709D01*
X89480025Y-98283884D01*
X89655405Y-98194524D01*
X89814646Y-98078828D01*
X89953828Y-97939646D01*
X89963285Y-97926628D01*
X90034621Y-97860682D01*
X90125770Y-97827052D01*
X90222850Y-97830863D01*
X90311082Y-97871534D01*
X90340800Y-97896915D01*
X91139484Y-98695598D01*
X91139483Y-98695598D01*
X91139485Y-98695599D01*
X91139486Y-98695600D01*
X91253614Y-98761492D01*
X91380908Y-98795600D01*
X134524592Y-98795600D01*
X134651886Y-98761492D01*
X134766014Y-98695600D01*
X135359733Y-98101879D01*
X135440511Y-98047905D01*
X135535799Y-98028951D01*
X135631088Y-98047905D01*
X135682160Y-98076507D01*
X135685352Y-98078826D01*
X135685354Y-98078828D01*
X135685357Y-98078830D01*
X135824326Y-98179798D01*
X135844595Y-98194524D01*
X136019975Y-98283884D01*
X136207174Y-98344709D01*
X136401583Y-98375500D01*
X136401587Y-98375500D01*
X136598413Y-98375500D01*
X136598417Y-98375500D01*
X136792826Y-98344709D01*
X136980025Y-98283884D01*
X137155405Y-98194524D01*
X137314646Y-98078828D01*
X137453828Y-97939646D01*
X137569524Y-97780405D01*
X137658884Y-97605025D01*
X137719709Y-97417826D01*
X137750500Y-97223417D01*
X137750500Y-96776583D01*
X137719709Y-96582174D01*
X137658884Y-96394975D01*
X137569524Y-96219595D01*
X137569521Y-96219591D01*
X137569520Y-96219589D01*
X137562041Y-96209295D01*
X156749500Y-96209295D01*
X156749500Y-97790704D01*
X156752401Y-97827563D01*
X156752401Y-97827566D01*
X156752402Y-97827569D01*
X156798256Y-97985398D01*
X156881919Y-98126865D01*
X156998135Y-98243081D01*
X157139602Y-98326744D01*
X157297431Y-98372598D01*
X157334306Y-98375500D01*
X157334308Y-98375500D01*
X158665692Y-98375500D01*
X158665694Y-98375500D01*
X158702569Y-98372598D01*
X158860398Y-98326744D01*
X159001865Y-98243081D01*
X159118081Y-98126865D01*
X159183338Y-98016520D01*
X159248156Y-97944153D01*
X159335737Y-97902097D01*
X159432745Y-97896758D01*
X159524412Y-97928949D01*
X159573726Y-97967200D01*
X159685354Y-98078828D01*
X159685357Y-98078830D01*
X159824326Y-98179798D01*
X159844595Y-98194524D01*
X160019975Y-98283884D01*
X160207174Y-98344709D01*
X160401583Y-98375500D01*
X160401587Y-98375500D01*
X160598413Y-98375500D01*
X160598417Y-98375500D01*
X160792826Y-98344709D01*
X160980025Y-98283884D01*
X161155405Y-98194524D01*
X161314646Y-98078828D01*
X161453828Y-97939646D01*
X161548555Y-97809265D01*
X161619899Y-97743317D01*
X161711049Y-97709690D01*
X161808129Y-97713505D01*
X161896359Y-97754180D01*
X161951444Y-97809265D01*
X162046172Y-97939646D01*
X162185354Y-98078828D01*
X162185357Y-98078830D01*
X162324326Y-98179798D01*
X162344595Y-98194524D01*
X162519975Y-98283884D01*
X162707174Y-98344709D01*
X162901583Y-98375500D01*
X162901587Y-98375500D01*
X163098413Y-98375500D01*
X163098417Y-98375500D01*
X163292826Y-98344709D01*
X163480025Y-98283884D01*
X163655405Y-98194524D01*
X163814646Y-98078828D01*
X163953828Y-97939646D01*
X164069524Y-97780405D01*
X164158884Y-97605025D01*
X164219709Y-97417826D01*
X164250500Y-97223417D01*
X164250500Y-96776583D01*
X164219709Y-96582174D01*
X164158884Y-96394975D01*
X164069524Y-96219595D01*
X164059719Y-96206100D01*
X163953830Y-96060357D01*
X163953828Y-96060354D01*
X163814646Y-95921172D01*
X163802549Y-95912383D01*
X163655410Y-95805479D01*
X163655407Y-95805477D01*
X163655405Y-95805476D01*
X163480025Y-95716116D01*
X163480024Y-95716115D01*
X163480023Y-95716115D01*
X163480017Y-95716113D01*
X163348116Y-95673256D01*
X163292826Y-95655291D01*
X163292824Y-95655290D01*
X163292822Y-95655290D01*
X163098428Y-95624501D01*
X163098419Y-95624500D01*
X163098417Y-95624500D01*
X162901583Y-95624500D01*
X162901580Y-95624500D01*
X162901571Y-95624501D01*
X162707177Y-95655290D01*
X162519982Y-95716113D01*
X162519976Y-95716115D01*
X162439894Y-95756919D01*
X162344595Y-95805476D01*
X162344592Y-95805477D01*
X162344590Y-95805479D01*
X162344589Y-95805479D01*
X162185357Y-95921169D01*
X162046169Y-96060357D01*
X161951444Y-96190734D01*
X161880101Y-96256682D01*
X161788950Y-96290309D01*
X161691870Y-96286494D01*
X161603640Y-96245818D01*
X161548556Y-96190734D01*
X161453830Y-96060357D01*
X161453828Y-96060354D01*
X161314646Y-95921172D01*
X161302549Y-95912383D01*
X161155410Y-95805479D01*
X161155407Y-95805477D01*
X161155405Y-95805476D01*
X160980025Y-95716116D01*
X160980024Y-95716115D01*
X160980023Y-95716115D01*
X160980017Y-95716113D01*
X160848116Y-95673256D01*
X160792826Y-95655291D01*
X160792824Y-95655290D01*
X160792822Y-95655290D01*
X160598428Y-95624501D01*
X160598419Y-95624500D01*
X160598417Y-95624500D01*
X160401583Y-95624500D01*
X160401580Y-95624500D01*
X160401571Y-95624501D01*
X160207177Y-95655290D01*
X160019982Y-95716113D01*
X160019976Y-95716115D01*
X159939894Y-95756919D01*
X159844595Y-95805476D01*
X159844592Y-95805477D01*
X159844590Y-95805479D01*
X159844589Y-95805479D01*
X159685353Y-95921172D01*
X159573730Y-96032795D01*
X159492948Y-96086771D01*
X159397660Y-96105725D01*
X159302372Y-96086771D01*
X159221591Y-96032794D01*
X159183336Y-95983476D01*
X159118081Y-95873135D01*
X159001865Y-95756919D01*
X158860398Y-95673256D01*
X158702569Y-95627402D01*
X158702566Y-95627401D01*
X158702563Y-95627401D01*
X158665704Y-95624500D01*
X158665694Y-95624500D01*
X157334306Y-95624500D01*
X157334295Y-95624500D01*
X157297436Y-95627401D01*
X157297427Y-95627403D01*
X157139601Y-95673256D01*
X156998135Y-95756919D01*
X156881919Y-95873135D01*
X156798256Y-96014601D01*
X156752403Y-96172427D01*
X156752401Y-96172436D01*
X156749500Y-96209295D01*
X137562041Y-96209295D01*
X137453830Y-96060357D01*
X137453828Y-96060354D01*
X137314646Y-95921172D01*
X137302549Y-95912383D01*
X137155410Y-95805479D01*
X137155407Y-95805477D01*
X137155405Y-95805476D01*
X136980025Y-95716116D01*
X136980024Y-95716115D01*
X136980023Y-95716115D01*
X136980017Y-95716113D01*
X136848116Y-95673256D01*
X136792826Y-95655291D01*
X136792824Y-95655290D01*
X136792822Y-95655290D01*
X136598428Y-95624501D01*
X136598419Y-95624500D01*
X136598417Y-95624500D01*
X136401583Y-95624500D01*
X136401580Y-95624500D01*
X136401571Y-95624501D01*
X136207177Y-95655290D01*
X136019982Y-95716113D01*
X136019976Y-95716115D01*
X135939894Y-95756919D01*
X135844595Y-95805476D01*
X135844592Y-95805477D01*
X135844590Y-95805479D01*
X135844589Y-95805479D01*
X135685357Y-95921169D01*
X135546169Y-96060357D01*
X135451444Y-96190734D01*
X135380101Y-96256682D01*
X135288950Y-96290309D01*
X135191870Y-96286494D01*
X135103640Y-96245818D01*
X135048556Y-96190734D01*
X134953830Y-96060357D01*
X134953828Y-96060354D01*
X134814646Y-95921172D01*
X134802549Y-95912383D01*
X134655410Y-95805479D01*
X134655407Y-95805477D01*
X134655405Y-95805476D01*
X134480025Y-95716116D01*
X134480024Y-95716115D01*
X134480023Y-95716115D01*
X134480017Y-95716113D01*
X134348116Y-95673256D01*
X134292826Y-95655291D01*
X134292824Y-95655290D01*
X134292822Y-95655290D01*
X134098428Y-95624501D01*
X134098419Y-95624500D01*
X134098417Y-95624500D01*
X133901583Y-95624500D01*
X133901580Y-95624500D01*
X133901571Y-95624501D01*
X133707177Y-95655290D01*
X133519982Y-95716113D01*
X133519976Y-95716115D01*
X133439894Y-95756919D01*
X133344595Y-95805476D01*
X133344592Y-95805477D01*
X133344590Y-95805479D01*
X133344589Y-95805479D01*
X133185357Y-95921169D01*
X133046169Y-96060357D01*
X132951444Y-96190734D01*
X132880101Y-96256682D01*
X132788950Y-96290309D01*
X132691870Y-96286494D01*
X132603640Y-96245818D01*
X132548556Y-96190734D01*
X132453830Y-96060357D01*
X132453828Y-96060354D01*
X132314646Y-95921172D01*
X132302549Y-95912383D01*
X132155410Y-95805479D01*
X132155407Y-95805477D01*
X132155405Y-95805476D01*
X131980025Y-95716116D01*
X131980024Y-95716115D01*
X131980023Y-95716115D01*
X131980017Y-95716113D01*
X131848116Y-95673256D01*
X131792826Y-95655291D01*
X131792824Y-95655290D01*
X131792822Y-95655290D01*
X131598428Y-95624501D01*
X131598419Y-95624500D01*
X131598417Y-95624500D01*
X131401583Y-95624500D01*
X131401580Y-95624500D01*
X131401571Y-95624501D01*
X131207177Y-95655290D01*
X131019982Y-95716113D01*
X131019976Y-95716115D01*
X130939894Y-95756919D01*
X130844595Y-95805476D01*
X130844592Y-95805477D01*
X130844590Y-95805479D01*
X130844589Y-95805479D01*
X130685357Y-95921169D01*
X130546169Y-96060357D01*
X130451444Y-96190734D01*
X130380101Y-96256682D01*
X130288950Y-96290309D01*
X130191870Y-96286494D01*
X130103640Y-96245818D01*
X130048556Y-96190734D01*
X129953830Y-96060357D01*
X129953828Y-96060354D01*
X129814646Y-95921172D01*
X129802549Y-95912383D01*
X129655410Y-95805479D01*
X129655407Y-95805477D01*
X129655405Y-95805476D01*
X129480025Y-95716116D01*
X129480024Y-95716115D01*
X129480023Y-95716115D01*
X129480017Y-95716113D01*
X129348116Y-95673256D01*
X129292826Y-95655291D01*
X129292824Y-95655290D01*
X129292822Y-95655290D01*
X129098428Y-95624501D01*
X129098419Y-95624500D01*
X129098417Y-95624500D01*
X128901583Y-95624500D01*
X128901580Y-95624500D01*
X128901571Y-95624501D01*
X128707177Y-95655290D01*
X128519982Y-95716113D01*
X128519976Y-95716115D01*
X128439894Y-95756919D01*
X128344595Y-95805476D01*
X128344592Y-95805477D01*
X128344590Y-95805479D01*
X128344584Y-95805482D01*
X128197448Y-95912383D01*
X128109217Y-95953058D01*
X128012137Y-95956872D01*
X127920987Y-95923245D01*
X127875020Y-95887007D01*
X127293118Y-95305103D01*
X127293115Y-95305101D01*
X127293114Y-95305100D01*
X127178986Y-95239208D01*
X127178983Y-95239207D01*
X127178981Y-95239206D01*
X127051692Y-95205100D01*
X85360292Y-95205100D01*
X85228508Y-95205100D01*
X85101218Y-95239206D01*
X85101214Y-95239207D01*
X85101214Y-95239208D01*
X85025128Y-95283136D01*
X84987084Y-95305101D01*
X84740615Y-95551570D01*
X84659834Y-95605546D01*
X84564546Y-95624500D01*
X83334295Y-95624500D01*
X83297436Y-95627401D01*
X83297427Y-95627403D01*
X83139601Y-95673256D01*
X82998135Y-95756919D01*
X82881919Y-95873135D01*
X82798256Y-96014601D01*
X82752403Y-96172427D01*
X82752401Y-96172436D01*
X82749500Y-96209295D01*
X70062041Y-96209295D01*
X69953830Y-96060357D01*
X69953828Y-96060354D01*
X69814646Y-95921172D01*
X69802549Y-95912383D01*
X69655410Y-95805479D01*
X69655407Y-95805477D01*
X69655405Y-95805476D01*
X69480025Y-95716116D01*
X69480024Y-95716115D01*
X69480023Y-95716115D01*
X69480017Y-95716113D01*
X69348116Y-95673256D01*
X69292826Y-95655291D01*
X69292824Y-95655290D01*
X69292822Y-95655290D01*
X69098428Y-95624501D01*
X69098419Y-95624500D01*
X69098417Y-95624500D01*
X68901583Y-95624500D01*
X68901580Y-95624500D01*
X68901571Y-95624501D01*
X68707177Y-95655290D01*
X68519982Y-95716113D01*
X68519976Y-95716115D01*
X68439894Y-95756919D01*
X68344595Y-95805476D01*
X68344592Y-95805477D01*
X68344590Y-95805479D01*
X68344589Y-95805479D01*
X68185357Y-95921169D01*
X68046169Y-96060357D01*
X67930479Y-96219589D01*
X67930479Y-96219590D01*
X67930477Y-96219592D01*
X67930476Y-96219595D01*
X67894446Y-96290309D01*
X67841115Y-96394976D01*
X67841113Y-96394982D01*
X67780290Y-96582177D01*
X67749501Y-96776571D01*
X67749500Y-96776587D01*
X65250500Y-96776587D01*
X65250500Y-96209306D01*
X65247598Y-96172431D01*
X65201744Y-96014602D01*
X65118081Y-95873135D01*
X65001865Y-95756919D01*
X64860398Y-95673256D01*
X64702569Y-95627402D01*
X64702566Y-95627401D01*
X64702563Y-95627401D01*
X64665704Y-95624500D01*
X64665694Y-95624500D01*
X63334306Y-95624500D01*
X63334295Y-95624500D01*
X63297436Y-95627401D01*
X63297427Y-95627403D01*
X63139601Y-95673256D01*
X62998135Y-95756919D01*
X62881919Y-95873135D01*
X62798256Y-96014601D01*
X62752403Y-96172427D01*
X62752401Y-96172436D01*
X62749500Y-96209295D01*
X31000000Y-96209295D01*
X31000000Y-57979753D01*
X35220900Y-57979753D01*
X35220900Y-79057146D01*
X35251661Y-79211792D01*
X35251663Y-79211797D01*
X35312003Y-79357473D01*
X35312006Y-79357480D01*
X35397627Y-79485620D01*
X35399611Y-79488589D01*
X43860511Y-87949489D01*
X43991621Y-88037094D01*
X43991623Y-88037094D01*
X43991625Y-88037096D01*
X44064462Y-88067266D01*
X44137303Y-88097438D01*
X44291958Y-88128200D01*
X44291961Y-88128200D01*
X47631942Y-88128200D01*
X47786597Y-88097437D01*
X47932279Y-88037094D01*
X48063389Y-87949489D01*
X48596531Y-87416347D01*
X48813649Y-87199230D01*
X48894430Y-87145254D01*
X48989718Y-87126300D01*
X51807110Y-87126300D01*
X51823396Y-87125500D01*
X51909482Y-87125500D01*
X52004770Y-87144454D01*
X52085552Y-87198430D01*
X52725111Y-87837989D01*
X52725110Y-87837989D01*
X52836609Y-87949487D01*
X52836611Y-87949489D01*
X52967721Y-88037094D01*
X53070733Y-88079762D01*
X53113402Y-88097437D01*
X53268057Y-88128200D01*
X53268058Y-88128200D01*
X53268060Y-88128200D01*
X64801142Y-88128200D01*
X64955797Y-88097437D01*
X65101479Y-88037094D01*
X65232589Y-87949489D01*
X65858532Y-87323545D01*
X65939311Y-87269571D01*
X66034599Y-87250617D01*
X66129887Y-87269571D01*
X66210668Y-87323547D01*
X66210669Y-87323547D01*
X66725111Y-87837989D01*
X66725110Y-87837989D01*
X66836609Y-87949487D01*
X66836611Y-87949489D01*
X66967721Y-88037094D01*
X67070733Y-88079762D01*
X67113402Y-88097437D01*
X67268057Y-88128200D01*
X67268058Y-88128200D01*
X67268060Y-88128200D01*
X78909342Y-88128200D01*
X79063997Y-88097437D01*
X79209679Y-88037094D01*
X79340789Y-87949489D01*
X79873932Y-87416345D01*
X79954711Y-87362371D01*
X80049999Y-87343417D01*
X80145287Y-87362371D01*
X80226068Y-87416347D01*
X80647711Y-87837989D01*
X80805611Y-87995889D01*
X80867277Y-88037093D01*
X80936719Y-88083493D01*
X80936720Y-88083493D01*
X80936721Y-88083494D01*
X81082403Y-88143837D01*
X81082405Y-88143837D01*
X81082407Y-88143838D01*
X81233048Y-88173802D01*
X81237058Y-88174600D01*
X92754742Y-88174600D01*
X92909397Y-88143837D01*
X93055079Y-88083494D01*
X93186189Y-87995889D01*
X93765731Y-87416347D01*
X93983649Y-87198430D01*
X94064430Y-87144454D01*
X94159718Y-87125500D01*
X94365692Y-87125500D01*
X94365694Y-87125500D01*
X94402569Y-87122598D01*
X94560398Y-87076744D01*
X94701865Y-86993081D01*
X94818081Y-86876865D01*
X94901744Y-86735398D01*
X94947598Y-86577569D01*
X94950500Y-86540694D01*
X94950500Y-86250818D01*
X94969454Y-86155530D01*
X95023430Y-86074748D01*
X96174922Y-84923256D01*
X97399733Y-83698444D01*
X97480512Y-83644471D01*
X97575800Y-83625517D01*
X97671088Y-83644471D01*
X97751866Y-83698444D01*
X98355811Y-84302389D01*
X98486921Y-84389994D01*
X98486923Y-84389994D01*
X98486925Y-84389996D01*
X98559762Y-84420166D01*
X98632603Y-84450338D01*
X98787258Y-84481100D01*
X101576808Y-84481100D01*
X101661538Y-84497952D01*
X101661801Y-84497087D01*
X101670590Y-84499753D01*
X101672089Y-84500051D01*
X101673503Y-84500637D01*
X101673506Y-84500637D01*
X101673507Y-84500638D01*
X101822186Y-84530212D01*
X101828158Y-84531400D01*
X110218042Y-84531400D01*
X110372697Y-84500637D01*
X110518379Y-84440294D01*
X110649489Y-84352689D01*
X121146789Y-73855389D01*
X121158866Y-73837314D01*
X121234394Y-73724279D01*
X121283203Y-73606442D01*
X121289463Y-73594928D01*
X121312314Y-73567482D01*
X121332150Y-73537794D01*
X121368081Y-73501865D01*
X121451744Y-73360398D01*
X121497598Y-73202569D01*
X121500500Y-73165694D01*
X121500500Y-72259718D01*
X121519454Y-72164430D01*
X121573430Y-72083648D01*
X131962048Y-61695030D01*
X132042830Y-61641054D01*
X132138118Y-61622100D01*
X158687242Y-61622100D01*
X158841897Y-61591337D01*
X158987579Y-61530994D01*
X159118689Y-61443389D01*
X159691244Y-60870834D01*
X159883649Y-60678430D01*
X159964430Y-60624454D01*
X160059718Y-60605500D01*
X160393099Y-60605500D01*
X160393102Y-60605500D01*
X160481564Y-60594877D01*
X160593809Y-60550613D01*
X160622340Y-60539362D01*
X160622340Y-60539361D01*
X160622342Y-60539361D01*
X160742922Y-60447922D01*
X160834361Y-60327342D01*
X160889877Y-60186564D01*
X160900500Y-60098102D01*
X160900500Y-59901554D01*
X160919454Y-59806266D01*
X160973430Y-59725484D01*
X161054212Y-59671508D01*
X161149500Y-59652554D01*
X161244788Y-59671508D01*
X161325570Y-59725484D01*
X162449800Y-60849714D01*
X162449799Y-60849714D01*
X162542983Y-60942897D01*
X162542983Y-60942898D01*
X162542985Y-60942899D01*
X162542986Y-60942900D01*
X162657114Y-61008792D01*
X162784408Y-61042900D01*
X165521592Y-61042900D01*
X165648886Y-61008792D01*
X165763014Y-60942900D01*
X175143500Y-51562414D01*
X175209392Y-51448286D01*
X175243500Y-51320992D01*
X175243500Y-51189207D01*
X175243500Y-45226208D01*
X175225213Y-45157961D01*
X175209393Y-45098918D01*
X175209392Y-45098914D01*
X175143500Y-44984786D01*
X175143499Y-44984785D01*
X175143498Y-44984783D01*
X175050314Y-44891599D01*
X175050314Y-44891600D01*
X173785114Y-43626400D01*
X173670986Y-43560508D01*
X173670983Y-43560507D01*
X173670981Y-43560506D01*
X173543690Y-43526399D01*
X173527514Y-43524270D01*
X173527930Y-43521104D01*
X173459266Y-43507446D01*
X173378484Y-43453470D01*
X168408830Y-38483816D01*
X168354854Y-38403034D01*
X168335900Y-38307746D01*
X168335900Y-37497707D01*
X168301793Y-37370418D01*
X168301792Y-37370414D01*
X168235900Y-37256286D01*
X168235899Y-37256285D01*
X168235898Y-37256283D01*
X168142715Y-37163100D01*
X167298815Y-36319201D01*
X167298816Y-36319201D01*
X167281861Y-36309412D01*
X167184686Y-36253308D01*
X167184683Y-36253307D01*
X167184681Y-36253306D01*
X167057392Y-36219200D01*
X160433692Y-36219200D01*
X160301907Y-36219200D01*
X160174617Y-36253307D01*
X160174616Y-36253307D01*
X160174614Y-36253308D01*
X160060486Y-36319200D01*
X151553115Y-44826570D01*
X151472333Y-44880546D01*
X151377045Y-44899500D01*
X150759295Y-44899500D01*
X150722436Y-44902401D01*
X150722427Y-44902403D01*
X150564601Y-44948256D01*
X150423135Y-45031919D01*
X150306919Y-45148135D01*
X150223256Y-45289601D01*
X150177403Y-45447427D01*
X150177401Y-45447436D01*
X150174500Y-45484295D01*
X150174500Y-46515704D01*
X150177401Y-46552563D01*
X150177401Y-46552566D01*
X150177402Y-46552569D01*
X150223256Y-46710398D01*
X150306919Y-46851865D01*
X150423135Y-46968081D01*
X150564602Y-47051744D01*
X150722431Y-47097598D01*
X150759306Y-47100500D01*
X150759308Y-47100500D01*
X151415692Y-47100500D01*
X151415694Y-47100500D01*
X151452569Y-47097598D01*
X151610398Y-47051744D01*
X151751865Y-46968081D01*
X151823933Y-46896012D01*
X151904712Y-46842039D01*
X152000000Y-46823085D01*
X152095288Y-46842039D01*
X152176066Y-46896012D01*
X152248135Y-46968081D01*
X152389602Y-47051744D01*
X152547431Y-47097598D01*
X152584306Y-47100500D01*
X152584308Y-47100500D01*
X153202046Y-47100500D01*
X153297334Y-47119454D01*
X153378116Y-47173430D01*
X153539500Y-47334814D01*
X153539499Y-47334814D01*
X153596604Y-47391918D01*
X153632686Y-47428000D01*
X153695871Y-47464480D01*
X153746814Y-47493892D01*
X153874107Y-47528000D01*
X153874108Y-47528000D01*
X158574546Y-47528000D01*
X158669834Y-47546954D01*
X158750616Y-47600930D01*
X165214670Y-54064984D01*
X165268646Y-54145766D01*
X165287600Y-54241054D01*
X165287600Y-55145500D01*
X165268646Y-55240788D01*
X165214670Y-55321570D01*
X165133888Y-55375546D01*
X165038600Y-55394500D01*
X165009718Y-55394500D01*
X164914430Y-55375546D01*
X164875449Y-55349500D01*
X164833648Y-55321570D01*
X164833645Y-55321566D01*
X164081789Y-54569711D01*
X164010455Y-54522047D01*
X163950680Y-54482106D01*
X163950673Y-54482103D01*
X163804997Y-54421763D01*
X163804992Y-54421761D01*
X163650346Y-54391000D01*
X163650342Y-54391000D01*
X137457342Y-54391000D01*
X137299658Y-54391000D01*
X137299653Y-54391000D01*
X137145007Y-54421761D01*
X137145002Y-54421763D01*
X136999326Y-54482103D01*
X136999319Y-54482106D01*
X136868212Y-54569710D01*
X136868209Y-54569711D01*
X136651069Y-54786852D01*
X136570288Y-54840828D01*
X136474999Y-54859782D01*
X136379711Y-54840828D01*
X136298931Y-54786852D01*
X135880195Y-54368117D01*
X135826218Y-54287335D01*
X135807264Y-54192047D01*
X135826218Y-54096759D01*
X135836669Y-54074664D01*
X135838674Y-54070912D01*
X135838675Y-54070911D01*
X135891480Y-53943428D01*
X135918400Y-53808093D01*
X135918400Y-53670107D01*
X135891480Y-53534772D01*
X135838675Y-53407289D01*
X135762014Y-53292558D01*
X135760364Y-53290088D01*
X135723184Y-53200328D01*
X135718400Y-53151751D01*
X135718400Y-52876907D01*
X135684293Y-52749618D01*
X135684292Y-52749614D01*
X135618400Y-52635486D01*
X135618399Y-52635485D01*
X135618398Y-52635483D01*
X135525214Y-52542299D01*
X135525214Y-52542300D01*
X134721584Y-51738670D01*
X134667608Y-51657888D01*
X134648654Y-51562600D01*
X134667608Y-51467312D01*
X134721584Y-51386530D01*
X134802366Y-51332554D01*
X134897654Y-51313600D01*
X137235100Y-51313600D01*
X137330388Y-51332554D01*
X137411170Y-51386530D01*
X137465146Y-51467312D01*
X137484100Y-51562600D01*
X137484100Y-51659597D01*
X137511018Y-51794924D01*
X137511019Y-51794927D01*
X137563824Y-51922408D01*
X137563825Y-51922412D01*
X137640483Y-52037138D01*
X137640486Y-52037142D01*
X137738058Y-52134714D01*
X137738061Y-52134716D01*
X137852787Y-52211374D01*
X137852789Y-52211375D01*
X137980272Y-52264180D01*
X137980275Y-52264181D01*
X138113803Y-52290741D01*
X138115607Y-52291100D01*
X138253593Y-52291100D01*
X138321260Y-52277640D01*
X138388924Y-52264181D01*
X138388925Y-52264180D01*
X138388928Y-52264180D01*
X138516411Y-52211375D01*
X138631142Y-52134714D01*
X138728714Y-52037142D01*
X138805375Y-51922411D01*
X138858180Y-51794928D01*
X138869371Y-51738670D01*
X138885099Y-51659597D01*
X138885100Y-51659592D01*
X138885100Y-51521607D01*
X138885099Y-51521602D01*
X138858181Y-51386275D01*
X138858180Y-51386272D01*
X138813950Y-51279492D01*
X138805375Y-51258789D01*
X138775249Y-51213703D01*
X138738071Y-51123945D01*
X138738070Y-51026790D01*
X138775250Y-50937030D01*
X138806211Y-50899302D01*
X142488000Y-47217514D01*
X142537209Y-47132281D01*
X142538269Y-47131072D01*
X142538808Y-47129550D01*
X142545178Y-47123193D01*
X142601264Y-47059240D01*
X142603791Y-47057326D01*
X142614532Y-47049299D01*
X142751865Y-46968081D01*
X142836598Y-46883347D01*
X142850944Y-46872627D01*
X142878929Y-46859266D01*
X142904712Y-46842039D01*
X142922370Y-46838526D01*
X142938619Y-46830769D01*
X142969585Y-46829134D01*
X143000000Y-46823085D01*
X143017659Y-46826597D01*
X143035639Y-46825649D01*
X143064873Y-46835989D01*
X143095288Y-46842039D01*
X143110258Y-46852041D01*
X143127234Y-46858046D01*
X143150286Y-46878787D01*
X143176066Y-46896012D01*
X143248135Y-46968081D01*
X143389602Y-47051744D01*
X143547431Y-47097598D01*
X143584306Y-47100500D01*
X143584308Y-47100500D01*
X144240692Y-47100500D01*
X144240694Y-47100500D01*
X144277569Y-47097598D01*
X144435398Y-47051744D01*
X144576865Y-46968081D01*
X144693081Y-46851865D01*
X144776744Y-46710398D01*
X144822598Y-46552569D01*
X144825500Y-46515694D01*
X144825500Y-45897953D01*
X144844454Y-45802665D01*
X144852314Y-45785549D01*
X144870281Y-45750032D01*
X144900499Y-45719815D01*
X144903246Y-45715058D01*
X144966392Y-45605686D01*
X144985705Y-45533608D01*
X145000500Y-45478393D01*
X145000500Y-45346608D01*
X145000500Y-39426039D01*
X145019454Y-39330751D01*
X145073430Y-39249969D01*
X145136461Y-39204176D01*
X145155405Y-39194524D01*
X145314646Y-39078828D01*
X145453828Y-38939646D01*
X145569524Y-38780405D01*
X145658884Y-38605025D01*
X145719709Y-38417826D01*
X145750500Y-38223417D01*
X145750500Y-37776583D01*
X145719709Y-37582174D01*
X145658884Y-37394975D01*
X145569524Y-37219595D01*
X145453828Y-37060354D01*
X145314646Y-36921172D01*
X145314642Y-36921169D01*
X145155410Y-36805479D01*
X145155407Y-36805477D01*
X145155405Y-36805476D01*
X144980025Y-36716116D01*
X144980024Y-36716115D01*
X144980023Y-36716115D01*
X144980017Y-36716113D01*
X144848116Y-36673256D01*
X144792826Y-36655291D01*
X144792824Y-36655290D01*
X144792822Y-36655290D01*
X144598428Y-36624501D01*
X144598419Y-36624500D01*
X144598417Y-36624500D01*
X144401583Y-36624500D01*
X144401580Y-36624500D01*
X144401571Y-36624501D01*
X144207177Y-36655290D01*
X144019982Y-36716113D01*
X144019976Y-36716115D01*
X143939894Y-36756919D01*
X143844595Y-36805476D01*
X143844592Y-36805477D01*
X143844590Y-36805479D01*
X143844589Y-36805479D01*
X143685353Y-36921172D01*
X143573730Y-37032795D01*
X143492948Y-37086771D01*
X143397660Y-37105725D01*
X143302372Y-37086771D01*
X143221591Y-37032794D01*
X143183336Y-36983476D01*
X143118081Y-36873135D01*
X143001865Y-36756919D01*
X142860398Y-36673256D01*
X142702569Y-36627402D01*
X142702566Y-36627401D01*
X142702563Y-36627401D01*
X142665704Y-36624500D01*
X142665694Y-36624500D01*
X141334306Y-36624500D01*
X141334295Y-36624500D01*
X141297436Y-36627401D01*
X141297427Y-36627403D01*
X141139601Y-36673256D01*
X140998135Y-36756919D01*
X140881919Y-36873135D01*
X140798256Y-37014601D01*
X140752403Y-37172427D01*
X140752401Y-37172436D01*
X140749500Y-37209295D01*
X140749500Y-38790704D01*
X140752401Y-38827563D01*
X140752401Y-38827566D01*
X140752402Y-38827569D01*
X140798256Y-38985398D01*
X140881919Y-39126865D01*
X140998135Y-39243081D01*
X141139602Y-39326744D01*
X141297424Y-39372596D01*
X141309650Y-39376148D01*
X141309191Y-39377724D01*
X141385553Y-39407952D01*
X141455327Y-39475558D01*
X141493919Y-39564720D01*
X141499500Y-39617145D01*
X141499500Y-40602045D01*
X141480546Y-40697333D01*
X141426570Y-40778115D01*
X137378115Y-44826570D01*
X137297333Y-44880546D01*
X137202045Y-44899500D01*
X136584295Y-44899500D01*
X136547436Y-44902401D01*
X136547427Y-44902403D01*
X136389601Y-44948256D01*
X136319204Y-44989889D01*
X136248135Y-45031919D01*
X136176066Y-45103987D01*
X136095288Y-45157961D01*
X136000000Y-45176915D01*
X135904712Y-45157961D01*
X135823933Y-45103987D01*
X135751865Y-45031919D01*
X135610398Y-44948256D01*
X135452569Y-44902402D01*
X135452566Y-44902401D01*
X135452563Y-44902401D01*
X135415704Y-44899500D01*
X135415694Y-44899500D01*
X134759306Y-44899500D01*
X134759295Y-44899500D01*
X134722436Y-44902401D01*
X134722427Y-44902403D01*
X134564601Y-44948256D01*
X134423135Y-45031919D01*
X134306919Y-45148135D01*
X134223256Y-45289601D01*
X134177403Y-45447427D01*
X134177401Y-45447436D01*
X134174500Y-45484295D01*
X134174500Y-46102045D01*
X134155546Y-46197333D01*
X134101570Y-46278115D01*
X133087615Y-47292070D01*
X133006833Y-47346046D01*
X132911545Y-47365000D01*
X132852002Y-47365000D01*
X132716675Y-47391918D01*
X132716672Y-47391919D01*
X132589191Y-47444724D01*
X132589182Y-47444728D01*
X132496986Y-47506332D01*
X132407227Y-47543512D01*
X132310072Y-47543511D01*
X132220312Y-47506332D01*
X132182580Y-47475366D01*
X131424330Y-46717116D01*
X131370354Y-46636334D01*
X131351400Y-46541046D01*
X131351400Y-45354596D01*
X131351400Y-45351608D01*
X131350299Y-45347500D01*
X131317292Y-45224314D01*
X131273310Y-45148135D01*
X131251400Y-45110186D01*
X131251399Y-45110185D01*
X131251398Y-45110183D01*
X131158215Y-45017000D01*
X130687715Y-44546501D01*
X130687716Y-44546501D01*
X130654632Y-44527400D01*
X130573586Y-44480608D01*
X130573583Y-44480607D01*
X130573581Y-44480606D01*
X130446292Y-44446500D01*
X129206393Y-44446500D01*
X129074608Y-44446500D01*
X128947318Y-44480606D01*
X128947314Y-44480607D01*
X128947314Y-44480608D01*
X128894499Y-44511101D01*
X128833184Y-44546501D01*
X128553115Y-44826570D01*
X128472334Y-44880546D01*
X128377046Y-44899500D01*
X127759295Y-44899500D01*
X127722436Y-44902401D01*
X127722427Y-44902403D01*
X127564601Y-44948256D01*
X127423135Y-45031919D01*
X127306919Y-45148135D01*
X127223256Y-45289601D01*
X127177403Y-45447427D01*
X127177401Y-45447436D01*
X127174500Y-45484295D01*
X127174500Y-46259900D01*
X127155546Y-46355188D01*
X127101570Y-46435970D01*
X127020788Y-46489946D01*
X126925500Y-46508900D01*
X124232354Y-46508900D01*
X124137066Y-46489946D01*
X124056284Y-46435970D01*
X123898430Y-46278116D01*
X123844454Y-46197334D01*
X123825500Y-46102046D01*
X123825500Y-45484308D01*
X123825499Y-45484295D01*
X123825204Y-45480546D01*
X123822598Y-45447431D01*
X123776744Y-45289602D01*
X123693081Y-45148135D01*
X123576865Y-45031919D01*
X123435398Y-44948256D01*
X123277569Y-44902402D01*
X123277566Y-44902401D01*
X123277563Y-44902401D01*
X123240704Y-44899500D01*
X123240694Y-44899500D01*
X122584306Y-44899500D01*
X122584295Y-44899500D01*
X122547436Y-44902401D01*
X122547427Y-44902403D01*
X122389601Y-44948256D01*
X122319204Y-44989889D01*
X122248135Y-45031919D01*
X122176066Y-45103987D01*
X122095288Y-45157961D01*
X122000000Y-45176915D01*
X121904712Y-45157961D01*
X121823933Y-45103987D01*
X121751865Y-45031919D01*
X121610398Y-44948256D01*
X121452569Y-44902402D01*
X121452566Y-44902401D01*
X121452563Y-44902401D01*
X121415704Y-44899500D01*
X121415694Y-44899500D01*
X120759306Y-44899500D01*
X120759295Y-44899500D01*
X120722436Y-44902401D01*
X120722427Y-44902403D01*
X120564601Y-44948256D01*
X120423135Y-45031919D01*
X120306919Y-45148135D01*
X120223256Y-45289601D01*
X120177403Y-45447427D01*
X120177401Y-45447436D01*
X120174500Y-45484295D01*
X120174500Y-46515704D01*
X120177401Y-46552563D01*
X120177401Y-46552566D01*
X120177402Y-46552569D01*
X120223256Y-46710398D01*
X120306919Y-46851865D01*
X120423135Y-46968081D01*
X120464752Y-46992693D01*
X120488054Y-47013563D01*
X120514070Y-47030947D01*
X120523919Y-47045687D01*
X120537121Y-47057512D01*
X120550663Y-47085713D01*
X120568046Y-47111729D01*
X120571504Y-47129114D01*
X120579177Y-47145093D01*
X120587000Y-47207017D01*
X120587000Y-47684646D01*
X120568046Y-47779934D01*
X120514070Y-47860716D01*
X120514066Y-47860718D01*
X120445808Y-47928976D01*
X120365026Y-47982952D01*
X120318319Y-47997120D01*
X120180074Y-48024619D01*
X120180072Y-48024619D01*
X120052591Y-48077424D01*
X120052587Y-48077425D01*
X119937861Y-48154083D01*
X119840283Y-48251661D01*
X119763625Y-48366387D01*
X119763624Y-48366391D01*
X119710819Y-48493872D01*
X119710818Y-48493875D01*
X119683900Y-48629202D01*
X119683900Y-48767197D01*
X119710818Y-48902524D01*
X119710819Y-48902527D01*
X119763624Y-49030008D01*
X119763625Y-49030012D01*
X119820890Y-49115714D01*
X119840286Y-49144742D01*
X119937858Y-49242314D01*
X119937861Y-49242316D01*
X120052587Y-49318974D01*
X120052589Y-49318975D01*
X120180072Y-49371780D01*
X120180075Y-49371781D01*
X120313603Y-49398341D01*
X120315407Y-49398700D01*
X120453393Y-49398700D01*
X120538204Y-49381830D01*
X120588724Y-49371781D01*
X120588725Y-49371780D01*
X120588728Y-49371780D01*
X120716211Y-49318975D01*
X120830942Y-49242314D01*
X120928514Y-49144742D01*
X121005175Y-49030011D01*
X121057980Y-48902528D01*
X121084900Y-48767193D01*
X121084900Y-48767187D01*
X121085478Y-48764282D01*
X121122658Y-48674523D01*
X121153619Y-48636794D01*
X121488000Y-48302414D01*
X121553892Y-48188286D01*
X121588000Y-48060992D01*
X121588000Y-47929207D01*
X121588000Y-47207017D01*
X121606954Y-47111729D01*
X121660930Y-47030947D01*
X121678221Y-47015209D01*
X121693344Y-47002689D01*
X121751865Y-46968081D01*
X121832208Y-46887737D01*
X121841221Y-46880277D01*
X121873863Y-46862651D01*
X121904712Y-46842039D01*
X121916307Y-46839732D01*
X121926709Y-46834116D01*
X121963610Y-46830323D01*
X122000000Y-46823085D01*
X122011595Y-46825391D01*
X122023355Y-46824183D01*
X122058899Y-46834800D01*
X122095288Y-46842039D01*
X122105118Y-46848607D01*
X122116445Y-46851991D01*
X122145218Y-46875401D01*
X122176066Y-46896012D01*
X122248135Y-46968081D01*
X122389602Y-47051744D01*
X122547431Y-47097598D01*
X122584306Y-47100500D01*
X122584308Y-47100500D01*
X123202046Y-47100500D01*
X123297334Y-47119454D01*
X123378115Y-47173430D01*
X123614584Y-47409898D01*
X123614583Y-47409898D01*
X123614585Y-47409899D01*
X123614586Y-47409900D01*
X123728714Y-47475792D01*
X123856007Y-47509900D01*
X123856008Y-47509900D01*
X128974046Y-47509900D01*
X129069334Y-47528854D01*
X129150116Y-47582830D01*
X134603813Y-53036527D01*
X134657789Y-53117309D01*
X134676743Y-53212597D01*
X134657789Y-53307885D01*
X134634781Y-53350931D01*
X134597126Y-53407286D01*
X134597124Y-53407291D01*
X134544319Y-53534772D01*
X134544318Y-53534775D01*
X134517400Y-53670102D01*
X134517400Y-53792000D01*
X134498446Y-53887288D01*
X134444470Y-53968070D01*
X134363688Y-54022046D01*
X134268400Y-54041000D01*
X128740754Y-54041000D01*
X128646902Y-54059669D01*
X128615618Y-54065892D01*
X128597843Y-54069427D01*
X128586101Y-54071763D01*
X128440426Y-54132103D01*
X128440419Y-54132107D01*
X128330592Y-54205490D01*
X128330591Y-54205492D01*
X128319879Y-54212649D01*
X128309312Y-54219710D01*
X120521823Y-62007197D01*
X120441041Y-62061173D01*
X120345753Y-62080127D01*
X120250465Y-62061173D01*
X120207416Y-62038163D01*
X120118312Y-61978626D01*
X120118313Y-61978626D01*
X120118311Y-61978625D01*
X120022421Y-61938906D01*
X119990827Y-61925819D01*
X119990824Y-61925818D01*
X119855497Y-61898900D01*
X119855493Y-61898900D01*
X119717507Y-61898900D01*
X119717502Y-61898900D01*
X119582175Y-61925818D01*
X119582172Y-61925819D01*
X119454691Y-61978624D01*
X119454687Y-61978625D01*
X119337489Y-62056936D01*
X119247730Y-62094115D01*
X119199152Y-62098900D01*
X90997354Y-62098900D01*
X90902066Y-62079946D01*
X90821284Y-62025970D01*
X84277224Y-55481910D01*
X84223248Y-55401128D01*
X84204294Y-55305840D01*
X84223248Y-55210552D01*
X84277224Y-55129770D01*
X84358006Y-55075794D01*
X84383817Y-55066729D01*
X84435398Y-55051744D01*
X84576865Y-54968081D01*
X84693081Y-54851865D01*
X84776744Y-54710398D01*
X84822598Y-54552569D01*
X84825500Y-54515694D01*
X84825500Y-53484306D01*
X84822598Y-53447431D01*
X84776744Y-53289602D01*
X84693081Y-53148135D01*
X84664412Y-53119466D01*
X84610439Y-53038688D01*
X84591485Y-52943400D01*
X84610439Y-52848112D01*
X84664415Y-52767330D01*
X84745197Y-52713354D01*
X84840485Y-52694400D01*
X84954346Y-52694400D01*
X85049634Y-52713354D01*
X85130416Y-52767330D01*
X87822486Y-55459400D01*
X87936614Y-55525292D01*
X88063908Y-55559400D01*
X89919492Y-55559400D01*
X90046786Y-55525292D01*
X90160914Y-55459400D01*
X90446882Y-55173430D01*
X90527663Y-55119454D01*
X90622951Y-55100500D01*
X91240692Y-55100500D01*
X91240694Y-55100500D01*
X91277569Y-55097598D01*
X91435398Y-55051744D01*
X91576865Y-54968081D01*
X91693081Y-54851865D01*
X91776744Y-54710398D01*
X91785566Y-54680031D01*
X91830351Y-54593815D01*
X91904722Y-54531300D01*
X91997355Y-54502004D01*
X92024679Y-54500500D01*
X94975321Y-54500500D01*
X95070609Y-54519454D01*
X95151391Y-54573430D01*
X95205367Y-54654212D01*
X95214432Y-54680028D01*
X95223256Y-54710398D01*
X95306919Y-54851865D01*
X95423135Y-54968081D01*
X95564602Y-55051744D01*
X95722431Y-55097598D01*
X95759306Y-55100500D01*
X95759308Y-55100500D01*
X96415692Y-55100500D01*
X96415694Y-55100500D01*
X96452569Y-55097598D01*
X96610398Y-55051744D01*
X96751865Y-54968081D01*
X96868081Y-54851865D01*
X96951744Y-54710398D01*
X96997598Y-54552569D01*
X97000500Y-54515694D01*
X97000500Y-53484306D01*
X96997598Y-53447431D01*
X96951744Y-53289602D01*
X96868081Y-53148135D01*
X96751865Y-53031919D01*
X96610398Y-52948256D01*
X96452569Y-52902402D01*
X96452566Y-52902401D01*
X96452563Y-52902401D01*
X96415704Y-52899500D01*
X96415694Y-52899500D01*
X95759306Y-52899500D01*
X95759295Y-52899500D01*
X95722436Y-52902401D01*
X95722427Y-52902403D01*
X95564601Y-52948256D01*
X95423135Y-53031919D01*
X95306919Y-53148135D01*
X95223256Y-53289601D01*
X95223255Y-53289605D01*
X95214434Y-53319968D01*
X95169649Y-53406185D01*
X95095278Y-53468700D01*
X95002645Y-53497996D01*
X94975321Y-53499500D01*
X92024679Y-53499500D01*
X91929391Y-53480546D01*
X91848609Y-53426570D01*
X91794633Y-53345788D01*
X91785566Y-53319968D01*
X91776744Y-53289602D01*
X91693081Y-53148135D01*
X91576865Y-53031919D01*
X91435398Y-52948256D01*
X91277569Y-52902402D01*
X91277566Y-52902401D01*
X91277563Y-52902401D01*
X91240704Y-52899500D01*
X91240694Y-52899500D01*
X90584306Y-52899500D01*
X90584295Y-52899500D01*
X90547436Y-52902401D01*
X90547427Y-52902403D01*
X90389601Y-52948256D01*
X90295702Y-53003788D01*
X90248135Y-53031919D01*
X90176066Y-53103987D01*
X90095288Y-53157961D01*
X90000000Y-53176915D01*
X89904712Y-53157961D01*
X89823933Y-53103987D01*
X89751865Y-53031919D01*
X89610398Y-52948256D01*
X89452569Y-52902402D01*
X89452566Y-52902401D01*
X89452563Y-52902401D01*
X89415704Y-52899500D01*
X89415694Y-52899500D01*
X88797954Y-52899500D01*
X88702666Y-52880546D01*
X88621884Y-52826570D01*
X86895758Y-51100444D01*
X85143814Y-49348500D01*
X85029686Y-49282608D01*
X85029683Y-49282607D01*
X85029681Y-49282606D01*
X84902392Y-49248500D01*
X80971954Y-49248500D01*
X80876666Y-49229546D01*
X80795884Y-49175570D01*
X79560928Y-47940614D01*
X79506952Y-47859832D01*
X79487998Y-47764544D01*
X79506952Y-47669256D01*
X79560928Y-47588474D01*
X79641710Y-47534498D01*
X79736998Y-47515544D01*
X79775658Y-47520634D01*
X79775825Y-47519370D01*
X79792006Y-47521500D01*
X79792008Y-47521500D01*
X88094892Y-47521500D01*
X88222186Y-47487392D01*
X88336314Y-47421500D01*
X88489330Y-47268484D01*
X88559383Y-47198431D01*
X88640164Y-47144454D01*
X88735452Y-47125500D01*
X89365692Y-47125500D01*
X89365694Y-47125500D01*
X89402569Y-47122598D01*
X89560398Y-47076744D01*
X89701865Y-46993081D01*
X89818081Y-46876865D01*
X89901744Y-46735398D01*
X89947598Y-46577569D01*
X89950500Y-46540694D01*
X89950500Y-45676399D01*
X89969454Y-45581112D01*
X90023430Y-45500330D01*
X90104212Y-45446354D01*
X90199500Y-45427400D01*
X94666446Y-45427400D01*
X94761734Y-45446354D01*
X94842516Y-45500330D01*
X95076570Y-45734384D01*
X95130546Y-45815166D01*
X95149500Y-45910454D01*
X95149500Y-46540704D01*
X95152401Y-46577563D01*
X95152401Y-46577566D01*
X95152402Y-46577569D01*
X95198256Y-46735398D01*
X95281919Y-46876865D01*
X95398135Y-46993081D01*
X95539602Y-47076744D01*
X95697431Y-47122598D01*
X95734306Y-47125500D01*
X95734308Y-47125500D01*
X96365692Y-47125500D01*
X96365694Y-47125500D01*
X96402569Y-47122598D01*
X96560398Y-47076744D01*
X96701865Y-46993081D01*
X96818081Y-46876865D01*
X96901744Y-46735398D01*
X96947598Y-46577569D01*
X96950500Y-46540694D01*
X96950500Y-45459306D01*
X96947598Y-45422431D01*
X96901744Y-45264602D01*
X96818081Y-45123135D01*
X96701865Y-45006919D01*
X96560398Y-44923256D01*
X96402569Y-44877402D01*
X96402566Y-44877401D01*
X96402563Y-44877401D01*
X96365704Y-44874500D01*
X96365694Y-44874500D01*
X95735454Y-44874500D01*
X95640166Y-44855546D01*
X95559385Y-44801570D01*
X95284215Y-44526401D01*
X95284216Y-44526401D01*
X95257714Y-44511100D01*
X95170086Y-44460508D01*
X95170083Y-44460507D01*
X95170081Y-44460506D01*
X95042792Y-44426400D01*
X82397954Y-44426400D01*
X82302666Y-44407446D01*
X82221884Y-44353470D01*
X76225130Y-38356716D01*
X76171154Y-38275934D01*
X76152200Y-38180646D01*
X76152200Y-37934107D01*
X76121314Y-37818838D01*
X76118092Y-37806814D01*
X76052200Y-37692686D01*
X75959014Y-37599500D01*
X75844886Y-37533608D01*
X75844882Y-37533607D01*
X75844879Y-37533605D01*
X75818362Y-37526500D01*
X75731226Y-37483529D01*
X75667168Y-37410484D01*
X75660948Y-37399027D01*
X75658884Y-37394976D01*
X75658884Y-37394975D01*
X75569524Y-37219595D01*
X75569521Y-37219591D01*
X75569520Y-37219589D01*
X75453830Y-37060357D01*
X75453828Y-37060354D01*
X75314646Y-36921172D01*
X75314642Y-36921169D01*
X75155410Y-36805479D01*
X75155407Y-36805477D01*
X75155405Y-36805476D01*
X74980025Y-36716116D01*
X74980024Y-36716115D01*
X74980023Y-36716115D01*
X74980017Y-36716113D01*
X74848116Y-36673256D01*
X74792826Y-36655291D01*
X74792824Y-36655290D01*
X74792822Y-36655290D01*
X74598428Y-36624501D01*
X74598419Y-36624500D01*
X74598417Y-36624500D01*
X74401583Y-36624500D01*
X74401580Y-36624500D01*
X74401571Y-36624501D01*
X74207177Y-36655290D01*
X74019982Y-36716113D01*
X74019976Y-36716115D01*
X73939894Y-36756919D01*
X73844595Y-36805476D01*
X73844592Y-36805477D01*
X73844590Y-36805479D01*
X73844589Y-36805479D01*
X73685353Y-36921172D01*
X73573730Y-37032795D01*
X73492948Y-37086771D01*
X73397660Y-37105725D01*
X73302372Y-37086771D01*
X73221591Y-37032794D01*
X73183336Y-36983476D01*
X73118081Y-36873135D01*
X73001865Y-36756919D01*
X72860398Y-36673256D01*
X72702569Y-36627402D01*
X72702566Y-36627401D01*
X72702563Y-36627401D01*
X72665704Y-36624500D01*
X72665694Y-36624500D01*
X71334306Y-36624500D01*
X71334295Y-36624500D01*
X71297436Y-36627401D01*
X71297427Y-36627403D01*
X71139601Y-36673256D01*
X70998135Y-36756919D01*
X70881919Y-36873135D01*
X70798256Y-37014601D01*
X70752403Y-37172427D01*
X70752401Y-37172436D01*
X70749500Y-37209295D01*
X70749500Y-38790704D01*
X70752401Y-38827563D01*
X70752401Y-38827566D01*
X70752402Y-38827569D01*
X70798256Y-38985398D01*
X70881919Y-39126865D01*
X70998135Y-39243081D01*
X71139602Y-39326744D01*
X71297424Y-39372596D01*
X71309650Y-39376148D01*
X71309191Y-39377724D01*
X71385553Y-39407952D01*
X71455327Y-39475558D01*
X71493919Y-39564720D01*
X71499500Y-39617145D01*
X71499500Y-40972992D01*
X71533606Y-41100281D01*
X71533607Y-41100283D01*
X71533608Y-41100286D01*
X71599500Y-41214414D01*
X73504901Y-43119814D01*
X74864508Y-44479421D01*
X74918484Y-44560203D01*
X74937438Y-44655491D01*
X74918484Y-44750779D01*
X74864508Y-44831561D01*
X74783726Y-44885537D01*
X74733177Y-44900439D01*
X74722433Y-44902401D01*
X74564601Y-44948256D01*
X74423135Y-45031919D01*
X74306919Y-45148135D01*
X74223256Y-45289601D01*
X74177403Y-45447427D01*
X74177401Y-45447436D01*
X74174500Y-45484295D01*
X74174500Y-46515704D01*
X74177401Y-46552563D01*
X74177401Y-46552566D01*
X74177402Y-46552569D01*
X74223256Y-46710398D01*
X74306919Y-46851865D01*
X74423135Y-46968081D01*
X74564602Y-47051744D01*
X74722431Y-47097598D01*
X74759306Y-47100500D01*
X74759308Y-47100500D01*
X75415692Y-47100500D01*
X75415694Y-47100500D01*
X75452569Y-47097598D01*
X75610398Y-47051744D01*
X75751865Y-46968081D01*
X75823933Y-46896012D01*
X75904712Y-46842039D01*
X76000000Y-46823085D01*
X76095288Y-46842039D01*
X76176066Y-46896012D01*
X76248135Y-46968081D01*
X76389602Y-47051744D01*
X76547431Y-47097598D01*
X76584306Y-47100500D01*
X76584308Y-47100500D01*
X77202046Y-47100500D01*
X77297334Y-47119454D01*
X77378116Y-47173430D01*
X80354186Y-50149500D01*
X80468314Y-50215392D01*
X80595608Y-50249500D01*
X80727393Y-50249500D01*
X84526046Y-50249500D01*
X84621334Y-50268454D01*
X84702116Y-50322430D01*
X85687718Y-51308032D01*
X85741694Y-51388814D01*
X85760648Y-51484102D01*
X85741694Y-51579390D01*
X85687718Y-51660172D01*
X85606936Y-51714148D01*
X85511648Y-51733102D01*
X85447204Y-51724618D01*
X85330694Y-51693400D01*
X85330692Y-51693400D01*
X68287892Y-51693400D01*
X68156108Y-51693400D01*
X68028818Y-51727506D01*
X68028814Y-51727507D01*
X68028814Y-51727508D01*
X68019125Y-51733102D01*
X67914684Y-51793401D01*
X66830314Y-52877769D01*
X66749533Y-52931745D01*
X66654245Y-52950699D01*
X66584776Y-52940812D01*
X66452569Y-52902402D01*
X66452566Y-52902401D01*
X66452563Y-52902401D01*
X66415704Y-52899500D01*
X66415694Y-52899500D01*
X65759306Y-52899500D01*
X65759295Y-52899500D01*
X65722436Y-52902401D01*
X65722427Y-52902403D01*
X65564601Y-52948256D01*
X65423135Y-53031919D01*
X65306919Y-53148135D01*
X65223256Y-53289601D01*
X65223255Y-53289605D01*
X65214434Y-53319968D01*
X65169649Y-53406185D01*
X65095278Y-53468700D01*
X65002645Y-53497996D01*
X64975321Y-53499500D01*
X62024679Y-53499500D01*
X61929391Y-53480546D01*
X61848609Y-53426570D01*
X61794633Y-53345788D01*
X61785566Y-53319968D01*
X61776744Y-53289602D01*
X61693081Y-53148135D01*
X61576865Y-53031919D01*
X61435398Y-52948256D01*
X61277569Y-52902402D01*
X61277566Y-52902401D01*
X61277563Y-52902401D01*
X61240704Y-52899500D01*
X61240694Y-52899500D01*
X60584306Y-52899500D01*
X60584295Y-52899500D01*
X60547436Y-52902401D01*
X60547427Y-52902403D01*
X60389601Y-52948256D01*
X60295702Y-53003788D01*
X60248135Y-53031919D01*
X60176066Y-53103987D01*
X60095288Y-53157961D01*
X60000000Y-53176915D01*
X59904712Y-53157961D01*
X59823933Y-53103987D01*
X59751865Y-53031919D01*
X59610398Y-52948256D01*
X59452569Y-52902402D01*
X59452566Y-52902401D01*
X59452563Y-52902401D01*
X59415704Y-52899500D01*
X59415694Y-52899500D01*
X58797954Y-52899500D01*
X58702666Y-52880546D01*
X58621884Y-52826570D01*
X56694611Y-50899297D01*
X54203214Y-48407900D01*
X54089086Y-48342008D01*
X54089083Y-48342007D01*
X54089081Y-48342006D01*
X53961792Y-48307900D01*
X50031354Y-48307900D01*
X49936066Y-48288946D01*
X49855284Y-48234970D01*
X49550484Y-47930170D01*
X49496508Y-47849388D01*
X49477554Y-47754100D01*
X49496508Y-47658812D01*
X49550484Y-47578030D01*
X49631266Y-47524054D01*
X49726554Y-47505100D01*
X52973792Y-47505100D01*
X53101086Y-47470992D01*
X53215214Y-47405100D01*
X53367305Y-47253009D01*
X53446883Y-47173431D01*
X53527664Y-47119454D01*
X53622952Y-47100500D01*
X54240692Y-47100500D01*
X54240694Y-47100500D01*
X54277569Y-47097598D01*
X54435398Y-47051744D01*
X54576865Y-46968081D01*
X54693081Y-46851865D01*
X54776744Y-46710398D01*
X54822598Y-46552569D01*
X54825500Y-46515694D01*
X54825500Y-45661100D01*
X54844454Y-45565812D01*
X54898430Y-45485030D01*
X54979212Y-45431054D01*
X55074500Y-45412100D01*
X56747258Y-45412100D01*
X56842546Y-45431054D01*
X56923328Y-45485030D01*
X56977304Y-45565812D01*
X56996258Y-45661100D01*
X56977304Y-45756388D01*
X56954295Y-45799435D01*
X56954071Y-45799770D01*
X56953924Y-45799990D01*
X56953924Y-45799991D01*
X56901119Y-45927472D01*
X56901118Y-45927475D01*
X56874200Y-46062802D01*
X56874200Y-46200797D01*
X56901118Y-46336124D01*
X56901119Y-46336127D01*
X56916512Y-46373288D01*
X56943085Y-46437442D01*
X56953924Y-46463608D01*
X56953925Y-46463612D01*
X57030583Y-46578338D01*
X57030586Y-46578342D01*
X57128158Y-46675914D01*
X57128161Y-46675916D01*
X57242887Y-46752574D01*
X57242889Y-46752575D01*
X57370372Y-46805380D01*
X57370375Y-46805381D01*
X57495768Y-46830323D01*
X57505707Y-46832300D01*
X57643693Y-46832300D01*
X57721888Y-46816746D01*
X57779024Y-46805381D01*
X57779025Y-46805380D01*
X57779028Y-46805380D01*
X57906511Y-46752575D01*
X57906522Y-46752566D01*
X57917300Y-46746808D01*
X57918130Y-46748361D01*
X57993895Y-46716970D01*
X58091050Y-46716959D01*
X58180813Y-46754130D01*
X58249520Y-46822822D01*
X58256815Y-46834416D01*
X58281919Y-46876865D01*
X58398135Y-46993081D01*
X58539602Y-47076744D01*
X58697431Y-47122598D01*
X58734306Y-47125500D01*
X58734308Y-47125500D01*
X59365692Y-47125500D01*
X59365694Y-47125500D01*
X59402569Y-47122598D01*
X59560398Y-47076744D01*
X59701865Y-46993081D01*
X59818081Y-46876865D01*
X59901744Y-46735398D01*
X59947598Y-46577569D01*
X59950500Y-46540694D01*
X59950500Y-45661100D01*
X59969454Y-45565812D01*
X60023430Y-45485030D01*
X60104212Y-45431054D01*
X60199500Y-45412100D01*
X64651146Y-45412100D01*
X64746434Y-45431054D01*
X64827216Y-45485030D01*
X65076570Y-45734384D01*
X65130546Y-45815166D01*
X65149500Y-45910454D01*
X65149500Y-46540704D01*
X65152401Y-46577563D01*
X65152401Y-46577566D01*
X65152402Y-46577569D01*
X65198256Y-46735398D01*
X65281919Y-46876865D01*
X65398135Y-46993081D01*
X65539602Y-47076744D01*
X65697431Y-47122598D01*
X65734306Y-47125500D01*
X65734308Y-47125500D01*
X66365692Y-47125500D01*
X66365694Y-47125500D01*
X66402569Y-47122598D01*
X66560398Y-47076744D01*
X66701865Y-46993081D01*
X66818081Y-46876865D01*
X66901744Y-46735398D01*
X66947598Y-46577569D01*
X66950500Y-46540694D01*
X66950500Y-45459306D01*
X66947598Y-45422431D01*
X66901744Y-45264602D01*
X66818081Y-45123135D01*
X66701865Y-45006919D01*
X66560398Y-44923256D01*
X66402569Y-44877402D01*
X66402566Y-44877401D01*
X66402563Y-44877401D01*
X66365704Y-44874500D01*
X66365694Y-44874500D01*
X65735454Y-44874500D01*
X65640166Y-44855546D01*
X65559385Y-44801570D01*
X65268915Y-44511101D01*
X65268916Y-44511101D01*
X65244146Y-44496800D01*
X65154786Y-44445208D01*
X65154783Y-44445207D01*
X65154781Y-44445206D01*
X65027492Y-44411100D01*
X53925400Y-44411100D01*
X53830112Y-44392146D01*
X53749330Y-44338170D01*
X53695354Y-44257388D01*
X53676400Y-44162100D01*
X53676400Y-39886707D01*
X53642293Y-39759418D01*
X53642292Y-39759414D01*
X53576400Y-39645286D01*
X53576399Y-39645285D01*
X53576398Y-39645283D01*
X53483214Y-39552099D01*
X53483214Y-39552100D01*
X53338363Y-39407249D01*
X53284387Y-39326467D01*
X53265433Y-39231179D01*
X53284387Y-39135891D01*
X53338358Y-39055115D01*
X53453828Y-38939646D01*
X53569524Y-38780405D01*
X53658884Y-38605025D01*
X53719709Y-38417826D01*
X53750500Y-38223417D01*
X53750500Y-37776583D01*
X53719709Y-37582174D01*
X53658884Y-37394975D01*
X53569524Y-37219595D01*
X53453828Y-37060354D01*
X53314646Y-36921172D01*
X53314642Y-36921169D01*
X53155410Y-36805479D01*
X53155407Y-36805477D01*
X53155405Y-36805476D01*
X52980025Y-36716116D01*
X52980024Y-36716115D01*
X52980023Y-36716115D01*
X52980017Y-36716113D01*
X52848116Y-36673256D01*
X52792826Y-36655291D01*
X52792824Y-36655290D01*
X52792822Y-36655290D01*
X52598428Y-36624501D01*
X52598419Y-36624500D01*
X52598417Y-36624500D01*
X52401583Y-36624500D01*
X52401580Y-36624500D01*
X52401571Y-36624501D01*
X52207177Y-36655290D01*
X52019982Y-36716113D01*
X52019976Y-36716115D01*
X51939894Y-36756919D01*
X51844595Y-36805476D01*
X51844592Y-36805477D01*
X51844590Y-36805479D01*
X51844589Y-36805479D01*
X51685353Y-36921172D01*
X51573730Y-37032795D01*
X51492948Y-37086771D01*
X51397660Y-37105725D01*
X51302372Y-37086771D01*
X51221591Y-37032794D01*
X51183336Y-36983476D01*
X51118081Y-36873135D01*
X51001865Y-36756919D01*
X50860398Y-36673256D01*
X50702569Y-36627402D01*
X50702566Y-36627401D01*
X50702563Y-36627401D01*
X50665704Y-36624500D01*
X50665694Y-36624500D01*
X49334306Y-36624500D01*
X49334295Y-36624500D01*
X49297436Y-36627401D01*
X49297427Y-36627403D01*
X49139601Y-36673256D01*
X48998135Y-36756919D01*
X48881919Y-36873135D01*
X48798256Y-37014601D01*
X48752403Y-37172427D01*
X48752401Y-37172436D01*
X48749500Y-37209295D01*
X48749500Y-38439546D01*
X48730546Y-38534834D01*
X48676570Y-38615616D01*
X44780186Y-42512000D01*
X44780185Y-42511999D01*
X44687002Y-42605183D01*
X44687001Y-42605183D01*
X44621106Y-42719318D01*
X44587000Y-42846607D01*
X44587000Y-44792982D01*
X44568046Y-44888270D01*
X44514070Y-44969052D01*
X44464754Y-45007305D01*
X44423137Y-45031917D01*
X44306919Y-45148135D01*
X44223256Y-45289601D01*
X44177403Y-45447427D01*
X44177401Y-45447436D01*
X44174500Y-45484295D01*
X44174500Y-46515704D01*
X44177401Y-46552563D01*
X44177401Y-46552566D01*
X44177402Y-46552569D01*
X44223256Y-46710398D01*
X44306919Y-46851865D01*
X44423135Y-46968081D01*
X44564602Y-47051744D01*
X44722431Y-47097598D01*
X44759306Y-47100500D01*
X44759308Y-47100500D01*
X45250500Y-47100500D01*
X45345788Y-47119454D01*
X45426570Y-47173430D01*
X45480546Y-47254212D01*
X45499500Y-47349500D01*
X45499500Y-52650500D01*
X45480546Y-52745788D01*
X45426570Y-52826570D01*
X45345788Y-52880546D01*
X45250500Y-52899500D01*
X44759295Y-52899500D01*
X44722436Y-52902401D01*
X44722427Y-52902403D01*
X44564601Y-52948256D01*
X44423135Y-53031919D01*
X44306919Y-53148135D01*
X44223256Y-53289601D01*
X44177403Y-53447427D01*
X44177401Y-53447436D01*
X44174500Y-53484295D01*
X44174500Y-54515704D01*
X44177401Y-54552563D01*
X44177401Y-54552566D01*
X44177402Y-54552569D01*
X44223256Y-54710398D01*
X44306919Y-54851865D01*
X44423135Y-54968081D01*
X44564602Y-55051744D01*
X44722431Y-55097598D01*
X44759306Y-55100500D01*
X44759308Y-55100500D01*
X45415692Y-55100500D01*
X45415694Y-55100500D01*
X45452569Y-55097598D01*
X45610398Y-55051744D01*
X45751865Y-54968081D01*
X45823933Y-54896012D01*
X45904712Y-54842039D01*
X46000000Y-54823085D01*
X46095288Y-54842039D01*
X46176066Y-54896012D01*
X46248135Y-54968081D01*
X46389602Y-55051744D01*
X46547431Y-55097598D01*
X46584306Y-55100500D01*
X46584308Y-55100500D01*
X47202046Y-55100500D01*
X47297334Y-55119454D01*
X47378115Y-55173430D01*
X47620184Y-55415498D01*
X47620183Y-55415498D01*
X47620185Y-55415499D01*
X47620186Y-55415500D01*
X47734314Y-55481392D01*
X47861608Y-55515500D01*
X52963392Y-55515500D01*
X53090686Y-55481392D01*
X53204814Y-55415500D01*
X53446882Y-55173430D01*
X53527663Y-55119454D01*
X53622951Y-55100500D01*
X54202046Y-55100500D01*
X54297334Y-55119454D01*
X54378116Y-55173430D01*
X57065186Y-57860500D01*
X57179314Y-57926392D01*
X57306608Y-57960500D01*
X57438393Y-57960500D01*
X61986685Y-57960500D01*
X62081973Y-57979454D01*
X62162755Y-58033430D01*
X62216731Y-58114212D01*
X62235685Y-58209500D01*
X62218325Y-58300846D01*
X62160123Y-58448435D01*
X62149500Y-58536900D01*
X62149500Y-58923107D01*
X62149944Y-58930528D01*
X62148472Y-58930616D01*
X62141763Y-59017695D01*
X62097798Y-59104333D01*
X62024024Y-59167551D01*
X61931674Y-59197726D01*
X61902001Y-59199500D01*
X47643242Y-59199500D01*
X47485557Y-59199500D01*
X47460421Y-59204500D01*
X47460420Y-59204500D01*
X47330907Y-59230261D01*
X47330902Y-59230263D01*
X47185226Y-59290603D01*
X47185219Y-59290606D01*
X47061766Y-59373096D01*
X47054114Y-59378208D01*
X43305752Y-63126570D01*
X43224970Y-63180546D01*
X43129682Y-63199500D01*
X39999500Y-63199500D01*
X39904212Y-63180546D01*
X39823430Y-63126570D01*
X39769454Y-63045788D01*
X39750500Y-62950500D01*
X39750500Y-62834308D01*
X39750499Y-62834295D01*
X39747598Y-62797431D01*
X39701744Y-62639603D01*
X39618081Y-62498136D01*
X39501864Y-62381919D01*
X39360397Y-62298256D01*
X39202569Y-62252402D01*
X39202566Y-62252401D01*
X39165704Y-62249500D01*
X39165694Y-62249500D01*
X37070900Y-62249500D01*
X36975612Y-62230546D01*
X36894830Y-62176570D01*
X36840854Y-62095788D01*
X36821900Y-62000500D01*
X36821900Y-58493316D01*
X36840854Y-58398028D01*
X36894828Y-58317249D01*
X37361912Y-57850164D01*
X37442691Y-57796190D01*
X37537979Y-57777236D01*
X37602421Y-57785719D01*
X37657762Y-57800548D01*
X37885266Y-57830500D01*
X38114734Y-57830500D01*
X38342238Y-57800548D01*
X38563887Y-57741158D01*
X38775888Y-57653344D01*
X38974612Y-57538611D01*
X39156661Y-57398919D01*
X39318919Y-57236661D01*
X39458611Y-57054612D01*
X39573344Y-56855888D01*
X39661158Y-56643887D01*
X39720548Y-56422238D01*
X39750500Y-56194734D01*
X39750500Y-55965266D01*
X39720548Y-55737762D01*
X39661158Y-55516113D01*
X39573344Y-55304112D01*
X39546352Y-55257361D01*
X39492697Y-55164428D01*
X39458611Y-55105388D01*
X39318919Y-54923339D01*
X39156661Y-54761081D01*
X39156656Y-54761077D01*
X39156655Y-54761076D01*
X38974621Y-54621396D01*
X38974622Y-54621396D01*
X38974612Y-54621389D01*
X38974602Y-54621383D01*
X38775893Y-54506658D01*
X38775882Y-54506653D01*
X38563885Y-54418841D01*
X38435911Y-54384551D01*
X38342238Y-54359452D01*
X38342235Y-54359451D01*
X38342236Y-54359451D01*
X38114734Y-54329500D01*
X37885266Y-54329500D01*
X37657765Y-54359451D01*
X37436114Y-54418841D01*
X37224117Y-54506653D01*
X37224106Y-54506658D01*
X37025397Y-54621383D01*
X37025378Y-54621396D01*
X36843344Y-54761076D01*
X36681076Y-54923344D01*
X36541396Y-55105378D01*
X36541383Y-55105397D01*
X36426658Y-55304106D01*
X36426653Y-55304117D01*
X36338841Y-55516114D01*
X36279451Y-55737765D01*
X36256982Y-55908435D01*
X36249500Y-55965266D01*
X36249500Y-56194734D01*
X36254041Y-56229226D01*
X36279451Y-56422236D01*
X36279452Y-56422238D01*
X36292669Y-56471564D01*
X36294279Y-56477574D01*
X36300633Y-56574521D01*
X36269402Y-56666520D01*
X36229833Y-56718087D01*
X35511111Y-57436810D01*
X35399612Y-57548309D01*
X35399610Y-57548312D01*
X35312006Y-57679419D01*
X35312003Y-57679426D01*
X35251663Y-57825102D01*
X35251661Y-57825107D01*
X35220900Y-57979753D01*
X31000000Y-57979753D01*
X31000000Y-35878712D01*
X34149500Y-35878712D01*
X34149500Y-36121287D01*
X34181162Y-36361790D01*
X34181163Y-36361795D01*
X34243940Y-36596082D01*
X34243948Y-36596105D01*
X34336770Y-36820201D01*
X34336778Y-36820217D01*
X34458058Y-37030279D01*
X34458064Y-37030289D01*
X34605729Y-37222731D01*
X34605738Y-37222741D01*
X34777258Y-37394261D01*
X34777268Y-37394270D01*
X34798399Y-37410484D01*
X34969711Y-37541936D01*
X34969720Y-37541941D01*
X35179782Y-37663221D01*
X35179798Y-37663229D01*
X35319858Y-37721242D01*
X35403900Y-37756054D01*
X35403911Y-37756057D01*
X35403917Y-37756059D01*
X35587021Y-37805121D01*
X35638211Y-37818838D01*
X35878712Y-37850500D01*
X36121288Y-37850500D01*
X36361789Y-37818838D01*
X36523275Y-37775567D01*
X36596082Y-37756059D01*
X36596084Y-37756058D01*
X36596100Y-37756054D01*
X36749084Y-37692686D01*
X36820201Y-37663229D01*
X36820206Y-37663226D01*
X36820212Y-37663224D01*
X37030289Y-37541936D01*
X37222738Y-37394265D01*
X37394265Y-37222738D01*
X37541936Y-37030289D01*
X37663224Y-36820212D01*
X37756054Y-36596100D01*
X37818838Y-36361789D01*
X37850500Y-36121288D01*
X37850500Y-35878712D01*
X182149500Y-35878712D01*
X182149500Y-36121287D01*
X182181162Y-36361790D01*
X182181163Y-36361795D01*
X182243940Y-36596082D01*
X182243948Y-36596105D01*
X182336770Y-36820201D01*
X182336778Y-36820217D01*
X182458058Y-37030279D01*
X182458064Y-37030289D01*
X182605729Y-37222731D01*
X182605738Y-37222741D01*
X182777258Y-37394261D01*
X182777268Y-37394270D01*
X182798399Y-37410484D01*
X182969711Y-37541936D01*
X182969720Y-37541941D01*
X183179782Y-37663221D01*
X183179798Y-37663229D01*
X183319858Y-37721242D01*
X183403900Y-37756054D01*
X183403911Y-37756057D01*
X183403917Y-37756059D01*
X183587021Y-37805121D01*
X183638211Y-37818838D01*
X183878712Y-37850500D01*
X184121288Y-37850500D01*
X184361789Y-37818838D01*
X184523275Y-37775567D01*
X184596082Y-37756059D01*
X184596084Y-37756058D01*
X184596100Y-37756054D01*
X184749084Y-37692686D01*
X184820201Y-37663229D01*
X184820206Y-37663226D01*
X184820212Y-37663224D01*
X185030289Y-37541936D01*
X185222738Y-37394265D01*
X185394265Y-37222738D01*
X185541936Y-37030289D01*
X185663224Y-36820212D01*
X185756054Y-36596100D01*
X185818838Y-36361789D01*
X185850500Y-36121288D01*
X185850500Y-35878712D01*
X185818838Y-35638211D01*
X185756054Y-35403900D01*
X185721242Y-35319858D01*
X185663229Y-35179798D01*
X185663221Y-35179782D01*
X185541941Y-34969720D01*
X185541935Y-34969710D01*
X185394270Y-34777268D01*
X185394261Y-34777258D01*
X185222741Y-34605738D01*
X185222731Y-34605729D01*
X185030289Y-34458064D01*
X185030279Y-34458058D01*
X184820217Y-34336778D01*
X184820201Y-34336770D01*
X184596105Y-34243948D01*
X184596103Y-34243947D01*
X184596100Y-34243946D01*
X184596096Y-34243945D01*
X184596082Y-34243940D01*
X184361795Y-34181163D01*
X184361790Y-34181162D01*
X184121288Y-34149500D01*
X183878712Y-34149500D01*
X183638209Y-34181162D01*
X183638204Y-34181163D01*
X183403917Y-34243940D01*
X183403894Y-34243948D01*
X183179798Y-34336770D01*
X183179782Y-34336778D01*
X182969720Y-34458058D01*
X182969710Y-34458064D01*
X182777268Y-34605729D01*
X182777258Y-34605738D01*
X182605738Y-34777258D01*
X182605729Y-34777268D01*
X182458064Y-34969710D01*
X182458058Y-34969720D01*
X182336778Y-35179782D01*
X182336770Y-35179798D01*
X182243948Y-35403894D01*
X182243940Y-35403917D01*
X182181163Y-35638204D01*
X182181162Y-35638209D01*
X182149500Y-35878712D01*
X37850500Y-35878712D01*
X37818838Y-35638211D01*
X37756054Y-35403900D01*
X37721242Y-35319858D01*
X37663229Y-35179798D01*
X37663221Y-35179782D01*
X37541941Y-34969720D01*
X37541935Y-34969710D01*
X37394270Y-34777268D01*
X37394261Y-34777258D01*
X37222741Y-34605738D01*
X37222731Y-34605729D01*
X37030289Y-34458064D01*
X37030279Y-34458058D01*
X36820217Y-34336778D01*
X36820201Y-34336770D01*
X36596105Y-34243948D01*
X36596103Y-34243947D01*
X36596100Y-34243946D01*
X36596096Y-34243945D01*
X36596082Y-34243940D01*
X36361795Y-34181163D01*
X36361790Y-34181162D01*
X36121288Y-34149500D01*
X35878712Y-34149500D01*
X35638209Y-34181162D01*
X35638204Y-34181163D01*
X35403917Y-34243940D01*
X35403894Y-34243948D01*
X35179798Y-34336770D01*
X35179782Y-34336778D01*
X34969720Y-34458058D01*
X34969710Y-34458064D01*
X34777268Y-34605729D01*
X34777258Y-34605738D01*
X34605738Y-34777258D01*
X34605729Y-34777268D01*
X34458064Y-34969710D01*
X34458058Y-34969720D01*
X34336778Y-35179782D01*
X34336770Y-35179798D01*
X34243948Y-35403894D01*
X34243940Y-35403917D01*
X34181163Y-35638204D01*
X34181162Y-35638209D01*
X34149500Y-35878712D01*
X31000000Y-35878712D01*
X31000000Y-31249000D01*
X31018954Y-31153712D01*
X31072930Y-31072930D01*
X31153712Y-31018954D01*
X31249000Y-31000000D01*
X188751000Y-31000000D01*
X188846288Y-31018954D01*
G37*
%TD.AperFunction*%
%TD*%
M02*
