%TF.GenerationSoftware,KiCad,Pcbnew,10.0.3*%
%TF.CreationDate,2026-07-02T04:08:36-05:00*%
%TF.ProjectId,io-board,696f2d62-6f61-4726-942e-6b696361645f,rev?*%
%TF.SameCoordinates,Original*%
%TF.FileFunction,Copper,L2,Bot*%
%TF.FilePolarity,Positive*%
%FSLAX46Y46*%
G04 Gerber Fmt 4.6, Leading zero omitted, Abs format (unit mm)*
G04 Created by KiCad (PCBNEW 10.0.3) date 2026-07-02 04:08:36*
%MOMM*%
%LPD*%
G01*
G04 APERTURE LIST*
G04 Aperture macros list*
%AMRoundRect*
0 Rectangle with rounded corners*
0 $1 Rounding radius*
0 $2 $3 $4 $5 $6 $7 $8 $9 X,Y pos of 4 corners*
0 Add a 4 corners polygon primitive as box body*
4,1,4,$2,$3,$4,$5,$6,$7,$8,$9,$2,$3,0*
0 Add four circle primitives for the rounded corners*
1,1,$1+$1,$2,$3*
1,1,$1+$1,$4,$5*
1,1,$1+$1,$6,$7*
1,1,$1+$1,$8,$9*
0 Add four rect primitives between the rounded corners*
20,1,$1+$1,$2,$3,$4,$5,0*
20,1,$1+$1,$4,$5,$6,$7,0*
20,1,$1+$1,$6,$7,$8,$9,0*
20,1,$1+$1,$8,$9,$2,$3,0*%
G04 Aperture macros list end*
%TA.AperFunction,ComponentPad*%
%ADD10RoundRect,0.250000X-0.600000X-0.725000X0.600000X-0.725000X0.600000X0.725000X-0.600000X0.725000X0*%
%TD*%
%TA.AperFunction,ComponentPad*%
%ADD11O,1.700000X1.950000*%
%TD*%
%TA.AperFunction,ComponentPad*%
%ADD12RoundRect,0.250001X1.099999X-1.099999X1.099999X1.099999X-1.099999X1.099999X-1.099999X-1.099999X0*%
%TD*%
%TA.AperFunction,ComponentPad*%
%ADD13C,2.700000*%
%TD*%
%TA.AperFunction,ViaPad*%
%ADD14C,0.600000*%
%TD*%
%TA.AperFunction,ViaPad*%
%ADD15C,0.800000*%
%TD*%
%TA.AperFunction,Conductor*%
%ADD16C,0.200000*%
%TD*%
%TA.AperFunction,Conductor*%
%ADD17C,0.800000*%
%TD*%
G04 APERTURE END LIST*
D10*
%TO.P,P5,1*%
%TO.N,L_PROG*%
X124000000Y-97000000D03*
D11*
%TO.P,P5,2*%
%TO.N,WD_L_WIPER*%
X126500000Y-97000000D03*
%TO.P,P5,3*%
%TO.N,WET_SUM_L*%
X129000000Y-97000000D03*
%TO.P,P5,4*%
%TO.N,R_PROG*%
X131500000Y-97000000D03*
%TO.P,P5,5*%
%TO.N,WD_R_WIPER*%
X134000000Y-97000000D03*
%TO.P,P5,6*%
%TO.N,WET_SUM_R*%
X136500000Y-97000000D03*
%TD*%
D10*
%TO.P,P3,1*%
%TO.N,WET_SUM_L*%
X84000000Y-97000000D03*
D11*
%TO.P,P3,2*%
%TO.N,AGND*%
X86500000Y-97000000D03*
%TO.P,P3,3*%
%TO.N,WET_SUM_R*%
X89000000Y-97000000D03*
%TD*%
D12*
%TO.P,P1,1*%
%TO.N,+15VA*%
X38000000Y-64000000D03*
D13*
%TO.P,P1,2*%
%TO.N,AGND*%
X38000000Y-60040000D03*
%TO.P,P1,3*%
%TO.N,-15VA*%
X38000000Y-56080000D03*
%TD*%
D10*
%TO.P,J1,1*%
%TO.N,IN_BAL_L_P*%
X50000000Y-38000000D03*
D11*
%TO.P,J1,2*%
%TO.N,IN_BAL_L_N*%
X52500000Y-38000000D03*
%TO.P,J1,3*%
%TO.N,AGND*%
X55000000Y-38000000D03*
%TD*%
D10*
%TO.P,P4,1*%
%TO.N,DRY_L*%
X104000000Y-97000000D03*
D11*
%TO.P,P4,2*%
%TO.N,AGND*%
X106500000Y-97000000D03*
%TO.P,P4,3*%
%TO.N,DRY_R*%
X109000000Y-97000000D03*
%TD*%
D10*
%TO.P,P2,1*%
%TO.N,WET_SEND_L*%
X64000000Y-97000000D03*
D11*
%TO.P,P2,2*%
%TO.N,AGND*%
X66500000Y-97000000D03*
%TO.P,P2,3*%
%TO.N,WET_SEND_R*%
X69000000Y-97000000D03*
%TD*%
D10*
%TO.P,J3,1*%
%TO.N,OUT_BAL_L_P*%
X142000000Y-38000000D03*
D11*
%TO.P,J3,2*%
%TO.N,OUT_BAL_L_N*%
X144500000Y-38000000D03*
%TO.P,J3,3*%
%TO.N,AGND*%
X147000000Y-38000000D03*
%TD*%
D10*
%TO.P,J4,1*%
%TO.N,OUT_BAL_R_P*%
X164000000Y-38000000D03*
D11*
%TO.P,J4,2*%
%TO.N,OUT_BAL_R_N*%
X166500000Y-38000000D03*
%TO.P,J4,3*%
%TO.N,AGND*%
X169000000Y-38000000D03*
%TD*%
D10*
%TO.P,P6,1*%
%TO.N,L_RX*%
X158000000Y-97000000D03*
D11*
%TO.P,P6,2*%
%TO.N,MONO_C*%
X160500000Y-97000000D03*
%TO.P,P6,3*%
%TO.N,R_RX*%
X163000000Y-97000000D03*
%TD*%
D10*
%TO.P,J2,1*%
%TO.N,IN_BAL_R_P*%
X72000000Y-38000000D03*
D11*
%TO.P,J2,2*%
%TO.N,IN_BAL_R_N*%
X74500000Y-38000000D03*
%TO.P,J2,3*%
%TO.N,AGND*%
X77000000Y-38000000D03*
%TD*%
D14*
%TO.N,N_HOT_L*%
X132921000Y-48065500D03*
X133117600Y-55757500D03*
%TO.N,L_BLEND*%
X129513300Y-60006500D03*
X99800700Y-69976500D03*
X120384400Y-48698200D03*
%TO.N,-15VA*%
X70198200Y-60395100D03*
D15*
%TO.N,AGND*%
X104979079Y-80721368D03*
X120354496Y-96475856D03*
X64000000Y-32000000D03*
X112000000Y-40000000D03*
X169715413Y-47866893D03*
X80000000Y-88000000D03*
X120000000Y-32000000D03*
X32000000Y-32000000D03*
X88000000Y-40000000D03*
X40000000Y-96000000D03*
X184000000Y-64000000D03*
X184000000Y-32000000D03*
X32000000Y-88000000D03*
X152000000Y-32000000D03*
X120000000Y-80000000D03*
X160000000Y-88000000D03*
X80000000Y-64000000D03*
X184000000Y-88000000D03*
X56000000Y-48000000D03*
X89849757Y-84400037D03*
X144000000Y-72000000D03*
X168000000Y-72000000D03*
X128000000Y-32000000D03*
X40000000Y-72000000D03*
X176000000Y-72000000D03*
X93140407Y-97523632D03*
X129138122Y-56577480D03*
X96000000Y-56000000D03*
X168000000Y-80000000D03*
X88000000Y-48000000D03*
X128000000Y-48000000D03*
X46886360Y-86009450D03*
X75508991Y-57572921D03*
X58201226Y-65592112D03*
X88000000Y-56000000D03*
X136000000Y-64000000D03*
X71454855Y-55901128D03*
X128000000Y-40000000D03*
X96000000Y-40000000D03*
X88000000Y-32000000D03*
X120000000Y-40000000D03*
X96000000Y-88000000D03*
X160000000Y-72000000D03*
X80000000Y-40000000D03*
X80000000Y-32000000D03*
X144000000Y-96000000D03*
X112000000Y-48000000D03*
X152000000Y-80000000D03*
X100112020Y-74621486D03*
X84396294Y-85740488D03*
X89865854Y-80681456D03*
X111127812Y-79048590D03*
X175864387Y-35867530D03*
X184000000Y-48000000D03*
X32000000Y-56000000D03*
X64000000Y-80000000D03*
X144000000Y-64000000D03*
X176220439Y-36297971D03*
X136000000Y-88000000D03*
X160000000Y-64000000D03*
X96000000Y-48000000D03*
X76550453Y-42027698D03*
X56000000Y-32000000D03*
X48000000Y-32000000D03*
X104000000Y-64000000D03*
X80000000Y-96000000D03*
X163141984Y-47544640D03*
X65259343Y-73356083D03*
D14*
X163275000Y-59905000D03*
D15*
X40000000Y-40000000D03*
X56000000Y-72000000D03*
X112000000Y-32000000D03*
X32000000Y-72000000D03*
X176000000Y-88000000D03*
X140174198Y-44375991D03*
X184000000Y-80000000D03*
X144000000Y-88000000D03*
X128000000Y-72000000D03*
X152000000Y-40000000D03*
X32000000Y-80000000D03*
X76554022Y-85984472D03*
X85907661Y-59894295D03*
X168000000Y-64000000D03*
X112000000Y-56000000D03*
X56000000Y-80000000D03*
X83775597Y-69023802D03*
X32000000Y-48000000D03*
X120000000Y-88000000D03*
X32000000Y-40000000D03*
X96000000Y-32000000D03*
X144000000Y-48000000D03*
X49386001Y-42649816D03*
X56000000Y-96000000D03*
X56000000Y-40000000D03*
X72000000Y-32000000D03*
X176000000Y-56000000D03*
X48000000Y-80000000D03*
X152000000Y-64000000D03*
X136000000Y-48000000D03*
X160000000Y-40000000D03*
X152000000Y-96000000D03*
X72000000Y-64000000D03*
X184000000Y-56000000D03*
X48000000Y-56000000D03*
X168000000Y-32000000D03*
X40000000Y-32000000D03*
X32000000Y-64000000D03*
X176000000Y-32000000D03*
X136000000Y-32000000D03*
X128000000Y-88000000D03*
X160000000Y-32000000D03*
X64000000Y-48000000D03*
X144000000Y-32000000D03*
X162937406Y-42269776D03*
X88000000Y-80000000D03*
X64000000Y-40000000D03*
X184000000Y-96000000D03*
X128000000Y-80000000D03*
X50619773Y-51947124D03*
X176000000Y-80000000D03*
X184000000Y-72000000D03*
X120000000Y-56000000D03*
X176000000Y-64000000D03*
D14*
X137675000Y-59905000D03*
D15*
X40000000Y-80000000D03*
X168000000Y-88000000D03*
X104000000Y-32000000D03*
X104792689Y-72761563D03*
X104000000Y-40000000D03*
X40000000Y-88000000D03*
X72000000Y-48000000D03*
X168000000Y-96000000D03*
X168000000Y-56000000D03*
X129803003Y-60938377D03*
X40000000Y-48000000D03*
X136000000Y-80000000D03*
X176000000Y-96000000D03*
X152000000Y-72000000D03*
X105895597Y-97462487D03*
X176000000Y-48000000D03*
X56000000Y-64000000D03*
X53038728Y-73113545D03*
X96000000Y-64000000D03*
X160000000Y-80000000D03*
X152000000Y-48000000D03*
X104000000Y-88000000D03*
X104000000Y-56000000D03*
X80000000Y-80000000D03*
X109826527Y-72658277D03*
X48000000Y-96000000D03*
X176000000Y-40000000D03*
X148182139Y-57403678D03*
X62434634Y-85953163D03*
X104000000Y-48000000D03*
X32000000Y-96000000D03*
X136000000Y-40000000D03*
X112000000Y-88000000D03*
X70506322Y-85752574D03*
X112000000Y-64000000D03*
X184000000Y-40000000D03*
X91837124Y-67569236D03*
X72000000Y-96000000D03*
X72000000Y-80000000D03*
X55420692Y-85938921D03*
X48000000Y-64000000D03*
X41952759Y-76529747D03*
D14*
%TO.N,N_U3B_M*%
X135217900Y-53739100D03*
X134719300Y-57506200D03*
%TO.N,N_COLD_L*%
X138184600Y-51590600D03*
X138359300Y-56618900D03*
%TO.N,L_PROG*%
X90708400Y-71681500D03*
%TO.N,WD_L_WIPER*%
X94355600Y-72008900D03*
%TO.N,R_PROG*%
X66944800Y-70900300D03*
X66480700Y-61244700D03*
%TO.N,WD_R_WIPER*%
X102359800Y-80159200D03*
%TO.N,DRY_L*%
X69950500Y-72681200D03*
%TO.N,IN_BAL_L_P*%
X57574700Y-46131800D03*
%TO.N,WET_SEND_R*%
X66983800Y-74729800D03*
%TO.N,N_INR_N*%
X77613200Y-52824000D03*
X85346700Y-45990900D03*
%TO.N,N_COLD_R*%
X162689900Y-57080700D03*
X168941800Y-46790900D03*
%TO.N,DRY_R*%
X61979900Y-71978800D03*
%TO.N,WET_SEND_L*%
X55117000Y-74729800D03*
%TO.N,R_RX*%
X119786500Y-62599400D03*
%TO.N,OUT_BAL_R_P*%
X168378900Y-46161600D03*
%TO.N,L_RX*%
X65737000Y-56379000D03*
X71289900Y-60671000D03*
%TO.N,MONO_C*%
X71618200Y-58972600D03*
%TD*%
%TO.N,N_HOT_L*%
D16*
X132921000Y-55560900D02*
X132921000Y-48065500D01*
X133117600Y-55757500D02*
X132921000Y-55560900D01*
%TO.N,L_BLEND*%
X120384400Y-53569400D02*
X120384400Y-48698200D01*
X99800700Y-69976500D02*
X116207800Y-53569400D01*
X129513300Y-60006500D02*
X126821500Y-60006500D01*
X116207800Y-53569400D02*
X120384400Y-53569400D01*
X126821500Y-60006500D02*
X120384400Y-53569400D01*
%TO.N,-15VA*%
D17*
X38000000Y-56080000D02*
X42111000Y-60191000D01*
X69994100Y-60191000D02*
X70198200Y-60395100D01*
X42111000Y-60191000D02*
X69994100Y-60191000D01*
%TO.N,N_U3B_M*%
D16*
X134719300Y-57506200D02*
X135217900Y-57007600D01*
X135217900Y-57007600D02*
X135217900Y-53739100D01*
%TO.N,N_COLD_L*%
X138359300Y-56618900D02*
X138359300Y-51765300D01*
X138359300Y-51765300D02*
X138184600Y-51590600D01*
%TO.N,L_PROG*%
X124000000Y-97000000D02*
X103577600Y-76577600D01*
X103577600Y-76577600D02*
X95604500Y-76577600D01*
X95604500Y-76577600D02*
X90708400Y-71681500D01*
%TO.N,WD_L_WIPER*%
X126500000Y-97000000D02*
X125348300Y-97000000D01*
X125348300Y-96232600D02*
X125348300Y-97000000D01*
X101124600Y-72008900D02*
X125348300Y-96232600D01*
X94355600Y-72008900D02*
X101124600Y-72008900D01*
%TO.N,R_PROG*%
X117181500Y-98720400D02*
X134098300Y-98720400D01*
X135236500Y-96427500D02*
X134495700Y-95686700D01*
X132813300Y-95686700D02*
X131500000Y-97000000D01*
X90584300Y-76979300D02*
X95440400Y-76979300D01*
X66944800Y-70900300D02*
X84505300Y-70900300D01*
X95440400Y-76979300D02*
X117181500Y-98720400D01*
X66480700Y-70436200D02*
X66944800Y-70900300D01*
X134098300Y-98720400D02*
X135236500Y-97582200D01*
X135236500Y-97582200D02*
X135236500Y-96427500D01*
X84505300Y-70900300D02*
X90584300Y-76979300D01*
X66480700Y-61244700D02*
X66480700Y-70436200D01*
X134495700Y-95686700D02*
X132813300Y-95686700D01*
%TO.N,WD_R_WIPER*%
X132002600Y-98297400D02*
X132848300Y-97451700D01*
X134000000Y-97000000D02*
X132848300Y-97000000D01*
X132848300Y-97451700D02*
X132848300Y-97000000D01*
X120498000Y-98297400D02*
X132002600Y-98297400D01*
X102359800Y-80159200D02*
X120498000Y-98297400D01*
%TO.N,DRY_L*%
X94269300Y-97000000D02*
X104000000Y-97000000D01*
X69950500Y-72681200D02*
X94269300Y-97000000D01*
%TO.N,IN_BAL_L_P*%
X50000000Y-38557100D02*
X57574700Y-46131800D01*
X50000000Y-38000000D02*
X50000000Y-38557100D01*
%TO.N,WET_SEND_R*%
X66983800Y-74729800D02*
X69000000Y-76746000D01*
X69000000Y-76746000D02*
X69000000Y-97000000D01*
%TO.N,N_INR_N*%
X84446300Y-45990900D02*
X77613200Y-52824000D01*
X85346700Y-45990900D02*
X84446300Y-45990900D01*
%TO.N,N_COLD_R*%
X162689900Y-53042800D02*
X168941800Y-46790900D01*
X162689900Y-57080700D02*
X162689900Y-53042800D01*
%TO.N,DRY_R*%
X61979900Y-71978800D02*
X83259000Y-71978800D01*
X107848300Y-96568100D02*
X107848300Y-97000000D01*
X109000000Y-97000000D02*
X107848300Y-97000000D01*
X83259000Y-71978800D02*
X107848300Y-96568100D01*
%TO.N,WET_SEND_L*%
X64000000Y-83612800D02*
X64000000Y-97000000D01*
X55117000Y-74729800D02*
X64000000Y-83612800D01*
%TO.N,R_RX*%
X119786500Y-62599400D02*
X127899400Y-62599400D01*
X161848300Y-96548300D02*
X161848300Y-97000000D01*
X127899400Y-62599400D02*
X161848300Y-96548300D01*
X163000000Y-97000000D02*
X161848300Y-97000000D01*
%TO.N,OUT_BAL_R_P*%
X164000000Y-38000000D02*
X164000000Y-41782700D01*
X164000000Y-41782700D02*
X168378900Y-46161600D01*
%TO.N,L_RX*%
X67213200Y-56379000D02*
X71397600Y-60563300D01*
X65737000Y-56379000D02*
X67213200Y-56379000D01*
X71397600Y-60563300D02*
X72737900Y-61903700D01*
X94362100Y-71166600D02*
X132166600Y-71166600D01*
X71397600Y-60563300D02*
X71289900Y-60671000D01*
X85099200Y-61903700D02*
X94362100Y-71166600D01*
X132166600Y-71166600D02*
X158000000Y-97000000D01*
X72737900Y-61903700D02*
X85099200Y-61903700D01*
%TO.N,MONO_C*%
X159348300Y-96232600D02*
X159348300Y-97000000D01*
X99044600Y-70607500D02*
X133723200Y-70607500D01*
X133723200Y-70607500D02*
X159348300Y-96232600D01*
X71618200Y-58972600D02*
X87409700Y-58972600D01*
X160500000Y-97000000D02*
X159348300Y-97000000D01*
X87409700Y-58972600D02*
X99044600Y-70607500D01*
%TD*%
%TA.AperFunction,Conductor*%
%TO.N,AGND*%
G36*
X103362434Y-77097054D02*
G01*
X103443216Y-77151030D01*
X122676570Y-96384384D01*
X122730546Y-96465166D01*
X122749500Y-96560454D01*
X122749500Y-97547900D01*
X122730546Y-97643188D01*
X122676570Y-97723970D01*
X122595788Y-97777946D01*
X122500500Y-97796900D01*
X120808454Y-97796900D01*
X120713166Y-97777946D01*
X120632384Y-97723970D01*
X103129024Y-80220610D01*
X103075048Y-80139828D01*
X103060878Y-80093117D01*
X103060300Y-80090211D01*
X103060300Y-80090207D01*
X103033380Y-79954872D01*
X102980575Y-79827389D01*
X102903914Y-79712658D01*
X102806342Y-79615086D01*
X102806338Y-79615083D01*
X102691612Y-79538425D01*
X102691609Y-79538424D01*
X102654270Y-79522958D01*
X102564127Y-79485619D01*
X102564124Y-79485618D01*
X102428797Y-79458700D01*
X102428793Y-79458700D01*
X102290807Y-79458700D01*
X102290802Y-79458700D01*
X102155475Y-79485618D01*
X102155472Y-79485619D01*
X102027991Y-79538424D01*
X102027987Y-79538425D01*
X101913261Y-79615083D01*
X101815683Y-79712661D01*
X101739025Y-79827387D01*
X101739024Y-79827391D01*
X101686219Y-79954872D01*
X101686218Y-79954875D01*
X101659300Y-80090202D01*
X101659300Y-80228197D01*
X101686218Y-80363524D01*
X101686219Y-80363527D01*
X101739024Y-80491008D01*
X101739025Y-80491012D01*
X101815683Y-80605738D01*
X101815686Y-80605742D01*
X101913258Y-80703314D01*
X101913261Y-80703316D01*
X102027987Y-80779974D01*
X102027989Y-80779975D01*
X102126590Y-80820816D01*
X102155469Y-80832779D01*
X102155470Y-80832779D01*
X102155472Y-80832780D01*
X102290807Y-80859700D01*
X102290811Y-80859700D01*
X102293717Y-80860278D01*
X102383477Y-80897458D01*
X102421210Y-80928424D01*
X119287616Y-97794830D01*
X119341592Y-97875612D01*
X119360546Y-97970900D01*
X119341592Y-98066188D01*
X119287616Y-98146970D01*
X119206834Y-98200946D01*
X119111546Y-98219900D01*
X117491954Y-98219900D01*
X117396666Y-98200946D01*
X117315884Y-98146970D01*
X96672084Y-77503170D01*
X96618108Y-77422388D01*
X96599154Y-77327100D01*
X96618108Y-77231812D01*
X96672084Y-77151030D01*
X96752866Y-77097054D01*
X96848154Y-77078100D01*
X103267146Y-77078100D01*
X103362434Y-77097054D01*
G37*
%TD.AperFunction*%
%TA.AperFunction,Conductor*%
G36*
X69669668Y-61010454D02*
G01*
X69712718Y-61033464D01*
X69819021Y-61104494D01*
X69964703Y-61164837D01*
X69964705Y-61164837D01*
X69964707Y-61164838D01*
X70024015Y-61176635D01*
X70119358Y-61195600D01*
X70277042Y-61195600D01*
X70431697Y-61164837D01*
X70533527Y-61122657D01*
X70628810Y-61103705D01*
X70724098Y-61122659D01*
X70804879Y-61176635D01*
X70843358Y-61215114D01*
X70843361Y-61215116D01*
X70958087Y-61291774D01*
X70958089Y-61291775D01*
X71085572Y-61344580D01*
X71085575Y-61344581D01*
X71216262Y-61370576D01*
X71220907Y-61371500D01*
X71358892Y-61371500D01*
X71358893Y-61371500D01*
X71358893Y-61371499D01*
X71368270Y-61370576D01*
X71464957Y-61380095D01*
X71550642Y-61425891D01*
X71568760Y-61442313D01*
X72326591Y-62200201D01*
X72337395Y-62211005D01*
X72337400Y-62211014D01*
X72387771Y-62261385D01*
X72387777Y-62261391D01*
X72430576Y-62304193D01*
X72430583Y-62304197D01*
X72430586Y-62304200D01*
X72492499Y-62339945D01*
X72492509Y-62339951D01*
X72492511Y-62339952D01*
X72540999Y-62367950D01*
X72544289Y-62369927D01*
X72545526Y-62370408D01*
X72549835Y-62371464D01*
X72600917Y-62385151D01*
X72600916Y-62385151D01*
X72600923Y-62385152D01*
X72671989Y-62404198D01*
X72672005Y-62404200D01*
X72737882Y-62404200D01*
X72803774Y-62404202D01*
X72803775Y-62404201D01*
X72821099Y-62404202D01*
X72821142Y-62404200D01*
X84788746Y-62404200D01*
X84884034Y-62423154D01*
X84964816Y-62477130D01*
X93762542Y-71274856D01*
X93816518Y-71355638D01*
X93835472Y-71450926D01*
X93816518Y-71546214D01*
X93793508Y-71589262D01*
X93734828Y-71677082D01*
X93734824Y-71677091D01*
X93682019Y-71804572D01*
X93682018Y-71804575D01*
X93655100Y-71939902D01*
X93655100Y-72077897D01*
X93682018Y-72213224D01*
X93682019Y-72213227D01*
X93734824Y-72340708D01*
X93734825Y-72340712D01*
X93811483Y-72455438D01*
X93811486Y-72455442D01*
X93909058Y-72553014D01*
X93909061Y-72553016D01*
X94023787Y-72629674D01*
X94023789Y-72629675D01*
X94143592Y-72679299D01*
X94151272Y-72682480D01*
X94151275Y-72682481D01*
X94284803Y-72709041D01*
X94286607Y-72709400D01*
X94424593Y-72709400D01*
X94492260Y-72695940D01*
X94559924Y-72682481D01*
X94559925Y-72682480D01*
X94559928Y-72682480D01*
X94687411Y-72629675D01*
X94802142Y-72553014D01*
X94802142Y-72553013D01*
X94804611Y-72551364D01*
X94894370Y-72514185D01*
X94942948Y-72509400D01*
X100814146Y-72509400D01*
X100909434Y-72528354D01*
X100990216Y-72582330D01*
X104207431Y-75799545D01*
X104261407Y-75880327D01*
X104280361Y-75975615D01*
X104261407Y-76070903D01*
X104207431Y-76151685D01*
X104126649Y-76205661D01*
X104031361Y-76224615D01*
X103936073Y-76205661D01*
X103899470Y-76184529D01*
X103899048Y-76185261D01*
X103884915Y-76177101D01*
X103884914Y-76177100D01*
X103770786Y-76111208D01*
X103770783Y-76111207D01*
X103770781Y-76111206D01*
X103643492Y-76077100D01*
X95914954Y-76077100D01*
X95819666Y-76058146D01*
X95738884Y-76004170D01*
X91477624Y-71742910D01*
X91423648Y-71662128D01*
X91409478Y-71615417D01*
X91408900Y-71612511D01*
X91408900Y-71612507D01*
X91381980Y-71477172D01*
X91329175Y-71349689D01*
X91312404Y-71324590D01*
X91252516Y-71234961D01*
X91252514Y-71234958D01*
X91154942Y-71137386D01*
X91154938Y-71137383D01*
X91040212Y-71060725D01*
X91040209Y-71060724D01*
X91002870Y-71045258D01*
X90912727Y-71007919D01*
X90912724Y-71007918D01*
X90777397Y-70981000D01*
X90777393Y-70981000D01*
X90639407Y-70981000D01*
X90639402Y-70981000D01*
X90504075Y-71007918D01*
X90504072Y-71007919D01*
X90376591Y-71060724D01*
X90376587Y-71060725D01*
X90261861Y-71137383D01*
X90164283Y-71234961D01*
X90087625Y-71349687D01*
X90087624Y-71349691D01*
X90034819Y-71477172D01*
X90034818Y-71477175D01*
X90007900Y-71612502D01*
X90007900Y-71750497D01*
X90034818Y-71885824D01*
X90034819Y-71885827D01*
X90044750Y-71909802D01*
X90086828Y-72011388D01*
X90087624Y-72013308D01*
X90087625Y-72013312D01*
X90130777Y-72077893D01*
X90164286Y-72128042D01*
X90261858Y-72225614D01*
X90261861Y-72225616D01*
X90376587Y-72302274D01*
X90376589Y-72302275D01*
X90475190Y-72343116D01*
X90504069Y-72355079D01*
X90504070Y-72355079D01*
X90504072Y-72355080D01*
X90639407Y-72382000D01*
X90639411Y-72382000D01*
X90642317Y-72382578D01*
X90732077Y-72419758D01*
X90769810Y-72450724D01*
X94372816Y-76053730D01*
X94426792Y-76134512D01*
X94445746Y-76229800D01*
X94426792Y-76325088D01*
X94372816Y-76405870D01*
X94292034Y-76459846D01*
X94196746Y-76478800D01*
X90894753Y-76478800D01*
X90799465Y-76459846D01*
X90718683Y-76405870D01*
X88342113Y-74029300D01*
X84812614Y-70499800D01*
X84698486Y-70433908D01*
X84698483Y-70433907D01*
X84698481Y-70433906D01*
X84571192Y-70399800D01*
X67532148Y-70399800D01*
X67520572Y-70397497D01*
X67508831Y-70398706D01*
X67486173Y-70390655D01*
X67436860Y-70380846D01*
X67415737Y-70370912D01*
X67395213Y-70360057D01*
X67391342Y-70356186D01*
X67276611Y-70279525D01*
X67149128Y-70226720D01*
X67139460Y-70224797D01*
X67113789Y-70211220D01*
X67094322Y-70195386D01*
X67072191Y-70183551D01*
X67056998Y-70165030D01*
X67038417Y-70149917D01*
X67026489Y-70127836D01*
X67010574Y-70108434D01*
X67003626Y-70085510D01*
X66992242Y-70064436D01*
X66989672Y-70039473D01*
X66982393Y-70015456D01*
X66981200Y-69991108D01*
X66981200Y-61832048D01*
X67000154Y-61736760D01*
X67023164Y-61693711D01*
X67101474Y-61576512D01*
X67101473Y-61576512D01*
X67101475Y-61576511D01*
X67154280Y-61449028D01*
X67181200Y-61313693D01*
X67181200Y-61240500D01*
X67200154Y-61145212D01*
X67254130Y-61064430D01*
X67334912Y-61010454D01*
X67430200Y-60991500D01*
X69574380Y-60991500D01*
X69669668Y-61010454D01*
G37*
%TD.AperFunction*%
%TA.AperFunction,Conductor*%
G36*
X87194534Y-59492054D02*
G01*
X87275316Y-59546030D01*
X97970316Y-70241030D01*
X98024292Y-70321812D01*
X98043246Y-70417100D01*
X98024292Y-70512388D01*
X97970316Y-70593170D01*
X97889534Y-70647146D01*
X97794246Y-70666100D01*
X94672554Y-70666100D01*
X94577266Y-70647146D01*
X94496484Y-70593170D01*
X93110589Y-69207275D01*
X85406514Y-61503200D01*
X85292386Y-61437308D01*
X85292383Y-61437307D01*
X85292381Y-61437306D01*
X85165092Y-61403200D01*
X73048368Y-61403200D01*
X72953080Y-61384246D01*
X72872302Y-61330272D01*
X71966467Y-60424369D01*
X71953786Y-60410700D01*
X71927768Y-60380456D01*
X71910675Y-60339189D01*
X71834014Y-60224458D01*
X71736442Y-60126886D01*
X71673371Y-60084743D01*
X71651205Y-60058977D01*
X71643709Y-60045704D01*
X71632930Y-60034925D01*
X71620017Y-60003751D01*
X71603431Y-59974380D01*
X71601585Y-59959250D01*
X71595751Y-59945165D01*
X71595751Y-59911428D01*
X71591666Y-59877940D01*
X71595751Y-59863252D01*
X71595752Y-59848010D01*
X71608662Y-59816842D01*
X71617704Y-59784339D01*
X71627098Y-59772334D01*
X71632932Y-59758251D01*
X71656788Y-59734394D01*
X71677579Y-59707827D01*
X71690851Y-59700331D01*
X71701631Y-59689552D01*
X71732804Y-59676639D01*
X71762176Y-59660053D01*
X71777305Y-59658207D01*
X71791388Y-59652374D01*
X71822528Y-59646180D01*
X71950011Y-59593375D01*
X72064742Y-59516714D01*
X72064742Y-59516713D01*
X72067211Y-59515064D01*
X72156970Y-59477885D01*
X72205548Y-59473100D01*
X87099246Y-59473100D01*
X87194534Y-59492054D01*
G37*
%TD.AperFunction*%
%TA.AperFunction,Conductor*%
G36*
X188846288Y-31018954D02*
G01*
X188927070Y-31072930D01*
X188981046Y-31153712D01*
X189000000Y-31249000D01*
X189000000Y-103751000D01*
X188981046Y-103846288D01*
X188927070Y-103927070D01*
X188846288Y-103981046D01*
X188751000Y-104000000D01*
X31249000Y-104000000D01*
X31153712Y-103981046D01*
X31072930Y-103927070D01*
X31018954Y-103846288D01*
X31000000Y-103751000D01*
X31000000Y-98878712D01*
X34149500Y-98878712D01*
X34149500Y-99121287D01*
X34181162Y-99361790D01*
X34181163Y-99361795D01*
X34243940Y-99596082D01*
X34243948Y-99596105D01*
X34336770Y-99820201D01*
X34336778Y-99820217D01*
X34458058Y-100030279D01*
X34458064Y-100030289D01*
X34605729Y-100222731D01*
X34605738Y-100222741D01*
X34777258Y-100394261D01*
X34777268Y-100394270D01*
X34898491Y-100487287D01*
X34969711Y-100541936D01*
X34969720Y-100541941D01*
X35179782Y-100663221D01*
X35179798Y-100663229D01*
X35319858Y-100721242D01*
X35403900Y-100756054D01*
X35403911Y-100756057D01*
X35403917Y-100756059D01*
X35587021Y-100805121D01*
X35638211Y-100818838D01*
X35878712Y-100850500D01*
X36121288Y-100850500D01*
X36361789Y-100818838D01*
X36523275Y-100775567D01*
X36596082Y-100756059D01*
X36596084Y-100756058D01*
X36596100Y-100756054D01*
X36747766Y-100693231D01*
X36820201Y-100663229D01*
X36820206Y-100663226D01*
X36820212Y-100663224D01*
X37030289Y-100541936D01*
X37222738Y-100394265D01*
X37394265Y-100222738D01*
X37541936Y-100030289D01*
X37663224Y-99820212D01*
X37756054Y-99596100D01*
X37818838Y-99361789D01*
X37850500Y-99121288D01*
X37850500Y-98878712D01*
X37818838Y-98638211D01*
X37756054Y-98403900D01*
X37689441Y-98243081D01*
X37663229Y-98179798D01*
X37663221Y-98179782D01*
X37541941Y-97969720D01*
X37541935Y-97969710D01*
X37394270Y-97777268D01*
X37394261Y-97777258D01*
X37222741Y-97605738D01*
X37222731Y-97605729D01*
X37030289Y-97458064D01*
X37030279Y-97458058D01*
X36820217Y-97336778D01*
X36820201Y-97336770D01*
X36596105Y-97243948D01*
X36596103Y-97243947D01*
X36596100Y-97243946D01*
X36596096Y-97243945D01*
X36596082Y-97243940D01*
X36361795Y-97181163D01*
X36361790Y-97181162D01*
X36121288Y-97149500D01*
X35878712Y-97149500D01*
X35638209Y-97181162D01*
X35638204Y-97181163D01*
X35403917Y-97243940D01*
X35403894Y-97243948D01*
X35179798Y-97336770D01*
X35179782Y-97336778D01*
X34969720Y-97458058D01*
X34969710Y-97458064D01*
X34777268Y-97605729D01*
X34777258Y-97605738D01*
X34605738Y-97777258D01*
X34605729Y-97777268D01*
X34458064Y-97969710D01*
X34458058Y-97969720D01*
X34336778Y-98179782D01*
X34336770Y-98179798D01*
X34243948Y-98403894D01*
X34243940Y-98403917D01*
X34181163Y-98638204D01*
X34181162Y-98638209D01*
X34149500Y-98878712D01*
X31000000Y-98878712D01*
X31000000Y-74660802D01*
X54416500Y-74660802D01*
X54416500Y-74798797D01*
X54443418Y-74934124D01*
X54443419Y-74934127D01*
X54496224Y-75061608D01*
X54496225Y-75061612D01*
X54572883Y-75176338D01*
X54572886Y-75176342D01*
X54670458Y-75273914D01*
X54670461Y-75273916D01*
X54785187Y-75350574D01*
X54785189Y-75350575D01*
X54883790Y-75391416D01*
X54912669Y-75403379D01*
X54912670Y-75403379D01*
X54912672Y-75403380D01*
X55048007Y-75430300D01*
X55048011Y-75430300D01*
X55050917Y-75430878D01*
X55140677Y-75468058D01*
X55178410Y-75499024D01*
X63426570Y-83747184D01*
X63480546Y-83827966D01*
X63499500Y-83923254D01*
X63499500Y-95382854D01*
X63480546Y-95478142D01*
X63426570Y-95558924D01*
X63345788Y-95612900D01*
X63309570Y-95623576D01*
X63309650Y-95623852D01*
X63139601Y-95673256D01*
X62998135Y-95756919D01*
X62881919Y-95873135D01*
X62798256Y-96014601D01*
X62752403Y-96172427D01*
X62752401Y-96172436D01*
X62749500Y-96209295D01*
X62749500Y-97790704D01*
X62752401Y-97827563D01*
X62752401Y-97827566D01*
X62752402Y-97827569D01*
X62798256Y-97985398D01*
X62881919Y-98126865D01*
X62998135Y-98243081D01*
X63139602Y-98326744D01*
X63297431Y-98372598D01*
X63334306Y-98375500D01*
X63334308Y-98375500D01*
X64665692Y-98375500D01*
X64665694Y-98375500D01*
X64702569Y-98372598D01*
X64860398Y-98326744D01*
X65001865Y-98243081D01*
X65118081Y-98126865D01*
X65201744Y-97985398D01*
X65247598Y-97827569D01*
X65250500Y-97790694D01*
X65250500Y-96209306D01*
X65247598Y-96172431D01*
X65201744Y-96014602D01*
X65118081Y-95873135D01*
X65001865Y-95756919D01*
X64860398Y-95673256D01*
X64709680Y-95629468D01*
X64690350Y-95623852D01*
X64690807Y-95622276D01*
X64614427Y-95592034D01*
X64544659Y-95524421D01*
X64506076Y-95435256D01*
X64500500Y-95382854D01*
X64500500Y-83546907D01*
X64466393Y-83419618D01*
X64466392Y-83419614D01*
X64400500Y-83305486D01*
X64400499Y-83305485D01*
X64400498Y-83305483D01*
X64307314Y-83212299D01*
X64307314Y-83212300D01*
X55886224Y-74791210D01*
X55832248Y-74710428D01*
X55818078Y-74663717D01*
X55817500Y-74660811D01*
X55817500Y-74660807D01*
X55817499Y-74660802D01*
X66283300Y-74660802D01*
X66283300Y-74798797D01*
X66310218Y-74934124D01*
X66310219Y-74934127D01*
X66363024Y-75061608D01*
X66363025Y-75061612D01*
X66439683Y-75176338D01*
X66439686Y-75176342D01*
X66537258Y-75273914D01*
X66537261Y-75273916D01*
X66651987Y-75350574D01*
X66651989Y-75350575D01*
X66750590Y-75391416D01*
X66779469Y-75403379D01*
X66779470Y-75403379D01*
X66779472Y-75403380D01*
X66914807Y-75430300D01*
X66914811Y-75430300D01*
X66917717Y-75430878D01*
X67007477Y-75468058D01*
X67045210Y-75499024D01*
X68426570Y-76880384D01*
X68480546Y-76961166D01*
X68499500Y-77056454D01*
X68499500Y-95573960D01*
X68480546Y-95669248D01*
X68426570Y-95750030D01*
X68363547Y-95795819D01*
X68344600Y-95805473D01*
X68344597Y-95805474D01*
X68344595Y-95805476D01*
X68272446Y-95857895D01*
X68185356Y-95921170D01*
X68046169Y-96060357D01*
X67930479Y-96219589D01*
X67930479Y-96219590D01*
X67930477Y-96219592D01*
X67930476Y-96219595D01*
X67894446Y-96290309D01*
X67841115Y-96394976D01*
X67841113Y-96394982D01*
X67780290Y-96582177D01*
X67749501Y-96776571D01*
X67749500Y-96776587D01*
X67749500Y-97223412D01*
X67749501Y-97223428D01*
X67780290Y-97417822D01*
X67780291Y-97417826D01*
X67806318Y-97497928D01*
X67839798Y-97600971D01*
X67841116Y-97605025D01*
X67930476Y-97780405D01*
X67930479Y-97780409D01*
X67930479Y-97780410D01*
X67964745Y-97827572D01*
X68046172Y-97939646D01*
X68185354Y-98078828D01*
X68185357Y-98078830D01*
X68324326Y-98179798D01*
X68344595Y-98194524D01*
X68519975Y-98283884D01*
X68707174Y-98344709D01*
X68901583Y-98375500D01*
X68901587Y-98375500D01*
X69098413Y-98375500D01*
X69098417Y-98375500D01*
X69292826Y-98344709D01*
X69480025Y-98283884D01*
X69655405Y-98194524D01*
X69814646Y-98078828D01*
X69953828Y-97939646D01*
X70069524Y-97780405D01*
X70158884Y-97605025D01*
X70219709Y-97417826D01*
X70250500Y-97223417D01*
X70250500Y-96776583D01*
X70219709Y-96582174D01*
X70158884Y-96394975D01*
X70069524Y-96219595D01*
X70069521Y-96219591D01*
X70069520Y-96219589D01*
X70062041Y-96209295D01*
X82749500Y-96209295D01*
X82749500Y-97790704D01*
X82752401Y-97827563D01*
X82752401Y-97827566D01*
X82752402Y-97827569D01*
X82798256Y-97985398D01*
X82881919Y-98126865D01*
X82998135Y-98243081D01*
X83139602Y-98326744D01*
X83297431Y-98372598D01*
X83334306Y-98375500D01*
X83334308Y-98375500D01*
X84665692Y-98375500D01*
X84665694Y-98375500D01*
X84702569Y-98372598D01*
X84860398Y-98326744D01*
X85001865Y-98243081D01*
X85118081Y-98126865D01*
X85201744Y-97985398D01*
X85247598Y-97827569D01*
X85250500Y-97790694D01*
X85250500Y-96776587D01*
X87749500Y-96776587D01*
X87749500Y-97223412D01*
X87749501Y-97223428D01*
X87780290Y-97417822D01*
X87780291Y-97417826D01*
X87806318Y-97497928D01*
X87839798Y-97600971D01*
X87841116Y-97605025D01*
X87930476Y-97780405D01*
X87930479Y-97780409D01*
X87930479Y-97780410D01*
X87964745Y-97827572D01*
X88046172Y-97939646D01*
X88185354Y-98078828D01*
X88185357Y-98078830D01*
X88324326Y-98179798D01*
X88344595Y-98194524D01*
X88519975Y-98283884D01*
X88707174Y-98344709D01*
X88901583Y-98375500D01*
X88901587Y-98375500D01*
X89098413Y-98375500D01*
X89098417Y-98375500D01*
X89292826Y-98344709D01*
X89480025Y-98283884D01*
X89655405Y-98194524D01*
X89814646Y-98078828D01*
X89953828Y-97939646D01*
X90069524Y-97780405D01*
X90158884Y-97605025D01*
X90219709Y-97417826D01*
X90250500Y-97223417D01*
X90250500Y-96776583D01*
X90219709Y-96582174D01*
X90158884Y-96394975D01*
X90069524Y-96219595D01*
X89953828Y-96060354D01*
X89814646Y-95921172D01*
X89791081Y-95904051D01*
X89655410Y-95805479D01*
X89655407Y-95805477D01*
X89655405Y-95805476D01*
X89480025Y-95716116D01*
X89480024Y-95716115D01*
X89480023Y-95716115D01*
X89480017Y-95716113D01*
X89335781Y-95669248D01*
X89292826Y-95655291D01*
X89292824Y-95655290D01*
X89292822Y-95655290D01*
X89098428Y-95624501D01*
X89098419Y-95624500D01*
X89098417Y-95624500D01*
X88901583Y-95624500D01*
X88901580Y-95624500D01*
X88901571Y-95624501D01*
X88707177Y-95655290D01*
X88519982Y-95716113D01*
X88519976Y-95716115D01*
X88452828Y-95750329D01*
X88344595Y-95805476D01*
X88344592Y-95805477D01*
X88344590Y-95805479D01*
X88344589Y-95805479D01*
X88185357Y-95921169D01*
X88046169Y-96060357D01*
X87930479Y-96219589D01*
X87930479Y-96219590D01*
X87930477Y-96219592D01*
X87930476Y-96219595D01*
X87894446Y-96290309D01*
X87841115Y-96394976D01*
X87841113Y-96394982D01*
X87780290Y-96582177D01*
X87749501Y-96776571D01*
X87749500Y-96776587D01*
X85250500Y-96776587D01*
X85250500Y-96209306D01*
X85247598Y-96172431D01*
X85201744Y-96014602D01*
X85118081Y-95873135D01*
X85001865Y-95756919D01*
X84860398Y-95673256D01*
X84702569Y-95627402D01*
X84702566Y-95627401D01*
X84702563Y-95627401D01*
X84665704Y-95624500D01*
X84665694Y-95624500D01*
X83334306Y-95624500D01*
X83334295Y-95624500D01*
X83297436Y-95627401D01*
X83297427Y-95627403D01*
X83139601Y-95673256D01*
X82998135Y-95756919D01*
X82881919Y-95873135D01*
X82798256Y-96014601D01*
X82752403Y-96172427D01*
X82752401Y-96172436D01*
X82749500Y-96209295D01*
X70062041Y-96209295D01*
X69953830Y-96060357D01*
X69953828Y-96060354D01*
X69814646Y-95921172D01*
X69655405Y-95805476D01*
X69653377Y-95804443D01*
X69636453Y-95795819D01*
X69560157Y-95735670D01*
X69512686Y-95650902D01*
X69500500Y-95573960D01*
X69500500Y-76680107D01*
X69466393Y-76552818D01*
X69466392Y-76552814D01*
X69400500Y-76438686D01*
X69400499Y-76438685D01*
X69400498Y-76438683D01*
X69307314Y-76345499D01*
X69307314Y-76345500D01*
X67753024Y-74791210D01*
X67699048Y-74710428D01*
X67684878Y-74663717D01*
X67684300Y-74660811D01*
X67684300Y-74660807D01*
X67657380Y-74525472D01*
X67604575Y-74397989D01*
X67527914Y-74283258D01*
X67430342Y-74185686D01*
X67430338Y-74185683D01*
X67315612Y-74109025D01*
X67315609Y-74109024D01*
X67278270Y-74093558D01*
X67188127Y-74056219D01*
X67188124Y-74056218D01*
X67052797Y-74029300D01*
X67052793Y-74029300D01*
X66914807Y-74029300D01*
X66914802Y-74029300D01*
X66779475Y-74056218D01*
X66779472Y-74056219D01*
X66651991Y-74109024D01*
X66651987Y-74109025D01*
X66537261Y-74185683D01*
X66439683Y-74283261D01*
X66363025Y-74397987D01*
X66363024Y-74397991D01*
X66310219Y-74525472D01*
X66310218Y-74525475D01*
X66283300Y-74660802D01*
X55817499Y-74660802D01*
X55790580Y-74525472D01*
X55737775Y-74397989D01*
X55661114Y-74283258D01*
X55563542Y-74185686D01*
X55563538Y-74185683D01*
X55448812Y-74109025D01*
X55448809Y-74109024D01*
X55411470Y-74093558D01*
X55321327Y-74056219D01*
X55321324Y-74056218D01*
X55185997Y-74029300D01*
X55185993Y-74029300D01*
X55048007Y-74029300D01*
X55048002Y-74029300D01*
X54912675Y-74056218D01*
X54912672Y-74056219D01*
X54785191Y-74109024D01*
X54785187Y-74109025D01*
X54670461Y-74185683D01*
X54572883Y-74283261D01*
X54496225Y-74397987D01*
X54496224Y-74397991D01*
X54443419Y-74525472D01*
X54443418Y-74525475D01*
X54416500Y-74660802D01*
X31000000Y-74660802D01*
X31000000Y-62834295D01*
X36249500Y-62834295D01*
X36249500Y-65165704D01*
X36252401Y-65202566D01*
X36252402Y-65202569D01*
X36298256Y-65360397D01*
X36381919Y-65501864D01*
X36498136Y-65618081D01*
X36639603Y-65701744D01*
X36797431Y-65747598D01*
X36834306Y-65750500D01*
X36834308Y-65750500D01*
X39165692Y-65750500D01*
X39165694Y-65750500D01*
X39202569Y-65747598D01*
X39360397Y-65701744D01*
X39501864Y-65618081D01*
X39618081Y-65501864D01*
X39701744Y-65360397D01*
X39747598Y-65202569D01*
X39750500Y-65165694D01*
X39750500Y-62834306D01*
X39747598Y-62797431D01*
X39701744Y-62639603D01*
X39618081Y-62498136D01*
X39501864Y-62381919D01*
X39360397Y-62298256D01*
X39202569Y-62252402D01*
X39202566Y-62252401D01*
X39165704Y-62249500D01*
X39165694Y-62249500D01*
X36834306Y-62249500D01*
X36834295Y-62249500D01*
X36797433Y-62252401D01*
X36797430Y-62252402D01*
X36766491Y-62261391D01*
X36639603Y-62298256D01*
X36639601Y-62298256D01*
X36639601Y-62298257D01*
X36498136Y-62381919D01*
X36381919Y-62498136D01*
X36298256Y-62639603D01*
X36271179Y-62732798D01*
X36252402Y-62797430D01*
X36252401Y-62797433D01*
X36249500Y-62834295D01*
X31000000Y-62834295D01*
X31000000Y-55965266D01*
X36249500Y-55965266D01*
X36249500Y-56194734D01*
X36256017Y-56244236D01*
X36279451Y-56422234D01*
X36338841Y-56643885D01*
X36426653Y-56855882D01*
X36426658Y-56855893D01*
X36540216Y-57052580D01*
X36541389Y-57054612D01*
X36541396Y-57054621D01*
X36633297Y-57174389D01*
X36681081Y-57236661D01*
X36843339Y-57398919D01*
X36843343Y-57398922D01*
X36843344Y-57398923D01*
X36893230Y-57437202D01*
X37025388Y-57538611D01*
X37025397Y-57538616D01*
X37224106Y-57653341D01*
X37224109Y-57653342D01*
X37224112Y-57653344D01*
X37436113Y-57741158D01*
X37657762Y-57800548D01*
X37885266Y-57830500D01*
X38114734Y-57830500D01*
X38342238Y-57800548D01*
X38397574Y-57785720D01*
X38494517Y-57779366D01*
X38586517Y-57810595D01*
X38638088Y-57850166D01*
X41489211Y-60701289D01*
X41489210Y-60701289D01*
X41600709Y-60812787D01*
X41600711Y-60812789D01*
X41687919Y-60871059D01*
X41731819Y-60900393D01*
X41731820Y-60900393D01*
X41731821Y-60900394D01*
X41877503Y-60960737D01*
X41877505Y-60960737D01*
X41877507Y-60960738D01*
X42028148Y-60990702D01*
X42032158Y-60991500D01*
X65531200Y-60991500D01*
X65626488Y-61010454D01*
X65707270Y-61064430D01*
X65761246Y-61145212D01*
X65780200Y-61240500D01*
X65780200Y-61313697D01*
X65807118Y-61449024D01*
X65807119Y-61449027D01*
X65859924Y-61576508D01*
X65859925Y-61576512D01*
X65938236Y-61693711D01*
X65975415Y-61783470D01*
X65980200Y-61832048D01*
X65980200Y-70502092D01*
X66014306Y-70629381D01*
X66014307Y-70629383D01*
X66014308Y-70629386D01*
X66080200Y-70743514D01*
X66175577Y-70838891D01*
X66185783Y-70854166D01*
X66199406Y-70866497D01*
X66210044Y-70890476D01*
X66229551Y-70919670D01*
X66241003Y-70954297D01*
X66244300Y-70967422D01*
X66244300Y-70969293D01*
X66271220Y-71104628D01*
X66290388Y-71150904D01*
X66294843Y-71168639D01*
X66296366Y-71199244D01*
X66302345Y-71229301D01*
X66298760Y-71247321D01*
X66299674Y-71265674D01*
X66289368Y-71294536D01*
X66283390Y-71324590D01*
X66273182Y-71339865D01*
X66267004Y-71357171D01*
X66246439Y-71379890D01*
X66229414Y-71405371D01*
X66214135Y-71415579D01*
X66201806Y-71429201D01*
X66174114Y-71442320D01*
X66148632Y-71459347D01*
X66130609Y-71462931D01*
X66114006Y-71470798D01*
X66083401Y-71472321D01*
X66053345Y-71478300D01*
X62567248Y-71478300D01*
X62471960Y-71459346D01*
X62428911Y-71436336D01*
X62426437Y-71434683D01*
X62375728Y-71400800D01*
X62311712Y-71358025D01*
X62311709Y-71358024D01*
X62267869Y-71339865D01*
X62184227Y-71305219D01*
X62184224Y-71305218D01*
X62048897Y-71278300D01*
X62048893Y-71278300D01*
X61910907Y-71278300D01*
X61910902Y-71278300D01*
X61775575Y-71305218D01*
X61775572Y-71305219D01*
X61648091Y-71358024D01*
X61648087Y-71358025D01*
X61533361Y-71434683D01*
X61435783Y-71532261D01*
X61359125Y-71646987D01*
X61359124Y-71646991D01*
X61306319Y-71774472D01*
X61306318Y-71774475D01*
X61279400Y-71909802D01*
X61279400Y-72047797D01*
X61306318Y-72183124D01*
X61306319Y-72183127D01*
X61359124Y-72310608D01*
X61359125Y-72310612D01*
X61432055Y-72419758D01*
X61435786Y-72425342D01*
X61533358Y-72522914D01*
X61533361Y-72522916D01*
X61648087Y-72599574D01*
X61648089Y-72599575D01*
X61775572Y-72652380D01*
X61775575Y-72652381D01*
X61883689Y-72673886D01*
X61910907Y-72679300D01*
X62048893Y-72679300D01*
X62116560Y-72665840D01*
X62184224Y-72652381D01*
X62184225Y-72652380D01*
X62184228Y-72652380D01*
X62311711Y-72599575D01*
X62426442Y-72522914D01*
X62426442Y-72522913D01*
X62428911Y-72521264D01*
X62518670Y-72484085D01*
X62567248Y-72479300D01*
X69001000Y-72479300D01*
X69096288Y-72498254D01*
X69177070Y-72552230D01*
X69231046Y-72633012D01*
X69250000Y-72728300D01*
X69250000Y-72750197D01*
X69276918Y-72885524D01*
X69276919Y-72885527D01*
X69329724Y-73013008D01*
X69329725Y-73013012D01*
X69406383Y-73127738D01*
X69406386Y-73127742D01*
X69503958Y-73225314D01*
X69503961Y-73225316D01*
X69618687Y-73301974D01*
X69618689Y-73301975D01*
X69717290Y-73342816D01*
X69746169Y-73354779D01*
X69746170Y-73354779D01*
X69746172Y-73354780D01*
X69881507Y-73381700D01*
X69881511Y-73381700D01*
X69884417Y-73382278D01*
X69974177Y-73419458D01*
X70011910Y-73450424D01*
X93961986Y-97400500D01*
X94076114Y-97466392D01*
X94203408Y-97500500D01*
X94335193Y-97500500D01*
X102500500Y-97500500D01*
X102595788Y-97519454D01*
X102676570Y-97573430D01*
X102730546Y-97654212D01*
X102749500Y-97749500D01*
X102749500Y-97790704D01*
X102752401Y-97827563D01*
X102752401Y-97827566D01*
X102752402Y-97827569D01*
X102798256Y-97985398D01*
X102881919Y-98126865D01*
X102998135Y-98243081D01*
X103139602Y-98326744D01*
X103297431Y-98372598D01*
X103334306Y-98375500D01*
X103334308Y-98375500D01*
X104665692Y-98375500D01*
X104665694Y-98375500D01*
X104702569Y-98372598D01*
X104860398Y-98326744D01*
X105001865Y-98243081D01*
X105118081Y-98126865D01*
X105201744Y-97985398D01*
X105247598Y-97827569D01*
X105250500Y-97790694D01*
X105250500Y-96209306D01*
X105247598Y-96172431D01*
X105201744Y-96014602D01*
X105118081Y-95873135D01*
X105001865Y-95756919D01*
X104860398Y-95673256D01*
X104702569Y-95627402D01*
X104702566Y-95627401D01*
X104702563Y-95627401D01*
X104665704Y-95624500D01*
X104665694Y-95624500D01*
X103334306Y-95624500D01*
X103334295Y-95624500D01*
X103297436Y-95627401D01*
X103297427Y-95627403D01*
X103139601Y-95673256D01*
X102998135Y-95756919D01*
X102881919Y-95873135D01*
X102798256Y-96014601D01*
X102752403Y-96172427D01*
X102752401Y-96172436D01*
X102749500Y-96209295D01*
X102749500Y-96250500D01*
X102730546Y-96345788D01*
X102676570Y-96426570D01*
X102595788Y-96480546D01*
X102500500Y-96499500D01*
X94579754Y-96499500D01*
X94484466Y-96480546D01*
X94403684Y-96426570D01*
X70881484Y-72904370D01*
X70827508Y-72823588D01*
X70808554Y-72728300D01*
X70827508Y-72633012D01*
X70881484Y-72552230D01*
X70962266Y-72498254D01*
X71057554Y-72479300D01*
X82948546Y-72479300D01*
X83043834Y-72498254D01*
X83124616Y-72552230D01*
X107274870Y-96702484D01*
X107328846Y-96783266D01*
X107347800Y-96878554D01*
X107347800Y-97065892D01*
X107381906Y-97193181D01*
X107381907Y-97193183D01*
X107381908Y-97193186D01*
X107447800Y-97307314D01*
X107540986Y-97400500D01*
X107655114Y-97466392D01*
X107655116Y-97466392D01*
X107655119Y-97466394D01*
X107681633Y-97473498D01*
X107768769Y-97516467D01*
X107832829Y-97589512D01*
X107839051Y-97600971D01*
X107841113Y-97605017D01*
X107841116Y-97605025D01*
X107930476Y-97780405D01*
X107930479Y-97780409D01*
X107930479Y-97780410D01*
X107964745Y-97827572D01*
X108046172Y-97939646D01*
X108185354Y-98078828D01*
X108185357Y-98078830D01*
X108324326Y-98179798D01*
X108344595Y-98194524D01*
X108519975Y-98283884D01*
X108707174Y-98344709D01*
X108901583Y-98375500D01*
X108901587Y-98375500D01*
X109098413Y-98375500D01*
X109098417Y-98375500D01*
X109292826Y-98344709D01*
X109480025Y-98283884D01*
X109655405Y-98194524D01*
X109814646Y-98078828D01*
X109953828Y-97939646D01*
X110069524Y-97780405D01*
X110158884Y-97605025D01*
X110219709Y-97417826D01*
X110250500Y-97223417D01*
X110250500Y-96776583D01*
X110219709Y-96582174D01*
X110158884Y-96394975D01*
X110069524Y-96219595D01*
X109953828Y-96060354D01*
X109814646Y-95921172D01*
X109791081Y-95904051D01*
X109655410Y-95805479D01*
X109655407Y-95805477D01*
X109655405Y-95805476D01*
X109480025Y-95716116D01*
X109480024Y-95716115D01*
X109480023Y-95716115D01*
X109480017Y-95716113D01*
X109335781Y-95669248D01*
X109292826Y-95655291D01*
X109292824Y-95655290D01*
X109292822Y-95655290D01*
X109098428Y-95624501D01*
X109098419Y-95624500D01*
X109098417Y-95624500D01*
X108901583Y-95624500D01*
X108901580Y-95624500D01*
X108901571Y-95624501D01*
X108707177Y-95655290D01*
X108519982Y-95716113D01*
X108519976Y-95716115D01*
X108344591Y-95805478D01*
X108197451Y-95912383D01*
X108109221Y-95953058D01*
X108012141Y-95956873D01*
X107920991Y-95923246D01*
X107875022Y-95887008D01*
X95911268Y-83923254D01*
X83813880Y-71825866D01*
X83759907Y-71745088D01*
X83740953Y-71649800D01*
X83759907Y-71554512D01*
X83813883Y-71473730D01*
X83894665Y-71419754D01*
X83989953Y-71400800D01*
X84194846Y-71400800D01*
X84290134Y-71419754D01*
X84370916Y-71473730D01*
X90183798Y-77286611D01*
X90183800Y-77286614D01*
X90276986Y-77379800D01*
X90391114Y-77445692D01*
X90518407Y-77479800D01*
X90518408Y-77479800D01*
X95129946Y-77479800D01*
X95225234Y-77498754D01*
X95306016Y-77552730D01*
X116781000Y-99027714D01*
X116780999Y-99027714D01*
X116874183Y-99120897D01*
X116874183Y-99120898D01*
X116874185Y-99120899D01*
X116874186Y-99120900D01*
X116988314Y-99186792D01*
X117115607Y-99220900D01*
X134164192Y-99220900D01*
X134291486Y-99186792D01*
X134405614Y-99120900D01*
X134647802Y-98878712D01*
X182149500Y-98878712D01*
X182149500Y-99121287D01*
X182181162Y-99361790D01*
X182181163Y-99361795D01*
X182243940Y-99596082D01*
X182243948Y-99596105D01*
X182336770Y-99820201D01*
X182336778Y-99820217D01*
X182458058Y-100030279D01*
X182458064Y-100030289D01*
X182605729Y-100222731D01*
X182605738Y-100222741D01*
X182777258Y-100394261D01*
X182777268Y-100394270D01*
X182898491Y-100487287D01*
X182969711Y-100541936D01*
X182969720Y-100541941D01*
X183179782Y-100663221D01*
X183179798Y-100663229D01*
X183319858Y-100721242D01*
X183403900Y-100756054D01*
X183403911Y-100756057D01*
X183403917Y-100756059D01*
X183587021Y-100805121D01*
X183638211Y-100818838D01*
X183878712Y-100850500D01*
X184121288Y-100850500D01*
X184361789Y-100818838D01*
X184523275Y-100775567D01*
X184596082Y-100756059D01*
X184596084Y-100756058D01*
X184596100Y-100756054D01*
X184747766Y-100693231D01*
X184820201Y-100663229D01*
X184820206Y-100663226D01*
X184820212Y-100663224D01*
X185030289Y-100541936D01*
X185222738Y-100394265D01*
X185394265Y-100222738D01*
X185541936Y-100030289D01*
X185663224Y-99820212D01*
X185756054Y-99596100D01*
X185818838Y-99361789D01*
X185850500Y-99121288D01*
X185850500Y-98878712D01*
X185818838Y-98638211D01*
X185756054Y-98403900D01*
X185689441Y-98243081D01*
X185663229Y-98179798D01*
X185663221Y-98179782D01*
X185541941Y-97969720D01*
X185541935Y-97969710D01*
X185394270Y-97777268D01*
X185394261Y-97777258D01*
X185222741Y-97605738D01*
X185222731Y-97605729D01*
X185030289Y-97458064D01*
X185030279Y-97458058D01*
X184820217Y-97336778D01*
X184820201Y-97336770D01*
X184596105Y-97243948D01*
X184596103Y-97243947D01*
X184596100Y-97243946D01*
X184596096Y-97243945D01*
X184596082Y-97243940D01*
X184361795Y-97181163D01*
X184361790Y-97181162D01*
X184121288Y-97149500D01*
X183878712Y-97149500D01*
X183638209Y-97181162D01*
X183638204Y-97181163D01*
X183403917Y-97243940D01*
X183403894Y-97243948D01*
X183179798Y-97336770D01*
X183179782Y-97336778D01*
X182969720Y-97458058D01*
X182969710Y-97458064D01*
X182777268Y-97605729D01*
X182777258Y-97605738D01*
X182605738Y-97777258D01*
X182605729Y-97777268D01*
X182458064Y-97969710D01*
X182458058Y-97969720D01*
X182336778Y-98179782D01*
X182336770Y-98179798D01*
X182243948Y-98403894D01*
X182243940Y-98403917D01*
X182181163Y-98638204D01*
X182181162Y-98638209D01*
X182149500Y-98878712D01*
X134647802Y-98878712D01*
X135397323Y-98129190D01*
X135478102Y-98075216D01*
X135573390Y-98056262D01*
X135668678Y-98075216D01*
X135719750Y-98103818D01*
X135824326Y-98179798D01*
X135844595Y-98194524D01*
X136019975Y-98283884D01*
X136207174Y-98344709D01*
X136401583Y-98375500D01*
X136401587Y-98375500D01*
X136598413Y-98375500D01*
X136598417Y-98375500D01*
X136792826Y-98344709D01*
X136980025Y-98283884D01*
X137155405Y-98194524D01*
X137314646Y-98078828D01*
X137453828Y-97939646D01*
X137569524Y-97780405D01*
X137658884Y-97605025D01*
X137719709Y-97417826D01*
X137750500Y-97223417D01*
X137750500Y-96776583D01*
X137719709Y-96582174D01*
X137658884Y-96394975D01*
X137569524Y-96219595D01*
X137453828Y-96060354D01*
X137314646Y-95921172D01*
X137291081Y-95904051D01*
X137155410Y-95805479D01*
X137155407Y-95805477D01*
X137155405Y-95805476D01*
X136980025Y-95716116D01*
X136980024Y-95716115D01*
X136980023Y-95716115D01*
X136980017Y-95716113D01*
X136835781Y-95669248D01*
X136792826Y-95655291D01*
X136792824Y-95655290D01*
X136792822Y-95655290D01*
X136598428Y-95624501D01*
X136598419Y-95624500D01*
X136598417Y-95624500D01*
X136401583Y-95624500D01*
X136401580Y-95624500D01*
X136401571Y-95624501D01*
X136207177Y-95655290D01*
X136019982Y-95716113D01*
X136019976Y-95716115D01*
X135952828Y-95750329D01*
X135844595Y-95805476D01*
X135844592Y-95805477D01*
X135844590Y-95805479D01*
X135844584Y-95805482D01*
X135714130Y-95900263D01*
X135625900Y-95940938D01*
X135528820Y-95944752D01*
X135437670Y-95911125D01*
X135391703Y-95874888D01*
X134803015Y-95286201D01*
X134803016Y-95286201D01*
X134786061Y-95276412D01*
X134688886Y-95220308D01*
X134688883Y-95220307D01*
X134688881Y-95220306D01*
X134561592Y-95186200D01*
X132879193Y-95186200D01*
X132747408Y-95186200D01*
X132620118Y-95220306D01*
X132620114Y-95220307D01*
X132620114Y-95220308D01*
X132544028Y-95264236D01*
X132505984Y-95286201D01*
X132160410Y-95631774D01*
X132079629Y-95685750D01*
X131984340Y-95704704D01*
X131907396Y-95692517D01*
X131835781Y-95669248D01*
X131792826Y-95655291D01*
X131792824Y-95655290D01*
X131792822Y-95655290D01*
X131598428Y-95624501D01*
X131598419Y-95624500D01*
X131598417Y-95624500D01*
X131401583Y-95624500D01*
X131401580Y-95624500D01*
X131401571Y-95624501D01*
X131207177Y-95655290D01*
X131019982Y-95716113D01*
X131019976Y-95716115D01*
X130952828Y-95750329D01*
X130844595Y-95805476D01*
X130844592Y-95805477D01*
X130844590Y-95805479D01*
X130844589Y-95805479D01*
X130685357Y-95921169D01*
X130546169Y-96060357D01*
X130451444Y-96190734D01*
X130380101Y-96256682D01*
X130288950Y-96290309D01*
X130191870Y-96286494D01*
X130103640Y-96245818D01*
X130048556Y-96190734D01*
X129953830Y-96060357D01*
X129953828Y-96060354D01*
X129814646Y-95921172D01*
X129791081Y-95904051D01*
X129655410Y-95805479D01*
X129655407Y-95805477D01*
X129655405Y-95805476D01*
X129480025Y-95716116D01*
X129480024Y-95716115D01*
X129480023Y-95716115D01*
X129480017Y-95716113D01*
X129335781Y-95669248D01*
X129292826Y-95655291D01*
X129292824Y-95655290D01*
X129292822Y-95655290D01*
X129098428Y-95624501D01*
X129098419Y-95624500D01*
X129098417Y-95624500D01*
X128901583Y-95624500D01*
X128901580Y-95624500D01*
X128901571Y-95624501D01*
X128707177Y-95655290D01*
X128519982Y-95716113D01*
X128519976Y-95716115D01*
X128452828Y-95750329D01*
X128344595Y-95805476D01*
X128344592Y-95805477D01*
X128344590Y-95805479D01*
X128344589Y-95805479D01*
X128185357Y-95921169D01*
X128046169Y-96060357D01*
X127951444Y-96190734D01*
X127880101Y-96256682D01*
X127788950Y-96290309D01*
X127691870Y-96286494D01*
X127603640Y-96245818D01*
X127548556Y-96190734D01*
X127453830Y-96060357D01*
X127453828Y-96060354D01*
X127314646Y-95921172D01*
X127291081Y-95904051D01*
X127155410Y-95805479D01*
X127155407Y-95805477D01*
X127155405Y-95805476D01*
X126980025Y-95716116D01*
X126980024Y-95716115D01*
X126980023Y-95716115D01*
X126980017Y-95716113D01*
X126835781Y-95669248D01*
X126792826Y-95655291D01*
X126792824Y-95655290D01*
X126792822Y-95655290D01*
X126598428Y-95624501D01*
X126598419Y-95624500D01*
X126598417Y-95624500D01*
X126401583Y-95624500D01*
X126401580Y-95624500D01*
X126401571Y-95624501D01*
X126207177Y-95655290D01*
X126019982Y-95716113D01*
X126019981Y-95716113D01*
X125862955Y-95796121D01*
X125769447Y-95822492D01*
X125672966Y-95811071D01*
X125588199Y-95763599D01*
X125573843Y-95750329D01*
X101915684Y-72092170D01*
X101861708Y-72011388D01*
X101842754Y-71916100D01*
X101861708Y-71820812D01*
X101915684Y-71740030D01*
X101996466Y-71686054D01*
X102091754Y-71667100D01*
X131856146Y-71667100D01*
X131951434Y-71686054D01*
X132032216Y-71740030D01*
X156676570Y-96384384D01*
X156730546Y-96465166D01*
X156749500Y-96560454D01*
X156749500Y-97790704D01*
X156752401Y-97827563D01*
X156752401Y-97827566D01*
X156752402Y-97827569D01*
X156798256Y-97985398D01*
X156881919Y-98126865D01*
X156998135Y-98243081D01*
X157139602Y-98326744D01*
X157297431Y-98372598D01*
X157334306Y-98375500D01*
X157334308Y-98375500D01*
X158665692Y-98375500D01*
X158665694Y-98375500D01*
X158702569Y-98372598D01*
X158860398Y-98326744D01*
X159001865Y-98243081D01*
X159118081Y-98126865D01*
X159183338Y-98016520D01*
X159248156Y-97944153D01*
X159335737Y-97902097D01*
X159432745Y-97896758D01*
X159524412Y-97928949D01*
X159573726Y-97967200D01*
X159685354Y-98078828D01*
X159685357Y-98078830D01*
X159824326Y-98179798D01*
X159844595Y-98194524D01*
X160019975Y-98283884D01*
X160207174Y-98344709D01*
X160401583Y-98375500D01*
X160401587Y-98375500D01*
X160598413Y-98375500D01*
X160598417Y-98375500D01*
X160792826Y-98344709D01*
X160980025Y-98283884D01*
X161155405Y-98194524D01*
X161314646Y-98078828D01*
X161453828Y-97939646D01*
X161548555Y-97809265D01*
X161619899Y-97743317D01*
X161711049Y-97709690D01*
X161808129Y-97713505D01*
X161896359Y-97754180D01*
X161951444Y-97809265D01*
X162046172Y-97939646D01*
X162185354Y-98078828D01*
X162185357Y-98078830D01*
X162324326Y-98179798D01*
X162344595Y-98194524D01*
X162519975Y-98283884D01*
X162707174Y-98344709D01*
X162901583Y-98375500D01*
X162901587Y-98375500D01*
X163098413Y-98375500D01*
X163098417Y-98375500D01*
X163292826Y-98344709D01*
X163480025Y-98283884D01*
X163655405Y-98194524D01*
X163814646Y-98078828D01*
X163953828Y-97939646D01*
X164069524Y-97780405D01*
X164158884Y-97605025D01*
X164219709Y-97417826D01*
X164250500Y-97223417D01*
X164250500Y-96776583D01*
X164219709Y-96582174D01*
X164158884Y-96394975D01*
X164069524Y-96219595D01*
X163953828Y-96060354D01*
X163814646Y-95921172D01*
X163791081Y-95904051D01*
X163655410Y-95805479D01*
X163655407Y-95805477D01*
X163655405Y-95805476D01*
X163480025Y-95716116D01*
X163480024Y-95716115D01*
X163480023Y-95716115D01*
X163480017Y-95716113D01*
X163335781Y-95669248D01*
X163292826Y-95655291D01*
X163292824Y-95655290D01*
X163292822Y-95655290D01*
X163098428Y-95624501D01*
X163098419Y-95624500D01*
X163098417Y-95624500D01*
X162901583Y-95624500D01*
X162901580Y-95624500D01*
X162901571Y-95624501D01*
X162707177Y-95655290D01*
X162519982Y-95716113D01*
X162519976Y-95716115D01*
X162344591Y-95805478D01*
X162208919Y-95904051D01*
X162120689Y-95944726D01*
X162023609Y-95948541D01*
X161932459Y-95914914D01*
X161886490Y-95878676D01*
X145466514Y-79458700D01*
X128206714Y-62198900D01*
X128092586Y-62133008D01*
X128092583Y-62133007D01*
X128092581Y-62133006D01*
X127965292Y-62098900D01*
X120373848Y-62098900D01*
X120278560Y-62079946D01*
X120235511Y-62056936D01*
X120233037Y-62055283D01*
X120202435Y-62034835D01*
X120118312Y-61978625D01*
X120118309Y-61978624D01*
X120080970Y-61963158D01*
X119990827Y-61925819D01*
X119990824Y-61925818D01*
X119855497Y-61898900D01*
X119855493Y-61898900D01*
X119717507Y-61898900D01*
X119717502Y-61898900D01*
X119582175Y-61925818D01*
X119582172Y-61925819D01*
X119454691Y-61978624D01*
X119454687Y-61978625D01*
X119339961Y-62055283D01*
X119242383Y-62152861D01*
X119165725Y-62267587D01*
X119165724Y-62267591D01*
X119112919Y-62395072D01*
X119112918Y-62395075D01*
X119086000Y-62530402D01*
X119086000Y-62668397D01*
X119112918Y-62803724D01*
X119112919Y-62803727D01*
X119165724Y-62931208D01*
X119165725Y-62931212D01*
X119242383Y-63045938D01*
X119242386Y-63045942D01*
X119339958Y-63143514D01*
X119339961Y-63143516D01*
X119454687Y-63220174D01*
X119454689Y-63220175D01*
X119582172Y-63272980D01*
X119582175Y-63272981D01*
X119715703Y-63299541D01*
X119717507Y-63299900D01*
X119855493Y-63299900D01*
X119923160Y-63286440D01*
X119990824Y-63272981D01*
X119990825Y-63272980D01*
X119990828Y-63272980D01*
X120118311Y-63220175D01*
X120233042Y-63143514D01*
X120233042Y-63143513D01*
X120235511Y-63141864D01*
X120325270Y-63104685D01*
X120373848Y-63099900D01*
X127588946Y-63099900D01*
X127684234Y-63118854D01*
X127765016Y-63172830D01*
X159968640Y-95376454D01*
X159990300Y-95408871D01*
X160014430Y-95439480D01*
X160017116Y-95449005D01*
X160022616Y-95457236D01*
X160030221Y-95495472D01*
X160040802Y-95532987D01*
X160039638Y-95542815D01*
X160041570Y-95552524D01*
X160033964Y-95590761D01*
X160029383Y-95629468D01*
X160024547Y-95638103D01*
X160022616Y-95647812D01*
X160000957Y-95680226D01*
X159981912Y-95714236D01*
X159974139Y-95720363D01*
X159968640Y-95728594D01*
X159905614Y-95774384D01*
X159862957Y-95796119D01*
X159769450Y-95822491D01*
X159672969Y-95811072D01*
X159588201Y-95763601D01*
X159573843Y-95750329D01*
X147035813Y-83212299D01*
X134030514Y-70207000D01*
X133916386Y-70141108D01*
X133916383Y-70141107D01*
X133916381Y-70141106D01*
X133789092Y-70107000D01*
X100979154Y-70107000D01*
X100883866Y-70088046D01*
X100803084Y-70034070D01*
X100749108Y-69953288D01*
X100730154Y-69858000D01*
X100749108Y-69762712D01*
X100803084Y-69681930D01*
X116342184Y-54142830D01*
X116422966Y-54088854D01*
X116518254Y-54069900D01*
X120073946Y-54069900D01*
X120169234Y-54088854D01*
X120250016Y-54142830D01*
X126514186Y-60407000D01*
X126628314Y-60472892D01*
X126755607Y-60507000D01*
X126755608Y-60507000D01*
X128925952Y-60507000D01*
X129021240Y-60525954D01*
X129064289Y-60548964D01*
X129181487Y-60627274D01*
X129181489Y-60627275D01*
X129308972Y-60680080D01*
X129308975Y-60680081D01*
X129415596Y-60701289D01*
X129444307Y-60707000D01*
X129582293Y-60707000D01*
X129649960Y-60693540D01*
X129717624Y-60680081D01*
X129717625Y-60680080D01*
X129717628Y-60680080D01*
X129845111Y-60627275D01*
X129959842Y-60550614D01*
X130057414Y-60453042D01*
X130134075Y-60338311D01*
X130186880Y-60210828D01*
X130213800Y-60075493D01*
X130213800Y-59937507D01*
X130186880Y-59802172D01*
X130134075Y-59674689D01*
X130133013Y-59673100D01*
X130057416Y-59559961D01*
X130057414Y-59559958D01*
X129959842Y-59462386D01*
X129915968Y-59433070D01*
X129845112Y-59385725D01*
X129845109Y-59385724D01*
X129807770Y-59370258D01*
X129717627Y-59332919D01*
X129717624Y-59332918D01*
X129582297Y-59306000D01*
X129582293Y-59306000D01*
X129444307Y-59306000D01*
X129444302Y-59306000D01*
X129308975Y-59332918D01*
X129308972Y-59332919D01*
X129181491Y-59385724D01*
X129181487Y-59385725D01*
X129110632Y-59433070D01*
X129066763Y-59462383D01*
X129064289Y-59464036D01*
X128974530Y-59501215D01*
X128925952Y-59506000D01*
X127131954Y-59506000D01*
X127036666Y-59487046D01*
X126955884Y-59433070D01*
X124960016Y-57437202D01*
X134018800Y-57437202D01*
X134018800Y-57575197D01*
X134045718Y-57710524D01*
X134045719Y-57710527D01*
X134098524Y-57838008D01*
X134098525Y-57838012D01*
X134175183Y-57952738D01*
X134175186Y-57952742D01*
X134272758Y-58050314D01*
X134272761Y-58050316D01*
X134387487Y-58126974D01*
X134387489Y-58126975D01*
X134514972Y-58179780D01*
X134514975Y-58179781D01*
X134648503Y-58206341D01*
X134650307Y-58206700D01*
X134788293Y-58206700D01*
X134855960Y-58193240D01*
X134923624Y-58179781D01*
X134923625Y-58179780D01*
X134923628Y-58179780D01*
X135051111Y-58126975D01*
X135165842Y-58050314D01*
X135263414Y-57952742D01*
X135340075Y-57838011D01*
X135392880Y-57710528D01*
X135419800Y-57575193D01*
X135419800Y-57575187D01*
X135420378Y-57572282D01*
X135457558Y-57482523D01*
X135488519Y-57444794D01*
X135618400Y-57314914D01*
X135684292Y-57200786D01*
X135718400Y-57073492D01*
X135718400Y-56941707D01*
X135718400Y-54326448D01*
X135737354Y-54231160D01*
X135760364Y-54188111D01*
X135838674Y-54070912D01*
X135838673Y-54070912D01*
X135838675Y-54070911D01*
X135891480Y-53943428D01*
X135918400Y-53808093D01*
X135918400Y-53670107D01*
X135891480Y-53534772D01*
X135838675Y-53407289D01*
X135812500Y-53368116D01*
X135762016Y-53292561D01*
X135762014Y-53292558D01*
X135664442Y-53194986D01*
X135664438Y-53194983D01*
X135549712Y-53118325D01*
X135549709Y-53118324D01*
X135512370Y-53102858D01*
X135422227Y-53065519D01*
X135422224Y-53065518D01*
X135286897Y-53038600D01*
X135286893Y-53038600D01*
X135148907Y-53038600D01*
X135148902Y-53038600D01*
X135013575Y-53065518D01*
X135013572Y-53065519D01*
X134886091Y-53118324D01*
X134886087Y-53118325D01*
X134771361Y-53194983D01*
X134673783Y-53292561D01*
X134597125Y-53407287D01*
X134597124Y-53407291D01*
X134544319Y-53534772D01*
X134544318Y-53534775D01*
X134517400Y-53670102D01*
X134517400Y-53808097D01*
X134544318Y-53943424D01*
X134544319Y-53943427D01*
X134597124Y-54070908D01*
X134597125Y-54070912D01*
X134675436Y-54188111D01*
X134712615Y-54277870D01*
X134717400Y-54326448D01*
X134717400Y-56588005D01*
X134698446Y-56683293D01*
X134644470Y-56764075D01*
X134563688Y-56818051D01*
X134516988Y-56832218D01*
X134514980Y-56832617D01*
X134514972Y-56832619D01*
X134387491Y-56885424D01*
X134387487Y-56885425D01*
X134272761Y-56962083D01*
X134175183Y-57059661D01*
X134098525Y-57174387D01*
X134098524Y-57174391D01*
X134045719Y-57301872D01*
X134045718Y-57301875D01*
X134018800Y-57437202D01*
X124960016Y-57437202D01*
X120957830Y-53435016D01*
X120903854Y-53354234D01*
X120884900Y-53258946D01*
X120884900Y-49285548D01*
X120903854Y-49190260D01*
X120926864Y-49147211D01*
X121005174Y-49030012D01*
X121005173Y-49030012D01*
X121005175Y-49030011D01*
X121057980Y-48902528D01*
X121084900Y-48767193D01*
X121084900Y-48629207D01*
X121079940Y-48604270D01*
X121057981Y-48493875D01*
X121057980Y-48493872D01*
X121005175Y-48366389D01*
X120928514Y-48251658D01*
X120830942Y-48154086D01*
X120830938Y-48154083D01*
X120716212Y-48077425D01*
X120716209Y-48077424D01*
X120678870Y-48061958D01*
X120588727Y-48024619D01*
X120588724Y-48024618D01*
X120453397Y-47997700D01*
X120453393Y-47997700D01*
X120315407Y-47997700D01*
X120315402Y-47997700D01*
X120180075Y-48024618D01*
X120180072Y-48024619D01*
X120052591Y-48077424D01*
X120052587Y-48077425D01*
X119937861Y-48154083D01*
X119840283Y-48251661D01*
X119763625Y-48366387D01*
X119763624Y-48366391D01*
X119710819Y-48493872D01*
X119710818Y-48493875D01*
X119683900Y-48629202D01*
X119683900Y-48767197D01*
X119710818Y-48902524D01*
X119710819Y-48902527D01*
X119763624Y-49030008D01*
X119763625Y-49030012D01*
X119841936Y-49147211D01*
X119879115Y-49236970D01*
X119883900Y-49285548D01*
X119883900Y-52819900D01*
X119864946Y-52915188D01*
X119810970Y-52995970D01*
X119730188Y-53049946D01*
X119634900Y-53068900D01*
X116141907Y-53068900D01*
X116014617Y-53103007D01*
X116014616Y-53103007D01*
X116014614Y-53103008D01*
X115923162Y-53155808D01*
X115900484Y-53168901D01*
X99862110Y-69207275D01*
X99781328Y-69261251D01*
X99734619Y-69275420D01*
X99596374Y-69302919D01*
X99596372Y-69302919D01*
X99468891Y-69355724D01*
X99468887Y-69355725D01*
X99354161Y-69432383D01*
X99256582Y-69529962D01*
X99192147Y-69626396D01*
X99123448Y-69695095D01*
X99033688Y-69732274D01*
X98936533Y-69732273D01*
X98846774Y-69695093D01*
X98809042Y-69664128D01*
X94310605Y-65165691D01*
X87717014Y-58572100D01*
X87602886Y-58506208D01*
X87602883Y-58506207D01*
X87602881Y-58506206D01*
X87475592Y-58472100D01*
X72205548Y-58472100D01*
X72110260Y-58453146D01*
X72067211Y-58430136D01*
X72064737Y-58428483D01*
X72034135Y-58408035D01*
X71950012Y-58351825D01*
X71950009Y-58351824D01*
X71912670Y-58336358D01*
X71822527Y-58299019D01*
X71822524Y-58299018D01*
X71687197Y-58272100D01*
X71687193Y-58272100D01*
X71549207Y-58272100D01*
X71549202Y-58272100D01*
X71413875Y-58299018D01*
X71413872Y-58299019D01*
X71286391Y-58351824D01*
X71286387Y-58351825D01*
X71171661Y-58428483D01*
X71074083Y-58526061D01*
X70997425Y-58640787D01*
X70997424Y-58640791D01*
X70944619Y-58768272D01*
X70944619Y-58768274D01*
X70930270Y-58840410D01*
X70893090Y-58930170D01*
X70824390Y-58998868D01*
X70734631Y-59036047D01*
X70637476Y-59036046D01*
X70547716Y-58998866D01*
X70509988Y-58967903D01*
X68607477Y-57065438D01*
X67582999Y-56040985D01*
X67520514Y-55978500D01*
X67406386Y-55912608D01*
X67406381Y-55912606D01*
X67406380Y-55912606D01*
X67356444Y-55899226D01*
X67356440Y-55899224D01*
X67356440Y-55899225D01*
X67279089Y-55878499D01*
X67279086Y-55878499D01*
X67229667Y-55878499D01*
X67213193Y-55878500D01*
X66324348Y-55878500D01*
X66229060Y-55859546D01*
X66186011Y-55836536D01*
X66183537Y-55834883D01*
X66152935Y-55814435D01*
X66068812Y-55758225D01*
X66068809Y-55758224D01*
X66019409Y-55737762D01*
X65941327Y-55705419D01*
X65941324Y-55705418D01*
X65805997Y-55678500D01*
X65805993Y-55678500D01*
X65668007Y-55678500D01*
X65668002Y-55678500D01*
X65532675Y-55705418D01*
X65532672Y-55705419D01*
X65405191Y-55758224D01*
X65405187Y-55758225D01*
X65290461Y-55834883D01*
X65192883Y-55932461D01*
X65116225Y-56047187D01*
X65116224Y-56047191D01*
X65063419Y-56174672D01*
X65063418Y-56174675D01*
X65036500Y-56310002D01*
X65036500Y-56447997D01*
X65063418Y-56583324D01*
X65063419Y-56583327D01*
X65116224Y-56710808D01*
X65116225Y-56710812D01*
X65192883Y-56825538D01*
X65192886Y-56825542D01*
X65290458Y-56923114D01*
X65290461Y-56923116D01*
X65405187Y-56999774D01*
X65405189Y-56999775D01*
X65532672Y-57052580D01*
X65532675Y-57052581D01*
X65637803Y-57073492D01*
X65668007Y-57079500D01*
X65805993Y-57079500D01*
X65905745Y-57059658D01*
X65941324Y-57052581D01*
X65941325Y-57052580D01*
X65941328Y-57052580D01*
X66068811Y-56999775D01*
X66183542Y-56923114D01*
X66183542Y-56923113D01*
X66186011Y-56921464D01*
X66275770Y-56884285D01*
X66324348Y-56879500D01*
X66902752Y-56879500D01*
X66998040Y-56898454D01*
X67078819Y-56952427D01*
X68579573Y-58453146D01*
X69091867Y-58965428D01*
X69145844Y-59046209D01*
X69164799Y-59141497D01*
X69145846Y-59236785D01*
X69091871Y-59317568D01*
X69011090Y-59371545D01*
X68915802Y-59390500D01*
X42545718Y-59390500D01*
X42450430Y-59371546D01*
X42369648Y-59317570D01*
X39770166Y-56718088D01*
X39716190Y-56637306D01*
X39697236Y-56542018D01*
X39705720Y-56477575D01*
X39720548Y-56422238D01*
X39750500Y-56194734D01*
X39750500Y-55965266D01*
X39720548Y-55737762D01*
X39661158Y-55516113D01*
X39573344Y-55304112D01*
X39520963Y-55213386D01*
X39458616Y-55105397D01*
X39458611Y-55105388D01*
X39318919Y-54923339D01*
X39156661Y-54761081D01*
X39156656Y-54761077D01*
X39156655Y-54761076D01*
X38974621Y-54621396D01*
X38974622Y-54621396D01*
X38974612Y-54621389D01*
X38974602Y-54621383D01*
X38775893Y-54506658D01*
X38775882Y-54506653D01*
X38563885Y-54418841D01*
X38435911Y-54384551D01*
X38342238Y-54359452D01*
X38342235Y-54359451D01*
X38342236Y-54359451D01*
X38114734Y-54329500D01*
X37885266Y-54329500D01*
X37657765Y-54359451D01*
X37436114Y-54418841D01*
X37224117Y-54506653D01*
X37224106Y-54506658D01*
X37025397Y-54621383D01*
X37025378Y-54621396D01*
X36843344Y-54761076D01*
X36681076Y-54923344D01*
X36541396Y-55105378D01*
X36541383Y-55105397D01*
X36426658Y-55304106D01*
X36426653Y-55304117D01*
X36338841Y-55516114D01*
X36279451Y-55737765D01*
X36256433Y-55912606D01*
X36249500Y-55965266D01*
X31000000Y-55965266D01*
X31000000Y-52755002D01*
X76912700Y-52755002D01*
X76912700Y-52892997D01*
X76939618Y-53028324D01*
X76939619Y-53028327D01*
X76992424Y-53155808D01*
X76992425Y-53155812D01*
X77069083Y-53270538D01*
X77069086Y-53270542D01*
X77166658Y-53368114D01*
X77166661Y-53368116D01*
X77281387Y-53444774D01*
X77281389Y-53444775D01*
X77408872Y-53497580D01*
X77408875Y-53497581D01*
X77542403Y-53524141D01*
X77544207Y-53524500D01*
X77682193Y-53524500D01*
X77749860Y-53511040D01*
X77817524Y-53497581D01*
X77817525Y-53497580D01*
X77817528Y-53497580D01*
X77945011Y-53444775D01*
X78059742Y-53368114D01*
X78157314Y-53270542D01*
X78233975Y-53155811D01*
X78286780Y-53028328D01*
X78313700Y-52892993D01*
X78313700Y-52892987D01*
X78314278Y-52890082D01*
X78351458Y-52800323D01*
X78382419Y-52762594D01*
X83148507Y-47996507D01*
X132220500Y-47996507D01*
X132220500Y-48134497D01*
X132247418Y-48269824D01*
X132247419Y-48269827D01*
X132300224Y-48397308D01*
X132300225Y-48397312D01*
X132378536Y-48514511D01*
X132415715Y-48604270D01*
X132420500Y-48652848D01*
X132420500Y-55643112D01*
X132417683Y-55643112D01*
X132416600Y-55676167D01*
X132418299Y-55676335D01*
X132417100Y-55688508D01*
X132417100Y-55826497D01*
X132444018Y-55961824D01*
X132444019Y-55961827D01*
X132496824Y-56089308D01*
X132496825Y-56089312D01*
X132573483Y-56204038D01*
X132573486Y-56204042D01*
X132671058Y-56301614D01*
X132671061Y-56301616D01*
X132785787Y-56378274D01*
X132785789Y-56378275D01*
X132913272Y-56431080D01*
X132913275Y-56431081D01*
X133046803Y-56457641D01*
X133048607Y-56458000D01*
X133186593Y-56458000D01*
X133254260Y-56444540D01*
X133321924Y-56431081D01*
X133321925Y-56431080D01*
X133321928Y-56431080D01*
X133449411Y-56378275D01*
X133564142Y-56301614D01*
X133661714Y-56204042D01*
X133738375Y-56089311D01*
X133791180Y-55961828D01*
X133818100Y-55826493D01*
X133818100Y-55688507D01*
X133791180Y-55553172D01*
X133738375Y-55425689D01*
X133661714Y-55310958D01*
X133564142Y-55213386D01*
X133564138Y-55213383D01*
X133564137Y-55213382D01*
X133532162Y-55192017D01*
X133463463Y-55123318D01*
X133426284Y-55033558D01*
X133421500Y-54984982D01*
X133421500Y-51521602D01*
X137484100Y-51521602D01*
X137484100Y-51659597D01*
X137511018Y-51794924D01*
X137511019Y-51794927D01*
X137563824Y-51922408D01*
X137563825Y-51922412D01*
X137640483Y-52037138D01*
X137640486Y-52037142D01*
X137738058Y-52134714D01*
X137748135Y-52141447D01*
X137816833Y-52210143D01*
X137854015Y-52299901D01*
X137858800Y-52348484D01*
X137858800Y-56031551D01*
X137839846Y-56126839D01*
X137816836Y-56169888D01*
X137738526Y-56287087D01*
X137738524Y-56287091D01*
X137685719Y-56414572D01*
X137685718Y-56414575D01*
X137658800Y-56549902D01*
X137658800Y-56687897D01*
X137685718Y-56823224D01*
X137685719Y-56823227D01*
X137719254Y-56904186D01*
X137734795Y-56941707D01*
X137738524Y-56950708D01*
X137738525Y-56950712D01*
X137811321Y-57059658D01*
X137815186Y-57065442D01*
X137912758Y-57163014D01*
X137912761Y-57163016D01*
X138027487Y-57239674D01*
X138027489Y-57239675D01*
X138136972Y-57285024D01*
X138154972Y-57292480D01*
X138154975Y-57292481D01*
X138288503Y-57319041D01*
X138290307Y-57319400D01*
X138428293Y-57319400D01*
X138495960Y-57305940D01*
X138563624Y-57292481D01*
X138563625Y-57292480D01*
X138563628Y-57292480D01*
X138691111Y-57239675D01*
X138805842Y-57163014D01*
X138903414Y-57065442D01*
X138939322Y-57011702D01*
X161989400Y-57011702D01*
X161989400Y-57149697D01*
X162016318Y-57285024D01*
X162016319Y-57285027D01*
X162069124Y-57412508D01*
X162069125Y-57412512D01*
X162136613Y-57513514D01*
X162145786Y-57527242D01*
X162243358Y-57624814D01*
X162243361Y-57624816D01*
X162358087Y-57701474D01*
X162358089Y-57701475D01*
X162453893Y-57741158D01*
X162485572Y-57754280D01*
X162485575Y-57754281D01*
X162611687Y-57779366D01*
X162620907Y-57781200D01*
X162758893Y-57781200D01*
X162826560Y-57767740D01*
X162894224Y-57754281D01*
X162894225Y-57754280D01*
X162894228Y-57754280D01*
X163021711Y-57701475D01*
X163136442Y-57624814D01*
X163234014Y-57527242D01*
X163310675Y-57412511D01*
X163363480Y-57285028D01*
X163390400Y-57149693D01*
X163390400Y-57011707D01*
X163378267Y-56950711D01*
X163363481Y-56876375D01*
X163363480Y-56876372D01*
X163345191Y-56832218D01*
X163310675Y-56748889D01*
X163240515Y-56643887D01*
X163232364Y-56631688D01*
X163195184Y-56541928D01*
X163190400Y-56493351D01*
X163190400Y-53353254D01*
X163209354Y-53257966D01*
X163263330Y-53177184D01*
X165550414Y-50890100D01*
X168880392Y-47560121D01*
X168961171Y-47506148D01*
X169007882Y-47491978D01*
X169010788Y-47491400D01*
X169010793Y-47491400D01*
X169146128Y-47464480D01*
X169273611Y-47411675D01*
X169388342Y-47335014D01*
X169485914Y-47237442D01*
X169562575Y-47122711D01*
X169615380Y-46995228D01*
X169642300Y-46859893D01*
X169642300Y-46721907D01*
X169630877Y-46664480D01*
X169615381Y-46586575D01*
X169615380Y-46586572D01*
X169594024Y-46535014D01*
X169562575Y-46459089D01*
X169485914Y-46344358D01*
X169388342Y-46246786D01*
X169364108Y-46230593D01*
X169273612Y-46170125D01*
X169273605Y-46170122D01*
X169201728Y-46140350D01*
X169120946Y-46086374D01*
X169066969Y-46005593D01*
X169052800Y-45958881D01*
X169052480Y-45957272D01*
X168999675Y-45829789D01*
X168923014Y-45715058D01*
X168825442Y-45617486D01*
X168825438Y-45617483D01*
X168710712Y-45540825D01*
X168710709Y-45540824D01*
X168671313Y-45524506D01*
X168583227Y-45488019D01*
X168583224Y-45488018D01*
X168444981Y-45460520D01*
X168355221Y-45423340D01*
X168317489Y-45392375D01*
X164573430Y-41648316D01*
X164519454Y-41567534D01*
X164500500Y-41472246D01*
X164500500Y-39617145D01*
X164519454Y-39521857D01*
X164573430Y-39441075D01*
X164654212Y-39387099D01*
X164690430Y-39376423D01*
X164690350Y-39376148D01*
X164702576Y-39372596D01*
X164860398Y-39326744D01*
X165001865Y-39243081D01*
X165118081Y-39126865D01*
X165183338Y-39016520D01*
X165248156Y-38944153D01*
X165335737Y-38902097D01*
X165432745Y-38896758D01*
X165524412Y-38928949D01*
X165573726Y-38967200D01*
X165685354Y-39078828D01*
X165685357Y-39078830D01*
X165751469Y-39126864D01*
X165844595Y-39194524D01*
X166019975Y-39283884D01*
X166207174Y-39344709D01*
X166401583Y-39375500D01*
X166401587Y-39375500D01*
X166598413Y-39375500D01*
X166598417Y-39375500D01*
X166792826Y-39344709D01*
X166980025Y-39283884D01*
X167155405Y-39194524D01*
X167314646Y-39078828D01*
X167453828Y-38939646D01*
X167569524Y-38780405D01*
X167658884Y-38605025D01*
X167719709Y-38417826D01*
X167750500Y-38223417D01*
X167750500Y-37776583D01*
X167719709Y-37582174D01*
X167658884Y-37394975D01*
X167569524Y-37219595D01*
X167453828Y-37060354D01*
X167314646Y-36921172D01*
X167314642Y-36921169D01*
X167155410Y-36805479D01*
X167155407Y-36805477D01*
X167155405Y-36805476D01*
X166980025Y-36716116D01*
X166980024Y-36716115D01*
X166980023Y-36716115D01*
X166980017Y-36716113D01*
X166848116Y-36673256D01*
X166792826Y-36655291D01*
X166792824Y-36655290D01*
X166792822Y-36655290D01*
X166598428Y-36624501D01*
X166598419Y-36624500D01*
X166598417Y-36624500D01*
X166401583Y-36624500D01*
X166401580Y-36624500D01*
X166401571Y-36624501D01*
X166207177Y-36655290D01*
X166019982Y-36716113D01*
X166019976Y-36716115D01*
X165939894Y-36756919D01*
X165844595Y-36805476D01*
X165844592Y-36805477D01*
X165844590Y-36805479D01*
X165844589Y-36805479D01*
X165685353Y-36921172D01*
X165573730Y-37032795D01*
X165492948Y-37086771D01*
X165397660Y-37105725D01*
X165302372Y-37086771D01*
X165221591Y-37032794D01*
X165183336Y-36983476D01*
X165118081Y-36873135D01*
X165001865Y-36756919D01*
X164860398Y-36673256D01*
X164702569Y-36627402D01*
X164702566Y-36627401D01*
X164702563Y-36627401D01*
X164665704Y-36624500D01*
X164665694Y-36624500D01*
X163334306Y-36624500D01*
X163334295Y-36624500D01*
X163297436Y-36627401D01*
X163297427Y-36627403D01*
X163139601Y-36673256D01*
X162998135Y-36756919D01*
X162881919Y-36873135D01*
X162798256Y-37014601D01*
X162752403Y-37172427D01*
X162752401Y-37172436D01*
X162749500Y-37209295D01*
X162749500Y-38790704D01*
X162752401Y-38827563D01*
X162752401Y-38827566D01*
X162752402Y-38827569D01*
X162798256Y-38985398D01*
X162881919Y-39126865D01*
X162998135Y-39243081D01*
X163139602Y-39326744D01*
X163297424Y-39372596D01*
X163309650Y-39376148D01*
X163309191Y-39377724D01*
X163385553Y-39407952D01*
X163455327Y-39475558D01*
X163493919Y-39564720D01*
X163499500Y-39617145D01*
X163499500Y-41848592D01*
X163533606Y-41975881D01*
X163533607Y-41975883D01*
X163533608Y-41975886D01*
X163599500Y-42090014D01*
X166799886Y-45290400D01*
X167609675Y-46100189D01*
X167663651Y-46180971D01*
X167677820Y-46227681D01*
X167705318Y-46365924D01*
X167705319Y-46365927D01*
X167734940Y-46437438D01*
X167745781Y-46463611D01*
X167758124Y-46493408D01*
X167758125Y-46493412D01*
X167814874Y-46578342D01*
X167834786Y-46608142D01*
X167932358Y-46705714D01*
X167932361Y-46705716D01*
X167932445Y-46705785D01*
X167932513Y-46705868D01*
X167941008Y-46714363D01*
X167940171Y-46715199D01*
X167994079Y-46780887D01*
X168022281Y-46873859D01*
X168012758Y-46970546D01*
X167966959Y-47056229D01*
X167950550Y-47074334D01*
X162382586Y-52642300D01*
X162382585Y-52642299D01*
X162289402Y-52735483D01*
X162289401Y-52735483D01*
X162223506Y-52849618D01*
X162189400Y-52976907D01*
X162189400Y-56493351D01*
X162170446Y-56588639D01*
X162147436Y-56631688D01*
X162069126Y-56748887D01*
X162069124Y-56748891D01*
X162016319Y-56876372D01*
X162016318Y-56876375D01*
X161989400Y-57011702D01*
X138939322Y-57011702D01*
X138980075Y-56950711D01*
X139032880Y-56823228D01*
X139037444Y-56800286D01*
X139059799Y-56687897D01*
X139059800Y-56687892D01*
X139059800Y-56549907D01*
X139059799Y-56549902D01*
X139032881Y-56414575D01*
X139032880Y-56414572D01*
X139017845Y-56378274D01*
X138980075Y-56287089D01*
X138918365Y-56194733D01*
X138901764Y-56169888D01*
X138864584Y-56080128D01*
X138859800Y-56031551D01*
X138859800Y-51811305D01*
X138864585Y-51762726D01*
X138885099Y-51659597D01*
X138885100Y-51659593D01*
X138885100Y-51521607D01*
X138858180Y-51386272D01*
X138805375Y-51258789D01*
X138728714Y-51144058D01*
X138631142Y-51046486D01*
X138631138Y-51046483D01*
X138516412Y-50969825D01*
X138516409Y-50969824D01*
X138479070Y-50954358D01*
X138388927Y-50917019D01*
X138388924Y-50917018D01*
X138253597Y-50890100D01*
X138253593Y-50890100D01*
X138115607Y-50890100D01*
X138115602Y-50890100D01*
X137980275Y-50917018D01*
X137980272Y-50917019D01*
X137852791Y-50969824D01*
X137852787Y-50969825D01*
X137738061Y-51046483D01*
X137640483Y-51144061D01*
X137563825Y-51258787D01*
X137563824Y-51258791D01*
X137511019Y-51386272D01*
X137511018Y-51386275D01*
X137484100Y-51521602D01*
X133421500Y-51521602D01*
X133421500Y-48652848D01*
X133440454Y-48557560D01*
X133463464Y-48514511D01*
X133541774Y-48397312D01*
X133541773Y-48397312D01*
X133541775Y-48397311D01*
X133594580Y-48269828D01*
X133621500Y-48134493D01*
X133621500Y-47996507D01*
X133594580Y-47861172D01*
X133541775Y-47733689D01*
X133465114Y-47618958D01*
X133367542Y-47521386D01*
X133344737Y-47506148D01*
X133252812Y-47444725D01*
X133252809Y-47444724D01*
X133215470Y-47429258D01*
X133125327Y-47391919D01*
X133125324Y-47391918D01*
X132989997Y-47365000D01*
X132989993Y-47365000D01*
X132852007Y-47365000D01*
X132852002Y-47365000D01*
X132716675Y-47391918D01*
X132716672Y-47391919D01*
X132589191Y-47444724D01*
X132589187Y-47444725D01*
X132474461Y-47521383D01*
X132376883Y-47618961D01*
X132300225Y-47733687D01*
X132300224Y-47733691D01*
X132247419Y-47861172D01*
X132247418Y-47861175D01*
X132220501Y-47996501D01*
X132220500Y-47996507D01*
X83148507Y-47996507D01*
X84580684Y-46564330D01*
X84661466Y-46510354D01*
X84756754Y-46491400D01*
X84759352Y-46491400D01*
X84854640Y-46510354D01*
X84897689Y-46533364D01*
X85014887Y-46611674D01*
X85014889Y-46611675D01*
X85142372Y-46664480D01*
X85142375Y-46664481D01*
X85275903Y-46691041D01*
X85277707Y-46691400D01*
X85415693Y-46691400D01*
X85493546Y-46675914D01*
X85551024Y-46664481D01*
X85551025Y-46664480D01*
X85551028Y-46664480D01*
X85678511Y-46611675D01*
X85793242Y-46535014D01*
X85890814Y-46437442D01*
X85967475Y-46322711D01*
X86020280Y-46195228D01*
X86047200Y-46059893D01*
X86047200Y-45921907D01*
X86028877Y-45829791D01*
X86020281Y-45786575D01*
X86020280Y-45786572D01*
X85990658Y-45715058D01*
X85967475Y-45659089D01*
X85890814Y-45544358D01*
X85793242Y-45446786D01*
X85758153Y-45423340D01*
X85678512Y-45370125D01*
X85678509Y-45370124D01*
X85641170Y-45354658D01*
X85551027Y-45317319D01*
X85551024Y-45317318D01*
X85415697Y-45290400D01*
X85415693Y-45290400D01*
X85277707Y-45290400D01*
X85277702Y-45290400D01*
X85142375Y-45317318D01*
X85142372Y-45317319D01*
X85014891Y-45370124D01*
X85014887Y-45370125D01*
X84935247Y-45423340D01*
X84900163Y-45446783D01*
X84897689Y-45448436D01*
X84807930Y-45485615D01*
X84759352Y-45490400D01*
X84380408Y-45490400D01*
X84253118Y-45524506D01*
X84253114Y-45524507D01*
X84253114Y-45524508D01*
X84218733Y-45544358D01*
X84138986Y-45590400D01*
X77674610Y-52054775D01*
X77593828Y-52108751D01*
X77547119Y-52122920D01*
X77408874Y-52150419D01*
X77408872Y-52150419D01*
X77281391Y-52203224D01*
X77281387Y-52203225D01*
X77166661Y-52279883D01*
X77069083Y-52377461D01*
X76992425Y-52492187D01*
X76992424Y-52492191D01*
X76939619Y-52619672D01*
X76939618Y-52619675D01*
X76912700Y-52755002D01*
X31000000Y-52755002D01*
X31000000Y-35878712D01*
X34149500Y-35878712D01*
X34149500Y-36121287D01*
X34181162Y-36361790D01*
X34181163Y-36361795D01*
X34243940Y-36596082D01*
X34243948Y-36596105D01*
X34336770Y-36820201D01*
X34336778Y-36820217D01*
X34458058Y-37030279D01*
X34458064Y-37030289D01*
X34605729Y-37222731D01*
X34605738Y-37222741D01*
X34777258Y-37394261D01*
X34777268Y-37394270D01*
X34778196Y-37394982D01*
X34969711Y-37541936D01*
X34969720Y-37541941D01*
X35179782Y-37663221D01*
X35179798Y-37663229D01*
X35319858Y-37721242D01*
X35403900Y-37756054D01*
X35403911Y-37756057D01*
X35403917Y-37756059D01*
X35587021Y-37805121D01*
X35638211Y-37818838D01*
X35878712Y-37850500D01*
X36121288Y-37850500D01*
X36361789Y-37818838D01*
X36523275Y-37775567D01*
X36596082Y-37756059D01*
X36596084Y-37756058D01*
X36596100Y-37756054D01*
X36747766Y-37693231D01*
X36820201Y-37663229D01*
X36820206Y-37663226D01*
X36820212Y-37663224D01*
X37030289Y-37541936D01*
X37222738Y-37394265D01*
X37394265Y-37222738D01*
X37404580Y-37209295D01*
X48749500Y-37209295D01*
X48749500Y-38790704D01*
X48752401Y-38827563D01*
X48752401Y-38827566D01*
X48752402Y-38827569D01*
X48798256Y-38985398D01*
X48881919Y-39126865D01*
X48998135Y-39243081D01*
X49139602Y-39326744D01*
X49297431Y-39372598D01*
X49334306Y-39375500D01*
X50007446Y-39375500D01*
X50102734Y-39394454D01*
X50183516Y-39448430D01*
X56805475Y-46070389D01*
X56859451Y-46151171D01*
X56873620Y-46197881D01*
X56901118Y-46336124D01*
X56901119Y-46336127D01*
X56938458Y-46426270D01*
X56943085Y-46437442D01*
X56953924Y-46463608D01*
X56953925Y-46463612D01*
X57001635Y-46535014D01*
X57030586Y-46578342D01*
X57128158Y-46675914D01*
X57128161Y-46675916D01*
X57242887Y-46752574D01*
X57242889Y-46752575D01*
X57370372Y-46805380D01*
X57370375Y-46805381D01*
X57503903Y-46831941D01*
X57505707Y-46832300D01*
X57643693Y-46832300D01*
X57711360Y-46818840D01*
X57779024Y-46805381D01*
X57779025Y-46805380D01*
X57779028Y-46805380D01*
X57906511Y-46752575D01*
X58021242Y-46675914D01*
X58118814Y-46578342D01*
X58195475Y-46463611D01*
X58248280Y-46336128D01*
X58250950Y-46322708D01*
X58269272Y-46230593D01*
X58275200Y-46200793D01*
X58275200Y-46062807D01*
X58274620Y-46059892D01*
X58248281Y-45927475D01*
X58248280Y-45927472D01*
X58207819Y-45829791D01*
X58195475Y-45799989D01*
X58118814Y-45685258D01*
X58021242Y-45587686D01*
X57956402Y-45544361D01*
X57906512Y-45511025D01*
X57906509Y-45511024D01*
X57850972Y-45488020D01*
X57779027Y-45458219D01*
X57779024Y-45458218D01*
X57640781Y-45430720D01*
X57551021Y-45393540D01*
X57513289Y-45362575D01*
X51886236Y-39735522D01*
X51832260Y-39654740D01*
X51813306Y-39559452D01*
X51832260Y-39464164D01*
X51886236Y-39383382D01*
X51967018Y-39329406D01*
X52062306Y-39310452D01*
X52139247Y-39322638D01*
X52207174Y-39344709D01*
X52207177Y-39344709D01*
X52207179Y-39344710D01*
X52338726Y-39365544D01*
X52401583Y-39375500D01*
X52401587Y-39375500D01*
X52598413Y-39375500D01*
X52598417Y-39375500D01*
X52792826Y-39344709D01*
X52980025Y-39283884D01*
X53155405Y-39194524D01*
X53314646Y-39078828D01*
X53453828Y-38939646D01*
X53569524Y-38780405D01*
X53658884Y-38605025D01*
X53719709Y-38417826D01*
X53750500Y-38223417D01*
X53750500Y-37776583D01*
X53719709Y-37582174D01*
X53658884Y-37394975D01*
X53569524Y-37219595D01*
X53569521Y-37219591D01*
X53569520Y-37219589D01*
X53562041Y-37209295D01*
X70749500Y-37209295D01*
X70749500Y-38790704D01*
X70752401Y-38827563D01*
X70752401Y-38827566D01*
X70752402Y-38827569D01*
X70798256Y-38985398D01*
X70881919Y-39126865D01*
X70998135Y-39243081D01*
X71139602Y-39326744D01*
X71297431Y-39372598D01*
X71334306Y-39375500D01*
X71334308Y-39375500D01*
X72665692Y-39375500D01*
X72665694Y-39375500D01*
X72702569Y-39372598D01*
X72860398Y-39326744D01*
X73001865Y-39243081D01*
X73118081Y-39126865D01*
X73183338Y-39016520D01*
X73248156Y-38944153D01*
X73335737Y-38902097D01*
X73432745Y-38896758D01*
X73524412Y-38928949D01*
X73573726Y-38967200D01*
X73685354Y-39078828D01*
X73685357Y-39078830D01*
X73751469Y-39126864D01*
X73844595Y-39194524D01*
X74019975Y-39283884D01*
X74207174Y-39344709D01*
X74401583Y-39375500D01*
X74401587Y-39375500D01*
X74598413Y-39375500D01*
X74598417Y-39375500D01*
X74792826Y-39344709D01*
X74980025Y-39283884D01*
X75155405Y-39194524D01*
X75314646Y-39078828D01*
X75453828Y-38939646D01*
X75569524Y-38780405D01*
X75658884Y-38605025D01*
X75719709Y-38417826D01*
X75750500Y-38223417D01*
X75750500Y-37776583D01*
X75719709Y-37582174D01*
X75658884Y-37394975D01*
X75569524Y-37219595D01*
X75569521Y-37219591D01*
X75569520Y-37219589D01*
X75562041Y-37209295D01*
X140749500Y-37209295D01*
X140749500Y-38790704D01*
X140752401Y-38827563D01*
X140752401Y-38827566D01*
X140752402Y-38827569D01*
X140798256Y-38985398D01*
X140881919Y-39126865D01*
X140998135Y-39243081D01*
X141139602Y-39326744D01*
X141297431Y-39372598D01*
X141334306Y-39375500D01*
X141334308Y-39375500D01*
X142665692Y-39375500D01*
X142665694Y-39375500D01*
X142702569Y-39372598D01*
X142860398Y-39326744D01*
X143001865Y-39243081D01*
X143118081Y-39126865D01*
X143183338Y-39016520D01*
X143248156Y-38944153D01*
X143335737Y-38902097D01*
X143432745Y-38896758D01*
X143524412Y-38928949D01*
X143573726Y-38967200D01*
X143685354Y-39078828D01*
X143685357Y-39078830D01*
X143751469Y-39126864D01*
X143844595Y-39194524D01*
X144019975Y-39283884D01*
X144207174Y-39344709D01*
X144401583Y-39375500D01*
X144401587Y-39375500D01*
X144598413Y-39375500D01*
X144598417Y-39375500D01*
X144792826Y-39344709D01*
X144980025Y-39283884D01*
X145155405Y-39194524D01*
X145314646Y-39078828D01*
X145453828Y-38939646D01*
X145569524Y-38780405D01*
X145658884Y-38605025D01*
X145719709Y-38417826D01*
X145750500Y-38223417D01*
X145750500Y-37776583D01*
X145719709Y-37582174D01*
X145658884Y-37394975D01*
X145569524Y-37219595D01*
X145453828Y-37060354D01*
X145314646Y-36921172D01*
X145314642Y-36921169D01*
X145155410Y-36805479D01*
X145155407Y-36805477D01*
X145155405Y-36805476D01*
X144980025Y-36716116D01*
X144980024Y-36716115D01*
X144980023Y-36716115D01*
X144980017Y-36716113D01*
X144848116Y-36673256D01*
X144792826Y-36655291D01*
X144792824Y-36655290D01*
X144792822Y-36655290D01*
X144598428Y-36624501D01*
X144598419Y-36624500D01*
X144598417Y-36624500D01*
X144401583Y-36624500D01*
X144401580Y-36624500D01*
X144401571Y-36624501D01*
X144207177Y-36655290D01*
X144019982Y-36716113D01*
X144019976Y-36716115D01*
X143939894Y-36756919D01*
X143844595Y-36805476D01*
X143844592Y-36805477D01*
X143844590Y-36805479D01*
X143844589Y-36805479D01*
X143685353Y-36921172D01*
X143573730Y-37032795D01*
X143492948Y-37086771D01*
X143397660Y-37105725D01*
X143302372Y-37086771D01*
X143221591Y-37032794D01*
X143183336Y-36983476D01*
X143118081Y-36873135D01*
X143001865Y-36756919D01*
X142860398Y-36673256D01*
X142702569Y-36627402D01*
X142702566Y-36627401D01*
X142702563Y-36627401D01*
X142665704Y-36624500D01*
X142665694Y-36624500D01*
X141334306Y-36624500D01*
X141334295Y-36624500D01*
X141297436Y-36627401D01*
X141297427Y-36627403D01*
X141139601Y-36673256D01*
X140998135Y-36756919D01*
X140881919Y-36873135D01*
X140798256Y-37014601D01*
X140752403Y-37172427D01*
X140752401Y-37172436D01*
X140749500Y-37209295D01*
X75562041Y-37209295D01*
X75453830Y-37060357D01*
X75453828Y-37060354D01*
X75314646Y-36921172D01*
X75314642Y-36921169D01*
X75155410Y-36805479D01*
X75155407Y-36805477D01*
X75155405Y-36805476D01*
X74980025Y-36716116D01*
X74980024Y-36716115D01*
X74980023Y-36716115D01*
X74980017Y-36716113D01*
X74848116Y-36673256D01*
X74792826Y-36655291D01*
X74792824Y-36655290D01*
X74792822Y-36655290D01*
X74598428Y-36624501D01*
X74598419Y-36624500D01*
X74598417Y-36624500D01*
X74401583Y-36624500D01*
X74401580Y-36624500D01*
X74401571Y-36624501D01*
X74207177Y-36655290D01*
X74019982Y-36716113D01*
X74019976Y-36716115D01*
X73939894Y-36756919D01*
X73844595Y-36805476D01*
X73844592Y-36805477D01*
X73844590Y-36805479D01*
X73844589Y-36805479D01*
X73685353Y-36921172D01*
X73573730Y-37032795D01*
X73492948Y-37086771D01*
X73397660Y-37105725D01*
X73302372Y-37086771D01*
X73221591Y-37032794D01*
X73183336Y-36983476D01*
X73118081Y-36873135D01*
X73001865Y-36756919D01*
X72860398Y-36673256D01*
X72702569Y-36627402D01*
X72702566Y-36627401D01*
X72702563Y-36627401D01*
X72665704Y-36624500D01*
X72665694Y-36624500D01*
X71334306Y-36624500D01*
X71334295Y-36624500D01*
X71297436Y-36627401D01*
X71297427Y-36627403D01*
X71139601Y-36673256D01*
X70998135Y-36756919D01*
X70881919Y-36873135D01*
X70798256Y-37014601D01*
X70752403Y-37172427D01*
X70752401Y-37172436D01*
X70749500Y-37209295D01*
X53562041Y-37209295D01*
X53453830Y-37060357D01*
X53453828Y-37060354D01*
X53314646Y-36921172D01*
X53314642Y-36921169D01*
X53155410Y-36805479D01*
X53155407Y-36805477D01*
X53155405Y-36805476D01*
X52980025Y-36716116D01*
X52980024Y-36716115D01*
X52980023Y-36716115D01*
X52980017Y-36716113D01*
X52848116Y-36673256D01*
X52792826Y-36655291D01*
X52792824Y-36655290D01*
X52792822Y-36655290D01*
X52598428Y-36624501D01*
X52598419Y-36624500D01*
X52598417Y-36624500D01*
X52401583Y-36624500D01*
X52401580Y-36624500D01*
X52401571Y-36624501D01*
X52207177Y-36655290D01*
X52019982Y-36716113D01*
X52019976Y-36716115D01*
X51939894Y-36756919D01*
X51844595Y-36805476D01*
X51844592Y-36805477D01*
X51844590Y-36805479D01*
X51844589Y-36805479D01*
X51685353Y-36921172D01*
X51573730Y-37032795D01*
X51492948Y-37086771D01*
X51397660Y-37105725D01*
X51302372Y-37086771D01*
X51221591Y-37032794D01*
X51183336Y-36983476D01*
X51118081Y-36873135D01*
X51001865Y-36756919D01*
X50860398Y-36673256D01*
X50702569Y-36627402D01*
X50702566Y-36627401D01*
X50702563Y-36627401D01*
X50665704Y-36624500D01*
X50665694Y-36624500D01*
X49334306Y-36624500D01*
X49334295Y-36624500D01*
X49297436Y-36627401D01*
X49297427Y-36627403D01*
X49139601Y-36673256D01*
X48998135Y-36756919D01*
X48881919Y-36873135D01*
X48798256Y-37014601D01*
X48752403Y-37172427D01*
X48752401Y-37172436D01*
X48749500Y-37209295D01*
X37404580Y-37209295D01*
X37541936Y-37030289D01*
X37663224Y-36820212D01*
X37756054Y-36596100D01*
X37818838Y-36361789D01*
X37850500Y-36121288D01*
X37850500Y-35878712D01*
X182149500Y-35878712D01*
X182149500Y-36121287D01*
X182181162Y-36361790D01*
X182181163Y-36361795D01*
X182243940Y-36596082D01*
X182243948Y-36596105D01*
X182336770Y-36820201D01*
X182336778Y-36820217D01*
X182458058Y-37030279D01*
X182458064Y-37030289D01*
X182605729Y-37222731D01*
X182605738Y-37222741D01*
X182777258Y-37394261D01*
X182777268Y-37394270D01*
X182778196Y-37394982D01*
X182969711Y-37541936D01*
X182969720Y-37541941D01*
X183179782Y-37663221D01*
X183179798Y-37663229D01*
X183319858Y-37721242D01*
X183403900Y-37756054D01*
X183403911Y-37756057D01*
X183403917Y-37756059D01*
X183587021Y-37805121D01*
X183638211Y-37818838D01*
X183878712Y-37850500D01*
X184121288Y-37850500D01*
X184361789Y-37818838D01*
X184523275Y-37775567D01*
X184596082Y-37756059D01*
X184596084Y-37756058D01*
X184596100Y-37756054D01*
X184747766Y-37693231D01*
X184820201Y-37663229D01*
X184820206Y-37663226D01*
X184820212Y-37663224D01*
X185030289Y-37541936D01*
X185222738Y-37394265D01*
X185394265Y-37222738D01*
X185541936Y-37030289D01*
X185663224Y-36820212D01*
X185756054Y-36596100D01*
X185818838Y-36361789D01*
X185850500Y-36121288D01*
X185850500Y-35878712D01*
X185818838Y-35638211D01*
X185756054Y-35403900D01*
X185721242Y-35319858D01*
X185663229Y-35179798D01*
X185663221Y-35179782D01*
X185541941Y-34969720D01*
X185541935Y-34969710D01*
X185394270Y-34777268D01*
X185394261Y-34777258D01*
X185222741Y-34605738D01*
X185222731Y-34605729D01*
X185030289Y-34458064D01*
X185030279Y-34458058D01*
X184820217Y-34336778D01*
X184820201Y-34336770D01*
X184596105Y-34243948D01*
X184596103Y-34243947D01*
X184596100Y-34243946D01*
X184596096Y-34243945D01*
X184596082Y-34243940D01*
X184361795Y-34181163D01*
X184361790Y-34181162D01*
X184121288Y-34149500D01*
X183878712Y-34149500D01*
X183638209Y-34181162D01*
X183638204Y-34181163D01*
X183403917Y-34243940D01*
X183403894Y-34243948D01*
X183179798Y-34336770D01*
X183179782Y-34336778D01*
X182969720Y-34458058D01*
X182969710Y-34458064D01*
X182777268Y-34605729D01*
X182777258Y-34605738D01*
X182605738Y-34777258D01*
X182605729Y-34777268D01*
X182458064Y-34969710D01*
X182458058Y-34969720D01*
X182336778Y-35179782D01*
X182336770Y-35179798D01*
X182243948Y-35403894D01*
X182243940Y-35403917D01*
X182181163Y-35638204D01*
X182181162Y-35638209D01*
X182149500Y-35878712D01*
X37850500Y-35878712D01*
X37818838Y-35638211D01*
X37756054Y-35403900D01*
X37721242Y-35319858D01*
X37663229Y-35179798D01*
X37663221Y-35179782D01*
X37541941Y-34969720D01*
X37541935Y-34969710D01*
X37394270Y-34777268D01*
X37394261Y-34777258D01*
X37222741Y-34605738D01*
X37222731Y-34605729D01*
X37030289Y-34458064D01*
X37030279Y-34458058D01*
X36820217Y-34336778D01*
X36820201Y-34336770D01*
X36596105Y-34243948D01*
X36596103Y-34243947D01*
X36596100Y-34243946D01*
X36596096Y-34243945D01*
X36596082Y-34243940D01*
X36361795Y-34181163D01*
X36361790Y-34181162D01*
X36121288Y-34149500D01*
X35878712Y-34149500D01*
X35638209Y-34181162D01*
X35638204Y-34181163D01*
X35403917Y-34243940D01*
X35403894Y-34243948D01*
X35179798Y-34336770D01*
X35179782Y-34336778D01*
X34969720Y-34458058D01*
X34969710Y-34458064D01*
X34777268Y-34605729D01*
X34777258Y-34605738D01*
X34605738Y-34777258D01*
X34605729Y-34777268D01*
X34458064Y-34969710D01*
X34458058Y-34969720D01*
X34336778Y-35179782D01*
X34336770Y-35179798D01*
X34243948Y-35403894D01*
X34243940Y-35403917D01*
X34181163Y-35638204D01*
X34181162Y-35638209D01*
X34149500Y-35878712D01*
X31000000Y-35878712D01*
X31000000Y-31249000D01*
X31018954Y-31153712D01*
X31072930Y-31072930D01*
X31153712Y-31018954D01*
X31249000Y-31000000D01*
X188751000Y-31000000D01*
X188846288Y-31018954D01*
G37*
%TD.AperFunction*%
%TD*%
M02*
