%TF.GenerationSoftware,KiCad,Pcbnew,10.0.5*%
%TF.CreationDate,2026-08-05T00:31:14-05:00*%
%TF.ProjectId,ext-tank-routing,6578742d-7461-46e6-9b2d-726f7574696e,rev?*%
%TF.SameCoordinates,Original*%
%TF.FileFunction,Copper,L1,Top*%
%TF.FilePolarity,Positive*%
%FSLAX46Y46*%
G04 Gerber Fmt 4.6, Leading zero omitted, Abs format (unit mm)*
G04 Created by KiCad (PCBNEW 10.0.5) date 2026-08-05 00:31:14*
%MOMM*%
%LPD*%
G01*
G04 APERTURE LIST*
G04 Aperture macros list*
%AMRoundRect*
0 Rectangle with rounded corners*
0 $1 Rounding radius*
0 $2 $3 $4 $5 $6 $7 $8 $9 X,Y pos of 4 corners*
0 Add a 4 corners polygon primitive as box body*
4,1,4,$2,$3,$4,$5,$6,$7,$8,$9,$2,$3,0*
0 Add four circle primitives for the rounded corners*
1,1,$1+$1,$2,$3*
1,1,$1+$1,$4,$5*
1,1,$1+$1,$6,$7*
1,1,$1+$1,$8,$9*
0 Add four rect primitives between the rounded corners*
20,1,$1+$1,$2,$3,$4,$5,0*
20,1,$1+$1,$4,$5,$6,$7,0*
20,1,$1+$1,$6,$7,$8,$9,0*
20,1,$1+$1,$8,$9,$2,$3,0*%
G04 Aperture macros list end*
%TA.AperFunction,SMDPad,CuDef*%
%ADD10RoundRect,0.200000X-0.200000X-0.275000X0.200000X-0.275000X0.200000X0.275000X-0.200000X0.275000X0*%
%TD*%
%TA.AperFunction,SMDPad,CuDef*%
%ADD11RoundRect,0.150000X-0.825000X-0.150000X0.825000X-0.150000X0.825000X0.150000X-0.825000X0.150000X0*%
%TD*%
%TA.AperFunction,SMDPad,CuDef*%
%ADD12RoundRect,0.225000X-0.225000X-0.250000X0.225000X-0.250000X0.225000X0.250000X-0.225000X0.250000X0*%
%TD*%
%TA.AperFunction,ComponentPad*%
%ADD13RoundRect,0.250000X-0.600000X-0.725000X0.600000X-0.725000X0.600000X0.725000X-0.600000X0.725000X0*%
%TD*%
%TA.AperFunction,ComponentPad*%
%ADD14O,1.700000X1.950000*%
%TD*%
%TA.AperFunction,SMDPad,CuDef*%
%ADD15RoundRect,0.225000X-0.225000X-0.375000X0.225000X-0.375000X0.225000X0.375000X-0.225000X0.375000X0*%
%TD*%
%TA.AperFunction,ComponentPad*%
%ADD16C,1.500000*%
%TD*%
%TA.AperFunction,ComponentPad*%
%ADD17R,1.500000X1.500000*%
%TD*%
%TA.AperFunction,SMDPad,CuDef*%
%ADD18RoundRect,0.250000X-1.250000X-0.550000X1.250000X-0.550000X1.250000X0.550000X-1.250000X0.550000X0*%
%TD*%
%TA.AperFunction,ComponentPad*%
%ADD19RoundRect,0.250001X-1.099999X-1.099999X1.099999X-1.099999X1.099999X1.099999X-1.099999X1.099999X0*%
%TD*%
%TA.AperFunction,ComponentPad*%
%ADD20C,2.700000*%
%TD*%
%TA.AperFunction,ViaPad*%
%ADD21C,0.600000*%
%TD*%
%TA.AperFunction,Conductor*%
%ADD22C,0.200000*%
%TD*%
G04 APERTURE END LIST*
D10*
%TO.P,R226,1*%
%TO.N,U201D_OUT*%
X15175000Y-62000000D03*
%TO.P,R226,2*%
%TO.N,SEC_SEND_R*%
X16825000Y-62000000D03*
%TD*%
D11*
%TO.P,U201,1*%
%TO.N,U201A_OUT*%
X99288100Y-24914700D03*
%TO.P,U201,2*%
%TO.N,U201A_M*%
X99288100Y-26184700D03*
%TO.P,U201,3*%
%TO.N,AGND*%
X99288100Y-27454700D03*
%TO.P,U201,4*%
%TO.N,+15VA*%
X99288100Y-28724700D03*
%TO.P,U201,5*%
%TO.N,AGND*%
X99288100Y-29994700D03*
%TO.P,U201,6*%
%TO.N,U201B_M*%
X99288100Y-31264700D03*
%TO.P,U201,7*%
%TO.N,U201B_OUT*%
X99288100Y-32534700D03*
%TO.P,U201,8*%
%TO.N,U201C_OUT*%
X104238100Y-32534700D03*
%TO.P,U201,9*%
X104238100Y-31264700D03*
%TO.P,U201,10*%
%TO.N,SEC_DRV_L*%
X104238100Y-29994700D03*
%TO.P,U201,11*%
%TO.N,-15VA*%
X104238100Y-28724700D03*
%TO.P,U201,12*%
%TO.N,SEC_DRV_R*%
X104238100Y-27454700D03*
%TO.P,U201,13*%
%TO.N,U201D_OUT*%
X104238100Y-26184700D03*
%TO.P,U201,14*%
X104238100Y-24914700D03*
%TD*%
D12*
%TO.P,C295,1*%
%TO.N,+5VAUX*%
X45225000Y-62000000D03*
%TO.P,C295,2*%
%TO.N,AGND*%
X46775000Y-62000000D03*
%TD*%
D13*
%TO.P,P202,1*%
%TO.N,PRI_SEND_L*%
X41425000Y-11398200D03*
D14*
%TO.P,P202,2*%
%TO.N,PRI_RET_L*%
X43925000Y-11398200D03*
%TO.P,P202,3*%
%TO.N,AGND*%
X46425000Y-11398200D03*
%TO.P,P202,4*%
%TO.N,PRI_SEND_R*%
X48925000Y-11398200D03*
%TO.P,P202,5*%
%TO.N,PRI_RET_R*%
X51425000Y-11398200D03*
%TO.P,P202,6*%
%TO.N,AGND*%
X53925000Y-11398200D03*
%TD*%
D10*
%TO.P,R224,1*%
%TO.N,FB_RET_R*%
X75175000Y-56000000D03*
%TO.P,R224,2*%
%TO.N,U201B_M*%
X76825000Y-56000000D03*
%TD*%
%TO.P,R201,1*%
%TO.N,PR_DRV_IN*%
X9175000Y-56000000D03*
%TO.P,R201,2*%
%TO.N,AGND*%
X10825000Y-56000000D03*
%TD*%
D12*
%TO.P,C291,1*%
%TO.N,+15VA*%
X33225000Y-62000000D03*
%TO.P,C291,2*%
%TO.N,AGND*%
X34775000Y-62000000D03*
%TD*%
D10*
%TO.P,R222,1*%
%TO.N,PRI_RET_R*%
X63175000Y-56000000D03*
%TO.P,R222,2*%
%TO.N,U201B_M*%
X64825000Y-56000000D03*
%TD*%
%TO.P,R204,1*%
%TO.N,PR_BIAS_B*%
X27175000Y-56000000D03*
%TO.P,R204,2*%
%TO.N,-15VA*%
X28825000Y-56000000D03*
%TD*%
D13*
%TO.P,P203,1*%
%TO.N,SEC_SEND_L*%
X62875000Y-11398200D03*
D14*
%TO.P,P203,2*%
%TO.N,SEC_RET_L*%
X65375000Y-11398200D03*
%TO.P,P203,3*%
%TO.N,AGND*%
X67875000Y-11398200D03*
%TO.P,P203,4*%
%TO.N,SEC_SEND_R*%
X70375000Y-11398200D03*
%TO.P,P203,5*%
%TO.N,SEC_RET_R*%
X72875000Y-11398200D03*
%TO.P,P203,6*%
%TO.N,AGND*%
X75375000Y-11398200D03*
%TD*%
D13*
%TO.P,P201,1*%
%TO.N,WET_SEND_L*%
X104600000Y-11398200D03*
D14*
%TO.P,P201,2*%
%TO.N,AGND*%
X107100000Y-11398200D03*
%TO.P,P201,3*%
%TO.N,WET_SEND_R*%
X109600000Y-11398200D03*
%TD*%
D13*
%TO.P,P206,1*%
%TO.N,EXTMIX_L_HI*%
X9975000Y-11398200D03*
D14*
%TO.P,P206,2*%
%TO.N,EXTMIX_L_WIPER*%
X12475000Y-11398200D03*
%TO.P,P206,3*%
%TO.N,AGND*%
X14975000Y-11398200D03*
%TO.P,P206,4*%
%TO.N,EXTMIX_R_HI*%
X17475000Y-11398200D03*
%TO.P,P206,5*%
%TO.N,EXTMIX_R_WIPER*%
X19975000Y-11398200D03*
%TO.P,P206,6*%
%TO.N,AGND*%
X22475000Y-11398200D03*
%TO.P,P206,7*%
%TO.N,+5VAUX*%
X24975000Y-11398200D03*
%TO.P,P206,8*%
%TO.N,AGND*%
X27475000Y-11398200D03*
%TO.P,P206,9*%
%TO.N,CTL_EXT_MODE_A*%
X29975000Y-11398200D03*
%TO.P,P206,10*%
%TO.N,CTL_EXT_MODE_B*%
X32475000Y-11398200D03*
%TD*%
D10*
%TO.P,R229,1*%
%TO.N,U201B_OUT*%
X21175000Y-62000000D03*
%TO.P,R229,2*%
%TO.N,U201B_M*%
X22825000Y-62000000D03*
%TD*%
D15*
%TO.P,D264,1*%
%TO.N,CTL_EXT_MODE_A*%
X110350000Y-46000000D03*
%TO.P,D264,2*%
%TO.N,AGND*%
X113650000Y-46000000D03*
%TD*%
D16*
%TO.P,K202,11*%
%TO.N,SEC_SEL_R*%
X43080000Y-44000000D03*
%TO.P,K202,12*%
%TO.N,PRI_RET_R*%
X40540000Y-44000000D03*
%TO.P,K202,14*%
%TO.N,WET_SEND_R*%
X45620000Y-44000000D03*
%TO.P,K202,21*%
%TO.N,N/C*%
X43080000Y-36380000D03*
%TO.P,K202,22*%
X40540000Y-36380000D03*
%TO.P,K202,24*%
X45620000Y-36380000D03*
D17*
%TO.P,K202,A1*%
%TO.N,CTL_EXT_MODE_B*%
X38000000Y-44000000D03*
D16*
%TO.P,K202,A2*%
%TO.N,AGND*%
X38000000Y-36380000D03*
%TO.P,K202,MP1*%
%TO.N,N/C*%
X48160000Y-44000000D03*
%TO.P,K202,MP2*%
X48160000Y-36380000D03*
%TD*%
%TO.P,K201,11*%
%TO.N,SEC_SEL_L*%
X19080000Y-44000000D03*
%TO.P,K201,12*%
%TO.N,PRI_RET_L*%
X16540000Y-44000000D03*
%TO.P,K201,14*%
%TO.N,WET_SEND_L*%
X21620000Y-44000000D03*
%TO.P,K201,21*%
%TO.N,N/C*%
X19080000Y-36380000D03*
%TO.P,K201,22*%
X16540000Y-36380000D03*
%TO.P,K201,24*%
X21620000Y-36380000D03*
D17*
%TO.P,K201,A1*%
%TO.N,CTL_EXT_MODE_B*%
X14000000Y-44000000D03*
D16*
%TO.P,K201,A2*%
%TO.N,AGND*%
X14000000Y-36380000D03*
%TO.P,K201,MP1*%
%TO.N,N/C*%
X24160000Y-44000000D03*
%TO.P,K201,MP2*%
X24160000Y-36380000D03*
%TD*%
D12*
%TO.P,C292,1*%
%TO.N,-15VA*%
X39225000Y-62000000D03*
%TO.P,C292,2*%
%TO.N,AGND*%
X40775000Y-62000000D03*
%TD*%
D10*
%TO.P,R203,1*%
%TO.N,+15VA*%
X21175000Y-56000000D03*
%TO.P,R203,2*%
%TO.N,PR_BIAS_A*%
X22825000Y-56000000D03*
%TD*%
%TO.P,R231,1*%
%TO.N,SEC_DRV_R*%
X27175000Y-62000000D03*
%TO.P,R231,2*%
%TO.N,AGND*%
X28825000Y-62000000D03*
%TD*%
D16*
%TO.P,K204,11*%
%TO.N,SEC_DRV_R*%
X91080000Y-44000000D03*
%TO.P,K204,12*%
%TO.N,AGND*%
X88540000Y-44000000D03*
%TO.P,K204,14*%
%TO.N,SEC_SEL_R*%
X93620000Y-44000000D03*
%TO.P,K204,21*%
%TO.N,EXTMIX_R_HI*%
X91080000Y-36380000D03*
%TO.P,K204,22*%
%TO.N,AGND*%
X88540000Y-36380000D03*
%TO.P,K204,24*%
%TO.N,SEC_RET_R*%
X93620000Y-36380000D03*
D17*
%TO.P,K204,A1*%
%TO.N,CTL_EXT_MODE_A*%
X86000000Y-44000000D03*
D16*
%TO.P,K204,A2*%
%TO.N,AGND*%
X86000000Y-36380000D03*
%TO.P,K204,MP1*%
%TO.N,N/C*%
X96160000Y-44000000D03*
%TO.P,K204,MP2*%
X96160000Y-36380000D03*
%TD*%
D18*
%TO.P,C293,1*%
%TO.N,+15VA*%
X59800000Y-63000000D03*
%TO.P,C293,2*%
%TO.N,AGND*%
X64200000Y-63000000D03*
%TD*%
D10*
%TO.P,R209,1*%
%TO.N,PR_TANK*%
X45175000Y-56000000D03*
%TO.P,R209,2*%
%TO.N,PR_DRV_FB*%
X46825000Y-56000000D03*
%TD*%
D13*
%TO.P,P204,1*%
%TO.N,TANK_MIX_L*%
X9975000Y-26994700D03*
D14*
%TO.P,P204,2*%
%TO.N,AGND*%
X12475000Y-26994700D03*
%TO.P,P204,3*%
%TO.N,TANK_MIX_R*%
X14975000Y-26994700D03*
%TD*%
D10*
%TO.P,R206,1*%
%TO.N,PR_BIAS_B*%
X39175000Y-56000000D03*
%TO.P,R206,2*%
%TO.N,PR_Q104_B*%
X40825000Y-56000000D03*
%TD*%
D15*
%TO.P,D262,1*%
%TO.N,CTL_EXT_MODE_B*%
X110350000Y-40000000D03*
%TO.P,D262,2*%
%TO.N,AGND*%
X113650000Y-40000000D03*
%TD*%
D10*
%TO.P,R205,1*%
%TO.N,PR_BIAS_A*%
X33175000Y-56000000D03*
%TO.P,R205,2*%
%TO.N,PR_Q103_B*%
X34825000Y-56000000D03*
%TD*%
D13*
%TO.P,P205,1*%
%TO.N,FB_RET_L*%
X23925000Y-26994700D03*
D14*
%TO.P,P205,2*%
%TO.N,AGND*%
X26425000Y-26994700D03*
%TO.P,P205,3*%
%TO.N,FB_RET_R*%
X28925000Y-26994700D03*
%TD*%
D18*
%TO.P,C296,1*%
%TO.N,+5VAUX*%
X79800000Y-63000000D03*
%TO.P,C296,2*%
%TO.N,AGND*%
X84200000Y-63000000D03*
%TD*%
D19*
%TO.P,P207,1*%
%TO.N,+15VA*%
X84270000Y-12748200D03*
D20*
%TO.P,P207,2*%
%TO.N,AGND*%
X88230000Y-12748200D03*
%TO.P,P207,3*%
%TO.N,-15VA*%
X92190000Y-12748200D03*
%TO.P,P207,4*%
%TO.N,+5VAUX*%
X96150000Y-12748200D03*
%TD*%
D18*
%TO.P,C294,1*%
%TO.N,-15VA*%
X69800000Y-63000000D03*
%TO.P,C294,2*%
%TO.N,AGND*%
X74200000Y-63000000D03*
%TD*%
D10*
%TO.P,R211,1*%
%TO.N,PR_REC_IN*%
X51175000Y-56000000D03*
%TO.P,R211,2*%
%TO.N,AGND*%
X52825000Y-56000000D03*
%TD*%
D15*
%TO.P,D263,1*%
%TO.N,CTL_EXT_MODE_A*%
X104350000Y-46000000D03*
%TO.P,D263,2*%
%TO.N,AGND*%
X107650000Y-46000000D03*
%TD*%
D10*
%TO.P,R221,1*%
%TO.N,WET_SEND_R*%
X57175000Y-56000000D03*
%TO.P,R221,2*%
%TO.N,PRI_SEND_R*%
X58825000Y-56000000D03*
%TD*%
%TO.P,R225,1*%
%TO.N,U201B_OUT*%
X9175000Y-62000000D03*
%TO.P,R225,2*%
%TO.N,TANK_MIX_R*%
X10825000Y-62000000D03*
%TD*%
D16*
%TO.P,K203,11*%
%TO.N,SEC_DRV_L*%
X67080000Y-44000000D03*
%TO.P,K203,12*%
%TO.N,AGND*%
X64540000Y-44000000D03*
%TO.P,K203,14*%
%TO.N,SEC_SEL_L*%
X69620000Y-44000000D03*
%TO.P,K203,21*%
%TO.N,EXTMIX_L_HI*%
X67080000Y-36380000D03*
%TO.P,K203,22*%
%TO.N,AGND*%
X64540000Y-36380000D03*
%TO.P,K203,24*%
%TO.N,SEC_RET_L*%
X69620000Y-36380000D03*
D17*
%TO.P,K203,A1*%
%TO.N,CTL_EXT_MODE_A*%
X62000000Y-44000000D03*
D16*
%TO.P,K203,A2*%
%TO.N,AGND*%
X62000000Y-36380000D03*
%TO.P,K203,MP1*%
%TO.N,N/C*%
X72160000Y-44000000D03*
%TO.P,K203,MP2*%
X72160000Y-36380000D03*
%TD*%
D10*
%TO.P,R223,1*%
%TO.N,EXTMIX_R_WIPER*%
X69175000Y-56000000D03*
%TO.P,R223,2*%
%TO.N,U201B_M*%
X70825000Y-56000000D03*
%TD*%
%TO.P,R202,1*%
%TO.N,PR_DRV_OUT*%
X15175000Y-56000000D03*
%TO.P,R202,2*%
%TO.N,PR_BIAS_MID*%
X16825000Y-56000000D03*
%TD*%
D15*
%TO.P,D261,1*%
%TO.N,CTL_EXT_MODE_B*%
X104350000Y-40000000D03*
%TO.P,D261,2*%
%TO.N,AGND*%
X107650000Y-40000000D03*
%TD*%
D21*
%TO.N,U201D_OUT*%
X48274700Y-65084400D03*
X71690300Y-38121900D03*
%TO.N,SEC_SEND_R*%
X60001900Y-64820800D03*
%TO.N,+15VA*%
X76750700Y-20068100D03*
X62083500Y-63039300D03*
%TO.N,U201B_M*%
X97481000Y-30918600D03*
X89319900Y-47144200D03*
%TO.N,SEC_DRV_L*%
X70890000Y-36482100D03*
%TO.N,-15VA*%
X31581300Y-56205500D03*
X72000100Y-63157600D03*
X33615700Y-59203600D03*
%TO.N,SEC_DRV_R*%
X101282100Y-28252700D03*
X62166400Y-64293600D03*
%TO.N,+5VAUX*%
X77592700Y-60753100D03*
%TO.N,PRI_RET_L*%
X38325500Y-45330700D03*
%TO.N,PRI_SEND_R*%
X58134000Y-54966900D03*
%TO.N,FB_RET_R*%
X60966300Y-49894500D03*
X54189600Y-36536700D03*
%TO.N,WET_SEND_L*%
X24690600Y-9616800D03*
%TO.N,WET_SEND_R*%
X95384500Y-46762800D03*
%TO.N,EXTMIX_R_HI*%
X82859000Y-30066400D03*
%TO.N,EXTMIX_R_WIPER*%
X58202700Y-53033100D03*
%TO.N,CTL_EXT_MODE_B*%
X36548800Y-41859300D03*
%TO.N,TANK_MIX_R*%
X13093100Y-60792400D03*
%TD*%
%TO.N,U201D_OUT*%
D22*
X81847800Y-38121900D02*
X71690300Y-38121900D01*
X99412000Y-34471200D02*
X85498500Y-34471200D01*
X105946000Y-27487200D02*
X105946000Y-29959600D01*
X105946000Y-29959600D02*
X105275900Y-30629700D01*
X105275900Y-30629700D02*
X103253500Y-30629700D01*
X104238100Y-26184700D02*
X104643500Y-26184700D01*
X103253500Y-30629700D02*
X99412000Y-34471200D01*
X104643500Y-26184700D02*
X105946000Y-27487200D01*
X104238100Y-24914700D02*
X104238100Y-26184700D01*
X48274700Y-65084400D02*
X18259400Y-65084400D01*
X18259400Y-65084400D02*
X15175000Y-62000000D01*
X85498500Y-34471200D02*
X81847800Y-38121900D01*
%TO.N,SEC_SEND_R*%
X60001900Y-64820800D02*
X48862000Y-64820800D01*
X48523900Y-64482700D02*
X19307700Y-64482700D01*
X19307700Y-64482700D02*
X16825000Y-62000000D01*
X48862000Y-64820800D02*
X48523900Y-64482700D01*
%TO.N,+15VA*%
X32406000Y-61181000D02*
X24829700Y-61181000D01*
X33225000Y-62000000D02*
X34433400Y-63208400D01*
X23209900Y-62800800D02*
X20769000Y-62800800D01*
X24829700Y-61181000D02*
X23209900Y-62800800D01*
X84270000Y-17164300D02*
X79654500Y-17164300D01*
X79654500Y-17164300D02*
X76750700Y-20068100D01*
X33225000Y-62000000D02*
X32406000Y-61181000D01*
X59591600Y-63208400D02*
X59800000Y-63000000D01*
X20438600Y-56736400D02*
X21175000Y-56000000D01*
X95830400Y-28724700D02*
X84270000Y-17164300D01*
X99288100Y-28724700D02*
X95830400Y-28724700D01*
X62083500Y-63039300D02*
X59839300Y-63039300D01*
X84270000Y-12748200D02*
X84270000Y-17164300D01*
X59839300Y-63039300D02*
X59800000Y-63000000D01*
X20769000Y-62800800D02*
X20438600Y-62470400D01*
X20438600Y-62470400D02*
X20438600Y-56736400D01*
X34433400Y-63208400D02*
X59591600Y-63208400D01*
%TO.N,U201B_M*%
X71651900Y-56826900D02*
X75998100Y-56826900D01*
X25825000Y-59000000D02*
X22825000Y-62000000D01*
X97827100Y-31264700D02*
X97481000Y-30918600D01*
X99288100Y-31264700D02*
X97827100Y-31264700D01*
X65603500Y-56778500D02*
X64825000Y-56000000D01*
X32968600Y-58999900D02*
X32968600Y-59000000D01*
X70825000Y-56000000D02*
X70046500Y-56778500D01*
X75998100Y-56826900D02*
X76825000Y-56000000D01*
X32968600Y-59000000D02*
X25825000Y-59000000D01*
X62223100Y-58601900D02*
X33366600Y-58601900D01*
X80464100Y-56000000D02*
X76825000Y-56000000D01*
X33366600Y-58601900D02*
X32968600Y-58999900D01*
X89319900Y-47144200D02*
X80464100Y-56000000D01*
X64825000Y-56000000D02*
X62223100Y-58601900D01*
X70046500Y-56778500D02*
X65603500Y-56778500D01*
X70825000Y-56000000D02*
X71651900Y-56826900D01*
%TO.N,U201B_OUT*%
X35891500Y-42106300D02*
X36466100Y-42680900D01*
X21651100Y-55217800D02*
X22000000Y-55566700D01*
X36466100Y-42680900D02*
X38644500Y-42680900D01*
X39071700Y-45435400D02*
X38574700Y-45932400D01*
X14397500Y-56777500D02*
X17233200Y-56777500D01*
X17233200Y-56777500D02*
X18792900Y-55217800D01*
X99288100Y-32534700D02*
X85247000Y-32534700D01*
X18792900Y-55217800D02*
X21651100Y-55217800D01*
X22000000Y-61175000D02*
X21175000Y-62000000D01*
X39071700Y-43108100D02*
X39071700Y-45435400D01*
X85247000Y-32534700D02*
X80261500Y-37520200D01*
X22000000Y-55566700D02*
X22000000Y-61175000D01*
X31634300Y-45932400D02*
X22000000Y-55566700D01*
X38574700Y-45932400D02*
X31634300Y-45932400D01*
X9175000Y-62000000D02*
X14397500Y-56777500D01*
X40025900Y-37520200D02*
X35891500Y-41654600D01*
X35891500Y-41654600D02*
X35891500Y-42106300D01*
X38644500Y-42680900D02*
X39071700Y-43108100D01*
X80261500Y-37520200D02*
X40025900Y-37520200D01*
%TO.N,U201C_OUT*%
X104238100Y-31264700D02*
X104238100Y-32534700D01*
%TO.N,SEC_DRV_L*%
X104238100Y-29994700D02*
X102946800Y-29994700D01*
X70890000Y-36122100D02*
X70890000Y-36482100D01*
X102946800Y-29994700D02*
X101013000Y-31928500D01*
X75083600Y-31928500D02*
X70890000Y-36122100D01*
X101013000Y-31928500D02*
X75083600Y-31928500D01*
%TO.N,-15VA*%
X53835900Y-61887600D02*
X52923500Y-62800000D01*
X40025000Y-62800000D02*
X39225000Y-62000000D01*
X36412100Y-62000000D02*
X33615700Y-59203600D01*
X68687600Y-61887600D02*
X53835900Y-61887600D01*
X69957600Y-63157600D02*
X69800000Y-63000000D01*
X103839400Y-28724700D02*
X101763100Y-26648400D01*
X101763100Y-26648400D02*
X101763100Y-22321300D01*
X39225000Y-62000000D02*
X36412100Y-62000000D01*
X52923500Y-62800000D02*
X40025000Y-62800000D01*
X29030500Y-56205500D02*
X28825000Y-56000000D01*
X104238100Y-28724700D02*
X103839400Y-28724700D01*
X69800000Y-63000000D02*
X68687600Y-61887600D01*
X101763100Y-22321300D02*
X92190000Y-12748200D01*
X72000100Y-63157600D02*
X69957600Y-63157600D01*
X31581300Y-56205500D02*
X29030500Y-56205500D01*
%TO.N,SEC_DRV_R*%
X48690200Y-64081000D02*
X29256000Y-64081000D01*
X29256000Y-64081000D02*
X27175000Y-62000000D01*
X104238100Y-27454700D02*
X104644600Y-27454700D01*
X62091900Y-64219100D02*
X48828300Y-64219100D01*
X105541700Y-28351800D02*
X105541700Y-29053000D01*
X104644600Y-27454700D02*
X105541700Y-28351800D01*
X105541700Y-29053000D02*
X105235000Y-29359700D01*
X62166400Y-64293600D02*
X62091900Y-64219100D01*
X48828300Y-64219100D02*
X48690200Y-64081000D01*
X105235000Y-29359700D02*
X102389100Y-29359700D01*
X102389100Y-29359700D02*
X101282100Y-28252700D01*
%TO.N,+5VAUX*%
X96150000Y-12748200D02*
X93513100Y-10111300D01*
X46019100Y-61205900D02*
X45225000Y-62000000D01*
X77592700Y-61205900D02*
X46019100Y-61205900D01*
X24975000Y-11398200D02*
X26126700Y-11398200D01*
X26126700Y-10946500D02*
X26126700Y-11398200D01*
X77592700Y-60753100D02*
X77592700Y-61205900D01*
X78005900Y-61205900D02*
X77592700Y-61205900D01*
X93513100Y-10111300D02*
X26961900Y-10111300D01*
X26961900Y-10111300D02*
X26126700Y-10946500D01*
X79800000Y-63000000D02*
X78005900Y-61205900D01*
%TO.N,PRI_RET_L*%
X17870700Y-45330700D02*
X38325500Y-45330700D01*
X16540000Y-44000000D02*
X17870700Y-45330700D01*
%TO.N,PRI_SEND_R*%
X58825000Y-56000000D02*
X58825000Y-55657900D01*
X58825000Y-55657900D02*
X58134000Y-54966900D01*
%TO.N,PRI_RET_R*%
X42059800Y-45519800D02*
X40540000Y-44000000D01*
X45473900Y-45519800D02*
X42059800Y-45519800D01*
X59068100Y-56793400D02*
X59066600Y-56794900D01*
X62381600Y-56793400D02*
X59068100Y-56793400D01*
X56749000Y-56794900D02*
X45473900Y-45519800D01*
X63175000Y-56000000D02*
X62381600Y-56793400D01*
X59066600Y-56794900D02*
X56749000Y-56794900D01*
%TO.N,FB_RET_R*%
X69069500Y-49894500D02*
X75175000Y-56000000D01*
X60966300Y-49894500D02*
X69069500Y-49894500D01*
X44647600Y-26994700D02*
X54189600Y-36536700D01*
X28925000Y-26994700D02*
X44647600Y-26994700D01*
%TO.N,PR_BIAS_B*%
X38346300Y-56828700D02*
X28003700Y-56828700D01*
X28003700Y-56828700D02*
X27175000Y-56000000D01*
X39175000Y-56000000D02*
X38346300Y-56828700D01*
%TO.N,WET_SEND_L*%
X102818600Y-9616800D02*
X104600000Y-11398200D01*
X24690600Y-9616800D02*
X102818600Y-9616800D01*
%TO.N,WET_SEND_R*%
X54455000Y-52835000D02*
X57175000Y-52835000D01*
X57175000Y-52835000D02*
X57175000Y-56000000D01*
X63467500Y-46542500D02*
X57175000Y-52835000D01*
X95384500Y-46762800D02*
X95164200Y-46542500D01*
X45620000Y-44000000D02*
X54455000Y-52835000D01*
X95164200Y-46542500D02*
X63467500Y-46542500D01*
%TO.N,EXTMIX_L_HI*%
X16423400Y-17846600D02*
X9975000Y-11398200D01*
X48546600Y-17846600D02*
X16423400Y-17846600D01*
X67080000Y-36380000D02*
X48546600Y-17846600D01*
%TO.N,EXTMIX_R_HI*%
X66629900Y-13837300D02*
X20614100Y-13837300D01*
X20614100Y-13837300D02*
X18626700Y-11849900D01*
X17475000Y-11398200D02*
X18626700Y-11398200D01*
X82859000Y-30066400D02*
X66629900Y-13837300D01*
X18626700Y-11849900D02*
X18626700Y-11398200D01*
%TO.N,EXTMIX_R_WIPER*%
X58202700Y-53033100D02*
X66208100Y-53033100D01*
X66208100Y-53033100D02*
X69175000Y-56000000D01*
%TO.N,CTL_EXT_MODE_A*%
X63051700Y-44000000D02*
X64505100Y-45453400D01*
X109421400Y-45071400D02*
X110350000Y-46000000D01*
X86000000Y-44000000D02*
X87051700Y-44000000D01*
X105278600Y-45071400D02*
X109421400Y-45071400D01*
X89051700Y-46000000D02*
X104350000Y-46000000D01*
X104350000Y-46000000D02*
X105278600Y-45071400D01*
X62000000Y-44000000D02*
X63051700Y-44000000D01*
X64505100Y-45453400D02*
X83494900Y-45453400D01*
X86000000Y-44000000D02*
X84948300Y-44000000D01*
X83494900Y-45453400D02*
X84948300Y-44000000D01*
X87051700Y-44000000D02*
X89051700Y-46000000D01*
%TO.N,CTL_EXT_MODE_B*%
X38000000Y-44000000D02*
X36948300Y-44000000D01*
X15051700Y-44000000D02*
X16103400Y-42948300D01*
X104350000Y-40000000D02*
X38408100Y-40000000D01*
X16103400Y-42948300D02*
X35896600Y-42948300D01*
X105295400Y-40945400D02*
X109404600Y-40945400D01*
X14000000Y-44000000D02*
X15051700Y-44000000D01*
X35896600Y-42948300D02*
X36948300Y-44000000D01*
X104350000Y-40000000D02*
X105295400Y-40945400D01*
X109404600Y-40945400D02*
X110350000Y-40000000D01*
X38408100Y-40000000D02*
X36548800Y-41859300D01*
%TO.N,SEC_SEL_R*%
X71108300Y-43964500D02*
X71108300Y-44435600D01*
X72595700Y-45051700D02*
X74721300Y-42926100D01*
X92546100Y-42926100D02*
X93620000Y-44000000D01*
X70080800Y-42937000D02*
X71108300Y-43964500D01*
X71108300Y-44435600D02*
X71724400Y-45051700D01*
X71724400Y-45051700D02*
X72595700Y-45051700D01*
X44143000Y-42937000D02*
X70080800Y-42937000D01*
X74721300Y-42926100D02*
X92546100Y-42926100D01*
X43080000Y-44000000D02*
X44143000Y-42937000D01*
%TO.N,PR_BIAS_A*%
X23613500Y-55211500D02*
X32386500Y-55211500D01*
X32386500Y-55211500D02*
X33175000Y-56000000D01*
X22825000Y-56000000D02*
X23613500Y-55211500D01*
%TO.N,TANK_MIX_R*%
X12032600Y-60792400D02*
X10825000Y-62000000D01*
X13093100Y-60792400D02*
X12032600Y-60792400D01*
%TD*%
%TA.AperFunction,Conductor*%
%TO.N,AGND*%
G36*
X32257290Y-61600407D02*
G01*
X32269103Y-61610496D01*
X32445504Y-61786897D01*
X32473281Y-61841414D01*
X32474500Y-61856901D01*
X32474500Y-62291148D01*
X32484641Y-62375591D01*
X32537634Y-62509972D01*
X32537635Y-62509974D01*
X32537636Y-62509975D01*
X32624922Y-62625078D01*
X32740025Y-62712364D01*
X32740026Y-62712364D01*
X32740027Y-62712365D01*
X32807217Y-62738861D01*
X32874410Y-62765359D01*
X32958856Y-62775500D01*
X33393099Y-62775500D01*
X33451290Y-62794407D01*
X33463103Y-62804496D01*
X33832613Y-63174005D01*
X34112918Y-63454310D01*
X34112920Y-63454313D01*
X34170105Y-63511498D01*
X34197881Y-63566013D01*
X34188310Y-63626445D01*
X34145045Y-63669710D01*
X34100100Y-63680500D01*
X29462901Y-63680500D01*
X29404710Y-63661593D01*
X29392897Y-63651504D01*
X27904495Y-62163102D01*
X27876718Y-62108585D01*
X27875499Y-62093098D01*
X27875499Y-61680500D01*
X27894406Y-61622309D01*
X27943906Y-61586345D01*
X27974499Y-61581500D01*
X32199099Y-61581500D01*
X32257290Y-61600407D01*
G37*
%TD.AperFunction*%
%TA.AperFunction,Conductor*%
G36*
X33037016Y-59419407D02*
G01*
X33064560Y-59449998D01*
X33135180Y-59572316D01*
X33246984Y-59684120D01*
X33383916Y-59763177D01*
X33536643Y-59804100D01*
X33608799Y-59804100D01*
X33666990Y-59823007D01*
X33678803Y-59833096D01*
X36166187Y-62320480D01*
X36166189Y-62320481D01*
X36166190Y-62320482D01*
X36166191Y-62320483D01*
X36257508Y-62373205D01*
X36257506Y-62373205D01*
X36257510Y-62373206D01*
X36257512Y-62373207D01*
X36359373Y-62400500D01*
X38427085Y-62400500D01*
X38485276Y-62419407D01*
X38519182Y-62463181D01*
X38537634Y-62509971D01*
X38537636Y-62509975D01*
X38624922Y-62625078D01*
X38624925Y-62625080D01*
X38631434Y-62630016D01*
X38666376Y-62680242D01*
X38665123Y-62741415D01*
X38628153Y-62790168D01*
X38571615Y-62807900D01*
X34640300Y-62807900D01*
X34582109Y-62788993D01*
X34570296Y-62778904D01*
X34004496Y-62213103D01*
X33976719Y-62158586D01*
X33975500Y-62143099D01*
X33975500Y-61708857D01*
X33975499Y-61708851D01*
X33965359Y-61624410D01*
X33912364Y-61490025D01*
X33825078Y-61374922D01*
X33709975Y-61287636D01*
X33709974Y-61287635D01*
X33709972Y-61287634D01*
X33575591Y-61234641D01*
X33491148Y-61224500D01*
X33491144Y-61224500D01*
X33056901Y-61224500D01*
X32998710Y-61205593D01*
X32986898Y-61195504D01*
X32651913Y-60860520D01*
X32651908Y-60860516D01*
X32560591Y-60807794D01*
X32560593Y-60807794D01*
X32510682Y-60794421D01*
X32458727Y-60780500D01*
X24882427Y-60780500D01*
X24849900Y-60780500D01*
X24791709Y-60761593D01*
X24755745Y-60712093D01*
X24755745Y-60650907D01*
X24779896Y-60611496D01*
X25961896Y-59429496D01*
X26016413Y-59401719D01*
X26031900Y-59400500D01*
X32978825Y-59400500D01*
X33037016Y-59419407D01*
G37*
%TD.AperFunction*%
%TA.AperFunction,Conductor*%
G36*
X53369890Y-61625307D02*
G01*
X53405854Y-61674807D01*
X53405854Y-61735993D01*
X53381703Y-61775404D01*
X52786603Y-62370504D01*
X52732086Y-62398281D01*
X52716599Y-62399500D01*
X46074088Y-62399500D01*
X46015897Y-62380593D01*
X45979933Y-62331093D01*
X45976333Y-62294164D01*
X45975323Y-62294104D01*
X45975500Y-62291142D01*
X45975500Y-61856901D01*
X45994407Y-61798710D01*
X46004496Y-61786897D01*
X46155997Y-61635396D01*
X46210514Y-61607619D01*
X46226001Y-61606400D01*
X53311699Y-61606400D01*
X53369890Y-61625307D01*
G37*
%TD.AperFunction*%
%TA.AperFunction,Conductor*%
G36*
X39651293Y-44560943D02*
G01*
X39653514Y-44564131D01*
X39724023Y-44669655D01*
X39870345Y-44815977D01*
X40042402Y-44930941D01*
X40233580Y-45010130D01*
X40436535Y-45050500D01*
X40436536Y-45050500D01*
X40643464Y-45050500D01*
X40643465Y-45050500D01*
X40846420Y-45010130D01*
X40882403Y-44995224D01*
X40943398Y-44990424D01*
X40990292Y-45016685D01*
X41445508Y-45471900D01*
X41739318Y-45765710D01*
X41739320Y-45765713D01*
X41813887Y-45840280D01*
X41822774Y-45845410D01*
X41822777Y-45845414D01*
X41822778Y-45845413D01*
X41905212Y-45893007D01*
X42007073Y-45920300D01*
X45266999Y-45920300D01*
X45325190Y-45939207D01*
X45337003Y-45949296D01*
X56428520Y-57040813D01*
X56428519Y-57040813D01*
X56485687Y-57097980D01*
X56503087Y-57115380D01*
X56594413Y-57168107D01*
X56696273Y-57195400D01*
X56696275Y-57195400D01*
X59119326Y-57195400D01*
X59119327Y-57195400D01*
X59119327Y-57195399D01*
X59124286Y-57194747D01*
X59137209Y-57193900D01*
X62434325Y-57193900D01*
X62434327Y-57193900D01*
X62536188Y-57166607D01*
X62536190Y-57166605D01*
X62536192Y-57166605D01*
X62627508Y-57113883D01*
X62627508Y-57113882D01*
X62627513Y-57113880D01*
X62936896Y-56804495D01*
X62991413Y-56776718D01*
X63006900Y-56775499D01*
X63244099Y-56775499D01*
X63302290Y-56794406D01*
X63338254Y-56843906D01*
X63338254Y-56905092D01*
X63314103Y-56944503D01*
X62086203Y-58172404D01*
X62031686Y-58200181D01*
X62016199Y-58201400D01*
X33419327Y-58201400D01*
X33313873Y-58201400D01*
X33251529Y-58218104D01*
X33212007Y-58228694D01*
X33120691Y-58281416D01*
X33120686Y-58281420D01*
X32831602Y-58570504D01*
X32777086Y-58598281D01*
X32761599Y-58599500D01*
X25883806Y-58599500D01*
X25883790Y-58599499D01*
X25877727Y-58599499D01*
X25772273Y-58599499D01*
X25670786Y-58626693D01*
X25670779Y-58626694D01*
X25670416Y-58626791D01*
X25579084Y-58679522D01*
X25504519Y-58754086D01*
X25504520Y-58754087D01*
X25504518Y-58754089D01*
X23063102Y-61195504D01*
X23008585Y-61223281D01*
X22993098Y-61224500D01*
X22577133Y-61224500D01*
X22577129Y-61224500D01*
X22577128Y-61224501D01*
X22517517Y-61230909D01*
X22511359Y-61231571D01*
X22511069Y-61228878D01*
X22461220Y-61224739D01*
X22414866Y-61184802D01*
X22400500Y-61133439D01*
X22400500Y-56866560D01*
X22419407Y-56808369D01*
X22468907Y-56772405D01*
X22511116Y-56770678D01*
X22511358Y-56768429D01*
X22520173Y-56769376D01*
X22577127Y-56775500D01*
X23072872Y-56775499D01*
X23132483Y-56769091D01*
X23199907Y-56743943D01*
X23267329Y-56718797D01*
X23267329Y-56718796D01*
X23267331Y-56718796D01*
X23382546Y-56632546D01*
X23468796Y-56517331D01*
X23519091Y-56382483D01*
X23525500Y-56322873D01*
X23525499Y-55906899D01*
X23544406Y-55848709D01*
X23554496Y-55836896D01*
X23750397Y-55640996D01*
X23804913Y-55613219D01*
X23820400Y-55612000D01*
X26375500Y-55612000D01*
X26433691Y-55630907D01*
X26469655Y-55680407D01*
X26474500Y-55711000D01*
X26474500Y-56322866D01*
X26474500Y-56322869D01*
X26474501Y-56322872D01*
X26475933Y-56336191D01*
X26480908Y-56382480D01*
X26480909Y-56382485D01*
X26531202Y-56517329D01*
X26617450Y-56632541D01*
X26617454Y-56632546D01*
X26617457Y-56632548D01*
X26617458Y-56632549D01*
X26732670Y-56718797D01*
X26867511Y-56769089D01*
X26867512Y-56769089D01*
X26867517Y-56769091D01*
X26927127Y-56775500D01*
X27343099Y-56775499D01*
X27401290Y-56794406D01*
X27413102Y-56804495D01*
X27679757Y-57071149D01*
X27679762Y-57071155D01*
X27679763Y-57071155D01*
X27683218Y-57074610D01*
X27683220Y-57074613D01*
X27757787Y-57149180D01*
X27760428Y-57150705D01*
X27787969Y-57166605D01*
X27787971Y-57166607D01*
X27787972Y-57166607D01*
X27849112Y-57201907D01*
X27950973Y-57229200D01*
X27950975Y-57229200D01*
X38399025Y-57229200D01*
X38399027Y-57229200D01*
X38500888Y-57201907D01*
X38500890Y-57201905D01*
X38500892Y-57201905D01*
X38592213Y-57149180D01*
X38839099Y-56902293D01*
X38936895Y-56804495D01*
X38991412Y-56776718D01*
X39006899Y-56775499D01*
X39422867Y-56775499D01*
X39422872Y-56775499D01*
X39482483Y-56769091D01*
X39549907Y-56743943D01*
X39617329Y-56718797D01*
X39617329Y-56718796D01*
X39617331Y-56718796D01*
X39732546Y-56632546D01*
X39818796Y-56517331D01*
X39869091Y-56382483D01*
X39875500Y-56322873D01*
X39875499Y-55677129D01*
X40124500Y-55677129D01*
X40124500Y-56322866D01*
X40124500Y-56322869D01*
X40124501Y-56322872D01*
X40125933Y-56336191D01*
X40130908Y-56382480D01*
X40130909Y-56382485D01*
X40181202Y-56517329D01*
X40267450Y-56632541D01*
X40267454Y-56632546D01*
X40267457Y-56632548D01*
X40267458Y-56632549D01*
X40382670Y-56718797D01*
X40517511Y-56769089D01*
X40517512Y-56769089D01*
X40517517Y-56769091D01*
X40577127Y-56775500D01*
X41072872Y-56775499D01*
X41132483Y-56769091D01*
X41199907Y-56743943D01*
X41267329Y-56718797D01*
X41267329Y-56718796D01*
X41267331Y-56718796D01*
X41382546Y-56632546D01*
X41468796Y-56517331D01*
X41519091Y-56382483D01*
X41525500Y-56322873D01*
X41525499Y-55677129D01*
X44474500Y-55677129D01*
X44474500Y-56322866D01*
X44474500Y-56322869D01*
X44474501Y-56322872D01*
X44475933Y-56336191D01*
X44480908Y-56382480D01*
X44480909Y-56382485D01*
X44531202Y-56517329D01*
X44617450Y-56632541D01*
X44617454Y-56632546D01*
X44617457Y-56632548D01*
X44617458Y-56632549D01*
X44732670Y-56718797D01*
X44867511Y-56769089D01*
X44867512Y-56769089D01*
X44867517Y-56769091D01*
X44927127Y-56775500D01*
X45422872Y-56775499D01*
X45482483Y-56769091D01*
X45549907Y-56743943D01*
X45617329Y-56718797D01*
X45617329Y-56718796D01*
X45617331Y-56718796D01*
X45732546Y-56632546D01*
X45818796Y-56517331D01*
X45869091Y-56382483D01*
X45875500Y-56322873D01*
X45875499Y-55677129D01*
X46124500Y-55677129D01*
X46124500Y-56322866D01*
X46124500Y-56322869D01*
X46124501Y-56322872D01*
X46125933Y-56336191D01*
X46130908Y-56382480D01*
X46130909Y-56382485D01*
X46181202Y-56517329D01*
X46267450Y-56632541D01*
X46267454Y-56632546D01*
X46267457Y-56632548D01*
X46267458Y-56632549D01*
X46382670Y-56718797D01*
X46517511Y-56769089D01*
X46517512Y-56769089D01*
X46517517Y-56769091D01*
X46577127Y-56775500D01*
X47072872Y-56775499D01*
X47132483Y-56769091D01*
X47199907Y-56743943D01*
X47267329Y-56718797D01*
X47267329Y-56718796D01*
X47267331Y-56718796D01*
X47382546Y-56632546D01*
X47468796Y-56517331D01*
X47519091Y-56382483D01*
X47525500Y-56322873D01*
X47525499Y-55677129D01*
X50474500Y-55677129D01*
X50474500Y-56322866D01*
X50474500Y-56322869D01*
X50474501Y-56322872D01*
X50475933Y-56336191D01*
X50480908Y-56382480D01*
X50480909Y-56382485D01*
X50531202Y-56517329D01*
X50617450Y-56632541D01*
X50617454Y-56632546D01*
X50617457Y-56632548D01*
X50617458Y-56632549D01*
X50732670Y-56718797D01*
X50867511Y-56769089D01*
X50867512Y-56769089D01*
X50867517Y-56769091D01*
X50927127Y-56775500D01*
X51422872Y-56775499D01*
X51482483Y-56769091D01*
X51549907Y-56743943D01*
X51617329Y-56718797D01*
X51617329Y-56718796D01*
X51617331Y-56718796D01*
X51732546Y-56632546D01*
X51818796Y-56517331D01*
X51869091Y-56382483D01*
X51875500Y-56322873D01*
X51875499Y-55677128D01*
X51869091Y-55617517D01*
X51861940Y-55598344D01*
X51818797Y-55482670D01*
X51732549Y-55367458D01*
X51732548Y-55367457D01*
X51732546Y-55367454D01*
X51732541Y-55367450D01*
X51617329Y-55281202D01*
X51482488Y-55230910D01*
X51482483Y-55230909D01*
X51482481Y-55230908D01*
X51482477Y-55230908D01*
X51451249Y-55227550D01*
X51422873Y-55224500D01*
X51422870Y-55224500D01*
X50927133Y-55224500D01*
X50927129Y-55224500D01*
X50927128Y-55224501D01*
X50919949Y-55225272D01*
X50867519Y-55230908D01*
X50867514Y-55230909D01*
X50732670Y-55281202D01*
X50617458Y-55367450D01*
X50617450Y-55367458D01*
X50531202Y-55482670D01*
X50480910Y-55617511D01*
X50480908Y-55617522D01*
X50477855Y-55645923D01*
X50475691Y-55666055D01*
X50474500Y-55677129D01*
X47525499Y-55677129D01*
X47525499Y-55677128D01*
X47519091Y-55617517D01*
X47511940Y-55598344D01*
X47468797Y-55482670D01*
X47382549Y-55367458D01*
X47382548Y-55367457D01*
X47382546Y-55367454D01*
X47382541Y-55367450D01*
X47267329Y-55281202D01*
X47132488Y-55230910D01*
X47132483Y-55230909D01*
X47132481Y-55230908D01*
X47132477Y-55230908D01*
X47101249Y-55227550D01*
X47072873Y-55224500D01*
X47072870Y-55224500D01*
X46577133Y-55224500D01*
X46577129Y-55224500D01*
X46577128Y-55224501D01*
X46569949Y-55225272D01*
X46517519Y-55230908D01*
X46517514Y-55230909D01*
X46382670Y-55281202D01*
X46267458Y-55367450D01*
X46267450Y-55367458D01*
X46181202Y-55482670D01*
X46130910Y-55617511D01*
X46130908Y-55617522D01*
X46127855Y-55645923D01*
X46125691Y-55666055D01*
X46124500Y-55677129D01*
X45875499Y-55677129D01*
X45875499Y-55677128D01*
X45869091Y-55617517D01*
X45861940Y-55598344D01*
X45818797Y-55482670D01*
X45732549Y-55367458D01*
X45732548Y-55367457D01*
X45732546Y-55367454D01*
X45732541Y-55367450D01*
X45617329Y-55281202D01*
X45482488Y-55230910D01*
X45482483Y-55230909D01*
X45482481Y-55230908D01*
X45482477Y-55230908D01*
X45451249Y-55227550D01*
X45422873Y-55224500D01*
X45422870Y-55224500D01*
X44927133Y-55224500D01*
X44927129Y-55224500D01*
X44927128Y-55224501D01*
X44919949Y-55225272D01*
X44867519Y-55230908D01*
X44867514Y-55230909D01*
X44732670Y-55281202D01*
X44617458Y-55367450D01*
X44617450Y-55367458D01*
X44531202Y-55482670D01*
X44480910Y-55617511D01*
X44480908Y-55617522D01*
X44477855Y-55645923D01*
X44475691Y-55666055D01*
X44474500Y-55677129D01*
X41525499Y-55677129D01*
X41525499Y-55677128D01*
X41519091Y-55617517D01*
X41511940Y-55598344D01*
X41468797Y-55482670D01*
X41382549Y-55367458D01*
X41382548Y-55367457D01*
X41382546Y-55367454D01*
X41382541Y-55367450D01*
X41267329Y-55281202D01*
X41132488Y-55230910D01*
X41132483Y-55230909D01*
X41132481Y-55230908D01*
X41132477Y-55230908D01*
X41101249Y-55227550D01*
X41072873Y-55224500D01*
X41072870Y-55224500D01*
X40577133Y-55224500D01*
X40577129Y-55224500D01*
X40577128Y-55224501D01*
X40569949Y-55225272D01*
X40517519Y-55230908D01*
X40517514Y-55230909D01*
X40382670Y-55281202D01*
X40267458Y-55367450D01*
X40267450Y-55367458D01*
X40181202Y-55482670D01*
X40130910Y-55617511D01*
X40130908Y-55617522D01*
X40127855Y-55645923D01*
X40125691Y-55666055D01*
X40124500Y-55677129D01*
X39875499Y-55677129D01*
X39875499Y-55677128D01*
X39869091Y-55617517D01*
X39861940Y-55598344D01*
X39818797Y-55482670D01*
X39732549Y-55367458D01*
X39732548Y-55367457D01*
X39732546Y-55367454D01*
X39732541Y-55367450D01*
X39617329Y-55281202D01*
X39482488Y-55230910D01*
X39482483Y-55230909D01*
X39482481Y-55230908D01*
X39482477Y-55230908D01*
X39451249Y-55227550D01*
X39422873Y-55224500D01*
X39422870Y-55224500D01*
X38927133Y-55224500D01*
X38927129Y-55224500D01*
X38927128Y-55224501D01*
X38919949Y-55225272D01*
X38867519Y-55230908D01*
X38867514Y-55230909D01*
X38732670Y-55281202D01*
X38617458Y-55367450D01*
X38617450Y-55367458D01*
X38531202Y-55482670D01*
X38480910Y-55617511D01*
X38480908Y-55617522D01*
X38477855Y-55645923D01*
X38475691Y-55666055D01*
X38474500Y-55677129D01*
X38474500Y-56093099D01*
X38455593Y-56151290D01*
X38445504Y-56163102D01*
X38209404Y-56399203D01*
X38154887Y-56426981D01*
X38139400Y-56428200D01*
X35624303Y-56428200D01*
X35566112Y-56409293D01*
X35530148Y-56359793D01*
X35525658Y-56325524D01*
X35525500Y-56325524D01*
X35525499Y-56324321D01*
X35525445Y-56323902D01*
X35525498Y-56322889D01*
X35525500Y-56322873D01*
X35525499Y-55677128D01*
X35519091Y-55617517D01*
X35511940Y-55598344D01*
X35468797Y-55482670D01*
X35382549Y-55367458D01*
X35382548Y-55367457D01*
X35382546Y-55367454D01*
X35382541Y-55367450D01*
X35267329Y-55281202D01*
X35132488Y-55230910D01*
X35132483Y-55230909D01*
X35132481Y-55230908D01*
X35132477Y-55230908D01*
X35101249Y-55227550D01*
X35072873Y-55224500D01*
X35072870Y-55224500D01*
X34577133Y-55224500D01*
X34577129Y-55224500D01*
X34577128Y-55224501D01*
X34569949Y-55225272D01*
X34517519Y-55230908D01*
X34517514Y-55230909D01*
X34382670Y-55281202D01*
X34267458Y-55367450D01*
X34267450Y-55367458D01*
X34181202Y-55482670D01*
X34130910Y-55617511D01*
X34130908Y-55617522D01*
X34127855Y-55645923D01*
X34125691Y-55666055D01*
X34124500Y-55677129D01*
X34124500Y-56322877D01*
X34124556Y-56323904D01*
X34124500Y-56324110D01*
X34124501Y-56325523D01*
X34124124Y-56325523D01*
X34108789Y-56383022D01*
X34061284Y-56421583D01*
X34025698Y-56428200D01*
X33974303Y-56428200D01*
X33916112Y-56409293D01*
X33880148Y-56359793D01*
X33875658Y-56325524D01*
X33875500Y-56325524D01*
X33875499Y-56324321D01*
X33875445Y-56323902D01*
X33875498Y-56322889D01*
X33875500Y-56322873D01*
X33875499Y-55677128D01*
X33869091Y-55617517D01*
X33861940Y-55598344D01*
X33818797Y-55482670D01*
X33732549Y-55367458D01*
X33732548Y-55367457D01*
X33732546Y-55367454D01*
X33732541Y-55367450D01*
X33617329Y-55281202D01*
X33482488Y-55230910D01*
X33482483Y-55230909D01*
X33482481Y-55230908D01*
X33482477Y-55230908D01*
X33451249Y-55227550D01*
X33422873Y-55224500D01*
X33422870Y-55224500D01*
X33006901Y-55224500D01*
X32948710Y-55205593D01*
X32936898Y-55195504D01*
X32632413Y-54891020D01*
X32632408Y-54891016D01*
X32541091Y-54838294D01*
X32541093Y-54838294D01*
X32501570Y-54827704D01*
X32439227Y-54811000D01*
X23561100Y-54811000D01*
X23502909Y-54792093D01*
X23466945Y-54742593D01*
X23466945Y-54681407D01*
X23491096Y-54641996D01*
X31771196Y-46361896D01*
X31825713Y-46334119D01*
X31841200Y-46332900D01*
X38627425Y-46332900D01*
X38627427Y-46332900D01*
X38729288Y-46305607D01*
X38729290Y-46305605D01*
X38729292Y-46305605D01*
X38820608Y-46252883D01*
X38820608Y-46252882D01*
X38820613Y-46252880D01*
X39392180Y-45681313D01*
X39409576Y-45651182D01*
X39444905Y-45589992D01*
X39444905Y-45589990D01*
X39444907Y-45589988D01*
X39472200Y-45488127D01*
X39472200Y-45382673D01*
X39472200Y-44619134D01*
X39491107Y-44560943D01*
X39540607Y-44524979D01*
X39601793Y-44524979D01*
X39651293Y-44560943D01*
G37*
%TD.AperFunction*%
%TA.AperFunction,Conductor*%
G36*
X66132218Y-43356407D02*
G01*
X66168182Y-43405907D01*
X66168182Y-43467093D01*
X66156342Y-43491502D01*
X66149059Y-43502401D01*
X66069869Y-43693581D01*
X66029500Y-43896532D01*
X66029500Y-44103467D01*
X66069869Y-44306418D01*
X66149058Y-44497597D01*
X66230266Y-44619134D01*
X66264023Y-44669655D01*
X66410345Y-44815977D01*
X66410348Y-44815979D01*
X66493567Y-44871584D01*
X66531447Y-44919634D01*
X66533849Y-44980772D01*
X66499856Y-45031646D01*
X66442453Y-45052824D01*
X66438566Y-45052900D01*
X64712001Y-45052900D01*
X64653810Y-45033993D01*
X64641997Y-45023904D01*
X63991298Y-44373205D01*
X63297613Y-43679520D01*
X63297610Y-43679518D01*
X63297609Y-43679517D01*
X63297608Y-43679516D01*
X63206291Y-43626794D01*
X63206292Y-43626794D01*
X63123876Y-43604711D01*
X63072561Y-43571387D01*
X63050635Y-43514265D01*
X63050499Y-43509084D01*
X63050499Y-43436500D01*
X63069406Y-43378309D01*
X63118906Y-43342345D01*
X63149499Y-43337500D01*
X66074027Y-43337500D01*
X66132218Y-43356407D01*
G37*
%TD.AperFunction*%
%TA.AperFunction,Conductor*%
G36*
X119458691Y-519407D02*
G01*
X119494655Y-568907D01*
X119499500Y-599500D01*
X119499500Y-79400500D01*
X119480593Y-79458691D01*
X119431093Y-79494655D01*
X119400500Y-79499500D01*
X599500Y-79499500D01*
X541309Y-79480593D01*
X505345Y-79431093D01*
X500500Y-79400500D01*
X500500Y-76378710D01*
X1649500Y-76378710D01*
X1649500Y-76621289D01*
X1681161Y-76861781D01*
X1681161Y-76861786D01*
X1743944Y-77096092D01*
X1743948Y-77096105D01*
X1836772Y-77320204D01*
X1836774Y-77320208D01*
X1836776Y-77320212D01*
X1958064Y-77530289D01*
X1958066Y-77530292D01*
X2105729Y-77722731D01*
X2105731Y-77722733D01*
X2105735Y-77722738D01*
X2277262Y-77894265D01*
X2277266Y-77894268D01*
X2277268Y-77894270D01*
X2469707Y-78041933D01*
X2469711Y-78041936D01*
X2679788Y-78163224D01*
X2903900Y-78256054D01*
X3138211Y-78318838D01*
X3378712Y-78350500D01*
X3378713Y-78350500D01*
X3621287Y-78350500D01*
X3621288Y-78350500D01*
X3861789Y-78318838D01*
X4096100Y-78256054D01*
X4320212Y-78163224D01*
X4530289Y-78041936D01*
X4722738Y-77894265D01*
X4894265Y-77722738D01*
X5041936Y-77530289D01*
X5163224Y-77320212D01*
X5256054Y-77096100D01*
X5318838Y-76861789D01*
X5350500Y-76621288D01*
X5350500Y-76378712D01*
X5350500Y-76378710D01*
X114649500Y-76378710D01*
X114649500Y-76621289D01*
X114681161Y-76861781D01*
X114681161Y-76861786D01*
X114743944Y-77096092D01*
X114743948Y-77096105D01*
X114836772Y-77320204D01*
X114836774Y-77320208D01*
X114836776Y-77320212D01*
X114958064Y-77530289D01*
X114958066Y-77530292D01*
X115105729Y-77722731D01*
X115105731Y-77722733D01*
X115105735Y-77722738D01*
X115277262Y-77894265D01*
X115277266Y-77894268D01*
X115277268Y-77894270D01*
X115469707Y-78041933D01*
X115469711Y-78041936D01*
X115679788Y-78163224D01*
X115903900Y-78256054D01*
X116138211Y-78318838D01*
X116378712Y-78350500D01*
X116378713Y-78350500D01*
X116621287Y-78350500D01*
X116621288Y-78350500D01*
X116861789Y-78318838D01*
X117096100Y-78256054D01*
X117320212Y-78163224D01*
X117530289Y-78041936D01*
X117722738Y-77894265D01*
X117894265Y-77722738D01*
X118041936Y-77530289D01*
X118163224Y-77320212D01*
X118256054Y-77096100D01*
X118318838Y-76861789D01*
X118350500Y-76621288D01*
X118350500Y-76378712D01*
X118318838Y-76138211D01*
X118256054Y-75903900D01*
X118163224Y-75679788D01*
X118041936Y-75469711D01*
X117894265Y-75277262D01*
X117722738Y-75105735D01*
X117722733Y-75105731D01*
X117722731Y-75105729D01*
X117530292Y-74958066D01*
X117530289Y-74958064D01*
X117320212Y-74836776D01*
X117320208Y-74836774D01*
X117320204Y-74836772D01*
X117096105Y-74743948D01*
X117096104Y-74743947D01*
X117096100Y-74743946D01*
X116861789Y-74681162D01*
X116861786Y-74681161D01*
X116861784Y-74681161D01*
X116621289Y-74649500D01*
X116621288Y-74649500D01*
X116378712Y-74649500D01*
X116378710Y-74649500D01*
X116138218Y-74681161D01*
X116138213Y-74681161D01*
X115903907Y-74743944D01*
X115903894Y-74743948D01*
X115679795Y-74836772D01*
X115469707Y-74958066D01*
X115277268Y-75105729D01*
X115105729Y-75277268D01*
X114958066Y-75469707D01*
X114836772Y-75679795D01*
X114743948Y-75903894D01*
X114743944Y-75903907D01*
X114681161Y-76138213D01*
X114681161Y-76138218D01*
X114649500Y-76378710D01*
X5350500Y-76378710D01*
X5318838Y-76138211D01*
X5256054Y-75903900D01*
X5163224Y-75679788D01*
X5041936Y-75469711D01*
X4894265Y-75277262D01*
X4722738Y-75105735D01*
X4722733Y-75105731D01*
X4722731Y-75105729D01*
X4530292Y-74958066D01*
X4530289Y-74958064D01*
X4320212Y-74836776D01*
X4320208Y-74836774D01*
X4320204Y-74836772D01*
X4096105Y-74743948D01*
X4096104Y-74743947D01*
X4096100Y-74743946D01*
X3861789Y-74681162D01*
X3861786Y-74681161D01*
X3861784Y-74681161D01*
X3621289Y-74649500D01*
X3621288Y-74649500D01*
X3378712Y-74649500D01*
X3378710Y-74649500D01*
X3138218Y-74681161D01*
X3138213Y-74681161D01*
X2903907Y-74743944D01*
X2903894Y-74743948D01*
X2679795Y-74836772D01*
X2469707Y-74958066D01*
X2277268Y-75105729D01*
X2105729Y-75277268D01*
X1958066Y-75469707D01*
X1836772Y-75679795D01*
X1743948Y-75903894D01*
X1743944Y-75903907D01*
X1681161Y-76138213D01*
X1681161Y-76138218D01*
X1649500Y-76378710D01*
X500500Y-76378710D01*
X500500Y-61677129D01*
X8474500Y-61677129D01*
X8474500Y-62322866D01*
X8474501Y-62322870D01*
X8480908Y-62382480D01*
X8480909Y-62382485D01*
X8531202Y-62517329D01*
X8611863Y-62625078D01*
X8617454Y-62632546D01*
X8617457Y-62632548D01*
X8617458Y-62632549D01*
X8732670Y-62718797D01*
X8867511Y-62769089D01*
X8867512Y-62769089D01*
X8867517Y-62769091D01*
X8927127Y-62775500D01*
X9422872Y-62775499D01*
X9482483Y-62769091D01*
X9556686Y-62741415D01*
X9617329Y-62718797D01*
X9617329Y-62718796D01*
X9617331Y-62718796D01*
X9732546Y-62632546D01*
X9818796Y-62517331D01*
X9869091Y-62382483D01*
X9875500Y-62322873D01*
X9875499Y-61906899D01*
X9894406Y-61848709D01*
X9904489Y-61836902D01*
X9955498Y-61785893D01*
X10010013Y-61758118D01*
X10070445Y-61767689D01*
X10113710Y-61810954D01*
X10124500Y-61855899D01*
X10124500Y-62322866D01*
X10124501Y-62322870D01*
X10130908Y-62382480D01*
X10130909Y-62382485D01*
X10181202Y-62517329D01*
X10261863Y-62625078D01*
X10267454Y-62632546D01*
X10267457Y-62632548D01*
X10267458Y-62632549D01*
X10382670Y-62718797D01*
X10517511Y-62769089D01*
X10517512Y-62769089D01*
X10517517Y-62769091D01*
X10577127Y-62775500D01*
X11072872Y-62775499D01*
X11132483Y-62769091D01*
X11206686Y-62741415D01*
X11267329Y-62718797D01*
X11267329Y-62718796D01*
X11267331Y-62718796D01*
X11382546Y-62632546D01*
X11468796Y-62517331D01*
X11519091Y-62382483D01*
X11525500Y-62322873D01*
X11525499Y-61906899D01*
X11544406Y-61848709D01*
X11554496Y-61836896D01*
X12169498Y-61221896D01*
X12224014Y-61194119D01*
X12239501Y-61192900D01*
X12603356Y-61192900D01*
X12661547Y-61211807D01*
X12673359Y-61221896D01*
X12724381Y-61272917D01*
X12724384Y-61272920D01*
X12861316Y-61351977D01*
X13014043Y-61392900D01*
X13014045Y-61392900D01*
X13172155Y-61392900D01*
X13172157Y-61392900D01*
X13324884Y-61351977D01*
X13461816Y-61272920D01*
X13573620Y-61161116D01*
X13652677Y-61024184D01*
X13693600Y-60871457D01*
X13693600Y-60713343D01*
X13652677Y-60560616D01*
X13573620Y-60423684D01*
X13461816Y-60311880D01*
X13324884Y-60232823D01*
X13172157Y-60191900D01*
X13014043Y-60191900D01*
X12861316Y-60232823D01*
X12724381Y-60311882D01*
X12673359Y-60362904D01*
X12618842Y-60390681D01*
X12603356Y-60391900D01*
X12085327Y-60391900D01*
X11979873Y-60391900D01*
X11917529Y-60408604D01*
X11878007Y-60419194D01*
X11786691Y-60471916D01*
X11786686Y-60471920D01*
X11063100Y-61195504D01*
X11008584Y-61223281D01*
X10993097Y-61224500D01*
X10755899Y-61224500D01*
X10697708Y-61205593D01*
X10661744Y-61156093D01*
X10661744Y-61094907D01*
X10685893Y-61055498D01*
X14534397Y-57206996D01*
X14588914Y-57179219D01*
X14604401Y-57178000D01*
X17285925Y-57178000D01*
X17285927Y-57178000D01*
X17387788Y-57150707D01*
X17387790Y-57150705D01*
X17387792Y-57150705D01*
X17479108Y-57097983D01*
X17479108Y-57097982D01*
X17479113Y-57097980D01*
X18929797Y-55647296D01*
X18984314Y-55619519D01*
X18999801Y-55618300D01*
X20375500Y-55618300D01*
X20433691Y-55637207D01*
X20469655Y-55686707D01*
X20474500Y-55717300D01*
X20474500Y-56093099D01*
X20455593Y-56151290D01*
X20445504Y-56163102D01*
X20118120Y-56490486D01*
X20118116Y-56490491D01*
X20065394Y-56581808D01*
X20058911Y-56605998D01*
X20058912Y-56605999D01*
X20051799Y-56632546D01*
X20038100Y-56683673D01*
X20038100Y-62417673D01*
X20038100Y-62523127D01*
X20043698Y-62544019D01*
X20065394Y-62624992D01*
X20118116Y-62716308D01*
X20118118Y-62716310D01*
X20118120Y-62716313D01*
X20523087Y-63121280D01*
X20523089Y-63121281D01*
X20523091Y-63121283D01*
X20614408Y-63174005D01*
X20614406Y-63174005D01*
X20614410Y-63174006D01*
X20614412Y-63174007D01*
X20716273Y-63201300D01*
X20716275Y-63201300D01*
X23262625Y-63201300D01*
X23262627Y-63201300D01*
X23364488Y-63174007D01*
X23364490Y-63174005D01*
X23364492Y-63174005D01*
X23455808Y-63121283D01*
X23455808Y-63121282D01*
X23455813Y-63121280D01*
X24966597Y-61610496D01*
X25021114Y-61582719D01*
X25036601Y-61581500D01*
X26375500Y-61581500D01*
X26433691Y-61600407D01*
X26469655Y-61649907D01*
X26474500Y-61680500D01*
X26474500Y-62322866D01*
X26474501Y-62322870D01*
X26480908Y-62382480D01*
X26480909Y-62382485D01*
X26531202Y-62517329D01*
X26611863Y-62625078D01*
X26617454Y-62632546D01*
X26617457Y-62632548D01*
X26617458Y-62632549D01*
X26732670Y-62718797D01*
X26867511Y-62769089D01*
X26867512Y-62769089D01*
X26867517Y-62769091D01*
X26927127Y-62775500D01*
X27343098Y-62775499D01*
X27401289Y-62794406D01*
X27413102Y-62804495D01*
X28521803Y-63913196D01*
X28549580Y-63967713D01*
X28540009Y-64028145D01*
X28496744Y-64071410D01*
X28451799Y-64082200D01*
X19514601Y-64082200D01*
X19456410Y-64063293D01*
X19444597Y-64053204D01*
X17554495Y-62163102D01*
X17526718Y-62108585D01*
X17525499Y-62093098D01*
X17525499Y-61677133D01*
X17525499Y-61677128D01*
X17519091Y-61617517D01*
X17514907Y-61606300D01*
X17468797Y-61482670D01*
X17382549Y-61367458D01*
X17382548Y-61367457D01*
X17382546Y-61367454D01*
X17382541Y-61367450D01*
X17267329Y-61281202D01*
X17132488Y-61230910D01*
X17132483Y-61230909D01*
X17132481Y-61230908D01*
X17132477Y-61230908D01*
X17101249Y-61227550D01*
X17072873Y-61224500D01*
X17072870Y-61224500D01*
X16577133Y-61224500D01*
X16577129Y-61224500D01*
X16577128Y-61224501D01*
X16569949Y-61225272D01*
X16517519Y-61230908D01*
X16517514Y-61230909D01*
X16382670Y-61281202D01*
X16267458Y-61367450D01*
X16267450Y-61367458D01*
X16181202Y-61482670D01*
X16130910Y-61617511D01*
X16130908Y-61617522D01*
X16126533Y-61658209D01*
X16124750Y-61674807D01*
X16124500Y-61677129D01*
X16124500Y-62144099D01*
X16105593Y-62202290D01*
X16056093Y-62238254D01*
X15994907Y-62238254D01*
X15955496Y-62214103D01*
X15904495Y-62163102D01*
X15876718Y-62108585D01*
X15875499Y-62093098D01*
X15875499Y-61677133D01*
X15875499Y-61677128D01*
X15869091Y-61617517D01*
X15864907Y-61606300D01*
X15818797Y-61482670D01*
X15732549Y-61367458D01*
X15732548Y-61367457D01*
X15732546Y-61367454D01*
X15732541Y-61367450D01*
X15617329Y-61281202D01*
X15482488Y-61230910D01*
X15482483Y-61230909D01*
X15482481Y-61230908D01*
X15482477Y-61230908D01*
X15451249Y-61227550D01*
X15422873Y-61224500D01*
X15422870Y-61224500D01*
X14927133Y-61224500D01*
X14927129Y-61224500D01*
X14927128Y-61224501D01*
X14919949Y-61225272D01*
X14867519Y-61230908D01*
X14867514Y-61230909D01*
X14732670Y-61281202D01*
X14617458Y-61367450D01*
X14617450Y-61367458D01*
X14531202Y-61482670D01*
X14480910Y-61617511D01*
X14480908Y-61617522D01*
X14476533Y-61658209D01*
X14474750Y-61674807D01*
X14474500Y-61677129D01*
X14474500Y-62322866D01*
X14474501Y-62322870D01*
X14480908Y-62382480D01*
X14480909Y-62382485D01*
X14531202Y-62517329D01*
X14611863Y-62625078D01*
X14617454Y-62632546D01*
X14617457Y-62632548D01*
X14617458Y-62632549D01*
X14732670Y-62718797D01*
X14867511Y-62769089D01*
X14867512Y-62769089D01*
X14867517Y-62769091D01*
X14927127Y-62775500D01*
X15343098Y-62775499D01*
X15401289Y-62794406D01*
X15413102Y-62804495D01*
X17938920Y-65330313D01*
X17938919Y-65330313D01*
X17988983Y-65380376D01*
X18013487Y-65404880D01*
X18104813Y-65457607D01*
X18206673Y-65484900D01*
X18312127Y-65484900D01*
X47784956Y-65484900D01*
X47843147Y-65503807D01*
X47854959Y-65513896D01*
X47905981Y-65564917D01*
X47905984Y-65564920D01*
X48042916Y-65643977D01*
X48195643Y-65684900D01*
X48195645Y-65684900D01*
X48353755Y-65684900D01*
X48353757Y-65684900D01*
X48506484Y-65643977D01*
X48643416Y-65564920D01*
X48755220Y-65453116D01*
X48834277Y-65316184D01*
X48840039Y-65294676D01*
X48873363Y-65243363D01*
X48930484Y-65221436D01*
X48935666Y-65221300D01*
X59512156Y-65221300D01*
X59570347Y-65240207D01*
X59582159Y-65250296D01*
X59626542Y-65294678D01*
X59633184Y-65301320D01*
X59770116Y-65380377D01*
X59922843Y-65421300D01*
X59922845Y-65421300D01*
X60080955Y-65421300D01*
X60080957Y-65421300D01*
X60233684Y-65380377D01*
X60370616Y-65301320D01*
X60482420Y-65189516D01*
X60561477Y-65052584D01*
X60602400Y-64899857D01*
X60602400Y-64741743D01*
X60602399Y-64741742D01*
X60601553Y-64735311D01*
X60603544Y-64735048D01*
X60606266Y-64683122D01*
X60644772Y-64635572D01*
X60698691Y-64619600D01*
X61604282Y-64619600D01*
X61662473Y-64638507D01*
X61682826Y-64658335D01*
X61685878Y-64662313D01*
X61685880Y-64662316D01*
X61797684Y-64774120D01*
X61934616Y-64853177D01*
X62087343Y-64894100D01*
X62087345Y-64894100D01*
X62245455Y-64894100D01*
X62245457Y-64894100D01*
X62398184Y-64853177D01*
X62535116Y-64774120D01*
X62646920Y-64662316D01*
X62725977Y-64525384D01*
X62766900Y-64372657D01*
X62766900Y-64214543D01*
X62725977Y-64061816D01*
X62646920Y-63924884D01*
X62535116Y-63813080D01*
X62398184Y-63734023D01*
X62398181Y-63734022D01*
X62392564Y-63730779D01*
X62393319Y-63729470D01*
X62352563Y-63694660D01*
X62338280Y-63635165D01*
X62361696Y-63578638D01*
X62387471Y-63557199D01*
X62452216Y-63519820D01*
X62564020Y-63408016D01*
X62643077Y-63271084D01*
X62684000Y-63118357D01*
X62684000Y-62960243D01*
X62643077Y-62807516D01*
X62564020Y-62670584D01*
X62452216Y-62558780D01*
X62315284Y-62479723D01*
X62315278Y-62479721D01*
X62312487Y-62478565D01*
X62310838Y-62477157D01*
X62309664Y-62476479D01*
X62309789Y-62476261D01*
X62265961Y-62438829D01*
X62251676Y-62379334D01*
X62275090Y-62322806D01*
X62327258Y-62290836D01*
X62350371Y-62288100D01*
X67902166Y-62288100D01*
X67960357Y-62307007D01*
X67996321Y-62356507D01*
X68000459Y-62398904D01*
X67999501Y-62406893D01*
X67999500Y-62406898D01*
X67999500Y-63593106D01*
X68010123Y-63681565D01*
X68065637Y-63822339D01*
X68065638Y-63822341D01*
X68065639Y-63822342D01*
X68157078Y-63942922D01*
X68277658Y-64034361D01*
X68277659Y-64034361D01*
X68277660Y-64034362D01*
X68325440Y-64053204D01*
X68418436Y-64089877D01*
X68506898Y-64100500D01*
X68506900Y-64100500D01*
X71093100Y-64100500D01*
X71093102Y-64100500D01*
X71181564Y-64089877D01*
X71322342Y-64034361D01*
X71442922Y-63942922D01*
X71534361Y-63822342D01*
X71569396Y-63733497D01*
X71608332Y-63686302D01*
X71667574Y-63671005D01*
X71710989Y-63684080D01*
X71768316Y-63717177D01*
X71921043Y-63758100D01*
X71921045Y-63758100D01*
X72079155Y-63758100D01*
X72079157Y-63758100D01*
X72231884Y-63717177D01*
X72368816Y-63638120D01*
X72480620Y-63526316D01*
X72559677Y-63389384D01*
X72600600Y-63236657D01*
X72600600Y-63078543D01*
X72559677Y-62925816D01*
X72480620Y-62788884D01*
X72368816Y-62677080D01*
X72231884Y-62598023D01*
X72079157Y-62557100D01*
X71921043Y-62557100D01*
X71819225Y-62584382D01*
X71768315Y-62598023D01*
X71748998Y-62609176D01*
X71689149Y-62621895D01*
X71633254Y-62597008D01*
X71602663Y-62544019D01*
X71600500Y-62523438D01*
X71600500Y-62406899D01*
X71600499Y-62406893D01*
X71589877Y-62318436D01*
X71534361Y-62177658D01*
X71442922Y-62057078D01*
X71322342Y-61965639D01*
X71322341Y-61965638D01*
X71322339Y-61965637D01*
X71181565Y-61910123D01*
X71093106Y-61899500D01*
X71093102Y-61899500D01*
X69306901Y-61899500D01*
X69248710Y-61880593D01*
X69236897Y-61870504D01*
X69141797Y-61775404D01*
X69114020Y-61720887D01*
X69123591Y-61660455D01*
X69166856Y-61617190D01*
X69211801Y-61606400D01*
X77539973Y-61606400D01*
X77798999Y-61606400D01*
X77857190Y-61625307D01*
X77869003Y-61635396D01*
X78153877Y-61920270D01*
X78181654Y-61974787D01*
X78172083Y-62035219D01*
X78160499Y-62051173D01*
X78161170Y-62051682D01*
X78065640Y-62177656D01*
X78065637Y-62177660D01*
X78010123Y-62318434D01*
X77999500Y-62406893D01*
X77999500Y-63593106D01*
X78010123Y-63681565D01*
X78065637Y-63822339D01*
X78065638Y-63822341D01*
X78065639Y-63822342D01*
X78157078Y-63942922D01*
X78277658Y-64034361D01*
X78277659Y-64034361D01*
X78277660Y-64034362D01*
X78325440Y-64053204D01*
X78418436Y-64089877D01*
X78506898Y-64100500D01*
X78506900Y-64100500D01*
X81093100Y-64100500D01*
X81093102Y-64100500D01*
X81181564Y-64089877D01*
X81322342Y-64034361D01*
X81442922Y-63942922D01*
X81534361Y-63822342D01*
X81589877Y-63681564D01*
X81600500Y-63593102D01*
X81600500Y-62406898D01*
X81589877Y-62318436D01*
X81534361Y-62177658D01*
X81442922Y-62057078D01*
X81322342Y-61965639D01*
X81322341Y-61965638D01*
X81322339Y-61965637D01*
X81181565Y-61910123D01*
X81093106Y-61899500D01*
X81093102Y-61899500D01*
X79306900Y-61899500D01*
X79248709Y-61880593D01*
X79236896Y-61870504D01*
X78759292Y-61392900D01*
X78251813Y-60885420D01*
X78251810Y-60885418D01*
X78251808Y-60885416D01*
X78242696Y-60880155D01*
X78201757Y-60834684D01*
X78193200Y-60794421D01*
X78193200Y-60674044D01*
X78193200Y-60674043D01*
X78152277Y-60521316D01*
X78073220Y-60384384D01*
X77961416Y-60272580D01*
X77824484Y-60193523D01*
X77671757Y-60152600D01*
X77513643Y-60152600D01*
X77360916Y-60193523D01*
X77223984Y-60272580D01*
X77112180Y-60384384D01*
X77033123Y-60521316D01*
X77008960Y-60611496D01*
X76992200Y-60674044D01*
X76992200Y-60706400D01*
X76973293Y-60764591D01*
X76923793Y-60800555D01*
X76893200Y-60805400D01*
X46071827Y-60805400D01*
X45966373Y-60805400D01*
X45904029Y-60822104D01*
X45864507Y-60832694D01*
X45773191Y-60885416D01*
X45773186Y-60885420D01*
X45463102Y-61195504D01*
X45408586Y-61223281D01*
X45393099Y-61224500D01*
X44958851Y-61224500D01*
X44874408Y-61234641D01*
X44740027Y-61287634D01*
X44624922Y-61374922D01*
X44537634Y-61490027D01*
X44484641Y-61624408D01*
X44474500Y-61708851D01*
X44474500Y-62291142D01*
X44474677Y-62294104D01*
X44473113Y-62294197D01*
X44462387Y-62348699D01*
X44417541Y-62390322D01*
X44375912Y-62399500D01*
X40231901Y-62399500D01*
X40173710Y-62380593D01*
X40161897Y-62370504D01*
X40004496Y-62213103D01*
X39976719Y-62158586D01*
X39975500Y-62143099D01*
X39975500Y-61708857D01*
X39975499Y-61708851D01*
X39965359Y-61624410D01*
X39912364Y-61490025D01*
X39825078Y-61374922D01*
X39709975Y-61287636D01*
X39709974Y-61287635D01*
X39709972Y-61287634D01*
X39575591Y-61234641D01*
X39491148Y-61224500D01*
X39491144Y-61224500D01*
X38958856Y-61224500D01*
X38958851Y-61224500D01*
X38874408Y-61234641D01*
X38740027Y-61287634D01*
X38655179Y-61351977D01*
X38624922Y-61374922D01*
X38543215Y-61482669D01*
X38537634Y-61490028D01*
X38519182Y-61536819D01*
X38480245Y-61584016D01*
X38427085Y-61599500D01*
X36619001Y-61599500D01*
X36560810Y-61580593D01*
X36548997Y-61570504D01*
X34245196Y-59266703D01*
X34217419Y-59212186D01*
X34216200Y-59196699D01*
X34216200Y-59124544D01*
X34215353Y-59118111D01*
X34217344Y-59117848D01*
X34220066Y-59065922D01*
X34258572Y-59018372D01*
X34312491Y-59002400D01*
X62275825Y-59002400D01*
X62275827Y-59002400D01*
X62377688Y-58975107D01*
X62377690Y-58975105D01*
X62377692Y-58975105D01*
X62469008Y-58922383D01*
X62469008Y-58922382D01*
X62469013Y-58922380D01*
X64586897Y-56804494D01*
X64641414Y-56776718D01*
X64656901Y-56775499D01*
X64993098Y-56775499D01*
X65051289Y-56794406D01*
X65063101Y-56804495D01*
X65357586Y-57098979D01*
X65357591Y-57098983D01*
X65448908Y-57151705D01*
X65448906Y-57151705D01*
X65448910Y-57151706D01*
X65448912Y-57151707D01*
X65550773Y-57179000D01*
X65550775Y-57179000D01*
X70099225Y-57179000D01*
X70099227Y-57179000D01*
X70201088Y-57151707D01*
X70201090Y-57151705D01*
X70201092Y-57151705D01*
X70292408Y-57098983D01*
X70292408Y-57098982D01*
X70292413Y-57098980D01*
X70586896Y-56804495D01*
X70641413Y-56776718D01*
X70656900Y-56775499D01*
X70993098Y-56775499D01*
X71051289Y-56794406D01*
X71063101Y-56804495D01*
X71405986Y-57147379D01*
X71405991Y-57147383D01*
X71497308Y-57200105D01*
X71497306Y-57200105D01*
X71497310Y-57200106D01*
X71497312Y-57200107D01*
X71599173Y-57227400D01*
X71599175Y-57227400D01*
X76050825Y-57227400D01*
X76050827Y-57227400D01*
X76152688Y-57200107D01*
X76152690Y-57200105D01*
X76152692Y-57200105D01*
X76244008Y-57147383D01*
X76244008Y-57147382D01*
X76244013Y-57147380D01*
X76586896Y-56804495D01*
X76641413Y-56776718D01*
X76656900Y-56775499D01*
X77072867Y-56775499D01*
X77072872Y-56775499D01*
X77132483Y-56769091D01*
X77199907Y-56743943D01*
X77267329Y-56718797D01*
X77267329Y-56718796D01*
X77267331Y-56718796D01*
X77382546Y-56632546D01*
X77468796Y-56517331D01*
X77488350Y-56464901D01*
X77526400Y-56416989D01*
X77581108Y-56400500D01*
X80516825Y-56400500D01*
X80516827Y-56400500D01*
X80618688Y-56373207D01*
X80618690Y-56373205D01*
X80618692Y-56373205D01*
X80710008Y-56320483D01*
X80710008Y-56320482D01*
X80710013Y-56320480D01*
X89256797Y-47773696D01*
X89311314Y-47745919D01*
X89326801Y-47744700D01*
X89398955Y-47744700D01*
X89398957Y-47744700D01*
X89551684Y-47703777D01*
X89688616Y-47624720D01*
X89800420Y-47512916D01*
X89879477Y-47375984D01*
X89920400Y-47223257D01*
X89920400Y-47065143D01*
X89920399Y-47065142D01*
X89919553Y-47058711D01*
X89921544Y-47058448D01*
X89924266Y-47006522D01*
X89962772Y-46958972D01*
X90016691Y-46943000D01*
X94737983Y-46943000D01*
X94796174Y-46961907D01*
X94823720Y-46992500D01*
X94824922Y-46994583D01*
X94824923Y-46994584D01*
X94903980Y-47131516D01*
X95015784Y-47243320D01*
X95152716Y-47322377D01*
X95305443Y-47363300D01*
X95305445Y-47363300D01*
X95463555Y-47363300D01*
X95463557Y-47363300D01*
X95616284Y-47322377D01*
X95753216Y-47243320D01*
X95865020Y-47131516D01*
X95944077Y-46994584D01*
X95985000Y-46841857D01*
X95985000Y-46683743D01*
X95944077Y-46531016D01*
X95944075Y-46531012D01*
X95942497Y-46525123D01*
X95945699Y-46464022D01*
X95984205Y-46416472D01*
X96038124Y-46400500D01*
X103509799Y-46400500D01*
X103567990Y-46419407D01*
X103603954Y-46468907D01*
X103608093Y-46487697D01*
X103609641Y-46500591D01*
X103662634Y-46634972D01*
X103662635Y-46634974D01*
X103662636Y-46634975D01*
X103749922Y-46750078D01*
X103865025Y-46837364D01*
X103865026Y-46837364D01*
X103865027Y-46837365D01*
X103876413Y-46841855D01*
X103999410Y-46890359D01*
X104083856Y-46900500D01*
X104083858Y-46900500D01*
X104616142Y-46900500D01*
X104616144Y-46900500D01*
X104700590Y-46890359D01*
X104834975Y-46837364D01*
X104950078Y-46750078D01*
X105037364Y-46634975D01*
X105090359Y-46500590D01*
X105100500Y-46416144D01*
X105100500Y-45856899D01*
X105119407Y-45798709D01*
X105129496Y-45786896D01*
X105415496Y-45500896D01*
X105470013Y-45473119D01*
X105485500Y-45471900D01*
X109214500Y-45471900D01*
X109272691Y-45490807D01*
X109284503Y-45500896D01*
X109570503Y-45786895D01*
X109598281Y-45841412D01*
X109599500Y-45856899D01*
X109599500Y-46416148D01*
X109609641Y-46500591D01*
X109662634Y-46634972D01*
X109662635Y-46634974D01*
X109662636Y-46634975D01*
X109749922Y-46750078D01*
X109865025Y-46837364D01*
X109865026Y-46837364D01*
X109865027Y-46837365D01*
X109876413Y-46841855D01*
X109999410Y-46890359D01*
X110083856Y-46900500D01*
X110083858Y-46900500D01*
X110616142Y-46900500D01*
X110616144Y-46900500D01*
X110700590Y-46890359D01*
X110834975Y-46837364D01*
X110950078Y-46750078D01*
X111037364Y-46634975D01*
X111090359Y-46500590D01*
X111100500Y-46416144D01*
X111100500Y-45583856D01*
X111090359Y-45499410D01*
X111037364Y-45365025D01*
X110950078Y-45249922D01*
X110834975Y-45162636D01*
X110834974Y-45162635D01*
X110834972Y-45162634D01*
X110700591Y-45109641D01*
X110616148Y-45099500D01*
X110616144Y-45099500D01*
X110083856Y-45099500D01*
X110083853Y-45099500D01*
X110083841Y-45099501D01*
X110070955Y-45101048D01*
X110010925Y-45089211D01*
X109989152Y-45072758D01*
X109667313Y-44750920D01*
X109667308Y-44750916D01*
X109575991Y-44698194D01*
X109575993Y-44698194D01*
X109536470Y-44687604D01*
X109474127Y-44670900D01*
X109474125Y-44670900D01*
X105337406Y-44670900D01*
X105337390Y-44670899D01*
X105331327Y-44670899D01*
X105225873Y-44670899D01*
X105225870Y-44670899D01*
X105124013Y-44698192D01*
X105124009Y-44698194D01*
X105032687Y-44750919D01*
X104958119Y-44825486D01*
X104958120Y-44825487D01*
X104958118Y-44825489D01*
X104958117Y-44825489D01*
X104710847Y-45072758D01*
X104656331Y-45100535D01*
X104629044Y-45101048D01*
X104616158Y-45099501D01*
X104616146Y-45099500D01*
X104616144Y-45099500D01*
X104083856Y-45099500D01*
X104083851Y-45099500D01*
X103999408Y-45109641D01*
X103865027Y-45162634D01*
X103749922Y-45249922D01*
X103662634Y-45365027D01*
X103609641Y-45499408D01*
X103608093Y-45512303D01*
X103582383Y-45567824D01*
X103528948Y-45597630D01*
X103509799Y-45599500D01*
X89258601Y-45599500D01*
X89200410Y-45580593D01*
X89188597Y-45570504D01*
X88287744Y-44669651D01*
X87297613Y-43679520D01*
X87297610Y-43679518D01*
X87297609Y-43679517D01*
X87297608Y-43679516D01*
X87206291Y-43626794D01*
X87206292Y-43626794D01*
X87123876Y-43604711D01*
X87072561Y-43571387D01*
X87050635Y-43514265D01*
X87050499Y-43509084D01*
X87050499Y-43425600D01*
X87069406Y-43367409D01*
X87118906Y-43331445D01*
X87149499Y-43326600D01*
X90081310Y-43326600D01*
X90139501Y-43345507D01*
X90175465Y-43395007D01*
X90175465Y-43456193D01*
X90163626Y-43480601D01*
X90149058Y-43502402D01*
X90069869Y-43693581D01*
X90029500Y-43896532D01*
X90029500Y-44103467D01*
X90069869Y-44306418D01*
X90149058Y-44497597D01*
X90230266Y-44619134D01*
X90264023Y-44669655D01*
X90410345Y-44815977D01*
X90582402Y-44930941D01*
X90773580Y-45010130D01*
X90976535Y-45050500D01*
X90976536Y-45050500D01*
X91183464Y-45050500D01*
X91183465Y-45050500D01*
X91386420Y-45010130D01*
X91577598Y-44930941D01*
X91749655Y-44815977D01*
X91895977Y-44669655D01*
X92010941Y-44497598D01*
X92090130Y-44306420D01*
X92130500Y-44103465D01*
X92130500Y-43896535D01*
X92090130Y-43693580D01*
X92010941Y-43502402D01*
X91996373Y-43480600D01*
X91979766Y-43421713D01*
X92000944Y-43364310D01*
X92051818Y-43330317D01*
X92078690Y-43326600D01*
X92339199Y-43326600D01*
X92397390Y-43345507D01*
X92409203Y-43355596D01*
X92603314Y-43549707D01*
X92631091Y-43604224D01*
X92624775Y-43657594D01*
X92609870Y-43693579D01*
X92609870Y-43693580D01*
X92569500Y-43896532D01*
X92569500Y-44103467D01*
X92609869Y-44306418D01*
X92689058Y-44497597D01*
X92770266Y-44619134D01*
X92804023Y-44669655D01*
X92950345Y-44815977D01*
X93122402Y-44930941D01*
X93313580Y-45010130D01*
X93516535Y-45050500D01*
X93516536Y-45050500D01*
X93723464Y-45050500D01*
X93723465Y-45050500D01*
X93926420Y-45010130D01*
X94117598Y-44930941D01*
X94289655Y-44815977D01*
X94435977Y-44669655D01*
X94550941Y-44497598D01*
X94630130Y-44306420D01*
X94670500Y-44103465D01*
X94670500Y-43896535D01*
X94670499Y-43896532D01*
X95109500Y-43896532D01*
X95109500Y-44103467D01*
X95149869Y-44306418D01*
X95229058Y-44497597D01*
X95310266Y-44619134D01*
X95344023Y-44669655D01*
X95490345Y-44815977D01*
X95662402Y-44930941D01*
X95853580Y-45010130D01*
X96056535Y-45050500D01*
X96056536Y-45050500D01*
X96263464Y-45050500D01*
X96263465Y-45050500D01*
X96466420Y-45010130D01*
X96657598Y-44930941D01*
X96829655Y-44815977D01*
X96975977Y-44669655D01*
X97090941Y-44497598D01*
X97170130Y-44306420D01*
X97210500Y-44103465D01*
X97210500Y-43896535D01*
X97170130Y-43693580D01*
X97090941Y-43502402D01*
X96975977Y-43330345D01*
X96829655Y-43184023D01*
X96676068Y-43081400D01*
X96657597Y-43069058D01*
X96466418Y-42989869D01*
X96263467Y-42949500D01*
X96263465Y-42949500D01*
X96056535Y-42949500D01*
X96056532Y-42949500D01*
X95853581Y-42989869D01*
X95662402Y-43069058D01*
X95490348Y-43184020D01*
X95344020Y-43330348D01*
X95229058Y-43502402D01*
X95149869Y-43693581D01*
X95109500Y-43896532D01*
X94670499Y-43896532D01*
X94630130Y-43693580D01*
X94550941Y-43502402D01*
X94435977Y-43330345D01*
X94289655Y-43184023D01*
X94136068Y-43081400D01*
X94117597Y-43069058D01*
X93926418Y-42989869D01*
X93723467Y-42949500D01*
X93723465Y-42949500D01*
X93516535Y-42949500D01*
X93516532Y-42949500D01*
X93313580Y-42989870D01*
X93313579Y-42989870D01*
X93277594Y-43004775D01*
X93216598Y-43009574D01*
X93169708Y-42983314D01*
X92792013Y-42605620D01*
X92792008Y-42605616D01*
X92700691Y-42552894D01*
X92700693Y-42552894D01*
X92661170Y-42542304D01*
X92598827Y-42525600D01*
X74668573Y-42525600D01*
X74625990Y-42537010D01*
X74566708Y-42552894D01*
X74528260Y-42575092D01*
X74528261Y-42575093D01*
X74475386Y-42605620D01*
X73337148Y-43743856D01*
X73282632Y-43771633D01*
X73222200Y-43762062D01*
X73178935Y-43718797D01*
X73171781Y-43698165D01*
X73171543Y-43698238D01*
X73170130Y-43693582D01*
X73170130Y-43693581D01*
X73170130Y-43693580D01*
X73090941Y-43502402D01*
X72975977Y-43330345D01*
X72829655Y-43184023D01*
X72676068Y-43081400D01*
X72657597Y-43069058D01*
X72466418Y-42989869D01*
X72263467Y-42949500D01*
X72263465Y-42949500D01*
X72056535Y-42949500D01*
X72056532Y-42949500D01*
X71853581Y-42989869D01*
X71662402Y-43069058D01*
X71490348Y-43184020D01*
X71344019Y-43330349D01*
X71289483Y-43411969D01*
X71241433Y-43449848D01*
X71180295Y-43452250D01*
X71137164Y-43426971D01*
X70740282Y-43030089D01*
X70326713Y-42616520D01*
X70326710Y-42616518D01*
X70326709Y-42616517D01*
X70326708Y-42616516D01*
X70235391Y-42563794D01*
X70235393Y-42563794D01*
X70195870Y-42553204D01*
X70133527Y-42536500D01*
X44195727Y-42536500D01*
X44090273Y-42536500D01*
X44027929Y-42553204D01*
X43988407Y-42563794D01*
X43897091Y-42616516D01*
X43897086Y-42616520D01*
X43530291Y-42983314D01*
X43475775Y-43011091D01*
X43422404Y-43004775D01*
X43386418Y-42989869D01*
X43183467Y-42949500D01*
X43183465Y-42949500D01*
X42976535Y-42949500D01*
X42976532Y-42949500D01*
X42773581Y-42989869D01*
X42582402Y-43069058D01*
X42410348Y-43184020D01*
X42264020Y-43330348D01*
X42149058Y-43502402D01*
X42069869Y-43693581D01*
X42029500Y-43896532D01*
X42029500Y-44103467D01*
X42069869Y-44306418D01*
X42149058Y-44497597D01*
X42230266Y-44619134D01*
X42264023Y-44669655D01*
X42410345Y-44815977D01*
X42582402Y-44930941D01*
X42582409Y-44930943D01*
X42586233Y-44932988D01*
X42628641Y-44977093D01*
X42637026Y-45037701D01*
X42608185Y-45091663D01*
X42553134Y-45118366D01*
X42539567Y-45119300D01*
X42266700Y-45119300D01*
X42208509Y-45100393D01*
X42196696Y-45090304D01*
X41556685Y-44450292D01*
X41528908Y-44395775D01*
X41535224Y-44342403D01*
X41550130Y-44306420D01*
X41590500Y-44103465D01*
X41590500Y-43896535D01*
X41550130Y-43693580D01*
X41470941Y-43502402D01*
X41355977Y-43330345D01*
X41209655Y-43184023D01*
X41056068Y-43081400D01*
X41037597Y-43069058D01*
X40846418Y-42989869D01*
X40643467Y-42949500D01*
X40643465Y-42949500D01*
X40436535Y-42949500D01*
X40436532Y-42949500D01*
X40233581Y-42989869D01*
X40042402Y-43069058D01*
X39870348Y-43184020D01*
X39724017Y-43330351D01*
X39653515Y-43435866D01*
X39605466Y-43473746D01*
X39544327Y-43476148D01*
X39493454Y-43442155D01*
X39472276Y-43384752D01*
X39472200Y-43380865D01*
X39472200Y-43055374D01*
X39472200Y-43055373D01*
X39454649Y-42989870D01*
X39454649Y-42989869D01*
X39454649Y-42989868D01*
X39444907Y-42953512D01*
X39444905Y-42953508D01*
X39392183Y-42862191D01*
X39392181Y-42862189D01*
X39392180Y-42862187D01*
X38890413Y-42360420D01*
X38890410Y-42360418D01*
X38890408Y-42360416D01*
X38799091Y-42307694D01*
X38799093Y-42307694D01*
X38759570Y-42297104D01*
X38697227Y-42280400D01*
X38697225Y-42280400D01*
X37170548Y-42280400D01*
X37112357Y-42261493D01*
X37076393Y-42211993D01*
X37076393Y-42150807D01*
X37084812Y-42131900D01*
X37108377Y-42091084D01*
X37149300Y-41938357D01*
X37149300Y-41866201D01*
X37168207Y-41808010D01*
X37178296Y-41796197D01*
X38544997Y-40429496D01*
X38599514Y-40401719D01*
X38615001Y-40400500D01*
X103509799Y-40400500D01*
X103567990Y-40419407D01*
X103603954Y-40468907D01*
X103608093Y-40487697D01*
X103609641Y-40500591D01*
X103662634Y-40634972D01*
X103662635Y-40634974D01*
X103662636Y-40634975D01*
X103749922Y-40750078D01*
X103865025Y-40837364D01*
X103865026Y-40837364D01*
X103865027Y-40837365D01*
X103932217Y-40863861D01*
X103999410Y-40890359D01*
X104083856Y-40900500D01*
X104083858Y-40900500D01*
X104616144Y-40900500D01*
X104616158Y-40900499D01*
X104629038Y-40898952D01*
X104689068Y-40910784D01*
X104710849Y-40927241D01*
X104974918Y-41191310D01*
X104974920Y-41191313D01*
X105049487Y-41265880D01*
X105108105Y-41299723D01*
X105140813Y-41318607D01*
X105242674Y-41345901D01*
X105242676Y-41345901D01*
X105354190Y-41345901D01*
X105354206Y-41345900D01*
X109457325Y-41345900D01*
X109457327Y-41345900D01*
X109559188Y-41318607D01*
X109559190Y-41318605D01*
X109559192Y-41318605D01*
X109650508Y-41265883D01*
X109650508Y-41265882D01*
X109650513Y-41265880D01*
X109989151Y-40927240D01*
X110043666Y-40899464D01*
X110070958Y-40898951D01*
X110083856Y-40900500D01*
X110616142Y-40900500D01*
X110616144Y-40900500D01*
X110700590Y-40890359D01*
X110834975Y-40837364D01*
X110950078Y-40750078D01*
X111037364Y-40634975D01*
X111090359Y-40500590D01*
X111100500Y-40416144D01*
X111100500Y-39583856D01*
X111090359Y-39499410D01*
X111037364Y-39365025D01*
X110950078Y-39249922D01*
X110834975Y-39162636D01*
X110834974Y-39162635D01*
X110834972Y-39162634D01*
X110700591Y-39109641D01*
X110616148Y-39099500D01*
X110616144Y-39099500D01*
X110083856Y-39099500D01*
X110083851Y-39099500D01*
X109999408Y-39109641D01*
X109865027Y-39162634D01*
X109749922Y-39249922D01*
X109662634Y-39365027D01*
X109609641Y-39499408D01*
X109599500Y-39583851D01*
X109599500Y-40143099D01*
X109580593Y-40201290D01*
X109570504Y-40213103D01*
X109267703Y-40515904D01*
X109213186Y-40543681D01*
X109197699Y-40544900D01*
X105502299Y-40544900D01*
X105444108Y-40525993D01*
X105432295Y-40515903D01*
X105129496Y-40213103D01*
X105101719Y-40158587D01*
X105100500Y-40143100D01*
X105100500Y-39583857D01*
X105100499Y-39583851D01*
X105100108Y-39580593D01*
X105090359Y-39499410D01*
X105037364Y-39365025D01*
X104950078Y-39249922D01*
X104834975Y-39162636D01*
X104834974Y-39162635D01*
X104834972Y-39162634D01*
X104700591Y-39109641D01*
X104616148Y-39099500D01*
X104616144Y-39099500D01*
X104083856Y-39099500D01*
X104083851Y-39099500D01*
X103999408Y-39109641D01*
X103865027Y-39162634D01*
X103749922Y-39249922D01*
X103662634Y-39365027D01*
X103609641Y-39499408D01*
X103608093Y-39512303D01*
X103582383Y-39567824D01*
X103528948Y-39597630D01*
X103509799Y-39599500D01*
X38752000Y-39599500D01*
X38693809Y-39580593D01*
X38657845Y-39531093D01*
X38657845Y-39469907D01*
X38681996Y-39430496D01*
X40162796Y-37949696D01*
X40217313Y-37921919D01*
X40232800Y-37920700D01*
X70993509Y-37920700D01*
X71051700Y-37939607D01*
X71087664Y-37989107D01*
X71088896Y-38036180D01*
X71090647Y-38036411D01*
X71089800Y-38042842D01*
X71089800Y-38042843D01*
X71089800Y-38200957D01*
X71130723Y-38353684D01*
X71209780Y-38490616D01*
X71321584Y-38602420D01*
X71458516Y-38681477D01*
X71611243Y-38722400D01*
X71611245Y-38722400D01*
X71769355Y-38722400D01*
X71769357Y-38722400D01*
X71922084Y-38681477D01*
X72059016Y-38602420D01*
X72084529Y-38576906D01*
X72110041Y-38551396D01*
X72164558Y-38523619D01*
X72180044Y-38522400D01*
X81900525Y-38522400D01*
X81900527Y-38522400D01*
X82002388Y-38495107D01*
X82002390Y-38495105D01*
X82002392Y-38495105D01*
X82093708Y-38442383D01*
X82093708Y-38442382D01*
X82093713Y-38442380D01*
X84259561Y-36276532D01*
X90029500Y-36276532D01*
X90029500Y-36483467D01*
X90069869Y-36686418D01*
X90149058Y-36877597D01*
X90247273Y-37024587D01*
X90264023Y-37049655D01*
X90410345Y-37195977D01*
X90582402Y-37310941D01*
X90773580Y-37390130D01*
X90976535Y-37430500D01*
X90976536Y-37430500D01*
X91183464Y-37430500D01*
X91183465Y-37430500D01*
X91386420Y-37390130D01*
X91577598Y-37310941D01*
X91749655Y-37195977D01*
X91895977Y-37049655D01*
X92010941Y-36877598D01*
X92090130Y-36686420D01*
X92130500Y-36483465D01*
X92130500Y-36276535D01*
X92130499Y-36276532D01*
X92569500Y-36276532D01*
X92569500Y-36483467D01*
X92609869Y-36686418D01*
X92689058Y-36877597D01*
X92787273Y-37024587D01*
X92804023Y-37049655D01*
X92950345Y-37195977D01*
X93122402Y-37310941D01*
X93313580Y-37390130D01*
X93516535Y-37430500D01*
X93516536Y-37430500D01*
X93723464Y-37430500D01*
X93723465Y-37430500D01*
X93926420Y-37390130D01*
X94117598Y-37310941D01*
X94289655Y-37195977D01*
X94435977Y-37049655D01*
X94550941Y-36877598D01*
X94630130Y-36686420D01*
X94670500Y-36483465D01*
X94670500Y-36276535D01*
X94670499Y-36276532D01*
X95109500Y-36276532D01*
X95109500Y-36483467D01*
X95149869Y-36686418D01*
X95229058Y-36877597D01*
X95327273Y-37024587D01*
X95344023Y-37049655D01*
X95490345Y-37195977D01*
X95662402Y-37310941D01*
X95853580Y-37390130D01*
X96056535Y-37430500D01*
X96056536Y-37430500D01*
X96263464Y-37430500D01*
X96263465Y-37430500D01*
X96466420Y-37390130D01*
X96657598Y-37310941D01*
X96829655Y-37195977D01*
X96975977Y-37049655D01*
X97090941Y-36877598D01*
X97170130Y-36686420D01*
X97210500Y-36483465D01*
X97210500Y-36276535D01*
X97170130Y-36073580D01*
X97090941Y-35882402D01*
X96975977Y-35710345D01*
X96829655Y-35564023D01*
X96657598Y-35449059D01*
X96657599Y-35449059D01*
X96657597Y-35449058D01*
X96466418Y-35369869D01*
X96263467Y-35329500D01*
X96263465Y-35329500D01*
X96056535Y-35329500D01*
X96056532Y-35329500D01*
X95853581Y-35369869D01*
X95662402Y-35449058D01*
X95490348Y-35564020D01*
X95344020Y-35710348D01*
X95229058Y-35882402D01*
X95149869Y-36073581D01*
X95109500Y-36276532D01*
X94670499Y-36276532D01*
X94630130Y-36073580D01*
X94550941Y-35882402D01*
X94435977Y-35710345D01*
X94289655Y-35564023D01*
X94117598Y-35449059D01*
X94117599Y-35449059D01*
X94117597Y-35449058D01*
X93926418Y-35369869D01*
X93723467Y-35329500D01*
X93723465Y-35329500D01*
X93516535Y-35329500D01*
X93516532Y-35329500D01*
X93313581Y-35369869D01*
X93122402Y-35449058D01*
X92950348Y-35564020D01*
X92804020Y-35710348D01*
X92689058Y-35882402D01*
X92609869Y-36073581D01*
X92569500Y-36276532D01*
X92130499Y-36276532D01*
X92090130Y-36073580D01*
X92010941Y-35882402D01*
X91895977Y-35710345D01*
X91749655Y-35564023D01*
X91577598Y-35449059D01*
X91577599Y-35449059D01*
X91577597Y-35449058D01*
X91386418Y-35369869D01*
X91183467Y-35329500D01*
X91183465Y-35329500D01*
X90976535Y-35329500D01*
X90976532Y-35329500D01*
X90773581Y-35369869D01*
X90582402Y-35449058D01*
X90410348Y-35564020D01*
X90264020Y-35710348D01*
X90149058Y-35882402D01*
X90069869Y-36073581D01*
X90029500Y-36276532D01*
X84259561Y-36276532D01*
X85635397Y-34900696D01*
X85689914Y-34872919D01*
X85705401Y-34871700D01*
X99464725Y-34871700D01*
X99464727Y-34871700D01*
X99566588Y-34844407D01*
X99566590Y-34844405D01*
X99566592Y-34844405D01*
X99657908Y-34791683D01*
X99657908Y-34791682D01*
X99657913Y-34791680D01*
X102850349Y-31599242D01*
X102904864Y-31571467D01*
X102965296Y-31581038D01*
X103007877Y-31622986D01*
X103010306Y-31627581D01*
X103090945Y-31736844D01*
X103090947Y-31736846D01*
X103090950Y-31736850D01*
X103090953Y-31736852D01*
X103090955Y-31736854D01*
X103203674Y-31820045D01*
X103239267Y-31869813D01*
X103238809Y-31930996D01*
X103203674Y-31979355D01*
X103090955Y-32062545D01*
X103090945Y-32062555D01*
X103010307Y-32171816D01*
X102965455Y-32299996D01*
X102965453Y-32300005D01*
X102962600Y-32330425D01*
X102962600Y-32738974D01*
X102965453Y-32769394D01*
X102965455Y-32769403D01*
X103010307Y-32897583D01*
X103090945Y-33006844D01*
X103090947Y-33006846D01*
X103090950Y-33006850D01*
X103090953Y-33006852D01*
X103090955Y-33006854D01*
X103200216Y-33087492D01*
X103200217Y-33087492D01*
X103200218Y-33087493D01*
X103328401Y-33132346D01*
X103358825Y-33135199D01*
X103358827Y-33135200D01*
X103358834Y-33135200D01*
X105117373Y-33135200D01*
X105117373Y-33135199D01*
X105147799Y-33132346D01*
X105275982Y-33087493D01*
X105385250Y-33006850D01*
X105465893Y-32897582D01*
X105510746Y-32769399D01*
X105513599Y-32738973D01*
X105513600Y-32738973D01*
X105513600Y-32330427D01*
X105513599Y-32330425D01*
X105513580Y-32330219D01*
X105510746Y-32300001D01*
X105465893Y-32171818D01*
X105385250Y-32062550D01*
X105385246Y-32062547D01*
X105385244Y-32062545D01*
X105272525Y-31979355D01*
X105236932Y-31929588D01*
X105237390Y-31868404D01*
X105272525Y-31820045D01*
X105339730Y-31770444D01*
X105385250Y-31736850D01*
X105465893Y-31627582D01*
X105510746Y-31499399D01*
X105513599Y-31468973D01*
X105513600Y-31468973D01*
X105513600Y-31060427D01*
X105513599Y-31060425D01*
X105510747Y-31030009D01*
X105510746Y-31030005D01*
X105510746Y-31030001D01*
X105510744Y-31029995D01*
X105509968Y-31026443D01*
X105510196Y-31024140D01*
X105510184Y-31024004D01*
X105510210Y-31024001D01*
X105516019Y-30965558D01*
X105536680Y-30935312D01*
X106191910Y-30280081D01*
X106191913Y-30280080D01*
X106266480Y-30205513D01*
X106319207Y-30114187D01*
X106346501Y-30012326D01*
X106346501Y-29906873D01*
X106346501Y-29900811D01*
X106346500Y-29900793D01*
X106346500Y-27434474D01*
X106346500Y-27434473D01*
X106319207Y-27332613D01*
X106319207Y-27332612D01*
X106319207Y-27332611D01*
X106266483Y-27241291D01*
X106266482Y-27241290D01*
X106266481Y-27241289D01*
X106266480Y-27241287D01*
X105537149Y-26511956D01*
X105509372Y-26457439D01*
X105510302Y-26425406D01*
X105510184Y-26425395D01*
X105510356Y-26423557D01*
X105510436Y-26420815D01*
X105510744Y-26419404D01*
X105510746Y-26419399D01*
X105513599Y-26388973D01*
X105513600Y-26388973D01*
X105513600Y-25980427D01*
X105513599Y-25980425D01*
X105510746Y-25950005D01*
X105510746Y-25950001D01*
X105465893Y-25821818D01*
X105438971Y-25785340D01*
X105385254Y-25712555D01*
X105385252Y-25712553D01*
X105385250Y-25712550D01*
X105385246Y-25712547D01*
X105385244Y-25712545D01*
X105272525Y-25629355D01*
X105236932Y-25579588D01*
X105237390Y-25518404D01*
X105272525Y-25470045D01*
X105339730Y-25420444D01*
X105385250Y-25386850D01*
X105465893Y-25277582D01*
X105510746Y-25149399D01*
X105513599Y-25118973D01*
X105513600Y-25118973D01*
X105513600Y-24710427D01*
X105513599Y-24710425D01*
X105510746Y-24680005D01*
X105510746Y-24680001D01*
X105465893Y-24551818D01*
X105385250Y-24442550D01*
X105385246Y-24442547D01*
X105385244Y-24442545D01*
X105275983Y-24361907D01*
X105147803Y-24317055D01*
X105147794Y-24317053D01*
X105117374Y-24314200D01*
X105117366Y-24314200D01*
X103358834Y-24314200D01*
X103358825Y-24314200D01*
X103328405Y-24317053D01*
X103328396Y-24317055D01*
X103200216Y-24361907D01*
X103090955Y-24442545D01*
X103090945Y-24442555D01*
X103010307Y-24551816D01*
X102965455Y-24679996D01*
X102965453Y-24680005D01*
X102962600Y-24710425D01*
X102962600Y-25118974D01*
X102965453Y-25149394D01*
X102965455Y-25149403D01*
X103010307Y-25277583D01*
X103090945Y-25386844D01*
X103090947Y-25386846D01*
X103090950Y-25386850D01*
X103090953Y-25386852D01*
X103090955Y-25386854D01*
X103203674Y-25470045D01*
X103239267Y-25519813D01*
X103238809Y-25580996D01*
X103203674Y-25629355D01*
X103090955Y-25712545D01*
X103090945Y-25712555D01*
X103010307Y-25821816D01*
X102965455Y-25949996D01*
X102965453Y-25950005D01*
X102962600Y-25980425D01*
X102962600Y-26388974D01*
X102965453Y-26419394D01*
X102965455Y-26419403D01*
X103010307Y-26547583D01*
X103090945Y-26656844D01*
X103090947Y-26656846D01*
X103090950Y-26656850D01*
X103090953Y-26656852D01*
X103090955Y-26656854D01*
X103203674Y-26740045D01*
X103239267Y-26789813D01*
X103238809Y-26850996D01*
X103203674Y-26899355D01*
X103090955Y-26982545D01*
X103090945Y-26982555D01*
X103010307Y-27091816D01*
X103010305Y-27091819D01*
X103000807Y-27118963D01*
X102963741Y-27167643D01*
X102905140Y-27185238D01*
X102847388Y-27165028D01*
X102837360Y-27156267D01*
X102192596Y-26511503D01*
X102164819Y-26456986D01*
X102163600Y-26441499D01*
X102163600Y-22268574D01*
X102163600Y-22268573D01*
X102136307Y-22166713D01*
X102136307Y-22166712D01*
X102136307Y-22166711D01*
X102083583Y-22075391D01*
X102083582Y-22075390D01*
X102083581Y-22075389D01*
X102083580Y-22075387D01*
X93659180Y-13650987D01*
X93631403Y-13596470D01*
X93640973Y-13536042D01*
X93719579Y-13381772D01*
X93799860Y-13134693D01*
X93840500Y-12878097D01*
X93840500Y-12618303D01*
X93840500Y-12618299D01*
X93799861Y-12361711D01*
X93772476Y-12277427D01*
X93719579Y-12114628D01*
X93601634Y-11883149D01*
X93448931Y-11672971D01*
X93265229Y-11489269D01*
X93055051Y-11336566D01*
X93055050Y-11336565D01*
X93055048Y-11336564D01*
X92895509Y-11255275D01*
X92823572Y-11218621D01*
X92823569Y-11218620D01*
X92823567Y-11218619D01*
X92576488Y-11138338D01*
X92319900Y-11097700D01*
X92319897Y-11097700D01*
X92060103Y-11097700D01*
X92060100Y-11097700D01*
X91803511Y-11138338D01*
X91556432Y-11218619D01*
X91324951Y-11336564D01*
X91114772Y-11489268D01*
X90931068Y-11672972D01*
X90778364Y-11883151D01*
X90660419Y-12114632D01*
X90580138Y-12361711D01*
X90539500Y-12618299D01*
X90539500Y-12878100D01*
X90580138Y-13134688D01*
X90580140Y-13134693D01*
X90660421Y-13381772D01*
X90723802Y-13506164D01*
X90769815Y-13596470D01*
X90778366Y-13613251D01*
X90931069Y-13823429D01*
X91114771Y-14007131D01*
X91324949Y-14159834D01*
X91556428Y-14277779D01*
X91803507Y-14358060D01*
X91803508Y-14358060D01*
X91803511Y-14358061D01*
X92060100Y-14398700D01*
X92060103Y-14398700D01*
X92319900Y-14398700D01*
X92576488Y-14358061D01*
X92576489Y-14358060D01*
X92576493Y-14358060D01*
X92823572Y-14277779D01*
X92977839Y-14199174D01*
X93038269Y-14189603D01*
X93092786Y-14217380D01*
X93092787Y-14217380D01*
X101333604Y-22458197D01*
X101361381Y-22512714D01*
X101362600Y-22528201D01*
X101362600Y-26595673D01*
X101362600Y-26701127D01*
X101372344Y-26737492D01*
X101389894Y-26802992D01*
X101442616Y-26894308D01*
X101442617Y-26894309D01*
X101442618Y-26894310D01*
X101442620Y-26894313D01*
X102200507Y-27652200D01*
X102940352Y-28392045D01*
X102968129Y-28446562D01*
X102964809Y-28483695D01*
X102966739Y-28484117D01*
X102965453Y-28490001D01*
X102962600Y-28520425D01*
X102962600Y-28860200D01*
X102943693Y-28918391D01*
X102894193Y-28954355D01*
X102863600Y-28959200D01*
X102596001Y-28959200D01*
X102537810Y-28940293D01*
X102525997Y-28930204D01*
X101911596Y-28315803D01*
X101883819Y-28261286D01*
X101882600Y-28245799D01*
X101882600Y-28173644D01*
X101882135Y-28171907D01*
X101841677Y-28020916D01*
X101762620Y-27883984D01*
X101650816Y-27772180D01*
X101513884Y-27693123D01*
X101361157Y-27652200D01*
X101203043Y-27652200D01*
X101050316Y-27693123D01*
X100913384Y-27772180D01*
X100801580Y-27883984D01*
X100722523Y-28020916D01*
X100694084Y-28127054D01*
X100681600Y-28173644D01*
X100681600Y-28285485D01*
X100662693Y-28343676D01*
X100613193Y-28379640D01*
X100552007Y-28379640D01*
X100502945Y-28344273D01*
X100435254Y-28252555D01*
X100435252Y-28252553D01*
X100435250Y-28252550D01*
X100435246Y-28252547D01*
X100435244Y-28252545D01*
X100325983Y-28171907D01*
X100197803Y-28127055D01*
X100197794Y-28127053D01*
X100167374Y-28124200D01*
X100167366Y-28124200D01*
X98408834Y-28124200D01*
X98408825Y-28124200D01*
X98378405Y-28127053D01*
X98378396Y-28127055D01*
X98250216Y-28171907D01*
X98140950Y-28252549D01*
X98117748Y-28283988D01*
X98067980Y-28319581D01*
X98038092Y-28324200D01*
X96037301Y-28324200D01*
X95979110Y-28305293D01*
X95967297Y-28295204D01*
X92382518Y-24710425D01*
X98012600Y-24710425D01*
X98012600Y-25118974D01*
X98015453Y-25149394D01*
X98015455Y-25149403D01*
X98060307Y-25277583D01*
X98140945Y-25386844D01*
X98140947Y-25386846D01*
X98140950Y-25386850D01*
X98140953Y-25386852D01*
X98140955Y-25386854D01*
X98253674Y-25470045D01*
X98289267Y-25519813D01*
X98288809Y-25580996D01*
X98253674Y-25629355D01*
X98140955Y-25712545D01*
X98140945Y-25712555D01*
X98060307Y-25821816D01*
X98015455Y-25949996D01*
X98015453Y-25950005D01*
X98012600Y-25980425D01*
X98012600Y-26388974D01*
X98015453Y-26419394D01*
X98015455Y-26419403D01*
X98060307Y-26547583D01*
X98140945Y-26656844D01*
X98140947Y-26656846D01*
X98140950Y-26656850D01*
X98140953Y-26656852D01*
X98140955Y-26656854D01*
X98250216Y-26737492D01*
X98250217Y-26737492D01*
X98250218Y-26737493D01*
X98378401Y-26782346D01*
X98408825Y-26785199D01*
X98408827Y-26785200D01*
X98408834Y-26785200D01*
X100167373Y-26785200D01*
X100167373Y-26785199D01*
X100197799Y-26782346D01*
X100325982Y-26737493D01*
X100435250Y-26656850D01*
X100515893Y-26547582D01*
X100560746Y-26419399D01*
X100563599Y-26388973D01*
X100563600Y-26388973D01*
X100563600Y-25980427D01*
X100563599Y-25980425D01*
X100560746Y-25950005D01*
X100560746Y-25950001D01*
X100515893Y-25821818D01*
X100488971Y-25785340D01*
X100435254Y-25712555D01*
X100435252Y-25712553D01*
X100435250Y-25712550D01*
X100435246Y-25712547D01*
X100435244Y-25712545D01*
X100322525Y-25629355D01*
X100286932Y-25579588D01*
X100287390Y-25518404D01*
X100322525Y-25470045D01*
X100389730Y-25420444D01*
X100435250Y-25386850D01*
X100515893Y-25277582D01*
X100560746Y-25149399D01*
X100563599Y-25118973D01*
X100563600Y-25118973D01*
X100563600Y-24710427D01*
X100563599Y-24710425D01*
X100560746Y-24680005D01*
X100560746Y-24680001D01*
X100515893Y-24551818D01*
X100435250Y-24442550D01*
X100435246Y-24442547D01*
X100435244Y-24442545D01*
X100325983Y-24361907D01*
X100197803Y-24317055D01*
X100197794Y-24317053D01*
X100167374Y-24314200D01*
X100167366Y-24314200D01*
X98408834Y-24314200D01*
X98408825Y-24314200D01*
X98378405Y-24317053D01*
X98378396Y-24317055D01*
X98250216Y-24361907D01*
X98140955Y-24442545D01*
X98140945Y-24442555D01*
X98060307Y-24551816D01*
X98015455Y-24679996D01*
X98015453Y-24680005D01*
X98012600Y-24710425D01*
X92382518Y-24710425D01*
X84699496Y-17027403D01*
X84671719Y-16972886D01*
X84670500Y-16957399D01*
X84670500Y-14497699D01*
X84689407Y-14439508D01*
X84738907Y-14403544D01*
X84769500Y-14398699D01*
X85413096Y-14398699D01*
X85413098Y-14398699D01*
X85501564Y-14388076D01*
X85642342Y-14332561D01*
X85762922Y-14241122D01*
X85854361Y-14120542D01*
X85909876Y-13979764D01*
X85920500Y-13891299D01*
X85920499Y-11605102D01*
X85909876Y-11516636D01*
X85854361Y-11375858D01*
X85762922Y-11255278D01*
X85642342Y-11163839D01*
X85501564Y-11108324D01*
X85413099Y-11097700D01*
X83126903Y-11097700D01*
X83126897Y-11097701D01*
X83038436Y-11108324D01*
X82897658Y-11163839D01*
X82897657Y-11163839D01*
X82897656Y-11163840D01*
X82777081Y-11255275D01*
X82777075Y-11255281D01*
X82685640Y-11375856D01*
X82630124Y-11516635D01*
X82619500Y-11605098D01*
X82619500Y-13891296D01*
X82619501Y-13891299D01*
X82630124Y-13979764D01*
X82685639Y-14120542D01*
X82777078Y-14241122D01*
X82897658Y-14332561D01*
X83038436Y-14388076D01*
X83126901Y-14398700D01*
X83770500Y-14398699D01*
X83828691Y-14417606D01*
X83864655Y-14467106D01*
X83869500Y-14497699D01*
X83869500Y-16664800D01*
X83850593Y-16722991D01*
X83801093Y-16758955D01*
X83770500Y-16763800D01*
X79601773Y-16763800D01*
X79499913Y-16791093D01*
X79499912Y-16791093D01*
X79499910Y-16791094D01*
X79499909Y-16791094D01*
X79408589Y-16843818D01*
X76813803Y-19438604D01*
X76759286Y-19466381D01*
X76743799Y-19467600D01*
X76671643Y-19467600D01*
X76518916Y-19508523D01*
X76381984Y-19587580D01*
X76270180Y-19699384D01*
X76191123Y-19836316D01*
X76150200Y-19989043D01*
X76150200Y-20147157D01*
X76191123Y-20299884D01*
X76270180Y-20436816D01*
X76381984Y-20548620D01*
X76518916Y-20627677D01*
X76671643Y-20668600D01*
X76671645Y-20668600D01*
X76829755Y-20668600D01*
X76829757Y-20668600D01*
X76982484Y-20627677D01*
X77119416Y-20548620D01*
X77231220Y-20436816D01*
X77310277Y-20299884D01*
X77351200Y-20147157D01*
X77351200Y-20075001D01*
X77370107Y-20016810D01*
X77380196Y-20004997D01*
X79791397Y-17593796D01*
X79845914Y-17566019D01*
X79861401Y-17564800D01*
X84063099Y-17564800D01*
X84121290Y-17583707D01*
X84133103Y-17593796D01*
X95509920Y-28970613D01*
X95509919Y-28970613D01*
X95584487Y-29045180D01*
X95675813Y-29097907D01*
X95777673Y-29125200D01*
X98038092Y-29125200D01*
X98096283Y-29144107D01*
X98117748Y-29165412D01*
X98140950Y-29196850D01*
X98250216Y-29277492D01*
X98250217Y-29277492D01*
X98250218Y-29277493D01*
X98378401Y-29322346D01*
X98408825Y-29325199D01*
X98408827Y-29325200D01*
X98408834Y-29325200D01*
X100167373Y-29325200D01*
X100167373Y-29325199D01*
X100197799Y-29322346D01*
X100325982Y-29277493D01*
X100435250Y-29196850D01*
X100515893Y-29087582D01*
X100560746Y-28959399D01*
X100563599Y-28928973D01*
X100563600Y-28928973D01*
X100563600Y-28578694D01*
X100582507Y-28520503D01*
X100632007Y-28484539D01*
X100693193Y-28484539D01*
X100742693Y-28520503D01*
X100748328Y-28529181D01*
X100801580Y-28621416D01*
X100913384Y-28733220D01*
X101050316Y-28812277D01*
X101203043Y-28853200D01*
X101275199Y-28853200D01*
X101333390Y-28872107D01*
X101345203Y-28882196D01*
X102068620Y-29605613D01*
X102068619Y-29605613D01*
X102141777Y-29678770D01*
X102143187Y-29680180D01*
X102234513Y-29732907D01*
X102336373Y-29760200D01*
X102375899Y-29760200D01*
X102434090Y-29779107D01*
X102470054Y-29828607D01*
X102470054Y-29889793D01*
X102445903Y-29929204D01*
X100876103Y-31499004D01*
X100821586Y-31526781D01*
X100806099Y-31528000D01*
X100662600Y-31528000D01*
X100604409Y-31509093D01*
X100568445Y-31459593D01*
X100563600Y-31429000D01*
X100563600Y-31060427D01*
X100563599Y-31060425D01*
X100560746Y-31030001D01*
X100515893Y-30901818D01*
X100469932Y-30839543D01*
X100435254Y-30792555D01*
X100435252Y-30792553D01*
X100435250Y-30792550D01*
X100435246Y-30792547D01*
X100435244Y-30792545D01*
X100325983Y-30711907D01*
X100197803Y-30667055D01*
X100197794Y-30667053D01*
X100167374Y-30664200D01*
X100167366Y-30664200D01*
X98408834Y-30664200D01*
X98408825Y-30664200D01*
X98378405Y-30667053D01*
X98378396Y-30667055D01*
X98250216Y-30711907D01*
X98197635Y-30750714D01*
X98139587Y-30770056D01*
X98081257Y-30751584D01*
X98044924Y-30702355D01*
X98043225Y-30696699D01*
X98040577Y-30686816D01*
X97961520Y-30549884D01*
X97849716Y-30438080D01*
X97712784Y-30359023D01*
X97560057Y-30318100D01*
X97401943Y-30318100D01*
X97249216Y-30359023D01*
X97112284Y-30438080D01*
X97000480Y-30549884D01*
X96921423Y-30686816D01*
X96880500Y-30839543D01*
X96880500Y-30997657D01*
X96921423Y-31150384D01*
X97000480Y-31287316D01*
X97072162Y-31358998D01*
X97099938Y-31413513D01*
X97090367Y-31473945D01*
X97047102Y-31517210D01*
X97002157Y-31528000D01*
X75136327Y-31528000D01*
X75030873Y-31528000D01*
X74968529Y-31544704D01*
X74929007Y-31555294D01*
X74837691Y-31608016D01*
X74837690Y-31608017D01*
X70641193Y-35804513D01*
X70586676Y-35832290D01*
X70526244Y-35822719D01*
X70488873Y-35789510D01*
X70435979Y-35710348D01*
X70435977Y-35710345D01*
X70289655Y-35564023D01*
X70117598Y-35449059D01*
X70117599Y-35449059D01*
X70117597Y-35449058D01*
X69926418Y-35369869D01*
X69723467Y-35329500D01*
X69723465Y-35329500D01*
X69516535Y-35329500D01*
X69516532Y-35329500D01*
X69313581Y-35369869D01*
X69122402Y-35449058D01*
X68950348Y-35564020D01*
X68804020Y-35710348D01*
X68689058Y-35882402D01*
X68609869Y-36073581D01*
X68569500Y-36276532D01*
X68569500Y-36483467D01*
X68609869Y-36686418D01*
X68689058Y-36877597D01*
X68707646Y-36905416D01*
X68745868Y-36962620D01*
X68747926Y-36965699D01*
X68764534Y-37024587D01*
X68743356Y-37081990D01*
X68692482Y-37115983D01*
X68665610Y-37119700D01*
X68034390Y-37119700D01*
X67976199Y-37100793D01*
X67940235Y-37051293D01*
X67940235Y-36990107D01*
X67952074Y-36965699D01*
X68010941Y-36877598D01*
X68090130Y-36686420D01*
X68130500Y-36483465D01*
X68130500Y-36276535D01*
X68090130Y-36073580D01*
X68010941Y-35882402D01*
X67895977Y-35710345D01*
X67749655Y-35564023D01*
X67577598Y-35449059D01*
X67577599Y-35449059D01*
X67577597Y-35449058D01*
X67386418Y-35369869D01*
X67183467Y-35329500D01*
X67183465Y-35329500D01*
X66976535Y-35329500D01*
X66976532Y-35329500D01*
X66773580Y-35369870D01*
X66773578Y-35369870D01*
X66737593Y-35384775D01*
X66676596Y-35389574D01*
X66629706Y-35363314D01*
X57734797Y-26468405D01*
X48792513Y-17526120D01*
X48792510Y-17526118D01*
X48792508Y-17526116D01*
X48701191Y-17473394D01*
X48701193Y-17473394D01*
X48661670Y-17462804D01*
X48599327Y-17446100D01*
X48599325Y-17446100D01*
X16630300Y-17446100D01*
X16572109Y-17427193D01*
X16560296Y-17417104D01*
X11862151Y-12718958D01*
X11834374Y-12664441D01*
X11843945Y-12604009D01*
X11887210Y-12560744D01*
X11947642Y-12551173D01*
X11977101Y-12560745D01*
X12033361Y-12589411D01*
X12205591Y-12645371D01*
X12277136Y-12656702D01*
X12384451Y-12673700D01*
X12384454Y-12673700D01*
X12565549Y-12673700D01*
X12655025Y-12659528D01*
X12744409Y-12645371D01*
X12916639Y-12589411D01*
X13077994Y-12507196D01*
X13224501Y-12400753D01*
X13352553Y-12272701D01*
X13458996Y-12126194D01*
X13541211Y-11964839D01*
X13597171Y-11792609D01*
X13616120Y-11672971D01*
X13625500Y-11613749D01*
X13625500Y-11182650D01*
X16324500Y-11182650D01*
X16324500Y-11613749D01*
X16352828Y-11792606D01*
X16408788Y-11964837D01*
X16485112Y-12114632D01*
X16491004Y-12126194D01*
X16597447Y-12272701D01*
X16725499Y-12400753D01*
X16872006Y-12507196D01*
X17033361Y-12589411D01*
X17205591Y-12645371D01*
X17277136Y-12656702D01*
X17384451Y-12673700D01*
X17384454Y-12673700D01*
X17565549Y-12673700D01*
X17655025Y-12659528D01*
X17744409Y-12645371D01*
X17916639Y-12589411D01*
X18077994Y-12507196D01*
X18224501Y-12400753D01*
X18347828Y-12277425D01*
X18402343Y-12249649D01*
X18462775Y-12259220D01*
X18487830Y-12277423D01*
X20368187Y-14157780D01*
X20368189Y-14157781D01*
X20368191Y-14157783D01*
X20459508Y-14210505D01*
X20459506Y-14210505D01*
X20459510Y-14210506D01*
X20459512Y-14210507D01*
X20561373Y-14237800D01*
X20666827Y-14237800D01*
X66422999Y-14237800D01*
X66481190Y-14256707D01*
X66493003Y-14266796D01*
X82229504Y-30003297D01*
X82257281Y-30057814D01*
X82258500Y-30073301D01*
X82258500Y-30145457D01*
X82299423Y-30298184D01*
X82378480Y-30435116D01*
X82490284Y-30546920D01*
X82627216Y-30625977D01*
X82779943Y-30666900D01*
X82779945Y-30666900D01*
X82938055Y-30666900D01*
X82938057Y-30666900D01*
X83090784Y-30625977D01*
X83227716Y-30546920D01*
X83339520Y-30435116D01*
X83418577Y-30298184D01*
X83459500Y-30145457D01*
X83459500Y-29987343D01*
X83418577Y-29834616D01*
X83339520Y-29697684D01*
X83227716Y-29585880D01*
X83090784Y-29506823D01*
X82938057Y-29465900D01*
X82938055Y-29465900D01*
X82865901Y-29465900D01*
X82807710Y-29446993D01*
X82795897Y-29436904D01*
X75434380Y-22075387D01*
X66875813Y-13516820D01*
X66875810Y-13516818D01*
X66875809Y-13516817D01*
X66875808Y-13516816D01*
X66784491Y-13464094D01*
X66784493Y-13464094D01*
X66744970Y-13453504D01*
X66682627Y-13436800D01*
X66682625Y-13436800D01*
X20821001Y-13436800D01*
X20762810Y-13417893D01*
X20750997Y-13407804D01*
X20160935Y-12817742D01*
X20133158Y-12763225D01*
X20142729Y-12702793D01*
X20185994Y-12659528D01*
X20215447Y-12649957D01*
X20244409Y-12645371D01*
X20416639Y-12589411D01*
X20577994Y-12507196D01*
X20724501Y-12400753D01*
X20852553Y-12272701D01*
X20958996Y-12126194D01*
X21041211Y-11964839D01*
X21097171Y-11792609D01*
X21116120Y-11672971D01*
X21125500Y-11613749D01*
X21125500Y-11182650D01*
X23824500Y-11182650D01*
X23824500Y-11613749D01*
X23852828Y-11792606D01*
X23908788Y-11964837D01*
X23985112Y-12114632D01*
X23991004Y-12126194D01*
X24097447Y-12272701D01*
X24225499Y-12400753D01*
X24372006Y-12507196D01*
X24533361Y-12589411D01*
X24705591Y-12645371D01*
X24777136Y-12656702D01*
X24884451Y-12673700D01*
X24884454Y-12673700D01*
X25065549Y-12673700D01*
X25155025Y-12659528D01*
X25244409Y-12645371D01*
X25416639Y-12589411D01*
X25577994Y-12507196D01*
X25724501Y-12400753D01*
X25852553Y-12272701D01*
X25958996Y-12126194D01*
X26041211Y-11964839D01*
X26072965Y-11867107D01*
X26108929Y-11817608D01*
X26167119Y-11798700D01*
X26179425Y-11798700D01*
X26179427Y-11798700D01*
X26281287Y-11771407D01*
X26372613Y-11718680D01*
X26447180Y-11644113D01*
X26499907Y-11552787D01*
X26527200Y-11450927D01*
X26527200Y-11153401D01*
X26546107Y-11095210D01*
X26556196Y-11083397D01*
X27098797Y-10540796D01*
X27153314Y-10513019D01*
X27168801Y-10511800D01*
X28911794Y-10511800D01*
X28969985Y-10530707D01*
X29005949Y-10580207D01*
X29005949Y-10641393D01*
X28992975Y-10666855D01*
X28993035Y-10666892D01*
X28992569Y-10667651D01*
X28991888Y-10668989D01*
X28991005Y-10670204D01*
X28991003Y-10670206D01*
X28908788Y-10831562D01*
X28852828Y-11003793D01*
X28824500Y-11182650D01*
X28824500Y-11613749D01*
X28852828Y-11792606D01*
X28908788Y-11964837D01*
X28985112Y-12114632D01*
X28991004Y-12126194D01*
X29097447Y-12272701D01*
X29225499Y-12400753D01*
X29372006Y-12507196D01*
X29533361Y-12589411D01*
X29705591Y-12645371D01*
X29777136Y-12656702D01*
X29884451Y-12673700D01*
X29884454Y-12673700D01*
X30065549Y-12673700D01*
X30155025Y-12659528D01*
X30244409Y-12645371D01*
X30416639Y-12589411D01*
X30577994Y-12507196D01*
X30724501Y-12400753D01*
X30852553Y-12272701D01*
X30958996Y-12126194D01*
X31041211Y-11964839D01*
X31097171Y-11792609D01*
X31116120Y-11672971D01*
X31125500Y-11613749D01*
X31125500Y-11182650D01*
X31097171Y-11003793D01*
X31097171Y-11003791D01*
X31041211Y-10831561D01*
X30958996Y-10670206D01*
X30958112Y-10668989D01*
X30957956Y-10668509D01*
X30956965Y-10666892D01*
X30957353Y-10666653D01*
X30939206Y-10610797D01*
X30958115Y-10552607D01*
X31007616Y-10516645D01*
X31038206Y-10511800D01*
X31411794Y-10511800D01*
X31469985Y-10530707D01*
X31505949Y-10580207D01*
X31505949Y-10641393D01*
X31492975Y-10666855D01*
X31493035Y-10666892D01*
X31492569Y-10667651D01*
X31491888Y-10668989D01*
X31491005Y-10670204D01*
X31491003Y-10670206D01*
X31408788Y-10831562D01*
X31352828Y-11003793D01*
X31324500Y-11182650D01*
X31324500Y-11613749D01*
X31352828Y-11792606D01*
X31408788Y-11964837D01*
X31485112Y-12114632D01*
X31491004Y-12126194D01*
X31597447Y-12272701D01*
X31725499Y-12400753D01*
X31872006Y-12507196D01*
X32033361Y-12589411D01*
X32205591Y-12645371D01*
X32277136Y-12656702D01*
X32384451Y-12673700D01*
X32384454Y-12673700D01*
X32565549Y-12673700D01*
X32655025Y-12659528D01*
X32744409Y-12645371D01*
X32916639Y-12589411D01*
X33077994Y-12507196D01*
X33224501Y-12400753D01*
X33352553Y-12272701D01*
X33458996Y-12126194D01*
X33541211Y-11964839D01*
X33597171Y-11792609D01*
X33616120Y-11672971D01*
X33625500Y-11613749D01*
X33625500Y-11182650D01*
X33597171Y-11003793D01*
X33597171Y-11003791D01*
X33541211Y-10831561D01*
X33458996Y-10670206D01*
X33458112Y-10668989D01*
X33457956Y-10668509D01*
X33456965Y-10666892D01*
X33457353Y-10666653D01*
X33439206Y-10610797D01*
X33458115Y-10552607D01*
X33507616Y-10516645D01*
X33538206Y-10511800D01*
X40177106Y-10511800D01*
X40235297Y-10530707D01*
X40271261Y-10580207D01*
X40275400Y-10622606D01*
X40274500Y-10630098D01*
X40274500Y-12166306D01*
X40285123Y-12254765D01*
X40340637Y-12395539D01*
X40340638Y-12395541D01*
X40340639Y-12395542D01*
X40432078Y-12516122D01*
X40552658Y-12607561D01*
X40552659Y-12607561D01*
X40552660Y-12607562D01*
X40623047Y-12635319D01*
X40693436Y-12663077D01*
X40781898Y-12673700D01*
X40781900Y-12673700D01*
X42068100Y-12673700D01*
X42068102Y-12673700D01*
X42156564Y-12663077D01*
X42297342Y-12607561D01*
X42417922Y-12516122D01*
X42509361Y-12395542D01*
X42564877Y-12254764D01*
X42575500Y-12166302D01*
X42575500Y-10630098D01*
X42574600Y-10622604D01*
X42586433Y-10562576D01*
X42631291Y-10520966D01*
X42672894Y-10511800D01*
X42861794Y-10511800D01*
X42919985Y-10530707D01*
X42955949Y-10580207D01*
X42955949Y-10641393D01*
X42942975Y-10666855D01*
X42943035Y-10666892D01*
X42942569Y-10667651D01*
X42941888Y-10668989D01*
X42941005Y-10670204D01*
X42941003Y-10670206D01*
X42858788Y-10831562D01*
X42802828Y-11003793D01*
X42774500Y-11182650D01*
X42774500Y-11613749D01*
X42802828Y-11792606D01*
X42858788Y-11964837D01*
X42935112Y-12114632D01*
X42941004Y-12126194D01*
X43047447Y-12272701D01*
X43175499Y-12400753D01*
X43322006Y-12507196D01*
X43483361Y-12589411D01*
X43655591Y-12645371D01*
X43727136Y-12656702D01*
X43834451Y-12673700D01*
X43834454Y-12673700D01*
X44015549Y-12673700D01*
X44105025Y-12659528D01*
X44194409Y-12645371D01*
X44366639Y-12589411D01*
X44527994Y-12507196D01*
X44674501Y-12400753D01*
X44802553Y-12272701D01*
X44908996Y-12126194D01*
X44991211Y-11964839D01*
X45047171Y-11792609D01*
X45066120Y-11672971D01*
X45075500Y-11613749D01*
X45075500Y-11182650D01*
X45047171Y-11003793D01*
X45047171Y-11003791D01*
X44991211Y-10831561D01*
X44908996Y-10670206D01*
X44908112Y-10668989D01*
X44907956Y-10668509D01*
X44906965Y-10666892D01*
X44907353Y-10666653D01*
X44889206Y-10610797D01*
X44908115Y-10552607D01*
X44957616Y-10516645D01*
X44988206Y-10511800D01*
X47861794Y-10511800D01*
X47919985Y-10530707D01*
X47955949Y-10580207D01*
X47955949Y-10641393D01*
X47942975Y-10666855D01*
X47943035Y-10666892D01*
X47942569Y-10667651D01*
X47941888Y-10668989D01*
X47941005Y-10670204D01*
X47941003Y-10670206D01*
X47858788Y-10831562D01*
X47802828Y-11003793D01*
X47774500Y-11182650D01*
X47774500Y-11613749D01*
X47802828Y-11792606D01*
X47858788Y-11964837D01*
X47935112Y-12114632D01*
X47941004Y-12126194D01*
X48047447Y-12272701D01*
X48175499Y-12400753D01*
X48322006Y-12507196D01*
X48483361Y-12589411D01*
X48655591Y-12645371D01*
X48727136Y-12656702D01*
X48834451Y-12673700D01*
X48834454Y-12673700D01*
X49015549Y-12673700D01*
X49105025Y-12659528D01*
X49194409Y-12645371D01*
X49366639Y-12589411D01*
X49527994Y-12507196D01*
X49674501Y-12400753D01*
X49802553Y-12272701D01*
X49908996Y-12126194D01*
X49991211Y-11964839D01*
X50047171Y-11792609D01*
X50066120Y-11672971D01*
X50075500Y-11613749D01*
X50075500Y-11182650D01*
X50047171Y-11003793D01*
X50047171Y-11003791D01*
X49991211Y-10831561D01*
X49908996Y-10670206D01*
X49908112Y-10668989D01*
X49907956Y-10668509D01*
X49906965Y-10666892D01*
X49907353Y-10666653D01*
X49889206Y-10610797D01*
X49908115Y-10552607D01*
X49957616Y-10516645D01*
X49988206Y-10511800D01*
X50361794Y-10511800D01*
X50419985Y-10530707D01*
X50455949Y-10580207D01*
X50455949Y-10641393D01*
X50442975Y-10666855D01*
X50443035Y-10666892D01*
X50442569Y-10667651D01*
X50441888Y-10668989D01*
X50441005Y-10670204D01*
X50441003Y-10670206D01*
X50358788Y-10831562D01*
X50302828Y-11003793D01*
X50274500Y-11182650D01*
X50274500Y-11613749D01*
X50302828Y-11792606D01*
X50358788Y-11964837D01*
X50435112Y-12114632D01*
X50441004Y-12126194D01*
X50547447Y-12272701D01*
X50675499Y-12400753D01*
X50822006Y-12507196D01*
X50983361Y-12589411D01*
X51155591Y-12645371D01*
X51227136Y-12656702D01*
X51334451Y-12673700D01*
X51334454Y-12673700D01*
X51515549Y-12673700D01*
X51605025Y-12659528D01*
X51694409Y-12645371D01*
X51866639Y-12589411D01*
X52027994Y-12507196D01*
X52174501Y-12400753D01*
X52302553Y-12272701D01*
X52408996Y-12126194D01*
X52491211Y-11964839D01*
X52547171Y-11792609D01*
X52566120Y-11672971D01*
X52575500Y-11613749D01*
X52575500Y-11182650D01*
X52547171Y-11003793D01*
X52547171Y-11003791D01*
X52491211Y-10831561D01*
X52408996Y-10670206D01*
X52408112Y-10668989D01*
X52407956Y-10668509D01*
X52406965Y-10666892D01*
X52407353Y-10666653D01*
X52389206Y-10610797D01*
X52408115Y-10552607D01*
X52457616Y-10516645D01*
X52488206Y-10511800D01*
X61627106Y-10511800D01*
X61685297Y-10530707D01*
X61721261Y-10580207D01*
X61725400Y-10622606D01*
X61724500Y-10630098D01*
X61724500Y-12166306D01*
X61735123Y-12254765D01*
X61790637Y-12395539D01*
X61790638Y-12395541D01*
X61790639Y-12395542D01*
X61882078Y-12516122D01*
X62002658Y-12607561D01*
X62002659Y-12607561D01*
X62002660Y-12607562D01*
X62073047Y-12635319D01*
X62143436Y-12663077D01*
X62231898Y-12673700D01*
X62231900Y-12673700D01*
X63518100Y-12673700D01*
X63518102Y-12673700D01*
X63606564Y-12663077D01*
X63747342Y-12607561D01*
X63867922Y-12516122D01*
X63959361Y-12395542D01*
X64014877Y-12254764D01*
X64025500Y-12166302D01*
X64025500Y-10630098D01*
X64024600Y-10622604D01*
X64036433Y-10562576D01*
X64081291Y-10520966D01*
X64122894Y-10511800D01*
X64311794Y-10511800D01*
X64369985Y-10530707D01*
X64405949Y-10580207D01*
X64405949Y-10641393D01*
X64392975Y-10666855D01*
X64393035Y-10666892D01*
X64392569Y-10667651D01*
X64391888Y-10668989D01*
X64391005Y-10670204D01*
X64391003Y-10670206D01*
X64308788Y-10831562D01*
X64252828Y-11003793D01*
X64224500Y-11182650D01*
X64224500Y-11613749D01*
X64252828Y-11792606D01*
X64308788Y-11964837D01*
X64385112Y-12114632D01*
X64391004Y-12126194D01*
X64497447Y-12272701D01*
X64625499Y-12400753D01*
X64772006Y-12507196D01*
X64933361Y-12589411D01*
X65105591Y-12645371D01*
X65177136Y-12656702D01*
X65284451Y-12673700D01*
X65284454Y-12673700D01*
X65465549Y-12673700D01*
X65555025Y-12659528D01*
X65644409Y-12645371D01*
X65816639Y-12589411D01*
X65977994Y-12507196D01*
X66124501Y-12400753D01*
X66252553Y-12272701D01*
X66358996Y-12126194D01*
X66441211Y-11964839D01*
X66497171Y-11792609D01*
X66516120Y-11672971D01*
X66525500Y-11613749D01*
X66525500Y-11182650D01*
X66497171Y-11003793D01*
X66497171Y-11003791D01*
X66441211Y-10831561D01*
X66358996Y-10670206D01*
X66358112Y-10668989D01*
X66357956Y-10668509D01*
X66356965Y-10666892D01*
X66357353Y-10666653D01*
X66339206Y-10610797D01*
X66358115Y-10552607D01*
X66407616Y-10516645D01*
X66438206Y-10511800D01*
X69311794Y-10511800D01*
X69369985Y-10530707D01*
X69405949Y-10580207D01*
X69405949Y-10641393D01*
X69392975Y-10666855D01*
X69393035Y-10666892D01*
X69392569Y-10667651D01*
X69391888Y-10668989D01*
X69391005Y-10670204D01*
X69391003Y-10670206D01*
X69308788Y-10831562D01*
X69252828Y-11003793D01*
X69224500Y-11182650D01*
X69224500Y-11613749D01*
X69252828Y-11792606D01*
X69308788Y-11964837D01*
X69385112Y-12114632D01*
X69391004Y-12126194D01*
X69497447Y-12272701D01*
X69625499Y-12400753D01*
X69772006Y-12507196D01*
X69933361Y-12589411D01*
X70105591Y-12645371D01*
X70177136Y-12656702D01*
X70284451Y-12673700D01*
X70284454Y-12673700D01*
X70465549Y-12673700D01*
X70555025Y-12659528D01*
X70644409Y-12645371D01*
X70816639Y-12589411D01*
X70977994Y-12507196D01*
X71124501Y-12400753D01*
X71252553Y-12272701D01*
X71358996Y-12126194D01*
X71441211Y-11964839D01*
X71497171Y-11792609D01*
X71516120Y-11672971D01*
X71525500Y-11613749D01*
X71525500Y-11182650D01*
X71497171Y-11003793D01*
X71497171Y-11003791D01*
X71441211Y-10831561D01*
X71358996Y-10670206D01*
X71358112Y-10668989D01*
X71357956Y-10668509D01*
X71356965Y-10666892D01*
X71357353Y-10666653D01*
X71339206Y-10610797D01*
X71358115Y-10552607D01*
X71407616Y-10516645D01*
X71438206Y-10511800D01*
X71811794Y-10511800D01*
X71869985Y-10530707D01*
X71905949Y-10580207D01*
X71905949Y-10641393D01*
X71892975Y-10666855D01*
X71893035Y-10666892D01*
X71892569Y-10667651D01*
X71891888Y-10668989D01*
X71891005Y-10670204D01*
X71891003Y-10670206D01*
X71808788Y-10831562D01*
X71752828Y-11003793D01*
X71724500Y-11182650D01*
X71724500Y-11613749D01*
X71752828Y-11792606D01*
X71808788Y-11964837D01*
X71885112Y-12114632D01*
X71891004Y-12126194D01*
X71997447Y-12272701D01*
X72125499Y-12400753D01*
X72272006Y-12507196D01*
X72433361Y-12589411D01*
X72605591Y-12645371D01*
X72677136Y-12656702D01*
X72784451Y-12673700D01*
X72784454Y-12673700D01*
X72965549Y-12673700D01*
X73055025Y-12659528D01*
X73144409Y-12645371D01*
X73316639Y-12589411D01*
X73477994Y-12507196D01*
X73624501Y-12400753D01*
X73752553Y-12272701D01*
X73858996Y-12126194D01*
X73941211Y-11964839D01*
X73997171Y-11792609D01*
X74016120Y-11672971D01*
X74025500Y-11613749D01*
X74025500Y-11182650D01*
X73997171Y-11003793D01*
X73997171Y-11003791D01*
X73941211Y-10831561D01*
X73858996Y-10670206D01*
X73858112Y-10668989D01*
X73857956Y-10668509D01*
X73856965Y-10666892D01*
X73857353Y-10666653D01*
X73839206Y-10610797D01*
X73858115Y-10552607D01*
X73907616Y-10516645D01*
X73938206Y-10511800D01*
X93306199Y-10511800D01*
X93364390Y-10530707D01*
X93376203Y-10540796D01*
X94680818Y-11845410D01*
X94708595Y-11899927D01*
X94699024Y-11960359D01*
X94620421Y-12114627D01*
X94540138Y-12361711D01*
X94499500Y-12618299D01*
X94499500Y-12878100D01*
X94540138Y-13134688D01*
X94540140Y-13134693D01*
X94620421Y-13381772D01*
X94683802Y-13506164D01*
X94729815Y-13596470D01*
X94738366Y-13613251D01*
X94891069Y-13823429D01*
X95074771Y-14007131D01*
X95284949Y-14159834D01*
X95516428Y-14277779D01*
X95763507Y-14358060D01*
X95763508Y-14358060D01*
X95763511Y-14358061D01*
X96020100Y-14398700D01*
X96020103Y-14398700D01*
X96279900Y-14398700D01*
X96536488Y-14358061D01*
X96536489Y-14358060D01*
X96536493Y-14358060D01*
X96783572Y-14277779D01*
X97015051Y-14159834D01*
X97225229Y-14007131D01*
X97408931Y-13823429D01*
X97561634Y-13613251D01*
X97679579Y-13381772D01*
X97759860Y-13134693D01*
X97800500Y-12878097D01*
X97800500Y-12618303D01*
X97800500Y-12618299D01*
X97759861Y-12361711D01*
X97732476Y-12277427D01*
X97679579Y-12114628D01*
X97561634Y-11883149D01*
X97408931Y-11672971D01*
X97225229Y-11489269D01*
X97015051Y-11336566D01*
X97015050Y-11336565D01*
X97015048Y-11336564D01*
X96855509Y-11255275D01*
X96783572Y-11218621D01*
X96783569Y-11218620D01*
X96783567Y-11218619D01*
X96536488Y-11138338D01*
X96279900Y-11097700D01*
X96279897Y-11097700D01*
X96020103Y-11097700D01*
X96020100Y-11097700D01*
X95763511Y-11138338D01*
X95516427Y-11218621D01*
X95362159Y-11297224D01*
X95301726Y-11306795D01*
X95247210Y-11279018D01*
X94154497Y-10186304D01*
X94126720Y-10131787D01*
X94136291Y-10071355D01*
X94179556Y-10028090D01*
X94224501Y-10017300D01*
X102611699Y-10017300D01*
X102669890Y-10036207D01*
X102681703Y-10046296D01*
X103420504Y-10785097D01*
X103448281Y-10839614D01*
X103449500Y-10855101D01*
X103449500Y-12166306D01*
X103460123Y-12254765D01*
X103515637Y-12395539D01*
X103515638Y-12395541D01*
X103515639Y-12395542D01*
X103607078Y-12516122D01*
X103727658Y-12607561D01*
X103727659Y-12607561D01*
X103727660Y-12607562D01*
X103798047Y-12635319D01*
X103868436Y-12663077D01*
X103956898Y-12673700D01*
X103956900Y-12673700D01*
X105243100Y-12673700D01*
X105243102Y-12673700D01*
X105331564Y-12663077D01*
X105472342Y-12607561D01*
X105592922Y-12516122D01*
X105684361Y-12395542D01*
X105739877Y-12254764D01*
X105750500Y-12166302D01*
X105750500Y-11182650D01*
X108449500Y-11182650D01*
X108449500Y-11613749D01*
X108477828Y-11792606D01*
X108533788Y-11964837D01*
X108610112Y-12114632D01*
X108616004Y-12126194D01*
X108722447Y-12272701D01*
X108850499Y-12400753D01*
X108997006Y-12507196D01*
X109158361Y-12589411D01*
X109330591Y-12645371D01*
X109402136Y-12656702D01*
X109509451Y-12673700D01*
X109509454Y-12673700D01*
X109690549Y-12673700D01*
X109780025Y-12659528D01*
X109869409Y-12645371D01*
X110041639Y-12589411D01*
X110202994Y-12507196D01*
X110349501Y-12400753D01*
X110477553Y-12272701D01*
X110583996Y-12126194D01*
X110666211Y-11964839D01*
X110722171Y-11792609D01*
X110741120Y-11672971D01*
X110750500Y-11613749D01*
X110750500Y-11182650D01*
X110722171Y-11003793D01*
X110722171Y-11003791D01*
X110666211Y-10831561D01*
X110583996Y-10670206D01*
X110477553Y-10523699D01*
X110349501Y-10395647D01*
X110202994Y-10289204D01*
X110202993Y-10289203D01*
X110202991Y-10289202D01*
X110041637Y-10206988D01*
X109869406Y-10151028D01*
X109690549Y-10122700D01*
X109690546Y-10122700D01*
X109509454Y-10122700D01*
X109509451Y-10122700D01*
X109330593Y-10151028D01*
X109158362Y-10206988D01*
X108997008Y-10289202D01*
X108923752Y-10342425D01*
X108850499Y-10395647D01*
X108722447Y-10523699D01*
X108681392Y-10580207D01*
X108616002Y-10670208D01*
X108533788Y-10831562D01*
X108477828Y-11003793D01*
X108449500Y-11182650D01*
X105750500Y-11182650D01*
X105750500Y-10630098D01*
X105739877Y-10541636D01*
X105684361Y-10400858D01*
X105592922Y-10280278D01*
X105472342Y-10188839D01*
X105472341Y-10188838D01*
X105472339Y-10188837D01*
X105331565Y-10133323D01*
X105243106Y-10122700D01*
X105243102Y-10122700D01*
X103956898Y-10122700D01*
X103956896Y-10122700D01*
X103956878Y-10122701D01*
X103945743Y-10124038D01*
X103885714Y-10112201D01*
X103863941Y-10095748D01*
X103616776Y-9848583D01*
X103064513Y-9296320D01*
X103064510Y-9296318D01*
X103064509Y-9296317D01*
X103064508Y-9296316D01*
X102973191Y-9243594D01*
X102973193Y-9243594D01*
X102933670Y-9233004D01*
X102871327Y-9216300D01*
X102871325Y-9216300D01*
X25180344Y-9216300D01*
X25122153Y-9197393D01*
X25110341Y-9187304D01*
X25059318Y-9136282D01*
X25059316Y-9136280D01*
X24922384Y-9057223D01*
X24769657Y-9016300D01*
X24611543Y-9016300D01*
X24458816Y-9057223D01*
X24321884Y-9136280D01*
X24210080Y-9248084D01*
X24131023Y-9385016D01*
X24090100Y-9537743D01*
X24090100Y-9695857D01*
X24131023Y-9848584D01*
X24210080Y-9985516D01*
X24321884Y-10097320D01*
X24364951Y-10122185D01*
X24405893Y-10167653D01*
X24412289Y-10228504D01*
X24381696Y-10281492D01*
X24373643Y-10288013D01*
X24225502Y-10395644D01*
X24225499Y-10395647D01*
X24097447Y-10523699D01*
X24056392Y-10580207D01*
X23991002Y-10670208D01*
X23908788Y-10831562D01*
X23852828Y-11003793D01*
X23824500Y-11182650D01*
X21125500Y-11182650D01*
X21097171Y-11003793D01*
X21097171Y-11003791D01*
X21041211Y-10831561D01*
X20958996Y-10670206D01*
X20852553Y-10523699D01*
X20724501Y-10395647D01*
X20577994Y-10289204D01*
X20577993Y-10289203D01*
X20577991Y-10289202D01*
X20416637Y-10206988D01*
X20244406Y-10151028D01*
X20065549Y-10122700D01*
X20065546Y-10122700D01*
X19884454Y-10122700D01*
X19884451Y-10122700D01*
X19705593Y-10151028D01*
X19533362Y-10206988D01*
X19372008Y-10289202D01*
X19298752Y-10342425D01*
X19225499Y-10395647D01*
X19097447Y-10523699D01*
X19056392Y-10580207D01*
X18991002Y-10670208D01*
X18908788Y-10831562D01*
X18869793Y-10951579D01*
X18833829Y-11001080D01*
X18775638Y-11019987D01*
X18750016Y-11016614D01*
X18679427Y-10997700D01*
X18679425Y-10997700D01*
X18667120Y-10997700D01*
X18608929Y-10978793D01*
X18572966Y-10929294D01*
X18541211Y-10831561D01*
X18458996Y-10670206D01*
X18352553Y-10523699D01*
X18224501Y-10395647D01*
X18077994Y-10289204D01*
X18077993Y-10289203D01*
X18077991Y-10289202D01*
X17916637Y-10206988D01*
X17744406Y-10151028D01*
X17565549Y-10122700D01*
X17565546Y-10122700D01*
X17384454Y-10122700D01*
X17384451Y-10122700D01*
X17205593Y-10151028D01*
X17033362Y-10206988D01*
X16872008Y-10289202D01*
X16798752Y-10342425D01*
X16725499Y-10395647D01*
X16597447Y-10523699D01*
X16556392Y-10580207D01*
X16491002Y-10670208D01*
X16408788Y-10831562D01*
X16352828Y-11003793D01*
X16324500Y-11182650D01*
X13625500Y-11182650D01*
X13597171Y-11003793D01*
X13597171Y-11003791D01*
X13541211Y-10831561D01*
X13458996Y-10670206D01*
X13352553Y-10523699D01*
X13224501Y-10395647D01*
X13077994Y-10289204D01*
X13077993Y-10289203D01*
X13077991Y-10289202D01*
X12916637Y-10206988D01*
X12744406Y-10151028D01*
X12565549Y-10122700D01*
X12565546Y-10122700D01*
X12384454Y-10122700D01*
X12384451Y-10122700D01*
X12205593Y-10151028D01*
X12033362Y-10206988D01*
X11872008Y-10289202D01*
X11798752Y-10342425D01*
X11725499Y-10395647D01*
X11597447Y-10523699D01*
X11556392Y-10580207D01*
X11491002Y-10670208D01*
X11408788Y-10831562D01*
X11352828Y-11003793D01*
X11324500Y-11182650D01*
X11324500Y-11613749D01*
X11352828Y-11792606D01*
X11408788Y-11964837D01*
X11437455Y-12021099D01*
X11447026Y-12081531D01*
X11419249Y-12136047D01*
X11364732Y-12163825D01*
X11304300Y-12154254D01*
X11279241Y-12136048D01*
X11154496Y-12011303D01*
X11126719Y-11956786D01*
X11125500Y-11941299D01*
X11125500Y-10630099D01*
X11125499Y-10630093D01*
X11121803Y-10599315D01*
X11114877Y-10541636D01*
X11059361Y-10400858D01*
X10967922Y-10280278D01*
X10847342Y-10188839D01*
X10847341Y-10188838D01*
X10847339Y-10188837D01*
X10706565Y-10133323D01*
X10618106Y-10122700D01*
X10618102Y-10122700D01*
X9331898Y-10122700D01*
X9331893Y-10122700D01*
X9243434Y-10133323D01*
X9102660Y-10188837D01*
X9102656Y-10188840D01*
X8982081Y-10280275D01*
X8982075Y-10280281D01*
X8890640Y-10400856D01*
X8890637Y-10400860D01*
X8835123Y-10541634D01*
X8824500Y-10630093D01*
X8824500Y-12166306D01*
X8835123Y-12254765D01*
X8890637Y-12395539D01*
X8890638Y-12395541D01*
X8890639Y-12395542D01*
X8982078Y-12516122D01*
X9102658Y-12607561D01*
X9102659Y-12607561D01*
X9102660Y-12607562D01*
X9173047Y-12635319D01*
X9243436Y-12663077D01*
X9331898Y-12673700D01*
X9331900Y-12673700D01*
X10618102Y-12673700D01*
X10618114Y-12673699D01*
X10629246Y-12672362D01*
X10689277Y-12684194D01*
X10711058Y-12700651D01*
X16102918Y-18092510D01*
X16102920Y-18092513D01*
X16177487Y-18167080D01*
X16177489Y-18167081D01*
X16268809Y-18219805D01*
X16268813Y-18219807D01*
X16370670Y-18247100D01*
X16370672Y-18247101D01*
X16370673Y-18247101D01*
X16482190Y-18247101D01*
X16482206Y-18247100D01*
X48339699Y-18247100D01*
X48397890Y-18266007D01*
X48409703Y-18276096D01*
X66063314Y-35929706D01*
X66091091Y-35984223D01*
X66084775Y-36037593D01*
X66069870Y-36073578D01*
X66069870Y-36073580D01*
X66029500Y-36276532D01*
X66029500Y-36483467D01*
X66069869Y-36686418D01*
X66149058Y-36877597D01*
X66167646Y-36905416D01*
X66205868Y-36962620D01*
X66207926Y-36965699D01*
X66224534Y-37024587D01*
X66203356Y-37081990D01*
X66152482Y-37115983D01*
X66125610Y-37119700D01*
X54694843Y-37119700D01*
X54636652Y-37100793D01*
X54600688Y-37051293D01*
X54600688Y-36990107D01*
X54624837Y-36950698D01*
X54670120Y-36905416D01*
X54749177Y-36768484D01*
X54790100Y-36615757D01*
X54790100Y-36457643D01*
X54749177Y-36304916D01*
X54670120Y-36167984D01*
X54558316Y-36056180D01*
X54421384Y-35977123D01*
X54268657Y-35936200D01*
X54268655Y-35936200D01*
X54196501Y-35936200D01*
X54138310Y-35917293D01*
X54126497Y-35907204D01*
X49578289Y-31358996D01*
X44893513Y-26674220D01*
X44893510Y-26674218D01*
X44893509Y-26674217D01*
X44893508Y-26674216D01*
X44802191Y-26621494D01*
X44802193Y-26621494D01*
X44762670Y-26610904D01*
X44700327Y-26594200D01*
X44700325Y-26594200D01*
X30117120Y-26594200D01*
X30058929Y-26575293D01*
X30022966Y-26525794D01*
X29991211Y-26428061D01*
X29908996Y-26266706D01*
X29802553Y-26120199D01*
X29674501Y-25992147D01*
X29527994Y-25885704D01*
X29527993Y-25885703D01*
X29527991Y-25885702D01*
X29366637Y-25803488D01*
X29194406Y-25747528D01*
X29015549Y-25719200D01*
X29015546Y-25719200D01*
X28834454Y-25719200D01*
X28834451Y-25719200D01*
X28655593Y-25747528D01*
X28483362Y-25803488D01*
X28322008Y-25885702D01*
X28248752Y-25938925D01*
X28175499Y-25992147D01*
X28047447Y-26120199D01*
X28034417Y-26138134D01*
X27941002Y-26266708D01*
X27858788Y-26428062D01*
X27802828Y-26600293D01*
X27774500Y-26779150D01*
X27774500Y-27210249D01*
X27802828Y-27389106D01*
X27858788Y-27561337D01*
X27925936Y-27693123D01*
X27941004Y-27722694D01*
X28047447Y-27869201D01*
X28175499Y-27997253D01*
X28322006Y-28103696D01*
X28483361Y-28185911D01*
X28655591Y-28241871D01*
X28727136Y-28253202D01*
X28834451Y-28270200D01*
X28834454Y-28270200D01*
X29015549Y-28270200D01*
X29104977Y-28256035D01*
X29194409Y-28241871D01*
X29366639Y-28185911D01*
X29527994Y-28103696D01*
X29674501Y-27997253D01*
X29802553Y-27869201D01*
X29908996Y-27722694D01*
X29991211Y-27561339D01*
X30022965Y-27463607D01*
X30058929Y-27414108D01*
X30117119Y-27395200D01*
X44440699Y-27395200D01*
X44498890Y-27414107D01*
X44510703Y-27424196D01*
X53560104Y-36473597D01*
X53587881Y-36528114D01*
X53589100Y-36543601D01*
X53589100Y-36615757D01*
X53630023Y-36768484D01*
X53709080Y-36905416D01*
X53754362Y-36950698D01*
X53782138Y-37005213D01*
X53772567Y-37065645D01*
X53729302Y-37108910D01*
X53684357Y-37119700D01*
X49114390Y-37119700D01*
X49056199Y-37100793D01*
X49020235Y-37051293D01*
X49020235Y-36990107D01*
X49032074Y-36965699D01*
X49090941Y-36877598D01*
X49170130Y-36686420D01*
X49210500Y-36483465D01*
X49210500Y-36276535D01*
X49170130Y-36073580D01*
X49090941Y-35882402D01*
X48975977Y-35710345D01*
X48829655Y-35564023D01*
X48657598Y-35449059D01*
X48657599Y-35449059D01*
X48657597Y-35449058D01*
X48466418Y-35369869D01*
X48263467Y-35329500D01*
X48263465Y-35329500D01*
X48056535Y-35329500D01*
X48056532Y-35329500D01*
X47853581Y-35369869D01*
X47662402Y-35449058D01*
X47490348Y-35564020D01*
X47344020Y-35710348D01*
X47229058Y-35882402D01*
X47149869Y-36073581D01*
X47109500Y-36276532D01*
X47109500Y-36483467D01*
X47149869Y-36686418D01*
X47229058Y-36877597D01*
X47247646Y-36905416D01*
X47285868Y-36962620D01*
X47287926Y-36965699D01*
X47304534Y-37024587D01*
X47283356Y-37081990D01*
X47232482Y-37115983D01*
X47205610Y-37119700D01*
X46574390Y-37119700D01*
X46516199Y-37100793D01*
X46480235Y-37051293D01*
X46480235Y-36990107D01*
X46492074Y-36965699D01*
X46550941Y-36877598D01*
X46630130Y-36686420D01*
X46670500Y-36483465D01*
X46670500Y-36276535D01*
X46630130Y-36073580D01*
X46550941Y-35882402D01*
X46435977Y-35710345D01*
X46289655Y-35564023D01*
X46117598Y-35449059D01*
X46117599Y-35449059D01*
X46117597Y-35449058D01*
X45926418Y-35369869D01*
X45723467Y-35329500D01*
X45723465Y-35329500D01*
X45516535Y-35329500D01*
X45516532Y-35329500D01*
X45313581Y-35369869D01*
X45122402Y-35449058D01*
X44950348Y-35564020D01*
X44804020Y-35710348D01*
X44689058Y-35882402D01*
X44609869Y-36073581D01*
X44569500Y-36276532D01*
X44569500Y-36483467D01*
X44609869Y-36686418D01*
X44689058Y-36877597D01*
X44707646Y-36905416D01*
X44745868Y-36962620D01*
X44747926Y-36965699D01*
X44764534Y-37024587D01*
X44743356Y-37081990D01*
X44692482Y-37115983D01*
X44665610Y-37119700D01*
X44034390Y-37119700D01*
X43976199Y-37100793D01*
X43940235Y-37051293D01*
X43940235Y-36990107D01*
X43952074Y-36965699D01*
X44010941Y-36877598D01*
X44090130Y-36686420D01*
X44130500Y-36483465D01*
X44130500Y-36276535D01*
X44090130Y-36073580D01*
X44010941Y-35882402D01*
X43895977Y-35710345D01*
X43749655Y-35564023D01*
X43577598Y-35449059D01*
X43577599Y-35449059D01*
X43577597Y-35449058D01*
X43386418Y-35369869D01*
X43183467Y-35329500D01*
X43183465Y-35329500D01*
X42976535Y-35329500D01*
X42976532Y-35329500D01*
X42773581Y-35369869D01*
X42582402Y-35449058D01*
X42410348Y-35564020D01*
X42264020Y-35710348D01*
X42149058Y-35882402D01*
X42069869Y-36073581D01*
X42029500Y-36276532D01*
X42029500Y-36483467D01*
X42069869Y-36686418D01*
X42149058Y-36877597D01*
X42167646Y-36905416D01*
X42205868Y-36962620D01*
X42207926Y-36965699D01*
X42224534Y-37024587D01*
X42203356Y-37081990D01*
X42152482Y-37115983D01*
X42125610Y-37119700D01*
X41494390Y-37119700D01*
X41436199Y-37100793D01*
X41400235Y-37051293D01*
X41400235Y-36990107D01*
X41412074Y-36965699D01*
X41470941Y-36877598D01*
X41550130Y-36686420D01*
X41590500Y-36483465D01*
X41590500Y-36276535D01*
X41550130Y-36073580D01*
X41470941Y-35882402D01*
X41355977Y-35710345D01*
X41209655Y-35564023D01*
X41037598Y-35449059D01*
X41037599Y-35449059D01*
X41037597Y-35449058D01*
X40846418Y-35369869D01*
X40643467Y-35329500D01*
X40643465Y-35329500D01*
X40436535Y-35329500D01*
X40436532Y-35329500D01*
X40233581Y-35369869D01*
X40042402Y-35449058D01*
X39870348Y-35564020D01*
X39724020Y-35710348D01*
X39609058Y-35882402D01*
X39529869Y-36073581D01*
X39489500Y-36276532D01*
X39489500Y-36483467D01*
X39529869Y-36686418D01*
X39609058Y-36877597D01*
X39707273Y-37024587D01*
X39724023Y-37049655D01*
X39756358Y-37081990D01*
X39757034Y-37082666D01*
X39784810Y-37137183D01*
X39775238Y-37197615D01*
X39757033Y-37222672D01*
X39705420Y-37274286D01*
X39705420Y-37274287D01*
X35571016Y-41408691D01*
X35518293Y-41500011D01*
X35518292Y-41500011D01*
X35518293Y-41500012D01*
X35518293Y-41500013D01*
X35491000Y-41601873D01*
X35491000Y-42053573D01*
X35491000Y-42159027D01*
X35505192Y-42211993D01*
X35518294Y-42260892D01*
X35571016Y-42352208D01*
X35571018Y-42352210D01*
X35571020Y-42352213D01*
X35597605Y-42378798D01*
X35625381Y-42433313D01*
X35615810Y-42493745D01*
X35572545Y-42537010D01*
X35527600Y-42547800D01*
X16050673Y-42547800D01*
X15990986Y-42563793D01*
X15948808Y-42575094D01*
X15895939Y-42605618D01*
X15895940Y-42605619D01*
X15857486Y-42627820D01*
X15219126Y-43266179D01*
X15164610Y-43293956D01*
X15104178Y-43284385D01*
X15060913Y-43241120D01*
X15050782Y-43207579D01*
X15048050Y-43184023D01*
X15047585Y-43180009D01*
X15002206Y-43077235D01*
X14922765Y-42997794D01*
X14819991Y-42952415D01*
X14819990Y-42952414D01*
X14819988Y-42952414D01*
X14794868Y-42949500D01*
X13205139Y-42949500D01*
X13205136Y-42949501D01*
X13180009Y-42952414D01*
X13077235Y-42997794D01*
X12997794Y-43077235D01*
X12952414Y-43180011D01*
X12949500Y-43205130D01*
X12949500Y-44794860D01*
X12949500Y-44794862D01*
X12949501Y-44794864D01*
X12949502Y-44794869D01*
X12952414Y-44819990D01*
X12970872Y-44861793D01*
X12997794Y-44922765D01*
X13077235Y-45002206D01*
X13180009Y-45047585D01*
X13205135Y-45050500D01*
X14794864Y-45050499D01*
X14819991Y-45047585D01*
X14922765Y-45002206D01*
X15002206Y-44922765D01*
X15047585Y-44819991D01*
X15050500Y-44794865D01*
X15050500Y-44490915D01*
X15069407Y-44432724D01*
X15118907Y-44396760D01*
X15123859Y-44395293D01*
X15206288Y-44373207D01*
X15206290Y-44373205D01*
X15206292Y-44373205D01*
X15259645Y-44342401D01*
X15297613Y-44320480D01*
X15362702Y-44255390D01*
X15417216Y-44227614D01*
X15477648Y-44237185D01*
X15520913Y-44280449D01*
X15528320Y-44301805D01*
X15528458Y-44301764D01*
X15529514Y-44305247D01*
X15529799Y-44306067D01*
X15529867Y-44306408D01*
X15529871Y-44306423D01*
X15609058Y-44497597D01*
X15690266Y-44619134D01*
X15724023Y-44669655D01*
X15870345Y-44815977D01*
X16042402Y-44930941D01*
X16233580Y-45010130D01*
X16436535Y-45050500D01*
X16436536Y-45050500D01*
X16643464Y-45050500D01*
X16643465Y-45050500D01*
X16846420Y-45010130D01*
X16882403Y-44995224D01*
X16943398Y-44990424D01*
X16990292Y-45016685D01*
X17624787Y-45651180D01*
X17624789Y-45651181D01*
X17624790Y-45651182D01*
X17624791Y-45651183D01*
X17716108Y-45703905D01*
X17716106Y-45703905D01*
X17716110Y-45703906D01*
X17716112Y-45703907D01*
X17817973Y-45731200D01*
X17923427Y-45731200D01*
X31030100Y-45731200D01*
X31088291Y-45750107D01*
X31124255Y-45799607D01*
X31124255Y-45860793D01*
X31100104Y-45900204D01*
X22070003Y-54930303D01*
X22015486Y-54958080D01*
X21955054Y-54948509D01*
X21929998Y-54930305D01*
X21897013Y-54897320D01*
X21897010Y-54897318D01*
X21897008Y-54897316D01*
X21805691Y-54844594D01*
X21805693Y-54844594D01*
X21766170Y-54834004D01*
X21703827Y-54817300D01*
X18845627Y-54817300D01*
X18740173Y-54817300D01*
X18677829Y-54834004D01*
X18638307Y-54844594D01*
X18546991Y-54897316D01*
X18546986Y-54897320D01*
X17694502Y-55749803D01*
X17639986Y-55777580D01*
X17579554Y-55768009D01*
X17536289Y-55724744D01*
X17525499Y-55679799D01*
X17525499Y-55677133D01*
X17525499Y-55677132D01*
X17525499Y-55677128D01*
X17519091Y-55617517D01*
X17511940Y-55598344D01*
X17468797Y-55482670D01*
X17382549Y-55367458D01*
X17382548Y-55367457D01*
X17382546Y-55367454D01*
X17382541Y-55367450D01*
X17267329Y-55281202D01*
X17132488Y-55230910D01*
X17132483Y-55230909D01*
X17132481Y-55230908D01*
X17132477Y-55230908D01*
X17101249Y-55227550D01*
X17072873Y-55224500D01*
X17072870Y-55224500D01*
X16577133Y-55224500D01*
X16577129Y-55224500D01*
X16577128Y-55224501D01*
X16569949Y-55225272D01*
X16517519Y-55230908D01*
X16517514Y-55230909D01*
X16382670Y-55281202D01*
X16267458Y-55367450D01*
X16267450Y-55367458D01*
X16181202Y-55482670D01*
X16130910Y-55617511D01*
X16130908Y-55617522D01*
X16127855Y-55645923D01*
X16125691Y-55666055D01*
X16124500Y-55677129D01*
X16124501Y-56278000D01*
X16105594Y-56336191D01*
X16056094Y-56372155D01*
X16025501Y-56377000D01*
X15974500Y-56377000D01*
X15916309Y-56358093D01*
X15880345Y-56308593D01*
X15875500Y-56278000D01*
X15875499Y-55677133D01*
X15875499Y-55677132D01*
X15875499Y-55677128D01*
X15869091Y-55617517D01*
X15861940Y-55598344D01*
X15818797Y-55482670D01*
X15732549Y-55367458D01*
X15732548Y-55367457D01*
X15732546Y-55367454D01*
X15732541Y-55367450D01*
X15617329Y-55281202D01*
X15482488Y-55230910D01*
X15482483Y-55230909D01*
X15482481Y-55230908D01*
X15482477Y-55230908D01*
X15451249Y-55227550D01*
X15422873Y-55224500D01*
X15422870Y-55224500D01*
X14927133Y-55224500D01*
X14927129Y-55224500D01*
X14927128Y-55224501D01*
X14919949Y-55225272D01*
X14867519Y-55230908D01*
X14867514Y-55230909D01*
X14732670Y-55281202D01*
X14617458Y-55367450D01*
X14617450Y-55367458D01*
X14531202Y-55482670D01*
X14480910Y-55617511D01*
X14480908Y-55617522D01*
X14477855Y-55645923D01*
X14475691Y-55666055D01*
X14474500Y-55677129D01*
X14474501Y-56278000D01*
X14455594Y-56336191D01*
X14406094Y-56372155D01*
X14375501Y-56377000D01*
X14344773Y-56377000D01*
X14297917Y-56389555D01*
X14242911Y-56404293D01*
X14201505Y-56428200D01*
X14201504Y-56428199D01*
X14151588Y-56457019D01*
X9413101Y-61195504D01*
X9358584Y-61223281D01*
X9343097Y-61224500D01*
X8927133Y-61224500D01*
X8927129Y-61224500D01*
X8927128Y-61224501D01*
X8919949Y-61225272D01*
X8867519Y-61230908D01*
X8867514Y-61230909D01*
X8732670Y-61281202D01*
X8617458Y-61367450D01*
X8617450Y-61367458D01*
X8531202Y-61482670D01*
X8480910Y-61617511D01*
X8480908Y-61617522D01*
X8476533Y-61658209D01*
X8474750Y-61674807D01*
X8474500Y-61677129D01*
X500500Y-61677129D01*
X500500Y-55677129D01*
X8474500Y-55677129D01*
X8474500Y-56322866D01*
X8474500Y-56322869D01*
X8474501Y-56322872D01*
X8475933Y-56336191D01*
X8480908Y-56382480D01*
X8480909Y-56382485D01*
X8531202Y-56517329D01*
X8617450Y-56632541D01*
X8617454Y-56632546D01*
X8617457Y-56632548D01*
X8617458Y-56632549D01*
X8732670Y-56718797D01*
X8867511Y-56769089D01*
X8867512Y-56769089D01*
X8867517Y-56769091D01*
X8927127Y-56775500D01*
X9422872Y-56775499D01*
X9482483Y-56769091D01*
X9549907Y-56743943D01*
X9617329Y-56718797D01*
X9617329Y-56718796D01*
X9617331Y-56718796D01*
X9732546Y-56632546D01*
X9818796Y-56517331D01*
X9869091Y-56382483D01*
X9875500Y-56322873D01*
X9875499Y-55677128D01*
X9869091Y-55617517D01*
X9861940Y-55598344D01*
X9818797Y-55482670D01*
X9732549Y-55367458D01*
X9732548Y-55367457D01*
X9732546Y-55367454D01*
X9732541Y-55367450D01*
X9617329Y-55281202D01*
X9482488Y-55230910D01*
X9482483Y-55230909D01*
X9482481Y-55230908D01*
X9482477Y-55230908D01*
X9451249Y-55227550D01*
X9422873Y-55224500D01*
X9422870Y-55224500D01*
X8927133Y-55224500D01*
X8927129Y-55224500D01*
X8927128Y-55224501D01*
X8919949Y-55225272D01*
X8867519Y-55230908D01*
X8867514Y-55230909D01*
X8732670Y-55281202D01*
X8617458Y-55367450D01*
X8617450Y-55367458D01*
X8531202Y-55482670D01*
X8480910Y-55617511D01*
X8480908Y-55617522D01*
X8477855Y-55645923D01*
X8475691Y-55666055D01*
X8474500Y-55677129D01*
X500500Y-55677129D01*
X500500Y-36276532D01*
X15489500Y-36276532D01*
X15489500Y-36483467D01*
X15529869Y-36686418D01*
X15609058Y-36877597D01*
X15707273Y-37024587D01*
X15724023Y-37049655D01*
X15870345Y-37195977D01*
X16042402Y-37310941D01*
X16233580Y-37390130D01*
X16436535Y-37430500D01*
X16436536Y-37430500D01*
X16643464Y-37430500D01*
X16643465Y-37430500D01*
X16846420Y-37390130D01*
X17037598Y-37310941D01*
X17209655Y-37195977D01*
X17355977Y-37049655D01*
X17470941Y-36877598D01*
X17550130Y-36686420D01*
X17590500Y-36483465D01*
X17590500Y-36276535D01*
X17590499Y-36276532D01*
X18029500Y-36276532D01*
X18029500Y-36483467D01*
X18069869Y-36686418D01*
X18149058Y-36877597D01*
X18247273Y-37024587D01*
X18264023Y-37049655D01*
X18410345Y-37195977D01*
X18582402Y-37310941D01*
X18773580Y-37390130D01*
X18976535Y-37430500D01*
X18976536Y-37430500D01*
X19183464Y-37430500D01*
X19183465Y-37430500D01*
X19386420Y-37390130D01*
X19577598Y-37310941D01*
X19749655Y-37195977D01*
X19895977Y-37049655D01*
X20010941Y-36877598D01*
X20090130Y-36686420D01*
X20130500Y-36483465D01*
X20130500Y-36276535D01*
X20130499Y-36276532D01*
X20569500Y-36276532D01*
X20569500Y-36483467D01*
X20609869Y-36686418D01*
X20689058Y-36877597D01*
X20787273Y-37024587D01*
X20804023Y-37049655D01*
X20950345Y-37195977D01*
X21122402Y-37310941D01*
X21313580Y-37390130D01*
X21516535Y-37430500D01*
X21516536Y-37430500D01*
X21723464Y-37430500D01*
X21723465Y-37430500D01*
X21926420Y-37390130D01*
X22117598Y-37310941D01*
X22289655Y-37195977D01*
X22435977Y-37049655D01*
X22550941Y-36877598D01*
X22630130Y-36686420D01*
X22670500Y-36483465D01*
X22670500Y-36276535D01*
X22670499Y-36276532D01*
X23109500Y-36276532D01*
X23109500Y-36483467D01*
X23149869Y-36686418D01*
X23229058Y-36877597D01*
X23327273Y-37024587D01*
X23344023Y-37049655D01*
X23490345Y-37195977D01*
X23662402Y-37310941D01*
X23853580Y-37390130D01*
X24056535Y-37430500D01*
X24056536Y-37430500D01*
X24263464Y-37430500D01*
X24263465Y-37430500D01*
X24466420Y-37390130D01*
X24657598Y-37310941D01*
X24829655Y-37195977D01*
X24975977Y-37049655D01*
X25090941Y-36877598D01*
X25170130Y-36686420D01*
X25210500Y-36483465D01*
X25210500Y-36276535D01*
X25170130Y-36073580D01*
X25090941Y-35882402D01*
X24975977Y-35710345D01*
X24829655Y-35564023D01*
X24657598Y-35449059D01*
X24657599Y-35449059D01*
X24657597Y-35449058D01*
X24466418Y-35369869D01*
X24263467Y-35329500D01*
X24263465Y-35329500D01*
X24056535Y-35329500D01*
X24056532Y-35329500D01*
X23853581Y-35369869D01*
X23662402Y-35449058D01*
X23490348Y-35564020D01*
X23344020Y-35710348D01*
X23229058Y-35882402D01*
X23149869Y-36073581D01*
X23109500Y-36276532D01*
X22670499Y-36276532D01*
X22630130Y-36073580D01*
X22550941Y-35882402D01*
X22435977Y-35710345D01*
X22289655Y-35564023D01*
X22117598Y-35449059D01*
X22117599Y-35449059D01*
X22117597Y-35449058D01*
X21926418Y-35369869D01*
X21723467Y-35329500D01*
X21723465Y-35329500D01*
X21516535Y-35329500D01*
X21516532Y-35329500D01*
X21313581Y-35369869D01*
X21122402Y-35449058D01*
X20950348Y-35564020D01*
X20804020Y-35710348D01*
X20689058Y-35882402D01*
X20609869Y-36073581D01*
X20569500Y-36276532D01*
X20130499Y-36276532D01*
X20090130Y-36073580D01*
X20010941Y-35882402D01*
X19895977Y-35710345D01*
X19749655Y-35564023D01*
X19577598Y-35449059D01*
X19577599Y-35449059D01*
X19577597Y-35449058D01*
X19386418Y-35369869D01*
X19183467Y-35329500D01*
X19183465Y-35329500D01*
X18976535Y-35329500D01*
X18976532Y-35329500D01*
X18773581Y-35369869D01*
X18582402Y-35449058D01*
X18410348Y-35564020D01*
X18264020Y-35710348D01*
X18149058Y-35882402D01*
X18069869Y-36073581D01*
X18029500Y-36276532D01*
X17590499Y-36276532D01*
X17550130Y-36073580D01*
X17470941Y-35882402D01*
X17355977Y-35710345D01*
X17209655Y-35564023D01*
X17037598Y-35449059D01*
X17037599Y-35449059D01*
X17037597Y-35449058D01*
X16846418Y-35369869D01*
X16643467Y-35329500D01*
X16643465Y-35329500D01*
X16436535Y-35329500D01*
X16436532Y-35329500D01*
X16233581Y-35369869D01*
X16042402Y-35449058D01*
X15870348Y-35564020D01*
X15724020Y-35710348D01*
X15609058Y-35882402D01*
X15529869Y-36073581D01*
X15489500Y-36276532D01*
X500500Y-36276532D01*
X500500Y-26226593D01*
X8824500Y-26226593D01*
X8824500Y-27762806D01*
X8835123Y-27851265D01*
X8890637Y-27992039D01*
X8890638Y-27992041D01*
X8890639Y-27992042D01*
X8982078Y-28112622D01*
X9102658Y-28204061D01*
X9102659Y-28204061D01*
X9102660Y-28204062D01*
X9173047Y-28231819D01*
X9243436Y-28259577D01*
X9331898Y-28270200D01*
X9331900Y-28270200D01*
X10618100Y-28270200D01*
X10618102Y-28270200D01*
X10706564Y-28259577D01*
X10847342Y-28204061D01*
X10967922Y-28112622D01*
X11059361Y-27992042D01*
X11114877Y-27851264D01*
X11125500Y-27762802D01*
X11125500Y-26779150D01*
X13824500Y-26779150D01*
X13824500Y-27210249D01*
X13852828Y-27389106D01*
X13908788Y-27561337D01*
X13975936Y-27693123D01*
X13991004Y-27722694D01*
X14097447Y-27869201D01*
X14225499Y-27997253D01*
X14372006Y-28103696D01*
X14533361Y-28185911D01*
X14705591Y-28241871D01*
X14777136Y-28253202D01*
X14884451Y-28270200D01*
X14884454Y-28270200D01*
X15065549Y-28270200D01*
X15154977Y-28256035D01*
X15244409Y-28241871D01*
X15416639Y-28185911D01*
X15577994Y-28103696D01*
X15724501Y-27997253D01*
X15852553Y-27869201D01*
X15958996Y-27722694D01*
X16041211Y-27561339D01*
X16097171Y-27389109D01*
X16111335Y-27299677D01*
X16125500Y-27210249D01*
X16125500Y-26779150D01*
X16097171Y-26600293D01*
X16097171Y-26600291D01*
X16041211Y-26428061D01*
X15958996Y-26266706D01*
X15929852Y-26226593D01*
X22774500Y-26226593D01*
X22774500Y-27762806D01*
X22785123Y-27851265D01*
X22840637Y-27992039D01*
X22840638Y-27992041D01*
X22840639Y-27992042D01*
X22932078Y-28112622D01*
X23052658Y-28204061D01*
X23052659Y-28204061D01*
X23052660Y-28204062D01*
X23123047Y-28231819D01*
X23193436Y-28259577D01*
X23281898Y-28270200D01*
X23281900Y-28270200D01*
X24568100Y-28270200D01*
X24568102Y-28270200D01*
X24656564Y-28259577D01*
X24797342Y-28204061D01*
X24917922Y-28112622D01*
X25009361Y-27992042D01*
X25064877Y-27851264D01*
X25075500Y-27762802D01*
X25075500Y-26226598D01*
X25064877Y-26138136D01*
X25009361Y-25997358D01*
X24917922Y-25876778D01*
X24797342Y-25785339D01*
X24797341Y-25785338D01*
X24797339Y-25785337D01*
X24656565Y-25729823D01*
X24568106Y-25719200D01*
X24568102Y-25719200D01*
X23281898Y-25719200D01*
X23281893Y-25719200D01*
X23193434Y-25729823D01*
X23052660Y-25785337D01*
X23052656Y-25785340D01*
X22932081Y-25876775D01*
X22932075Y-25876781D01*
X22840640Y-25997356D01*
X22840637Y-25997360D01*
X22785123Y-26138134D01*
X22774500Y-26226593D01*
X15929852Y-26226593D01*
X15852553Y-26120199D01*
X15724501Y-25992147D01*
X15577994Y-25885704D01*
X15577993Y-25885703D01*
X15577991Y-25885702D01*
X15416637Y-25803488D01*
X15244406Y-25747528D01*
X15065549Y-25719200D01*
X15065546Y-25719200D01*
X14884454Y-25719200D01*
X14884451Y-25719200D01*
X14705593Y-25747528D01*
X14533362Y-25803488D01*
X14372008Y-25885702D01*
X14298752Y-25938925D01*
X14225499Y-25992147D01*
X14097447Y-26120199D01*
X14084417Y-26138134D01*
X13991002Y-26266708D01*
X13908788Y-26428062D01*
X13852828Y-26600293D01*
X13824500Y-26779150D01*
X11125500Y-26779150D01*
X11125500Y-26226598D01*
X11114877Y-26138136D01*
X11059361Y-25997358D01*
X10967922Y-25876778D01*
X10847342Y-25785339D01*
X10847341Y-25785338D01*
X10847339Y-25785337D01*
X10706565Y-25729823D01*
X10618106Y-25719200D01*
X10618102Y-25719200D01*
X9331898Y-25719200D01*
X9331893Y-25719200D01*
X9243434Y-25729823D01*
X9102660Y-25785337D01*
X9102656Y-25785340D01*
X8982081Y-25876775D01*
X8982075Y-25876781D01*
X8890640Y-25997356D01*
X8890637Y-25997360D01*
X8835123Y-26138134D01*
X8824500Y-26226593D01*
X500500Y-26226593D01*
X500500Y-3378710D01*
X1649500Y-3378710D01*
X1649500Y-3621289D01*
X1681161Y-3861781D01*
X1681161Y-3861786D01*
X1743944Y-4096092D01*
X1743948Y-4096105D01*
X1836772Y-4320204D01*
X1836774Y-4320208D01*
X1836776Y-4320212D01*
X1958064Y-4530289D01*
X1958066Y-4530292D01*
X2105729Y-4722731D01*
X2105731Y-4722733D01*
X2105735Y-4722738D01*
X2277262Y-4894265D01*
X2277266Y-4894268D01*
X2277268Y-4894270D01*
X2469707Y-5041933D01*
X2469711Y-5041936D01*
X2679788Y-5163224D01*
X2903900Y-5256054D01*
X3138211Y-5318838D01*
X3378712Y-5350500D01*
X3378713Y-5350500D01*
X3621287Y-5350500D01*
X3621288Y-5350500D01*
X3861789Y-5318838D01*
X4096100Y-5256054D01*
X4320212Y-5163224D01*
X4530289Y-5041936D01*
X4722738Y-4894265D01*
X4894265Y-4722738D01*
X5041936Y-4530289D01*
X5163224Y-4320212D01*
X5256054Y-4096100D01*
X5318838Y-3861789D01*
X5350500Y-3621288D01*
X5350500Y-3378712D01*
X5350500Y-3378710D01*
X114649500Y-3378710D01*
X114649500Y-3621289D01*
X114681161Y-3861781D01*
X114681161Y-3861786D01*
X114743944Y-4096092D01*
X114743948Y-4096105D01*
X114836772Y-4320204D01*
X114836774Y-4320208D01*
X114836776Y-4320212D01*
X114958064Y-4530289D01*
X114958066Y-4530292D01*
X115105729Y-4722731D01*
X115105731Y-4722733D01*
X115105735Y-4722738D01*
X115277262Y-4894265D01*
X115277266Y-4894268D01*
X115277268Y-4894270D01*
X115469707Y-5041933D01*
X115469711Y-5041936D01*
X115679788Y-5163224D01*
X115903900Y-5256054D01*
X116138211Y-5318838D01*
X116378712Y-5350500D01*
X116378713Y-5350500D01*
X116621287Y-5350500D01*
X116621288Y-5350500D01*
X116861789Y-5318838D01*
X117096100Y-5256054D01*
X117320212Y-5163224D01*
X117530289Y-5041936D01*
X117722738Y-4894265D01*
X117894265Y-4722738D01*
X118041936Y-4530289D01*
X118163224Y-4320212D01*
X118256054Y-4096100D01*
X118318838Y-3861789D01*
X118350500Y-3621288D01*
X118350500Y-3378712D01*
X118318838Y-3138211D01*
X118256054Y-2903900D01*
X118163224Y-2679788D01*
X118041936Y-2469711D01*
X117894265Y-2277262D01*
X117722738Y-2105735D01*
X117722733Y-2105731D01*
X117722731Y-2105729D01*
X117530292Y-1958066D01*
X117530289Y-1958064D01*
X117320212Y-1836776D01*
X117320208Y-1836774D01*
X117320204Y-1836772D01*
X117096105Y-1743948D01*
X117096104Y-1743947D01*
X117096100Y-1743946D01*
X116861789Y-1681162D01*
X116861786Y-1681161D01*
X116861784Y-1681161D01*
X116621289Y-1649500D01*
X116621288Y-1649500D01*
X116378712Y-1649500D01*
X116378710Y-1649500D01*
X116138218Y-1681161D01*
X116138213Y-1681161D01*
X115903907Y-1743944D01*
X115903894Y-1743948D01*
X115679795Y-1836772D01*
X115469707Y-1958066D01*
X115277268Y-2105729D01*
X115105729Y-2277268D01*
X114958066Y-2469707D01*
X114836772Y-2679795D01*
X114743948Y-2903894D01*
X114743944Y-2903907D01*
X114681161Y-3138213D01*
X114681161Y-3138218D01*
X114649500Y-3378710D01*
X5350500Y-3378710D01*
X5318838Y-3138211D01*
X5256054Y-2903900D01*
X5163224Y-2679788D01*
X5041936Y-2469711D01*
X4894265Y-2277262D01*
X4722738Y-2105735D01*
X4722733Y-2105731D01*
X4722731Y-2105729D01*
X4530292Y-1958066D01*
X4530289Y-1958064D01*
X4320212Y-1836776D01*
X4320208Y-1836774D01*
X4320204Y-1836772D01*
X4096105Y-1743948D01*
X4096104Y-1743947D01*
X4096100Y-1743946D01*
X3861789Y-1681162D01*
X3861786Y-1681161D01*
X3861784Y-1681161D01*
X3621289Y-1649500D01*
X3621288Y-1649500D01*
X3378712Y-1649500D01*
X3378710Y-1649500D01*
X3138218Y-1681161D01*
X3138213Y-1681161D01*
X2903907Y-1743944D01*
X2903894Y-1743948D01*
X2679795Y-1836772D01*
X2469707Y-1958066D01*
X2277268Y-2105729D01*
X2105729Y-2277268D01*
X1958066Y-2469707D01*
X1836772Y-2679795D01*
X1743948Y-2903894D01*
X1743944Y-2903907D01*
X1681161Y-3138213D01*
X1681161Y-3138218D01*
X1649500Y-3378710D01*
X500500Y-3378710D01*
X500500Y-599500D01*
X519407Y-541309D01*
X568907Y-505345D01*
X599500Y-500500D01*
X119400500Y-500500D01*
X119458691Y-519407D01*
G37*
%TD.AperFunction*%
%TD*%
M02*
