%TF.GenerationSoftware,KiCad,Pcbnew,10.0.5*%
%TF.CreationDate,2026-08-05T00:31:14-05:00*%
%TF.ProjectId,ext-tank-routing,6578742d-7461-46e6-9b2d-726f7574696e,rev?*%
%TF.SameCoordinates,Original*%
%TF.FileFunction,Soldermask,Top*%
%TF.FilePolarity,Negative*%
%FSLAX46Y46*%
G04 Gerber Fmt 4.6, Leading zero omitted, Abs format (unit mm)*
G04 Created by KiCad (PCBNEW 10.0.5) date 2026-08-05 00:31:14*
%MOMM*%
%LPD*%
G01*
G04 APERTURE LIST*
G04 Aperture macros list*
%AMRoundRect*
0 Rectangle with rounded corners*
0 $1 Rounding radius*
0 $2 $3 $4 $5 $6 $7 $8 $9 X,Y pos of 4 corners*
0 Add a 4 corners polygon primitive as box body*
4,1,4,$2,$3,$4,$5,$6,$7,$8,$9,$2,$3,0*
0 Add four circle primitives for the rounded corners*
1,1,$1+$1,$2,$3*
1,1,$1+$1,$4,$5*
1,1,$1+$1,$6,$7*
1,1,$1+$1,$8,$9*
0 Add four rect primitives between the rounded corners*
20,1,$1+$1,$2,$3,$4,$5,0*
20,1,$1+$1,$4,$5,$6,$7,0*
20,1,$1+$1,$6,$7,$8,$9,0*
20,1,$1+$1,$8,$9,$2,$3,0*%
G04 Aperture macros list end*
%ADD10C,3.200000*%
%ADD11RoundRect,0.200000X-0.200000X-0.275000X0.200000X-0.275000X0.200000X0.275000X-0.200000X0.275000X0*%
%ADD12RoundRect,0.150000X-0.825000X-0.150000X0.825000X-0.150000X0.825000X0.150000X-0.825000X0.150000X0*%
%ADD13RoundRect,0.225000X-0.225000X-0.250000X0.225000X-0.250000X0.225000X0.250000X-0.225000X0.250000X0*%
%ADD14RoundRect,0.250000X-0.600000X-0.725000X0.600000X-0.725000X0.600000X0.725000X-0.600000X0.725000X0*%
%ADD15O,1.700000X1.950000*%
%ADD16RoundRect,0.225000X-0.225000X-0.375000X0.225000X-0.375000X0.225000X0.375000X-0.225000X0.375000X0*%
%ADD17C,1.500000*%
%ADD18R,1.500000X1.500000*%
%ADD19RoundRect,0.250000X-1.250000X-0.550000X1.250000X-0.550000X1.250000X0.550000X-1.250000X0.550000X0*%
%ADD20RoundRect,0.250001X-1.099999X-1.099999X1.099999X-1.099999X1.099999X1.099999X-1.099999X1.099999X0*%
%ADD21C,2.700000*%
G04 APERTURE END LIST*
D10*
%TO.C,H4*%
X3500000Y-76500000D03*
%TD*%
D11*
%TO.C,R226*%
X15175000Y-62000000D03*
X16825000Y-62000000D03*
%TD*%
D12*
%TO.C,U201*%
X99288100Y-24914700D03*
X99288100Y-26184700D03*
X99288100Y-27454700D03*
X99288100Y-28724700D03*
X99288100Y-29994700D03*
X99288100Y-31264700D03*
X99288100Y-32534700D03*
X104238100Y-32534700D03*
X104238100Y-31264700D03*
X104238100Y-29994700D03*
X104238100Y-28724700D03*
X104238100Y-27454700D03*
X104238100Y-26184700D03*
X104238100Y-24914700D03*
%TD*%
D13*
%TO.C,C295*%
X45225000Y-62000000D03*
X46775000Y-62000000D03*
%TD*%
D14*
%TO.C,P202*%
X41425000Y-11398200D03*
D15*
X43925000Y-11398200D03*
X46425000Y-11398200D03*
X48925000Y-11398200D03*
X51425000Y-11398200D03*
X53925000Y-11398200D03*
%TD*%
D11*
%TO.C,R224*%
X75175000Y-56000000D03*
X76825000Y-56000000D03*
%TD*%
%TO.C,R201*%
X9175000Y-56000000D03*
X10825000Y-56000000D03*
%TD*%
D13*
%TO.C,C291*%
X33225000Y-62000000D03*
X34775000Y-62000000D03*
%TD*%
D11*
%TO.C,R222*%
X63175000Y-56000000D03*
X64825000Y-56000000D03*
%TD*%
D10*
%TO.C,H1*%
X3500000Y-3500000D03*
%TD*%
D11*
%TO.C,R204*%
X27175000Y-56000000D03*
X28825000Y-56000000D03*
%TD*%
D14*
%TO.C,P203*%
X62875000Y-11398200D03*
D15*
X65375000Y-11398200D03*
X67875000Y-11398200D03*
X70375000Y-11398200D03*
X72875000Y-11398200D03*
X75375000Y-11398200D03*
%TD*%
D14*
%TO.C,P201*%
X104600000Y-11398200D03*
D15*
X107100000Y-11398200D03*
X109600000Y-11398200D03*
%TD*%
D14*
%TO.C,P206*%
X9975000Y-11398200D03*
D15*
X12475000Y-11398200D03*
X14975000Y-11398200D03*
X17475000Y-11398200D03*
X19975000Y-11398200D03*
X22475000Y-11398200D03*
X24975000Y-11398200D03*
X27475000Y-11398200D03*
X29975000Y-11398200D03*
X32475000Y-11398200D03*
%TD*%
D11*
%TO.C,R229*%
X21175000Y-62000000D03*
X22825000Y-62000000D03*
%TD*%
D16*
%TO.C,D264*%
X110350000Y-46000000D03*
X113650000Y-46000000D03*
%TD*%
D17*
%TO.C,K202*%
X43080000Y-44000000D03*
X40540000Y-44000000D03*
X45620000Y-44000000D03*
X43080000Y-36380000D03*
X40540000Y-36380000D03*
X45620000Y-36380000D03*
D18*
X38000000Y-44000000D03*
D17*
X38000000Y-36380000D03*
X48160000Y-44000000D03*
X48160000Y-36380000D03*
%TD*%
%TO.C,K201*%
X19080000Y-44000000D03*
X16540000Y-44000000D03*
X21620000Y-44000000D03*
X19080000Y-36380000D03*
X16540000Y-36380000D03*
X21620000Y-36380000D03*
D18*
X14000000Y-44000000D03*
D17*
X14000000Y-36380000D03*
X24160000Y-44000000D03*
X24160000Y-36380000D03*
%TD*%
D13*
%TO.C,C292*%
X39225000Y-62000000D03*
X40775000Y-62000000D03*
%TD*%
D11*
%TO.C,R203*%
X21175000Y-56000000D03*
X22825000Y-56000000D03*
%TD*%
%TO.C,R231*%
X27175000Y-62000000D03*
X28825000Y-62000000D03*
%TD*%
D10*
%TO.C,H2*%
X116500000Y-3500000D03*
%TD*%
D17*
%TO.C,K204*%
X91080000Y-44000000D03*
X88540000Y-44000000D03*
X93620000Y-44000000D03*
X91080000Y-36380000D03*
X88540000Y-36380000D03*
X93620000Y-36380000D03*
D18*
X86000000Y-44000000D03*
D17*
X86000000Y-36380000D03*
X96160000Y-44000000D03*
X96160000Y-36380000D03*
%TD*%
D19*
%TO.C,C293*%
X59800000Y-63000000D03*
X64200000Y-63000000D03*
%TD*%
D11*
%TO.C,R209*%
X45175000Y-56000000D03*
X46825000Y-56000000D03*
%TD*%
D14*
%TO.C,P204*%
X9975000Y-26994700D03*
D15*
X12475000Y-26994700D03*
X14975000Y-26994700D03*
%TD*%
D11*
%TO.C,R206*%
X39175000Y-56000000D03*
X40825000Y-56000000D03*
%TD*%
D16*
%TO.C,D262*%
X110350000Y-40000000D03*
X113650000Y-40000000D03*
%TD*%
D11*
%TO.C,R205*%
X33175000Y-56000000D03*
X34825000Y-56000000D03*
%TD*%
D14*
%TO.C,P205*%
X23925000Y-26994700D03*
D15*
X26425000Y-26994700D03*
X28925000Y-26994700D03*
%TD*%
D19*
%TO.C,C296*%
X79800000Y-63000000D03*
X84200000Y-63000000D03*
%TD*%
D20*
%TO.C,P207*%
X84270000Y-12748200D03*
D21*
X88230000Y-12748200D03*
X92190000Y-12748200D03*
X96150000Y-12748200D03*
%TD*%
D19*
%TO.C,C294*%
X69800000Y-63000000D03*
X74200000Y-63000000D03*
%TD*%
D11*
%TO.C,R211*%
X51175000Y-56000000D03*
X52825000Y-56000000D03*
%TD*%
D10*
%TO.C,H3*%
X116500000Y-76500000D03*
%TD*%
D16*
%TO.C,D263*%
X104350000Y-46000000D03*
X107650000Y-46000000D03*
%TD*%
D11*
%TO.C,R221*%
X57175000Y-56000000D03*
X58825000Y-56000000D03*
%TD*%
%TO.C,R225*%
X9175000Y-62000000D03*
X10825000Y-62000000D03*
%TD*%
D17*
%TO.C,K203*%
X67080000Y-44000000D03*
X64540000Y-44000000D03*
X69620000Y-44000000D03*
X67080000Y-36380000D03*
X64540000Y-36380000D03*
X69620000Y-36380000D03*
D18*
X62000000Y-44000000D03*
D17*
X62000000Y-36380000D03*
X72160000Y-44000000D03*
X72160000Y-36380000D03*
%TD*%
D11*
%TO.C,R223*%
X69175000Y-56000000D03*
X70825000Y-56000000D03*
%TD*%
%TO.C,R202*%
X15175000Y-56000000D03*
X16825000Y-56000000D03*
%TD*%
D16*
%TO.C,D261*%
X104350000Y-40000000D03*
X107650000Y-40000000D03*
%TD*%
M02*
