%TF.GenerationSoftware,KiCad,Pcbnew,10.0.5*%
%TF.CreationDate,2026-08-05T00:31:14-05:00*%
%TF.ProjectId,ext-tank-routing,6578742d-7461-46e6-9b2d-726f7574696e,rev?*%
%TF.SameCoordinates,Original*%
%TF.FileFunction,Other,Comment*%
%FSLAX46Y46*%
G04 Gerber Fmt 4.6, Leading zero omitted, Abs format (unit mm)*
G04 Created by KiCad (PCBNEW 10.0.5) date 2026-08-05 00:31:14*
%MOMM*%
%LPD*%
G01*
G04 APERTURE LIST*
%ADD10C,0.180000*%
%ADD11C,0.200000*%
%ADD12C,0.150000*%
G04 APERTURE END LIST*
D10*
X-11607142Y-43184568D02*
X-11321428Y-43184568D01*
X-11321428Y-43184568D02*
X-11178571Y-43255997D01*
X-11178571Y-43255997D02*
X-11035714Y-43398854D01*
X-11035714Y-43398854D02*
X-10964285Y-43684568D01*
X-10964285Y-43684568D02*
X-10964285Y-44184568D01*
X-10964285Y-44184568D02*
X-11035714Y-44470282D01*
X-11035714Y-44470282D02*
X-11178571Y-44613140D01*
X-11178571Y-44613140D02*
X-11321428Y-44684568D01*
X-11321428Y-44684568D02*
X-11607142Y-44684568D01*
X-11607142Y-44684568D02*
X-11750000Y-44613140D01*
X-11750000Y-44613140D02*
X-11892857Y-44470282D01*
X-11892857Y-44470282D02*
X-11964285Y-44184568D01*
X-11964285Y-44184568D02*
X-11964285Y-43684568D01*
X-11964285Y-43684568D02*
X-11892857Y-43398854D01*
X-11892857Y-43398854D02*
X-11750000Y-43255997D01*
X-11750000Y-43255997D02*
X-11607142Y-43184568D01*
X-10321428Y-43184568D02*
X-10321428Y-44398854D01*
X-10321428Y-44398854D02*
X-10249999Y-44541711D01*
X-10249999Y-44541711D02*
X-10178571Y-44613140D01*
X-10178571Y-44613140D02*
X-10035713Y-44684568D01*
X-10035713Y-44684568D02*
X-9749999Y-44684568D01*
X-9749999Y-44684568D02*
X-9607142Y-44613140D01*
X-9607142Y-44613140D02*
X-9535713Y-44541711D01*
X-9535713Y-44541711D02*
X-9464285Y-44398854D01*
X-9464285Y-44398854D02*
X-9464285Y-43184568D01*
X-8964284Y-43184568D02*
X-8107142Y-43184568D01*
X-8535713Y-44684568D02*
X-8535713Y-43184568D01*
X-6892856Y-44684568D02*
X-7607142Y-44684568D01*
X-7607142Y-44684568D02*
X-7607142Y-43184568D01*
X-6392856Y-44684568D02*
X-6392856Y-43184568D01*
X-5678570Y-44684568D02*
X-5678570Y-43184568D01*
X-5678570Y-43184568D02*
X-4821427Y-44684568D01*
X-4821427Y-44684568D02*
X-4821427Y-43184568D01*
X-4107141Y-43898854D02*
X-3607141Y-43898854D01*
X-3392855Y-44684568D02*
X-4107141Y-44684568D01*
X-4107141Y-44684568D02*
X-4107141Y-43184568D01*
X-4107141Y-43184568D02*
X-3392855Y-43184568D01*
X-1678569Y-44613140D02*
X-1464284Y-44684568D01*
X-1464284Y-44684568D02*
X-1107141Y-44684568D01*
X-1107141Y-44684568D02*
X-964284Y-44613140D01*
X-964284Y-44613140D02*
X-892855Y-44541711D01*
X-892855Y-44541711D02*
X-821426Y-44398854D01*
X-821426Y-44398854D02*
X-821426Y-44255997D01*
X-821426Y-44255997D02*
X-892855Y-44113140D01*
X-892855Y-44113140D02*
X-964284Y-44041711D01*
X-964284Y-44041711D02*
X-1107141Y-43970282D01*
X-1107141Y-43970282D02*
X-1392855Y-43898854D01*
X-1392855Y-43898854D02*
X-1535712Y-43827425D01*
X-1535712Y-43827425D02*
X-1607141Y-43755997D01*
X-1607141Y-43755997D02*
X-1678569Y-43613140D01*
X-1678569Y-43613140D02*
X-1678569Y-43470282D01*
X-1678569Y-43470282D02*
X-1607141Y-43327425D01*
X-1607141Y-43327425D02*
X-1535712Y-43255997D01*
X-1535712Y-43255997D02*
X-1392855Y-43184568D01*
X-1392855Y-43184568D02*
X-1035712Y-43184568D01*
X-1035712Y-43184568D02*
X-821426Y-43255997D01*
X678572Y-44541711D02*
X607144Y-44613140D01*
X607144Y-44613140D02*
X392858Y-44684568D01*
X392858Y-44684568D02*
X250001Y-44684568D01*
X250001Y-44684568D02*
X35715Y-44613140D01*
X35715Y-44613140D02*
X-107141Y-44470282D01*
X-107141Y-44470282D02*
X-178570Y-44327425D01*
X-178570Y-44327425D02*
X-249998Y-44041711D01*
X-249998Y-44041711D02*
X-249998Y-43827425D01*
X-249998Y-43827425D02*
X-178570Y-43541711D01*
X-178570Y-43541711D02*
X-107141Y-43398854D01*
X-107141Y-43398854D02*
X35715Y-43255997D01*
X35715Y-43255997D02*
X250001Y-43184568D01*
X250001Y-43184568D02*
X392858Y-43184568D01*
X392858Y-43184568D02*
X607144Y-43255997D01*
X607144Y-43255997D02*
X678572Y-43327425D01*
X1250001Y-44255997D02*
X1964287Y-44255997D01*
X1107144Y-44684568D02*
X1607144Y-43184568D01*
X1607144Y-43184568D02*
X2107144Y-44684568D01*
X3107143Y-43898854D02*
X2607143Y-43898854D01*
X2607143Y-44684568D02*
X2607143Y-43184568D01*
X2607143Y-43184568D02*
X3321429Y-43184568D01*
X4392857Y-43898854D02*
X3892857Y-43898854D01*
X3892857Y-44684568D02*
X3892857Y-43184568D01*
X3892857Y-43184568D02*
X4607143Y-43184568D01*
X5464286Y-43184568D02*
X5750000Y-43184568D01*
X5750000Y-43184568D02*
X5892857Y-43255997D01*
X5892857Y-43255997D02*
X6035714Y-43398854D01*
X6035714Y-43398854D02*
X6107143Y-43684568D01*
X6107143Y-43684568D02*
X6107143Y-44184568D01*
X6107143Y-44184568D02*
X6035714Y-44470282D01*
X6035714Y-44470282D02*
X5892857Y-44613140D01*
X5892857Y-44613140D02*
X5750000Y-44684568D01*
X5750000Y-44684568D02*
X5464286Y-44684568D01*
X5464286Y-44684568D02*
X5321429Y-44613140D01*
X5321429Y-44613140D02*
X5178571Y-44470282D01*
X5178571Y-44470282D02*
X5107143Y-44184568D01*
X5107143Y-44184568D02*
X5107143Y-43684568D01*
X5107143Y-43684568D02*
X5178571Y-43398854D01*
X5178571Y-43398854D02*
X5321429Y-43255997D01*
X5321429Y-43255997D02*
X5464286Y-43184568D01*
X7464286Y-44684568D02*
X6750000Y-44684568D01*
X6750000Y-44684568D02*
X6750000Y-43184568D01*
X7964286Y-44684568D02*
X7964286Y-43184568D01*
X7964286Y-43184568D02*
X8321429Y-43184568D01*
X8321429Y-43184568D02*
X8535715Y-43255997D01*
X8535715Y-43255997D02*
X8678572Y-43398854D01*
X8678572Y-43398854D02*
X8750001Y-43541711D01*
X8750001Y-43541711D02*
X8821429Y-43827425D01*
X8821429Y-43827425D02*
X8821429Y-44041711D01*
X8821429Y-44041711D02*
X8750001Y-44327425D01*
X8750001Y-44327425D02*
X8678572Y-44470282D01*
X8678572Y-44470282D02*
X8535715Y-44613140D01*
X8535715Y-44613140D02*
X8321429Y-44684568D01*
X8321429Y-44684568D02*
X7964286Y-44684568D01*
X10607143Y-44113140D02*
X11750001Y-44113140D01*
X13607143Y-44684568D02*
X13607143Y-43184568D01*
X13607143Y-43184568D02*
X14464286Y-44684568D01*
X14464286Y-44684568D02*
X14464286Y-43184568D01*
X15464287Y-43184568D02*
X15750001Y-43184568D01*
X15750001Y-43184568D02*
X15892858Y-43255997D01*
X15892858Y-43255997D02*
X16035715Y-43398854D01*
X16035715Y-43398854D02*
X16107144Y-43684568D01*
X16107144Y-43684568D02*
X16107144Y-44184568D01*
X16107144Y-44184568D02*
X16035715Y-44470282D01*
X16035715Y-44470282D02*
X15892858Y-44613140D01*
X15892858Y-44613140D02*
X15750001Y-44684568D01*
X15750001Y-44684568D02*
X15464287Y-44684568D01*
X15464287Y-44684568D02*
X15321430Y-44613140D01*
X15321430Y-44613140D02*
X15178572Y-44470282D01*
X15178572Y-44470282D02*
X15107144Y-44184568D01*
X15107144Y-44184568D02*
X15107144Y-43684568D01*
X15107144Y-43684568D02*
X15178572Y-43398854D01*
X15178572Y-43398854D02*
X15321430Y-43255997D01*
X15321430Y-43255997D02*
X15464287Y-43184568D01*
X16535716Y-43184568D02*
X17392859Y-43184568D01*
X16964287Y-44684568D02*
X16964287Y-43184568D01*
X19535715Y-43898854D02*
X19035715Y-43898854D01*
X19035715Y-44684568D02*
X19035715Y-43184568D01*
X19035715Y-43184568D02*
X19750001Y-43184568D01*
X20607144Y-43184568D02*
X20892858Y-43184568D01*
X20892858Y-43184568D02*
X21035715Y-43255997D01*
X21035715Y-43255997D02*
X21178572Y-43398854D01*
X21178572Y-43398854D02*
X21250001Y-43684568D01*
X21250001Y-43684568D02*
X21250001Y-44184568D01*
X21250001Y-44184568D02*
X21178572Y-44470282D01*
X21178572Y-44470282D02*
X21035715Y-44613140D01*
X21035715Y-44613140D02*
X20892858Y-44684568D01*
X20892858Y-44684568D02*
X20607144Y-44684568D01*
X20607144Y-44684568D02*
X20464287Y-44613140D01*
X20464287Y-44613140D02*
X20321429Y-44470282D01*
X20321429Y-44470282D02*
X20250001Y-44184568D01*
X20250001Y-44184568D02*
X20250001Y-43684568D01*
X20250001Y-43684568D02*
X20321429Y-43398854D01*
X20321429Y-43398854D02*
X20464287Y-43255997D01*
X20464287Y-43255997D02*
X20607144Y-43184568D01*
X22750001Y-44684568D02*
X22250001Y-43970282D01*
X21892858Y-44684568D02*
X21892858Y-43184568D01*
X21892858Y-43184568D02*
X22464287Y-43184568D01*
X22464287Y-43184568D02*
X22607144Y-43255997D01*
X22607144Y-43255997D02*
X22678573Y-43327425D01*
X22678573Y-43327425D02*
X22750001Y-43470282D01*
X22750001Y-43470282D02*
X22750001Y-43684568D01*
X22750001Y-43684568D02*
X22678573Y-43827425D01*
X22678573Y-43827425D02*
X22607144Y-43898854D01*
X22607144Y-43898854D02*
X22464287Y-43970282D01*
X22464287Y-43970282D02*
X21892858Y-43970282D01*
X25035715Y-43898854D02*
X24535715Y-43898854D01*
X24535715Y-44684568D02*
X24535715Y-43184568D01*
X24535715Y-43184568D02*
X25250001Y-43184568D01*
X25750001Y-44255997D02*
X26464287Y-44255997D01*
X25607144Y-44684568D02*
X26107144Y-43184568D01*
X26107144Y-43184568D02*
X26607144Y-44684568D01*
X27607143Y-43898854D02*
X27821429Y-43970282D01*
X27821429Y-43970282D02*
X27892858Y-44041711D01*
X27892858Y-44041711D02*
X27964286Y-44184568D01*
X27964286Y-44184568D02*
X27964286Y-44398854D01*
X27964286Y-44398854D02*
X27892858Y-44541711D01*
X27892858Y-44541711D02*
X27821429Y-44613140D01*
X27821429Y-44613140D02*
X27678572Y-44684568D01*
X27678572Y-44684568D02*
X27107143Y-44684568D01*
X27107143Y-44684568D02*
X27107143Y-43184568D01*
X27107143Y-43184568D02*
X27607143Y-43184568D01*
X27607143Y-43184568D02*
X27750001Y-43255997D01*
X27750001Y-43255997D02*
X27821429Y-43327425D01*
X27821429Y-43327425D02*
X27892858Y-43470282D01*
X27892858Y-43470282D02*
X27892858Y-43613140D01*
X27892858Y-43613140D02*
X27821429Y-43755997D01*
X27821429Y-43755997D02*
X27750001Y-43827425D01*
X27750001Y-43827425D02*
X27607143Y-43898854D01*
X27607143Y-43898854D02*
X27107143Y-43898854D01*
D11*
X-22809527Y-39010076D02*
X-23000003Y-38914838D01*
X-23000003Y-38914838D02*
X-23285717Y-38914838D01*
X-23285717Y-38914838D02*
X-23571432Y-39010076D01*
X-23571432Y-39010076D02*
X-23761908Y-39200552D01*
X-23761908Y-39200552D02*
X-23857146Y-39391028D01*
X-23857146Y-39391028D02*
X-23952384Y-39771980D01*
X-23952384Y-39771980D02*
X-23952384Y-40057695D01*
X-23952384Y-40057695D02*
X-23857146Y-40438647D01*
X-23857146Y-40438647D02*
X-23761908Y-40629123D01*
X-23761908Y-40629123D02*
X-23571432Y-40819600D01*
X-23571432Y-40819600D02*
X-23285717Y-40914838D01*
X-23285717Y-40914838D02*
X-23095241Y-40914838D01*
X-23095241Y-40914838D02*
X-22809527Y-40819600D01*
X-22809527Y-40819600D02*
X-22714289Y-40724361D01*
X-22714289Y-40724361D02*
X-22714289Y-40057695D01*
X-22714289Y-40057695D02*
X-23095241Y-40057695D01*
X-21952384Y-40343409D02*
X-21000003Y-40343409D01*
X-22142860Y-40914838D02*
X-21476194Y-38914838D01*
X-21476194Y-38914838D02*
X-20809527Y-40914838D01*
X-20238098Y-40819600D02*
X-19952384Y-40914838D01*
X-19952384Y-40914838D02*
X-19476193Y-40914838D01*
X-19476193Y-40914838D02*
X-19285717Y-40819600D01*
X-19285717Y-40819600D02*
X-19190479Y-40724361D01*
X-19190479Y-40724361D02*
X-19095241Y-40533885D01*
X-19095241Y-40533885D02*
X-19095241Y-40343409D01*
X-19095241Y-40343409D02*
X-19190479Y-40152933D01*
X-19190479Y-40152933D02*
X-19285717Y-40057695D01*
X-19285717Y-40057695D02*
X-19476193Y-39962457D01*
X-19476193Y-39962457D02*
X-19857146Y-39867219D01*
X-19857146Y-39867219D02*
X-20047622Y-39771980D01*
X-20047622Y-39771980D02*
X-20142860Y-39676742D01*
X-20142860Y-39676742D02*
X-20238098Y-39486266D01*
X-20238098Y-39486266D02*
X-20238098Y-39295790D01*
X-20238098Y-39295790D02*
X-20142860Y-39105314D01*
X-20142860Y-39105314D02*
X-20047622Y-39010076D01*
X-20047622Y-39010076D02*
X-19857146Y-38914838D01*
X-19857146Y-38914838D02*
X-19380955Y-38914838D01*
X-19380955Y-38914838D02*
X-19095241Y-39010076D01*
X-15571431Y-40914838D02*
X-16238098Y-39962457D01*
X-16714288Y-40914838D02*
X-16714288Y-38914838D01*
X-16714288Y-38914838D02*
X-15952383Y-38914838D01*
X-15952383Y-38914838D02*
X-15761907Y-39010076D01*
X-15761907Y-39010076D02*
X-15666669Y-39105314D01*
X-15666669Y-39105314D02*
X-15571431Y-39295790D01*
X-15571431Y-39295790D02*
X-15571431Y-39581504D01*
X-15571431Y-39581504D02*
X-15666669Y-39771980D01*
X-15666669Y-39771980D02*
X-15761907Y-39867219D01*
X-15761907Y-39867219D02*
X-15952383Y-39962457D01*
X-15952383Y-39962457D02*
X-16714288Y-39962457D01*
X-13952383Y-40819600D02*
X-14142859Y-40914838D01*
X-14142859Y-40914838D02*
X-14523812Y-40914838D01*
X-14523812Y-40914838D02*
X-14714288Y-40819600D01*
X-14714288Y-40819600D02*
X-14809526Y-40629123D01*
X-14809526Y-40629123D02*
X-14809526Y-39867219D01*
X-14809526Y-39867219D02*
X-14714288Y-39676742D01*
X-14714288Y-39676742D02*
X-14523812Y-39581504D01*
X-14523812Y-39581504D02*
X-14142859Y-39581504D01*
X-14142859Y-39581504D02*
X-13952383Y-39676742D01*
X-13952383Y-39676742D02*
X-13857145Y-39867219D01*
X-13857145Y-39867219D02*
X-13857145Y-40057695D01*
X-13857145Y-40057695D02*
X-14809526Y-40248171D01*
X-13190478Y-39581504D02*
X-12714288Y-40914838D01*
X-12714288Y-40914838D02*
X-12238097Y-39581504D01*
X-10047620Y-40343409D02*
X-9095239Y-40343409D01*
X-10238096Y-40914838D02*
X-9571430Y-38914838D01*
X-9571430Y-38914838D02*
X-8904763Y-40914838D01*
X-6714286Y-40152933D02*
X-5190477Y-40152933D01*
X-2714286Y-39867219D02*
X-2047619Y-39867219D01*
X-1761905Y-40914838D02*
X-2714286Y-40914838D01*
X-2714286Y-40914838D02*
X-2714286Y-38914838D01*
X-2714286Y-38914838D02*
X-1761905Y-38914838D01*
X-1095238Y-40914838D02*
X-47619Y-39581504D01*
X-1095238Y-39581504D02*
X-47619Y-40914838D01*
X428571Y-39581504D02*
X1190475Y-39581504D01*
X714285Y-38914838D02*
X714285Y-40629123D01*
X714285Y-40629123D02*
X809523Y-40819600D01*
X809523Y-40819600D02*
X999999Y-40914838D01*
X999999Y-40914838D02*
X1190475Y-40914838D01*
X2619047Y-40819600D02*
X2428571Y-40914838D01*
X2428571Y-40914838D02*
X2047618Y-40914838D01*
X2047618Y-40914838D02*
X1857142Y-40819600D01*
X1857142Y-40819600D02*
X1761904Y-40629123D01*
X1761904Y-40629123D02*
X1761904Y-39867219D01*
X1761904Y-39867219D02*
X1857142Y-39676742D01*
X1857142Y-39676742D02*
X2047618Y-39581504D01*
X2047618Y-39581504D02*
X2428571Y-39581504D01*
X2428571Y-39581504D02*
X2619047Y-39676742D01*
X2619047Y-39676742D02*
X2714285Y-39867219D01*
X2714285Y-39867219D02*
X2714285Y-40057695D01*
X2714285Y-40057695D02*
X1761904Y-40248171D01*
X3571428Y-40914838D02*
X3571428Y-39581504D01*
X3571428Y-39962457D02*
X3666666Y-39771980D01*
X3666666Y-39771980D02*
X3761904Y-39676742D01*
X3761904Y-39676742D02*
X3952380Y-39581504D01*
X3952380Y-39581504D02*
X4142857Y-39581504D01*
X4809523Y-39581504D02*
X4809523Y-40914838D01*
X4809523Y-39771980D02*
X4904761Y-39676742D01*
X4904761Y-39676742D02*
X5095237Y-39581504D01*
X5095237Y-39581504D02*
X5380952Y-39581504D01*
X5380952Y-39581504D02*
X5571428Y-39676742D01*
X5571428Y-39676742D02*
X5666666Y-39867219D01*
X5666666Y-39867219D02*
X5666666Y-40914838D01*
X7476190Y-40914838D02*
X7476190Y-39867219D01*
X7476190Y-39867219D02*
X7380952Y-39676742D01*
X7380952Y-39676742D02*
X7190476Y-39581504D01*
X7190476Y-39581504D02*
X6809523Y-39581504D01*
X6809523Y-39581504D02*
X6619047Y-39676742D01*
X7476190Y-40819600D02*
X7285714Y-40914838D01*
X7285714Y-40914838D02*
X6809523Y-40914838D01*
X6809523Y-40914838D02*
X6619047Y-40819600D01*
X6619047Y-40819600D02*
X6523809Y-40629123D01*
X6523809Y-40629123D02*
X6523809Y-40438647D01*
X6523809Y-40438647D02*
X6619047Y-40248171D01*
X6619047Y-40248171D02*
X6809523Y-40152933D01*
X6809523Y-40152933D02*
X7285714Y-40152933D01*
X7285714Y-40152933D02*
X7476190Y-40057695D01*
X8714285Y-40914838D02*
X8523809Y-40819600D01*
X8523809Y-40819600D02*
X8428571Y-40629123D01*
X8428571Y-40629123D02*
X8428571Y-38914838D01*
X10714286Y-38914838D02*
X11857143Y-38914838D01*
X11285714Y-40914838D02*
X11285714Y-38914838D01*
X13380953Y-40914838D02*
X13380953Y-39867219D01*
X13380953Y-39867219D02*
X13285715Y-39676742D01*
X13285715Y-39676742D02*
X13095239Y-39581504D01*
X13095239Y-39581504D02*
X12714286Y-39581504D01*
X12714286Y-39581504D02*
X12523810Y-39676742D01*
X13380953Y-40819600D02*
X13190477Y-40914838D01*
X13190477Y-40914838D02*
X12714286Y-40914838D01*
X12714286Y-40914838D02*
X12523810Y-40819600D01*
X12523810Y-40819600D02*
X12428572Y-40629123D01*
X12428572Y-40629123D02*
X12428572Y-40438647D01*
X12428572Y-40438647D02*
X12523810Y-40248171D01*
X12523810Y-40248171D02*
X12714286Y-40152933D01*
X12714286Y-40152933D02*
X13190477Y-40152933D01*
X13190477Y-40152933D02*
X13380953Y-40057695D01*
X14333334Y-39581504D02*
X14333334Y-40914838D01*
X14333334Y-39771980D02*
X14428572Y-39676742D01*
X14428572Y-39676742D02*
X14619048Y-39581504D01*
X14619048Y-39581504D02*
X14904763Y-39581504D01*
X14904763Y-39581504D02*
X15095239Y-39676742D01*
X15095239Y-39676742D02*
X15190477Y-39867219D01*
X15190477Y-39867219D02*
X15190477Y-40914838D01*
X16142858Y-40914838D02*
X16142858Y-38914838D01*
X16333334Y-40152933D02*
X16904763Y-40914838D01*
X16904763Y-39581504D02*
X16142858Y-40343409D01*
X20428573Y-40914838D02*
X19761906Y-39962457D01*
X19285716Y-40914838D02*
X19285716Y-38914838D01*
X19285716Y-38914838D02*
X20047621Y-38914838D01*
X20047621Y-38914838D02*
X20238097Y-39010076D01*
X20238097Y-39010076D02*
X20333335Y-39105314D01*
X20333335Y-39105314D02*
X20428573Y-39295790D01*
X20428573Y-39295790D02*
X20428573Y-39581504D01*
X20428573Y-39581504D02*
X20333335Y-39771980D01*
X20333335Y-39771980D02*
X20238097Y-39867219D01*
X20238097Y-39867219D02*
X20047621Y-39962457D01*
X20047621Y-39962457D02*
X19285716Y-39962457D01*
X21571430Y-40914838D02*
X21380954Y-40819600D01*
X21380954Y-40819600D02*
X21285716Y-40724361D01*
X21285716Y-40724361D02*
X21190478Y-40533885D01*
X21190478Y-40533885D02*
X21190478Y-39962457D01*
X21190478Y-39962457D02*
X21285716Y-39771980D01*
X21285716Y-39771980D02*
X21380954Y-39676742D01*
X21380954Y-39676742D02*
X21571430Y-39581504D01*
X21571430Y-39581504D02*
X21857145Y-39581504D01*
X21857145Y-39581504D02*
X22047621Y-39676742D01*
X22047621Y-39676742D02*
X22142859Y-39771980D01*
X22142859Y-39771980D02*
X22238097Y-39962457D01*
X22238097Y-39962457D02*
X22238097Y-40533885D01*
X22238097Y-40533885D02*
X22142859Y-40724361D01*
X22142859Y-40724361D02*
X22047621Y-40819600D01*
X22047621Y-40819600D02*
X21857145Y-40914838D01*
X21857145Y-40914838D02*
X21571430Y-40914838D01*
X23952383Y-39581504D02*
X23952383Y-40914838D01*
X23095240Y-39581504D02*
X23095240Y-40629123D01*
X23095240Y-40629123D02*
X23190478Y-40819600D01*
X23190478Y-40819600D02*
X23380954Y-40914838D01*
X23380954Y-40914838D02*
X23666669Y-40914838D01*
X23666669Y-40914838D02*
X23857145Y-40819600D01*
X23857145Y-40819600D02*
X23952383Y-40724361D01*
X24619050Y-39581504D02*
X25380954Y-39581504D01*
X24904764Y-38914838D02*
X24904764Y-40629123D01*
X24904764Y-40629123D02*
X25000002Y-40819600D01*
X25000002Y-40819600D02*
X25190478Y-40914838D01*
X25190478Y-40914838D02*
X25380954Y-40914838D01*
X26047621Y-40914838D02*
X26047621Y-39581504D01*
X26047621Y-38914838D02*
X25952383Y-39010076D01*
X25952383Y-39010076D02*
X26047621Y-39105314D01*
X26047621Y-39105314D02*
X26142859Y-39010076D01*
X26142859Y-39010076D02*
X26047621Y-38914838D01*
X26047621Y-38914838D02*
X26047621Y-39105314D01*
X27000002Y-39581504D02*
X27000002Y-40914838D01*
X27000002Y-39771980D02*
X27095240Y-39676742D01*
X27095240Y-39676742D02*
X27285716Y-39581504D01*
X27285716Y-39581504D02*
X27571431Y-39581504D01*
X27571431Y-39581504D02*
X27761907Y-39676742D01*
X27761907Y-39676742D02*
X27857145Y-39867219D01*
X27857145Y-39867219D02*
X27857145Y-40914838D01*
X29666669Y-39581504D02*
X29666669Y-41200552D01*
X29666669Y-41200552D02*
X29571431Y-41391028D01*
X29571431Y-41391028D02*
X29476193Y-41486266D01*
X29476193Y-41486266D02*
X29285716Y-41581504D01*
X29285716Y-41581504D02*
X29000002Y-41581504D01*
X29000002Y-41581504D02*
X28809526Y-41486266D01*
X29666669Y-40819600D02*
X29476193Y-40914838D01*
X29476193Y-40914838D02*
X29095240Y-40914838D01*
X29095240Y-40914838D02*
X28904764Y-40819600D01*
X28904764Y-40819600D02*
X28809526Y-40724361D01*
X28809526Y-40724361D02*
X28714288Y-40533885D01*
X28714288Y-40533885D02*
X28714288Y-39962457D01*
X28714288Y-39962457D02*
X28809526Y-39771980D01*
X28809526Y-39771980D02*
X28904764Y-39676742D01*
X28904764Y-39676742D02*
X29095240Y-39581504D01*
X29095240Y-39581504D02*
X29476193Y-39581504D01*
X29476193Y-39581504D02*
X29666669Y-39676742D01*
X32809527Y-39867219D02*
X33095241Y-39962457D01*
X33095241Y-39962457D02*
X33190479Y-40057695D01*
X33190479Y-40057695D02*
X33285717Y-40248171D01*
X33285717Y-40248171D02*
X33285717Y-40533885D01*
X33285717Y-40533885D02*
X33190479Y-40724361D01*
X33190479Y-40724361D02*
X33095241Y-40819600D01*
X33095241Y-40819600D02*
X32904765Y-40914838D01*
X32904765Y-40914838D02*
X32142860Y-40914838D01*
X32142860Y-40914838D02*
X32142860Y-38914838D01*
X32142860Y-38914838D02*
X32809527Y-38914838D01*
X32809527Y-38914838D02*
X33000003Y-39010076D01*
X33000003Y-39010076D02*
X33095241Y-39105314D01*
X33095241Y-39105314D02*
X33190479Y-39295790D01*
X33190479Y-39295790D02*
X33190479Y-39486266D01*
X33190479Y-39486266D02*
X33095241Y-39676742D01*
X33095241Y-39676742D02*
X33000003Y-39771980D01*
X33000003Y-39771980D02*
X32809527Y-39867219D01*
X32809527Y-39867219D02*
X32142860Y-39867219D01*
X34428574Y-40914838D02*
X34238098Y-40819600D01*
X34238098Y-40819600D02*
X34142860Y-40724361D01*
X34142860Y-40724361D02*
X34047622Y-40533885D01*
X34047622Y-40533885D02*
X34047622Y-39962457D01*
X34047622Y-39962457D02*
X34142860Y-39771980D01*
X34142860Y-39771980D02*
X34238098Y-39676742D01*
X34238098Y-39676742D02*
X34428574Y-39581504D01*
X34428574Y-39581504D02*
X34714289Y-39581504D01*
X34714289Y-39581504D02*
X34904765Y-39676742D01*
X34904765Y-39676742D02*
X35000003Y-39771980D01*
X35000003Y-39771980D02*
X35095241Y-39962457D01*
X35095241Y-39962457D02*
X35095241Y-40533885D01*
X35095241Y-40533885D02*
X35000003Y-40724361D01*
X35000003Y-40724361D02*
X34904765Y-40819600D01*
X34904765Y-40819600D02*
X34714289Y-40914838D01*
X34714289Y-40914838D02*
X34428574Y-40914838D01*
X36809527Y-40914838D02*
X36809527Y-39867219D01*
X36809527Y-39867219D02*
X36714289Y-39676742D01*
X36714289Y-39676742D02*
X36523813Y-39581504D01*
X36523813Y-39581504D02*
X36142860Y-39581504D01*
X36142860Y-39581504D02*
X35952384Y-39676742D01*
X36809527Y-40819600D02*
X36619051Y-40914838D01*
X36619051Y-40914838D02*
X36142860Y-40914838D01*
X36142860Y-40914838D02*
X35952384Y-40819600D01*
X35952384Y-40819600D02*
X35857146Y-40629123D01*
X35857146Y-40629123D02*
X35857146Y-40438647D01*
X35857146Y-40438647D02*
X35952384Y-40248171D01*
X35952384Y-40248171D02*
X36142860Y-40152933D01*
X36142860Y-40152933D02*
X36619051Y-40152933D01*
X36619051Y-40152933D02*
X36809527Y-40057695D01*
X37761908Y-40914838D02*
X37761908Y-39581504D01*
X37761908Y-39962457D02*
X37857146Y-39771980D01*
X37857146Y-39771980D02*
X37952384Y-39676742D01*
X37952384Y-39676742D02*
X38142860Y-39581504D01*
X38142860Y-39581504D02*
X38333337Y-39581504D01*
X39857146Y-40914838D02*
X39857146Y-38914838D01*
X39857146Y-40819600D02*
X39666670Y-40914838D01*
X39666670Y-40914838D02*
X39285717Y-40914838D01*
X39285717Y-40914838D02*
X39095241Y-40819600D01*
X39095241Y-40819600D02*
X39000003Y-40724361D01*
X39000003Y-40724361D02*
X38904765Y-40533885D01*
X38904765Y-40533885D02*
X38904765Y-39962457D01*
X38904765Y-39962457D02*
X39000003Y-39771980D01*
X39000003Y-39771980D02*
X39095241Y-39676742D01*
X39095241Y-39676742D02*
X39285717Y-39581504D01*
X39285717Y-39581504D02*
X39666670Y-39581504D01*
X39666670Y-39581504D02*
X39857146Y-39676742D01*
%TO.C,H4*%
D12*
X6700000Y-76500000D02*
G75*
G02*
X300000Y-76500000I-3200000J0D01*
G01*
X300000Y-76500000D02*
G75*
G02*
X6700000Y-76500000I3200000J0D01*
G01*
%TO.C,H1*%
X6700000Y-3500000D02*
G75*
G02*
X300000Y-3500000I-3200000J0D01*
G01*
X300000Y-3500000D02*
G75*
G02*
X6700000Y-3500000I3200000J0D01*
G01*
%TO.C,H2*%
X119700000Y-3500000D02*
G75*
G02*
X113300000Y-3500000I-3200000J0D01*
G01*
X113300000Y-3500000D02*
G75*
G02*
X119700000Y-3500000I3200000J0D01*
G01*
%TO.C,H3*%
X119700000Y-76500000D02*
G75*
G02*
X113300000Y-76500000I-3200000J0D01*
G01*
X113300000Y-76500000D02*
G75*
G02*
X119700000Y-76500000I3200000J0D01*
G01*
%TD*%
M02*
