%TF.GenerationSoftware,KiCad,Pcbnew,10.0.5*%
%TF.CreationDate,2026-08-05T00:31:15-05:00*%
%TF.ProjectId,ext-tank-routing,6578742d-7461-46e6-9b2d-726f7574696e,rev?*%
%TF.SameCoordinates,Original*%
%TF.FileFunction,Drillmap*%
%TF.FilePolarity,Positive*%
%FSLAX45Y45*%
G04 Gerber Fmt 4.5, Leading zero omitted, Abs format (unit mm)*
G04 Created by KiCad (PCBNEW 10.0.5) date 2026-08-05 00:31:15*
%MOMM*%
%LPD*%
G01*
G04 APERTURE LIST*
%ADD10C,0.100000*%
%ADD11C,0.200000*%
%ADD12C,0.170000*%
%ADD13C,0.320000*%
G04 APERTURE END LIST*
D10*
X0Y0D02*
X12000000Y0D01*
X0Y-8000000D02*
X0Y0D01*
X12000000Y0D02*
X12000000Y-8000000D01*
X12000000Y-8000000D02*
X0Y-8000000D01*
D11*
D10*
X1294310Y-6064240D02*
X1324310Y-6094240D01*
X1324310Y-6064240D02*
X1294310Y-6094240D01*
X2454060Y-946680D02*
X2484060Y-976680D01*
X2484060Y-946680D02*
X2454060Y-976680D01*
X3143130Y-5605550D02*
X3173130Y-5635550D01*
X3173130Y-5605550D02*
X3143130Y-5635550D01*
X3346570Y-5905360D02*
X3376570Y-5935360D01*
X3376570Y-5905360D02*
X3346570Y-5935360D01*
X3639880Y-4170930D02*
X3669880Y-4200930D01*
X3669880Y-4170930D02*
X3639880Y-4200930D01*
X3817550Y-4518070D02*
X3847550Y-4548070D01*
X3847550Y-4518070D02*
X3817550Y-4548070D01*
X4812470Y-6493440D02*
X4842470Y-6523440D01*
X4842470Y-6493440D02*
X4812470Y-6523440D01*
X5403960Y-3638670D02*
X5433960Y-3668670D01*
X5433960Y-3638670D02*
X5403960Y-3668670D01*
X5798400Y-5481690D02*
X5828400Y-5511690D01*
X5828400Y-5481690D02*
X5798400Y-5511690D01*
X5805270Y-5288310D02*
X5835270Y-5318310D01*
X5835270Y-5288310D02*
X5805270Y-5318310D01*
X5985190Y-6467080D02*
X6015190Y-6497080D01*
X6015190Y-6467080D02*
X5985190Y-6497080D01*
X6081630Y-4974450D02*
X6111630Y-5004450D01*
X6111630Y-4974450D02*
X6081630Y-5004450D01*
X6193350Y-6288930D02*
X6223350Y-6318930D01*
X6223350Y-6288930D02*
X6193350Y-6318930D01*
X6201640Y-6414360D02*
X6231640Y-6444360D01*
X6231640Y-6414360D02*
X6201640Y-6444360D01*
X7074000Y-3633210D02*
X7104000Y-3663210D01*
X7104000Y-3633210D02*
X7074000Y-3663210D01*
X7154030Y-3797190D02*
X7184030Y-3827190D01*
X7184030Y-3797190D02*
X7154030Y-3827190D01*
X7185010Y-6300760D02*
X7215010Y-6330760D01*
X7215010Y-6300760D02*
X7185010Y-6330760D01*
X7660070Y-1991810D02*
X7690070Y-2021810D01*
X7690070Y-1991810D02*
X7660070Y-2021810D01*
X7744270Y-6060310D02*
X7774270Y-6090310D01*
X7774270Y-6060310D02*
X7744270Y-6090310D01*
X8270900Y-2991640D02*
X8300900Y-3021640D01*
X8300900Y-2991640D02*
X8270900Y-3021640D01*
X8916990Y-4699420D02*
X8946990Y-4729420D01*
X8946990Y-4699420D02*
X8916990Y-4729420D01*
X9523450Y-4661280D02*
X9553450Y-4691280D01*
X9553450Y-4661280D02*
X9523450Y-4691280D01*
X9733100Y-3076860D02*
X9763100Y-3106860D01*
X9763100Y-3076860D02*
X9733100Y-3106860D01*
X10113210Y-2810270D02*
X10143210Y-2840270D01*
X10143210Y-2810270D02*
X10113210Y-2840270D01*
X1045000Y-1139820D02*
G75*
G02*
X950000Y-1139820I-47500J0D01*
G01*
X950000Y-1139820D02*
G75*
G02*
X1045000Y-1139820I47500J0D01*
G01*
X1045000Y-2699470D02*
G75*
G02*
X950000Y-2699470I-47500J0D01*
G01*
X950000Y-2699470D02*
G75*
G02*
X1045000Y-2699470I47500J0D01*
G01*
X1295000Y-1139820D02*
G75*
G02*
X1200000Y-1139820I-47500J0D01*
G01*
X1200000Y-1139820D02*
G75*
G02*
X1295000Y-1139820I47500J0D01*
G01*
X1295000Y-2699470D02*
G75*
G02*
X1200000Y-2699470I-47500J0D01*
G01*
X1200000Y-2699470D02*
G75*
G02*
X1295000Y-2699470I47500J0D01*
G01*
X1545000Y-1139820D02*
G75*
G02*
X1450000Y-1139820I-47500J0D01*
G01*
X1450000Y-1139820D02*
G75*
G02*
X1545000Y-1139820I47500J0D01*
G01*
X1545000Y-2699470D02*
G75*
G02*
X1450000Y-2699470I-47500J0D01*
G01*
X1450000Y-2699470D02*
G75*
G02*
X1545000Y-2699470I47500J0D01*
G01*
X1795000Y-1139820D02*
G75*
G02*
X1700000Y-1139820I-47500J0D01*
G01*
X1700000Y-1139820D02*
G75*
G02*
X1795000Y-1139820I47500J0D01*
G01*
X2045000Y-1139820D02*
G75*
G02*
X1950000Y-1139820I-47500J0D01*
G01*
X1950000Y-1139820D02*
G75*
G02*
X2045000Y-1139820I47500J0D01*
G01*
X2295000Y-1139820D02*
G75*
G02*
X2200000Y-1139820I-47500J0D01*
G01*
X2200000Y-1139820D02*
G75*
G02*
X2295000Y-1139820I47500J0D01*
G01*
X2440000Y-2699470D02*
G75*
G02*
X2345000Y-2699470I-47500J0D01*
G01*
X2345000Y-2699470D02*
G75*
G02*
X2440000Y-2699470I47500J0D01*
G01*
X2545000Y-1139820D02*
G75*
G02*
X2450000Y-1139820I-47500J0D01*
G01*
X2450000Y-1139820D02*
G75*
G02*
X2545000Y-1139820I47500J0D01*
G01*
X2690000Y-2699470D02*
G75*
G02*
X2595000Y-2699470I-47500J0D01*
G01*
X2595000Y-2699470D02*
G75*
G02*
X2690000Y-2699470I47500J0D01*
G01*
X2795000Y-1139820D02*
G75*
G02*
X2700000Y-1139820I-47500J0D01*
G01*
X2700000Y-1139820D02*
G75*
G02*
X2795000Y-1139820I47500J0D01*
G01*
X2940000Y-2699470D02*
G75*
G02*
X2845000Y-2699470I-47500J0D01*
G01*
X2845000Y-2699470D02*
G75*
G02*
X2940000Y-2699470I47500J0D01*
G01*
X3045000Y-1139820D02*
G75*
G02*
X2950000Y-1139820I-47500J0D01*
G01*
X2950000Y-1139820D02*
G75*
G02*
X3045000Y-1139820I47500J0D01*
G01*
X3295000Y-1139820D02*
G75*
G02*
X3200000Y-1139820I-47500J0D01*
G01*
X3200000Y-1139820D02*
G75*
G02*
X3295000Y-1139820I47500J0D01*
G01*
X4190000Y-1139820D02*
G75*
G02*
X4095000Y-1139820I-47500J0D01*
G01*
X4095000Y-1139820D02*
G75*
G02*
X4190000Y-1139820I47500J0D01*
G01*
X4440000Y-1139820D02*
G75*
G02*
X4345000Y-1139820I-47500J0D01*
G01*
X4345000Y-1139820D02*
G75*
G02*
X4440000Y-1139820I47500J0D01*
G01*
X4690000Y-1139820D02*
G75*
G02*
X4595000Y-1139820I-47500J0D01*
G01*
X4595000Y-1139820D02*
G75*
G02*
X4690000Y-1139820I47500J0D01*
G01*
X4940000Y-1139820D02*
G75*
G02*
X4845000Y-1139820I-47500J0D01*
G01*
X4845000Y-1139820D02*
G75*
G02*
X4940000Y-1139820I47500J0D01*
G01*
X5190000Y-1139820D02*
G75*
G02*
X5095000Y-1139820I-47500J0D01*
G01*
X5095000Y-1139820D02*
G75*
G02*
X5190000Y-1139820I47500J0D01*
G01*
X5440000Y-1139820D02*
G75*
G02*
X5345000Y-1139820I-47500J0D01*
G01*
X5345000Y-1139820D02*
G75*
G02*
X5440000Y-1139820I47500J0D01*
G01*
X6335000Y-1139820D02*
G75*
G02*
X6240000Y-1139820I-47500J0D01*
G01*
X6240000Y-1139820D02*
G75*
G02*
X6335000Y-1139820I47500J0D01*
G01*
X6585000Y-1139820D02*
G75*
G02*
X6490000Y-1139820I-47500J0D01*
G01*
X6490000Y-1139820D02*
G75*
G02*
X6585000Y-1139820I47500J0D01*
G01*
X6835000Y-1139820D02*
G75*
G02*
X6740000Y-1139820I-47500J0D01*
G01*
X6740000Y-1139820D02*
G75*
G02*
X6835000Y-1139820I47500J0D01*
G01*
X7085000Y-1139820D02*
G75*
G02*
X6990000Y-1139820I-47500J0D01*
G01*
X6990000Y-1139820D02*
G75*
G02*
X7085000Y-1139820I47500J0D01*
G01*
X7335000Y-1139820D02*
G75*
G02*
X7240000Y-1139820I-47500J0D01*
G01*
X7240000Y-1139820D02*
G75*
G02*
X7335000Y-1139820I47500J0D01*
G01*
X7585000Y-1139820D02*
G75*
G02*
X7490000Y-1139820I-47500J0D01*
G01*
X7490000Y-1139820D02*
G75*
G02*
X7585000Y-1139820I47500J0D01*
G01*
X10507500Y-1139820D02*
G75*
G02*
X10412500Y-1139820I-47500J0D01*
G01*
X10412500Y-1139820D02*
G75*
G02*
X10507500Y-1139820I47500J0D01*
G01*
X10757500Y-1139820D02*
G75*
G02*
X10662500Y-1139820I-47500J0D01*
G01*
X10662500Y-1139820D02*
G75*
G02*
X10757500Y-1139820I47500J0D01*
G01*
X11007500Y-1139820D02*
G75*
G02*
X10912500Y-1139820I-47500J0D01*
G01*
X10912500Y-1139820D02*
G75*
G02*
X11007500Y-1139820I47500J0D01*
G01*
X1400000Y-3588000D02*
X1400000Y-3688000D01*
X1350000Y-3638000D02*
X1450000Y-3638000D01*
X1400000Y-4350000D02*
X1400000Y-4450000D01*
X1350000Y-4400000D02*
X1450000Y-4400000D01*
X1654000Y-3588000D02*
X1654000Y-3688000D01*
X1604000Y-3638000D02*
X1704000Y-3638000D01*
X1654000Y-4350000D02*
X1654000Y-4450000D01*
X1604000Y-4400000D02*
X1704000Y-4400000D01*
X1908000Y-3588000D02*
X1908000Y-3688000D01*
X1858000Y-3638000D02*
X1958000Y-3638000D01*
X1908000Y-4350000D02*
X1908000Y-4450000D01*
X1858000Y-4400000D02*
X1958000Y-4400000D01*
X2162000Y-3588000D02*
X2162000Y-3688000D01*
X2112000Y-3638000D02*
X2212000Y-3638000D01*
X2162000Y-4350000D02*
X2162000Y-4450000D01*
X2112000Y-4400000D02*
X2212000Y-4400000D01*
X2416000Y-3588000D02*
X2416000Y-3688000D01*
X2366000Y-3638000D02*
X2466000Y-3638000D01*
X2416000Y-4350000D02*
X2416000Y-4450000D01*
X2366000Y-4400000D02*
X2466000Y-4400000D01*
X3800000Y-3588000D02*
X3800000Y-3688000D01*
X3750000Y-3638000D02*
X3850000Y-3638000D01*
X3800000Y-4350000D02*
X3800000Y-4450000D01*
X3750000Y-4400000D02*
X3850000Y-4400000D01*
X4054000Y-3588000D02*
X4054000Y-3688000D01*
X4004000Y-3638000D02*
X4104000Y-3638000D01*
X4054000Y-4350000D02*
X4054000Y-4450000D01*
X4004000Y-4400000D02*
X4104000Y-4400000D01*
X4308000Y-3588000D02*
X4308000Y-3688000D01*
X4258000Y-3638000D02*
X4358000Y-3638000D01*
X4308000Y-4350000D02*
X4308000Y-4450000D01*
X4258000Y-4400000D02*
X4358000Y-4400000D01*
X4562000Y-3588000D02*
X4562000Y-3688000D01*
X4512000Y-3638000D02*
X4612000Y-3638000D01*
X4562000Y-4350000D02*
X4562000Y-4450000D01*
X4512000Y-4400000D02*
X4612000Y-4400000D01*
X4816000Y-3588000D02*
X4816000Y-3688000D01*
X4766000Y-3638000D02*
X4866000Y-3638000D01*
X4816000Y-4350000D02*
X4816000Y-4450000D01*
X4766000Y-4400000D02*
X4866000Y-4400000D01*
X6200000Y-3588000D02*
X6200000Y-3688000D01*
X6150000Y-3638000D02*
X6250000Y-3638000D01*
X6200000Y-4350000D02*
X6200000Y-4450000D01*
X6150000Y-4400000D02*
X6250000Y-4400000D01*
X6454000Y-3588000D02*
X6454000Y-3688000D01*
X6404000Y-3638000D02*
X6504000Y-3638000D01*
X6454000Y-4350000D02*
X6454000Y-4450000D01*
X6404000Y-4400000D02*
X6504000Y-4400000D01*
X6708000Y-3588000D02*
X6708000Y-3688000D01*
X6658000Y-3638000D02*
X6758000Y-3638000D01*
X6708000Y-4350000D02*
X6708000Y-4450000D01*
X6658000Y-4400000D02*
X6758000Y-4400000D01*
X6962000Y-3588000D02*
X6962000Y-3688000D01*
X6912000Y-3638000D02*
X7012000Y-3638000D01*
X6962000Y-4350000D02*
X6962000Y-4450000D01*
X6912000Y-4400000D02*
X7012000Y-4400000D01*
X7216000Y-3588000D02*
X7216000Y-3688000D01*
X7166000Y-3638000D02*
X7266000Y-3638000D01*
X7216000Y-4350000D02*
X7216000Y-4450000D01*
X7166000Y-4400000D02*
X7266000Y-4400000D01*
X8600000Y-3588000D02*
X8600000Y-3688000D01*
X8550000Y-3638000D02*
X8650000Y-3638000D01*
X8600000Y-4350000D02*
X8600000Y-4450000D01*
X8550000Y-4400000D02*
X8650000Y-4400000D01*
X8854000Y-3588000D02*
X8854000Y-3688000D01*
X8804000Y-3638000D02*
X8904000Y-3638000D01*
X8854000Y-4350000D02*
X8854000Y-4450000D01*
X8804000Y-4400000D02*
X8904000Y-4400000D01*
X9108000Y-3588000D02*
X9108000Y-3688000D01*
X9058000Y-3638000D02*
X9158000Y-3638000D01*
X9108000Y-4350000D02*
X9108000Y-4450000D01*
X9058000Y-4400000D02*
X9158000Y-4400000D01*
X9362000Y-3588000D02*
X9362000Y-3688000D01*
X9312000Y-3638000D02*
X9412000Y-3638000D01*
X9362000Y-4350000D02*
X9362000Y-4450000D01*
X9312000Y-4400000D02*
X9412000Y-4400000D01*
X9616000Y-3588000D02*
X9616000Y-3688000D01*
X9566000Y-3638000D02*
X9666000Y-3638000D01*
X9616000Y-4350000D02*
X9616000Y-4450000D01*
X9566000Y-4400000D02*
X9666000Y-4400000D01*
D12*
X8487105Y-1334925D02*
X8487105Y-1214715D01*
X8366895Y-1214715D01*
X8366895Y-1334925D01*
X8487105Y-1334925D01*
X8883105Y-1334925D02*
X8883105Y-1214715D01*
X8762895Y-1214715D01*
X8762895Y-1334925D01*
X8883105Y-1334925D01*
X9279105Y-1334925D02*
X9279105Y-1214715D01*
X9158895Y-1214715D01*
X9158895Y-1334925D01*
X9279105Y-1334925D01*
X9675105Y-1334925D02*
X9675105Y-1214715D01*
X9554895Y-1214715D01*
X9554895Y-1334925D01*
X9675105Y-1334925D01*
D13*
X350000Y-510000D02*
X510000Y-350000D01*
X350000Y-190000D01*
X190000Y-350000D01*
X350000Y-510000D01*
X350000Y-7810000D02*
X510000Y-7650000D01*
X350000Y-7490000D01*
X190000Y-7650000D01*
X350000Y-7810000D01*
X11650000Y-510000D02*
X11810000Y-350000D01*
X11650000Y-190000D01*
X11490000Y-350000D01*
X11650000Y-510000D01*
X11650000Y-7810000D02*
X11810000Y-7650000D01*
X11650000Y-7490000D01*
X11490000Y-7650000D01*
X11650000Y-7810000D01*
D11*
X255777Y-8316484D02*
X255777Y-8116484D01*
X255777Y-8116484D02*
X303396Y-8116484D01*
X303396Y-8116484D02*
X331967Y-8126008D01*
X331967Y-8126008D02*
X351015Y-8145055D01*
X351015Y-8145055D02*
X360539Y-8164103D01*
X360539Y-8164103D02*
X370062Y-8202198D01*
X370062Y-8202198D02*
X370062Y-8230769D01*
X370062Y-8230769D02*
X360539Y-8268865D01*
X360539Y-8268865D02*
X351015Y-8287912D01*
X351015Y-8287912D02*
X331967Y-8306960D01*
X331967Y-8306960D02*
X303396Y-8316484D01*
X303396Y-8316484D02*
X255777Y-8316484D01*
X455777Y-8316484D02*
X455777Y-8183150D01*
X455777Y-8221246D02*
X465301Y-8202198D01*
X465301Y-8202198D02*
X474824Y-8192674D01*
X474824Y-8192674D02*
X493872Y-8183150D01*
X493872Y-8183150D02*
X512920Y-8183150D01*
X579586Y-8316484D02*
X579586Y-8183150D01*
X579586Y-8116484D02*
X570063Y-8126008D01*
X570063Y-8126008D02*
X579586Y-8135531D01*
X579586Y-8135531D02*
X589110Y-8126008D01*
X589110Y-8126008D02*
X579586Y-8116484D01*
X579586Y-8116484D02*
X579586Y-8135531D01*
X703396Y-8316484D02*
X684348Y-8306960D01*
X684348Y-8306960D02*
X674824Y-8287912D01*
X674824Y-8287912D02*
X674824Y-8116484D01*
X808158Y-8316484D02*
X789110Y-8306960D01*
X789110Y-8306960D02*
X779586Y-8287912D01*
X779586Y-8287912D02*
X779586Y-8116484D01*
X1036729Y-8316484D02*
X1036729Y-8116484D01*
X1036729Y-8116484D02*
X1103396Y-8259341D01*
X1103396Y-8259341D02*
X1170063Y-8116484D01*
X1170063Y-8116484D02*
X1170063Y-8316484D01*
X1351015Y-8316484D02*
X1351015Y-8211722D01*
X1351015Y-8211722D02*
X1341491Y-8192674D01*
X1341491Y-8192674D02*
X1322444Y-8183150D01*
X1322444Y-8183150D02*
X1284348Y-8183150D01*
X1284348Y-8183150D02*
X1265301Y-8192674D01*
X1351015Y-8306960D02*
X1331967Y-8316484D01*
X1331967Y-8316484D02*
X1284348Y-8316484D01*
X1284348Y-8316484D02*
X1265301Y-8306960D01*
X1265301Y-8306960D02*
X1255777Y-8287912D01*
X1255777Y-8287912D02*
X1255777Y-8268865D01*
X1255777Y-8268865D02*
X1265301Y-8249817D01*
X1265301Y-8249817D02*
X1284348Y-8240293D01*
X1284348Y-8240293D02*
X1331967Y-8240293D01*
X1331967Y-8240293D02*
X1351015Y-8230769D01*
X1446253Y-8183150D02*
X1446253Y-8383150D01*
X1446253Y-8192674D02*
X1465301Y-8183150D01*
X1465301Y-8183150D02*
X1503396Y-8183150D01*
X1503396Y-8183150D02*
X1522443Y-8192674D01*
X1522443Y-8192674D02*
X1531967Y-8202198D01*
X1531967Y-8202198D02*
X1541491Y-8221246D01*
X1541491Y-8221246D02*
X1541491Y-8278388D01*
X1541491Y-8278388D02*
X1531967Y-8297436D01*
X1531967Y-8297436D02*
X1522443Y-8306960D01*
X1522443Y-8306960D02*
X1503396Y-8316484D01*
X1503396Y-8316484D02*
X1465301Y-8316484D01*
X1465301Y-8316484D02*
X1446253Y-8306960D01*
X1627205Y-8297436D02*
X1636729Y-8306960D01*
X1636729Y-8306960D02*
X1627205Y-8316484D01*
X1627205Y-8316484D02*
X1617682Y-8306960D01*
X1617682Y-8306960D02*
X1627205Y-8297436D01*
X1627205Y-8297436D02*
X1627205Y-8316484D01*
X1627205Y-8192674D02*
X1636729Y-8202198D01*
X1636729Y-8202198D02*
X1627205Y-8211722D01*
X1627205Y-8211722D02*
X1617682Y-8202198D01*
X1617682Y-8202198D02*
X1627205Y-8192674D01*
X1627205Y-8192674D02*
X1627205Y-8211722D01*
D10*
X-35000Y-8630000D02*
X-5000Y-8660000D01*
X-5000Y-8630000D02*
X-35000Y-8660000D01*
D11*
X293872Y-8536484D02*
X312920Y-8536484D01*
X312920Y-8536484D02*
X331967Y-8546008D01*
X331967Y-8546008D02*
X341491Y-8555531D01*
X341491Y-8555531D02*
X351015Y-8574579D01*
X351015Y-8574579D02*
X360539Y-8612674D01*
X360539Y-8612674D02*
X360539Y-8660293D01*
X360539Y-8660293D02*
X351015Y-8698389D01*
X351015Y-8698389D02*
X341491Y-8717436D01*
X341491Y-8717436D02*
X331967Y-8726960D01*
X331967Y-8726960D02*
X312920Y-8736484D01*
X312920Y-8736484D02*
X293872Y-8736484D01*
X293872Y-8736484D02*
X274824Y-8726960D01*
X274824Y-8726960D02*
X265301Y-8717436D01*
X265301Y-8717436D02*
X255777Y-8698389D01*
X255777Y-8698389D02*
X246253Y-8660293D01*
X246253Y-8660293D02*
X246253Y-8612674D01*
X246253Y-8612674D02*
X255777Y-8574579D01*
X255777Y-8574579D02*
X265301Y-8555531D01*
X265301Y-8555531D02*
X274824Y-8546008D01*
X274824Y-8546008D02*
X293872Y-8536484D01*
X446253Y-8717436D02*
X455777Y-8726960D01*
X455777Y-8726960D02*
X446253Y-8736484D01*
X446253Y-8736484D02*
X436729Y-8726960D01*
X436729Y-8726960D02*
X446253Y-8717436D01*
X446253Y-8717436D02*
X446253Y-8736484D01*
X522443Y-8536484D02*
X646253Y-8536484D01*
X646253Y-8536484D02*
X579586Y-8612674D01*
X579586Y-8612674D02*
X608158Y-8612674D01*
X608158Y-8612674D02*
X627205Y-8622198D01*
X627205Y-8622198D02*
X636729Y-8631722D01*
X636729Y-8631722D02*
X646253Y-8650770D01*
X646253Y-8650770D02*
X646253Y-8698389D01*
X646253Y-8698389D02*
X636729Y-8717436D01*
X636729Y-8717436D02*
X627205Y-8726960D01*
X627205Y-8726960D02*
X608158Y-8736484D01*
X608158Y-8736484D02*
X551015Y-8736484D01*
X551015Y-8736484D02*
X531967Y-8726960D01*
X531967Y-8726960D02*
X522443Y-8717436D01*
X770062Y-8536484D02*
X789110Y-8536484D01*
X789110Y-8536484D02*
X808158Y-8546008D01*
X808158Y-8546008D02*
X817682Y-8555531D01*
X817682Y-8555531D02*
X827205Y-8574579D01*
X827205Y-8574579D02*
X836729Y-8612674D01*
X836729Y-8612674D02*
X836729Y-8660293D01*
X836729Y-8660293D02*
X827205Y-8698389D01*
X827205Y-8698389D02*
X817682Y-8717436D01*
X817682Y-8717436D02*
X808158Y-8726960D01*
X808158Y-8726960D02*
X789110Y-8736484D01*
X789110Y-8736484D02*
X770062Y-8736484D01*
X770062Y-8736484D02*
X751015Y-8726960D01*
X751015Y-8726960D02*
X741491Y-8717436D01*
X741491Y-8717436D02*
X731967Y-8698389D01*
X731967Y-8698389D02*
X722443Y-8660293D01*
X722443Y-8660293D02*
X722443Y-8612674D01*
X722443Y-8612674D02*
X731967Y-8574579D01*
X731967Y-8574579D02*
X741491Y-8555531D01*
X741491Y-8555531D02*
X751015Y-8546008D01*
X751015Y-8546008D02*
X770062Y-8536484D01*
X960539Y-8536484D02*
X979586Y-8536484D01*
X979586Y-8536484D02*
X998634Y-8546008D01*
X998634Y-8546008D02*
X1008158Y-8555531D01*
X1008158Y-8555531D02*
X1017682Y-8574579D01*
X1017682Y-8574579D02*
X1027205Y-8612674D01*
X1027205Y-8612674D02*
X1027205Y-8660293D01*
X1027205Y-8660293D02*
X1017682Y-8698389D01*
X1017682Y-8698389D02*
X1008158Y-8717436D01*
X1008158Y-8717436D02*
X998634Y-8726960D01*
X998634Y-8726960D02*
X979586Y-8736484D01*
X979586Y-8736484D02*
X960539Y-8736484D01*
X960539Y-8736484D02*
X941491Y-8726960D01*
X941491Y-8726960D02*
X931967Y-8717436D01*
X931967Y-8717436D02*
X922443Y-8698389D01*
X922443Y-8698389D02*
X912920Y-8660293D01*
X912920Y-8660293D02*
X912920Y-8612674D01*
X912920Y-8612674D02*
X922443Y-8574579D01*
X922443Y-8574579D02*
X931967Y-8555531D01*
X931967Y-8555531D02*
X941491Y-8546008D01*
X941491Y-8546008D02*
X960539Y-8536484D01*
X1112920Y-8736484D02*
X1112920Y-8603150D01*
X1112920Y-8622198D02*
X1122444Y-8612674D01*
X1122444Y-8612674D02*
X1141491Y-8603150D01*
X1141491Y-8603150D02*
X1170063Y-8603150D01*
X1170063Y-8603150D02*
X1189110Y-8612674D01*
X1189110Y-8612674D02*
X1198634Y-8631722D01*
X1198634Y-8631722D02*
X1198634Y-8736484D01*
X1198634Y-8631722D02*
X1208158Y-8612674D01*
X1208158Y-8612674D02*
X1227205Y-8603150D01*
X1227205Y-8603150D02*
X1255777Y-8603150D01*
X1255777Y-8603150D02*
X1274825Y-8612674D01*
X1274825Y-8612674D02*
X1284348Y-8631722D01*
X1284348Y-8631722D02*
X1284348Y-8736484D01*
X1379586Y-8736484D02*
X1379586Y-8603150D01*
X1379586Y-8622198D02*
X1389110Y-8612674D01*
X1389110Y-8612674D02*
X1408158Y-8603150D01*
X1408158Y-8603150D02*
X1436729Y-8603150D01*
X1436729Y-8603150D02*
X1455777Y-8612674D01*
X1455777Y-8612674D02*
X1465301Y-8631722D01*
X1465301Y-8631722D02*
X1465301Y-8736484D01*
X1465301Y-8631722D02*
X1474824Y-8612674D01*
X1474824Y-8612674D02*
X1493872Y-8603150D01*
X1493872Y-8603150D02*
X1522443Y-8603150D01*
X1522443Y-8603150D02*
X1541491Y-8612674D01*
X1541491Y-8612674D02*
X1551015Y-8631722D01*
X1551015Y-8631722D02*
X1551015Y-8736484D01*
X1941491Y-8526960D02*
X1770063Y-8784103D01*
X2198634Y-8536484D02*
X2217682Y-8536484D01*
X2217682Y-8536484D02*
X2236729Y-8546008D01*
X2236729Y-8546008D02*
X2246253Y-8555531D01*
X2246253Y-8555531D02*
X2255777Y-8574579D01*
X2255777Y-8574579D02*
X2265301Y-8612674D01*
X2265301Y-8612674D02*
X2265301Y-8660293D01*
X2265301Y-8660293D02*
X2255777Y-8698389D01*
X2255777Y-8698389D02*
X2246253Y-8717436D01*
X2246253Y-8717436D02*
X2236729Y-8726960D01*
X2236729Y-8726960D02*
X2217682Y-8736484D01*
X2217682Y-8736484D02*
X2198634Y-8736484D01*
X2198634Y-8736484D02*
X2179587Y-8726960D01*
X2179587Y-8726960D02*
X2170063Y-8717436D01*
X2170063Y-8717436D02*
X2160539Y-8698389D01*
X2160539Y-8698389D02*
X2151015Y-8660293D01*
X2151015Y-8660293D02*
X2151015Y-8612674D01*
X2151015Y-8612674D02*
X2160539Y-8574579D01*
X2160539Y-8574579D02*
X2170063Y-8555531D01*
X2170063Y-8555531D02*
X2179587Y-8546008D01*
X2179587Y-8546008D02*
X2198634Y-8536484D01*
X2351015Y-8717436D02*
X2360539Y-8726960D01*
X2360539Y-8726960D02*
X2351015Y-8736484D01*
X2351015Y-8736484D02*
X2341491Y-8726960D01*
X2341491Y-8726960D02*
X2351015Y-8717436D01*
X2351015Y-8717436D02*
X2351015Y-8736484D01*
X2484348Y-8536484D02*
X2503396Y-8536484D01*
X2503396Y-8536484D02*
X2522444Y-8546008D01*
X2522444Y-8546008D02*
X2531968Y-8555531D01*
X2531968Y-8555531D02*
X2541491Y-8574579D01*
X2541491Y-8574579D02*
X2551015Y-8612674D01*
X2551015Y-8612674D02*
X2551015Y-8660293D01*
X2551015Y-8660293D02*
X2541491Y-8698389D01*
X2541491Y-8698389D02*
X2531968Y-8717436D01*
X2531968Y-8717436D02*
X2522444Y-8726960D01*
X2522444Y-8726960D02*
X2503396Y-8736484D01*
X2503396Y-8736484D02*
X2484348Y-8736484D01*
X2484348Y-8736484D02*
X2465301Y-8726960D01*
X2465301Y-8726960D02*
X2455777Y-8717436D01*
X2455777Y-8717436D02*
X2446253Y-8698389D01*
X2446253Y-8698389D02*
X2436729Y-8660293D01*
X2436729Y-8660293D02*
X2436729Y-8612674D01*
X2436729Y-8612674D02*
X2446253Y-8574579D01*
X2446253Y-8574579D02*
X2455777Y-8555531D01*
X2455777Y-8555531D02*
X2465301Y-8546008D01*
X2465301Y-8546008D02*
X2484348Y-8536484D01*
X2741491Y-8736484D02*
X2627206Y-8736484D01*
X2684348Y-8736484D02*
X2684348Y-8536484D01*
X2684348Y-8536484D02*
X2665301Y-8565055D01*
X2665301Y-8565055D02*
X2646253Y-8584103D01*
X2646253Y-8584103D02*
X2627206Y-8593627D01*
X2931967Y-8736484D02*
X2817682Y-8736484D01*
X2874825Y-8736484D02*
X2874825Y-8536484D01*
X2874825Y-8536484D02*
X2855777Y-8565055D01*
X2855777Y-8565055D02*
X2836729Y-8584103D01*
X2836729Y-8584103D02*
X2817682Y-8593627D01*
X3046253Y-8622198D02*
X3027206Y-8612674D01*
X3027206Y-8612674D02*
X3017682Y-8603150D01*
X3017682Y-8603150D02*
X3008158Y-8584103D01*
X3008158Y-8584103D02*
X3008158Y-8574579D01*
X3008158Y-8574579D02*
X3017682Y-8555531D01*
X3017682Y-8555531D02*
X3027206Y-8546008D01*
X3027206Y-8546008D02*
X3046253Y-8536484D01*
X3046253Y-8536484D02*
X3084348Y-8536484D01*
X3084348Y-8536484D02*
X3103396Y-8546008D01*
X3103396Y-8546008D02*
X3112920Y-8555531D01*
X3112920Y-8555531D02*
X3122444Y-8574579D01*
X3122444Y-8574579D02*
X3122444Y-8584103D01*
X3122444Y-8584103D02*
X3112920Y-8603150D01*
X3112920Y-8603150D02*
X3103396Y-8612674D01*
X3103396Y-8612674D02*
X3084348Y-8622198D01*
X3084348Y-8622198D02*
X3046253Y-8622198D01*
X3046253Y-8622198D02*
X3027206Y-8631722D01*
X3027206Y-8631722D02*
X3017682Y-8641246D01*
X3017682Y-8641246D02*
X3008158Y-8660293D01*
X3008158Y-8660293D02*
X3008158Y-8698389D01*
X3008158Y-8698389D02*
X3017682Y-8717436D01*
X3017682Y-8717436D02*
X3027206Y-8726960D01*
X3027206Y-8726960D02*
X3046253Y-8736484D01*
X3046253Y-8736484D02*
X3084348Y-8736484D01*
X3084348Y-8736484D02*
X3103396Y-8726960D01*
X3103396Y-8726960D02*
X3112920Y-8717436D01*
X3112920Y-8717436D02*
X3122444Y-8698389D01*
X3122444Y-8698389D02*
X3122444Y-8660293D01*
X3122444Y-8660293D02*
X3112920Y-8641246D01*
X3112920Y-8641246D02*
X3103396Y-8631722D01*
X3103396Y-8631722D02*
X3084348Y-8622198D01*
X3198634Y-8536484D02*
X3198634Y-8574579D01*
X3274825Y-8536484D02*
X3274825Y-8574579D01*
X3570063Y-8812674D02*
X3560539Y-8803150D01*
X3560539Y-8803150D02*
X3541491Y-8774579D01*
X3541491Y-8774579D02*
X3531968Y-8755531D01*
X3531968Y-8755531D02*
X3522444Y-8726960D01*
X3522444Y-8726960D02*
X3512920Y-8679341D01*
X3512920Y-8679341D02*
X3512920Y-8641246D01*
X3512920Y-8641246D02*
X3522444Y-8593627D01*
X3522444Y-8593627D02*
X3531968Y-8565055D01*
X3531968Y-8565055D02*
X3541491Y-8546008D01*
X3541491Y-8546008D02*
X3560539Y-8517436D01*
X3560539Y-8517436D02*
X3570063Y-8507912D01*
X3636729Y-8555531D02*
X3646253Y-8546008D01*
X3646253Y-8546008D02*
X3665301Y-8536484D01*
X3665301Y-8536484D02*
X3712920Y-8536484D01*
X3712920Y-8536484D02*
X3731968Y-8546008D01*
X3731968Y-8546008D02*
X3741491Y-8555531D01*
X3741491Y-8555531D02*
X3751015Y-8574579D01*
X3751015Y-8574579D02*
X3751015Y-8593627D01*
X3751015Y-8593627D02*
X3741491Y-8622198D01*
X3741491Y-8622198D02*
X3627206Y-8736484D01*
X3627206Y-8736484D02*
X3751015Y-8736484D01*
X3922444Y-8603150D02*
X3922444Y-8736484D01*
X3874825Y-8526960D02*
X3827206Y-8669817D01*
X3827206Y-8669817D02*
X3951015Y-8669817D01*
X4179587Y-8736484D02*
X4179587Y-8536484D01*
X4265301Y-8736484D02*
X4265301Y-8631722D01*
X4265301Y-8631722D02*
X4255777Y-8612674D01*
X4255777Y-8612674D02*
X4236730Y-8603150D01*
X4236730Y-8603150D02*
X4208158Y-8603150D01*
X4208158Y-8603150D02*
X4189110Y-8612674D01*
X4189110Y-8612674D02*
X4179587Y-8622198D01*
X4389111Y-8736484D02*
X4370063Y-8726960D01*
X4370063Y-8726960D02*
X4360539Y-8717436D01*
X4360539Y-8717436D02*
X4351015Y-8698389D01*
X4351015Y-8698389D02*
X4351015Y-8641246D01*
X4351015Y-8641246D02*
X4360539Y-8622198D01*
X4360539Y-8622198D02*
X4370063Y-8612674D01*
X4370063Y-8612674D02*
X4389111Y-8603150D01*
X4389111Y-8603150D02*
X4417682Y-8603150D01*
X4417682Y-8603150D02*
X4436730Y-8612674D01*
X4436730Y-8612674D02*
X4446253Y-8622198D01*
X4446253Y-8622198D02*
X4455777Y-8641246D01*
X4455777Y-8641246D02*
X4455777Y-8698389D01*
X4455777Y-8698389D02*
X4446253Y-8717436D01*
X4446253Y-8717436D02*
X4436730Y-8726960D01*
X4436730Y-8726960D02*
X4417682Y-8736484D01*
X4417682Y-8736484D02*
X4389111Y-8736484D01*
X4570063Y-8736484D02*
X4551015Y-8726960D01*
X4551015Y-8726960D02*
X4541492Y-8707912D01*
X4541492Y-8707912D02*
X4541492Y-8536484D01*
X4722444Y-8726960D02*
X4703396Y-8736484D01*
X4703396Y-8736484D02*
X4665301Y-8736484D01*
X4665301Y-8736484D02*
X4646253Y-8726960D01*
X4646253Y-8726960D02*
X4636730Y-8707912D01*
X4636730Y-8707912D02*
X4636730Y-8631722D01*
X4636730Y-8631722D02*
X4646253Y-8612674D01*
X4646253Y-8612674D02*
X4665301Y-8603150D01*
X4665301Y-8603150D02*
X4703396Y-8603150D01*
X4703396Y-8603150D02*
X4722444Y-8612674D01*
X4722444Y-8612674D02*
X4731968Y-8631722D01*
X4731968Y-8631722D02*
X4731968Y-8650770D01*
X4731968Y-8650770D02*
X4636730Y-8669817D01*
X4808158Y-8726960D02*
X4827206Y-8736484D01*
X4827206Y-8736484D02*
X4865301Y-8736484D01*
X4865301Y-8736484D02*
X4884349Y-8726960D01*
X4884349Y-8726960D02*
X4893873Y-8707912D01*
X4893873Y-8707912D02*
X4893873Y-8698389D01*
X4893873Y-8698389D02*
X4884349Y-8679341D01*
X4884349Y-8679341D02*
X4865301Y-8669817D01*
X4865301Y-8669817D02*
X4836730Y-8669817D01*
X4836730Y-8669817D02*
X4817682Y-8660293D01*
X4817682Y-8660293D02*
X4808158Y-8641246D01*
X4808158Y-8641246D02*
X4808158Y-8631722D01*
X4808158Y-8631722D02*
X4817682Y-8612674D01*
X4817682Y-8612674D02*
X4836730Y-8603150D01*
X4836730Y-8603150D02*
X4865301Y-8603150D01*
X4865301Y-8603150D02*
X4884349Y-8612674D01*
X4960539Y-8812674D02*
X4970063Y-8803150D01*
X4970063Y-8803150D02*
X4989111Y-8774579D01*
X4989111Y-8774579D02*
X4998634Y-8755531D01*
X4998634Y-8755531D02*
X5008158Y-8726960D01*
X5008158Y-8726960D02*
X5017682Y-8679341D01*
X5017682Y-8679341D02*
X5017682Y-8641246D01*
X5017682Y-8641246D02*
X5008158Y-8593627D01*
X5008158Y-8593627D02*
X4998634Y-8565055D01*
X4998634Y-8565055D02*
X4989111Y-8546008D01*
X4989111Y-8546008D02*
X4970063Y-8517436D01*
X4970063Y-8517436D02*
X4960539Y-8507912D01*
D10*
X-5000Y-8909000D02*
G75*
G02*
X-100000Y-8909000I-47500J0D01*
G01*
X-100000Y-8909000D02*
G75*
G02*
X-5000Y-8909000I47500J0D01*
G01*
D11*
X293872Y-8800484D02*
X312920Y-8800484D01*
X312920Y-8800484D02*
X331967Y-8810008D01*
X331967Y-8810008D02*
X341491Y-8819531D01*
X341491Y-8819531D02*
X351015Y-8838579D01*
X351015Y-8838579D02*
X360539Y-8876674D01*
X360539Y-8876674D02*
X360539Y-8924293D01*
X360539Y-8924293D02*
X351015Y-8962389D01*
X351015Y-8962389D02*
X341491Y-8981436D01*
X341491Y-8981436D02*
X331967Y-8990960D01*
X331967Y-8990960D02*
X312920Y-9000484D01*
X312920Y-9000484D02*
X293872Y-9000484D01*
X293872Y-9000484D02*
X274824Y-8990960D01*
X274824Y-8990960D02*
X265301Y-8981436D01*
X265301Y-8981436D02*
X255777Y-8962389D01*
X255777Y-8962389D02*
X246253Y-8924293D01*
X246253Y-8924293D02*
X246253Y-8876674D01*
X246253Y-8876674D02*
X255777Y-8838579D01*
X255777Y-8838579D02*
X265301Y-8819531D01*
X265301Y-8819531D02*
X274824Y-8810008D01*
X274824Y-8810008D02*
X293872Y-8800484D01*
X446253Y-8981436D02*
X455777Y-8990960D01*
X455777Y-8990960D02*
X446253Y-9000484D01*
X446253Y-9000484D02*
X436729Y-8990960D01*
X436729Y-8990960D02*
X446253Y-8981436D01*
X446253Y-8981436D02*
X446253Y-9000484D01*
X551015Y-9000484D02*
X589110Y-9000484D01*
X589110Y-9000484D02*
X608158Y-8990960D01*
X608158Y-8990960D02*
X617682Y-8981436D01*
X617682Y-8981436D02*
X636729Y-8952865D01*
X636729Y-8952865D02*
X646253Y-8914770D01*
X646253Y-8914770D02*
X646253Y-8838579D01*
X646253Y-8838579D02*
X636729Y-8819531D01*
X636729Y-8819531D02*
X627205Y-8810008D01*
X627205Y-8810008D02*
X608158Y-8800484D01*
X608158Y-8800484D02*
X570063Y-8800484D01*
X570063Y-8800484D02*
X551015Y-8810008D01*
X551015Y-8810008D02*
X541491Y-8819531D01*
X541491Y-8819531D02*
X531967Y-8838579D01*
X531967Y-8838579D02*
X531967Y-8886198D01*
X531967Y-8886198D02*
X541491Y-8905246D01*
X541491Y-8905246D02*
X551015Y-8914770D01*
X551015Y-8914770D02*
X570063Y-8924293D01*
X570063Y-8924293D02*
X608158Y-8924293D01*
X608158Y-8924293D02*
X627205Y-8914770D01*
X627205Y-8914770D02*
X636729Y-8905246D01*
X636729Y-8905246D02*
X646253Y-8886198D01*
X827205Y-8800484D02*
X731967Y-8800484D01*
X731967Y-8800484D02*
X722443Y-8895722D01*
X722443Y-8895722D02*
X731967Y-8886198D01*
X731967Y-8886198D02*
X751015Y-8876674D01*
X751015Y-8876674D02*
X798634Y-8876674D01*
X798634Y-8876674D02*
X817682Y-8886198D01*
X817682Y-8886198D02*
X827205Y-8895722D01*
X827205Y-8895722D02*
X836729Y-8914770D01*
X836729Y-8914770D02*
X836729Y-8962389D01*
X836729Y-8962389D02*
X827205Y-8981436D01*
X827205Y-8981436D02*
X817682Y-8990960D01*
X817682Y-8990960D02*
X798634Y-9000484D01*
X798634Y-9000484D02*
X751015Y-9000484D01*
X751015Y-9000484D02*
X731967Y-8990960D01*
X731967Y-8990960D02*
X722443Y-8981436D01*
X960539Y-8800484D02*
X979586Y-8800484D01*
X979586Y-8800484D02*
X998634Y-8810008D01*
X998634Y-8810008D02*
X1008158Y-8819531D01*
X1008158Y-8819531D02*
X1017682Y-8838579D01*
X1017682Y-8838579D02*
X1027205Y-8876674D01*
X1027205Y-8876674D02*
X1027205Y-8924293D01*
X1027205Y-8924293D02*
X1017682Y-8962389D01*
X1017682Y-8962389D02*
X1008158Y-8981436D01*
X1008158Y-8981436D02*
X998634Y-8990960D01*
X998634Y-8990960D02*
X979586Y-9000484D01*
X979586Y-9000484D02*
X960539Y-9000484D01*
X960539Y-9000484D02*
X941491Y-8990960D01*
X941491Y-8990960D02*
X931967Y-8981436D01*
X931967Y-8981436D02*
X922443Y-8962389D01*
X922443Y-8962389D02*
X912920Y-8924293D01*
X912920Y-8924293D02*
X912920Y-8876674D01*
X912920Y-8876674D02*
X922443Y-8838579D01*
X922443Y-8838579D02*
X931967Y-8819531D01*
X931967Y-8819531D02*
X941491Y-8810008D01*
X941491Y-8810008D02*
X960539Y-8800484D01*
X1112920Y-9000484D02*
X1112920Y-8867150D01*
X1112920Y-8886198D02*
X1122444Y-8876674D01*
X1122444Y-8876674D02*
X1141491Y-8867150D01*
X1141491Y-8867150D02*
X1170063Y-8867150D01*
X1170063Y-8867150D02*
X1189110Y-8876674D01*
X1189110Y-8876674D02*
X1198634Y-8895722D01*
X1198634Y-8895722D02*
X1198634Y-9000484D01*
X1198634Y-8895722D02*
X1208158Y-8876674D01*
X1208158Y-8876674D02*
X1227205Y-8867150D01*
X1227205Y-8867150D02*
X1255777Y-8867150D01*
X1255777Y-8867150D02*
X1274825Y-8876674D01*
X1274825Y-8876674D02*
X1284348Y-8895722D01*
X1284348Y-8895722D02*
X1284348Y-9000484D01*
X1379586Y-9000484D02*
X1379586Y-8867150D01*
X1379586Y-8886198D02*
X1389110Y-8876674D01*
X1389110Y-8876674D02*
X1408158Y-8867150D01*
X1408158Y-8867150D02*
X1436729Y-8867150D01*
X1436729Y-8867150D02*
X1455777Y-8876674D01*
X1455777Y-8876674D02*
X1465301Y-8895722D01*
X1465301Y-8895722D02*
X1465301Y-9000484D01*
X1465301Y-8895722D02*
X1474824Y-8876674D01*
X1474824Y-8876674D02*
X1493872Y-8867150D01*
X1493872Y-8867150D02*
X1522443Y-8867150D01*
X1522443Y-8867150D02*
X1541491Y-8876674D01*
X1541491Y-8876674D02*
X1551015Y-8895722D01*
X1551015Y-8895722D02*
X1551015Y-9000484D01*
X1941491Y-8790960D02*
X1770063Y-9048103D01*
X2198634Y-8800484D02*
X2217682Y-8800484D01*
X2217682Y-8800484D02*
X2236729Y-8810008D01*
X2236729Y-8810008D02*
X2246253Y-8819531D01*
X2246253Y-8819531D02*
X2255777Y-8838579D01*
X2255777Y-8838579D02*
X2265301Y-8876674D01*
X2265301Y-8876674D02*
X2265301Y-8924293D01*
X2265301Y-8924293D02*
X2255777Y-8962389D01*
X2255777Y-8962389D02*
X2246253Y-8981436D01*
X2246253Y-8981436D02*
X2236729Y-8990960D01*
X2236729Y-8990960D02*
X2217682Y-9000484D01*
X2217682Y-9000484D02*
X2198634Y-9000484D01*
X2198634Y-9000484D02*
X2179587Y-8990960D01*
X2179587Y-8990960D02*
X2170063Y-8981436D01*
X2170063Y-8981436D02*
X2160539Y-8962389D01*
X2160539Y-8962389D02*
X2151015Y-8924293D01*
X2151015Y-8924293D02*
X2151015Y-8876674D01*
X2151015Y-8876674D02*
X2160539Y-8838579D01*
X2160539Y-8838579D02*
X2170063Y-8819531D01*
X2170063Y-8819531D02*
X2179587Y-8810008D01*
X2179587Y-8810008D02*
X2198634Y-8800484D01*
X2351015Y-8981436D02*
X2360539Y-8990960D01*
X2360539Y-8990960D02*
X2351015Y-9000484D01*
X2351015Y-9000484D02*
X2341491Y-8990960D01*
X2341491Y-8990960D02*
X2351015Y-8981436D01*
X2351015Y-8981436D02*
X2351015Y-9000484D01*
X2484348Y-8800484D02*
X2503396Y-8800484D01*
X2503396Y-8800484D02*
X2522444Y-8810008D01*
X2522444Y-8810008D02*
X2531968Y-8819531D01*
X2531968Y-8819531D02*
X2541491Y-8838579D01*
X2541491Y-8838579D02*
X2551015Y-8876674D01*
X2551015Y-8876674D02*
X2551015Y-8924293D01*
X2551015Y-8924293D02*
X2541491Y-8962389D01*
X2541491Y-8962389D02*
X2531968Y-8981436D01*
X2531968Y-8981436D02*
X2522444Y-8990960D01*
X2522444Y-8990960D02*
X2503396Y-9000484D01*
X2503396Y-9000484D02*
X2484348Y-9000484D01*
X2484348Y-9000484D02*
X2465301Y-8990960D01*
X2465301Y-8990960D02*
X2455777Y-8981436D01*
X2455777Y-8981436D02*
X2446253Y-8962389D01*
X2446253Y-8962389D02*
X2436729Y-8924293D01*
X2436729Y-8924293D02*
X2436729Y-8876674D01*
X2436729Y-8876674D02*
X2446253Y-8838579D01*
X2446253Y-8838579D02*
X2455777Y-8819531D01*
X2455777Y-8819531D02*
X2465301Y-8810008D01*
X2465301Y-8810008D02*
X2484348Y-8800484D01*
X2617682Y-8800484D02*
X2741491Y-8800484D01*
X2741491Y-8800484D02*
X2674825Y-8876674D01*
X2674825Y-8876674D02*
X2703396Y-8876674D01*
X2703396Y-8876674D02*
X2722444Y-8886198D01*
X2722444Y-8886198D02*
X2731968Y-8895722D01*
X2731968Y-8895722D02*
X2741491Y-8914770D01*
X2741491Y-8914770D02*
X2741491Y-8962389D01*
X2741491Y-8962389D02*
X2731968Y-8981436D01*
X2731968Y-8981436D02*
X2722444Y-8990960D01*
X2722444Y-8990960D02*
X2703396Y-9000484D01*
X2703396Y-9000484D02*
X2646253Y-9000484D01*
X2646253Y-9000484D02*
X2627206Y-8990960D01*
X2627206Y-8990960D02*
X2617682Y-8981436D01*
X2808158Y-8800484D02*
X2941491Y-8800484D01*
X2941491Y-8800484D02*
X2855777Y-9000484D01*
X3103396Y-8867150D02*
X3103396Y-9000484D01*
X3055777Y-8790960D02*
X3008158Y-8933817D01*
X3008158Y-8933817D02*
X3131967Y-8933817D01*
X3198634Y-8800484D02*
X3198634Y-8838579D01*
X3274825Y-8800484D02*
X3274825Y-8838579D01*
X3570063Y-9076674D02*
X3560539Y-9067150D01*
X3560539Y-9067150D02*
X3541491Y-9038579D01*
X3541491Y-9038579D02*
X3531968Y-9019531D01*
X3531968Y-9019531D02*
X3522444Y-8990960D01*
X3522444Y-8990960D02*
X3512920Y-8943341D01*
X3512920Y-8943341D02*
X3512920Y-8905246D01*
X3512920Y-8905246D02*
X3522444Y-8857627D01*
X3522444Y-8857627D02*
X3531968Y-8829055D01*
X3531968Y-8829055D02*
X3541491Y-8810008D01*
X3541491Y-8810008D02*
X3560539Y-8781436D01*
X3560539Y-8781436D02*
X3570063Y-8771912D01*
X3627206Y-8800484D02*
X3751015Y-8800484D01*
X3751015Y-8800484D02*
X3684348Y-8876674D01*
X3684348Y-8876674D02*
X3712920Y-8876674D01*
X3712920Y-8876674D02*
X3731968Y-8886198D01*
X3731968Y-8886198D02*
X3741491Y-8895722D01*
X3741491Y-8895722D02*
X3751015Y-8914770D01*
X3751015Y-8914770D02*
X3751015Y-8962389D01*
X3751015Y-8962389D02*
X3741491Y-8981436D01*
X3741491Y-8981436D02*
X3731968Y-8990960D01*
X3731968Y-8990960D02*
X3712920Y-9000484D01*
X3712920Y-9000484D02*
X3655777Y-9000484D01*
X3655777Y-9000484D02*
X3636729Y-8990960D01*
X3636729Y-8990960D02*
X3627206Y-8981436D01*
X3941491Y-9000484D02*
X3827206Y-9000484D01*
X3884348Y-9000484D02*
X3884348Y-8800484D01*
X3884348Y-8800484D02*
X3865301Y-8829055D01*
X3865301Y-8829055D02*
X3846253Y-8848103D01*
X3846253Y-8848103D02*
X3827206Y-8857627D01*
X4179587Y-9000484D02*
X4179587Y-8800484D01*
X4265301Y-9000484D02*
X4265301Y-8895722D01*
X4265301Y-8895722D02*
X4255777Y-8876674D01*
X4255777Y-8876674D02*
X4236730Y-8867150D01*
X4236730Y-8867150D02*
X4208158Y-8867150D01*
X4208158Y-8867150D02*
X4189110Y-8876674D01*
X4189110Y-8876674D02*
X4179587Y-8886198D01*
X4389111Y-9000484D02*
X4370063Y-8990960D01*
X4370063Y-8990960D02*
X4360539Y-8981436D01*
X4360539Y-8981436D02*
X4351015Y-8962389D01*
X4351015Y-8962389D02*
X4351015Y-8905246D01*
X4351015Y-8905246D02*
X4360539Y-8886198D01*
X4360539Y-8886198D02*
X4370063Y-8876674D01*
X4370063Y-8876674D02*
X4389111Y-8867150D01*
X4389111Y-8867150D02*
X4417682Y-8867150D01*
X4417682Y-8867150D02*
X4436730Y-8876674D01*
X4436730Y-8876674D02*
X4446253Y-8886198D01*
X4446253Y-8886198D02*
X4455777Y-8905246D01*
X4455777Y-8905246D02*
X4455777Y-8962389D01*
X4455777Y-8962389D02*
X4446253Y-8981436D01*
X4446253Y-8981436D02*
X4436730Y-8990960D01*
X4436730Y-8990960D02*
X4417682Y-9000484D01*
X4417682Y-9000484D02*
X4389111Y-9000484D01*
X4570063Y-9000484D02*
X4551015Y-8990960D01*
X4551015Y-8990960D02*
X4541492Y-8971912D01*
X4541492Y-8971912D02*
X4541492Y-8800484D01*
X4722444Y-8990960D02*
X4703396Y-9000484D01*
X4703396Y-9000484D02*
X4665301Y-9000484D01*
X4665301Y-9000484D02*
X4646253Y-8990960D01*
X4646253Y-8990960D02*
X4636730Y-8971912D01*
X4636730Y-8971912D02*
X4636730Y-8895722D01*
X4636730Y-8895722D02*
X4646253Y-8876674D01*
X4646253Y-8876674D02*
X4665301Y-8867150D01*
X4665301Y-8867150D02*
X4703396Y-8867150D01*
X4703396Y-8867150D02*
X4722444Y-8876674D01*
X4722444Y-8876674D02*
X4731968Y-8895722D01*
X4731968Y-8895722D02*
X4731968Y-8914770D01*
X4731968Y-8914770D02*
X4636730Y-8933817D01*
X4808158Y-8990960D02*
X4827206Y-9000484D01*
X4827206Y-9000484D02*
X4865301Y-9000484D01*
X4865301Y-9000484D02*
X4884349Y-8990960D01*
X4884349Y-8990960D02*
X4893873Y-8971912D01*
X4893873Y-8971912D02*
X4893873Y-8962389D01*
X4893873Y-8962389D02*
X4884349Y-8943341D01*
X4884349Y-8943341D02*
X4865301Y-8933817D01*
X4865301Y-8933817D02*
X4836730Y-8933817D01*
X4836730Y-8933817D02*
X4817682Y-8924293D01*
X4817682Y-8924293D02*
X4808158Y-8905246D01*
X4808158Y-8905246D02*
X4808158Y-8895722D01*
X4808158Y-8895722D02*
X4817682Y-8876674D01*
X4817682Y-8876674D02*
X4836730Y-8867150D01*
X4836730Y-8867150D02*
X4865301Y-8867150D01*
X4865301Y-8867150D02*
X4884349Y-8876674D01*
X4960539Y-9076674D02*
X4970063Y-9067150D01*
X4970063Y-9067150D02*
X4989111Y-9038579D01*
X4989111Y-9038579D02*
X4998634Y-9019531D01*
X4998634Y-9019531D02*
X5008158Y-8990960D01*
X5008158Y-8990960D02*
X5017682Y-8943341D01*
X5017682Y-8943341D02*
X5017682Y-8905246D01*
X5017682Y-8905246D02*
X5008158Y-8857627D01*
X5008158Y-8857627D02*
X4998634Y-8829055D01*
X4998634Y-8829055D02*
X4989111Y-8810008D01*
X4989111Y-8810008D02*
X4970063Y-8781436D01*
X4970063Y-8781436D02*
X4960539Y-8771912D01*
D10*
X-55000Y-9123000D02*
X-55000Y-9223000D01*
X-105000Y-9173000D02*
X-5000Y-9173000D01*
D11*
X360539Y-9264484D02*
X246253Y-9264484D01*
X303396Y-9264484D02*
X303396Y-9064484D01*
X303396Y-9064484D02*
X284348Y-9093055D01*
X284348Y-9093055D02*
X265301Y-9112103D01*
X265301Y-9112103D02*
X246253Y-9121627D01*
X446253Y-9245436D02*
X455777Y-9254960D01*
X455777Y-9254960D02*
X446253Y-9264484D01*
X446253Y-9264484D02*
X436729Y-9254960D01*
X436729Y-9254960D02*
X446253Y-9245436D01*
X446253Y-9245436D02*
X446253Y-9264484D01*
X579586Y-9064484D02*
X598634Y-9064484D01*
X598634Y-9064484D02*
X617682Y-9074008D01*
X617682Y-9074008D02*
X627205Y-9083531D01*
X627205Y-9083531D02*
X636729Y-9102579D01*
X636729Y-9102579D02*
X646253Y-9140674D01*
X646253Y-9140674D02*
X646253Y-9188293D01*
X646253Y-9188293D02*
X636729Y-9226389D01*
X636729Y-9226389D02*
X627205Y-9245436D01*
X627205Y-9245436D02*
X617682Y-9254960D01*
X617682Y-9254960D02*
X598634Y-9264484D01*
X598634Y-9264484D02*
X579586Y-9264484D01*
X579586Y-9264484D02*
X560539Y-9254960D01*
X560539Y-9254960D02*
X551015Y-9245436D01*
X551015Y-9245436D02*
X541491Y-9226389D01*
X541491Y-9226389D02*
X531967Y-9188293D01*
X531967Y-9188293D02*
X531967Y-9140674D01*
X531967Y-9140674D02*
X541491Y-9102579D01*
X541491Y-9102579D02*
X551015Y-9083531D01*
X551015Y-9083531D02*
X560539Y-9074008D01*
X560539Y-9074008D02*
X579586Y-9064484D01*
X770062Y-9064484D02*
X789110Y-9064484D01*
X789110Y-9064484D02*
X808158Y-9074008D01*
X808158Y-9074008D02*
X817682Y-9083531D01*
X817682Y-9083531D02*
X827205Y-9102579D01*
X827205Y-9102579D02*
X836729Y-9140674D01*
X836729Y-9140674D02*
X836729Y-9188293D01*
X836729Y-9188293D02*
X827205Y-9226389D01*
X827205Y-9226389D02*
X817682Y-9245436D01*
X817682Y-9245436D02*
X808158Y-9254960D01*
X808158Y-9254960D02*
X789110Y-9264484D01*
X789110Y-9264484D02*
X770062Y-9264484D01*
X770062Y-9264484D02*
X751015Y-9254960D01*
X751015Y-9254960D02*
X741491Y-9245436D01*
X741491Y-9245436D02*
X731967Y-9226389D01*
X731967Y-9226389D02*
X722443Y-9188293D01*
X722443Y-9188293D02*
X722443Y-9140674D01*
X722443Y-9140674D02*
X731967Y-9102579D01*
X731967Y-9102579D02*
X741491Y-9083531D01*
X741491Y-9083531D02*
X751015Y-9074008D01*
X751015Y-9074008D02*
X770062Y-9064484D01*
X960539Y-9064484D02*
X979586Y-9064484D01*
X979586Y-9064484D02*
X998634Y-9074008D01*
X998634Y-9074008D02*
X1008158Y-9083531D01*
X1008158Y-9083531D02*
X1017682Y-9102579D01*
X1017682Y-9102579D02*
X1027205Y-9140674D01*
X1027205Y-9140674D02*
X1027205Y-9188293D01*
X1027205Y-9188293D02*
X1017682Y-9226389D01*
X1017682Y-9226389D02*
X1008158Y-9245436D01*
X1008158Y-9245436D02*
X998634Y-9254960D01*
X998634Y-9254960D02*
X979586Y-9264484D01*
X979586Y-9264484D02*
X960539Y-9264484D01*
X960539Y-9264484D02*
X941491Y-9254960D01*
X941491Y-9254960D02*
X931967Y-9245436D01*
X931967Y-9245436D02*
X922443Y-9226389D01*
X922443Y-9226389D02*
X912920Y-9188293D01*
X912920Y-9188293D02*
X912920Y-9140674D01*
X912920Y-9140674D02*
X922443Y-9102579D01*
X922443Y-9102579D02*
X931967Y-9083531D01*
X931967Y-9083531D02*
X941491Y-9074008D01*
X941491Y-9074008D02*
X960539Y-9064484D01*
X1112920Y-9264484D02*
X1112920Y-9131150D01*
X1112920Y-9150198D02*
X1122444Y-9140674D01*
X1122444Y-9140674D02*
X1141491Y-9131150D01*
X1141491Y-9131150D02*
X1170063Y-9131150D01*
X1170063Y-9131150D02*
X1189110Y-9140674D01*
X1189110Y-9140674D02*
X1198634Y-9159722D01*
X1198634Y-9159722D02*
X1198634Y-9264484D01*
X1198634Y-9159722D02*
X1208158Y-9140674D01*
X1208158Y-9140674D02*
X1227205Y-9131150D01*
X1227205Y-9131150D02*
X1255777Y-9131150D01*
X1255777Y-9131150D02*
X1274825Y-9140674D01*
X1274825Y-9140674D02*
X1284348Y-9159722D01*
X1284348Y-9159722D02*
X1284348Y-9264484D01*
X1379586Y-9264484D02*
X1379586Y-9131150D01*
X1379586Y-9150198D02*
X1389110Y-9140674D01*
X1389110Y-9140674D02*
X1408158Y-9131150D01*
X1408158Y-9131150D02*
X1436729Y-9131150D01*
X1436729Y-9131150D02*
X1455777Y-9140674D01*
X1455777Y-9140674D02*
X1465301Y-9159722D01*
X1465301Y-9159722D02*
X1465301Y-9264484D01*
X1465301Y-9159722D02*
X1474824Y-9140674D01*
X1474824Y-9140674D02*
X1493872Y-9131150D01*
X1493872Y-9131150D02*
X1522443Y-9131150D01*
X1522443Y-9131150D02*
X1541491Y-9140674D01*
X1541491Y-9140674D02*
X1551015Y-9159722D01*
X1551015Y-9159722D02*
X1551015Y-9264484D01*
X1941491Y-9054960D02*
X1770063Y-9312103D01*
X2198634Y-9064484D02*
X2217682Y-9064484D01*
X2217682Y-9064484D02*
X2236729Y-9074008D01*
X2236729Y-9074008D02*
X2246253Y-9083531D01*
X2246253Y-9083531D02*
X2255777Y-9102579D01*
X2255777Y-9102579D02*
X2265301Y-9140674D01*
X2265301Y-9140674D02*
X2265301Y-9188293D01*
X2265301Y-9188293D02*
X2255777Y-9226389D01*
X2255777Y-9226389D02*
X2246253Y-9245436D01*
X2246253Y-9245436D02*
X2236729Y-9254960D01*
X2236729Y-9254960D02*
X2217682Y-9264484D01*
X2217682Y-9264484D02*
X2198634Y-9264484D01*
X2198634Y-9264484D02*
X2179587Y-9254960D01*
X2179587Y-9254960D02*
X2170063Y-9245436D01*
X2170063Y-9245436D02*
X2160539Y-9226389D01*
X2160539Y-9226389D02*
X2151015Y-9188293D01*
X2151015Y-9188293D02*
X2151015Y-9140674D01*
X2151015Y-9140674D02*
X2160539Y-9102579D01*
X2160539Y-9102579D02*
X2170063Y-9083531D01*
X2170063Y-9083531D02*
X2179587Y-9074008D01*
X2179587Y-9074008D02*
X2198634Y-9064484D01*
X2351015Y-9245436D02*
X2360539Y-9254960D01*
X2360539Y-9254960D02*
X2351015Y-9264484D01*
X2351015Y-9264484D02*
X2341491Y-9254960D01*
X2341491Y-9254960D02*
X2351015Y-9245436D01*
X2351015Y-9245436D02*
X2351015Y-9264484D01*
X2484348Y-9064484D02*
X2503396Y-9064484D01*
X2503396Y-9064484D02*
X2522444Y-9074008D01*
X2522444Y-9074008D02*
X2531968Y-9083531D01*
X2531968Y-9083531D02*
X2541491Y-9102579D01*
X2541491Y-9102579D02*
X2551015Y-9140674D01*
X2551015Y-9140674D02*
X2551015Y-9188293D01*
X2551015Y-9188293D02*
X2541491Y-9226389D01*
X2541491Y-9226389D02*
X2531968Y-9245436D01*
X2531968Y-9245436D02*
X2522444Y-9254960D01*
X2522444Y-9254960D02*
X2503396Y-9264484D01*
X2503396Y-9264484D02*
X2484348Y-9264484D01*
X2484348Y-9264484D02*
X2465301Y-9254960D01*
X2465301Y-9254960D02*
X2455777Y-9245436D01*
X2455777Y-9245436D02*
X2446253Y-9226389D01*
X2446253Y-9226389D02*
X2436729Y-9188293D01*
X2436729Y-9188293D02*
X2436729Y-9140674D01*
X2436729Y-9140674D02*
X2446253Y-9102579D01*
X2446253Y-9102579D02*
X2455777Y-9083531D01*
X2455777Y-9083531D02*
X2465301Y-9074008D01*
X2465301Y-9074008D02*
X2484348Y-9064484D01*
X2617682Y-9064484D02*
X2741491Y-9064484D01*
X2741491Y-9064484D02*
X2674825Y-9140674D01*
X2674825Y-9140674D02*
X2703396Y-9140674D01*
X2703396Y-9140674D02*
X2722444Y-9150198D01*
X2722444Y-9150198D02*
X2731968Y-9159722D01*
X2731968Y-9159722D02*
X2741491Y-9178770D01*
X2741491Y-9178770D02*
X2741491Y-9226389D01*
X2741491Y-9226389D02*
X2731968Y-9245436D01*
X2731968Y-9245436D02*
X2722444Y-9254960D01*
X2722444Y-9254960D02*
X2703396Y-9264484D01*
X2703396Y-9264484D02*
X2646253Y-9264484D01*
X2646253Y-9264484D02*
X2627206Y-9254960D01*
X2627206Y-9254960D02*
X2617682Y-9245436D01*
X2836729Y-9264484D02*
X2874825Y-9264484D01*
X2874825Y-9264484D02*
X2893872Y-9254960D01*
X2893872Y-9254960D02*
X2903396Y-9245436D01*
X2903396Y-9245436D02*
X2922444Y-9216865D01*
X2922444Y-9216865D02*
X2931967Y-9178770D01*
X2931967Y-9178770D02*
X2931967Y-9102579D01*
X2931967Y-9102579D02*
X2922444Y-9083531D01*
X2922444Y-9083531D02*
X2912920Y-9074008D01*
X2912920Y-9074008D02*
X2893872Y-9064484D01*
X2893872Y-9064484D02*
X2855777Y-9064484D01*
X2855777Y-9064484D02*
X2836729Y-9074008D01*
X2836729Y-9074008D02*
X2827206Y-9083531D01*
X2827206Y-9083531D02*
X2817682Y-9102579D01*
X2817682Y-9102579D02*
X2817682Y-9150198D01*
X2817682Y-9150198D02*
X2827206Y-9169246D01*
X2827206Y-9169246D02*
X2836729Y-9178770D01*
X2836729Y-9178770D02*
X2855777Y-9188293D01*
X2855777Y-9188293D02*
X2893872Y-9188293D01*
X2893872Y-9188293D02*
X2912920Y-9178770D01*
X2912920Y-9178770D02*
X2922444Y-9169246D01*
X2922444Y-9169246D02*
X2931967Y-9150198D01*
X3103396Y-9131150D02*
X3103396Y-9264484D01*
X3055777Y-9054960D02*
X3008158Y-9197817D01*
X3008158Y-9197817D02*
X3131967Y-9197817D01*
X3198634Y-9064484D02*
X3198634Y-9102579D01*
X3274825Y-9064484D02*
X3274825Y-9102579D01*
X3570063Y-9340674D02*
X3560539Y-9331150D01*
X3560539Y-9331150D02*
X3541491Y-9302579D01*
X3541491Y-9302579D02*
X3531968Y-9283531D01*
X3531968Y-9283531D02*
X3522444Y-9254960D01*
X3522444Y-9254960D02*
X3512920Y-9207341D01*
X3512920Y-9207341D02*
X3512920Y-9169246D01*
X3512920Y-9169246D02*
X3522444Y-9121627D01*
X3522444Y-9121627D02*
X3531968Y-9093055D01*
X3531968Y-9093055D02*
X3541491Y-9074008D01*
X3541491Y-9074008D02*
X3560539Y-9045436D01*
X3560539Y-9045436D02*
X3570063Y-9035912D01*
X3731968Y-9131150D02*
X3731968Y-9264484D01*
X3684348Y-9054960D02*
X3636729Y-9197817D01*
X3636729Y-9197817D02*
X3760539Y-9197817D01*
X3874825Y-9064484D02*
X3893872Y-9064484D01*
X3893872Y-9064484D02*
X3912920Y-9074008D01*
X3912920Y-9074008D02*
X3922444Y-9083531D01*
X3922444Y-9083531D02*
X3931968Y-9102579D01*
X3931968Y-9102579D02*
X3941491Y-9140674D01*
X3941491Y-9140674D02*
X3941491Y-9188293D01*
X3941491Y-9188293D02*
X3931968Y-9226389D01*
X3931968Y-9226389D02*
X3922444Y-9245436D01*
X3922444Y-9245436D02*
X3912920Y-9254960D01*
X3912920Y-9254960D02*
X3893872Y-9264484D01*
X3893872Y-9264484D02*
X3874825Y-9264484D01*
X3874825Y-9264484D02*
X3855777Y-9254960D01*
X3855777Y-9254960D02*
X3846253Y-9245436D01*
X3846253Y-9245436D02*
X3836729Y-9226389D01*
X3836729Y-9226389D02*
X3827206Y-9188293D01*
X3827206Y-9188293D02*
X3827206Y-9140674D01*
X3827206Y-9140674D02*
X3836729Y-9102579D01*
X3836729Y-9102579D02*
X3846253Y-9083531D01*
X3846253Y-9083531D02*
X3855777Y-9074008D01*
X3855777Y-9074008D02*
X3874825Y-9064484D01*
X4179587Y-9264484D02*
X4179587Y-9064484D01*
X4265301Y-9264484D02*
X4265301Y-9159722D01*
X4265301Y-9159722D02*
X4255777Y-9140674D01*
X4255777Y-9140674D02*
X4236730Y-9131150D01*
X4236730Y-9131150D02*
X4208158Y-9131150D01*
X4208158Y-9131150D02*
X4189110Y-9140674D01*
X4189110Y-9140674D02*
X4179587Y-9150198D01*
X4389111Y-9264484D02*
X4370063Y-9254960D01*
X4370063Y-9254960D02*
X4360539Y-9245436D01*
X4360539Y-9245436D02*
X4351015Y-9226389D01*
X4351015Y-9226389D02*
X4351015Y-9169246D01*
X4351015Y-9169246D02*
X4360539Y-9150198D01*
X4360539Y-9150198D02*
X4370063Y-9140674D01*
X4370063Y-9140674D02*
X4389111Y-9131150D01*
X4389111Y-9131150D02*
X4417682Y-9131150D01*
X4417682Y-9131150D02*
X4436730Y-9140674D01*
X4436730Y-9140674D02*
X4446253Y-9150198D01*
X4446253Y-9150198D02*
X4455777Y-9169246D01*
X4455777Y-9169246D02*
X4455777Y-9226389D01*
X4455777Y-9226389D02*
X4446253Y-9245436D01*
X4446253Y-9245436D02*
X4436730Y-9254960D01*
X4436730Y-9254960D02*
X4417682Y-9264484D01*
X4417682Y-9264484D02*
X4389111Y-9264484D01*
X4570063Y-9264484D02*
X4551015Y-9254960D01*
X4551015Y-9254960D02*
X4541492Y-9235912D01*
X4541492Y-9235912D02*
X4541492Y-9064484D01*
X4722444Y-9254960D02*
X4703396Y-9264484D01*
X4703396Y-9264484D02*
X4665301Y-9264484D01*
X4665301Y-9264484D02*
X4646253Y-9254960D01*
X4646253Y-9254960D02*
X4636730Y-9235912D01*
X4636730Y-9235912D02*
X4636730Y-9159722D01*
X4636730Y-9159722D02*
X4646253Y-9140674D01*
X4646253Y-9140674D02*
X4665301Y-9131150D01*
X4665301Y-9131150D02*
X4703396Y-9131150D01*
X4703396Y-9131150D02*
X4722444Y-9140674D01*
X4722444Y-9140674D02*
X4731968Y-9159722D01*
X4731968Y-9159722D02*
X4731968Y-9178770D01*
X4731968Y-9178770D02*
X4636730Y-9197817D01*
X4808158Y-9254960D02*
X4827206Y-9264484D01*
X4827206Y-9264484D02*
X4865301Y-9264484D01*
X4865301Y-9264484D02*
X4884349Y-9254960D01*
X4884349Y-9254960D02*
X4893873Y-9235912D01*
X4893873Y-9235912D02*
X4893873Y-9226389D01*
X4893873Y-9226389D02*
X4884349Y-9207341D01*
X4884349Y-9207341D02*
X4865301Y-9197817D01*
X4865301Y-9197817D02*
X4836730Y-9197817D01*
X4836730Y-9197817D02*
X4817682Y-9188293D01*
X4817682Y-9188293D02*
X4808158Y-9169246D01*
X4808158Y-9169246D02*
X4808158Y-9159722D01*
X4808158Y-9159722D02*
X4817682Y-9140674D01*
X4817682Y-9140674D02*
X4836730Y-9131150D01*
X4836730Y-9131150D02*
X4865301Y-9131150D01*
X4865301Y-9131150D02*
X4884349Y-9140674D01*
X4960539Y-9340674D02*
X4970063Y-9331150D01*
X4970063Y-9331150D02*
X4989111Y-9302579D01*
X4989111Y-9302579D02*
X4998634Y-9283531D01*
X4998634Y-9283531D02*
X5008158Y-9254960D01*
X5008158Y-9254960D02*
X5017682Y-9207341D01*
X5017682Y-9207341D02*
X5017682Y-9169246D01*
X5017682Y-9169246D02*
X5008158Y-9121627D01*
X5008158Y-9121627D02*
X4998634Y-9093055D01*
X4998634Y-9093055D02*
X4989111Y-9074008D01*
X4989111Y-9074008D02*
X4970063Y-9045436D01*
X4970063Y-9045436D02*
X4960539Y-9035912D01*
D12*
X-29895Y-9497105D02*
X-29895Y-9376895D01*
X-150105Y-9376895D01*
X-150105Y-9497105D01*
X-29895Y-9497105D01*
D11*
X360539Y-9528484D02*
X246253Y-9528484D01*
X303396Y-9528484D02*
X303396Y-9328484D01*
X303396Y-9328484D02*
X284348Y-9357055D01*
X284348Y-9357055D02*
X265301Y-9376103D01*
X265301Y-9376103D02*
X246253Y-9385627D01*
X446253Y-9509436D02*
X455777Y-9518960D01*
X455777Y-9518960D02*
X446253Y-9528484D01*
X446253Y-9528484D02*
X436729Y-9518960D01*
X436729Y-9518960D02*
X446253Y-9509436D01*
X446253Y-9509436D02*
X446253Y-9528484D01*
X522443Y-9328484D02*
X655777Y-9328484D01*
X655777Y-9328484D02*
X570063Y-9528484D01*
X770062Y-9328484D02*
X789110Y-9328484D01*
X789110Y-9328484D02*
X808158Y-9338008D01*
X808158Y-9338008D02*
X817682Y-9347531D01*
X817682Y-9347531D02*
X827205Y-9366579D01*
X827205Y-9366579D02*
X836729Y-9404674D01*
X836729Y-9404674D02*
X836729Y-9452293D01*
X836729Y-9452293D02*
X827205Y-9490389D01*
X827205Y-9490389D02*
X817682Y-9509436D01*
X817682Y-9509436D02*
X808158Y-9518960D01*
X808158Y-9518960D02*
X789110Y-9528484D01*
X789110Y-9528484D02*
X770062Y-9528484D01*
X770062Y-9528484D02*
X751015Y-9518960D01*
X751015Y-9518960D02*
X741491Y-9509436D01*
X741491Y-9509436D02*
X731967Y-9490389D01*
X731967Y-9490389D02*
X722443Y-9452293D01*
X722443Y-9452293D02*
X722443Y-9404674D01*
X722443Y-9404674D02*
X731967Y-9366579D01*
X731967Y-9366579D02*
X741491Y-9347531D01*
X741491Y-9347531D02*
X751015Y-9338008D01*
X751015Y-9338008D02*
X770062Y-9328484D01*
X960539Y-9328484D02*
X979586Y-9328484D01*
X979586Y-9328484D02*
X998634Y-9338008D01*
X998634Y-9338008D02*
X1008158Y-9347531D01*
X1008158Y-9347531D02*
X1017682Y-9366579D01*
X1017682Y-9366579D02*
X1027205Y-9404674D01*
X1027205Y-9404674D02*
X1027205Y-9452293D01*
X1027205Y-9452293D02*
X1017682Y-9490389D01*
X1017682Y-9490389D02*
X1008158Y-9509436D01*
X1008158Y-9509436D02*
X998634Y-9518960D01*
X998634Y-9518960D02*
X979586Y-9528484D01*
X979586Y-9528484D02*
X960539Y-9528484D01*
X960539Y-9528484D02*
X941491Y-9518960D01*
X941491Y-9518960D02*
X931967Y-9509436D01*
X931967Y-9509436D02*
X922443Y-9490389D01*
X922443Y-9490389D02*
X912920Y-9452293D01*
X912920Y-9452293D02*
X912920Y-9404674D01*
X912920Y-9404674D02*
X922443Y-9366579D01*
X922443Y-9366579D02*
X931967Y-9347531D01*
X931967Y-9347531D02*
X941491Y-9338008D01*
X941491Y-9338008D02*
X960539Y-9328484D01*
X1112920Y-9528484D02*
X1112920Y-9395150D01*
X1112920Y-9414198D02*
X1122444Y-9404674D01*
X1122444Y-9404674D02*
X1141491Y-9395150D01*
X1141491Y-9395150D02*
X1170063Y-9395150D01*
X1170063Y-9395150D02*
X1189110Y-9404674D01*
X1189110Y-9404674D02*
X1198634Y-9423722D01*
X1198634Y-9423722D02*
X1198634Y-9528484D01*
X1198634Y-9423722D02*
X1208158Y-9404674D01*
X1208158Y-9404674D02*
X1227205Y-9395150D01*
X1227205Y-9395150D02*
X1255777Y-9395150D01*
X1255777Y-9395150D02*
X1274825Y-9404674D01*
X1274825Y-9404674D02*
X1284348Y-9423722D01*
X1284348Y-9423722D02*
X1284348Y-9528484D01*
X1379586Y-9528484D02*
X1379586Y-9395150D01*
X1379586Y-9414198D02*
X1389110Y-9404674D01*
X1389110Y-9404674D02*
X1408158Y-9395150D01*
X1408158Y-9395150D02*
X1436729Y-9395150D01*
X1436729Y-9395150D02*
X1455777Y-9404674D01*
X1455777Y-9404674D02*
X1465301Y-9423722D01*
X1465301Y-9423722D02*
X1465301Y-9528484D01*
X1465301Y-9423722D02*
X1474824Y-9404674D01*
X1474824Y-9404674D02*
X1493872Y-9395150D01*
X1493872Y-9395150D02*
X1522443Y-9395150D01*
X1522443Y-9395150D02*
X1541491Y-9404674D01*
X1541491Y-9404674D02*
X1551015Y-9423722D01*
X1551015Y-9423722D02*
X1551015Y-9528484D01*
X1941491Y-9318960D02*
X1770063Y-9576103D01*
X2198634Y-9328484D02*
X2217682Y-9328484D01*
X2217682Y-9328484D02*
X2236729Y-9338008D01*
X2236729Y-9338008D02*
X2246253Y-9347531D01*
X2246253Y-9347531D02*
X2255777Y-9366579D01*
X2255777Y-9366579D02*
X2265301Y-9404674D01*
X2265301Y-9404674D02*
X2265301Y-9452293D01*
X2265301Y-9452293D02*
X2255777Y-9490389D01*
X2255777Y-9490389D02*
X2246253Y-9509436D01*
X2246253Y-9509436D02*
X2236729Y-9518960D01*
X2236729Y-9518960D02*
X2217682Y-9528484D01*
X2217682Y-9528484D02*
X2198634Y-9528484D01*
X2198634Y-9528484D02*
X2179587Y-9518960D01*
X2179587Y-9518960D02*
X2170063Y-9509436D01*
X2170063Y-9509436D02*
X2160539Y-9490389D01*
X2160539Y-9490389D02*
X2151015Y-9452293D01*
X2151015Y-9452293D02*
X2151015Y-9404674D01*
X2151015Y-9404674D02*
X2160539Y-9366579D01*
X2160539Y-9366579D02*
X2170063Y-9347531D01*
X2170063Y-9347531D02*
X2179587Y-9338008D01*
X2179587Y-9338008D02*
X2198634Y-9328484D01*
X2351015Y-9509436D02*
X2360539Y-9518960D01*
X2360539Y-9518960D02*
X2351015Y-9528484D01*
X2351015Y-9528484D02*
X2341491Y-9518960D01*
X2341491Y-9518960D02*
X2351015Y-9509436D01*
X2351015Y-9509436D02*
X2351015Y-9528484D01*
X2484348Y-9328484D02*
X2503396Y-9328484D01*
X2503396Y-9328484D02*
X2522444Y-9338008D01*
X2522444Y-9338008D02*
X2531968Y-9347531D01*
X2531968Y-9347531D02*
X2541491Y-9366579D01*
X2541491Y-9366579D02*
X2551015Y-9404674D01*
X2551015Y-9404674D02*
X2551015Y-9452293D01*
X2551015Y-9452293D02*
X2541491Y-9490389D01*
X2541491Y-9490389D02*
X2531968Y-9509436D01*
X2531968Y-9509436D02*
X2522444Y-9518960D01*
X2522444Y-9518960D02*
X2503396Y-9528484D01*
X2503396Y-9528484D02*
X2484348Y-9528484D01*
X2484348Y-9528484D02*
X2465301Y-9518960D01*
X2465301Y-9518960D02*
X2455777Y-9509436D01*
X2455777Y-9509436D02*
X2446253Y-9490389D01*
X2446253Y-9490389D02*
X2436729Y-9452293D01*
X2436729Y-9452293D02*
X2436729Y-9404674D01*
X2436729Y-9404674D02*
X2446253Y-9366579D01*
X2446253Y-9366579D02*
X2455777Y-9347531D01*
X2455777Y-9347531D02*
X2465301Y-9338008D01*
X2465301Y-9338008D02*
X2484348Y-9328484D01*
X2722444Y-9328484D02*
X2684348Y-9328484D01*
X2684348Y-9328484D02*
X2665301Y-9338008D01*
X2665301Y-9338008D02*
X2655777Y-9347531D01*
X2655777Y-9347531D02*
X2636729Y-9376103D01*
X2636729Y-9376103D02*
X2627206Y-9414198D01*
X2627206Y-9414198D02*
X2627206Y-9490389D01*
X2627206Y-9490389D02*
X2636729Y-9509436D01*
X2636729Y-9509436D02*
X2646253Y-9518960D01*
X2646253Y-9518960D02*
X2665301Y-9528484D01*
X2665301Y-9528484D02*
X2703396Y-9528484D01*
X2703396Y-9528484D02*
X2722444Y-9518960D01*
X2722444Y-9518960D02*
X2731968Y-9509436D01*
X2731968Y-9509436D02*
X2741491Y-9490389D01*
X2741491Y-9490389D02*
X2741491Y-9442770D01*
X2741491Y-9442770D02*
X2731968Y-9423722D01*
X2731968Y-9423722D02*
X2722444Y-9414198D01*
X2722444Y-9414198D02*
X2703396Y-9404674D01*
X2703396Y-9404674D02*
X2665301Y-9404674D01*
X2665301Y-9404674D02*
X2646253Y-9414198D01*
X2646253Y-9414198D02*
X2636729Y-9423722D01*
X2636729Y-9423722D02*
X2627206Y-9442770D01*
X2912920Y-9328484D02*
X2874825Y-9328484D01*
X2874825Y-9328484D02*
X2855777Y-9338008D01*
X2855777Y-9338008D02*
X2846253Y-9347531D01*
X2846253Y-9347531D02*
X2827206Y-9376103D01*
X2827206Y-9376103D02*
X2817682Y-9414198D01*
X2817682Y-9414198D02*
X2817682Y-9490389D01*
X2817682Y-9490389D02*
X2827206Y-9509436D01*
X2827206Y-9509436D02*
X2836729Y-9518960D01*
X2836729Y-9518960D02*
X2855777Y-9528484D01*
X2855777Y-9528484D02*
X2893872Y-9528484D01*
X2893872Y-9528484D02*
X2912920Y-9518960D01*
X2912920Y-9518960D02*
X2922444Y-9509436D01*
X2922444Y-9509436D02*
X2931967Y-9490389D01*
X2931967Y-9490389D02*
X2931967Y-9442770D01*
X2931967Y-9442770D02*
X2922444Y-9423722D01*
X2922444Y-9423722D02*
X2912920Y-9414198D01*
X2912920Y-9414198D02*
X2893872Y-9404674D01*
X2893872Y-9404674D02*
X2855777Y-9404674D01*
X2855777Y-9404674D02*
X2836729Y-9414198D01*
X2836729Y-9414198D02*
X2827206Y-9423722D01*
X2827206Y-9423722D02*
X2817682Y-9442770D01*
X3027206Y-9528484D02*
X3065301Y-9528484D01*
X3065301Y-9528484D02*
X3084348Y-9518960D01*
X3084348Y-9518960D02*
X3093872Y-9509436D01*
X3093872Y-9509436D02*
X3112920Y-9480865D01*
X3112920Y-9480865D02*
X3122444Y-9442770D01*
X3122444Y-9442770D02*
X3122444Y-9366579D01*
X3122444Y-9366579D02*
X3112920Y-9347531D01*
X3112920Y-9347531D02*
X3103396Y-9338008D01*
X3103396Y-9338008D02*
X3084348Y-9328484D01*
X3084348Y-9328484D02*
X3046253Y-9328484D01*
X3046253Y-9328484D02*
X3027206Y-9338008D01*
X3027206Y-9338008D02*
X3017682Y-9347531D01*
X3017682Y-9347531D02*
X3008158Y-9366579D01*
X3008158Y-9366579D02*
X3008158Y-9414198D01*
X3008158Y-9414198D02*
X3017682Y-9433246D01*
X3017682Y-9433246D02*
X3027206Y-9442770D01*
X3027206Y-9442770D02*
X3046253Y-9452293D01*
X3046253Y-9452293D02*
X3084348Y-9452293D01*
X3084348Y-9452293D02*
X3103396Y-9442770D01*
X3103396Y-9442770D02*
X3112920Y-9433246D01*
X3112920Y-9433246D02*
X3122444Y-9414198D01*
X3198634Y-9328484D02*
X3198634Y-9366579D01*
X3274825Y-9328484D02*
X3274825Y-9366579D01*
X3570063Y-9604674D02*
X3560539Y-9595150D01*
X3560539Y-9595150D02*
X3541491Y-9566579D01*
X3541491Y-9566579D02*
X3531968Y-9547531D01*
X3531968Y-9547531D02*
X3522444Y-9518960D01*
X3522444Y-9518960D02*
X3512920Y-9471341D01*
X3512920Y-9471341D02*
X3512920Y-9433246D01*
X3512920Y-9433246D02*
X3522444Y-9385627D01*
X3522444Y-9385627D02*
X3531968Y-9357055D01*
X3531968Y-9357055D02*
X3541491Y-9338008D01*
X3541491Y-9338008D02*
X3560539Y-9309436D01*
X3560539Y-9309436D02*
X3570063Y-9299912D01*
X3731968Y-9395150D02*
X3731968Y-9528484D01*
X3684348Y-9318960D02*
X3636729Y-9461817D01*
X3636729Y-9461817D02*
X3760539Y-9461817D01*
X3989110Y-9528484D02*
X3989110Y-9328484D01*
X4074825Y-9528484D02*
X4074825Y-9423722D01*
X4074825Y-9423722D02*
X4065301Y-9404674D01*
X4065301Y-9404674D02*
X4046253Y-9395150D01*
X4046253Y-9395150D02*
X4017682Y-9395150D01*
X4017682Y-9395150D02*
X3998634Y-9404674D01*
X3998634Y-9404674D02*
X3989110Y-9414198D01*
X4198634Y-9528484D02*
X4179587Y-9518960D01*
X4179587Y-9518960D02*
X4170063Y-9509436D01*
X4170063Y-9509436D02*
X4160539Y-9490389D01*
X4160539Y-9490389D02*
X4160539Y-9433246D01*
X4160539Y-9433246D02*
X4170063Y-9414198D01*
X4170063Y-9414198D02*
X4179587Y-9404674D01*
X4179587Y-9404674D02*
X4198634Y-9395150D01*
X4198634Y-9395150D02*
X4227206Y-9395150D01*
X4227206Y-9395150D02*
X4246253Y-9404674D01*
X4246253Y-9404674D02*
X4255777Y-9414198D01*
X4255777Y-9414198D02*
X4265301Y-9433246D01*
X4265301Y-9433246D02*
X4265301Y-9490389D01*
X4265301Y-9490389D02*
X4255777Y-9509436D01*
X4255777Y-9509436D02*
X4246253Y-9518960D01*
X4246253Y-9518960D02*
X4227206Y-9528484D01*
X4227206Y-9528484D02*
X4198634Y-9528484D01*
X4379587Y-9528484D02*
X4360539Y-9518960D01*
X4360539Y-9518960D02*
X4351015Y-9499912D01*
X4351015Y-9499912D02*
X4351015Y-9328484D01*
X4531968Y-9518960D02*
X4512920Y-9528484D01*
X4512920Y-9528484D02*
X4474825Y-9528484D01*
X4474825Y-9528484D02*
X4455777Y-9518960D01*
X4455777Y-9518960D02*
X4446253Y-9499912D01*
X4446253Y-9499912D02*
X4446253Y-9423722D01*
X4446253Y-9423722D02*
X4455777Y-9404674D01*
X4455777Y-9404674D02*
X4474825Y-9395150D01*
X4474825Y-9395150D02*
X4512920Y-9395150D01*
X4512920Y-9395150D02*
X4531968Y-9404674D01*
X4531968Y-9404674D02*
X4541492Y-9423722D01*
X4541492Y-9423722D02*
X4541492Y-9442770D01*
X4541492Y-9442770D02*
X4446253Y-9461817D01*
X4617682Y-9518960D02*
X4636730Y-9528484D01*
X4636730Y-9528484D02*
X4674825Y-9528484D01*
X4674825Y-9528484D02*
X4693873Y-9518960D01*
X4693873Y-9518960D02*
X4703396Y-9499912D01*
X4703396Y-9499912D02*
X4703396Y-9490389D01*
X4703396Y-9490389D02*
X4693873Y-9471341D01*
X4693873Y-9471341D02*
X4674825Y-9461817D01*
X4674825Y-9461817D02*
X4646253Y-9461817D01*
X4646253Y-9461817D02*
X4627206Y-9452293D01*
X4627206Y-9452293D02*
X4617682Y-9433246D01*
X4617682Y-9433246D02*
X4617682Y-9423722D01*
X4617682Y-9423722D02*
X4627206Y-9404674D01*
X4627206Y-9404674D02*
X4646253Y-9395150D01*
X4646253Y-9395150D02*
X4674825Y-9395150D01*
X4674825Y-9395150D02*
X4693873Y-9404674D01*
X4770063Y-9604674D02*
X4779587Y-9595150D01*
X4779587Y-9595150D02*
X4798634Y-9566579D01*
X4798634Y-9566579D02*
X4808158Y-9547531D01*
X4808158Y-9547531D02*
X4817682Y-9518960D01*
X4817682Y-9518960D02*
X4827206Y-9471341D01*
X4827206Y-9471341D02*
X4827206Y-9433246D01*
X4827206Y-9433246D02*
X4817682Y-9385627D01*
X4817682Y-9385627D02*
X4808158Y-9357055D01*
X4808158Y-9357055D02*
X4798634Y-9338008D01*
X4798634Y-9338008D02*
X4779587Y-9309436D01*
X4779587Y-9309436D02*
X4770063Y-9299912D01*
X-105000Y-9827000D02*
X-5000Y-9727000D01*
X-105000Y-9627000D01*
X-205000Y-9727000D01*
X-105000Y-9827000D01*
X236729Y-9618484D02*
X360539Y-9618484D01*
X360539Y-9618484D02*
X293872Y-9694674D01*
X293872Y-9694674D02*
X322444Y-9694674D01*
X322444Y-9694674D02*
X341491Y-9704198D01*
X341491Y-9704198D02*
X351015Y-9713722D01*
X351015Y-9713722D02*
X360539Y-9732770D01*
X360539Y-9732770D02*
X360539Y-9780389D01*
X360539Y-9780389D02*
X351015Y-9799436D01*
X351015Y-9799436D02*
X341491Y-9808960D01*
X341491Y-9808960D02*
X322444Y-9818484D01*
X322444Y-9818484D02*
X265301Y-9818484D01*
X265301Y-9818484D02*
X246253Y-9808960D01*
X246253Y-9808960D02*
X236729Y-9799436D01*
X446253Y-9799436D02*
X455777Y-9808960D01*
X455777Y-9808960D02*
X446253Y-9818484D01*
X446253Y-9818484D02*
X436729Y-9808960D01*
X436729Y-9808960D02*
X446253Y-9799436D01*
X446253Y-9799436D02*
X446253Y-9818484D01*
X531967Y-9637531D02*
X541491Y-9628008D01*
X541491Y-9628008D02*
X560539Y-9618484D01*
X560539Y-9618484D02*
X608158Y-9618484D01*
X608158Y-9618484D02*
X627205Y-9628008D01*
X627205Y-9628008D02*
X636729Y-9637531D01*
X636729Y-9637531D02*
X646253Y-9656579D01*
X646253Y-9656579D02*
X646253Y-9675627D01*
X646253Y-9675627D02*
X636729Y-9704198D01*
X636729Y-9704198D02*
X522443Y-9818484D01*
X522443Y-9818484D02*
X646253Y-9818484D01*
X770062Y-9618484D02*
X789110Y-9618484D01*
X789110Y-9618484D02*
X808158Y-9628008D01*
X808158Y-9628008D02*
X817682Y-9637531D01*
X817682Y-9637531D02*
X827205Y-9656579D01*
X827205Y-9656579D02*
X836729Y-9694674D01*
X836729Y-9694674D02*
X836729Y-9742293D01*
X836729Y-9742293D02*
X827205Y-9780389D01*
X827205Y-9780389D02*
X817682Y-9799436D01*
X817682Y-9799436D02*
X808158Y-9808960D01*
X808158Y-9808960D02*
X789110Y-9818484D01*
X789110Y-9818484D02*
X770062Y-9818484D01*
X770062Y-9818484D02*
X751015Y-9808960D01*
X751015Y-9808960D02*
X741491Y-9799436D01*
X741491Y-9799436D02*
X731967Y-9780389D01*
X731967Y-9780389D02*
X722443Y-9742293D01*
X722443Y-9742293D02*
X722443Y-9694674D01*
X722443Y-9694674D02*
X731967Y-9656579D01*
X731967Y-9656579D02*
X741491Y-9637531D01*
X741491Y-9637531D02*
X751015Y-9628008D01*
X751015Y-9628008D02*
X770062Y-9618484D01*
X960539Y-9618484D02*
X979586Y-9618484D01*
X979586Y-9618484D02*
X998634Y-9628008D01*
X998634Y-9628008D02*
X1008158Y-9637531D01*
X1008158Y-9637531D02*
X1017682Y-9656579D01*
X1017682Y-9656579D02*
X1027205Y-9694674D01*
X1027205Y-9694674D02*
X1027205Y-9742293D01*
X1027205Y-9742293D02*
X1017682Y-9780389D01*
X1017682Y-9780389D02*
X1008158Y-9799436D01*
X1008158Y-9799436D02*
X998634Y-9808960D01*
X998634Y-9808960D02*
X979586Y-9818484D01*
X979586Y-9818484D02*
X960539Y-9818484D01*
X960539Y-9818484D02*
X941491Y-9808960D01*
X941491Y-9808960D02*
X931967Y-9799436D01*
X931967Y-9799436D02*
X922443Y-9780389D01*
X922443Y-9780389D02*
X912920Y-9742293D01*
X912920Y-9742293D02*
X912920Y-9694674D01*
X912920Y-9694674D02*
X922443Y-9656579D01*
X922443Y-9656579D02*
X931967Y-9637531D01*
X931967Y-9637531D02*
X941491Y-9628008D01*
X941491Y-9628008D02*
X960539Y-9618484D01*
X1112920Y-9818484D02*
X1112920Y-9685150D01*
X1112920Y-9704198D02*
X1122444Y-9694674D01*
X1122444Y-9694674D02*
X1141491Y-9685150D01*
X1141491Y-9685150D02*
X1170063Y-9685150D01*
X1170063Y-9685150D02*
X1189110Y-9694674D01*
X1189110Y-9694674D02*
X1198634Y-9713722D01*
X1198634Y-9713722D02*
X1198634Y-9818484D01*
X1198634Y-9713722D02*
X1208158Y-9694674D01*
X1208158Y-9694674D02*
X1227205Y-9685150D01*
X1227205Y-9685150D02*
X1255777Y-9685150D01*
X1255777Y-9685150D02*
X1274825Y-9694674D01*
X1274825Y-9694674D02*
X1284348Y-9713722D01*
X1284348Y-9713722D02*
X1284348Y-9818484D01*
X1379586Y-9818484D02*
X1379586Y-9685150D01*
X1379586Y-9704198D02*
X1389110Y-9694674D01*
X1389110Y-9694674D02*
X1408158Y-9685150D01*
X1408158Y-9685150D02*
X1436729Y-9685150D01*
X1436729Y-9685150D02*
X1455777Y-9694674D01*
X1455777Y-9694674D02*
X1465301Y-9713722D01*
X1465301Y-9713722D02*
X1465301Y-9818484D01*
X1465301Y-9713722D02*
X1474824Y-9694674D01*
X1474824Y-9694674D02*
X1493872Y-9685150D01*
X1493872Y-9685150D02*
X1522443Y-9685150D01*
X1522443Y-9685150D02*
X1541491Y-9694674D01*
X1541491Y-9694674D02*
X1551015Y-9713722D01*
X1551015Y-9713722D02*
X1551015Y-9818484D01*
X1941491Y-9608960D02*
X1770063Y-9866103D01*
X2198634Y-9618484D02*
X2217682Y-9618484D01*
X2217682Y-9618484D02*
X2236729Y-9628008D01*
X2236729Y-9628008D02*
X2246253Y-9637531D01*
X2246253Y-9637531D02*
X2255777Y-9656579D01*
X2255777Y-9656579D02*
X2265301Y-9694674D01*
X2265301Y-9694674D02*
X2265301Y-9742293D01*
X2265301Y-9742293D02*
X2255777Y-9780389D01*
X2255777Y-9780389D02*
X2246253Y-9799436D01*
X2246253Y-9799436D02*
X2236729Y-9808960D01*
X2236729Y-9808960D02*
X2217682Y-9818484D01*
X2217682Y-9818484D02*
X2198634Y-9818484D01*
X2198634Y-9818484D02*
X2179587Y-9808960D01*
X2179587Y-9808960D02*
X2170063Y-9799436D01*
X2170063Y-9799436D02*
X2160539Y-9780389D01*
X2160539Y-9780389D02*
X2151015Y-9742293D01*
X2151015Y-9742293D02*
X2151015Y-9694674D01*
X2151015Y-9694674D02*
X2160539Y-9656579D01*
X2160539Y-9656579D02*
X2170063Y-9637531D01*
X2170063Y-9637531D02*
X2179587Y-9628008D01*
X2179587Y-9628008D02*
X2198634Y-9618484D01*
X2351015Y-9799436D02*
X2360539Y-9808960D01*
X2360539Y-9808960D02*
X2351015Y-9818484D01*
X2351015Y-9818484D02*
X2341491Y-9808960D01*
X2341491Y-9808960D02*
X2351015Y-9799436D01*
X2351015Y-9799436D02*
X2351015Y-9818484D01*
X2551015Y-9818484D02*
X2436729Y-9818484D01*
X2493872Y-9818484D02*
X2493872Y-9618484D01*
X2493872Y-9618484D02*
X2474825Y-9647055D01*
X2474825Y-9647055D02*
X2455777Y-9666103D01*
X2455777Y-9666103D02*
X2436729Y-9675627D01*
X2627206Y-9637531D02*
X2636729Y-9628008D01*
X2636729Y-9628008D02*
X2655777Y-9618484D01*
X2655777Y-9618484D02*
X2703396Y-9618484D01*
X2703396Y-9618484D02*
X2722444Y-9628008D01*
X2722444Y-9628008D02*
X2731968Y-9637531D01*
X2731968Y-9637531D02*
X2741491Y-9656579D01*
X2741491Y-9656579D02*
X2741491Y-9675627D01*
X2741491Y-9675627D02*
X2731968Y-9704198D01*
X2731968Y-9704198D02*
X2617682Y-9818484D01*
X2617682Y-9818484D02*
X2741491Y-9818484D01*
X2912920Y-9618484D02*
X2874825Y-9618484D01*
X2874825Y-9618484D02*
X2855777Y-9628008D01*
X2855777Y-9628008D02*
X2846253Y-9637531D01*
X2846253Y-9637531D02*
X2827206Y-9666103D01*
X2827206Y-9666103D02*
X2817682Y-9704198D01*
X2817682Y-9704198D02*
X2817682Y-9780389D01*
X2817682Y-9780389D02*
X2827206Y-9799436D01*
X2827206Y-9799436D02*
X2836729Y-9808960D01*
X2836729Y-9808960D02*
X2855777Y-9818484D01*
X2855777Y-9818484D02*
X2893872Y-9818484D01*
X2893872Y-9818484D02*
X2912920Y-9808960D01*
X2912920Y-9808960D02*
X2922444Y-9799436D01*
X2922444Y-9799436D02*
X2931967Y-9780389D01*
X2931967Y-9780389D02*
X2931967Y-9732770D01*
X2931967Y-9732770D02*
X2922444Y-9713722D01*
X2922444Y-9713722D02*
X2912920Y-9704198D01*
X2912920Y-9704198D02*
X2893872Y-9694674D01*
X2893872Y-9694674D02*
X2855777Y-9694674D01*
X2855777Y-9694674D02*
X2836729Y-9704198D01*
X2836729Y-9704198D02*
X2827206Y-9713722D01*
X2827206Y-9713722D02*
X2817682Y-9732770D01*
X3055777Y-9618484D02*
X3074825Y-9618484D01*
X3074825Y-9618484D02*
X3093872Y-9628008D01*
X3093872Y-9628008D02*
X3103396Y-9637531D01*
X3103396Y-9637531D02*
X3112920Y-9656579D01*
X3112920Y-9656579D02*
X3122444Y-9694674D01*
X3122444Y-9694674D02*
X3122444Y-9742293D01*
X3122444Y-9742293D02*
X3112920Y-9780389D01*
X3112920Y-9780389D02*
X3103396Y-9799436D01*
X3103396Y-9799436D02*
X3093872Y-9808960D01*
X3093872Y-9808960D02*
X3074825Y-9818484D01*
X3074825Y-9818484D02*
X3055777Y-9818484D01*
X3055777Y-9818484D02*
X3036729Y-9808960D01*
X3036729Y-9808960D02*
X3027206Y-9799436D01*
X3027206Y-9799436D02*
X3017682Y-9780389D01*
X3017682Y-9780389D02*
X3008158Y-9742293D01*
X3008158Y-9742293D02*
X3008158Y-9694674D01*
X3008158Y-9694674D02*
X3017682Y-9656579D01*
X3017682Y-9656579D02*
X3027206Y-9637531D01*
X3027206Y-9637531D02*
X3036729Y-9628008D01*
X3036729Y-9628008D02*
X3055777Y-9618484D01*
X3198634Y-9618484D02*
X3198634Y-9656579D01*
X3274825Y-9618484D02*
X3274825Y-9656579D01*
X3570063Y-9894674D02*
X3560539Y-9885150D01*
X3560539Y-9885150D02*
X3541491Y-9856579D01*
X3541491Y-9856579D02*
X3531968Y-9837531D01*
X3531968Y-9837531D02*
X3522444Y-9808960D01*
X3522444Y-9808960D02*
X3512920Y-9761341D01*
X3512920Y-9761341D02*
X3512920Y-9723246D01*
X3512920Y-9723246D02*
X3522444Y-9675627D01*
X3522444Y-9675627D02*
X3531968Y-9647055D01*
X3531968Y-9647055D02*
X3541491Y-9628008D01*
X3541491Y-9628008D02*
X3560539Y-9599436D01*
X3560539Y-9599436D02*
X3570063Y-9589912D01*
X3731968Y-9685150D02*
X3731968Y-9818484D01*
X3684348Y-9608960D02*
X3636729Y-9751817D01*
X3636729Y-9751817D02*
X3760539Y-9751817D01*
X3989110Y-9818484D02*
X3989110Y-9618484D01*
X4074825Y-9818484D02*
X4074825Y-9713722D01*
X4074825Y-9713722D02*
X4065301Y-9694674D01*
X4065301Y-9694674D02*
X4046253Y-9685150D01*
X4046253Y-9685150D02*
X4017682Y-9685150D01*
X4017682Y-9685150D02*
X3998634Y-9694674D01*
X3998634Y-9694674D02*
X3989110Y-9704198D01*
X4198634Y-9818484D02*
X4179587Y-9808960D01*
X4179587Y-9808960D02*
X4170063Y-9799436D01*
X4170063Y-9799436D02*
X4160539Y-9780389D01*
X4160539Y-9780389D02*
X4160539Y-9723246D01*
X4160539Y-9723246D02*
X4170063Y-9704198D01*
X4170063Y-9704198D02*
X4179587Y-9694674D01*
X4179587Y-9694674D02*
X4198634Y-9685150D01*
X4198634Y-9685150D02*
X4227206Y-9685150D01*
X4227206Y-9685150D02*
X4246253Y-9694674D01*
X4246253Y-9694674D02*
X4255777Y-9704198D01*
X4255777Y-9704198D02*
X4265301Y-9723246D01*
X4265301Y-9723246D02*
X4265301Y-9780389D01*
X4265301Y-9780389D02*
X4255777Y-9799436D01*
X4255777Y-9799436D02*
X4246253Y-9808960D01*
X4246253Y-9808960D02*
X4227206Y-9818484D01*
X4227206Y-9818484D02*
X4198634Y-9818484D01*
X4379587Y-9818484D02*
X4360539Y-9808960D01*
X4360539Y-9808960D02*
X4351015Y-9789912D01*
X4351015Y-9789912D02*
X4351015Y-9618484D01*
X4531968Y-9808960D02*
X4512920Y-9818484D01*
X4512920Y-9818484D02*
X4474825Y-9818484D01*
X4474825Y-9818484D02*
X4455777Y-9808960D01*
X4455777Y-9808960D02*
X4446253Y-9789912D01*
X4446253Y-9789912D02*
X4446253Y-9713722D01*
X4446253Y-9713722D02*
X4455777Y-9694674D01*
X4455777Y-9694674D02*
X4474825Y-9685150D01*
X4474825Y-9685150D02*
X4512920Y-9685150D01*
X4512920Y-9685150D02*
X4531968Y-9694674D01*
X4531968Y-9694674D02*
X4541492Y-9713722D01*
X4541492Y-9713722D02*
X4541492Y-9732770D01*
X4541492Y-9732770D02*
X4446253Y-9751817D01*
X4617682Y-9808960D02*
X4636730Y-9818484D01*
X4636730Y-9818484D02*
X4674825Y-9818484D01*
X4674825Y-9818484D02*
X4693873Y-9808960D01*
X4693873Y-9808960D02*
X4703396Y-9789912D01*
X4703396Y-9789912D02*
X4703396Y-9780389D01*
X4703396Y-9780389D02*
X4693873Y-9761341D01*
X4693873Y-9761341D02*
X4674825Y-9751817D01*
X4674825Y-9751817D02*
X4646253Y-9751817D01*
X4646253Y-9751817D02*
X4627206Y-9742293D01*
X4627206Y-9742293D02*
X4617682Y-9723246D01*
X4617682Y-9723246D02*
X4617682Y-9713722D01*
X4617682Y-9713722D02*
X4627206Y-9694674D01*
X4627206Y-9694674D02*
X4646253Y-9685150D01*
X4646253Y-9685150D02*
X4674825Y-9685150D01*
X4674825Y-9685150D02*
X4693873Y-9694674D01*
X4770063Y-9894674D02*
X4779587Y-9885150D01*
X4779587Y-9885150D02*
X4798634Y-9856579D01*
X4798634Y-9856579D02*
X4808158Y-9837531D01*
X4808158Y-9837531D02*
X4817682Y-9808960D01*
X4817682Y-9808960D02*
X4827206Y-9761341D01*
X4827206Y-9761341D02*
X4827206Y-9723246D01*
X4827206Y-9723246D02*
X4817682Y-9675627D01*
X4817682Y-9675627D02*
X4808158Y-9647055D01*
X4808158Y-9647055D02*
X4798634Y-9628008D01*
X4798634Y-9628008D02*
X4779587Y-9599436D01*
X4779587Y-9599436D02*
X4770063Y-9589912D01*
X5131968Y-9894674D02*
X5122444Y-9885150D01*
X5122444Y-9885150D02*
X5103396Y-9856579D01*
X5103396Y-9856579D02*
X5093873Y-9837531D01*
X5093873Y-9837531D02*
X5084349Y-9808960D01*
X5084349Y-9808960D02*
X5074825Y-9761341D01*
X5074825Y-9761341D02*
X5074825Y-9723246D01*
X5074825Y-9723246D02*
X5084349Y-9675627D01*
X5084349Y-9675627D02*
X5093873Y-9647055D01*
X5093873Y-9647055D02*
X5103396Y-9628008D01*
X5103396Y-9628008D02*
X5122444Y-9599436D01*
X5122444Y-9599436D02*
X5131968Y-9589912D01*
X5208158Y-9685150D02*
X5208158Y-9818484D01*
X5208158Y-9704198D02*
X5217682Y-9694674D01*
X5217682Y-9694674D02*
X5236730Y-9685150D01*
X5236730Y-9685150D02*
X5265301Y-9685150D01*
X5265301Y-9685150D02*
X5284349Y-9694674D01*
X5284349Y-9694674D02*
X5293873Y-9713722D01*
X5293873Y-9713722D02*
X5293873Y-9818484D01*
X5417682Y-9818484D02*
X5398634Y-9808960D01*
X5398634Y-9808960D02*
X5389111Y-9799436D01*
X5389111Y-9799436D02*
X5379587Y-9780389D01*
X5379587Y-9780389D02*
X5379587Y-9723246D01*
X5379587Y-9723246D02*
X5389111Y-9704198D01*
X5389111Y-9704198D02*
X5398634Y-9694674D01*
X5398634Y-9694674D02*
X5417682Y-9685150D01*
X5417682Y-9685150D02*
X5446254Y-9685150D01*
X5446254Y-9685150D02*
X5465301Y-9694674D01*
X5465301Y-9694674D02*
X5474825Y-9704198D01*
X5474825Y-9704198D02*
X5484349Y-9723246D01*
X5484349Y-9723246D02*
X5484349Y-9780389D01*
X5484349Y-9780389D02*
X5474825Y-9799436D01*
X5474825Y-9799436D02*
X5465301Y-9808960D01*
X5465301Y-9808960D02*
X5446254Y-9818484D01*
X5446254Y-9818484D02*
X5417682Y-9818484D01*
X5541492Y-9685150D02*
X5617682Y-9685150D01*
X5570063Y-9618484D02*
X5570063Y-9789912D01*
X5570063Y-9789912D02*
X5579587Y-9808960D01*
X5579587Y-9808960D02*
X5598634Y-9818484D01*
X5598634Y-9818484D02*
X5617682Y-9818484D01*
X5836730Y-9685150D02*
X5836730Y-9885150D01*
X5836730Y-9694674D02*
X5855777Y-9685150D01*
X5855777Y-9685150D02*
X5893873Y-9685150D01*
X5893873Y-9685150D02*
X5912920Y-9694674D01*
X5912920Y-9694674D02*
X5922444Y-9704198D01*
X5922444Y-9704198D02*
X5931968Y-9723246D01*
X5931968Y-9723246D02*
X5931968Y-9780389D01*
X5931968Y-9780389D02*
X5922444Y-9799436D01*
X5922444Y-9799436D02*
X5912920Y-9808960D01*
X5912920Y-9808960D02*
X5893873Y-9818484D01*
X5893873Y-9818484D02*
X5855777Y-9818484D01*
X5855777Y-9818484D02*
X5836730Y-9808960D01*
X6046253Y-9818484D02*
X6027206Y-9808960D01*
X6027206Y-9808960D02*
X6017682Y-9789912D01*
X6017682Y-9789912D02*
X6017682Y-9618484D01*
X6208158Y-9818484D02*
X6208158Y-9713722D01*
X6208158Y-9713722D02*
X6198634Y-9694674D01*
X6198634Y-9694674D02*
X6179587Y-9685150D01*
X6179587Y-9685150D02*
X6141492Y-9685150D01*
X6141492Y-9685150D02*
X6122444Y-9694674D01*
X6208158Y-9808960D02*
X6189111Y-9818484D01*
X6189111Y-9818484D02*
X6141492Y-9818484D01*
X6141492Y-9818484D02*
X6122444Y-9808960D01*
X6122444Y-9808960D02*
X6112920Y-9789912D01*
X6112920Y-9789912D02*
X6112920Y-9770865D01*
X6112920Y-9770865D02*
X6122444Y-9751817D01*
X6122444Y-9751817D02*
X6141492Y-9742293D01*
X6141492Y-9742293D02*
X6189111Y-9742293D01*
X6189111Y-9742293D02*
X6208158Y-9732770D01*
X6274825Y-9685150D02*
X6351015Y-9685150D01*
X6303396Y-9618484D02*
X6303396Y-9789912D01*
X6303396Y-9789912D02*
X6312920Y-9808960D01*
X6312920Y-9808960D02*
X6331968Y-9818484D01*
X6331968Y-9818484D02*
X6351015Y-9818484D01*
X6493873Y-9808960D02*
X6474825Y-9818484D01*
X6474825Y-9818484D02*
X6436730Y-9818484D01*
X6436730Y-9818484D02*
X6417682Y-9808960D01*
X6417682Y-9808960D02*
X6408158Y-9789912D01*
X6408158Y-9789912D02*
X6408158Y-9713722D01*
X6408158Y-9713722D02*
X6417682Y-9694674D01*
X6417682Y-9694674D02*
X6436730Y-9685150D01*
X6436730Y-9685150D02*
X6474825Y-9685150D01*
X6474825Y-9685150D02*
X6493873Y-9694674D01*
X6493873Y-9694674D02*
X6503396Y-9713722D01*
X6503396Y-9713722D02*
X6503396Y-9732770D01*
X6503396Y-9732770D02*
X6408158Y-9751817D01*
X6674825Y-9818484D02*
X6674825Y-9618484D01*
X6674825Y-9808960D02*
X6655777Y-9818484D01*
X6655777Y-9818484D02*
X6617682Y-9818484D01*
X6617682Y-9818484D02*
X6598634Y-9808960D01*
X6598634Y-9808960D02*
X6589111Y-9799436D01*
X6589111Y-9799436D02*
X6579587Y-9780389D01*
X6579587Y-9780389D02*
X6579587Y-9723246D01*
X6579587Y-9723246D02*
X6589111Y-9704198D01*
X6589111Y-9704198D02*
X6598634Y-9694674D01*
X6598634Y-9694674D02*
X6617682Y-9685150D01*
X6617682Y-9685150D02*
X6655777Y-9685150D01*
X6655777Y-9685150D02*
X6674825Y-9694674D01*
X6751015Y-9894674D02*
X6760539Y-9885150D01*
X6760539Y-9885150D02*
X6779587Y-9856579D01*
X6779587Y-9856579D02*
X6789111Y-9837531D01*
X6789111Y-9837531D02*
X6798634Y-9808960D01*
X6798634Y-9808960D02*
X6808158Y-9761341D01*
X6808158Y-9761341D02*
X6808158Y-9723246D01*
X6808158Y-9723246D02*
X6798634Y-9675627D01*
X6798634Y-9675627D02*
X6789111Y-9647055D01*
X6789111Y-9647055D02*
X6779587Y-9628008D01*
X6779587Y-9628008D02*
X6760539Y-9599436D01*
X6760539Y-9599436D02*
X6751015Y-9589912D01*
M02*
