%TF.GenerationSoftware,KiCad,Pcbnew,10.0.5*%
%TF.CreationDate,2026-08-05T00:31:14-05:00*%
%TF.ProjectId,ext-tank-routing,6578742d-7461-46e6-9b2d-726f7574696e,rev?*%
%TF.SameCoordinates,Original*%
%TF.FileFunction,AssemblyDrawing,Top*%
%FSLAX46Y46*%
G04 Gerber Fmt 4.6, Leading zero omitted, Abs format (unit mm)*
G04 Created by KiCad (PCBNEW 10.0.5) date 2026-08-05 00:31:14*
%MOMM*%
%LPD*%
G01*
G04 APERTURE LIST*
%ADD10C,0.150000*%
%ADD11C,0.060000*%
%ADD12C,0.100000*%
%ADD13C,0.200000*%
G04 APERTURE END LIST*
D10*
X380952Y-81104819D02*
X380952Y-80104819D01*
X380952Y-80104819D02*
X714285Y-80819104D01*
X714285Y-80819104D02*
X1047618Y-80104819D01*
X1047618Y-80104819D02*
X1047618Y-81104819D01*
X1428571Y-80104819D02*
X2047618Y-80104819D01*
X2047618Y-80104819D02*
X1714285Y-80485771D01*
X1714285Y-80485771D02*
X1857142Y-80485771D01*
X1857142Y-80485771D02*
X1952380Y-80533390D01*
X1952380Y-80533390D02*
X1999999Y-80581009D01*
X1999999Y-80581009D02*
X2047618Y-80676247D01*
X2047618Y-80676247D02*
X2047618Y-80914342D01*
X2047618Y-80914342D02*
X1999999Y-81009580D01*
X1999999Y-81009580D02*
X1952380Y-81057200D01*
X1952380Y-81057200D02*
X1857142Y-81104819D01*
X1857142Y-81104819D02*
X1571428Y-81104819D01*
X1571428Y-81104819D02*
X1476190Y-81057200D01*
X1476190Y-81057200D02*
X1428571Y-81009580D01*
X3238095Y-81104819D02*
X3238095Y-80104819D01*
X3238095Y-80104819D02*
X3809523Y-81104819D01*
X3809523Y-81104819D02*
X3809523Y-80104819D01*
X4285714Y-81104819D02*
X4285714Y-80104819D01*
X4285714Y-80104819D02*
X4666666Y-80104819D01*
X4666666Y-80104819D02*
X4761904Y-80152438D01*
X4761904Y-80152438D02*
X4809523Y-80200057D01*
X4809523Y-80200057D02*
X4857142Y-80295295D01*
X4857142Y-80295295D02*
X4857142Y-80438152D01*
X4857142Y-80438152D02*
X4809523Y-80533390D01*
X4809523Y-80533390D02*
X4761904Y-80581009D01*
X4761904Y-80581009D02*
X4666666Y-80628628D01*
X4666666Y-80628628D02*
X4285714Y-80628628D01*
X5142857Y-80104819D02*
X5714285Y-80104819D01*
X5428571Y-81104819D02*
X5428571Y-80104819D01*
X6047619Y-81104819D02*
X6047619Y-80104819D01*
X6047619Y-80581009D02*
X6619047Y-80581009D01*
X6619047Y-81104819D02*
X6619047Y-80104819D01*
X2738095Y-76954819D02*
X2738095Y-75954819D01*
X2738095Y-76431009D02*
X3309523Y-76431009D01*
X3309523Y-76954819D02*
X3309523Y-75954819D01*
X4214285Y-76288152D02*
X4214285Y-76954819D01*
X3976190Y-75907200D02*
X3738095Y-76621485D01*
X3738095Y-76621485D02*
X4357142Y-76621485D01*
X14833333Y-63884819D02*
X14261905Y-63884819D01*
X14547619Y-63884819D02*
X14547619Y-62884819D01*
X14547619Y-62884819D02*
X14452381Y-63027676D01*
X14452381Y-63027676D02*
X14357143Y-63122914D01*
X14357143Y-63122914D02*
X14261905Y-63170533D01*
X15452381Y-62884819D02*
X15547619Y-62884819D01*
X15547619Y-62884819D02*
X15642857Y-62932438D01*
X15642857Y-62932438D02*
X15690476Y-62980057D01*
X15690476Y-62980057D02*
X15738095Y-63075295D01*
X15738095Y-63075295D02*
X15785714Y-63265771D01*
X15785714Y-63265771D02*
X15785714Y-63503866D01*
X15785714Y-63503866D02*
X15738095Y-63694342D01*
X15738095Y-63694342D02*
X15690476Y-63789580D01*
X15690476Y-63789580D02*
X15642857Y-63837200D01*
X15642857Y-63837200D02*
X15547619Y-63884819D01*
X15547619Y-63884819D02*
X15452381Y-63884819D01*
X15452381Y-63884819D02*
X15357143Y-63837200D01*
X15357143Y-63837200D02*
X15309524Y-63789580D01*
X15309524Y-63789580D02*
X15261905Y-63694342D01*
X15261905Y-63694342D02*
X15214286Y-63503866D01*
X15214286Y-63503866D02*
X15214286Y-63265771D01*
X15214286Y-63265771D02*
X15261905Y-63075295D01*
X15261905Y-63075295D02*
X15309524Y-62980057D01*
X15309524Y-62980057D02*
X15357143Y-62932438D01*
X15357143Y-62932438D02*
X15452381Y-62884819D01*
X16404762Y-62884819D02*
X16500000Y-62884819D01*
X16500000Y-62884819D02*
X16595238Y-62932438D01*
X16595238Y-62932438D02*
X16642857Y-62980057D01*
X16642857Y-62980057D02*
X16690476Y-63075295D01*
X16690476Y-63075295D02*
X16738095Y-63265771D01*
X16738095Y-63265771D02*
X16738095Y-63503866D01*
X16738095Y-63503866D02*
X16690476Y-63694342D01*
X16690476Y-63694342D02*
X16642857Y-63789580D01*
X16642857Y-63789580D02*
X16595238Y-63837200D01*
X16595238Y-63837200D02*
X16500000Y-63884819D01*
X16500000Y-63884819D02*
X16404762Y-63884819D01*
X16404762Y-63884819D02*
X16309524Y-63837200D01*
X16309524Y-63837200D02*
X16261905Y-63789580D01*
X16261905Y-63789580D02*
X16214286Y-63694342D01*
X16214286Y-63694342D02*
X16166667Y-63503866D01*
X16166667Y-63503866D02*
X16166667Y-63265771D01*
X16166667Y-63265771D02*
X16214286Y-63075295D01*
X16214286Y-63075295D02*
X16261905Y-62980057D01*
X16261905Y-62980057D02*
X16309524Y-62932438D01*
X16309524Y-62932438D02*
X16404762Y-62884819D01*
X17738095Y-63884819D02*
X17404762Y-63408628D01*
X17166667Y-63884819D02*
X17166667Y-62884819D01*
X17166667Y-62884819D02*
X17547619Y-62884819D01*
X17547619Y-62884819D02*
X17642857Y-62932438D01*
X17642857Y-62932438D02*
X17690476Y-62980057D01*
X17690476Y-62980057D02*
X17738095Y-63075295D01*
X17738095Y-63075295D02*
X17738095Y-63218152D01*
X17738095Y-63218152D02*
X17690476Y-63313390D01*
X17690476Y-63313390D02*
X17642857Y-63361009D01*
X17642857Y-63361009D02*
X17547619Y-63408628D01*
X17547619Y-63408628D02*
X17166667Y-63408628D01*
D11*
X15552381Y-62181927D02*
X15419048Y-61991451D01*
X15323810Y-62181927D02*
X15323810Y-61781927D01*
X15323810Y-61781927D02*
X15476191Y-61781927D01*
X15476191Y-61781927D02*
X15514286Y-61800975D01*
X15514286Y-61800975D02*
X15533333Y-61820022D01*
X15533333Y-61820022D02*
X15552381Y-61858118D01*
X15552381Y-61858118D02*
X15552381Y-61915260D01*
X15552381Y-61915260D02*
X15533333Y-61953356D01*
X15533333Y-61953356D02*
X15514286Y-61972403D01*
X15514286Y-61972403D02*
X15476191Y-61991451D01*
X15476191Y-61991451D02*
X15323810Y-61991451D01*
X15704762Y-61820022D02*
X15723810Y-61800975D01*
X15723810Y-61800975D02*
X15761905Y-61781927D01*
X15761905Y-61781927D02*
X15857143Y-61781927D01*
X15857143Y-61781927D02*
X15895238Y-61800975D01*
X15895238Y-61800975D02*
X15914286Y-61820022D01*
X15914286Y-61820022D02*
X15933333Y-61858118D01*
X15933333Y-61858118D02*
X15933333Y-61896213D01*
X15933333Y-61896213D02*
X15914286Y-61953356D01*
X15914286Y-61953356D02*
X15685714Y-62181927D01*
X15685714Y-62181927D02*
X15933333Y-62181927D01*
X16085714Y-61820022D02*
X16104762Y-61800975D01*
X16104762Y-61800975D02*
X16142857Y-61781927D01*
X16142857Y-61781927D02*
X16238095Y-61781927D01*
X16238095Y-61781927D02*
X16276190Y-61800975D01*
X16276190Y-61800975D02*
X16295238Y-61820022D01*
X16295238Y-61820022D02*
X16314285Y-61858118D01*
X16314285Y-61858118D02*
X16314285Y-61896213D01*
X16314285Y-61896213D02*
X16295238Y-61953356D01*
X16295238Y-61953356D02*
X16066666Y-62181927D01*
X16066666Y-62181927D02*
X16314285Y-62181927D01*
X16657142Y-61781927D02*
X16580952Y-61781927D01*
X16580952Y-61781927D02*
X16542856Y-61800975D01*
X16542856Y-61800975D02*
X16523809Y-61820022D01*
X16523809Y-61820022D02*
X16485714Y-61877165D01*
X16485714Y-61877165D02*
X16466666Y-61953356D01*
X16466666Y-61953356D02*
X16466666Y-62105737D01*
X16466666Y-62105737D02*
X16485714Y-62143832D01*
X16485714Y-62143832D02*
X16504761Y-62162880D01*
X16504761Y-62162880D02*
X16542856Y-62181927D01*
X16542856Y-62181927D02*
X16619047Y-62181927D01*
X16619047Y-62181927D02*
X16657142Y-62162880D01*
X16657142Y-62162880D02*
X16676190Y-62143832D01*
X16676190Y-62143832D02*
X16695237Y-62105737D01*
X16695237Y-62105737D02*
X16695237Y-62010499D01*
X16695237Y-62010499D02*
X16676190Y-61972403D01*
X16676190Y-61972403D02*
X16657142Y-61953356D01*
X16657142Y-61953356D02*
X16619047Y-61934308D01*
X16619047Y-61934308D02*
X16542856Y-61934308D01*
X16542856Y-61934308D02*
X16504761Y-61953356D01*
X16504761Y-61953356D02*
X16485714Y-61972403D01*
X16485714Y-61972403D02*
X16466666Y-62010499D01*
D10*
X97596433Y-33459519D02*
X97786909Y-33459519D01*
X97786909Y-33459519D02*
X97882147Y-33507138D01*
X97882147Y-33507138D02*
X97977385Y-33602376D01*
X97977385Y-33602376D02*
X98025004Y-33792852D01*
X98025004Y-33792852D02*
X98025004Y-34126185D01*
X98025004Y-34126185D02*
X97977385Y-34316661D01*
X97977385Y-34316661D02*
X97882147Y-34411900D01*
X97882147Y-34411900D02*
X97786909Y-34459519D01*
X97786909Y-34459519D02*
X97596433Y-34459519D01*
X97596433Y-34459519D02*
X97501195Y-34411900D01*
X97501195Y-34411900D02*
X97405957Y-34316661D01*
X97405957Y-34316661D02*
X97358338Y-34126185D01*
X97358338Y-34126185D02*
X97358338Y-33792852D01*
X97358338Y-33792852D02*
X97405957Y-33602376D01*
X97405957Y-33602376D02*
X97501195Y-33507138D01*
X97501195Y-33507138D02*
X97596433Y-33459519D01*
X98453576Y-34459519D02*
X98453576Y-33459519D01*
X98453576Y-33459519D02*
X98834528Y-33459519D01*
X98834528Y-33459519D02*
X98929766Y-33507138D01*
X98929766Y-33507138D02*
X98977385Y-33554757D01*
X98977385Y-33554757D02*
X99025004Y-33649995D01*
X99025004Y-33649995D02*
X99025004Y-33792852D01*
X99025004Y-33792852D02*
X98977385Y-33888090D01*
X98977385Y-33888090D02*
X98929766Y-33935709D01*
X98929766Y-33935709D02*
X98834528Y-33983328D01*
X98834528Y-33983328D02*
X98453576Y-33983328D01*
X99405957Y-34173804D02*
X99882147Y-34173804D01*
X99310719Y-34459519D02*
X99644052Y-33459519D01*
X99644052Y-33459519D02*
X99977385Y-34459519D01*
X100834528Y-34459519D02*
X100263100Y-34459519D01*
X100548814Y-34459519D02*
X100548814Y-33459519D01*
X100548814Y-33459519D02*
X100453576Y-33602376D01*
X100453576Y-33602376D02*
X100358338Y-33697614D01*
X100358338Y-33697614D02*
X100263100Y-33745233D01*
X101691671Y-33459519D02*
X101501195Y-33459519D01*
X101501195Y-33459519D02*
X101405957Y-33507138D01*
X101405957Y-33507138D02*
X101358338Y-33554757D01*
X101358338Y-33554757D02*
X101263100Y-33697614D01*
X101263100Y-33697614D02*
X101215481Y-33888090D01*
X101215481Y-33888090D02*
X101215481Y-34269042D01*
X101215481Y-34269042D02*
X101263100Y-34364280D01*
X101263100Y-34364280D02*
X101310719Y-34411900D01*
X101310719Y-34411900D02*
X101405957Y-34459519D01*
X101405957Y-34459519D02*
X101596433Y-34459519D01*
X101596433Y-34459519D02*
X101691671Y-34411900D01*
X101691671Y-34411900D02*
X101739290Y-34364280D01*
X101739290Y-34364280D02*
X101786909Y-34269042D01*
X101786909Y-34269042D02*
X101786909Y-34030947D01*
X101786909Y-34030947D02*
X101739290Y-33935709D01*
X101739290Y-33935709D02*
X101691671Y-33888090D01*
X101691671Y-33888090D02*
X101596433Y-33840471D01*
X101596433Y-33840471D02*
X101405957Y-33840471D01*
X101405957Y-33840471D02*
X101310719Y-33888090D01*
X101310719Y-33888090D02*
X101263100Y-33935709D01*
X101263100Y-33935709D02*
X101215481Y-34030947D01*
X102120243Y-33459519D02*
X102786909Y-33459519D01*
X102786909Y-33459519D02*
X102358338Y-34459519D01*
X103215481Y-34459519D02*
X103405957Y-34459519D01*
X103405957Y-34459519D02*
X103501195Y-34411900D01*
X103501195Y-34411900D02*
X103548814Y-34364280D01*
X103548814Y-34364280D02*
X103644052Y-34221423D01*
X103644052Y-34221423D02*
X103691671Y-34030947D01*
X103691671Y-34030947D02*
X103691671Y-33649995D01*
X103691671Y-33649995D02*
X103644052Y-33554757D01*
X103644052Y-33554757D02*
X103596433Y-33507138D01*
X103596433Y-33507138D02*
X103501195Y-33459519D01*
X103501195Y-33459519D02*
X103310719Y-33459519D01*
X103310719Y-33459519D02*
X103215481Y-33507138D01*
X103215481Y-33507138D02*
X103167862Y-33554757D01*
X103167862Y-33554757D02*
X103120243Y-33649995D01*
X103120243Y-33649995D02*
X103120243Y-33888090D01*
X103120243Y-33888090D02*
X103167862Y-33983328D01*
X103167862Y-33983328D02*
X103215481Y-34030947D01*
X103215481Y-34030947D02*
X103310719Y-34078566D01*
X103310719Y-34078566D02*
X103501195Y-34078566D01*
X103501195Y-34078566D02*
X103596433Y-34030947D01*
X103596433Y-34030947D02*
X103644052Y-33983328D01*
X103644052Y-33983328D02*
X103691671Y-33888090D01*
X104120243Y-34459519D02*
X104120243Y-33459519D01*
X104596433Y-34459519D02*
X104596433Y-33459519D01*
X104596433Y-33459519D02*
X104834528Y-33459519D01*
X104834528Y-33459519D02*
X104977385Y-33507138D01*
X104977385Y-33507138D02*
X105072623Y-33602376D01*
X105072623Y-33602376D02*
X105120242Y-33697614D01*
X105120242Y-33697614D02*
X105167861Y-33888090D01*
X105167861Y-33888090D02*
X105167861Y-34030947D01*
X105167861Y-34030947D02*
X105120242Y-34221423D01*
X105120242Y-34221423D02*
X105072623Y-34316661D01*
X105072623Y-34316661D02*
X104977385Y-34411900D01*
X104977385Y-34411900D02*
X104834528Y-34459519D01*
X104834528Y-34459519D02*
X104596433Y-34459519D01*
X106167861Y-34459519D02*
X105834528Y-33983328D01*
X105596433Y-34459519D02*
X105596433Y-33459519D01*
X105596433Y-33459519D02*
X105977385Y-33459519D01*
X105977385Y-33459519D02*
X106072623Y-33507138D01*
X106072623Y-33507138D02*
X106120242Y-33554757D01*
X106120242Y-33554757D02*
X106167861Y-33649995D01*
X106167861Y-33649995D02*
X106167861Y-33792852D01*
X106167861Y-33792852D02*
X106120242Y-33888090D01*
X106120242Y-33888090D02*
X106072623Y-33935709D01*
X106072623Y-33935709D02*
X105977385Y-33983328D01*
X105977385Y-33983328D02*
X105596433Y-33983328D01*
X101217919Y-30438985D02*
X102027442Y-30438985D01*
X102027442Y-30438985D02*
X102122680Y-30391366D01*
X102122680Y-30391366D02*
X102170300Y-30343747D01*
X102170300Y-30343747D02*
X102217919Y-30248509D01*
X102217919Y-30248509D02*
X102217919Y-30058033D01*
X102217919Y-30058033D02*
X102170300Y-29962795D01*
X102170300Y-29962795D02*
X102122680Y-29915176D01*
X102122680Y-29915176D02*
X102027442Y-29867557D01*
X102027442Y-29867557D02*
X101217919Y-29867557D01*
X101313157Y-29438985D02*
X101265538Y-29391366D01*
X101265538Y-29391366D02*
X101217919Y-29296128D01*
X101217919Y-29296128D02*
X101217919Y-29058033D01*
X101217919Y-29058033D02*
X101265538Y-28962795D01*
X101265538Y-28962795D02*
X101313157Y-28915176D01*
X101313157Y-28915176D02*
X101408395Y-28867557D01*
X101408395Y-28867557D02*
X101503633Y-28867557D01*
X101503633Y-28867557D02*
X101646490Y-28915176D01*
X101646490Y-28915176D02*
X102217919Y-29486604D01*
X102217919Y-29486604D02*
X102217919Y-28867557D01*
X101217919Y-28248509D02*
X101217919Y-28153271D01*
X101217919Y-28153271D02*
X101265538Y-28058033D01*
X101265538Y-28058033D02*
X101313157Y-28010414D01*
X101313157Y-28010414D02*
X101408395Y-27962795D01*
X101408395Y-27962795D02*
X101598871Y-27915176D01*
X101598871Y-27915176D02*
X101836966Y-27915176D01*
X101836966Y-27915176D02*
X102027442Y-27962795D01*
X102027442Y-27962795D02*
X102122680Y-28010414D01*
X102122680Y-28010414D02*
X102170300Y-28058033D01*
X102170300Y-28058033D02*
X102217919Y-28153271D01*
X102217919Y-28153271D02*
X102217919Y-28248509D01*
X102217919Y-28248509D02*
X102170300Y-28343747D01*
X102170300Y-28343747D02*
X102122680Y-28391366D01*
X102122680Y-28391366D02*
X102027442Y-28438985D01*
X102027442Y-28438985D02*
X101836966Y-28486604D01*
X101836966Y-28486604D02*
X101598871Y-28486604D01*
X101598871Y-28486604D02*
X101408395Y-28438985D01*
X101408395Y-28438985D02*
X101313157Y-28391366D01*
X101313157Y-28391366D02*
X101265538Y-28343747D01*
X101265538Y-28343747D02*
X101217919Y-28248509D01*
X102217919Y-26962795D02*
X102217919Y-27534223D01*
X102217919Y-27248509D02*
X101217919Y-27248509D01*
X101217919Y-27248509D02*
X101360776Y-27343747D01*
X101360776Y-27343747D02*
X101456014Y-27438985D01*
X101456014Y-27438985D02*
X101503633Y-27534223D01*
X44452380Y-63884819D02*
X43880952Y-63884819D01*
X44166666Y-63884819D02*
X44166666Y-62884819D01*
X44166666Y-62884819D02*
X44071428Y-63027676D01*
X44071428Y-63027676D02*
X43976190Y-63122914D01*
X43976190Y-63122914D02*
X43880952Y-63170533D01*
X45071428Y-62884819D02*
X45166666Y-62884819D01*
X45166666Y-62884819D02*
X45261904Y-62932438D01*
X45261904Y-62932438D02*
X45309523Y-62980057D01*
X45309523Y-62980057D02*
X45357142Y-63075295D01*
X45357142Y-63075295D02*
X45404761Y-63265771D01*
X45404761Y-63265771D02*
X45404761Y-63503866D01*
X45404761Y-63503866D02*
X45357142Y-63694342D01*
X45357142Y-63694342D02*
X45309523Y-63789580D01*
X45309523Y-63789580D02*
X45261904Y-63837200D01*
X45261904Y-63837200D02*
X45166666Y-63884819D01*
X45166666Y-63884819D02*
X45071428Y-63884819D01*
X45071428Y-63884819D02*
X44976190Y-63837200D01*
X44976190Y-63837200D02*
X44928571Y-63789580D01*
X44928571Y-63789580D02*
X44880952Y-63694342D01*
X44880952Y-63694342D02*
X44833333Y-63503866D01*
X44833333Y-63503866D02*
X44833333Y-63265771D01*
X44833333Y-63265771D02*
X44880952Y-63075295D01*
X44880952Y-63075295D02*
X44928571Y-62980057D01*
X44928571Y-62980057D02*
X44976190Y-62932438D01*
X44976190Y-62932438D02*
X45071428Y-62884819D01*
X46023809Y-62884819D02*
X46119047Y-62884819D01*
X46119047Y-62884819D02*
X46214285Y-62932438D01*
X46214285Y-62932438D02*
X46261904Y-62980057D01*
X46261904Y-62980057D02*
X46309523Y-63075295D01*
X46309523Y-63075295D02*
X46357142Y-63265771D01*
X46357142Y-63265771D02*
X46357142Y-63503866D01*
X46357142Y-63503866D02*
X46309523Y-63694342D01*
X46309523Y-63694342D02*
X46261904Y-63789580D01*
X46261904Y-63789580D02*
X46214285Y-63837200D01*
X46214285Y-63837200D02*
X46119047Y-63884819D01*
X46119047Y-63884819D02*
X46023809Y-63884819D01*
X46023809Y-63884819D02*
X45928571Y-63837200D01*
X45928571Y-63837200D02*
X45880952Y-63789580D01*
X45880952Y-63789580D02*
X45833333Y-63694342D01*
X45833333Y-63694342D02*
X45785714Y-63503866D01*
X45785714Y-63503866D02*
X45785714Y-63265771D01*
X45785714Y-63265771D02*
X45833333Y-63075295D01*
X45833333Y-63075295D02*
X45880952Y-62980057D01*
X45880952Y-62980057D02*
X45928571Y-62932438D01*
X45928571Y-62932438D02*
X46023809Y-62884819D01*
X46785714Y-63218152D02*
X46785714Y-63884819D01*
X46785714Y-63313390D02*
X46833333Y-63265771D01*
X46833333Y-63265771D02*
X46928571Y-63218152D01*
X46928571Y-63218152D02*
X47071428Y-63218152D01*
X47071428Y-63218152D02*
X47166666Y-63265771D01*
X47166666Y-63265771D02*
X47214285Y-63361009D01*
X47214285Y-63361009D02*
X47214285Y-63884819D01*
X48023809Y-63361009D02*
X47690476Y-63361009D01*
X47690476Y-63884819D02*
X47690476Y-62884819D01*
X47690476Y-62884819D02*
X48166666Y-62884819D01*
D11*
X45552381Y-62143832D02*
X45533333Y-62162880D01*
X45533333Y-62162880D02*
X45476191Y-62181927D01*
X45476191Y-62181927D02*
X45438095Y-62181927D01*
X45438095Y-62181927D02*
X45380952Y-62162880D01*
X45380952Y-62162880D02*
X45342857Y-62124784D01*
X45342857Y-62124784D02*
X45323810Y-62086689D01*
X45323810Y-62086689D02*
X45304762Y-62010499D01*
X45304762Y-62010499D02*
X45304762Y-61953356D01*
X45304762Y-61953356D02*
X45323810Y-61877165D01*
X45323810Y-61877165D02*
X45342857Y-61839070D01*
X45342857Y-61839070D02*
X45380952Y-61800975D01*
X45380952Y-61800975D02*
X45438095Y-61781927D01*
X45438095Y-61781927D02*
X45476191Y-61781927D01*
X45476191Y-61781927D02*
X45533333Y-61800975D01*
X45533333Y-61800975D02*
X45552381Y-61820022D01*
X45704762Y-61820022D02*
X45723810Y-61800975D01*
X45723810Y-61800975D02*
X45761905Y-61781927D01*
X45761905Y-61781927D02*
X45857143Y-61781927D01*
X45857143Y-61781927D02*
X45895238Y-61800975D01*
X45895238Y-61800975D02*
X45914286Y-61820022D01*
X45914286Y-61820022D02*
X45933333Y-61858118D01*
X45933333Y-61858118D02*
X45933333Y-61896213D01*
X45933333Y-61896213D02*
X45914286Y-61953356D01*
X45914286Y-61953356D02*
X45685714Y-62181927D01*
X45685714Y-62181927D02*
X45933333Y-62181927D01*
X46123809Y-62181927D02*
X46200000Y-62181927D01*
X46200000Y-62181927D02*
X46238095Y-62162880D01*
X46238095Y-62162880D02*
X46257143Y-62143832D01*
X46257143Y-62143832D02*
X46295238Y-62086689D01*
X46295238Y-62086689D02*
X46314285Y-62010499D01*
X46314285Y-62010499D02*
X46314285Y-61858118D01*
X46314285Y-61858118D02*
X46295238Y-61820022D01*
X46295238Y-61820022D02*
X46276190Y-61800975D01*
X46276190Y-61800975D02*
X46238095Y-61781927D01*
X46238095Y-61781927D02*
X46161904Y-61781927D01*
X46161904Y-61781927D02*
X46123809Y-61800975D01*
X46123809Y-61800975D02*
X46104762Y-61820022D01*
X46104762Y-61820022D02*
X46085714Y-61858118D01*
X46085714Y-61858118D02*
X46085714Y-61953356D01*
X46085714Y-61953356D02*
X46104762Y-61991451D01*
X46104762Y-61991451D02*
X46123809Y-62010499D01*
X46123809Y-62010499D02*
X46161904Y-62029546D01*
X46161904Y-62029546D02*
X46238095Y-62029546D01*
X46238095Y-62029546D02*
X46276190Y-62010499D01*
X46276190Y-62010499D02*
X46295238Y-61991451D01*
X46295238Y-61991451D02*
X46314285Y-61953356D01*
X46676190Y-61781927D02*
X46485714Y-61781927D01*
X46485714Y-61781927D02*
X46466666Y-61972403D01*
X46466666Y-61972403D02*
X46485714Y-61953356D01*
X46485714Y-61953356D02*
X46523809Y-61934308D01*
X46523809Y-61934308D02*
X46619047Y-61934308D01*
X46619047Y-61934308D02*
X46657142Y-61953356D01*
X46657142Y-61953356D02*
X46676190Y-61972403D01*
X46676190Y-61972403D02*
X46695237Y-62010499D01*
X46695237Y-62010499D02*
X46695237Y-62105737D01*
X46695237Y-62105737D02*
X46676190Y-62143832D01*
X46676190Y-62143832D02*
X46657142Y-62162880D01*
X46657142Y-62162880D02*
X46619047Y-62181927D01*
X46619047Y-62181927D02*
X46523809Y-62181927D01*
X46523809Y-62181927D02*
X46485714Y-62162880D01*
X46485714Y-62162880D02*
X46466666Y-62143832D01*
D10*
X45079762Y-15453019D02*
X45079762Y-16167304D01*
X45079762Y-16167304D02*
X45032143Y-16310161D01*
X45032143Y-16310161D02*
X44936905Y-16405400D01*
X44936905Y-16405400D02*
X44794048Y-16453019D01*
X44794048Y-16453019D02*
X44698810Y-16453019D01*
X45413096Y-15453019D02*
X45984524Y-15453019D01*
X45698810Y-16453019D02*
X45698810Y-15453019D01*
X46889286Y-16453019D02*
X46555953Y-15976828D01*
X46317858Y-16453019D02*
X46317858Y-15453019D01*
X46317858Y-15453019D02*
X46698810Y-15453019D01*
X46698810Y-15453019D02*
X46794048Y-15500638D01*
X46794048Y-15500638D02*
X46841667Y-15548257D01*
X46841667Y-15548257D02*
X46889286Y-15643495D01*
X46889286Y-15643495D02*
X46889286Y-15786352D01*
X46889286Y-15786352D02*
X46841667Y-15881590D01*
X46841667Y-15881590D02*
X46794048Y-15929209D01*
X46794048Y-15929209D02*
X46698810Y-15976828D01*
X46698810Y-15976828D02*
X46317858Y-15976828D01*
X47317858Y-16072066D02*
X48079763Y-16072066D01*
X48555953Y-16453019D02*
X48555953Y-15453019D01*
X48555953Y-15453019D02*
X48936905Y-15453019D01*
X48936905Y-15453019D02*
X49032143Y-15500638D01*
X49032143Y-15500638D02*
X49079762Y-15548257D01*
X49079762Y-15548257D02*
X49127381Y-15643495D01*
X49127381Y-15643495D02*
X49127381Y-15786352D01*
X49127381Y-15786352D02*
X49079762Y-15881590D01*
X49079762Y-15881590D02*
X49032143Y-15929209D01*
X49032143Y-15929209D02*
X48936905Y-15976828D01*
X48936905Y-15976828D02*
X48555953Y-15976828D01*
X50127381Y-16453019D02*
X49794048Y-15976828D01*
X49555953Y-16453019D02*
X49555953Y-15453019D01*
X49555953Y-15453019D02*
X49936905Y-15453019D01*
X49936905Y-15453019D02*
X50032143Y-15500638D01*
X50032143Y-15500638D02*
X50079762Y-15548257D01*
X50079762Y-15548257D02*
X50127381Y-15643495D01*
X50127381Y-15643495D02*
X50127381Y-15786352D01*
X50127381Y-15786352D02*
X50079762Y-15881590D01*
X50079762Y-15881590D02*
X50032143Y-15929209D01*
X50032143Y-15929209D02*
X49936905Y-15976828D01*
X49936905Y-15976828D02*
X49555953Y-15976828D01*
X50555953Y-16453019D02*
X50555953Y-15453019D01*
X45984524Y-14553019D02*
X45984524Y-13553019D01*
X45984524Y-13553019D02*
X46365476Y-13553019D01*
X46365476Y-13553019D02*
X46460714Y-13600638D01*
X46460714Y-13600638D02*
X46508333Y-13648257D01*
X46508333Y-13648257D02*
X46555952Y-13743495D01*
X46555952Y-13743495D02*
X46555952Y-13886352D01*
X46555952Y-13886352D02*
X46508333Y-13981590D01*
X46508333Y-13981590D02*
X46460714Y-14029209D01*
X46460714Y-14029209D02*
X46365476Y-14076828D01*
X46365476Y-14076828D02*
X45984524Y-14076828D01*
X46936905Y-13648257D02*
X46984524Y-13600638D01*
X46984524Y-13600638D02*
X47079762Y-13553019D01*
X47079762Y-13553019D02*
X47317857Y-13553019D01*
X47317857Y-13553019D02*
X47413095Y-13600638D01*
X47413095Y-13600638D02*
X47460714Y-13648257D01*
X47460714Y-13648257D02*
X47508333Y-13743495D01*
X47508333Y-13743495D02*
X47508333Y-13838733D01*
X47508333Y-13838733D02*
X47460714Y-13981590D01*
X47460714Y-13981590D02*
X46889286Y-14553019D01*
X46889286Y-14553019D02*
X47508333Y-14553019D01*
X48127381Y-13553019D02*
X48222619Y-13553019D01*
X48222619Y-13553019D02*
X48317857Y-13600638D01*
X48317857Y-13600638D02*
X48365476Y-13648257D01*
X48365476Y-13648257D02*
X48413095Y-13743495D01*
X48413095Y-13743495D02*
X48460714Y-13933971D01*
X48460714Y-13933971D02*
X48460714Y-14172066D01*
X48460714Y-14172066D02*
X48413095Y-14362542D01*
X48413095Y-14362542D02*
X48365476Y-14457780D01*
X48365476Y-14457780D02*
X48317857Y-14505400D01*
X48317857Y-14505400D02*
X48222619Y-14553019D01*
X48222619Y-14553019D02*
X48127381Y-14553019D01*
X48127381Y-14553019D02*
X48032143Y-14505400D01*
X48032143Y-14505400D02*
X47984524Y-14457780D01*
X47984524Y-14457780D02*
X47936905Y-14362542D01*
X47936905Y-14362542D02*
X47889286Y-14172066D01*
X47889286Y-14172066D02*
X47889286Y-13933971D01*
X47889286Y-13933971D02*
X47936905Y-13743495D01*
X47936905Y-13743495D02*
X47984524Y-13648257D01*
X47984524Y-13648257D02*
X48032143Y-13600638D01*
X48032143Y-13600638D02*
X48127381Y-13553019D01*
X48841667Y-13648257D02*
X48889286Y-13600638D01*
X48889286Y-13600638D02*
X48984524Y-13553019D01*
X48984524Y-13553019D02*
X49222619Y-13553019D01*
X49222619Y-13553019D02*
X49317857Y-13600638D01*
X49317857Y-13600638D02*
X49365476Y-13648257D01*
X49365476Y-13648257D02*
X49413095Y-13743495D01*
X49413095Y-13743495D02*
X49413095Y-13838733D01*
X49413095Y-13838733D02*
X49365476Y-13981590D01*
X49365476Y-13981590D02*
X48794048Y-14553019D01*
X48794048Y-14553019D02*
X49413095Y-14553019D01*
X74833333Y-56980057D02*
X74880952Y-56932438D01*
X74880952Y-56932438D02*
X74976190Y-56884819D01*
X74976190Y-56884819D02*
X75214285Y-56884819D01*
X75214285Y-56884819D02*
X75309523Y-56932438D01*
X75309523Y-56932438D02*
X75357142Y-56980057D01*
X75357142Y-56980057D02*
X75404761Y-57075295D01*
X75404761Y-57075295D02*
X75404761Y-57170533D01*
X75404761Y-57170533D02*
X75357142Y-57313390D01*
X75357142Y-57313390D02*
X74785714Y-57884819D01*
X74785714Y-57884819D02*
X75404761Y-57884819D01*
X76023809Y-56884819D02*
X76119047Y-56884819D01*
X76119047Y-56884819D02*
X76214285Y-56932438D01*
X76214285Y-56932438D02*
X76261904Y-56980057D01*
X76261904Y-56980057D02*
X76309523Y-57075295D01*
X76309523Y-57075295D02*
X76357142Y-57265771D01*
X76357142Y-57265771D02*
X76357142Y-57503866D01*
X76357142Y-57503866D02*
X76309523Y-57694342D01*
X76309523Y-57694342D02*
X76261904Y-57789580D01*
X76261904Y-57789580D02*
X76214285Y-57837200D01*
X76214285Y-57837200D02*
X76119047Y-57884819D01*
X76119047Y-57884819D02*
X76023809Y-57884819D01*
X76023809Y-57884819D02*
X75928571Y-57837200D01*
X75928571Y-57837200D02*
X75880952Y-57789580D01*
X75880952Y-57789580D02*
X75833333Y-57694342D01*
X75833333Y-57694342D02*
X75785714Y-57503866D01*
X75785714Y-57503866D02*
X75785714Y-57265771D01*
X75785714Y-57265771D02*
X75833333Y-57075295D01*
X75833333Y-57075295D02*
X75880952Y-56980057D01*
X75880952Y-56980057D02*
X75928571Y-56932438D01*
X75928571Y-56932438D02*
X76023809Y-56884819D01*
X76785714Y-57884819D02*
X76785714Y-56884819D01*
X76880952Y-57503866D02*
X77166666Y-57884819D01*
X77166666Y-57218152D02*
X76785714Y-57599104D01*
D11*
X75552381Y-56181927D02*
X75419048Y-55991451D01*
X75323810Y-56181927D02*
X75323810Y-55781927D01*
X75323810Y-55781927D02*
X75476191Y-55781927D01*
X75476191Y-55781927D02*
X75514286Y-55800975D01*
X75514286Y-55800975D02*
X75533333Y-55820022D01*
X75533333Y-55820022D02*
X75552381Y-55858118D01*
X75552381Y-55858118D02*
X75552381Y-55915260D01*
X75552381Y-55915260D02*
X75533333Y-55953356D01*
X75533333Y-55953356D02*
X75514286Y-55972403D01*
X75514286Y-55972403D02*
X75476191Y-55991451D01*
X75476191Y-55991451D02*
X75323810Y-55991451D01*
X75704762Y-55820022D02*
X75723810Y-55800975D01*
X75723810Y-55800975D02*
X75761905Y-55781927D01*
X75761905Y-55781927D02*
X75857143Y-55781927D01*
X75857143Y-55781927D02*
X75895238Y-55800975D01*
X75895238Y-55800975D02*
X75914286Y-55820022D01*
X75914286Y-55820022D02*
X75933333Y-55858118D01*
X75933333Y-55858118D02*
X75933333Y-55896213D01*
X75933333Y-55896213D02*
X75914286Y-55953356D01*
X75914286Y-55953356D02*
X75685714Y-56181927D01*
X75685714Y-56181927D02*
X75933333Y-56181927D01*
X76085714Y-55820022D02*
X76104762Y-55800975D01*
X76104762Y-55800975D02*
X76142857Y-55781927D01*
X76142857Y-55781927D02*
X76238095Y-55781927D01*
X76238095Y-55781927D02*
X76276190Y-55800975D01*
X76276190Y-55800975D02*
X76295238Y-55820022D01*
X76295238Y-55820022D02*
X76314285Y-55858118D01*
X76314285Y-55858118D02*
X76314285Y-55896213D01*
X76314285Y-55896213D02*
X76295238Y-55953356D01*
X76295238Y-55953356D02*
X76066666Y-56181927D01*
X76066666Y-56181927D02*
X76314285Y-56181927D01*
X76657142Y-55915260D02*
X76657142Y-56181927D01*
X76561904Y-55762880D02*
X76466666Y-56048594D01*
X76466666Y-56048594D02*
X76714285Y-56048594D01*
D10*
X8833333Y-57884819D02*
X8261905Y-57884819D01*
X8547619Y-57884819D02*
X8547619Y-56884819D01*
X8547619Y-56884819D02*
X8452381Y-57027676D01*
X8452381Y-57027676D02*
X8357143Y-57122914D01*
X8357143Y-57122914D02*
X8261905Y-57170533D01*
X9452381Y-56884819D02*
X9547619Y-56884819D01*
X9547619Y-56884819D02*
X9642857Y-56932438D01*
X9642857Y-56932438D02*
X9690476Y-56980057D01*
X9690476Y-56980057D02*
X9738095Y-57075295D01*
X9738095Y-57075295D02*
X9785714Y-57265771D01*
X9785714Y-57265771D02*
X9785714Y-57503866D01*
X9785714Y-57503866D02*
X9738095Y-57694342D01*
X9738095Y-57694342D02*
X9690476Y-57789580D01*
X9690476Y-57789580D02*
X9642857Y-57837200D01*
X9642857Y-57837200D02*
X9547619Y-57884819D01*
X9547619Y-57884819D02*
X9452381Y-57884819D01*
X9452381Y-57884819D02*
X9357143Y-57837200D01*
X9357143Y-57837200D02*
X9309524Y-57789580D01*
X9309524Y-57789580D02*
X9261905Y-57694342D01*
X9261905Y-57694342D02*
X9214286Y-57503866D01*
X9214286Y-57503866D02*
X9214286Y-57265771D01*
X9214286Y-57265771D02*
X9261905Y-57075295D01*
X9261905Y-57075295D02*
X9309524Y-56980057D01*
X9309524Y-56980057D02*
X9357143Y-56932438D01*
X9357143Y-56932438D02*
X9452381Y-56884819D01*
X10404762Y-56884819D02*
X10500000Y-56884819D01*
X10500000Y-56884819D02*
X10595238Y-56932438D01*
X10595238Y-56932438D02*
X10642857Y-56980057D01*
X10642857Y-56980057D02*
X10690476Y-57075295D01*
X10690476Y-57075295D02*
X10738095Y-57265771D01*
X10738095Y-57265771D02*
X10738095Y-57503866D01*
X10738095Y-57503866D02*
X10690476Y-57694342D01*
X10690476Y-57694342D02*
X10642857Y-57789580D01*
X10642857Y-57789580D02*
X10595238Y-57837200D01*
X10595238Y-57837200D02*
X10500000Y-57884819D01*
X10500000Y-57884819D02*
X10404762Y-57884819D01*
X10404762Y-57884819D02*
X10309524Y-57837200D01*
X10309524Y-57837200D02*
X10261905Y-57789580D01*
X10261905Y-57789580D02*
X10214286Y-57694342D01*
X10214286Y-57694342D02*
X10166667Y-57503866D01*
X10166667Y-57503866D02*
X10166667Y-57265771D01*
X10166667Y-57265771D02*
X10214286Y-57075295D01*
X10214286Y-57075295D02*
X10261905Y-56980057D01*
X10261905Y-56980057D02*
X10309524Y-56932438D01*
X10309524Y-56932438D02*
X10404762Y-56884819D01*
X11738095Y-57884819D02*
X11404762Y-57408628D01*
X11166667Y-57884819D02*
X11166667Y-56884819D01*
X11166667Y-56884819D02*
X11547619Y-56884819D01*
X11547619Y-56884819D02*
X11642857Y-56932438D01*
X11642857Y-56932438D02*
X11690476Y-56980057D01*
X11690476Y-56980057D02*
X11738095Y-57075295D01*
X11738095Y-57075295D02*
X11738095Y-57218152D01*
X11738095Y-57218152D02*
X11690476Y-57313390D01*
X11690476Y-57313390D02*
X11642857Y-57361009D01*
X11642857Y-57361009D02*
X11547619Y-57408628D01*
X11547619Y-57408628D02*
X11166667Y-57408628D01*
D11*
X9552381Y-56181927D02*
X9419048Y-55991451D01*
X9323810Y-56181927D02*
X9323810Y-55781927D01*
X9323810Y-55781927D02*
X9476191Y-55781927D01*
X9476191Y-55781927D02*
X9514286Y-55800975D01*
X9514286Y-55800975D02*
X9533333Y-55820022D01*
X9533333Y-55820022D02*
X9552381Y-55858118D01*
X9552381Y-55858118D02*
X9552381Y-55915260D01*
X9552381Y-55915260D02*
X9533333Y-55953356D01*
X9533333Y-55953356D02*
X9514286Y-55972403D01*
X9514286Y-55972403D02*
X9476191Y-55991451D01*
X9476191Y-55991451D02*
X9323810Y-55991451D01*
X9704762Y-55820022D02*
X9723810Y-55800975D01*
X9723810Y-55800975D02*
X9761905Y-55781927D01*
X9761905Y-55781927D02*
X9857143Y-55781927D01*
X9857143Y-55781927D02*
X9895238Y-55800975D01*
X9895238Y-55800975D02*
X9914286Y-55820022D01*
X9914286Y-55820022D02*
X9933333Y-55858118D01*
X9933333Y-55858118D02*
X9933333Y-55896213D01*
X9933333Y-55896213D02*
X9914286Y-55953356D01*
X9914286Y-55953356D02*
X9685714Y-56181927D01*
X9685714Y-56181927D02*
X9933333Y-56181927D01*
X10180952Y-55781927D02*
X10219047Y-55781927D01*
X10219047Y-55781927D02*
X10257143Y-55800975D01*
X10257143Y-55800975D02*
X10276190Y-55820022D01*
X10276190Y-55820022D02*
X10295238Y-55858118D01*
X10295238Y-55858118D02*
X10314285Y-55934308D01*
X10314285Y-55934308D02*
X10314285Y-56029546D01*
X10314285Y-56029546D02*
X10295238Y-56105737D01*
X10295238Y-56105737D02*
X10276190Y-56143832D01*
X10276190Y-56143832D02*
X10257143Y-56162880D01*
X10257143Y-56162880D02*
X10219047Y-56181927D01*
X10219047Y-56181927D02*
X10180952Y-56181927D01*
X10180952Y-56181927D02*
X10142857Y-56162880D01*
X10142857Y-56162880D02*
X10123809Y-56143832D01*
X10123809Y-56143832D02*
X10104762Y-56105737D01*
X10104762Y-56105737D02*
X10085714Y-56029546D01*
X10085714Y-56029546D02*
X10085714Y-55934308D01*
X10085714Y-55934308D02*
X10104762Y-55858118D01*
X10104762Y-55858118D02*
X10123809Y-55820022D01*
X10123809Y-55820022D02*
X10142857Y-55800975D01*
X10142857Y-55800975D02*
X10180952Y-55781927D01*
X10695237Y-56181927D02*
X10466666Y-56181927D01*
X10580952Y-56181927D02*
X10580952Y-55781927D01*
X10580952Y-55781927D02*
X10542856Y-55839070D01*
X10542856Y-55839070D02*
X10504761Y-55877165D01*
X10504761Y-55877165D02*
X10466666Y-55896213D01*
D10*
X32452380Y-63884819D02*
X31880952Y-63884819D01*
X32166666Y-63884819D02*
X32166666Y-62884819D01*
X32166666Y-62884819D02*
X32071428Y-63027676D01*
X32071428Y-63027676D02*
X31976190Y-63122914D01*
X31976190Y-63122914D02*
X31880952Y-63170533D01*
X33071428Y-62884819D02*
X33166666Y-62884819D01*
X33166666Y-62884819D02*
X33261904Y-62932438D01*
X33261904Y-62932438D02*
X33309523Y-62980057D01*
X33309523Y-62980057D02*
X33357142Y-63075295D01*
X33357142Y-63075295D02*
X33404761Y-63265771D01*
X33404761Y-63265771D02*
X33404761Y-63503866D01*
X33404761Y-63503866D02*
X33357142Y-63694342D01*
X33357142Y-63694342D02*
X33309523Y-63789580D01*
X33309523Y-63789580D02*
X33261904Y-63837200D01*
X33261904Y-63837200D02*
X33166666Y-63884819D01*
X33166666Y-63884819D02*
X33071428Y-63884819D01*
X33071428Y-63884819D02*
X32976190Y-63837200D01*
X32976190Y-63837200D02*
X32928571Y-63789580D01*
X32928571Y-63789580D02*
X32880952Y-63694342D01*
X32880952Y-63694342D02*
X32833333Y-63503866D01*
X32833333Y-63503866D02*
X32833333Y-63265771D01*
X32833333Y-63265771D02*
X32880952Y-63075295D01*
X32880952Y-63075295D02*
X32928571Y-62980057D01*
X32928571Y-62980057D02*
X32976190Y-62932438D01*
X32976190Y-62932438D02*
X33071428Y-62884819D01*
X34023809Y-62884819D02*
X34119047Y-62884819D01*
X34119047Y-62884819D02*
X34214285Y-62932438D01*
X34214285Y-62932438D02*
X34261904Y-62980057D01*
X34261904Y-62980057D02*
X34309523Y-63075295D01*
X34309523Y-63075295D02*
X34357142Y-63265771D01*
X34357142Y-63265771D02*
X34357142Y-63503866D01*
X34357142Y-63503866D02*
X34309523Y-63694342D01*
X34309523Y-63694342D02*
X34261904Y-63789580D01*
X34261904Y-63789580D02*
X34214285Y-63837200D01*
X34214285Y-63837200D02*
X34119047Y-63884819D01*
X34119047Y-63884819D02*
X34023809Y-63884819D01*
X34023809Y-63884819D02*
X33928571Y-63837200D01*
X33928571Y-63837200D02*
X33880952Y-63789580D01*
X33880952Y-63789580D02*
X33833333Y-63694342D01*
X33833333Y-63694342D02*
X33785714Y-63503866D01*
X33785714Y-63503866D02*
X33785714Y-63265771D01*
X33785714Y-63265771D02*
X33833333Y-63075295D01*
X33833333Y-63075295D02*
X33880952Y-62980057D01*
X33880952Y-62980057D02*
X33928571Y-62932438D01*
X33928571Y-62932438D02*
X34023809Y-62884819D01*
X34785714Y-63218152D02*
X34785714Y-63884819D01*
X34785714Y-63313390D02*
X34833333Y-63265771D01*
X34833333Y-63265771D02*
X34928571Y-63218152D01*
X34928571Y-63218152D02*
X35071428Y-63218152D01*
X35071428Y-63218152D02*
X35166666Y-63265771D01*
X35166666Y-63265771D02*
X35214285Y-63361009D01*
X35214285Y-63361009D02*
X35214285Y-63884819D01*
X36023809Y-63361009D02*
X35690476Y-63361009D01*
X35690476Y-63884819D02*
X35690476Y-62884819D01*
X35690476Y-62884819D02*
X36166666Y-62884819D01*
D11*
X33552381Y-62143832D02*
X33533333Y-62162880D01*
X33533333Y-62162880D02*
X33476191Y-62181927D01*
X33476191Y-62181927D02*
X33438095Y-62181927D01*
X33438095Y-62181927D02*
X33380952Y-62162880D01*
X33380952Y-62162880D02*
X33342857Y-62124784D01*
X33342857Y-62124784D02*
X33323810Y-62086689D01*
X33323810Y-62086689D02*
X33304762Y-62010499D01*
X33304762Y-62010499D02*
X33304762Y-61953356D01*
X33304762Y-61953356D02*
X33323810Y-61877165D01*
X33323810Y-61877165D02*
X33342857Y-61839070D01*
X33342857Y-61839070D02*
X33380952Y-61800975D01*
X33380952Y-61800975D02*
X33438095Y-61781927D01*
X33438095Y-61781927D02*
X33476191Y-61781927D01*
X33476191Y-61781927D02*
X33533333Y-61800975D01*
X33533333Y-61800975D02*
X33552381Y-61820022D01*
X33704762Y-61820022D02*
X33723810Y-61800975D01*
X33723810Y-61800975D02*
X33761905Y-61781927D01*
X33761905Y-61781927D02*
X33857143Y-61781927D01*
X33857143Y-61781927D02*
X33895238Y-61800975D01*
X33895238Y-61800975D02*
X33914286Y-61820022D01*
X33914286Y-61820022D02*
X33933333Y-61858118D01*
X33933333Y-61858118D02*
X33933333Y-61896213D01*
X33933333Y-61896213D02*
X33914286Y-61953356D01*
X33914286Y-61953356D02*
X33685714Y-62181927D01*
X33685714Y-62181927D02*
X33933333Y-62181927D01*
X34123809Y-62181927D02*
X34200000Y-62181927D01*
X34200000Y-62181927D02*
X34238095Y-62162880D01*
X34238095Y-62162880D02*
X34257143Y-62143832D01*
X34257143Y-62143832D02*
X34295238Y-62086689D01*
X34295238Y-62086689D02*
X34314285Y-62010499D01*
X34314285Y-62010499D02*
X34314285Y-61858118D01*
X34314285Y-61858118D02*
X34295238Y-61820022D01*
X34295238Y-61820022D02*
X34276190Y-61800975D01*
X34276190Y-61800975D02*
X34238095Y-61781927D01*
X34238095Y-61781927D02*
X34161904Y-61781927D01*
X34161904Y-61781927D02*
X34123809Y-61800975D01*
X34123809Y-61800975D02*
X34104762Y-61820022D01*
X34104762Y-61820022D02*
X34085714Y-61858118D01*
X34085714Y-61858118D02*
X34085714Y-61953356D01*
X34085714Y-61953356D02*
X34104762Y-61991451D01*
X34104762Y-61991451D02*
X34123809Y-62010499D01*
X34123809Y-62010499D02*
X34161904Y-62029546D01*
X34161904Y-62029546D02*
X34238095Y-62029546D01*
X34238095Y-62029546D02*
X34276190Y-62010499D01*
X34276190Y-62010499D02*
X34295238Y-61991451D01*
X34295238Y-61991451D02*
X34314285Y-61953356D01*
X34695237Y-62181927D02*
X34466666Y-62181927D01*
X34580952Y-62181927D02*
X34580952Y-61781927D01*
X34580952Y-61781927D02*
X34542856Y-61839070D01*
X34542856Y-61839070D02*
X34504761Y-61877165D01*
X34504761Y-61877165D02*
X34466666Y-61896213D01*
D10*
X62833333Y-56980057D02*
X62880952Y-56932438D01*
X62880952Y-56932438D02*
X62976190Y-56884819D01*
X62976190Y-56884819D02*
X63214285Y-56884819D01*
X63214285Y-56884819D02*
X63309523Y-56932438D01*
X63309523Y-56932438D02*
X63357142Y-56980057D01*
X63357142Y-56980057D02*
X63404761Y-57075295D01*
X63404761Y-57075295D02*
X63404761Y-57170533D01*
X63404761Y-57170533D02*
X63357142Y-57313390D01*
X63357142Y-57313390D02*
X62785714Y-57884819D01*
X62785714Y-57884819D02*
X63404761Y-57884819D01*
X64023809Y-56884819D02*
X64119047Y-56884819D01*
X64119047Y-56884819D02*
X64214285Y-56932438D01*
X64214285Y-56932438D02*
X64261904Y-56980057D01*
X64261904Y-56980057D02*
X64309523Y-57075295D01*
X64309523Y-57075295D02*
X64357142Y-57265771D01*
X64357142Y-57265771D02*
X64357142Y-57503866D01*
X64357142Y-57503866D02*
X64309523Y-57694342D01*
X64309523Y-57694342D02*
X64261904Y-57789580D01*
X64261904Y-57789580D02*
X64214285Y-57837200D01*
X64214285Y-57837200D02*
X64119047Y-57884819D01*
X64119047Y-57884819D02*
X64023809Y-57884819D01*
X64023809Y-57884819D02*
X63928571Y-57837200D01*
X63928571Y-57837200D02*
X63880952Y-57789580D01*
X63880952Y-57789580D02*
X63833333Y-57694342D01*
X63833333Y-57694342D02*
X63785714Y-57503866D01*
X63785714Y-57503866D02*
X63785714Y-57265771D01*
X63785714Y-57265771D02*
X63833333Y-57075295D01*
X63833333Y-57075295D02*
X63880952Y-56980057D01*
X63880952Y-56980057D02*
X63928571Y-56932438D01*
X63928571Y-56932438D02*
X64023809Y-56884819D01*
X64785714Y-57884819D02*
X64785714Y-56884819D01*
X64880952Y-57503866D02*
X65166666Y-57884819D01*
X65166666Y-57218152D02*
X64785714Y-57599104D01*
D11*
X63552381Y-56181927D02*
X63419048Y-55991451D01*
X63323810Y-56181927D02*
X63323810Y-55781927D01*
X63323810Y-55781927D02*
X63476191Y-55781927D01*
X63476191Y-55781927D02*
X63514286Y-55800975D01*
X63514286Y-55800975D02*
X63533333Y-55820022D01*
X63533333Y-55820022D02*
X63552381Y-55858118D01*
X63552381Y-55858118D02*
X63552381Y-55915260D01*
X63552381Y-55915260D02*
X63533333Y-55953356D01*
X63533333Y-55953356D02*
X63514286Y-55972403D01*
X63514286Y-55972403D02*
X63476191Y-55991451D01*
X63476191Y-55991451D02*
X63323810Y-55991451D01*
X63704762Y-55820022D02*
X63723810Y-55800975D01*
X63723810Y-55800975D02*
X63761905Y-55781927D01*
X63761905Y-55781927D02*
X63857143Y-55781927D01*
X63857143Y-55781927D02*
X63895238Y-55800975D01*
X63895238Y-55800975D02*
X63914286Y-55820022D01*
X63914286Y-55820022D02*
X63933333Y-55858118D01*
X63933333Y-55858118D02*
X63933333Y-55896213D01*
X63933333Y-55896213D02*
X63914286Y-55953356D01*
X63914286Y-55953356D02*
X63685714Y-56181927D01*
X63685714Y-56181927D02*
X63933333Y-56181927D01*
X64085714Y-55820022D02*
X64104762Y-55800975D01*
X64104762Y-55800975D02*
X64142857Y-55781927D01*
X64142857Y-55781927D02*
X64238095Y-55781927D01*
X64238095Y-55781927D02*
X64276190Y-55800975D01*
X64276190Y-55800975D02*
X64295238Y-55820022D01*
X64295238Y-55820022D02*
X64314285Y-55858118D01*
X64314285Y-55858118D02*
X64314285Y-55896213D01*
X64314285Y-55896213D02*
X64295238Y-55953356D01*
X64295238Y-55953356D02*
X64066666Y-56181927D01*
X64066666Y-56181927D02*
X64314285Y-56181927D01*
X64466666Y-55820022D02*
X64485714Y-55800975D01*
X64485714Y-55800975D02*
X64523809Y-55781927D01*
X64523809Y-55781927D02*
X64619047Y-55781927D01*
X64619047Y-55781927D02*
X64657142Y-55800975D01*
X64657142Y-55800975D02*
X64676190Y-55820022D01*
X64676190Y-55820022D02*
X64695237Y-55858118D01*
X64695237Y-55858118D02*
X64695237Y-55896213D01*
X64695237Y-55896213D02*
X64676190Y-55953356D01*
X64676190Y-55953356D02*
X64447618Y-56181927D01*
X64447618Y-56181927D02*
X64695237Y-56181927D01*
D10*
X380952Y-8104819D02*
X380952Y-7104819D01*
X380952Y-7104819D02*
X714285Y-7819104D01*
X714285Y-7819104D02*
X1047618Y-7104819D01*
X1047618Y-7104819D02*
X1047618Y-8104819D01*
X1428571Y-7104819D02*
X2047618Y-7104819D01*
X2047618Y-7104819D02*
X1714285Y-7485771D01*
X1714285Y-7485771D02*
X1857142Y-7485771D01*
X1857142Y-7485771D02*
X1952380Y-7533390D01*
X1952380Y-7533390D02*
X1999999Y-7581009D01*
X1999999Y-7581009D02*
X2047618Y-7676247D01*
X2047618Y-7676247D02*
X2047618Y-7914342D01*
X2047618Y-7914342D02*
X1999999Y-8009580D01*
X1999999Y-8009580D02*
X1952380Y-8057200D01*
X1952380Y-8057200D02*
X1857142Y-8104819D01*
X1857142Y-8104819D02*
X1571428Y-8104819D01*
X1571428Y-8104819D02*
X1476190Y-8057200D01*
X1476190Y-8057200D02*
X1428571Y-8009580D01*
X3238095Y-8104819D02*
X3238095Y-7104819D01*
X3238095Y-7104819D02*
X3809523Y-8104819D01*
X3809523Y-8104819D02*
X3809523Y-7104819D01*
X4285714Y-8104819D02*
X4285714Y-7104819D01*
X4285714Y-7104819D02*
X4666666Y-7104819D01*
X4666666Y-7104819D02*
X4761904Y-7152438D01*
X4761904Y-7152438D02*
X4809523Y-7200057D01*
X4809523Y-7200057D02*
X4857142Y-7295295D01*
X4857142Y-7295295D02*
X4857142Y-7438152D01*
X4857142Y-7438152D02*
X4809523Y-7533390D01*
X4809523Y-7533390D02*
X4761904Y-7581009D01*
X4761904Y-7581009D02*
X4666666Y-7628628D01*
X4666666Y-7628628D02*
X4285714Y-7628628D01*
X5142857Y-7104819D02*
X5714285Y-7104819D01*
X5428571Y-8104819D02*
X5428571Y-7104819D01*
X6047619Y-8104819D02*
X6047619Y-7104819D01*
X6047619Y-7581009D02*
X6619047Y-7581009D01*
X6619047Y-8104819D02*
X6619047Y-7104819D01*
X2738095Y-3954819D02*
X2738095Y-2954819D01*
X2738095Y-3431009D02*
X3309523Y-3431009D01*
X3309523Y-3954819D02*
X3309523Y-2954819D01*
X4309523Y-3954819D02*
X3738095Y-3954819D01*
X4023809Y-3954819D02*
X4023809Y-2954819D01*
X4023809Y-2954819D02*
X3928571Y-3097676D01*
X3928571Y-3097676D02*
X3833333Y-3192914D01*
X3833333Y-3192914D02*
X3738095Y-3240533D01*
X26833333Y-56980057D02*
X26880952Y-56932438D01*
X26880952Y-56932438D02*
X26976190Y-56884819D01*
X26976190Y-56884819D02*
X27214285Y-56884819D01*
X27214285Y-56884819D02*
X27309523Y-56932438D01*
X27309523Y-56932438D02*
X27357142Y-56980057D01*
X27357142Y-56980057D02*
X27404761Y-57075295D01*
X27404761Y-57075295D02*
X27404761Y-57170533D01*
X27404761Y-57170533D02*
X27357142Y-57313390D01*
X27357142Y-57313390D02*
X26785714Y-57884819D01*
X26785714Y-57884819D02*
X27404761Y-57884819D01*
X28023809Y-56884819D02*
X28119047Y-56884819D01*
X28119047Y-56884819D02*
X28214285Y-56932438D01*
X28214285Y-56932438D02*
X28261904Y-56980057D01*
X28261904Y-56980057D02*
X28309523Y-57075295D01*
X28309523Y-57075295D02*
X28357142Y-57265771D01*
X28357142Y-57265771D02*
X28357142Y-57503866D01*
X28357142Y-57503866D02*
X28309523Y-57694342D01*
X28309523Y-57694342D02*
X28261904Y-57789580D01*
X28261904Y-57789580D02*
X28214285Y-57837200D01*
X28214285Y-57837200D02*
X28119047Y-57884819D01*
X28119047Y-57884819D02*
X28023809Y-57884819D01*
X28023809Y-57884819D02*
X27928571Y-57837200D01*
X27928571Y-57837200D02*
X27880952Y-57789580D01*
X27880952Y-57789580D02*
X27833333Y-57694342D01*
X27833333Y-57694342D02*
X27785714Y-57503866D01*
X27785714Y-57503866D02*
X27785714Y-57265771D01*
X27785714Y-57265771D02*
X27833333Y-57075295D01*
X27833333Y-57075295D02*
X27880952Y-56980057D01*
X27880952Y-56980057D02*
X27928571Y-56932438D01*
X27928571Y-56932438D02*
X28023809Y-56884819D01*
X28785714Y-57884819D02*
X28785714Y-56884819D01*
X28880952Y-57503866D02*
X29166666Y-57884819D01*
X29166666Y-57218152D02*
X28785714Y-57599104D01*
D11*
X27552381Y-56181927D02*
X27419048Y-55991451D01*
X27323810Y-56181927D02*
X27323810Y-55781927D01*
X27323810Y-55781927D02*
X27476191Y-55781927D01*
X27476191Y-55781927D02*
X27514286Y-55800975D01*
X27514286Y-55800975D02*
X27533333Y-55820022D01*
X27533333Y-55820022D02*
X27552381Y-55858118D01*
X27552381Y-55858118D02*
X27552381Y-55915260D01*
X27552381Y-55915260D02*
X27533333Y-55953356D01*
X27533333Y-55953356D02*
X27514286Y-55972403D01*
X27514286Y-55972403D02*
X27476191Y-55991451D01*
X27476191Y-55991451D02*
X27323810Y-55991451D01*
X27704762Y-55820022D02*
X27723810Y-55800975D01*
X27723810Y-55800975D02*
X27761905Y-55781927D01*
X27761905Y-55781927D02*
X27857143Y-55781927D01*
X27857143Y-55781927D02*
X27895238Y-55800975D01*
X27895238Y-55800975D02*
X27914286Y-55820022D01*
X27914286Y-55820022D02*
X27933333Y-55858118D01*
X27933333Y-55858118D02*
X27933333Y-55896213D01*
X27933333Y-55896213D02*
X27914286Y-55953356D01*
X27914286Y-55953356D02*
X27685714Y-56181927D01*
X27685714Y-56181927D02*
X27933333Y-56181927D01*
X28180952Y-55781927D02*
X28219047Y-55781927D01*
X28219047Y-55781927D02*
X28257143Y-55800975D01*
X28257143Y-55800975D02*
X28276190Y-55820022D01*
X28276190Y-55820022D02*
X28295238Y-55858118D01*
X28295238Y-55858118D02*
X28314285Y-55934308D01*
X28314285Y-55934308D02*
X28314285Y-56029546D01*
X28314285Y-56029546D02*
X28295238Y-56105737D01*
X28295238Y-56105737D02*
X28276190Y-56143832D01*
X28276190Y-56143832D02*
X28257143Y-56162880D01*
X28257143Y-56162880D02*
X28219047Y-56181927D01*
X28219047Y-56181927D02*
X28180952Y-56181927D01*
X28180952Y-56181927D02*
X28142857Y-56162880D01*
X28142857Y-56162880D02*
X28123809Y-56143832D01*
X28123809Y-56143832D02*
X28104762Y-56105737D01*
X28104762Y-56105737D02*
X28085714Y-56029546D01*
X28085714Y-56029546D02*
X28085714Y-55934308D01*
X28085714Y-55934308D02*
X28104762Y-55858118D01*
X28104762Y-55858118D02*
X28123809Y-55820022D01*
X28123809Y-55820022D02*
X28142857Y-55800975D01*
X28142857Y-55800975D02*
X28180952Y-55781927D01*
X28657142Y-55915260D02*
X28657142Y-56181927D01*
X28561904Y-55762880D02*
X28466666Y-56048594D01*
X28466666Y-56048594D02*
X28714285Y-56048594D01*
D10*
X66339285Y-15453019D02*
X66339285Y-16167304D01*
X66339285Y-16167304D02*
X66291666Y-16310161D01*
X66291666Y-16310161D02*
X66196428Y-16405400D01*
X66196428Y-16405400D02*
X66053571Y-16453019D01*
X66053571Y-16453019D02*
X65958333Y-16453019D01*
X66672619Y-15453019D02*
X67244047Y-15453019D01*
X66958333Y-16453019D02*
X66958333Y-15453019D01*
X68148809Y-16453019D02*
X67815476Y-15976828D01*
X67577381Y-16453019D02*
X67577381Y-15453019D01*
X67577381Y-15453019D02*
X67958333Y-15453019D01*
X67958333Y-15453019D02*
X68053571Y-15500638D01*
X68053571Y-15500638D02*
X68101190Y-15548257D01*
X68101190Y-15548257D02*
X68148809Y-15643495D01*
X68148809Y-15643495D02*
X68148809Y-15786352D01*
X68148809Y-15786352D02*
X68101190Y-15881590D01*
X68101190Y-15881590D02*
X68053571Y-15929209D01*
X68053571Y-15929209D02*
X67958333Y-15976828D01*
X67958333Y-15976828D02*
X67577381Y-15976828D01*
X68577381Y-16072066D02*
X69339286Y-16072066D01*
X69767857Y-16405400D02*
X69910714Y-16453019D01*
X69910714Y-16453019D02*
X70148809Y-16453019D01*
X70148809Y-16453019D02*
X70244047Y-16405400D01*
X70244047Y-16405400D02*
X70291666Y-16357780D01*
X70291666Y-16357780D02*
X70339285Y-16262542D01*
X70339285Y-16262542D02*
X70339285Y-16167304D01*
X70339285Y-16167304D02*
X70291666Y-16072066D01*
X70291666Y-16072066D02*
X70244047Y-16024447D01*
X70244047Y-16024447D02*
X70148809Y-15976828D01*
X70148809Y-15976828D02*
X69958333Y-15929209D01*
X69958333Y-15929209D02*
X69863095Y-15881590D01*
X69863095Y-15881590D02*
X69815476Y-15833971D01*
X69815476Y-15833971D02*
X69767857Y-15738733D01*
X69767857Y-15738733D02*
X69767857Y-15643495D01*
X69767857Y-15643495D02*
X69815476Y-15548257D01*
X69815476Y-15548257D02*
X69863095Y-15500638D01*
X69863095Y-15500638D02*
X69958333Y-15453019D01*
X69958333Y-15453019D02*
X70196428Y-15453019D01*
X70196428Y-15453019D02*
X70339285Y-15500638D01*
X70767857Y-15929209D02*
X71101190Y-15929209D01*
X71244047Y-16453019D02*
X70767857Y-16453019D01*
X70767857Y-16453019D02*
X70767857Y-15453019D01*
X70767857Y-15453019D02*
X71244047Y-15453019D01*
X72244047Y-16357780D02*
X72196428Y-16405400D01*
X72196428Y-16405400D02*
X72053571Y-16453019D01*
X72053571Y-16453019D02*
X71958333Y-16453019D01*
X71958333Y-16453019D02*
X71815476Y-16405400D01*
X71815476Y-16405400D02*
X71720238Y-16310161D01*
X71720238Y-16310161D02*
X71672619Y-16214923D01*
X71672619Y-16214923D02*
X71625000Y-16024447D01*
X71625000Y-16024447D02*
X71625000Y-15881590D01*
X71625000Y-15881590D02*
X71672619Y-15691114D01*
X71672619Y-15691114D02*
X71720238Y-15595876D01*
X71720238Y-15595876D02*
X71815476Y-15500638D01*
X71815476Y-15500638D02*
X71958333Y-15453019D01*
X71958333Y-15453019D02*
X72053571Y-15453019D01*
X72053571Y-15453019D02*
X72196428Y-15500638D01*
X72196428Y-15500638D02*
X72244047Y-15548257D01*
X67434524Y-14553019D02*
X67434524Y-13553019D01*
X67434524Y-13553019D02*
X67815476Y-13553019D01*
X67815476Y-13553019D02*
X67910714Y-13600638D01*
X67910714Y-13600638D02*
X67958333Y-13648257D01*
X67958333Y-13648257D02*
X68005952Y-13743495D01*
X68005952Y-13743495D02*
X68005952Y-13886352D01*
X68005952Y-13886352D02*
X67958333Y-13981590D01*
X67958333Y-13981590D02*
X67910714Y-14029209D01*
X67910714Y-14029209D02*
X67815476Y-14076828D01*
X67815476Y-14076828D02*
X67434524Y-14076828D01*
X68386905Y-13648257D02*
X68434524Y-13600638D01*
X68434524Y-13600638D02*
X68529762Y-13553019D01*
X68529762Y-13553019D02*
X68767857Y-13553019D01*
X68767857Y-13553019D02*
X68863095Y-13600638D01*
X68863095Y-13600638D02*
X68910714Y-13648257D01*
X68910714Y-13648257D02*
X68958333Y-13743495D01*
X68958333Y-13743495D02*
X68958333Y-13838733D01*
X68958333Y-13838733D02*
X68910714Y-13981590D01*
X68910714Y-13981590D02*
X68339286Y-14553019D01*
X68339286Y-14553019D02*
X68958333Y-14553019D01*
X69577381Y-13553019D02*
X69672619Y-13553019D01*
X69672619Y-13553019D02*
X69767857Y-13600638D01*
X69767857Y-13600638D02*
X69815476Y-13648257D01*
X69815476Y-13648257D02*
X69863095Y-13743495D01*
X69863095Y-13743495D02*
X69910714Y-13933971D01*
X69910714Y-13933971D02*
X69910714Y-14172066D01*
X69910714Y-14172066D02*
X69863095Y-14362542D01*
X69863095Y-14362542D02*
X69815476Y-14457780D01*
X69815476Y-14457780D02*
X69767857Y-14505400D01*
X69767857Y-14505400D02*
X69672619Y-14553019D01*
X69672619Y-14553019D02*
X69577381Y-14553019D01*
X69577381Y-14553019D02*
X69482143Y-14505400D01*
X69482143Y-14505400D02*
X69434524Y-14457780D01*
X69434524Y-14457780D02*
X69386905Y-14362542D01*
X69386905Y-14362542D02*
X69339286Y-14172066D01*
X69339286Y-14172066D02*
X69339286Y-13933971D01*
X69339286Y-13933971D02*
X69386905Y-13743495D01*
X69386905Y-13743495D02*
X69434524Y-13648257D01*
X69434524Y-13648257D02*
X69482143Y-13600638D01*
X69482143Y-13600638D02*
X69577381Y-13553019D01*
X70244048Y-13553019D02*
X70863095Y-13553019D01*
X70863095Y-13553019D02*
X70529762Y-13933971D01*
X70529762Y-13933971D02*
X70672619Y-13933971D01*
X70672619Y-13933971D02*
X70767857Y-13981590D01*
X70767857Y-13981590D02*
X70815476Y-14029209D01*
X70815476Y-14029209D02*
X70863095Y-14124447D01*
X70863095Y-14124447D02*
X70863095Y-14362542D01*
X70863095Y-14362542D02*
X70815476Y-14457780D01*
X70815476Y-14457780D02*
X70767857Y-14505400D01*
X70767857Y-14505400D02*
X70672619Y-14553019D01*
X70672619Y-14553019D02*
X70386905Y-14553019D01*
X70386905Y-14553019D02*
X70291667Y-14505400D01*
X70291667Y-14505400D02*
X70244048Y-14457780D01*
X102504762Y-15453019D02*
X102504762Y-16167304D01*
X102504762Y-16167304D02*
X102457143Y-16310161D01*
X102457143Y-16310161D02*
X102361905Y-16405400D01*
X102361905Y-16405400D02*
X102219048Y-16453019D01*
X102219048Y-16453019D02*
X102123810Y-16453019D01*
X102980953Y-16453019D02*
X102980953Y-15453019D01*
X103647619Y-15453019D02*
X103838095Y-15453019D01*
X103838095Y-15453019D02*
X103933333Y-15500638D01*
X103933333Y-15500638D02*
X104028571Y-15595876D01*
X104028571Y-15595876D02*
X104076190Y-15786352D01*
X104076190Y-15786352D02*
X104076190Y-16119685D01*
X104076190Y-16119685D02*
X104028571Y-16310161D01*
X104028571Y-16310161D02*
X103933333Y-16405400D01*
X103933333Y-16405400D02*
X103838095Y-16453019D01*
X103838095Y-16453019D02*
X103647619Y-16453019D01*
X103647619Y-16453019D02*
X103552381Y-16405400D01*
X103552381Y-16405400D02*
X103457143Y-16310161D01*
X103457143Y-16310161D02*
X103409524Y-16119685D01*
X103409524Y-16119685D02*
X103409524Y-15786352D01*
X103409524Y-15786352D02*
X103457143Y-15595876D01*
X103457143Y-15595876D02*
X103552381Y-15500638D01*
X103552381Y-15500638D02*
X103647619Y-15453019D01*
X104504762Y-16072066D02*
X105266667Y-16072066D01*
X105647619Y-15453019D02*
X105885714Y-16453019D01*
X105885714Y-16453019D02*
X106076190Y-15738733D01*
X106076190Y-15738733D02*
X106266666Y-16453019D01*
X106266666Y-16453019D02*
X106504762Y-15453019D01*
X106885714Y-15929209D02*
X107219047Y-15929209D01*
X107361904Y-16453019D02*
X106885714Y-16453019D01*
X106885714Y-16453019D02*
X106885714Y-15453019D01*
X106885714Y-15453019D02*
X107361904Y-15453019D01*
X107647619Y-15453019D02*
X108219047Y-15453019D01*
X107933333Y-16453019D02*
X107933333Y-15453019D01*
X108504762Y-16405400D02*
X108647619Y-16453019D01*
X108647619Y-16453019D02*
X108885714Y-16453019D01*
X108885714Y-16453019D02*
X108980952Y-16405400D01*
X108980952Y-16405400D02*
X109028571Y-16357780D01*
X109028571Y-16357780D02*
X109076190Y-16262542D01*
X109076190Y-16262542D02*
X109076190Y-16167304D01*
X109076190Y-16167304D02*
X109028571Y-16072066D01*
X109028571Y-16072066D02*
X108980952Y-16024447D01*
X108980952Y-16024447D02*
X108885714Y-15976828D01*
X108885714Y-15976828D02*
X108695238Y-15929209D01*
X108695238Y-15929209D02*
X108600000Y-15881590D01*
X108600000Y-15881590D02*
X108552381Y-15833971D01*
X108552381Y-15833971D02*
X108504762Y-15738733D01*
X108504762Y-15738733D02*
X108504762Y-15643495D01*
X108504762Y-15643495D02*
X108552381Y-15548257D01*
X108552381Y-15548257D02*
X108600000Y-15500638D01*
X108600000Y-15500638D02*
X108695238Y-15453019D01*
X108695238Y-15453019D02*
X108933333Y-15453019D01*
X108933333Y-15453019D02*
X109076190Y-15500638D01*
X109504762Y-15929209D02*
X109838095Y-15929209D01*
X109980952Y-16453019D02*
X109504762Y-16453019D01*
X109504762Y-16453019D02*
X109504762Y-15453019D01*
X109504762Y-15453019D02*
X109980952Y-15453019D01*
X110409524Y-16453019D02*
X110409524Y-15453019D01*
X110409524Y-15453019D02*
X110980952Y-16453019D01*
X110980952Y-16453019D02*
X110980952Y-15453019D01*
X111457143Y-16453019D02*
X111457143Y-15453019D01*
X111457143Y-15453019D02*
X111695238Y-15453019D01*
X111695238Y-15453019D02*
X111838095Y-15500638D01*
X111838095Y-15500638D02*
X111933333Y-15595876D01*
X111933333Y-15595876D02*
X111980952Y-15691114D01*
X111980952Y-15691114D02*
X112028571Y-15881590D01*
X112028571Y-15881590D02*
X112028571Y-16024447D01*
X112028571Y-16024447D02*
X111980952Y-16214923D01*
X111980952Y-16214923D02*
X111933333Y-16310161D01*
X111933333Y-16310161D02*
X111838095Y-16405400D01*
X111838095Y-16405400D02*
X111695238Y-16453019D01*
X111695238Y-16453019D02*
X111457143Y-16453019D01*
X105409524Y-14553019D02*
X105409524Y-13553019D01*
X105409524Y-13553019D02*
X105790476Y-13553019D01*
X105790476Y-13553019D02*
X105885714Y-13600638D01*
X105885714Y-13600638D02*
X105933333Y-13648257D01*
X105933333Y-13648257D02*
X105980952Y-13743495D01*
X105980952Y-13743495D02*
X105980952Y-13886352D01*
X105980952Y-13886352D02*
X105933333Y-13981590D01*
X105933333Y-13981590D02*
X105885714Y-14029209D01*
X105885714Y-14029209D02*
X105790476Y-14076828D01*
X105790476Y-14076828D02*
X105409524Y-14076828D01*
X106361905Y-13648257D02*
X106409524Y-13600638D01*
X106409524Y-13600638D02*
X106504762Y-13553019D01*
X106504762Y-13553019D02*
X106742857Y-13553019D01*
X106742857Y-13553019D02*
X106838095Y-13600638D01*
X106838095Y-13600638D02*
X106885714Y-13648257D01*
X106885714Y-13648257D02*
X106933333Y-13743495D01*
X106933333Y-13743495D02*
X106933333Y-13838733D01*
X106933333Y-13838733D02*
X106885714Y-13981590D01*
X106885714Y-13981590D02*
X106314286Y-14553019D01*
X106314286Y-14553019D02*
X106933333Y-14553019D01*
X107552381Y-13553019D02*
X107647619Y-13553019D01*
X107647619Y-13553019D02*
X107742857Y-13600638D01*
X107742857Y-13600638D02*
X107790476Y-13648257D01*
X107790476Y-13648257D02*
X107838095Y-13743495D01*
X107838095Y-13743495D02*
X107885714Y-13933971D01*
X107885714Y-13933971D02*
X107885714Y-14172066D01*
X107885714Y-14172066D02*
X107838095Y-14362542D01*
X107838095Y-14362542D02*
X107790476Y-14457780D01*
X107790476Y-14457780D02*
X107742857Y-14505400D01*
X107742857Y-14505400D02*
X107647619Y-14553019D01*
X107647619Y-14553019D02*
X107552381Y-14553019D01*
X107552381Y-14553019D02*
X107457143Y-14505400D01*
X107457143Y-14505400D02*
X107409524Y-14457780D01*
X107409524Y-14457780D02*
X107361905Y-14362542D01*
X107361905Y-14362542D02*
X107314286Y-14172066D01*
X107314286Y-14172066D02*
X107314286Y-13933971D01*
X107314286Y-13933971D02*
X107361905Y-13743495D01*
X107361905Y-13743495D02*
X107409524Y-13648257D01*
X107409524Y-13648257D02*
X107457143Y-13600638D01*
X107457143Y-13600638D02*
X107552381Y-13553019D01*
X108838095Y-14553019D02*
X108266667Y-14553019D01*
X108552381Y-14553019D02*
X108552381Y-13553019D01*
X108552381Y-13553019D02*
X108457143Y-13695876D01*
X108457143Y-13695876D02*
X108361905Y-13791114D01*
X108361905Y-13791114D02*
X108266667Y-13838733D01*
X18010714Y-15453019D02*
X18010714Y-16167304D01*
X18010714Y-16167304D02*
X17963095Y-16310161D01*
X17963095Y-16310161D02*
X17867857Y-16405400D01*
X17867857Y-16405400D02*
X17725000Y-16453019D01*
X17725000Y-16453019D02*
X17629762Y-16453019D01*
X18486905Y-15929209D02*
X18820238Y-15929209D01*
X18963095Y-16453019D02*
X18486905Y-16453019D01*
X18486905Y-16453019D02*
X18486905Y-15453019D01*
X18486905Y-15453019D02*
X18963095Y-15453019D01*
X19963095Y-16453019D02*
X19629762Y-15976828D01*
X19391667Y-16453019D02*
X19391667Y-15453019D01*
X19391667Y-15453019D02*
X19772619Y-15453019D01*
X19772619Y-15453019D02*
X19867857Y-15500638D01*
X19867857Y-15500638D02*
X19915476Y-15548257D01*
X19915476Y-15548257D02*
X19963095Y-15643495D01*
X19963095Y-15643495D02*
X19963095Y-15786352D01*
X19963095Y-15786352D02*
X19915476Y-15881590D01*
X19915476Y-15881590D02*
X19867857Y-15929209D01*
X19867857Y-15929209D02*
X19772619Y-15976828D01*
X19772619Y-15976828D02*
X19391667Y-15976828D01*
X20391667Y-16072066D02*
X21153572Y-16072066D01*
X22201190Y-16357780D02*
X22153571Y-16405400D01*
X22153571Y-16405400D02*
X22010714Y-16453019D01*
X22010714Y-16453019D02*
X21915476Y-16453019D01*
X21915476Y-16453019D02*
X21772619Y-16405400D01*
X21772619Y-16405400D02*
X21677381Y-16310161D01*
X21677381Y-16310161D02*
X21629762Y-16214923D01*
X21629762Y-16214923D02*
X21582143Y-16024447D01*
X21582143Y-16024447D02*
X21582143Y-15881590D01*
X21582143Y-15881590D02*
X21629762Y-15691114D01*
X21629762Y-15691114D02*
X21677381Y-15595876D01*
X21677381Y-15595876D02*
X21772619Y-15500638D01*
X21772619Y-15500638D02*
X21915476Y-15453019D01*
X21915476Y-15453019D02*
X22010714Y-15453019D01*
X22010714Y-15453019D02*
X22153571Y-15500638D01*
X22153571Y-15500638D02*
X22201190Y-15548257D01*
X22486905Y-15453019D02*
X23058333Y-15453019D01*
X22772619Y-16453019D02*
X22772619Y-15453019D01*
X23963095Y-16453019D02*
X23629762Y-15976828D01*
X23391667Y-16453019D02*
X23391667Y-15453019D01*
X23391667Y-15453019D02*
X23772619Y-15453019D01*
X23772619Y-15453019D02*
X23867857Y-15500638D01*
X23867857Y-15500638D02*
X23915476Y-15548257D01*
X23915476Y-15548257D02*
X23963095Y-15643495D01*
X23963095Y-15643495D02*
X23963095Y-15786352D01*
X23963095Y-15786352D02*
X23915476Y-15881590D01*
X23915476Y-15881590D02*
X23867857Y-15929209D01*
X23867857Y-15929209D02*
X23772619Y-15976828D01*
X23772619Y-15976828D02*
X23391667Y-15976828D01*
X24867857Y-16453019D02*
X24391667Y-16453019D01*
X24391667Y-16453019D02*
X24391667Y-15453019D01*
X19534524Y-14553019D02*
X19534524Y-13553019D01*
X19534524Y-13553019D02*
X19915476Y-13553019D01*
X19915476Y-13553019D02*
X20010714Y-13600638D01*
X20010714Y-13600638D02*
X20058333Y-13648257D01*
X20058333Y-13648257D02*
X20105952Y-13743495D01*
X20105952Y-13743495D02*
X20105952Y-13886352D01*
X20105952Y-13886352D02*
X20058333Y-13981590D01*
X20058333Y-13981590D02*
X20010714Y-14029209D01*
X20010714Y-14029209D02*
X19915476Y-14076828D01*
X19915476Y-14076828D02*
X19534524Y-14076828D01*
X20486905Y-13648257D02*
X20534524Y-13600638D01*
X20534524Y-13600638D02*
X20629762Y-13553019D01*
X20629762Y-13553019D02*
X20867857Y-13553019D01*
X20867857Y-13553019D02*
X20963095Y-13600638D01*
X20963095Y-13600638D02*
X21010714Y-13648257D01*
X21010714Y-13648257D02*
X21058333Y-13743495D01*
X21058333Y-13743495D02*
X21058333Y-13838733D01*
X21058333Y-13838733D02*
X21010714Y-13981590D01*
X21010714Y-13981590D02*
X20439286Y-14553019D01*
X20439286Y-14553019D02*
X21058333Y-14553019D01*
X21677381Y-13553019D02*
X21772619Y-13553019D01*
X21772619Y-13553019D02*
X21867857Y-13600638D01*
X21867857Y-13600638D02*
X21915476Y-13648257D01*
X21915476Y-13648257D02*
X21963095Y-13743495D01*
X21963095Y-13743495D02*
X22010714Y-13933971D01*
X22010714Y-13933971D02*
X22010714Y-14172066D01*
X22010714Y-14172066D02*
X21963095Y-14362542D01*
X21963095Y-14362542D02*
X21915476Y-14457780D01*
X21915476Y-14457780D02*
X21867857Y-14505400D01*
X21867857Y-14505400D02*
X21772619Y-14553019D01*
X21772619Y-14553019D02*
X21677381Y-14553019D01*
X21677381Y-14553019D02*
X21582143Y-14505400D01*
X21582143Y-14505400D02*
X21534524Y-14457780D01*
X21534524Y-14457780D02*
X21486905Y-14362542D01*
X21486905Y-14362542D02*
X21439286Y-14172066D01*
X21439286Y-14172066D02*
X21439286Y-13933971D01*
X21439286Y-13933971D02*
X21486905Y-13743495D01*
X21486905Y-13743495D02*
X21534524Y-13648257D01*
X21534524Y-13648257D02*
X21582143Y-13600638D01*
X21582143Y-13600638D02*
X21677381Y-13553019D01*
X22867857Y-13553019D02*
X22677381Y-13553019D01*
X22677381Y-13553019D02*
X22582143Y-13600638D01*
X22582143Y-13600638D02*
X22534524Y-13648257D01*
X22534524Y-13648257D02*
X22439286Y-13791114D01*
X22439286Y-13791114D02*
X22391667Y-13981590D01*
X22391667Y-13981590D02*
X22391667Y-14362542D01*
X22391667Y-14362542D02*
X22439286Y-14457780D01*
X22439286Y-14457780D02*
X22486905Y-14505400D01*
X22486905Y-14505400D02*
X22582143Y-14553019D01*
X22582143Y-14553019D02*
X22772619Y-14553019D01*
X22772619Y-14553019D02*
X22867857Y-14505400D01*
X22867857Y-14505400D02*
X22915476Y-14457780D01*
X22915476Y-14457780D02*
X22963095Y-14362542D01*
X22963095Y-14362542D02*
X22963095Y-14124447D01*
X22963095Y-14124447D02*
X22915476Y-14029209D01*
X22915476Y-14029209D02*
X22867857Y-13981590D01*
X22867857Y-13981590D02*
X22772619Y-13933971D01*
X22772619Y-13933971D02*
X22582143Y-13933971D01*
X22582143Y-13933971D02*
X22486905Y-13981590D01*
X22486905Y-13981590D02*
X22439286Y-14029209D01*
X22439286Y-14029209D02*
X22391667Y-14124447D01*
X20833333Y-62980057D02*
X20880952Y-62932438D01*
X20880952Y-62932438D02*
X20976190Y-62884819D01*
X20976190Y-62884819D02*
X21214285Y-62884819D01*
X21214285Y-62884819D02*
X21309523Y-62932438D01*
X21309523Y-62932438D02*
X21357142Y-62980057D01*
X21357142Y-62980057D02*
X21404761Y-63075295D01*
X21404761Y-63075295D02*
X21404761Y-63170533D01*
X21404761Y-63170533D02*
X21357142Y-63313390D01*
X21357142Y-63313390D02*
X20785714Y-63884819D01*
X20785714Y-63884819D02*
X21404761Y-63884819D01*
X22023809Y-62884819D02*
X22119047Y-62884819D01*
X22119047Y-62884819D02*
X22214285Y-62932438D01*
X22214285Y-62932438D02*
X22261904Y-62980057D01*
X22261904Y-62980057D02*
X22309523Y-63075295D01*
X22309523Y-63075295D02*
X22357142Y-63265771D01*
X22357142Y-63265771D02*
X22357142Y-63503866D01*
X22357142Y-63503866D02*
X22309523Y-63694342D01*
X22309523Y-63694342D02*
X22261904Y-63789580D01*
X22261904Y-63789580D02*
X22214285Y-63837200D01*
X22214285Y-63837200D02*
X22119047Y-63884819D01*
X22119047Y-63884819D02*
X22023809Y-63884819D01*
X22023809Y-63884819D02*
X21928571Y-63837200D01*
X21928571Y-63837200D02*
X21880952Y-63789580D01*
X21880952Y-63789580D02*
X21833333Y-63694342D01*
X21833333Y-63694342D02*
X21785714Y-63503866D01*
X21785714Y-63503866D02*
X21785714Y-63265771D01*
X21785714Y-63265771D02*
X21833333Y-63075295D01*
X21833333Y-63075295D02*
X21880952Y-62980057D01*
X21880952Y-62980057D02*
X21928571Y-62932438D01*
X21928571Y-62932438D02*
X22023809Y-62884819D01*
X22785714Y-63884819D02*
X22785714Y-62884819D01*
X22880952Y-63503866D02*
X23166666Y-63884819D01*
X23166666Y-63218152D02*
X22785714Y-63599104D01*
D11*
X21552381Y-62181927D02*
X21419048Y-61991451D01*
X21323810Y-62181927D02*
X21323810Y-61781927D01*
X21323810Y-61781927D02*
X21476191Y-61781927D01*
X21476191Y-61781927D02*
X21514286Y-61800975D01*
X21514286Y-61800975D02*
X21533333Y-61820022D01*
X21533333Y-61820022D02*
X21552381Y-61858118D01*
X21552381Y-61858118D02*
X21552381Y-61915260D01*
X21552381Y-61915260D02*
X21533333Y-61953356D01*
X21533333Y-61953356D02*
X21514286Y-61972403D01*
X21514286Y-61972403D02*
X21476191Y-61991451D01*
X21476191Y-61991451D02*
X21323810Y-61991451D01*
X21704762Y-61820022D02*
X21723810Y-61800975D01*
X21723810Y-61800975D02*
X21761905Y-61781927D01*
X21761905Y-61781927D02*
X21857143Y-61781927D01*
X21857143Y-61781927D02*
X21895238Y-61800975D01*
X21895238Y-61800975D02*
X21914286Y-61820022D01*
X21914286Y-61820022D02*
X21933333Y-61858118D01*
X21933333Y-61858118D02*
X21933333Y-61896213D01*
X21933333Y-61896213D02*
X21914286Y-61953356D01*
X21914286Y-61953356D02*
X21685714Y-62181927D01*
X21685714Y-62181927D02*
X21933333Y-62181927D01*
X22085714Y-61820022D02*
X22104762Y-61800975D01*
X22104762Y-61800975D02*
X22142857Y-61781927D01*
X22142857Y-61781927D02*
X22238095Y-61781927D01*
X22238095Y-61781927D02*
X22276190Y-61800975D01*
X22276190Y-61800975D02*
X22295238Y-61820022D01*
X22295238Y-61820022D02*
X22314285Y-61858118D01*
X22314285Y-61858118D02*
X22314285Y-61896213D01*
X22314285Y-61896213D02*
X22295238Y-61953356D01*
X22295238Y-61953356D02*
X22066666Y-62181927D01*
X22066666Y-62181927D02*
X22314285Y-62181927D01*
X22504761Y-62181927D02*
X22580952Y-62181927D01*
X22580952Y-62181927D02*
X22619047Y-62162880D01*
X22619047Y-62162880D02*
X22638095Y-62143832D01*
X22638095Y-62143832D02*
X22676190Y-62086689D01*
X22676190Y-62086689D02*
X22695237Y-62010499D01*
X22695237Y-62010499D02*
X22695237Y-61858118D01*
X22695237Y-61858118D02*
X22676190Y-61820022D01*
X22676190Y-61820022D02*
X22657142Y-61800975D01*
X22657142Y-61800975D02*
X22619047Y-61781927D01*
X22619047Y-61781927D02*
X22542856Y-61781927D01*
X22542856Y-61781927D02*
X22504761Y-61800975D01*
X22504761Y-61800975D02*
X22485714Y-61820022D01*
X22485714Y-61820022D02*
X22466666Y-61858118D01*
X22466666Y-61858118D02*
X22466666Y-61953356D01*
X22466666Y-61953356D02*
X22485714Y-61991451D01*
X22485714Y-61991451D02*
X22504761Y-62010499D01*
X22504761Y-62010499D02*
X22542856Y-62029546D01*
X22542856Y-62029546D02*
X22619047Y-62029546D01*
X22619047Y-62029546D02*
X22657142Y-62010499D01*
X22657142Y-62010499D02*
X22676190Y-61991451D01*
X22676190Y-61991451D02*
X22695237Y-61953356D01*
D10*
X109285714Y-48554819D02*
X108714286Y-48554819D01*
X109000000Y-48554819D02*
X109000000Y-47554819D01*
X109000000Y-47554819D02*
X108904762Y-47697676D01*
X108904762Y-47697676D02*
X108809524Y-47792914D01*
X108809524Y-47792914D02*
X108714286Y-47840533D01*
X109714286Y-48554819D02*
X109714286Y-47554819D01*
X109714286Y-47554819D02*
X110285714Y-48554819D01*
X110285714Y-48554819D02*
X110285714Y-47554819D01*
X111190476Y-47888152D02*
X111190476Y-48554819D01*
X110952381Y-47507200D02*
X110714286Y-48221485D01*
X110714286Y-48221485D02*
X111333333Y-48221485D01*
X112238095Y-48554819D02*
X111666667Y-48554819D01*
X111952381Y-48554819D02*
X111952381Y-47554819D01*
X111952381Y-47554819D02*
X111857143Y-47697676D01*
X111857143Y-47697676D02*
X111761905Y-47792914D01*
X111761905Y-47792914D02*
X111666667Y-47840533D01*
X113095238Y-47888152D02*
X113095238Y-48554819D01*
X112857143Y-47507200D02*
X112619048Y-48221485D01*
X112619048Y-48221485D02*
X113238095Y-48221485D01*
X113761905Y-47983390D02*
X113666667Y-47935771D01*
X113666667Y-47935771D02*
X113619048Y-47888152D01*
X113619048Y-47888152D02*
X113571429Y-47792914D01*
X113571429Y-47792914D02*
X113571429Y-47745295D01*
X113571429Y-47745295D02*
X113619048Y-47650057D01*
X113619048Y-47650057D02*
X113666667Y-47602438D01*
X113666667Y-47602438D02*
X113761905Y-47554819D01*
X113761905Y-47554819D02*
X113952381Y-47554819D01*
X113952381Y-47554819D02*
X114047619Y-47602438D01*
X114047619Y-47602438D02*
X114095238Y-47650057D01*
X114095238Y-47650057D02*
X114142857Y-47745295D01*
X114142857Y-47745295D02*
X114142857Y-47792914D01*
X114142857Y-47792914D02*
X114095238Y-47888152D01*
X114095238Y-47888152D02*
X114047619Y-47935771D01*
X114047619Y-47935771D02*
X113952381Y-47983390D01*
X113952381Y-47983390D02*
X113761905Y-47983390D01*
X113761905Y-47983390D02*
X113666667Y-48031009D01*
X113666667Y-48031009D02*
X113619048Y-48078628D01*
X113619048Y-48078628D02*
X113571429Y-48173866D01*
X113571429Y-48173866D02*
X113571429Y-48364342D01*
X113571429Y-48364342D02*
X113619048Y-48459580D01*
X113619048Y-48459580D02*
X113666667Y-48507200D01*
X113666667Y-48507200D02*
X113761905Y-48554819D01*
X113761905Y-48554819D02*
X113952381Y-48554819D01*
X113952381Y-48554819D02*
X114047619Y-48507200D01*
X114047619Y-48507200D02*
X114095238Y-48459580D01*
X114095238Y-48459580D02*
X114142857Y-48364342D01*
X114142857Y-48364342D02*
X114142857Y-48173866D01*
X114142857Y-48173866D02*
X114095238Y-48078628D01*
X114095238Y-48078628D02*
X114047619Y-48031009D01*
X114047619Y-48031009D02*
X113952381Y-47983390D01*
X114476191Y-47554819D02*
X114714286Y-48554819D01*
X114714286Y-48554819D02*
X114904762Y-47840533D01*
X114904762Y-47840533D02*
X115095238Y-48554819D01*
X115095238Y-48554819D02*
X115333334Y-47554819D01*
X110309524Y-44454819D02*
X110309524Y-43454819D01*
X110309524Y-43454819D02*
X110547619Y-43454819D01*
X110547619Y-43454819D02*
X110690476Y-43502438D01*
X110690476Y-43502438D02*
X110785714Y-43597676D01*
X110785714Y-43597676D02*
X110833333Y-43692914D01*
X110833333Y-43692914D02*
X110880952Y-43883390D01*
X110880952Y-43883390D02*
X110880952Y-44026247D01*
X110880952Y-44026247D02*
X110833333Y-44216723D01*
X110833333Y-44216723D02*
X110785714Y-44311961D01*
X110785714Y-44311961D02*
X110690476Y-44407200D01*
X110690476Y-44407200D02*
X110547619Y-44454819D01*
X110547619Y-44454819D02*
X110309524Y-44454819D01*
X111261905Y-43550057D02*
X111309524Y-43502438D01*
X111309524Y-43502438D02*
X111404762Y-43454819D01*
X111404762Y-43454819D02*
X111642857Y-43454819D01*
X111642857Y-43454819D02*
X111738095Y-43502438D01*
X111738095Y-43502438D02*
X111785714Y-43550057D01*
X111785714Y-43550057D02*
X111833333Y-43645295D01*
X111833333Y-43645295D02*
X111833333Y-43740533D01*
X111833333Y-43740533D02*
X111785714Y-43883390D01*
X111785714Y-43883390D02*
X111214286Y-44454819D01*
X111214286Y-44454819D02*
X111833333Y-44454819D01*
X112690476Y-43454819D02*
X112500000Y-43454819D01*
X112500000Y-43454819D02*
X112404762Y-43502438D01*
X112404762Y-43502438D02*
X112357143Y-43550057D01*
X112357143Y-43550057D02*
X112261905Y-43692914D01*
X112261905Y-43692914D02*
X112214286Y-43883390D01*
X112214286Y-43883390D02*
X112214286Y-44264342D01*
X112214286Y-44264342D02*
X112261905Y-44359580D01*
X112261905Y-44359580D02*
X112309524Y-44407200D01*
X112309524Y-44407200D02*
X112404762Y-44454819D01*
X112404762Y-44454819D02*
X112595238Y-44454819D01*
X112595238Y-44454819D02*
X112690476Y-44407200D01*
X112690476Y-44407200D02*
X112738095Y-44359580D01*
X112738095Y-44359580D02*
X112785714Y-44264342D01*
X112785714Y-44264342D02*
X112785714Y-44026247D01*
X112785714Y-44026247D02*
X112738095Y-43931009D01*
X112738095Y-43931009D02*
X112690476Y-43883390D01*
X112690476Y-43883390D02*
X112595238Y-43835771D01*
X112595238Y-43835771D02*
X112404762Y-43835771D01*
X112404762Y-43835771D02*
X112309524Y-43883390D01*
X112309524Y-43883390D02*
X112261905Y-43931009D01*
X112261905Y-43931009D02*
X112214286Y-44026247D01*
X113642857Y-43788152D02*
X113642857Y-44454819D01*
X113404762Y-43407200D02*
X113166667Y-44121485D01*
X113166667Y-44121485D02*
X113785714Y-44121485D01*
X40270476Y-46254819D02*
X40841904Y-46254819D01*
X40556190Y-47254819D02*
X40556190Y-46254819D01*
X41841904Y-47350057D02*
X41746666Y-47302438D01*
X41746666Y-47302438D02*
X41651428Y-47207200D01*
X41651428Y-47207200D02*
X41508571Y-47064342D01*
X41508571Y-47064342D02*
X41413333Y-47016723D01*
X41413333Y-47016723D02*
X41318095Y-47016723D01*
X41365714Y-47254819D02*
X41270476Y-47207200D01*
X41270476Y-47207200D02*
X41175238Y-47111961D01*
X41175238Y-47111961D02*
X41127619Y-46921485D01*
X41127619Y-46921485D02*
X41127619Y-46588152D01*
X41127619Y-46588152D02*
X41175238Y-46397676D01*
X41175238Y-46397676D02*
X41270476Y-46302438D01*
X41270476Y-46302438D02*
X41365714Y-46254819D01*
X41365714Y-46254819D02*
X41556190Y-46254819D01*
X41556190Y-46254819D02*
X41651428Y-46302438D01*
X41651428Y-46302438D02*
X41746666Y-46397676D01*
X41746666Y-46397676D02*
X41794285Y-46588152D01*
X41794285Y-46588152D02*
X41794285Y-46921485D01*
X41794285Y-46921485D02*
X41746666Y-47111961D01*
X41746666Y-47111961D02*
X41651428Y-47207200D01*
X41651428Y-47207200D02*
X41556190Y-47254819D01*
X41556190Y-47254819D02*
X41365714Y-47254819D01*
X42175238Y-46350057D02*
X42222857Y-46302438D01*
X42222857Y-46302438D02*
X42318095Y-46254819D01*
X42318095Y-46254819D02*
X42556190Y-46254819D01*
X42556190Y-46254819D02*
X42651428Y-46302438D01*
X42651428Y-46302438D02*
X42699047Y-46350057D01*
X42699047Y-46350057D02*
X42746666Y-46445295D01*
X42746666Y-46445295D02*
X42746666Y-46540533D01*
X42746666Y-46540533D02*
X42699047Y-46683390D01*
X42699047Y-46683390D02*
X42127619Y-47254819D01*
X42127619Y-47254819D02*
X42746666Y-47254819D01*
X43175238Y-46873866D02*
X43937143Y-46873866D01*
X44889523Y-46254819D02*
X44413333Y-46254819D01*
X44413333Y-46254819D02*
X44365714Y-46731009D01*
X44365714Y-46731009D02*
X44413333Y-46683390D01*
X44413333Y-46683390D02*
X44508571Y-46635771D01*
X44508571Y-46635771D02*
X44746666Y-46635771D01*
X44746666Y-46635771D02*
X44841904Y-46683390D01*
X44841904Y-46683390D02*
X44889523Y-46731009D01*
X44889523Y-46731009D02*
X44937142Y-46826247D01*
X44937142Y-46826247D02*
X44937142Y-47064342D01*
X44937142Y-47064342D02*
X44889523Y-47159580D01*
X44889523Y-47159580D02*
X44841904Y-47207200D01*
X44841904Y-47207200D02*
X44746666Y-47254819D01*
X44746666Y-47254819D02*
X44508571Y-47254819D01*
X44508571Y-47254819D02*
X44413333Y-47207200D01*
X44413333Y-47207200D02*
X44365714Y-47159580D01*
X45222857Y-46254819D02*
X45556190Y-47254819D01*
X45556190Y-47254819D02*
X45889523Y-46254819D01*
X41389524Y-40644819D02*
X41389524Y-39644819D01*
X41960952Y-40644819D02*
X41532381Y-40073390D01*
X41960952Y-39644819D02*
X41389524Y-40216247D01*
X42341905Y-39740057D02*
X42389524Y-39692438D01*
X42389524Y-39692438D02*
X42484762Y-39644819D01*
X42484762Y-39644819D02*
X42722857Y-39644819D01*
X42722857Y-39644819D02*
X42818095Y-39692438D01*
X42818095Y-39692438D02*
X42865714Y-39740057D01*
X42865714Y-39740057D02*
X42913333Y-39835295D01*
X42913333Y-39835295D02*
X42913333Y-39930533D01*
X42913333Y-39930533D02*
X42865714Y-40073390D01*
X42865714Y-40073390D02*
X42294286Y-40644819D01*
X42294286Y-40644819D02*
X42913333Y-40644819D01*
X43532381Y-39644819D02*
X43627619Y-39644819D01*
X43627619Y-39644819D02*
X43722857Y-39692438D01*
X43722857Y-39692438D02*
X43770476Y-39740057D01*
X43770476Y-39740057D02*
X43818095Y-39835295D01*
X43818095Y-39835295D02*
X43865714Y-40025771D01*
X43865714Y-40025771D02*
X43865714Y-40263866D01*
X43865714Y-40263866D02*
X43818095Y-40454342D01*
X43818095Y-40454342D02*
X43770476Y-40549580D01*
X43770476Y-40549580D02*
X43722857Y-40597200D01*
X43722857Y-40597200D02*
X43627619Y-40644819D01*
X43627619Y-40644819D02*
X43532381Y-40644819D01*
X43532381Y-40644819D02*
X43437143Y-40597200D01*
X43437143Y-40597200D02*
X43389524Y-40549580D01*
X43389524Y-40549580D02*
X43341905Y-40454342D01*
X43341905Y-40454342D02*
X43294286Y-40263866D01*
X43294286Y-40263866D02*
X43294286Y-40025771D01*
X43294286Y-40025771D02*
X43341905Y-39835295D01*
X43341905Y-39835295D02*
X43389524Y-39740057D01*
X43389524Y-39740057D02*
X43437143Y-39692438D01*
X43437143Y-39692438D02*
X43532381Y-39644819D01*
X44246667Y-39740057D02*
X44294286Y-39692438D01*
X44294286Y-39692438D02*
X44389524Y-39644819D01*
X44389524Y-39644819D02*
X44627619Y-39644819D01*
X44627619Y-39644819D02*
X44722857Y-39692438D01*
X44722857Y-39692438D02*
X44770476Y-39740057D01*
X44770476Y-39740057D02*
X44818095Y-39835295D01*
X44818095Y-39835295D02*
X44818095Y-39930533D01*
X44818095Y-39930533D02*
X44770476Y-40073390D01*
X44770476Y-40073390D02*
X44199048Y-40644819D01*
X44199048Y-40644819D02*
X44818095Y-40644819D01*
X16270476Y-46254819D02*
X16841904Y-46254819D01*
X16556190Y-47254819D02*
X16556190Y-46254819D01*
X17841904Y-47350057D02*
X17746666Y-47302438D01*
X17746666Y-47302438D02*
X17651428Y-47207200D01*
X17651428Y-47207200D02*
X17508571Y-47064342D01*
X17508571Y-47064342D02*
X17413333Y-47016723D01*
X17413333Y-47016723D02*
X17318095Y-47016723D01*
X17365714Y-47254819D02*
X17270476Y-47207200D01*
X17270476Y-47207200D02*
X17175238Y-47111961D01*
X17175238Y-47111961D02*
X17127619Y-46921485D01*
X17127619Y-46921485D02*
X17127619Y-46588152D01*
X17127619Y-46588152D02*
X17175238Y-46397676D01*
X17175238Y-46397676D02*
X17270476Y-46302438D01*
X17270476Y-46302438D02*
X17365714Y-46254819D01*
X17365714Y-46254819D02*
X17556190Y-46254819D01*
X17556190Y-46254819D02*
X17651428Y-46302438D01*
X17651428Y-46302438D02*
X17746666Y-46397676D01*
X17746666Y-46397676D02*
X17794285Y-46588152D01*
X17794285Y-46588152D02*
X17794285Y-46921485D01*
X17794285Y-46921485D02*
X17746666Y-47111961D01*
X17746666Y-47111961D02*
X17651428Y-47207200D01*
X17651428Y-47207200D02*
X17556190Y-47254819D01*
X17556190Y-47254819D02*
X17365714Y-47254819D01*
X18175238Y-46350057D02*
X18222857Y-46302438D01*
X18222857Y-46302438D02*
X18318095Y-46254819D01*
X18318095Y-46254819D02*
X18556190Y-46254819D01*
X18556190Y-46254819D02*
X18651428Y-46302438D01*
X18651428Y-46302438D02*
X18699047Y-46350057D01*
X18699047Y-46350057D02*
X18746666Y-46445295D01*
X18746666Y-46445295D02*
X18746666Y-46540533D01*
X18746666Y-46540533D02*
X18699047Y-46683390D01*
X18699047Y-46683390D02*
X18127619Y-47254819D01*
X18127619Y-47254819D02*
X18746666Y-47254819D01*
X19175238Y-46873866D02*
X19937143Y-46873866D01*
X20889523Y-46254819D02*
X20413333Y-46254819D01*
X20413333Y-46254819D02*
X20365714Y-46731009D01*
X20365714Y-46731009D02*
X20413333Y-46683390D01*
X20413333Y-46683390D02*
X20508571Y-46635771D01*
X20508571Y-46635771D02*
X20746666Y-46635771D01*
X20746666Y-46635771D02*
X20841904Y-46683390D01*
X20841904Y-46683390D02*
X20889523Y-46731009D01*
X20889523Y-46731009D02*
X20937142Y-46826247D01*
X20937142Y-46826247D02*
X20937142Y-47064342D01*
X20937142Y-47064342D02*
X20889523Y-47159580D01*
X20889523Y-47159580D02*
X20841904Y-47207200D01*
X20841904Y-47207200D02*
X20746666Y-47254819D01*
X20746666Y-47254819D02*
X20508571Y-47254819D01*
X20508571Y-47254819D02*
X20413333Y-47207200D01*
X20413333Y-47207200D02*
X20365714Y-47159580D01*
X21222857Y-46254819D02*
X21556190Y-47254819D01*
X21556190Y-47254819D02*
X21889523Y-46254819D01*
X17389524Y-40644819D02*
X17389524Y-39644819D01*
X17960952Y-40644819D02*
X17532381Y-40073390D01*
X17960952Y-39644819D02*
X17389524Y-40216247D01*
X18341905Y-39740057D02*
X18389524Y-39692438D01*
X18389524Y-39692438D02*
X18484762Y-39644819D01*
X18484762Y-39644819D02*
X18722857Y-39644819D01*
X18722857Y-39644819D02*
X18818095Y-39692438D01*
X18818095Y-39692438D02*
X18865714Y-39740057D01*
X18865714Y-39740057D02*
X18913333Y-39835295D01*
X18913333Y-39835295D02*
X18913333Y-39930533D01*
X18913333Y-39930533D02*
X18865714Y-40073390D01*
X18865714Y-40073390D02*
X18294286Y-40644819D01*
X18294286Y-40644819D02*
X18913333Y-40644819D01*
X19532381Y-39644819D02*
X19627619Y-39644819D01*
X19627619Y-39644819D02*
X19722857Y-39692438D01*
X19722857Y-39692438D02*
X19770476Y-39740057D01*
X19770476Y-39740057D02*
X19818095Y-39835295D01*
X19818095Y-39835295D02*
X19865714Y-40025771D01*
X19865714Y-40025771D02*
X19865714Y-40263866D01*
X19865714Y-40263866D02*
X19818095Y-40454342D01*
X19818095Y-40454342D02*
X19770476Y-40549580D01*
X19770476Y-40549580D02*
X19722857Y-40597200D01*
X19722857Y-40597200D02*
X19627619Y-40644819D01*
X19627619Y-40644819D02*
X19532381Y-40644819D01*
X19532381Y-40644819D02*
X19437143Y-40597200D01*
X19437143Y-40597200D02*
X19389524Y-40549580D01*
X19389524Y-40549580D02*
X19341905Y-40454342D01*
X19341905Y-40454342D02*
X19294286Y-40263866D01*
X19294286Y-40263866D02*
X19294286Y-40025771D01*
X19294286Y-40025771D02*
X19341905Y-39835295D01*
X19341905Y-39835295D02*
X19389524Y-39740057D01*
X19389524Y-39740057D02*
X19437143Y-39692438D01*
X19437143Y-39692438D02*
X19532381Y-39644819D01*
X20818095Y-40644819D02*
X20246667Y-40644819D01*
X20532381Y-40644819D02*
X20532381Y-39644819D01*
X20532381Y-39644819D02*
X20437143Y-39787676D01*
X20437143Y-39787676D02*
X20341905Y-39882914D01*
X20341905Y-39882914D02*
X20246667Y-39930533D01*
X38452380Y-63884819D02*
X37880952Y-63884819D01*
X38166666Y-63884819D02*
X38166666Y-62884819D01*
X38166666Y-62884819D02*
X38071428Y-63027676D01*
X38071428Y-63027676D02*
X37976190Y-63122914D01*
X37976190Y-63122914D02*
X37880952Y-63170533D01*
X39071428Y-62884819D02*
X39166666Y-62884819D01*
X39166666Y-62884819D02*
X39261904Y-62932438D01*
X39261904Y-62932438D02*
X39309523Y-62980057D01*
X39309523Y-62980057D02*
X39357142Y-63075295D01*
X39357142Y-63075295D02*
X39404761Y-63265771D01*
X39404761Y-63265771D02*
X39404761Y-63503866D01*
X39404761Y-63503866D02*
X39357142Y-63694342D01*
X39357142Y-63694342D02*
X39309523Y-63789580D01*
X39309523Y-63789580D02*
X39261904Y-63837200D01*
X39261904Y-63837200D02*
X39166666Y-63884819D01*
X39166666Y-63884819D02*
X39071428Y-63884819D01*
X39071428Y-63884819D02*
X38976190Y-63837200D01*
X38976190Y-63837200D02*
X38928571Y-63789580D01*
X38928571Y-63789580D02*
X38880952Y-63694342D01*
X38880952Y-63694342D02*
X38833333Y-63503866D01*
X38833333Y-63503866D02*
X38833333Y-63265771D01*
X38833333Y-63265771D02*
X38880952Y-63075295D01*
X38880952Y-63075295D02*
X38928571Y-62980057D01*
X38928571Y-62980057D02*
X38976190Y-62932438D01*
X38976190Y-62932438D02*
X39071428Y-62884819D01*
X40023809Y-62884819D02*
X40119047Y-62884819D01*
X40119047Y-62884819D02*
X40214285Y-62932438D01*
X40214285Y-62932438D02*
X40261904Y-62980057D01*
X40261904Y-62980057D02*
X40309523Y-63075295D01*
X40309523Y-63075295D02*
X40357142Y-63265771D01*
X40357142Y-63265771D02*
X40357142Y-63503866D01*
X40357142Y-63503866D02*
X40309523Y-63694342D01*
X40309523Y-63694342D02*
X40261904Y-63789580D01*
X40261904Y-63789580D02*
X40214285Y-63837200D01*
X40214285Y-63837200D02*
X40119047Y-63884819D01*
X40119047Y-63884819D02*
X40023809Y-63884819D01*
X40023809Y-63884819D02*
X39928571Y-63837200D01*
X39928571Y-63837200D02*
X39880952Y-63789580D01*
X39880952Y-63789580D02*
X39833333Y-63694342D01*
X39833333Y-63694342D02*
X39785714Y-63503866D01*
X39785714Y-63503866D02*
X39785714Y-63265771D01*
X39785714Y-63265771D02*
X39833333Y-63075295D01*
X39833333Y-63075295D02*
X39880952Y-62980057D01*
X39880952Y-62980057D02*
X39928571Y-62932438D01*
X39928571Y-62932438D02*
X40023809Y-62884819D01*
X40785714Y-63218152D02*
X40785714Y-63884819D01*
X40785714Y-63313390D02*
X40833333Y-63265771D01*
X40833333Y-63265771D02*
X40928571Y-63218152D01*
X40928571Y-63218152D02*
X41071428Y-63218152D01*
X41071428Y-63218152D02*
X41166666Y-63265771D01*
X41166666Y-63265771D02*
X41214285Y-63361009D01*
X41214285Y-63361009D02*
X41214285Y-63884819D01*
X42023809Y-63361009D02*
X41690476Y-63361009D01*
X41690476Y-63884819D02*
X41690476Y-62884819D01*
X41690476Y-62884819D02*
X42166666Y-62884819D01*
D11*
X39552381Y-62143832D02*
X39533333Y-62162880D01*
X39533333Y-62162880D02*
X39476191Y-62181927D01*
X39476191Y-62181927D02*
X39438095Y-62181927D01*
X39438095Y-62181927D02*
X39380952Y-62162880D01*
X39380952Y-62162880D02*
X39342857Y-62124784D01*
X39342857Y-62124784D02*
X39323810Y-62086689D01*
X39323810Y-62086689D02*
X39304762Y-62010499D01*
X39304762Y-62010499D02*
X39304762Y-61953356D01*
X39304762Y-61953356D02*
X39323810Y-61877165D01*
X39323810Y-61877165D02*
X39342857Y-61839070D01*
X39342857Y-61839070D02*
X39380952Y-61800975D01*
X39380952Y-61800975D02*
X39438095Y-61781927D01*
X39438095Y-61781927D02*
X39476191Y-61781927D01*
X39476191Y-61781927D02*
X39533333Y-61800975D01*
X39533333Y-61800975D02*
X39552381Y-61820022D01*
X39704762Y-61820022D02*
X39723810Y-61800975D01*
X39723810Y-61800975D02*
X39761905Y-61781927D01*
X39761905Y-61781927D02*
X39857143Y-61781927D01*
X39857143Y-61781927D02*
X39895238Y-61800975D01*
X39895238Y-61800975D02*
X39914286Y-61820022D01*
X39914286Y-61820022D02*
X39933333Y-61858118D01*
X39933333Y-61858118D02*
X39933333Y-61896213D01*
X39933333Y-61896213D02*
X39914286Y-61953356D01*
X39914286Y-61953356D02*
X39685714Y-62181927D01*
X39685714Y-62181927D02*
X39933333Y-62181927D01*
X40123809Y-62181927D02*
X40200000Y-62181927D01*
X40200000Y-62181927D02*
X40238095Y-62162880D01*
X40238095Y-62162880D02*
X40257143Y-62143832D01*
X40257143Y-62143832D02*
X40295238Y-62086689D01*
X40295238Y-62086689D02*
X40314285Y-62010499D01*
X40314285Y-62010499D02*
X40314285Y-61858118D01*
X40314285Y-61858118D02*
X40295238Y-61820022D01*
X40295238Y-61820022D02*
X40276190Y-61800975D01*
X40276190Y-61800975D02*
X40238095Y-61781927D01*
X40238095Y-61781927D02*
X40161904Y-61781927D01*
X40161904Y-61781927D02*
X40123809Y-61800975D01*
X40123809Y-61800975D02*
X40104762Y-61820022D01*
X40104762Y-61820022D02*
X40085714Y-61858118D01*
X40085714Y-61858118D02*
X40085714Y-61953356D01*
X40085714Y-61953356D02*
X40104762Y-61991451D01*
X40104762Y-61991451D02*
X40123809Y-62010499D01*
X40123809Y-62010499D02*
X40161904Y-62029546D01*
X40161904Y-62029546D02*
X40238095Y-62029546D01*
X40238095Y-62029546D02*
X40276190Y-62010499D01*
X40276190Y-62010499D02*
X40295238Y-61991451D01*
X40295238Y-61991451D02*
X40314285Y-61953356D01*
X40466666Y-61820022D02*
X40485714Y-61800975D01*
X40485714Y-61800975D02*
X40523809Y-61781927D01*
X40523809Y-61781927D02*
X40619047Y-61781927D01*
X40619047Y-61781927D02*
X40657142Y-61800975D01*
X40657142Y-61800975D02*
X40676190Y-61820022D01*
X40676190Y-61820022D02*
X40695237Y-61858118D01*
X40695237Y-61858118D02*
X40695237Y-61896213D01*
X40695237Y-61896213D02*
X40676190Y-61953356D01*
X40676190Y-61953356D02*
X40447618Y-62181927D01*
X40447618Y-62181927D02*
X40695237Y-62181927D01*
D10*
X20833333Y-56980057D02*
X20880952Y-56932438D01*
X20880952Y-56932438D02*
X20976190Y-56884819D01*
X20976190Y-56884819D02*
X21214285Y-56884819D01*
X21214285Y-56884819D02*
X21309523Y-56932438D01*
X21309523Y-56932438D02*
X21357142Y-56980057D01*
X21357142Y-56980057D02*
X21404761Y-57075295D01*
X21404761Y-57075295D02*
X21404761Y-57170533D01*
X21404761Y-57170533D02*
X21357142Y-57313390D01*
X21357142Y-57313390D02*
X20785714Y-57884819D01*
X20785714Y-57884819D02*
X21404761Y-57884819D01*
X22023809Y-56884819D02*
X22119047Y-56884819D01*
X22119047Y-56884819D02*
X22214285Y-56932438D01*
X22214285Y-56932438D02*
X22261904Y-56980057D01*
X22261904Y-56980057D02*
X22309523Y-57075295D01*
X22309523Y-57075295D02*
X22357142Y-57265771D01*
X22357142Y-57265771D02*
X22357142Y-57503866D01*
X22357142Y-57503866D02*
X22309523Y-57694342D01*
X22309523Y-57694342D02*
X22261904Y-57789580D01*
X22261904Y-57789580D02*
X22214285Y-57837200D01*
X22214285Y-57837200D02*
X22119047Y-57884819D01*
X22119047Y-57884819D02*
X22023809Y-57884819D01*
X22023809Y-57884819D02*
X21928571Y-57837200D01*
X21928571Y-57837200D02*
X21880952Y-57789580D01*
X21880952Y-57789580D02*
X21833333Y-57694342D01*
X21833333Y-57694342D02*
X21785714Y-57503866D01*
X21785714Y-57503866D02*
X21785714Y-57265771D01*
X21785714Y-57265771D02*
X21833333Y-57075295D01*
X21833333Y-57075295D02*
X21880952Y-56980057D01*
X21880952Y-56980057D02*
X21928571Y-56932438D01*
X21928571Y-56932438D02*
X22023809Y-56884819D01*
X22785714Y-57884819D02*
X22785714Y-56884819D01*
X22880952Y-57503866D02*
X23166666Y-57884819D01*
X23166666Y-57218152D02*
X22785714Y-57599104D01*
D11*
X21552381Y-56181927D02*
X21419048Y-55991451D01*
X21323810Y-56181927D02*
X21323810Y-55781927D01*
X21323810Y-55781927D02*
X21476191Y-55781927D01*
X21476191Y-55781927D02*
X21514286Y-55800975D01*
X21514286Y-55800975D02*
X21533333Y-55820022D01*
X21533333Y-55820022D02*
X21552381Y-55858118D01*
X21552381Y-55858118D02*
X21552381Y-55915260D01*
X21552381Y-55915260D02*
X21533333Y-55953356D01*
X21533333Y-55953356D02*
X21514286Y-55972403D01*
X21514286Y-55972403D02*
X21476191Y-55991451D01*
X21476191Y-55991451D02*
X21323810Y-55991451D01*
X21704762Y-55820022D02*
X21723810Y-55800975D01*
X21723810Y-55800975D02*
X21761905Y-55781927D01*
X21761905Y-55781927D02*
X21857143Y-55781927D01*
X21857143Y-55781927D02*
X21895238Y-55800975D01*
X21895238Y-55800975D02*
X21914286Y-55820022D01*
X21914286Y-55820022D02*
X21933333Y-55858118D01*
X21933333Y-55858118D02*
X21933333Y-55896213D01*
X21933333Y-55896213D02*
X21914286Y-55953356D01*
X21914286Y-55953356D02*
X21685714Y-56181927D01*
X21685714Y-56181927D02*
X21933333Y-56181927D01*
X22180952Y-55781927D02*
X22219047Y-55781927D01*
X22219047Y-55781927D02*
X22257143Y-55800975D01*
X22257143Y-55800975D02*
X22276190Y-55820022D01*
X22276190Y-55820022D02*
X22295238Y-55858118D01*
X22295238Y-55858118D02*
X22314285Y-55934308D01*
X22314285Y-55934308D02*
X22314285Y-56029546D01*
X22314285Y-56029546D02*
X22295238Y-56105737D01*
X22295238Y-56105737D02*
X22276190Y-56143832D01*
X22276190Y-56143832D02*
X22257143Y-56162880D01*
X22257143Y-56162880D02*
X22219047Y-56181927D01*
X22219047Y-56181927D02*
X22180952Y-56181927D01*
X22180952Y-56181927D02*
X22142857Y-56162880D01*
X22142857Y-56162880D02*
X22123809Y-56143832D01*
X22123809Y-56143832D02*
X22104762Y-56105737D01*
X22104762Y-56105737D02*
X22085714Y-56029546D01*
X22085714Y-56029546D02*
X22085714Y-55934308D01*
X22085714Y-55934308D02*
X22104762Y-55858118D01*
X22104762Y-55858118D02*
X22123809Y-55820022D01*
X22123809Y-55820022D02*
X22142857Y-55800975D01*
X22142857Y-55800975D02*
X22180952Y-55781927D01*
X22447618Y-55781927D02*
X22695237Y-55781927D01*
X22695237Y-55781927D02*
X22561904Y-55934308D01*
X22561904Y-55934308D02*
X22619047Y-55934308D01*
X22619047Y-55934308D02*
X22657142Y-55953356D01*
X22657142Y-55953356D02*
X22676190Y-55972403D01*
X22676190Y-55972403D02*
X22695237Y-56010499D01*
X22695237Y-56010499D02*
X22695237Y-56105737D01*
X22695237Y-56105737D02*
X22676190Y-56143832D01*
X22676190Y-56143832D02*
X22657142Y-56162880D01*
X22657142Y-56162880D02*
X22619047Y-56181927D01*
X22619047Y-56181927D02*
X22504761Y-56181927D01*
X22504761Y-56181927D02*
X22466666Y-56162880D01*
X22466666Y-56162880D02*
X22447618Y-56143832D01*
D10*
X26928571Y-63884819D02*
X26357143Y-63884819D01*
X26642857Y-63884819D02*
X26642857Y-62884819D01*
X26642857Y-62884819D02*
X26547619Y-63027676D01*
X26547619Y-63027676D02*
X26452381Y-63122914D01*
X26452381Y-63122914D02*
X26357143Y-63170533D01*
X27547619Y-62884819D02*
X27642857Y-62884819D01*
X27642857Y-62884819D02*
X27738095Y-62932438D01*
X27738095Y-62932438D02*
X27785714Y-62980057D01*
X27785714Y-62980057D02*
X27833333Y-63075295D01*
X27833333Y-63075295D02*
X27880952Y-63265771D01*
X27880952Y-63265771D02*
X27880952Y-63503866D01*
X27880952Y-63503866D02*
X27833333Y-63694342D01*
X27833333Y-63694342D02*
X27785714Y-63789580D01*
X27785714Y-63789580D02*
X27738095Y-63837200D01*
X27738095Y-63837200D02*
X27642857Y-63884819D01*
X27642857Y-63884819D02*
X27547619Y-63884819D01*
X27547619Y-63884819D02*
X27452381Y-63837200D01*
X27452381Y-63837200D02*
X27404762Y-63789580D01*
X27404762Y-63789580D02*
X27357143Y-63694342D01*
X27357143Y-63694342D02*
X27309524Y-63503866D01*
X27309524Y-63503866D02*
X27309524Y-63265771D01*
X27309524Y-63265771D02*
X27357143Y-63075295D01*
X27357143Y-63075295D02*
X27404762Y-62980057D01*
X27404762Y-62980057D02*
X27452381Y-62932438D01*
X27452381Y-62932438D02*
X27547619Y-62884819D01*
X28500000Y-62884819D02*
X28595238Y-62884819D01*
X28595238Y-62884819D02*
X28690476Y-62932438D01*
X28690476Y-62932438D02*
X28738095Y-62980057D01*
X28738095Y-62980057D02*
X28785714Y-63075295D01*
X28785714Y-63075295D02*
X28833333Y-63265771D01*
X28833333Y-63265771D02*
X28833333Y-63503866D01*
X28833333Y-63503866D02*
X28785714Y-63694342D01*
X28785714Y-63694342D02*
X28738095Y-63789580D01*
X28738095Y-63789580D02*
X28690476Y-63837200D01*
X28690476Y-63837200D02*
X28595238Y-63884819D01*
X28595238Y-63884819D02*
X28500000Y-63884819D01*
X28500000Y-63884819D02*
X28404762Y-63837200D01*
X28404762Y-63837200D02*
X28357143Y-63789580D01*
X28357143Y-63789580D02*
X28309524Y-63694342D01*
X28309524Y-63694342D02*
X28261905Y-63503866D01*
X28261905Y-63503866D02*
X28261905Y-63265771D01*
X28261905Y-63265771D02*
X28309524Y-63075295D01*
X28309524Y-63075295D02*
X28357143Y-62980057D01*
X28357143Y-62980057D02*
X28404762Y-62932438D01*
X28404762Y-62932438D02*
X28500000Y-62884819D01*
X29261905Y-63884819D02*
X29261905Y-62884819D01*
X29357143Y-63503866D02*
X29642857Y-63884819D01*
X29642857Y-63218152D02*
X29261905Y-63599104D01*
D11*
X27552381Y-62181927D02*
X27419048Y-61991451D01*
X27323810Y-62181927D02*
X27323810Y-61781927D01*
X27323810Y-61781927D02*
X27476191Y-61781927D01*
X27476191Y-61781927D02*
X27514286Y-61800975D01*
X27514286Y-61800975D02*
X27533333Y-61820022D01*
X27533333Y-61820022D02*
X27552381Y-61858118D01*
X27552381Y-61858118D02*
X27552381Y-61915260D01*
X27552381Y-61915260D02*
X27533333Y-61953356D01*
X27533333Y-61953356D02*
X27514286Y-61972403D01*
X27514286Y-61972403D02*
X27476191Y-61991451D01*
X27476191Y-61991451D02*
X27323810Y-61991451D01*
X27704762Y-61820022D02*
X27723810Y-61800975D01*
X27723810Y-61800975D02*
X27761905Y-61781927D01*
X27761905Y-61781927D02*
X27857143Y-61781927D01*
X27857143Y-61781927D02*
X27895238Y-61800975D01*
X27895238Y-61800975D02*
X27914286Y-61820022D01*
X27914286Y-61820022D02*
X27933333Y-61858118D01*
X27933333Y-61858118D02*
X27933333Y-61896213D01*
X27933333Y-61896213D02*
X27914286Y-61953356D01*
X27914286Y-61953356D02*
X27685714Y-62181927D01*
X27685714Y-62181927D02*
X27933333Y-62181927D01*
X28066666Y-61781927D02*
X28314285Y-61781927D01*
X28314285Y-61781927D02*
X28180952Y-61934308D01*
X28180952Y-61934308D02*
X28238095Y-61934308D01*
X28238095Y-61934308D02*
X28276190Y-61953356D01*
X28276190Y-61953356D02*
X28295238Y-61972403D01*
X28295238Y-61972403D02*
X28314285Y-62010499D01*
X28314285Y-62010499D02*
X28314285Y-62105737D01*
X28314285Y-62105737D02*
X28295238Y-62143832D01*
X28295238Y-62143832D02*
X28276190Y-62162880D01*
X28276190Y-62162880D02*
X28238095Y-62181927D01*
X28238095Y-62181927D02*
X28123809Y-62181927D01*
X28123809Y-62181927D02*
X28085714Y-62162880D01*
X28085714Y-62162880D02*
X28066666Y-62143832D01*
X28695237Y-62181927D02*
X28466666Y-62181927D01*
X28580952Y-62181927D02*
X28580952Y-61781927D01*
X28580952Y-61781927D02*
X28542856Y-61839070D01*
X28542856Y-61839070D02*
X28504761Y-61877165D01*
X28504761Y-61877165D02*
X28466666Y-61896213D01*
D10*
X113380952Y-8104819D02*
X113380952Y-7104819D01*
X113380952Y-7104819D02*
X113714285Y-7819104D01*
X113714285Y-7819104D02*
X114047618Y-7104819D01*
X114047618Y-7104819D02*
X114047618Y-8104819D01*
X114428571Y-7104819D02*
X115047618Y-7104819D01*
X115047618Y-7104819D02*
X114714285Y-7485771D01*
X114714285Y-7485771D02*
X114857142Y-7485771D01*
X114857142Y-7485771D02*
X114952380Y-7533390D01*
X114952380Y-7533390D02*
X114999999Y-7581009D01*
X114999999Y-7581009D02*
X115047618Y-7676247D01*
X115047618Y-7676247D02*
X115047618Y-7914342D01*
X115047618Y-7914342D02*
X114999999Y-8009580D01*
X114999999Y-8009580D02*
X114952380Y-8057200D01*
X114952380Y-8057200D02*
X114857142Y-8104819D01*
X114857142Y-8104819D02*
X114571428Y-8104819D01*
X114571428Y-8104819D02*
X114476190Y-8057200D01*
X114476190Y-8057200D02*
X114428571Y-8009580D01*
X116238095Y-8104819D02*
X116238095Y-7104819D01*
X116238095Y-7104819D02*
X116809523Y-8104819D01*
X116809523Y-8104819D02*
X116809523Y-7104819D01*
X117285714Y-8104819D02*
X117285714Y-7104819D01*
X117285714Y-7104819D02*
X117666666Y-7104819D01*
X117666666Y-7104819D02*
X117761904Y-7152438D01*
X117761904Y-7152438D02*
X117809523Y-7200057D01*
X117809523Y-7200057D02*
X117857142Y-7295295D01*
X117857142Y-7295295D02*
X117857142Y-7438152D01*
X117857142Y-7438152D02*
X117809523Y-7533390D01*
X117809523Y-7533390D02*
X117761904Y-7581009D01*
X117761904Y-7581009D02*
X117666666Y-7628628D01*
X117666666Y-7628628D02*
X117285714Y-7628628D01*
X118142857Y-7104819D02*
X118714285Y-7104819D01*
X118428571Y-8104819D02*
X118428571Y-7104819D01*
X119047619Y-8104819D02*
X119047619Y-7104819D01*
X119047619Y-7581009D02*
X119619047Y-7581009D01*
X119619047Y-8104819D02*
X119619047Y-7104819D01*
X115738095Y-3954819D02*
X115738095Y-2954819D01*
X115738095Y-3431009D02*
X116309523Y-3431009D01*
X116309523Y-3954819D02*
X116309523Y-2954819D01*
X116738095Y-3050057D02*
X116785714Y-3002438D01*
X116785714Y-3002438D02*
X116880952Y-2954819D01*
X116880952Y-2954819D02*
X117119047Y-2954819D01*
X117119047Y-2954819D02*
X117214285Y-3002438D01*
X117214285Y-3002438D02*
X117261904Y-3050057D01*
X117261904Y-3050057D02*
X117309523Y-3145295D01*
X117309523Y-3145295D02*
X117309523Y-3240533D01*
X117309523Y-3240533D02*
X117261904Y-3383390D01*
X117261904Y-3383390D02*
X116690476Y-3954819D01*
X116690476Y-3954819D02*
X117309523Y-3954819D01*
X88270476Y-46254819D02*
X88841904Y-46254819D01*
X88556190Y-47254819D02*
X88556190Y-46254819D01*
X89841904Y-47350057D02*
X89746666Y-47302438D01*
X89746666Y-47302438D02*
X89651428Y-47207200D01*
X89651428Y-47207200D02*
X89508571Y-47064342D01*
X89508571Y-47064342D02*
X89413333Y-47016723D01*
X89413333Y-47016723D02*
X89318095Y-47016723D01*
X89365714Y-47254819D02*
X89270476Y-47207200D01*
X89270476Y-47207200D02*
X89175238Y-47111961D01*
X89175238Y-47111961D02*
X89127619Y-46921485D01*
X89127619Y-46921485D02*
X89127619Y-46588152D01*
X89127619Y-46588152D02*
X89175238Y-46397676D01*
X89175238Y-46397676D02*
X89270476Y-46302438D01*
X89270476Y-46302438D02*
X89365714Y-46254819D01*
X89365714Y-46254819D02*
X89556190Y-46254819D01*
X89556190Y-46254819D02*
X89651428Y-46302438D01*
X89651428Y-46302438D02*
X89746666Y-46397676D01*
X89746666Y-46397676D02*
X89794285Y-46588152D01*
X89794285Y-46588152D02*
X89794285Y-46921485D01*
X89794285Y-46921485D02*
X89746666Y-47111961D01*
X89746666Y-47111961D02*
X89651428Y-47207200D01*
X89651428Y-47207200D02*
X89556190Y-47254819D01*
X89556190Y-47254819D02*
X89365714Y-47254819D01*
X90175238Y-46350057D02*
X90222857Y-46302438D01*
X90222857Y-46302438D02*
X90318095Y-46254819D01*
X90318095Y-46254819D02*
X90556190Y-46254819D01*
X90556190Y-46254819D02*
X90651428Y-46302438D01*
X90651428Y-46302438D02*
X90699047Y-46350057D01*
X90699047Y-46350057D02*
X90746666Y-46445295D01*
X90746666Y-46445295D02*
X90746666Y-46540533D01*
X90746666Y-46540533D02*
X90699047Y-46683390D01*
X90699047Y-46683390D02*
X90127619Y-47254819D01*
X90127619Y-47254819D02*
X90746666Y-47254819D01*
X91175238Y-46873866D02*
X91937143Y-46873866D01*
X92889523Y-46254819D02*
X92413333Y-46254819D01*
X92413333Y-46254819D02*
X92365714Y-46731009D01*
X92365714Y-46731009D02*
X92413333Y-46683390D01*
X92413333Y-46683390D02*
X92508571Y-46635771D01*
X92508571Y-46635771D02*
X92746666Y-46635771D01*
X92746666Y-46635771D02*
X92841904Y-46683390D01*
X92841904Y-46683390D02*
X92889523Y-46731009D01*
X92889523Y-46731009D02*
X92937142Y-46826247D01*
X92937142Y-46826247D02*
X92937142Y-47064342D01*
X92937142Y-47064342D02*
X92889523Y-47159580D01*
X92889523Y-47159580D02*
X92841904Y-47207200D01*
X92841904Y-47207200D02*
X92746666Y-47254819D01*
X92746666Y-47254819D02*
X92508571Y-47254819D01*
X92508571Y-47254819D02*
X92413333Y-47207200D01*
X92413333Y-47207200D02*
X92365714Y-47159580D01*
X93222857Y-46254819D02*
X93556190Y-47254819D01*
X93556190Y-47254819D02*
X93889523Y-46254819D01*
X89389524Y-40644819D02*
X89389524Y-39644819D01*
X89960952Y-40644819D02*
X89532381Y-40073390D01*
X89960952Y-39644819D02*
X89389524Y-40216247D01*
X90341905Y-39740057D02*
X90389524Y-39692438D01*
X90389524Y-39692438D02*
X90484762Y-39644819D01*
X90484762Y-39644819D02*
X90722857Y-39644819D01*
X90722857Y-39644819D02*
X90818095Y-39692438D01*
X90818095Y-39692438D02*
X90865714Y-39740057D01*
X90865714Y-39740057D02*
X90913333Y-39835295D01*
X90913333Y-39835295D02*
X90913333Y-39930533D01*
X90913333Y-39930533D02*
X90865714Y-40073390D01*
X90865714Y-40073390D02*
X90294286Y-40644819D01*
X90294286Y-40644819D02*
X90913333Y-40644819D01*
X91532381Y-39644819D02*
X91627619Y-39644819D01*
X91627619Y-39644819D02*
X91722857Y-39692438D01*
X91722857Y-39692438D02*
X91770476Y-39740057D01*
X91770476Y-39740057D02*
X91818095Y-39835295D01*
X91818095Y-39835295D02*
X91865714Y-40025771D01*
X91865714Y-40025771D02*
X91865714Y-40263866D01*
X91865714Y-40263866D02*
X91818095Y-40454342D01*
X91818095Y-40454342D02*
X91770476Y-40549580D01*
X91770476Y-40549580D02*
X91722857Y-40597200D01*
X91722857Y-40597200D02*
X91627619Y-40644819D01*
X91627619Y-40644819D02*
X91532381Y-40644819D01*
X91532381Y-40644819D02*
X91437143Y-40597200D01*
X91437143Y-40597200D02*
X91389524Y-40549580D01*
X91389524Y-40549580D02*
X91341905Y-40454342D01*
X91341905Y-40454342D02*
X91294286Y-40263866D01*
X91294286Y-40263866D02*
X91294286Y-40025771D01*
X91294286Y-40025771D02*
X91341905Y-39835295D01*
X91341905Y-39835295D02*
X91389524Y-39740057D01*
X91389524Y-39740057D02*
X91437143Y-39692438D01*
X91437143Y-39692438D02*
X91532381Y-39644819D01*
X92722857Y-39978152D02*
X92722857Y-40644819D01*
X92484762Y-39597200D02*
X92246667Y-40311485D01*
X92246667Y-40311485D02*
X92865714Y-40311485D01*
X60928571Y-67154819D02*
X60357143Y-67154819D01*
X60642857Y-67154819D02*
X60642857Y-66154819D01*
X60642857Y-66154819D02*
X60547619Y-66297676D01*
X60547619Y-66297676D02*
X60452381Y-66392914D01*
X60452381Y-66392914D02*
X60357143Y-66440533D01*
X61547619Y-66154819D02*
X61642857Y-66154819D01*
X61642857Y-66154819D02*
X61738095Y-66202438D01*
X61738095Y-66202438D02*
X61785714Y-66250057D01*
X61785714Y-66250057D02*
X61833333Y-66345295D01*
X61833333Y-66345295D02*
X61880952Y-66535771D01*
X61880952Y-66535771D02*
X61880952Y-66773866D01*
X61880952Y-66773866D02*
X61833333Y-66964342D01*
X61833333Y-66964342D02*
X61785714Y-67059580D01*
X61785714Y-67059580D02*
X61738095Y-67107200D01*
X61738095Y-67107200D02*
X61642857Y-67154819D01*
X61642857Y-67154819D02*
X61547619Y-67154819D01*
X61547619Y-67154819D02*
X61452381Y-67107200D01*
X61452381Y-67107200D02*
X61404762Y-67059580D01*
X61404762Y-67059580D02*
X61357143Y-66964342D01*
X61357143Y-66964342D02*
X61309524Y-66773866D01*
X61309524Y-66773866D02*
X61309524Y-66535771D01*
X61309524Y-66535771D02*
X61357143Y-66345295D01*
X61357143Y-66345295D02*
X61404762Y-66250057D01*
X61404762Y-66250057D02*
X61452381Y-66202438D01*
X61452381Y-66202438D02*
X61547619Y-66154819D01*
X62738095Y-66488152D02*
X62738095Y-67154819D01*
X62309524Y-66488152D02*
X62309524Y-67011961D01*
X62309524Y-67011961D02*
X62357143Y-67107200D01*
X62357143Y-67107200D02*
X62452381Y-67154819D01*
X62452381Y-67154819D02*
X62595238Y-67154819D01*
X62595238Y-67154819D02*
X62690476Y-67107200D01*
X62690476Y-67107200D02*
X62738095Y-67059580D01*
X63547619Y-66631009D02*
X63214286Y-66631009D01*
X63214286Y-67154819D02*
X63214286Y-66154819D01*
X63214286Y-66154819D02*
X63690476Y-66154819D01*
X60880952Y-63359580D02*
X60833333Y-63407200D01*
X60833333Y-63407200D02*
X60690476Y-63454819D01*
X60690476Y-63454819D02*
X60595238Y-63454819D01*
X60595238Y-63454819D02*
X60452381Y-63407200D01*
X60452381Y-63407200D02*
X60357143Y-63311961D01*
X60357143Y-63311961D02*
X60309524Y-63216723D01*
X60309524Y-63216723D02*
X60261905Y-63026247D01*
X60261905Y-63026247D02*
X60261905Y-62883390D01*
X60261905Y-62883390D02*
X60309524Y-62692914D01*
X60309524Y-62692914D02*
X60357143Y-62597676D01*
X60357143Y-62597676D02*
X60452381Y-62502438D01*
X60452381Y-62502438D02*
X60595238Y-62454819D01*
X60595238Y-62454819D02*
X60690476Y-62454819D01*
X60690476Y-62454819D02*
X60833333Y-62502438D01*
X60833333Y-62502438D02*
X60880952Y-62550057D01*
X61261905Y-62550057D02*
X61309524Y-62502438D01*
X61309524Y-62502438D02*
X61404762Y-62454819D01*
X61404762Y-62454819D02*
X61642857Y-62454819D01*
X61642857Y-62454819D02*
X61738095Y-62502438D01*
X61738095Y-62502438D02*
X61785714Y-62550057D01*
X61785714Y-62550057D02*
X61833333Y-62645295D01*
X61833333Y-62645295D02*
X61833333Y-62740533D01*
X61833333Y-62740533D02*
X61785714Y-62883390D01*
X61785714Y-62883390D02*
X61214286Y-63454819D01*
X61214286Y-63454819D02*
X61833333Y-63454819D01*
X62309524Y-63454819D02*
X62500000Y-63454819D01*
X62500000Y-63454819D02*
X62595238Y-63407200D01*
X62595238Y-63407200D02*
X62642857Y-63359580D01*
X62642857Y-63359580D02*
X62738095Y-63216723D01*
X62738095Y-63216723D02*
X62785714Y-63026247D01*
X62785714Y-63026247D02*
X62785714Y-62645295D01*
X62785714Y-62645295D02*
X62738095Y-62550057D01*
X62738095Y-62550057D02*
X62690476Y-62502438D01*
X62690476Y-62502438D02*
X62595238Y-62454819D01*
X62595238Y-62454819D02*
X62404762Y-62454819D01*
X62404762Y-62454819D02*
X62309524Y-62502438D01*
X62309524Y-62502438D02*
X62261905Y-62550057D01*
X62261905Y-62550057D02*
X62214286Y-62645295D01*
X62214286Y-62645295D02*
X62214286Y-62883390D01*
X62214286Y-62883390D02*
X62261905Y-62978628D01*
X62261905Y-62978628D02*
X62309524Y-63026247D01*
X62309524Y-63026247D02*
X62404762Y-63073866D01*
X62404762Y-63073866D02*
X62595238Y-63073866D01*
X62595238Y-63073866D02*
X62690476Y-63026247D01*
X62690476Y-63026247D02*
X62738095Y-62978628D01*
X62738095Y-62978628D02*
X62785714Y-62883390D01*
X63119048Y-62454819D02*
X63738095Y-62454819D01*
X63738095Y-62454819D02*
X63404762Y-62835771D01*
X63404762Y-62835771D02*
X63547619Y-62835771D01*
X63547619Y-62835771D02*
X63642857Y-62883390D01*
X63642857Y-62883390D02*
X63690476Y-62931009D01*
X63690476Y-62931009D02*
X63738095Y-63026247D01*
X63738095Y-63026247D02*
X63738095Y-63264342D01*
X63738095Y-63264342D02*
X63690476Y-63359580D01*
X63690476Y-63359580D02*
X63642857Y-63407200D01*
X63642857Y-63407200D02*
X63547619Y-63454819D01*
X63547619Y-63454819D02*
X63261905Y-63454819D01*
X63261905Y-63454819D02*
X63166667Y-63407200D01*
X63166667Y-63407200D02*
X63119048Y-63359580D01*
X44833333Y-56980057D02*
X44880952Y-56932438D01*
X44880952Y-56932438D02*
X44976190Y-56884819D01*
X44976190Y-56884819D02*
X45214285Y-56884819D01*
X45214285Y-56884819D02*
X45309523Y-56932438D01*
X45309523Y-56932438D02*
X45357142Y-56980057D01*
X45357142Y-56980057D02*
X45404761Y-57075295D01*
X45404761Y-57075295D02*
X45404761Y-57170533D01*
X45404761Y-57170533D02*
X45357142Y-57313390D01*
X45357142Y-57313390D02*
X44785714Y-57884819D01*
X44785714Y-57884819D02*
X45404761Y-57884819D01*
X46023809Y-56884819D02*
X46119047Y-56884819D01*
X46119047Y-56884819D02*
X46214285Y-56932438D01*
X46214285Y-56932438D02*
X46261904Y-56980057D01*
X46261904Y-56980057D02*
X46309523Y-57075295D01*
X46309523Y-57075295D02*
X46357142Y-57265771D01*
X46357142Y-57265771D02*
X46357142Y-57503866D01*
X46357142Y-57503866D02*
X46309523Y-57694342D01*
X46309523Y-57694342D02*
X46261904Y-57789580D01*
X46261904Y-57789580D02*
X46214285Y-57837200D01*
X46214285Y-57837200D02*
X46119047Y-57884819D01*
X46119047Y-57884819D02*
X46023809Y-57884819D01*
X46023809Y-57884819D02*
X45928571Y-57837200D01*
X45928571Y-57837200D02*
X45880952Y-57789580D01*
X45880952Y-57789580D02*
X45833333Y-57694342D01*
X45833333Y-57694342D02*
X45785714Y-57503866D01*
X45785714Y-57503866D02*
X45785714Y-57265771D01*
X45785714Y-57265771D02*
X45833333Y-57075295D01*
X45833333Y-57075295D02*
X45880952Y-56980057D01*
X45880952Y-56980057D02*
X45928571Y-56932438D01*
X45928571Y-56932438D02*
X46023809Y-56884819D01*
X46785714Y-57884819D02*
X46785714Y-56884819D01*
X46880952Y-57503866D02*
X47166666Y-57884819D01*
X47166666Y-57218152D02*
X46785714Y-57599104D01*
D11*
X45552381Y-56181927D02*
X45419048Y-55991451D01*
X45323810Y-56181927D02*
X45323810Y-55781927D01*
X45323810Y-55781927D02*
X45476191Y-55781927D01*
X45476191Y-55781927D02*
X45514286Y-55800975D01*
X45514286Y-55800975D02*
X45533333Y-55820022D01*
X45533333Y-55820022D02*
X45552381Y-55858118D01*
X45552381Y-55858118D02*
X45552381Y-55915260D01*
X45552381Y-55915260D02*
X45533333Y-55953356D01*
X45533333Y-55953356D02*
X45514286Y-55972403D01*
X45514286Y-55972403D02*
X45476191Y-55991451D01*
X45476191Y-55991451D02*
X45323810Y-55991451D01*
X45704762Y-55820022D02*
X45723810Y-55800975D01*
X45723810Y-55800975D02*
X45761905Y-55781927D01*
X45761905Y-55781927D02*
X45857143Y-55781927D01*
X45857143Y-55781927D02*
X45895238Y-55800975D01*
X45895238Y-55800975D02*
X45914286Y-55820022D01*
X45914286Y-55820022D02*
X45933333Y-55858118D01*
X45933333Y-55858118D02*
X45933333Y-55896213D01*
X45933333Y-55896213D02*
X45914286Y-55953356D01*
X45914286Y-55953356D02*
X45685714Y-56181927D01*
X45685714Y-56181927D02*
X45933333Y-56181927D01*
X46180952Y-55781927D02*
X46219047Y-55781927D01*
X46219047Y-55781927D02*
X46257143Y-55800975D01*
X46257143Y-55800975D02*
X46276190Y-55820022D01*
X46276190Y-55820022D02*
X46295238Y-55858118D01*
X46295238Y-55858118D02*
X46314285Y-55934308D01*
X46314285Y-55934308D02*
X46314285Y-56029546D01*
X46314285Y-56029546D02*
X46295238Y-56105737D01*
X46295238Y-56105737D02*
X46276190Y-56143832D01*
X46276190Y-56143832D02*
X46257143Y-56162880D01*
X46257143Y-56162880D02*
X46219047Y-56181927D01*
X46219047Y-56181927D02*
X46180952Y-56181927D01*
X46180952Y-56181927D02*
X46142857Y-56162880D01*
X46142857Y-56162880D02*
X46123809Y-56143832D01*
X46123809Y-56143832D02*
X46104762Y-56105737D01*
X46104762Y-56105737D02*
X46085714Y-56029546D01*
X46085714Y-56029546D02*
X46085714Y-55934308D01*
X46085714Y-55934308D02*
X46104762Y-55858118D01*
X46104762Y-55858118D02*
X46123809Y-55820022D01*
X46123809Y-55820022D02*
X46142857Y-55800975D01*
X46142857Y-55800975D02*
X46180952Y-55781927D01*
X46504761Y-56181927D02*
X46580952Y-56181927D01*
X46580952Y-56181927D02*
X46619047Y-56162880D01*
X46619047Y-56162880D02*
X46638095Y-56143832D01*
X46638095Y-56143832D02*
X46676190Y-56086689D01*
X46676190Y-56086689D02*
X46695237Y-56010499D01*
X46695237Y-56010499D02*
X46695237Y-55858118D01*
X46695237Y-55858118D02*
X46676190Y-55820022D01*
X46676190Y-55820022D02*
X46657142Y-55800975D01*
X46657142Y-55800975D02*
X46619047Y-55781927D01*
X46619047Y-55781927D02*
X46542856Y-55781927D01*
X46542856Y-55781927D02*
X46504761Y-55800975D01*
X46504761Y-55800975D02*
X46485714Y-55820022D01*
X46485714Y-55820022D02*
X46466666Y-55858118D01*
X46466666Y-55858118D02*
X46466666Y-55953356D01*
X46466666Y-55953356D02*
X46485714Y-55991451D01*
X46485714Y-55991451D02*
X46504761Y-56010499D01*
X46504761Y-56010499D02*
X46542856Y-56029546D01*
X46542856Y-56029546D02*
X46619047Y-56029546D01*
X46619047Y-56029546D02*
X46657142Y-56010499D01*
X46657142Y-56010499D02*
X46676190Y-55991451D01*
X46676190Y-55991451D02*
X46695237Y-55953356D01*
D10*
X8832142Y-31049519D02*
X8832142Y-31763804D01*
X8832142Y-31763804D02*
X8784523Y-31906661D01*
X8784523Y-31906661D02*
X8689285Y-32001900D01*
X8689285Y-32001900D02*
X8546428Y-32049519D01*
X8546428Y-32049519D02*
X8451190Y-32049519D01*
X9165476Y-31049519D02*
X9736904Y-31049519D01*
X9451190Y-32049519D02*
X9451190Y-31049519D01*
X10641666Y-32049519D02*
X10308333Y-31573328D01*
X10070238Y-32049519D02*
X10070238Y-31049519D01*
X10070238Y-31049519D02*
X10451190Y-31049519D01*
X10451190Y-31049519D02*
X10546428Y-31097138D01*
X10546428Y-31097138D02*
X10594047Y-31144757D01*
X10594047Y-31144757D02*
X10641666Y-31239995D01*
X10641666Y-31239995D02*
X10641666Y-31382852D01*
X10641666Y-31382852D02*
X10594047Y-31478090D01*
X10594047Y-31478090D02*
X10546428Y-31525709D01*
X10546428Y-31525709D02*
X10451190Y-31573328D01*
X10451190Y-31573328D02*
X10070238Y-31573328D01*
X11070238Y-31668566D02*
X11832143Y-31668566D01*
X12213095Y-31049519D02*
X12879761Y-32049519D01*
X12879761Y-31049519D02*
X12213095Y-32049519D01*
X13594047Y-31525709D02*
X13260714Y-31525709D01*
X13260714Y-32049519D02*
X13260714Y-31049519D01*
X13260714Y-31049519D02*
X13736904Y-31049519D01*
X14070238Y-31763804D02*
X14546428Y-31763804D01*
X13975000Y-32049519D02*
X14308333Y-31049519D01*
X14308333Y-31049519D02*
X14641666Y-32049519D01*
X14975000Y-32049519D02*
X14975000Y-31049519D01*
X14975000Y-31049519D02*
X15213095Y-31049519D01*
X15213095Y-31049519D02*
X15355952Y-31097138D01*
X15355952Y-31097138D02*
X15451190Y-31192376D01*
X15451190Y-31192376D02*
X15498809Y-31287614D01*
X15498809Y-31287614D02*
X15546428Y-31478090D01*
X15546428Y-31478090D02*
X15546428Y-31620947D01*
X15546428Y-31620947D02*
X15498809Y-31811423D01*
X15498809Y-31811423D02*
X15451190Y-31906661D01*
X15451190Y-31906661D02*
X15355952Y-32001900D01*
X15355952Y-32001900D02*
X15213095Y-32049519D01*
X15213095Y-32049519D02*
X14975000Y-32049519D01*
X15975000Y-31525709D02*
X16308333Y-31525709D01*
X16451190Y-32049519D02*
X15975000Y-32049519D01*
X15975000Y-32049519D02*
X15975000Y-31049519D01*
X15975000Y-31049519D02*
X16451190Y-31049519D01*
X10784524Y-30149519D02*
X10784524Y-29149519D01*
X10784524Y-29149519D02*
X11165476Y-29149519D01*
X11165476Y-29149519D02*
X11260714Y-29197138D01*
X11260714Y-29197138D02*
X11308333Y-29244757D01*
X11308333Y-29244757D02*
X11355952Y-29339995D01*
X11355952Y-29339995D02*
X11355952Y-29482852D01*
X11355952Y-29482852D02*
X11308333Y-29578090D01*
X11308333Y-29578090D02*
X11260714Y-29625709D01*
X11260714Y-29625709D02*
X11165476Y-29673328D01*
X11165476Y-29673328D02*
X10784524Y-29673328D01*
X11736905Y-29244757D02*
X11784524Y-29197138D01*
X11784524Y-29197138D02*
X11879762Y-29149519D01*
X11879762Y-29149519D02*
X12117857Y-29149519D01*
X12117857Y-29149519D02*
X12213095Y-29197138D01*
X12213095Y-29197138D02*
X12260714Y-29244757D01*
X12260714Y-29244757D02*
X12308333Y-29339995D01*
X12308333Y-29339995D02*
X12308333Y-29435233D01*
X12308333Y-29435233D02*
X12260714Y-29578090D01*
X12260714Y-29578090D02*
X11689286Y-30149519D01*
X11689286Y-30149519D02*
X12308333Y-30149519D01*
X12927381Y-29149519D02*
X13022619Y-29149519D01*
X13022619Y-29149519D02*
X13117857Y-29197138D01*
X13117857Y-29197138D02*
X13165476Y-29244757D01*
X13165476Y-29244757D02*
X13213095Y-29339995D01*
X13213095Y-29339995D02*
X13260714Y-29530471D01*
X13260714Y-29530471D02*
X13260714Y-29768566D01*
X13260714Y-29768566D02*
X13213095Y-29959042D01*
X13213095Y-29959042D02*
X13165476Y-30054280D01*
X13165476Y-30054280D02*
X13117857Y-30101900D01*
X13117857Y-30101900D02*
X13022619Y-30149519D01*
X13022619Y-30149519D02*
X12927381Y-30149519D01*
X12927381Y-30149519D02*
X12832143Y-30101900D01*
X12832143Y-30101900D02*
X12784524Y-30054280D01*
X12784524Y-30054280D02*
X12736905Y-29959042D01*
X12736905Y-29959042D02*
X12689286Y-29768566D01*
X12689286Y-29768566D02*
X12689286Y-29530471D01*
X12689286Y-29530471D02*
X12736905Y-29339995D01*
X12736905Y-29339995D02*
X12784524Y-29244757D01*
X12784524Y-29244757D02*
X12832143Y-29197138D01*
X12832143Y-29197138D02*
X12927381Y-29149519D01*
X14117857Y-29482852D02*
X14117857Y-30149519D01*
X13879762Y-29101900D02*
X13641667Y-29816185D01*
X13641667Y-29816185D02*
X14260714Y-29816185D01*
X38833333Y-57884819D02*
X38261905Y-57884819D01*
X38547619Y-57884819D02*
X38547619Y-56884819D01*
X38547619Y-56884819D02*
X38452381Y-57027676D01*
X38452381Y-57027676D02*
X38357143Y-57122914D01*
X38357143Y-57122914D02*
X38261905Y-57170533D01*
X39452381Y-56884819D02*
X39547619Y-56884819D01*
X39547619Y-56884819D02*
X39642857Y-56932438D01*
X39642857Y-56932438D02*
X39690476Y-56980057D01*
X39690476Y-56980057D02*
X39738095Y-57075295D01*
X39738095Y-57075295D02*
X39785714Y-57265771D01*
X39785714Y-57265771D02*
X39785714Y-57503866D01*
X39785714Y-57503866D02*
X39738095Y-57694342D01*
X39738095Y-57694342D02*
X39690476Y-57789580D01*
X39690476Y-57789580D02*
X39642857Y-57837200D01*
X39642857Y-57837200D02*
X39547619Y-57884819D01*
X39547619Y-57884819D02*
X39452381Y-57884819D01*
X39452381Y-57884819D02*
X39357143Y-57837200D01*
X39357143Y-57837200D02*
X39309524Y-57789580D01*
X39309524Y-57789580D02*
X39261905Y-57694342D01*
X39261905Y-57694342D02*
X39214286Y-57503866D01*
X39214286Y-57503866D02*
X39214286Y-57265771D01*
X39214286Y-57265771D02*
X39261905Y-57075295D01*
X39261905Y-57075295D02*
X39309524Y-56980057D01*
X39309524Y-56980057D02*
X39357143Y-56932438D01*
X39357143Y-56932438D02*
X39452381Y-56884819D01*
X40404762Y-56884819D02*
X40500000Y-56884819D01*
X40500000Y-56884819D02*
X40595238Y-56932438D01*
X40595238Y-56932438D02*
X40642857Y-56980057D01*
X40642857Y-56980057D02*
X40690476Y-57075295D01*
X40690476Y-57075295D02*
X40738095Y-57265771D01*
X40738095Y-57265771D02*
X40738095Y-57503866D01*
X40738095Y-57503866D02*
X40690476Y-57694342D01*
X40690476Y-57694342D02*
X40642857Y-57789580D01*
X40642857Y-57789580D02*
X40595238Y-57837200D01*
X40595238Y-57837200D02*
X40500000Y-57884819D01*
X40500000Y-57884819D02*
X40404762Y-57884819D01*
X40404762Y-57884819D02*
X40309524Y-57837200D01*
X40309524Y-57837200D02*
X40261905Y-57789580D01*
X40261905Y-57789580D02*
X40214286Y-57694342D01*
X40214286Y-57694342D02*
X40166667Y-57503866D01*
X40166667Y-57503866D02*
X40166667Y-57265771D01*
X40166667Y-57265771D02*
X40214286Y-57075295D01*
X40214286Y-57075295D02*
X40261905Y-56980057D01*
X40261905Y-56980057D02*
X40309524Y-56932438D01*
X40309524Y-56932438D02*
X40404762Y-56884819D01*
X41738095Y-57884819D02*
X41404762Y-57408628D01*
X41166667Y-57884819D02*
X41166667Y-56884819D01*
X41166667Y-56884819D02*
X41547619Y-56884819D01*
X41547619Y-56884819D02*
X41642857Y-56932438D01*
X41642857Y-56932438D02*
X41690476Y-56980057D01*
X41690476Y-56980057D02*
X41738095Y-57075295D01*
X41738095Y-57075295D02*
X41738095Y-57218152D01*
X41738095Y-57218152D02*
X41690476Y-57313390D01*
X41690476Y-57313390D02*
X41642857Y-57361009D01*
X41642857Y-57361009D02*
X41547619Y-57408628D01*
X41547619Y-57408628D02*
X41166667Y-57408628D01*
D11*
X39552381Y-56181927D02*
X39419048Y-55991451D01*
X39323810Y-56181927D02*
X39323810Y-55781927D01*
X39323810Y-55781927D02*
X39476191Y-55781927D01*
X39476191Y-55781927D02*
X39514286Y-55800975D01*
X39514286Y-55800975D02*
X39533333Y-55820022D01*
X39533333Y-55820022D02*
X39552381Y-55858118D01*
X39552381Y-55858118D02*
X39552381Y-55915260D01*
X39552381Y-55915260D02*
X39533333Y-55953356D01*
X39533333Y-55953356D02*
X39514286Y-55972403D01*
X39514286Y-55972403D02*
X39476191Y-55991451D01*
X39476191Y-55991451D02*
X39323810Y-55991451D01*
X39704762Y-55820022D02*
X39723810Y-55800975D01*
X39723810Y-55800975D02*
X39761905Y-55781927D01*
X39761905Y-55781927D02*
X39857143Y-55781927D01*
X39857143Y-55781927D02*
X39895238Y-55800975D01*
X39895238Y-55800975D02*
X39914286Y-55820022D01*
X39914286Y-55820022D02*
X39933333Y-55858118D01*
X39933333Y-55858118D02*
X39933333Y-55896213D01*
X39933333Y-55896213D02*
X39914286Y-55953356D01*
X39914286Y-55953356D02*
X39685714Y-56181927D01*
X39685714Y-56181927D02*
X39933333Y-56181927D01*
X40180952Y-55781927D02*
X40219047Y-55781927D01*
X40219047Y-55781927D02*
X40257143Y-55800975D01*
X40257143Y-55800975D02*
X40276190Y-55820022D01*
X40276190Y-55820022D02*
X40295238Y-55858118D01*
X40295238Y-55858118D02*
X40314285Y-55934308D01*
X40314285Y-55934308D02*
X40314285Y-56029546D01*
X40314285Y-56029546D02*
X40295238Y-56105737D01*
X40295238Y-56105737D02*
X40276190Y-56143832D01*
X40276190Y-56143832D02*
X40257143Y-56162880D01*
X40257143Y-56162880D02*
X40219047Y-56181927D01*
X40219047Y-56181927D02*
X40180952Y-56181927D01*
X40180952Y-56181927D02*
X40142857Y-56162880D01*
X40142857Y-56162880D02*
X40123809Y-56143832D01*
X40123809Y-56143832D02*
X40104762Y-56105737D01*
X40104762Y-56105737D02*
X40085714Y-56029546D01*
X40085714Y-56029546D02*
X40085714Y-55934308D01*
X40085714Y-55934308D02*
X40104762Y-55858118D01*
X40104762Y-55858118D02*
X40123809Y-55820022D01*
X40123809Y-55820022D02*
X40142857Y-55800975D01*
X40142857Y-55800975D02*
X40180952Y-55781927D01*
X40657142Y-55781927D02*
X40580952Y-55781927D01*
X40580952Y-55781927D02*
X40542856Y-55800975D01*
X40542856Y-55800975D02*
X40523809Y-55820022D01*
X40523809Y-55820022D02*
X40485714Y-55877165D01*
X40485714Y-55877165D02*
X40466666Y-55953356D01*
X40466666Y-55953356D02*
X40466666Y-56105737D01*
X40466666Y-56105737D02*
X40485714Y-56143832D01*
X40485714Y-56143832D02*
X40504761Y-56162880D01*
X40504761Y-56162880D02*
X40542856Y-56181927D01*
X40542856Y-56181927D02*
X40619047Y-56181927D01*
X40619047Y-56181927D02*
X40657142Y-56162880D01*
X40657142Y-56162880D02*
X40676190Y-56143832D01*
X40676190Y-56143832D02*
X40695237Y-56105737D01*
X40695237Y-56105737D02*
X40695237Y-56010499D01*
X40695237Y-56010499D02*
X40676190Y-55972403D01*
X40676190Y-55972403D02*
X40657142Y-55953356D01*
X40657142Y-55953356D02*
X40619047Y-55934308D01*
X40619047Y-55934308D02*
X40542856Y-55934308D01*
X40542856Y-55934308D02*
X40504761Y-55953356D01*
X40504761Y-55953356D02*
X40485714Y-55972403D01*
X40485714Y-55972403D02*
X40466666Y-56010499D01*
D10*
X109285714Y-42554819D02*
X108714286Y-42554819D01*
X109000000Y-42554819D02*
X109000000Y-41554819D01*
X109000000Y-41554819D02*
X108904762Y-41697676D01*
X108904762Y-41697676D02*
X108809524Y-41792914D01*
X108809524Y-41792914D02*
X108714286Y-41840533D01*
X109714286Y-42554819D02*
X109714286Y-41554819D01*
X109714286Y-41554819D02*
X110285714Y-42554819D01*
X110285714Y-42554819D02*
X110285714Y-41554819D01*
X111190476Y-41888152D02*
X111190476Y-42554819D01*
X110952381Y-41507200D02*
X110714286Y-42221485D01*
X110714286Y-42221485D02*
X111333333Y-42221485D01*
X112238095Y-42554819D02*
X111666667Y-42554819D01*
X111952381Y-42554819D02*
X111952381Y-41554819D01*
X111952381Y-41554819D02*
X111857143Y-41697676D01*
X111857143Y-41697676D02*
X111761905Y-41792914D01*
X111761905Y-41792914D02*
X111666667Y-41840533D01*
X113095238Y-41888152D02*
X113095238Y-42554819D01*
X112857143Y-41507200D02*
X112619048Y-42221485D01*
X112619048Y-42221485D02*
X113238095Y-42221485D01*
X113761905Y-41983390D02*
X113666667Y-41935771D01*
X113666667Y-41935771D02*
X113619048Y-41888152D01*
X113619048Y-41888152D02*
X113571429Y-41792914D01*
X113571429Y-41792914D02*
X113571429Y-41745295D01*
X113571429Y-41745295D02*
X113619048Y-41650057D01*
X113619048Y-41650057D02*
X113666667Y-41602438D01*
X113666667Y-41602438D02*
X113761905Y-41554819D01*
X113761905Y-41554819D02*
X113952381Y-41554819D01*
X113952381Y-41554819D02*
X114047619Y-41602438D01*
X114047619Y-41602438D02*
X114095238Y-41650057D01*
X114095238Y-41650057D02*
X114142857Y-41745295D01*
X114142857Y-41745295D02*
X114142857Y-41792914D01*
X114142857Y-41792914D02*
X114095238Y-41888152D01*
X114095238Y-41888152D02*
X114047619Y-41935771D01*
X114047619Y-41935771D02*
X113952381Y-41983390D01*
X113952381Y-41983390D02*
X113761905Y-41983390D01*
X113761905Y-41983390D02*
X113666667Y-42031009D01*
X113666667Y-42031009D02*
X113619048Y-42078628D01*
X113619048Y-42078628D02*
X113571429Y-42173866D01*
X113571429Y-42173866D02*
X113571429Y-42364342D01*
X113571429Y-42364342D02*
X113619048Y-42459580D01*
X113619048Y-42459580D02*
X113666667Y-42507200D01*
X113666667Y-42507200D02*
X113761905Y-42554819D01*
X113761905Y-42554819D02*
X113952381Y-42554819D01*
X113952381Y-42554819D02*
X114047619Y-42507200D01*
X114047619Y-42507200D02*
X114095238Y-42459580D01*
X114095238Y-42459580D02*
X114142857Y-42364342D01*
X114142857Y-42364342D02*
X114142857Y-42173866D01*
X114142857Y-42173866D02*
X114095238Y-42078628D01*
X114095238Y-42078628D02*
X114047619Y-42031009D01*
X114047619Y-42031009D02*
X113952381Y-41983390D01*
X114476191Y-41554819D02*
X114714286Y-42554819D01*
X114714286Y-42554819D02*
X114904762Y-41840533D01*
X114904762Y-41840533D02*
X115095238Y-42554819D01*
X115095238Y-42554819D02*
X115333334Y-41554819D01*
X110309524Y-38454819D02*
X110309524Y-37454819D01*
X110309524Y-37454819D02*
X110547619Y-37454819D01*
X110547619Y-37454819D02*
X110690476Y-37502438D01*
X110690476Y-37502438D02*
X110785714Y-37597676D01*
X110785714Y-37597676D02*
X110833333Y-37692914D01*
X110833333Y-37692914D02*
X110880952Y-37883390D01*
X110880952Y-37883390D02*
X110880952Y-38026247D01*
X110880952Y-38026247D02*
X110833333Y-38216723D01*
X110833333Y-38216723D02*
X110785714Y-38311961D01*
X110785714Y-38311961D02*
X110690476Y-38407200D01*
X110690476Y-38407200D02*
X110547619Y-38454819D01*
X110547619Y-38454819D02*
X110309524Y-38454819D01*
X111261905Y-37550057D02*
X111309524Y-37502438D01*
X111309524Y-37502438D02*
X111404762Y-37454819D01*
X111404762Y-37454819D02*
X111642857Y-37454819D01*
X111642857Y-37454819D02*
X111738095Y-37502438D01*
X111738095Y-37502438D02*
X111785714Y-37550057D01*
X111785714Y-37550057D02*
X111833333Y-37645295D01*
X111833333Y-37645295D02*
X111833333Y-37740533D01*
X111833333Y-37740533D02*
X111785714Y-37883390D01*
X111785714Y-37883390D02*
X111214286Y-38454819D01*
X111214286Y-38454819D02*
X111833333Y-38454819D01*
X112690476Y-37454819D02*
X112500000Y-37454819D01*
X112500000Y-37454819D02*
X112404762Y-37502438D01*
X112404762Y-37502438D02*
X112357143Y-37550057D01*
X112357143Y-37550057D02*
X112261905Y-37692914D01*
X112261905Y-37692914D02*
X112214286Y-37883390D01*
X112214286Y-37883390D02*
X112214286Y-38264342D01*
X112214286Y-38264342D02*
X112261905Y-38359580D01*
X112261905Y-38359580D02*
X112309524Y-38407200D01*
X112309524Y-38407200D02*
X112404762Y-38454819D01*
X112404762Y-38454819D02*
X112595238Y-38454819D01*
X112595238Y-38454819D02*
X112690476Y-38407200D01*
X112690476Y-38407200D02*
X112738095Y-38359580D01*
X112738095Y-38359580D02*
X112785714Y-38264342D01*
X112785714Y-38264342D02*
X112785714Y-38026247D01*
X112785714Y-38026247D02*
X112738095Y-37931009D01*
X112738095Y-37931009D02*
X112690476Y-37883390D01*
X112690476Y-37883390D02*
X112595238Y-37835771D01*
X112595238Y-37835771D02*
X112404762Y-37835771D01*
X112404762Y-37835771D02*
X112309524Y-37883390D01*
X112309524Y-37883390D02*
X112261905Y-37931009D01*
X112261905Y-37931009D02*
X112214286Y-38026247D01*
X113166667Y-37550057D02*
X113214286Y-37502438D01*
X113214286Y-37502438D02*
X113309524Y-37454819D01*
X113309524Y-37454819D02*
X113547619Y-37454819D01*
X113547619Y-37454819D02*
X113642857Y-37502438D01*
X113642857Y-37502438D02*
X113690476Y-37550057D01*
X113690476Y-37550057D02*
X113738095Y-37645295D01*
X113738095Y-37645295D02*
X113738095Y-37740533D01*
X113738095Y-37740533D02*
X113690476Y-37883390D01*
X113690476Y-37883390D02*
X113119048Y-38454819D01*
X113119048Y-38454819D02*
X113738095Y-38454819D01*
X32833333Y-57884819D02*
X32261905Y-57884819D01*
X32547619Y-57884819D02*
X32547619Y-56884819D01*
X32547619Y-56884819D02*
X32452381Y-57027676D01*
X32452381Y-57027676D02*
X32357143Y-57122914D01*
X32357143Y-57122914D02*
X32261905Y-57170533D01*
X33452381Y-56884819D02*
X33547619Y-56884819D01*
X33547619Y-56884819D02*
X33642857Y-56932438D01*
X33642857Y-56932438D02*
X33690476Y-56980057D01*
X33690476Y-56980057D02*
X33738095Y-57075295D01*
X33738095Y-57075295D02*
X33785714Y-57265771D01*
X33785714Y-57265771D02*
X33785714Y-57503866D01*
X33785714Y-57503866D02*
X33738095Y-57694342D01*
X33738095Y-57694342D02*
X33690476Y-57789580D01*
X33690476Y-57789580D02*
X33642857Y-57837200D01*
X33642857Y-57837200D02*
X33547619Y-57884819D01*
X33547619Y-57884819D02*
X33452381Y-57884819D01*
X33452381Y-57884819D02*
X33357143Y-57837200D01*
X33357143Y-57837200D02*
X33309524Y-57789580D01*
X33309524Y-57789580D02*
X33261905Y-57694342D01*
X33261905Y-57694342D02*
X33214286Y-57503866D01*
X33214286Y-57503866D02*
X33214286Y-57265771D01*
X33214286Y-57265771D02*
X33261905Y-57075295D01*
X33261905Y-57075295D02*
X33309524Y-56980057D01*
X33309524Y-56980057D02*
X33357143Y-56932438D01*
X33357143Y-56932438D02*
X33452381Y-56884819D01*
X34404762Y-56884819D02*
X34500000Y-56884819D01*
X34500000Y-56884819D02*
X34595238Y-56932438D01*
X34595238Y-56932438D02*
X34642857Y-56980057D01*
X34642857Y-56980057D02*
X34690476Y-57075295D01*
X34690476Y-57075295D02*
X34738095Y-57265771D01*
X34738095Y-57265771D02*
X34738095Y-57503866D01*
X34738095Y-57503866D02*
X34690476Y-57694342D01*
X34690476Y-57694342D02*
X34642857Y-57789580D01*
X34642857Y-57789580D02*
X34595238Y-57837200D01*
X34595238Y-57837200D02*
X34500000Y-57884819D01*
X34500000Y-57884819D02*
X34404762Y-57884819D01*
X34404762Y-57884819D02*
X34309524Y-57837200D01*
X34309524Y-57837200D02*
X34261905Y-57789580D01*
X34261905Y-57789580D02*
X34214286Y-57694342D01*
X34214286Y-57694342D02*
X34166667Y-57503866D01*
X34166667Y-57503866D02*
X34166667Y-57265771D01*
X34166667Y-57265771D02*
X34214286Y-57075295D01*
X34214286Y-57075295D02*
X34261905Y-56980057D01*
X34261905Y-56980057D02*
X34309524Y-56932438D01*
X34309524Y-56932438D02*
X34404762Y-56884819D01*
X35738095Y-57884819D02*
X35404762Y-57408628D01*
X35166667Y-57884819D02*
X35166667Y-56884819D01*
X35166667Y-56884819D02*
X35547619Y-56884819D01*
X35547619Y-56884819D02*
X35642857Y-56932438D01*
X35642857Y-56932438D02*
X35690476Y-56980057D01*
X35690476Y-56980057D02*
X35738095Y-57075295D01*
X35738095Y-57075295D02*
X35738095Y-57218152D01*
X35738095Y-57218152D02*
X35690476Y-57313390D01*
X35690476Y-57313390D02*
X35642857Y-57361009D01*
X35642857Y-57361009D02*
X35547619Y-57408628D01*
X35547619Y-57408628D02*
X35166667Y-57408628D01*
D11*
X33552381Y-56181927D02*
X33419048Y-55991451D01*
X33323810Y-56181927D02*
X33323810Y-55781927D01*
X33323810Y-55781927D02*
X33476191Y-55781927D01*
X33476191Y-55781927D02*
X33514286Y-55800975D01*
X33514286Y-55800975D02*
X33533333Y-55820022D01*
X33533333Y-55820022D02*
X33552381Y-55858118D01*
X33552381Y-55858118D02*
X33552381Y-55915260D01*
X33552381Y-55915260D02*
X33533333Y-55953356D01*
X33533333Y-55953356D02*
X33514286Y-55972403D01*
X33514286Y-55972403D02*
X33476191Y-55991451D01*
X33476191Y-55991451D02*
X33323810Y-55991451D01*
X33704762Y-55820022D02*
X33723810Y-55800975D01*
X33723810Y-55800975D02*
X33761905Y-55781927D01*
X33761905Y-55781927D02*
X33857143Y-55781927D01*
X33857143Y-55781927D02*
X33895238Y-55800975D01*
X33895238Y-55800975D02*
X33914286Y-55820022D01*
X33914286Y-55820022D02*
X33933333Y-55858118D01*
X33933333Y-55858118D02*
X33933333Y-55896213D01*
X33933333Y-55896213D02*
X33914286Y-55953356D01*
X33914286Y-55953356D02*
X33685714Y-56181927D01*
X33685714Y-56181927D02*
X33933333Y-56181927D01*
X34180952Y-55781927D02*
X34219047Y-55781927D01*
X34219047Y-55781927D02*
X34257143Y-55800975D01*
X34257143Y-55800975D02*
X34276190Y-55820022D01*
X34276190Y-55820022D02*
X34295238Y-55858118D01*
X34295238Y-55858118D02*
X34314285Y-55934308D01*
X34314285Y-55934308D02*
X34314285Y-56029546D01*
X34314285Y-56029546D02*
X34295238Y-56105737D01*
X34295238Y-56105737D02*
X34276190Y-56143832D01*
X34276190Y-56143832D02*
X34257143Y-56162880D01*
X34257143Y-56162880D02*
X34219047Y-56181927D01*
X34219047Y-56181927D02*
X34180952Y-56181927D01*
X34180952Y-56181927D02*
X34142857Y-56162880D01*
X34142857Y-56162880D02*
X34123809Y-56143832D01*
X34123809Y-56143832D02*
X34104762Y-56105737D01*
X34104762Y-56105737D02*
X34085714Y-56029546D01*
X34085714Y-56029546D02*
X34085714Y-55934308D01*
X34085714Y-55934308D02*
X34104762Y-55858118D01*
X34104762Y-55858118D02*
X34123809Y-55820022D01*
X34123809Y-55820022D02*
X34142857Y-55800975D01*
X34142857Y-55800975D02*
X34180952Y-55781927D01*
X34676190Y-55781927D02*
X34485714Y-55781927D01*
X34485714Y-55781927D02*
X34466666Y-55972403D01*
X34466666Y-55972403D02*
X34485714Y-55953356D01*
X34485714Y-55953356D02*
X34523809Y-55934308D01*
X34523809Y-55934308D02*
X34619047Y-55934308D01*
X34619047Y-55934308D02*
X34657142Y-55953356D01*
X34657142Y-55953356D02*
X34676190Y-55972403D01*
X34676190Y-55972403D02*
X34695237Y-56010499D01*
X34695237Y-56010499D02*
X34695237Y-56105737D01*
X34695237Y-56105737D02*
X34676190Y-56143832D01*
X34676190Y-56143832D02*
X34657142Y-56162880D01*
X34657142Y-56162880D02*
X34619047Y-56181927D01*
X34619047Y-56181927D02*
X34523809Y-56181927D01*
X34523809Y-56181927D02*
X34485714Y-56162880D01*
X34485714Y-56162880D02*
X34466666Y-56143832D01*
D10*
X23877381Y-31049519D02*
X23877381Y-31763804D01*
X23877381Y-31763804D02*
X23829762Y-31906661D01*
X23829762Y-31906661D02*
X23734524Y-32001900D01*
X23734524Y-32001900D02*
X23591667Y-32049519D01*
X23591667Y-32049519D02*
X23496429Y-32049519D01*
X24686905Y-31525709D02*
X24353572Y-31525709D01*
X24353572Y-32049519D02*
X24353572Y-31049519D01*
X24353572Y-31049519D02*
X24829762Y-31049519D01*
X25544048Y-31525709D02*
X25686905Y-31573328D01*
X25686905Y-31573328D02*
X25734524Y-31620947D01*
X25734524Y-31620947D02*
X25782143Y-31716185D01*
X25782143Y-31716185D02*
X25782143Y-31859042D01*
X25782143Y-31859042D02*
X25734524Y-31954280D01*
X25734524Y-31954280D02*
X25686905Y-32001900D01*
X25686905Y-32001900D02*
X25591667Y-32049519D01*
X25591667Y-32049519D02*
X25210715Y-32049519D01*
X25210715Y-32049519D02*
X25210715Y-31049519D01*
X25210715Y-31049519D02*
X25544048Y-31049519D01*
X25544048Y-31049519D02*
X25639286Y-31097138D01*
X25639286Y-31097138D02*
X25686905Y-31144757D01*
X25686905Y-31144757D02*
X25734524Y-31239995D01*
X25734524Y-31239995D02*
X25734524Y-31335233D01*
X25734524Y-31335233D02*
X25686905Y-31430471D01*
X25686905Y-31430471D02*
X25639286Y-31478090D01*
X25639286Y-31478090D02*
X25544048Y-31525709D01*
X25544048Y-31525709D02*
X25210715Y-31525709D01*
X26210715Y-31668566D02*
X26972620Y-31668566D01*
X27448810Y-32049519D02*
X27448810Y-31049519D01*
X27925000Y-32049519D02*
X27925000Y-31049519D01*
X27925000Y-31049519D02*
X28496428Y-32049519D01*
X28496428Y-32049519D02*
X28496428Y-31049519D01*
X29258333Y-31049519D02*
X29258333Y-31763804D01*
X29258333Y-31763804D02*
X29210714Y-31906661D01*
X29210714Y-31906661D02*
X29115476Y-32001900D01*
X29115476Y-32001900D02*
X28972619Y-32049519D01*
X28972619Y-32049519D02*
X28877381Y-32049519D01*
X24734524Y-30149519D02*
X24734524Y-29149519D01*
X24734524Y-29149519D02*
X25115476Y-29149519D01*
X25115476Y-29149519D02*
X25210714Y-29197138D01*
X25210714Y-29197138D02*
X25258333Y-29244757D01*
X25258333Y-29244757D02*
X25305952Y-29339995D01*
X25305952Y-29339995D02*
X25305952Y-29482852D01*
X25305952Y-29482852D02*
X25258333Y-29578090D01*
X25258333Y-29578090D02*
X25210714Y-29625709D01*
X25210714Y-29625709D02*
X25115476Y-29673328D01*
X25115476Y-29673328D02*
X24734524Y-29673328D01*
X25686905Y-29244757D02*
X25734524Y-29197138D01*
X25734524Y-29197138D02*
X25829762Y-29149519D01*
X25829762Y-29149519D02*
X26067857Y-29149519D01*
X26067857Y-29149519D02*
X26163095Y-29197138D01*
X26163095Y-29197138D02*
X26210714Y-29244757D01*
X26210714Y-29244757D02*
X26258333Y-29339995D01*
X26258333Y-29339995D02*
X26258333Y-29435233D01*
X26258333Y-29435233D02*
X26210714Y-29578090D01*
X26210714Y-29578090D02*
X25639286Y-30149519D01*
X25639286Y-30149519D02*
X26258333Y-30149519D01*
X26877381Y-29149519D02*
X26972619Y-29149519D01*
X26972619Y-29149519D02*
X27067857Y-29197138D01*
X27067857Y-29197138D02*
X27115476Y-29244757D01*
X27115476Y-29244757D02*
X27163095Y-29339995D01*
X27163095Y-29339995D02*
X27210714Y-29530471D01*
X27210714Y-29530471D02*
X27210714Y-29768566D01*
X27210714Y-29768566D02*
X27163095Y-29959042D01*
X27163095Y-29959042D02*
X27115476Y-30054280D01*
X27115476Y-30054280D02*
X27067857Y-30101900D01*
X27067857Y-30101900D02*
X26972619Y-30149519D01*
X26972619Y-30149519D02*
X26877381Y-30149519D01*
X26877381Y-30149519D02*
X26782143Y-30101900D01*
X26782143Y-30101900D02*
X26734524Y-30054280D01*
X26734524Y-30054280D02*
X26686905Y-29959042D01*
X26686905Y-29959042D02*
X26639286Y-29768566D01*
X26639286Y-29768566D02*
X26639286Y-29530471D01*
X26639286Y-29530471D02*
X26686905Y-29339995D01*
X26686905Y-29339995D02*
X26734524Y-29244757D01*
X26734524Y-29244757D02*
X26782143Y-29197138D01*
X26782143Y-29197138D02*
X26877381Y-29149519D01*
X28115476Y-29149519D02*
X27639286Y-29149519D01*
X27639286Y-29149519D02*
X27591667Y-29625709D01*
X27591667Y-29625709D02*
X27639286Y-29578090D01*
X27639286Y-29578090D02*
X27734524Y-29530471D01*
X27734524Y-29530471D02*
X27972619Y-29530471D01*
X27972619Y-29530471D02*
X28067857Y-29578090D01*
X28067857Y-29578090D02*
X28115476Y-29625709D01*
X28115476Y-29625709D02*
X28163095Y-29720947D01*
X28163095Y-29720947D02*
X28163095Y-29959042D01*
X28163095Y-29959042D02*
X28115476Y-30054280D01*
X28115476Y-30054280D02*
X28067857Y-30101900D01*
X28067857Y-30101900D02*
X27972619Y-30149519D01*
X27972619Y-30149519D02*
X27734524Y-30149519D01*
X27734524Y-30149519D02*
X27639286Y-30101900D01*
X27639286Y-30101900D02*
X27591667Y-30054280D01*
X80928571Y-67154819D02*
X80357143Y-67154819D01*
X80642857Y-67154819D02*
X80642857Y-66154819D01*
X80642857Y-66154819D02*
X80547619Y-66297676D01*
X80547619Y-66297676D02*
X80452381Y-66392914D01*
X80452381Y-66392914D02*
X80357143Y-66440533D01*
X81547619Y-66154819D02*
X81642857Y-66154819D01*
X81642857Y-66154819D02*
X81738095Y-66202438D01*
X81738095Y-66202438D02*
X81785714Y-66250057D01*
X81785714Y-66250057D02*
X81833333Y-66345295D01*
X81833333Y-66345295D02*
X81880952Y-66535771D01*
X81880952Y-66535771D02*
X81880952Y-66773866D01*
X81880952Y-66773866D02*
X81833333Y-66964342D01*
X81833333Y-66964342D02*
X81785714Y-67059580D01*
X81785714Y-67059580D02*
X81738095Y-67107200D01*
X81738095Y-67107200D02*
X81642857Y-67154819D01*
X81642857Y-67154819D02*
X81547619Y-67154819D01*
X81547619Y-67154819D02*
X81452381Y-67107200D01*
X81452381Y-67107200D02*
X81404762Y-67059580D01*
X81404762Y-67059580D02*
X81357143Y-66964342D01*
X81357143Y-66964342D02*
X81309524Y-66773866D01*
X81309524Y-66773866D02*
X81309524Y-66535771D01*
X81309524Y-66535771D02*
X81357143Y-66345295D01*
X81357143Y-66345295D02*
X81404762Y-66250057D01*
X81404762Y-66250057D02*
X81452381Y-66202438D01*
X81452381Y-66202438D02*
X81547619Y-66154819D01*
X82738095Y-66488152D02*
X82738095Y-67154819D01*
X82309524Y-66488152D02*
X82309524Y-67011961D01*
X82309524Y-67011961D02*
X82357143Y-67107200D01*
X82357143Y-67107200D02*
X82452381Y-67154819D01*
X82452381Y-67154819D02*
X82595238Y-67154819D01*
X82595238Y-67154819D02*
X82690476Y-67107200D01*
X82690476Y-67107200D02*
X82738095Y-67059580D01*
X83547619Y-66631009D02*
X83214286Y-66631009D01*
X83214286Y-67154819D02*
X83214286Y-66154819D01*
X83214286Y-66154819D02*
X83690476Y-66154819D01*
X80880952Y-63359580D02*
X80833333Y-63407200D01*
X80833333Y-63407200D02*
X80690476Y-63454819D01*
X80690476Y-63454819D02*
X80595238Y-63454819D01*
X80595238Y-63454819D02*
X80452381Y-63407200D01*
X80452381Y-63407200D02*
X80357143Y-63311961D01*
X80357143Y-63311961D02*
X80309524Y-63216723D01*
X80309524Y-63216723D02*
X80261905Y-63026247D01*
X80261905Y-63026247D02*
X80261905Y-62883390D01*
X80261905Y-62883390D02*
X80309524Y-62692914D01*
X80309524Y-62692914D02*
X80357143Y-62597676D01*
X80357143Y-62597676D02*
X80452381Y-62502438D01*
X80452381Y-62502438D02*
X80595238Y-62454819D01*
X80595238Y-62454819D02*
X80690476Y-62454819D01*
X80690476Y-62454819D02*
X80833333Y-62502438D01*
X80833333Y-62502438D02*
X80880952Y-62550057D01*
X81261905Y-62550057D02*
X81309524Y-62502438D01*
X81309524Y-62502438D02*
X81404762Y-62454819D01*
X81404762Y-62454819D02*
X81642857Y-62454819D01*
X81642857Y-62454819D02*
X81738095Y-62502438D01*
X81738095Y-62502438D02*
X81785714Y-62550057D01*
X81785714Y-62550057D02*
X81833333Y-62645295D01*
X81833333Y-62645295D02*
X81833333Y-62740533D01*
X81833333Y-62740533D02*
X81785714Y-62883390D01*
X81785714Y-62883390D02*
X81214286Y-63454819D01*
X81214286Y-63454819D02*
X81833333Y-63454819D01*
X82309524Y-63454819D02*
X82500000Y-63454819D01*
X82500000Y-63454819D02*
X82595238Y-63407200D01*
X82595238Y-63407200D02*
X82642857Y-63359580D01*
X82642857Y-63359580D02*
X82738095Y-63216723D01*
X82738095Y-63216723D02*
X82785714Y-63026247D01*
X82785714Y-63026247D02*
X82785714Y-62645295D01*
X82785714Y-62645295D02*
X82738095Y-62550057D01*
X82738095Y-62550057D02*
X82690476Y-62502438D01*
X82690476Y-62502438D02*
X82595238Y-62454819D01*
X82595238Y-62454819D02*
X82404762Y-62454819D01*
X82404762Y-62454819D02*
X82309524Y-62502438D01*
X82309524Y-62502438D02*
X82261905Y-62550057D01*
X82261905Y-62550057D02*
X82214286Y-62645295D01*
X82214286Y-62645295D02*
X82214286Y-62883390D01*
X82214286Y-62883390D02*
X82261905Y-62978628D01*
X82261905Y-62978628D02*
X82309524Y-63026247D01*
X82309524Y-63026247D02*
X82404762Y-63073866D01*
X82404762Y-63073866D02*
X82595238Y-63073866D01*
X82595238Y-63073866D02*
X82690476Y-63026247D01*
X82690476Y-63026247D02*
X82738095Y-62978628D01*
X82738095Y-62978628D02*
X82785714Y-62883390D01*
X83642857Y-62454819D02*
X83452381Y-62454819D01*
X83452381Y-62454819D02*
X83357143Y-62502438D01*
X83357143Y-62502438D02*
X83309524Y-62550057D01*
X83309524Y-62550057D02*
X83214286Y-62692914D01*
X83214286Y-62692914D02*
X83166667Y-62883390D01*
X83166667Y-62883390D02*
X83166667Y-63264342D01*
X83166667Y-63264342D02*
X83214286Y-63359580D01*
X83214286Y-63359580D02*
X83261905Y-63407200D01*
X83261905Y-63407200D02*
X83357143Y-63454819D01*
X83357143Y-63454819D02*
X83547619Y-63454819D01*
X83547619Y-63454819D02*
X83642857Y-63407200D01*
X83642857Y-63407200D02*
X83690476Y-63359580D01*
X83690476Y-63359580D02*
X83738095Y-63264342D01*
X83738095Y-63264342D02*
X83738095Y-63026247D01*
X83738095Y-63026247D02*
X83690476Y-62931009D01*
X83690476Y-62931009D02*
X83642857Y-62883390D01*
X83642857Y-62883390D02*
X83547619Y-62835771D01*
X83547619Y-62835771D02*
X83357143Y-62835771D01*
X83357143Y-62835771D02*
X83261905Y-62883390D01*
X83261905Y-62883390D02*
X83214286Y-62931009D01*
X83214286Y-62931009D02*
X83166667Y-63026247D01*
X87210000Y-18203019D02*
X87210000Y-18917304D01*
X87210000Y-18917304D02*
X87162381Y-19060161D01*
X87162381Y-19060161D02*
X87067143Y-19155400D01*
X87067143Y-19155400D02*
X86924286Y-19203019D01*
X86924286Y-19203019D02*
X86829048Y-19203019D01*
X87686191Y-18679209D02*
X88019524Y-18679209D01*
X88162381Y-19203019D02*
X87686191Y-19203019D01*
X87686191Y-19203019D02*
X87686191Y-18203019D01*
X87686191Y-18203019D02*
X88162381Y-18203019D01*
X89162381Y-19203019D02*
X88829048Y-18726828D01*
X88590953Y-19203019D02*
X88590953Y-18203019D01*
X88590953Y-18203019D02*
X88971905Y-18203019D01*
X88971905Y-18203019D02*
X89067143Y-18250638D01*
X89067143Y-18250638D02*
X89114762Y-18298257D01*
X89114762Y-18298257D02*
X89162381Y-18393495D01*
X89162381Y-18393495D02*
X89162381Y-18536352D01*
X89162381Y-18536352D02*
X89114762Y-18631590D01*
X89114762Y-18631590D02*
X89067143Y-18679209D01*
X89067143Y-18679209D02*
X88971905Y-18726828D01*
X88971905Y-18726828D02*
X88590953Y-18726828D01*
X89590953Y-18822066D02*
X90352858Y-18822066D01*
X90829048Y-19203019D02*
X90829048Y-18203019D01*
X90829048Y-18203019D02*
X91210000Y-18203019D01*
X91210000Y-18203019D02*
X91305238Y-18250638D01*
X91305238Y-18250638D02*
X91352857Y-18298257D01*
X91352857Y-18298257D02*
X91400476Y-18393495D01*
X91400476Y-18393495D02*
X91400476Y-18536352D01*
X91400476Y-18536352D02*
X91352857Y-18631590D01*
X91352857Y-18631590D02*
X91305238Y-18679209D01*
X91305238Y-18679209D02*
X91210000Y-18726828D01*
X91210000Y-18726828D02*
X90829048Y-18726828D01*
X91733810Y-18203019D02*
X91971905Y-19203019D01*
X91971905Y-19203019D02*
X92162381Y-18488733D01*
X92162381Y-18488733D02*
X92352857Y-19203019D01*
X92352857Y-19203019D02*
X92590953Y-18203019D01*
X93543333Y-19203019D02*
X93210000Y-18726828D01*
X92971905Y-19203019D02*
X92971905Y-18203019D01*
X92971905Y-18203019D02*
X93352857Y-18203019D01*
X93352857Y-18203019D02*
X93448095Y-18250638D01*
X93448095Y-18250638D02*
X93495714Y-18298257D01*
X93495714Y-18298257D02*
X93543333Y-18393495D01*
X93543333Y-18393495D02*
X93543333Y-18536352D01*
X93543333Y-18536352D02*
X93495714Y-18631590D01*
X93495714Y-18631590D02*
X93448095Y-18679209D01*
X93448095Y-18679209D02*
X93352857Y-18726828D01*
X93352857Y-18726828D02*
X92971905Y-18726828D01*
X88519524Y-17303019D02*
X88519524Y-16303019D01*
X88519524Y-16303019D02*
X88900476Y-16303019D01*
X88900476Y-16303019D02*
X88995714Y-16350638D01*
X88995714Y-16350638D02*
X89043333Y-16398257D01*
X89043333Y-16398257D02*
X89090952Y-16493495D01*
X89090952Y-16493495D02*
X89090952Y-16636352D01*
X89090952Y-16636352D02*
X89043333Y-16731590D01*
X89043333Y-16731590D02*
X88995714Y-16779209D01*
X88995714Y-16779209D02*
X88900476Y-16826828D01*
X88900476Y-16826828D02*
X88519524Y-16826828D01*
X89471905Y-16398257D02*
X89519524Y-16350638D01*
X89519524Y-16350638D02*
X89614762Y-16303019D01*
X89614762Y-16303019D02*
X89852857Y-16303019D01*
X89852857Y-16303019D02*
X89948095Y-16350638D01*
X89948095Y-16350638D02*
X89995714Y-16398257D01*
X89995714Y-16398257D02*
X90043333Y-16493495D01*
X90043333Y-16493495D02*
X90043333Y-16588733D01*
X90043333Y-16588733D02*
X89995714Y-16731590D01*
X89995714Y-16731590D02*
X89424286Y-17303019D01*
X89424286Y-17303019D02*
X90043333Y-17303019D01*
X90662381Y-16303019D02*
X90757619Y-16303019D01*
X90757619Y-16303019D02*
X90852857Y-16350638D01*
X90852857Y-16350638D02*
X90900476Y-16398257D01*
X90900476Y-16398257D02*
X90948095Y-16493495D01*
X90948095Y-16493495D02*
X90995714Y-16683971D01*
X90995714Y-16683971D02*
X90995714Y-16922066D01*
X90995714Y-16922066D02*
X90948095Y-17112542D01*
X90948095Y-17112542D02*
X90900476Y-17207780D01*
X90900476Y-17207780D02*
X90852857Y-17255400D01*
X90852857Y-17255400D02*
X90757619Y-17303019D01*
X90757619Y-17303019D02*
X90662381Y-17303019D01*
X90662381Y-17303019D02*
X90567143Y-17255400D01*
X90567143Y-17255400D02*
X90519524Y-17207780D01*
X90519524Y-17207780D02*
X90471905Y-17112542D01*
X90471905Y-17112542D02*
X90424286Y-16922066D01*
X90424286Y-16922066D02*
X90424286Y-16683971D01*
X90424286Y-16683971D02*
X90471905Y-16493495D01*
X90471905Y-16493495D02*
X90519524Y-16398257D01*
X90519524Y-16398257D02*
X90567143Y-16350638D01*
X90567143Y-16350638D02*
X90662381Y-16303019D01*
X91329048Y-16303019D02*
X91995714Y-16303019D01*
X91995714Y-16303019D02*
X91567143Y-17303019D01*
X70928571Y-67154819D02*
X70357143Y-67154819D01*
X70642857Y-67154819D02*
X70642857Y-66154819D01*
X70642857Y-66154819D02*
X70547619Y-66297676D01*
X70547619Y-66297676D02*
X70452381Y-66392914D01*
X70452381Y-66392914D02*
X70357143Y-66440533D01*
X71547619Y-66154819D02*
X71642857Y-66154819D01*
X71642857Y-66154819D02*
X71738095Y-66202438D01*
X71738095Y-66202438D02*
X71785714Y-66250057D01*
X71785714Y-66250057D02*
X71833333Y-66345295D01*
X71833333Y-66345295D02*
X71880952Y-66535771D01*
X71880952Y-66535771D02*
X71880952Y-66773866D01*
X71880952Y-66773866D02*
X71833333Y-66964342D01*
X71833333Y-66964342D02*
X71785714Y-67059580D01*
X71785714Y-67059580D02*
X71738095Y-67107200D01*
X71738095Y-67107200D02*
X71642857Y-67154819D01*
X71642857Y-67154819D02*
X71547619Y-67154819D01*
X71547619Y-67154819D02*
X71452381Y-67107200D01*
X71452381Y-67107200D02*
X71404762Y-67059580D01*
X71404762Y-67059580D02*
X71357143Y-66964342D01*
X71357143Y-66964342D02*
X71309524Y-66773866D01*
X71309524Y-66773866D02*
X71309524Y-66535771D01*
X71309524Y-66535771D02*
X71357143Y-66345295D01*
X71357143Y-66345295D02*
X71404762Y-66250057D01*
X71404762Y-66250057D02*
X71452381Y-66202438D01*
X71452381Y-66202438D02*
X71547619Y-66154819D01*
X72738095Y-66488152D02*
X72738095Y-67154819D01*
X72309524Y-66488152D02*
X72309524Y-67011961D01*
X72309524Y-67011961D02*
X72357143Y-67107200D01*
X72357143Y-67107200D02*
X72452381Y-67154819D01*
X72452381Y-67154819D02*
X72595238Y-67154819D01*
X72595238Y-67154819D02*
X72690476Y-67107200D01*
X72690476Y-67107200D02*
X72738095Y-67059580D01*
X73547619Y-66631009D02*
X73214286Y-66631009D01*
X73214286Y-67154819D02*
X73214286Y-66154819D01*
X73214286Y-66154819D02*
X73690476Y-66154819D01*
X70880952Y-63359580D02*
X70833333Y-63407200D01*
X70833333Y-63407200D02*
X70690476Y-63454819D01*
X70690476Y-63454819D02*
X70595238Y-63454819D01*
X70595238Y-63454819D02*
X70452381Y-63407200D01*
X70452381Y-63407200D02*
X70357143Y-63311961D01*
X70357143Y-63311961D02*
X70309524Y-63216723D01*
X70309524Y-63216723D02*
X70261905Y-63026247D01*
X70261905Y-63026247D02*
X70261905Y-62883390D01*
X70261905Y-62883390D02*
X70309524Y-62692914D01*
X70309524Y-62692914D02*
X70357143Y-62597676D01*
X70357143Y-62597676D02*
X70452381Y-62502438D01*
X70452381Y-62502438D02*
X70595238Y-62454819D01*
X70595238Y-62454819D02*
X70690476Y-62454819D01*
X70690476Y-62454819D02*
X70833333Y-62502438D01*
X70833333Y-62502438D02*
X70880952Y-62550057D01*
X71261905Y-62550057D02*
X71309524Y-62502438D01*
X71309524Y-62502438D02*
X71404762Y-62454819D01*
X71404762Y-62454819D02*
X71642857Y-62454819D01*
X71642857Y-62454819D02*
X71738095Y-62502438D01*
X71738095Y-62502438D02*
X71785714Y-62550057D01*
X71785714Y-62550057D02*
X71833333Y-62645295D01*
X71833333Y-62645295D02*
X71833333Y-62740533D01*
X71833333Y-62740533D02*
X71785714Y-62883390D01*
X71785714Y-62883390D02*
X71214286Y-63454819D01*
X71214286Y-63454819D02*
X71833333Y-63454819D01*
X72309524Y-63454819D02*
X72500000Y-63454819D01*
X72500000Y-63454819D02*
X72595238Y-63407200D01*
X72595238Y-63407200D02*
X72642857Y-63359580D01*
X72642857Y-63359580D02*
X72738095Y-63216723D01*
X72738095Y-63216723D02*
X72785714Y-63026247D01*
X72785714Y-63026247D02*
X72785714Y-62645295D01*
X72785714Y-62645295D02*
X72738095Y-62550057D01*
X72738095Y-62550057D02*
X72690476Y-62502438D01*
X72690476Y-62502438D02*
X72595238Y-62454819D01*
X72595238Y-62454819D02*
X72404762Y-62454819D01*
X72404762Y-62454819D02*
X72309524Y-62502438D01*
X72309524Y-62502438D02*
X72261905Y-62550057D01*
X72261905Y-62550057D02*
X72214286Y-62645295D01*
X72214286Y-62645295D02*
X72214286Y-62883390D01*
X72214286Y-62883390D02*
X72261905Y-62978628D01*
X72261905Y-62978628D02*
X72309524Y-63026247D01*
X72309524Y-63026247D02*
X72404762Y-63073866D01*
X72404762Y-63073866D02*
X72595238Y-63073866D01*
X72595238Y-63073866D02*
X72690476Y-63026247D01*
X72690476Y-63026247D02*
X72738095Y-62978628D01*
X72738095Y-62978628D02*
X72785714Y-62883390D01*
X73642857Y-62788152D02*
X73642857Y-63454819D01*
X73404762Y-62407200D02*
X73166667Y-63121485D01*
X73166667Y-63121485D02*
X73785714Y-63121485D01*
X50928571Y-57884819D02*
X50357143Y-57884819D01*
X50642857Y-57884819D02*
X50642857Y-56884819D01*
X50642857Y-56884819D02*
X50547619Y-57027676D01*
X50547619Y-57027676D02*
X50452381Y-57122914D01*
X50452381Y-57122914D02*
X50357143Y-57170533D01*
X51547619Y-56884819D02*
X51642857Y-56884819D01*
X51642857Y-56884819D02*
X51738095Y-56932438D01*
X51738095Y-56932438D02*
X51785714Y-56980057D01*
X51785714Y-56980057D02*
X51833333Y-57075295D01*
X51833333Y-57075295D02*
X51880952Y-57265771D01*
X51880952Y-57265771D02*
X51880952Y-57503866D01*
X51880952Y-57503866D02*
X51833333Y-57694342D01*
X51833333Y-57694342D02*
X51785714Y-57789580D01*
X51785714Y-57789580D02*
X51738095Y-57837200D01*
X51738095Y-57837200D02*
X51642857Y-57884819D01*
X51642857Y-57884819D02*
X51547619Y-57884819D01*
X51547619Y-57884819D02*
X51452381Y-57837200D01*
X51452381Y-57837200D02*
X51404762Y-57789580D01*
X51404762Y-57789580D02*
X51357143Y-57694342D01*
X51357143Y-57694342D02*
X51309524Y-57503866D01*
X51309524Y-57503866D02*
X51309524Y-57265771D01*
X51309524Y-57265771D02*
X51357143Y-57075295D01*
X51357143Y-57075295D02*
X51404762Y-56980057D01*
X51404762Y-56980057D02*
X51452381Y-56932438D01*
X51452381Y-56932438D02*
X51547619Y-56884819D01*
X52500000Y-56884819D02*
X52595238Y-56884819D01*
X52595238Y-56884819D02*
X52690476Y-56932438D01*
X52690476Y-56932438D02*
X52738095Y-56980057D01*
X52738095Y-56980057D02*
X52785714Y-57075295D01*
X52785714Y-57075295D02*
X52833333Y-57265771D01*
X52833333Y-57265771D02*
X52833333Y-57503866D01*
X52833333Y-57503866D02*
X52785714Y-57694342D01*
X52785714Y-57694342D02*
X52738095Y-57789580D01*
X52738095Y-57789580D02*
X52690476Y-57837200D01*
X52690476Y-57837200D02*
X52595238Y-57884819D01*
X52595238Y-57884819D02*
X52500000Y-57884819D01*
X52500000Y-57884819D02*
X52404762Y-57837200D01*
X52404762Y-57837200D02*
X52357143Y-57789580D01*
X52357143Y-57789580D02*
X52309524Y-57694342D01*
X52309524Y-57694342D02*
X52261905Y-57503866D01*
X52261905Y-57503866D02*
X52261905Y-57265771D01*
X52261905Y-57265771D02*
X52309524Y-57075295D01*
X52309524Y-57075295D02*
X52357143Y-56980057D01*
X52357143Y-56980057D02*
X52404762Y-56932438D01*
X52404762Y-56932438D02*
X52500000Y-56884819D01*
X53261905Y-57884819D02*
X53261905Y-56884819D01*
X53357143Y-57503866D02*
X53642857Y-57884819D01*
X53642857Y-57218152D02*
X53261905Y-57599104D01*
D11*
X51552381Y-56181927D02*
X51419048Y-55991451D01*
X51323810Y-56181927D02*
X51323810Y-55781927D01*
X51323810Y-55781927D02*
X51476191Y-55781927D01*
X51476191Y-55781927D02*
X51514286Y-55800975D01*
X51514286Y-55800975D02*
X51533333Y-55820022D01*
X51533333Y-55820022D02*
X51552381Y-55858118D01*
X51552381Y-55858118D02*
X51552381Y-55915260D01*
X51552381Y-55915260D02*
X51533333Y-55953356D01*
X51533333Y-55953356D02*
X51514286Y-55972403D01*
X51514286Y-55972403D02*
X51476191Y-55991451D01*
X51476191Y-55991451D02*
X51323810Y-55991451D01*
X51704762Y-55820022D02*
X51723810Y-55800975D01*
X51723810Y-55800975D02*
X51761905Y-55781927D01*
X51761905Y-55781927D02*
X51857143Y-55781927D01*
X51857143Y-55781927D02*
X51895238Y-55800975D01*
X51895238Y-55800975D02*
X51914286Y-55820022D01*
X51914286Y-55820022D02*
X51933333Y-55858118D01*
X51933333Y-55858118D02*
X51933333Y-55896213D01*
X51933333Y-55896213D02*
X51914286Y-55953356D01*
X51914286Y-55953356D02*
X51685714Y-56181927D01*
X51685714Y-56181927D02*
X51933333Y-56181927D01*
X52314285Y-56181927D02*
X52085714Y-56181927D01*
X52200000Y-56181927D02*
X52200000Y-55781927D01*
X52200000Y-55781927D02*
X52161904Y-55839070D01*
X52161904Y-55839070D02*
X52123809Y-55877165D01*
X52123809Y-55877165D02*
X52085714Y-55896213D01*
X52695237Y-56181927D02*
X52466666Y-56181927D01*
X52580952Y-56181927D02*
X52580952Y-55781927D01*
X52580952Y-55781927D02*
X52542856Y-55839070D01*
X52542856Y-55839070D02*
X52504761Y-55877165D01*
X52504761Y-55877165D02*
X52466666Y-55896213D01*
D10*
X113380952Y-81104819D02*
X113380952Y-80104819D01*
X113380952Y-80104819D02*
X113714285Y-80819104D01*
X113714285Y-80819104D02*
X114047618Y-80104819D01*
X114047618Y-80104819D02*
X114047618Y-81104819D01*
X114428571Y-80104819D02*
X115047618Y-80104819D01*
X115047618Y-80104819D02*
X114714285Y-80485771D01*
X114714285Y-80485771D02*
X114857142Y-80485771D01*
X114857142Y-80485771D02*
X114952380Y-80533390D01*
X114952380Y-80533390D02*
X114999999Y-80581009D01*
X114999999Y-80581009D02*
X115047618Y-80676247D01*
X115047618Y-80676247D02*
X115047618Y-80914342D01*
X115047618Y-80914342D02*
X114999999Y-81009580D01*
X114999999Y-81009580D02*
X114952380Y-81057200D01*
X114952380Y-81057200D02*
X114857142Y-81104819D01*
X114857142Y-81104819D02*
X114571428Y-81104819D01*
X114571428Y-81104819D02*
X114476190Y-81057200D01*
X114476190Y-81057200D02*
X114428571Y-81009580D01*
X116238095Y-81104819D02*
X116238095Y-80104819D01*
X116238095Y-80104819D02*
X116809523Y-81104819D01*
X116809523Y-81104819D02*
X116809523Y-80104819D01*
X117285714Y-81104819D02*
X117285714Y-80104819D01*
X117285714Y-80104819D02*
X117666666Y-80104819D01*
X117666666Y-80104819D02*
X117761904Y-80152438D01*
X117761904Y-80152438D02*
X117809523Y-80200057D01*
X117809523Y-80200057D02*
X117857142Y-80295295D01*
X117857142Y-80295295D02*
X117857142Y-80438152D01*
X117857142Y-80438152D02*
X117809523Y-80533390D01*
X117809523Y-80533390D02*
X117761904Y-80581009D01*
X117761904Y-80581009D02*
X117666666Y-80628628D01*
X117666666Y-80628628D02*
X117285714Y-80628628D01*
X118142857Y-80104819D02*
X118714285Y-80104819D01*
X118428571Y-81104819D02*
X118428571Y-80104819D01*
X119047619Y-81104819D02*
X119047619Y-80104819D01*
X119047619Y-80581009D02*
X119619047Y-80581009D01*
X119619047Y-81104819D02*
X119619047Y-80104819D01*
X115738095Y-76954819D02*
X115738095Y-75954819D01*
X115738095Y-76431009D02*
X116309523Y-76431009D01*
X116309523Y-76954819D02*
X116309523Y-75954819D01*
X116690476Y-75954819D02*
X117309523Y-75954819D01*
X117309523Y-75954819D02*
X116976190Y-76335771D01*
X116976190Y-76335771D02*
X117119047Y-76335771D01*
X117119047Y-76335771D02*
X117214285Y-76383390D01*
X117214285Y-76383390D02*
X117261904Y-76431009D01*
X117261904Y-76431009D02*
X117309523Y-76526247D01*
X117309523Y-76526247D02*
X117309523Y-76764342D01*
X117309523Y-76764342D02*
X117261904Y-76859580D01*
X117261904Y-76859580D02*
X117214285Y-76907200D01*
X117214285Y-76907200D02*
X117119047Y-76954819D01*
X117119047Y-76954819D02*
X116833333Y-76954819D01*
X116833333Y-76954819D02*
X116738095Y-76907200D01*
X116738095Y-76907200D02*
X116690476Y-76859580D01*
X103285714Y-48554819D02*
X102714286Y-48554819D01*
X103000000Y-48554819D02*
X103000000Y-47554819D01*
X103000000Y-47554819D02*
X102904762Y-47697676D01*
X102904762Y-47697676D02*
X102809524Y-47792914D01*
X102809524Y-47792914D02*
X102714286Y-47840533D01*
X103714286Y-48554819D02*
X103714286Y-47554819D01*
X103714286Y-47554819D02*
X104285714Y-48554819D01*
X104285714Y-48554819D02*
X104285714Y-47554819D01*
X105190476Y-47888152D02*
X105190476Y-48554819D01*
X104952381Y-47507200D02*
X104714286Y-48221485D01*
X104714286Y-48221485D02*
X105333333Y-48221485D01*
X106238095Y-48554819D02*
X105666667Y-48554819D01*
X105952381Y-48554819D02*
X105952381Y-47554819D01*
X105952381Y-47554819D02*
X105857143Y-47697676D01*
X105857143Y-47697676D02*
X105761905Y-47792914D01*
X105761905Y-47792914D02*
X105666667Y-47840533D01*
X107095238Y-47888152D02*
X107095238Y-48554819D01*
X106857143Y-47507200D02*
X106619048Y-48221485D01*
X106619048Y-48221485D02*
X107238095Y-48221485D01*
X107761905Y-47983390D02*
X107666667Y-47935771D01*
X107666667Y-47935771D02*
X107619048Y-47888152D01*
X107619048Y-47888152D02*
X107571429Y-47792914D01*
X107571429Y-47792914D02*
X107571429Y-47745295D01*
X107571429Y-47745295D02*
X107619048Y-47650057D01*
X107619048Y-47650057D02*
X107666667Y-47602438D01*
X107666667Y-47602438D02*
X107761905Y-47554819D01*
X107761905Y-47554819D02*
X107952381Y-47554819D01*
X107952381Y-47554819D02*
X108047619Y-47602438D01*
X108047619Y-47602438D02*
X108095238Y-47650057D01*
X108095238Y-47650057D02*
X108142857Y-47745295D01*
X108142857Y-47745295D02*
X108142857Y-47792914D01*
X108142857Y-47792914D02*
X108095238Y-47888152D01*
X108095238Y-47888152D02*
X108047619Y-47935771D01*
X108047619Y-47935771D02*
X107952381Y-47983390D01*
X107952381Y-47983390D02*
X107761905Y-47983390D01*
X107761905Y-47983390D02*
X107666667Y-48031009D01*
X107666667Y-48031009D02*
X107619048Y-48078628D01*
X107619048Y-48078628D02*
X107571429Y-48173866D01*
X107571429Y-48173866D02*
X107571429Y-48364342D01*
X107571429Y-48364342D02*
X107619048Y-48459580D01*
X107619048Y-48459580D02*
X107666667Y-48507200D01*
X107666667Y-48507200D02*
X107761905Y-48554819D01*
X107761905Y-48554819D02*
X107952381Y-48554819D01*
X107952381Y-48554819D02*
X108047619Y-48507200D01*
X108047619Y-48507200D02*
X108095238Y-48459580D01*
X108095238Y-48459580D02*
X108142857Y-48364342D01*
X108142857Y-48364342D02*
X108142857Y-48173866D01*
X108142857Y-48173866D02*
X108095238Y-48078628D01*
X108095238Y-48078628D02*
X108047619Y-48031009D01*
X108047619Y-48031009D02*
X107952381Y-47983390D01*
X108476191Y-47554819D02*
X108714286Y-48554819D01*
X108714286Y-48554819D02*
X108904762Y-47840533D01*
X108904762Y-47840533D02*
X109095238Y-48554819D01*
X109095238Y-48554819D02*
X109333334Y-47554819D01*
X104309524Y-44454819D02*
X104309524Y-43454819D01*
X104309524Y-43454819D02*
X104547619Y-43454819D01*
X104547619Y-43454819D02*
X104690476Y-43502438D01*
X104690476Y-43502438D02*
X104785714Y-43597676D01*
X104785714Y-43597676D02*
X104833333Y-43692914D01*
X104833333Y-43692914D02*
X104880952Y-43883390D01*
X104880952Y-43883390D02*
X104880952Y-44026247D01*
X104880952Y-44026247D02*
X104833333Y-44216723D01*
X104833333Y-44216723D02*
X104785714Y-44311961D01*
X104785714Y-44311961D02*
X104690476Y-44407200D01*
X104690476Y-44407200D02*
X104547619Y-44454819D01*
X104547619Y-44454819D02*
X104309524Y-44454819D01*
X105261905Y-43550057D02*
X105309524Y-43502438D01*
X105309524Y-43502438D02*
X105404762Y-43454819D01*
X105404762Y-43454819D02*
X105642857Y-43454819D01*
X105642857Y-43454819D02*
X105738095Y-43502438D01*
X105738095Y-43502438D02*
X105785714Y-43550057D01*
X105785714Y-43550057D02*
X105833333Y-43645295D01*
X105833333Y-43645295D02*
X105833333Y-43740533D01*
X105833333Y-43740533D02*
X105785714Y-43883390D01*
X105785714Y-43883390D02*
X105214286Y-44454819D01*
X105214286Y-44454819D02*
X105833333Y-44454819D01*
X106690476Y-43454819D02*
X106500000Y-43454819D01*
X106500000Y-43454819D02*
X106404762Y-43502438D01*
X106404762Y-43502438D02*
X106357143Y-43550057D01*
X106357143Y-43550057D02*
X106261905Y-43692914D01*
X106261905Y-43692914D02*
X106214286Y-43883390D01*
X106214286Y-43883390D02*
X106214286Y-44264342D01*
X106214286Y-44264342D02*
X106261905Y-44359580D01*
X106261905Y-44359580D02*
X106309524Y-44407200D01*
X106309524Y-44407200D02*
X106404762Y-44454819D01*
X106404762Y-44454819D02*
X106595238Y-44454819D01*
X106595238Y-44454819D02*
X106690476Y-44407200D01*
X106690476Y-44407200D02*
X106738095Y-44359580D01*
X106738095Y-44359580D02*
X106785714Y-44264342D01*
X106785714Y-44264342D02*
X106785714Y-44026247D01*
X106785714Y-44026247D02*
X106738095Y-43931009D01*
X106738095Y-43931009D02*
X106690476Y-43883390D01*
X106690476Y-43883390D02*
X106595238Y-43835771D01*
X106595238Y-43835771D02*
X106404762Y-43835771D01*
X106404762Y-43835771D02*
X106309524Y-43883390D01*
X106309524Y-43883390D02*
X106261905Y-43931009D01*
X106261905Y-43931009D02*
X106214286Y-44026247D01*
X107119048Y-43454819D02*
X107738095Y-43454819D01*
X107738095Y-43454819D02*
X107404762Y-43835771D01*
X107404762Y-43835771D02*
X107547619Y-43835771D01*
X107547619Y-43835771D02*
X107642857Y-43883390D01*
X107642857Y-43883390D02*
X107690476Y-43931009D01*
X107690476Y-43931009D02*
X107738095Y-44026247D01*
X107738095Y-44026247D02*
X107738095Y-44264342D01*
X107738095Y-44264342D02*
X107690476Y-44359580D01*
X107690476Y-44359580D02*
X107642857Y-44407200D01*
X107642857Y-44407200D02*
X107547619Y-44454819D01*
X107547619Y-44454819D02*
X107261905Y-44454819D01*
X107261905Y-44454819D02*
X107166667Y-44407200D01*
X107166667Y-44407200D02*
X107119048Y-44359580D01*
X56833333Y-57884819D02*
X56261905Y-57884819D01*
X56547619Y-57884819D02*
X56547619Y-56884819D01*
X56547619Y-56884819D02*
X56452381Y-57027676D01*
X56452381Y-57027676D02*
X56357143Y-57122914D01*
X56357143Y-57122914D02*
X56261905Y-57170533D01*
X57452381Y-56884819D02*
X57547619Y-56884819D01*
X57547619Y-56884819D02*
X57642857Y-56932438D01*
X57642857Y-56932438D02*
X57690476Y-56980057D01*
X57690476Y-56980057D02*
X57738095Y-57075295D01*
X57738095Y-57075295D02*
X57785714Y-57265771D01*
X57785714Y-57265771D02*
X57785714Y-57503866D01*
X57785714Y-57503866D02*
X57738095Y-57694342D01*
X57738095Y-57694342D02*
X57690476Y-57789580D01*
X57690476Y-57789580D02*
X57642857Y-57837200D01*
X57642857Y-57837200D02*
X57547619Y-57884819D01*
X57547619Y-57884819D02*
X57452381Y-57884819D01*
X57452381Y-57884819D02*
X57357143Y-57837200D01*
X57357143Y-57837200D02*
X57309524Y-57789580D01*
X57309524Y-57789580D02*
X57261905Y-57694342D01*
X57261905Y-57694342D02*
X57214286Y-57503866D01*
X57214286Y-57503866D02*
X57214286Y-57265771D01*
X57214286Y-57265771D02*
X57261905Y-57075295D01*
X57261905Y-57075295D02*
X57309524Y-56980057D01*
X57309524Y-56980057D02*
X57357143Y-56932438D01*
X57357143Y-56932438D02*
X57452381Y-56884819D01*
X58404762Y-56884819D02*
X58500000Y-56884819D01*
X58500000Y-56884819D02*
X58595238Y-56932438D01*
X58595238Y-56932438D02*
X58642857Y-56980057D01*
X58642857Y-56980057D02*
X58690476Y-57075295D01*
X58690476Y-57075295D02*
X58738095Y-57265771D01*
X58738095Y-57265771D02*
X58738095Y-57503866D01*
X58738095Y-57503866D02*
X58690476Y-57694342D01*
X58690476Y-57694342D02*
X58642857Y-57789580D01*
X58642857Y-57789580D02*
X58595238Y-57837200D01*
X58595238Y-57837200D02*
X58500000Y-57884819D01*
X58500000Y-57884819D02*
X58404762Y-57884819D01*
X58404762Y-57884819D02*
X58309524Y-57837200D01*
X58309524Y-57837200D02*
X58261905Y-57789580D01*
X58261905Y-57789580D02*
X58214286Y-57694342D01*
X58214286Y-57694342D02*
X58166667Y-57503866D01*
X58166667Y-57503866D02*
X58166667Y-57265771D01*
X58166667Y-57265771D02*
X58214286Y-57075295D01*
X58214286Y-57075295D02*
X58261905Y-56980057D01*
X58261905Y-56980057D02*
X58309524Y-56932438D01*
X58309524Y-56932438D02*
X58404762Y-56884819D01*
X59738095Y-57884819D02*
X59404762Y-57408628D01*
X59166667Y-57884819D02*
X59166667Y-56884819D01*
X59166667Y-56884819D02*
X59547619Y-56884819D01*
X59547619Y-56884819D02*
X59642857Y-56932438D01*
X59642857Y-56932438D02*
X59690476Y-56980057D01*
X59690476Y-56980057D02*
X59738095Y-57075295D01*
X59738095Y-57075295D02*
X59738095Y-57218152D01*
X59738095Y-57218152D02*
X59690476Y-57313390D01*
X59690476Y-57313390D02*
X59642857Y-57361009D01*
X59642857Y-57361009D02*
X59547619Y-57408628D01*
X59547619Y-57408628D02*
X59166667Y-57408628D01*
D11*
X57552381Y-56181927D02*
X57419048Y-55991451D01*
X57323810Y-56181927D02*
X57323810Y-55781927D01*
X57323810Y-55781927D02*
X57476191Y-55781927D01*
X57476191Y-55781927D02*
X57514286Y-55800975D01*
X57514286Y-55800975D02*
X57533333Y-55820022D01*
X57533333Y-55820022D02*
X57552381Y-55858118D01*
X57552381Y-55858118D02*
X57552381Y-55915260D01*
X57552381Y-55915260D02*
X57533333Y-55953356D01*
X57533333Y-55953356D02*
X57514286Y-55972403D01*
X57514286Y-55972403D02*
X57476191Y-55991451D01*
X57476191Y-55991451D02*
X57323810Y-55991451D01*
X57704762Y-55820022D02*
X57723810Y-55800975D01*
X57723810Y-55800975D02*
X57761905Y-55781927D01*
X57761905Y-55781927D02*
X57857143Y-55781927D01*
X57857143Y-55781927D02*
X57895238Y-55800975D01*
X57895238Y-55800975D02*
X57914286Y-55820022D01*
X57914286Y-55820022D02*
X57933333Y-55858118D01*
X57933333Y-55858118D02*
X57933333Y-55896213D01*
X57933333Y-55896213D02*
X57914286Y-55953356D01*
X57914286Y-55953356D02*
X57685714Y-56181927D01*
X57685714Y-56181927D02*
X57933333Y-56181927D01*
X58085714Y-55820022D02*
X58104762Y-55800975D01*
X58104762Y-55800975D02*
X58142857Y-55781927D01*
X58142857Y-55781927D02*
X58238095Y-55781927D01*
X58238095Y-55781927D02*
X58276190Y-55800975D01*
X58276190Y-55800975D02*
X58295238Y-55820022D01*
X58295238Y-55820022D02*
X58314285Y-55858118D01*
X58314285Y-55858118D02*
X58314285Y-55896213D01*
X58314285Y-55896213D02*
X58295238Y-55953356D01*
X58295238Y-55953356D02*
X58066666Y-56181927D01*
X58066666Y-56181927D02*
X58314285Y-56181927D01*
X58695237Y-56181927D02*
X58466666Y-56181927D01*
X58580952Y-56181927D02*
X58580952Y-55781927D01*
X58580952Y-55781927D02*
X58542856Y-55839070D01*
X58542856Y-55839070D02*
X58504761Y-55877165D01*
X58504761Y-55877165D02*
X58466666Y-55896213D01*
D10*
X8833333Y-63884819D02*
X8261905Y-63884819D01*
X8547619Y-63884819D02*
X8547619Y-62884819D01*
X8547619Y-62884819D02*
X8452381Y-63027676D01*
X8452381Y-63027676D02*
X8357143Y-63122914D01*
X8357143Y-63122914D02*
X8261905Y-63170533D01*
X9452381Y-62884819D02*
X9547619Y-62884819D01*
X9547619Y-62884819D02*
X9642857Y-62932438D01*
X9642857Y-62932438D02*
X9690476Y-62980057D01*
X9690476Y-62980057D02*
X9738095Y-63075295D01*
X9738095Y-63075295D02*
X9785714Y-63265771D01*
X9785714Y-63265771D02*
X9785714Y-63503866D01*
X9785714Y-63503866D02*
X9738095Y-63694342D01*
X9738095Y-63694342D02*
X9690476Y-63789580D01*
X9690476Y-63789580D02*
X9642857Y-63837200D01*
X9642857Y-63837200D02*
X9547619Y-63884819D01*
X9547619Y-63884819D02*
X9452381Y-63884819D01*
X9452381Y-63884819D02*
X9357143Y-63837200D01*
X9357143Y-63837200D02*
X9309524Y-63789580D01*
X9309524Y-63789580D02*
X9261905Y-63694342D01*
X9261905Y-63694342D02*
X9214286Y-63503866D01*
X9214286Y-63503866D02*
X9214286Y-63265771D01*
X9214286Y-63265771D02*
X9261905Y-63075295D01*
X9261905Y-63075295D02*
X9309524Y-62980057D01*
X9309524Y-62980057D02*
X9357143Y-62932438D01*
X9357143Y-62932438D02*
X9452381Y-62884819D01*
X10404762Y-62884819D02*
X10500000Y-62884819D01*
X10500000Y-62884819D02*
X10595238Y-62932438D01*
X10595238Y-62932438D02*
X10642857Y-62980057D01*
X10642857Y-62980057D02*
X10690476Y-63075295D01*
X10690476Y-63075295D02*
X10738095Y-63265771D01*
X10738095Y-63265771D02*
X10738095Y-63503866D01*
X10738095Y-63503866D02*
X10690476Y-63694342D01*
X10690476Y-63694342D02*
X10642857Y-63789580D01*
X10642857Y-63789580D02*
X10595238Y-63837200D01*
X10595238Y-63837200D02*
X10500000Y-63884819D01*
X10500000Y-63884819D02*
X10404762Y-63884819D01*
X10404762Y-63884819D02*
X10309524Y-63837200D01*
X10309524Y-63837200D02*
X10261905Y-63789580D01*
X10261905Y-63789580D02*
X10214286Y-63694342D01*
X10214286Y-63694342D02*
X10166667Y-63503866D01*
X10166667Y-63503866D02*
X10166667Y-63265771D01*
X10166667Y-63265771D02*
X10214286Y-63075295D01*
X10214286Y-63075295D02*
X10261905Y-62980057D01*
X10261905Y-62980057D02*
X10309524Y-62932438D01*
X10309524Y-62932438D02*
X10404762Y-62884819D01*
X11738095Y-63884819D02*
X11404762Y-63408628D01*
X11166667Y-63884819D02*
X11166667Y-62884819D01*
X11166667Y-62884819D02*
X11547619Y-62884819D01*
X11547619Y-62884819D02*
X11642857Y-62932438D01*
X11642857Y-62932438D02*
X11690476Y-62980057D01*
X11690476Y-62980057D02*
X11738095Y-63075295D01*
X11738095Y-63075295D02*
X11738095Y-63218152D01*
X11738095Y-63218152D02*
X11690476Y-63313390D01*
X11690476Y-63313390D02*
X11642857Y-63361009D01*
X11642857Y-63361009D02*
X11547619Y-63408628D01*
X11547619Y-63408628D02*
X11166667Y-63408628D01*
D11*
X9552381Y-62181927D02*
X9419048Y-61991451D01*
X9323810Y-62181927D02*
X9323810Y-61781927D01*
X9323810Y-61781927D02*
X9476191Y-61781927D01*
X9476191Y-61781927D02*
X9514286Y-61800975D01*
X9514286Y-61800975D02*
X9533333Y-61820022D01*
X9533333Y-61820022D02*
X9552381Y-61858118D01*
X9552381Y-61858118D02*
X9552381Y-61915260D01*
X9552381Y-61915260D02*
X9533333Y-61953356D01*
X9533333Y-61953356D02*
X9514286Y-61972403D01*
X9514286Y-61972403D02*
X9476191Y-61991451D01*
X9476191Y-61991451D02*
X9323810Y-61991451D01*
X9704762Y-61820022D02*
X9723810Y-61800975D01*
X9723810Y-61800975D02*
X9761905Y-61781927D01*
X9761905Y-61781927D02*
X9857143Y-61781927D01*
X9857143Y-61781927D02*
X9895238Y-61800975D01*
X9895238Y-61800975D02*
X9914286Y-61820022D01*
X9914286Y-61820022D02*
X9933333Y-61858118D01*
X9933333Y-61858118D02*
X9933333Y-61896213D01*
X9933333Y-61896213D02*
X9914286Y-61953356D01*
X9914286Y-61953356D02*
X9685714Y-62181927D01*
X9685714Y-62181927D02*
X9933333Y-62181927D01*
X10085714Y-61820022D02*
X10104762Y-61800975D01*
X10104762Y-61800975D02*
X10142857Y-61781927D01*
X10142857Y-61781927D02*
X10238095Y-61781927D01*
X10238095Y-61781927D02*
X10276190Y-61800975D01*
X10276190Y-61800975D02*
X10295238Y-61820022D01*
X10295238Y-61820022D02*
X10314285Y-61858118D01*
X10314285Y-61858118D02*
X10314285Y-61896213D01*
X10314285Y-61896213D02*
X10295238Y-61953356D01*
X10295238Y-61953356D02*
X10066666Y-62181927D01*
X10066666Y-62181927D02*
X10314285Y-62181927D01*
X10676190Y-61781927D02*
X10485714Y-61781927D01*
X10485714Y-61781927D02*
X10466666Y-61972403D01*
X10466666Y-61972403D02*
X10485714Y-61953356D01*
X10485714Y-61953356D02*
X10523809Y-61934308D01*
X10523809Y-61934308D02*
X10619047Y-61934308D01*
X10619047Y-61934308D02*
X10657142Y-61953356D01*
X10657142Y-61953356D02*
X10676190Y-61972403D01*
X10676190Y-61972403D02*
X10695237Y-62010499D01*
X10695237Y-62010499D02*
X10695237Y-62105737D01*
X10695237Y-62105737D02*
X10676190Y-62143832D01*
X10676190Y-62143832D02*
X10657142Y-62162880D01*
X10657142Y-62162880D02*
X10619047Y-62181927D01*
X10619047Y-62181927D02*
X10523809Y-62181927D01*
X10523809Y-62181927D02*
X10485714Y-62162880D01*
X10485714Y-62162880D02*
X10466666Y-62143832D01*
D10*
X64270476Y-46254819D02*
X64841904Y-46254819D01*
X64556190Y-47254819D02*
X64556190Y-46254819D01*
X65841904Y-47350057D02*
X65746666Y-47302438D01*
X65746666Y-47302438D02*
X65651428Y-47207200D01*
X65651428Y-47207200D02*
X65508571Y-47064342D01*
X65508571Y-47064342D02*
X65413333Y-47016723D01*
X65413333Y-47016723D02*
X65318095Y-47016723D01*
X65365714Y-47254819D02*
X65270476Y-47207200D01*
X65270476Y-47207200D02*
X65175238Y-47111961D01*
X65175238Y-47111961D02*
X65127619Y-46921485D01*
X65127619Y-46921485D02*
X65127619Y-46588152D01*
X65127619Y-46588152D02*
X65175238Y-46397676D01*
X65175238Y-46397676D02*
X65270476Y-46302438D01*
X65270476Y-46302438D02*
X65365714Y-46254819D01*
X65365714Y-46254819D02*
X65556190Y-46254819D01*
X65556190Y-46254819D02*
X65651428Y-46302438D01*
X65651428Y-46302438D02*
X65746666Y-46397676D01*
X65746666Y-46397676D02*
X65794285Y-46588152D01*
X65794285Y-46588152D02*
X65794285Y-46921485D01*
X65794285Y-46921485D02*
X65746666Y-47111961D01*
X65746666Y-47111961D02*
X65651428Y-47207200D01*
X65651428Y-47207200D02*
X65556190Y-47254819D01*
X65556190Y-47254819D02*
X65365714Y-47254819D01*
X66175238Y-46350057D02*
X66222857Y-46302438D01*
X66222857Y-46302438D02*
X66318095Y-46254819D01*
X66318095Y-46254819D02*
X66556190Y-46254819D01*
X66556190Y-46254819D02*
X66651428Y-46302438D01*
X66651428Y-46302438D02*
X66699047Y-46350057D01*
X66699047Y-46350057D02*
X66746666Y-46445295D01*
X66746666Y-46445295D02*
X66746666Y-46540533D01*
X66746666Y-46540533D02*
X66699047Y-46683390D01*
X66699047Y-46683390D02*
X66127619Y-47254819D01*
X66127619Y-47254819D02*
X66746666Y-47254819D01*
X67175238Y-46873866D02*
X67937143Y-46873866D01*
X68889523Y-46254819D02*
X68413333Y-46254819D01*
X68413333Y-46254819D02*
X68365714Y-46731009D01*
X68365714Y-46731009D02*
X68413333Y-46683390D01*
X68413333Y-46683390D02*
X68508571Y-46635771D01*
X68508571Y-46635771D02*
X68746666Y-46635771D01*
X68746666Y-46635771D02*
X68841904Y-46683390D01*
X68841904Y-46683390D02*
X68889523Y-46731009D01*
X68889523Y-46731009D02*
X68937142Y-46826247D01*
X68937142Y-46826247D02*
X68937142Y-47064342D01*
X68937142Y-47064342D02*
X68889523Y-47159580D01*
X68889523Y-47159580D02*
X68841904Y-47207200D01*
X68841904Y-47207200D02*
X68746666Y-47254819D01*
X68746666Y-47254819D02*
X68508571Y-47254819D01*
X68508571Y-47254819D02*
X68413333Y-47207200D01*
X68413333Y-47207200D02*
X68365714Y-47159580D01*
X69222857Y-46254819D02*
X69556190Y-47254819D01*
X69556190Y-47254819D02*
X69889523Y-46254819D01*
X65389524Y-40644819D02*
X65389524Y-39644819D01*
X65960952Y-40644819D02*
X65532381Y-40073390D01*
X65960952Y-39644819D02*
X65389524Y-40216247D01*
X66341905Y-39740057D02*
X66389524Y-39692438D01*
X66389524Y-39692438D02*
X66484762Y-39644819D01*
X66484762Y-39644819D02*
X66722857Y-39644819D01*
X66722857Y-39644819D02*
X66818095Y-39692438D01*
X66818095Y-39692438D02*
X66865714Y-39740057D01*
X66865714Y-39740057D02*
X66913333Y-39835295D01*
X66913333Y-39835295D02*
X66913333Y-39930533D01*
X66913333Y-39930533D02*
X66865714Y-40073390D01*
X66865714Y-40073390D02*
X66294286Y-40644819D01*
X66294286Y-40644819D02*
X66913333Y-40644819D01*
X67532381Y-39644819D02*
X67627619Y-39644819D01*
X67627619Y-39644819D02*
X67722857Y-39692438D01*
X67722857Y-39692438D02*
X67770476Y-39740057D01*
X67770476Y-39740057D02*
X67818095Y-39835295D01*
X67818095Y-39835295D02*
X67865714Y-40025771D01*
X67865714Y-40025771D02*
X67865714Y-40263866D01*
X67865714Y-40263866D02*
X67818095Y-40454342D01*
X67818095Y-40454342D02*
X67770476Y-40549580D01*
X67770476Y-40549580D02*
X67722857Y-40597200D01*
X67722857Y-40597200D02*
X67627619Y-40644819D01*
X67627619Y-40644819D02*
X67532381Y-40644819D01*
X67532381Y-40644819D02*
X67437143Y-40597200D01*
X67437143Y-40597200D02*
X67389524Y-40549580D01*
X67389524Y-40549580D02*
X67341905Y-40454342D01*
X67341905Y-40454342D02*
X67294286Y-40263866D01*
X67294286Y-40263866D02*
X67294286Y-40025771D01*
X67294286Y-40025771D02*
X67341905Y-39835295D01*
X67341905Y-39835295D02*
X67389524Y-39740057D01*
X67389524Y-39740057D02*
X67437143Y-39692438D01*
X67437143Y-39692438D02*
X67532381Y-39644819D01*
X68199048Y-39644819D02*
X68818095Y-39644819D01*
X68818095Y-39644819D02*
X68484762Y-40025771D01*
X68484762Y-40025771D02*
X68627619Y-40025771D01*
X68627619Y-40025771D02*
X68722857Y-40073390D01*
X68722857Y-40073390D02*
X68770476Y-40121009D01*
X68770476Y-40121009D02*
X68818095Y-40216247D01*
X68818095Y-40216247D02*
X68818095Y-40454342D01*
X68818095Y-40454342D02*
X68770476Y-40549580D01*
X68770476Y-40549580D02*
X68722857Y-40597200D01*
X68722857Y-40597200D02*
X68627619Y-40644819D01*
X68627619Y-40644819D02*
X68341905Y-40644819D01*
X68341905Y-40644819D02*
X68246667Y-40597200D01*
X68246667Y-40597200D02*
X68199048Y-40549580D01*
X68833333Y-56980057D02*
X68880952Y-56932438D01*
X68880952Y-56932438D02*
X68976190Y-56884819D01*
X68976190Y-56884819D02*
X69214285Y-56884819D01*
X69214285Y-56884819D02*
X69309523Y-56932438D01*
X69309523Y-56932438D02*
X69357142Y-56980057D01*
X69357142Y-56980057D02*
X69404761Y-57075295D01*
X69404761Y-57075295D02*
X69404761Y-57170533D01*
X69404761Y-57170533D02*
X69357142Y-57313390D01*
X69357142Y-57313390D02*
X68785714Y-57884819D01*
X68785714Y-57884819D02*
X69404761Y-57884819D01*
X70023809Y-56884819D02*
X70119047Y-56884819D01*
X70119047Y-56884819D02*
X70214285Y-56932438D01*
X70214285Y-56932438D02*
X70261904Y-56980057D01*
X70261904Y-56980057D02*
X70309523Y-57075295D01*
X70309523Y-57075295D02*
X70357142Y-57265771D01*
X70357142Y-57265771D02*
X70357142Y-57503866D01*
X70357142Y-57503866D02*
X70309523Y-57694342D01*
X70309523Y-57694342D02*
X70261904Y-57789580D01*
X70261904Y-57789580D02*
X70214285Y-57837200D01*
X70214285Y-57837200D02*
X70119047Y-57884819D01*
X70119047Y-57884819D02*
X70023809Y-57884819D01*
X70023809Y-57884819D02*
X69928571Y-57837200D01*
X69928571Y-57837200D02*
X69880952Y-57789580D01*
X69880952Y-57789580D02*
X69833333Y-57694342D01*
X69833333Y-57694342D02*
X69785714Y-57503866D01*
X69785714Y-57503866D02*
X69785714Y-57265771D01*
X69785714Y-57265771D02*
X69833333Y-57075295D01*
X69833333Y-57075295D02*
X69880952Y-56980057D01*
X69880952Y-56980057D02*
X69928571Y-56932438D01*
X69928571Y-56932438D02*
X70023809Y-56884819D01*
X70785714Y-57884819D02*
X70785714Y-56884819D01*
X70880952Y-57503866D02*
X71166666Y-57884819D01*
X71166666Y-57218152D02*
X70785714Y-57599104D01*
D11*
X69552381Y-56181927D02*
X69419048Y-55991451D01*
X69323810Y-56181927D02*
X69323810Y-55781927D01*
X69323810Y-55781927D02*
X69476191Y-55781927D01*
X69476191Y-55781927D02*
X69514286Y-55800975D01*
X69514286Y-55800975D02*
X69533333Y-55820022D01*
X69533333Y-55820022D02*
X69552381Y-55858118D01*
X69552381Y-55858118D02*
X69552381Y-55915260D01*
X69552381Y-55915260D02*
X69533333Y-55953356D01*
X69533333Y-55953356D02*
X69514286Y-55972403D01*
X69514286Y-55972403D02*
X69476191Y-55991451D01*
X69476191Y-55991451D02*
X69323810Y-55991451D01*
X69704762Y-55820022D02*
X69723810Y-55800975D01*
X69723810Y-55800975D02*
X69761905Y-55781927D01*
X69761905Y-55781927D02*
X69857143Y-55781927D01*
X69857143Y-55781927D02*
X69895238Y-55800975D01*
X69895238Y-55800975D02*
X69914286Y-55820022D01*
X69914286Y-55820022D02*
X69933333Y-55858118D01*
X69933333Y-55858118D02*
X69933333Y-55896213D01*
X69933333Y-55896213D02*
X69914286Y-55953356D01*
X69914286Y-55953356D02*
X69685714Y-56181927D01*
X69685714Y-56181927D02*
X69933333Y-56181927D01*
X70085714Y-55820022D02*
X70104762Y-55800975D01*
X70104762Y-55800975D02*
X70142857Y-55781927D01*
X70142857Y-55781927D02*
X70238095Y-55781927D01*
X70238095Y-55781927D02*
X70276190Y-55800975D01*
X70276190Y-55800975D02*
X70295238Y-55820022D01*
X70295238Y-55820022D02*
X70314285Y-55858118D01*
X70314285Y-55858118D02*
X70314285Y-55896213D01*
X70314285Y-55896213D02*
X70295238Y-55953356D01*
X70295238Y-55953356D02*
X70066666Y-56181927D01*
X70066666Y-56181927D02*
X70314285Y-56181927D01*
X70447618Y-55781927D02*
X70695237Y-55781927D01*
X70695237Y-55781927D02*
X70561904Y-55934308D01*
X70561904Y-55934308D02*
X70619047Y-55934308D01*
X70619047Y-55934308D02*
X70657142Y-55953356D01*
X70657142Y-55953356D02*
X70676190Y-55972403D01*
X70676190Y-55972403D02*
X70695237Y-56010499D01*
X70695237Y-56010499D02*
X70695237Y-56105737D01*
X70695237Y-56105737D02*
X70676190Y-56143832D01*
X70676190Y-56143832D02*
X70657142Y-56162880D01*
X70657142Y-56162880D02*
X70619047Y-56181927D01*
X70619047Y-56181927D02*
X70504761Y-56181927D01*
X70504761Y-56181927D02*
X70466666Y-56162880D01*
X70466666Y-56162880D02*
X70447618Y-56143832D01*
D10*
X14833333Y-56980057D02*
X14880952Y-56932438D01*
X14880952Y-56932438D02*
X14976190Y-56884819D01*
X14976190Y-56884819D02*
X15214285Y-56884819D01*
X15214285Y-56884819D02*
X15309523Y-56932438D01*
X15309523Y-56932438D02*
X15357142Y-56980057D01*
X15357142Y-56980057D02*
X15404761Y-57075295D01*
X15404761Y-57075295D02*
X15404761Y-57170533D01*
X15404761Y-57170533D02*
X15357142Y-57313390D01*
X15357142Y-57313390D02*
X14785714Y-57884819D01*
X14785714Y-57884819D02*
X15404761Y-57884819D01*
X16023809Y-56884819D02*
X16119047Y-56884819D01*
X16119047Y-56884819D02*
X16214285Y-56932438D01*
X16214285Y-56932438D02*
X16261904Y-56980057D01*
X16261904Y-56980057D02*
X16309523Y-57075295D01*
X16309523Y-57075295D02*
X16357142Y-57265771D01*
X16357142Y-57265771D02*
X16357142Y-57503866D01*
X16357142Y-57503866D02*
X16309523Y-57694342D01*
X16309523Y-57694342D02*
X16261904Y-57789580D01*
X16261904Y-57789580D02*
X16214285Y-57837200D01*
X16214285Y-57837200D02*
X16119047Y-57884819D01*
X16119047Y-57884819D02*
X16023809Y-57884819D01*
X16023809Y-57884819D02*
X15928571Y-57837200D01*
X15928571Y-57837200D02*
X15880952Y-57789580D01*
X15880952Y-57789580D02*
X15833333Y-57694342D01*
X15833333Y-57694342D02*
X15785714Y-57503866D01*
X15785714Y-57503866D02*
X15785714Y-57265771D01*
X15785714Y-57265771D02*
X15833333Y-57075295D01*
X15833333Y-57075295D02*
X15880952Y-56980057D01*
X15880952Y-56980057D02*
X15928571Y-56932438D01*
X15928571Y-56932438D02*
X16023809Y-56884819D01*
X16785714Y-57884819D02*
X16785714Y-56884819D01*
X16880952Y-57503866D02*
X17166666Y-57884819D01*
X17166666Y-57218152D02*
X16785714Y-57599104D01*
D11*
X15552381Y-56181927D02*
X15419048Y-55991451D01*
X15323810Y-56181927D02*
X15323810Y-55781927D01*
X15323810Y-55781927D02*
X15476191Y-55781927D01*
X15476191Y-55781927D02*
X15514286Y-55800975D01*
X15514286Y-55800975D02*
X15533333Y-55820022D01*
X15533333Y-55820022D02*
X15552381Y-55858118D01*
X15552381Y-55858118D02*
X15552381Y-55915260D01*
X15552381Y-55915260D02*
X15533333Y-55953356D01*
X15533333Y-55953356D02*
X15514286Y-55972403D01*
X15514286Y-55972403D02*
X15476191Y-55991451D01*
X15476191Y-55991451D02*
X15323810Y-55991451D01*
X15704762Y-55820022D02*
X15723810Y-55800975D01*
X15723810Y-55800975D02*
X15761905Y-55781927D01*
X15761905Y-55781927D02*
X15857143Y-55781927D01*
X15857143Y-55781927D02*
X15895238Y-55800975D01*
X15895238Y-55800975D02*
X15914286Y-55820022D01*
X15914286Y-55820022D02*
X15933333Y-55858118D01*
X15933333Y-55858118D02*
X15933333Y-55896213D01*
X15933333Y-55896213D02*
X15914286Y-55953356D01*
X15914286Y-55953356D02*
X15685714Y-56181927D01*
X15685714Y-56181927D02*
X15933333Y-56181927D01*
X16180952Y-55781927D02*
X16219047Y-55781927D01*
X16219047Y-55781927D02*
X16257143Y-55800975D01*
X16257143Y-55800975D02*
X16276190Y-55820022D01*
X16276190Y-55820022D02*
X16295238Y-55858118D01*
X16295238Y-55858118D02*
X16314285Y-55934308D01*
X16314285Y-55934308D02*
X16314285Y-56029546D01*
X16314285Y-56029546D02*
X16295238Y-56105737D01*
X16295238Y-56105737D02*
X16276190Y-56143832D01*
X16276190Y-56143832D02*
X16257143Y-56162880D01*
X16257143Y-56162880D02*
X16219047Y-56181927D01*
X16219047Y-56181927D02*
X16180952Y-56181927D01*
X16180952Y-56181927D02*
X16142857Y-56162880D01*
X16142857Y-56162880D02*
X16123809Y-56143832D01*
X16123809Y-56143832D02*
X16104762Y-56105737D01*
X16104762Y-56105737D02*
X16085714Y-56029546D01*
X16085714Y-56029546D02*
X16085714Y-55934308D01*
X16085714Y-55934308D02*
X16104762Y-55858118D01*
X16104762Y-55858118D02*
X16123809Y-55820022D01*
X16123809Y-55820022D02*
X16142857Y-55800975D01*
X16142857Y-55800975D02*
X16180952Y-55781927D01*
X16466666Y-55820022D02*
X16485714Y-55800975D01*
X16485714Y-55800975D02*
X16523809Y-55781927D01*
X16523809Y-55781927D02*
X16619047Y-55781927D01*
X16619047Y-55781927D02*
X16657142Y-55800975D01*
X16657142Y-55800975D02*
X16676190Y-55820022D01*
X16676190Y-55820022D02*
X16695237Y-55858118D01*
X16695237Y-55858118D02*
X16695237Y-55896213D01*
X16695237Y-55896213D02*
X16676190Y-55953356D01*
X16676190Y-55953356D02*
X16447618Y-56181927D01*
X16447618Y-56181927D02*
X16695237Y-56181927D01*
D10*
X103285714Y-42554819D02*
X102714286Y-42554819D01*
X103000000Y-42554819D02*
X103000000Y-41554819D01*
X103000000Y-41554819D02*
X102904762Y-41697676D01*
X102904762Y-41697676D02*
X102809524Y-41792914D01*
X102809524Y-41792914D02*
X102714286Y-41840533D01*
X103714286Y-42554819D02*
X103714286Y-41554819D01*
X103714286Y-41554819D02*
X104285714Y-42554819D01*
X104285714Y-42554819D02*
X104285714Y-41554819D01*
X105190476Y-41888152D02*
X105190476Y-42554819D01*
X104952381Y-41507200D02*
X104714286Y-42221485D01*
X104714286Y-42221485D02*
X105333333Y-42221485D01*
X106238095Y-42554819D02*
X105666667Y-42554819D01*
X105952381Y-42554819D02*
X105952381Y-41554819D01*
X105952381Y-41554819D02*
X105857143Y-41697676D01*
X105857143Y-41697676D02*
X105761905Y-41792914D01*
X105761905Y-41792914D02*
X105666667Y-41840533D01*
X107095238Y-41888152D02*
X107095238Y-42554819D01*
X106857143Y-41507200D02*
X106619048Y-42221485D01*
X106619048Y-42221485D02*
X107238095Y-42221485D01*
X107761905Y-41983390D02*
X107666667Y-41935771D01*
X107666667Y-41935771D02*
X107619048Y-41888152D01*
X107619048Y-41888152D02*
X107571429Y-41792914D01*
X107571429Y-41792914D02*
X107571429Y-41745295D01*
X107571429Y-41745295D02*
X107619048Y-41650057D01*
X107619048Y-41650057D02*
X107666667Y-41602438D01*
X107666667Y-41602438D02*
X107761905Y-41554819D01*
X107761905Y-41554819D02*
X107952381Y-41554819D01*
X107952381Y-41554819D02*
X108047619Y-41602438D01*
X108047619Y-41602438D02*
X108095238Y-41650057D01*
X108095238Y-41650057D02*
X108142857Y-41745295D01*
X108142857Y-41745295D02*
X108142857Y-41792914D01*
X108142857Y-41792914D02*
X108095238Y-41888152D01*
X108095238Y-41888152D02*
X108047619Y-41935771D01*
X108047619Y-41935771D02*
X107952381Y-41983390D01*
X107952381Y-41983390D02*
X107761905Y-41983390D01*
X107761905Y-41983390D02*
X107666667Y-42031009D01*
X107666667Y-42031009D02*
X107619048Y-42078628D01*
X107619048Y-42078628D02*
X107571429Y-42173866D01*
X107571429Y-42173866D02*
X107571429Y-42364342D01*
X107571429Y-42364342D02*
X107619048Y-42459580D01*
X107619048Y-42459580D02*
X107666667Y-42507200D01*
X107666667Y-42507200D02*
X107761905Y-42554819D01*
X107761905Y-42554819D02*
X107952381Y-42554819D01*
X107952381Y-42554819D02*
X108047619Y-42507200D01*
X108047619Y-42507200D02*
X108095238Y-42459580D01*
X108095238Y-42459580D02*
X108142857Y-42364342D01*
X108142857Y-42364342D02*
X108142857Y-42173866D01*
X108142857Y-42173866D02*
X108095238Y-42078628D01*
X108095238Y-42078628D02*
X108047619Y-42031009D01*
X108047619Y-42031009D02*
X107952381Y-41983390D01*
X108476191Y-41554819D02*
X108714286Y-42554819D01*
X108714286Y-42554819D02*
X108904762Y-41840533D01*
X108904762Y-41840533D02*
X109095238Y-42554819D01*
X109095238Y-42554819D02*
X109333334Y-41554819D01*
X104309524Y-38454819D02*
X104309524Y-37454819D01*
X104309524Y-37454819D02*
X104547619Y-37454819D01*
X104547619Y-37454819D02*
X104690476Y-37502438D01*
X104690476Y-37502438D02*
X104785714Y-37597676D01*
X104785714Y-37597676D02*
X104833333Y-37692914D01*
X104833333Y-37692914D02*
X104880952Y-37883390D01*
X104880952Y-37883390D02*
X104880952Y-38026247D01*
X104880952Y-38026247D02*
X104833333Y-38216723D01*
X104833333Y-38216723D02*
X104785714Y-38311961D01*
X104785714Y-38311961D02*
X104690476Y-38407200D01*
X104690476Y-38407200D02*
X104547619Y-38454819D01*
X104547619Y-38454819D02*
X104309524Y-38454819D01*
X105261905Y-37550057D02*
X105309524Y-37502438D01*
X105309524Y-37502438D02*
X105404762Y-37454819D01*
X105404762Y-37454819D02*
X105642857Y-37454819D01*
X105642857Y-37454819D02*
X105738095Y-37502438D01*
X105738095Y-37502438D02*
X105785714Y-37550057D01*
X105785714Y-37550057D02*
X105833333Y-37645295D01*
X105833333Y-37645295D02*
X105833333Y-37740533D01*
X105833333Y-37740533D02*
X105785714Y-37883390D01*
X105785714Y-37883390D02*
X105214286Y-38454819D01*
X105214286Y-38454819D02*
X105833333Y-38454819D01*
X106690476Y-37454819D02*
X106500000Y-37454819D01*
X106500000Y-37454819D02*
X106404762Y-37502438D01*
X106404762Y-37502438D02*
X106357143Y-37550057D01*
X106357143Y-37550057D02*
X106261905Y-37692914D01*
X106261905Y-37692914D02*
X106214286Y-37883390D01*
X106214286Y-37883390D02*
X106214286Y-38264342D01*
X106214286Y-38264342D02*
X106261905Y-38359580D01*
X106261905Y-38359580D02*
X106309524Y-38407200D01*
X106309524Y-38407200D02*
X106404762Y-38454819D01*
X106404762Y-38454819D02*
X106595238Y-38454819D01*
X106595238Y-38454819D02*
X106690476Y-38407200D01*
X106690476Y-38407200D02*
X106738095Y-38359580D01*
X106738095Y-38359580D02*
X106785714Y-38264342D01*
X106785714Y-38264342D02*
X106785714Y-38026247D01*
X106785714Y-38026247D02*
X106738095Y-37931009D01*
X106738095Y-37931009D02*
X106690476Y-37883390D01*
X106690476Y-37883390D02*
X106595238Y-37835771D01*
X106595238Y-37835771D02*
X106404762Y-37835771D01*
X106404762Y-37835771D02*
X106309524Y-37883390D01*
X106309524Y-37883390D02*
X106261905Y-37931009D01*
X106261905Y-37931009D02*
X106214286Y-38026247D01*
X107738095Y-38454819D02*
X107166667Y-38454819D01*
X107452381Y-38454819D02*
X107452381Y-37454819D01*
X107452381Y-37454819D02*
X107357143Y-37597676D01*
X107357143Y-37597676D02*
X107261905Y-37692914D01*
X107261905Y-37692914D02*
X107166667Y-37740533D01*
%TO.C,R226*%
D12*
X15200000Y-61587500D02*
X16800000Y-61587500D01*
X16800000Y-62412500D01*
X15200000Y-62412500D01*
X15200000Y-61587500D01*
%TO.C,U201*%
X100788100Y-24399700D02*
X103713100Y-24399700D01*
X103713100Y-33049700D01*
X99813100Y-33049700D01*
X99813100Y-25374700D01*
X100788100Y-24399700D01*
%TO.C,C295*%
X45200000Y-61600000D02*
X46800000Y-61600000D01*
X46800000Y-62400000D01*
X45200000Y-62400000D01*
X45200000Y-61600000D01*
%TO.C,P202*%
X40800000Y-9048200D02*
X41425000Y-10048200D01*
X41425000Y-10048200D02*
X42050000Y-9048200D01*
X38975000Y-9048200D02*
X56375000Y-9048200D01*
X56375000Y-14798200D01*
X38975000Y-14798200D01*
X38975000Y-9048200D01*
%TO.C,R224*%
X75200000Y-55587500D02*
X76800000Y-55587500D01*
X76800000Y-56412500D01*
X75200000Y-56412500D01*
X75200000Y-55587500D01*
%TO.C,R201*%
X9200000Y-55587500D02*
X10800000Y-55587500D01*
X10800000Y-56412500D01*
X9200000Y-56412500D01*
X9200000Y-55587500D01*
%TO.C,C291*%
X33200000Y-61600000D02*
X34800000Y-61600000D01*
X34800000Y-62400000D01*
X33200000Y-62400000D01*
X33200000Y-61600000D01*
%TO.C,R222*%
X63200000Y-55587500D02*
X64800000Y-55587500D01*
X64800000Y-56412500D01*
X63200000Y-56412500D01*
X63200000Y-55587500D01*
%TO.C,R204*%
X27200000Y-55587500D02*
X28800000Y-55587500D01*
X28800000Y-56412500D01*
X27200000Y-56412500D01*
X27200000Y-55587500D01*
%TO.C,P203*%
X62250000Y-9048200D02*
X62875000Y-10048200D01*
X62875000Y-10048200D02*
X63500000Y-9048200D01*
X60425000Y-9048200D02*
X77825000Y-9048200D01*
X77825000Y-14798200D01*
X60425000Y-14798200D01*
X60425000Y-9048200D01*
%TO.C,P201*%
X103975000Y-9048200D02*
X104600000Y-10048200D01*
X104600000Y-10048200D02*
X105225000Y-9048200D01*
X102150000Y-9048200D02*
X112050000Y-9048200D01*
X112050000Y-14798200D01*
X102150000Y-14798200D01*
X102150000Y-9048200D01*
%TO.C,P206*%
X9350000Y-9048200D02*
X9975000Y-10048200D01*
X9975000Y-10048200D02*
X10600000Y-9048200D01*
X7525000Y-9048200D02*
X34925000Y-9048200D01*
X34925000Y-14798200D01*
X7525000Y-14798200D01*
X7525000Y-9048200D01*
%TO.C,R229*%
X21200000Y-61587500D02*
X22800000Y-61587500D01*
X22800000Y-62412500D01*
X21200000Y-62412500D01*
X21200000Y-61587500D01*
%TO.C,D264*%
X110600000Y-45100000D02*
X113400000Y-45100000D01*
X110600000Y-46900000D02*
X110600000Y-45100000D01*
X111250000Y-46000000D02*
X111650000Y-46000000D01*
X111650000Y-46000000D02*
X111650000Y-45450000D01*
X111650000Y-46000000D02*
X111650000Y-46550000D01*
X111650000Y-46000000D02*
X112250000Y-45600000D01*
X112250000Y-45600000D02*
X112250000Y-46400000D01*
X112250000Y-46000000D02*
X112750000Y-46000000D01*
X112250000Y-46400000D02*
X111650000Y-46000000D01*
X113400000Y-45100000D02*
X113400000Y-46900000D01*
X113400000Y-46900000D02*
X110600000Y-46900000D01*
%TO.C,K202*%
D13*
X36080000Y-35690000D02*
X50080000Y-35690000D01*
X36080000Y-44690000D02*
X36080000Y-35690000D01*
X50080000Y-35690000D02*
X50080000Y-44690000D01*
X50080000Y-44690000D02*
X36080000Y-44690000D01*
%TO.C,K201*%
X12080000Y-35690000D02*
X26080000Y-35690000D01*
X12080000Y-44690000D02*
X12080000Y-35690000D01*
X26080000Y-35690000D02*
X26080000Y-44690000D01*
X26080000Y-44690000D02*
X12080000Y-44690000D01*
%TO.C,C292*%
D12*
X39200000Y-61600000D02*
X40800000Y-61600000D01*
X40800000Y-62400000D01*
X39200000Y-62400000D01*
X39200000Y-61600000D01*
%TO.C,R203*%
X21200000Y-55587500D02*
X22800000Y-55587500D01*
X22800000Y-56412500D01*
X21200000Y-56412500D01*
X21200000Y-55587500D01*
%TO.C,R231*%
X27200000Y-61587500D02*
X28800000Y-61587500D01*
X28800000Y-62412500D01*
X27200000Y-62412500D01*
X27200000Y-61587500D01*
%TO.C,K204*%
D13*
X84080000Y-35690000D02*
X98080000Y-35690000D01*
X84080000Y-44690000D02*
X84080000Y-35690000D01*
X98080000Y-35690000D02*
X98080000Y-44690000D01*
X98080000Y-44690000D02*
X84080000Y-44690000D01*
%TO.C,C293*%
D12*
X59350000Y-61350000D02*
X59350000Y-64650000D01*
X59350000Y-61350000D02*
X60350000Y-60350000D01*
X59350000Y-64650000D02*
X60350000Y-65650000D01*
X59966044Y-61800000D02*
X60466044Y-61800000D01*
X60216044Y-61550000D02*
X60216044Y-62050000D01*
X60350000Y-60350000D02*
X64650000Y-60350000D01*
X60350000Y-65650000D02*
X64650000Y-65650000D01*
X64650000Y-60350000D02*
X64650000Y-65650000D01*
X64500000Y-63000000D02*
G75*
G02*
X59500000Y-63000000I-2500000J0D01*
G01*
X59500000Y-63000000D02*
G75*
G02*
X64500000Y-63000000I2500000J0D01*
G01*
%TO.C,R209*%
X45200000Y-55587500D02*
X46800000Y-55587500D01*
X46800000Y-56412500D01*
X45200000Y-56412500D01*
X45200000Y-55587500D01*
%TO.C,P204*%
X9350000Y-24644700D02*
X9975000Y-25644700D01*
X9975000Y-25644700D02*
X10600000Y-24644700D01*
X7525000Y-24644700D02*
X17425000Y-24644700D01*
X17425000Y-30394700D01*
X7525000Y-30394700D01*
X7525000Y-24644700D01*
%TO.C,R206*%
X39200000Y-55587500D02*
X40800000Y-55587500D01*
X40800000Y-56412500D01*
X39200000Y-56412500D01*
X39200000Y-55587500D01*
%TO.C,D262*%
X110600000Y-39100000D02*
X113400000Y-39100000D01*
X110600000Y-40900000D02*
X110600000Y-39100000D01*
X111250000Y-40000000D02*
X111650000Y-40000000D01*
X111650000Y-40000000D02*
X111650000Y-39450000D01*
X111650000Y-40000000D02*
X111650000Y-40550000D01*
X111650000Y-40000000D02*
X112250000Y-39600000D01*
X112250000Y-39600000D02*
X112250000Y-40400000D01*
X112250000Y-40000000D02*
X112750000Y-40000000D01*
X112250000Y-40400000D02*
X111650000Y-40000000D01*
X113400000Y-39100000D02*
X113400000Y-40900000D01*
X113400000Y-40900000D02*
X110600000Y-40900000D01*
%TO.C,R205*%
X33200000Y-55587500D02*
X34800000Y-55587500D01*
X34800000Y-56412500D01*
X33200000Y-56412500D01*
X33200000Y-55587500D01*
%TO.C,P205*%
X23300000Y-24644700D02*
X23925000Y-25644700D01*
X23925000Y-25644700D02*
X24550000Y-24644700D01*
X21475000Y-24644700D02*
X31375000Y-24644700D01*
X31375000Y-30394700D01*
X21475000Y-30394700D01*
X21475000Y-24644700D01*
%TO.C,C296*%
X79350000Y-61350000D02*
X79350000Y-64650000D01*
X79350000Y-61350000D02*
X80350000Y-60350000D01*
X79350000Y-64650000D02*
X80350000Y-65650000D01*
X79966044Y-61800000D02*
X80466044Y-61800000D01*
X80216044Y-61550000D02*
X80216044Y-62050000D01*
X80350000Y-60350000D02*
X84650000Y-60350000D01*
X80350000Y-65650000D02*
X84650000Y-65650000D01*
X84650000Y-60350000D02*
X84650000Y-65650000D01*
X84500000Y-63000000D02*
G75*
G02*
X79500000Y-63000000I-2500000J0D01*
G01*
X79500000Y-63000000D02*
G75*
G02*
X84500000Y-63000000I2500000J0D01*
G01*
%TO.C,P207*%
X82320000Y-11748200D02*
X83320000Y-12748200D01*
X82320000Y-13748200D02*
X83320000Y-12748200D01*
X83520000Y-9048200D02*
X96900000Y-9048200D01*
X83520000Y-10748200D02*
X83520000Y-9048200D01*
X96900000Y-9048200D02*
X96900000Y-10748200D01*
X82320000Y-10748200D02*
X98100000Y-10748200D01*
X98100000Y-17548200D01*
X82320000Y-17548200D01*
X82320000Y-10748200D01*
%TO.C,C294*%
X69350000Y-61350000D02*
X69350000Y-64650000D01*
X69350000Y-61350000D02*
X70350000Y-60350000D01*
X69350000Y-64650000D02*
X70350000Y-65650000D01*
X69966044Y-61800000D02*
X70466044Y-61800000D01*
X70216044Y-61550000D02*
X70216044Y-62050000D01*
X70350000Y-60350000D02*
X74650000Y-60350000D01*
X70350000Y-65650000D02*
X74650000Y-65650000D01*
X74650000Y-60350000D02*
X74650000Y-65650000D01*
X74500000Y-63000000D02*
G75*
G02*
X69500000Y-63000000I-2500000J0D01*
G01*
X69500000Y-63000000D02*
G75*
G02*
X74500000Y-63000000I2500000J0D01*
G01*
%TO.C,R211*%
X51200000Y-55587500D02*
X52800000Y-55587500D01*
X52800000Y-56412500D01*
X51200000Y-56412500D01*
X51200000Y-55587500D01*
%TO.C,D263*%
X104600000Y-45100000D02*
X107400000Y-45100000D01*
X104600000Y-46900000D02*
X104600000Y-45100000D01*
X105250000Y-46000000D02*
X105650000Y-46000000D01*
X105650000Y-46000000D02*
X105650000Y-45450000D01*
X105650000Y-46000000D02*
X105650000Y-46550000D01*
X105650000Y-46000000D02*
X106250000Y-45600000D01*
X106250000Y-45600000D02*
X106250000Y-46400000D01*
X106250000Y-46000000D02*
X106750000Y-46000000D01*
X106250000Y-46400000D02*
X105650000Y-46000000D01*
X107400000Y-45100000D02*
X107400000Y-46900000D01*
X107400000Y-46900000D02*
X104600000Y-46900000D01*
%TO.C,R221*%
X57200000Y-55587500D02*
X58800000Y-55587500D01*
X58800000Y-56412500D01*
X57200000Y-56412500D01*
X57200000Y-55587500D01*
%TO.C,R225*%
X9200000Y-61587500D02*
X10800000Y-61587500D01*
X10800000Y-62412500D01*
X9200000Y-62412500D01*
X9200000Y-61587500D01*
%TO.C,K203*%
D13*
X60080000Y-35690000D02*
X74080000Y-35690000D01*
X60080000Y-44690000D02*
X60080000Y-35690000D01*
X74080000Y-35690000D02*
X74080000Y-44690000D01*
X74080000Y-44690000D02*
X60080000Y-44690000D01*
%TO.C,R223*%
D12*
X69200000Y-55587500D02*
X70800000Y-55587500D01*
X70800000Y-56412500D01*
X69200000Y-56412500D01*
X69200000Y-55587500D01*
%TO.C,R202*%
X15200000Y-55587500D02*
X16800000Y-55587500D01*
X16800000Y-56412500D01*
X15200000Y-56412500D01*
X15200000Y-55587500D01*
%TO.C,D261*%
X104600000Y-39100000D02*
X107400000Y-39100000D01*
X104600000Y-40900000D02*
X104600000Y-39100000D01*
X105250000Y-40000000D02*
X105650000Y-40000000D01*
X105650000Y-40000000D02*
X105650000Y-39450000D01*
X105650000Y-40000000D02*
X105650000Y-40550000D01*
X105650000Y-40000000D02*
X106250000Y-39600000D01*
X106250000Y-39600000D02*
X106250000Y-40400000D01*
X106250000Y-40000000D02*
X106750000Y-40000000D01*
X106250000Y-40400000D02*
X105650000Y-40000000D01*
X107400000Y-39100000D02*
X107400000Y-40900000D01*
X107400000Y-40900000D02*
X104600000Y-40900000D01*
%TD*%
M02*
