%TF.GenerationSoftware,KiCad,Pcbnew,10.0.6*%
%TF.CreationDate,2026-09-30T06:51:41-06:00*%
%TF.ProjectId,circuit-board,63697263-7569-4742-9d62-6f6172642e6b,rev?*%
%TF.SameCoordinates,Original*%
%TF.FileFunction,Soldermask,Top*%
%TF.FilePolarity,Negative*%
%FSLAX46Y46*%
G04 Gerber Fmt 4.6, Leading zero omitted, Abs format (unit mm)*
G04 Created by KiCad (PCBNEW 10.0.6) date 2026-09-30 06:51:41*
%MOMM*%
%LPD*%
G01*
G04 APERTURE LIST*
G04 Aperture macros list*
%AMRoundRect*
0 Rectangle with rounded corners*
0 $1 Rounding radius*
0 $2 $3 $4 $5 $6 $7 $8 $9 X,Y pos of 4 corners*
0 Add a 4 corners polygon primitive as box body*
4,1,4,$2,$3,$4,$5,$6,$7,$8,$9,$2,$3,0*
0 Add four circle primitives for the rounded corners*
1,1,$1+$1,$2,$3*
1,1,$1+$1,$4,$5*
1,1,$1+$1,$6,$7*
1,1,$1+$1,$8,$9*
0 Add four rect primitives between the rounded corners*
20,1,$1+$1,$2,$3,$4,$5,0*
20,1,$1+$1,$4,$5,$6,$7,0*
20,1,$1+$1,$6,$7,$8,$9,0*
20,1,$1+$1,$8,$9,$2,$3,0*%
%AMFreePoly0*
4,1,9,3.862500,-0.866500,0.737500,-0.866500,0.737500,-0.450000,-0.737500,-0.450000,-0.737500,0.450000,0.737500,0.450000,0.737500,0.866500,3.862500,0.866500,3.862500,-0.866500,3.862500,-0.866500,$1*%
G04 Aperture macros list end*
%ADD10RoundRect,0.225000X-0.225000X-0.250000X0.225000X-0.250000X0.225000X0.250000X-0.225000X0.250000X0*%
%ADD11RoundRect,0.200000X-0.200000X-0.275000X0.200000X-0.275000X0.200000X0.275000X-0.200000X0.275000X0*%
%ADD12RoundRect,0.250000X-0.400000X-0.750000X0.400000X-0.750000X0.400000X0.750000X-0.400000X0.750000X0*%
%ADD13RoundRect,0.250000X-0.750000X-0.750000X0.750000X-0.750000X0.750000X0.750000X-0.750000X0.750000X0*%
%ADD14R,1.800000X0.800000*%
%ADD15RoundRect,0.250000X-0.325000X-1.100000X0.325000X-1.100000X0.325000X1.100000X-0.325000X1.100000X0*%
%ADD16RoundRect,0.250000X-1.250000X-0.550000X1.250000X-0.550000X1.250000X0.550000X-1.250000X0.550000X0*%
%ADD17R,1.450000X1.450000*%
%ADD18C,1.450000*%
%ADD19RoundRect,0.225000X-0.225000X-0.375000X0.225000X-0.375000X0.225000X0.375000X-0.225000X0.375000X0*%
%ADD20RoundRect,0.150000X-0.587500X-0.150000X0.587500X-0.150000X0.587500X0.150000X-0.587500X0.150000X0*%
%ADD21C,1.600000*%
%ADD22C,0.800000*%
%ADD23C,6.400000*%
%ADD24RoundRect,0.150000X-0.825000X-0.150000X0.825000X-0.150000X0.825000X0.150000X-0.825000X0.150000X0*%
%ADD25RoundRect,0.250000X-0.250000X-0.475000X0.250000X-0.475000X0.250000X0.475000X-0.250000X0.475000X0*%
%ADD26RoundRect,0.250000X-0.600000X-0.725000X0.600000X-0.725000X0.600000X0.725000X-0.600000X0.725000X0*%
%ADD27O,1.700000X1.950000*%
%ADD28RoundRect,0.250000X-0.325000X-0.650000X0.325000X-0.650000X0.325000X0.650000X-0.325000X0.650000X0*%
%ADD29RoundRect,0.250000X-0.725000X0.600000X-0.725000X-0.600000X0.725000X-0.600000X0.725000X0.600000X0*%
%ADD30O,1.950000X1.700000*%
%ADD31RoundRect,0.250001X-1.099999X-1.099999X1.099999X-1.099999X1.099999X1.099999X-1.099999X1.099999X0*%
%ADD32C,2.700000*%
%ADD33RoundRect,0.225000X-0.425000X-0.225000X0.425000X-0.225000X0.425000X0.225000X-0.425000X0.225000X0*%
%ADD34FreePoly0,0.000000*%
%ADD35RoundRect,0.250000X-1.500000X-0.550000X1.500000X-0.550000X1.500000X0.550000X-1.500000X0.550000X0*%
G04 APERTURE END LIST*
D10*
%TO.C,C1302*%
X70790000Y-84455000D03*
X72340000Y-84455000D03*
%TD*%
D11*
%TO.C,R1201*%
X38200000Y-62915000D03*
X39850000Y-62915000D03*
%TD*%
D12*
%TO.C,RV1221*%
X31195000Y-85395000D03*
D13*
X30045000Y-89395000D03*
D12*
X28895000Y-85395000D03*
%TD*%
D11*
%TO.C,R1247*%
X34790000Y-84875000D03*
X36440000Y-84875000D03*
%TD*%
%TO.C,R211*%
X36750000Y-42935000D03*
X38400000Y-42935000D03*
%TD*%
D10*
%TO.C,C1303*%
X63840000Y-109885000D03*
X65390000Y-109885000D03*
%TD*%
D11*
%TO.C,R802*%
X91490000Y-22155000D03*
X93140000Y-22155000D03*
%TD*%
%TO.C,R1202*%
X48140000Y-59025000D03*
X49790000Y-59025000D03*
%TD*%
D10*
%TO.C,C1322*%
X70900000Y-95205000D03*
X72450000Y-95205000D03*
%TD*%
%TO.C,C105*%
X4250000Y-34745000D03*
X5800000Y-34745000D03*
%TD*%
D11*
%TO.C,R302*%
X67300000Y-61155000D03*
X68950000Y-61155000D03*
%TD*%
%TO.C,R309*%
X67300000Y-68935000D03*
X68950000Y-68935000D03*
%TD*%
D10*
%TO.C,C803*%
X91240000Y-11275000D03*
X92790000Y-11275000D03*
%TD*%
D11*
%TO.C,R334*%
X84200000Y-51075000D03*
X85850000Y-51075000D03*
%TD*%
D14*
%TO.C,K3*%
X37695000Y-136085000D03*
X37695000Y-139285000D03*
X37695000Y-141485000D03*
X37695000Y-143685000D03*
X44695000Y-143685000D03*
X44695000Y-141485000D03*
X44695000Y-139285000D03*
X44695000Y-136085000D03*
%TD*%
D10*
%TO.C,C1308*%
X8800000Y-140335000D03*
X10350000Y-140335000D03*
%TD*%
D15*
%TO.C,C203*%
X47660000Y-31235000D03*
X50610000Y-31235000D03*
%TD*%
D11*
%TO.C,R303*%
X76290000Y-37275000D03*
X77940000Y-37275000D03*
%TD*%
%TO.C,R204*%
X42940000Y-39045000D03*
X44590000Y-39045000D03*
%TD*%
%TO.C,R64*%
X37200000Y-159545000D03*
X38850000Y-159545000D03*
%TD*%
%TO.C,R1245*%
X47300000Y-67905000D03*
X48950000Y-67905000D03*
%TD*%
D16*
%TO.C,C110*%
X9845000Y-22135000D03*
X14245000Y-22135000D03*
%TD*%
D12*
%TO.C,RV1342*%
X11745000Y-132765000D03*
D13*
X10595000Y-136765000D03*
D12*
X9445000Y-132765000D03*
%TD*%
D11*
%TO.C,R213*%
X67190000Y-11275000D03*
X68840000Y-11275000D03*
%TD*%
D10*
%TO.C,C805*%
X96090000Y-28745000D03*
X97640000Y-28745000D03*
%TD*%
%TO.C,C103*%
X24980000Y-27355000D03*
X26530000Y-27355000D03*
%TD*%
%TO.C,C1343*%
X8800000Y-106025000D03*
X10350000Y-106025000D03*
%TD*%
D11*
%TO.C,R801*%
X93040000Y-18265000D03*
X94690000Y-18265000D03*
%TD*%
%TO.C,R307*%
X58200000Y-61155000D03*
X59850000Y-61155000D03*
%TD*%
%TO.C,R804*%
X91490000Y-28745000D03*
X93140000Y-28745000D03*
%TD*%
D10*
%TO.C,C311*%
X97790000Y-37275000D03*
X99340000Y-37275000D03*
%TD*%
D11*
%TO.C,R222*%
X36750000Y-22025000D03*
X38400000Y-22025000D03*
%TD*%
%TO.C,R1355*%
X15340000Y-132245000D03*
X16990000Y-132245000D03*
%TD*%
D17*
%TO.C,U1303*%
X57525000Y-75325000D03*
D18*
X60065000Y-75325000D03*
X62605000Y-75325000D03*
X65145000Y-75325000D03*
X67685000Y-75325000D03*
X70225000Y-75325000D03*
X72765000Y-75325000D03*
X75305000Y-75325000D03*
%TD*%
D19*
%TO.C,D5F*%
X41795000Y-159965000D03*
X45095000Y-159965000D03*
%TD*%
D11*
%TO.C,R1228*%
X42750000Y-67905000D03*
X44400000Y-67905000D03*
%TD*%
%TO.C,R1324*%
X75400000Y-95205000D03*
X77050000Y-95205000D03*
%TD*%
%TO.C,R1346*%
X15040000Y-111015000D03*
X16690000Y-111015000D03*
%TD*%
%TO.C,R903*%
X4200000Y-46865000D03*
X5850000Y-46865000D03*
%TD*%
%TO.C,R1243*%
X32750000Y-59025000D03*
X34400000Y-59025000D03*
%TD*%
%TO.C,R102*%
X4200000Y-19965000D03*
X5850000Y-19965000D03*
%TD*%
%TO.C,R1343*%
X13190000Y-95275000D03*
X14840000Y-95275000D03*
%TD*%
%TO.C,R323*%
X64390000Y-65045000D03*
X66040000Y-65045000D03*
%TD*%
D20*
%TO.C,Q1341*%
X13637500Y-106045000D03*
X13637500Y-107945000D03*
X15512500Y-106995000D03*
%TD*%
D15*
%TO.C,C213*%
X41470000Y-31235000D03*
X44420000Y-31235000D03*
%TD*%
D10*
%TO.C,C201*%
X45790000Y-11275000D03*
X47340000Y-11275000D03*
%TD*%
D19*
%TO.C,D1241*%
X41895000Y-59445000D03*
X45195000Y-59445000D03*
%TD*%
D11*
%TO.C,R234*%
X58200000Y-25075000D03*
X59850000Y-25075000D03*
%TD*%
D19*
%TO.C,D1343*%
X4245000Y-111435000D03*
X7545000Y-111435000D03*
%TD*%
D21*
%TO.C,C1321*%
X76095000Y-105065000D03*
X81095000Y-105065000D03*
%TD*%
D11*
%TO.C,R330*%
X97850000Y-51075000D03*
X99500000Y-51075000D03*
%TD*%
%TO.C,R1356*%
X19890000Y-132245000D03*
X21540000Y-132245000D03*
%TD*%
%TO.C,R1352*%
X4200000Y-121495000D03*
X5850000Y-121495000D03*
%TD*%
%TO.C,R304*%
X68940000Y-65045000D03*
X70590000Y-65045000D03*
%TD*%
%TO.C,R201*%
X41300000Y-22025000D03*
X42950000Y-22025000D03*
%TD*%
D10*
%TO.C,C1241*%
X39390000Y-84875000D03*
X40940000Y-84875000D03*
%TD*%
D11*
%TO.C,R335*%
X93300000Y-48025000D03*
X94950000Y-48025000D03*
%TD*%
%TO.C,R1244*%
X37300000Y-59025000D03*
X38950000Y-59025000D03*
%TD*%
D22*
%TO.C,H2*%
X113600000Y-4000000D03*
X114302944Y-2302944D03*
X114302944Y-5697056D03*
X116000000Y-1600000D03*
D23*
X116000000Y-4000000D03*
D22*
X116000000Y-6400000D03*
X117697056Y-2302944D03*
X117697056Y-5697056D03*
X118400000Y-4000000D03*
%TD*%
D11*
%TO.C,R331*%
X84200000Y-48025000D03*
X85850000Y-48025000D03*
%TD*%
D10*
%TO.C,C101*%
X20430000Y-27355000D03*
X21980000Y-27355000D03*
%TD*%
D11*
%TO.C,R1353*%
X28580000Y-121495000D03*
X30230000Y-121495000D03*
%TD*%
%TO.C,R803*%
X82200000Y-18265000D03*
X83850000Y-18265000D03*
%TD*%
D19*
%TO.C,D901*%
X8795000Y-47285000D03*
X12095000Y-47285000D03*
%TD*%
D24*
%TO.C,U102*%
X15760000Y-11340000D03*
X15760000Y-12610000D03*
X15760000Y-13880000D03*
X15760000Y-15150000D03*
X20710000Y-15150000D03*
X20710000Y-13880000D03*
X20710000Y-12610000D03*
X20710000Y-11340000D03*
%TD*%
D11*
%TO.C,R1351*%
X24140000Y-111015000D03*
X25790000Y-111015000D03*
%TD*%
D10*
%TO.C,C308*%
X76450000Y-68935000D03*
X78000000Y-68935000D03*
%TD*%
%TO.C,C1346*%
X29040000Y-132245000D03*
X30590000Y-132245000D03*
%TD*%
D11*
%TO.C,R60*%
X65270000Y-123275000D03*
X66920000Y-123275000D03*
%TD*%
D25*
%TO.C,C315*%
X71945000Y-48275000D03*
X73845000Y-48275000D03*
%TD*%
D26*
%TO.C,P3*%
X34000000Y-169000000D03*
D27*
X36500000Y-169000000D03*
X39000000Y-169000000D03*
%TD*%
D11*
%TO.C,R1242*%
X46290000Y-48275000D03*
X47940000Y-48275000D03*
%TD*%
D14*
%TO.C,K1*%
X37695000Y-123995000D03*
X37695000Y-127195000D03*
X37695000Y-129395000D03*
X37695000Y-131595000D03*
X44695000Y-131595000D03*
X44695000Y-129395000D03*
X44695000Y-127195000D03*
X44695000Y-123995000D03*
%TD*%
D19*
%TO.C,D3F*%
X58975000Y-135785000D03*
X62275000Y-135785000D03*
%TD*%
D10*
%TO.C,C301*%
X71790000Y-37275000D03*
X73340000Y-37275000D03*
%TD*%
D11*
%TO.C,R1303*%
X78530000Y-74275000D03*
X80180000Y-74275000D03*
%TD*%
%TO.C,R1241*%
X41740000Y-48275000D03*
X43390000Y-48275000D03*
%TD*%
%TO.C,R904*%
X13490000Y-50755000D03*
X15140000Y-50755000D03*
%TD*%
%TO.C,R1321*%
X70850000Y-103295000D03*
X72500000Y-103295000D03*
%TD*%
%TO.C,R1221*%
X47300000Y-62915000D03*
X48950000Y-62915000D03*
%TD*%
D19*
%TO.C,D802*%
X95785000Y-11695000D03*
X99085000Y-11695000D03*
%TD*%
%TO.C,D902*%
X15085000Y-47285000D03*
X18385000Y-47285000D03*
%TD*%
D11*
%TO.C,R1350*%
X19590000Y-111015000D03*
X21240000Y-111015000D03*
%TD*%
%TO.C,R232*%
X62750000Y-22025000D03*
X64400000Y-22025000D03*
%TD*%
%TO.C,R101*%
X24180000Y-11275000D03*
X25830000Y-11275000D03*
%TD*%
D19*
%TO.C,D1242*%
X28245000Y-73315000D03*
X31545000Y-73315000D03*
%TD*%
D28*
%TO.C,C204*%
X32370000Y-39465000D03*
X35320000Y-39465000D03*
%TD*%
D11*
%TO.C,R308*%
X70580000Y-56365000D03*
X72230000Y-56365000D03*
%TD*%
%TO.C,R230*%
X71850000Y-25075000D03*
X73500000Y-25075000D03*
%TD*%
D29*
%TO.C,P8*%
X114000000Y-58000000D03*
D30*
X114000000Y-60500000D03*
X114000000Y-63000000D03*
X114000000Y-65500000D03*
X114000000Y-68000000D03*
X114000000Y-70500000D03*
X114000000Y-73000000D03*
%TD*%
D24*
%TO.C,U1301*%
X57770000Y-84495000D03*
X57770000Y-85765000D03*
X57770000Y-87035000D03*
X57770000Y-88305000D03*
X57770000Y-89575000D03*
X57770000Y-90845000D03*
X57770000Y-92115000D03*
X62720000Y-92115000D03*
X62720000Y-90845000D03*
X62720000Y-89575000D03*
X62720000Y-88305000D03*
X62720000Y-87035000D03*
X62720000Y-85765000D03*
X62720000Y-84495000D03*
%TD*%
D10*
%TO.C,C307*%
X71900000Y-68935000D03*
X73450000Y-68935000D03*
%TD*%
D11*
%TO.C,R1208*%
X42750000Y-62915000D03*
X44400000Y-62915000D03*
%TD*%
%TO.C,R336*%
X93300000Y-51075000D03*
X94950000Y-51075000D03*
%TD*%
D26*
%TO.C,P6*%
X58000000Y-5000000D03*
D27*
X60500000Y-5000000D03*
X63000000Y-5000000D03*
X65500000Y-5000000D03*
X68000000Y-5000000D03*
X70500000Y-5000000D03*
X73000000Y-5000000D03*
X75500000Y-5000000D03*
%TD*%
D11*
%TO.C,R314*%
X97850000Y-48025000D03*
X99500000Y-48025000D03*
%TD*%
%TO.C,R1226*%
X32750000Y-76785000D03*
X34400000Y-76785000D03*
%TD*%
%TO.C,R1325*%
X61750000Y-95205000D03*
X63400000Y-95205000D03*
%TD*%
D10*
%TO.C,C903*%
X21380000Y-46865000D03*
X22930000Y-46865000D03*
%TD*%
D11*
%TO.C,R1354*%
X17740000Y-121495000D03*
X19390000Y-121495000D03*
%TD*%
%TO.C,R233*%
X58200000Y-28125000D03*
X59850000Y-28125000D03*
%TD*%
D10*
%TO.C,C207*%
X45900000Y-42935000D03*
X47450000Y-42935000D03*
%TD*%
D11*
%TO.C,R223*%
X38390000Y-39045000D03*
X40040000Y-39045000D03*
%TD*%
D15*
%TO.C,C202*%
X41470000Y-26445000D03*
X44420000Y-26445000D03*
%TD*%
D11*
%TO.C,R214*%
X71850000Y-22025000D03*
X73500000Y-22025000D03*
%TD*%
D15*
%TO.C,C303*%
X58370000Y-57235000D03*
X61320000Y-57235000D03*
%TD*%
D11*
%TO.C,R310*%
X78040000Y-65045000D03*
X79690000Y-65045000D03*
%TD*%
%TO.C,R205*%
X32200000Y-30365000D03*
X33850000Y-30365000D03*
%TD*%
%TO.C,R224*%
X32200000Y-42935000D03*
X33850000Y-42935000D03*
%TD*%
%TO.C,R333*%
X84200000Y-54125000D03*
X85850000Y-54125000D03*
%TD*%
D16*
%TO.C,C102*%
X5295000Y-29525000D03*
X9695000Y-29525000D03*
%TD*%
D11*
%TO.C,R315*%
X62750000Y-61155000D03*
X64400000Y-61155000D03*
%TD*%
D10*
%TO.C,C220*%
X32250000Y-22025000D03*
X33800000Y-22025000D03*
%TD*%
D11*
%TO.C,R231*%
X58200000Y-22025000D03*
X59850000Y-22025000D03*
%TD*%
D20*
%TO.C,Q1201*%
X33087500Y-62935000D03*
X33087500Y-64835000D03*
X34962500Y-63885000D03*
%TD*%
D11*
%TO.C,R206*%
X41190000Y-11275000D03*
X42840000Y-11275000D03*
%TD*%
D10*
%TO.C,C1345*%
X24490000Y-132245000D03*
X26040000Y-132245000D03*
%TD*%
D28*
%TO.C,C314*%
X72020000Y-61575000D03*
X74970000Y-61575000D03*
%TD*%
D11*
%TO.C,R1348*%
X10490000Y-111015000D03*
X12140000Y-111015000D03*
%TD*%
%TO.C,R305*%
X75130000Y-56365000D03*
X76780000Y-56365000D03*
%TD*%
D29*
%TO.C,P7*%
X114000000Y-20000000D03*
D30*
X114000000Y-22500000D03*
X114000000Y-25000000D03*
X114000000Y-27500000D03*
X114000000Y-30000000D03*
X114000000Y-32500000D03*
X114000000Y-35000000D03*
X114000000Y-37500000D03*
X114000000Y-40000000D03*
X114000000Y-42500000D03*
X114000000Y-45000000D03*
X114000000Y-47500000D03*
%TD*%
D11*
%TO.C,R1322*%
X61750000Y-103295000D03*
X63400000Y-103295000D03*
%TD*%
%TO.C,R203*%
X50290000Y-11275000D03*
X51940000Y-11275000D03*
%TD*%
D15*
%TO.C,C313*%
X64560000Y-57235000D03*
X67510000Y-57235000D03*
%TD*%
D11*
%TO.C,R1342*%
X23300000Y-106025000D03*
X24950000Y-106025000D03*
%TD*%
%TO.C,R311*%
X62750000Y-68935000D03*
X64400000Y-68935000D03*
%TD*%
D24*
%TO.C,U1201*%
X28770000Y-48315000D03*
X28770000Y-49585000D03*
X28770000Y-50855000D03*
X28770000Y-52125000D03*
X28770000Y-53395000D03*
X28770000Y-54665000D03*
X28770000Y-55935000D03*
X33720000Y-55935000D03*
X33720000Y-54665000D03*
X33720000Y-53395000D03*
X33720000Y-52125000D03*
X33720000Y-50855000D03*
X33720000Y-49585000D03*
X33720000Y-48315000D03*
%TD*%
D14*
%TO.C,K2*%
X48585000Y-123995000D03*
X48585000Y-127195000D03*
X48585000Y-129395000D03*
X48585000Y-131595000D03*
X55585000Y-131595000D03*
X55585000Y-129395000D03*
X55585000Y-127195000D03*
X55585000Y-123995000D03*
%TD*%
D11*
%TO.C,R210*%
X52040000Y-39045000D03*
X53690000Y-39045000D03*
%TD*%
D22*
%TO.C,H4*%
X113600000Y-171000000D03*
X114302944Y-169302944D03*
X114302944Y-172697056D03*
X116000000Y-168600000D03*
D23*
X116000000Y-171000000D03*
D22*
X116000000Y-173400000D03*
X117697056Y-169302944D03*
X117697056Y-172697056D03*
X118400000Y-171000000D03*
%TD*%
D11*
%TO.C,R1207*%
X37190000Y-48275000D03*
X38840000Y-48275000D03*
%TD*%
D21*
%TO.C,C901*%
X4895000Y-42045000D03*
X9895000Y-42045000D03*
%TD*%
D11*
%TO.C,R1305*%
X78530000Y-79365000D03*
X80180000Y-79365000D03*
%TD*%
%TO.C,R221*%
X36750000Y-25575000D03*
X38400000Y-25575000D03*
%TD*%
%TO.C,R306*%
X67190000Y-37275000D03*
X68840000Y-37275000D03*
%TD*%
%TO.C,R1347*%
X17740000Y-95275000D03*
X19390000Y-95275000D03*
%TD*%
%TO.C,R1246*%
X41850000Y-76785000D03*
X43500000Y-76785000D03*
%TD*%
%TO.C,R313*%
X93190000Y-37275000D03*
X94840000Y-37275000D03*
%TD*%
%TO.C,R312*%
X88750000Y-51075000D03*
X90400000Y-51075000D03*
%TD*%
%TO.C,R1224*%
X38200000Y-67905000D03*
X39850000Y-67905000D03*
%TD*%
D10*
%TO.C,C209*%
X62800000Y-28125000D03*
X64350000Y-28125000D03*
%TD*%
D11*
%TO.C,R1349*%
X4200000Y-106025000D03*
X5850000Y-106025000D03*
%TD*%
%TO.C,R321*%
X58200000Y-51575000D03*
X59850000Y-51575000D03*
%TD*%
D28*
%TO.C,C304*%
X58370000Y-65465000D03*
X61320000Y-65465000D03*
%TD*%
D11*
%TO.C,R207*%
X32200000Y-35155000D03*
X33850000Y-35155000D03*
%TD*%
%TO.C,R1204*%
X28200000Y-62915000D03*
X29850000Y-62915000D03*
%TD*%
D22*
%TO.C,H3*%
X1600000Y-171000000D03*
X2302944Y-169302944D03*
X2302944Y-172697056D03*
X4000000Y-168600000D03*
D23*
X4000000Y-171000000D03*
D22*
X4000000Y-173400000D03*
X5697056Y-169302944D03*
X5697056Y-172697056D03*
X6400000Y-171000000D03*
%TD*%
D31*
%TO.C,P4*%
X80000000Y-168000000D03*
D32*
X83960000Y-168000000D03*
X87920000Y-168000000D03*
X91880000Y-168000000D03*
%TD*%
D16*
%TO.C,C111*%
X19335000Y-22135000D03*
X23735000Y-22135000D03*
%TD*%
D19*
%TO.C,D1243*%
X43635000Y-73315000D03*
X46935000Y-73315000D03*
%TD*%
D12*
%TO.C,RV1201*%
X49395000Y-77305000D03*
D13*
X48245000Y-81305000D03*
D12*
X47095000Y-77305000D03*
%TD*%
D21*
%TO.C,C1301*%
X75985000Y-86225000D03*
X80985000Y-86225000D03*
%TD*%
D22*
%TO.C,H1*%
X1600000Y-4000000D03*
X2302944Y-2302944D03*
X2302944Y-5697056D03*
X4000000Y-1600000D03*
D23*
X4000000Y-4000000D03*
D22*
X4000000Y-6400000D03*
X5697056Y-2302944D03*
X5697056Y-5697056D03*
X6400000Y-4000000D03*
%TD*%
D24*
%TO.C,U201*%
X32770000Y-11315000D03*
X32770000Y-12585000D03*
X32770000Y-13855000D03*
X32770000Y-15125000D03*
X32770000Y-16395000D03*
X32770000Y-17665000D03*
X32770000Y-18935000D03*
X37720000Y-18935000D03*
X37720000Y-17665000D03*
X37720000Y-16395000D03*
X37720000Y-15125000D03*
X37720000Y-13855000D03*
X37720000Y-12585000D03*
X37720000Y-11315000D03*
%TD*%
D11*
%TO.C,R1222*%
X33650000Y-67905000D03*
X35300000Y-67905000D03*
%TD*%
D10*
%TO.C,C1307*%
X4250000Y-140335000D03*
X5800000Y-140335000D03*
%TD*%
D19*
%TO.C,D1F*%
X59025000Y-123695000D03*
X62325000Y-123695000D03*
%TD*%
D33*
%TO.C,U101*%
X13935000Y-27625000D03*
D34*
X14022500Y-29125000D03*
D33*
X13935000Y-30625000D03*
%TD*%
D11*
%TO.C,R1227*%
X28200000Y-59025000D03*
X29850000Y-59025000D03*
%TD*%
%TO.C,R220*%
X32200000Y-25575000D03*
X33850000Y-25575000D03*
%TD*%
%TO.C,R209*%
X41300000Y-42935000D03*
X42950000Y-42935000D03*
%TD*%
D15*
%TO.C,C312*%
X73660000Y-52445000D03*
X76610000Y-52445000D03*
%TD*%
D10*
%TO.C,C1323*%
X72940000Y-109885000D03*
X74490000Y-109885000D03*
%TD*%
D21*
%TO.C,C804*%
X82895000Y-30515000D03*
X87895000Y-30515000D03*
%TD*%
D11*
%TO.C,R62*%
X65220000Y-135365000D03*
X66870000Y-135365000D03*
%TD*%
D24*
%TO.C,U302*%
X84770000Y-37315000D03*
X84770000Y-38585000D03*
X84770000Y-39855000D03*
X84770000Y-41125000D03*
X84770000Y-42395000D03*
X84770000Y-43665000D03*
X84770000Y-44935000D03*
X89720000Y-44935000D03*
X89720000Y-43665000D03*
X89720000Y-42395000D03*
X89720000Y-41125000D03*
X89720000Y-39855000D03*
X89720000Y-38585000D03*
X89720000Y-37315000D03*
%TD*%
D21*
%TO.C,C904*%
X4895000Y-52525000D03*
X9895000Y-52525000D03*
%TD*%
D19*
%TO.C,D1342*%
X26885000Y-95695000D03*
X30185000Y-95695000D03*
%TD*%
D11*
%TO.C,R235*%
X67300000Y-22025000D03*
X68950000Y-22025000D03*
%TD*%
%TO.C,R1302*%
X57200000Y-103295000D03*
X58850000Y-103295000D03*
%TD*%
D15*
%TO.C,C212*%
X47660000Y-26445000D03*
X50610000Y-26445000D03*
%TD*%
D11*
%TO.C,R1306*%
X83080000Y-79365000D03*
X84730000Y-79365000D03*
%TD*%
D10*
%TO.C,C211*%
X71790000Y-11275000D03*
X73340000Y-11275000D03*
%TD*%
D11*
%TO.C,R1301*%
X66300000Y-103295000D03*
X67950000Y-103295000D03*
%TD*%
%TO.C,R1205*%
X28200000Y-76785000D03*
X29850000Y-76785000D03*
%TD*%
D15*
%TO.C,C302*%
X67470000Y-52445000D03*
X70420000Y-52445000D03*
%TD*%
D11*
%TO.C,R1345*%
X27850000Y-106025000D03*
X29500000Y-106025000D03*
%TD*%
D25*
%TO.C,C305*%
X76935000Y-48275000D03*
X78835000Y-48275000D03*
%TD*%
D11*
%TO.C,R901*%
X13490000Y-40275000D03*
X15140000Y-40275000D03*
%TD*%
%TO.C,R1203*%
X34490000Y-72895000D03*
X36140000Y-72895000D03*
%TD*%
%TO.C,R236*%
X67300000Y-25075000D03*
X68950000Y-25075000D03*
%TD*%
%TO.C,R902*%
X18040000Y-40275000D03*
X19690000Y-40275000D03*
%TD*%
D26*
%TO.C,P2*%
X103000000Y-5000000D03*
D27*
X105500000Y-5000000D03*
X108000000Y-5000000D03*
%TD*%
D21*
%TO.C,C801*%
X82895000Y-23925000D03*
X87895000Y-23925000D03*
%TD*%
D26*
%TO.C,P1*%
X13000000Y-169000000D03*
D27*
X15500000Y-169000000D03*
X18000000Y-169000000D03*
X20500000Y-169000000D03*
X23000000Y-169000000D03*
X25500000Y-169000000D03*
%TD*%
D11*
%TO.C,R1225*%
X37300000Y-76785000D03*
X38950000Y-76785000D03*
%TD*%
%TO.C,R212*%
X62750000Y-25075000D03*
X64400000Y-25075000D03*
%TD*%
D10*
%TO.C,C210*%
X67350000Y-28125000D03*
X68900000Y-28125000D03*
%TD*%
D11*
%TO.C,R1341*%
X18750000Y-106025000D03*
X20400000Y-106025000D03*
%TD*%
%TO.C,R1357*%
X4200000Y-132245000D03*
X5850000Y-132245000D03*
%TD*%
D19*
%TO.C,D4F*%
X63575000Y-147875000D03*
X66875000Y-147875000D03*
%TD*%
D24*
%TO.C,U1305*%
X4770000Y-95315000D03*
X4770000Y-96585000D03*
X4770000Y-97855000D03*
X4770000Y-99125000D03*
X4770000Y-100395000D03*
X4770000Y-101665000D03*
X4770000Y-102935000D03*
X9720000Y-102935000D03*
X9720000Y-101665000D03*
X9720000Y-100395000D03*
X9720000Y-99125000D03*
X9720000Y-97855000D03*
X9720000Y-96585000D03*
X9720000Y-95315000D03*
%TD*%
D10*
%TO.C,C1304*%
X68390000Y-109885000D03*
X69940000Y-109885000D03*
%TD*%
D11*
%TO.C,R324*%
X58200000Y-68935000D03*
X59850000Y-68935000D03*
%TD*%
D10*
%TO.C,C1306*%
X57250000Y-117975000D03*
X58800000Y-117975000D03*
%TD*%
D12*
%TO.C,RV1301*%
X82945000Y-95725000D03*
D13*
X81795000Y-99725000D03*
D12*
X80645000Y-95725000D03*
%TD*%
D11*
%TO.C,R1223*%
X39040000Y-72895000D03*
X40690000Y-72895000D03*
%TD*%
%TO.C,R63*%
X58980000Y-147455000D03*
X60630000Y-147455000D03*
%TD*%
D19*
%TO.C,D2F*%
X48135000Y-135785000D03*
X51435000Y-135785000D03*
%TD*%
D21*
%TO.C,C1342*%
X14185000Y-116675000D03*
X19185000Y-116675000D03*
%TD*%
D10*
%TO.C,C310*%
X93350000Y-54125000D03*
X94900000Y-54125000D03*
%TD*%
%TO.C,C1305*%
X82040000Y-109885000D03*
X83590000Y-109885000D03*
%TD*%
D11*
%TO.C,R216*%
X47490000Y-39045000D03*
X49140000Y-39045000D03*
%TD*%
D10*
%TO.C,C309*%
X88800000Y-54125000D03*
X90350000Y-54125000D03*
%TD*%
D11*
%TO.C,R215*%
X41300000Y-35155000D03*
X42950000Y-35155000D03*
%TD*%
D20*
%TO.C,Q1221*%
X28537500Y-67925000D03*
X28537500Y-69825000D03*
X30412500Y-68875000D03*
%TD*%
D10*
%TO.C,C208*%
X50450000Y-42935000D03*
X52000000Y-42935000D03*
%TD*%
D11*
%TO.C,R301*%
X67300000Y-48025000D03*
X68950000Y-48025000D03*
%TD*%
%TO.C,R1323*%
X57200000Y-95205000D03*
X58850000Y-95205000D03*
%TD*%
D25*
%TO.C,C205*%
X50935000Y-22275000D03*
X52835000Y-22275000D03*
%TD*%
D11*
%TO.C,R322*%
X58200000Y-48025000D03*
X59850000Y-48025000D03*
%TD*%
D24*
%TO.C,U1302*%
X9320000Y-121535000D03*
X9320000Y-122805000D03*
X9320000Y-124075000D03*
X9320000Y-125345000D03*
X9320000Y-126615000D03*
X9320000Y-127885000D03*
X9320000Y-129155000D03*
X14270000Y-129155000D03*
X14270000Y-127885000D03*
X14270000Y-126615000D03*
X14270000Y-125345000D03*
X14270000Y-124075000D03*
X14270000Y-122805000D03*
X14270000Y-121535000D03*
%TD*%
D11*
%TO.C,R320*%
X62750000Y-51575000D03*
X64400000Y-51575000D03*
%TD*%
D24*
%TO.C,U202*%
X58770000Y-11315000D03*
X58770000Y-12585000D03*
X58770000Y-13855000D03*
X58770000Y-15125000D03*
X58770000Y-16395000D03*
X58770000Y-17665000D03*
X58770000Y-18935000D03*
X63720000Y-18935000D03*
X63720000Y-17665000D03*
X63720000Y-16395000D03*
X63720000Y-15125000D03*
X63720000Y-13855000D03*
X63720000Y-12585000D03*
X63720000Y-11315000D03*
%TD*%
D11*
%TO.C,R1206*%
X49880000Y-72895000D03*
X51530000Y-72895000D03*
%TD*%
%TO.C,R332*%
X88750000Y-48025000D03*
X90400000Y-48025000D03*
%TD*%
D35*
%TO.C,C104*%
X5545000Y-14095000D03*
X10945000Y-14095000D03*
%TD*%
D24*
%TO.C,U301*%
X58770000Y-37315000D03*
X58770000Y-38585000D03*
X58770000Y-39855000D03*
X58770000Y-41125000D03*
X58770000Y-42395000D03*
X58770000Y-43665000D03*
X58770000Y-44935000D03*
X63720000Y-44935000D03*
X63720000Y-43665000D03*
X63720000Y-42395000D03*
X63720000Y-41125000D03*
X63720000Y-39855000D03*
X63720000Y-38585000D03*
X63720000Y-37315000D03*
%TD*%
D11*
%TO.C,R316*%
X73490000Y-65045000D03*
X75140000Y-65045000D03*
%TD*%
D28*
%TO.C,C214*%
X46020000Y-35575000D03*
X48970000Y-35575000D03*
%TD*%
D10*
%TO.C,C1324*%
X77490000Y-109885000D03*
X79040000Y-109885000D03*
%TD*%
D14*
%TO.C,K4*%
X37695000Y-148175000D03*
X37695000Y-151375000D03*
X37695000Y-153575000D03*
X37695000Y-155775000D03*
X44695000Y-155775000D03*
X44695000Y-153575000D03*
X44695000Y-151375000D03*
X44695000Y-148175000D03*
%TD*%
D19*
%TO.C,D801*%
X86795000Y-18685000D03*
X90095000Y-18685000D03*
%TD*%
D14*
%TO.C,K5*%
X48585000Y-148175000D03*
X48585000Y-151375000D03*
X48585000Y-153575000D03*
X48585000Y-155775000D03*
X55585000Y-155775000D03*
X55585000Y-153575000D03*
X55585000Y-151375000D03*
X55585000Y-148175000D03*
%TD*%
D10*
%TO.C,C1202*%
X48490000Y-84875000D03*
X50040000Y-84875000D03*
%TD*%
D21*
%TO.C,C1341*%
X4895000Y-116675000D03*
X9895000Y-116675000D03*
%TD*%
D19*
%TO.C,D1341*%
X22335000Y-121915000D03*
X25635000Y-121915000D03*
%TD*%
D10*
%TO.C,C320*%
X62800000Y-48025000D03*
X64350000Y-48025000D03*
%TD*%
D11*
%TO.C,R1344*%
X22290000Y-95275000D03*
X23940000Y-95275000D03*
%TD*%
D17*
%TO.C,U1304*%
X57525000Y-80415000D03*
D18*
X60065000Y-80415000D03*
X62605000Y-80415000D03*
X65145000Y-80415000D03*
X67685000Y-80415000D03*
X70225000Y-80415000D03*
X72765000Y-80415000D03*
X75305000Y-80415000D03*
%TD*%
D26*
%TO.C,P5*%
X13000000Y-5000000D03*
D27*
X15500000Y-5000000D03*
X18000000Y-5000000D03*
X20500000Y-5000000D03*
X23000000Y-5000000D03*
X25500000Y-5000000D03*
X28000000Y-5000000D03*
X30500000Y-5000000D03*
%TD*%
D25*
%TO.C,C215*%
X45945000Y-22275000D03*
X47845000Y-22275000D03*
%TD*%
D11*
%TO.C,R1304*%
X66190000Y-84455000D03*
X67840000Y-84455000D03*
%TD*%
D12*
%TO.C,RV1321*%
X60195000Y-110405000D03*
D13*
X59045000Y-114405000D03*
D12*
X57895000Y-110405000D03*
%TD*%
D10*
%TO.C,C1201*%
X43940000Y-84875000D03*
X45490000Y-84875000D03*
%TD*%
D11*
%TO.C,R208*%
X36750000Y-30365000D03*
X38400000Y-30365000D03*
%TD*%
%TO.C,R1326*%
X66300000Y-95205000D03*
X67950000Y-95205000D03*
%TD*%
D21*
%TO.C,C1344*%
X23475000Y-116675000D03*
X28475000Y-116675000D03*
%TD*%
D29*
%TO.C,P9*%
X114000000Y-96000000D03*
D30*
X114000000Y-98500000D03*
X114000000Y-101000000D03*
X114000000Y-103500000D03*
X114000000Y-106000000D03*
X114000000Y-108500000D03*
%TD*%
D11*
%TO.C,R202*%
X36750000Y-35155000D03*
X38400000Y-35155000D03*
%TD*%
%TO.C,R61*%
X54380000Y-135365000D03*
X56030000Y-135365000D03*
%TD*%
D24*
%TO.C,U402*%
X82770000Y-11340000D03*
X82770000Y-12610000D03*
X82770000Y-13880000D03*
X82770000Y-15150000D03*
X87720000Y-15150000D03*
X87720000Y-13880000D03*
X87720000Y-12610000D03*
X87720000Y-11340000D03*
%TD*%
M02*
