%TF.GenerationSoftware,KiCad,Pcbnew,10.0.6*%
%TF.CreationDate,2026-09-30T06:51:41-06:00*%
%TF.ProjectId,circuit-board,63697263-7569-4742-9d62-6f6172642e6b,rev?*%
%TF.SameCoordinates,Original*%
%TF.FileFunction,Soldermask,Bot*%
%TF.FilePolarity,Negative*%
%FSLAX46Y46*%
G04 Gerber Fmt 4.6, Leading zero omitted, Abs format (unit mm)*
G04 Created by KiCad (PCBNEW 10.0.6) date 2026-09-30 06:51:41*
%MOMM*%
%LPD*%
G01*
G04 APERTURE LIST*
G04 Aperture macros list*
%AMRoundRect*
0 Rectangle with rounded corners*
0 $1 Rounding radius*
0 $2 $3 $4 $5 $6 $7 $8 $9 X,Y pos of 4 corners*
0 Add a 4 corners polygon primitive as box body*
4,1,4,$2,$3,$4,$5,$6,$7,$8,$9,$2,$3,0*
0 Add four circle primitives for the rounded corners*
1,1,$1+$1,$2,$3*
1,1,$1+$1,$4,$5*
1,1,$1+$1,$6,$7*
1,1,$1+$1,$8,$9*
0 Add four rect primitives between the rounded corners*
20,1,$1+$1,$2,$3,$4,$5,0*
20,1,$1+$1,$4,$5,$6,$7,0*
20,1,$1+$1,$6,$7,$8,$9,0*
20,1,$1+$1,$8,$9,$2,$3,0*%
G04 Aperture macros list end*
%ADD10R,1.450000X1.450000*%
%ADD11C,1.450000*%
%ADD12C,1.600000*%
%ADD13C,0.800000*%
%ADD14C,6.400000*%
%ADD15RoundRect,0.250000X-0.600000X-0.725000X0.600000X-0.725000X0.600000X0.725000X-0.600000X0.725000X0*%
%ADD16O,1.700000X1.950000*%
%ADD17RoundRect,0.250000X-0.725000X0.600000X-0.725000X-0.600000X0.725000X-0.600000X0.725000X0.600000X0*%
%ADD18O,1.950000X1.700000*%
%ADD19RoundRect,0.250001X-1.099999X-1.099999X1.099999X-1.099999X1.099999X1.099999X-1.099999X1.099999X0*%
%ADD20C,2.700000*%
G04 APERTURE END LIST*
D10*
%TO.C,U1303*%
X57525000Y-75325000D03*
D11*
X60065000Y-75325000D03*
X62605000Y-75325000D03*
X65145000Y-75325000D03*
X67685000Y-75325000D03*
X70225000Y-75325000D03*
X72765000Y-75325000D03*
X75305000Y-75325000D03*
%TD*%
D12*
%TO.C,C1321*%
X76095000Y-105065000D03*
X81095000Y-105065000D03*
%TD*%
D13*
%TO.C,H2*%
X113600000Y-4000000D03*
X114302944Y-2302944D03*
X114302944Y-5697056D03*
X116000000Y-1600000D03*
D14*
X116000000Y-4000000D03*
D13*
X116000000Y-6400000D03*
X117697056Y-2302944D03*
X117697056Y-5697056D03*
X118400000Y-4000000D03*
%TD*%
D15*
%TO.C,P3*%
X34000000Y-169000000D03*
D16*
X36500000Y-169000000D03*
X39000000Y-169000000D03*
%TD*%
D17*
%TO.C,P8*%
X114000000Y-58000000D03*
D18*
X114000000Y-60500000D03*
X114000000Y-63000000D03*
X114000000Y-65500000D03*
X114000000Y-68000000D03*
X114000000Y-70500000D03*
X114000000Y-73000000D03*
%TD*%
D15*
%TO.C,P6*%
X58000000Y-5000000D03*
D16*
X60500000Y-5000000D03*
X63000000Y-5000000D03*
X65500000Y-5000000D03*
X68000000Y-5000000D03*
X70500000Y-5000000D03*
X73000000Y-5000000D03*
X75500000Y-5000000D03*
%TD*%
D17*
%TO.C,P7*%
X114000000Y-20000000D03*
D18*
X114000000Y-22500000D03*
X114000000Y-25000000D03*
X114000000Y-27500000D03*
X114000000Y-30000000D03*
X114000000Y-32500000D03*
X114000000Y-35000000D03*
X114000000Y-37500000D03*
X114000000Y-40000000D03*
X114000000Y-42500000D03*
X114000000Y-45000000D03*
X114000000Y-47500000D03*
%TD*%
D13*
%TO.C,H4*%
X113600000Y-171000000D03*
X114302944Y-169302944D03*
X114302944Y-172697056D03*
X116000000Y-168600000D03*
D14*
X116000000Y-171000000D03*
D13*
X116000000Y-173400000D03*
X117697056Y-169302944D03*
X117697056Y-172697056D03*
X118400000Y-171000000D03*
%TD*%
D12*
%TO.C,C901*%
X4895000Y-42045000D03*
X9895000Y-42045000D03*
%TD*%
D13*
%TO.C,H3*%
X1600000Y-171000000D03*
X2302944Y-169302944D03*
X2302944Y-172697056D03*
X4000000Y-168600000D03*
D14*
X4000000Y-171000000D03*
D13*
X4000000Y-173400000D03*
X5697056Y-169302944D03*
X5697056Y-172697056D03*
X6400000Y-171000000D03*
%TD*%
D19*
%TO.C,P4*%
X80000000Y-168000000D03*
D20*
X83960000Y-168000000D03*
X87920000Y-168000000D03*
X91880000Y-168000000D03*
%TD*%
D12*
%TO.C,C1301*%
X75985000Y-86225000D03*
X80985000Y-86225000D03*
%TD*%
D13*
%TO.C,H1*%
X1600000Y-4000000D03*
X2302944Y-2302944D03*
X2302944Y-5697056D03*
X4000000Y-1600000D03*
D14*
X4000000Y-4000000D03*
D13*
X4000000Y-6400000D03*
X5697056Y-2302944D03*
X5697056Y-5697056D03*
X6400000Y-4000000D03*
%TD*%
D12*
%TO.C,C804*%
X82895000Y-30515000D03*
X87895000Y-30515000D03*
%TD*%
%TO.C,C904*%
X4895000Y-52525000D03*
X9895000Y-52525000D03*
%TD*%
D15*
%TO.C,P2*%
X103000000Y-5000000D03*
D16*
X105500000Y-5000000D03*
X108000000Y-5000000D03*
%TD*%
D12*
%TO.C,C801*%
X82895000Y-23925000D03*
X87895000Y-23925000D03*
%TD*%
D15*
%TO.C,P1*%
X13000000Y-169000000D03*
D16*
X15500000Y-169000000D03*
X18000000Y-169000000D03*
X20500000Y-169000000D03*
X23000000Y-169000000D03*
X25500000Y-169000000D03*
%TD*%
D12*
%TO.C,C1342*%
X14185000Y-116675000D03*
X19185000Y-116675000D03*
%TD*%
%TO.C,C1341*%
X4895000Y-116675000D03*
X9895000Y-116675000D03*
%TD*%
D10*
%TO.C,U1304*%
X57525000Y-80415000D03*
D11*
X60065000Y-80415000D03*
X62605000Y-80415000D03*
X65145000Y-80415000D03*
X67685000Y-80415000D03*
X70225000Y-80415000D03*
X72765000Y-80415000D03*
X75305000Y-80415000D03*
%TD*%
D15*
%TO.C,P5*%
X13000000Y-5000000D03*
D16*
X15500000Y-5000000D03*
X18000000Y-5000000D03*
X20500000Y-5000000D03*
X23000000Y-5000000D03*
X25500000Y-5000000D03*
X28000000Y-5000000D03*
X30500000Y-5000000D03*
%TD*%
D12*
%TO.C,C1344*%
X23475000Y-116675000D03*
X28475000Y-116675000D03*
%TD*%
D17*
%TO.C,P9*%
X114000000Y-96000000D03*
D18*
X114000000Y-98500000D03*
X114000000Y-101000000D03*
X114000000Y-103500000D03*
X114000000Y-106000000D03*
X114000000Y-108500000D03*
%TD*%
M02*
