M48
; DRILL file KiCad 10.0.6 date 2026-09-21T00:33:18
; FORMAT={-:-/ absolute / metric / decimal}
; #@! TF.CreationDate,2026-09-21T00:33:18-06:00
; #@! TF.GenerationSoftware,Kicad,Pcbnew,10.0.6
; #@! TF.FileFunction,Plated,1,2,PTH
FMAT,2
METRIC
; #@! TA.AperFunction,Plated,PTH,ViaDrill
T1C0.300
; #@! TA.AperFunction,Plated,PTH,ViaDrill
T2C0.400
; #@! TA.AperFunction,Plated,PTH,ComponentDrill
T3C0.950
; #@! TA.AperFunction,Plated,PTH,ComponentDrill
T4C1.000
; #@! TA.AperFunction,Plated,PTH,ComponentDrill
T5C1.200
; #@! TA.AperFunction,Plated,PTH,ComponentDrill
T6C1.700
%
G90
G05
T1
X3.95Y-55.15
X3.95Y-79.15
X3.95Y-87.15
X3.95Y-95.15
X6.454Y-85.079
X6.742Y-92.908
X9.543Y-96.156
X9.571Y-93.238
X10.806Y-96.526
X11.416Y-91.883
X11.95Y-39.15
X11.95Y-47.15
X11.95Y-55.15
X11.95Y-71.15
X15.74Y-85.669
X16.945Y-91.012
X17.236Y-102.955
X18.16Y-78.491
X19.236Y-88.074
X19.67Y-84.674
X19.95Y-31.15
X19.95Y-47.15
X19.95Y-71.15
X19.95Y-111.15
X20.456Y-90.423
X20.848Y-101.302
X21.16Y-76.357
X21.6Y-93.157
X24.275Y-103.618
X25.46Y-107.85
X27.387Y-105.599
X27.95Y-31.15
X27.95Y-47.15
X27.95Y-55.15
X27.95Y-63.15
X27.95Y-87.15
X30.272Y-105.555
X31.545Y-106.8
X31.56Y-84.844
X32.188Y-101.61
X33.164Y-100.34
X33.379Y-103.56
X35.95Y-31.15
X35.95Y-39.15
X35.95Y-47.15
X35.95Y-55.15
X35.95Y-63.15
X35.95Y-71.15
X36.201Y-104.534
X36.216Y-103.324
X36.273Y-79.687
X36.632Y-102.364
X36.667Y-100.295
X37.815Y-78.734
X37.952Y-36.397
X40.007Y-103.002
X43.95Y-31.15
X43.95Y-47.15
X43.95Y-55.15
X43.95Y-63.15
X43.95Y-71.15
X44.69Y-99.98
X50.908Y-41.273
X51.95Y-31.15
X51.95Y-47.15
X51.95Y-55.15
X52.917Y-32.717
X59.95Y-31.15
X59.95Y-39.15
X59.95Y-47.15
X59.95Y-55.15
X59.95Y-63.15
X63.387Y-105.435
X64.531Y-106.395
X67.279Y-107.141
X67.905Y-97.763
X67.95Y-31.15
X67.95Y-47.15
X67.95Y-55.15
X68.01Y-60.44
X68.104Y-107.267
X68.981Y-106.376
X69.128Y-95.967
X69.95Y-84.97
X70.969Y-72.055
X71.917Y-107.423
X73.327Y-99.522
X73.346Y-87.185
X73.42Y-92.941
X73.531Y-76.828
X74.361Y-65.223
X75.005Y-76.168
X75.431Y-74.808
X75.544Y-95.203
X75.926Y-103.412
X75.95Y-31.15
X76.439Y-86.811
X78.876Y-100.386
X78.914Y-40.768
X79.68Y-42.508
X79.867Y-99.338
X82.27Y-109.657
X83.95Y-31.15
X83.95Y-55.15
X83.95Y-63.15
X83.95Y-71.15
X83.95Y-79.15
X83.95Y-87.15
X83.95Y-95.15
X86.465Y-104.797
X87.148Y-102.574
X88.04Y-101.375
X89.902Y-106.515
X90.593Y-103.334
X90.844Y-106.334
X91.95Y-31.15
X91.95Y-63.15
X91.95Y-79.15
X99.95Y-31.15
X99.95Y-79.15
X102.12Y-102.065
X107.95Y-31.15
X107.95Y-63.15
X107.95Y-79.15
X108.783Y-107.496
X109.569Y-104.815
X112.141Y-102.295
X115.95Y-31.15
X115.95Y-111.15
X118.092Y-70.212
X123.95Y-31.15
X123.95Y-111.15
X125.402Y-90.034
X128.118Y-89.849
X130.222Y-63.757
X131.011Y-82.399
X131.95Y-31.15
X131.95Y-39.15
X131.95Y-47.15
X131.95Y-55.15
X131.95Y-103.15
X131.95Y-111.15
X133.163Y-85.674
X136.441Y-94.213
X136.906Y-85.683
X137.179Y-91.834
X139.95Y-39.15
X139.95Y-47.15
X139.95Y-55.15
X139.95Y-63.15
X139.95Y-79.15
X139.95Y-103.15
X139.95Y-111.15
X147.95Y-55.15
X147.95Y-63.15
X147.95Y-71.15
X147.95Y-79.15
X147.95Y-87.15
X147.95Y-95.15
T2
X10.654Y-91.115
X13.993Y-97.435
X26.883Y-110.547
X75.64Y-111.413
X110.443Y-99.232
X114.828Y-103.411
X121.109Y-84.022
X124.659Y-80.372
X124.912Y-97.709
X128.367Y-94.565
X132.994Y-91.026
T3
X48.7Y-38.2
X51.2Y-38.2
X53.7Y-38.2
X56.2Y-38.2
X62.7Y-38.2
X65.2Y-38.2
X67.7Y-38.2
X70.2Y-38.2
X72.7Y-38.2
X75.2Y-38.2
X77.7Y-38.2
X80.2Y-38.2
X82.7Y-38.2
X85.2Y-38.2
X87.7Y-38.2
X90.2Y-38.2
T4
X39.7Y-38.2
X42.2Y-38.2
T5
X20.55Y-61.2
X20.9Y-67.0
X21.5Y-56.0
X26.7Y-67.25
X26.7Y-71.65
X32.5Y-67.0
X32.85Y-61.2
X53.55Y-61.2
X53.9Y-67.0
X54.5Y-56.0
X59.7Y-67.25
X59.7Y-71.65
X65.5Y-67.0
X65.85Y-61.2
X86.55Y-61.2
X86.9Y-67.0
X87.5Y-56.0
X92.7Y-67.25
X92.7Y-71.65
X98.5Y-67.0
X98.85Y-61.2
X119.55Y-61.2
X119.9Y-67.0
X120.5Y-56.0
X125.7Y-67.25
X125.7Y-71.65
X131.5Y-67.0
X131.85Y-61.2
T6
X112.32Y-38.2
X116.28Y-38.2
X120.24Y-38.2
X124.2Y-38.2
M30
