%TF.GenerationSoftware,KiCad,Pcbnew,10.0.6*%
%TF.CreationDate,2026-09-21T00:33:16-06:00*%
%TF.ProjectId,jack-board,6a61636b-2d62-46f6-9172-642e6b696361,rev?*%
%TF.SameCoordinates,Original*%
%TF.FileFunction,Soldermask,Top*%
%TF.FilePolarity,Negative*%
%FSLAX46Y46*%
G04 Gerber Fmt 4.6, Leading zero omitted, Abs format (unit mm)*
G04 Created by KiCad (PCBNEW 10.0.6) date 2026-09-21 00:33:16*
%MOMM*%
%LPD*%
G01*
G04 APERTURE LIST*
G04 Aperture macros list*
%AMRoundRect*
0 Rectangle with rounded corners*
0 $1 Rounding radius*
0 $2 $3 $4 $5 $6 $7 $8 $9 X,Y pos of 4 corners*
0 Add a 4 corners polygon primitive as box body*
4,1,4,$2,$3,$4,$5,$6,$7,$8,$9,$2,$3,0*
0 Add four circle primitives for the rounded corners*
1,1,$1+$1,$2,$3*
1,1,$1+$1,$4,$5*
1,1,$1+$1,$6,$7*
1,1,$1+$1,$8,$9*
0 Add four rect primitives between the rounded corners*
20,1,$1+$1,$2,$3,$4,$5,0*
20,1,$1+$1,$4,$5,$6,$7,0*
20,1,$1+$1,$6,$7,$8,$9,0*
20,1,$1+$1,$8,$9,$2,$3,0*%
%AMFreePoly0*
4,1,23,0.500000,-0.750000,0.000000,-0.750000,0.000000,-0.745722,-0.065263,-0.745722,-0.191342,-0.711940,-0.304381,-0.646677,-0.396677,-0.554381,-0.461940,-0.441342,-0.495722,-0.315263,-0.495722,-0.250000,-0.500000,-0.250000,-0.500000,0.250000,-0.495722,0.250000,-0.495722,0.315263,-0.461940,0.441342,-0.396677,0.554381,-0.304381,0.646677,-0.191342,0.711940,-0.065263,0.745722,0.000000,0.745722,
0.000000,0.750000,0.500000,0.750000,0.500000,-0.750000,0.500000,-0.750000,$1*%
%AMFreePoly1*
4,1,23,0.000000,0.745722,0.065263,0.745722,0.191342,0.711940,0.304381,0.646677,0.396677,0.554381,0.461940,0.441342,0.495722,0.315263,0.495722,0.250000,0.500000,0.250000,0.500000,-0.250000,0.495722,-0.250000,0.495722,-0.315263,0.461940,-0.441342,0.396677,-0.554381,0.304381,-0.646677,0.191342,-0.711940,0.065263,-0.745722,0.000000,-0.745722,0.000000,-0.750000,-0.500000,-0.750000,
-0.500000,0.750000,0.000000,0.750000,0.000000,0.745722,0.000000,0.745722,$1*%
G04 Aperture macros list end*
%ADD10RoundRect,0.200000X-0.200000X-0.275000X0.200000X-0.275000X0.200000X0.275000X-0.200000X0.275000X0*%
%ADD11RoundRect,0.225000X-0.225000X-0.375000X0.225000X-0.375000X0.225000X0.375000X-0.225000X0.375000X0*%
%ADD12C,2.900000*%
%ADD13RoundRect,0.225000X-0.225000X-0.250000X0.225000X-0.250000X0.225000X0.250000X-0.225000X0.250000X0*%
%ADD14RoundRect,0.250000X-0.325000X-1.100000X0.325000X-1.100000X0.325000X1.100000X-0.325000X1.100000X0*%
%ADD15R,1.800000X0.800000*%
%ADD16RoundRect,0.150000X-0.825000X-0.150000X0.825000X-0.150000X0.825000X0.150000X-0.825000X0.150000X0*%
%ADD17RoundRect,0.250000X-0.250000X-0.475000X0.250000X-0.475000X0.250000X0.475000X-0.250000X0.475000X0*%
%ADD18RoundRect,0.150000X-0.587500X-0.150000X0.587500X-0.150000X0.587500X0.150000X-0.587500X0.150000X0*%
%ADD19RoundRect,0.150000X-0.512500X-0.150000X0.512500X-0.150000X0.512500X0.150000X-0.512500X0.150000X0*%
%ADD20RoundRect,0.250000X-0.325000X-0.650000X0.325000X-0.650000X0.325000X0.650000X-0.325000X0.650000X0*%
%ADD21C,3.200000*%
%ADD22FreePoly0,0.000000*%
%ADD23FreePoly1,0.000000*%
%ADD24RoundRect,0.250000X0.600000X0.725000X-0.600000X0.725000X-0.600000X-0.725000X0.600000X-0.725000X0*%
%ADD25O,1.700000X1.950000*%
%ADD26RoundRect,0.250000X0.600000X0.750000X-0.600000X0.750000X-0.600000X-0.750000X0.600000X-0.750000X0*%
%ADD27O,1.700000X2.000000*%
%ADD28RoundRect,0.250001X1.099999X1.099999X-1.099999X1.099999X-1.099999X-1.099999X1.099999X-1.099999X0*%
%ADD29C,2.700000*%
G04 APERTURE END LIST*
%TO.C,JP1*%
G36*
X71045000Y-86435000D02*
G01*
X71345000Y-86435000D01*
X71345000Y-87935000D01*
X71045000Y-87935000D01*
X71045000Y-86435000D01*
G37*
%TD*%
D10*
%TO.C,R55*%
X14150000Y-107015000D03*
X15800000Y-107015000D03*
%TD*%
%TO.C,R52*%
X10200000Y-104565000D03*
X11850000Y-104565000D03*
%TD*%
%TO.C,R3013*%
X110150000Y-107515000D03*
X111800000Y-107515000D03*
%TD*%
%TO.C,R101*%
X21530000Y-90855000D03*
X23180000Y-90855000D03*
%TD*%
%TO.C,R3012*%
X122440000Y-104565000D03*
X124090000Y-104565000D03*
%TD*%
D11*
%TO.C,D51*%
X10245000Y-101695000D03*
X13545000Y-101695000D03*
%TD*%
D12*
%TO.C,J2*%
X65850000Y-61200000D03*
X53550000Y-61200000D03*
X59700000Y-67250000D03*
X59700000Y-71650000D03*
X65500000Y-67000000D03*
X53900000Y-67000000D03*
X54500000Y-56000000D03*
%TD*%
D13*
%TO.C,C309*%
X122250000Y-97435000D03*
X123800000Y-97435000D03*
%TD*%
D10*
%TO.C,R1012*%
X83200000Y-106515000D03*
X84850000Y-106515000D03*
%TD*%
D11*
%TO.C,D34*%
X126195000Y-94565000D03*
X129495000Y-94565000D03*
%TD*%
D14*
%TO.C,C303*%
X134710000Y-81145000D03*
X137660000Y-81145000D03*
%TD*%
D15*
%TO.C,K2*%
X19695000Y-33995000D03*
X19695000Y-37195000D03*
X19695000Y-39395000D03*
X19695000Y-41595000D03*
X26695000Y-41595000D03*
X26695000Y-39395000D03*
X26695000Y-37195000D03*
X26695000Y-33995000D03*
%TD*%
D10*
%TO.C,R306*%
X135690000Y-86665000D03*
X137340000Y-86665000D03*
%TD*%
D14*
%TO.C,C104*%
X6370000Y-87535000D03*
X9320000Y-87535000D03*
%TD*%
D12*
%TO.C,J1*%
X32850000Y-61200000D03*
X20550000Y-61200000D03*
X26700000Y-67250000D03*
X26700000Y-71650000D03*
X32500000Y-67000000D03*
X20900000Y-67000000D03*
X21500000Y-56000000D03*
%TD*%
D10*
%TO.C,R104*%
X11790000Y-86665000D03*
X13440000Y-86665000D03*
%TD*%
D13*
%TO.C,C301*%
X139690000Y-86665000D03*
X141240000Y-86665000D03*
%TD*%
D10*
%TO.C,R53*%
X14150000Y-104565000D03*
X15800000Y-104565000D03*
%TD*%
%TO.C,R102*%
X21530000Y-94145000D03*
X23180000Y-94145000D03*
%TD*%
%TO.C,R107*%
X96690000Y-100275000D03*
X98340000Y-100275000D03*
%TD*%
D16*
%TO.C,U2*%
X122770000Y-80340000D03*
X122770000Y-81610000D03*
X122770000Y-82880000D03*
X122770000Y-84150000D03*
X127720000Y-84150000D03*
X127720000Y-82880000D03*
X127720000Y-81610000D03*
X127720000Y-80340000D03*
%TD*%
D11*
%TO.C,D12*%
X6245000Y-91275000D03*
X9545000Y-91275000D03*
%TD*%
D10*
%TO.C,R59*%
X70200000Y-97295000D03*
X71850000Y-97295000D03*
%TD*%
%TO.C,R61*%
X74150000Y-97295000D03*
X75800000Y-97295000D03*
%TD*%
D13*
%TO.C,C101*%
X11940000Y-90855000D03*
X13490000Y-90855000D03*
%TD*%
D10*
%TO.C,R1010*%
X92740000Y-100275000D03*
X94390000Y-100275000D03*
%TD*%
D13*
%TO.C,C1010*%
X99930000Y-103565000D03*
X101480000Y-103565000D03*
%TD*%
D17*
%TO.C,C107*%
X87685000Y-103815000D03*
X89585000Y-103815000D03*
%TD*%
D12*
%TO.C,J4*%
X131850000Y-61200000D03*
X119550000Y-61200000D03*
X125700000Y-67250000D03*
X125700000Y-71650000D03*
X131500000Y-67000000D03*
X119900000Y-67000000D03*
X120500000Y-56000000D03*
%TD*%
D17*
%TO.C,C58*%
X79075000Y-112525000D03*
X80975000Y-112525000D03*
%TD*%
D10*
%TO.C,R301*%
X127890000Y-90855000D03*
X129540000Y-90855000D03*
%TD*%
%TO.C,R109*%
X88790000Y-100275000D03*
X90440000Y-100275000D03*
%TD*%
D18*
%TO.C,Q3*%
X74827500Y-86685000D03*
X74827500Y-88585000D03*
X76702500Y-87635000D03*
%TD*%
D10*
%TO.C,R108*%
X100640000Y-100275000D03*
X102290000Y-100275000D03*
%TD*%
D19*
%TO.C,U4*%
X37847500Y-100295000D03*
X37847500Y-101245000D03*
X37847500Y-102195000D03*
X40122500Y-102195000D03*
X40122500Y-101245000D03*
X40122500Y-100295000D03*
%TD*%
D13*
%TO.C,C102*%
X6250000Y-94145000D03*
X7800000Y-94145000D03*
%TD*%
D11*
%TO.C,D11*%
X15885000Y-91275000D03*
X19185000Y-91275000D03*
%TD*%
D10*
%TO.C,R106*%
X19690000Y-86665000D03*
X21340000Y-86665000D03*
%TD*%
D20*
%TO.C,C305*%
X106370000Y-101695000D03*
X109320000Y-101695000D03*
%TD*%
D11*
%TO.C,D2F*%
X29535000Y-33695000D03*
X32835000Y-33695000D03*
%TD*%
D18*
%TO.C,Q5*%
X70537500Y-104155000D03*
X70537500Y-106055000D03*
X72412500Y-105105000D03*
%TD*%
D16*
%TO.C,U3*%
X29770000Y-100340000D03*
X29770000Y-101610000D03*
X29770000Y-102880000D03*
X29770000Y-104150000D03*
X34720000Y-104150000D03*
X34720000Y-102880000D03*
X34720000Y-101610000D03*
X34720000Y-100340000D03*
%TD*%
D11*
%TO.C,D1F*%
X62535000Y-100695000D03*
X65835000Y-100695000D03*
%TD*%
D13*
%TO.C,C53*%
X18150000Y-104565000D03*
X19700000Y-104565000D03*
%TD*%
D17*
%TO.C,C56*%
X70295000Y-112525000D03*
X72195000Y-112525000D03*
%TD*%
D21*
%TO.C,H2*%
X144200000Y-71200000D03*
%TD*%
D10*
%TO.C,R58*%
X75890000Y-91055000D03*
X77540000Y-91055000D03*
%TD*%
D14*
%TO.C,C103*%
X18710000Y-81145000D03*
X21660000Y-81145000D03*
%TD*%
D10*
%TO.C,R105*%
X15740000Y-86665000D03*
X17390000Y-86665000D03*
%TD*%
D11*
%TO.C,D13*%
X10195000Y-94565000D03*
X13495000Y-94565000D03*
%TD*%
D10*
%TO.C,R60*%
X74590000Y-94345000D03*
X76240000Y-94345000D03*
%TD*%
%TO.C,R305*%
X131740000Y-86665000D03*
X133390000Y-86665000D03*
%TD*%
D13*
%TO.C,C3010*%
X106250000Y-107515000D03*
X107800000Y-107515000D03*
%TD*%
%TO.C,C109*%
X10200000Y-97435000D03*
X11750000Y-97435000D03*
%TD*%
D17*
%TO.C,C106*%
X83295000Y-103815000D03*
X85195000Y-103815000D03*
%TD*%
D13*
%TO.C,C302*%
X137580000Y-90855000D03*
X139130000Y-90855000D03*
%TD*%
D17*
%TO.C,C54*%
X70295000Y-94595000D03*
X72195000Y-94595000D03*
%TD*%
D22*
%TO.C,JP1*%
X70545000Y-87185000D03*
D23*
X71845000Y-87185000D03*
%TD*%
D13*
%TO.C,C55*%
X70250000Y-108525000D03*
X71800000Y-108525000D03*
%TD*%
D10*
%TO.C,R3011*%
X118490000Y-104565000D03*
X120140000Y-104565000D03*
%TD*%
D17*
%TO.C,C57*%
X74685000Y-112525000D03*
X76585000Y-112525000D03*
%TD*%
D11*
%TO.C,D14*%
X15885000Y-94565000D03*
X19185000Y-94565000D03*
%TD*%
D13*
%TO.C,C308*%
X137580000Y-94145000D03*
X139130000Y-94145000D03*
%TD*%
D11*
%TO.C,D53*%
X70245000Y-91475000D03*
X73545000Y-91475000D03*
%TD*%
D17*
%TO.C,C306*%
X106295000Y-104815000D03*
X108195000Y-104815000D03*
%TD*%
D10*
%TO.C,R1011*%
X91980000Y-103565000D03*
X93630000Y-103565000D03*
%TD*%
%TO.C,R1014*%
X87150000Y-106515000D03*
X88800000Y-106515000D03*
%TD*%
%TO.C,R3010*%
X111790000Y-101275000D03*
X113440000Y-101275000D03*
%TD*%
%TO.C,R309*%
X115740000Y-101275000D03*
X117390000Y-101275000D03*
%TD*%
%TO.C,R56*%
X18100000Y-107015000D03*
X19750000Y-107015000D03*
%TD*%
D13*
%TO.C,C51*%
X34100000Y-106665000D03*
X35650000Y-106665000D03*
%TD*%
D14*
%TO.C,C304*%
X122370000Y-87535000D03*
X125320000Y-87535000D03*
%TD*%
D21*
%TO.C,H1*%
X8200000Y-71200000D03*
%TD*%
D18*
%TO.C,Q2*%
X29537500Y-106685000D03*
X29537500Y-108585000D03*
X31412500Y-107635000D03*
%TD*%
D10*
%TO.C,R302*%
X122200000Y-94145000D03*
X123850000Y-94145000D03*
%TD*%
%TO.C,R307*%
X114540000Y-104565000D03*
X116190000Y-104565000D03*
%TD*%
%TO.C,R62*%
X75050000Y-99745000D03*
X76700000Y-99745000D03*
%TD*%
%TO.C,R303*%
X130590000Y-80275000D03*
X132240000Y-80275000D03*
%TD*%
D17*
%TO.C,C307*%
X119785000Y-101525000D03*
X121685000Y-101525000D03*
%TD*%
D10*
%TO.C,R51*%
X15890000Y-101275000D03*
X17540000Y-101275000D03*
%TD*%
D12*
%TO.C,J3*%
X98850000Y-61200000D03*
X86550000Y-61200000D03*
X92700000Y-67250000D03*
X92700000Y-71650000D03*
X98500000Y-67000000D03*
X86900000Y-67000000D03*
X87500000Y-56000000D03*
%TD*%
D10*
%TO.C,R308*%
X110590000Y-104565000D03*
X112240000Y-104565000D03*
%TD*%
D18*
%TO.C,Q4*%
X70537500Y-99765000D03*
X70537500Y-101665000D03*
X72412500Y-100715000D03*
%TD*%
D16*
%TO.C,U5*%
X70770000Y-80340000D03*
X70770000Y-81610000D03*
X70770000Y-82880000D03*
X70770000Y-84150000D03*
X75720000Y-84150000D03*
X75720000Y-82880000D03*
X75720000Y-81610000D03*
X75720000Y-80340000D03*
%TD*%
D10*
%TO.C,R304*%
X127790000Y-86665000D03*
X129440000Y-86665000D03*
%TD*%
D15*
%TO.C,K1*%
X52695000Y-100995000D03*
X52695000Y-104195000D03*
X52695000Y-106395000D03*
X52695000Y-108595000D03*
X59695000Y-108595000D03*
X59695000Y-106395000D03*
X59695000Y-104195000D03*
X59695000Y-100995000D03*
%TD*%
D18*
%TO.C,Q1*%
X43017500Y-100295000D03*
X43017500Y-102195000D03*
X44892500Y-101245000D03*
%TD*%
D10*
%TO.C,R1013*%
X95930000Y-103565000D03*
X97580000Y-103565000D03*
%TD*%
D13*
%TO.C,C52*%
X38050000Y-106665000D03*
X39600000Y-106665000D03*
%TD*%
D11*
%TO.C,D52*%
X19885000Y-101695000D03*
X23185000Y-101695000D03*
%TD*%
%TO.C,D33*%
X131885000Y-94565000D03*
X135185000Y-94565000D03*
%TD*%
D10*
%TO.C,R54*%
X22050000Y-104565000D03*
X23700000Y-104565000D03*
%TD*%
%TO.C,R103*%
X14590000Y-80275000D03*
X16240000Y-80275000D03*
%TD*%
D20*
%TO.C,C105*%
X83370000Y-100695000D03*
X86320000Y-100695000D03*
%TD*%
D10*
%TO.C,R3014*%
X114100000Y-107515000D03*
X115750000Y-107515000D03*
%TD*%
D13*
%TO.C,C108*%
X6250000Y-97435000D03*
X7800000Y-97435000D03*
%TD*%
D11*
%TO.C,D32*%
X131885000Y-91275000D03*
X135185000Y-91275000D03*
%TD*%
D16*
%TO.C,U1*%
X6770000Y-80340000D03*
X6770000Y-81610000D03*
X6770000Y-82880000D03*
X6770000Y-84150000D03*
X11720000Y-84150000D03*
X11720000Y-82880000D03*
X11720000Y-81610000D03*
X11720000Y-80340000D03*
%TD*%
D10*
%TO.C,R57*%
X10200000Y-107015000D03*
X11850000Y-107015000D03*
%TD*%
D11*
%TO.C,D31*%
X122245000Y-91275000D03*
X125545000Y-91275000D03*
%TD*%
D10*
%TO.C,R63*%
X75050000Y-104135000D03*
X76700000Y-104135000D03*
%TD*%
D24*
%TO.C,P3*%
X56200000Y-38200000D03*
D25*
X53700000Y-38200000D03*
X51200000Y-38200000D03*
X48700000Y-38200000D03*
%TD*%
D26*
%TO.C,P4*%
X42200000Y-38200000D03*
D27*
X39700000Y-38200000D03*
%TD*%
D28*
%TO.C,P1*%
X124200000Y-38200000D03*
D29*
X120240000Y-38200000D03*
X116280000Y-38200000D03*
X112320000Y-38200000D03*
%TD*%
D24*
%TO.C,P2*%
X90200000Y-38200000D03*
D25*
X87700000Y-38200000D03*
X85200000Y-38200000D03*
X82700000Y-38200000D03*
X80200000Y-38200000D03*
X77700000Y-38200000D03*
X75200000Y-38200000D03*
X72700000Y-38200000D03*
X70200000Y-38200000D03*
X67700000Y-38200000D03*
X65200000Y-38200000D03*
X62700000Y-38200000D03*
%TD*%
M02*
