%TF.GenerationSoftware,KiCad,Pcbnew,10.0.6*%
%TF.CreationDate,2026-09-21T00:33:16-06:00*%
%TF.ProjectId,jack-board,6a61636b-2d62-46f6-9172-642e6b696361,rev?*%
%TF.SameCoordinates,Original*%
%TF.FileFunction,Legend,Bot*%
%TF.FilePolarity,Positive*%
%FSLAX46Y46*%
G04 Gerber Fmt 4.6, Leading zero omitted, Abs format (unit mm)*
G04 Created by KiCad (PCBNEW 10.0.6) date 2026-09-21 00:33:16*
%MOMM*%
%LPD*%
G01*
G04 APERTURE LIST*
G04 Aperture macros list*
%AMRoundRect*
0 Rectangle with rounded corners*
0 $1 Rounding radius*
0 $2 $3 $4 $5 $6 $7 $8 $9 X,Y pos of 4 corners*
0 Add a 4 corners polygon primitive as box body*
4,1,4,$2,$3,$4,$5,$6,$7,$8,$9,$2,$3,0*
0 Add four circle primitives for the rounded corners*
1,1,$1+$1,$2,$3*
1,1,$1+$1,$4,$5*
1,1,$1+$1,$6,$7*
1,1,$1+$1,$8,$9*
0 Add four rect primitives between the rounded corners*
20,1,$1+$1,$2,$3,$4,$5,0*
20,1,$1+$1,$4,$5,$6,$7,0*
20,1,$1+$1,$6,$7,$8,$9,0*
20,1,$1+$1,$8,$9,$2,$3,0*%
G04 Aperture macros list end*
%ADD10C,0.150000*%
%ADD11C,0.120000*%
%ADD12C,2.900000*%
%ADD13C,3.200000*%
%ADD14RoundRect,0.250000X0.600000X0.725000X-0.600000X0.725000X-0.600000X-0.725000X0.600000X-0.725000X0*%
%ADD15O,1.700000X1.950000*%
%ADD16RoundRect,0.250000X0.600000X0.750000X-0.600000X0.750000X-0.600000X-0.750000X0.600000X-0.750000X0*%
%ADD17O,1.700000X2.000000*%
%ADD18RoundRect,0.250001X1.099999X1.099999X-1.099999X1.099999X-1.099999X-1.099999X1.099999X-1.099999X0*%
%ADD19C,2.700000*%
G04 APERTURE END LIST*
D10*
X53188094Y-35104819D02*
X53188094Y-34104819D01*
X53188094Y-34104819D02*
X52807142Y-34104819D01*
X52807142Y-34104819D02*
X52711904Y-34152438D01*
X52711904Y-34152438D02*
X52664285Y-34200057D01*
X52664285Y-34200057D02*
X52616666Y-34295295D01*
X52616666Y-34295295D02*
X52616666Y-34438152D01*
X52616666Y-34438152D02*
X52664285Y-34533390D01*
X52664285Y-34533390D02*
X52711904Y-34581009D01*
X52711904Y-34581009D02*
X52807142Y-34628628D01*
X52807142Y-34628628D02*
X53188094Y-34628628D01*
X52283332Y-34104819D02*
X51664285Y-34104819D01*
X51664285Y-34104819D02*
X51997618Y-34485771D01*
X51997618Y-34485771D02*
X51854761Y-34485771D01*
X51854761Y-34485771D02*
X51759523Y-34533390D01*
X51759523Y-34533390D02*
X51711904Y-34581009D01*
X51711904Y-34581009D02*
X51664285Y-34676247D01*
X51664285Y-34676247D02*
X51664285Y-34914342D01*
X51664285Y-34914342D02*
X51711904Y-35009580D01*
X51711904Y-35009580D02*
X51759523Y-35057200D01*
X51759523Y-35057200D02*
X51854761Y-35104819D01*
X51854761Y-35104819D02*
X52140475Y-35104819D01*
X52140475Y-35104819D02*
X52235713Y-35057200D01*
X52235713Y-35057200D02*
X52283332Y-35009580D01*
X41688094Y-35104819D02*
X41688094Y-34104819D01*
X41688094Y-34104819D02*
X41307142Y-34104819D01*
X41307142Y-34104819D02*
X41211904Y-34152438D01*
X41211904Y-34152438D02*
X41164285Y-34200057D01*
X41164285Y-34200057D02*
X41116666Y-34295295D01*
X41116666Y-34295295D02*
X41116666Y-34438152D01*
X41116666Y-34438152D02*
X41164285Y-34533390D01*
X41164285Y-34533390D02*
X41211904Y-34581009D01*
X41211904Y-34581009D02*
X41307142Y-34628628D01*
X41307142Y-34628628D02*
X41688094Y-34628628D01*
X40259523Y-34438152D02*
X40259523Y-35104819D01*
X40497618Y-34057200D02*
X40735713Y-34771485D01*
X40735713Y-34771485D02*
X40116666Y-34771485D01*
X118998094Y-33754819D02*
X118998094Y-32754819D01*
X118998094Y-32754819D02*
X118617142Y-32754819D01*
X118617142Y-32754819D02*
X118521904Y-32802438D01*
X118521904Y-32802438D02*
X118474285Y-32850057D01*
X118474285Y-32850057D02*
X118426666Y-32945295D01*
X118426666Y-32945295D02*
X118426666Y-33088152D01*
X118426666Y-33088152D02*
X118474285Y-33183390D01*
X118474285Y-33183390D02*
X118521904Y-33231009D01*
X118521904Y-33231009D02*
X118617142Y-33278628D01*
X118617142Y-33278628D02*
X118998094Y-33278628D01*
X117474285Y-33754819D02*
X118045713Y-33754819D01*
X117759999Y-33754819D02*
X117759999Y-32754819D01*
X117759999Y-32754819D02*
X117855237Y-32897676D01*
X117855237Y-32897676D02*
X117950475Y-32992914D01*
X117950475Y-32992914D02*
X118045713Y-33040533D01*
X77188094Y-35104819D02*
X77188094Y-34104819D01*
X77188094Y-34104819D02*
X76807142Y-34104819D01*
X76807142Y-34104819D02*
X76711904Y-34152438D01*
X76711904Y-34152438D02*
X76664285Y-34200057D01*
X76664285Y-34200057D02*
X76616666Y-34295295D01*
X76616666Y-34295295D02*
X76616666Y-34438152D01*
X76616666Y-34438152D02*
X76664285Y-34533390D01*
X76664285Y-34533390D02*
X76711904Y-34581009D01*
X76711904Y-34581009D02*
X76807142Y-34628628D01*
X76807142Y-34628628D02*
X77188094Y-34628628D01*
X76235713Y-34200057D02*
X76188094Y-34152438D01*
X76188094Y-34152438D02*
X76092856Y-34104819D01*
X76092856Y-34104819D02*
X75854761Y-34104819D01*
X75854761Y-34104819D02*
X75759523Y-34152438D01*
X75759523Y-34152438D02*
X75711904Y-34200057D01*
X75711904Y-34200057D02*
X75664285Y-34295295D01*
X75664285Y-34295295D02*
X75664285Y-34390533D01*
X75664285Y-34390533D02*
X75711904Y-34533390D01*
X75711904Y-34533390D02*
X76283332Y-35104819D01*
X76283332Y-35104819D02*
X75664285Y-35104819D01*
%TO.C,P3*%
D11*
X46150000Y-38000000D02*
X46900000Y-38000000D01*
X46900000Y-38000000D02*
X46900000Y-40950000D01*
X46900000Y-40950000D02*
X52450000Y-40950000D01*
X57800000Y-35450000D02*
X59050000Y-35450000D01*
X58000000Y-38000000D02*
X58000000Y-40950000D01*
X58000000Y-40950000D02*
X52450000Y-40950000D01*
X58750000Y-38000000D02*
X58000000Y-38000000D01*
X59050000Y-35450000D02*
X59050000Y-36700000D01*
X46150000Y-35750000D02*
X47950000Y-35750000D01*
X47950000Y-36500000D01*
X46150000Y-36500000D01*
X46150000Y-35750000D01*
X49450000Y-35750000D02*
X55450000Y-35750000D01*
X55450000Y-36500000D01*
X49450000Y-36500000D01*
X49450000Y-35750000D01*
X56950000Y-35750000D02*
X58750000Y-35750000D01*
X58750000Y-36500000D01*
X56950000Y-36500000D01*
X56950000Y-35750000D01*
X46140000Y-35740000D02*
X58760000Y-35740000D01*
X58760000Y-41710000D01*
X46140000Y-41710000D01*
X46140000Y-35740000D01*
%TO.C,P4*%
X37150000Y-38000000D02*
X37900000Y-38000000D01*
X37900000Y-38000000D02*
X37900000Y-40950000D01*
X37900000Y-40950000D02*
X40950000Y-40950000D01*
X43800000Y-35450000D02*
X45050000Y-35450000D01*
X44000000Y-38000000D02*
X44000000Y-40950000D01*
X44000000Y-40950000D02*
X40950000Y-40950000D01*
X44750000Y-38000000D02*
X44000000Y-38000000D01*
X45050000Y-35450000D02*
X45050000Y-36700000D01*
X37150000Y-35750000D02*
X38950000Y-35750000D01*
X38950000Y-36500000D01*
X37150000Y-36500000D01*
X37150000Y-35750000D01*
X40450000Y-35750000D02*
X41450000Y-35750000D01*
X41450000Y-36500000D01*
X40450000Y-36500000D01*
X40450000Y-35750000D01*
X42950000Y-35750000D02*
X44750000Y-35750000D01*
X44750000Y-36500000D01*
X42950000Y-36500000D01*
X42950000Y-35750000D01*
X37140000Y-35740000D02*
X44760000Y-35740000D01*
X44760000Y-41710000D01*
X37140000Y-41710000D01*
X37140000Y-35740000D01*
%TO.C,P1*%
X110260000Y-36090000D02*
X110260000Y-43110000D01*
X110260000Y-43110000D02*
X126260000Y-43110000D01*
X111460000Y-34390000D02*
X111460000Y-36090000D01*
X111460000Y-36090000D02*
X110260000Y-36090000D01*
X125060000Y-34390000D02*
X111460000Y-34390000D01*
X125060000Y-36090000D02*
X125060000Y-34390000D01*
X126260000Y-36090000D02*
X125060000Y-36090000D01*
X126260000Y-43110000D02*
X126260000Y-36090000D01*
X126460000Y-38200000D02*
X127060000Y-38500000D01*
X127060000Y-37900000D02*
X126460000Y-38200000D01*
X127060000Y-38500000D02*
X127060000Y-37900000D01*
%TO.C,P2*%
X60150000Y-38000000D02*
X60900000Y-38000000D01*
X60900000Y-38000000D02*
X60900000Y-40950000D01*
X60900000Y-40950000D02*
X76450000Y-40950000D01*
X91800000Y-35450000D02*
X93050000Y-35450000D01*
X92000000Y-38000000D02*
X92000000Y-40950000D01*
X92000000Y-40950000D02*
X76450000Y-40950000D01*
X92750000Y-38000000D02*
X92000000Y-38000000D01*
X93050000Y-35450000D02*
X93050000Y-36700000D01*
X60150000Y-35750000D02*
X61950000Y-35750000D01*
X61950000Y-36500000D01*
X60150000Y-36500000D01*
X60150000Y-35750000D01*
X63450000Y-35750000D02*
X89450000Y-35750000D01*
X89450000Y-36500000D01*
X63450000Y-36500000D01*
X63450000Y-35750000D01*
X90950000Y-35750000D02*
X92750000Y-35750000D01*
X92750000Y-36500000D01*
X90950000Y-36500000D01*
X90950000Y-35750000D01*
X60140000Y-35740000D02*
X92760000Y-35740000D01*
X92760000Y-41710000D01*
X60140000Y-41710000D01*
X60140000Y-35740000D01*
%TD*%
%LPC*%
D12*
%TO.C,J2*%
X65850000Y-61200000D03*
X53550000Y-61200000D03*
X59700000Y-67250000D03*
X59700000Y-71650000D03*
X65500000Y-67000000D03*
X53900000Y-67000000D03*
X54500000Y-56000000D03*
%TD*%
%TO.C,J1*%
X32850000Y-61200000D03*
X20550000Y-61200000D03*
X26700000Y-67250000D03*
X26700000Y-71650000D03*
X32500000Y-67000000D03*
X20900000Y-67000000D03*
X21500000Y-56000000D03*
%TD*%
%TO.C,J4*%
X131850000Y-61200000D03*
X119550000Y-61200000D03*
X125700000Y-67250000D03*
X125700000Y-71650000D03*
X131500000Y-67000000D03*
X119900000Y-67000000D03*
X120500000Y-56000000D03*
%TD*%
D13*
%TO.C,H2*%
X144200000Y-71200000D03*
%TD*%
%TO.C,H1*%
X8200000Y-71200000D03*
%TD*%
D12*
%TO.C,J3*%
X98850000Y-61200000D03*
X86550000Y-61200000D03*
X92700000Y-67250000D03*
X92700000Y-71650000D03*
X98500000Y-67000000D03*
X86900000Y-67000000D03*
X87500000Y-56000000D03*
%TD*%
D14*
%TO.C,P3*%
X56200000Y-38200000D03*
D15*
X53700000Y-38200000D03*
X51200000Y-38200000D03*
X48700000Y-38200000D03*
%TD*%
D16*
%TO.C,P4*%
X42200000Y-38200000D03*
D17*
X39700000Y-38200000D03*
%TD*%
D18*
%TO.C,P1*%
X124200000Y-38200000D03*
D19*
X120240000Y-38200000D03*
X116280000Y-38200000D03*
X112320000Y-38200000D03*
%TD*%
D14*
%TO.C,P2*%
X90200000Y-38200000D03*
D15*
X87700000Y-38200000D03*
X85200000Y-38200000D03*
X82700000Y-38200000D03*
X80200000Y-38200000D03*
X77700000Y-38200000D03*
X75200000Y-38200000D03*
X72700000Y-38200000D03*
X70200000Y-38200000D03*
X67700000Y-38200000D03*
X65200000Y-38200000D03*
X62700000Y-38200000D03*
%TD*%
%LPD*%
M02*
