%TF.GenerationSoftware,KiCad,Pcbnew,10.0.6*%
%TF.CreationDate,2026-09-21T00:33:16-06:00*%
%TF.ProjectId,jack-board,6a61636b-2d62-46f6-9172-642e6b696361,rev?*%
%TF.SameCoordinates,Original*%
%TF.FileFunction,Profile,NP*%
%FSLAX46Y46*%
G04 Gerber Fmt 4.6, Leading zero omitted, Abs format (unit mm)*
G04 Created by KiCad (PCBNEW 10.0.6) date 2026-09-21 00:33:16*
%MOMM*%
%LPD*%
G01*
G04 APERTURE LIST*
%TA.AperFunction,Profile*%
%ADD10C,0.100000*%
%TD*%
G04 APERTURE END LIST*
D10*
X0Y-76200000D02*
X46418Y-73540658D01*
X46418Y-73540658D02*
X185619Y-70884556D01*
X46418Y-78859341D02*
X0Y-76200000D01*
X185619Y-70884556D02*
X417431Y-68234931D01*
X185619Y-81515443D02*
X46418Y-78859341D01*
X417431Y-68234931D02*
X741573Y-65595009D01*
X417431Y-84165068D02*
X185619Y-81515443D01*
X741573Y-65595009D02*
X1157649Y-62968008D01*
X741573Y-86804990D02*
X417431Y-84165068D01*
X1157649Y-62968008D02*
X1665152Y-60357129D01*
X1157649Y-89431991D02*
X741573Y-86804990D01*
X1665152Y-60357129D02*
X2263465Y-57765551D01*
X1665152Y-92042870D02*
X1157649Y-89431991D01*
X2263465Y-57765551D02*
X2951858Y-55196433D01*
X2263465Y-94634448D02*
X1665152Y-92042870D01*
X2951858Y-55196433D02*
X3729493Y-52652905D01*
X2951858Y-97203566D02*
X2263465Y-94634448D01*
X3729493Y-52652905D02*
X4595422Y-50138065D01*
X3729493Y-99747094D02*
X2951858Y-97203566D01*
X4595422Y-50138065D02*
X5548590Y-47654977D01*
X4595422Y-102261934D02*
X3729493Y-99747094D01*
X5548590Y-47654977D02*
X6587836Y-45206667D01*
X5548590Y-104745022D02*
X4595422Y-102261934D01*
X6587836Y-45206667D02*
X7711893Y-42796118D01*
X6587836Y-107193332D02*
X5548590Y-104745022D01*
X7711893Y-42796118D02*
X8919393Y-40426266D01*
X7711893Y-109603881D02*
X6587836Y-107193332D01*
X8919393Y-40426266D02*
X10208864Y-38099999D01*
X8919393Y-111973733D02*
X7711893Y-109603881D01*
X10208864Y-38099999D02*
X11578735Y-35820152D01*
X10208864Y-114300000D02*
X8919393Y-111973733D01*
X11350500Y-116200000D02*
X10208864Y-114300000D01*
X11578735Y-35820152D02*
X13027336Y-33589500D01*
X13027336Y-33589500D02*
X14552905Y-31410763D01*
X14552905Y-31410763D02*
X16153580Y-29286595D01*
X16153580Y-29286595D02*
X17827413Y-27219584D01*
X17827413Y-27219584D02*
X17844437Y-27200000D01*
X17844437Y-27200000D02*
X134555562Y-27200000D01*
X33200000Y-87200000D02*
X33200000Y-97200000D01*
X33200000Y-97200000D02*
X67200000Y-97200000D01*
X67200000Y-87200000D02*
X33200000Y-87200000D01*
X67200000Y-97200000D02*
X67200000Y-87200000D01*
X85200000Y-87200000D02*
X85200000Y-97200000D01*
X85200000Y-97200000D02*
X119200000Y-97200000D01*
X119200000Y-87200000D02*
X85200000Y-87200000D01*
X119200000Y-97200000D02*
X119200000Y-87200000D01*
X134555562Y-27200000D02*
X134572586Y-27219584D01*
X134572586Y-27219584D02*
X136246419Y-29286595D01*
X136246419Y-29286595D02*
X137847094Y-31410763D01*
X137847094Y-31410763D02*
X139372663Y-33589500D01*
X139372663Y-33589500D02*
X140821264Y-35820152D01*
X140821264Y-35820152D02*
X142191135Y-38099999D01*
X141049499Y-116200000D02*
X11350500Y-116200000D01*
X142191135Y-38099999D02*
X143480606Y-40426266D01*
X142191135Y-114300000D02*
X141049499Y-116200000D01*
X143480606Y-40426266D02*
X144688106Y-42796118D01*
X143480606Y-111973733D02*
X142191135Y-114300000D01*
X144688106Y-42796118D02*
X145812163Y-45206667D01*
X144688106Y-109603881D02*
X143480606Y-111973733D01*
X145812163Y-45206667D02*
X146851409Y-47654977D01*
X145812163Y-107193332D02*
X144688106Y-109603881D01*
X146851409Y-47654977D02*
X147804577Y-50138065D01*
X146851409Y-104745022D02*
X145812163Y-107193332D01*
X147804577Y-50138065D02*
X148670506Y-52652905D01*
X147804577Y-102261934D02*
X146851409Y-104745022D01*
X148670506Y-52652905D02*
X149448141Y-55196433D01*
X148670506Y-99747094D02*
X147804577Y-102261934D01*
X149448141Y-55196433D02*
X150136534Y-57765551D01*
X149448141Y-97203566D02*
X148670506Y-99747094D01*
X150136534Y-57765551D02*
X150734847Y-60357129D01*
X150136534Y-94634448D02*
X149448141Y-97203566D01*
X150734847Y-60357129D02*
X151242350Y-62968008D01*
X150734847Y-92042870D02*
X150136534Y-94634448D01*
X151242350Y-62968008D02*
X151658426Y-65595009D01*
X151242350Y-89431991D02*
X150734847Y-92042870D01*
X151658426Y-65595009D02*
X151982568Y-68234931D01*
X151658426Y-86804990D02*
X151242350Y-89431991D01*
X151982568Y-68234931D02*
X152214380Y-70884556D01*
X151982568Y-84165068D02*
X151658426Y-86804990D01*
X152214380Y-70884556D02*
X152353581Y-73540658D01*
X152214380Y-81515443D02*
X151982568Y-84165068D01*
X152353581Y-73540658D02*
X152400000Y-76200000D01*
X152353581Y-78859341D02*
X152214380Y-81515443D01*
X152400000Y-76200000D02*
X152353581Y-78859341D01*
M02*
