%TF.GenerationSoftware,KiCad,Pcbnew,10.0.6*%
%TF.CreationDate,2026-09-20T19:54:34-06:00*%
%TF.ProjectId,io-board,696f2d62-6f61-4726-942e-6b696361645f,rev?*%
%TF.SameCoordinates,Original*%
%TF.FileFunction,Legend,Bot*%
%TF.FilePolarity,Positive*%
%FSLAX46Y46*%
G04 Gerber Fmt 4.6, Leading zero omitted, Abs format (unit mm)*
G04 Created by KiCad (PCBNEW 10.0.6) date 2026-09-20 19:54:34*
%MOMM*%
%LPD*%
G01*
G04 APERTURE LIST*
G04 Aperture macros list*
%AMRoundRect*
0 Rectangle with rounded corners*
0 $1 Rounding radius*
0 $2 $3 $4 $5 $6 $7 $8 $9 X,Y pos of 4 corners*
0 Add a 4 corners polygon primitive as box body*
4,1,4,$2,$3,$4,$5,$6,$7,$8,$9,$2,$3,0*
0 Add four circle primitives for the rounded corners*
1,1,$1+$1,$2,$3*
1,1,$1+$1,$4,$5*
1,1,$1+$1,$6,$7*
1,1,$1+$1,$8,$9*
0 Add four rect primitives between the rounded corners*
20,1,$1+$1,$2,$3,$4,$5,0*
20,1,$1+$1,$4,$5,$6,$7,0*
20,1,$1+$1,$6,$7,$8,$9,0*
20,1,$1+$1,$8,$9,$2,$3,0*%
G04 Aperture macros list end*
%ADD10RoundRect,0.250000X-0.600000X-0.725000X0.600000X-0.725000X0.600000X0.725000X-0.600000X0.725000X0*%
%ADD11O,1.700000X1.950000*%
%ADD12C,1.600000*%
%ADD13C,0.800000*%
%ADD14C,6.400000*%
%ADD15RoundRect,0.250001X-1.099999X-1.099999X1.099999X-1.099999X1.099999X1.099999X-1.099999X1.099999X0*%
%ADD16C,2.700000*%
G04 APERTURE END LIST*
%LPC*%
D10*
%TO.C,P5*%
X47000000Y-174000000D03*
D11*
X49500000Y-174000000D03*
X52000000Y-174000000D03*
X54500000Y-174000000D03*
X57000000Y-174000000D03*
X59500000Y-174000000D03*
%TD*%
D10*
%TO.C,P7*%
X80000000Y-5000000D03*
D11*
X82500000Y-5000000D03*
X85000000Y-5000000D03*
X87500000Y-5000000D03*
%TD*%
D10*
%TO.C,P3*%
X82000000Y-174000000D03*
D11*
X84500000Y-174000000D03*
X87000000Y-174000000D03*
%TD*%
D12*
%TO.C,C8006*%
X30895000Y-111725000D03*
X35895000Y-111725000D03*
%TD*%
%TO.C,C8001*%
X35745000Y-125905000D03*
X40745000Y-125905000D03*
%TD*%
%TO.C,C8003*%
X56375000Y-111725000D03*
X61375000Y-111725000D03*
%TD*%
D10*
%TO.C,P8*%
X66000000Y-174000000D03*
D11*
X68500000Y-174000000D03*
X71000000Y-174000000D03*
X73500000Y-174000000D03*
X76000000Y-174000000D03*
%TD*%
D13*
%TO.C,H4*%
X129600000Y-176000000D03*
X130302944Y-174302944D03*
X130302944Y-177697056D03*
X132000000Y-173600000D03*
D14*
X132000000Y-176000000D03*
D13*
X132000000Y-178400000D03*
X133697056Y-174302944D03*
X133697056Y-177697056D03*
X134400000Y-176000000D03*
%TD*%
D10*
%TO.C,P6*%
X30000000Y-5000000D03*
D11*
X32500000Y-5000000D03*
X35000000Y-5000000D03*
X37500000Y-5000000D03*
X40000000Y-5000000D03*
X42500000Y-5000000D03*
X45000000Y-5000000D03*
X47500000Y-5000000D03*
X50000000Y-5000000D03*
X52500000Y-5000000D03*
X55000000Y-5000000D03*
X57500000Y-5000000D03*
%TD*%
D12*
%TO.C,C8103*%
X30895000Y-132795000D03*
X35895000Y-132795000D03*
%TD*%
D15*
%TO.C,P1*%
X112000000Y-172000000D03*
D16*
X115960000Y-172000000D03*
X119920000Y-172000000D03*
X123880000Y-172000000D03*
%TD*%
D13*
%TO.C,H3*%
X1600000Y-176000000D03*
X2302944Y-174302944D03*
X2302944Y-177697056D03*
X4000000Y-173600000D03*
D14*
X4000000Y-176000000D03*
D13*
X4000000Y-178400000D03*
X5697056Y-174302944D03*
X5697056Y-177697056D03*
X6400000Y-176000000D03*
%TD*%
D12*
%TO.C,C7004*%
X106195000Y-76095000D03*
X111195000Y-76095000D03*
%TD*%
%TO.C,C4104*%
X57745000Y-63375000D03*
X62745000Y-63375000D03*
%TD*%
D13*
%TO.C,H2*%
X129600000Y-34000000D03*
X130302944Y-32302944D03*
X130302944Y-35697056D03*
X132000000Y-31600000D03*
D14*
X132000000Y-34000000D03*
D13*
X132000000Y-36400000D03*
X133697056Y-32302944D03*
X133697056Y-35697056D03*
X134400000Y-34000000D03*
%TD*%
D12*
%TO.C,C4004*%
X73195000Y-48095000D03*
X78195000Y-48095000D03*
%TD*%
%TO.C,C8106*%
X45445000Y-147375000D03*
X50445000Y-147375000D03*
%TD*%
D10*
%TO.C,P2*%
X96000000Y-174000000D03*
D11*
X98500000Y-174000000D03*
X101000000Y-174000000D03*
%TD*%
D10*
%TO.C,P4*%
X13000000Y-174000000D03*
D11*
X15500000Y-174000000D03*
X18000000Y-174000000D03*
X20500000Y-174000000D03*
X23000000Y-174000000D03*
X25500000Y-174000000D03*
X28000000Y-174000000D03*
X30500000Y-174000000D03*
X33000000Y-174000000D03*
X35500000Y-174000000D03*
X38000000Y-174000000D03*
X40500000Y-174000000D03*
%TD*%
D12*
%TO.C,C7104*%
X95595000Y-91375000D03*
X100595000Y-91375000D03*
%TD*%
%TO.C,C8101*%
X45335000Y-125905000D03*
X50335000Y-125905000D03*
%TD*%
D13*
%TO.C,H1*%
X1600000Y-34000000D03*
X2302944Y-32302944D03*
X2302944Y-35697056D03*
X4000000Y-31600000D03*
D14*
X4000000Y-34000000D03*
D13*
X4000000Y-36400000D03*
X5697056Y-32302944D03*
X5697056Y-35697056D03*
X6400000Y-34000000D03*
%TD*%
%LPD*%
M02*
