%TF.GenerationSoftware,KiCad,Pcbnew,10.0.3*%
%TF.CreationDate,2026-07-02T02:38:10-05:00*%
%TF.ProjectId,tank-driver-recovery,74616e6b-2d64-4726-9976-65722d726563,rev?*%
%TF.SameCoordinates,Original*%
%TF.FileFunction,Other,User*%
%FSLAX46Y46*%
G04 Gerber Fmt 4.6, Leading zero omitted, Abs format (unit mm)*
G04 Created by KiCad (PCBNEW 10.0.3) date 2026-07-02 02:38:10*
%MOMM*%
%LPD*%
G01*
G04 APERTURE LIST*
%ADD10C,0.050000*%
G04 APERTURE END LIST*
%TO.C,C297*%
D10*
X116300000Y-125020000D02*
X119700000Y-125020000D01*
X119700000Y-126980000D01*
X116300000Y-126980000D01*
X116300000Y-125020000D01*
%TO.C,H4*%
X197450000Y-134000000D02*
G75*
G02*
X190550000Y-134000000I-3450000J0D01*
G01*
X190550000Y-134000000D02*
G75*
G02*
X197450000Y-134000000I3450000J0D01*
G01*
%TO.C,R173*%
X134320000Y-73050000D02*
X137680000Y-73050000D01*
X137680000Y-74950000D01*
X134320000Y-74950000D01*
X134320000Y-73050000D01*
%TO.C,R183*%
X142320000Y-39050000D02*
X145680000Y-39050000D01*
X145680000Y-40950000D01*
X142320000Y-40950000D01*
X142320000Y-39050000D01*
%TO.C,R155*%
X76320000Y-103050000D02*
X79680000Y-103050000D01*
X79680000Y-104950000D01*
X76320000Y-104950000D01*
X76320000Y-103050000D01*
%TO.C,C291*%
X56300000Y-125020000D02*
X59700000Y-125020000D01*
X59700000Y-126980000D01*
X56300000Y-126980000D01*
X56300000Y-125020000D01*
%TO.C,R102*%
X84320000Y-39050000D02*
X87680000Y-39050000D01*
X87680000Y-40950000D01*
X84320000Y-40950000D01*
X84320000Y-39050000D01*
%TO.C,R182*%
X158320000Y-95050000D02*
X161680000Y-95050000D01*
X161680000Y-96950000D01*
X158320000Y-96950000D01*
X158320000Y-95050000D01*
%TO.C,R128*%
X68320000Y-67050000D02*
X71680000Y-67050000D01*
X71680000Y-68950000D01*
X68320000Y-68950000D01*
X68320000Y-67050000D01*
%TO.C,C300*%
X163700000Y-124400000D02*
X168300000Y-124400000D01*
X168300000Y-127600000D01*
X163700000Y-127600000D01*
X163700000Y-124400000D01*
%TO.C,R121*%
X76320000Y-67050000D02*
X79680000Y-67050000D01*
X79680000Y-68950000D01*
X76320000Y-68950000D01*
X76320000Y-67050000D01*
%TO.C,D121*%
X91650000Y-66850000D02*
X91650000Y-69150000D01*
X91650000Y-66850000D02*
X96350000Y-66850000D01*
X96350000Y-66850000D02*
X96350000Y-69150000D01*
X96350000Y-69150000D02*
X91650000Y-69150000D01*
%TO.C,U103*%
X144300000Y-49540000D02*
X145800000Y-49540000D01*
X144300000Y-54460000D02*
X144300000Y-49540000D01*
X145800000Y-49300000D02*
X150200000Y-49300000D01*
X145800000Y-49540000D02*
X145800000Y-49300000D01*
X145800000Y-54460000D02*
X144300000Y-54460000D01*
X145800000Y-54700000D02*
X145800000Y-54460000D01*
X150200000Y-49300000D02*
X150200000Y-49540000D01*
X150200000Y-49540000D02*
X151700000Y-49540000D01*
X150200000Y-54460000D02*
X150200000Y-54700000D01*
X150200000Y-54700000D02*
X145800000Y-54700000D01*
X151700000Y-49540000D02*
X151700000Y-54460000D01*
X151700000Y-54460000D02*
X150200000Y-54460000D01*
%TO.C,P101*%
X35150000Y-39550000D02*
X41900000Y-39550000D01*
X41900000Y-57950000D01*
X35150000Y-57950000D01*
X35150000Y-39550000D01*
%TO.C,C175*%
X173700000Y-38850000D02*
X178300000Y-38850000D01*
X178300000Y-41150000D01*
X173700000Y-41150000D01*
X173700000Y-38850000D01*
%TO.C,C191*%
X192020000Y-73300000D02*
X193980000Y-73300000D01*
X193980000Y-76700000D01*
X192020000Y-76700000D01*
X192020000Y-73300000D01*
%TO.C,J108*%
X182100000Y-120050000D02*
X188850000Y-120050000D01*
X188850000Y-128450000D01*
X182100000Y-128450000D01*
X182100000Y-120050000D01*
%TO.C,R172*%
X134320000Y-61050000D02*
X137680000Y-61050000D01*
X137680000Y-62950000D01*
X134320000Y-62950000D01*
X134320000Y-61050000D01*
%TO.C,D102*%
X99650000Y-38850000D02*
X99650000Y-41150000D01*
X99650000Y-38850000D02*
X104350000Y-38850000D01*
X104350000Y-38850000D02*
X104350000Y-41150000D01*
X104350000Y-41150000D02*
X99650000Y-41150000D01*
%TO.C,R104*%
X104170000Y-50070000D02*
X111830000Y-50070000D01*
X111830000Y-53930000D01*
X104170000Y-53930000D01*
X104170000Y-50070000D01*
%TO.C,R185*%
X142320000Y-73050000D02*
X145680000Y-73050000D01*
X145680000Y-74950000D01*
X142320000Y-74950000D01*
X142320000Y-73050000D01*
%TO.C,R206*%
X191870000Y-83720000D02*
X194130000Y-83720000D01*
X194130000Y-88280000D01*
X191870000Y-88280000D01*
X191870000Y-83720000D01*
%TO.C,R158*%
X52320000Y-111050000D02*
X55680000Y-111050000D01*
X55680000Y-112950000D01*
X52320000Y-112950000D01*
X52320000Y-111050000D01*
%TO.C,C296*%
X92300000Y-125020000D02*
X95700000Y-125020000D01*
X95700000Y-126980000D01*
X92300000Y-126980000D01*
X92300000Y-125020000D01*
%TO.C,C172*%
X166300000Y-61020000D02*
X169700000Y-61020000D01*
X169700000Y-62980000D01*
X166300000Y-62980000D01*
X166300000Y-61020000D01*
%TO.C,P102*%
X35150000Y-74550000D02*
X41900000Y-74550000D01*
X41900000Y-92950000D01*
X35150000Y-92950000D01*
X35150000Y-74550000D01*
%TO.C,C177*%
X173700000Y-72850000D02*
X178300000Y-72850000D01*
X178300000Y-75150000D01*
X173700000Y-75150000D01*
X173700000Y-72850000D01*
%TO.C,Q102*%
X86030000Y-53750000D02*
X94530000Y-53750000D01*
X94530000Y-57500000D01*
X86030000Y-57500000D01*
X86030000Y-53750000D01*
%TO.C,H2*%
X197450000Y-36000000D02*
G75*
G02*
X190550000Y-36000000I-3450000J0D01*
G01*
X190550000Y-36000000D02*
G75*
G02*
X197450000Y-36000000I3450000J0D01*
G01*
%TO.C,U101*%
X58300000Y-49540000D02*
X59800000Y-49540000D01*
X58300000Y-54460000D02*
X58300000Y-49540000D01*
X59800000Y-49300000D02*
X64200000Y-49300000D01*
X59800000Y-49540000D02*
X59800000Y-49300000D01*
X59800000Y-54460000D02*
X58300000Y-54460000D01*
X59800000Y-54700000D02*
X59800000Y-54460000D01*
X64200000Y-49300000D02*
X64200000Y-49540000D01*
X64200000Y-49540000D02*
X65700000Y-49540000D01*
X64200000Y-54460000D02*
X64200000Y-54700000D01*
X64200000Y-54700000D02*
X59800000Y-54700000D01*
X65700000Y-49540000D02*
X65700000Y-54460000D01*
X65700000Y-54460000D02*
X64200000Y-54460000D01*
%TO.C,R108*%
X68320000Y-39050000D02*
X71680000Y-39050000D01*
X71680000Y-40950000D01*
X68320000Y-40950000D01*
X68320000Y-39050000D01*
%TO.C,R175*%
X150320000Y-39050000D02*
X153680000Y-39050000D01*
X153680000Y-40950000D01*
X150320000Y-40950000D01*
X150320000Y-39050000D01*
%TO.C,R176*%
X150320000Y-61050000D02*
X153680000Y-61050000D01*
X153680000Y-62950000D01*
X150320000Y-62950000D01*
X150320000Y-61050000D01*
%TO.C,R105*%
X113720000Y-50870000D02*
X118280000Y-50870000D01*
X118280000Y-53130000D01*
X113720000Y-53130000D01*
X113720000Y-50870000D01*
%TO.C,R157*%
X52320000Y-103050000D02*
X55680000Y-103050000D01*
X55680000Y-104950000D01*
X52320000Y-104950000D01*
X52320000Y-103050000D01*
%TO.C,R180*%
X158320000Y-61050000D02*
X161680000Y-61050000D01*
X161680000Y-62950000D01*
X158320000Y-62950000D01*
X158320000Y-61050000D01*
%TO.C,R205*%
X191870000Y-61720000D02*
X194130000Y-61720000D01*
X194130000Y-66280000D01*
X191870000Y-66280000D01*
X191870000Y-61720000D01*
%TO.C,C173*%
X166300000Y-73020000D02*
X169700000Y-73020000D01*
X169700000Y-74980000D01*
X166300000Y-74980000D01*
X166300000Y-73020000D01*
%TO.C,R153*%
X60320000Y-103050000D02*
X63680000Y-103050000D01*
X63680000Y-104950000D01*
X60320000Y-104950000D01*
X60320000Y-103050000D01*
%TO.C,R177*%
X150320000Y-73050000D02*
X153680000Y-73050000D01*
X153680000Y-74950000D01*
X150320000Y-74950000D01*
X150320000Y-73050000D01*
%TO.C,R101*%
X76320000Y-39050000D02*
X79680000Y-39050000D01*
X79680000Y-40950000D01*
X76320000Y-40950000D01*
X76320000Y-39050000D01*
%TO.C,Q104*%
X86030000Y-77750000D02*
X94530000Y-77750000D01*
X94530000Y-81500000D01*
X86030000Y-81500000D01*
X86030000Y-77750000D01*
%TO.C,C294*%
X128300000Y-125020000D02*
X131700000Y-125020000D01*
X131700000Y-126980000D01*
X128300000Y-126980000D01*
X128300000Y-125020000D01*
%TO.C,C295*%
X68300000Y-125020000D02*
X71700000Y-125020000D01*
X71700000Y-126980000D01*
X68300000Y-126980000D01*
X68300000Y-125020000D01*
%TO.C,R186*%
X142320000Y-95050000D02*
X145680000Y-95050000D01*
X145680000Y-96950000D01*
X142320000Y-96950000D01*
X142320000Y-95050000D01*
%TO.C,R179*%
X158320000Y-39050000D02*
X161680000Y-39050000D01*
X161680000Y-40950000D01*
X158320000Y-40950000D01*
X158320000Y-39050000D01*
%TO.C,C176*%
X173700000Y-60850000D02*
X178300000Y-60850000D01*
X178300000Y-63150000D01*
X173700000Y-63150000D01*
X173700000Y-60850000D01*
%TO.C,C178*%
X173700000Y-94850000D02*
X178300000Y-94850000D01*
X178300000Y-97150000D01*
X173700000Y-97150000D01*
X173700000Y-94850000D01*
%TO.C,J102*%
X182100000Y-54050000D02*
X188850000Y-54050000D01*
X188850000Y-62450000D01*
X182100000Y-62450000D01*
X182100000Y-54050000D01*
%TO.C,J107*%
X182100000Y-109050000D02*
X188850000Y-109050000D01*
X188850000Y-117450000D01*
X182100000Y-117450000D01*
X182100000Y-109050000D01*
%TO.C,R178*%
X150320000Y-95050000D02*
X153680000Y-95050000D01*
X153680000Y-96950000D01*
X150320000Y-96950000D01*
X150320000Y-95050000D01*
%TO.C,R151*%
X68320000Y-103050000D02*
X71680000Y-103050000D01*
X71680000Y-104950000D01*
X68320000Y-104950000D01*
X68320000Y-103050000D01*
%TO.C,R184*%
X142320000Y-61050000D02*
X145680000Y-61050000D01*
X145680000Y-62950000D01*
X142320000Y-62950000D01*
X142320000Y-61050000D01*
%TO.C,R103*%
X96170000Y-50070000D02*
X103830000Y-50070000D01*
X103830000Y-53930000D01*
X96170000Y-53930000D01*
X96170000Y-50070000D01*
%TO.C,R106*%
X60320000Y-39050000D02*
X63680000Y-39050000D01*
X63680000Y-40950000D01*
X60320000Y-40950000D01*
X60320000Y-39050000D01*
%TO.C,Q101*%
X74030000Y-53750000D02*
X82530000Y-53750000D01*
X82530000Y-57500000D01*
X74030000Y-57500000D01*
X74030000Y-53750000D01*
%TO.C,C298*%
X140300000Y-125020000D02*
X143700000Y-125020000D01*
X143700000Y-126980000D01*
X140300000Y-126980000D01*
X140300000Y-125020000D01*
%TO.C,R123*%
X96170000Y-74070000D02*
X103830000Y-74070000D01*
X103830000Y-77930000D01*
X96170000Y-77930000D01*
X96170000Y-74070000D01*
%TO.C,H3*%
X39450000Y-134000000D02*
G75*
G02*
X32550000Y-134000000I-3450000J0D01*
G01*
X32550000Y-134000000D02*
G75*
G02*
X39450000Y-134000000I3450000J0D01*
G01*
%TO.C,P103*%
X33800000Y-111630000D02*
X43300000Y-111630000D01*
X43300000Y-124450000D01*
X33800000Y-124450000D01*
X33800000Y-111630000D01*
%TO.C,H1*%
X39450000Y-36000000D02*
G75*
G02*
X32550000Y-36000000I-3450000J0D01*
G01*
X32550000Y-36000000D02*
G75*
G02*
X39450000Y-36000000I3450000J0D01*
G01*
%TO.C,C299*%
X151700000Y-124400000D02*
X156300000Y-124400000D01*
X156300000Y-127600000D01*
X151700000Y-127600000D01*
X151700000Y-124400000D01*
%TO.C,C174*%
X166300000Y-95020000D02*
X169700000Y-95020000D01*
X169700000Y-96980000D01*
X166300000Y-96980000D01*
X166300000Y-95020000D01*
%TO.C,R107*%
X52320000Y-39050000D02*
X55680000Y-39050000D01*
X55680000Y-40950000D01*
X52320000Y-40950000D01*
X52320000Y-39050000D01*
%TO.C,Q103*%
X74030000Y-77750000D02*
X82530000Y-77750000D01*
X82530000Y-81500000D01*
X74030000Y-81500000D01*
X74030000Y-77750000D01*
%TO.C,R171*%
X134320000Y-39050000D02*
X137680000Y-39050000D01*
X137680000Y-40950000D01*
X134320000Y-40950000D01*
X134320000Y-39050000D01*
%TO.C,R126*%
X60320000Y-67050000D02*
X63680000Y-67050000D01*
X63680000Y-68950000D01*
X60320000Y-68950000D01*
X60320000Y-67050000D01*
%TO.C,C293*%
X104300000Y-125020000D02*
X107700000Y-125020000D01*
X107700000Y-126980000D01*
X104300000Y-126980000D01*
X104300000Y-125020000D01*
%TO.C,C101*%
X121700000Y-50400000D02*
X126300000Y-50400000D01*
X126300000Y-53600000D01*
X121700000Y-53600000D01*
X121700000Y-50400000D01*
%TO.C,J105*%
X182100000Y-87050000D02*
X188850000Y-87050000D01*
X188850000Y-95450000D01*
X182100000Y-95450000D01*
X182100000Y-87050000D01*
%TO.C,R174*%
X134320000Y-95050000D02*
X137680000Y-95050000D01*
X137680000Y-96950000D01*
X134320000Y-96950000D01*
X134320000Y-95050000D01*
%TO.C,J106*%
X182100000Y-98050000D02*
X188850000Y-98050000D01*
X188850000Y-106450000D01*
X182100000Y-106450000D01*
X182100000Y-98050000D01*
%TO.C,R122*%
X84320000Y-67050000D02*
X87680000Y-67050000D01*
X87680000Y-68950000D01*
X84320000Y-68950000D01*
X84320000Y-67050000D01*
%TO.C,R127*%
X52320000Y-67050000D02*
X55680000Y-67050000D01*
X55680000Y-68950000D01*
X52320000Y-68950000D01*
X52320000Y-67050000D01*
%TO.C,J104*%
X182100000Y-76050000D02*
X188850000Y-76050000D01*
X188850000Y-84450000D01*
X182100000Y-84450000D01*
X182100000Y-76050000D01*
%TO.C,J101*%
X182100000Y-43050000D02*
X188850000Y-43050000D01*
X188850000Y-51450000D01*
X182100000Y-51450000D01*
X182100000Y-43050000D01*
%TO.C,J103*%
X182100000Y-65050000D02*
X188850000Y-65050000D01*
X188850000Y-73450000D01*
X182100000Y-73450000D01*
X182100000Y-65050000D01*
%TO.C,C292*%
X80300000Y-125020000D02*
X83700000Y-125020000D01*
X83700000Y-126980000D01*
X80300000Y-126980000D01*
X80300000Y-125020000D01*
%TO.C,U104*%
X144300000Y-83540000D02*
X145800000Y-83540000D01*
X144300000Y-88460000D02*
X144300000Y-83540000D01*
X145800000Y-83300000D02*
X150200000Y-83300000D01*
X145800000Y-83540000D02*
X145800000Y-83300000D01*
X145800000Y-88460000D02*
X144300000Y-88460000D01*
X145800000Y-88700000D02*
X145800000Y-88460000D01*
X150200000Y-83300000D02*
X150200000Y-83540000D01*
X150200000Y-83540000D02*
X151700000Y-83540000D01*
X150200000Y-88460000D02*
X150200000Y-88700000D01*
X150200000Y-88700000D02*
X145800000Y-88700000D01*
X151700000Y-83540000D02*
X151700000Y-88460000D01*
X151700000Y-88460000D02*
X150200000Y-88460000D01*
%TO.C,D101*%
X91650000Y-38850000D02*
X91650000Y-41150000D01*
X91650000Y-38850000D02*
X96350000Y-38850000D01*
X96350000Y-38850000D02*
X96350000Y-41150000D01*
X96350000Y-41150000D02*
X91650000Y-41150000D01*
%TO.C,C121*%
X121700000Y-74400000D02*
X126300000Y-74400000D01*
X126300000Y-77600000D01*
X121700000Y-77600000D01*
X121700000Y-74400000D01*
%TO.C,U102*%
X58300000Y-93540000D02*
X59800000Y-93540000D01*
X58300000Y-98460000D02*
X58300000Y-93540000D01*
X59800000Y-93300000D02*
X64200000Y-93300000D01*
X59800000Y-93540000D02*
X59800000Y-93300000D01*
X59800000Y-98460000D02*
X58300000Y-98460000D01*
X59800000Y-98700000D02*
X59800000Y-98460000D01*
X64200000Y-93300000D02*
X64200000Y-93540000D01*
X64200000Y-93540000D02*
X65700000Y-93540000D01*
X64200000Y-98460000D02*
X64200000Y-98700000D01*
X64200000Y-98700000D02*
X59800000Y-98700000D01*
X65700000Y-93540000D02*
X65700000Y-98460000D01*
X65700000Y-98460000D02*
X64200000Y-98460000D01*
%TO.C,C171*%
X166300000Y-39020000D02*
X169700000Y-39020000D01*
X169700000Y-40980000D01*
X166300000Y-40980000D01*
X166300000Y-39020000D01*
%TO.C,D122*%
X99650000Y-66850000D02*
X99650000Y-69150000D01*
X99650000Y-66850000D02*
X104350000Y-66850000D01*
X104350000Y-66850000D02*
X104350000Y-69150000D01*
X104350000Y-69150000D02*
X99650000Y-69150000D01*
%TO.C,R124*%
X104170000Y-74070000D02*
X111830000Y-74070000D01*
X111830000Y-77930000D01*
X104170000Y-77930000D01*
X104170000Y-74070000D01*
%TO.C,R181*%
X158320000Y-73050000D02*
X161680000Y-73050000D01*
X161680000Y-74950000D01*
X158320000Y-74950000D01*
X158320000Y-73050000D01*
%TO.C,R152*%
X68320000Y-111050000D02*
X71680000Y-111050000D01*
X71680000Y-112950000D01*
X68320000Y-112950000D01*
X68320000Y-111050000D01*
%TO.C,R156*%
X76320000Y-111050000D02*
X79680000Y-111050000D01*
X79680000Y-112950000D01*
X76320000Y-112950000D01*
X76320000Y-111050000D01*
%TO.C,R154*%
X60320000Y-111050000D02*
X63680000Y-111050000D01*
X63680000Y-112950000D01*
X60320000Y-112950000D01*
X60320000Y-111050000D01*
%TO.C,R125*%
X113720000Y-74870000D02*
X118280000Y-74870000D01*
X118280000Y-77130000D01*
X113720000Y-77130000D01*
X113720000Y-74870000D01*
%TD*%
M02*
