M48
; DRILL file KiCad 10.0.3 date 2026-07-02T02:38:11
; FORMAT={-:-/ absolute / metric / decimal}
; #@! TF.CreationDate,2026-07-02T02:38:11-05:00
; #@! TF.GenerationSoftware,Kicad,Pcbnew,10.0.3
; #@! TF.FileFunction,MixedPlating,1,2
FMAT,2
METRIC
; #@! TA.AperFunction,Plated,PTH,ViaDrill
T1C0.300
; #@! TA.AperFunction,Plated,PTH,ViaDrill
T2C0.400
; #@! TA.AperFunction,Plated,PTH,ComponentDrill
T3C0.950
; #@! TA.AperFunction,Plated,PTH,ComponentDrill
T4C1.000
; #@! TA.AperFunction,Plated,PTH,ComponentDrill
T5C1.700
; #@! TA.AperFunction,NonPlated,NPTH,ComponentDrill
T6C3.200
%
G90
G05
T1
X45.813Y-45.625
X48.463Y-107.985
X57.2Y-98.828
X63.028Y-54.515
X64.239Y-93.12
X68.079Y-53.866
X76.07Y-103.733
X79.42Y-78.452
X80.044Y-39.899
X80.044Y-67.85
X82.743Y-54.619
X91.591Y-69.624
X94.099Y-112.697
X94.722Y-69.846
X101.133Y-40.906
X106.043Y-37.345
X106.593Y-52.237
X122.184Y-41.531
X138.889Y-52.237
X143.522Y-41.643
X143.992Y-88.803
X144.861Y-76.127
X147.33Y-86.752
X147.847Y-36.852
X147.847Y-123.719
X147.92Y-87.978
X148.714Y-87.149
X149.599Y-74.971
X149.957Y-73.612
X154.638Y-44.118
X175.657Y-73.911
X175.657Y-96.089
X191.0Y-87.462
T2
X62.405Y-103.665
X66.568Y-111.569
X73.614Y-126.132
X87.707Y-126.003
X95.458Y-125.802
X105.848Y-93.412
X110.592Y-125.961
X123.05Y-126.008
X123.805Y-65.523
X128.687Y-49.167
X136.157Y-126.095
X138.786Y-40.004
X146.886Y-125.734
X150.295Y-42.615
X154.787Y-73.998
X155.121Y-62.319
X155.713Y-94.448
X186.618Y-37.827
X187.383Y-38.827
T3
X38.0Y-42.5
X38.0Y-45.0
X38.0Y-47.5
X38.0Y-50.0
X38.0Y-52.5
X38.0Y-55.0
X38.0Y-77.5
X38.0Y-80.0
X38.0Y-82.5
X38.0Y-85.0
X38.0Y-87.5
X38.0Y-90.0
T4
X76.0Y-56.0
X76.0Y-80.0
X78.28Y-56.0
X78.28Y-80.0
X80.56Y-56.0
X80.56Y-80.0
X88.0Y-56.0
X88.0Y-80.0
X90.28Y-56.0
X90.28Y-80.0
X92.56Y-56.0
X92.56Y-80.0
X186.0Y-46.0
X186.0Y-48.5
X186.0Y-57.0
X186.0Y-59.5
X186.0Y-68.0
X186.0Y-70.5
X186.0Y-79.0
X186.0Y-81.5
X186.0Y-90.0
X186.0Y-92.5
X186.0Y-101.0
X186.0Y-103.5
X186.0Y-112.0
X186.0Y-114.5
X186.0Y-123.0
X186.0Y-125.5
T5
X38.0Y-114.08
X38.0Y-118.04
X38.0Y-122.0
T6
X36.0Y-36.0
X36.0Y-134.0
X194.0Y-36.0
X194.0Y-134.0
M30
