%TF.GenerationSoftware,KiCad,Pcbnew,10.0.3*%
%TF.CreationDate,2026-07-02T02:38:10-05:00*%
%TF.ProjectId,tank-driver-recovery,74616e6b-2d64-4726-9976-65722d726563,rev?*%
%TF.SameCoordinates,Original*%
%TF.FileFunction,Soldermask,Bot*%
%TF.FilePolarity,Negative*%
%FSLAX46Y46*%
G04 Gerber Fmt 4.6, Leading zero omitted, Abs format (unit mm)*
G04 Created by KiCad (PCBNEW 10.0.3) date 2026-07-02 02:38:10*
%MOMM*%
%LPD*%
G01*
G04 APERTURE LIST*
G04 Aperture macros list*
%AMRoundRect*
0 Rectangle with rounded corners*
0 $1 Rounding radius*
0 $2 $3 $4 $5 $6 $7 $8 $9 X,Y pos of 4 corners*
0 Add a 4 corners polygon primitive as box body*
4,1,4,$2,$3,$4,$5,$6,$7,$8,$9,$2,$3,0*
0 Add four circle primitives for the rounded corners*
1,1,$1+$1,$2,$3*
1,1,$1+$1,$4,$5*
1,1,$1+$1,$6,$7*
1,1,$1+$1,$8,$9*
0 Add four rect primitives between the rounded corners*
20,1,$1+$1,$2,$3,$4,$5,0*
20,1,$1+$1,$4,$5,$6,$7,0*
20,1,$1+$1,$6,$7,$8,$9,0*
20,1,$1+$1,$8,$9,$2,$3,0*%
G04 Aperture macros list end*
%ADD10C,3.200000*%
%ADD11RoundRect,0.250000X0.725000X-0.600000X0.725000X0.600000X-0.725000X0.600000X-0.725000X-0.600000X0*%
%ADD12O,1.950000X1.700000*%
%ADD13RoundRect,0.250000X-0.750000X0.600000X-0.750000X-0.600000X0.750000X-0.600000X0.750000X0.600000X0*%
%ADD14O,2.000000X1.700000*%
%ADD15R,1.710000X1.800000*%
%ADD16O,1.710000X1.800000*%
%ADD17RoundRect,0.250001X1.099999X-1.099999X1.099999X1.099999X-1.099999X1.099999X-1.099999X-1.099999X0*%
%ADD18C,2.700000*%
G04 APERTURE END LIST*
D10*
%TO.C,H4*%
X194000000Y-134000000D03*
%TD*%
D11*
%TO.C,P101*%
X38000000Y-55000000D03*
D12*
X38000000Y-52500000D03*
X38000000Y-50000000D03*
X38000000Y-47500000D03*
X38000000Y-45000000D03*
X38000000Y-42500000D03*
%TD*%
D13*
%TO.C,J108*%
X186000000Y-123000000D03*
D14*
X186000000Y-125500000D03*
%TD*%
D11*
%TO.C,P102*%
X38000000Y-90000000D03*
D12*
X38000000Y-87500000D03*
X38000000Y-85000000D03*
X38000000Y-82500000D03*
X38000000Y-80000000D03*
X38000000Y-77500000D03*
%TD*%
D15*
%TO.C,Q102*%
X88000000Y-56000000D03*
D16*
X90280000Y-56000000D03*
X92560000Y-56000000D03*
%TD*%
D10*
%TO.C,H2*%
X194000000Y-36000000D03*
%TD*%
D15*
%TO.C,Q104*%
X88000000Y-80000000D03*
D16*
X90280000Y-80000000D03*
X92560000Y-80000000D03*
%TD*%
D13*
%TO.C,J102*%
X186000000Y-57000000D03*
D14*
X186000000Y-59500000D03*
%TD*%
D13*
%TO.C,J107*%
X186000000Y-112000000D03*
D14*
X186000000Y-114500000D03*
%TD*%
D15*
%TO.C,Q101*%
X76000000Y-56000000D03*
D16*
X78280000Y-56000000D03*
X80560000Y-56000000D03*
%TD*%
D10*
%TO.C,H3*%
X36000000Y-134000000D03*
%TD*%
D17*
%TO.C,P103*%
X38000000Y-122000000D03*
D18*
X38000000Y-118040000D03*
X38000000Y-114080000D03*
%TD*%
D10*
%TO.C,H1*%
X36000000Y-36000000D03*
%TD*%
D15*
%TO.C,Q103*%
X76000000Y-80000000D03*
D16*
X78280000Y-80000000D03*
X80560000Y-80000000D03*
%TD*%
D13*
%TO.C,J105*%
X186000000Y-90000000D03*
D14*
X186000000Y-92500000D03*
%TD*%
D13*
%TO.C,J106*%
X186000000Y-101000000D03*
D14*
X186000000Y-103500000D03*
%TD*%
D13*
%TO.C,J104*%
X186000000Y-79000000D03*
D14*
X186000000Y-81500000D03*
%TD*%
D13*
%TO.C,J101*%
X186000000Y-46000000D03*
D14*
X186000000Y-48500000D03*
%TD*%
D13*
%TO.C,J103*%
X186000000Y-68000000D03*
D14*
X186000000Y-70500000D03*
%TD*%
M02*
