%TF.GenerationSoftware,KiCad,Pcbnew,10.0.5*%
%TF.CreationDate,2026-08-05T00:31:18-05:00*%
%TF.ProjectId,io-board,696f2d62-6f61-4726-942e-6b696361645f,rev?*%
%TF.SameCoordinates,Original*%
%TF.FileFunction,Other,Comment*%
%FSLAX46Y46*%
G04 Gerber Fmt 4.6, Leading zero omitted, Abs format (unit mm)*
G04 Created by KiCad (PCBNEW 10.0.5) date 2026-08-05 00:31:18*
%MOMM*%
%LPD*%
G01*
G04 APERTURE LIST*
%ADD10C,0.180000*%
%ADD11C,0.200000*%
%ADD12C,0.150000*%
G04 APERTURE END LIST*
D10*
X-11607142Y-40684568D02*
X-11321428Y-40684568D01*
X-11321428Y-40684568D02*
X-11178571Y-40755997D01*
X-11178571Y-40755997D02*
X-11035714Y-40898854D01*
X-11035714Y-40898854D02*
X-10964285Y-41184568D01*
X-10964285Y-41184568D02*
X-10964285Y-41684568D01*
X-10964285Y-41684568D02*
X-11035714Y-41970282D01*
X-11035714Y-41970282D02*
X-11178571Y-42113140D01*
X-11178571Y-42113140D02*
X-11321428Y-42184568D01*
X-11321428Y-42184568D02*
X-11607142Y-42184568D01*
X-11607142Y-42184568D02*
X-11750000Y-42113140D01*
X-11750000Y-42113140D02*
X-11892857Y-41970282D01*
X-11892857Y-41970282D02*
X-11964285Y-41684568D01*
X-11964285Y-41684568D02*
X-11964285Y-41184568D01*
X-11964285Y-41184568D02*
X-11892857Y-40898854D01*
X-11892857Y-40898854D02*
X-11750000Y-40755997D01*
X-11750000Y-40755997D02*
X-11607142Y-40684568D01*
X-10321428Y-40684568D02*
X-10321428Y-41898854D01*
X-10321428Y-41898854D02*
X-10249999Y-42041711D01*
X-10249999Y-42041711D02*
X-10178571Y-42113140D01*
X-10178571Y-42113140D02*
X-10035713Y-42184568D01*
X-10035713Y-42184568D02*
X-9749999Y-42184568D01*
X-9749999Y-42184568D02*
X-9607142Y-42113140D01*
X-9607142Y-42113140D02*
X-9535713Y-42041711D01*
X-9535713Y-42041711D02*
X-9464285Y-41898854D01*
X-9464285Y-41898854D02*
X-9464285Y-40684568D01*
X-8964284Y-40684568D02*
X-8107142Y-40684568D01*
X-8535713Y-42184568D02*
X-8535713Y-40684568D01*
X-6892856Y-42184568D02*
X-7607142Y-42184568D01*
X-7607142Y-42184568D02*
X-7607142Y-40684568D01*
X-6392856Y-42184568D02*
X-6392856Y-40684568D01*
X-5678570Y-42184568D02*
X-5678570Y-40684568D01*
X-5678570Y-40684568D02*
X-4821427Y-42184568D01*
X-4821427Y-42184568D02*
X-4821427Y-40684568D01*
X-4107141Y-41398854D02*
X-3607141Y-41398854D01*
X-3392855Y-42184568D02*
X-4107141Y-42184568D01*
X-4107141Y-42184568D02*
X-4107141Y-40684568D01*
X-4107141Y-40684568D02*
X-3392855Y-40684568D01*
X-1678569Y-42113140D02*
X-1464284Y-42184568D01*
X-1464284Y-42184568D02*
X-1107141Y-42184568D01*
X-1107141Y-42184568D02*
X-964284Y-42113140D01*
X-964284Y-42113140D02*
X-892855Y-42041711D01*
X-892855Y-42041711D02*
X-821426Y-41898854D01*
X-821426Y-41898854D02*
X-821426Y-41755997D01*
X-821426Y-41755997D02*
X-892855Y-41613140D01*
X-892855Y-41613140D02*
X-964284Y-41541711D01*
X-964284Y-41541711D02*
X-1107141Y-41470282D01*
X-1107141Y-41470282D02*
X-1392855Y-41398854D01*
X-1392855Y-41398854D02*
X-1535712Y-41327425D01*
X-1535712Y-41327425D02*
X-1607141Y-41255997D01*
X-1607141Y-41255997D02*
X-1678569Y-41113140D01*
X-1678569Y-41113140D02*
X-1678569Y-40970282D01*
X-1678569Y-40970282D02*
X-1607141Y-40827425D01*
X-1607141Y-40827425D02*
X-1535712Y-40755997D01*
X-1535712Y-40755997D02*
X-1392855Y-40684568D01*
X-1392855Y-40684568D02*
X-1035712Y-40684568D01*
X-1035712Y-40684568D02*
X-821426Y-40755997D01*
X678572Y-42041711D02*
X607144Y-42113140D01*
X607144Y-42113140D02*
X392858Y-42184568D01*
X392858Y-42184568D02*
X250001Y-42184568D01*
X250001Y-42184568D02*
X35715Y-42113140D01*
X35715Y-42113140D02*
X-107141Y-41970282D01*
X-107141Y-41970282D02*
X-178570Y-41827425D01*
X-178570Y-41827425D02*
X-249998Y-41541711D01*
X-249998Y-41541711D02*
X-249998Y-41327425D01*
X-249998Y-41327425D02*
X-178570Y-41041711D01*
X-178570Y-41041711D02*
X-107141Y-40898854D01*
X-107141Y-40898854D02*
X35715Y-40755997D01*
X35715Y-40755997D02*
X250001Y-40684568D01*
X250001Y-40684568D02*
X392858Y-40684568D01*
X392858Y-40684568D02*
X607144Y-40755997D01*
X607144Y-40755997D02*
X678572Y-40827425D01*
X1250001Y-41755997D02*
X1964287Y-41755997D01*
X1107144Y-42184568D02*
X1607144Y-40684568D01*
X1607144Y-40684568D02*
X2107144Y-42184568D01*
X3107143Y-41398854D02*
X2607143Y-41398854D01*
X2607143Y-42184568D02*
X2607143Y-40684568D01*
X2607143Y-40684568D02*
X3321429Y-40684568D01*
X4392857Y-41398854D02*
X3892857Y-41398854D01*
X3892857Y-42184568D02*
X3892857Y-40684568D01*
X3892857Y-40684568D02*
X4607143Y-40684568D01*
X5464286Y-40684568D02*
X5750000Y-40684568D01*
X5750000Y-40684568D02*
X5892857Y-40755997D01*
X5892857Y-40755997D02*
X6035714Y-40898854D01*
X6035714Y-40898854D02*
X6107143Y-41184568D01*
X6107143Y-41184568D02*
X6107143Y-41684568D01*
X6107143Y-41684568D02*
X6035714Y-41970282D01*
X6035714Y-41970282D02*
X5892857Y-42113140D01*
X5892857Y-42113140D02*
X5750000Y-42184568D01*
X5750000Y-42184568D02*
X5464286Y-42184568D01*
X5464286Y-42184568D02*
X5321429Y-42113140D01*
X5321429Y-42113140D02*
X5178571Y-41970282D01*
X5178571Y-41970282D02*
X5107143Y-41684568D01*
X5107143Y-41684568D02*
X5107143Y-41184568D01*
X5107143Y-41184568D02*
X5178571Y-40898854D01*
X5178571Y-40898854D02*
X5321429Y-40755997D01*
X5321429Y-40755997D02*
X5464286Y-40684568D01*
X7464286Y-42184568D02*
X6750000Y-42184568D01*
X6750000Y-42184568D02*
X6750000Y-40684568D01*
X7964286Y-42184568D02*
X7964286Y-40684568D01*
X7964286Y-40684568D02*
X8321429Y-40684568D01*
X8321429Y-40684568D02*
X8535715Y-40755997D01*
X8535715Y-40755997D02*
X8678572Y-40898854D01*
X8678572Y-40898854D02*
X8750001Y-41041711D01*
X8750001Y-41041711D02*
X8821429Y-41327425D01*
X8821429Y-41327425D02*
X8821429Y-41541711D01*
X8821429Y-41541711D02*
X8750001Y-41827425D01*
X8750001Y-41827425D02*
X8678572Y-41970282D01*
X8678572Y-41970282D02*
X8535715Y-42113140D01*
X8535715Y-42113140D02*
X8321429Y-42184568D01*
X8321429Y-42184568D02*
X7964286Y-42184568D01*
X10607143Y-41613140D02*
X11750001Y-41613140D01*
X13607143Y-42184568D02*
X13607143Y-40684568D01*
X13607143Y-40684568D02*
X14464286Y-42184568D01*
X14464286Y-42184568D02*
X14464286Y-40684568D01*
X15464287Y-40684568D02*
X15750001Y-40684568D01*
X15750001Y-40684568D02*
X15892858Y-40755997D01*
X15892858Y-40755997D02*
X16035715Y-40898854D01*
X16035715Y-40898854D02*
X16107144Y-41184568D01*
X16107144Y-41184568D02*
X16107144Y-41684568D01*
X16107144Y-41684568D02*
X16035715Y-41970282D01*
X16035715Y-41970282D02*
X15892858Y-42113140D01*
X15892858Y-42113140D02*
X15750001Y-42184568D01*
X15750001Y-42184568D02*
X15464287Y-42184568D01*
X15464287Y-42184568D02*
X15321430Y-42113140D01*
X15321430Y-42113140D02*
X15178572Y-41970282D01*
X15178572Y-41970282D02*
X15107144Y-41684568D01*
X15107144Y-41684568D02*
X15107144Y-41184568D01*
X15107144Y-41184568D02*
X15178572Y-40898854D01*
X15178572Y-40898854D02*
X15321430Y-40755997D01*
X15321430Y-40755997D02*
X15464287Y-40684568D01*
X16535716Y-40684568D02*
X17392859Y-40684568D01*
X16964287Y-42184568D02*
X16964287Y-40684568D01*
X19535715Y-41398854D02*
X19035715Y-41398854D01*
X19035715Y-42184568D02*
X19035715Y-40684568D01*
X19035715Y-40684568D02*
X19750001Y-40684568D01*
X20607144Y-40684568D02*
X20892858Y-40684568D01*
X20892858Y-40684568D02*
X21035715Y-40755997D01*
X21035715Y-40755997D02*
X21178572Y-40898854D01*
X21178572Y-40898854D02*
X21250001Y-41184568D01*
X21250001Y-41184568D02*
X21250001Y-41684568D01*
X21250001Y-41684568D02*
X21178572Y-41970282D01*
X21178572Y-41970282D02*
X21035715Y-42113140D01*
X21035715Y-42113140D02*
X20892858Y-42184568D01*
X20892858Y-42184568D02*
X20607144Y-42184568D01*
X20607144Y-42184568D02*
X20464287Y-42113140D01*
X20464287Y-42113140D02*
X20321429Y-41970282D01*
X20321429Y-41970282D02*
X20250001Y-41684568D01*
X20250001Y-41684568D02*
X20250001Y-41184568D01*
X20250001Y-41184568D02*
X20321429Y-40898854D01*
X20321429Y-40898854D02*
X20464287Y-40755997D01*
X20464287Y-40755997D02*
X20607144Y-40684568D01*
X22750001Y-42184568D02*
X22250001Y-41470282D01*
X21892858Y-42184568D02*
X21892858Y-40684568D01*
X21892858Y-40684568D02*
X22464287Y-40684568D01*
X22464287Y-40684568D02*
X22607144Y-40755997D01*
X22607144Y-40755997D02*
X22678573Y-40827425D01*
X22678573Y-40827425D02*
X22750001Y-40970282D01*
X22750001Y-40970282D02*
X22750001Y-41184568D01*
X22750001Y-41184568D02*
X22678573Y-41327425D01*
X22678573Y-41327425D02*
X22607144Y-41398854D01*
X22607144Y-41398854D02*
X22464287Y-41470282D01*
X22464287Y-41470282D02*
X21892858Y-41470282D01*
X25035715Y-41398854D02*
X24535715Y-41398854D01*
X24535715Y-42184568D02*
X24535715Y-40684568D01*
X24535715Y-40684568D02*
X25250001Y-40684568D01*
X25750001Y-41755997D02*
X26464287Y-41755997D01*
X25607144Y-42184568D02*
X26107144Y-40684568D01*
X26107144Y-40684568D02*
X26607144Y-42184568D01*
X27607143Y-41398854D02*
X27821429Y-41470282D01*
X27821429Y-41470282D02*
X27892858Y-41541711D01*
X27892858Y-41541711D02*
X27964286Y-41684568D01*
X27964286Y-41684568D02*
X27964286Y-41898854D01*
X27964286Y-41898854D02*
X27892858Y-42041711D01*
X27892858Y-42041711D02*
X27821429Y-42113140D01*
X27821429Y-42113140D02*
X27678572Y-42184568D01*
X27678572Y-42184568D02*
X27107143Y-42184568D01*
X27107143Y-42184568D02*
X27107143Y-40684568D01*
X27107143Y-40684568D02*
X27607143Y-40684568D01*
X27607143Y-40684568D02*
X27750001Y-40755997D01*
X27750001Y-40755997D02*
X27821429Y-40827425D01*
X27821429Y-40827425D02*
X27892858Y-40970282D01*
X27892858Y-40970282D02*
X27892858Y-41113140D01*
X27892858Y-41113140D02*
X27821429Y-41255997D01*
X27821429Y-41255997D02*
X27750001Y-41327425D01*
X27750001Y-41327425D02*
X27607143Y-41398854D01*
X27607143Y-41398854D02*
X27107143Y-41398854D01*
D11*
X-17380954Y-36510076D02*
X-17571430Y-36414838D01*
X-17571430Y-36414838D02*
X-17857144Y-36414838D01*
X-17857144Y-36414838D02*
X-18142859Y-36510076D01*
X-18142859Y-36510076D02*
X-18333335Y-36700552D01*
X-18333335Y-36700552D02*
X-18428573Y-36891028D01*
X-18428573Y-36891028D02*
X-18523811Y-37271980D01*
X-18523811Y-37271980D02*
X-18523811Y-37557695D01*
X-18523811Y-37557695D02*
X-18428573Y-37938647D01*
X-18428573Y-37938647D02*
X-18333335Y-38129123D01*
X-18333335Y-38129123D02*
X-18142859Y-38319600D01*
X-18142859Y-38319600D02*
X-17857144Y-38414838D01*
X-17857144Y-38414838D02*
X-17666668Y-38414838D01*
X-17666668Y-38414838D02*
X-17380954Y-38319600D01*
X-17380954Y-38319600D02*
X-17285716Y-38224361D01*
X-17285716Y-38224361D02*
X-17285716Y-37557695D01*
X-17285716Y-37557695D02*
X-17666668Y-37557695D01*
X-16523811Y-37843409D02*
X-15571430Y-37843409D01*
X-16714287Y-38414838D02*
X-16047621Y-36414838D01*
X-16047621Y-36414838D02*
X-15380954Y-38414838D01*
X-14809525Y-38319600D02*
X-14523811Y-38414838D01*
X-14523811Y-38414838D02*
X-14047620Y-38414838D01*
X-14047620Y-38414838D02*
X-13857144Y-38319600D01*
X-13857144Y-38319600D02*
X-13761906Y-38224361D01*
X-13761906Y-38224361D02*
X-13666668Y-38033885D01*
X-13666668Y-38033885D02*
X-13666668Y-37843409D01*
X-13666668Y-37843409D02*
X-13761906Y-37652933D01*
X-13761906Y-37652933D02*
X-13857144Y-37557695D01*
X-13857144Y-37557695D02*
X-14047620Y-37462457D01*
X-14047620Y-37462457D02*
X-14428573Y-37367219D01*
X-14428573Y-37367219D02*
X-14619049Y-37271980D01*
X-14619049Y-37271980D02*
X-14714287Y-37176742D01*
X-14714287Y-37176742D02*
X-14809525Y-36986266D01*
X-14809525Y-36986266D02*
X-14809525Y-36795790D01*
X-14809525Y-36795790D02*
X-14714287Y-36605314D01*
X-14714287Y-36605314D02*
X-14619049Y-36510076D01*
X-14619049Y-36510076D02*
X-14428573Y-36414838D01*
X-14428573Y-36414838D02*
X-13952382Y-36414838D01*
X-13952382Y-36414838D02*
X-13666668Y-36510076D01*
X-10142858Y-38414838D02*
X-10809525Y-37462457D01*
X-11285715Y-38414838D02*
X-11285715Y-36414838D01*
X-11285715Y-36414838D02*
X-10523810Y-36414838D01*
X-10523810Y-36414838D02*
X-10333334Y-36510076D01*
X-10333334Y-36510076D02*
X-10238096Y-36605314D01*
X-10238096Y-36605314D02*
X-10142858Y-36795790D01*
X-10142858Y-36795790D02*
X-10142858Y-37081504D01*
X-10142858Y-37081504D02*
X-10238096Y-37271980D01*
X-10238096Y-37271980D02*
X-10333334Y-37367219D01*
X-10333334Y-37367219D02*
X-10523810Y-37462457D01*
X-10523810Y-37462457D02*
X-11285715Y-37462457D01*
X-8523810Y-38319600D02*
X-8714286Y-38414838D01*
X-8714286Y-38414838D02*
X-9095239Y-38414838D01*
X-9095239Y-38414838D02*
X-9285715Y-38319600D01*
X-9285715Y-38319600D02*
X-9380953Y-38129123D01*
X-9380953Y-38129123D02*
X-9380953Y-37367219D01*
X-9380953Y-37367219D02*
X-9285715Y-37176742D01*
X-9285715Y-37176742D02*
X-9095239Y-37081504D01*
X-9095239Y-37081504D02*
X-8714286Y-37081504D01*
X-8714286Y-37081504D02*
X-8523810Y-37176742D01*
X-8523810Y-37176742D02*
X-8428572Y-37367219D01*
X-8428572Y-37367219D02*
X-8428572Y-37557695D01*
X-8428572Y-37557695D02*
X-9380953Y-37748171D01*
X-7761905Y-37081504D02*
X-7285715Y-38414838D01*
X-7285715Y-38414838D02*
X-6809524Y-37081504D01*
X-4619047Y-37843409D02*
X-3666666Y-37843409D01*
X-4809523Y-38414838D02*
X-4142857Y-36414838D01*
X-4142857Y-36414838D02*
X-3476190Y-38414838D01*
X-1285713Y-37652933D02*
X238096Y-37652933D01*
X2714286Y-38414838D02*
X2714286Y-36414838D01*
X3666667Y-37081504D02*
X3666667Y-38414838D01*
X3666667Y-37271980D02*
X3761905Y-37176742D01*
X3761905Y-37176742D02*
X3952381Y-37081504D01*
X3952381Y-37081504D02*
X4238096Y-37081504D01*
X4238096Y-37081504D02*
X4428572Y-37176742D01*
X4428572Y-37176742D02*
X4523810Y-37367219D01*
X4523810Y-37367219D02*
X4523810Y-38414838D01*
X5476191Y-37081504D02*
X5476191Y-39081504D01*
X5476191Y-37176742D02*
X5666667Y-37081504D01*
X5666667Y-37081504D02*
X6047620Y-37081504D01*
X6047620Y-37081504D02*
X6238096Y-37176742D01*
X6238096Y-37176742D02*
X6333334Y-37271980D01*
X6333334Y-37271980D02*
X6428572Y-37462457D01*
X6428572Y-37462457D02*
X6428572Y-38033885D01*
X6428572Y-38033885D02*
X6333334Y-38224361D01*
X6333334Y-38224361D02*
X6238096Y-38319600D01*
X6238096Y-38319600D02*
X6047620Y-38414838D01*
X6047620Y-38414838D02*
X5666667Y-38414838D01*
X5666667Y-38414838D02*
X5476191Y-38319600D01*
X8142858Y-37081504D02*
X8142858Y-38414838D01*
X7285715Y-37081504D02*
X7285715Y-38129123D01*
X7285715Y-38129123D02*
X7380953Y-38319600D01*
X7380953Y-38319600D02*
X7571429Y-38414838D01*
X7571429Y-38414838D02*
X7857144Y-38414838D01*
X7857144Y-38414838D02*
X8047620Y-38319600D01*
X8047620Y-38319600D02*
X8142858Y-38224361D01*
X8809525Y-37081504D02*
X9571429Y-37081504D01*
X9095239Y-36414838D02*
X9095239Y-38129123D01*
X9095239Y-38129123D02*
X9190477Y-38319600D01*
X9190477Y-38319600D02*
X9380953Y-38414838D01*
X9380953Y-38414838D02*
X9571429Y-38414838D01*
X13190477Y-36319600D02*
X11476192Y-38891028D01*
X15761906Y-36414838D02*
X16142859Y-36414838D01*
X16142859Y-36414838D02*
X16333335Y-36510076D01*
X16333335Y-36510076D02*
X16523811Y-36700552D01*
X16523811Y-36700552D02*
X16619049Y-37081504D01*
X16619049Y-37081504D02*
X16619049Y-37748171D01*
X16619049Y-37748171D02*
X16523811Y-38129123D01*
X16523811Y-38129123D02*
X16333335Y-38319600D01*
X16333335Y-38319600D02*
X16142859Y-38414838D01*
X16142859Y-38414838D02*
X15761906Y-38414838D01*
X15761906Y-38414838D02*
X15571430Y-38319600D01*
X15571430Y-38319600D02*
X15380954Y-38129123D01*
X15380954Y-38129123D02*
X15285716Y-37748171D01*
X15285716Y-37748171D02*
X15285716Y-37081504D01*
X15285716Y-37081504D02*
X15380954Y-36700552D01*
X15380954Y-36700552D02*
X15571430Y-36510076D01*
X15571430Y-36510076D02*
X15761906Y-36414838D01*
X18333335Y-37081504D02*
X18333335Y-38414838D01*
X17476192Y-37081504D02*
X17476192Y-38129123D01*
X17476192Y-38129123D02*
X17571430Y-38319600D01*
X17571430Y-38319600D02*
X17761906Y-38414838D01*
X17761906Y-38414838D02*
X18047621Y-38414838D01*
X18047621Y-38414838D02*
X18238097Y-38319600D01*
X18238097Y-38319600D02*
X18333335Y-38224361D01*
X19000002Y-37081504D02*
X19761906Y-37081504D01*
X19285716Y-36414838D02*
X19285716Y-38129123D01*
X19285716Y-38129123D02*
X19380954Y-38319600D01*
X19380954Y-38319600D02*
X19571430Y-38414838D01*
X19571430Y-38414838D02*
X19761906Y-38414838D01*
X20428573Y-37081504D02*
X20428573Y-39081504D01*
X20428573Y-37176742D02*
X20619049Y-37081504D01*
X20619049Y-37081504D02*
X21000002Y-37081504D01*
X21000002Y-37081504D02*
X21190478Y-37176742D01*
X21190478Y-37176742D02*
X21285716Y-37271980D01*
X21285716Y-37271980D02*
X21380954Y-37462457D01*
X21380954Y-37462457D02*
X21380954Y-38033885D01*
X21380954Y-38033885D02*
X21285716Y-38224361D01*
X21285716Y-38224361D02*
X21190478Y-38319600D01*
X21190478Y-38319600D02*
X21000002Y-38414838D01*
X21000002Y-38414838D02*
X20619049Y-38414838D01*
X20619049Y-38414838D02*
X20428573Y-38319600D01*
X23095240Y-37081504D02*
X23095240Y-38414838D01*
X22238097Y-37081504D02*
X22238097Y-38129123D01*
X22238097Y-38129123D02*
X22333335Y-38319600D01*
X22333335Y-38319600D02*
X22523811Y-38414838D01*
X22523811Y-38414838D02*
X22809526Y-38414838D01*
X22809526Y-38414838D02*
X23000002Y-38319600D01*
X23000002Y-38319600D02*
X23095240Y-38224361D01*
X23761907Y-37081504D02*
X24523811Y-37081504D01*
X24047621Y-36414838D02*
X24047621Y-38129123D01*
X24047621Y-38129123D02*
X24142859Y-38319600D01*
X24142859Y-38319600D02*
X24333335Y-38414838D01*
X24333335Y-38414838D02*
X24523811Y-38414838D01*
X27380955Y-37367219D02*
X27666669Y-37462457D01*
X27666669Y-37462457D02*
X27761907Y-37557695D01*
X27761907Y-37557695D02*
X27857145Y-37748171D01*
X27857145Y-37748171D02*
X27857145Y-38033885D01*
X27857145Y-38033885D02*
X27761907Y-38224361D01*
X27761907Y-38224361D02*
X27666669Y-38319600D01*
X27666669Y-38319600D02*
X27476193Y-38414838D01*
X27476193Y-38414838D02*
X26714288Y-38414838D01*
X26714288Y-38414838D02*
X26714288Y-36414838D01*
X26714288Y-36414838D02*
X27380955Y-36414838D01*
X27380955Y-36414838D02*
X27571431Y-36510076D01*
X27571431Y-36510076D02*
X27666669Y-36605314D01*
X27666669Y-36605314D02*
X27761907Y-36795790D01*
X27761907Y-36795790D02*
X27761907Y-36986266D01*
X27761907Y-36986266D02*
X27666669Y-37176742D01*
X27666669Y-37176742D02*
X27571431Y-37271980D01*
X27571431Y-37271980D02*
X27380955Y-37367219D01*
X27380955Y-37367219D02*
X26714288Y-37367219D01*
X29000002Y-38414838D02*
X28809526Y-38319600D01*
X28809526Y-38319600D02*
X28714288Y-38224361D01*
X28714288Y-38224361D02*
X28619050Y-38033885D01*
X28619050Y-38033885D02*
X28619050Y-37462457D01*
X28619050Y-37462457D02*
X28714288Y-37271980D01*
X28714288Y-37271980D02*
X28809526Y-37176742D01*
X28809526Y-37176742D02*
X29000002Y-37081504D01*
X29000002Y-37081504D02*
X29285717Y-37081504D01*
X29285717Y-37081504D02*
X29476193Y-37176742D01*
X29476193Y-37176742D02*
X29571431Y-37271980D01*
X29571431Y-37271980D02*
X29666669Y-37462457D01*
X29666669Y-37462457D02*
X29666669Y-38033885D01*
X29666669Y-38033885D02*
X29571431Y-38224361D01*
X29571431Y-38224361D02*
X29476193Y-38319600D01*
X29476193Y-38319600D02*
X29285717Y-38414838D01*
X29285717Y-38414838D02*
X29000002Y-38414838D01*
X31380955Y-38414838D02*
X31380955Y-37367219D01*
X31380955Y-37367219D02*
X31285717Y-37176742D01*
X31285717Y-37176742D02*
X31095241Y-37081504D01*
X31095241Y-37081504D02*
X30714288Y-37081504D01*
X30714288Y-37081504D02*
X30523812Y-37176742D01*
X31380955Y-38319600D02*
X31190479Y-38414838D01*
X31190479Y-38414838D02*
X30714288Y-38414838D01*
X30714288Y-38414838D02*
X30523812Y-38319600D01*
X30523812Y-38319600D02*
X30428574Y-38129123D01*
X30428574Y-38129123D02*
X30428574Y-37938647D01*
X30428574Y-37938647D02*
X30523812Y-37748171D01*
X30523812Y-37748171D02*
X30714288Y-37652933D01*
X30714288Y-37652933D02*
X31190479Y-37652933D01*
X31190479Y-37652933D02*
X31380955Y-37557695D01*
X32333336Y-38414838D02*
X32333336Y-37081504D01*
X32333336Y-37462457D02*
X32428574Y-37271980D01*
X32428574Y-37271980D02*
X32523812Y-37176742D01*
X32523812Y-37176742D02*
X32714288Y-37081504D01*
X32714288Y-37081504D02*
X32904765Y-37081504D01*
X34428574Y-38414838D02*
X34428574Y-36414838D01*
X34428574Y-38319600D02*
X34238098Y-38414838D01*
X34238098Y-38414838D02*
X33857145Y-38414838D01*
X33857145Y-38414838D02*
X33666669Y-38319600D01*
X33666669Y-38319600D02*
X33571431Y-38224361D01*
X33571431Y-38224361D02*
X33476193Y-38033885D01*
X33476193Y-38033885D02*
X33476193Y-37462457D01*
X33476193Y-37462457D02*
X33571431Y-37271980D01*
X33571431Y-37271980D02*
X33666669Y-37176742D01*
X33666669Y-37176742D02*
X33857145Y-37081504D01*
X33857145Y-37081504D02*
X34238098Y-37081504D01*
X34238098Y-37081504D02*
X34428574Y-37176742D01*
%TO.C,H1*%
D12*
X6700000Y-3500000D02*
G75*
G02*
X300000Y-3500000I-3200000J0D01*
G01*
X300000Y-3500000D02*
G75*
G02*
X6700000Y-3500000I3200000J0D01*
G01*
%TO.C,H4*%
X6700000Y-71500000D02*
G75*
G02*
X300000Y-71500000I-3200000J0D01*
G01*
X300000Y-71500000D02*
G75*
G02*
X6700000Y-71500000I3200000J0D01*
G01*
%TO.C,H3*%
X159700000Y-71500000D02*
G75*
G02*
X153300000Y-71500000I-3200000J0D01*
G01*
X153300000Y-71500000D02*
G75*
G02*
X159700000Y-71500000I3200000J0D01*
G01*
%TO.C,H2*%
X159700000Y-3500000D02*
G75*
G02*
X153300000Y-3500000I-3200000J0D01*
G01*
X153300000Y-3500000D02*
G75*
G02*
X159700000Y-3500000I3200000J0D01*
G01*
%TD*%
M02*
