%TF.GenerationSoftware,KiCad,Pcbnew,10.0.5*%
%TF.CreationDate,2026-08-05T00:31:18-05:00*%
%TF.ProjectId,io-board,696f2d62-6f61-4726-942e-6b696361645f,rev?*%
%TF.SameCoordinates,Original*%
%TF.FileFunction,Copper,L1,Top*%
%TF.FilePolarity,Positive*%
%FSLAX46Y46*%
G04 Gerber Fmt 4.6, Leading zero omitted, Abs format (unit mm)*
G04 Created by KiCad (PCBNEW 10.0.5) date 2026-08-05 00:31:18*
%MOMM*%
%LPD*%
G01*
G04 APERTURE LIST*
G04 Aperture macros list*
%AMRoundRect*
0 Rectangle with rounded corners*
0 $1 Rounding radius*
0 $2 $3 $4 $5 $6 $7 $8 $9 X,Y pos of 4 corners*
0 Add a 4 corners polygon primitive as box body*
4,1,4,$2,$3,$4,$5,$6,$7,$8,$9,$2,$3,0*
0 Add four circle primitives for the rounded corners*
1,1,$1+$1,$2,$3*
1,1,$1+$1,$4,$5*
1,1,$1+$1,$6,$7*
1,1,$1+$1,$8,$9*
0 Add four rect primitives between the rounded corners*
20,1,$1+$1,$2,$3,$4,$5,0*
20,1,$1+$1,$4,$5,$6,$7,0*
20,1,$1+$1,$6,$7,$8,$9,0*
20,1,$1+$1,$8,$9,$2,$3,0*%
G04 Aperture macros list end*
%TA.AperFunction,SMDPad,CuDef*%
%ADD10RoundRect,0.200000X-0.200000X-0.275000X0.200000X-0.275000X0.200000X0.275000X-0.200000X0.275000X0*%
%TD*%
%TA.AperFunction,SMDPad,CuDef*%
%ADD11RoundRect,0.225000X-0.225000X-0.250000X0.225000X-0.250000X0.225000X0.250000X-0.225000X0.250000X0*%
%TD*%
%TA.AperFunction,SMDPad,CuDef*%
%ADD12RoundRect,0.200000X0.275000X-0.200000X0.275000X0.200000X-0.275000X0.200000X-0.275000X-0.200000X0*%
%TD*%
%TA.AperFunction,ComponentPad*%
%ADD13C,2.900000*%
%TD*%
%TA.AperFunction,ComponentPad*%
%ADD14RoundRect,0.250000X-0.600000X-0.725000X0.600000X-0.725000X0.600000X0.725000X-0.600000X0.725000X0*%
%TD*%
%TA.AperFunction,ComponentPad*%
%ADD15O,1.700000X1.950000*%
%TD*%
%TA.AperFunction,ComponentPad*%
%ADD16RoundRect,0.250001X-1.099999X-1.099999X1.099999X-1.099999X1.099999X1.099999X-1.099999X1.099999X0*%
%TD*%
%TA.AperFunction,ComponentPad*%
%ADD17C,2.700000*%
%TD*%
%TA.AperFunction,SMDPad,CuDef*%
%ADD18RoundRect,0.150000X-0.825000X-0.150000X0.825000X-0.150000X0.825000X0.150000X-0.825000X0.150000X0*%
%TD*%
%TA.AperFunction,ViaPad*%
%ADD19C,0.600000*%
%TD*%
%TA.AperFunction,Conductor*%
%ADD20C,0.200000*%
%TD*%
G04 APERTURE END LIST*
D10*
%TO.P,R21,1*%
%TO.N,L_PROG*%
X127675000Y-69831000D03*
%TO.P,R21,2*%
%TO.N,DRY_L*%
X129325000Y-69831000D03*
%TD*%
D11*
%TO.P,C2,1*%
%TO.N,IN_BAL_L_N*%
X143691200Y-46651500D03*
%TO.P,C2,2*%
%TO.N,AGND*%
X145241200Y-46651500D03*
%TD*%
D12*
%TO.P,R59,1*%
%TO.N,U4A_OUT*%
X128034100Y-63086400D03*
%TO.P,R59,2*%
%TO.N,OUT_BAL_R_P*%
X128034100Y-61436400D03*
%TD*%
D11*
%TO.P,C97,1*%
%TO.N,+15VA*%
X36278600Y-69831300D03*
%TO.P,C97,2*%
%TO.N,AGND*%
X37828600Y-69831300D03*
%TD*%
%TO.P,C93,1*%
%TO.N,+15VA*%
X8231000Y-69831300D03*
%TO.P,C93,2*%
%TO.N,AGND*%
X9781000Y-69831300D03*
%TD*%
D10*
%TO.P,R1,1*%
%TO.N,IN_BAL_L_P*%
X50300000Y-69831300D03*
%TO.P,R1,2*%
%TO.N,INBUF_L_P*%
X51950000Y-69831300D03*
%TD*%
%TO.P,R12,1*%
%TO.N,L_RX*%
X41692900Y-62248000D03*
%TO.P,R12,2*%
%TO.N,L_RX_M*%
X43342900Y-62248000D03*
%TD*%
%TO.P,R43,1*%
%TO.N,L_BLEND*%
X102871400Y-69831300D03*
%TO.P,R43,2*%
%TO.N,U3B_M*%
X104521400Y-69831300D03*
%TD*%
%TO.P,R11,1*%
%TO.N,INBUF_L_N*%
X31442900Y-62248000D03*
%TO.P,R11,2*%
%TO.N,L_RX_M*%
X33092900Y-62248000D03*
%TD*%
D11*
%TO.P,C98,1*%
%TO.N,-15VA*%
X43290500Y-69831300D03*
%TO.P,C98,2*%
%TO.N,AGND*%
X44840500Y-69831300D03*
%TD*%
D10*
%TO.P,R23,1*%
%TO.N,R_PROG*%
X139675000Y-69831000D03*
%TO.P,R23,2*%
%TO.N,DRY_R*%
X141325000Y-69831000D03*
%TD*%
%TO.P,R18,1*%
%TO.N,U1B_P*%
X103192900Y-62248000D03*
%TO.P,R18,2*%
%TO.N,AGND*%
X104842900Y-62248000D03*
%TD*%
D11*
%TO.P,C92,1*%
%TO.N,-15VA*%
X149111700Y-62248000D03*
%TO.P,C92,2*%
%TO.N,AGND*%
X150661700Y-62248000D03*
%TD*%
D10*
%TO.P,R4,1*%
%TO.N,IN_BAL_R_N*%
X96240500Y-69831300D03*
%TO.P,R4,2*%
%TO.N,INBUF_R_N*%
X97890500Y-69831300D03*
%TD*%
%TO.P,R14,1*%
%TO.N,U1A_P*%
X62192900Y-62248000D03*
%TO.P,R14,2*%
%TO.N,AGND*%
X63842900Y-62248000D03*
%TD*%
%TO.P,R3,1*%
%TO.N,IN_BAL_R_P*%
X64514300Y-69831300D03*
%TO.P,R3,2*%
%TO.N,INBUF_R_P*%
X66164300Y-69831300D03*
%TD*%
D11*
%TO.P,C3,1*%
%TO.N,IN_BAL_R_P*%
X10135700Y-62248000D03*
%TO.P,C3,2*%
%TO.N,AGND*%
X11685700Y-62248000D03*
%TD*%
D10*
%TO.P,R31,1*%
%TO.N,WD_L_WIPER*%
X71145200Y-69831300D03*
%TO.P,R31,2*%
%TO.N,U2A_M*%
X72795200Y-69831300D03*
%TD*%
D13*
%TO.P,J2,1*%
%TO.N,AGND*%
X58225000Y-22525000D03*
%TO.P,J2,2*%
%TO.N,IN_BAL_R_P*%
X45925000Y-22525000D03*
%TO.P,J2,3*%
%TO.N,IN_BAL_R_N*%
X52075000Y-28575000D03*
%TO.P,J2,G*%
%TO.N,AGND*%
X52075000Y-32975000D03*
%TO.P,J2,R*%
%TO.N,IN_BAL_R_N*%
X57875000Y-28325000D03*
%TO.P,J2,S*%
%TO.N,AGND*%
X46275000Y-28325000D03*
%TO.P,J2,T*%
%TO.N,IN_BAL_R_P*%
X46875000Y-17325000D03*
%TD*%
D14*
%TO.P,P2,1*%
%TO.N,WET_SEND_L*%
X26290000Y-48771500D03*
D15*
%TO.P,P2,2*%
%TO.N,AGND*%
X28790000Y-48771500D03*
%TO.P,P2,3*%
%TO.N,WET_SEND_R*%
X31290000Y-48771500D03*
%TD*%
D10*
%TO.P,R22,1*%
%TO.N,L_PROG*%
X133675000Y-69831000D03*
%TO.P,R22,2*%
%TO.N,WET_SEND_L*%
X135325000Y-69831000D03*
%TD*%
%TO.P,R16,1*%
%TO.N,R_RX*%
X82692900Y-62248000D03*
%TO.P,R16,2*%
%TO.N,R_RX_M*%
X84342900Y-62248000D03*
%TD*%
D11*
%TO.P,C95,1*%
%TO.N,+15VA*%
X22254800Y-69831300D03*
%TO.P,C95,2*%
%TO.N,AGND*%
X23804800Y-69831300D03*
%TD*%
D12*
%TO.P,R60,1*%
%TO.N,U4B_OUT*%
X135590600Y-63086400D03*
%TO.P,R60,2*%
%TO.N,OUT_BAL_R_N*%
X135590600Y-61436400D03*
%TD*%
D13*
%TO.P,J1,1*%
%TO.N,AGND*%
X27175000Y-22525000D03*
%TO.P,J1,2*%
%TO.N,IN_BAL_L_P*%
X14875000Y-22525000D03*
%TO.P,J1,3*%
%TO.N,IN_BAL_L_N*%
X21025000Y-28575000D03*
%TO.P,J1,G*%
%TO.N,AGND*%
X21025000Y-32975000D03*
%TO.P,J1,R*%
%TO.N,IN_BAL_L_N*%
X26825000Y-28325000D03*
%TO.P,J1,S*%
%TO.N,AGND*%
X15225000Y-28325000D03*
%TO.P,J1,T*%
%TO.N,IN_BAL_L_P*%
X15825000Y-17325000D03*
%TD*%
D12*
%TO.P,R50,1*%
%TO.N,U3B_OUT*%
X120477600Y-63086400D03*
%TO.P,R50,2*%
%TO.N,OUT_BAL_L_N*%
X120477600Y-61436400D03*
%TD*%
D14*
%TO.P,P3,1*%
%TO.N,WET_SUM_L*%
X40240000Y-48771500D03*
D15*
%TO.P,P3,2*%
%TO.N,AGND*%
X42740000Y-48771500D03*
%TO.P,P3,3*%
%TO.N,WET_SUM_R*%
X45240000Y-48771500D03*
%TD*%
D10*
%TO.P,R53,1*%
%TO.N,R_BLEND*%
X115181000Y-69831300D03*
%TO.P,R53,2*%
%TO.N,U4B_M*%
X116831000Y-69831300D03*
%TD*%
D11*
%TO.P,C91,1*%
%TO.N,+15VA*%
X142099800Y-62248000D03*
%TO.P,C91,2*%
%TO.N,AGND*%
X143649800Y-62248000D03*
%TD*%
D13*
%TO.P,J4,1*%
%TO.N,AGND*%
X120325000Y-22525000D03*
%TO.P,J4,2*%
%TO.N,OUT_BAL_R_P*%
X108025000Y-22525000D03*
%TO.P,J4,3*%
%TO.N,OUT_BAL_R_N*%
X114175000Y-28575000D03*
%TO.P,J4,G*%
%TO.N,AGND*%
X114175000Y-32975000D03*
%TO.P,J4,R*%
%TO.N,OUT_BAL_R_N*%
X119975000Y-28325000D03*
%TO.P,J4,S*%
%TO.N,AGND*%
X108375000Y-28325000D03*
%TO.P,J4,T*%
%TO.N,OUT_BAL_R_P*%
X108975000Y-17325000D03*
%TD*%
D11*
%TO.P,C1,1*%
%TO.N,IN_BAL_L_P*%
X132869800Y-46651500D03*
%TO.P,C1,2*%
%TO.N,AGND*%
X134419800Y-46651500D03*
%TD*%
%TO.P,C94,1*%
%TO.N,-15VA*%
X15242900Y-69831300D03*
%TO.P,C94,2*%
%TO.N,AGND*%
X16792900Y-69831300D03*
%TD*%
D16*
%TO.P,P1,1*%
%TO.N,+15VA*%
X9920000Y-50121500D03*
D17*
%TO.P,P1,2*%
%TO.N,AGND*%
X13880000Y-50121500D03*
%TO.P,P1,3*%
%TO.N,-15VA*%
X17840000Y-50121500D03*
%TD*%
D13*
%TO.P,J3,1*%
%TO.N,AGND*%
X89275000Y-22525000D03*
%TO.P,J3,2*%
%TO.N,OUT_BAL_L_P*%
X76975000Y-22525000D03*
%TO.P,J3,3*%
%TO.N,OUT_BAL_L_N*%
X83125000Y-28575000D03*
%TO.P,J3,G*%
%TO.N,AGND*%
X83125000Y-32975000D03*
%TO.P,J3,R*%
%TO.N,OUT_BAL_L_N*%
X88925000Y-28325000D03*
%TO.P,J3,S*%
%TO.N,AGND*%
X77325000Y-28325000D03*
%TO.P,J3,T*%
%TO.N,OUT_BAL_L_P*%
X77925000Y-17325000D03*
%TD*%
D10*
%TO.P,R13,1*%
%TO.N,INBUF_L_P*%
X51942900Y-62248000D03*
%TO.P,R13,2*%
%TO.N,L_RX_P*%
X53592900Y-62248000D03*
%TD*%
%TO.P,R54,1*%
%TO.N,U4B_OUT*%
X121335700Y-69831300D03*
%TO.P,R54,2*%
%TO.N,U4B_M*%
X122985700Y-69831300D03*
%TD*%
%TO.P,R44,1*%
%TO.N,U3B_OUT*%
X109026200Y-69831300D03*
%TO.P,R44,2*%
%TO.N,U3B_M*%
X110676200Y-69831300D03*
%TD*%
D11*
%TO.P,C4,1*%
%TO.N,IN_BAL_R_N*%
X20957100Y-62248000D03*
%TO.P,C4,2*%
%TO.N,AGND*%
X22507100Y-62248000D03*
%TD*%
D18*
%TO.P,U4,1*%
%TO.N,U4A_OUT*%
X119538800Y-46716500D03*
%TO.P,U4,2*%
X119538800Y-47986500D03*
%TO.P,U4,3*%
%TO.N,R_BLEND*%
X119538800Y-49256500D03*
%TO.P,U4,4*%
%TO.N,-15VA*%
X119538800Y-50526500D03*
%TO.P,U4,5*%
%TO.N,AGND*%
X124488800Y-50526500D03*
%TO.P,U4,6*%
%TO.N,U4B_M*%
X124488800Y-49256500D03*
%TO.P,U4,7*%
%TO.N,R_COLD_DRV*%
X124488800Y-47986500D03*
%TO.P,U4,8*%
%TO.N,+15VA*%
X124488800Y-46716500D03*
%TD*%
%TO.P,U2,1*%
%TO.N,L_BLEND*%
X94657900Y-46716500D03*
%TO.P,U2,2*%
%TO.N,U2A_M*%
X94657900Y-47986500D03*
%TO.P,U2,3*%
%TO.N,AGND*%
X94657900Y-49256500D03*
%TO.P,U2,4*%
%TO.N,-15VA*%
X94657900Y-50526500D03*
%TO.P,U2,5*%
%TO.N,AGND*%
X99607900Y-50526500D03*
%TO.P,U2,6*%
%TO.N,U2B_M*%
X99607900Y-49256500D03*
%TO.P,U2,7*%
%TO.N,R_BLEND*%
X99607900Y-47986500D03*
%TO.P,U2,8*%
%TO.N,+15VA*%
X99607900Y-46716500D03*
%TD*%
D10*
%TO.P,R15,1*%
%TO.N,INBUF_R_N*%
X72442900Y-62248000D03*
%TO.P,R15,2*%
%TO.N,R_RX_M*%
X74092900Y-62248000D03*
%TD*%
%TO.P,R35,1*%
%TO.N,L_BLEND*%
X83454800Y-69831300D03*
%TO.P,R35,2*%
%TO.N,U2A_M*%
X85104800Y-69831300D03*
%TD*%
%TO.P,R24,1*%
%TO.N,R_PROG*%
X145675000Y-69831000D03*
%TO.P,R24,2*%
%TO.N,WET_SEND_R*%
X147325000Y-69831000D03*
%TD*%
D18*
%TO.P,U1,1*%
%TO.N,L_RX*%
X81788800Y-46691500D03*
%TO.P,U1,2*%
%TO.N,L_RX_M*%
X81788800Y-47961500D03*
%TO.P,U1,3*%
%TO.N,L_RX_P*%
X81788800Y-49231500D03*
%TO.P,U1,4*%
%TO.N,+15VA*%
X81788800Y-50501500D03*
%TO.P,U1,5*%
%TO.N,R_RX_P*%
X81788800Y-51771500D03*
%TO.P,U1,6*%
%TO.N,R_RX_M*%
X81788800Y-53041500D03*
%TO.P,U1,7*%
%TO.N,R_RX*%
X81788800Y-54311500D03*
%TO.P,U1,8*%
%TO.N,L_PROG*%
X86738800Y-54311500D03*
%TO.P,U1,9*%
X86738800Y-53041500D03*
%TO.P,U1,10*%
%TO.N,L_RX*%
X86738800Y-51771500D03*
%TO.P,U1,11*%
%TO.N,-15VA*%
X86738800Y-50501500D03*
%TO.P,U1,12*%
%TO.N,MONO_C*%
X86738800Y-49231500D03*
%TO.P,U1,13*%
%TO.N,R_PROG*%
X86738800Y-47961500D03*
%TO.P,U1,14*%
X86738800Y-46691500D03*
%TD*%
D10*
%TO.P,R2,1*%
%TO.N,IN_BAL_L_N*%
X57407100Y-69831300D03*
%TO.P,R2,2*%
%TO.N,INBUF_L_N*%
X59057100Y-69831300D03*
%TD*%
%TO.P,R36,1*%
%TO.N,R_BLEND*%
X89609500Y-69831300D03*
%TO.P,R36,2*%
%TO.N,U2B_M*%
X91259500Y-69831300D03*
%TD*%
D14*
%TO.P,P5,1*%
%TO.N,L_PROG*%
X134175000Y-11398200D03*
D15*
%TO.P,P5,2*%
%TO.N,WD_L_WIPER*%
X136675000Y-11398200D03*
%TO.P,P5,3*%
%TO.N,WET_SUM_L*%
X139175000Y-11398200D03*
%TO.P,P5,4*%
%TO.N,R_PROG*%
X141675000Y-11398200D03*
%TO.P,P5,5*%
%TO.N,WD_R_WIPER*%
X144175000Y-11398200D03*
%TO.P,P5,6*%
%TO.N,WD_R_LO*%
X146675000Y-11398200D03*
%TD*%
D12*
%TO.P,R49,1*%
%TO.N,U3A_OUT*%
X112921100Y-63086400D03*
%TO.P,R49,2*%
%TO.N,OUT_BAL_L_P*%
X112921100Y-61436400D03*
%TD*%
D10*
%TO.P,R17,1*%
%TO.N,INBUF_R_P*%
X92942900Y-62248000D03*
%TO.P,R17,2*%
%TO.N,R_RX_P*%
X94592900Y-62248000D03*
%TD*%
D14*
%TO.P,P4,1*%
%TO.N,DRY_L*%
X54190000Y-48771500D03*
D15*
%TO.P,P4,2*%
%TO.N,AGND*%
X56690000Y-48771500D03*
%TO.P,P4,3*%
%TO.N,DRY_R*%
X59190000Y-48771500D03*
%TD*%
D11*
%TO.P,C96,1*%
%TO.N,-15VA*%
X29266700Y-69831300D03*
%TO.P,C96,2*%
%TO.N,AGND*%
X30816700Y-69831300D03*
%TD*%
D14*
%TO.P,P6,1*%
%TO.N,L_RX*%
X68140000Y-48771500D03*
D15*
%TO.P,P6,2*%
%TO.N,MONO_C*%
X70640000Y-48771500D03*
%TO.P,P6,3*%
%TO.N,R_RX*%
X73140000Y-48771500D03*
%TD*%
D18*
%TO.P,U3,1*%
%TO.N,L_HOT_DRV*%
X107098300Y-46716500D03*
%TO.P,U3,2*%
%TO.N,U3A_OUT*%
X107098300Y-47986500D03*
%TO.P,U3,3*%
%TO.N,L_BLEND*%
X107098300Y-49256500D03*
%TO.P,U3,4*%
%TO.N,-15VA*%
X107098300Y-50526500D03*
%TO.P,U3,5*%
%TO.N,AGND*%
X112048300Y-50526500D03*
%TO.P,U3,6*%
%TO.N,U3B_M*%
X112048300Y-49256500D03*
%TO.P,U3,7*%
%TO.N,L_COLD_DRV*%
X112048300Y-47986500D03*
%TO.P,U3,8*%
%TO.N,+15VA*%
X112048300Y-46716500D03*
%TD*%
D10*
%TO.P,R32,1*%
%TO.N,WD_R_WIPER*%
X77300000Y-69831300D03*
%TO.P,R32,2*%
%TO.N,U2B_M*%
X78950000Y-69831300D03*
%TD*%
D19*
%TO.N,L_PROG*%
X107517300Y-56299400D03*
X131854500Y-70759800D03*
%TO.N,DRY_L*%
X69535100Y-70857300D03*
%TO.N,IN_BAL_L_N*%
X57750700Y-41837400D03*
X60829300Y-70759800D03*
%TO.N,OUT_BAL_R_P*%
X128125700Y-59999000D03*
%TO.N,+15VA*%
X6806800Y-69745000D03*
%TO.N,IN_BAL_L_P*%
X39950500Y-44632200D03*
X48633200Y-69912000D03*
%TO.N,L_RX*%
X73598000Y-51491300D03*
%TO.N,-15VA*%
X107596600Y-53092100D03*
X90384400Y-50514600D03*
X85713800Y-67030200D03*
X13250200Y-70761400D03*
X119215600Y-51476600D03*
%TO.N,R_PROG*%
X140818300Y-47622200D03*
X137821200Y-70761400D03*
%TO.N,DRY_R*%
X65988500Y-71838100D03*
X56631300Y-51596800D03*
%TO.N,IN_BAL_R_N*%
X42917200Y-56299400D03*
X85393300Y-67934500D03*
%TO.N,IN_BAL_R_P*%
X58603200Y-68636100D03*
X47614600Y-66175400D03*
%TO.N,WD_L_WIPER*%
X123944000Y-69593900D03*
%TO.N,U2A_M*%
X92927100Y-48038300D03*
X85643700Y-68775400D03*
%TO.N,WET_SEND_L*%
X34017100Y-44632200D03*
X137010600Y-69954200D03*
X138636000Y-46849100D03*
%TO.N,WET_SEND_R*%
X34522600Y-48090600D03*
X31347100Y-71466300D03*
%TO.N,R_RX*%
X78853600Y-56635500D03*
%TO.N,OUT_BAL_R_N*%
X128949900Y-59191800D03*
%TO.N,OUT_BAL_L_N*%
X114709800Y-59190600D03*
%TO.N,WET_SUM_L*%
X49210600Y-33520200D03*
%TO.N,R_BLEND*%
X120101800Y-67463700D03*
X120259500Y-55215300D03*
%TO.N,U4B_M*%
X123132200Y-68627600D03*
X129570200Y-50823900D03*
%TO.N,OUT_BAL_L_P*%
X113062200Y-59254900D03*
%TO.N,U2B_M*%
X87417700Y-70147400D03*
X96717300Y-49413800D03*
%TO.N,WD_R_WIPER*%
X75483400Y-70366300D03*
%TD*%
%TO.N,L_PROG*%
D20*
X107517300Y-56299400D02*
X88726700Y-56299400D01*
X131854500Y-70759800D02*
X128603800Y-70759800D01*
X133675000Y-69831000D02*
X132746200Y-70759800D01*
X128603800Y-70759800D02*
X127675000Y-69831000D01*
X86738800Y-53041500D02*
X86738800Y-54311500D01*
X88726700Y-56299400D02*
X86738800Y-54311500D01*
X132746200Y-70759800D02*
X131854500Y-70759800D01*
%TO.N,DRY_L*%
X128508200Y-69014200D02*
X126540400Y-69014200D01*
X126540400Y-69014200D02*
X123626700Y-71927900D01*
X129325000Y-69831000D02*
X128508200Y-69014200D01*
X123626700Y-71927900D02*
X70605700Y-71927900D01*
X70605700Y-71927900D02*
X69535100Y-70857300D01*
%TO.N,IN_BAL_L_N*%
X40337400Y-41837400D02*
X26825000Y-28325000D01*
X60829300Y-70759800D02*
X58335600Y-70759800D01*
X143691200Y-46651500D02*
X138877100Y-41837400D01*
X138877100Y-41837400D02*
X57750700Y-41837400D01*
X21275000Y-28325000D02*
X21025000Y-28575000D01*
X26825000Y-28325000D02*
X21275000Y-28325000D01*
X57750700Y-41837400D02*
X40337400Y-41837400D01*
X58335600Y-70759800D02*
X57407100Y-69831300D01*
%TO.N,U4A_OUT*%
X118222400Y-51334500D02*
X127085100Y-60197200D01*
X120816100Y-49607400D02*
X120532000Y-49891500D01*
X127085100Y-60197200D02*
X127085100Y-62137400D01*
X119538800Y-47986500D02*
X119896000Y-47986500D01*
X120532000Y-49891500D02*
X118550300Y-49891500D01*
X127085100Y-62137400D02*
X128034100Y-63086400D01*
X118222400Y-50219400D02*
X118222400Y-51334500D01*
X120816100Y-48906600D02*
X120816100Y-49607400D01*
X119896000Y-47986500D02*
X120816100Y-48906600D01*
X118550300Y-49891500D02*
X118222400Y-50219400D01*
X119538800Y-47986500D02*
X119538800Y-46716500D01*
%TO.N,OUT_BAL_R_P*%
X128034100Y-60090600D02*
X128034100Y-61436400D01*
X128125700Y-59999000D02*
X128034100Y-60090600D01*
%TO.N,+15VA*%
X88086800Y-48913900D02*
X88086800Y-49509100D01*
X9920000Y-50121500D02*
X13960600Y-46080900D01*
X88086800Y-48913900D02*
X90886500Y-46114200D01*
X99005600Y-46114200D02*
X99607900Y-46716500D01*
X142099800Y-62248000D02*
X126568300Y-46716500D01*
X85759100Y-48596500D02*
X87769400Y-48596500D01*
X126568300Y-46716500D02*
X124488800Y-46716500D01*
X87729800Y-49866100D02*
X82424200Y-49866100D01*
X87769400Y-48596500D02*
X88086800Y-48913900D01*
X35475800Y-69028500D02*
X36278600Y-69831300D01*
X9033800Y-69028500D02*
X22254800Y-69028500D01*
X8231000Y-69831300D02*
X9033800Y-69028500D01*
X22254800Y-69831300D02*
X22254800Y-69028500D01*
X112048300Y-46716500D02*
X111431000Y-46099200D01*
X8144700Y-69745000D02*
X8231000Y-69831300D01*
X112048300Y-46716500D02*
X112710400Y-46054400D01*
X90886500Y-46114200D02*
X99005600Y-46114200D01*
X88086800Y-49509100D02*
X87729800Y-49866100D01*
X100225200Y-46099200D02*
X99607900Y-46716500D01*
X112710400Y-46054400D02*
X123826700Y-46054400D01*
X22254800Y-69028500D02*
X35475800Y-69028500D01*
X123826700Y-46054400D02*
X124488800Y-46716500D01*
X83243500Y-46080900D02*
X85759100Y-48596500D01*
X82424200Y-49866100D02*
X81788800Y-50501500D01*
X13960600Y-46080900D02*
X83243500Y-46080900D01*
X6806800Y-69745000D02*
X8144700Y-69745000D01*
X111431000Y-46099200D02*
X100225200Y-46099200D01*
%TO.N,IN_BAL_L_P*%
X130850500Y-44632200D02*
X132869800Y-46651500D01*
X39950500Y-44632200D02*
X130850500Y-44632200D01*
X48633200Y-69912000D02*
X50219300Y-69912000D01*
X50219300Y-69912000D02*
X50300000Y-69831300D01*
%TO.N,INBUF_L_P*%
X51942900Y-69824200D02*
X51950000Y-69831300D01*
X51942900Y-62248000D02*
X51942900Y-69824200D01*
%TO.N,L_RX*%
X52767900Y-62611700D02*
X53217900Y-63061700D01*
X73598000Y-53710800D02*
X73598000Y-51491300D01*
X53217900Y-63061700D02*
X64247100Y-63061700D01*
X51534700Y-61470500D02*
X52442200Y-61470500D01*
X49962700Y-63042500D02*
X51534700Y-61470500D01*
X86738800Y-51771500D02*
X86103800Y-51136500D01*
X86103800Y-51136500D02*
X77181200Y-51136500D01*
X41692900Y-62248000D02*
X42487400Y-63042500D01*
X76826400Y-51491300D02*
X73598000Y-51491300D01*
X77181200Y-51136500D02*
X76826400Y-51491300D01*
X52442200Y-61470500D02*
X52767900Y-61796200D01*
X64247100Y-63061700D02*
X73598000Y-53710800D01*
X52767900Y-61796200D02*
X52767900Y-62611700D01*
X70220000Y-46691500D02*
X68140000Y-48771500D01*
X81788800Y-46691500D02*
X70220000Y-46691500D01*
X42487400Y-63042500D02*
X49962700Y-63042500D01*
%TO.N,L_RX_M*%
X42559300Y-61464400D02*
X43342900Y-62248000D01*
X33876500Y-61464400D02*
X42559300Y-61464400D01*
X81788800Y-47961500D02*
X75709000Y-47961500D01*
X52679000Y-52911900D02*
X43342900Y-62248000D01*
X70758600Y-52911900D02*
X52679000Y-52911900D01*
X33092900Y-62248000D02*
X33876500Y-61464400D01*
X75709000Y-47961500D02*
X70758600Y-52911900D01*
%TO.N,L_BLEND*%
X95448200Y-70642900D02*
X93409900Y-68604600D01*
X108433300Y-50185000D02*
X108433300Y-64269400D01*
X88083300Y-68604600D02*
X86040000Y-70647900D01*
X107098300Y-49256500D02*
X107504800Y-49256500D01*
X107098300Y-49256500D02*
X106496000Y-48654200D01*
X106496000Y-48654200D02*
X98632200Y-48654200D01*
X108433300Y-64269400D02*
X102871400Y-69831300D01*
X93409900Y-68604600D02*
X88083300Y-68604600D01*
X84271400Y-70647900D02*
X83454800Y-69831300D01*
X107504800Y-49256500D02*
X108433300Y-50185000D01*
X98632200Y-48654200D02*
X96694500Y-46716500D01*
X102871400Y-69831300D02*
X102059800Y-70642900D01*
X102059800Y-70642900D02*
X95448200Y-70642900D01*
X86040000Y-70647900D02*
X84271400Y-70647900D01*
X96694500Y-46716500D02*
X94657900Y-46716500D01*
%TO.N,U3B_M*%
X113715900Y-50515500D02*
X113715900Y-66791600D01*
X110676200Y-69831300D02*
X109881600Y-69036700D01*
X109881600Y-69036700D02*
X105316000Y-69036700D01*
X113715900Y-66791600D02*
X110676200Y-69831300D01*
X112048300Y-49256500D02*
X112456900Y-49256500D01*
X112456900Y-49256500D02*
X113715900Y-50515500D01*
X105316000Y-69036700D02*
X104521400Y-69831300D01*
%TO.N,INBUF_L_N*%
X34768600Y-65573700D02*
X31442900Y-62248000D01*
X54005300Y-70641800D02*
X51514300Y-70641800D01*
X57904500Y-69018900D02*
X55628200Y-69018900D01*
X59057100Y-69831300D02*
X58716900Y-69831300D01*
X51125000Y-68834900D02*
X47863800Y-65573700D01*
X58716900Y-69831300D02*
X57904500Y-69018900D01*
X47863800Y-65573700D02*
X34768600Y-65573700D01*
X55628200Y-69018900D02*
X54005300Y-70641800D01*
X51514300Y-70641800D02*
X51125000Y-70252500D01*
X51125000Y-70252500D02*
X51125000Y-68834900D01*
%TO.N,-15VA*%
X30060400Y-70625000D02*
X29266700Y-69831300D01*
X97659200Y-49891500D02*
X106463300Y-49891500D01*
X128873300Y-52134800D02*
X121147100Y-52134800D01*
X91223700Y-50501500D02*
X97049200Y-50501500D01*
X44824700Y-71365500D02*
X65608700Y-71365500D01*
X121147100Y-52134800D02*
X119852300Y-50839900D01*
X106463300Y-49891500D02*
X107098300Y-50526500D01*
X90384400Y-50501500D02*
X91223700Y-50501500D01*
X15126600Y-70761400D02*
X15242900Y-70645100D01*
X15242900Y-70645100D02*
X15242900Y-69831300D01*
X28452900Y-70645100D02*
X15242900Y-70645100D01*
X13250200Y-70761400D02*
X15126600Y-70761400D01*
X90384400Y-50514600D02*
X90384400Y-50501500D01*
X97049200Y-50501500D02*
X97659200Y-49891500D01*
X43290500Y-69831300D02*
X44824700Y-71365500D01*
X71046800Y-67030200D02*
X85713800Y-67030200D01*
X91223700Y-50501500D02*
X94632900Y-50501500D01*
X148286100Y-63073600D02*
X139812100Y-63073600D01*
X107596600Y-51024800D02*
X107596600Y-53092100D01*
X119852300Y-50839900D02*
X119538800Y-50526500D01*
X139812100Y-63073600D02*
X128873300Y-52134800D01*
X86738800Y-50501500D02*
X90384400Y-50501500D01*
X66842100Y-71234900D02*
X71046800Y-67030200D01*
X119215600Y-51476600D02*
X119852300Y-50839900D01*
X43290500Y-69831300D02*
X42496800Y-70625000D01*
X29266700Y-69831300D02*
X28452900Y-70645100D01*
X149111700Y-62248000D02*
X148286100Y-63073600D01*
X65739300Y-71234900D02*
X66842100Y-71234900D01*
X42496800Y-70625000D02*
X30060400Y-70625000D01*
X94632900Y-50501500D02*
X94657900Y-50526500D01*
X107098300Y-50526500D02*
X107596600Y-51024800D01*
X65608700Y-71365500D02*
X65739300Y-71234900D01*
%TO.N,R_PROG*%
X144860900Y-70645100D02*
X139675000Y-70645100D01*
X139675000Y-70645100D02*
X139675000Y-69831000D01*
X86738800Y-46691500D02*
X86738800Y-47961500D01*
X140818300Y-47622200D02*
X129957400Y-47622200D01*
X137821200Y-70761400D02*
X139558700Y-70761400D01*
X145675000Y-69831000D02*
X144860900Y-70645100D01*
X127931800Y-45596600D02*
X87833700Y-45596600D01*
X139558700Y-70761400D02*
X139675000Y-70645100D01*
X129957400Y-47622200D02*
X127931800Y-45596600D01*
X87833700Y-45596600D02*
X86738800Y-46691500D01*
%TO.N,DRY_R*%
X58038300Y-50189800D02*
X56631300Y-51596800D01*
X134867900Y-69045600D02*
X134500000Y-69413500D01*
X132365100Y-72337000D02*
X66487400Y-72337000D01*
X140539600Y-69045600D02*
X134867900Y-69045600D01*
X134500000Y-70202100D02*
X132365100Y-72337000D01*
X66487400Y-72337000D02*
X65988500Y-71838100D01*
X58038300Y-48771500D02*
X58038300Y-50189800D01*
X141325000Y-69831000D02*
X140539600Y-69045600D01*
X59190000Y-48771500D02*
X58038300Y-48771500D01*
X134500000Y-69413500D02*
X134500000Y-70202100D01*
%TO.N,IN_BAL_R_N*%
X52325000Y-28325000D02*
X52075000Y-28575000D01*
X26905700Y-56299400D02*
X20957100Y-62248000D01*
X57875000Y-28325000D02*
X52325000Y-28325000D01*
X94343700Y-67934500D02*
X85393300Y-67934500D01*
X42917200Y-56299400D02*
X26905700Y-56299400D01*
X96240500Y-69831300D02*
X94343700Y-67934500D01*
%TO.N,INBUF_R_N*%
X72442900Y-62248000D02*
X65452900Y-69238000D01*
X70791200Y-66428500D02*
X94487700Y-66428500D01*
X65452900Y-69238000D02*
X65452900Y-70359900D01*
X65452900Y-70359900D02*
X65723600Y-70630600D01*
X65723600Y-70630600D02*
X66589100Y-70630600D01*
X94487700Y-66428500D02*
X97890500Y-69831300D01*
X66589100Y-70630600D02*
X70791200Y-66428500D01*
%TO.N,IN_BAL_R_P*%
X14063100Y-66175400D02*
X10135700Y-62248000D01*
X47614600Y-66175400D02*
X14063100Y-66175400D01*
X63319100Y-68636100D02*
X58603200Y-68636100D01*
X64514300Y-69831300D02*
X63319100Y-68636100D01*
%TO.N,INBUF_R_P*%
X70318600Y-65677000D02*
X66164300Y-69831300D01*
X89513900Y-65677000D02*
X70318600Y-65677000D01*
X92942900Y-62248000D02*
X89513900Y-65677000D01*
%TO.N,WD_L_WIPER*%
X123944000Y-70073500D02*
X122501700Y-71515800D01*
X123944000Y-69593900D02*
X123944000Y-70073500D01*
X72829700Y-71515800D02*
X71145200Y-69831300D01*
X122501700Y-71515800D02*
X72829700Y-71515800D01*
%TO.N,U2A_M*%
X84896000Y-69046700D02*
X85104800Y-69255500D01*
X85163600Y-69255500D02*
X85104800Y-69255500D01*
X72795200Y-69831300D02*
X73579800Y-69046700D01*
X94657900Y-47986500D02*
X92978900Y-47986500D01*
X85643700Y-68775400D02*
X85163600Y-69255500D01*
X73579800Y-69046700D02*
X84896000Y-69046700D01*
X92978900Y-47986500D02*
X92927100Y-48038300D01*
X85104800Y-69255500D02*
X85104800Y-69831300D01*
%TO.N,WET_SEND_L*%
X34690400Y-43958900D02*
X135745800Y-43958900D01*
X137010600Y-69954200D02*
X135448200Y-69954200D01*
X135745800Y-43958900D02*
X138636000Y-46849100D01*
X34017100Y-44632200D02*
X34690400Y-43958900D01*
X135448200Y-69954200D02*
X135325000Y-69831000D01*
%TO.N,WET_SEND_R*%
X31290000Y-48771500D02*
X33841700Y-48771500D01*
X33841700Y-48771500D02*
X34522600Y-48090600D01*
X32626900Y-72746100D02*
X144409900Y-72746100D01*
X144409900Y-72746100D02*
X147325000Y-69831000D01*
X31347100Y-71466300D02*
X32626900Y-72746100D01*
%TO.N,R_RX*%
X81788800Y-56635500D02*
X78853600Y-56635500D01*
X82692900Y-57539600D02*
X81788800Y-56635500D01*
X81788800Y-54311500D02*
X81788800Y-56635500D01*
X82692900Y-62248000D02*
X82692900Y-57539600D01*
%TO.N,R_RX_M*%
X81393000Y-53041500D02*
X81788800Y-53041500D01*
X84342900Y-62248000D02*
X83538700Y-63052200D01*
X74897100Y-63052200D02*
X74092900Y-62248000D01*
X83538700Y-63052200D02*
X74897100Y-63052200D01*
X74092900Y-60341600D02*
X81393000Y-53041500D01*
X74092900Y-62248000D02*
X74092900Y-60341600D01*
%TO.N,U4B_OUT*%
X121335700Y-69573300D02*
X121335700Y-69831300D01*
X130651100Y-68025900D02*
X122883100Y-68025900D01*
X122883100Y-68025900D02*
X121335700Y-69573300D01*
X135590600Y-63086400D02*
X130651100Y-68025900D01*
%TO.N,OUT_BAL_R_N*%
X135590600Y-61436400D02*
X133346000Y-59191800D01*
X114425000Y-28325000D02*
X114175000Y-28575000D01*
X119975000Y-28325000D02*
X114425000Y-28325000D01*
X133346000Y-59191800D02*
X128949900Y-59191800D01*
%TO.N,U3B_OUT*%
X109828400Y-70633500D02*
X109026200Y-69831300D01*
X112930500Y-70633500D02*
X109828400Y-70633500D01*
X120477600Y-63086400D02*
X112930500Y-70633500D01*
%TO.N,OUT_BAL_L_N*%
X120477600Y-61436400D02*
X118231900Y-59190700D01*
X88925000Y-28325000D02*
X83375000Y-28325000D01*
X114709800Y-59190700D02*
X114709800Y-59190600D01*
X118231900Y-59190700D02*
X114709800Y-59190700D01*
X83375000Y-28325000D02*
X83125000Y-28575000D01*
%TO.N,WET_SUM_L*%
X56123300Y-34726700D02*
X50417100Y-34726700D01*
X123625800Y-26227600D02*
X64622400Y-26227600D01*
X64622400Y-26227600D02*
X56123300Y-34726700D01*
X139175000Y-11398200D02*
X138023300Y-11398200D01*
X138023300Y-11398200D02*
X138023300Y-11830100D01*
X138023300Y-11830100D02*
X123625800Y-26227600D01*
X50417100Y-34726700D02*
X49210600Y-33520200D01*
%TO.N,R_BLEND*%
X89609500Y-69831300D02*
X90413100Y-69027700D01*
X100218000Y-47376400D02*
X99607900Y-47986500D01*
X113933500Y-71078800D02*
X115181000Y-69831300D01*
X117819400Y-52775200D02*
X120259500Y-55215300D01*
X117819400Y-49256500D02*
X117819400Y-52775200D01*
X90413100Y-69027700D02*
X91828600Y-69027700D01*
X119538800Y-49256500D02*
X117819400Y-49256500D01*
X120101800Y-67463700D02*
X117548600Y-67463700D01*
X91828600Y-69027700D02*
X93879700Y-71078800D01*
X93879700Y-71078800D02*
X113933500Y-71078800D01*
X117819400Y-49256500D02*
X115939300Y-47376400D01*
X115939300Y-47376400D02*
X100218000Y-47376400D01*
X117548600Y-67463700D02*
X115181000Y-69831300D01*
%TO.N,U4B_M*%
X117636500Y-70636800D02*
X116831000Y-69831300D01*
X123132200Y-68627600D02*
X122985700Y-68774100D01*
X122180200Y-70636800D02*
X117636500Y-70636800D01*
X124488800Y-49256500D02*
X128002800Y-49256500D01*
X128002800Y-49256500D02*
X129570200Y-50823900D01*
X122985700Y-68774100D02*
X122985700Y-69831300D01*
X122985700Y-69831300D02*
X122180200Y-70636800D01*
%TO.N,OUT_BAL_L_P*%
X113062200Y-59254900D02*
X112921100Y-59396000D01*
X112921100Y-59396000D02*
X112921100Y-61436400D01*
%TO.N,L_RX_P*%
X72996300Y-51341300D02*
X67955500Y-56382100D01*
X59458800Y-56382100D02*
X53592900Y-62248000D01*
X73745300Y-50889600D02*
X73348900Y-50889600D01*
X72996300Y-51242200D02*
X72996300Y-51341300D01*
X75403400Y-49231500D02*
X73745300Y-50889600D01*
X81788800Y-49231500D02*
X75403400Y-49231500D01*
X67955500Y-56382100D02*
X59458800Y-56382100D01*
X73348900Y-50889600D02*
X72996300Y-51242200D01*
%TO.N,U2B_M*%
X96717300Y-49413800D02*
X99450600Y-49413800D01*
X90450500Y-70640300D02*
X87910600Y-70640300D01*
X80201300Y-71082600D02*
X78950000Y-69831300D01*
X91259500Y-69831300D02*
X90450500Y-70640300D01*
X86482500Y-71082600D02*
X80201300Y-71082600D01*
X87417700Y-70147400D02*
X86482500Y-71082600D01*
X99450600Y-49413800D02*
X99607900Y-49256500D01*
X87910600Y-70640300D02*
X87417700Y-70147400D01*
%TO.N,R_RX_P*%
X81788800Y-51771500D02*
X82161900Y-51771500D01*
X93208000Y-60863100D02*
X94592900Y-62248000D01*
X91253500Y-60863100D02*
X93208000Y-60863100D01*
X82161900Y-51771500D02*
X91253500Y-60863100D01*
%TO.N,MONO_C*%
X71791700Y-48771500D02*
X71791700Y-48339600D01*
X72804800Y-47326500D02*
X82783400Y-47326500D01*
X82783400Y-47326500D02*
X84688400Y-49231500D01*
X84688400Y-49231500D02*
X86738800Y-49231500D01*
X70640000Y-48771500D02*
X71791700Y-48771500D01*
X71791700Y-48339600D02*
X72804800Y-47326500D01*
%TO.N,WD_R_WIPER*%
X75483400Y-70366300D02*
X76765000Y-70366300D01*
X76765000Y-70366300D02*
X77300000Y-69831300D01*
%TO.N,U3A_OUT*%
X111972100Y-62137400D02*
X112921100Y-63086400D01*
X107098300Y-47986500D02*
X107497000Y-47986500D01*
X111972100Y-52461600D02*
X111972100Y-62137400D01*
X107497000Y-47986500D02*
X111972100Y-52461600D01*
%TD*%
%TA.AperFunction,Conductor*%
%TO.N,AGND*%
G36*
X21464239Y-69447907D02*
G01*
X21500203Y-69497407D01*
X21504085Y-69537172D01*
X21504477Y-69537196D01*
X21504329Y-69539669D01*
X21504342Y-69539801D01*
X21504300Y-69540143D01*
X21504300Y-70122449D01*
X21505663Y-70133796D01*
X21493828Y-70193826D01*
X21448969Y-70235436D01*
X21407369Y-70244600D01*
X16090331Y-70244600D01*
X16032140Y-70225693D01*
X15996176Y-70176193D01*
X15992037Y-70133796D01*
X15992946Y-70126225D01*
X15993400Y-70122444D01*
X15993400Y-69540156D01*
X15993399Y-69540154D01*
X15993399Y-69540143D01*
X15993358Y-69539801D01*
X15993373Y-69539720D01*
X15993223Y-69537196D01*
X15993879Y-69537156D01*
X16005194Y-69479772D01*
X16050054Y-69438164D01*
X16091652Y-69429000D01*
X21406048Y-69429000D01*
X21464239Y-69447907D01*
G37*
%TD.AperFunction*%
%TA.AperFunction,Conductor*%
G36*
X28476139Y-69447907D02*
G01*
X28512103Y-69497407D01*
X28515985Y-69537172D01*
X28516377Y-69537196D01*
X28516229Y-69539669D01*
X28516242Y-69539801D01*
X28516200Y-69540143D01*
X28516200Y-69974399D01*
X28497293Y-70032590D01*
X28487204Y-70044403D01*
X28316003Y-70215604D01*
X28261486Y-70243381D01*
X28245999Y-70244600D01*
X23102231Y-70244600D01*
X23044040Y-70225693D01*
X23008076Y-70176193D01*
X23003937Y-70133796D01*
X23004846Y-70126225D01*
X23005300Y-70122444D01*
X23005300Y-69540156D01*
X23005299Y-69540154D01*
X23005299Y-69540143D01*
X23005258Y-69539801D01*
X23005273Y-69539720D01*
X23005123Y-69537196D01*
X23005779Y-69537156D01*
X23017094Y-69479772D01*
X23061954Y-69438164D01*
X23103552Y-69429000D01*
X28417948Y-69429000D01*
X28476139Y-69447907D01*
G37*
%TD.AperFunction*%
%TA.AperFunction,Conductor*%
G36*
X86790090Y-54930907D02*
G01*
X86801903Y-54940996D01*
X88480787Y-56619880D01*
X88480789Y-56619881D01*
X88480790Y-56619882D01*
X88480791Y-56619883D01*
X88572108Y-56672605D01*
X88572106Y-56672605D01*
X88572110Y-56672606D01*
X88572112Y-56672607D01*
X88673973Y-56699900D01*
X88779427Y-56699900D01*
X107027556Y-56699900D01*
X107085747Y-56718807D01*
X107097559Y-56728896D01*
X107123969Y-56755305D01*
X107148584Y-56779920D01*
X107285516Y-56858977D01*
X107438243Y-56899900D01*
X107438245Y-56899900D01*
X107596355Y-56899900D01*
X107596357Y-56899900D01*
X107749084Y-56858977D01*
X107884301Y-56780909D01*
X107944148Y-56768188D01*
X108000044Y-56793075D01*
X108030637Y-56846063D01*
X108032800Y-56866646D01*
X108032800Y-64062498D01*
X108013893Y-64120689D01*
X108003804Y-64132502D01*
X103109501Y-69026804D01*
X103054984Y-69054581D01*
X103039497Y-69055800D01*
X102623533Y-69055800D01*
X102623529Y-69055800D01*
X102623528Y-69055801D01*
X102616349Y-69056572D01*
X102563919Y-69062208D01*
X102563914Y-69062209D01*
X102429070Y-69112502D01*
X102313858Y-69198750D01*
X102313850Y-69198758D01*
X102227602Y-69313970D01*
X102177310Y-69448811D01*
X102177309Y-69448817D01*
X102170901Y-69508423D01*
X102170900Y-69508429D01*
X102170900Y-69924399D01*
X102151993Y-69982590D01*
X102141904Y-69994402D01*
X101922904Y-70213403D01*
X101868387Y-70241181D01*
X101852900Y-70242400D01*
X98690000Y-70242400D01*
X98631809Y-70223493D01*
X98595845Y-70173993D01*
X98591000Y-70143400D01*
X98590999Y-69508433D01*
X98590999Y-69508428D01*
X98584591Y-69448817D01*
X98583949Y-69447096D01*
X98534297Y-69313970D01*
X98448049Y-69198758D01*
X98448048Y-69198757D01*
X98448046Y-69198754D01*
X98447651Y-69198458D01*
X98332829Y-69112502D01*
X98197988Y-69062210D01*
X98197983Y-69062209D01*
X98197981Y-69062208D01*
X98197977Y-69062208D01*
X98166749Y-69058850D01*
X98138373Y-69055800D01*
X98138370Y-69055800D01*
X97722401Y-69055800D01*
X97664210Y-69036893D01*
X97652397Y-69026804D01*
X96204793Y-67579200D01*
X94733613Y-66108020D01*
X94733610Y-66108018D01*
X94733609Y-66108017D01*
X94733608Y-66108016D01*
X94642291Y-66055294D01*
X94642293Y-66055294D01*
X94602770Y-66044704D01*
X94540427Y-66028000D01*
X94540425Y-66028000D01*
X89968300Y-66028000D01*
X89910109Y-66009093D01*
X89874145Y-65959593D01*
X89874145Y-65898407D01*
X89898294Y-65858998D01*
X92704797Y-63052494D01*
X92759314Y-63024718D01*
X92774801Y-63023499D01*
X93190767Y-63023499D01*
X93190772Y-63023499D01*
X93250383Y-63017091D01*
X93343403Y-62982397D01*
X93385229Y-62966797D01*
X93385229Y-62966796D01*
X93385231Y-62966796D01*
X93500446Y-62880546D01*
X93586696Y-62765331D01*
X93636991Y-62630483D01*
X93643400Y-62570873D01*
X93643399Y-62103899D01*
X93662306Y-62045709D01*
X93711806Y-62009745D01*
X93772991Y-62009745D01*
X93812403Y-62033896D01*
X93863404Y-62084897D01*
X93891181Y-62139414D01*
X93892400Y-62154901D01*
X93892400Y-62570866D01*
X93892400Y-62570869D01*
X93892401Y-62570872D01*
X93893944Y-62585229D01*
X93898808Y-62630480D01*
X93898809Y-62630485D01*
X93949102Y-62765329D01*
X94029763Y-62873078D01*
X94035354Y-62880546D01*
X94035357Y-62880548D01*
X94035358Y-62880549D01*
X94150570Y-62966797D01*
X94285411Y-63017089D01*
X94285412Y-63017089D01*
X94285417Y-63017091D01*
X94345027Y-63023500D01*
X94840772Y-63023499D01*
X94900383Y-63017091D01*
X94993403Y-62982397D01*
X95035229Y-62966797D01*
X95035229Y-62966796D01*
X95035231Y-62966796D01*
X95150446Y-62880546D01*
X95236696Y-62765331D01*
X95286991Y-62630483D01*
X95293400Y-62570873D01*
X95293399Y-61925129D01*
X102492400Y-61925129D01*
X102492400Y-62570866D01*
X102492400Y-62570869D01*
X102492401Y-62570872D01*
X102493944Y-62585229D01*
X102498808Y-62630480D01*
X102498809Y-62630485D01*
X102549102Y-62765329D01*
X102629763Y-62873078D01*
X102635354Y-62880546D01*
X102635357Y-62880548D01*
X102635358Y-62880549D01*
X102750570Y-62966797D01*
X102885411Y-63017089D01*
X102885412Y-63017089D01*
X102885417Y-63017091D01*
X102945027Y-63023500D01*
X103440772Y-63023499D01*
X103500383Y-63017091D01*
X103593403Y-62982397D01*
X103635229Y-62966797D01*
X103635229Y-62966796D01*
X103635231Y-62966796D01*
X103750446Y-62880546D01*
X103836696Y-62765331D01*
X103886991Y-62630483D01*
X103893400Y-62570873D01*
X103893399Y-61925128D01*
X103886991Y-61865517D01*
X103882807Y-61854300D01*
X103836697Y-61730670D01*
X103750449Y-61615458D01*
X103750448Y-61615457D01*
X103750446Y-61615454D01*
X103687151Y-61568071D01*
X103635229Y-61529202D01*
X103500388Y-61478910D01*
X103500383Y-61478909D01*
X103500381Y-61478908D01*
X103500377Y-61478908D01*
X103469149Y-61475550D01*
X103440773Y-61472500D01*
X103440770Y-61472500D01*
X102945033Y-61472500D01*
X102945029Y-61472500D01*
X102945028Y-61472501D01*
X102937849Y-61473272D01*
X102885419Y-61478908D01*
X102885414Y-61478909D01*
X102750570Y-61529202D01*
X102635358Y-61615450D01*
X102635350Y-61615458D01*
X102549102Y-61730670D01*
X102498810Y-61865511D01*
X102498808Y-61865522D01*
X102492400Y-61925129D01*
X95293399Y-61925129D01*
X95293399Y-61925128D01*
X95286991Y-61865517D01*
X95282807Y-61854300D01*
X95236697Y-61730670D01*
X95150449Y-61615458D01*
X95150448Y-61615457D01*
X95150446Y-61615454D01*
X95087151Y-61568071D01*
X95035229Y-61529202D01*
X94900388Y-61478910D01*
X94900383Y-61478909D01*
X94900381Y-61478908D01*
X94900377Y-61478908D01*
X94869149Y-61475550D01*
X94840773Y-61472500D01*
X94840770Y-61472500D01*
X94424801Y-61472500D01*
X94366610Y-61453593D01*
X94354797Y-61443504D01*
X93905362Y-60994069D01*
X93453913Y-60542620D01*
X93453910Y-60542618D01*
X93453909Y-60542617D01*
X93453908Y-60542616D01*
X93362591Y-60489894D01*
X93362593Y-60489894D01*
X93320053Y-60478496D01*
X93260727Y-60462600D01*
X93260725Y-60462600D01*
X91460401Y-60462600D01*
X91402210Y-60443693D01*
X91390397Y-60433604D01*
X86037797Y-55081004D01*
X86010020Y-55026487D01*
X86019591Y-54966055D01*
X86062856Y-54922790D01*
X86107801Y-54912000D01*
X86731899Y-54912000D01*
X86790090Y-54930907D01*
G37*
%TD.AperFunction*%
%TA.AperFunction,Conductor*%
G36*
X35327091Y-69447907D02*
G01*
X35338903Y-69457996D01*
X35499103Y-69618195D01*
X35526881Y-69672712D01*
X35528100Y-69688199D01*
X35528100Y-70125403D01*
X35526366Y-70125403D01*
X35512638Y-70178635D01*
X35465453Y-70217586D01*
X35429106Y-70224500D01*
X30267301Y-70224500D01*
X30209110Y-70205593D01*
X30197297Y-70195504D01*
X30046196Y-70044403D01*
X30018419Y-69989886D01*
X30017200Y-69974399D01*
X30017200Y-69540157D01*
X30017199Y-69540143D01*
X30017158Y-69539801D01*
X30017173Y-69539720D01*
X30017023Y-69537196D01*
X30017679Y-69537156D01*
X30028994Y-69479772D01*
X30073854Y-69438164D01*
X30115452Y-69429000D01*
X35268900Y-69429000D01*
X35327091Y-69447907D01*
G37*
%TD.AperFunction*%
%TA.AperFunction,Conductor*%
G36*
X123172491Y-46473807D02*
G01*
X123208455Y-46523307D01*
X123213300Y-46553900D01*
X123213300Y-46920774D01*
X123216153Y-46951194D01*
X123216155Y-46951203D01*
X123261007Y-47079383D01*
X123341645Y-47188644D01*
X123341647Y-47188646D01*
X123341650Y-47188650D01*
X123341653Y-47188652D01*
X123341655Y-47188654D01*
X123454374Y-47271845D01*
X123489967Y-47321613D01*
X123489509Y-47382796D01*
X123454374Y-47431155D01*
X123341655Y-47514345D01*
X123341645Y-47514355D01*
X123261007Y-47623616D01*
X123216155Y-47751796D01*
X123216153Y-47751805D01*
X123213300Y-47782225D01*
X123213300Y-48190774D01*
X123216153Y-48221194D01*
X123216155Y-48221203D01*
X123261007Y-48349383D01*
X123341645Y-48458644D01*
X123341647Y-48458646D01*
X123341650Y-48458650D01*
X123341653Y-48458652D01*
X123341655Y-48458654D01*
X123454374Y-48541845D01*
X123489967Y-48591613D01*
X123489509Y-48652796D01*
X123454374Y-48701155D01*
X123341655Y-48784345D01*
X123341645Y-48784355D01*
X123261007Y-48893616D01*
X123216155Y-49021796D01*
X123216153Y-49021805D01*
X123213300Y-49052225D01*
X123213300Y-49460774D01*
X123216153Y-49491194D01*
X123216155Y-49491203D01*
X123261007Y-49619383D01*
X123341645Y-49728644D01*
X123341647Y-49728646D01*
X123341650Y-49728650D01*
X123341653Y-49728652D01*
X123341655Y-49728654D01*
X123450916Y-49809292D01*
X123450917Y-49809292D01*
X123450918Y-49809293D01*
X123579101Y-49854146D01*
X123609525Y-49856999D01*
X123609527Y-49857000D01*
X123609534Y-49857000D01*
X125368073Y-49857000D01*
X125368073Y-49856999D01*
X125398499Y-49854146D01*
X125526682Y-49809293D01*
X125635950Y-49728650D01*
X125659152Y-49697211D01*
X125708920Y-49661619D01*
X125738808Y-49657000D01*
X127795899Y-49657000D01*
X127854090Y-49675907D01*
X127865903Y-49685996D01*
X128940704Y-50760797D01*
X128968481Y-50815314D01*
X128969700Y-50830801D01*
X128969700Y-50902957D01*
X129010623Y-51055684D01*
X129089680Y-51192616D01*
X129201484Y-51304420D01*
X129338416Y-51383477D01*
X129491143Y-51424400D01*
X129491145Y-51424400D01*
X129649255Y-51424400D01*
X129649257Y-51424400D01*
X129801984Y-51383477D01*
X129938916Y-51304420D01*
X130050720Y-51192616D01*
X130129777Y-51055684D01*
X130130050Y-51054664D01*
X130130461Y-51054031D01*
X130132260Y-51049689D01*
X130133064Y-51050022D01*
X130163366Y-51003349D01*
X130220485Y-50981415D01*
X130279587Y-50997244D01*
X130295682Y-51010275D01*
X141320304Y-62034897D01*
X141348081Y-62089414D01*
X141349300Y-62104901D01*
X141349300Y-62539149D01*
X141352080Y-62562296D01*
X141340245Y-62622326D01*
X141295386Y-62663935D01*
X141253786Y-62673100D01*
X140019001Y-62673100D01*
X139960810Y-62654193D01*
X139948997Y-62644104D01*
X134540893Y-57236000D01*
X129119213Y-51814320D01*
X129119210Y-51814318D01*
X129119209Y-51814317D01*
X129119208Y-51814316D01*
X129027891Y-51761594D01*
X129027893Y-51761594D01*
X128988370Y-51751004D01*
X128926027Y-51734300D01*
X128926025Y-51734300D01*
X121354011Y-51734300D01*
X121295820Y-51715393D01*
X121284005Y-51705301D01*
X121153676Y-51574962D01*
X120700094Y-51121346D01*
X120672319Y-51066829D01*
X120681893Y-51006398D01*
X120690446Y-50992558D01*
X120727603Y-50942212D01*
X120766593Y-50889382D01*
X120811446Y-50761199D01*
X120814299Y-50730773D01*
X120814300Y-50730773D01*
X120814300Y-50322227D01*
X120814299Y-50322225D01*
X120813238Y-50310907D01*
X120811446Y-50291801D01*
X120802607Y-50266543D01*
X120801234Y-50205375D01*
X120826047Y-50163844D01*
X121136580Y-49853313D01*
X121150533Y-49829146D01*
X121189305Y-49761992D01*
X121189305Y-49761990D01*
X121189307Y-49761988D01*
X121216600Y-49660127D01*
X121216600Y-49554673D01*
X121216600Y-48853873D01*
X121212104Y-48837093D01*
X121210471Y-48830998D01*
X121210471Y-48830999D01*
X121189307Y-48752012D01*
X121189304Y-48752006D01*
X121136583Y-48660691D01*
X121136579Y-48660686D01*
X120825789Y-48349895D01*
X120798012Y-48295379D01*
X120802349Y-48247194D01*
X120811446Y-48221199D01*
X120814299Y-48190773D01*
X120814300Y-48190773D01*
X120814300Y-47782227D01*
X120814299Y-47782225D01*
X120813543Y-47774160D01*
X120811446Y-47751801D01*
X120766593Y-47623618D01*
X120755771Y-47608955D01*
X120685954Y-47514355D01*
X120685952Y-47514353D01*
X120685950Y-47514350D01*
X120685946Y-47514347D01*
X120685944Y-47514345D01*
X120573225Y-47431155D01*
X120537632Y-47381388D01*
X120538090Y-47320204D01*
X120573225Y-47271845D01*
X120646431Y-47217816D01*
X120685950Y-47188650D01*
X120766593Y-47079382D01*
X120811446Y-46951199D01*
X120814299Y-46920773D01*
X120814300Y-46920773D01*
X120814300Y-46553900D01*
X120833207Y-46495709D01*
X120882707Y-46459745D01*
X120913300Y-46454900D01*
X123114300Y-46454900D01*
X123172491Y-46473807D01*
G37*
%TD.AperFunction*%
%TA.AperFunction,Conductor*%
G36*
X73125672Y-51875061D02*
G01*
X73150729Y-51893265D01*
X73168503Y-51911039D01*
X73196281Y-51965553D01*
X73197500Y-51981043D01*
X73197500Y-53503899D01*
X73178593Y-53562090D01*
X73168504Y-53573903D01*
X64110203Y-62632204D01*
X64055686Y-62659981D01*
X64040199Y-62661200D01*
X62992400Y-62661200D01*
X62934209Y-62642293D01*
X62898245Y-62592793D01*
X62893400Y-62562200D01*
X62893399Y-61925133D01*
X62893399Y-61925128D01*
X62886991Y-61865517D01*
X62882807Y-61854300D01*
X62836697Y-61730670D01*
X62750449Y-61615458D01*
X62750448Y-61615457D01*
X62750446Y-61615454D01*
X62687151Y-61568071D01*
X62635229Y-61529202D01*
X62500388Y-61478910D01*
X62500383Y-61478909D01*
X62500381Y-61478908D01*
X62500377Y-61478908D01*
X62469149Y-61475550D01*
X62440773Y-61472500D01*
X62440770Y-61472500D01*
X61945033Y-61472500D01*
X61945029Y-61472500D01*
X61945028Y-61472501D01*
X61937849Y-61473272D01*
X61885419Y-61478908D01*
X61885414Y-61478909D01*
X61750570Y-61529202D01*
X61635358Y-61615450D01*
X61635350Y-61615458D01*
X61549102Y-61730670D01*
X61498810Y-61865511D01*
X61498808Y-61865522D01*
X61492400Y-61925129D01*
X61492401Y-62562200D01*
X61473494Y-62620391D01*
X61423994Y-62656355D01*
X61393401Y-62661200D01*
X54392400Y-62661200D01*
X54334209Y-62642293D01*
X54298245Y-62592793D01*
X54293400Y-62562200D01*
X54293400Y-62361499D01*
X54293399Y-62154899D01*
X54312306Y-62096709D01*
X54322389Y-62084902D01*
X59595697Y-56811596D01*
X59650214Y-56783819D01*
X59665701Y-56782600D01*
X68008225Y-56782600D01*
X68008227Y-56782600D01*
X68110088Y-56755307D01*
X68110090Y-56755305D01*
X68110092Y-56755305D01*
X68201408Y-56702583D01*
X68201408Y-56702582D01*
X68201413Y-56702580D01*
X73010725Y-51893265D01*
X73065240Y-51865490D01*
X73125672Y-51875061D01*
G37*
%TD.AperFunction*%
%TA.AperFunction,Conductor*%
G36*
X110731991Y-47795807D02*
G01*
X110767955Y-47845307D01*
X110772800Y-47875900D01*
X110772800Y-48190774D01*
X110775653Y-48221194D01*
X110775655Y-48221203D01*
X110820507Y-48349383D01*
X110901145Y-48458644D01*
X110901147Y-48458646D01*
X110901150Y-48458650D01*
X110901153Y-48458652D01*
X110901155Y-48458654D01*
X111013874Y-48541845D01*
X111049467Y-48591613D01*
X111049009Y-48652796D01*
X111013874Y-48701155D01*
X110901155Y-48784345D01*
X110901145Y-48784355D01*
X110820507Y-48893616D01*
X110775655Y-49021796D01*
X110775653Y-49021805D01*
X110772800Y-49052225D01*
X110772800Y-49460774D01*
X110775653Y-49491194D01*
X110775655Y-49491203D01*
X110820507Y-49619383D01*
X110901145Y-49728644D01*
X110901147Y-49728646D01*
X110901150Y-49728650D01*
X110901153Y-49728652D01*
X110901155Y-49728654D01*
X111010416Y-49809292D01*
X111010417Y-49809292D01*
X111010418Y-49809293D01*
X111138601Y-49854146D01*
X111169025Y-49856999D01*
X111169027Y-49857000D01*
X111169034Y-49857000D01*
X112449999Y-49857000D01*
X112508190Y-49875907D01*
X112520003Y-49885996D01*
X113286404Y-50652397D01*
X113314181Y-50706914D01*
X113315400Y-50722401D01*
X113315400Y-58572042D01*
X113296493Y-58630233D01*
X113246993Y-58666197D01*
X113190777Y-58667668D01*
X113141257Y-58654400D01*
X112983143Y-58654400D01*
X112830416Y-58695323D01*
X112693484Y-58774380D01*
X112581680Y-58886184D01*
X112557335Y-58928350D01*
X112511867Y-58969290D01*
X112451017Y-58975686D01*
X112398029Y-58945093D01*
X112373142Y-58889197D01*
X112372600Y-58878849D01*
X112372600Y-52408875D01*
X112372599Y-52408871D01*
X112365055Y-52380713D01*
X112345307Y-52307012D01*
X112345305Y-52307009D01*
X112345305Y-52307007D01*
X112292583Y-52215691D01*
X112292582Y-52215690D01*
X112292581Y-52215689D01*
X112292580Y-52215687D01*
X108396047Y-48319154D01*
X108368270Y-48264637D01*
X108371618Y-48227513D01*
X108369660Y-48227086D01*
X108370943Y-48221207D01*
X108370946Y-48221199D01*
X108373799Y-48190773D01*
X108373800Y-48190773D01*
X108373800Y-47875900D01*
X108392707Y-47817709D01*
X108442207Y-47781745D01*
X108472800Y-47776900D01*
X110673800Y-47776900D01*
X110731991Y-47795807D01*
G37*
%TD.AperFunction*%
%TA.AperFunction,Conductor*%
G36*
X105781991Y-50310907D02*
G01*
X105817955Y-50360407D01*
X105822800Y-50391000D01*
X105822800Y-50730774D01*
X105825653Y-50761194D01*
X105825655Y-50761203D01*
X105870507Y-50889383D01*
X105951145Y-50998644D01*
X105951147Y-50998646D01*
X105951150Y-50998650D01*
X105951153Y-50998652D01*
X105951155Y-50998654D01*
X106060416Y-51079292D01*
X106060417Y-51079292D01*
X106060418Y-51079293D01*
X106188601Y-51124146D01*
X106219025Y-51126999D01*
X106219027Y-51127000D01*
X106219034Y-51127000D01*
X107091400Y-51127000D01*
X107149591Y-51145907D01*
X107161404Y-51155996D01*
X107167104Y-51161696D01*
X107194881Y-51216213D01*
X107196100Y-51231700D01*
X107196100Y-52602356D01*
X107177193Y-52660547D01*
X107167104Y-52672359D01*
X107116082Y-52723381D01*
X107116080Y-52723383D01*
X107116080Y-52723384D01*
X107037023Y-52860316D01*
X106996100Y-53013043D01*
X106996100Y-53171157D01*
X107037023Y-53323884D01*
X107116080Y-53460816D01*
X107227884Y-53572620D01*
X107364816Y-53651677D01*
X107517543Y-53692600D01*
X107517545Y-53692600D01*
X107675655Y-53692600D01*
X107675657Y-53692600D01*
X107828384Y-53651677D01*
X107884300Y-53619393D01*
X107944148Y-53606672D01*
X108000044Y-53631559D01*
X108030637Y-53684547D01*
X108032800Y-53705130D01*
X108032800Y-55732153D01*
X108013893Y-55790344D01*
X107964393Y-55826308D01*
X107903207Y-55826308D01*
X107884305Y-55817892D01*
X107749084Y-55739823D01*
X107596357Y-55698900D01*
X107438243Y-55698900D01*
X107285516Y-55739823D01*
X107198011Y-55790344D01*
X107148581Y-55818882D01*
X107097559Y-55869904D01*
X107043042Y-55897681D01*
X107027556Y-55898900D01*
X88933601Y-55898900D01*
X88875410Y-55879993D01*
X88863597Y-55869904D01*
X87900074Y-54906381D01*
X87872297Y-54851864D01*
X87881868Y-54791432D01*
X87890423Y-54777589D01*
X87922017Y-54734780D01*
X87966593Y-54674382D01*
X88011446Y-54546199D01*
X88014299Y-54515773D01*
X88014300Y-54515773D01*
X88014300Y-54107227D01*
X88014299Y-54107225D01*
X88011446Y-54076805D01*
X88011446Y-54076801D01*
X87966593Y-53948618D01*
X87905168Y-53865390D01*
X87885954Y-53839355D01*
X87885952Y-53839353D01*
X87885950Y-53839350D01*
X87885946Y-53839347D01*
X87885944Y-53839345D01*
X87773225Y-53756155D01*
X87737632Y-53706388D01*
X87738090Y-53645204D01*
X87773225Y-53596845D01*
X87843598Y-53544907D01*
X87885950Y-53513650D01*
X87966593Y-53404382D01*
X88011446Y-53276199D01*
X88014299Y-53245773D01*
X88014300Y-53245773D01*
X88014300Y-52837227D01*
X88014299Y-52837225D01*
X88011446Y-52806805D01*
X88011446Y-52806801D01*
X87966593Y-52678618D01*
X87959126Y-52668501D01*
X87885954Y-52569355D01*
X87885952Y-52569353D01*
X87885950Y-52569350D01*
X87885946Y-52569347D01*
X87885944Y-52569345D01*
X87773225Y-52486155D01*
X87737632Y-52436388D01*
X87738090Y-52375204D01*
X87773225Y-52326845D01*
X87840430Y-52277244D01*
X87885950Y-52243650D01*
X87966593Y-52134382D01*
X88011446Y-52006199D01*
X88014299Y-51975773D01*
X88014300Y-51975773D01*
X88014300Y-51567227D01*
X88014299Y-51567225D01*
X88013214Y-51555657D01*
X88011446Y-51536801D01*
X87966593Y-51408618D01*
X87964884Y-51406303D01*
X87885954Y-51299355D01*
X87885952Y-51299353D01*
X87885950Y-51299350D01*
X87885946Y-51299347D01*
X87885944Y-51299345D01*
X87773225Y-51216155D01*
X87737632Y-51166388D01*
X87738090Y-51105204D01*
X87773225Y-51056845D01*
X87825236Y-51018458D01*
X87885950Y-50973650D01*
X87909152Y-50942211D01*
X87958920Y-50906619D01*
X87988808Y-50902000D01*
X89881556Y-50902000D01*
X89939747Y-50920907D01*
X89951559Y-50930996D01*
X89987868Y-50967304D01*
X90015684Y-50995120D01*
X90152616Y-51074177D01*
X90305343Y-51115100D01*
X90305345Y-51115100D01*
X90463455Y-51115100D01*
X90463457Y-51115100D01*
X90616184Y-51074177D01*
X90753116Y-50995120D01*
X90787029Y-50961207D01*
X90817241Y-50930996D01*
X90871758Y-50903219D01*
X90887244Y-50902000D01*
X91170973Y-50902000D01*
X93389441Y-50902000D01*
X93447632Y-50920907D01*
X93469096Y-50942212D01*
X93510747Y-50998647D01*
X93510749Y-50998649D01*
X93510750Y-50998650D01*
X93542921Y-51022393D01*
X93620016Y-51079292D01*
X93620017Y-51079292D01*
X93620018Y-51079293D01*
X93748201Y-51124146D01*
X93778625Y-51126999D01*
X93778627Y-51127000D01*
X93778634Y-51127000D01*
X95537173Y-51127000D01*
X95537173Y-51126999D01*
X95567599Y-51124146D01*
X95695782Y-51079293D01*
X95805050Y-50998650D01*
X95823501Y-50973650D01*
X95846704Y-50942212D01*
X95896471Y-50906619D01*
X95926359Y-50902000D01*
X97101925Y-50902000D01*
X97101927Y-50902000D01*
X97203788Y-50874707D01*
X97203790Y-50874705D01*
X97203792Y-50874705D01*
X97295108Y-50821983D01*
X97295108Y-50821982D01*
X97295113Y-50821980D01*
X97796097Y-50320996D01*
X97850614Y-50293219D01*
X97866101Y-50292000D01*
X105723800Y-50292000D01*
X105781991Y-50310907D01*
G37*
%TD.AperFunction*%
%TA.AperFunction,Conductor*%
G36*
X93341591Y-46533607D02*
G01*
X93377555Y-46583107D01*
X93382400Y-46613700D01*
X93382400Y-46920774D01*
X93385253Y-46951194D01*
X93385255Y-46951203D01*
X93430107Y-47079383D01*
X93510745Y-47188644D01*
X93510747Y-47188646D01*
X93510750Y-47188650D01*
X93510753Y-47188652D01*
X93510755Y-47188654D01*
X93623474Y-47271845D01*
X93659067Y-47321613D01*
X93658609Y-47382796D01*
X93623474Y-47431155D01*
X93510750Y-47514349D01*
X93487548Y-47545788D01*
X93437780Y-47581381D01*
X93407892Y-47586000D01*
X93365043Y-47586000D01*
X93306852Y-47567093D01*
X93297105Y-47558768D01*
X93295823Y-47557785D01*
X93295818Y-47557782D01*
X93295816Y-47557780D01*
X93158884Y-47478723D01*
X93006157Y-47437800D01*
X92848043Y-47437800D01*
X92695316Y-47478723D01*
X92558384Y-47557780D01*
X92446580Y-47669584D01*
X92367523Y-47806516D01*
X92326600Y-47959243D01*
X92326600Y-48117357D01*
X92367523Y-48270084D01*
X92446580Y-48407016D01*
X92558384Y-48518820D01*
X92695316Y-48597877D01*
X92848043Y-48638800D01*
X92848045Y-48638800D01*
X93006155Y-48638800D01*
X93006157Y-48638800D01*
X93158884Y-48597877D01*
X93295816Y-48518820D01*
X93363686Y-48450949D01*
X93418200Y-48423173D01*
X93478632Y-48432744D01*
X93504357Y-48454544D01*
X93505500Y-48453401D01*
X93510749Y-48458649D01*
X93510750Y-48458650D01*
X93525832Y-48469781D01*
X93620016Y-48539292D01*
X93620017Y-48539292D01*
X93620018Y-48539293D01*
X93748201Y-48584146D01*
X93778625Y-48586999D01*
X93778627Y-48587000D01*
X93778634Y-48587000D01*
X95537173Y-48587000D01*
X95537173Y-48586999D01*
X95567599Y-48584146D01*
X95695782Y-48539293D01*
X95805050Y-48458650D01*
X95885693Y-48349382D01*
X95930546Y-48221199D01*
X95933399Y-48190773D01*
X95933400Y-48190773D01*
X95933400Y-47782227D01*
X95933399Y-47782225D01*
X95932643Y-47774160D01*
X95930546Y-47751801D01*
X95885693Y-47623618D01*
X95874871Y-47608955D01*
X95805054Y-47514355D01*
X95805052Y-47514353D01*
X95805050Y-47514350D01*
X95805046Y-47514347D01*
X95805044Y-47514345D01*
X95692325Y-47431155D01*
X95656732Y-47381388D01*
X95657190Y-47320204D01*
X95692325Y-47271845D01*
X95744336Y-47233458D01*
X95805050Y-47188650D01*
X95828252Y-47157211D01*
X95878020Y-47121619D01*
X95907908Y-47117000D01*
X96487599Y-47117000D01*
X96545790Y-47135907D01*
X96557603Y-47145996D01*
X97417481Y-48005874D01*
X98255904Y-48844296D01*
X98283681Y-48898813D01*
X98274110Y-48959245D01*
X98230845Y-49002510D01*
X98185900Y-49013300D01*
X97207044Y-49013300D01*
X97148853Y-48994393D01*
X97137041Y-48984304D01*
X97086018Y-48933282D01*
X97086016Y-48933280D01*
X96949084Y-48854223D01*
X96796357Y-48813300D01*
X96638243Y-48813300D01*
X96485516Y-48854223D01*
X96348584Y-48933280D01*
X96236780Y-49045084D01*
X96157723Y-49182016D01*
X96116800Y-49334743D01*
X96116800Y-49492857D01*
X96157723Y-49645584D01*
X96236780Y-49782516D01*
X96348584Y-49894320D01*
X96386593Y-49916264D01*
X96427533Y-49961733D01*
X96433929Y-50022583D01*
X96403336Y-50075571D01*
X96347440Y-50100458D01*
X96337092Y-50101000D01*
X95889457Y-50101000D01*
X95831266Y-50082093D01*
X95809802Y-50060789D01*
X95805051Y-50054352D01*
X95805050Y-50054350D01*
X95805046Y-50054347D01*
X95805044Y-50054345D01*
X95695783Y-49973707D01*
X95567603Y-49928855D01*
X95567594Y-49928853D01*
X95537174Y-49926000D01*
X95537166Y-49926000D01*
X93778634Y-49926000D01*
X93778625Y-49926000D01*
X93748205Y-49928853D01*
X93748196Y-49928855D01*
X93620016Y-49973707D01*
X93510755Y-50054345D01*
X93510748Y-50054352D01*
X93505998Y-50060789D01*
X93456229Y-50096381D01*
X93426343Y-50101000D01*
X90861044Y-50101000D01*
X90802853Y-50082093D01*
X90791041Y-50072004D01*
X90753118Y-50034082D01*
X90753116Y-50034080D01*
X90616184Y-49955023D01*
X90463457Y-49914100D01*
X90305343Y-49914100D01*
X90152616Y-49955023D01*
X90022038Y-50030412D01*
X90015681Y-50034082D01*
X89977759Y-50072004D01*
X89923242Y-50099781D01*
X89907756Y-50101000D01*
X88300301Y-50101000D01*
X88242110Y-50082093D01*
X88206146Y-50032593D01*
X88206146Y-49971407D01*
X88230297Y-49931997D01*
X88353001Y-49809292D01*
X88407280Y-49755013D01*
X88440652Y-49697212D01*
X88460005Y-49663692D01*
X88460005Y-49663690D01*
X88460007Y-49663688D01*
X88487300Y-49561827D01*
X88487300Y-49456373D01*
X88487300Y-49120800D01*
X88506207Y-49062609D01*
X88516296Y-49050796D01*
X91023396Y-46543696D01*
X91077913Y-46515919D01*
X91093400Y-46514700D01*
X93283400Y-46514700D01*
X93341591Y-46533607D01*
G37*
%TD.AperFunction*%
%TA.AperFunction,Conductor*%
G36*
X135597090Y-44378307D02*
G01*
X135608903Y-44388396D01*
X138006504Y-46785997D01*
X138034281Y-46840514D01*
X138035500Y-46856001D01*
X138035500Y-46928157D01*
X138055606Y-47003193D01*
X138076424Y-47080889D01*
X138078051Y-47084815D01*
X138082851Y-47145812D01*
X138050882Y-47197981D01*
X137994354Y-47221395D01*
X137986587Y-47221700D01*
X133678875Y-47221700D01*
X133620684Y-47202793D01*
X133584720Y-47153293D01*
X133584720Y-47092107D01*
X133586777Y-47086381D01*
X133589537Y-47079383D01*
X133610159Y-47027090D01*
X133620300Y-46942644D01*
X133620300Y-46360356D01*
X133610159Y-46275910D01*
X133569667Y-46173231D01*
X133557165Y-46141527D01*
X133557164Y-46141526D01*
X133557164Y-46141525D01*
X133469878Y-46026422D01*
X133354775Y-45939136D01*
X133354774Y-45939135D01*
X133354772Y-45939134D01*
X133220391Y-45886141D01*
X133135948Y-45876000D01*
X133135944Y-45876000D01*
X132701701Y-45876000D01*
X132643510Y-45857093D01*
X132631697Y-45847004D01*
X131313097Y-44528404D01*
X131285320Y-44473887D01*
X131294891Y-44413455D01*
X131338156Y-44370190D01*
X131383101Y-44359400D01*
X135538899Y-44359400D01*
X135597090Y-44378307D01*
G37*
%TD.AperFunction*%
%TA.AperFunction,Conductor*%
G36*
X159458691Y-519407D02*
G01*
X159494655Y-568907D01*
X159499500Y-599500D01*
X159499500Y-74400500D01*
X159480593Y-74458691D01*
X159431093Y-74494655D01*
X159400500Y-74499500D01*
X599500Y-74499500D01*
X541309Y-74480593D01*
X505345Y-74431093D01*
X500500Y-74400500D01*
X500500Y-71378710D01*
X1649500Y-71378710D01*
X1649500Y-71621289D01*
X1658017Y-71685980D01*
X1675925Y-71822013D01*
X1681161Y-71861781D01*
X1681161Y-71861786D01*
X1743944Y-72096092D01*
X1743948Y-72096105D01*
X1836772Y-72320204D01*
X1836774Y-72320208D01*
X1836776Y-72320212D01*
X1851434Y-72345600D01*
X1958066Y-72530292D01*
X2105729Y-72722731D01*
X2105731Y-72722733D01*
X2105735Y-72722738D01*
X2277262Y-72894265D01*
X2277266Y-72894268D01*
X2277268Y-72894270D01*
X2404646Y-72992010D01*
X2469711Y-73041936D01*
X2679788Y-73163224D01*
X2903900Y-73256054D01*
X3138211Y-73318838D01*
X3378712Y-73350500D01*
X3378713Y-73350500D01*
X3621287Y-73350500D01*
X3621288Y-73350500D01*
X3861789Y-73318838D01*
X4096100Y-73256054D01*
X4320212Y-73163224D01*
X4530289Y-73041936D01*
X4722738Y-72894265D01*
X4894265Y-72722738D01*
X5041936Y-72530289D01*
X5163224Y-72320212D01*
X5256054Y-72096100D01*
X5318838Y-71861789D01*
X5350500Y-71621288D01*
X5350500Y-71378712D01*
X5318838Y-71138211D01*
X5256054Y-70903900D01*
X5163224Y-70679788D01*
X5041936Y-70469711D01*
X5037208Y-70463549D01*
X4894270Y-70277268D01*
X4894268Y-70277266D01*
X4894265Y-70277262D01*
X4722738Y-70105735D01*
X4722733Y-70105731D01*
X4722731Y-70105729D01*
X4530292Y-69958066D01*
X4530289Y-69958064D01*
X4320212Y-69836776D01*
X4320208Y-69836774D01*
X4320204Y-69836772D01*
X4112932Y-69750918D01*
X4096105Y-69743948D01*
X4096104Y-69743947D01*
X4096100Y-69743946D01*
X3861789Y-69681162D01*
X3861786Y-69681161D01*
X3861784Y-69681161D01*
X3746189Y-69665943D01*
X6206300Y-69665943D01*
X6206300Y-69824057D01*
X6247223Y-69976784D01*
X6326280Y-70113716D01*
X6438084Y-70225520D01*
X6575016Y-70304577D01*
X6727743Y-70345500D01*
X6727745Y-70345500D01*
X6885855Y-70345500D01*
X6885857Y-70345500D01*
X7038584Y-70304577D01*
X7175516Y-70225520D01*
X7207210Y-70193826D01*
X7226541Y-70174496D01*
X7281058Y-70146719D01*
X7296544Y-70145500D01*
X7399053Y-70145500D01*
X7457244Y-70164407D01*
X7491150Y-70208181D01*
X7543634Y-70341272D01*
X7543635Y-70341274D01*
X7543636Y-70341275D01*
X7630922Y-70456378D01*
X7746025Y-70543664D01*
X7746026Y-70543664D01*
X7746027Y-70543665D01*
X7774010Y-70554700D01*
X7880410Y-70596659D01*
X7964856Y-70606800D01*
X7964858Y-70606800D01*
X8497142Y-70606800D01*
X8497144Y-70606800D01*
X8581590Y-70596659D01*
X8715975Y-70543664D01*
X8831078Y-70456378D01*
X8918364Y-70341275D01*
X8971359Y-70206890D01*
X8981500Y-70122444D01*
X8981500Y-69688199D01*
X9000407Y-69630009D01*
X9010496Y-69618196D01*
X9170696Y-69457996D01*
X9225213Y-69430219D01*
X9240700Y-69429000D01*
X14394148Y-69429000D01*
X14452339Y-69447907D01*
X14488303Y-69497407D01*
X14492185Y-69537172D01*
X14492577Y-69537196D01*
X14492429Y-69539669D01*
X14492442Y-69539801D01*
X14492400Y-69540143D01*
X14492400Y-70122448D01*
X14502169Y-70203791D01*
X14502541Y-70206890D01*
X14509912Y-70225581D01*
X14513672Y-70286649D01*
X14480817Y-70338266D01*
X14423898Y-70360713D01*
X14417815Y-70360900D01*
X13739944Y-70360900D01*
X13681753Y-70341993D01*
X13669941Y-70331904D01*
X13618918Y-70280882D01*
X13618916Y-70280880D01*
X13481984Y-70201823D01*
X13329257Y-70160900D01*
X13171143Y-70160900D01*
X13018416Y-70201823D01*
X12881484Y-70280880D01*
X12769680Y-70392684D01*
X12690623Y-70529616D01*
X12649700Y-70682343D01*
X12649700Y-70840457D01*
X12690623Y-70993184D01*
X12769680Y-71130116D01*
X12881484Y-71241920D01*
X13018416Y-71320977D01*
X13171143Y-71361900D01*
X13171145Y-71361900D01*
X13329255Y-71361900D01*
X13329257Y-71361900D01*
X13481984Y-71320977D01*
X13618916Y-71241920D01*
X13644429Y-71216406D01*
X13669941Y-71190896D01*
X13724458Y-71163119D01*
X13739944Y-71161900D01*
X15179325Y-71161900D01*
X15179327Y-71161900D01*
X15281188Y-71134607D01*
X15281190Y-71134605D01*
X15281192Y-71134605D01*
X15372508Y-71081883D01*
X15372508Y-71081882D01*
X15372513Y-71081880D01*
X15379798Y-71074594D01*
X15434313Y-71046819D01*
X15449800Y-71045600D01*
X28505625Y-71045600D01*
X28505627Y-71045600D01*
X28607488Y-71018307D01*
X28607490Y-71018305D01*
X28607492Y-71018305D01*
X28698808Y-70965583D01*
X28698808Y-70965582D01*
X28698813Y-70965580D01*
X28943107Y-70721286D01*
X29028598Y-70635796D01*
X29083114Y-70608019D01*
X29098601Y-70606800D01*
X29434799Y-70606800D01*
X29492990Y-70625707D01*
X29504802Y-70635796D01*
X29814486Y-70945479D01*
X29814491Y-70945483D01*
X29905808Y-70998205D01*
X29905806Y-70998205D01*
X29905810Y-70998206D01*
X29905812Y-70998207D01*
X30007673Y-71025500D01*
X30736725Y-71025500D01*
X30794916Y-71044407D01*
X30830880Y-71093907D01*
X30830880Y-71155093D01*
X30822462Y-71173999D01*
X30787523Y-71234514D01*
X30785539Y-71241919D01*
X30746600Y-71387243D01*
X30746600Y-71545357D01*
X30787523Y-71698084D01*
X30866580Y-71835016D01*
X30978384Y-71946820D01*
X31115316Y-72025877D01*
X31268043Y-72066800D01*
X31340199Y-72066800D01*
X31398390Y-72085707D01*
X31410203Y-72095796D01*
X32037139Y-72722731D01*
X32306418Y-72992010D01*
X32306420Y-72992013D01*
X32380987Y-73066580D01*
X32380992Y-73066583D01*
X32472307Y-73119304D01*
X32472308Y-73119304D01*
X32472313Y-73119307D01*
X32574174Y-73146601D01*
X32574176Y-73146601D01*
X32685690Y-73146601D01*
X32685706Y-73146600D01*
X144462625Y-73146600D01*
X144462627Y-73146600D01*
X144564488Y-73119307D01*
X144564490Y-73119305D01*
X144564492Y-73119305D01*
X144655808Y-73066583D01*
X144655808Y-73066582D01*
X144655813Y-73066580D01*
X146343682Y-71378710D01*
X154649500Y-71378710D01*
X154649500Y-71621289D01*
X154658017Y-71685980D01*
X154675925Y-71822013D01*
X154681161Y-71861781D01*
X154681161Y-71861786D01*
X154743944Y-72096092D01*
X154743948Y-72096105D01*
X154836772Y-72320204D01*
X154836774Y-72320208D01*
X154836776Y-72320212D01*
X154851434Y-72345600D01*
X154958066Y-72530292D01*
X155105729Y-72722731D01*
X155105731Y-72722733D01*
X155105735Y-72722738D01*
X155277262Y-72894265D01*
X155277266Y-72894268D01*
X155277268Y-72894270D01*
X155404646Y-72992010D01*
X155469711Y-73041936D01*
X155679788Y-73163224D01*
X155903900Y-73256054D01*
X156138211Y-73318838D01*
X156378712Y-73350500D01*
X156378713Y-73350500D01*
X156621287Y-73350500D01*
X156621288Y-73350500D01*
X156861789Y-73318838D01*
X157096100Y-73256054D01*
X157320212Y-73163224D01*
X157530289Y-73041936D01*
X157722738Y-72894265D01*
X157894265Y-72722738D01*
X158041936Y-72530289D01*
X158163224Y-72320212D01*
X158256054Y-72096100D01*
X158318838Y-71861789D01*
X158350500Y-71621288D01*
X158350500Y-71378712D01*
X158318838Y-71138211D01*
X158256054Y-70903900D01*
X158163224Y-70679788D01*
X158041936Y-70469711D01*
X158037208Y-70463549D01*
X157894270Y-70277268D01*
X157894268Y-70277266D01*
X157894265Y-70277262D01*
X157722738Y-70105735D01*
X157722733Y-70105731D01*
X157722731Y-70105729D01*
X157530292Y-69958066D01*
X157530289Y-69958064D01*
X157320212Y-69836776D01*
X157320208Y-69836774D01*
X157320204Y-69836772D01*
X157096105Y-69743948D01*
X157096104Y-69743947D01*
X157096100Y-69743946D01*
X156861789Y-69681162D01*
X156861786Y-69681161D01*
X156861784Y-69681161D01*
X156621289Y-69649500D01*
X156621288Y-69649500D01*
X156378712Y-69649500D01*
X156378710Y-69649500D01*
X156138218Y-69681161D01*
X156138213Y-69681161D01*
X155903907Y-69743944D01*
X155903894Y-69743948D01*
X155679795Y-69836772D01*
X155469707Y-69958066D01*
X155277268Y-70105729D01*
X155105729Y-70277268D01*
X154958066Y-70469707D01*
X154836772Y-70679795D01*
X154743948Y-70903894D01*
X154743944Y-70903907D01*
X154681161Y-71138213D01*
X154681161Y-71138218D01*
X154649500Y-71378710D01*
X146343682Y-71378710D01*
X147086897Y-70635494D01*
X147141414Y-70607718D01*
X147156901Y-70606499D01*
X147572867Y-70606499D01*
X147572872Y-70606499D01*
X147632483Y-70600091D01*
X147708807Y-70571624D01*
X147767329Y-70549797D01*
X147767329Y-70549796D01*
X147767331Y-70549796D01*
X147882546Y-70463546D01*
X147968796Y-70348331D01*
X147971346Y-70341496D01*
X148014982Y-70224500D01*
X148019091Y-70213483D01*
X148025500Y-70153873D01*
X148025499Y-69508128D01*
X148019091Y-69448517D01*
X148019089Y-69448511D01*
X147968797Y-69313670D01*
X147882549Y-69198458D01*
X147882548Y-69198457D01*
X147882546Y-69198454D01*
X147882541Y-69198450D01*
X147767329Y-69112202D01*
X147632488Y-69061910D01*
X147632483Y-69061909D01*
X147632481Y-69061908D01*
X147632477Y-69061908D01*
X147601249Y-69058550D01*
X147572873Y-69055500D01*
X147572870Y-69055500D01*
X147077133Y-69055500D01*
X147077129Y-69055500D01*
X147077128Y-69055501D01*
X147069949Y-69056272D01*
X147017519Y-69061908D01*
X147017514Y-69061909D01*
X146882670Y-69112202D01*
X146767458Y-69198450D01*
X146767450Y-69198458D01*
X146681202Y-69313670D01*
X146630910Y-69448511D01*
X146630908Y-69448522D01*
X146624500Y-69508129D01*
X146624500Y-69924098D01*
X146605593Y-69982289D01*
X146595503Y-69994102D01*
X146544502Y-70045102D01*
X146489985Y-70072879D01*
X146429553Y-70063307D01*
X146386289Y-70020042D01*
X146375499Y-69975101D01*
X146375499Y-69508128D01*
X146369091Y-69448517D01*
X146369089Y-69448511D01*
X146318797Y-69313670D01*
X146232549Y-69198458D01*
X146232548Y-69198457D01*
X146232546Y-69198454D01*
X146232541Y-69198450D01*
X146117329Y-69112202D01*
X145982488Y-69061910D01*
X145982483Y-69061909D01*
X145982481Y-69061908D01*
X145982477Y-69061908D01*
X145951249Y-69058550D01*
X145922873Y-69055500D01*
X145922870Y-69055500D01*
X145427133Y-69055500D01*
X145427129Y-69055500D01*
X145427128Y-69055501D01*
X145419949Y-69056272D01*
X145367519Y-69061908D01*
X145367514Y-69061909D01*
X145232670Y-69112202D01*
X145117458Y-69198450D01*
X145117450Y-69198458D01*
X145031202Y-69313670D01*
X144980910Y-69448511D01*
X144980908Y-69448522D01*
X144974500Y-69508129D01*
X144974500Y-69924099D01*
X144955593Y-69982290D01*
X144945504Y-69994102D01*
X144724004Y-70215603D01*
X144669487Y-70243381D01*
X144654000Y-70244600D01*
X142124500Y-70244600D01*
X142066309Y-70225693D01*
X142030345Y-70176193D01*
X142025500Y-70145600D01*
X142025499Y-69508133D01*
X142025499Y-69508128D01*
X142019091Y-69448517D01*
X142019089Y-69448511D01*
X141968797Y-69313670D01*
X141882549Y-69198458D01*
X141882548Y-69198457D01*
X141882546Y-69198454D01*
X141882541Y-69198450D01*
X141767329Y-69112202D01*
X141632488Y-69061910D01*
X141632483Y-69061909D01*
X141632481Y-69061908D01*
X141632477Y-69061908D01*
X141601249Y-69058550D01*
X141572873Y-69055500D01*
X141572870Y-69055500D01*
X141156901Y-69055500D01*
X141098710Y-69036593D01*
X141086898Y-69026504D01*
X140785513Y-68725120D01*
X140785508Y-68725116D01*
X140694191Y-68672394D01*
X140694193Y-68672394D01*
X140654670Y-68661804D01*
X140592327Y-68645100D01*
X134920627Y-68645100D01*
X134815173Y-68645100D01*
X134752829Y-68661804D01*
X134713307Y-68672394D01*
X134621991Y-68725116D01*
X134621986Y-68725120D01*
X134245226Y-69101879D01*
X134190710Y-69129656D01*
X134130278Y-69120085D01*
X134119695Y-69113494D01*
X134117330Y-69112203D01*
X133982488Y-69061910D01*
X133982483Y-69061909D01*
X133982481Y-69061908D01*
X133982477Y-69061908D01*
X133951249Y-69058550D01*
X133922873Y-69055500D01*
X133922870Y-69055500D01*
X133427133Y-69055500D01*
X133427129Y-69055500D01*
X133427128Y-69055501D01*
X133419949Y-69056272D01*
X133367519Y-69061908D01*
X133367514Y-69061909D01*
X133232670Y-69112202D01*
X133117458Y-69198450D01*
X133117450Y-69198458D01*
X133031202Y-69313670D01*
X132980910Y-69448511D01*
X132980908Y-69448522D01*
X132974500Y-69508129D01*
X132974500Y-69924099D01*
X132955593Y-69982290D01*
X132945504Y-69994102D01*
X132609304Y-70330303D01*
X132554787Y-70358081D01*
X132539300Y-70359300D01*
X132344244Y-70359300D01*
X132286053Y-70340393D01*
X132274241Y-70330304D01*
X132223218Y-70279282D01*
X132223216Y-70279280D01*
X132086284Y-70200223D01*
X131933557Y-70159300D01*
X131775443Y-70159300D01*
X131622716Y-70200223D01*
X131489280Y-70277262D01*
X131485781Y-70279282D01*
X131434759Y-70330304D01*
X131380242Y-70358081D01*
X131364756Y-70359300D01*
X130107291Y-70359300D01*
X130049100Y-70340393D01*
X130013136Y-70290893D01*
X130013136Y-70229707D01*
X130014533Y-70225704D01*
X130019089Y-70213488D01*
X130019090Y-70213485D01*
X130019091Y-70213483D01*
X130025500Y-70153873D01*
X130025499Y-69508128D01*
X130019091Y-69448517D01*
X130019089Y-69448511D01*
X129968797Y-69313670D01*
X129882549Y-69198458D01*
X129882548Y-69198457D01*
X129882546Y-69198454D01*
X129882541Y-69198450D01*
X129767329Y-69112202D01*
X129632488Y-69061910D01*
X129632483Y-69061909D01*
X129632481Y-69061908D01*
X129632477Y-69061908D01*
X129601249Y-69058550D01*
X129572873Y-69055500D01*
X129572870Y-69055500D01*
X129156901Y-69055500D01*
X129098710Y-69036593D01*
X129086898Y-69026504D01*
X128754113Y-68693720D01*
X128754108Y-68693716D01*
X128662791Y-68640994D01*
X128662788Y-68640993D01*
X128588270Y-68621026D01*
X128536956Y-68587703D01*
X128515029Y-68530582D01*
X128530864Y-68471481D01*
X128578414Y-68432976D01*
X128613893Y-68426400D01*
X130703825Y-68426400D01*
X130703827Y-68426400D01*
X130805688Y-68399107D01*
X130805690Y-68399105D01*
X130805692Y-68399105D01*
X130897008Y-68346383D01*
X130897008Y-68346382D01*
X130897013Y-68346380D01*
X135427497Y-63815894D01*
X135482014Y-63788118D01*
X135497501Y-63786899D01*
X135913467Y-63786899D01*
X135913472Y-63786899D01*
X135973083Y-63780491D01*
X136040507Y-63755343D01*
X136107929Y-63730197D01*
X136107929Y-63730196D01*
X136107931Y-63730196D01*
X136223146Y-63643946D01*
X136309396Y-63528731D01*
X136359691Y-63393883D01*
X136366100Y-63334273D01*
X136366099Y-62838528D01*
X136359691Y-62778917D01*
X136320224Y-62673100D01*
X136309397Y-62644070D01*
X136223149Y-62528858D01*
X136223148Y-62528857D01*
X136223146Y-62528854D01*
X136182191Y-62498195D01*
X136107929Y-62442602D01*
X135973088Y-62392310D01*
X135973083Y-62392309D01*
X135973081Y-62392308D01*
X135973077Y-62392308D01*
X135941849Y-62388950D01*
X135913473Y-62385900D01*
X135913470Y-62385900D01*
X135267733Y-62385900D01*
X135267729Y-62385900D01*
X135267728Y-62385901D01*
X135260549Y-62386672D01*
X135208119Y-62392308D01*
X135208114Y-62392309D01*
X135073270Y-62442602D01*
X134958058Y-62528850D01*
X134958050Y-62528858D01*
X134871802Y-62644070D01*
X134821510Y-62778911D01*
X134821508Y-62778922D01*
X134815100Y-62838529D01*
X134815100Y-63254498D01*
X134796193Y-63312689D01*
X134786104Y-63324502D01*
X130514203Y-67596404D01*
X130459686Y-67624181D01*
X130444199Y-67625400D01*
X122935827Y-67625400D01*
X122830373Y-67625400D01*
X122768029Y-67642104D01*
X122728507Y-67652694D01*
X122637191Y-67705416D01*
X122637186Y-67705420D01*
X121315800Y-69026804D01*
X121261284Y-69054581D01*
X121245798Y-69055800D01*
X121087831Y-69055800D01*
X121087829Y-69055800D01*
X121087828Y-69055801D01*
X121080649Y-69056572D01*
X121028219Y-69062208D01*
X121028214Y-69062209D01*
X120893370Y-69112502D01*
X120778158Y-69198750D01*
X120778150Y-69198758D01*
X120691902Y-69313970D01*
X120641610Y-69448811D01*
X120641609Y-69448817D01*
X120635200Y-69508427D01*
X120635200Y-69825684D01*
X120635201Y-70137300D01*
X120616294Y-70195491D01*
X120566794Y-70231455D01*
X120536201Y-70236300D01*
X117843401Y-70236300D01*
X117785210Y-70217393D01*
X117773397Y-70207304D01*
X117560495Y-69994402D01*
X117532718Y-69939885D01*
X117531499Y-69924398D01*
X117531499Y-69508433D01*
X117531499Y-69508428D01*
X117525091Y-69448817D01*
X117524449Y-69447096D01*
X117474797Y-69313970D01*
X117388549Y-69198758D01*
X117388548Y-69198757D01*
X117388546Y-69198754D01*
X117388151Y-69198458D01*
X117273329Y-69112502D01*
X117138488Y-69062210D01*
X117138483Y-69062209D01*
X117138481Y-69062208D01*
X117138477Y-69062208D01*
X117107249Y-69058850D01*
X117078873Y-69055800D01*
X117078870Y-69055800D01*
X116761899Y-69055800D01*
X116703708Y-69036893D01*
X116667744Y-68987393D01*
X116667744Y-68926207D01*
X116691893Y-68886798D01*
X117685497Y-67893196D01*
X117740014Y-67865419D01*
X117755501Y-67864200D01*
X119612056Y-67864200D01*
X119670247Y-67883107D01*
X119682059Y-67893196D01*
X119733081Y-67944217D01*
X119733084Y-67944220D01*
X119870016Y-68023277D01*
X120022743Y-68064200D01*
X120022745Y-68064200D01*
X120180855Y-68064200D01*
X120180857Y-68064200D01*
X120333584Y-68023277D01*
X120470516Y-67944220D01*
X120582320Y-67832416D01*
X120661377Y-67695484D01*
X120702300Y-67542757D01*
X120702300Y-67384643D01*
X120661377Y-67231916D01*
X120582320Y-67094984D01*
X120470516Y-66983180D01*
X120333584Y-66904123D01*
X120180857Y-66863200D01*
X120022743Y-66863200D01*
X119870016Y-66904123D01*
X119788573Y-66951144D01*
X119733081Y-66983182D01*
X119682059Y-67034204D01*
X119627542Y-67061981D01*
X119612056Y-67063200D01*
X117601327Y-67063200D01*
X117495873Y-67063200D01*
X117433529Y-67079904D01*
X117394007Y-67090494D01*
X117302691Y-67143216D01*
X117302690Y-67143217D01*
X115419102Y-69026804D01*
X115364585Y-69054581D01*
X115349098Y-69055800D01*
X115313600Y-69055800D01*
X115255409Y-69036893D01*
X115219445Y-68987393D01*
X115219445Y-68926207D01*
X115243596Y-68886796D01*
X120314497Y-63815895D01*
X120369014Y-63788118D01*
X120384501Y-63786899D01*
X120800467Y-63786899D01*
X120800472Y-63786899D01*
X120860083Y-63780491D01*
X120927507Y-63755343D01*
X120994929Y-63730197D01*
X120994929Y-63730196D01*
X120994931Y-63730196D01*
X121110146Y-63643946D01*
X121196396Y-63528731D01*
X121246691Y-63393883D01*
X121253100Y-63334273D01*
X121253099Y-62838528D01*
X121246691Y-62778917D01*
X121207224Y-62673100D01*
X121196397Y-62644070D01*
X121110149Y-62528858D01*
X121110148Y-62528857D01*
X121110146Y-62528854D01*
X121069191Y-62498195D01*
X120994929Y-62442602D01*
X120860088Y-62392310D01*
X120860083Y-62392309D01*
X120860081Y-62392308D01*
X120860077Y-62392308D01*
X120828849Y-62388950D01*
X120800473Y-62385900D01*
X120800470Y-62385900D01*
X120154733Y-62385900D01*
X120154729Y-62385900D01*
X120154728Y-62385901D01*
X120147549Y-62386672D01*
X120095119Y-62392308D01*
X120095114Y-62392309D01*
X119960270Y-62442602D01*
X119845058Y-62528850D01*
X119845050Y-62528858D01*
X119758802Y-62644070D01*
X119708510Y-62778911D01*
X119708508Y-62778922D01*
X119702100Y-62838529D01*
X119702100Y-63254498D01*
X119683193Y-63312689D01*
X119673104Y-63324502D01*
X112793603Y-70204004D01*
X112739086Y-70231781D01*
X112723599Y-70233000D01*
X111475700Y-70233000D01*
X111417509Y-70214093D01*
X111381545Y-70164593D01*
X111376700Y-70134000D01*
X111376700Y-69936804D01*
X111376699Y-69738199D01*
X111395606Y-69680009D01*
X111405689Y-69668202D01*
X114036380Y-67037513D01*
X114036383Y-67037508D01*
X114089105Y-66946192D01*
X114089105Y-66946190D01*
X114089107Y-66946188D01*
X114116400Y-66844327D01*
X114116400Y-66738873D01*
X114116400Y-59685443D01*
X114135307Y-59627252D01*
X114184807Y-59591288D01*
X114245993Y-59591288D01*
X114285401Y-59615437D01*
X114341084Y-59671120D01*
X114478016Y-59750177D01*
X114630743Y-59791100D01*
X114630745Y-59791100D01*
X114788855Y-59791100D01*
X114788857Y-59791100D01*
X114941584Y-59750177D01*
X115078516Y-59671120D01*
X115103979Y-59645656D01*
X115129441Y-59620196D01*
X115183958Y-59592419D01*
X115199444Y-59591200D01*
X118024999Y-59591200D01*
X118083190Y-59610107D01*
X118095003Y-59620196D01*
X119673104Y-61198297D01*
X119700881Y-61252814D01*
X119702100Y-61268301D01*
X119702100Y-61684266D01*
X119702101Y-61684270D01*
X119708508Y-61743880D01*
X119708509Y-61743885D01*
X119758802Y-61878729D01*
X119845050Y-61993941D01*
X119845054Y-61993946D01*
X119845057Y-61993948D01*
X119845058Y-61993949D01*
X119960270Y-62080197D01*
X120095111Y-62130489D01*
X120095112Y-62130489D01*
X120095117Y-62130491D01*
X120154727Y-62136900D01*
X120800472Y-62136899D01*
X120860083Y-62130491D01*
X120932257Y-62103572D01*
X120994929Y-62080197D01*
X120994929Y-62080196D01*
X120994931Y-62080196D01*
X121110146Y-61993946D01*
X121196396Y-61878731D01*
X121198755Y-61872408D01*
X121246689Y-61743888D01*
X121246690Y-61743885D01*
X121246691Y-61743883D01*
X121253100Y-61684273D01*
X121253099Y-61188528D01*
X121246691Y-61128917D01*
X121242454Y-61117556D01*
X121196397Y-60994070D01*
X121110149Y-60878858D01*
X121110148Y-60878857D01*
X121110146Y-60878854D01*
X121026100Y-60815937D01*
X120994929Y-60792602D01*
X120860088Y-60742310D01*
X120860083Y-60742309D01*
X120860081Y-60742308D01*
X120860077Y-60742308D01*
X120828849Y-60738950D01*
X120800473Y-60735900D01*
X120800470Y-60735900D01*
X120384501Y-60735900D01*
X120326310Y-60716993D01*
X120314497Y-60706904D01*
X119398693Y-59791100D01*
X118477813Y-58870220D01*
X118477810Y-58870218D01*
X118477809Y-58870217D01*
X118477808Y-58870216D01*
X118386491Y-58817494D01*
X118386493Y-58817494D01*
X118346970Y-58806904D01*
X118284627Y-58790200D01*
X118284625Y-58790200D01*
X115199644Y-58790200D01*
X115141453Y-58771293D01*
X115129641Y-58761204D01*
X115078518Y-58710082D01*
X115078516Y-58710080D01*
X114941584Y-58631023D01*
X114788857Y-58590100D01*
X114630743Y-58590100D01*
X114478016Y-58631023D01*
X114341084Y-58710080D01*
X114285401Y-58765762D01*
X114230887Y-58793538D01*
X114170455Y-58783967D01*
X114127190Y-58740702D01*
X114116400Y-58695757D01*
X114116400Y-50462774D01*
X114116400Y-50462773D01*
X114100679Y-50404101D01*
X114089107Y-50360912D01*
X114089104Y-50360906D01*
X114036383Y-50269591D01*
X114036382Y-50269590D01*
X114036381Y-50269589D01*
X114036380Y-50269587D01*
X113347923Y-49581130D01*
X113320146Y-49526613D01*
X113320998Y-49497253D01*
X113320384Y-49497196D01*
X113323799Y-49460774D01*
X113323800Y-49460773D01*
X113323800Y-49052227D01*
X113323799Y-49052225D01*
X113322408Y-49037393D01*
X113320946Y-49021801D01*
X113276093Y-48893618D01*
X113257642Y-48868618D01*
X113195454Y-48784355D01*
X113195452Y-48784353D01*
X113195450Y-48784350D01*
X113195446Y-48784347D01*
X113195444Y-48784345D01*
X113082725Y-48701155D01*
X113047132Y-48651388D01*
X113047590Y-48590204D01*
X113082725Y-48541845D01*
X113180368Y-48469781D01*
X113195450Y-48458650D01*
X113276093Y-48349382D01*
X113320946Y-48221199D01*
X113323799Y-48190773D01*
X113323800Y-48190773D01*
X113323800Y-47875900D01*
X113342707Y-47817709D01*
X113392207Y-47781745D01*
X113422800Y-47776900D01*
X115732399Y-47776900D01*
X115790590Y-47795807D01*
X115802403Y-47805896D01*
X117389904Y-49393397D01*
X117417681Y-49447914D01*
X117418900Y-49463401D01*
X117418900Y-52722473D01*
X117418900Y-52827927D01*
X117442970Y-52917759D01*
X117446194Y-52929792D01*
X117498916Y-53021108D01*
X117498918Y-53021110D01*
X117498920Y-53021113D01*
X118585033Y-54107225D01*
X119630004Y-55152196D01*
X119657781Y-55206713D01*
X119659000Y-55222200D01*
X119659000Y-55294357D01*
X119699923Y-55447084D01*
X119778980Y-55584016D01*
X119890784Y-55695820D01*
X120027716Y-55774877D01*
X120180443Y-55815800D01*
X120180445Y-55815800D01*
X120338555Y-55815800D01*
X120338557Y-55815800D01*
X120491284Y-55774877D01*
X120628216Y-55695820D01*
X120740020Y-55584016D01*
X120819077Y-55447084D01*
X120860000Y-55294357D01*
X120860000Y-55136243D01*
X120819077Y-54983516D01*
X120740020Y-54846584D01*
X120628216Y-54734780D01*
X120491284Y-54655723D01*
X120338557Y-54614800D01*
X120338555Y-54614800D01*
X120266400Y-54614800D01*
X120208209Y-54595893D01*
X120196396Y-54585804D01*
X118248896Y-52638303D01*
X118221119Y-52583786D01*
X118219900Y-52568299D01*
X118219900Y-52137400D01*
X118238807Y-52079209D01*
X118288307Y-52043245D01*
X118349493Y-52043245D01*
X118388904Y-52067396D01*
X126655604Y-60334096D01*
X126683381Y-60388613D01*
X126684600Y-60404100D01*
X126684600Y-62084673D01*
X126684600Y-62190127D01*
X126701014Y-62251386D01*
X126711894Y-62291992D01*
X126764616Y-62383308D01*
X126764618Y-62383310D01*
X126764620Y-62383313D01*
X127011785Y-62630477D01*
X127229604Y-62848296D01*
X127257381Y-62902813D01*
X127258600Y-62918300D01*
X127258600Y-63334266D01*
X127258601Y-63334270D01*
X127265008Y-63393880D01*
X127265009Y-63393885D01*
X127315302Y-63528729D01*
X127401550Y-63643941D01*
X127401554Y-63643946D01*
X127401557Y-63643948D01*
X127401558Y-63643949D01*
X127516770Y-63730197D01*
X127651611Y-63780489D01*
X127651612Y-63780489D01*
X127651617Y-63780491D01*
X127711227Y-63786900D01*
X128356972Y-63786899D01*
X128416583Y-63780491D01*
X128484007Y-63755343D01*
X128551429Y-63730197D01*
X128551429Y-63730196D01*
X128551431Y-63730196D01*
X128666646Y-63643946D01*
X128752896Y-63528731D01*
X128803191Y-63393883D01*
X128809600Y-63334273D01*
X128809599Y-62838528D01*
X128803191Y-62778917D01*
X128763724Y-62673100D01*
X128752897Y-62644070D01*
X128666649Y-62528858D01*
X128666648Y-62528857D01*
X128666646Y-62528854D01*
X128625691Y-62498195D01*
X128551429Y-62442602D01*
X128416588Y-62392310D01*
X128416583Y-62392309D01*
X128416581Y-62392308D01*
X128416577Y-62392308D01*
X128385349Y-62388950D01*
X128356973Y-62385900D01*
X128356970Y-62385900D01*
X127941001Y-62385900D01*
X127882810Y-62366993D01*
X127870997Y-62356904D01*
X127819996Y-62305903D01*
X127792219Y-62251386D01*
X127801790Y-62190954D01*
X127845055Y-62147689D01*
X127889996Y-62136899D01*
X128356972Y-62136899D01*
X128416583Y-62130491D01*
X128488757Y-62103572D01*
X128551429Y-62080197D01*
X128551429Y-62080196D01*
X128551431Y-62080196D01*
X128666646Y-61993946D01*
X128752896Y-61878731D01*
X128755255Y-61872408D01*
X128803189Y-61743888D01*
X128803190Y-61743885D01*
X128803191Y-61743883D01*
X128809600Y-61684273D01*
X128809599Y-61188528D01*
X128803191Y-61128917D01*
X128798954Y-61117556D01*
X128752897Y-60994070D01*
X128666649Y-60878858D01*
X128666648Y-60878857D01*
X128666646Y-60878854D01*
X128666641Y-60878850D01*
X128551436Y-60792607D01*
X128551435Y-60792606D01*
X128551432Y-60792605D01*
X128551431Y-60792604D01*
X128499001Y-60773048D01*
X128451088Y-60734997D01*
X128434600Y-60680291D01*
X128434600Y-60571212D01*
X128453507Y-60513021D01*
X128484102Y-60485474D01*
X128494416Y-60479520D01*
X128606220Y-60367716D01*
X128685277Y-60230784D01*
X128726200Y-60078057D01*
X128726200Y-59919943D01*
X128722545Y-59906302D01*
X128725746Y-59845200D01*
X128764251Y-59797650D01*
X128823352Y-59781814D01*
X128843788Y-59785050D01*
X128870843Y-59792300D01*
X128870844Y-59792300D01*
X129028955Y-59792300D01*
X129028957Y-59792300D01*
X129181684Y-59751377D01*
X129318616Y-59672320D01*
X129344129Y-59646806D01*
X129369641Y-59621296D01*
X129424158Y-59593519D01*
X129439644Y-59592300D01*
X133139099Y-59592300D01*
X133197290Y-59611207D01*
X133209103Y-59621296D01*
X134786104Y-61198296D01*
X134813881Y-61252813D01*
X134815100Y-61268300D01*
X134815100Y-61684266D01*
X134815101Y-61684270D01*
X134821508Y-61743880D01*
X134821509Y-61743885D01*
X134871802Y-61878729D01*
X134958050Y-61993941D01*
X134958054Y-61993946D01*
X134958057Y-61993948D01*
X134958058Y-61993949D01*
X135073270Y-62080197D01*
X135208111Y-62130489D01*
X135208112Y-62130489D01*
X135208117Y-62130491D01*
X135267727Y-62136900D01*
X135913472Y-62136899D01*
X135973083Y-62130491D01*
X136045257Y-62103572D01*
X136107929Y-62080197D01*
X136107929Y-62080196D01*
X136107931Y-62080196D01*
X136223146Y-61993946D01*
X136309396Y-61878731D01*
X136311755Y-61872408D01*
X136359689Y-61743888D01*
X136359690Y-61743885D01*
X136359691Y-61743883D01*
X136366100Y-61684273D01*
X136366099Y-61188528D01*
X136359691Y-61128917D01*
X136355454Y-61117556D01*
X136309397Y-60994070D01*
X136223149Y-60878858D01*
X136223148Y-60878857D01*
X136223146Y-60878854D01*
X136139100Y-60815937D01*
X136107929Y-60792602D01*
X135973088Y-60742310D01*
X135973083Y-60742309D01*
X135973081Y-60742308D01*
X135973077Y-60742308D01*
X135941849Y-60738950D01*
X135913473Y-60735900D01*
X135913470Y-60735900D01*
X135497500Y-60735900D01*
X135439309Y-60716993D01*
X135427496Y-60706904D01*
X134565792Y-59845200D01*
X133591913Y-58871320D01*
X133591910Y-58871318D01*
X133591908Y-58871316D01*
X133500591Y-58818594D01*
X133500593Y-58818594D01*
X133461070Y-58808004D01*
X133398727Y-58791300D01*
X133398725Y-58791300D01*
X129439644Y-58791300D01*
X129381453Y-58772393D01*
X129369641Y-58762304D01*
X129318618Y-58711282D01*
X129318616Y-58711280D01*
X129181684Y-58632223D01*
X129028957Y-58591300D01*
X128870843Y-58591300D01*
X128718116Y-58632223D01*
X128581184Y-58711280D01*
X128469380Y-58823084D01*
X128390323Y-58960016D01*
X128373416Y-59023116D01*
X128349400Y-59112744D01*
X128349400Y-59270861D01*
X128353055Y-59284501D01*
X128349851Y-59345602D01*
X128311345Y-59393151D01*
X128252244Y-59408985D01*
X128231809Y-59405748D01*
X128204757Y-59398500D01*
X128046643Y-59398500D01*
X127893916Y-59439423D01*
X127756984Y-59518480D01*
X127645180Y-59630284D01*
X127566123Y-59767215D01*
X127537678Y-59873375D01*
X127504353Y-59924689D01*
X127447232Y-59946615D01*
X127388131Y-59930779D01*
X127372052Y-59917759D01*
X127331013Y-59876720D01*
X127331010Y-59876718D01*
X123463185Y-56008893D01*
X119565930Y-52111637D01*
X119538153Y-52057120D01*
X119547724Y-51996688D01*
X119580222Y-51962451D01*
X119579165Y-51961073D01*
X119584310Y-51957124D01*
X119584311Y-51957122D01*
X119584316Y-51957120D01*
X119696120Y-51845316D01*
X119775177Y-51708384D01*
X119810928Y-51574958D01*
X119844250Y-51523647D01*
X119901371Y-51501720D01*
X119960472Y-51517555D01*
X119976559Y-51530583D01*
X120051377Y-51605407D01*
X120823155Y-52377245D01*
X120823182Y-52377275D01*
X120875337Y-52429431D01*
X120875340Y-52429433D01*
X120901283Y-52455379D01*
X120901533Y-52455564D01*
X120903675Y-52456716D01*
X120959084Y-52488707D01*
X120991860Y-52507632D01*
X120992691Y-52508120D01*
X120992872Y-52508193D01*
X120995511Y-52508810D01*
X121027560Y-52517397D01*
X121050135Y-52523447D01*
X121050137Y-52523447D01*
X121094357Y-52535298D01*
X121094358Y-52535298D01*
X121094365Y-52535300D01*
X121094373Y-52535300D01*
X121147083Y-52535300D01*
X121147084Y-52535300D01*
X121199811Y-52535302D01*
X121199814Y-52535300D01*
X121206692Y-52535301D01*
X121206721Y-52535300D01*
X128666399Y-52535300D01*
X128724590Y-52554207D01*
X128736403Y-52564296D01*
X139491620Y-63319513D01*
X139491619Y-63319513D01*
X139535086Y-63362979D01*
X139566187Y-63394080D01*
X139657513Y-63446807D01*
X139759373Y-63474100D01*
X139759375Y-63474100D01*
X148338825Y-63474100D01*
X148338827Y-63474100D01*
X148440688Y-63446807D01*
X148440690Y-63446805D01*
X148440692Y-63446805D01*
X148532008Y-63394083D01*
X148532008Y-63394082D01*
X148532013Y-63394080D01*
X148788107Y-63137986D01*
X148873598Y-63052496D01*
X148928114Y-63024719D01*
X148943601Y-63023500D01*
X149377842Y-63023500D01*
X149377844Y-63023500D01*
X149462290Y-63013359D01*
X149596675Y-62960364D01*
X149711778Y-62873078D01*
X149799064Y-62757975D01*
X149852059Y-62623590D01*
X149862200Y-62539144D01*
X149862200Y-61956856D01*
X149852059Y-61872410D01*
X149799064Y-61738025D01*
X149711778Y-61622922D01*
X149596675Y-61535636D01*
X149596674Y-61535635D01*
X149596672Y-61535634D01*
X149462291Y-61482641D01*
X149377848Y-61472500D01*
X149377844Y-61472500D01*
X148845556Y-61472500D01*
X148845551Y-61472500D01*
X148761108Y-61482641D01*
X148626727Y-61535634D01*
X148511622Y-61622922D01*
X148424334Y-61738027D01*
X148371341Y-61872408D01*
X148361200Y-61956851D01*
X148361200Y-62391099D01*
X148342293Y-62449290D01*
X148332204Y-62461103D01*
X148149203Y-62644104D01*
X148094686Y-62671881D01*
X148079199Y-62673100D01*
X142945814Y-62673100D01*
X142887623Y-62654193D01*
X142851659Y-62604693D01*
X142847520Y-62562296D01*
X142850299Y-62539149D01*
X142850300Y-62539148D01*
X142850300Y-62539144D01*
X142850300Y-61956856D01*
X142840159Y-61872410D01*
X142787164Y-61738025D01*
X142699878Y-61622922D01*
X142584775Y-61535636D01*
X142584774Y-61535635D01*
X142584772Y-61535634D01*
X142450391Y-61482641D01*
X142365948Y-61472500D01*
X142365944Y-61472500D01*
X141931701Y-61472500D01*
X141873510Y-61453593D01*
X141861697Y-61443504D01*
X134366809Y-53948616D01*
X126814213Y-46396020D01*
X126814210Y-46396018D01*
X126814209Y-46396017D01*
X126814208Y-46396016D01*
X126722891Y-46343294D01*
X126722893Y-46343294D01*
X126668119Y-46328618D01*
X126621027Y-46316000D01*
X126621025Y-46316000D01*
X125738808Y-46316000D01*
X125680617Y-46297093D01*
X125659152Y-46275788D01*
X125635950Y-46244350D01*
X125635949Y-46244349D01*
X125543007Y-46175755D01*
X125507414Y-46125988D01*
X125507872Y-46064804D01*
X125544205Y-46015574D01*
X125601795Y-45997100D01*
X127724899Y-45997100D01*
X127783090Y-46016007D01*
X127794902Y-46026095D01*
X129711487Y-47942680D01*
X129711489Y-47942681D01*
X129711490Y-47942682D01*
X129711491Y-47942683D01*
X129802808Y-47995405D01*
X129802806Y-47995405D01*
X129802810Y-47995406D01*
X129802812Y-47995407D01*
X129904673Y-48022700D01*
X130010127Y-48022700D01*
X140328556Y-48022700D01*
X140386747Y-48041607D01*
X140398559Y-48051696D01*
X140430563Y-48083699D01*
X140449584Y-48102720D01*
X140586516Y-48181777D01*
X140739243Y-48222700D01*
X140739245Y-48222700D01*
X140897355Y-48222700D01*
X140897357Y-48222700D01*
X141050084Y-48181777D01*
X141187016Y-48102720D01*
X141298820Y-47990916D01*
X141377877Y-47853984D01*
X141418800Y-47701257D01*
X141418800Y-47543143D01*
X141377877Y-47390416D01*
X141298820Y-47253484D01*
X141187016Y-47141680D01*
X141050084Y-47062623D01*
X140897357Y-47021700D01*
X140739243Y-47021700D01*
X140586516Y-47062623D01*
X140459584Y-47135907D01*
X140449581Y-47141682D01*
X140398559Y-47192704D01*
X140344042Y-47220481D01*
X140328556Y-47221700D01*
X139285413Y-47221700D01*
X139227222Y-47202793D01*
X139191258Y-47153293D01*
X139191258Y-47092107D01*
X139193949Y-47084815D01*
X139195575Y-47080889D01*
X139195575Y-47080886D01*
X139195577Y-47080884D01*
X139236500Y-46928157D01*
X139236500Y-46770043D01*
X139195577Y-46617316D01*
X139116520Y-46480384D01*
X139004716Y-46368580D01*
X138867784Y-46289523D01*
X138715057Y-46248600D01*
X138715055Y-46248600D01*
X138642901Y-46248600D01*
X138584710Y-46229693D01*
X138572897Y-46219604D01*
X137354208Y-45000915D01*
X135991713Y-43638420D01*
X135991710Y-43638418D01*
X135991709Y-43638417D01*
X135991708Y-43638416D01*
X135900391Y-43585694D01*
X135900393Y-43585694D01*
X135860870Y-43575104D01*
X135798527Y-43558400D01*
X34743127Y-43558400D01*
X34637673Y-43558400D01*
X34575329Y-43575104D01*
X34535807Y-43585694D01*
X34444491Y-43638416D01*
X34444486Y-43638420D01*
X34080202Y-44002704D01*
X34025686Y-44030481D01*
X34010199Y-44031700D01*
X33938043Y-44031700D01*
X33785316Y-44072623D01*
X33648384Y-44151680D01*
X33536580Y-44263484D01*
X33457523Y-44400416D01*
X33416600Y-44553143D01*
X33416600Y-44711257D01*
X33457523Y-44863984D01*
X33536580Y-45000916D01*
X33648384Y-45112720D01*
X33785316Y-45191777D01*
X33938043Y-45232700D01*
X33938045Y-45232700D01*
X34096155Y-45232700D01*
X34096157Y-45232700D01*
X34248884Y-45191777D01*
X34385816Y-45112720D01*
X34497620Y-45000916D01*
X34576677Y-44863984D01*
X34617600Y-44711257D01*
X34617600Y-44639101D01*
X34636507Y-44580910D01*
X34646596Y-44569097D01*
X34827297Y-44388396D01*
X34881814Y-44360619D01*
X34897301Y-44359400D01*
X39272894Y-44359400D01*
X39331085Y-44378307D01*
X39367049Y-44427807D01*
X39368520Y-44484021D01*
X39350000Y-44553143D01*
X39350000Y-44711257D01*
X39390923Y-44863984D01*
X39469980Y-45000916D01*
X39581784Y-45112720D01*
X39718716Y-45191777D01*
X39871443Y-45232700D01*
X39871445Y-45232700D01*
X40029555Y-45232700D01*
X40029557Y-45232700D01*
X40182284Y-45191777D01*
X40319216Y-45112720D01*
X40344729Y-45087206D01*
X40370241Y-45061696D01*
X40424758Y-45033919D01*
X40440244Y-45032700D01*
X87641780Y-45032700D01*
X87699971Y-45051607D01*
X87735935Y-45101107D01*
X87735935Y-45162293D01*
X87699971Y-45211793D01*
X87679662Y-45223165D01*
X87679117Y-45223390D01*
X87662993Y-45232700D01*
X87662992Y-45232699D01*
X87587788Y-45276119D01*
X86801903Y-46062004D01*
X86747386Y-46089781D01*
X86731899Y-46091000D01*
X85859525Y-46091000D01*
X85829105Y-46093853D01*
X85829096Y-46093855D01*
X85700916Y-46138707D01*
X85591655Y-46219345D01*
X85591645Y-46219355D01*
X85511007Y-46328616D01*
X85466155Y-46456796D01*
X85466153Y-46456805D01*
X85463300Y-46487225D01*
X85463300Y-46895774D01*
X85466153Y-46926194D01*
X85466155Y-46926203D01*
X85511007Y-47054383D01*
X85591645Y-47163644D01*
X85591647Y-47163646D01*
X85591650Y-47163650D01*
X85591653Y-47163652D01*
X85591655Y-47163654D01*
X85704374Y-47246845D01*
X85739967Y-47296613D01*
X85739509Y-47357796D01*
X85704374Y-47406155D01*
X85591655Y-47489345D01*
X85591645Y-47489355D01*
X85511008Y-47598614D01*
X85510274Y-47600005D01*
X85509247Y-47601001D01*
X85506601Y-47604587D01*
X85506005Y-47604147D01*
X85466367Y-47642618D01*
X85405799Y-47651285D01*
X85352742Y-47623750D01*
X84499035Y-46770043D01*
X83489413Y-45760420D01*
X83489410Y-45760418D01*
X83489408Y-45760416D01*
X83398091Y-45707694D01*
X83398093Y-45707694D01*
X83358570Y-45697104D01*
X83296227Y-45680400D01*
X13907873Y-45680400D01*
X13845531Y-45697104D01*
X13806008Y-45707694D01*
X13748336Y-45740991D01*
X13748337Y-45740992D01*
X13714688Y-45760419D01*
X11033102Y-48442004D01*
X10978585Y-48469781D01*
X10963098Y-48471000D01*
X8776903Y-48471000D01*
X8776897Y-48471001D01*
X8688436Y-48481624D01*
X8547658Y-48537139D01*
X8547657Y-48537139D01*
X8547656Y-48537140D01*
X8427081Y-48628575D01*
X8427075Y-48628581D01*
X8335640Y-48749156D01*
X8280124Y-48889935D01*
X8269500Y-48978398D01*
X8269500Y-51264596D01*
X8269501Y-51264602D01*
X8274283Y-51304420D01*
X8280124Y-51353064D01*
X8335639Y-51493842D01*
X8427078Y-51614422D01*
X8547658Y-51705861D01*
X8688436Y-51761376D01*
X8776901Y-51772000D01*
X11063098Y-51771999D01*
X11151564Y-51761376D01*
X11292342Y-51705861D01*
X11412922Y-51614422D01*
X11504361Y-51493842D01*
X11559876Y-51353064D01*
X11570500Y-51264599D01*
X11570499Y-49991599D01*
X16189500Y-49991599D01*
X16189500Y-50251400D01*
X16230138Y-50507988D01*
X16302526Y-50730773D01*
X16310421Y-50755072D01*
X16344514Y-50821982D01*
X16421792Y-50973650D01*
X16428366Y-50986551D01*
X16581069Y-51196729D01*
X16764771Y-51380431D01*
X16974949Y-51533134D01*
X17206428Y-51651079D01*
X17453507Y-51731360D01*
X17453508Y-51731360D01*
X17453511Y-51731361D01*
X17710100Y-51772000D01*
X17710103Y-51772000D01*
X17969900Y-51772000D01*
X18226488Y-51731361D01*
X18226489Y-51731360D01*
X18226493Y-51731360D01*
X18473572Y-51651079D01*
X18705051Y-51533134D01*
X18726235Y-51517743D01*
X56030800Y-51517743D01*
X56030800Y-51675857D01*
X56071723Y-51828584D01*
X56150780Y-51965516D01*
X56262584Y-52077320D01*
X56399516Y-52156377D01*
X56552243Y-52197300D01*
X56552245Y-52197300D01*
X56710355Y-52197300D01*
X56710357Y-52197300D01*
X56863084Y-52156377D01*
X57000016Y-52077320D01*
X57111820Y-51965516D01*
X57190877Y-51828584D01*
X57231800Y-51675857D01*
X57231800Y-51603700D01*
X57250707Y-51545509D01*
X57260790Y-51533702D01*
X58358780Y-50435713D01*
X58377031Y-50404101D01*
X58411507Y-50344387D01*
X58438800Y-50242527D01*
X58438800Y-49966452D01*
X58457707Y-49908261D01*
X58507207Y-49872297D01*
X58568393Y-49872297D01*
X58583310Y-49879181D01*
X58583540Y-49878730D01*
X58587006Y-49880496D01*
X58748361Y-49962711D01*
X58920591Y-50018671D01*
X58992136Y-50030002D01*
X59099451Y-50047000D01*
X59099454Y-50047000D01*
X59280549Y-50047000D01*
X59371509Y-50032593D01*
X59459409Y-50018671D01*
X59631639Y-49962711D01*
X59792994Y-49880496D01*
X59939501Y-49774053D01*
X60067553Y-49646001D01*
X60173996Y-49499494D01*
X60256211Y-49338139D01*
X60312171Y-49165909D01*
X60330175Y-49052234D01*
X60340500Y-48987049D01*
X60340500Y-48555950D01*
X60319470Y-48423173D01*
X60312171Y-48377091D01*
X60256211Y-48204861D01*
X60173996Y-48043506D01*
X60067553Y-47896999D01*
X59939501Y-47768947D01*
X59792994Y-47662504D01*
X59792993Y-47662503D01*
X59792991Y-47662502D01*
X59631637Y-47580288D01*
X59459406Y-47524328D01*
X59280549Y-47496000D01*
X59280546Y-47496000D01*
X59099454Y-47496000D01*
X59099451Y-47496000D01*
X58920593Y-47524328D01*
X58748362Y-47580288D01*
X58587008Y-47662502D01*
X58533667Y-47701257D01*
X58440499Y-47768947D01*
X58312447Y-47896999D01*
X58279258Y-47942680D01*
X58206002Y-48043508D01*
X58123788Y-48204862D01*
X58107920Y-48253700D01*
X58094379Y-48295379D01*
X58092035Y-48302592D01*
X58056071Y-48352092D01*
X57997881Y-48371000D01*
X57985573Y-48371000D01*
X57883713Y-48398293D01*
X57883712Y-48398293D01*
X57883710Y-48398294D01*
X57883709Y-48398294D01*
X57792389Y-48451018D01*
X57717818Y-48525589D01*
X57665094Y-48616909D01*
X57665094Y-48616910D01*
X57665093Y-48616912D01*
X57665093Y-48616913D01*
X57649220Y-48676155D01*
X57637800Y-48718774D01*
X57637800Y-49982899D01*
X57618893Y-50041090D01*
X57608804Y-50052903D01*
X56694403Y-50967304D01*
X56639886Y-50995081D01*
X56624399Y-50996300D01*
X56552243Y-50996300D01*
X56399516Y-51037223D01*
X56262584Y-51116280D01*
X56150780Y-51228084D01*
X56071723Y-51365016D01*
X56030800Y-51517743D01*
X18726235Y-51517743D01*
X18915229Y-51380431D01*
X19098931Y-51196729D01*
X19251634Y-50986551D01*
X19369579Y-50755072D01*
X19449860Y-50507993D01*
X19461308Y-50435711D01*
X19490500Y-50251400D01*
X19490500Y-49991599D01*
X19449861Y-49735011D01*
X19447796Y-49728654D01*
X19369579Y-49487928D01*
X19251634Y-49256449D01*
X19098931Y-49046271D01*
X18915229Y-48862569D01*
X18705051Y-48709866D01*
X18705050Y-48709865D01*
X18705048Y-48709864D01*
X18565577Y-48638800D01*
X18473572Y-48591921D01*
X18473569Y-48591920D01*
X18473567Y-48591919D01*
X18226488Y-48511638D01*
X17969900Y-48471000D01*
X17969897Y-48471000D01*
X17710103Y-48471000D01*
X17710100Y-48471000D01*
X17453511Y-48511638D01*
X17206432Y-48591919D01*
X16974951Y-48709864D01*
X16764772Y-48862568D01*
X16581068Y-49046272D01*
X16428364Y-49256451D01*
X16310419Y-49487932D01*
X16230138Y-49735011D01*
X16189500Y-49991599D01*
X11570499Y-49991599D01*
X11570499Y-49078399D01*
X11589406Y-49020209D01*
X11599489Y-49008402D01*
X12604499Y-48003393D01*
X25139500Y-48003393D01*
X25139500Y-49539606D01*
X25150123Y-49628065D01*
X25205637Y-49768839D01*
X25205638Y-49768841D01*
X25205639Y-49768842D01*
X25297078Y-49889422D01*
X25417658Y-49980861D01*
X25417659Y-49980861D01*
X25417660Y-49980862D01*
X25488047Y-50008619D01*
X25558436Y-50036377D01*
X25646898Y-50047000D01*
X25646900Y-50047000D01*
X26933100Y-50047000D01*
X26933102Y-50047000D01*
X27021564Y-50036377D01*
X27162342Y-49980861D01*
X27282922Y-49889422D01*
X27374361Y-49768842D01*
X27429877Y-49628064D01*
X27440500Y-49539602D01*
X27440500Y-48555950D01*
X30139500Y-48555950D01*
X30139500Y-48987049D01*
X30167828Y-49165906D01*
X30223788Y-49338137D01*
X30301774Y-49491194D01*
X30306004Y-49499494D01*
X30412447Y-49646001D01*
X30540499Y-49774053D01*
X30687006Y-49880496D01*
X30848361Y-49962711D01*
X31020591Y-50018671D01*
X31092136Y-50030002D01*
X31199451Y-50047000D01*
X31199454Y-50047000D01*
X31380549Y-50047000D01*
X31471509Y-50032593D01*
X31559409Y-50018671D01*
X31731639Y-49962711D01*
X31892994Y-49880496D01*
X32039501Y-49774053D01*
X32167553Y-49646001D01*
X32273996Y-49499494D01*
X32356211Y-49338139D01*
X32387965Y-49240407D01*
X32423929Y-49190908D01*
X32482119Y-49172000D01*
X33894425Y-49172000D01*
X33894427Y-49172000D01*
X33996288Y-49144707D01*
X33996290Y-49144705D01*
X33996292Y-49144705D01*
X34087608Y-49091983D01*
X34087608Y-49091982D01*
X34087613Y-49091980D01*
X34366293Y-48813300D01*
X34459498Y-48720096D01*
X34514014Y-48692319D01*
X34529501Y-48691100D01*
X34601655Y-48691100D01*
X34601657Y-48691100D01*
X34754384Y-48650177D01*
X34891316Y-48571120D01*
X35003120Y-48459316D01*
X35082177Y-48322384D01*
X35123100Y-48169657D01*
X35123100Y-48011543D01*
X35120916Y-48003393D01*
X39089500Y-48003393D01*
X39089500Y-49539606D01*
X39100123Y-49628065D01*
X39155637Y-49768839D01*
X39155638Y-49768841D01*
X39155639Y-49768842D01*
X39247078Y-49889422D01*
X39367658Y-49980861D01*
X39367659Y-49980861D01*
X39367660Y-49980862D01*
X39438047Y-50008619D01*
X39508436Y-50036377D01*
X39596898Y-50047000D01*
X39596900Y-50047000D01*
X40883100Y-50047000D01*
X40883102Y-50047000D01*
X40971564Y-50036377D01*
X41112342Y-49980861D01*
X41232922Y-49889422D01*
X41324361Y-49768842D01*
X41379877Y-49628064D01*
X41390500Y-49539602D01*
X41390500Y-48555950D01*
X44089500Y-48555950D01*
X44089500Y-48987049D01*
X44117828Y-49165906D01*
X44173788Y-49338137D01*
X44251774Y-49491194D01*
X44256004Y-49499494D01*
X44362447Y-49646001D01*
X44490499Y-49774053D01*
X44637006Y-49880496D01*
X44798361Y-49962711D01*
X44970591Y-50018671D01*
X45042136Y-50030002D01*
X45149451Y-50047000D01*
X45149454Y-50047000D01*
X45330549Y-50047000D01*
X45421509Y-50032593D01*
X45509409Y-50018671D01*
X45681639Y-49962711D01*
X45842994Y-49880496D01*
X45989501Y-49774053D01*
X46117553Y-49646001D01*
X46223996Y-49499494D01*
X46306211Y-49338139D01*
X46362171Y-49165909D01*
X46380175Y-49052234D01*
X46390500Y-48987049D01*
X46390500Y-48555950D01*
X46369470Y-48423173D01*
X46362171Y-48377091D01*
X46306211Y-48204861D01*
X46223996Y-48043506D01*
X46194852Y-48003393D01*
X53039500Y-48003393D01*
X53039500Y-49539606D01*
X53050123Y-49628065D01*
X53105637Y-49768839D01*
X53105638Y-49768841D01*
X53105639Y-49768842D01*
X53197078Y-49889422D01*
X53317658Y-49980861D01*
X53317659Y-49980861D01*
X53317660Y-49980862D01*
X53388047Y-50008619D01*
X53458436Y-50036377D01*
X53546898Y-50047000D01*
X53546900Y-50047000D01*
X54833100Y-50047000D01*
X54833102Y-50047000D01*
X54921564Y-50036377D01*
X55062342Y-49980861D01*
X55182922Y-49889422D01*
X55274361Y-49768842D01*
X55329877Y-49628064D01*
X55340500Y-49539602D01*
X55340500Y-48003398D01*
X55329877Y-47914936D01*
X55291535Y-47817709D01*
X55274362Y-47774160D01*
X55274361Y-47774159D01*
X55274361Y-47774158D01*
X55182922Y-47653578D01*
X55062342Y-47562139D01*
X55062341Y-47562138D01*
X55062339Y-47562137D01*
X54921565Y-47506623D01*
X54833106Y-47496000D01*
X54833102Y-47496000D01*
X53546898Y-47496000D01*
X53546893Y-47496000D01*
X53458434Y-47506623D01*
X53317660Y-47562137D01*
X53317656Y-47562140D01*
X53197081Y-47653575D01*
X53197075Y-47653581D01*
X53105640Y-47774156D01*
X53105637Y-47774160D01*
X53050123Y-47914934D01*
X53039500Y-48003393D01*
X46194852Y-48003393D01*
X46117553Y-47896999D01*
X45989501Y-47768947D01*
X45842994Y-47662504D01*
X45842993Y-47662503D01*
X45842991Y-47662502D01*
X45681637Y-47580288D01*
X45509406Y-47524328D01*
X45330549Y-47496000D01*
X45330546Y-47496000D01*
X45149454Y-47496000D01*
X45149451Y-47496000D01*
X44970593Y-47524328D01*
X44798362Y-47580288D01*
X44637008Y-47662502D01*
X44583667Y-47701257D01*
X44490499Y-47768947D01*
X44362447Y-47896999D01*
X44329258Y-47942680D01*
X44256002Y-48043508D01*
X44173788Y-48204862D01*
X44117828Y-48377093D01*
X44089500Y-48555950D01*
X41390500Y-48555950D01*
X41390500Y-48003398D01*
X41379877Y-47914936D01*
X41341535Y-47817709D01*
X41324362Y-47774160D01*
X41324361Y-47774159D01*
X41324361Y-47774158D01*
X41232922Y-47653578D01*
X41112342Y-47562139D01*
X41112341Y-47562138D01*
X41112339Y-47562137D01*
X40971565Y-47506623D01*
X40883106Y-47496000D01*
X40883102Y-47496000D01*
X39596898Y-47496000D01*
X39596893Y-47496000D01*
X39508434Y-47506623D01*
X39367660Y-47562137D01*
X39367656Y-47562140D01*
X39247081Y-47653575D01*
X39247075Y-47653581D01*
X39155640Y-47774156D01*
X39155637Y-47774160D01*
X39100123Y-47914934D01*
X39089500Y-48003393D01*
X35120916Y-48003393D01*
X35082177Y-47858816D01*
X35003120Y-47721884D01*
X34891316Y-47610080D01*
X34754384Y-47531023D01*
X34601657Y-47490100D01*
X34443543Y-47490100D01*
X34290816Y-47531023D01*
X34153884Y-47610080D01*
X34042080Y-47721884D01*
X33963023Y-47858816D01*
X33924283Y-48003398D01*
X33922100Y-48011544D01*
X33922100Y-48083699D01*
X33903193Y-48141890D01*
X33893104Y-48153703D01*
X33704803Y-48342004D01*
X33650286Y-48369781D01*
X33634799Y-48371000D01*
X32482120Y-48371000D01*
X32423929Y-48352093D01*
X32387966Y-48302594D01*
X32356211Y-48204861D01*
X32273996Y-48043506D01*
X32167553Y-47896999D01*
X32039501Y-47768947D01*
X31892994Y-47662504D01*
X31892993Y-47662503D01*
X31892991Y-47662502D01*
X31731637Y-47580288D01*
X31559406Y-47524328D01*
X31380549Y-47496000D01*
X31380546Y-47496000D01*
X31199454Y-47496000D01*
X31199451Y-47496000D01*
X31020593Y-47524328D01*
X30848362Y-47580288D01*
X30687008Y-47662502D01*
X30633667Y-47701257D01*
X30540499Y-47768947D01*
X30412447Y-47896999D01*
X30379258Y-47942680D01*
X30306002Y-48043508D01*
X30223788Y-48204862D01*
X30167828Y-48377093D01*
X30139500Y-48555950D01*
X27440500Y-48555950D01*
X27440500Y-48003398D01*
X27429877Y-47914936D01*
X27391535Y-47817709D01*
X27374362Y-47774160D01*
X27374361Y-47774159D01*
X27374361Y-47774158D01*
X27282922Y-47653578D01*
X27162342Y-47562139D01*
X27162341Y-47562138D01*
X27162339Y-47562137D01*
X27021565Y-47506623D01*
X26933106Y-47496000D01*
X26933102Y-47496000D01*
X25646898Y-47496000D01*
X25646893Y-47496000D01*
X25558434Y-47506623D01*
X25417660Y-47562137D01*
X25417656Y-47562140D01*
X25297081Y-47653575D01*
X25297075Y-47653581D01*
X25205640Y-47774156D01*
X25205637Y-47774160D01*
X25150123Y-47914934D01*
X25139500Y-48003393D01*
X12604499Y-48003393D01*
X14097497Y-46510396D01*
X14152014Y-46482619D01*
X14167501Y-46481400D01*
X69624699Y-46481400D01*
X69682890Y-46500307D01*
X69718854Y-46549807D01*
X69718854Y-46610993D01*
X69694702Y-46650404D01*
X68876056Y-47469048D01*
X68821540Y-47496825D01*
X68794253Y-47497338D01*
X68783116Y-47496001D01*
X68783104Y-47496000D01*
X68783102Y-47496000D01*
X67496898Y-47496000D01*
X67496893Y-47496000D01*
X67408434Y-47506623D01*
X67267660Y-47562137D01*
X67267656Y-47562140D01*
X67147081Y-47653575D01*
X67147075Y-47653581D01*
X67055640Y-47774156D01*
X67055637Y-47774160D01*
X67000123Y-47914934D01*
X66989500Y-48003393D01*
X66989500Y-49539606D01*
X67000123Y-49628065D01*
X67055637Y-49768839D01*
X67055638Y-49768841D01*
X67055639Y-49768842D01*
X67147078Y-49889422D01*
X67267658Y-49980861D01*
X67267659Y-49980861D01*
X67267660Y-49980862D01*
X67338047Y-50008619D01*
X67408436Y-50036377D01*
X67496898Y-50047000D01*
X67496900Y-50047000D01*
X68783100Y-50047000D01*
X68783102Y-50047000D01*
X68871564Y-50036377D01*
X69012342Y-49980861D01*
X69132922Y-49889422D01*
X69224361Y-49768842D01*
X69279877Y-49628064D01*
X69290500Y-49539602D01*
X69290500Y-48228401D01*
X69309407Y-48170210D01*
X69319496Y-48158398D01*
X69444241Y-48033652D01*
X69498758Y-48005874D01*
X69559190Y-48015445D01*
X69602454Y-48058710D01*
X69612026Y-48119142D01*
X69602455Y-48148600D01*
X69573788Y-48204861D01*
X69517828Y-48377093D01*
X69489500Y-48555950D01*
X69489500Y-48987049D01*
X69517828Y-49165906D01*
X69573788Y-49338137D01*
X69651774Y-49491194D01*
X69656004Y-49499494D01*
X69762447Y-49646001D01*
X69890499Y-49774053D01*
X70037006Y-49880496D01*
X70198361Y-49962711D01*
X70370591Y-50018671D01*
X70442136Y-50030002D01*
X70549451Y-50047000D01*
X70549454Y-50047000D01*
X70730549Y-50047000D01*
X70821509Y-50032593D01*
X70909409Y-50018671D01*
X71081639Y-49962711D01*
X71242994Y-49880496D01*
X71389501Y-49774053D01*
X71517553Y-49646001D01*
X71623996Y-49499494D01*
X71706211Y-49338139D01*
X71737965Y-49240407D01*
X71773929Y-49190908D01*
X71832119Y-49172000D01*
X71844424Y-49172000D01*
X71844427Y-49172000D01*
X71915018Y-49153085D01*
X71976116Y-49156287D01*
X72023666Y-49194792D01*
X72034793Y-49218120D01*
X72073788Y-49338137D01*
X72151774Y-49491194D01*
X72156004Y-49499494D01*
X72262447Y-49646001D01*
X72390499Y-49774053D01*
X72537006Y-49880496D01*
X72698361Y-49962711D01*
X72870591Y-50018671D01*
X72870604Y-50018673D01*
X72871935Y-50018993D01*
X72872334Y-50019237D01*
X72874290Y-50019873D01*
X72874137Y-50020342D01*
X72924108Y-50050955D01*
X72947531Y-50107480D01*
X72933256Y-50166976D01*
X72918841Y-50185265D01*
X70621703Y-52482404D01*
X70567186Y-52510181D01*
X70551699Y-52511400D01*
X52731727Y-52511400D01*
X52626273Y-52511400D01*
X52563929Y-52528104D01*
X52524407Y-52538694D01*
X52433091Y-52591416D01*
X52433090Y-52591417D01*
X43581002Y-61443504D01*
X43526485Y-61471281D01*
X43510998Y-61472500D01*
X43174801Y-61472500D01*
X43116610Y-61453593D01*
X43104798Y-61443504D01*
X42805213Y-61143920D01*
X42805208Y-61143916D01*
X42713891Y-61091194D01*
X42713893Y-61091194D01*
X42674370Y-61080604D01*
X42612027Y-61063900D01*
X42612025Y-61063900D01*
X33935306Y-61063900D01*
X33935290Y-61063899D01*
X33929227Y-61063899D01*
X33823773Y-61063899D01*
X33721912Y-61091193D01*
X33721911Y-61091193D01*
X33721909Y-61091194D01*
X33696382Y-61105932D01*
X33676250Y-61117556D01*
X33647300Y-61134270D01*
X33630586Y-61143920D01*
X33556019Y-61218486D01*
X33556020Y-61218487D01*
X33556018Y-61218489D01*
X33556017Y-61218489D01*
X33331001Y-61443504D01*
X33276485Y-61471281D01*
X33260998Y-61472500D01*
X32845033Y-61472500D01*
X32845029Y-61472500D01*
X32845028Y-61472501D01*
X32837849Y-61473272D01*
X32785419Y-61478908D01*
X32785414Y-61478909D01*
X32650570Y-61529202D01*
X32535358Y-61615450D01*
X32535350Y-61615458D01*
X32449102Y-61730670D01*
X32398810Y-61865511D01*
X32398808Y-61865522D01*
X32392400Y-61925129D01*
X32392400Y-62392099D01*
X32373493Y-62450290D01*
X32323993Y-62486254D01*
X32262807Y-62486254D01*
X32223396Y-62462103D01*
X32172395Y-62411102D01*
X32144618Y-62356585D01*
X32143399Y-62341098D01*
X32143399Y-61925133D01*
X32143399Y-61925128D01*
X32136991Y-61865517D01*
X32132807Y-61854300D01*
X32086697Y-61730670D01*
X32000449Y-61615458D01*
X32000448Y-61615457D01*
X32000446Y-61615454D01*
X31937151Y-61568071D01*
X31885229Y-61529202D01*
X31750388Y-61478910D01*
X31750383Y-61478909D01*
X31750381Y-61478908D01*
X31750377Y-61478908D01*
X31719149Y-61475550D01*
X31690773Y-61472500D01*
X31690770Y-61472500D01*
X31195033Y-61472500D01*
X31195029Y-61472500D01*
X31195028Y-61472501D01*
X31187849Y-61473272D01*
X31135419Y-61478908D01*
X31135414Y-61478909D01*
X31000570Y-61529202D01*
X30885358Y-61615450D01*
X30885350Y-61615458D01*
X30799102Y-61730670D01*
X30748810Y-61865511D01*
X30748808Y-61865522D01*
X30742400Y-61925129D01*
X30742400Y-62570866D01*
X30742400Y-62570869D01*
X30742401Y-62570872D01*
X30743944Y-62585229D01*
X30748808Y-62630480D01*
X30748809Y-62630485D01*
X30799102Y-62765329D01*
X30879763Y-62873078D01*
X30885354Y-62880546D01*
X30885357Y-62880548D01*
X30885358Y-62880549D01*
X31000570Y-62966797D01*
X31135411Y-63017089D01*
X31135412Y-63017089D01*
X31135417Y-63017091D01*
X31195027Y-63023500D01*
X31610998Y-63023499D01*
X31669189Y-63042406D01*
X31681002Y-63052495D01*
X34234403Y-65605896D01*
X34262180Y-65660413D01*
X34252609Y-65720845D01*
X34209344Y-65764110D01*
X34164399Y-65774900D01*
X14270001Y-65774900D01*
X14211810Y-65755993D01*
X14199997Y-65745904D01*
X10915196Y-62461103D01*
X10887419Y-62406586D01*
X10886200Y-62391099D01*
X10886200Y-61956857D01*
X10886199Y-61956851D01*
X20206600Y-61956851D01*
X20206600Y-62539148D01*
X20216741Y-62623591D01*
X20269734Y-62757972D01*
X20269735Y-62757974D01*
X20269736Y-62757975D01*
X20357022Y-62873078D01*
X20472125Y-62960364D01*
X20472126Y-62960364D01*
X20472127Y-62960365D01*
X20527996Y-62982397D01*
X20606510Y-63013359D01*
X20690956Y-63023500D01*
X20690958Y-63023500D01*
X21223242Y-63023500D01*
X21223244Y-63023500D01*
X21307690Y-63013359D01*
X21442075Y-62960364D01*
X21557178Y-62873078D01*
X21644464Y-62757975D01*
X21697459Y-62623590D01*
X21707600Y-62539144D01*
X21707600Y-62104901D01*
X21726507Y-62046710D01*
X21736596Y-62034897D01*
X27042597Y-56728896D01*
X27097114Y-56701119D01*
X27112601Y-56699900D01*
X42427456Y-56699900D01*
X42485647Y-56718807D01*
X42497459Y-56728896D01*
X42523869Y-56755305D01*
X42548484Y-56779920D01*
X42685416Y-56858977D01*
X42838143Y-56899900D01*
X42838145Y-56899900D01*
X42996255Y-56899900D01*
X42996257Y-56899900D01*
X43148984Y-56858977D01*
X43285916Y-56779920D01*
X43397720Y-56668116D01*
X43476777Y-56531184D01*
X43517700Y-56378457D01*
X43517700Y-56220343D01*
X43476777Y-56067616D01*
X43397720Y-55930684D01*
X43285916Y-55818880D01*
X43148984Y-55739823D01*
X42996257Y-55698900D01*
X42838143Y-55698900D01*
X42685416Y-55739823D01*
X42597911Y-55790344D01*
X42548481Y-55818882D01*
X42497459Y-55869904D01*
X42442942Y-55897681D01*
X42427456Y-55898900D01*
X26958427Y-55898900D01*
X26852973Y-55898900D01*
X26790629Y-55915604D01*
X26751107Y-55926194D01*
X26659791Y-55978916D01*
X21195203Y-61443504D01*
X21140686Y-61471281D01*
X21125199Y-61472500D01*
X20690951Y-61472500D01*
X20606508Y-61482641D01*
X20472127Y-61535634D01*
X20357022Y-61622922D01*
X20269734Y-61738027D01*
X20216741Y-61872408D01*
X20206600Y-61956851D01*
X10886199Y-61956851D01*
X10882390Y-61925133D01*
X10876059Y-61872410D01*
X10823064Y-61738025D01*
X10735778Y-61622922D01*
X10620675Y-61535636D01*
X10620674Y-61535635D01*
X10620672Y-61535634D01*
X10486291Y-61482641D01*
X10401848Y-61472500D01*
X10401844Y-61472500D01*
X9869556Y-61472500D01*
X9869551Y-61472500D01*
X9785108Y-61482641D01*
X9650727Y-61535634D01*
X9535622Y-61622922D01*
X9448334Y-61738027D01*
X9395341Y-61872408D01*
X9385200Y-61956851D01*
X9385200Y-62539148D01*
X9395341Y-62623591D01*
X9448334Y-62757972D01*
X9448335Y-62757974D01*
X9448336Y-62757975D01*
X9535622Y-62873078D01*
X9650725Y-62960364D01*
X9650726Y-62960364D01*
X9650727Y-62960365D01*
X9706596Y-62982397D01*
X9785110Y-63013359D01*
X9869556Y-63023500D01*
X10303799Y-63023500D01*
X10361990Y-63042407D01*
X10373803Y-63052496D01*
X13742620Y-66421313D01*
X13742619Y-66421313D01*
X13817187Y-66495880D01*
X13908513Y-66548607D01*
X14010373Y-66575900D01*
X47124856Y-66575900D01*
X47183047Y-66594807D01*
X47194859Y-66604896D01*
X47232853Y-66642889D01*
X47245884Y-66655920D01*
X47382816Y-66734977D01*
X47535543Y-66775900D01*
X47535545Y-66775900D01*
X47693655Y-66775900D01*
X47693657Y-66775900D01*
X47846384Y-66734977D01*
X47983316Y-66655920D01*
X48095120Y-66544116D01*
X48095122Y-66544111D01*
X48095125Y-66544109D01*
X48099069Y-66538970D01*
X48100673Y-66540201D01*
X48139261Y-66505433D01*
X48200109Y-66499016D01*
X48249563Y-66525856D01*
X50610503Y-68886796D01*
X50638280Y-68941313D01*
X50628709Y-69001745D01*
X50585444Y-69045010D01*
X50540499Y-69055800D01*
X50052133Y-69055800D01*
X50052129Y-69055800D01*
X50052128Y-69055801D01*
X50044949Y-69056572D01*
X49992519Y-69062208D01*
X49992514Y-69062209D01*
X49857670Y-69112502D01*
X49742458Y-69198750D01*
X49742450Y-69198758D01*
X49656202Y-69313970D01*
X49606551Y-69447096D01*
X49568501Y-69495011D01*
X49513793Y-69511500D01*
X49122944Y-69511500D01*
X49064753Y-69492593D01*
X49052941Y-69482504D01*
X49001918Y-69431482D01*
X49001916Y-69431480D01*
X48864984Y-69352423D01*
X48712257Y-69311500D01*
X48554143Y-69311500D01*
X48401416Y-69352423D01*
X48264484Y-69431480D01*
X48152680Y-69543284D01*
X48073623Y-69680216D01*
X48032700Y-69832943D01*
X48032700Y-69991057D01*
X48073623Y-70143784D01*
X48152680Y-70280716D01*
X48264484Y-70392520D01*
X48401416Y-70471577D01*
X48554143Y-70512500D01*
X48554145Y-70512500D01*
X48712255Y-70512500D01*
X48712257Y-70512500D01*
X48864984Y-70471577D01*
X49001916Y-70392520D01*
X49039736Y-70354700D01*
X49052941Y-70341496D01*
X49107458Y-70313719D01*
X49122944Y-70312500D01*
X49579601Y-70312500D01*
X49637792Y-70331407D01*
X49658854Y-70352171D01*
X49742231Y-70463549D01*
X49742454Y-70463846D01*
X49742457Y-70463848D01*
X49742458Y-70463849D01*
X49857670Y-70550097D01*
X49992511Y-70600389D01*
X49992512Y-70600389D01*
X49992517Y-70600391D01*
X50052127Y-70606800D01*
X50547872Y-70606799D01*
X50607483Y-70600391D01*
X50710404Y-70562004D01*
X50742329Y-70550097D01*
X50748543Y-70546704D01*
X50749798Y-70549003D01*
X50796671Y-70533018D01*
X50855130Y-70551080D01*
X50868111Y-70562004D01*
X51102103Y-70795996D01*
X51129880Y-70850513D01*
X51120309Y-70910945D01*
X51077044Y-70954210D01*
X51032099Y-70965000D01*
X45031601Y-70965000D01*
X44973410Y-70946093D01*
X44961597Y-70936004D01*
X44069996Y-70044403D01*
X44042219Y-69989886D01*
X44041000Y-69974399D01*
X44041000Y-69540157D01*
X44040999Y-69540151D01*
X44040957Y-69539801D01*
X44030859Y-69455710D01*
X43977864Y-69321325D01*
X43890578Y-69206222D01*
X43775475Y-69118936D01*
X43775474Y-69118935D01*
X43775472Y-69118934D01*
X43641091Y-69065941D01*
X43556648Y-69055800D01*
X43556644Y-69055800D01*
X43024356Y-69055800D01*
X43024351Y-69055800D01*
X42939908Y-69065941D01*
X42805527Y-69118934D01*
X42690422Y-69206222D01*
X42603134Y-69321327D01*
X42550141Y-69455708D01*
X42540000Y-69540151D01*
X42540000Y-69974399D01*
X42521093Y-70032590D01*
X42511004Y-70044403D01*
X42359903Y-70195504D01*
X42305386Y-70223281D01*
X42289899Y-70224500D01*
X37128094Y-70224500D01*
X37069903Y-70205593D01*
X37033939Y-70156093D01*
X37030046Y-70125403D01*
X37029100Y-70125403D01*
X37029100Y-69540157D01*
X37029099Y-69540151D01*
X37029057Y-69539801D01*
X37018959Y-69455710D01*
X36965964Y-69321325D01*
X36878678Y-69206222D01*
X36763575Y-69118936D01*
X36763574Y-69118935D01*
X36763572Y-69118934D01*
X36629191Y-69065941D01*
X36544748Y-69055800D01*
X36544744Y-69055800D01*
X36110501Y-69055800D01*
X36052310Y-69036893D01*
X36040498Y-69026804D01*
X35721713Y-68708020D01*
X35721708Y-68708016D01*
X35630391Y-68655294D01*
X35630393Y-68655294D01*
X35577022Y-68640994D01*
X35528527Y-68628000D01*
X35528525Y-68628000D01*
X9092606Y-68628000D01*
X9092590Y-68627999D01*
X9086527Y-68627999D01*
X8981073Y-68627999D01*
X8981070Y-68627999D01*
X8890312Y-68652318D01*
X8882199Y-68654493D01*
X8879213Y-68655293D01*
X8879207Y-68655295D01*
X8787887Y-68708019D01*
X8713319Y-68782586D01*
X8713320Y-68782587D01*
X8713318Y-68782589D01*
X8713317Y-68782588D01*
X8469105Y-69026803D01*
X8414588Y-69054581D01*
X8399101Y-69055800D01*
X7964851Y-69055800D01*
X7880408Y-69065941D01*
X7746027Y-69118934D01*
X7670881Y-69175920D01*
X7630922Y-69206222D01*
X7555772Y-69305321D01*
X7505547Y-69340262D01*
X7476890Y-69344500D01*
X7296544Y-69344500D01*
X7238353Y-69325593D01*
X7226541Y-69315504D01*
X7175518Y-69264482D01*
X7175516Y-69264480D01*
X7038584Y-69185423D01*
X6885857Y-69144500D01*
X6727743Y-69144500D01*
X6575016Y-69185423D01*
X6438084Y-69264480D01*
X6326280Y-69376284D01*
X6247223Y-69513216D01*
X6206300Y-69665943D01*
X3746189Y-69665943D01*
X3621289Y-69649500D01*
X3621288Y-69649500D01*
X3378712Y-69649500D01*
X3378710Y-69649500D01*
X3138218Y-69681161D01*
X3138213Y-69681161D01*
X2903907Y-69743944D01*
X2903894Y-69743948D01*
X2679795Y-69836772D01*
X2469707Y-69958066D01*
X2277268Y-70105729D01*
X2105729Y-70277268D01*
X1958066Y-70469707D01*
X1836772Y-70679795D01*
X1743948Y-70903894D01*
X1743944Y-70903907D01*
X1681161Y-71138213D01*
X1681161Y-71138218D01*
X1649500Y-71378710D01*
X500500Y-71378710D01*
X500500Y-28460265D01*
X19274500Y-28460265D01*
X19274500Y-28689734D01*
X19304452Y-28917238D01*
X19363841Y-29138885D01*
X19451653Y-29350883D01*
X19527157Y-29481661D01*
X19566389Y-29549612D01*
X19706081Y-29731661D01*
X19868339Y-29893919D01*
X20050388Y-30033611D01*
X20249112Y-30148344D01*
X20249113Y-30148344D01*
X20249116Y-30148346D01*
X20345167Y-30188131D01*
X20461113Y-30236158D01*
X20682762Y-30295548D01*
X20910266Y-30325500D01*
X20910267Y-30325500D01*
X21139733Y-30325500D01*
X21139734Y-30325500D01*
X21367238Y-30295548D01*
X21588887Y-30236158D01*
X21800888Y-30148344D01*
X21999612Y-30033611D01*
X22181661Y-29893919D01*
X22343919Y-29731661D01*
X22483611Y-29549612D01*
X22598344Y-29350888D01*
X22686158Y-29138887D01*
X22745548Y-28917238D01*
X22759459Y-28811577D01*
X22785800Y-28756353D01*
X22839571Y-28727158D01*
X22857612Y-28725500D01*
X25044097Y-28725500D01*
X25102288Y-28744407D01*
X25138252Y-28793907D01*
X25139724Y-28798877D01*
X25163841Y-28888885D01*
X25251653Y-29100883D01*
X25336230Y-29247376D01*
X25366389Y-29299612D01*
X25506081Y-29481661D01*
X25668339Y-29643919D01*
X25850388Y-29783611D01*
X26049112Y-29898344D01*
X26049113Y-29898344D01*
X26049116Y-29898346D01*
X26145167Y-29938131D01*
X26261113Y-29986158D01*
X26482762Y-30045548D01*
X26710266Y-30075500D01*
X26710267Y-30075500D01*
X26939733Y-30075500D01*
X26939734Y-30075500D01*
X27167238Y-30045548D01*
X27388887Y-29986158D01*
X27600888Y-29898344D01*
X27681588Y-29851751D01*
X27741435Y-29839030D01*
X27797330Y-29863916D01*
X27801091Y-29867484D01*
X40016920Y-42083313D01*
X40016919Y-42083313D01*
X40091487Y-42157880D01*
X40182813Y-42210607D01*
X40284673Y-42237900D01*
X57260956Y-42237900D01*
X57319147Y-42256807D01*
X57330959Y-42266896D01*
X57381981Y-42317917D01*
X57381984Y-42317920D01*
X57518916Y-42396977D01*
X57671643Y-42437900D01*
X57671645Y-42437900D01*
X57829755Y-42437900D01*
X57829757Y-42437900D01*
X57982484Y-42396977D01*
X58119416Y-42317920D01*
X58144929Y-42292406D01*
X58170441Y-42266896D01*
X58224958Y-42239119D01*
X58240444Y-42237900D01*
X138670199Y-42237900D01*
X138728390Y-42256807D01*
X138740203Y-42266896D01*
X142911704Y-46438396D01*
X142939481Y-46492913D01*
X142940700Y-46508400D01*
X142940700Y-46942648D01*
X142950841Y-47027091D01*
X143003834Y-47161472D01*
X143003835Y-47161474D01*
X143003836Y-47161475D01*
X143091122Y-47276578D01*
X143206225Y-47363864D01*
X143206226Y-47363864D01*
X143206227Y-47363865D01*
X143269595Y-47388854D01*
X143340610Y-47416859D01*
X143425056Y-47427000D01*
X143425058Y-47427000D01*
X143957342Y-47427000D01*
X143957344Y-47427000D01*
X144041790Y-47416859D01*
X144176175Y-47363864D01*
X144291278Y-47276578D01*
X144378564Y-47161475D01*
X144431559Y-47027090D01*
X144441700Y-46942644D01*
X144441700Y-46360356D01*
X144431559Y-46275910D01*
X144391067Y-46173231D01*
X144378565Y-46141527D01*
X144378564Y-46141526D01*
X144378564Y-46141525D01*
X144291278Y-46026422D01*
X144176175Y-45939136D01*
X144176174Y-45939135D01*
X144176172Y-45939134D01*
X144041791Y-45886141D01*
X143957348Y-45876000D01*
X143957344Y-45876000D01*
X143523100Y-45876000D01*
X143464909Y-45857093D01*
X143453096Y-45847004D01*
X141608796Y-44002704D01*
X139123013Y-41516920D01*
X139123010Y-41516918D01*
X139123008Y-41516916D01*
X139031691Y-41464194D01*
X139031693Y-41464194D01*
X138992170Y-41453604D01*
X138929827Y-41436900D01*
X138929825Y-41436900D01*
X58240444Y-41436900D01*
X58182253Y-41417993D01*
X58170441Y-41407904D01*
X58119418Y-41356882D01*
X58119416Y-41356880D01*
X57982484Y-41277823D01*
X57829757Y-41236900D01*
X57671643Y-41236900D01*
X57518916Y-41277823D01*
X57381981Y-41356882D01*
X57330959Y-41407904D01*
X57276442Y-41435681D01*
X57260956Y-41436900D01*
X40544301Y-41436900D01*
X40486110Y-41417993D01*
X40474297Y-41407904D01*
X32507536Y-33441143D01*
X48610100Y-33441143D01*
X48610100Y-33599257D01*
X48651023Y-33751984D01*
X48730080Y-33888916D01*
X48841884Y-34000720D01*
X48978816Y-34079777D01*
X49131543Y-34120700D01*
X49203699Y-34120700D01*
X49261890Y-34139607D01*
X49273703Y-34149696D01*
X50096618Y-34972610D01*
X50096620Y-34972613D01*
X50171187Y-35047180D01*
X50171192Y-35047183D01*
X50262509Y-35099905D01*
X50262513Y-35099907D01*
X50364370Y-35127200D01*
X50364372Y-35127201D01*
X50364373Y-35127201D01*
X50475890Y-35127201D01*
X50475906Y-35127200D01*
X56176025Y-35127200D01*
X56176027Y-35127200D01*
X56277888Y-35099907D01*
X56277890Y-35099905D01*
X56277892Y-35099905D01*
X56369208Y-35047183D01*
X56369208Y-35047182D01*
X56369213Y-35047180D01*
X64759297Y-26657096D01*
X64813814Y-26629319D01*
X64829301Y-26628100D01*
X82991625Y-26628100D01*
X83049816Y-26647007D01*
X83085780Y-26696507D01*
X83085780Y-26757693D01*
X83049816Y-26807193D01*
X83004547Y-26825252D01*
X82930460Y-26835006D01*
X82782761Y-26854452D01*
X82561114Y-26913841D01*
X82349116Y-27001653D01*
X82150388Y-27116388D01*
X81968342Y-27256078D01*
X81806078Y-27418342D01*
X81666388Y-27600388D01*
X81551653Y-27799116D01*
X81463841Y-28011114D01*
X81404452Y-28232761D01*
X81374500Y-28460265D01*
X81374500Y-28689734D01*
X81404452Y-28917238D01*
X81463841Y-29138885D01*
X81551653Y-29350883D01*
X81627157Y-29481661D01*
X81666389Y-29549612D01*
X81806081Y-29731661D01*
X81968339Y-29893919D01*
X82150388Y-30033611D01*
X82349112Y-30148344D01*
X82349113Y-30148344D01*
X82349116Y-30148346D01*
X82445167Y-30188131D01*
X82561113Y-30236158D01*
X82782762Y-30295548D01*
X83010266Y-30325500D01*
X83010267Y-30325500D01*
X83239733Y-30325500D01*
X83239734Y-30325500D01*
X83467238Y-30295548D01*
X83688887Y-30236158D01*
X83900888Y-30148344D01*
X84099612Y-30033611D01*
X84281661Y-29893919D01*
X84443919Y-29731661D01*
X84583611Y-29549612D01*
X84698344Y-29350888D01*
X84786158Y-29138887D01*
X84845548Y-28917238D01*
X84859459Y-28811577D01*
X84885800Y-28756353D01*
X84939571Y-28727158D01*
X84957612Y-28725500D01*
X87144097Y-28725500D01*
X87202288Y-28744407D01*
X87238252Y-28793907D01*
X87239724Y-28798877D01*
X87263841Y-28888885D01*
X87351653Y-29100883D01*
X87436230Y-29247376D01*
X87466389Y-29299612D01*
X87606081Y-29481661D01*
X87768339Y-29643919D01*
X87950388Y-29783611D01*
X88149112Y-29898344D01*
X88149113Y-29898344D01*
X88149116Y-29898346D01*
X88245167Y-29938131D01*
X88361113Y-29986158D01*
X88582762Y-30045548D01*
X88810266Y-30075500D01*
X88810267Y-30075500D01*
X89039733Y-30075500D01*
X89039734Y-30075500D01*
X89267238Y-30045548D01*
X89488887Y-29986158D01*
X89700888Y-29898344D01*
X89899612Y-29783611D01*
X90081661Y-29643919D01*
X90243919Y-29481661D01*
X90383611Y-29299612D01*
X90498344Y-29100888D01*
X90586158Y-28888887D01*
X90645548Y-28667238D01*
X90675500Y-28439734D01*
X90675500Y-28210266D01*
X90645548Y-27982762D01*
X90586158Y-27761113D01*
X90498344Y-27549112D01*
X90383611Y-27350388D01*
X90243919Y-27168339D01*
X90081661Y-27006081D01*
X89899612Y-26866389D01*
X89899613Y-26866389D01*
X89899611Y-26866388D01*
X89828362Y-26825253D01*
X89806854Y-26812835D01*
X89765915Y-26767367D01*
X89759519Y-26706517D01*
X89790112Y-26653529D01*
X89846007Y-26628642D01*
X89856356Y-26628100D01*
X114041625Y-26628100D01*
X114099816Y-26647007D01*
X114135780Y-26696507D01*
X114135780Y-26757693D01*
X114099816Y-26807193D01*
X114054547Y-26825252D01*
X113980460Y-26835006D01*
X113832761Y-26854452D01*
X113611114Y-26913841D01*
X113399116Y-27001653D01*
X113200388Y-27116388D01*
X113018342Y-27256078D01*
X112856078Y-27418342D01*
X112716388Y-27600388D01*
X112601653Y-27799116D01*
X112513841Y-28011114D01*
X112454452Y-28232761D01*
X112424500Y-28460265D01*
X112424500Y-28689734D01*
X112454452Y-28917238D01*
X112513841Y-29138885D01*
X112601653Y-29350883D01*
X112677157Y-29481661D01*
X112716389Y-29549612D01*
X112856081Y-29731661D01*
X113018339Y-29893919D01*
X113200388Y-30033611D01*
X113399112Y-30148344D01*
X113399113Y-30148344D01*
X113399116Y-30148346D01*
X113495167Y-30188131D01*
X113611113Y-30236158D01*
X113832762Y-30295548D01*
X114060266Y-30325500D01*
X114060267Y-30325500D01*
X114289733Y-30325500D01*
X114289734Y-30325500D01*
X114517238Y-30295548D01*
X114738887Y-30236158D01*
X114950888Y-30148344D01*
X115149612Y-30033611D01*
X115331661Y-29893919D01*
X115493919Y-29731661D01*
X115633611Y-29549612D01*
X115748344Y-29350888D01*
X115836158Y-29138887D01*
X115895548Y-28917238D01*
X115909459Y-28811577D01*
X115935800Y-28756353D01*
X115989571Y-28727158D01*
X116007612Y-28725500D01*
X118194097Y-28725500D01*
X118252288Y-28744407D01*
X118288252Y-28793907D01*
X118289724Y-28798877D01*
X118313841Y-28888885D01*
X118401653Y-29100883D01*
X118486230Y-29247376D01*
X118516389Y-29299612D01*
X118656081Y-29481661D01*
X118818339Y-29643919D01*
X119000388Y-29783611D01*
X119199112Y-29898344D01*
X119199113Y-29898344D01*
X119199116Y-29898346D01*
X119295167Y-29938131D01*
X119411113Y-29986158D01*
X119632762Y-30045548D01*
X119860266Y-30075500D01*
X119860267Y-30075500D01*
X120089733Y-30075500D01*
X120089734Y-30075500D01*
X120317238Y-30045548D01*
X120538887Y-29986158D01*
X120750888Y-29898344D01*
X120949612Y-29783611D01*
X121131661Y-29643919D01*
X121293919Y-29481661D01*
X121433611Y-29299612D01*
X121548344Y-29100888D01*
X121636158Y-28888887D01*
X121695548Y-28667238D01*
X121725500Y-28439734D01*
X121725500Y-28210266D01*
X121695548Y-27982762D01*
X121636158Y-27761113D01*
X121548344Y-27549112D01*
X121433611Y-27350388D01*
X121293919Y-27168339D01*
X121131661Y-27006081D01*
X120949612Y-26866389D01*
X120949613Y-26866389D01*
X120949611Y-26866388D01*
X120878362Y-26825253D01*
X120856854Y-26812835D01*
X120815915Y-26767367D01*
X120809519Y-26706517D01*
X120840112Y-26653529D01*
X120896007Y-26628642D01*
X120906356Y-26628100D01*
X123678525Y-26628100D01*
X123678527Y-26628100D01*
X123780388Y-26600807D01*
X123780390Y-26600805D01*
X123780392Y-26600805D01*
X123871708Y-26548083D01*
X123871708Y-26548082D01*
X123871713Y-26548080D01*
X138152457Y-12267333D01*
X138206972Y-12239558D01*
X138267404Y-12249129D01*
X138294309Y-12270337D01*
X138294697Y-12269950D01*
X138297444Y-12272697D01*
X138297447Y-12272701D01*
X138425499Y-12400753D01*
X138572006Y-12507196D01*
X138733361Y-12589411D01*
X138905591Y-12645371D01*
X138977136Y-12656702D01*
X139084451Y-12673700D01*
X139084454Y-12673700D01*
X139265549Y-12673700D01*
X139354977Y-12659535D01*
X139444409Y-12645371D01*
X139616639Y-12589411D01*
X139777994Y-12507196D01*
X139924501Y-12400753D01*
X140052553Y-12272701D01*
X140158996Y-12126194D01*
X140241211Y-11964839D01*
X140297171Y-11792609D01*
X140325500Y-11613746D01*
X140325500Y-11182654D01*
X140325500Y-11182650D01*
X140524500Y-11182650D01*
X140524500Y-11613749D01*
X140552828Y-11792606D01*
X140552829Y-11792609D01*
X140608789Y-11964839D01*
X140691004Y-12126194D01*
X140797447Y-12272701D01*
X140925499Y-12400753D01*
X141072006Y-12507196D01*
X141233361Y-12589411D01*
X141405591Y-12645371D01*
X141477136Y-12656702D01*
X141584451Y-12673700D01*
X141584454Y-12673700D01*
X141765549Y-12673700D01*
X141854977Y-12659535D01*
X141944409Y-12645371D01*
X142116639Y-12589411D01*
X142277994Y-12507196D01*
X142424501Y-12400753D01*
X142552553Y-12272701D01*
X142658996Y-12126194D01*
X142741211Y-11964839D01*
X142797171Y-11792609D01*
X142825500Y-11613746D01*
X142825500Y-11182654D01*
X142825500Y-11182650D01*
X143024500Y-11182650D01*
X143024500Y-11613749D01*
X143052828Y-11792606D01*
X143052829Y-11792609D01*
X143108789Y-11964839D01*
X143191004Y-12126194D01*
X143297447Y-12272701D01*
X143425499Y-12400753D01*
X143572006Y-12507196D01*
X143733361Y-12589411D01*
X143905591Y-12645371D01*
X143977136Y-12656702D01*
X144084451Y-12673700D01*
X144084454Y-12673700D01*
X144265549Y-12673700D01*
X144354977Y-12659535D01*
X144444409Y-12645371D01*
X144616639Y-12589411D01*
X144777994Y-12507196D01*
X144924501Y-12400753D01*
X145052553Y-12272701D01*
X145158996Y-12126194D01*
X145241211Y-11964839D01*
X145297171Y-11792609D01*
X145325500Y-11613746D01*
X145325500Y-11182654D01*
X145325500Y-11182650D01*
X145524500Y-11182650D01*
X145524500Y-11613749D01*
X145552828Y-11792606D01*
X145552829Y-11792609D01*
X145608789Y-11964839D01*
X145691004Y-12126194D01*
X145797447Y-12272701D01*
X145925499Y-12400753D01*
X146072006Y-12507196D01*
X146233361Y-12589411D01*
X146405591Y-12645371D01*
X146477136Y-12656702D01*
X146584451Y-12673700D01*
X146584454Y-12673700D01*
X146765549Y-12673700D01*
X146854977Y-12659535D01*
X146944409Y-12645371D01*
X147116639Y-12589411D01*
X147277994Y-12507196D01*
X147424501Y-12400753D01*
X147552553Y-12272701D01*
X147658996Y-12126194D01*
X147741211Y-11964839D01*
X147797171Y-11792609D01*
X147825500Y-11613746D01*
X147825500Y-11182654D01*
X147825500Y-11182650D01*
X147799202Y-11016614D01*
X147797171Y-11003791D01*
X147741211Y-10831561D01*
X147658996Y-10670206D01*
X147552553Y-10523699D01*
X147424501Y-10395647D01*
X147277994Y-10289204D01*
X147277993Y-10289203D01*
X147277991Y-10289202D01*
X147116637Y-10206988D01*
X146944406Y-10151028D01*
X146765549Y-10122700D01*
X146765546Y-10122700D01*
X146584454Y-10122700D01*
X146584451Y-10122700D01*
X146405593Y-10151028D01*
X146233362Y-10206988D01*
X146072008Y-10289202D01*
X145998752Y-10342425D01*
X145925499Y-10395647D01*
X145797447Y-10523699D01*
X145784417Y-10541634D01*
X145691002Y-10670208D01*
X145608788Y-10831562D01*
X145552828Y-11003793D01*
X145524500Y-11182650D01*
X145325500Y-11182650D01*
X145299202Y-11016614D01*
X145297171Y-11003791D01*
X145241211Y-10831561D01*
X145158996Y-10670206D01*
X145052553Y-10523699D01*
X144924501Y-10395647D01*
X144777994Y-10289204D01*
X144777993Y-10289203D01*
X144777991Y-10289202D01*
X144616637Y-10206988D01*
X144444406Y-10151028D01*
X144265549Y-10122700D01*
X144265546Y-10122700D01*
X144084454Y-10122700D01*
X144084451Y-10122700D01*
X143905593Y-10151028D01*
X143733362Y-10206988D01*
X143572008Y-10289202D01*
X143498752Y-10342425D01*
X143425499Y-10395647D01*
X143297447Y-10523699D01*
X143284417Y-10541634D01*
X143191002Y-10670208D01*
X143108788Y-10831562D01*
X143052828Y-11003793D01*
X143024500Y-11182650D01*
X142825500Y-11182650D01*
X142799202Y-11016614D01*
X142797171Y-11003791D01*
X142741211Y-10831561D01*
X142658996Y-10670206D01*
X142552553Y-10523699D01*
X142424501Y-10395647D01*
X142277994Y-10289204D01*
X142277993Y-10289203D01*
X142277991Y-10289202D01*
X142116637Y-10206988D01*
X141944406Y-10151028D01*
X141765549Y-10122700D01*
X141765546Y-10122700D01*
X141584454Y-10122700D01*
X141584451Y-10122700D01*
X141405593Y-10151028D01*
X141233362Y-10206988D01*
X141072008Y-10289202D01*
X140998752Y-10342425D01*
X140925499Y-10395647D01*
X140797447Y-10523699D01*
X140784417Y-10541634D01*
X140691002Y-10670208D01*
X140608788Y-10831562D01*
X140552828Y-11003793D01*
X140524500Y-11182650D01*
X140325500Y-11182650D01*
X140299202Y-11016614D01*
X140297171Y-11003791D01*
X140241211Y-10831561D01*
X140158996Y-10670206D01*
X140052553Y-10523699D01*
X139924501Y-10395647D01*
X139777994Y-10289204D01*
X139777993Y-10289203D01*
X139777991Y-10289202D01*
X139616637Y-10206988D01*
X139444406Y-10151028D01*
X139265549Y-10122700D01*
X139265546Y-10122700D01*
X139084454Y-10122700D01*
X139084451Y-10122700D01*
X138905593Y-10151028D01*
X138733362Y-10206988D01*
X138572008Y-10289202D01*
X138498752Y-10342425D01*
X138425499Y-10395647D01*
X138297447Y-10523699D01*
X138284417Y-10541634D01*
X138191002Y-10670208D01*
X138108788Y-10831562D01*
X138077035Y-10929292D01*
X138041071Y-10978792D01*
X137982881Y-10997700D01*
X137970573Y-10997700D01*
X137938529Y-11006286D01*
X137899983Y-11016614D01*
X137838882Y-11013411D01*
X137791332Y-10974905D01*
X137780207Y-10951582D01*
X137741211Y-10831561D01*
X137658996Y-10670206D01*
X137552553Y-10523699D01*
X137424501Y-10395647D01*
X137277994Y-10289204D01*
X137277993Y-10289203D01*
X137277991Y-10289202D01*
X137116637Y-10206988D01*
X136944406Y-10151028D01*
X136765549Y-10122700D01*
X136765546Y-10122700D01*
X136584454Y-10122700D01*
X136584451Y-10122700D01*
X136405593Y-10151028D01*
X136233362Y-10206988D01*
X136072008Y-10289202D01*
X135998752Y-10342425D01*
X135925499Y-10395647D01*
X135797447Y-10523699D01*
X135784417Y-10541634D01*
X135691002Y-10670208D01*
X135608788Y-10831562D01*
X135552828Y-11003793D01*
X135524500Y-11182650D01*
X135524500Y-11613749D01*
X135552828Y-11792606D01*
X135552829Y-11792609D01*
X135608789Y-11964839D01*
X135691004Y-12126194D01*
X135797447Y-12272701D01*
X135925499Y-12400753D01*
X136072006Y-12507196D01*
X136233361Y-12589411D01*
X136405591Y-12645371D01*
X136417452Y-12647249D01*
X136471969Y-12675025D01*
X136499749Y-12729540D01*
X136490179Y-12789973D01*
X136471972Y-12815035D01*
X123488903Y-25798104D01*
X123434386Y-25825881D01*
X123418899Y-25827100D01*
X64569673Y-25827100D01*
X64467813Y-25854393D01*
X64467812Y-25854393D01*
X64467810Y-25854394D01*
X64467809Y-25854394D01*
X64376489Y-25907118D01*
X55986403Y-34297204D01*
X55931886Y-34324981D01*
X55916399Y-34326200D01*
X50624000Y-34326200D01*
X50565809Y-34307293D01*
X50553996Y-34297204D01*
X49840096Y-33583303D01*
X49812319Y-33528786D01*
X49811100Y-33513299D01*
X49811100Y-33441144D01*
X49811100Y-33441143D01*
X49770177Y-33288416D01*
X49691120Y-33151484D01*
X49579316Y-33039680D01*
X49442384Y-32960623D01*
X49289657Y-32919700D01*
X49131543Y-32919700D01*
X48978816Y-32960623D01*
X48841884Y-33039680D01*
X48730080Y-33151484D01*
X48651023Y-33288416D01*
X48610100Y-33441143D01*
X32507536Y-33441143D01*
X28367484Y-29301091D01*
X28339707Y-29246574D01*
X28349278Y-29186142D01*
X28351737Y-29181612D01*
X28398344Y-29100888D01*
X28486158Y-28888887D01*
X28545548Y-28667238D01*
X28572797Y-28460265D01*
X50324500Y-28460265D01*
X50324500Y-28689734D01*
X50354452Y-28917238D01*
X50413841Y-29138885D01*
X50501653Y-29350883D01*
X50577157Y-29481661D01*
X50616389Y-29549612D01*
X50756081Y-29731661D01*
X50918339Y-29893919D01*
X51100388Y-30033611D01*
X51299112Y-30148344D01*
X51299113Y-30148344D01*
X51299116Y-30148346D01*
X51395167Y-30188131D01*
X51511113Y-30236158D01*
X51732762Y-30295548D01*
X51960266Y-30325500D01*
X51960267Y-30325500D01*
X52189733Y-30325500D01*
X52189734Y-30325500D01*
X52417238Y-30295548D01*
X52638887Y-30236158D01*
X52850888Y-30148344D01*
X53049612Y-30033611D01*
X53231661Y-29893919D01*
X53393919Y-29731661D01*
X53533611Y-29549612D01*
X53648344Y-29350888D01*
X53736158Y-29138887D01*
X53795548Y-28917238D01*
X53809459Y-28811577D01*
X53835800Y-28756353D01*
X53889571Y-28727158D01*
X53907612Y-28725500D01*
X56094097Y-28725500D01*
X56152288Y-28744407D01*
X56188252Y-28793907D01*
X56189724Y-28798877D01*
X56213841Y-28888885D01*
X56301653Y-29100883D01*
X56386230Y-29247376D01*
X56416389Y-29299612D01*
X56556081Y-29481661D01*
X56718339Y-29643919D01*
X56900388Y-29783611D01*
X57099112Y-29898344D01*
X57099113Y-29898344D01*
X57099116Y-29898346D01*
X57195167Y-29938131D01*
X57311113Y-29986158D01*
X57532762Y-30045548D01*
X57760266Y-30075500D01*
X57760267Y-30075500D01*
X57989733Y-30075500D01*
X57989734Y-30075500D01*
X58217238Y-30045548D01*
X58438887Y-29986158D01*
X58650888Y-29898344D01*
X58849612Y-29783611D01*
X59031661Y-29643919D01*
X59193919Y-29481661D01*
X59333611Y-29299612D01*
X59448344Y-29100888D01*
X59536158Y-28888887D01*
X59595548Y-28667238D01*
X59625500Y-28439734D01*
X59625500Y-28210266D01*
X59595548Y-27982762D01*
X59536158Y-27761113D01*
X59448344Y-27549112D01*
X59333611Y-27350388D01*
X59193919Y-27168339D01*
X59031661Y-27006081D01*
X58849612Y-26866389D01*
X58849613Y-26866389D01*
X58849611Y-26866388D01*
X58650883Y-26751653D01*
X58438885Y-26663841D01*
X58217238Y-26604452D01*
X57989734Y-26574500D01*
X57760266Y-26574500D01*
X57760265Y-26574500D01*
X57532761Y-26604452D01*
X57311114Y-26663841D01*
X57099116Y-26751653D01*
X56900388Y-26866388D01*
X56718342Y-27006078D01*
X56556078Y-27168342D01*
X56416388Y-27350388D01*
X56301653Y-27549116D01*
X56213841Y-27761114D01*
X56189724Y-27851123D01*
X56156400Y-27902438D01*
X56099278Y-27924364D01*
X56094097Y-27924500D01*
X53766432Y-27924500D01*
X53708241Y-27905593D01*
X53674968Y-27863386D01*
X53648346Y-27799116D01*
X53533611Y-27600388D01*
X53393921Y-27418342D01*
X53393919Y-27418339D01*
X53231661Y-27256081D01*
X53049612Y-27116389D01*
X53049613Y-27116389D01*
X53049611Y-27116388D01*
X52850883Y-27001653D01*
X52638885Y-26913841D01*
X52417238Y-26854452D01*
X52189734Y-26824500D01*
X51960266Y-26824500D01*
X51960265Y-26824500D01*
X51732761Y-26854452D01*
X51511114Y-26913841D01*
X51299116Y-27001653D01*
X51100388Y-27116388D01*
X50918342Y-27256078D01*
X50756078Y-27418342D01*
X50616388Y-27600388D01*
X50501653Y-27799116D01*
X50413841Y-28011114D01*
X50354452Y-28232761D01*
X50324500Y-28460265D01*
X28572797Y-28460265D01*
X28575500Y-28439734D01*
X28575500Y-28210266D01*
X28545548Y-27982762D01*
X28486158Y-27761113D01*
X28398344Y-27549112D01*
X28283611Y-27350388D01*
X28143919Y-27168339D01*
X27981661Y-27006081D01*
X27799612Y-26866389D01*
X27799613Y-26866389D01*
X27799611Y-26866388D01*
X27600883Y-26751653D01*
X27388885Y-26663841D01*
X27167238Y-26604452D01*
X26939734Y-26574500D01*
X26710266Y-26574500D01*
X26710265Y-26574500D01*
X26482761Y-26604452D01*
X26261114Y-26663841D01*
X26049116Y-26751653D01*
X25850388Y-26866388D01*
X25668342Y-27006078D01*
X25506078Y-27168342D01*
X25366388Y-27350388D01*
X25251653Y-27549116D01*
X25163841Y-27761114D01*
X25139724Y-27851123D01*
X25106400Y-27902438D01*
X25049278Y-27924364D01*
X25044097Y-27924500D01*
X22716432Y-27924500D01*
X22658241Y-27905593D01*
X22624968Y-27863386D01*
X22598346Y-27799116D01*
X22483611Y-27600388D01*
X22343921Y-27418342D01*
X22343919Y-27418339D01*
X22181661Y-27256081D01*
X21999612Y-27116389D01*
X21999613Y-27116389D01*
X21999611Y-27116388D01*
X21800883Y-27001653D01*
X21588885Y-26913841D01*
X21367238Y-26854452D01*
X21139734Y-26824500D01*
X20910266Y-26824500D01*
X20910265Y-26824500D01*
X20682761Y-26854452D01*
X20461114Y-26913841D01*
X20249116Y-27001653D01*
X20050388Y-27116388D01*
X19868342Y-27256078D01*
X19706078Y-27418342D01*
X19566388Y-27600388D01*
X19451653Y-27799116D01*
X19363841Y-28011114D01*
X19304452Y-28232761D01*
X19274500Y-28460265D01*
X500500Y-28460265D01*
X500500Y-22410265D01*
X13124500Y-22410265D01*
X13124500Y-22639734D01*
X13154452Y-22867238D01*
X13213841Y-23088885D01*
X13301653Y-23300883D01*
X13301656Y-23300888D01*
X13416389Y-23499612D01*
X13556081Y-23681661D01*
X13718339Y-23843919D01*
X13900388Y-23983611D01*
X14099112Y-24098344D01*
X14099113Y-24098344D01*
X14099116Y-24098346D01*
X14195167Y-24138131D01*
X14311113Y-24186158D01*
X14532762Y-24245548D01*
X14760266Y-24275500D01*
X14760267Y-24275500D01*
X14989733Y-24275500D01*
X14989734Y-24275500D01*
X15217238Y-24245548D01*
X15438887Y-24186158D01*
X15650888Y-24098344D01*
X15849612Y-23983611D01*
X16031661Y-23843919D01*
X16193919Y-23681661D01*
X16333611Y-23499612D01*
X16448344Y-23300888D01*
X16536158Y-23088887D01*
X16595548Y-22867238D01*
X16625500Y-22639734D01*
X16625500Y-22410266D01*
X16625500Y-22410265D01*
X44174500Y-22410265D01*
X44174500Y-22639734D01*
X44204452Y-22867238D01*
X44263841Y-23088885D01*
X44351653Y-23300883D01*
X44351656Y-23300888D01*
X44466389Y-23499612D01*
X44606081Y-23681661D01*
X44768339Y-23843919D01*
X44950388Y-23983611D01*
X45149112Y-24098344D01*
X45149113Y-24098344D01*
X45149116Y-24098346D01*
X45245167Y-24138131D01*
X45361113Y-24186158D01*
X45582762Y-24245548D01*
X45810266Y-24275500D01*
X45810267Y-24275500D01*
X46039733Y-24275500D01*
X46039734Y-24275500D01*
X46267238Y-24245548D01*
X46488887Y-24186158D01*
X46700888Y-24098344D01*
X46899612Y-23983611D01*
X47081661Y-23843919D01*
X47243919Y-23681661D01*
X47383611Y-23499612D01*
X47498344Y-23300888D01*
X47586158Y-23088887D01*
X47645548Y-22867238D01*
X47675500Y-22639734D01*
X47675500Y-22410266D01*
X47675500Y-22410265D01*
X75224500Y-22410265D01*
X75224500Y-22639734D01*
X75254452Y-22867238D01*
X75313841Y-23088885D01*
X75401653Y-23300883D01*
X75401656Y-23300888D01*
X75516389Y-23499612D01*
X75656081Y-23681661D01*
X75818339Y-23843919D01*
X76000388Y-23983611D01*
X76199112Y-24098344D01*
X76199113Y-24098344D01*
X76199116Y-24098346D01*
X76295167Y-24138131D01*
X76411113Y-24186158D01*
X76632762Y-24245548D01*
X76860266Y-24275500D01*
X76860267Y-24275500D01*
X77089733Y-24275500D01*
X77089734Y-24275500D01*
X77317238Y-24245548D01*
X77538887Y-24186158D01*
X77750888Y-24098344D01*
X77949612Y-23983611D01*
X78131661Y-23843919D01*
X78293919Y-23681661D01*
X78433611Y-23499612D01*
X78548344Y-23300888D01*
X78636158Y-23088887D01*
X78695548Y-22867238D01*
X78725500Y-22639734D01*
X78725500Y-22410266D01*
X78725500Y-22410265D01*
X106274500Y-22410265D01*
X106274500Y-22639734D01*
X106304452Y-22867238D01*
X106363841Y-23088885D01*
X106451653Y-23300883D01*
X106451656Y-23300888D01*
X106566389Y-23499612D01*
X106706081Y-23681661D01*
X106868339Y-23843919D01*
X107050388Y-23983611D01*
X107249112Y-24098344D01*
X107249113Y-24098344D01*
X107249116Y-24098346D01*
X107345167Y-24138131D01*
X107461113Y-24186158D01*
X107682762Y-24245548D01*
X107910266Y-24275500D01*
X107910267Y-24275500D01*
X108139733Y-24275500D01*
X108139734Y-24275500D01*
X108367238Y-24245548D01*
X108588887Y-24186158D01*
X108800888Y-24098344D01*
X108999612Y-23983611D01*
X109181661Y-23843919D01*
X109343919Y-23681661D01*
X109483611Y-23499612D01*
X109598344Y-23300888D01*
X109686158Y-23088887D01*
X109745548Y-22867238D01*
X109775500Y-22639734D01*
X109775500Y-22410266D01*
X109745548Y-22182762D01*
X109686158Y-21961113D01*
X109598344Y-21749112D01*
X109483611Y-21550388D01*
X109343919Y-21368339D01*
X109181661Y-21206081D01*
X108999612Y-21066389D01*
X108999613Y-21066389D01*
X108999611Y-21066388D01*
X108800883Y-20951653D01*
X108588885Y-20863841D01*
X108367238Y-20804452D01*
X108139734Y-20774500D01*
X107910266Y-20774500D01*
X107910265Y-20774500D01*
X107682761Y-20804452D01*
X107461114Y-20863841D01*
X107249116Y-20951653D01*
X107050388Y-21066388D01*
X106868342Y-21206078D01*
X106706078Y-21368342D01*
X106566388Y-21550388D01*
X106451653Y-21749116D01*
X106363841Y-21961114D01*
X106304452Y-22182761D01*
X106274500Y-22410265D01*
X78725500Y-22410265D01*
X78695548Y-22182762D01*
X78636158Y-21961113D01*
X78548344Y-21749112D01*
X78433611Y-21550388D01*
X78293919Y-21368339D01*
X78131661Y-21206081D01*
X77949612Y-21066389D01*
X77949613Y-21066389D01*
X77949611Y-21066388D01*
X77750883Y-20951653D01*
X77538885Y-20863841D01*
X77317238Y-20804452D01*
X77089734Y-20774500D01*
X76860266Y-20774500D01*
X76860265Y-20774500D01*
X76632761Y-20804452D01*
X76411114Y-20863841D01*
X76199116Y-20951653D01*
X76000388Y-21066388D01*
X75818342Y-21206078D01*
X75656078Y-21368342D01*
X75516388Y-21550388D01*
X75401653Y-21749116D01*
X75313841Y-21961114D01*
X75254452Y-22182761D01*
X75224500Y-22410265D01*
X47675500Y-22410265D01*
X47645548Y-22182762D01*
X47586158Y-21961113D01*
X47498344Y-21749112D01*
X47383611Y-21550388D01*
X47243919Y-21368339D01*
X47081661Y-21206081D01*
X46899612Y-21066389D01*
X46899613Y-21066389D01*
X46899611Y-21066388D01*
X46700883Y-20951653D01*
X46488885Y-20863841D01*
X46267238Y-20804452D01*
X46039734Y-20774500D01*
X45810266Y-20774500D01*
X45810265Y-20774500D01*
X45582761Y-20804452D01*
X45361114Y-20863841D01*
X45149116Y-20951653D01*
X44950388Y-21066388D01*
X44768342Y-21206078D01*
X44606078Y-21368342D01*
X44466388Y-21550388D01*
X44351653Y-21749116D01*
X44263841Y-21961114D01*
X44204452Y-22182761D01*
X44174500Y-22410265D01*
X16625500Y-22410265D01*
X16595548Y-22182762D01*
X16536158Y-21961113D01*
X16448344Y-21749112D01*
X16333611Y-21550388D01*
X16193919Y-21368339D01*
X16031661Y-21206081D01*
X15849612Y-21066389D01*
X15849613Y-21066389D01*
X15849611Y-21066388D01*
X15650883Y-20951653D01*
X15438885Y-20863841D01*
X15217238Y-20804452D01*
X14989734Y-20774500D01*
X14760266Y-20774500D01*
X14760265Y-20774500D01*
X14532761Y-20804452D01*
X14311114Y-20863841D01*
X14099116Y-20951653D01*
X13900388Y-21066388D01*
X13718342Y-21206078D01*
X13556078Y-21368342D01*
X13416388Y-21550388D01*
X13301653Y-21749116D01*
X13213841Y-21961114D01*
X13154452Y-22182761D01*
X13124500Y-22410265D01*
X500500Y-22410265D01*
X500500Y-17210265D01*
X14074500Y-17210265D01*
X14074500Y-17439734D01*
X14104452Y-17667238D01*
X14163841Y-17888885D01*
X14251653Y-18100883D01*
X14251656Y-18100888D01*
X14366389Y-18299612D01*
X14506081Y-18481661D01*
X14668339Y-18643919D01*
X14850388Y-18783611D01*
X15049112Y-18898344D01*
X15049113Y-18898344D01*
X15049116Y-18898346D01*
X15145167Y-18938131D01*
X15261113Y-18986158D01*
X15482762Y-19045548D01*
X15710266Y-19075500D01*
X15710267Y-19075500D01*
X15939733Y-19075500D01*
X15939734Y-19075500D01*
X16167238Y-19045548D01*
X16388887Y-18986158D01*
X16600888Y-18898344D01*
X16799612Y-18783611D01*
X16981661Y-18643919D01*
X17143919Y-18481661D01*
X17283611Y-18299612D01*
X17398344Y-18100888D01*
X17486158Y-17888887D01*
X17545548Y-17667238D01*
X17575500Y-17439734D01*
X17575500Y-17210266D01*
X17575500Y-17210265D01*
X45124500Y-17210265D01*
X45124500Y-17439734D01*
X45154452Y-17667238D01*
X45213841Y-17888885D01*
X45301653Y-18100883D01*
X45301656Y-18100888D01*
X45416389Y-18299612D01*
X45556081Y-18481661D01*
X45718339Y-18643919D01*
X45900388Y-18783611D01*
X46099112Y-18898344D01*
X46099113Y-18898344D01*
X46099116Y-18898346D01*
X46195167Y-18938131D01*
X46311113Y-18986158D01*
X46532762Y-19045548D01*
X46760266Y-19075500D01*
X46760267Y-19075500D01*
X46989733Y-19075500D01*
X46989734Y-19075500D01*
X47217238Y-19045548D01*
X47438887Y-18986158D01*
X47650888Y-18898344D01*
X47849612Y-18783611D01*
X48031661Y-18643919D01*
X48193919Y-18481661D01*
X48333611Y-18299612D01*
X48448344Y-18100888D01*
X48536158Y-17888887D01*
X48595548Y-17667238D01*
X48625500Y-17439734D01*
X48625500Y-17210266D01*
X48625500Y-17210265D01*
X76174500Y-17210265D01*
X76174500Y-17439734D01*
X76204452Y-17667238D01*
X76263841Y-17888885D01*
X76351653Y-18100883D01*
X76351656Y-18100888D01*
X76466389Y-18299612D01*
X76606081Y-18481661D01*
X76768339Y-18643919D01*
X76950388Y-18783611D01*
X77149112Y-18898344D01*
X77149113Y-18898344D01*
X77149116Y-18898346D01*
X77245167Y-18938131D01*
X77361113Y-18986158D01*
X77582762Y-19045548D01*
X77810266Y-19075500D01*
X77810267Y-19075500D01*
X78039733Y-19075500D01*
X78039734Y-19075500D01*
X78267238Y-19045548D01*
X78488887Y-18986158D01*
X78700888Y-18898344D01*
X78899612Y-18783611D01*
X79081661Y-18643919D01*
X79243919Y-18481661D01*
X79383611Y-18299612D01*
X79498344Y-18100888D01*
X79586158Y-17888887D01*
X79645548Y-17667238D01*
X79675500Y-17439734D01*
X79675500Y-17210266D01*
X79675500Y-17210265D01*
X107224500Y-17210265D01*
X107224500Y-17439734D01*
X107254452Y-17667238D01*
X107313841Y-17888885D01*
X107401653Y-18100883D01*
X107401656Y-18100888D01*
X107516389Y-18299612D01*
X107656081Y-18481661D01*
X107818339Y-18643919D01*
X108000388Y-18783611D01*
X108199112Y-18898344D01*
X108199113Y-18898344D01*
X108199116Y-18898346D01*
X108295167Y-18938131D01*
X108411113Y-18986158D01*
X108632762Y-19045548D01*
X108860266Y-19075500D01*
X108860267Y-19075500D01*
X109089733Y-19075500D01*
X109089734Y-19075500D01*
X109317238Y-19045548D01*
X109538887Y-18986158D01*
X109750888Y-18898344D01*
X109949612Y-18783611D01*
X110131661Y-18643919D01*
X110293919Y-18481661D01*
X110433611Y-18299612D01*
X110548344Y-18100888D01*
X110636158Y-17888887D01*
X110695548Y-17667238D01*
X110725500Y-17439734D01*
X110725500Y-17210266D01*
X110695548Y-16982762D01*
X110636158Y-16761113D01*
X110548344Y-16549112D01*
X110433611Y-16350388D01*
X110293919Y-16168339D01*
X110131661Y-16006081D01*
X109949612Y-15866389D01*
X109949613Y-15866389D01*
X109949611Y-15866388D01*
X109750883Y-15751653D01*
X109538885Y-15663841D01*
X109317238Y-15604452D01*
X109089734Y-15574500D01*
X108860266Y-15574500D01*
X108860265Y-15574500D01*
X108632761Y-15604452D01*
X108411114Y-15663841D01*
X108199116Y-15751653D01*
X108000388Y-15866388D01*
X107818342Y-16006078D01*
X107656078Y-16168342D01*
X107516388Y-16350388D01*
X107401653Y-16549116D01*
X107313841Y-16761114D01*
X107254452Y-16982761D01*
X107224500Y-17210265D01*
X79675500Y-17210265D01*
X79645548Y-16982762D01*
X79586158Y-16761113D01*
X79498344Y-16549112D01*
X79383611Y-16350388D01*
X79243919Y-16168339D01*
X79081661Y-16006081D01*
X78899612Y-15866389D01*
X78899613Y-15866389D01*
X78899611Y-15866388D01*
X78700883Y-15751653D01*
X78488885Y-15663841D01*
X78267238Y-15604452D01*
X78039734Y-15574500D01*
X77810266Y-15574500D01*
X77810265Y-15574500D01*
X77582761Y-15604452D01*
X77361114Y-15663841D01*
X77149116Y-15751653D01*
X76950388Y-15866388D01*
X76768342Y-16006078D01*
X76606078Y-16168342D01*
X76466388Y-16350388D01*
X76351653Y-16549116D01*
X76263841Y-16761114D01*
X76204452Y-16982761D01*
X76174500Y-17210265D01*
X48625500Y-17210265D01*
X48595548Y-16982762D01*
X48536158Y-16761113D01*
X48448344Y-16549112D01*
X48333611Y-16350388D01*
X48193919Y-16168339D01*
X48031661Y-16006081D01*
X47849612Y-15866389D01*
X47849613Y-15866389D01*
X47849611Y-15866388D01*
X47650883Y-15751653D01*
X47438885Y-15663841D01*
X47217238Y-15604452D01*
X46989734Y-15574500D01*
X46760266Y-15574500D01*
X46760265Y-15574500D01*
X46532761Y-15604452D01*
X46311114Y-15663841D01*
X46099116Y-15751653D01*
X45900388Y-15866388D01*
X45718342Y-16006078D01*
X45556078Y-16168342D01*
X45416388Y-16350388D01*
X45301653Y-16549116D01*
X45213841Y-16761114D01*
X45154452Y-16982761D01*
X45124500Y-17210265D01*
X17575500Y-17210265D01*
X17545548Y-16982762D01*
X17486158Y-16761113D01*
X17398344Y-16549112D01*
X17283611Y-16350388D01*
X17143919Y-16168339D01*
X16981661Y-16006081D01*
X16799612Y-15866389D01*
X16799613Y-15866389D01*
X16799611Y-15866388D01*
X16600883Y-15751653D01*
X16388885Y-15663841D01*
X16167238Y-15604452D01*
X15939734Y-15574500D01*
X15710266Y-15574500D01*
X15710265Y-15574500D01*
X15482761Y-15604452D01*
X15261114Y-15663841D01*
X15049116Y-15751653D01*
X14850388Y-15866388D01*
X14668342Y-16006078D01*
X14506078Y-16168342D01*
X14366388Y-16350388D01*
X14251653Y-16549116D01*
X14163841Y-16761114D01*
X14104452Y-16982761D01*
X14074500Y-17210265D01*
X500500Y-17210265D01*
X500500Y-10630093D01*
X133024500Y-10630093D01*
X133024500Y-12166306D01*
X133035123Y-12254765D01*
X133090637Y-12395539D01*
X133090638Y-12395541D01*
X133090639Y-12395542D01*
X133182078Y-12516122D01*
X133302658Y-12607561D01*
X133302659Y-12607561D01*
X133302660Y-12607562D01*
X133373047Y-12635319D01*
X133443436Y-12663077D01*
X133531898Y-12673700D01*
X133531900Y-12673700D01*
X134818100Y-12673700D01*
X134818102Y-12673700D01*
X134906564Y-12663077D01*
X135047342Y-12607561D01*
X135167922Y-12516122D01*
X135259361Y-12395542D01*
X135314877Y-12254764D01*
X135325500Y-12166302D01*
X135325500Y-10630098D01*
X135314877Y-10541636D01*
X135259361Y-10400858D01*
X135167922Y-10280278D01*
X135047342Y-10188839D01*
X135047341Y-10188838D01*
X135047339Y-10188837D01*
X134906565Y-10133323D01*
X134818106Y-10122700D01*
X134818102Y-10122700D01*
X133531898Y-10122700D01*
X133531893Y-10122700D01*
X133443434Y-10133323D01*
X133302660Y-10188837D01*
X133302656Y-10188840D01*
X133182081Y-10280275D01*
X133182075Y-10280281D01*
X133090640Y-10400856D01*
X133090637Y-10400860D01*
X133035123Y-10541634D01*
X133024500Y-10630093D01*
X500500Y-10630093D01*
X500500Y-3378710D01*
X1649500Y-3378710D01*
X1649500Y-3621289D01*
X1681161Y-3861781D01*
X1681161Y-3861786D01*
X1743944Y-4096092D01*
X1743948Y-4096105D01*
X1836772Y-4320204D01*
X1836774Y-4320208D01*
X1836776Y-4320212D01*
X1958064Y-4530289D01*
X1958066Y-4530292D01*
X2105729Y-4722731D01*
X2105731Y-4722733D01*
X2105735Y-4722738D01*
X2277262Y-4894265D01*
X2277266Y-4894268D01*
X2277268Y-4894270D01*
X2469707Y-5041933D01*
X2469711Y-5041936D01*
X2679788Y-5163224D01*
X2903900Y-5256054D01*
X3138211Y-5318838D01*
X3378712Y-5350500D01*
X3378713Y-5350500D01*
X3621287Y-5350500D01*
X3621288Y-5350500D01*
X3861789Y-5318838D01*
X4096100Y-5256054D01*
X4320212Y-5163224D01*
X4530289Y-5041936D01*
X4722738Y-4894265D01*
X4894265Y-4722738D01*
X5041936Y-4530289D01*
X5163224Y-4320212D01*
X5256054Y-4096100D01*
X5318838Y-3861789D01*
X5350500Y-3621288D01*
X5350500Y-3378712D01*
X5350500Y-3378710D01*
X154649500Y-3378710D01*
X154649500Y-3621289D01*
X154681161Y-3861781D01*
X154681161Y-3861786D01*
X154743944Y-4096092D01*
X154743948Y-4096105D01*
X154836772Y-4320204D01*
X154836774Y-4320208D01*
X154836776Y-4320212D01*
X154958064Y-4530289D01*
X154958066Y-4530292D01*
X155105729Y-4722731D01*
X155105731Y-4722733D01*
X155105735Y-4722738D01*
X155277262Y-4894265D01*
X155277266Y-4894268D01*
X155277268Y-4894270D01*
X155469707Y-5041933D01*
X155469711Y-5041936D01*
X155679788Y-5163224D01*
X155903900Y-5256054D01*
X156138211Y-5318838D01*
X156378712Y-5350500D01*
X156378713Y-5350500D01*
X156621287Y-5350500D01*
X156621288Y-5350500D01*
X156861789Y-5318838D01*
X157096100Y-5256054D01*
X157320212Y-5163224D01*
X157530289Y-5041936D01*
X157722738Y-4894265D01*
X157894265Y-4722738D01*
X158041936Y-4530289D01*
X158163224Y-4320212D01*
X158256054Y-4096100D01*
X158318838Y-3861789D01*
X158350500Y-3621288D01*
X158350500Y-3378712D01*
X158318838Y-3138211D01*
X158256054Y-2903900D01*
X158163224Y-2679788D01*
X158041936Y-2469711D01*
X157894265Y-2277262D01*
X157722738Y-2105735D01*
X157722733Y-2105731D01*
X157722731Y-2105729D01*
X157530292Y-1958066D01*
X157530289Y-1958064D01*
X157320212Y-1836776D01*
X157320208Y-1836774D01*
X157320204Y-1836772D01*
X157096105Y-1743948D01*
X157096104Y-1743947D01*
X157096100Y-1743946D01*
X156861789Y-1681162D01*
X156861786Y-1681161D01*
X156861784Y-1681161D01*
X156621289Y-1649500D01*
X156621288Y-1649500D01*
X156378712Y-1649500D01*
X156378710Y-1649500D01*
X156138218Y-1681161D01*
X156138213Y-1681161D01*
X155903907Y-1743944D01*
X155903894Y-1743948D01*
X155679795Y-1836772D01*
X155469707Y-1958066D01*
X155277268Y-2105729D01*
X155105729Y-2277268D01*
X154958066Y-2469707D01*
X154836772Y-2679795D01*
X154743948Y-2903894D01*
X154743944Y-2903907D01*
X154681161Y-3138213D01*
X154681161Y-3138218D01*
X154649500Y-3378710D01*
X5350500Y-3378710D01*
X5318838Y-3138211D01*
X5256054Y-2903900D01*
X5163224Y-2679788D01*
X5041936Y-2469711D01*
X4894265Y-2277262D01*
X4722738Y-2105735D01*
X4722733Y-2105731D01*
X4722731Y-2105729D01*
X4530292Y-1958066D01*
X4530289Y-1958064D01*
X4320212Y-1836776D01*
X4320208Y-1836774D01*
X4320204Y-1836772D01*
X4096105Y-1743948D01*
X4096104Y-1743947D01*
X4096100Y-1743946D01*
X3861789Y-1681162D01*
X3861786Y-1681161D01*
X3861784Y-1681161D01*
X3621289Y-1649500D01*
X3621288Y-1649500D01*
X3378712Y-1649500D01*
X3378710Y-1649500D01*
X3138218Y-1681161D01*
X3138213Y-1681161D01*
X2903907Y-1743944D01*
X2903894Y-1743948D01*
X2679795Y-1836772D01*
X2469707Y-1958066D01*
X2277268Y-2105729D01*
X2105729Y-2277268D01*
X1958066Y-2469707D01*
X1836772Y-2679795D01*
X1743948Y-2903894D01*
X1743944Y-2903907D01*
X1681161Y-3138213D01*
X1681161Y-3138218D01*
X1649500Y-3378710D01*
X500500Y-3378710D01*
X500500Y-599500D01*
X519407Y-541309D01*
X568907Y-505345D01*
X599500Y-500500D01*
X159400500Y-500500D01*
X159458691Y-519407D01*
G37*
%TD.AperFunction*%
%TD*%
M02*
