%TF.GenerationSoftware,KiCad,Pcbnew,10.0.6*%
%TF.CreationDate,2026-09-21T01:05:12-06:00*%
%TF.ProjectId,filter-pot-riser,66696c74-6572-42d7-906f-742d72697365,rev?*%
%TF.SameCoordinates,Original*%
%TF.FileFunction,Legend,Bot*%
%TF.FilePolarity,Positive*%
%FSLAX46Y46*%
G04 Gerber Fmt 4.6, Leading zero omitted, Abs format (unit mm)*
G04 Created by KiCad (PCBNEW 10.0.6) date 2026-09-21 01:05:12*
%MOMM*%
%LPD*%
G01*
G04 APERTURE LIST*
G04 Aperture macros list*
%AMRoundRect*
0 Rectangle with rounded corners*
0 $1 Rounding radius*
0 $2 $3 $4 $5 $6 $7 $8 $9 X,Y pos of 4 corners*
0 Add a 4 corners polygon primitive as box body*
4,1,4,$2,$3,$4,$5,$6,$7,$8,$9,$2,$3,0*
0 Add four circle primitives for the rounded corners*
1,1,$1+$1,$2,$3*
1,1,$1+$1,$4,$5*
1,1,$1+$1,$6,$7*
1,1,$1+$1,$8,$9*
0 Add four rect primitives between the rounded corners*
20,1,$1+$1,$2,$3,$4,$5,0*
20,1,$1+$1,$4,$5,$6,$7,0*
20,1,$1+$1,$6,$7,$8,$9,0*
20,1,$1+$1,$8,$9,$2,$3,0*%
G04 Aperture macros list end*
%ADD10C,0.150000*%
%ADD11R,1.800000X1.800000*%
%ADD12C,1.800000*%
%ADD13RoundRect,0.250000X-0.600000X-0.725000X0.600000X-0.725000X0.600000X0.725000X-0.600000X0.725000X0*%
%ADD14O,1.700000X1.950000*%
G04 APERTURE END LIST*
D10*
X39095239Y-5002438D02*
X39190477Y-4954819D01*
X39190477Y-4954819D02*
X39333334Y-4954819D01*
X39333334Y-4954819D02*
X39476191Y-5002438D01*
X39476191Y-5002438D02*
X39571429Y-5097676D01*
X39571429Y-5097676D02*
X39619048Y-5192914D01*
X39619048Y-5192914D02*
X39666667Y-5383390D01*
X39666667Y-5383390D02*
X39666667Y-5526247D01*
X39666667Y-5526247D02*
X39619048Y-5716723D01*
X39619048Y-5716723D02*
X39571429Y-5811961D01*
X39571429Y-5811961D02*
X39476191Y-5907200D01*
X39476191Y-5907200D02*
X39333334Y-5954819D01*
X39333334Y-5954819D02*
X39238096Y-5954819D01*
X39238096Y-5954819D02*
X39095239Y-5907200D01*
X39095239Y-5907200D02*
X39047620Y-5859580D01*
X39047620Y-5859580D02*
X39047620Y-5526247D01*
X39047620Y-5526247D02*
X39238096Y-5526247D01*
X38666667Y-5669104D02*
X38190477Y-5669104D01*
X38761905Y-5954819D02*
X38428572Y-4954819D01*
X38428572Y-4954819D02*
X38095239Y-5954819D01*
X37809524Y-5907200D02*
X37666667Y-5954819D01*
X37666667Y-5954819D02*
X37428572Y-5954819D01*
X37428572Y-5954819D02*
X37333334Y-5907200D01*
X37333334Y-5907200D02*
X37285715Y-5859580D01*
X37285715Y-5859580D02*
X37238096Y-5764342D01*
X37238096Y-5764342D02*
X37238096Y-5669104D01*
X37238096Y-5669104D02*
X37285715Y-5573866D01*
X37285715Y-5573866D02*
X37333334Y-5526247D01*
X37333334Y-5526247D02*
X37428572Y-5478628D01*
X37428572Y-5478628D02*
X37619048Y-5431009D01*
X37619048Y-5431009D02*
X37714286Y-5383390D01*
X37714286Y-5383390D02*
X37761905Y-5335771D01*
X37761905Y-5335771D02*
X37809524Y-5240533D01*
X37809524Y-5240533D02*
X37809524Y-5145295D01*
X37809524Y-5145295D02*
X37761905Y-5050057D01*
X37761905Y-5050057D02*
X37714286Y-5002438D01*
X37714286Y-5002438D02*
X37619048Y-4954819D01*
X37619048Y-4954819D02*
X37380953Y-4954819D01*
X37380953Y-4954819D02*
X37238096Y-5002438D01*
X35476191Y-5954819D02*
X35809524Y-5478628D01*
X36047619Y-5954819D02*
X36047619Y-4954819D01*
X36047619Y-4954819D02*
X35666667Y-4954819D01*
X35666667Y-4954819D02*
X35571429Y-5002438D01*
X35571429Y-5002438D02*
X35523810Y-5050057D01*
X35523810Y-5050057D02*
X35476191Y-5145295D01*
X35476191Y-5145295D02*
X35476191Y-5288152D01*
X35476191Y-5288152D02*
X35523810Y-5383390D01*
X35523810Y-5383390D02*
X35571429Y-5431009D01*
X35571429Y-5431009D02*
X35666667Y-5478628D01*
X35666667Y-5478628D02*
X36047619Y-5478628D01*
X35047619Y-5431009D02*
X34714286Y-5431009D01*
X34571429Y-5954819D02*
X35047619Y-5954819D01*
X35047619Y-5954819D02*
X35047619Y-4954819D01*
X35047619Y-4954819D02*
X34571429Y-4954819D01*
X34285714Y-4954819D02*
X33952381Y-5954819D01*
X33952381Y-5954819D02*
X33619048Y-4954819D01*
X31952381Y-5859580D02*
X32000000Y-5907200D01*
X32000000Y-5907200D02*
X32142857Y-5954819D01*
X32142857Y-5954819D02*
X32238095Y-5954819D01*
X32238095Y-5954819D02*
X32380952Y-5907200D01*
X32380952Y-5907200D02*
X32476190Y-5811961D01*
X32476190Y-5811961D02*
X32523809Y-5716723D01*
X32523809Y-5716723D02*
X32571428Y-5526247D01*
X32571428Y-5526247D02*
X32571428Y-5383390D01*
X32571428Y-5383390D02*
X32523809Y-5192914D01*
X32523809Y-5192914D02*
X32476190Y-5097676D01*
X32476190Y-5097676D02*
X32380952Y-5002438D01*
X32380952Y-5002438D02*
X32238095Y-4954819D01*
X32238095Y-4954819D02*
X32142857Y-4954819D01*
X32142857Y-4954819D02*
X32000000Y-5002438D01*
X32000000Y-5002438D02*
X31952381Y-5050057D01*
X30428571Y-5431009D02*
X30761904Y-5431009D01*
X30761904Y-5954819D02*
X30761904Y-4954819D01*
X30761904Y-4954819D02*
X30285714Y-4954819D01*
X29904761Y-5954819D02*
X29904761Y-4954819D01*
X28952381Y-5954819D02*
X29428571Y-5954819D01*
X29428571Y-5954819D02*
X29428571Y-4954819D01*
X28761904Y-4954819D02*
X28190476Y-4954819D01*
X28476190Y-5954819D02*
X28476190Y-4954819D01*
X27857142Y-5431009D02*
X27523809Y-5431009D01*
X27380952Y-5954819D02*
X27857142Y-5954819D01*
X27857142Y-5954819D02*
X27857142Y-4954819D01*
X27857142Y-4954819D02*
X27380952Y-4954819D01*
X26380952Y-5954819D02*
X26714285Y-5478628D01*
X26952380Y-5954819D02*
X26952380Y-4954819D01*
X26952380Y-4954819D02*
X26571428Y-4954819D01*
X26571428Y-4954819D02*
X26476190Y-5002438D01*
X26476190Y-5002438D02*
X26428571Y-5050057D01*
X26428571Y-5050057D02*
X26380952Y-5145295D01*
X26380952Y-5145295D02*
X26380952Y-5288152D01*
X26380952Y-5288152D02*
X26428571Y-5383390D01*
X26428571Y-5383390D02*
X26476190Y-5431009D01*
X26476190Y-5431009D02*
X26571428Y-5478628D01*
X26571428Y-5478628D02*
X26952380Y-5478628D01*
X25190475Y-5954819D02*
X25190475Y-4954819D01*
X25190475Y-4954819D02*
X24809523Y-4954819D01*
X24809523Y-4954819D02*
X24714285Y-5002438D01*
X24714285Y-5002438D02*
X24666666Y-5050057D01*
X24666666Y-5050057D02*
X24619047Y-5145295D01*
X24619047Y-5145295D02*
X24619047Y-5288152D01*
X24619047Y-5288152D02*
X24666666Y-5383390D01*
X24666666Y-5383390D02*
X24714285Y-5431009D01*
X24714285Y-5431009D02*
X24809523Y-5478628D01*
X24809523Y-5478628D02*
X25190475Y-5478628D01*
X23999999Y-4954819D02*
X23809523Y-4954819D01*
X23809523Y-4954819D02*
X23714285Y-5002438D01*
X23714285Y-5002438D02*
X23619047Y-5097676D01*
X23619047Y-5097676D02*
X23571428Y-5288152D01*
X23571428Y-5288152D02*
X23571428Y-5621485D01*
X23571428Y-5621485D02*
X23619047Y-5811961D01*
X23619047Y-5811961D02*
X23714285Y-5907200D01*
X23714285Y-5907200D02*
X23809523Y-5954819D01*
X23809523Y-5954819D02*
X23999999Y-5954819D01*
X23999999Y-5954819D02*
X24095237Y-5907200D01*
X24095237Y-5907200D02*
X24190475Y-5811961D01*
X24190475Y-5811961D02*
X24238094Y-5621485D01*
X24238094Y-5621485D02*
X24238094Y-5288152D01*
X24238094Y-5288152D02*
X24190475Y-5097676D01*
X24190475Y-5097676D02*
X24095237Y-5002438D01*
X24095237Y-5002438D02*
X23999999Y-4954819D01*
X23285713Y-4954819D02*
X22714285Y-4954819D01*
X22999999Y-5954819D02*
X22999999Y-4954819D01*
X21047618Y-5954819D02*
X21380951Y-5478628D01*
X21619046Y-5954819D02*
X21619046Y-4954819D01*
X21619046Y-4954819D02*
X21238094Y-4954819D01*
X21238094Y-4954819D02*
X21142856Y-5002438D01*
X21142856Y-5002438D02*
X21095237Y-5050057D01*
X21095237Y-5050057D02*
X21047618Y-5145295D01*
X21047618Y-5145295D02*
X21047618Y-5288152D01*
X21047618Y-5288152D02*
X21095237Y-5383390D01*
X21095237Y-5383390D02*
X21142856Y-5431009D01*
X21142856Y-5431009D02*
X21238094Y-5478628D01*
X21238094Y-5478628D02*
X21619046Y-5478628D01*
X20619046Y-5954819D02*
X20619046Y-4954819D01*
X20190475Y-5907200D02*
X20047618Y-5954819D01*
X20047618Y-5954819D02*
X19809523Y-5954819D01*
X19809523Y-5954819D02*
X19714285Y-5907200D01*
X19714285Y-5907200D02*
X19666666Y-5859580D01*
X19666666Y-5859580D02*
X19619047Y-5764342D01*
X19619047Y-5764342D02*
X19619047Y-5669104D01*
X19619047Y-5669104D02*
X19666666Y-5573866D01*
X19666666Y-5573866D02*
X19714285Y-5526247D01*
X19714285Y-5526247D02*
X19809523Y-5478628D01*
X19809523Y-5478628D02*
X19999999Y-5431009D01*
X19999999Y-5431009D02*
X20095237Y-5383390D01*
X20095237Y-5383390D02*
X20142856Y-5335771D01*
X20142856Y-5335771D02*
X20190475Y-5240533D01*
X20190475Y-5240533D02*
X20190475Y-5145295D01*
X20190475Y-5145295D02*
X20142856Y-5050057D01*
X20142856Y-5050057D02*
X20095237Y-5002438D01*
X20095237Y-5002438D02*
X19999999Y-4954819D01*
X19999999Y-4954819D02*
X19761904Y-4954819D01*
X19761904Y-4954819D02*
X19619047Y-5002438D01*
X19190475Y-5431009D02*
X18857142Y-5431009D01*
X18714285Y-5954819D02*
X19190475Y-5954819D01*
X19190475Y-5954819D02*
X19190475Y-4954819D01*
X19190475Y-4954819D02*
X18714285Y-4954819D01*
X17714285Y-5954819D02*
X18047618Y-5478628D01*
X18285713Y-5954819D02*
X18285713Y-4954819D01*
X18285713Y-4954819D02*
X17904761Y-4954819D01*
X17904761Y-4954819D02*
X17809523Y-5002438D01*
X17809523Y-5002438D02*
X17761904Y-5050057D01*
X17761904Y-5050057D02*
X17714285Y-5145295D01*
X17714285Y-5145295D02*
X17714285Y-5288152D01*
X17714285Y-5288152D02*
X17761904Y-5383390D01*
X17761904Y-5383390D02*
X17809523Y-5431009D01*
X17809523Y-5431009D02*
X17904761Y-5478628D01*
X17904761Y-5478628D02*
X18285713Y-5478628D01*
X16523808Y-5573866D02*
X15761904Y-5573866D01*
X14523808Y-5954819D02*
X14523808Y-4954819D01*
X14523808Y-5431009D02*
X13952380Y-5431009D01*
X13952380Y-5954819D02*
X13952380Y-4954819D01*
X13476189Y-5954819D02*
X13476189Y-4954819D01*
X13476189Y-4954819D02*
X13095237Y-4954819D01*
X13095237Y-4954819D02*
X12999999Y-5002438D01*
X12999999Y-5002438D02*
X12952380Y-5050057D01*
X12952380Y-5050057D02*
X12904761Y-5145295D01*
X12904761Y-5145295D02*
X12904761Y-5288152D01*
X12904761Y-5288152D02*
X12952380Y-5383390D01*
X12952380Y-5383390D02*
X12999999Y-5431009D01*
X12999999Y-5431009D02*
X13095237Y-5478628D01*
X13095237Y-5478628D02*
X13476189Y-5478628D01*
X12142856Y-5431009D02*
X12476189Y-5431009D01*
X12476189Y-5954819D02*
X12476189Y-4954819D01*
X12476189Y-4954819D02*
X11999999Y-4954819D01*
X10714284Y-5954819D02*
X10809522Y-5907200D01*
X10809522Y-5907200D02*
X10857141Y-5859580D01*
X10857141Y-5859580D02*
X10904760Y-5764342D01*
X10904760Y-5764342D02*
X10904760Y-5478628D01*
X10904760Y-5478628D02*
X10857141Y-5383390D01*
X10857141Y-5383390D02*
X10809522Y-5335771D01*
X10809522Y-5335771D02*
X10714284Y-5288152D01*
X10714284Y-5288152D02*
X10571427Y-5288152D01*
X10571427Y-5288152D02*
X10476189Y-5335771D01*
X10476189Y-5335771D02*
X10428570Y-5383390D01*
X10428570Y-5383390D02*
X10380951Y-5478628D01*
X10380951Y-5478628D02*
X10380951Y-5764342D01*
X10380951Y-5764342D02*
X10428570Y-5859580D01*
X10428570Y-5859580D02*
X10476189Y-5907200D01*
X10476189Y-5907200D02*
X10571427Y-5954819D01*
X10571427Y-5954819D02*
X10714284Y-5954819D01*
X9952379Y-5954819D02*
X9952379Y-5288152D01*
X9952379Y-5478628D02*
X9904760Y-5383390D01*
X9904760Y-5383390D02*
X9857141Y-5335771D01*
X9857141Y-5335771D02*
X9761903Y-5288152D01*
X9761903Y-5288152D02*
X9666665Y-5288152D01*
X8095236Y-5954819D02*
X8571426Y-5954819D01*
X8571426Y-5954819D02*
X8571426Y-4954819D01*
X7761902Y-5954819D02*
X7761902Y-4954819D01*
X7761902Y-4954819D02*
X7380950Y-4954819D01*
X7380950Y-4954819D02*
X7285712Y-5002438D01*
X7285712Y-5002438D02*
X7238093Y-5050057D01*
X7238093Y-5050057D02*
X7190474Y-5145295D01*
X7190474Y-5145295D02*
X7190474Y-5288152D01*
X7190474Y-5288152D02*
X7238093Y-5383390D01*
X7238093Y-5383390D02*
X7285712Y-5431009D01*
X7285712Y-5431009D02*
X7380950Y-5478628D01*
X7380950Y-5478628D02*
X7761902Y-5478628D01*
X6428569Y-5431009D02*
X6761902Y-5431009D01*
X6761902Y-5954819D02*
X6761902Y-4954819D01*
X6761902Y-4954819D02*
X6285712Y-4954819D01*
X41071430Y-9954819D02*
X41071430Y-8954819D01*
X40119050Y-9954819D02*
X40595240Y-9954819D01*
X40595240Y-9954819D02*
X40595240Y-8954819D01*
X39309526Y-9954819D02*
X39785716Y-9954819D01*
X39785716Y-9954819D02*
X39785716Y-8954819D01*
X38976192Y-9954819D02*
X38976192Y-8954819D01*
X37928574Y-9859580D02*
X37976193Y-9907200D01*
X37976193Y-9907200D02*
X38119050Y-9954819D01*
X38119050Y-9954819D02*
X38214288Y-9954819D01*
X38214288Y-9954819D02*
X38357145Y-9907200D01*
X38357145Y-9907200D02*
X38452383Y-9811961D01*
X38452383Y-9811961D02*
X38500002Y-9716723D01*
X38500002Y-9716723D02*
X38547621Y-9526247D01*
X38547621Y-9526247D02*
X38547621Y-9383390D01*
X38547621Y-9383390D02*
X38500002Y-9192914D01*
X38500002Y-9192914D02*
X38452383Y-9097676D01*
X38452383Y-9097676D02*
X38357145Y-9002438D01*
X38357145Y-9002438D02*
X38214288Y-8954819D01*
X38214288Y-8954819D02*
X38119050Y-8954819D01*
X38119050Y-8954819D02*
X37976193Y-9002438D01*
X37976193Y-9002438D02*
X37928574Y-9050057D01*
X37500002Y-9954819D02*
X37500002Y-8954819D01*
X37166669Y-8954819D02*
X36595241Y-8954819D01*
X36880955Y-9954819D02*
X36880955Y-8954819D01*
X35547621Y-9669104D02*
X35071431Y-9669104D01*
X35642859Y-9954819D02*
X35309526Y-8954819D01*
X35309526Y-8954819D02*
X34976193Y-9954819D01*
X34642859Y-9954819D02*
X34642859Y-8954819D01*
X34642859Y-8954819D02*
X34261907Y-8954819D01*
X34261907Y-8954819D02*
X34166669Y-9002438D01*
X34166669Y-9002438D02*
X34119050Y-9050057D01*
X34119050Y-9050057D02*
X34071431Y-9145295D01*
X34071431Y-9145295D02*
X34071431Y-9288152D01*
X34071431Y-9288152D02*
X34119050Y-9383390D01*
X34119050Y-9383390D02*
X34166669Y-9431009D01*
X34166669Y-9431009D02*
X34261907Y-9478628D01*
X34261907Y-9478628D02*
X34642859Y-9478628D01*
X33452383Y-8954819D02*
X33261907Y-8954819D01*
X33261907Y-8954819D02*
X33166669Y-9002438D01*
X33166669Y-9002438D02*
X33071431Y-9097676D01*
X33071431Y-9097676D02*
X33023812Y-9288152D01*
X33023812Y-9288152D02*
X33023812Y-9621485D01*
X33023812Y-9621485D02*
X33071431Y-9811961D01*
X33071431Y-9811961D02*
X33166669Y-9907200D01*
X33166669Y-9907200D02*
X33261907Y-9954819D01*
X33261907Y-9954819D02*
X33452383Y-9954819D01*
X33452383Y-9954819D02*
X33547621Y-9907200D01*
X33547621Y-9907200D02*
X33642859Y-9811961D01*
X33642859Y-9811961D02*
X33690478Y-9621485D01*
X33690478Y-9621485D02*
X33690478Y-9288152D01*
X33690478Y-9288152D02*
X33642859Y-9097676D01*
X33642859Y-9097676D02*
X33547621Y-9002438D01*
X33547621Y-9002438D02*
X33452383Y-8954819D01*
X32738097Y-8954819D02*
X32166669Y-8954819D01*
X32452383Y-9954819D02*
X32452383Y-8954819D01*
X31833335Y-9954819D02*
X31833335Y-8954819D01*
X31833335Y-9431009D02*
X31261907Y-9431009D01*
X31261907Y-9954819D02*
X31261907Y-8954819D01*
X30785716Y-9431009D02*
X30452383Y-9431009D01*
X30309526Y-9954819D02*
X30785716Y-9954819D01*
X30785716Y-9954819D02*
X30785716Y-8954819D01*
X30785716Y-8954819D02*
X30309526Y-8954819D01*
X29309526Y-9859580D02*
X29357145Y-9907200D01*
X29357145Y-9907200D02*
X29500002Y-9954819D01*
X29500002Y-9954819D02*
X29595240Y-9954819D01*
X29595240Y-9954819D02*
X29738097Y-9907200D01*
X29738097Y-9907200D02*
X29833335Y-9811961D01*
X29833335Y-9811961D02*
X29880954Y-9716723D01*
X29880954Y-9716723D02*
X29928573Y-9526247D01*
X29928573Y-9526247D02*
X29928573Y-9383390D01*
X29928573Y-9383390D02*
X29880954Y-9192914D01*
X29880954Y-9192914D02*
X29833335Y-9097676D01*
X29833335Y-9097676D02*
X29738097Y-9002438D01*
X29738097Y-9002438D02*
X29595240Y-8954819D01*
X29595240Y-8954819D02*
X29500002Y-8954819D01*
X29500002Y-8954819D02*
X29357145Y-9002438D01*
X29357145Y-9002438D02*
X29309526Y-9050057D01*
X28928573Y-9669104D02*
X28452383Y-9669104D01*
X29023811Y-9954819D02*
X28690478Y-8954819D01*
X28690478Y-8954819D02*
X28357145Y-9954819D01*
X27452383Y-9954819D02*
X27785716Y-9478628D01*
X28023811Y-9954819D02*
X28023811Y-8954819D01*
X28023811Y-8954819D02*
X27642859Y-8954819D01*
X27642859Y-8954819D02*
X27547621Y-9002438D01*
X27547621Y-9002438D02*
X27500002Y-9050057D01*
X27500002Y-9050057D02*
X27452383Y-9145295D01*
X27452383Y-9145295D02*
X27452383Y-9288152D01*
X27452383Y-9288152D02*
X27500002Y-9383390D01*
X27500002Y-9383390D02*
X27547621Y-9431009D01*
X27547621Y-9431009D02*
X27642859Y-9478628D01*
X27642859Y-9478628D02*
X28023811Y-9478628D01*
X26833335Y-9478628D02*
X26833335Y-9954819D01*
X27166668Y-8954819D02*
X26833335Y-9478628D01*
X26833335Y-9478628D02*
X26500002Y-8954819D01*
X25404763Y-9573866D02*
X24642859Y-9573866D01*
X22976192Y-9288152D02*
X22976192Y-10097676D01*
X22976192Y-10097676D02*
X23023811Y-10192914D01*
X23023811Y-10192914D02*
X23071430Y-10240533D01*
X23071430Y-10240533D02*
X23166668Y-10288152D01*
X23166668Y-10288152D02*
X23309525Y-10288152D01*
X23309525Y-10288152D02*
X23404763Y-10240533D01*
X22976192Y-9907200D02*
X23071430Y-9954819D01*
X23071430Y-9954819D02*
X23261906Y-9954819D01*
X23261906Y-9954819D02*
X23357144Y-9907200D01*
X23357144Y-9907200D02*
X23404763Y-9859580D01*
X23404763Y-9859580D02*
X23452382Y-9764342D01*
X23452382Y-9764342D02*
X23452382Y-9478628D01*
X23452382Y-9478628D02*
X23404763Y-9383390D01*
X23404763Y-9383390D02*
X23357144Y-9335771D01*
X23357144Y-9335771D02*
X23261906Y-9288152D01*
X23261906Y-9288152D02*
X23071430Y-9288152D01*
X23071430Y-9288152D02*
X22976192Y-9335771D01*
X22071430Y-9954819D02*
X22071430Y-9431009D01*
X22071430Y-9431009D02*
X22119049Y-9335771D01*
X22119049Y-9335771D02*
X22214287Y-9288152D01*
X22214287Y-9288152D02*
X22404763Y-9288152D01*
X22404763Y-9288152D02*
X22500001Y-9335771D01*
X22071430Y-9907200D02*
X22166668Y-9954819D01*
X22166668Y-9954819D02*
X22404763Y-9954819D01*
X22404763Y-9954819D02*
X22500001Y-9907200D01*
X22500001Y-9907200D02*
X22547620Y-9811961D01*
X22547620Y-9811961D02*
X22547620Y-9716723D01*
X22547620Y-9716723D02*
X22500001Y-9621485D01*
X22500001Y-9621485D02*
X22404763Y-9573866D01*
X22404763Y-9573866D02*
X22166668Y-9573866D01*
X22166668Y-9573866D02*
X22071430Y-9526247D01*
X21595239Y-9288152D02*
X21595239Y-9954819D01*
X21595239Y-9383390D02*
X21547620Y-9335771D01*
X21547620Y-9335771D02*
X21452382Y-9288152D01*
X21452382Y-9288152D02*
X21309525Y-9288152D01*
X21309525Y-9288152D02*
X21214287Y-9335771D01*
X21214287Y-9335771D02*
X21166668Y-9431009D01*
X21166668Y-9431009D02*
X21166668Y-9954819D01*
X20261906Y-9288152D02*
X20261906Y-10097676D01*
X20261906Y-10097676D02*
X20309525Y-10192914D01*
X20309525Y-10192914D02*
X20357144Y-10240533D01*
X20357144Y-10240533D02*
X20452382Y-10288152D01*
X20452382Y-10288152D02*
X20595239Y-10288152D01*
X20595239Y-10288152D02*
X20690477Y-10240533D01*
X20261906Y-9907200D02*
X20357144Y-9954819D01*
X20357144Y-9954819D02*
X20547620Y-9954819D01*
X20547620Y-9954819D02*
X20642858Y-9907200D01*
X20642858Y-9907200D02*
X20690477Y-9859580D01*
X20690477Y-9859580D02*
X20738096Y-9764342D01*
X20738096Y-9764342D02*
X20738096Y-9478628D01*
X20738096Y-9478628D02*
X20690477Y-9383390D01*
X20690477Y-9383390D02*
X20642858Y-9335771D01*
X20642858Y-9335771D02*
X20547620Y-9288152D01*
X20547620Y-9288152D02*
X20357144Y-9288152D01*
X20357144Y-9288152D02*
X20261906Y-9335771D01*
X18500001Y-9954819D02*
X19071429Y-9954819D01*
X18785715Y-9954819D02*
X18785715Y-8954819D01*
X18785715Y-8954819D02*
X18880953Y-9097676D01*
X18880953Y-9097676D02*
X18976191Y-9192914D01*
X18976191Y-9192914D02*
X19071429Y-9240533D01*
X16880953Y-9954819D02*
X16880953Y-9431009D01*
X16880953Y-9431009D02*
X16928572Y-9335771D01*
X16928572Y-9335771D02*
X17023810Y-9288152D01*
X17023810Y-9288152D02*
X17214286Y-9288152D01*
X17214286Y-9288152D02*
X17309524Y-9335771D01*
X16880953Y-9907200D02*
X16976191Y-9954819D01*
X16976191Y-9954819D02*
X17214286Y-9954819D01*
X17214286Y-9954819D02*
X17309524Y-9907200D01*
X17309524Y-9907200D02*
X17357143Y-9811961D01*
X17357143Y-9811961D02*
X17357143Y-9716723D01*
X17357143Y-9716723D02*
X17309524Y-9621485D01*
X17309524Y-9621485D02*
X17214286Y-9573866D01*
X17214286Y-9573866D02*
X16976191Y-9573866D01*
X16976191Y-9573866D02*
X16880953Y-9526247D01*
X16547619Y-9288152D02*
X16166667Y-9288152D01*
X16404762Y-8954819D02*
X16404762Y-9811961D01*
X16404762Y-9811961D02*
X16357143Y-9907200D01*
X16357143Y-9907200D02*
X16261905Y-9954819D01*
X16261905Y-9954819D02*
X16166667Y-9954819D01*
X15214285Y-9288152D02*
X14833333Y-9288152D01*
X15071428Y-8954819D02*
X15071428Y-9811961D01*
X15071428Y-9811961D02*
X15023809Y-9907200D01*
X15023809Y-9907200D02*
X14928571Y-9954819D01*
X14928571Y-9954819D02*
X14833333Y-9954819D01*
X14499999Y-9954819D02*
X14499999Y-8954819D01*
X14071428Y-9954819D02*
X14071428Y-9431009D01*
X14071428Y-9431009D02*
X14119047Y-9335771D01*
X14119047Y-9335771D02*
X14214285Y-9288152D01*
X14214285Y-9288152D02*
X14357142Y-9288152D01*
X14357142Y-9288152D02*
X14452380Y-9335771D01*
X14452380Y-9335771D02*
X14499999Y-9383390D01*
X13214285Y-9907200D02*
X13309523Y-9954819D01*
X13309523Y-9954819D02*
X13499999Y-9954819D01*
X13499999Y-9954819D02*
X13595237Y-9907200D01*
X13595237Y-9907200D02*
X13642856Y-9811961D01*
X13642856Y-9811961D02*
X13642856Y-9431009D01*
X13642856Y-9431009D02*
X13595237Y-9335771D01*
X13595237Y-9335771D02*
X13499999Y-9288152D01*
X13499999Y-9288152D02*
X13309523Y-9288152D01*
X13309523Y-9288152D02*
X13214285Y-9335771D01*
X13214285Y-9335771D02*
X13166666Y-9431009D01*
X13166666Y-9431009D02*
X13166666Y-9526247D01*
X13166666Y-9526247D02*
X13642856Y-9621485D01*
X11976189Y-9288152D02*
X11976189Y-10288152D01*
X11976189Y-9335771D02*
X11880951Y-9288152D01*
X11880951Y-9288152D02*
X11690475Y-9288152D01*
X11690475Y-9288152D02*
X11595237Y-9335771D01*
X11595237Y-9335771D02*
X11547618Y-9383390D01*
X11547618Y-9383390D02*
X11499999Y-9478628D01*
X11499999Y-9478628D02*
X11499999Y-9764342D01*
X11499999Y-9764342D02*
X11547618Y-9859580D01*
X11547618Y-9859580D02*
X11595237Y-9907200D01*
X11595237Y-9907200D02*
X11690475Y-9954819D01*
X11690475Y-9954819D02*
X11880951Y-9954819D01*
X11880951Y-9954819D02*
X11976189Y-9907200D01*
X10642856Y-9954819D02*
X10642856Y-9431009D01*
X10642856Y-9431009D02*
X10690475Y-9335771D01*
X10690475Y-9335771D02*
X10785713Y-9288152D01*
X10785713Y-9288152D02*
X10976189Y-9288152D01*
X10976189Y-9288152D02*
X11071427Y-9335771D01*
X10642856Y-9907200D02*
X10738094Y-9954819D01*
X10738094Y-9954819D02*
X10976189Y-9954819D01*
X10976189Y-9954819D02*
X11071427Y-9907200D01*
X11071427Y-9907200D02*
X11119046Y-9811961D01*
X11119046Y-9811961D02*
X11119046Y-9716723D01*
X11119046Y-9716723D02*
X11071427Y-9621485D01*
X11071427Y-9621485D02*
X10976189Y-9573866D01*
X10976189Y-9573866D02*
X10738094Y-9573866D01*
X10738094Y-9573866D02*
X10642856Y-9526247D01*
X10166665Y-9288152D02*
X10166665Y-9954819D01*
X10166665Y-9383390D02*
X10119046Y-9335771D01*
X10119046Y-9335771D02*
X10023808Y-9288152D01*
X10023808Y-9288152D02*
X9880951Y-9288152D01*
X9880951Y-9288152D02*
X9785713Y-9335771D01*
X9785713Y-9335771D02*
X9738094Y-9431009D01*
X9738094Y-9431009D02*
X9738094Y-9954819D01*
X8880951Y-9907200D02*
X8976189Y-9954819D01*
X8976189Y-9954819D02*
X9166665Y-9954819D01*
X9166665Y-9954819D02*
X9261903Y-9907200D01*
X9261903Y-9907200D02*
X9309522Y-9811961D01*
X9309522Y-9811961D02*
X9309522Y-9431009D01*
X9309522Y-9431009D02*
X9261903Y-9335771D01*
X9261903Y-9335771D02*
X9166665Y-9288152D01*
X9166665Y-9288152D02*
X8976189Y-9288152D01*
X8976189Y-9288152D02*
X8880951Y-9335771D01*
X8880951Y-9335771D02*
X8833332Y-9431009D01*
X8833332Y-9431009D02*
X8833332Y-9526247D01*
X8833332Y-9526247D02*
X9309522Y-9621485D01*
X8261903Y-9954819D02*
X8357141Y-9907200D01*
X8357141Y-9907200D02*
X8404760Y-9811961D01*
X8404760Y-9811961D02*
X8404760Y-8954819D01*
X6738093Y-9907200D02*
X6833331Y-9954819D01*
X6833331Y-9954819D02*
X7023807Y-9954819D01*
X7023807Y-9954819D02*
X7119045Y-9907200D01*
X7119045Y-9907200D02*
X7166664Y-9811961D01*
X7166664Y-9811961D02*
X7166664Y-9431009D01*
X7166664Y-9431009D02*
X7119045Y-9335771D01*
X7119045Y-9335771D02*
X7023807Y-9288152D01*
X7023807Y-9288152D02*
X6833331Y-9288152D01*
X6833331Y-9288152D02*
X6738093Y-9335771D01*
X6738093Y-9335771D02*
X6690474Y-9431009D01*
X6690474Y-9431009D02*
X6690474Y-9526247D01*
X6690474Y-9526247D02*
X7166664Y-9621485D01*
X6261902Y-9288152D02*
X6261902Y-9954819D01*
X6261902Y-9383390D02*
X6214283Y-9335771D01*
X6214283Y-9335771D02*
X6119045Y-9288152D01*
X6119045Y-9288152D02*
X5976188Y-9288152D01*
X5976188Y-9288152D02*
X5880950Y-9335771D01*
X5880950Y-9335771D02*
X5833331Y-9431009D01*
X5833331Y-9431009D02*
X5833331Y-9954819D01*
X4928569Y-9954819D02*
X4928569Y-8954819D01*
X4928569Y-9907200D02*
X5023807Y-9954819D01*
X5023807Y-9954819D02*
X5214283Y-9954819D01*
X5214283Y-9954819D02*
X5309521Y-9907200D01*
X5309521Y-9907200D02*
X5357140Y-9859580D01*
X5357140Y-9859580D02*
X5404759Y-9764342D01*
X5404759Y-9764342D02*
X5404759Y-9478628D01*
X5404759Y-9478628D02*
X5357140Y-9383390D01*
X5357140Y-9383390D02*
X5309521Y-9335771D01*
X5309521Y-9335771D02*
X5214283Y-9288152D01*
X5214283Y-9288152D02*
X5023807Y-9288152D01*
X5023807Y-9288152D02*
X4928569Y-9335771D01*
%LPC*%
D11*
%TO.C,VR1*%
X7000000Y-12500000D03*
D12*
X7000000Y-7500000D03*
X7000000Y-2500000D03*
X9500000Y-12500000D03*
X9500000Y-7500000D03*
X9500000Y-2500000D03*
X14500000Y-12500000D03*
X14500000Y-7500000D03*
X14500000Y-2500000D03*
X17000000Y-12500000D03*
X17000000Y-7500000D03*
X17000000Y-2500000D03*
%TD*%
D13*
%TO.C,P1*%
X23000000Y-7500000D03*
D14*
X25500000Y-7500000D03*
X28000000Y-7500000D03*
X30500000Y-7500000D03*
X33000000Y-7500000D03*
X35500000Y-7500000D03*
X38000000Y-7500000D03*
X40500000Y-7500000D03*
%TD*%
%LPD*%
M02*
