%TF.GenerationSoftware,KiCad,Pcbnew,10.0.5*%
%TF.CreationDate,2026-08-05T00:31:16-05:00*%
%TF.ProjectId,filter-clipper,66696c74-6572-42d6-936c-69707065722e,rev?*%
%TF.SameCoordinates,Original*%
%TF.FileFunction,Soldermask,Top*%
%TF.FilePolarity,Negative*%
%FSLAX46Y46*%
G04 Gerber Fmt 4.6, Leading zero omitted, Abs format (unit mm)*
G04 Created by KiCad (PCBNEW 10.0.5) date 2026-08-05 00:31:16*
%MOMM*%
%LPD*%
G01*
G04 APERTURE LIST*
G04 Aperture macros list*
%AMRoundRect*
0 Rectangle with rounded corners*
0 $1 Rounding radius*
0 $2 $3 $4 $5 $6 $7 $8 $9 X,Y pos of 4 corners*
0 Add a 4 corners polygon primitive as box body*
4,1,4,$2,$3,$4,$5,$6,$7,$8,$9,$2,$3,0*
0 Add four circle primitives for the rounded corners*
1,1,$1+$1,$2,$3*
1,1,$1+$1,$4,$5*
1,1,$1+$1,$6,$7*
1,1,$1+$1,$8,$9*
0 Add four rect primitives between the rounded corners*
20,1,$1+$1,$2,$3,$4,$5,0*
20,1,$1+$1,$4,$5,$6,$7,0*
20,1,$1+$1,$6,$7,$8,$9,0*
20,1,$1+$1,$8,$9,$2,$3,0*%
G04 Aperture macros list end*
%ADD10RoundRect,0.200000X-0.200000X-0.275000X0.200000X-0.275000X0.200000X0.275000X-0.200000X0.275000X0*%
%ADD11RoundRect,0.225000X-0.225000X-0.250000X0.225000X-0.250000X0.225000X0.250000X-0.225000X0.250000X0*%
%ADD12RoundRect,0.250000X-0.550000X-0.550000X0.550000X-0.550000X0.550000X0.550000X-0.550000X0.550000X0*%
%ADD13C,1.600000*%
%ADD14C,3.200000*%
%ADD15C,1.500000*%
%ADD16R,1.500000X1.500000*%
%ADD17RoundRect,0.250001X-1.099999X-1.099999X1.099999X-1.099999X1.099999X1.099999X-1.099999X1.099999X0*%
%ADD18C,2.700000*%
%ADD19RoundRect,0.150000X-0.825000X-0.150000X0.825000X-0.150000X0.825000X0.150000X-0.825000X0.150000X0*%
%ADD20RoundRect,0.250000X-1.250000X-0.550000X1.250000X-0.550000X1.250000X0.550000X-1.250000X0.550000X0*%
%ADD21RoundRect,0.250000X-0.600000X-0.725000X0.600000X-0.725000X0.600000X0.725000X-0.600000X0.725000X0*%
%ADD22O,1.700000X1.950000*%
%ADD23RoundRect,0.243750X-0.243750X-0.456250X0.243750X-0.456250X0.243750X0.456250X-0.243750X0.456250X0*%
%ADD24RoundRect,0.112500X-0.187500X-0.112500X0.187500X-0.112500X0.187500X0.112500X-0.187500X0.112500X0*%
%ADD25RoundRect,0.225000X-0.225000X-0.375000X0.225000X-0.375000X0.225000X0.375000X-0.225000X0.375000X0*%
G04 APERTURE END LIST*
D10*
%TO.C,R512*%
X75175000Y-68000000D03*
X76825000Y-68000000D03*
%TD*%
D11*
%TO.C,C401*%
X9225000Y-74000000D03*
X10775000Y-74000000D03*
%TD*%
D12*
%TO.C,D409*%
X35243600Y-25564700D03*
D13*
X42863600Y-25564700D03*
%TD*%
D14*
%TO.C,H1*%
X3500000Y-3500000D03*
%TD*%
D15*
%TO.C,K403*%
X57080000Y-58000000D03*
X54540000Y-58000000D03*
X59620000Y-58000000D03*
X57080000Y-50380000D03*
X54540000Y-50380000D03*
X59620000Y-50380000D03*
D16*
X52000000Y-58000000D03*
D15*
X52000000Y-50380000D03*
X62160000Y-58000000D03*
X62160000Y-50380000D03*
%TD*%
D17*
%TO.C,P404*%
X82820000Y-12748200D03*
D18*
X86780000Y-12748200D03*
X90740000Y-12748200D03*
%TD*%
D14*
%TO.C,H2*%
X136500000Y-3500000D03*
%TD*%
D19*
%TO.C,U402*%
X21685700Y-24914700D03*
X21685700Y-26184700D03*
X21685700Y-27454700D03*
X21685700Y-28724700D03*
X21685700Y-29994700D03*
X21685700Y-31264700D03*
X21685700Y-32534700D03*
X26635700Y-32534700D03*
X26635700Y-31264700D03*
X26635700Y-29994700D03*
X26635700Y-28724700D03*
X26635700Y-27454700D03*
X26635700Y-26184700D03*
X26635700Y-24914700D03*
%TD*%
D11*
%TO.C,C492*%
X51225000Y-74000000D03*
X52775000Y-74000000D03*
%TD*%
D14*
%TO.C,H3*%
X136500000Y-86500000D03*
%TD*%
D20*
%TO.C,C595*%
X11800000Y-81000000D03*
X16200000Y-81000000D03*
%TD*%
D21*
%TO.C,P402*%
X113140000Y-11398200D03*
D22*
X115640000Y-11398200D03*
X118140000Y-11398200D03*
%TD*%
D12*
%TO.C,D412*%
X87279300Y-25564700D03*
D13*
X94899300Y-25564700D03*
%TD*%
D10*
%TO.C,R491*%
X63175000Y-68000000D03*
X64825000Y-68000000D03*
%TD*%
D23*
%TO.C,D405*%
X20532700Y-40351200D03*
X22407700Y-40351200D03*
%TD*%
D10*
%TO.C,R511*%
X69175000Y-68000000D03*
X70825000Y-68000000D03*
%TD*%
%TO.C,R441*%
X21175000Y-68000000D03*
X22825000Y-68000000D03*
%TD*%
D14*
%TO.C,H4*%
X3500000Y-86500000D03*
%TD*%
D21*
%TO.C,P403*%
X9975000Y-11398200D03*
D22*
X12475000Y-11398200D03*
X14975000Y-11398200D03*
X17475000Y-11398200D03*
X19975000Y-11398200D03*
X22475000Y-11398200D03*
X24975000Y-11398200D03*
X27475000Y-11398200D03*
X29975000Y-11398200D03*
X32475000Y-11398200D03*
X34975000Y-11398200D03*
X37475000Y-11398200D03*
%TD*%
D23*
%TO.C,D408*%
X49425600Y-40351200D03*
X51300600Y-40351200D03*
%TD*%
D10*
%TO.C,R444*%
X39175000Y-68000000D03*
X40825000Y-68000000D03*
%TD*%
%TO.C,R402*%
X9175000Y-68000000D03*
X10825000Y-68000000D03*
%TD*%
D24*
%TO.C,D401*%
X104189300Y-25294700D03*
X106289300Y-25294700D03*
%TD*%
D10*
%TO.C,R445*%
X45175000Y-68000000D03*
X46825000Y-68000000D03*
%TD*%
D11*
%TO.C,C593*%
X69225000Y-74000000D03*
X70775000Y-74000000D03*
%TD*%
D10*
%TO.C,R443*%
X33175000Y-68000000D03*
X34825000Y-68000000D03*
%TD*%
D12*
%TO.C,D411*%
X69934100Y-25564700D03*
D13*
X77554100Y-25564700D03*
%TD*%
D24*
%TO.C,D403*%
X126498800Y-25294700D03*
X128598800Y-25294700D03*
%TD*%
D10*
%TO.C,R446*%
X51175000Y-68000000D03*
X52825000Y-68000000D03*
%TD*%
D11*
%TO.C,C422*%
X27225000Y-74000000D03*
X28775000Y-74000000D03*
%TD*%
D10*
%TO.C,R471*%
X57175000Y-68000000D03*
X58825000Y-68000000D03*
%TD*%
D23*
%TO.C,D407*%
X39794600Y-40351200D03*
X41669600Y-40351200D03*
%TD*%
D10*
%TO.C,R422*%
X15175000Y-68000000D03*
X16825000Y-68000000D03*
%TD*%
D25*
%TO.C,D422*%
X74350000Y-55000000D03*
X77650000Y-55000000D03*
%TD*%
D15*
%TO.C,K402*%
X37080000Y-58000000D03*
X34540000Y-58000000D03*
X39620000Y-58000000D03*
X37080000Y-50380000D03*
X34540000Y-50380000D03*
X39620000Y-50380000D03*
D16*
X32000000Y-58000000D03*
D15*
X32000000Y-50380000D03*
X42160000Y-58000000D03*
X42160000Y-50380000D03*
%TD*%
D21*
%TO.C,P405*%
X46425000Y-11398200D03*
D22*
X48925000Y-11398200D03*
X51425000Y-11398200D03*
X53925000Y-11398200D03*
X56425000Y-11398200D03*
X58925000Y-11398200D03*
X61425000Y-11398200D03*
X63925000Y-11398200D03*
X66425000Y-11398200D03*
X68925000Y-11398200D03*
X71425000Y-11398200D03*
X73925000Y-11398200D03*
%TD*%
D11*
%TO.C,C491*%
X45225000Y-74000000D03*
X46775000Y-74000000D03*
%TD*%
D23*
%TO.C,D406*%
X30163700Y-40351200D03*
X32038700Y-40351200D03*
%TD*%
D11*
%TO.C,C594*%
X75225000Y-74000000D03*
X76775000Y-74000000D03*
%TD*%
%TO.C,C592*%
X63225000Y-74000000D03*
X64775000Y-74000000D03*
%TD*%
D20*
%TO.C,C596*%
X21800000Y-81000000D03*
X26200000Y-81000000D03*
%TD*%
D15*
%TO.C,K401*%
X17080000Y-58000000D03*
X14540000Y-58000000D03*
X19620000Y-58000000D03*
X17080000Y-50380000D03*
X14540000Y-50380000D03*
X19620000Y-50380000D03*
D16*
X12000000Y-58000000D03*
D15*
X12000000Y-50380000D03*
X22160000Y-58000000D03*
X22160000Y-50380000D03*
%TD*%
D21*
%TO.C,P401*%
X99190000Y-11398200D03*
D22*
X101690000Y-11398200D03*
X104190000Y-11398200D03*
%TD*%
D11*
%TO.C,C591*%
X57225000Y-74000000D03*
X58775000Y-74000000D03*
%TD*%
D25*
%TO.C,D421*%
X66350000Y-55000000D03*
X69650000Y-55000000D03*
%TD*%
D19*
%TO.C,U401*%
X9245200Y-24914700D03*
X9245200Y-26184700D03*
X9245200Y-27454700D03*
X9245200Y-28724700D03*
X9245200Y-29994700D03*
X9245200Y-31264700D03*
X9245200Y-32534700D03*
X14195200Y-32534700D03*
X14195200Y-31264700D03*
X14195200Y-29994700D03*
X14195200Y-28724700D03*
X14195200Y-27454700D03*
X14195200Y-26184700D03*
X14195200Y-24914700D03*
%TD*%
D11*
%TO.C,C402*%
X15225000Y-74000000D03*
X16775000Y-74000000D03*
%TD*%
%TO.C,C472*%
X39225000Y-74000000D03*
X40775000Y-74000000D03*
%TD*%
%TO.C,C471*%
X33225000Y-74000000D03*
X34775000Y-74000000D03*
%TD*%
%TO.C,C421*%
X21225000Y-74000000D03*
X22775000Y-74000000D03*
%TD*%
D12*
%TO.C,D410*%
X52588800Y-25564700D03*
D13*
X60208800Y-25564700D03*
%TD*%
D24*
%TO.C,D402*%
X115344100Y-25294700D03*
X117444100Y-25294700D03*
%TD*%
D10*
%TO.C,R442*%
X27175000Y-68000000D03*
X28825000Y-68000000D03*
%TD*%
D24*
%TO.C,D404*%
X9927400Y-40551200D03*
X12027400Y-40551200D03*
%TD*%
M02*
