%TF.GenerationSoftware,KiCad,Pcbnew,10.0.5*%
%TF.CreationDate,2026-08-05T00:31:16-05:00*%
%TF.ProjectId,filter-clipper,66696c74-6572-42d6-936c-69707065722e,rev?*%
%TF.SameCoordinates,Original*%
%TF.FileFunction,Copper,L2,Bot*%
%TF.FilePolarity,Positive*%
%FSLAX46Y46*%
G04 Gerber Fmt 4.6, Leading zero omitted, Abs format (unit mm)*
G04 Created by KiCad (PCBNEW 10.0.5) date 2026-08-05 00:31:16*
%MOMM*%
%LPD*%
G01*
G04 APERTURE LIST*
G04 Aperture macros list*
%AMRoundRect*
0 Rectangle with rounded corners*
0 $1 Rounding radius*
0 $2 $3 $4 $5 $6 $7 $8 $9 X,Y pos of 4 corners*
0 Add a 4 corners polygon primitive as box body*
4,1,4,$2,$3,$4,$5,$6,$7,$8,$9,$2,$3,0*
0 Add four circle primitives for the rounded corners*
1,1,$1+$1,$2,$3*
1,1,$1+$1,$4,$5*
1,1,$1+$1,$6,$7*
1,1,$1+$1,$8,$9*
0 Add four rect primitives between the rounded corners*
20,1,$1+$1,$2,$3,$4,$5,0*
20,1,$1+$1,$4,$5,$6,$7,0*
20,1,$1+$1,$6,$7,$8,$9,0*
20,1,$1+$1,$8,$9,$2,$3,0*%
G04 Aperture macros list end*
%TA.AperFunction,ComponentPad*%
%ADD10RoundRect,0.250000X-0.550000X-0.550000X0.550000X-0.550000X0.550000X0.550000X-0.550000X0.550000X0*%
%TD*%
%TA.AperFunction,ComponentPad*%
%ADD11C,1.600000*%
%TD*%
%TA.AperFunction,ComponentPad*%
%ADD12C,1.500000*%
%TD*%
%TA.AperFunction,ComponentPad*%
%ADD13R,1.500000X1.500000*%
%TD*%
%TA.AperFunction,ComponentPad*%
%ADD14RoundRect,0.250001X-1.099999X-1.099999X1.099999X-1.099999X1.099999X1.099999X-1.099999X1.099999X0*%
%TD*%
%TA.AperFunction,ComponentPad*%
%ADD15C,2.700000*%
%TD*%
%TA.AperFunction,ComponentPad*%
%ADD16RoundRect,0.250000X-0.600000X-0.725000X0.600000X-0.725000X0.600000X0.725000X-0.600000X0.725000X0*%
%TD*%
%TA.AperFunction,ComponentPad*%
%ADD17O,1.700000X1.950000*%
%TD*%
%TA.AperFunction,ViaPad*%
%ADD18C,0.600000*%
%TD*%
%TA.AperFunction,Conductor*%
%ADD19C,0.200000*%
%TD*%
G04 APERTURE END LIST*
D10*
%TO.P,D409,1*%
%TO.N,GE_CLIP_L*%
X35243600Y-25564700D03*
D11*
%TO.P,D409,2*%
%TO.N,AGND*%
X42863600Y-25564700D03*
%TD*%
D12*
%TO.P,K403,11*%
%TO.N,CLIP_W1_L*%
X57080000Y-58000000D03*
%TO.P,K403,12*%
%TO.N,SIL_CLIP_L*%
X54540000Y-58000000D03*
%TO.P,K403,14*%
%TO.N,GE_CLIP_L*%
X59620000Y-58000000D03*
%TO.P,K403,21*%
%TO.N,CLIP_W1_R*%
X57080000Y-50380000D03*
%TO.P,K403,22*%
%TO.N,SIL_CLIP_R*%
X54540000Y-50380000D03*
%TO.P,K403,24*%
%TO.N,GE_CLIP_R*%
X59620000Y-50380000D03*
D13*
%TO.P,K403,A1*%
%TO.N,CTL_CLIP_MODE_A*%
X52000000Y-58000000D03*
D12*
%TO.P,K403,A2*%
%TO.N,AGND*%
X52000000Y-50380000D03*
%TO.P,K403,MP1*%
%TO.N,N/C*%
X62160000Y-58000000D03*
%TO.P,K403,MP2*%
X62160000Y-50380000D03*
%TD*%
D14*
%TO.P,P404,1*%
%TO.N,+15VA*%
X82820000Y-12748200D03*
D15*
%TO.P,P404,2*%
%TO.N,AGND*%
X86780000Y-12748200D03*
%TO.P,P404,3*%
%TO.N,-15VA*%
X90740000Y-12748200D03*
%TD*%
D16*
%TO.P,P402,1*%
%TO.N,FILTCLIP_OUT_L*%
X113140000Y-11398200D03*
D17*
%TO.P,P402,2*%
%TO.N,AGND*%
X115640000Y-11398200D03*
%TO.P,P402,3*%
%TO.N,FILTCLIP_OUT_R*%
X118140000Y-11398200D03*
%TD*%
D10*
%TO.P,D412,1*%
%TO.N,AGND*%
X87279300Y-25564700D03*
D11*
%TO.P,D412,2*%
%TO.N,GE_CLIP_R*%
X94899300Y-25564700D03*
%TD*%
D16*
%TO.P,P403,1*%
%TO.N,DRV_HI*%
X9975000Y-11398200D03*
D17*
%TO.P,P403,2*%
%TO.N,DRV_WIPER*%
X12475000Y-11398200D03*
%TO.P,P403,3*%
X14975000Y-11398200D03*
%TO.P,P403,4*%
%TO.N,HPF_F_L_HI*%
X17475000Y-11398200D03*
%TO.P,P403,5*%
%TO.N,AGND*%
X19975000Y-11398200D03*
%TO.P,P403,6*%
X22475000Y-11398200D03*
%TO.P,P403,7*%
%TO.N,HPF_F_R_HI*%
X24975000Y-11398200D03*
%TO.P,P403,8*%
%TO.N,AGND*%
X27475000Y-11398200D03*
%TO.P,P403,9*%
X29975000Y-11398200D03*
%TO.P,P403,10*%
%TO.N,HPF_Q_L_WIPER*%
X32475000Y-11398200D03*
%TO.P,P403,11*%
%TO.N,HPF_Q_R_WIPER*%
X34975000Y-11398200D03*
%TO.P,P403,12*%
%TO.N,AGND*%
X37475000Y-11398200D03*
%TD*%
D10*
%TO.P,D411,1*%
%TO.N,GE_CLIP_R*%
X69934100Y-25564700D03*
D11*
%TO.P,D411,2*%
%TO.N,AGND*%
X77554100Y-25564700D03*
%TD*%
D12*
%TO.P,K402,11*%
%TO.N,CLIP_W0_L*%
X37080000Y-58000000D03*
%TO.P,K402,12*%
%TO.N,N/C*%
X34540000Y-58000000D03*
%TO.P,K402,14*%
%TO.N,LED_CLIP_L*%
X39620000Y-58000000D03*
%TO.P,K402,21*%
%TO.N,CLIP_W0_R*%
X37080000Y-50380000D03*
%TO.P,K402,22*%
%TO.N,N/C*%
X34540000Y-50380000D03*
%TO.P,K402,24*%
%TO.N,LED_CLIP_R*%
X39620000Y-50380000D03*
D13*
%TO.P,K402,A1*%
%TO.N,CTL_CLIP_MODE_A*%
X32000000Y-58000000D03*
D12*
%TO.P,K402,A2*%
%TO.N,AGND*%
X32000000Y-50380000D03*
%TO.P,K402,MP1*%
%TO.N,N/C*%
X42160000Y-58000000D03*
%TO.P,K402,MP2*%
X42160000Y-50380000D03*
%TD*%
D16*
%TO.P,P405,1*%
%TO.N,LPF_F_L_HI*%
X46425000Y-11398200D03*
D17*
%TO.P,P405,2*%
%TO.N,LPF_L_A*%
X48925000Y-11398200D03*
%TO.P,P405,3*%
X51425000Y-11398200D03*
%TO.P,P405,4*%
%TO.N,LPF_F_R_HI*%
X53925000Y-11398200D03*
%TO.P,P405,5*%
%TO.N,LPF_R_A*%
X56425000Y-11398200D03*
%TO.P,P405,6*%
X58925000Y-11398200D03*
%TO.P,P405,7*%
%TO.N,LPF_Q_L_WIPER*%
X61425000Y-11398200D03*
%TO.P,P405,8*%
%TO.N,LPF_Q_R_WIPER*%
X63925000Y-11398200D03*
%TO.P,P405,9*%
%TO.N,+5VAUX*%
X66425000Y-11398200D03*
%TO.P,P405,10*%
%TO.N,CTL_CLIP_MODE_A*%
X68925000Y-11398200D03*
%TO.P,P405,11*%
%TO.N,CTL_CLIP_MODE_B*%
X71425000Y-11398200D03*
%TO.P,P405,12*%
%TO.N,AGND*%
X73925000Y-11398200D03*
%TD*%
D12*
%TO.P,K401,11*%
%TO.N,CLIP_NODE_L*%
X17080000Y-58000000D03*
%TO.P,K401,12*%
%TO.N,CLIP_W0_L*%
X14540000Y-58000000D03*
%TO.P,K401,14*%
%TO.N,CLIP_W1_L*%
X19620000Y-58000000D03*
%TO.P,K401,21*%
%TO.N,CLIP_NODE_R*%
X17080000Y-50380000D03*
%TO.P,K401,22*%
%TO.N,CLIP_W0_R*%
X14540000Y-50380000D03*
%TO.P,K401,24*%
%TO.N,CLIP_W1_R*%
X19620000Y-50380000D03*
D13*
%TO.P,K401,A1*%
%TO.N,CTL_CLIP_MODE_B*%
X12000000Y-58000000D03*
D12*
%TO.P,K401,A2*%
%TO.N,AGND*%
X12000000Y-50380000D03*
%TO.P,K401,MP1*%
%TO.N,N/C*%
X22160000Y-58000000D03*
%TO.P,K401,MP2*%
X22160000Y-50380000D03*
%TD*%
D16*
%TO.P,P401,1*%
%TO.N,XFADE_OUT_L*%
X99190000Y-11398200D03*
D17*
%TO.P,P401,2*%
%TO.N,AGND*%
X101690000Y-11398200D03*
%TO.P,P401,3*%
%TO.N,XFADE_OUT_R*%
X104190000Y-11398200D03*
%TD*%
D10*
%TO.P,D410,1*%
%TO.N,AGND*%
X52588800Y-25564700D03*
D11*
%TO.P,D410,2*%
%TO.N,GE_CLIP_L*%
X60208800Y-25564700D03*
%TD*%
D18*
%TO.N,BUF_OUT_R*%
X43915200Y-63181300D03*
X37361800Y-26152500D03*
%TO.N,FILTCLIP_OUT_R*%
X117728500Y-56638400D03*
%TO.N,+15VA*%
X11479300Y-73132600D03*
X11024800Y-28754300D03*
%TO.N,-15VA*%
X31221500Y-77006300D03*
X28670700Y-29445500D03*
%TO.N,LPF_OUT_L*%
X40170500Y-33360800D03*
X40170500Y-71186900D03*
X25877300Y-21331200D03*
%TO.N,LPF_L_A*%
X41000400Y-71998500D03*
%TO.N,LPF_R_A*%
X33577800Y-25301800D03*
X48891900Y-73764300D03*
%TO.N,LPF_OUT_R*%
X50402900Y-32892600D03*
X50376100Y-72654000D03*
%TO.N,BUF_OUT_L*%
X59930200Y-63518100D03*
X53372900Y-34447500D03*
%TO.N,FILTCLIP_OUT_L*%
X72906100Y-68354600D03*
%TO.N,CLIP_NODE_R*%
X34642200Y-53586900D03*
X39634300Y-62457800D03*
%TO.N,LED_CLIP_L*%
X37499700Y-41777700D03*
%TO.N,DRV_WIPER*%
X16327900Y-31257100D03*
X22272500Y-65369100D03*
X19254100Y-27036500D03*
%TO.N,DRV_HI*%
X44348700Y-65187300D03*
X42985800Y-39577200D03*
%TO.N,HPF_F_R_HI*%
X25255500Y-74096600D03*
%TO.N,HPF_OUT_R*%
X13719500Y-65877100D03*
X8603400Y-33825500D03*
%TO.N,DRV_PRE_R*%
X24459800Y-60499700D03*
X23174500Y-26725400D03*
%TO.N,SR_BIAS_MID*%
X39634300Y-36270500D03*
X32697500Y-60801300D03*
%TO.N,HPF_OUT_L*%
X31012200Y-67725400D03*
X10888800Y-25324900D03*
%TO.N,DRV_PRE_L*%
X25909400Y-33825500D03*
X31221500Y-65491300D03*
%TO.N,HPF_R_A*%
X13332200Y-68306300D03*
X11779500Y-39025600D03*
%TO.N,CTL_CLIP_MODE_B*%
X67653800Y-54856300D03*
%TO.N,XFADE_OUT_R*%
X21950400Y-73132600D03*
%TD*%
%TO.N,BUF_OUT_R*%
D19*
X43915200Y-32705900D02*
X43915200Y-63181300D01*
X37361800Y-26152500D02*
X43915200Y-32705900D01*
%TO.N,FILTCLIP_OUT_R*%
X117728500Y-13086400D02*
X117728500Y-56638400D01*
X118140000Y-12674900D02*
X117728500Y-13086400D01*
X118140000Y-11398200D02*
X118140000Y-12674900D01*
%TO.N,GE_CLIP_L*%
X59620000Y-58000000D02*
X58508700Y-56888700D01*
X58508700Y-27264800D02*
X60208800Y-25564700D01*
X58508700Y-56888700D02*
X58508700Y-27264800D01*
%TO.N,GE_CLIP_R*%
X59620000Y-35878800D02*
X69934100Y-25564700D01*
X59620000Y-50380000D02*
X59620000Y-35878800D01*
%TO.N,CTL_CLIP_MODE_A*%
X53051700Y-55896600D02*
X52000000Y-56948300D01*
X67773300Y-11398200D02*
X67773300Y-12549900D01*
X53051700Y-44301800D02*
X53051700Y-55896600D01*
X68925000Y-11398200D02*
X67773300Y-11398200D01*
X52771200Y-44021300D02*
X53051700Y-44301800D01*
X52000000Y-58000000D02*
X52000000Y-56948300D01*
X67773300Y-12549900D02*
X52771200Y-27552000D01*
X52771200Y-27552000D02*
X52771200Y-44021300D01*
%TO.N,+15VA*%
X11479300Y-73132600D02*
X7950700Y-69604000D01*
X7950700Y-69604000D02*
X7950700Y-31828400D01*
X7950700Y-31828400D02*
X11024800Y-28754300D01*
%TO.N,-15VA*%
X28648700Y-29467500D02*
X28648700Y-56575400D01*
X31904400Y-76323400D02*
X31221500Y-77006300D01*
X31904400Y-59831100D02*
X31904400Y-76323400D01*
X28648700Y-56575400D02*
X31904400Y-59831100D01*
X28670700Y-29445500D02*
X28648700Y-29467500D01*
%TO.N,LPF_OUT_L*%
X40689500Y-33879800D02*
X40689500Y-70667900D01*
X40689500Y-70667900D02*
X40170500Y-71186900D01*
X37906900Y-33360800D02*
X25877300Y-21331200D01*
X40170500Y-33360800D02*
X40689500Y-33879800D01*
X40170500Y-33360800D02*
X37906900Y-33360800D01*
%TO.N,LPF_L_A*%
X48925000Y-11398200D02*
X48925000Y-64073900D01*
X48925000Y-64073900D02*
X41000400Y-71998500D01*
%TO.N,LPF_R_A*%
X55273300Y-10966300D02*
X54424200Y-10117200D01*
X54424200Y-10117200D02*
X50094800Y-10117200D01*
X50094800Y-10117200D02*
X45584800Y-10117200D01*
X50094800Y-32349900D02*
X49774400Y-32670300D01*
X49774400Y-32670300D02*
X49774400Y-72881800D01*
X49774400Y-72881800D02*
X48891900Y-73764300D01*
X55273300Y-11398200D02*
X55273300Y-10966300D01*
X56425000Y-11398200D02*
X55273300Y-11398200D01*
X50094800Y-10117200D02*
X50094800Y-32349900D01*
X33577800Y-22124200D02*
X33577800Y-25301800D01*
X45584800Y-10117200D02*
X33577800Y-22124200D01*
%TO.N,LPF_OUT_R*%
X50402900Y-32892600D02*
X50402900Y-72627200D01*
X50402900Y-72627200D02*
X50376100Y-72654000D01*
%TO.N,BUF_OUT_L*%
X55810000Y-59397900D02*
X59930200Y-63518100D01*
X53372900Y-34447500D02*
X55810000Y-36884600D01*
X55810000Y-36884600D02*
X55810000Y-59397900D01*
%TO.N,FILTCLIP_OUT_L*%
X113140000Y-28120700D02*
X72906100Y-68354600D01*
X113140000Y-11398200D02*
X113140000Y-28120700D01*
%TO.N,CLIP_NODE_R*%
X34642200Y-53586900D02*
X35592900Y-54537600D01*
X35592900Y-58416400D02*
X39634300Y-62457800D01*
X35592900Y-54537600D02*
X35592900Y-58416400D01*
%TO.N,LED_CLIP_L*%
X38509000Y-42787000D02*
X37499700Y-41777700D01*
X39620000Y-58000000D02*
X38509000Y-56889000D01*
X38509000Y-56889000D02*
X38509000Y-42787000D01*
%TO.N,DRV_WIPER*%
X16327900Y-31257100D02*
X21067500Y-35996700D01*
X14975000Y-11398200D02*
X16126700Y-11398200D01*
X21067500Y-64164100D02*
X22272500Y-65369100D01*
X19254100Y-27036500D02*
X16126700Y-23909100D01*
X16126700Y-23909100D02*
X16126700Y-11398200D01*
X16327900Y-31257100D02*
X16327900Y-29962700D01*
X16327900Y-29962700D02*
X19254100Y-27036500D01*
X21067500Y-35996700D02*
X21067500Y-64164100D01*
%TO.N,DRV_HI*%
X42985800Y-39577200D02*
X43211700Y-39803100D01*
X43211700Y-64050300D02*
X44348700Y-65187300D01*
X43211700Y-39803100D02*
X43211700Y-64050300D01*
%TO.N,HPF_F_R_HI*%
X25255500Y-12955400D02*
X24975000Y-12674900D01*
X25255500Y-74096600D02*
X25255500Y-12955400D01*
X24975000Y-11398200D02*
X24975000Y-12674900D01*
%TO.N,HPF_OUT_R*%
X8603400Y-60761000D02*
X8603400Y-33825500D01*
X13719500Y-65877100D02*
X8603400Y-60761000D01*
%TO.N,DRV_PRE_R*%
X24459800Y-28010700D02*
X23174500Y-26725400D01*
X24459800Y-60499700D02*
X24459800Y-28010700D01*
%TO.N,SR_BIAS_MID*%
X33488300Y-42416500D02*
X33488300Y-60010500D01*
X33488300Y-60010500D02*
X32697500Y-60801300D01*
X39634300Y-36270500D02*
X33488300Y-42416500D01*
%TO.N,HPF_OUT_L*%
X25518100Y-74735400D02*
X31012200Y-69241300D01*
X15645000Y-30081100D02*
X15645000Y-65358900D01*
X31012200Y-69241300D02*
X31012200Y-67725400D01*
X25021500Y-74735400D02*
X25518100Y-74735400D01*
X10888800Y-25324900D02*
X15645000Y-30081100D01*
X15645000Y-65358900D02*
X25021500Y-74735400D01*
%TO.N,DRV_PRE_L*%
X25909400Y-60179200D02*
X25909400Y-33825500D01*
X31221500Y-65491300D02*
X25909400Y-60179200D01*
%TO.N,HPF_R_A*%
X13128500Y-40374600D02*
X13128500Y-64051500D01*
X14361000Y-65284000D02*
X14361000Y-67277500D01*
X14361000Y-67277500D02*
X13332200Y-68306300D01*
X11779500Y-39025600D02*
X13128500Y-40374600D01*
X13128500Y-64051500D02*
X14361000Y-65284000D01*
%TO.N,CTL_CLIP_MODE_B*%
X71425000Y-11398200D02*
X71425000Y-51085100D01*
X71425000Y-51085100D02*
X67653800Y-54856300D01*
%TO.N,XFADE_OUT_R*%
X104190000Y-20109200D02*
X104190000Y-11398200D01*
X26470200Y-77652400D02*
X46646800Y-77652400D01*
X21950400Y-73132600D02*
X26470200Y-77652400D01*
X46646800Y-77652400D02*
X104190000Y-20109200D01*
%TD*%
%TA.AperFunction,Conductor*%
%TO.N,AGND*%
G36*
X25798243Y-21931700D02*
G01*
X25870399Y-21931700D01*
X25928590Y-21950607D01*
X25940403Y-21960696D01*
X37586420Y-33606713D01*
X37586419Y-33606713D01*
X37660987Y-33681280D01*
X37752313Y-33734007D01*
X37854173Y-33761300D01*
X39680756Y-33761300D01*
X39738947Y-33780207D01*
X39750759Y-33790296D01*
X39787537Y-33827073D01*
X39801784Y-33841320D01*
X39938716Y-33920377D01*
X40091443Y-33961300D01*
X40163599Y-33961300D01*
X40221790Y-33980207D01*
X40233603Y-33990296D01*
X40260004Y-34016697D01*
X40287781Y-34071214D01*
X40289000Y-34086701D01*
X40289000Y-35837135D01*
X40270093Y-35895326D01*
X40220593Y-35931290D01*
X40159407Y-35931290D01*
X40121368Y-35904412D01*
X40119408Y-35906373D01*
X40114821Y-35901786D01*
X40114820Y-35901784D01*
X40003016Y-35789980D01*
X39866084Y-35710923D01*
X39713357Y-35670000D01*
X39555243Y-35670000D01*
X39402516Y-35710923D01*
X39265584Y-35789980D01*
X39153780Y-35901784D01*
X39074723Y-36038716D01*
X39034693Y-36188113D01*
X39033800Y-36191444D01*
X39033800Y-36263599D01*
X39014893Y-36321790D01*
X39004804Y-36333603D01*
X33167816Y-42170591D01*
X33115094Y-42261907D01*
X33115093Y-42261912D01*
X33094900Y-42337277D01*
X33087800Y-42363774D01*
X33087800Y-56923822D01*
X33068893Y-56982013D01*
X33019393Y-57017977D01*
X32958207Y-57017977D01*
X32931338Y-57001512D01*
X32930334Y-57002979D01*
X32922766Y-56997795D01*
X32922765Y-56997794D01*
X32819991Y-56952415D01*
X32819990Y-56952414D01*
X32819988Y-56952414D01*
X32794868Y-56949500D01*
X31205139Y-56949500D01*
X31205136Y-56949501D01*
X31180009Y-56952414D01*
X31077235Y-56997794D01*
X30997794Y-57077235D01*
X30952414Y-57180011D01*
X30949500Y-57205130D01*
X30949500Y-58070799D01*
X30930593Y-58128990D01*
X30881093Y-58164954D01*
X30819907Y-58164954D01*
X30780496Y-58140803D01*
X29078196Y-56438503D01*
X29050419Y-56383986D01*
X29049200Y-56368499D01*
X29049200Y-29957243D01*
X29068107Y-29899052D01*
X29078190Y-29887245D01*
X29151220Y-29814216D01*
X29230277Y-29677284D01*
X29271200Y-29524557D01*
X29271200Y-29366443D01*
X29230277Y-29213716D01*
X29151220Y-29076784D01*
X29039416Y-28964980D01*
X28902484Y-28885923D01*
X28749757Y-28845000D01*
X28591643Y-28845000D01*
X28438916Y-28885923D01*
X28301984Y-28964980D01*
X28190180Y-29076784D01*
X28111123Y-29213716D01*
X28070200Y-29366443D01*
X28070200Y-29524557D01*
X28111123Y-29677284D01*
X28190180Y-29814216D01*
X28219205Y-29843241D01*
X28246981Y-29897756D01*
X28248200Y-29913243D01*
X28248200Y-56522673D01*
X28248200Y-56628127D01*
X28268099Y-56702391D01*
X28275494Y-56729992D01*
X28328216Y-56821308D01*
X28328218Y-56821310D01*
X28328220Y-56821313D01*
X31474905Y-59967998D01*
X31502681Y-60022513D01*
X31503900Y-60038000D01*
X31503900Y-64816266D01*
X31484993Y-64874457D01*
X31435493Y-64910421D01*
X31379277Y-64911893D01*
X31300557Y-64890800D01*
X31300555Y-64890800D01*
X31228401Y-64890800D01*
X31170210Y-64871893D01*
X31158397Y-64861804D01*
X26338896Y-60042303D01*
X26311119Y-59987786D01*
X26309900Y-59972299D01*
X26309900Y-34315243D01*
X26328807Y-34257052D01*
X26338890Y-34245245D01*
X26389920Y-34194216D01*
X26468977Y-34057284D01*
X26509900Y-33904557D01*
X26509900Y-33746443D01*
X26468977Y-33593716D01*
X26389920Y-33456784D01*
X26278116Y-33344980D01*
X26141184Y-33265923D01*
X25988457Y-33225000D01*
X25830343Y-33225000D01*
X25780621Y-33238322D01*
X25719522Y-33235120D01*
X25671972Y-33196615D01*
X25656000Y-33142696D01*
X25656000Y-22022605D01*
X25674907Y-21964414D01*
X25724407Y-21928450D01*
X25780624Y-21926979D01*
X25798243Y-21931700D01*
G37*
%TD.AperFunction*%
%TA.AperFunction,Conductor*%
G36*
X139458691Y-519407D02*
G01*
X139494655Y-568907D01*
X139499500Y-599500D01*
X139499500Y-89400500D01*
X139480593Y-89458691D01*
X139431093Y-89494655D01*
X139400500Y-89499500D01*
X599500Y-89499500D01*
X541309Y-89480593D01*
X505345Y-89431093D01*
X500500Y-89400500D01*
X500500Y-86378710D01*
X1649500Y-86378710D01*
X1649500Y-86621289D01*
X1681161Y-86861781D01*
X1681161Y-86861786D01*
X1743944Y-87096092D01*
X1743948Y-87096105D01*
X1836772Y-87320204D01*
X1836774Y-87320208D01*
X1836776Y-87320212D01*
X1958064Y-87530289D01*
X1958066Y-87530292D01*
X2105729Y-87722731D01*
X2105731Y-87722733D01*
X2105735Y-87722738D01*
X2277262Y-87894265D01*
X2277266Y-87894268D01*
X2277268Y-87894270D01*
X2469707Y-88041933D01*
X2469711Y-88041936D01*
X2679788Y-88163224D01*
X2903900Y-88256054D01*
X3138211Y-88318838D01*
X3378712Y-88350500D01*
X3378713Y-88350500D01*
X3621287Y-88350500D01*
X3621288Y-88350500D01*
X3861789Y-88318838D01*
X4096100Y-88256054D01*
X4320212Y-88163224D01*
X4530289Y-88041936D01*
X4722738Y-87894265D01*
X4894265Y-87722738D01*
X5041936Y-87530289D01*
X5163224Y-87320212D01*
X5256054Y-87096100D01*
X5318838Y-86861789D01*
X5350500Y-86621288D01*
X5350500Y-86378712D01*
X5350500Y-86378710D01*
X134649500Y-86378710D01*
X134649500Y-86621289D01*
X134681161Y-86861781D01*
X134681161Y-86861786D01*
X134743944Y-87096092D01*
X134743948Y-87096105D01*
X134836772Y-87320204D01*
X134836774Y-87320208D01*
X134836776Y-87320212D01*
X134958064Y-87530289D01*
X134958066Y-87530292D01*
X135105729Y-87722731D01*
X135105731Y-87722733D01*
X135105735Y-87722738D01*
X135277262Y-87894265D01*
X135277266Y-87894268D01*
X135277268Y-87894270D01*
X135469707Y-88041933D01*
X135469711Y-88041936D01*
X135679788Y-88163224D01*
X135903900Y-88256054D01*
X136138211Y-88318838D01*
X136378712Y-88350500D01*
X136378713Y-88350500D01*
X136621287Y-88350500D01*
X136621288Y-88350500D01*
X136861789Y-88318838D01*
X137096100Y-88256054D01*
X137320212Y-88163224D01*
X137530289Y-88041936D01*
X137722738Y-87894265D01*
X137894265Y-87722738D01*
X138041936Y-87530289D01*
X138163224Y-87320212D01*
X138256054Y-87096100D01*
X138318838Y-86861789D01*
X138350500Y-86621288D01*
X138350500Y-86378712D01*
X138318838Y-86138211D01*
X138256054Y-85903900D01*
X138163224Y-85679788D01*
X138041936Y-85469711D01*
X137894265Y-85277262D01*
X137722738Y-85105735D01*
X137722733Y-85105731D01*
X137722731Y-85105729D01*
X137530292Y-84958066D01*
X137530289Y-84958064D01*
X137320212Y-84836776D01*
X137320208Y-84836774D01*
X137320204Y-84836772D01*
X137096105Y-84743948D01*
X137096104Y-84743947D01*
X137096100Y-84743946D01*
X136861789Y-84681162D01*
X136861786Y-84681161D01*
X136861784Y-84681161D01*
X136621289Y-84649500D01*
X136621288Y-84649500D01*
X136378712Y-84649500D01*
X136378710Y-84649500D01*
X136138218Y-84681161D01*
X136138213Y-84681161D01*
X135903907Y-84743944D01*
X135903894Y-84743948D01*
X135679795Y-84836772D01*
X135469707Y-84958066D01*
X135277268Y-85105729D01*
X135105729Y-85277268D01*
X134958066Y-85469707D01*
X134836772Y-85679795D01*
X134743948Y-85903894D01*
X134743944Y-85903907D01*
X134681161Y-86138213D01*
X134681161Y-86138218D01*
X134649500Y-86378710D01*
X5350500Y-86378710D01*
X5318838Y-86138211D01*
X5256054Y-85903900D01*
X5163224Y-85679788D01*
X5041936Y-85469711D01*
X4894265Y-85277262D01*
X4722738Y-85105735D01*
X4722733Y-85105731D01*
X4722731Y-85105729D01*
X4530292Y-84958066D01*
X4530289Y-84958064D01*
X4320212Y-84836776D01*
X4320208Y-84836774D01*
X4320204Y-84836772D01*
X4096105Y-84743948D01*
X4096104Y-84743947D01*
X4096100Y-84743946D01*
X3861789Y-84681162D01*
X3861786Y-84681161D01*
X3861784Y-84681161D01*
X3621289Y-84649500D01*
X3621288Y-84649500D01*
X3378712Y-84649500D01*
X3378710Y-84649500D01*
X3138218Y-84681161D01*
X3138213Y-84681161D01*
X2903907Y-84743944D01*
X2903894Y-84743948D01*
X2679795Y-84836772D01*
X2469707Y-84958066D01*
X2277268Y-85105729D01*
X2105729Y-85277268D01*
X1958066Y-85469707D01*
X1836772Y-85679795D01*
X1743948Y-85903894D01*
X1743944Y-85903907D01*
X1681161Y-86138213D01*
X1681161Y-86138218D01*
X1649500Y-86378710D01*
X500500Y-86378710D01*
X500500Y-31775673D01*
X7550200Y-31775673D01*
X7550200Y-69551273D01*
X7550200Y-69656727D01*
X7574270Y-69746559D01*
X7577494Y-69758592D01*
X7630216Y-69849908D01*
X7630218Y-69849910D01*
X7630220Y-69849913D01*
X10849805Y-73069498D01*
X10877581Y-73124013D01*
X10878800Y-73139500D01*
X10878800Y-73211657D01*
X10919723Y-73364384D01*
X10998780Y-73501316D01*
X11110584Y-73613120D01*
X11247516Y-73692177D01*
X11400243Y-73733100D01*
X11400245Y-73733100D01*
X11558355Y-73733100D01*
X11558357Y-73733100D01*
X11711084Y-73692177D01*
X11848016Y-73613120D01*
X11959820Y-73501316D01*
X12038877Y-73364384D01*
X12079800Y-73211657D01*
X12079800Y-73053543D01*
X12038877Y-72900816D01*
X11959820Y-72763884D01*
X11848016Y-72652080D01*
X11711084Y-72573023D01*
X11558357Y-72532100D01*
X11558355Y-72532100D01*
X11486201Y-72532100D01*
X11428010Y-72513193D01*
X11416197Y-72503104D01*
X8380196Y-69467103D01*
X8352419Y-69412586D01*
X8351200Y-69397099D01*
X8351200Y-61314201D01*
X8370107Y-61256010D01*
X8419607Y-61220046D01*
X8480793Y-61220046D01*
X8520204Y-61244197D01*
X13090004Y-65813997D01*
X13117781Y-65868514D01*
X13119000Y-65884001D01*
X13119000Y-65956157D01*
X13159923Y-66108884D01*
X13238980Y-66245816D01*
X13350784Y-66357620D01*
X13487716Y-66436677D01*
X13640443Y-66477600D01*
X13640445Y-66477600D01*
X13798556Y-66477600D01*
X13798557Y-66477600D01*
X13835877Y-66467600D01*
X13896977Y-66470801D01*
X13944528Y-66509306D01*
X13960500Y-66563226D01*
X13960500Y-67070599D01*
X13941593Y-67128790D01*
X13931504Y-67140603D01*
X13395303Y-67676804D01*
X13340786Y-67704581D01*
X13325299Y-67705800D01*
X13253143Y-67705800D01*
X13100416Y-67746723D01*
X12963484Y-67825780D01*
X12851680Y-67937584D01*
X12772623Y-68074516D01*
X12731700Y-68227243D01*
X12731700Y-68385357D01*
X12772623Y-68538084D01*
X12851680Y-68675016D01*
X12963484Y-68786820D01*
X13100416Y-68865877D01*
X13253143Y-68906800D01*
X13253145Y-68906800D01*
X13411255Y-68906800D01*
X13411257Y-68906800D01*
X13563984Y-68865877D01*
X13700916Y-68786820D01*
X13812720Y-68675016D01*
X13891777Y-68538084D01*
X13932700Y-68385357D01*
X13932700Y-68313200D01*
X13951607Y-68255009D01*
X13961690Y-68243202D01*
X14681480Y-67523413D01*
X14681483Y-67523408D01*
X14734205Y-67432092D01*
X14734205Y-67432090D01*
X14734207Y-67432088D01*
X14761500Y-67330227D01*
X14761500Y-67224773D01*
X14761500Y-65231273D01*
X14734207Y-65129413D01*
X14734207Y-65129412D01*
X14734207Y-65129411D01*
X14681483Y-65038091D01*
X14681482Y-65038090D01*
X14681481Y-65038089D01*
X14681480Y-65038087D01*
X13557996Y-63914603D01*
X13530219Y-63860086D01*
X13529000Y-63844599D01*
X13529000Y-58704141D01*
X13547907Y-58645950D01*
X13597407Y-58609986D01*
X13658593Y-58609986D01*
X13708093Y-58645950D01*
X13710294Y-58649109D01*
X13724023Y-58669655D01*
X13870345Y-58815977D01*
X14042402Y-58930941D01*
X14233580Y-59010130D01*
X14436535Y-59050500D01*
X14436536Y-59050500D01*
X14643464Y-59050500D01*
X14643465Y-59050500D01*
X14846420Y-59010130D01*
X15037598Y-58930941D01*
X15090499Y-58895593D01*
X15149386Y-58878985D01*
X15206790Y-58900162D01*
X15240783Y-58951036D01*
X15244500Y-58977909D01*
X15244500Y-65306173D01*
X15244500Y-65411627D01*
X15254288Y-65448157D01*
X15271794Y-65513492D01*
X15324516Y-65604808D01*
X15324517Y-65604809D01*
X15324518Y-65604810D01*
X15324520Y-65604813D01*
X18754105Y-69034398D01*
X22082803Y-72363096D01*
X22110580Y-72417613D01*
X22101009Y-72478045D01*
X22057744Y-72521310D01*
X22012799Y-72532100D01*
X21871343Y-72532100D01*
X21718616Y-72573023D01*
X21581684Y-72652080D01*
X21469880Y-72763884D01*
X21390823Y-72900816D01*
X21349900Y-73053543D01*
X21349900Y-73211657D01*
X21390823Y-73364384D01*
X21469880Y-73501316D01*
X21581684Y-73613120D01*
X21718616Y-73692177D01*
X21871343Y-73733100D01*
X21943499Y-73733100D01*
X22001690Y-73752007D01*
X22013503Y-73762096D01*
X26149720Y-77898313D01*
X26149719Y-77898313D01*
X26224287Y-77972880D01*
X26315613Y-78025607D01*
X26417473Y-78052900D01*
X26417475Y-78052900D01*
X46699525Y-78052900D01*
X46699527Y-78052900D01*
X46801388Y-78025607D01*
X46801390Y-78025605D01*
X46801392Y-78025605D01*
X46892708Y-77972883D01*
X46892708Y-77972882D01*
X46892713Y-77972880D01*
X56590050Y-68275543D01*
X72305600Y-68275543D01*
X72305600Y-68433657D01*
X72346523Y-68586384D01*
X72425580Y-68723316D01*
X72537384Y-68835120D01*
X72674316Y-68914177D01*
X72827043Y-68955100D01*
X72827045Y-68955100D01*
X72985155Y-68955100D01*
X72985157Y-68955100D01*
X73137884Y-68914177D01*
X73274816Y-68835120D01*
X73386620Y-68723316D01*
X73465677Y-68586384D01*
X73506600Y-68433657D01*
X73506600Y-68361500D01*
X73525507Y-68303309D01*
X73535590Y-68291502D01*
X113460480Y-28366613D01*
X113513207Y-28275288D01*
X113540500Y-28173427D01*
X113540500Y-28067973D01*
X113540500Y-12772700D01*
X113559407Y-12714509D01*
X113608907Y-12678545D01*
X113639500Y-12673700D01*
X113783100Y-12673700D01*
X113783102Y-12673700D01*
X113871564Y-12663077D01*
X114012342Y-12607561D01*
X114132922Y-12516122D01*
X114224361Y-12395542D01*
X114279877Y-12254764D01*
X114290500Y-12166302D01*
X114290500Y-11182650D01*
X116989500Y-11182650D01*
X116989500Y-11613749D01*
X117017828Y-11792606D01*
X117073788Y-11964837D01*
X117150112Y-12114632D01*
X117156004Y-12126194D01*
X117262447Y-12272701D01*
X117390499Y-12400753D01*
X117537006Y-12507196D01*
X117537010Y-12507198D01*
X117550938Y-12514295D01*
X117594203Y-12557559D01*
X117603775Y-12617991D01*
X117575998Y-12672508D01*
X117408020Y-12840486D01*
X117408016Y-12840491D01*
X117355294Y-12931807D01*
X117355293Y-12931812D01*
X117338260Y-12995380D01*
X117338260Y-12995381D01*
X117338259Y-12995380D01*
X117328000Y-13033671D01*
X117328000Y-56148656D01*
X117309093Y-56206847D01*
X117299004Y-56218659D01*
X117247982Y-56269681D01*
X117247980Y-56269683D01*
X117247980Y-56269684D01*
X117168923Y-56406616D01*
X117128000Y-56559343D01*
X117128000Y-56717457D01*
X117168923Y-56870184D01*
X117247980Y-57007116D01*
X117359784Y-57118920D01*
X117496716Y-57197977D01*
X117649443Y-57238900D01*
X117649445Y-57238900D01*
X117807555Y-57238900D01*
X117807557Y-57238900D01*
X117960284Y-57197977D01*
X118097216Y-57118920D01*
X118209020Y-57007116D01*
X118288077Y-56870184D01*
X118329000Y-56717457D01*
X118329000Y-56559343D01*
X118288077Y-56406616D01*
X118209020Y-56269684D01*
X118209017Y-56269681D01*
X118157996Y-56218659D01*
X118130219Y-56164142D01*
X118129000Y-56148656D01*
X118129000Y-13293300D01*
X118147907Y-13235109D01*
X118157990Y-13223302D01*
X118460480Y-12920813D01*
X118485141Y-12878100D01*
X118513205Y-12829492D01*
X118513205Y-12829490D01*
X118513207Y-12829488D01*
X118540500Y-12727627D01*
X118540500Y-12671039D01*
X118559407Y-12612848D01*
X118594552Y-12582831D01*
X118742994Y-12507196D01*
X118889501Y-12400753D01*
X119017553Y-12272701D01*
X119123996Y-12126194D01*
X119206211Y-11964839D01*
X119262171Y-11792609D01*
X119290500Y-11613746D01*
X119290500Y-11182654D01*
X119290500Y-11182650D01*
X119264202Y-11016614D01*
X119262171Y-11003791D01*
X119206211Y-10831561D01*
X119123996Y-10670206D01*
X119017553Y-10523699D01*
X118889501Y-10395647D01*
X118742994Y-10289204D01*
X118742993Y-10289203D01*
X118742991Y-10289202D01*
X118581637Y-10206988D01*
X118409406Y-10151028D01*
X118230549Y-10122700D01*
X118230546Y-10122700D01*
X118049454Y-10122700D01*
X118049451Y-10122700D01*
X117870593Y-10151028D01*
X117698362Y-10206988D01*
X117537008Y-10289202D01*
X117463752Y-10342425D01*
X117390499Y-10395647D01*
X117262447Y-10523699D01*
X117253069Y-10536607D01*
X117156002Y-10670208D01*
X117073788Y-10831562D01*
X117017828Y-11003793D01*
X116989500Y-11182650D01*
X114290500Y-11182650D01*
X114290500Y-10630098D01*
X114279877Y-10541636D01*
X114224361Y-10400858D01*
X114132922Y-10280278D01*
X114012342Y-10188839D01*
X114012341Y-10188838D01*
X114012339Y-10188837D01*
X113871565Y-10133323D01*
X113783106Y-10122700D01*
X113783102Y-10122700D01*
X112496898Y-10122700D01*
X112496893Y-10122700D01*
X112408434Y-10133323D01*
X112267660Y-10188837D01*
X112267656Y-10188840D01*
X112147081Y-10280275D01*
X112147075Y-10280281D01*
X112055640Y-10400856D01*
X112055637Y-10400860D01*
X112000123Y-10541634D01*
X111989500Y-10630093D01*
X111989500Y-12166306D01*
X112000123Y-12254765D01*
X112055637Y-12395539D01*
X112055638Y-12395541D01*
X112055639Y-12395542D01*
X112147078Y-12516122D01*
X112267658Y-12607561D01*
X112267659Y-12607561D01*
X112267660Y-12607562D01*
X112304711Y-12622173D01*
X112408436Y-12663077D01*
X112496898Y-12673700D01*
X112640500Y-12673700D01*
X112698691Y-12692607D01*
X112734655Y-12742107D01*
X112739500Y-12772700D01*
X112739500Y-27913799D01*
X112720593Y-27971990D01*
X112710504Y-27983803D01*
X72969203Y-67725104D01*
X72914686Y-67752881D01*
X72899199Y-67754100D01*
X72827043Y-67754100D01*
X72674316Y-67795023D01*
X72537384Y-67874080D01*
X72425580Y-67985884D01*
X72346523Y-68122816D01*
X72305600Y-68275543D01*
X56590050Y-68275543D01*
X104510480Y-20355113D01*
X104563207Y-20263788D01*
X104590500Y-20161927D01*
X104590500Y-20056473D01*
X104590500Y-12671039D01*
X104609407Y-12612848D01*
X104644552Y-12582831D01*
X104792994Y-12507196D01*
X104939501Y-12400753D01*
X105067553Y-12272701D01*
X105173996Y-12126194D01*
X105256211Y-11964839D01*
X105312171Y-11792609D01*
X105340500Y-11613746D01*
X105340500Y-11182654D01*
X105340500Y-11182650D01*
X105314202Y-11016614D01*
X105312171Y-11003791D01*
X105256211Y-10831561D01*
X105173996Y-10670206D01*
X105067553Y-10523699D01*
X104939501Y-10395647D01*
X104792994Y-10289204D01*
X104792993Y-10289203D01*
X104792991Y-10289202D01*
X104631637Y-10206988D01*
X104459406Y-10151028D01*
X104280549Y-10122700D01*
X104280546Y-10122700D01*
X104099454Y-10122700D01*
X104099451Y-10122700D01*
X103920593Y-10151028D01*
X103748362Y-10206988D01*
X103587008Y-10289202D01*
X103513752Y-10342425D01*
X103440499Y-10395647D01*
X103312447Y-10523699D01*
X103303069Y-10536607D01*
X103206002Y-10670208D01*
X103123788Y-10831562D01*
X103067828Y-11003793D01*
X103039500Y-11182650D01*
X103039500Y-11613749D01*
X103067828Y-11792606D01*
X103123788Y-11964837D01*
X103200112Y-12114632D01*
X103206004Y-12126194D01*
X103312447Y-12272701D01*
X103440499Y-12400753D01*
X103587006Y-12507196D01*
X103735446Y-12582830D01*
X103778710Y-12626094D01*
X103789500Y-12671039D01*
X103789500Y-19902298D01*
X103770593Y-19960489D01*
X103760504Y-19972302D01*
X60565163Y-63167642D01*
X60510646Y-63195419D01*
X60450214Y-63185848D01*
X60416076Y-63153449D01*
X60414669Y-63154530D01*
X60410725Y-63149390D01*
X60410721Y-63149386D01*
X60410720Y-63149384D01*
X60298916Y-63037580D01*
X60161984Y-62958523D01*
X60009257Y-62917600D01*
X60009255Y-62917600D01*
X59937100Y-62917600D01*
X59878909Y-62898693D01*
X59867096Y-62888604D01*
X56239496Y-59261003D01*
X56211719Y-59206486D01*
X56210500Y-59190999D01*
X56210500Y-58855139D01*
X56229407Y-58796948D01*
X56278907Y-58760984D01*
X56340093Y-58760984D01*
X56379501Y-58785133D01*
X56410345Y-58815977D01*
X56582402Y-58930941D01*
X56773580Y-59010130D01*
X56976535Y-59050500D01*
X56976536Y-59050500D01*
X57183464Y-59050500D01*
X57183465Y-59050500D01*
X57386420Y-59010130D01*
X57577598Y-58930941D01*
X57749655Y-58815977D01*
X57895977Y-58669655D01*
X58010941Y-58497598D01*
X58090130Y-58306420D01*
X58130500Y-58103465D01*
X58130500Y-57896535D01*
X58090130Y-57693580D01*
X58010941Y-57502402D01*
X57895977Y-57330345D01*
X57749655Y-57184023D01*
X57749651Y-57184020D01*
X57577597Y-57069058D01*
X57386418Y-56989869D01*
X57183467Y-56949500D01*
X57183465Y-56949500D01*
X56976535Y-56949500D01*
X56976532Y-56949500D01*
X56773581Y-56989869D01*
X56582402Y-57069058D01*
X56410348Y-57184020D01*
X56410345Y-57184022D01*
X56410345Y-57184023D01*
X56379501Y-57214866D01*
X56324987Y-57242642D01*
X56264555Y-57233071D01*
X56221290Y-57189806D01*
X56210500Y-57144861D01*
X56210500Y-51235139D01*
X56229407Y-51176948D01*
X56278907Y-51140984D01*
X56340093Y-51140984D01*
X56379501Y-51165133D01*
X56410345Y-51195977D01*
X56582402Y-51310941D01*
X56773580Y-51390130D01*
X56976535Y-51430500D01*
X56976536Y-51430500D01*
X57183464Y-51430500D01*
X57183465Y-51430500D01*
X57386420Y-51390130D01*
X57577598Y-51310941D01*
X57749655Y-51195977D01*
X57895977Y-51049655D01*
X57926884Y-51003398D01*
X57974934Y-50965519D01*
X58036072Y-50963117D01*
X58086946Y-50997109D01*
X58108124Y-51054513D01*
X58108200Y-51058400D01*
X58108200Y-56835973D01*
X58108200Y-56941427D01*
X58125174Y-57004775D01*
X58135494Y-57043292D01*
X58188216Y-57134608D01*
X58188220Y-57134613D01*
X58603314Y-57549708D01*
X58631091Y-57604224D01*
X58624775Y-57657594D01*
X58609870Y-57693579D01*
X58609870Y-57693580D01*
X58569500Y-57896532D01*
X58569500Y-58103467D01*
X58609869Y-58306418D01*
X58689058Y-58497597D01*
X58803566Y-58668971D01*
X58804023Y-58669655D01*
X58950345Y-58815977D01*
X59122402Y-58930941D01*
X59313580Y-59010130D01*
X59516535Y-59050500D01*
X59516536Y-59050500D01*
X59723464Y-59050500D01*
X59723465Y-59050500D01*
X59926420Y-59010130D01*
X60117598Y-58930941D01*
X60289655Y-58815977D01*
X60435977Y-58669655D01*
X60550941Y-58497598D01*
X60630130Y-58306420D01*
X60670500Y-58103465D01*
X60670500Y-57896535D01*
X60670499Y-57896532D01*
X61109500Y-57896532D01*
X61109500Y-58103467D01*
X61149869Y-58306418D01*
X61229058Y-58497597D01*
X61343566Y-58668971D01*
X61344023Y-58669655D01*
X61490345Y-58815977D01*
X61662402Y-58930941D01*
X61853580Y-59010130D01*
X62056535Y-59050500D01*
X62056536Y-59050500D01*
X62263464Y-59050500D01*
X62263465Y-59050500D01*
X62466420Y-59010130D01*
X62657598Y-58930941D01*
X62829655Y-58815977D01*
X62975977Y-58669655D01*
X63090941Y-58497598D01*
X63170130Y-58306420D01*
X63210500Y-58103465D01*
X63210500Y-57896535D01*
X63170130Y-57693580D01*
X63090941Y-57502402D01*
X62975977Y-57330345D01*
X62829655Y-57184023D01*
X62829651Y-57184020D01*
X62657597Y-57069058D01*
X62466418Y-56989869D01*
X62263467Y-56949500D01*
X62263465Y-56949500D01*
X62056535Y-56949500D01*
X62056532Y-56949500D01*
X61853581Y-56989869D01*
X61662402Y-57069058D01*
X61490348Y-57184020D01*
X61344020Y-57330348D01*
X61229058Y-57502402D01*
X61149869Y-57693581D01*
X61109500Y-57896532D01*
X60670499Y-57896532D01*
X60630130Y-57693580D01*
X60550941Y-57502402D01*
X60435977Y-57330345D01*
X60289655Y-57184023D01*
X60289651Y-57184020D01*
X60117597Y-57069058D01*
X59926418Y-56989869D01*
X59723467Y-56949500D01*
X59723465Y-56949500D01*
X59516535Y-56949500D01*
X59516532Y-56949500D01*
X59313580Y-56989870D01*
X59313579Y-56989870D01*
X59277594Y-57004775D01*
X59216598Y-57009574D01*
X59169707Y-56983314D01*
X58938196Y-56751803D01*
X58910419Y-56697286D01*
X58909200Y-56681799D01*
X58909200Y-51353700D01*
X58928107Y-51295509D01*
X58977607Y-51259545D01*
X59038793Y-51259545D01*
X59063201Y-51271385D01*
X59122399Y-51310939D01*
X59122398Y-51310939D01*
X59122400Y-51310940D01*
X59122402Y-51310941D01*
X59313580Y-51390130D01*
X59516535Y-51430500D01*
X59516536Y-51430500D01*
X59723464Y-51430500D01*
X59723465Y-51430500D01*
X59926420Y-51390130D01*
X60117598Y-51310941D01*
X60289655Y-51195977D01*
X60435977Y-51049655D01*
X60550941Y-50877598D01*
X60630130Y-50686420D01*
X60670500Y-50483465D01*
X60670500Y-50276535D01*
X60670499Y-50276532D01*
X61109500Y-50276532D01*
X61109500Y-50483467D01*
X61149869Y-50686418D01*
X61229058Y-50877597D01*
X61343566Y-51048971D01*
X61344023Y-51049655D01*
X61490345Y-51195977D01*
X61662402Y-51310941D01*
X61853580Y-51390130D01*
X62056535Y-51430500D01*
X62056536Y-51430500D01*
X62263464Y-51430500D01*
X62263465Y-51430500D01*
X62466420Y-51390130D01*
X62657598Y-51310941D01*
X62829655Y-51195977D01*
X62975977Y-51049655D01*
X63090941Y-50877598D01*
X63170130Y-50686420D01*
X63210500Y-50483465D01*
X63210500Y-50276535D01*
X63170130Y-50073580D01*
X63090941Y-49882402D01*
X62975977Y-49710345D01*
X62829655Y-49564023D01*
X62829651Y-49564020D01*
X62657597Y-49449058D01*
X62466418Y-49369869D01*
X62263467Y-49329500D01*
X62263465Y-49329500D01*
X62056535Y-49329500D01*
X62056532Y-49329500D01*
X61853581Y-49369869D01*
X61662402Y-49449058D01*
X61490348Y-49564020D01*
X61344020Y-49710348D01*
X61229058Y-49882402D01*
X61149869Y-50073581D01*
X61109500Y-50276532D01*
X60670499Y-50276532D01*
X60630130Y-50073580D01*
X60550941Y-49882402D01*
X60435977Y-49710345D01*
X60289655Y-49564023D01*
X60289000Y-49563585D01*
X60117594Y-49449056D01*
X60081613Y-49434152D01*
X60035088Y-49394415D01*
X60020500Y-49342689D01*
X60020500Y-36085701D01*
X60039407Y-36027510D01*
X60049496Y-36015697D01*
X69370997Y-26694196D01*
X69425514Y-26666419D01*
X69441001Y-26665200D01*
X70527200Y-26665200D01*
X70527202Y-26665200D01*
X70615664Y-26654577D01*
X70756442Y-26599061D01*
X70865682Y-26516221D01*
X70923472Y-26496127D01*
X70982038Y-26513838D01*
X71019008Y-26562591D01*
X71024500Y-26595106D01*
X71024500Y-50878199D01*
X71005593Y-50936390D01*
X70995504Y-50948203D01*
X67716903Y-54226804D01*
X67662386Y-54254581D01*
X67646899Y-54255800D01*
X67574743Y-54255800D01*
X67422016Y-54296723D01*
X67285084Y-54375780D01*
X67173280Y-54487584D01*
X67094223Y-54624516D01*
X67053300Y-54777243D01*
X67053300Y-54935357D01*
X67094223Y-55088084D01*
X67173280Y-55225016D01*
X67285084Y-55336820D01*
X67422016Y-55415877D01*
X67574743Y-55456800D01*
X67574745Y-55456800D01*
X67732855Y-55456800D01*
X67732857Y-55456800D01*
X67885584Y-55415877D01*
X68022516Y-55336820D01*
X68134320Y-55225016D01*
X68213377Y-55088084D01*
X68254300Y-54935357D01*
X68254300Y-54863200D01*
X68273207Y-54805009D01*
X68283290Y-54793202D01*
X71745480Y-51331013D01*
X71757771Y-51309725D01*
X71798205Y-51239692D01*
X71798205Y-51239690D01*
X71798207Y-51239688D01*
X71825500Y-51137827D01*
X71825500Y-51032373D01*
X71825500Y-25478085D01*
X93798800Y-25478085D01*
X93798800Y-25651314D01*
X93825897Y-25822402D01*
X93825898Y-25822406D01*
X93879423Y-25987138D01*
X93879425Y-25987141D01*
X93923397Y-26073443D01*
X93958068Y-26141488D01*
X94059886Y-26281628D01*
X94182372Y-26404114D01*
X94322512Y-26505932D01*
X94476855Y-26584573D01*
X94476857Y-26584573D01*
X94476858Y-26584574D01*
X94476861Y-26584576D01*
X94641593Y-26638101D01*
X94641597Y-26638102D01*
X94812686Y-26665200D01*
X94812689Y-26665200D01*
X94985914Y-26665200D01*
X95157002Y-26638102D01*
X95157006Y-26638101D01*
X95321738Y-26584576D01*
X95321740Y-26584574D01*
X95321745Y-26584573D01*
X95476088Y-26505932D01*
X95616228Y-26404114D01*
X95738714Y-26281628D01*
X95840532Y-26141488D01*
X95919173Y-25987145D01*
X95919174Y-25987140D01*
X95919176Y-25987138D01*
X95972701Y-25822406D01*
X95972702Y-25822402D01*
X95999800Y-25651314D01*
X95999800Y-25478085D01*
X95972702Y-25306997D01*
X95972701Y-25306993D01*
X95919176Y-25142261D01*
X95919174Y-25142258D01*
X95919173Y-25142257D01*
X95919173Y-25142255D01*
X95840532Y-24987912D01*
X95738714Y-24847772D01*
X95616228Y-24725286D01*
X95476088Y-24623468D01*
X95476087Y-24623467D01*
X95476085Y-24623466D01*
X95321741Y-24544825D01*
X95321738Y-24544823D01*
X95157006Y-24491298D01*
X95157002Y-24491297D01*
X94985914Y-24464200D01*
X94985911Y-24464200D01*
X94812689Y-24464200D01*
X94812686Y-24464200D01*
X94641597Y-24491297D01*
X94641593Y-24491298D01*
X94476861Y-24544823D01*
X94476858Y-24544825D01*
X94322514Y-24623466D01*
X94182373Y-24725285D01*
X94059885Y-24847773D01*
X93958066Y-24987914D01*
X93879425Y-25142258D01*
X93879423Y-25142261D01*
X93825898Y-25306993D01*
X93825897Y-25306997D01*
X93798800Y-25478085D01*
X71825500Y-25478085D01*
X71825500Y-12671039D01*
X71844407Y-12612848D01*
X71879552Y-12582831D01*
X72027994Y-12507196D01*
X72174501Y-12400753D01*
X72302553Y-12272701D01*
X72408996Y-12126194D01*
X72491211Y-11964839D01*
X72547171Y-11792609D01*
X72575500Y-11613746D01*
X72575500Y-11605098D01*
X81169500Y-11605098D01*
X81169500Y-13891296D01*
X81169501Y-13891299D01*
X81180124Y-13979764D01*
X81235639Y-14120542D01*
X81327078Y-14241122D01*
X81447658Y-14332561D01*
X81588436Y-14388076D01*
X81676901Y-14398700D01*
X83963098Y-14398699D01*
X84051564Y-14388076D01*
X84192342Y-14332561D01*
X84312922Y-14241122D01*
X84404361Y-14120542D01*
X84459876Y-13979764D01*
X84470500Y-13891299D01*
X84470499Y-12618299D01*
X89089500Y-12618299D01*
X89089500Y-12878100D01*
X89130138Y-13134688D01*
X89181675Y-13293300D01*
X89210421Y-13381772D01*
X89328366Y-13613251D01*
X89481069Y-13823429D01*
X89664771Y-14007131D01*
X89874949Y-14159834D01*
X90106428Y-14277779D01*
X90353507Y-14358060D01*
X90353508Y-14358060D01*
X90353511Y-14358061D01*
X90610100Y-14398700D01*
X90610103Y-14398700D01*
X90869900Y-14398700D01*
X91126488Y-14358061D01*
X91126489Y-14358060D01*
X91126493Y-14358060D01*
X91373572Y-14277779D01*
X91605051Y-14159834D01*
X91815229Y-14007131D01*
X91998931Y-13823429D01*
X92151634Y-13613251D01*
X92269579Y-13381772D01*
X92349860Y-13134693D01*
X92349861Y-13134688D01*
X92390500Y-12878100D01*
X92390500Y-12618299D01*
X92349861Y-12361711D01*
X92269580Y-12114632D01*
X92269579Y-12114628D01*
X92151634Y-11883149D01*
X91998931Y-11672971D01*
X91815229Y-11489269D01*
X91605051Y-11336566D01*
X91605050Y-11336565D01*
X91605048Y-11336564D01*
X91445509Y-11255275D01*
X91373572Y-11218621D01*
X91373569Y-11218620D01*
X91373567Y-11218619D01*
X91126488Y-11138338D01*
X90869900Y-11097700D01*
X90869897Y-11097700D01*
X90610103Y-11097700D01*
X90610100Y-11097700D01*
X90353511Y-11138338D01*
X90106432Y-11218619D01*
X89874951Y-11336564D01*
X89664772Y-11489268D01*
X89481068Y-11672972D01*
X89328364Y-11883151D01*
X89210419Y-12114632D01*
X89130138Y-12361711D01*
X89089500Y-12618299D01*
X84470499Y-12618299D01*
X84470499Y-11605102D01*
X84459876Y-11516636D01*
X84404361Y-11375858D01*
X84312922Y-11255278D01*
X84192342Y-11163839D01*
X84051564Y-11108324D01*
X83963099Y-11097700D01*
X81676903Y-11097700D01*
X81676897Y-11097701D01*
X81588436Y-11108324D01*
X81447658Y-11163839D01*
X81447657Y-11163839D01*
X81447656Y-11163840D01*
X81327081Y-11255275D01*
X81327075Y-11255281D01*
X81235640Y-11375856D01*
X81180124Y-11516635D01*
X81169500Y-11605098D01*
X72575500Y-11605098D01*
X72575500Y-11182654D01*
X72575500Y-11182650D01*
X72549202Y-11016614D01*
X72547171Y-11003791D01*
X72491211Y-10831561D01*
X72408996Y-10670206D01*
X72379852Y-10630093D01*
X98039500Y-10630093D01*
X98039500Y-12166306D01*
X98050123Y-12254765D01*
X98105637Y-12395539D01*
X98105638Y-12395541D01*
X98105639Y-12395542D01*
X98197078Y-12516122D01*
X98317658Y-12607561D01*
X98317659Y-12607561D01*
X98317660Y-12607562D01*
X98354711Y-12622173D01*
X98458436Y-12663077D01*
X98546898Y-12673700D01*
X98546900Y-12673700D01*
X99833100Y-12673700D01*
X99833102Y-12673700D01*
X99921564Y-12663077D01*
X100062342Y-12607561D01*
X100182922Y-12516122D01*
X100274361Y-12395542D01*
X100329877Y-12254764D01*
X100340500Y-12166302D01*
X100340500Y-10630098D01*
X100329877Y-10541636D01*
X100274361Y-10400858D01*
X100182922Y-10280278D01*
X100062342Y-10188839D01*
X100062341Y-10188838D01*
X100062339Y-10188837D01*
X99921565Y-10133323D01*
X99833106Y-10122700D01*
X99833102Y-10122700D01*
X98546898Y-10122700D01*
X98546893Y-10122700D01*
X98458434Y-10133323D01*
X98317660Y-10188837D01*
X98317656Y-10188840D01*
X98197081Y-10280275D01*
X98197075Y-10280281D01*
X98105640Y-10400856D01*
X98105637Y-10400860D01*
X98050123Y-10541634D01*
X98039500Y-10630093D01*
X72379852Y-10630093D01*
X72302553Y-10523699D01*
X72174501Y-10395647D01*
X72027994Y-10289204D01*
X72027993Y-10289203D01*
X72027991Y-10289202D01*
X71866637Y-10206988D01*
X71694406Y-10151028D01*
X71515549Y-10122700D01*
X71515546Y-10122700D01*
X71334454Y-10122700D01*
X71334451Y-10122700D01*
X71155593Y-10151028D01*
X70983362Y-10206988D01*
X70822008Y-10289202D01*
X70748752Y-10342425D01*
X70675499Y-10395647D01*
X70547447Y-10523699D01*
X70538069Y-10536607D01*
X70441002Y-10670208D01*
X70358788Y-10831562D01*
X70302828Y-11003793D01*
X70274500Y-11182650D01*
X70274500Y-11613749D01*
X70302828Y-11792606D01*
X70358788Y-11964837D01*
X70435112Y-12114632D01*
X70441004Y-12126194D01*
X70547447Y-12272701D01*
X70675499Y-12400753D01*
X70822006Y-12507196D01*
X70970446Y-12582830D01*
X71013710Y-12626094D01*
X71024500Y-12671039D01*
X71024500Y-24534293D01*
X71005593Y-24592484D01*
X70956093Y-24628448D01*
X70894907Y-24628448D01*
X70865681Y-24613177D01*
X70756443Y-24530340D01*
X70756439Y-24530337D01*
X70615665Y-24474823D01*
X70527206Y-24464200D01*
X70527202Y-24464200D01*
X69340998Y-24464200D01*
X69340993Y-24464200D01*
X69252534Y-24474823D01*
X69111760Y-24530337D01*
X69111756Y-24530340D01*
X68991181Y-24621775D01*
X68991175Y-24621781D01*
X68899740Y-24742356D01*
X68899737Y-24742360D01*
X68844223Y-24883134D01*
X68833600Y-24971593D01*
X68833600Y-26057799D01*
X68814693Y-26115990D01*
X68804604Y-26127803D01*
X59299516Y-35632891D01*
X59246794Y-35724208D01*
X59246792Y-35724212D01*
X59239671Y-35750786D01*
X59239672Y-35750787D01*
X59219500Y-35826073D01*
X59219500Y-49342689D01*
X59200593Y-49400880D01*
X59158387Y-49434152D01*
X59122405Y-49449056D01*
X59063201Y-49488615D01*
X59004312Y-49505223D01*
X58946909Y-49484045D01*
X58912917Y-49433171D01*
X58909200Y-49406299D01*
X58909200Y-27471700D01*
X58928107Y-27413509D01*
X58938190Y-27401702D01*
X59720034Y-26619857D01*
X59774549Y-26592082D01*
X59820627Y-26595708D01*
X59888838Y-26617872D01*
X59951097Y-26638102D01*
X60122186Y-26665200D01*
X60122189Y-26665200D01*
X60295414Y-26665200D01*
X60466502Y-26638102D01*
X60466506Y-26638101D01*
X60631238Y-26584576D01*
X60631240Y-26584574D01*
X60631245Y-26584573D01*
X60785588Y-26505932D01*
X60925728Y-26404114D01*
X61048214Y-26281628D01*
X61150032Y-26141488D01*
X61228673Y-25987145D01*
X61228674Y-25987140D01*
X61228676Y-25987138D01*
X61282201Y-25822406D01*
X61282202Y-25822402D01*
X61309300Y-25651314D01*
X61309300Y-25478085D01*
X61282202Y-25306997D01*
X61282201Y-25306993D01*
X61228676Y-25142261D01*
X61228674Y-25142258D01*
X61228673Y-25142257D01*
X61228673Y-25142255D01*
X61150032Y-24987912D01*
X61048214Y-24847772D01*
X60925728Y-24725286D01*
X60785588Y-24623468D01*
X60785587Y-24623467D01*
X60785585Y-24623466D01*
X60631241Y-24544825D01*
X60631238Y-24544823D01*
X60466506Y-24491298D01*
X60466502Y-24491297D01*
X60295414Y-24464200D01*
X60295411Y-24464200D01*
X60122189Y-24464200D01*
X60122186Y-24464200D01*
X59951097Y-24491297D01*
X59951093Y-24491298D01*
X59786361Y-24544823D01*
X59786358Y-24544825D01*
X59632014Y-24623466D01*
X59491873Y-24725285D01*
X59369385Y-24847773D01*
X59267566Y-24987914D01*
X59188925Y-25142258D01*
X59188923Y-25142261D01*
X59135398Y-25306993D01*
X59135397Y-25306997D01*
X59108300Y-25478085D01*
X59108300Y-25651314D01*
X59135397Y-25822402D01*
X59135398Y-25822406D01*
X59177789Y-25952869D01*
X59177790Y-26014054D01*
X59153639Y-26053465D01*
X58188220Y-27018886D01*
X58188216Y-27018891D01*
X58135494Y-27110208D01*
X58135492Y-27110212D01*
X58124429Y-27151498D01*
X58124430Y-27151499D01*
X58108200Y-27212073D01*
X58108200Y-49701599D01*
X58089293Y-49759790D01*
X58039793Y-49795754D01*
X57978607Y-49795754D01*
X57929107Y-49759790D01*
X57926885Y-49756601D01*
X57895980Y-49710349D01*
X57895979Y-49710348D01*
X57895977Y-49710345D01*
X57749655Y-49564023D01*
X57749651Y-49564020D01*
X57577597Y-49449058D01*
X57386418Y-49369869D01*
X57183467Y-49329500D01*
X57183465Y-49329500D01*
X56976535Y-49329500D01*
X56976532Y-49329500D01*
X56773581Y-49369869D01*
X56582402Y-49449058D01*
X56410348Y-49564020D01*
X56410345Y-49564022D01*
X56410345Y-49564023D01*
X56379501Y-49594866D01*
X56324987Y-49622642D01*
X56264555Y-49613071D01*
X56221290Y-49569806D01*
X56210500Y-49524861D01*
X56210500Y-36831874D01*
X56210500Y-36831873D01*
X56183207Y-36730013D01*
X56183207Y-36730012D01*
X56183207Y-36730011D01*
X56130483Y-36638691D01*
X56130482Y-36638690D01*
X56130481Y-36638689D01*
X56130480Y-36638687D01*
X54002396Y-34510603D01*
X53974619Y-34456086D01*
X53973400Y-34440599D01*
X53973400Y-34368444D01*
X53948157Y-34274236D01*
X53932477Y-34215716D01*
X53853420Y-34078784D01*
X53741616Y-33966980D01*
X53604684Y-33887923D01*
X53451957Y-33847000D01*
X53293843Y-33847000D01*
X53293842Y-33847000D01*
X53287411Y-33847847D01*
X53287149Y-33845859D01*
X53235199Y-33843124D01*
X53187658Y-33804607D01*
X53171700Y-33750708D01*
X53171700Y-27758900D01*
X53190607Y-27700709D01*
X53200690Y-27688902D01*
X68093780Y-12795813D01*
X68093783Y-12795808D01*
X68146505Y-12704492D01*
X68146505Y-12704490D01*
X68146507Y-12704488D01*
X68173800Y-12602627D01*
X68173800Y-12593152D01*
X68192707Y-12534961D01*
X68242207Y-12498997D01*
X68303393Y-12498997D01*
X68318310Y-12505881D01*
X68318540Y-12505430D01*
X68322006Y-12507196D01*
X68483361Y-12589411D01*
X68655591Y-12645371D01*
X68727136Y-12656702D01*
X68834451Y-12673700D01*
X68834454Y-12673700D01*
X69015549Y-12673700D01*
X69104977Y-12659535D01*
X69194409Y-12645371D01*
X69366639Y-12589411D01*
X69527994Y-12507196D01*
X69674501Y-12400753D01*
X69802553Y-12272701D01*
X69908996Y-12126194D01*
X69991211Y-11964839D01*
X70047171Y-11792609D01*
X70075500Y-11613746D01*
X70075500Y-11182654D01*
X70075500Y-11182650D01*
X70049202Y-11016614D01*
X70047171Y-11003791D01*
X69991211Y-10831561D01*
X69908996Y-10670206D01*
X69802553Y-10523699D01*
X69674501Y-10395647D01*
X69527994Y-10289204D01*
X69527993Y-10289203D01*
X69527991Y-10289202D01*
X69366637Y-10206988D01*
X69194406Y-10151028D01*
X69015549Y-10122700D01*
X69015546Y-10122700D01*
X68834454Y-10122700D01*
X68834451Y-10122700D01*
X68655593Y-10151028D01*
X68483362Y-10206988D01*
X68322008Y-10289202D01*
X68248752Y-10342425D01*
X68175499Y-10395647D01*
X68047447Y-10523699D01*
X68038069Y-10536607D01*
X67941002Y-10670208D01*
X67858788Y-10831562D01*
X67827035Y-10929292D01*
X67791071Y-10978792D01*
X67732881Y-10997700D01*
X67720573Y-10997700D01*
X67688529Y-11006286D01*
X67649983Y-11016614D01*
X67588882Y-11013411D01*
X67541332Y-10974905D01*
X67530207Y-10951582D01*
X67491211Y-10831561D01*
X67408996Y-10670206D01*
X67302553Y-10523699D01*
X67174501Y-10395647D01*
X67027994Y-10289204D01*
X67027993Y-10289203D01*
X67027991Y-10289202D01*
X66866637Y-10206988D01*
X66694406Y-10151028D01*
X66515549Y-10122700D01*
X66515546Y-10122700D01*
X66334454Y-10122700D01*
X66334451Y-10122700D01*
X66155593Y-10151028D01*
X65983362Y-10206988D01*
X65822008Y-10289202D01*
X65748752Y-10342425D01*
X65675499Y-10395647D01*
X65547447Y-10523699D01*
X65538069Y-10536607D01*
X65441002Y-10670208D01*
X65358788Y-10831562D01*
X65302828Y-11003793D01*
X65274500Y-11182650D01*
X65274500Y-11613749D01*
X65302828Y-11792606D01*
X65358788Y-11964837D01*
X65435112Y-12114632D01*
X65441004Y-12126194D01*
X65547447Y-12272701D01*
X65675499Y-12400753D01*
X65822006Y-12507196D01*
X65983361Y-12589411D01*
X66155591Y-12645371D01*
X66227136Y-12656702D01*
X66334451Y-12673700D01*
X66334454Y-12673700D01*
X66515549Y-12673700D01*
X66604977Y-12659535D01*
X66694409Y-12645371D01*
X66866639Y-12589411D01*
X66922899Y-12560744D01*
X66983330Y-12551173D01*
X67037847Y-12578949D01*
X67065625Y-12633466D01*
X67056054Y-12693898D01*
X67037848Y-12718958D01*
X52450717Y-27306090D01*
X52450716Y-27306091D01*
X52397994Y-27397407D01*
X52382735Y-27454356D01*
X52370700Y-27499273D01*
X52370700Y-43968573D01*
X52370700Y-44074027D01*
X52394770Y-44163859D01*
X52397994Y-44175892D01*
X52450716Y-44267208D01*
X52450718Y-44267210D01*
X52450720Y-44267213D01*
X52622205Y-44438698D01*
X52649981Y-44493213D01*
X52651200Y-44508700D01*
X52651200Y-55689699D01*
X52632293Y-55747890D01*
X52622204Y-55759703D01*
X51679516Y-56702391D01*
X51626795Y-56793706D01*
X51626793Y-56793710D01*
X51626793Y-56793712D01*
X51615389Y-56836273D01*
X51615389Y-56836274D01*
X51604711Y-56876124D01*
X51571386Y-56927438D01*
X51514265Y-56949364D01*
X51509084Y-56949500D01*
X51205139Y-56949500D01*
X51205136Y-56949501D01*
X51180009Y-56952414D01*
X51095183Y-56989869D01*
X51077235Y-56997794D01*
X50997794Y-57077235D01*
X50992963Y-57088174D01*
X50952164Y-57133769D01*
X50892355Y-57146674D01*
X50836383Y-57121960D01*
X50805627Y-57069067D01*
X50803400Y-57048185D01*
X50803400Y-33382343D01*
X50822307Y-33324152D01*
X50832390Y-33312345D01*
X50883420Y-33261316D01*
X50962477Y-33124384D01*
X51003400Y-32971657D01*
X51003400Y-32813543D01*
X50962477Y-32660816D01*
X50883420Y-32523884D01*
X50771616Y-32412080D01*
X50634684Y-32333023D01*
X50634683Y-32333022D01*
X50634680Y-32333021D01*
X50568676Y-32315335D01*
X50517362Y-32282011D01*
X50495436Y-32224889D01*
X50495300Y-32219709D01*
X50495300Y-12459561D01*
X50514207Y-12401370D01*
X50563707Y-12365406D01*
X50624893Y-12365406D01*
X50664301Y-12389555D01*
X50675499Y-12400753D01*
X50822006Y-12507196D01*
X50983361Y-12589411D01*
X51155591Y-12645371D01*
X51227136Y-12656702D01*
X51334451Y-12673700D01*
X51334454Y-12673700D01*
X51515549Y-12673700D01*
X51604977Y-12659535D01*
X51694409Y-12645371D01*
X51866639Y-12589411D01*
X52027994Y-12507196D01*
X52174501Y-12400753D01*
X52302553Y-12272701D01*
X52408996Y-12126194D01*
X52491211Y-11964839D01*
X52547171Y-11792609D01*
X52575500Y-11613746D01*
X52575500Y-11182654D01*
X52575500Y-11182650D01*
X52549202Y-11016614D01*
X52547171Y-11003791D01*
X52491211Y-10831561D01*
X52408996Y-10670206D01*
X52408994Y-10670203D01*
X52407905Y-10668425D01*
X52407741Y-10667743D01*
X52407230Y-10666740D01*
X52407471Y-10666617D01*
X52393623Y-10608929D01*
X52417040Y-10552402D01*
X52469210Y-10520435D01*
X52492318Y-10517700D01*
X52857682Y-10517700D01*
X52915873Y-10536607D01*
X52951837Y-10586107D01*
X52951837Y-10647293D01*
X52942095Y-10668425D01*
X52941005Y-10670203D01*
X52858788Y-10831562D01*
X52802828Y-11003793D01*
X52774500Y-11182650D01*
X52774500Y-11613749D01*
X52802828Y-11792606D01*
X52858788Y-11964837D01*
X52935112Y-12114632D01*
X52941004Y-12126194D01*
X53047447Y-12272701D01*
X53175499Y-12400753D01*
X53322006Y-12507196D01*
X53483361Y-12589411D01*
X53655591Y-12645371D01*
X53727136Y-12656702D01*
X53834451Y-12673700D01*
X53834454Y-12673700D01*
X54015549Y-12673700D01*
X54104977Y-12659535D01*
X54194409Y-12645371D01*
X54366639Y-12589411D01*
X54527994Y-12507196D01*
X54674501Y-12400753D01*
X54802553Y-12272701D01*
X54908996Y-12126194D01*
X54991211Y-11964839D01*
X55030207Y-11844819D01*
X55066169Y-11795320D01*
X55124360Y-11776412D01*
X55149977Y-11779784D01*
X55220573Y-11798700D01*
X55232880Y-11798700D01*
X55291071Y-11817607D01*
X55327033Y-11867105D01*
X55339837Y-11906512D01*
X55358788Y-11964837D01*
X55435112Y-12114632D01*
X55441004Y-12126194D01*
X55547447Y-12272701D01*
X55675499Y-12400753D01*
X55822006Y-12507196D01*
X55983361Y-12589411D01*
X56155591Y-12645371D01*
X56227136Y-12656702D01*
X56334451Y-12673700D01*
X56334454Y-12673700D01*
X56515549Y-12673700D01*
X56604977Y-12659535D01*
X56694409Y-12645371D01*
X56866639Y-12589411D01*
X57027994Y-12507196D01*
X57174501Y-12400753D01*
X57302553Y-12272701D01*
X57408996Y-12126194D01*
X57491211Y-11964839D01*
X57547171Y-11792609D01*
X57575500Y-11613746D01*
X57575500Y-11182654D01*
X57575500Y-11182650D01*
X57774500Y-11182650D01*
X57774500Y-11613749D01*
X57802828Y-11792606D01*
X57858788Y-11964837D01*
X57935112Y-12114632D01*
X57941004Y-12126194D01*
X58047447Y-12272701D01*
X58175499Y-12400753D01*
X58322006Y-12507196D01*
X58483361Y-12589411D01*
X58655591Y-12645371D01*
X58727136Y-12656702D01*
X58834451Y-12673700D01*
X58834454Y-12673700D01*
X59015549Y-12673700D01*
X59104977Y-12659535D01*
X59194409Y-12645371D01*
X59366639Y-12589411D01*
X59527994Y-12507196D01*
X59674501Y-12400753D01*
X59802553Y-12272701D01*
X59908996Y-12126194D01*
X59991211Y-11964839D01*
X60047171Y-11792609D01*
X60075500Y-11613746D01*
X60075500Y-11182654D01*
X60075500Y-11182650D01*
X60274500Y-11182650D01*
X60274500Y-11613749D01*
X60302828Y-11792606D01*
X60358788Y-11964837D01*
X60435112Y-12114632D01*
X60441004Y-12126194D01*
X60547447Y-12272701D01*
X60675499Y-12400753D01*
X60822006Y-12507196D01*
X60983361Y-12589411D01*
X61155591Y-12645371D01*
X61227136Y-12656702D01*
X61334451Y-12673700D01*
X61334454Y-12673700D01*
X61515549Y-12673700D01*
X61604977Y-12659535D01*
X61694409Y-12645371D01*
X61866639Y-12589411D01*
X62027994Y-12507196D01*
X62174501Y-12400753D01*
X62302553Y-12272701D01*
X62408996Y-12126194D01*
X62491211Y-11964839D01*
X62547171Y-11792609D01*
X62575500Y-11613746D01*
X62575500Y-11182654D01*
X62575500Y-11182650D01*
X62774500Y-11182650D01*
X62774500Y-11613749D01*
X62802828Y-11792606D01*
X62858788Y-11964837D01*
X62935112Y-12114632D01*
X62941004Y-12126194D01*
X63047447Y-12272701D01*
X63175499Y-12400753D01*
X63322006Y-12507196D01*
X63483361Y-12589411D01*
X63655591Y-12645371D01*
X63727136Y-12656702D01*
X63834451Y-12673700D01*
X63834454Y-12673700D01*
X64015549Y-12673700D01*
X64104977Y-12659535D01*
X64194409Y-12645371D01*
X64366639Y-12589411D01*
X64527994Y-12507196D01*
X64674501Y-12400753D01*
X64802553Y-12272701D01*
X64908996Y-12126194D01*
X64991211Y-11964839D01*
X65047171Y-11792609D01*
X65075500Y-11613746D01*
X65075500Y-11182654D01*
X65075500Y-11182650D01*
X65049202Y-11016614D01*
X65047171Y-11003791D01*
X64991211Y-10831561D01*
X64908996Y-10670206D01*
X64802553Y-10523699D01*
X64674501Y-10395647D01*
X64527994Y-10289204D01*
X64527993Y-10289203D01*
X64527991Y-10289202D01*
X64366637Y-10206988D01*
X64194406Y-10151028D01*
X64015549Y-10122700D01*
X64015546Y-10122700D01*
X63834454Y-10122700D01*
X63834451Y-10122700D01*
X63655593Y-10151028D01*
X63483362Y-10206988D01*
X63322008Y-10289202D01*
X63248752Y-10342425D01*
X63175499Y-10395647D01*
X63047447Y-10523699D01*
X63038069Y-10536607D01*
X62941002Y-10670208D01*
X62858788Y-10831562D01*
X62802828Y-11003793D01*
X62774500Y-11182650D01*
X62575500Y-11182650D01*
X62549202Y-11016614D01*
X62547171Y-11003791D01*
X62491211Y-10831561D01*
X62408996Y-10670206D01*
X62302553Y-10523699D01*
X62174501Y-10395647D01*
X62027994Y-10289204D01*
X62027993Y-10289203D01*
X62027991Y-10289202D01*
X61866637Y-10206988D01*
X61694406Y-10151028D01*
X61515549Y-10122700D01*
X61515546Y-10122700D01*
X61334454Y-10122700D01*
X61334451Y-10122700D01*
X61155593Y-10151028D01*
X60983362Y-10206988D01*
X60822008Y-10289202D01*
X60748752Y-10342425D01*
X60675499Y-10395647D01*
X60547447Y-10523699D01*
X60538069Y-10536607D01*
X60441002Y-10670208D01*
X60358788Y-10831562D01*
X60302828Y-11003793D01*
X60274500Y-11182650D01*
X60075500Y-11182650D01*
X60049202Y-11016614D01*
X60047171Y-11003791D01*
X59991211Y-10831561D01*
X59908996Y-10670206D01*
X59802553Y-10523699D01*
X59674501Y-10395647D01*
X59527994Y-10289204D01*
X59527993Y-10289203D01*
X59527991Y-10289202D01*
X59366637Y-10206988D01*
X59194406Y-10151028D01*
X59015549Y-10122700D01*
X59015546Y-10122700D01*
X58834454Y-10122700D01*
X58834451Y-10122700D01*
X58655593Y-10151028D01*
X58483362Y-10206988D01*
X58322008Y-10289202D01*
X58248752Y-10342425D01*
X58175499Y-10395647D01*
X58047447Y-10523699D01*
X58038069Y-10536607D01*
X57941002Y-10670208D01*
X57858788Y-10831562D01*
X57802828Y-11003793D01*
X57774500Y-11182650D01*
X57575500Y-11182650D01*
X57549202Y-11016614D01*
X57547171Y-11003791D01*
X57491211Y-10831561D01*
X57408996Y-10670206D01*
X57302553Y-10523699D01*
X57174501Y-10395647D01*
X57027994Y-10289204D01*
X57027993Y-10289203D01*
X57027991Y-10289202D01*
X56866637Y-10206988D01*
X56694406Y-10151028D01*
X56515549Y-10122700D01*
X56515546Y-10122700D01*
X56334454Y-10122700D01*
X56334451Y-10122700D01*
X56155593Y-10151028D01*
X55983362Y-10206988D01*
X55822008Y-10289202D01*
X55748752Y-10342425D01*
X55675499Y-10395647D01*
X55547447Y-10523699D01*
X55547444Y-10523702D01*
X55544697Y-10526450D01*
X55543936Y-10525689D01*
X55495562Y-10555327D01*
X55434566Y-10550520D01*
X55402456Y-10529064D01*
X55080380Y-10206988D01*
X54670113Y-9796720D01*
X54670110Y-9796718D01*
X54670108Y-9796716D01*
X54578791Y-9743994D01*
X54578793Y-9743994D01*
X54539270Y-9733404D01*
X54476927Y-9716700D01*
X50147527Y-9716700D01*
X45637527Y-9716700D01*
X45532073Y-9716700D01*
X45469729Y-9733404D01*
X45430207Y-9743994D01*
X45338891Y-9796716D01*
X33257316Y-21878291D01*
X33204593Y-21969611D01*
X33204592Y-21969611D01*
X33204593Y-21969612D01*
X33177300Y-22071473D01*
X33177300Y-24812056D01*
X33158393Y-24870247D01*
X33148304Y-24882059D01*
X33097282Y-24933081D01*
X33097280Y-24933083D01*
X33097280Y-24933084D01*
X33018223Y-25070016D01*
X32977300Y-25222743D01*
X32977300Y-25380857D01*
X33018223Y-25533584D01*
X33097280Y-25670516D01*
X33209084Y-25782320D01*
X33346016Y-25861377D01*
X33498743Y-25902300D01*
X33498745Y-25902300D01*
X33656855Y-25902300D01*
X33656857Y-25902300D01*
X33809584Y-25861377D01*
X33946516Y-25782320D01*
X33974098Y-25754737D01*
X34028613Y-25726962D01*
X34089045Y-25736533D01*
X34132310Y-25779798D01*
X34143100Y-25824743D01*
X34143100Y-26157806D01*
X34153723Y-26246265D01*
X34209237Y-26387039D01*
X34209238Y-26387041D01*
X34209239Y-26387042D01*
X34300678Y-26507622D01*
X34421258Y-26599061D01*
X34421259Y-26599061D01*
X34421260Y-26599062D01*
X34473998Y-26619859D01*
X34562036Y-26654577D01*
X34650498Y-26665200D01*
X34650500Y-26665200D01*
X35836700Y-26665200D01*
X35836702Y-26665200D01*
X35925164Y-26654577D01*
X36065942Y-26599061D01*
X36186522Y-26507622D01*
X36277961Y-26387042D01*
X36333477Y-26246264D01*
X36344100Y-26157802D01*
X36344100Y-24971598D01*
X36333477Y-24883136D01*
X36277961Y-24742358D01*
X36186522Y-24621778D01*
X36065942Y-24530339D01*
X36065941Y-24530338D01*
X36065939Y-24530337D01*
X35925165Y-24474823D01*
X35836706Y-24464200D01*
X35836702Y-24464200D01*
X34650498Y-24464200D01*
X34650493Y-24464200D01*
X34562034Y-24474823D01*
X34421260Y-24530337D01*
X34421256Y-24530340D01*
X34300681Y-24621775D01*
X34300675Y-24621781D01*
X34209240Y-24742356D01*
X34209237Y-24742360D01*
X34169397Y-24843389D01*
X34130461Y-24890586D01*
X34071218Y-24905883D01*
X34014299Y-24883437D01*
X33981444Y-24831821D01*
X33978300Y-24807070D01*
X33978300Y-22331101D01*
X33997207Y-22272910D01*
X34007296Y-22261097D01*
X45105496Y-11162897D01*
X45160013Y-11135120D01*
X45220445Y-11144691D01*
X45263710Y-11187956D01*
X45274500Y-11232901D01*
X45274500Y-12166306D01*
X45285123Y-12254765D01*
X45340637Y-12395539D01*
X45340638Y-12395541D01*
X45340639Y-12395542D01*
X45432078Y-12516122D01*
X45552658Y-12607561D01*
X45552659Y-12607561D01*
X45552660Y-12607562D01*
X45589711Y-12622173D01*
X45693436Y-12663077D01*
X45781898Y-12673700D01*
X45781900Y-12673700D01*
X47068100Y-12673700D01*
X47068102Y-12673700D01*
X47156564Y-12663077D01*
X47297342Y-12607561D01*
X47417922Y-12516122D01*
X47509361Y-12395542D01*
X47564877Y-12254764D01*
X47575500Y-12166302D01*
X47575500Y-10630098D01*
X47575498Y-10630080D01*
X47575309Y-10628499D01*
X47575382Y-10628127D01*
X47575323Y-10627138D01*
X47575580Y-10627122D01*
X47587146Y-10568469D01*
X47632007Y-10526863D01*
X47673603Y-10517700D01*
X47857682Y-10517700D01*
X47915873Y-10536607D01*
X47951837Y-10586107D01*
X47951837Y-10647293D01*
X47942095Y-10668425D01*
X47941005Y-10670203D01*
X47858788Y-10831562D01*
X47802828Y-11003793D01*
X47774500Y-11182650D01*
X47774500Y-11613749D01*
X47802828Y-11792606D01*
X47858788Y-11964837D01*
X47935112Y-12114632D01*
X47941004Y-12126194D01*
X48047447Y-12272701D01*
X48175499Y-12400753D01*
X48322006Y-12507196D01*
X48470446Y-12582830D01*
X48513710Y-12626094D01*
X48524500Y-12671039D01*
X48524500Y-63866999D01*
X48505593Y-63925190D01*
X48495504Y-63937003D01*
X41063503Y-71369004D01*
X41052987Y-71374361D01*
X41045336Y-71383344D01*
X41022918Y-71389682D01*
X41008986Y-71396781D01*
X41001822Y-71395646D01*
X40993499Y-71398000D01*
X40921343Y-71398000D01*
X40886881Y-71407233D01*
X40825781Y-71404031D01*
X40778232Y-71365526D01*
X40762396Y-71306426D01*
X40765634Y-71285983D01*
X40770999Y-71265959D01*
X40771000Y-71265956D01*
X40771000Y-71193800D01*
X40776991Y-71175360D01*
X40778487Y-71156034D01*
X40786220Y-71146955D01*
X40789907Y-71135609D01*
X40799990Y-71123802D01*
X41009980Y-70913813D01*
X41062707Y-70822488D01*
X41090000Y-70720627D01*
X41090000Y-70615173D01*
X41090000Y-58615841D01*
X41108907Y-58557650D01*
X41158407Y-58521686D01*
X41219593Y-58521686D01*
X41269093Y-58557650D01*
X41271307Y-58560827D01*
X41344023Y-58669655D01*
X41490345Y-58815977D01*
X41662402Y-58930941D01*
X41853580Y-59010130D01*
X42056535Y-59050500D01*
X42056536Y-59050500D01*
X42263464Y-59050500D01*
X42263465Y-59050500D01*
X42466420Y-59010130D01*
X42657598Y-58930941D01*
X42657601Y-58930939D01*
X42661887Y-58928649D01*
X42662462Y-58929725D01*
X42716078Y-58914599D01*
X42773483Y-58935771D01*
X42807481Y-58986642D01*
X42811200Y-59013523D01*
X42811200Y-63997573D01*
X42811200Y-64103027D01*
X42823841Y-64150203D01*
X42838494Y-64204892D01*
X42891216Y-64296208D01*
X42891218Y-64296210D01*
X42891220Y-64296213D01*
X43719205Y-65124198D01*
X43746981Y-65178713D01*
X43748200Y-65194200D01*
X43748200Y-65266357D01*
X43789123Y-65419084D01*
X43868180Y-65556016D01*
X43979984Y-65667820D01*
X44116916Y-65746877D01*
X44269643Y-65787800D01*
X44269645Y-65787800D01*
X44427755Y-65787800D01*
X44427757Y-65787800D01*
X44580484Y-65746877D01*
X44717416Y-65667820D01*
X44829220Y-65556016D01*
X44908277Y-65419084D01*
X44949200Y-65266357D01*
X44949200Y-65108243D01*
X44908277Y-64955516D01*
X44829220Y-64818584D01*
X44717416Y-64706780D01*
X44580484Y-64627723D01*
X44427757Y-64586800D01*
X44427755Y-64586800D01*
X44355601Y-64586800D01*
X44297410Y-64567893D01*
X44285597Y-64557804D01*
X43651324Y-63923531D01*
X43623547Y-63869014D01*
X43633118Y-63808582D01*
X43676383Y-63765317D01*
X43736815Y-63755746D01*
X43746926Y-63757894D01*
X43836143Y-63781800D01*
X43836146Y-63781800D01*
X43994255Y-63781800D01*
X43994257Y-63781800D01*
X44146984Y-63740877D01*
X44283916Y-63661820D01*
X44395720Y-63550016D01*
X44474777Y-63413084D01*
X44515700Y-63260357D01*
X44515700Y-63102243D01*
X44474777Y-62949516D01*
X44395720Y-62812584D01*
X44379389Y-62796253D01*
X44344696Y-62761559D01*
X44316919Y-62707042D01*
X44315700Y-62691556D01*
X44315700Y-32653174D01*
X44315700Y-32653173D01*
X44288407Y-32551313D01*
X44288407Y-32551312D01*
X44288407Y-32551311D01*
X44235683Y-32459991D01*
X44235682Y-32459990D01*
X44235681Y-32459989D01*
X44235680Y-32459987D01*
X37991296Y-26215603D01*
X37963519Y-26161086D01*
X37962300Y-26145599D01*
X37962300Y-26073444D01*
X37956947Y-26053465D01*
X37921377Y-25920716D01*
X37842320Y-25783784D01*
X37730516Y-25671980D01*
X37593584Y-25592923D01*
X37440857Y-25552000D01*
X37282743Y-25552000D01*
X37130016Y-25592923D01*
X36993084Y-25671980D01*
X36881280Y-25783784D01*
X36802223Y-25920716D01*
X36761300Y-26073443D01*
X36761300Y-26231557D01*
X36802223Y-26384284D01*
X36881280Y-26521216D01*
X36993084Y-26633020D01*
X37130016Y-26712077D01*
X37282743Y-26753000D01*
X37354899Y-26753000D01*
X37413090Y-26771907D01*
X37424903Y-26781996D01*
X43485704Y-32842797D01*
X43513481Y-32897314D01*
X43514700Y-32912801D01*
X43514700Y-39018841D01*
X43495793Y-39077032D01*
X43446293Y-39112996D01*
X43385107Y-39112996D01*
X43360164Y-39099874D01*
X43360135Y-39099925D01*
X43358837Y-39099176D01*
X43355439Y-39097388D01*
X43354521Y-39096683D01*
X43290476Y-39059707D01*
X43217584Y-39017623D01*
X43064857Y-38976700D01*
X42906743Y-38976700D01*
X42754016Y-39017623D01*
X42617084Y-39096680D01*
X42505280Y-39208484D01*
X42426223Y-39345416D01*
X42385300Y-39498143D01*
X42385300Y-39656257D01*
X42426223Y-39808984D01*
X42505280Y-39945916D01*
X42617084Y-40057720D01*
X42754016Y-40136777D01*
X42754018Y-40136777D01*
X42759636Y-40140021D01*
X42758362Y-40142226D01*
X42796591Y-40174852D01*
X42811200Y-40226612D01*
X42811200Y-49366476D01*
X42792293Y-49424667D01*
X42742793Y-49460631D01*
X42681607Y-49460631D01*
X42662007Y-49451125D01*
X42661887Y-49451351D01*
X42657601Y-49449060D01*
X42466418Y-49369869D01*
X42263467Y-49329500D01*
X42263465Y-49329500D01*
X42056535Y-49329500D01*
X42056532Y-49329500D01*
X41853581Y-49369869D01*
X41662402Y-49449058D01*
X41490348Y-49564020D01*
X41344020Y-49710348D01*
X41271316Y-49819159D01*
X41223266Y-49857039D01*
X41162128Y-49859441D01*
X41111254Y-49825448D01*
X41090076Y-49768045D01*
X41090000Y-49764158D01*
X41090000Y-33827075D01*
X41090000Y-33827073D01*
X41085774Y-33811300D01*
X41062707Y-33725212D01*
X41062705Y-33725209D01*
X41062705Y-33725207D01*
X41009983Y-33633891D01*
X41009979Y-33633886D01*
X40799996Y-33423902D01*
X40772219Y-33369386D01*
X40771000Y-33353899D01*
X40771000Y-33281744D01*
X40771000Y-33281743D01*
X40730077Y-33129016D01*
X40651020Y-32992084D01*
X40539216Y-32880280D01*
X40402284Y-32801223D01*
X40249557Y-32760300D01*
X40091443Y-32760300D01*
X39938716Y-32801223D01*
X39801781Y-32880282D01*
X39750759Y-32931304D01*
X39696242Y-32959081D01*
X39680756Y-32960300D01*
X38113801Y-32960300D01*
X38055610Y-32941393D01*
X38043797Y-32931304D01*
X26506796Y-21394303D01*
X26479019Y-21339786D01*
X26477800Y-21324299D01*
X26477800Y-21252144D01*
X26477800Y-21252143D01*
X26436877Y-21099416D01*
X26357820Y-20962484D01*
X26246016Y-20850680D01*
X26109084Y-20771623D01*
X25956357Y-20730700D01*
X25798243Y-20730700D01*
X25798238Y-20730700D01*
X25780620Y-20735421D01*
X25719519Y-20732217D01*
X25671970Y-20693711D01*
X25656000Y-20639794D01*
X25656000Y-12902673D01*
X25647347Y-12870380D01*
X25628707Y-12800812D01*
X25625821Y-12795813D01*
X25575983Y-12709491D01*
X25575981Y-12709489D01*
X25575980Y-12709487D01*
X25538999Y-12672506D01*
X25511224Y-12617992D01*
X25520795Y-12557560D01*
X25564058Y-12514296D01*
X25577994Y-12507196D01*
X25724501Y-12400753D01*
X25852553Y-12272701D01*
X25958996Y-12126194D01*
X26041211Y-11964839D01*
X26097171Y-11792609D01*
X26125500Y-11613746D01*
X26125500Y-11182654D01*
X26125500Y-11182650D01*
X31324500Y-11182650D01*
X31324500Y-11613749D01*
X31352828Y-11792606D01*
X31408788Y-11964837D01*
X31485112Y-12114632D01*
X31491004Y-12126194D01*
X31597447Y-12272701D01*
X31725499Y-12400753D01*
X31872006Y-12507196D01*
X32033361Y-12589411D01*
X32205591Y-12645371D01*
X32277136Y-12656702D01*
X32384451Y-12673700D01*
X32384454Y-12673700D01*
X32565549Y-12673700D01*
X32654977Y-12659535D01*
X32744409Y-12645371D01*
X32916639Y-12589411D01*
X33077994Y-12507196D01*
X33224501Y-12400753D01*
X33352553Y-12272701D01*
X33458996Y-12126194D01*
X33541211Y-11964839D01*
X33597171Y-11792609D01*
X33625500Y-11613746D01*
X33625500Y-11182654D01*
X33625500Y-11182650D01*
X33824500Y-11182650D01*
X33824500Y-11613749D01*
X33852828Y-11792606D01*
X33908788Y-11964837D01*
X33985112Y-12114632D01*
X33991004Y-12126194D01*
X34097447Y-12272701D01*
X34225499Y-12400753D01*
X34372006Y-12507196D01*
X34533361Y-12589411D01*
X34705591Y-12645371D01*
X34777136Y-12656702D01*
X34884451Y-12673700D01*
X34884454Y-12673700D01*
X35065549Y-12673700D01*
X35154977Y-12659535D01*
X35244409Y-12645371D01*
X35416639Y-12589411D01*
X35577994Y-12507196D01*
X35724501Y-12400753D01*
X35852553Y-12272701D01*
X35958996Y-12126194D01*
X36041211Y-11964839D01*
X36097171Y-11792609D01*
X36125500Y-11613746D01*
X36125500Y-11182654D01*
X36125500Y-11182650D01*
X36099202Y-11016614D01*
X36097171Y-11003791D01*
X36041211Y-10831561D01*
X35958996Y-10670206D01*
X35852553Y-10523699D01*
X35724501Y-10395647D01*
X35577994Y-10289204D01*
X35577993Y-10289203D01*
X35577991Y-10289202D01*
X35416637Y-10206988D01*
X35244406Y-10151028D01*
X35065549Y-10122700D01*
X35065546Y-10122700D01*
X34884454Y-10122700D01*
X34884451Y-10122700D01*
X34705593Y-10151028D01*
X34533362Y-10206988D01*
X34372008Y-10289202D01*
X34298752Y-10342425D01*
X34225499Y-10395647D01*
X34097447Y-10523699D01*
X34088069Y-10536607D01*
X33991002Y-10670208D01*
X33908788Y-10831562D01*
X33852828Y-11003793D01*
X33824500Y-11182650D01*
X33625500Y-11182650D01*
X33599202Y-11016614D01*
X33597171Y-11003791D01*
X33541211Y-10831561D01*
X33458996Y-10670206D01*
X33352553Y-10523699D01*
X33224501Y-10395647D01*
X33077994Y-10289204D01*
X33077993Y-10289203D01*
X33077991Y-10289202D01*
X32916637Y-10206988D01*
X32744406Y-10151028D01*
X32565549Y-10122700D01*
X32565546Y-10122700D01*
X32384454Y-10122700D01*
X32384451Y-10122700D01*
X32205593Y-10151028D01*
X32033362Y-10206988D01*
X31872008Y-10289202D01*
X31798752Y-10342425D01*
X31725499Y-10395647D01*
X31597447Y-10523699D01*
X31588069Y-10536607D01*
X31491002Y-10670208D01*
X31408788Y-10831562D01*
X31352828Y-11003793D01*
X31324500Y-11182650D01*
X26125500Y-11182650D01*
X26099202Y-11016614D01*
X26097171Y-11003791D01*
X26041211Y-10831561D01*
X25958996Y-10670206D01*
X25852553Y-10523699D01*
X25724501Y-10395647D01*
X25577994Y-10289204D01*
X25577993Y-10289203D01*
X25577991Y-10289202D01*
X25416637Y-10206988D01*
X25244406Y-10151028D01*
X25065549Y-10122700D01*
X25065546Y-10122700D01*
X24884454Y-10122700D01*
X24884451Y-10122700D01*
X24705593Y-10151028D01*
X24533362Y-10206988D01*
X24372008Y-10289202D01*
X24298752Y-10342425D01*
X24225499Y-10395647D01*
X24097447Y-10523699D01*
X24088069Y-10536607D01*
X23991002Y-10670208D01*
X23908788Y-10831562D01*
X23852828Y-11003793D01*
X23824500Y-11182650D01*
X23824500Y-11613749D01*
X23852828Y-11792606D01*
X23908788Y-11964837D01*
X23985112Y-12114632D01*
X23991004Y-12126194D01*
X24097447Y-12272701D01*
X24225499Y-12400753D01*
X24372006Y-12507196D01*
X24520446Y-12582830D01*
X24563710Y-12626094D01*
X24574500Y-12671039D01*
X24574500Y-12727627D01*
X24598570Y-12817459D01*
X24601794Y-12829492D01*
X24654516Y-12920808D01*
X24654518Y-12920810D01*
X24654520Y-12920813D01*
X24826005Y-13092298D01*
X24853781Y-13146813D01*
X24855000Y-13162300D01*
X24855000Y-27600499D01*
X24836093Y-27658690D01*
X24786593Y-27694654D01*
X24725407Y-27694654D01*
X24685996Y-27670503D01*
X23803996Y-26788503D01*
X23776219Y-26733986D01*
X23775000Y-26718499D01*
X23775000Y-26646344D01*
X23772792Y-26638102D01*
X23734077Y-26493616D01*
X23655020Y-26356684D01*
X23543216Y-26244880D01*
X23406284Y-26165823D01*
X23253557Y-26124900D01*
X23095443Y-26124900D01*
X22942716Y-26165823D01*
X22805784Y-26244880D01*
X22693980Y-26356684D01*
X22614923Y-26493616D01*
X22574000Y-26646343D01*
X22574000Y-26804457D01*
X22614923Y-26957184D01*
X22693980Y-27094116D01*
X22805784Y-27205920D01*
X22942716Y-27284977D01*
X23095443Y-27325900D01*
X23167599Y-27325900D01*
X23225790Y-27344807D01*
X23237603Y-27354896D01*
X24030304Y-28147596D01*
X24058081Y-28202113D01*
X24059300Y-28217600D01*
X24059300Y-60009956D01*
X24040393Y-60068147D01*
X24030304Y-60079959D01*
X23979282Y-60130981D01*
X23979280Y-60130983D01*
X23979280Y-60130984D01*
X23900223Y-60267916D01*
X23859300Y-60420643D01*
X23859300Y-60578757D01*
X23900223Y-60731484D01*
X23979280Y-60868416D01*
X24091084Y-60980220D01*
X24228016Y-61059277D01*
X24380743Y-61100200D01*
X24380745Y-61100200D01*
X24538855Y-61100200D01*
X24538857Y-61100200D01*
X24691584Y-61059277D01*
X24706502Y-61050664D01*
X24766346Y-61037943D01*
X24822242Y-61062828D01*
X24852836Y-61115816D01*
X24855000Y-61136401D01*
X24855000Y-73606856D01*
X24836093Y-73665047D01*
X24826004Y-73676859D01*
X24774980Y-73727882D01*
X24774976Y-73727888D01*
X24768257Y-73739526D01*
X24722786Y-73780465D01*
X24661935Y-73786858D01*
X24612519Y-73760026D01*
X16074496Y-65222003D01*
X16046719Y-65167486D01*
X16045500Y-65151999D01*
X16045500Y-58668971D01*
X16064407Y-58610780D01*
X16113907Y-58574816D01*
X16175093Y-58574816D01*
X16224593Y-58610780D01*
X16226809Y-58613960D01*
X16264023Y-58669655D01*
X16410345Y-58815977D01*
X16582402Y-58930941D01*
X16773580Y-59010130D01*
X16976535Y-59050500D01*
X16976536Y-59050500D01*
X17183464Y-59050500D01*
X17183465Y-59050500D01*
X17386420Y-59010130D01*
X17577598Y-58930941D01*
X17749655Y-58815977D01*
X17895977Y-58669655D01*
X18010941Y-58497598D01*
X18090130Y-58306420D01*
X18130500Y-58103465D01*
X18130500Y-57896535D01*
X18090130Y-57693580D01*
X18010941Y-57502402D01*
X17895977Y-57330345D01*
X17749655Y-57184023D01*
X17749651Y-57184020D01*
X17577597Y-57069058D01*
X17386418Y-56989869D01*
X17183467Y-56949500D01*
X17183465Y-56949500D01*
X16976535Y-56949500D01*
X16976532Y-56949500D01*
X16773581Y-56989869D01*
X16582402Y-57069058D01*
X16410348Y-57184020D01*
X16264017Y-57330351D01*
X16226815Y-57386029D01*
X16178766Y-57423909D01*
X16117627Y-57426311D01*
X16066754Y-57392318D01*
X16045576Y-57334915D01*
X16045500Y-57331028D01*
X16045500Y-51048971D01*
X16064407Y-50990780D01*
X16113907Y-50954816D01*
X16175093Y-50954816D01*
X16224593Y-50990780D01*
X16226816Y-50993970D01*
X16252475Y-51032373D01*
X16264023Y-51049655D01*
X16410345Y-51195977D01*
X16582402Y-51310941D01*
X16773580Y-51390130D01*
X16976535Y-51430500D01*
X16976536Y-51430500D01*
X17183464Y-51430500D01*
X17183465Y-51430500D01*
X17386420Y-51390130D01*
X17577598Y-51310941D01*
X17749655Y-51195977D01*
X17895977Y-51049655D01*
X18010941Y-50877598D01*
X18090130Y-50686420D01*
X18130500Y-50483465D01*
X18130500Y-50276535D01*
X18090130Y-50073580D01*
X18010941Y-49882402D01*
X17895977Y-49710345D01*
X17749655Y-49564023D01*
X17749651Y-49564020D01*
X17577597Y-49449058D01*
X17386418Y-49369869D01*
X17183467Y-49329500D01*
X17183465Y-49329500D01*
X16976535Y-49329500D01*
X16976532Y-49329500D01*
X16773581Y-49369869D01*
X16582402Y-49449058D01*
X16410348Y-49564020D01*
X16264017Y-49710351D01*
X16226815Y-49766029D01*
X16178766Y-49803909D01*
X16117627Y-49806311D01*
X16066754Y-49772318D01*
X16045576Y-49714915D01*
X16045500Y-49711028D01*
X16045500Y-31932133D01*
X16064407Y-31873942D01*
X16113907Y-31837978D01*
X16170119Y-31836506D01*
X16248843Y-31857600D01*
X16320999Y-31857600D01*
X16379190Y-31876507D01*
X16391003Y-31886596D01*
X20638004Y-36133596D01*
X20665781Y-36188113D01*
X20667000Y-36203600D01*
X20667000Y-49729736D01*
X20648093Y-49787927D01*
X20598593Y-49823891D01*
X20537407Y-49823891D01*
X20487907Y-49787927D01*
X20485684Y-49784737D01*
X20435979Y-49710348D01*
X20435977Y-49710345D01*
X20289655Y-49564023D01*
X20289651Y-49564020D01*
X20117597Y-49449058D01*
X19926418Y-49369869D01*
X19723467Y-49329500D01*
X19723465Y-49329500D01*
X19516535Y-49329500D01*
X19516532Y-49329500D01*
X19313581Y-49369869D01*
X19122402Y-49449058D01*
X18950348Y-49564020D01*
X18804020Y-49710348D01*
X18689058Y-49882402D01*
X18609869Y-50073581D01*
X18569500Y-50276532D01*
X18569500Y-50483467D01*
X18609869Y-50686418D01*
X18689058Y-50877597D01*
X18803566Y-51048971D01*
X18804023Y-51049655D01*
X18950345Y-51195977D01*
X19122402Y-51310941D01*
X19313580Y-51390130D01*
X19516535Y-51430500D01*
X19516536Y-51430500D01*
X19723464Y-51430500D01*
X19723465Y-51430500D01*
X19926420Y-51390130D01*
X20117598Y-51310941D01*
X20289655Y-51195977D01*
X20435977Y-51049655D01*
X20485684Y-50975261D01*
X20533734Y-50937382D01*
X20594872Y-50934980D01*
X20645746Y-50968972D01*
X20666924Y-51026375D01*
X20667000Y-51030263D01*
X20667000Y-57349736D01*
X20648093Y-57407927D01*
X20598593Y-57443891D01*
X20537407Y-57443891D01*
X20487907Y-57407927D01*
X20485684Y-57404737D01*
X20435979Y-57330348D01*
X20435977Y-57330345D01*
X20289655Y-57184023D01*
X20289651Y-57184020D01*
X20117597Y-57069058D01*
X19926418Y-56989869D01*
X19723467Y-56949500D01*
X19723465Y-56949500D01*
X19516535Y-56949500D01*
X19516532Y-56949500D01*
X19313581Y-56989869D01*
X19122402Y-57069058D01*
X18950348Y-57184020D01*
X18804020Y-57330348D01*
X18689058Y-57502402D01*
X18609869Y-57693581D01*
X18569500Y-57896532D01*
X18569500Y-58103467D01*
X18609869Y-58306418D01*
X18689058Y-58497597D01*
X18803566Y-58668971D01*
X18804023Y-58669655D01*
X18950345Y-58815977D01*
X19122402Y-58930941D01*
X19313580Y-59010130D01*
X19516535Y-59050500D01*
X19516536Y-59050500D01*
X19723464Y-59050500D01*
X19723465Y-59050500D01*
X19926420Y-59010130D01*
X20117598Y-58930941D01*
X20289655Y-58815977D01*
X20435977Y-58669655D01*
X20485684Y-58595261D01*
X20533734Y-58557382D01*
X20594872Y-58554980D01*
X20645746Y-58588972D01*
X20666924Y-58646375D01*
X20667000Y-58650263D01*
X20667000Y-64111373D01*
X20667000Y-64216827D01*
X20688270Y-64296208D01*
X20694294Y-64318692D01*
X20747016Y-64410008D01*
X20747018Y-64410010D01*
X20747020Y-64410013D01*
X21643005Y-65305998D01*
X21670781Y-65360513D01*
X21672000Y-65376000D01*
X21672000Y-65448157D01*
X21712923Y-65600884D01*
X21791980Y-65737816D01*
X21903784Y-65849620D01*
X22040716Y-65928677D01*
X22193443Y-65969600D01*
X22193445Y-65969600D01*
X22351555Y-65969600D01*
X22351557Y-65969600D01*
X22504284Y-65928677D01*
X22641216Y-65849620D01*
X22753020Y-65737816D01*
X22832077Y-65600884D01*
X22873000Y-65448157D01*
X22873000Y-65290043D01*
X22832077Y-65137316D01*
X22753020Y-65000384D01*
X22641216Y-64888580D01*
X22504284Y-64809523D01*
X22351557Y-64768600D01*
X22351555Y-64768600D01*
X22279401Y-64768600D01*
X22221210Y-64749693D01*
X22209397Y-64739604D01*
X21496996Y-64027203D01*
X21469219Y-63972686D01*
X21468000Y-63957199D01*
X21468000Y-58986262D01*
X21486907Y-58928071D01*
X21536407Y-58892107D01*
X21597593Y-58892107D01*
X21622000Y-58903945D01*
X21662402Y-58930941D01*
X21853580Y-59010130D01*
X22056535Y-59050500D01*
X22056536Y-59050500D01*
X22263464Y-59050500D01*
X22263465Y-59050500D01*
X22466420Y-59010130D01*
X22657598Y-58930941D01*
X22829655Y-58815977D01*
X22975977Y-58669655D01*
X23090941Y-58497598D01*
X23170130Y-58306420D01*
X23210500Y-58103465D01*
X23210500Y-57896535D01*
X23170130Y-57693580D01*
X23090941Y-57502402D01*
X22975977Y-57330345D01*
X22829655Y-57184023D01*
X22829651Y-57184020D01*
X22657597Y-57069058D01*
X22466418Y-56989869D01*
X22263467Y-56949500D01*
X22263465Y-56949500D01*
X22056535Y-56949500D01*
X22056532Y-56949500D01*
X21853581Y-56989869D01*
X21662403Y-57069058D01*
X21622000Y-57096054D01*
X21563111Y-57112661D01*
X21505708Y-57091482D01*
X21471716Y-57040608D01*
X21468000Y-57013737D01*
X21468000Y-51366262D01*
X21486907Y-51308071D01*
X21536407Y-51272107D01*
X21597593Y-51272107D01*
X21622000Y-51283945D01*
X21662402Y-51310941D01*
X21853580Y-51390130D01*
X22056535Y-51430500D01*
X22056536Y-51430500D01*
X22263464Y-51430500D01*
X22263465Y-51430500D01*
X22466420Y-51390130D01*
X22657598Y-51310941D01*
X22829655Y-51195977D01*
X22975977Y-51049655D01*
X23090941Y-50877598D01*
X23170130Y-50686420D01*
X23210500Y-50483465D01*
X23210500Y-50276535D01*
X23170130Y-50073580D01*
X23090941Y-49882402D01*
X22975977Y-49710345D01*
X22829655Y-49564023D01*
X22829651Y-49564020D01*
X22657597Y-49449058D01*
X22466418Y-49369869D01*
X22263467Y-49329500D01*
X22263465Y-49329500D01*
X22056535Y-49329500D01*
X22056532Y-49329500D01*
X21853581Y-49369869D01*
X21662403Y-49449058D01*
X21622000Y-49476054D01*
X21563111Y-49492661D01*
X21505708Y-49471482D01*
X21471716Y-49420608D01*
X21468000Y-49393737D01*
X21468000Y-36057414D01*
X21468001Y-36057401D01*
X21468001Y-35943972D01*
X21468000Y-35943970D01*
X21440707Y-35842113D01*
X21410608Y-35789980D01*
X21410608Y-35789979D01*
X21399294Y-35770383D01*
X21387980Y-35750787D01*
X21313413Y-35676220D01*
X21313410Y-35676218D01*
X16957396Y-31320203D01*
X16929619Y-31265686D01*
X16928400Y-31250199D01*
X16928400Y-31178044D01*
X16928400Y-31178043D01*
X16887477Y-31025316D01*
X16808420Y-30888384D01*
X16808417Y-30888381D01*
X16757396Y-30837359D01*
X16729619Y-30782842D01*
X16728400Y-30767356D01*
X16728400Y-30169600D01*
X16747307Y-30111409D01*
X16757396Y-30099596D01*
X19190996Y-27665996D01*
X19245513Y-27638219D01*
X19261000Y-27637000D01*
X19333155Y-27637000D01*
X19333157Y-27637000D01*
X19485884Y-27596077D01*
X19622816Y-27517020D01*
X19734620Y-27405216D01*
X19813677Y-27268284D01*
X19854600Y-27115557D01*
X19854600Y-26957443D01*
X19813677Y-26804716D01*
X19734620Y-26667784D01*
X19622816Y-26555980D01*
X19485884Y-26476923D01*
X19333157Y-26436000D01*
X19333155Y-26436000D01*
X19261001Y-26436000D01*
X19202810Y-26417093D01*
X19190997Y-26407004D01*
X16556196Y-23772203D01*
X16528419Y-23717686D01*
X16527200Y-23702199D01*
X16527200Y-12441461D01*
X16546107Y-12383270D01*
X16595607Y-12347306D01*
X16656793Y-12347306D01*
X16696201Y-12371455D01*
X16725499Y-12400753D01*
X16872006Y-12507196D01*
X17033361Y-12589411D01*
X17205591Y-12645371D01*
X17277136Y-12656702D01*
X17384451Y-12673700D01*
X17384454Y-12673700D01*
X17565549Y-12673700D01*
X17654977Y-12659535D01*
X17744409Y-12645371D01*
X17916639Y-12589411D01*
X18077994Y-12507196D01*
X18224501Y-12400753D01*
X18352553Y-12272701D01*
X18458996Y-12126194D01*
X18541211Y-11964839D01*
X18597171Y-11792609D01*
X18625500Y-11613746D01*
X18625500Y-11182654D01*
X18625500Y-11182650D01*
X18599202Y-11016614D01*
X18597171Y-11003791D01*
X18541211Y-10831561D01*
X18458996Y-10670206D01*
X18352553Y-10523699D01*
X18224501Y-10395647D01*
X18077994Y-10289204D01*
X18077993Y-10289203D01*
X18077991Y-10289202D01*
X17916637Y-10206988D01*
X17744406Y-10151028D01*
X17565549Y-10122700D01*
X17565546Y-10122700D01*
X17384454Y-10122700D01*
X17384451Y-10122700D01*
X17205593Y-10151028D01*
X17033362Y-10206988D01*
X16872008Y-10289202D01*
X16798752Y-10342425D01*
X16725499Y-10395647D01*
X16597447Y-10523699D01*
X16588069Y-10536607D01*
X16491002Y-10670208D01*
X16408788Y-10831562D01*
X16369793Y-10951579D01*
X16333829Y-11001080D01*
X16275638Y-11019987D01*
X16250016Y-11016614D01*
X16179427Y-10997700D01*
X16179425Y-10997700D01*
X16167120Y-10997700D01*
X16108929Y-10978793D01*
X16072966Y-10929294D01*
X16041211Y-10831561D01*
X15958996Y-10670206D01*
X15852553Y-10523699D01*
X15724501Y-10395647D01*
X15577994Y-10289204D01*
X15577993Y-10289203D01*
X15577991Y-10289202D01*
X15416637Y-10206988D01*
X15244406Y-10151028D01*
X15065549Y-10122700D01*
X15065546Y-10122700D01*
X14884454Y-10122700D01*
X14884451Y-10122700D01*
X14705593Y-10151028D01*
X14533362Y-10206988D01*
X14372008Y-10289202D01*
X14298752Y-10342425D01*
X14225499Y-10395647D01*
X14097447Y-10523699D01*
X14088069Y-10536607D01*
X13991002Y-10670208D01*
X13908788Y-10831562D01*
X13852828Y-11003793D01*
X13824500Y-11182650D01*
X13824500Y-11613749D01*
X13852828Y-11792606D01*
X13908788Y-11964837D01*
X13985112Y-12114632D01*
X13991004Y-12126194D01*
X14097447Y-12272701D01*
X14225499Y-12400753D01*
X14372006Y-12507196D01*
X14533361Y-12589411D01*
X14705591Y-12645371D01*
X14777136Y-12656702D01*
X14884451Y-12673700D01*
X14884454Y-12673700D01*
X15065549Y-12673700D01*
X15154977Y-12659535D01*
X15244409Y-12645371D01*
X15416639Y-12589411D01*
X15577994Y-12507196D01*
X15577993Y-12507196D01*
X15581460Y-12505430D01*
X15582318Y-12507115D01*
X15634893Y-12494451D01*
X15691439Y-12517823D01*
X15723447Y-12569968D01*
X15726200Y-12593152D01*
X15726200Y-23856373D01*
X15726200Y-23961827D01*
X15750270Y-24051659D01*
X15753494Y-24063692D01*
X15806216Y-24155008D01*
X15806217Y-24155009D01*
X15806218Y-24155010D01*
X15806220Y-24155013D01*
X17244130Y-25592923D01*
X18617703Y-26966496D01*
X18645480Y-27021013D01*
X18635909Y-27081445D01*
X18617703Y-27106504D01*
X16007412Y-29716795D01*
X16006522Y-29717956D01*
X16005658Y-29718549D01*
X16002832Y-29721376D01*
X16002307Y-29720851D01*
X15956096Y-29752609D01*
X15894931Y-29751003D01*
X15857980Y-29727688D01*
X11518296Y-25388003D01*
X11490519Y-25333486D01*
X11489300Y-25317999D01*
X11489300Y-25245844D01*
X11489300Y-25245843D01*
X11448377Y-25093116D01*
X11369320Y-24956184D01*
X11257516Y-24844380D01*
X11120584Y-24765323D01*
X10967857Y-24724400D01*
X10809743Y-24724400D01*
X10657016Y-24765323D01*
X10520084Y-24844380D01*
X10408280Y-24956184D01*
X10329223Y-25093116D01*
X10288300Y-25245843D01*
X10288300Y-25403957D01*
X10329223Y-25556684D01*
X10408280Y-25693616D01*
X10520084Y-25805420D01*
X10657016Y-25884477D01*
X10809743Y-25925400D01*
X10881899Y-25925400D01*
X10940090Y-25944307D01*
X10951903Y-25954396D01*
X15215504Y-30217996D01*
X15243281Y-30272513D01*
X15244500Y-30288000D01*
X15244500Y-49402090D01*
X15225593Y-49460281D01*
X15176093Y-49496245D01*
X15114907Y-49496245D01*
X15090499Y-49484406D01*
X15037597Y-49449058D01*
X14846418Y-49369869D01*
X14643467Y-49329500D01*
X14643465Y-49329500D01*
X14436535Y-49329500D01*
X14436532Y-49329500D01*
X14233581Y-49369869D01*
X14042402Y-49449058D01*
X13870348Y-49564020D01*
X13724020Y-49710348D01*
X13710316Y-49730859D01*
X13662266Y-49768739D01*
X13601128Y-49771141D01*
X13550254Y-49737149D01*
X13529076Y-49679745D01*
X13529000Y-49675858D01*
X13529000Y-40321874D01*
X13529000Y-40321873D01*
X13501707Y-40220013D01*
X13501707Y-40220012D01*
X13501707Y-40220011D01*
X13448983Y-40128691D01*
X13448982Y-40128690D01*
X13448981Y-40128689D01*
X13448980Y-40128687D01*
X12408996Y-39088703D01*
X12381219Y-39034186D01*
X12380000Y-39018699D01*
X12380000Y-38946544D01*
X12380000Y-38946543D01*
X12339077Y-38793816D01*
X12260020Y-38656884D01*
X12148216Y-38545080D01*
X12011284Y-38466023D01*
X11858557Y-38425100D01*
X11700443Y-38425100D01*
X11547716Y-38466023D01*
X11410784Y-38545080D01*
X11298980Y-38656884D01*
X11219923Y-38793816D01*
X11179000Y-38946543D01*
X11179000Y-39104657D01*
X11219923Y-39257384D01*
X11298980Y-39394316D01*
X11410784Y-39506120D01*
X11547716Y-39585177D01*
X11700443Y-39626100D01*
X11772599Y-39626100D01*
X11830790Y-39645007D01*
X11842603Y-39655096D01*
X12699004Y-40511497D01*
X12726781Y-40566014D01*
X12728000Y-40581501D01*
X12728000Y-56850500D01*
X12709093Y-56908691D01*
X12659593Y-56944655D01*
X12629000Y-56949500D01*
X11205139Y-56949500D01*
X11205136Y-56949501D01*
X11180009Y-56952414D01*
X11077235Y-56997794D01*
X10997794Y-57077235D01*
X10952414Y-57180011D01*
X10949500Y-57205130D01*
X10949500Y-58794860D01*
X10949501Y-58794863D01*
X10952414Y-58819990D01*
X10956087Y-58828308D01*
X10997794Y-58922765D01*
X11077235Y-59002206D01*
X11180009Y-59047585D01*
X11205135Y-59050500D01*
X12629000Y-59050499D01*
X12687191Y-59069406D01*
X12723155Y-59118906D01*
X12728000Y-59149499D01*
X12728000Y-64080199D01*
X12709093Y-64138390D01*
X12659593Y-64174354D01*
X12598407Y-64174354D01*
X12558996Y-64150203D01*
X9032896Y-60624103D01*
X9005119Y-60569586D01*
X9003900Y-60554099D01*
X9003900Y-34315243D01*
X9022807Y-34257052D01*
X9032890Y-34245245D01*
X9083920Y-34194216D01*
X9162977Y-34057284D01*
X9203900Y-33904557D01*
X9203900Y-33746443D01*
X9162977Y-33593716D01*
X9083920Y-33456784D01*
X8972116Y-33344980D01*
X8835184Y-33265923D01*
X8682457Y-33225000D01*
X8524343Y-33225000D01*
X8492357Y-33233570D01*
X8475822Y-33238001D01*
X8414721Y-33234798D01*
X8367171Y-33196293D01*
X8351200Y-33142374D01*
X8351200Y-32035301D01*
X8370107Y-31977110D01*
X8380196Y-31965297D01*
X10961697Y-29383796D01*
X11016214Y-29356019D01*
X11031701Y-29354800D01*
X11103855Y-29354800D01*
X11103857Y-29354800D01*
X11256584Y-29313877D01*
X11393516Y-29234820D01*
X11505320Y-29123016D01*
X11584377Y-28986084D01*
X11625300Y-28833357D01*
X11625300Y-28675243D01*
X11584377Y-28522516D01*
X11505320Y-28385584D01*
X11393516Y-28273780D01*
X11256584Y-28194723D01*
X11103857Y-28153800D01*
X10945743Y-28153800D01*
X10793016Y-28194723D01*
X10656084Y-28273780D01*
X10544280Y-28385584D01*
X10465223Y-28522516D01*
X10424300Y-28675244D01*
X10424300Y-28747399D01*
X10405393Y-28805590D01*
X10395304Y-28817403D01*
X7630216Y-31582491D01*
X7577493Y-31673811D01*
X7577492Y-31673811D01*
X7577493Y-31673812D01*
X7577493Y-31673813D01*
X7550200Y-31775673D01*
X500500Y-31775673D01*
X500500Y-10630093D01*
X8824500Y-10630093D01*
X8824500Y-12166306D01*
X8835123Y-12254765D01*
X8890637Y-12395539D01*
X8890638Y-12395541D01*
X8890639Y-12395542D01*
X8982078Y-12516122D01*
X9102658Y-12607561D01*
X9102659Y-12607561D01*
X9102660Y-12607562D01*
X9139711Y-12622173D01*
X9243436Y-12663077D01*
X9331898Y-12673700D01*
X9331900Y-12673700D01*
X10618100Y-12673700D01*
X10618102Y-12673700D01*
X10706564Y-12663077D01*
X10847342Y-12607561D01*
X10967922Y-12516122D01*
X11059361Y-12395542D01*
X11114877Y-12254764D01*
X11125500Y-12166302D01*
X11125500Y-11182650D01*
X11324500Y-11182650D01*
X11324500Y-11613749D01*
X11352828Y-11792606D01*
X11408788Y-11964837D01*
X11485112Y-12114632D01*
X11491004Y-12126194D01*
X11597447Y-12272701D01*
X11725499Y-12400753D01*
X11872006Y-12507196D01*
X12033361Y-12589411D01*
X12205591Y-12645371D01*
X12277136Y-12656702D01*
X12384451Y-12673700D01*
X12384454Y-12673700D01*
X12565549Y-12673700D01*
X12654977Y-12659535D01*
X12744409Y-12645371D01*
X12916639Y-12589411D01*
X13077994Y-12507196D01*
X13224501Y-12400753D01*
X13352553Y-12272701D01*
X13458996Y-12126194D01*
X13541211Y-11964839D01*
X13597171Y-11792609D01*
X13625500Y-11613746D01*
X13625500Y-11182654D01*
X13625500Y-11182650D01*
X13599202Y-11016614D01*
X13597171Y-11003791D01*
X13541211Y-10831561D01*
X13458996Y-10670206D01*
X13352553Y-10523699D01*
X13224501Y-10395647D01*
X13077994Y-10289204D01*
X13077993Y-10289203D01*
X13077991Y-10289202D01*
X12916637Y-10206988D01*
X12744406Y-10151028D01*
X12565549Y-10122700D01*
X12565546Y-10122700D01*
X12384454Y-10122700D01*
X12384451Y-10122700D01*
X12205593Y-10151028D01*
X12033362Y-10206988D01*
X11872008Y-10289202D01*
X11798752Y-10342425D01*
X11725499Y-10395647D01*
X11597447Y-10523699D01*
X11588069Y-10536607D01*
X11491002Y-10670208D01*
X11408788Y-10831562D01*
X11352828Y-11003793D01*
X11324500Y-11182650D01*
X11125500Y-11182650D01*
X11125500Y-10630098D01*
X11114877Y-10541636D01*
X11059361Y-10400858D01*
X10967922Y-10280278D01*
X10847342Y-10188839D01*
X10847341Y-10188838D01*
X10847339Y-10188837D01*
X10706565Y-10133323D01*
X10618106Y-10122700D01*
X10618102Y-10122700D01*
X9331898Y-10122700D01*
X9331893Y-10122700D01*
X9243434Y-10133323D01*
X9102660Y-10188837D01*
X9102656Y-10188840D01*
X8982081Y-10280275D01*
X8982075Y-10280281D01*
X8890640Y-10400856D01*
X8890637Y-10400860D01*
X8835123Y-10541634D01*
X8824500Y-10630093D01*
X500500Y-10630093D01*
X500500Y-3378710D01*
X1649500Y-3378710D01*
X1649500Y-3621289D01*
X1681161Y-3861781D01*
X1681161Y-3861786D01*
X1743944Y-4096092D01*
X1743948Y-4096105D01*
X1836772Y-4320204D01*
X1836774Y-4320208D01*
X1836776Y-4320212D01*
X1958064Y-4530289D01*
X1958066Y-4530292D01*
X2105729Y-4722731D01*
X2105731Y-4722733D01*
X2105735Y-4722738D01*
X2277262Y-4894265D01*
X2277266Y-4894268D01*
X2277268Y-4894270D01*
X2469707Y-5041933D01*
X2469711Y-5041936D01*
X2679788Y-5163224D01*
X2903900Y-5256054D01*
X3138211Y-5318838D01*
X3378712Y-5350500D01*
X3378713Y-5350500D01*
X3621287Y-5350500D01*
X3621288Y-5350500D01*
X3861789Y-5318838D01*
X4096100Y-5256054D01*
X4320212Y-5163224D01*
X4530289Y-5041936D01*
X4722738Y-4894265D01*
X4894265Y-4722738D01*
X5041936Y-4530289D01*
X5163224Y-4320212D01*
X5256054Y-4096100D01*
X5318838Y-3861789D01*
X5350500Y-3621288D01*
X5350500Y-3378712D01*
X5350500Y-3378710D01*
X134649500Y-3378710D01*
X134649500Y-3621289D01*
X134681161Y-3861781D01*
X134681161Y-3861786D01*
X134743944Y-4096092D01*
X134743948Y-4096105D01*
X134836772Y-4320204D01*
X134836774Y-4320208D01*
X134836776Y-4320212D01*
X134958064Y-4530289D01*
X134958066Y-4530292D01*
X135105729Y-4722731D01*
X135105731Y-4722733D01*
X135105735Y-4722738D01*
X135277262Y-4894265D01*
X135277266Y-4894268D01*
X135277268Y-4894270D01*
X135469707Y-5041933D01*
X135469711Y-5041936D01*
X135679788Y-5163224D01*
X135903900Y-5256054D01*
X136138211Y-5318838D01*
X136378712Y-5350500D01*
X136378713Y-5350500D01*
X136621287Y-5350500D01*
X136621288Y-5350500D01*
X136861789Y-5318838D01*
X137096100Y-5256054D01*
X137320212Y-5163224D01*
X137530289Y-5041936D01*
X137722738Y-4894265D01*
X137894265Y-4722738D01*
X138041936Y-4530289D01*
X138163224Y-4320212D01*
X138256054Y-4096100D01*
X138318838Y-3861789D01*
X138350500Y-3621288D01*
X138350500Y-3378712D01*
X138318838Y-3138211D01*
X138256054Y-2903900D01*
X138163224Y-2679788D01*
X138041936Y-2469711D01*
X137894265Y-2277262D01*
X137722738Y-2105735D01*
X137722733Y-2105731D01*
X137722731Y-2105729D01*
X137530292Y-1958066D01*
X137530289Y-1958064D01*
X137320212Y-1836776D01*
X137320208Y-1836774D01*
X137320204Y-1836772D01*
X137096105Y-1743948D01*
X137096104Y-1743947D01*
X137096100Y-1743946D01*
X136861789Y-1681162D01*
X136861786Y-1681161D01*
X136861784Y-1681161D01*
X136621289Y-1649500D01*
X136621288Y-1649500D01*
X136378712Y-1649500D01*
X136378710Y-1649500D01*
X136138218Y-1681161D01*
X136138213Y-1681161D01*
X135903907Y-1743944D01*
X135903894Y-1743948D01*
X135679795Y-1836772D01*
X135469707Y-1958066D01*
X135277268Y-2105729D01*
X135105729Y-2277268D01*
X134958066Y-2469707D01*
X134836772Y-2679795D01*
X134743948Y-2903894D01*
X134743944Y-2903907D01*
X134681161Y-3138213D01*
X134681161Y-3138218D01*
X134649500Y-3378710D01*
X5350500Y-3378710D01*
X5318838Y-3138211D01*
X5256054Y-2903900D01*
X5163224Y-2679788D01*
X5041936Y-2469711D01*
X4894265Y-2277262D01*
X4722738Y-2105735D01*
X4722733Y-2105731D01*
X4722731Y-2105729D01*
X4530292Y-1958066D01*
X4530289Y-1958064D01*
X4320212Y-1836776D01*
X4320208Y-1836774D01*
X4320204Y-1836772D01*
X4096105Y-1743948D01*
X4096104Y-1743947D01*
X4096100Y-1743946D01*
X3861789Y-1681162D01*
X3861786Y-1681161D01*
X3861784Y-1681161D01*
X3621289Y-1649500D01*
X3621288Y-1649500D01*
X3378712Y-1649500D01*
X3378710Y-1649500D01*
X3138218Y-1681161D01*
X3138213Y-1681161D01*
X2903907Y-1743944D01*
X2903894Y-1743948D01*
X2679795Y-1836772D01*
X2469707Y-1958066D01*
X2277268Y-2105729D01*
X2105729Y-2277268D01*
X1958066Y-2469707D01*
X1836772Y-2679795D01*
X1743948Y-2903894D01*
X1743944Y-2903907D01*
X1681161Y-3138213D01*
X1681161Y-3138218D01*
X1649500Y-3378710D01*
X500500Y-3378710D01*
X500500Y-599500D01*
X519407Y-541309D01*
X568907Y-505345D01*
X599500Y-500500D01*
X139400500Y-500500D01*
X139458691Y-519407D01*
G37*
%TD.AperFunction*%
%TD*%
M02*
