M48
; DRILL file KiCad 10.0.5 date 2026-08-05T00:31:17
; FORMAT={-:-/ absolute / metric / decimal}
; #@! TF.CreationDate,2026-08-05T00:31:17-05:00
; #@! TF.GenerationSoftware,Kicad,Pcbnew,10.0.5
; #@! TF.FileFunction,MixedPlating,1,2
FMAT,2
METRIC
; #@! TA.AperFunction,Plated,PTH,ViaDrill
T1C0.300
; #@! TA.AperFunction,Plated,PTH,ComponentDrill
T2C0.800
; #@! TA.AperFunction,Plated,PTH,ComponentDrill
T3C0.950
; #@! TA.AperFunction,Plated,PTH,ComponentDrill
T4C1.000
; #@! TA.AperFunction,Plated,PTH,ComponentDrill
T5C1.700
; #@! TA.AperFunction,NonPlated,NPTH,ComponentDrill
T6C3.200
%
G90
G05
T1
X8.603Y-33.825
X10.889Y-25.325
X11.025Y-28.754
X11.479Y-73.133
X11.779Y-39.026
X13.332Y-68.306
X13.72Y-65.877
X16.328Y-31.257
X19.254Y-27.037
X21.95Y-73.133
X22.272Y-65.369
X23.174Y-26.725
X24.46Y-60.5
X25.255Y-74.097
X25.877Y-21.331
X25.909Y-33.825
X28.671Y-29.445
X31.012Y-67.725
X31.221Y-65.491
X31.221Y-77.006
X32.697Y-60.801
X33.578Y-25.302
X34.642Y-53.587
X37.362Y-26.152
X37.5Y-41.778
X39.634Y-36.27
X39.634Y-62.458
X40.17Y-33.361
X40.17Y-71.187
X41.0Y-71.998
X42.986Y-39.577
X43.915Y-63.181
X44.349Y-65.187
X48.892Y-73.764
X50.376Y-72.654
X50.403Y-32.893
X53.373Y-34.447
X59.93Y-63.518
X67.654Y-54.856
X72.906Y-68.355
X117.728Y-56.638
T2
X35.244Y-25.565
X42.864Y-25.565
X52.589Y-25.565
X60.209Y-25.565
X69.934Y-25.565
X77.554Y-25.565
X87.279Y-25.565
X94.899Y-25.565
T3
X9.975Y-11.398
X12.475Y-11.398
X14.975Y-11.398
X17.475Y-11.398
X19.975Y-11.398
X22.475Y-11.398
X24.975Y-11.398
X27.475Y-11.398
X29.975Y-11.398
X32.475Y-11.398
X34.975Y-11.398
X37.475Y-11.398
X46.425Y-11.398
X48.925Y-11.398
X51.425Y-11.398
X53.925Y-11.398
X56.425Y-11.398
X58.925Y-11.398
X61.425Y-11.398
X63.925Y-11.398
X66.425Y-11.398
X68.925Y-11.398
X71.425Y-11.398
X73.925Y-11.398
X99.19Y-11.398
X101.69Y-11.398
X104.19Y-11.398
X113.14Y-11.398
X115.64Y-11.398
X118.14Y-11.398
T4
X12.0Y-50.38
X12.0Y-58.0
X14.54Y-50.38
X14.54Y-58.0
X17.08Y-50.38
X17.08Y-58.0
X19.62Y-50.38
X19.62Y-58.0
X22.16Y-50.38
X22.16Y-58.0
X32.0Y-50.38
X32.0Y-58.0
X34.54Y-50.38
X34.54Y-58.0
X37.08Y-50.38
X37.08Y-58.0
X39.62Y-50.38
X39.62Y-58.0
X42.16Y-50.38
X42.16Y-58.0
X52.0Y-50.38
X52.0Y-58.0
X54.54Y-50.38
X54.54Y-58.0
X57.08Y-50.38
X57.08Y-58.0
X59.62Y-50.38
X59.62Y-58.0
X62.16Y-50.38
X62.16Y-58.0
T5
X82.82Y-12.748
X86.78Y-12.748
X90.74Y-12.748
T6
X3.5Y-3.5
X3.5Y-86.5
X136.5Y-3.5
X136.5Y-86.5
M30
