%TF.GenerationSoftware,KiCad,Pcbnew,10.0.5*%
%TF.CreationDate,2026-08-05T00:31:16-05:00*%
%TF.ProjectId,filter-clipper,66696c74-6572-42d6-936c-69707065722e,rev?*%
%TF.SameCoordinates,Original*%
%TF.FileFunction,Other,Comment*%
%FSLAX46Y46*%
G04 Gerber Fmt 4.6, Leading zero omitted, Abs format (unit mm)*
G04 Created by KiCad (PCBNEW 10.0.5) date 2026-08-05 00:31:16*
%MOMM*%
%LPD*%
G01*
G04 APERTURE LIST*
%ADD10C,0.180000*%
%ADD11C,0.200000*%
%ADD12C,0.150000*%
G04 APERTURE END LIST*
D10*
X-11607142Y-48184568D02*
X-11321428Y-48184568D01*
X-11321428Y-48184568D02*
X-11178571Y-48255997D01*
X-11178571Y-48255997D02*
X-11035714Y-48398854D01*
X-11035714Y-48398854D02*
X-10964285Y-48684568D01*
X-10964285Y-48684568D02*
X-10964285Y-49184568D01*
X-10964285Y-49184568D02*
X-11035714Y-49470282D01*
X-11035714Y-49470282D02*
X-11178571Y-49613140D01*
X-11178571Y-49613140D02*
X-11321428Y-49684568D01*
X-11321428Y-49684568D02*
X-11607142Y-49684568D01*
X-11607142Y-49684568D02*
X-11750000Y-49613140D01*
X-11750000Y-49613140D02*
X-11892857Y-49470282D01*
X-11892857Y-49470282D02*
X-11964285Y-49184568D01*
X-11964285Y-49184568D02*
X-11964285Y-48684568D01*
X-11964285Y-48684568D02*
X-11892857Y-48398854D01*
X-11892857Y-48398854D02*
X-11750000Y-48255997D01*
X-11750000Y-48255997D02*
X-11607142Y-48184568D01*
X-10321428Y-48184568D02*
X-10321428Y-49398854D01*
X-10321428Y-49398854D02*
X-10249999Y-49541711D01*
X-10249999Y-49541711D02*
X-10178571Y-49613140D01*
X-10178571Y-49613140D02*
X-10035713Y-49684568D01*
X-10035713Y-49684568D02*
X-9749999Y-49684568D01*
X-9749999Y-49684568D02*
X-9607142Y-49613140D01*
X-9607142Y-49613140D02*
X-9535713Y-49541711D01*
X-9535713Y-49541711D02*
X-9464285Y-49398854D01*
X-9464285Y-49398854D02*
X-9464285Y-48184568D01*
X-8964284Y-48184568D02*
X-8107142Y-48184568D01*
X-8535713Y-49684568D02*
X-8535713Y-48184568D01*
X-6892856Y-49684568D02*
X-7607142Y-49684568D01*
X-7607142Y-49684568D02*
X-7607142Y-48184568D01*
X-6392856Y-49684568D02*
X-6392856Y-48184568D01*
X-5678570Y-49684568D02*
X-5678570Y-48184568D01*
X-5678570Y-48184568D02*
X-4821427Y-49684568D01*
X-4821427Y-49684568D02*
X-4821427Y-48184568D01*
X-4107141Y-48898854D02*
X-3607141Y-48898854D01*
X-3392855Y-49684568D02*
X-4107141Y-49684568D01*
X-4107141Y-49684568D02*
X-4107141Y-48184568D01*
X-4107141Y-48184568D02*
X-3392855Y-48184568D01*
X-1678569Y-49613140D02*
X-1464284Y-49684568D01*
X-1464284Y-49684568D02*
X-1107141Y-49684568D01*
X-1107141Y-49684568D02*
X-964284Y-49613140D01*
X-964284Y-49613140D02*
X-892855Y-49541711D01*
X-892855Y-49541711D02*
X-821426Y-49398854D01*
X-821426Y-49398854D02*
X-821426Y-49255997D01*
X-821426Y-49255997D02*
X-892855Y-49113140D01*
X-892855Y-49113140D02*
X-964284Y-49041711D01*
X-964284Y-49041711D02*
X-1107141Y-48970282D01*
X-1107141Y-48970282D02*
X-1392855Y-48898854D01*
X-1392855Y-48898854D02*
X-1535712Y-48827425D01*
X-1535712Y-48827425D02*
X-1607141Y-48755997D01*
X-1607141Y-48755997D02*
X-1678569Y-48613140D01*
X-1678569Y-48613140D02*
X-1678569Y-48470282D01*
X-1678569Y-48470282D02*
X-1607141Y-48327425D01*
X-1607141Y-48327425D02*
X-1535712Y-48255997D01*
X-1535712Y-48255997D02*
X-1392855Y-48184568D01*
X-1392855Y-48184568D02*
X-1035712Y-48184568D01*
X-1035712Y-48184568D02*
X-821426Y-48255997D01*
X678572Y-49541711D02*
X607144Y-49613140D01*
X607144Y-49613140D02*
X392858Y-49684568D01*
X392858Y-49684568D02*
X250001Y-49684568D01*
X250001Y-49684568D02*
X35715Y-49613140D01*
X35715Y-49613140D02*
X-107141Y-49470282D01*
X-107141Y-49470282D02*
X-178570Y-49327425D01*
X-178570Y-49327425D02*
X-249998Y-49041711D01*
X-249998Y-49041711D02*
X-249998Y-48827425D01*
X-249998Y-48827425D02*
X-178570Y-48541711D01*
X-178570Y-48541711D02*
X-107141Y-48398854D01*
X-107141Y-48398854D02*
X35715Y-48255997D01*
X35715Y-48255997D02*
X250001Y-48184568D01*
X250001Y-48184568D02*
X392858Y-48184568D01*
X392858Y-48184568D02*
X607144Y-48255997D01*
X607144Y-48255997D02*
X678572Y-48327425D01*
X1250001Y-49255997D02*
X1964287Y-49255997D01*
X1107144Y-49684568D02*
X1607144Y-48184568D01*
X1607144Y-48184568D02*
X2107144Y-49684568D01*
X3107143Y-48898854D02*
X2607143Y-48898854D01*
X2607143Y-49684568D02*
X2607143Y-48184568D01*
X2607143Y-48184568D02*
X3321429Y-48184568D01*
X4392857Y-48898854D02*
X3892857Y-48898854D01*
X3892857Y-49684568D02*
X3892857Y-48184568D01*
X3892857Y-48184568D02*
X4607143Y-48184568D01*
X5464286Y-48184568D02*
X5750000Y-48184568D01*
X5750000Y-48184568D02*
X5892857Y-48255997D01*
X5892857Y-48255997D02*
X6035714Y-48398854D01*
X6035714Y-48398854D02*
X6107143Y-48684568D01*
X6107143Y-48684568D02*
X6107143Y-49184568D01*
X6107143Y-49184568D02*
X6035714Y-49470282D01*
X6035714Y-49470282D02*
X5892857Y-49613140D01*
X5892857Y-49613140D02*
X5750000Y-49684568D01*
X5750000Y-49684568D02*
X5464286Y-49684568D01*
X5464286Y-49684568D02*
X5321429Y-49613140D01*
X5321429Y-49613140D02*
X5178571Y-49470282D01*
X5178571Y-49470282D02*
X5107143Y-49184568D01*
X5107143Y-49184568D02*
X5107143Y-48684568D01*
X5107143Y-48684568D02*
X5178571Y-48398854D01*
X5178571Y-48398854D02*
X5321429Y-48255997D01*
X5321429Y-48255997D02*
X5464286Y-48184568D01*
X7464286Y-49684568D02*
X6750000Y-49684568D01*
X6750000Y-49684568D02*
X6750000Y-48184568D01*
X7964286Y-49684568D02*
X7964286Y-48184568D01*
X7964286Y-48184568D02*
X8321429Y-48184568D01*
X8321429Y-48184568D02*
X8535715Y-48255997D01*
X8535715Y-48255997D02*
X8678572Y-48398854D01*
X8678572Y-48398854D02*
X8750001Y-48541711D01*
X8750001Y-48541711D02*
X8821429Y-48827425D01*
X8821429Y-48827425D02*
X8821429Y-49041711D01*
X8821429Y-49041711D02*
X8750001Y-49327425D01*
X8750001Y-49327425D02*
X8678572Y-49470282D01*
X8678572Y-49470282D02*
X8535715Y-49613140D01*
X8535715Y-49613140D02*
X8321429Y-49684568D01*
X8321429Y-49684568D02*
X7964286Y-49684568D01*
X10607143Y-49113140D02*
X11750001Y-49113140D01*
X13607143Y-49684568D02*
X13607143Y-48184568D01*
X13607143Y-48184568D02*
X14464286Y-49684568D01*
X14464286Y-49684568D02*
X14464286Y-48184568D01*
X15464287Y-48184568D02*
X15750001Y-48184568D01*
X15750001Y-48184568D02*
X15892858Y-48255997D01*
X15892858Y-48255997D02*
X16035715Y-48398854D01*
X16035715Y-48398854D02*
X16107144Y-48684568D01*
X16107144Y-48684568D02*
X16107144Y-49184568D01*
X16107144Y-49184568D02*
X16035715Y-49470282D01*
X16035715Y-49470282D02*
X15892858Y-49613140D01*
X15892858Y-49613140D02*
X15750001Y-49684568D01*
X15750001Y-49684568D02*
X15464287Y-49684568D01*
X15464287Y-49684568D02*
X15321430Y-49613140D01*
X15321430Y-49613140D02*
X15178572Y-49470282D01*
X15178572Y-49470282D02*
X15107144Y-49184568D01*
X15107144Y-49184568D02*
X15107144Y-48684568D01*
X15107144Y-48684568D02*
X15178572Y-48398854D01*
X15178572Y-48398854D02*
X15321430Y-48255997D01*
X15321430Y-48255997D02*
X15464287Y-48184568D01*
X16535716Y-48184568D02*
X17392859Y-48184568D01*
X16964287Y-49684568D02*
X16964287Y-48184568D01*
X19535715Y-48898854D02*
X19035715Y-48898854D01*
X19035715Y-49684568D02*
X19035715Y-48184568D01*
X19035715Y-48184568D02*
X19750001Y-48184568D01*
X20607144Y-48184568D02*
X20892858Y-48184568D01*
X20892858Y-48184568D02*
X21035715Y-48255997D01*
X21035715Y-48255997D02*
X21178572Y-48398854D01*
X21178572Y-48398854D02*
X21250001Y-48684568D01*
X21250001Y-48684568D02*
X21250001Y-49184568D01*
X21250001Y-49184568D02*
X21178572Y-49470282D01*
X21178572Y-49470282D02*
X21035715Y-49613140D01*
X21035715Y-49613140D02*
X20892858Y-49684568D01*
X20892858Y-49684568D02*
X20607144Y-49684568D01*
X20607144Y-49684568D02*
X20464287Y-49613140D01*
X20464287Y-49613140D02*
X20321429Y-49470282D01*
X20321429Y-49470282D02*
X20250001Y-49184568D01*
X20250001Y-49184568D02*
X20250001Y-48684568D01*
X20250001Y-48684568D02*
X20321429Y-48398854D01*
X20321429Y-48398854D02*
X20464287Y-48255997D01*
X20464287Y-48255997D02*
X20607144Y-48184568D01*
X22750001Y-49684568D02*
X22250001Y-48970282D01*
X21892858Y-49684568D02*
X21892858Y-48184568D01*
X21892858Y-48184568D02*
X22464287Y-48184568D01*
X22464287Y-48184568D02*
X22607144Y-48255997D01*
X22607144Y-48255997D02*
X22678573Y-48327425D01*
X22678573Y-48327425D02*
X22750001Y-48470282D01*
X22750001Y-48470282D02*
X22750001Y-48684568D01*
X22750001Y-48684568D02*
X22678573Y-48827425D01*
X22678573Y-48827425D02*
X22607144Y-48898854D01*
X22607144Y-48898854D02*
X22464287Y-48970282D01*
X22464287Y-48970282D02*
X21892858Y-48970282D01*
X25035715Y-48898854D02*
X24535715Y-48898854D01*
X24535715Y-49684568D02*
X24535715Y-48184568D01*
X24535715Y-48184568D02*
X25250001Y-48184568D01*
X25750001Y-49255997D02*
X26464287Y-49255997D01*
X25607144Y-49684568D02*
X26107144Y-48184568D01*
X26107144Y-48184568D02*
X26607144Y-49684568D01*
X27607143Y-48898854D02*
X27821429Y-48970282D01*
X27821429Y-48970282D02*
X27892858Y-49041711D01*
X27892858Y-49041711D02*
X27964286Y-49184568D01*
X27964286Y-49184568D02*
X27964286Y-49398854D01*
X27964286Y-49398854D02*
X27892858Y-49541711D01*
X27892858Y-49541711D02*
X27821429Y-49613140D01*
X27821429Y-49613140D02*
X27678572Y-49684568D01*
X27678572Y-49684568D02*
X27107143Y-49684568D01*
X27107143Y-49684568D02*
X27107143Y-48184568D01*
X27107143Y-48184568D02*
X27607143Y-48184568D01*
X27607143Y-48184568D02*
X27750001Y-48255997D01*
X27750001Y-48255997D02*
X27821429Y-48327425D01*
X27821429Y-48327425D02*
X27892858Y-48470282D01*
X27892858Y-48470282D02*
X27892858Y-48613140D01*
X27892858Y-48613140D02*
X27821429Y-48755997D01*
X27821429Y-48755997D02*
X27750001Y-48827425D01*
X27750001Y-48827425D02*
X27607143Y-48898854D01*
X27607143Y-48898854D02*
X27107143Y-48898854D01*
D11*
X-17904764Y-44010076D02*
X-18095240Y-43914838D01*
X-18095240Y-43914838D02*
X-18380954Y-43914838D01*
X-18380954Y-43914838D02*
X-18666669Y-44010076D01*
X-18666669Y-44010076D02*
X-18857145Y-44200552D01*
X-18857145Y-44200552D02*
X-18952383Y-44391028D01*
X-18952383Y-44391028D02*
X-19047621Y-44771980D01*
X-19047621Y-44771980D02*
X-19047621Y-45057695D01*
X-19047621Y-45057695D02*
X-18952383Y-45438647D01*
X-18952383Y-45438647D02*
X-18857145Y-45629123D01*
X-18857145Y-45629123D02*
X-18666669Y-45819600D01*
X-18666669Y-45819600D02*
X-18380954Y-45914838D01*
X-18380954Y-45914838D02*
X-18190478Y-45914838D01*
X-18190478Y-45914838D02*
X-17904764Y-45819600D01*
X-17904764Y-45819600D02*
X-17809526Y-45724361D01*
X-17809526Y-45724361D02*
X-17809526Y-45057695D01*
X-17809526Y-45057695D02*
X-18190478Y-45057695D01*
X-17047621Y-45343409D02*
X-16095240Y-45343409D01*
X-17238097Y-45914838D02*
X-16571431Y-43914838D01*
X-16571431Y-43914838D02*
X-15904764Y-45914838D01*
X-15333335Y-45819600D02*
X-15047621Y-45914838D01*
X-15047621Y-45914838D02*
X-14571430Y-45914838D01*
X-14571430Y-45914838D02*
X-14380954Y-45819600D01*
X-14380954Y-45819600D02*
X-14285716Y-45724361D01*
X-14285716Y-45724361D02*
X-14190478Y-45533885D01*
X-14190478Y-45533885D02*
X-14190478Y-45343409D01*
X-14190478Y-45343409D02*
X-14285716Y-45152933D01*
X-14285716Y-45152933D02*
X-14380954Y-45057695D01*
X-14380954Y-45057695D02*
X-14571430Y-44962457D01*
X-14571430Y-44962457D02*
X-14952383Y-44867219D01*
X-14952383Y-44867219D02*
X-15142859Y-44771980D01*
X-15142859Y-44771980D02*
X-15238097Y-44676742D01*
X-15238097Y-44676742D02*
X-15333335Y-44486266D01*
X-15333335Y-44486266D02*
X-15333335Y-44295790D01*
X-15333335Y-44295790D02*
X-15238097Y-44105314D01*
X-15238097Y-44105314D02*
X-15142859Y-44010076D01*
X-15142859Y-44010076D02*
X-14952383Y-43914838D01*
X-14952383Y-43914838D02*
X-14476192Y-43914838D01*
X-14476192Y-43914838D02*
X-14190478Y-44010076D01*
X-10666668Y-45914838D02*
X-11333335Y-44962457D01*
X-11809525Y-45914838D02*
X-11809525Y-43914838D01*
X-11809525Y-43914838D02*
X-11047620Y-43914838D01*
X-11047620Y-43914838D02*
X-10857144Y-44010076D01*
X-10857144Y-44010076D02*
X-10761906Y-44105314D01*
X-10761906Y-44105314D02*
X-10666668Y-44295790D01*
X-10666668Y-44295790D02*
X-10666668Y-44581504D01*
X-10666668Y-44581504D02*
X-10761906Y-44771980D01*
X-10761906Y-44771980D02*
X-10857144Y-44867219D01*
X-10857144Y-44867219D02*
X-11047620Y-44962457D01*
X-11047620Y-44962457D02*
X-11809525Y-44962457D01*
X-9047620Y-45819600D02*
X-9238096Y-45914838D01*
X-9238096Y-45914838D02*
X-9619049Y-45914838D01*
X-9619049Y-45914838D02*
X-9809525Y-45819600D01*
X-9809525Y-45819600D02*
X-9904763Y-45629123D01*
X-9904763Y-45629123D02*
X-9904763Y-44867219D01*
X-9904763Y-44867219D02*
X-9809525Y-44676742D01*
X-9809525Y-44676742D02*
X-9619049Y-44581504D01*
X-9619049Y-44581504D02*
X-9238096Y-44581504D01*
X-9238096Y-44581504D02*
X-9047620Y-44676742D01*
X-9047620Y-44676742D02*
X-8952382Y-44867219D01*
X-8952382Y-44867219D02*
X-8952382Y-45057695D01*
X-8952382Y-45057695D02*
X-9904763Y-45248171D01*
X-8285715Y-44581504D02*
X-7809525Y-45914838D01*
X-7809525Y-45914838D02*
X-7333334Y-44581504D01*
X-5142857Y-45343409D02*
X-4190476Y-45343409D01*
X-5333333Y-45914838D02*
X-4666667Y-43914838D01*
X-4666667Y-43914838D02*
X-4000000Y-45914838D01*
X-1809523Y-45152933D02*
X-285714Y-45152933D01*
X2857143Y-44867219D02*
X2190476Y-44867219D01*
X2190476Y-45914838D02*
X2190476Y-43914838D01*
X2190476Y-43914838D02*
X3142857Y-43914838D01*
X3904762Y-45914838D02*
X3904762Y-44581504D01*
X3904762Y-43914838D02*
X3809524Y-44010076D01*
X3809524Y-44010076D02*
X3904762Y-44105314D01*
X3904762Y-44105314D02*
X4000000Y-44010076D01*
X4000000Y-44010076D02*
X3904762Y-43914838D01*
X3904762Y-43914838D02*
X3904762Y-44105314D01*
X5142857Y-45914838D02*
X4952381Y-45819600D01*
X4952381Y-45819600D02*
X4857143Y-45629123D01*
X4857143Y-45629123D02*
X4857143Y-43914838D01*
X5619048Y-44581504D02*
X6380952Y-44581504D01*
X5904762Y-43914838D02*
X5904762Y-45629123D01*
X5904762Y-45629123D02*
X6000000Y-45819600D01*
X6000000Y-45819600D02*
X6190476Y-45914838D01*
X6190476Y-45914838D02*
X6380952Y-45914838D01*
X7809524Y-45819600D02*
X7619048Y-45914838D01*
X7619048Y-45914838D02*
X7238095Y-45914838D01*
X7238095Y-45914838D02*
X7047619Y-45819600D01*
X7047619Y-45819600D02*
X6952381Y-45629123D01*
X6952381Y-45629123D02*
X6952381Y-44867219D01*
X6952381Y-44867219D02*
X7047619Y-44676742D01*
X7047619Y-44676742D02*
X7238095Y-44581504D01*
X7238095Y-44581504D02*
X7619048Y-44581504D01*
X7619048Y-44581504D02*
X7809524Y-44676742D01*
X7809524Y-44676742D02*
X7904762Y-44867219D01*
X7904762Y-44867219D02*
X7904762Y-45057695D01*
X7904762Y-45057695D02*
X6952381Y-45248171D01*
X8761905Y-45914838D02*
X8761905Y-44581504D01*
X8761905Y-44962457D02*
X8857143Y-44771980D01*
X8857143Y-44771980D02*
X8952381Y-44676742D01*
X8952381Y-44676742D02*
X9142857Y-44581504D01*
X9142857Y-44581504D02*
X9333334Y-44581504D01*
X12952381Y-43819600D02*
X11238096Y-46391028D01*
X16285715Y-45724361D02*
X16190477Y-45819600D01*
X16190477Y-45819600D02*
X15904763Y-45914838D01*
X15904763Y-45914838D02*
X15714287Y-45914838D01*
X15714287Y-45914838D02*
X15428572Y-45819600D01*
X15428572Y-45819600D02*
X15238096Y-45629123D01*
X15238096Y-45629123D02*
X15142858Y-45438647D01*
X15142858Y-45438647D02*
X15047620Y-45057695D01*
X15047620Y-45057695D02*
X15047620Y-44771980D01*
X15047620Y-44771980D02*
X15142858Y-44391028D01*
X15142858Y-44391028D02*
X15238096Y-44200552D01*
X15238096Y-44200552D02*
X15428572Y-44010076D01*
X15428572Y-44010076D02*
X15714287Y-43914838D01*
X15714287Y-43914838D02*
X15904763Y-43914838D01*
X15904763Y-43914838D02*
X16190477Y-44010076D01*
X16190477Y-44010076D02*
X16285715Y-44105314D01*
X17428572Y-45914838D02*
X17238096Y-45819600D01*
X17238096Y-45819600D02*
X17142858Y-45629123D01*
X17142858Y-45629123D02*
X17142858Y-43914838D01*
X18190477Y-45914838D02*
X18190477Y-44581504D01*
X18190477Y-43914838D02*
X18095239Y-44010076D01*
X18095239Y-44010076D02*
X18190477Y-44105314D01*
X18190477Y-44105314D02*
X18285715Y-44010076D01*
X18285715Y-44010076D02*
X18190477Y-43914838D01*
X18190477Y-43914838D02*
X18190477Y-44105314D01*
X19142858Y-44581504D02*
X19142858Y-46581504D01*
X19142858Y-44676742D02*
X19333334Y-44581504D01*
X19333334Y-44581504D02*
X19714287Y-44581504D01*
X19714287Y-44581504D02*
X19904763Y-44676742D01*
X19904763Y-44676742D02*
X20000001Y-44771980D01*
X20000001Y-44771980D02*
X20095239Y-44962457D01*
X20095239Y-44962457D02*
X20095239Y-45533885D01*
X20095239Y-45533885D02*
X20000001Y-45724361D01*
X20000001Y-45724361D02*
X19904763Y-45819600D01*
X19904763Y-45819600D02*
X19714287Y-45914838D01*
X19714287Y-45914838D02*
X19333334Y-45914838D01*
X19333334Y-45914838D02*
X19142858Y-45819600D01*
X20952382Y-44581504D02*
X20952382Y-46581504D01*
X20952382Y-44676742D02*
X21142858Y-44581504D01*
X21142858Y-44581504D02*
X21523811Y-44581504D01*
X21523811Y-44581504D02*
X21714287Y-44676742D01*
X21714287Y-44676742D02*
X21809525Y-44771980D01*
X21809525Y-44771980D02*
X21904763Y-44962457D01*
X21904763Y-44962457D02*
X21904763Y-45533885D01*
X21904763Y-45533885D02*
X21809525Y-45724361D01*
X21809525Y-45724361D02*
X21714287Y-45819600D01*
X21714287Y-45819600D02*
X21523811Y-45914838D01*
X21523811Y-45914838D02*
X21142858Y-45914838D01*
X21142858Y-45914838D02*
X20952382Y-45819600D01*
X23523811Y-45819600D02*
X23333335Y-45914838D01*
X23333335Y-45914838D02*
X22952382Y-45914838D01*
X22952382Y-45914838D02*
X22761906Y-45819600D01*
X22761906Y-45819600D02*
X22666668Y-45629123D01*
X22666668Y-45629123D02*
X22666668Y-44867219D01*
X22666668Y-44867219D02*
X22761906Y-44676742D01*
X22761906Y-44676742D02*
X22952382Y-44581504D01*
X22952382Y-44581504D02*
X23333335Y-44581504D01*
X23333335Y-44581504D02*
X23523811Y-44676742D01*
X23523811Y-44676742D02*
X23619049Y-44867219D01*
X23619049Y-44867219D02*
X23619049Y-45057695D01*
X23619049Y-45057695D02*
X22666668Y-45248171D01*
X24476192Y-45914838D02*
X24476192Y-44581504D01*
X24476192Y-44962457D02*
X24571430Y-44771980D01*
X24571430Y-44771980D02*
X24666668Y-44676742D01*
X24666668Y-44676742D02*
X24857144Y-44581504D01*
X24857144Y-44581504D02*
X25047621Y-44581504D01*
X27904764Y-44867219D02*
X28190478Y-44962457D01*
X28190478Y-44962457D02*
X28285716Y-45057695D01*
X28285716Y-45057695D02*
X28380954Y-45248171D01*
X28380954Y-45248171D02*
X28380954Y-45533885D01*
X28380954Y-45533885D02*
X28285716Y-45724361D01*
X28285716Y-45724361D02*
X28190478Y-45819600D01*
X28190478Y-45819600D02*
X28000002Y-45914838D01*
X28000002Y-45914838D02*
X27238097Y-45914838D01*
X27238097Y-45914838D02*
X27238097Y-43914838D01*
X27238097Y-43914838D02*
X27904764Y-43914838D01*
X27904764Y-43914838D02*
X28095240Y-44010076D01*
X28095240Y-44010076D02*
X28190478Y-44105314D01*
X28190478Y-44105314D02*
X28285716Y-44295790D01*
X28285716Y-44295790D02*
X28285716Y-44486266D01*
X28285716Y-44486266D02*
X28190478Y-44676742D01*
X28190478Y-44676742D02*
X28095240Y-44771980D01*
X28095240Y-44771980D02*
X27904764Y-44867219D01*
X27904764Y-44867219D02*
X27238097Y-44867219D01*
X29523811Y-45914838D02*
X29333335Y-45819600D01*
X29333335Y-45819600D02*
X29238097Y-45724361D01*
X29238097Y-45724361D02*
X29142859Y-45533885D01*
X29142859Y-45533885D02*
X29142859Y-44962457D01*
X29142859Y-44962457D02*
X29238097Y-44771980D01*
X29238097Y-44771980D02*
X29333335Y-44676742D01*
X29333335Y-44676742D02*
X29523811Y-44581504D01*
X29523811Y-44581504D02*
X29809526Y-44581504D01*
X29809526Y-44581504D02*
X30000002Y-44676742D01*
X30000002Y-44676742D02*
X30095240Y-44771980D01*
X30095240Y-44771980D02*
X30190478Y-44962457D01*
X30190478Y-44962457D02*
X30190478Y-45533885D01*
X30190478Y-45533885D02*
X30095240Y-45724361D01*
X30095240Y-45724361D02*
X30000002Y-45819600D01*
X30000002Y-45819600D02*
X29809526Y-45914838D01*
X29809526Y-45914838D02*
X29523811Y-45914838D01*
X31904764Y-45914838D02*
X31904764Y-44867219D01*
X31904764Y-44867219D02*
X31809526Y-44676742D01*
X31809526Y-44676742D02*
X31619050Y-44581504D01*
X31619050Y-44581504D02*
X31238097Y-44581504D01*
X31238097Y-44581504D02*
X31047621Y-44676742D01*
X31904764Y-45819600D02*
X31714288Y-45914838D01*
X31714288Y-45914838D02*
X31238097Y-45914838D01*
X31238097Y-45914838D02*
X31047621Y-45819600D01*
X31047621Y-45819600D02*
X30952383Y-45629123D01*
X30952383Y-45629123D02*
X30952383Y-45438647D01*
X30952383Y-45438647D02*
X31047621Y-45248171D01*
X31047621Y-45248171D02*
X31238097Y-45152933D01*
X31238097Y-45152933D02*
X31714288Y-45152933D01*
X31714288Y-45152933D02*
X31904764Y-45057695D01*
X32857145Y-45914838D02*
X32857145Y-44581504D01*
X32857145Y-44962457D02*
X32952383Y-44771980D01*
X32952383Y-44771980D02*
X33047621Y-44676742D01*
X33047621Y-44676742D02*
X33238097Y-44581504D01*
X33238097Y-44581504D02*
X33428574Y-44581504D01*
X34952383Y-45914838D02*
X34952383Y-43914838D01*
X34952383Y-45819600D02*
X34761907Y-45914838D01*
X34761907Y-45914838D02*
X34380954Y-45914838D01*
X34380954Y-45914838D02*
X34190478Y-45819600D01*
X34190478Y-45819600D02*
X34095240Y-45724361D01*
X34095240Y-45724361D02*
X34000002Y-45533885D01*
X34000002Y-45533885D02*
X34000002Y-44962457D01*
X34000002Y-44962457D02*
X34095240Y-44771980D01*
X34095240Y-44771980D02*
X34190478Y-44676742D01*
X34190478Y-44676742D02*
X34380954Y-44581504D01*
X34380954Y-44581504D02*
X34761907Y-44581504D01*
X34761907Y-44581504D02*
X34952383Y-44676742D01*
%TO.C,H1*%
D12*
X6700000Y-3500000D02*
G75*
G02*
X300000Y-3500000I-3200000J0D01*
G01*
X300000Y-3500000D02*
G75*
G02*
X6700000Y-3500000I3200000J0D01*
G01*
%TO.C,H2*%
X139700000Y-3500000D02*
G75*
G02*
X133300000Y-3500000I-3200000J0D01*
G01*
X133300000Y-3500000D02*
G75*
G02*
X139700000Y-3500000I3200000J0D01*
G01*
%TO.C,H3*%
X139700000Y-86500000D02*
G75*
G02*
X133300000Y-86500000I-3200000J0D01*
G01*
X133300000Y-86500000D02*
G75*
G02*
X139700000Y-86500000I3200000J0D01*
G01*
%TO.C,H4*%
X6700000Y-86500000D02*
G75*
G02*
X300000Y-86500000I-3200000J0D01*
G01*
X300000Y-86500000D02*
G75*
G02*
X6700000Y-86500000I3200000J0D01*
G01*
%TD*%
M02*
