%TF.GenerationSoftware,KiCad,Pcbnew,10.0.5*%
%TF.CreationDate,2026-08-05T00:31:16-05:00*%
%TF.ProjectId,filter-clipper,66696c74-6572-42d6-936c-69707065722e,rev?*%
%TF.SameCoordinates,Original*%
%TF.FileFunction,Other,User*%
%FSLAX46Y46*%
G04 Gerber Fmt 4.6, Leading zero omitted, Abs format (unit mm)*
G04 Created by KiCad (PCBNEW 10.0.5) date 2026-08-05 00:31:16*
%MOMM*%
%LPD*%
G01*
G04 APERTURE LIST*
%ADD10C,0.050000*%
%ADD11C,0.100000*%
G04 APERTURE END LIST*
%TO.C,R512*%
D10*
X74520000Y-67270000D02*
X77480000Y-67270000D01*
X77480000Y-68730000D01*
X74520000Y-68730000D01*
X74520000Y-67270000D01*
%TO.C,C401*%
X8520000Y-73270000D02*
X11480000Y-73270000D01*
X11480000Y-74730000D01*
X8520000Y-74730000D01*
X8520000Y-73270000D01*
%TO.C,D409*%
X34193600Y-24314700D02*
X43913600Y-24314700D01*
X43913600Y-26814700D01*
X34193600Y-26814700D01*
X34193600Y-24314700D01*
%TO.C,K403*%
D11*
X49080000Y-48630000D02*
X65080000Y-48630000D01*
X49080000Y-59750000D02*
X49080000Y-48630000D01*
X65080000Y-48630000D02*
X65080000Y-59750000D01*
X65080000Y-59750000D02*
X49080000Y-59750000D01*
%TO.C,P404*%
D10*
X80370000Y-8548200D02*
X93190000Y-8548200D01*
X93190000Y-18048200D01*
X80370000Y-18048200D01*
X80370000Y-8548200D01*
%TO.C,U402*%
X20460700Y-24364700D02*
X21960700Y-24364700D01*
X20460700Y-33084700D02*
X20460700Y-24364700D01*
X21960700Y-24144700D02*
X26360700Y-24144700D01*
X21960700Y-24364700D02*
X21960700Y-24144700D01*
X21960700Y-33084700D02*
X20460700Y-33084700D01*
X21960700Y-33304700D02*
X21960700Y-33084700D01*
X26360700Y-24144700D02*
X26360700Y-24364700D01*
X26360700Y-24364700D02*
X27860700Y-24364700D01*
X26360700Y-33084700D02*
X26360700Y-33304700D01*
X26360700Y-33304700D02*
X21960700Y-33304700D01*
X27860700Y-24364700D02*
X27860700Y-33084700D01*
X27860700Y-33084700D02*
X26360700Y-33084700D01*
%TO.C,C492*%
X50520000Y-73270000D02*
X53480000Y-73270000D01*
X53480000Y-74730000D01*
X50520000Y-74730000D01*
X50520000Y-73270000D01*
%TO.C,C595*%
X10050000Y-79950000D02*
X10050000Y-82050000D01*
X10050000Y-82050000D02*
X11100000Y-82050000D01*
X11100000Y-79250000D02*
X11100000Y-79950000D01*
X11100000Y-79250000D02*
X12250000Y-78100000D01*
X11100000Y-79950000D02*
X10050000Y-79950000D01*
X11100000Y-82050000D02*
X11100000Y-82750000D01*
X11100000Y-82750000D02*
X12250000Y-83900000D01*
X12250000Y-78100000D02*
X16900000Y-78100000D01*
X12250000Y-83900000D02*
X16900000Y-83900000D01*
X16900000Y-78100000D02*
X16900000Y-79950000D01*
X16900000Y-79950000D02*
X17950000Y-79950000D01*
X16900000Y-82050000D02*
X16900000Y-83900000D01*
X17950000Y-79950000D02*
X17950000Y-82050000D01*
X17950000Y-82050000D02*
X16900000Y-82050000D01*
%TO.C,P402*%
X110190000Y-8548200D02*
X121090000Y-8548200D01*
X121090000Y-15298200D01*
X110190000Y-15298200D01*
X110190000Y-8548200D01*
%TO.C,D412*%
X86229300Y-24314700D02*
X95949300Y-24314700D01*
X95949300Y-26814700D01*
X86229300Y-26814700D01*
X86229300Y-24314700D01*
%TO.C,R491*%
X62520000Y-67270000D02*
X65480000Y-67270000D01*
X65480000Y-68730000D01*
X62520000Y-68730000D01*
X62520000Y-67270000D01*
%TO.C,D405*%
X19790200Y-39401200D02*
X23150200Y-39401200D01*
X23150200Y-41301200D01*
X19790200Y-41301200D01*
X19790200Y-39401200D01*
%TO.C,R511*%
X68520000Y-67270000D02*
X71480000Y-67270000D01*
X71480000Y-68730000D01*
X68520000Y-68730000D01*
X68520000Y-67270000D01*
%TO.C,R441*%
X20520000Y-67270000D02*
X23480000Y-67270000D01*
X23480000Y-68730000D01*
X20520000Y-68730000D01*
X20520000Y-67270000D01*
%TO.C,P403*%
X7025000Y-8548200D02*
X40425000Y-8548200D01*
X40425000Y-15298200D01*
X7025000Y-15298200D01*
X7025000Y-8548200D01*
%TO.C,D408*%
X48683100Y-39401200D02*
X52043100Y-39401200D01*
X52043100Y-41301200D01*
X48683100Y-41301200D01*
X48683100Y-39401200D01*
%TO.C,R444*%
X38520000Y-67270000D02*
X41480000Y-67270000D01*
X41480000Y-68730000D01*
X38520000Y-68730000D01*
X38520000Y-67270000D01*
%TO.C,R402*%
X8520000Y-67270000D02*
X11480000Y-67270000D01*
X11480000Y-68730000D01*
X8520000Y-68730000D01*
X8520000Y-67270000D01*
%TO.C,D401*%
X103639300Y-24344700D02*
X103639300Y-26244700D01*
X103639300Y-24344700D02*
X106839300Y-24344700D01*
X103639300Y-26244700D02*
X106839300Y-26244700D01*
X106839300Y-24344700D02*
X106839300Y-26244700D01*
%TO.C,R445*%
X44520000Y-67270000D02*
X47480000Y-67270000D01*
X47480000Y-68730000D01*
X44520000Y-68730000D01*
X44520000Y-67270000D01*
%TO.C,C593*%
X68520000Y-73270000D02*
X71480000Y-73270000D01*
X71480000Y-74730000D01*
X68520000Y-74730000D01*
X68520000Y-73270000D01*
%TO.C,R443*%
X32520000Y-67270000D02*
X35480000Y-67270000D01*
X35480000Y-68730000D01*
X32520000Y-68730000D01*
X32520000Y-67270000D01*
%TO.C,D411*%
X68884100Y-24314700D02*
X78604100Y-24314700D01*
X78604100Y-26814700D01*
X68884100Y-26814700D01*
X68884100Y-24314700D01*
%TO.C,D403*%
X125948800Y-24344700D02*
X125948800Y-26244700D01*
X125948800Y-24344700D02*
X129148800Y-24344700D01*
X125948800Y-26244700D02*
X129148800Y-26244700D01*
X129148800Y-24344700D02*
X129148800Y-26244700D01*
%TO.C,R446*%
X50520000Y-67270000D02*
X53480000Y-67270000D01*
X53480000Y-68730000D01*
X50520000Y-68730000D01*
X50520000Y-67270000D01*
%TO.C,C422*%
X26520000Y-73270000D02*
X29480000Y-73270000D01*
X29480000Y-74730000D01*
X26520000Y-74730000D01*
X26520000Y-73270000D01*
%TO.C,R471*%
X56520000Y-67270000D02*
X59480000Y-67270000D01*
X59480000Y-68730000D01*
X56520000Y-68730000D01*
X56520000Y-67270000D01*
%TO.C,D407*%
X39052100Y-39401200D02*
X42412100Y-39401200D01*
X42412100Y-41301200D01*
X39052100Y-41301200D01*
X39052100Y-39401200D01*
%TO.C,R422*%
X14520000Y-67270000D02*
X17480000Y-67270000D01*
X17480000Y-68730000D01*
X14520000Y-68730000D01*
X14520000Y-67270000D01*
%TO.C,D422*%
X73650000Y-53850000D02*
X73650000Y-56150000D01*
X73650000Y-53850000D02*
X78350000Y-53850000D01*
X78350000Y-53850000D02*
X78350000Y-56150000D01*
X78350000Y-56150000D02*
X73650000Y-56150000D01*
%TO.C,K402*%
D11*
X29080000Y-48630000D02*
X45080000Y-48630000D01*
X29080000Y-59750000D02*
X29080000Y-48630000D01*
X45080000Y-48630000D02*
X45080000Y-59750000D01*
X45080000Y-59750000D02*
X29080000Y-59750000D01*
%TO.C,P405*%
D10*
X43475000Y-8548200D02*
X76875000Y-8548200D01*
X76875000Y-15298200D01*
X43475000Y-15298200D01*
X43475000Y-8548200D01*
%TO.C,C491*%
X44520000Y-73270000D02*
X47480000Y-73270000D01*
X47480000Y-74730000D01*
X44520000Y-74730000D01*
X44520000Y-73270000D01*
%TO.C,D406*%
X29421200Y-39401200D02*
X32781200Y-39401200D01*
X32781200Y-41301200D01*
X29421200Y-41301200D01*
X29421200Y-39401200D01*
%TO.C,C594*%
X74520000Y-73270000D02*
X77480000Y-73270000D01*
X77480000Y-74730000D01*
X74520000Y-74730000D01*
X74520000Y-73270000D01*
%TO.C,C592*%
X62520000Y-73270000D02*
X65480000Y-73270000D01*
X65480000Y-74730000D01*
X62520000Y-74730000D01*
X62520000Y-73270000D01*
%TO.C,C596*%
X20050000Y-79950000D02*
X20050000Y-82050000D01*
X20050000Y-82050000D02*
X21100000Y-82050000D01*
X21100000Y-79250000D02*
X21100000Y-79950000D01*
X21100000Y-79250000D02*
X22250000Y-78100000D01*
X21100000Y-79950000D02*
X20050000Y-79950000D01*
X21100000Y-82050000D02*
X21100000Y-82750000D01*
X21100000Y-82750000D02*
X22250000Y-83900000D01*
X22250000Y-78100000D02*
X26900000Y-78100000D01*
X22250000Y-83900000D02*
X26900000Y-83900000D01*
X26900000Y-78100000D02*
X26900000Y-79950000D01*
X26900000Y-79950000D02*
X27950000Y-79950000D01*
X26900000Y-82050000D02*
X26900000Y-83900000D01*
X27950000Y-79950000D02*
X27950000Y-82050000D01*
X27950000Y-82050000D02*
X26900000Y-82050000D01*
%TO.C,K401*%
D11*
X9080000Y-48630000D02*
X25080000Y-48630000D01*
X9080000Y-59750000D02*
X9080000Y-48630000D01*
X25080000Y-48630000D02*
X25080000Y-59750000D01*
X25080000Y-59750000D02*
X9080000Y-59750000D01*
%TO.C,P401*%
D10*
X96240000Y-8548200D02*
X107140000Y-8548200D01*
X107140000Y-15298200D01*
X96240000Y-15298200D01*
X96240000Y-8548200D01*
%TO.C,C591*%
X56520000Y-73270000D02*
X59480000Y-73270000D01*
X59480000Y-74730000D01*
X56520000Y-74730000D01*
X56520000Y-73270000D01*
%TO.C,D421*%
X65650000Y-53850000D02*
X65650000Y-56150000D01*
X65650000Y-53850000D02*
X70350000Y-53850000D01*
X70350000Y-53850000D02*
X70350000Y-56150000D01*
X70350000Y-56150000D02*
X65650000Y-56150000D01*
%TO.C,U401*%
X8020200Y-24364700D02*
X9520200Y-24364700D01*
X8020200Y-33084700D02*
X8020200Y-24364700D01*
X9520200Y-24144700D02*
X13920200Y-24144700D01*
X9520200Y-24364700D02*
X9520200Y-24144700D01*
X9520200Y-33084700D02*
X8020200Y-33084700D01*
X9520200Y-33304700D02*
X9520200Y-33084700D01*
X13920200Y-24144700D02*
X13920200Y-24364700D01*
X13920200Y-24364700D02*
X15420200Y-24364700D01*
X13920200Y-33084700D02*
X13920200Y-33304700D01*
X13920200Y-33304700D02*
X9520200Y-33304700D01*
X15420200Y-24364700D02*
X15420200Y-33084700D01*
X15420200Y-33084700D02*
X13920200Y-33084700D01*
%TO.C,C402*%
X14520000Y-73270000D02*
X17480000Y-73270000D01*
X17480000Y-74730000D01*
X14520000Y-74730000D01*
X14520000Y-73270000D01*
%TO.C,C472*%
X38520000Y-73270000D02*
X41480000Y-73270000D01*
X41480000Y-74730000D01*
X38520000Y-74730000D01*
X38520000Y-73270000D01*
%TO.C,C471*%
X32520000Y-73270000D02*
X35480000Y-73270000D01*
X35480000Y-74730000D01*
X32520000Y-74730000D01*
X32520000Y-73270000D01*
%TO.C,C421*%
X20520000Y-73270000D02*
X23480000Y-73270000D01*
X23480000Y-74730000D01*
X20520000Y-74730000D01*
X20520000Y-73270000D01*
%TO.C,D410*%
X51538800Y-24314700D02*
X61258800Y-24314700D01*
X61258800Y-26814700D01*
X51538800Y-26814700D01*
X51538800Y-24314700D01*
%TO.C,D402*%
X114794100Y-24344700D02*
X114794100Y-26244700D01*
X114794100Y-24344700D02*
X117994100Y-24344700D01*
X114794100Y-26244700D02*
X117994100Y-26244700D01*
X117994100Y-24344700D02*
X117994100Y-26244700D01*
%TO.C,R442*%
X26520000Y-67270000D02*
X29480000Y-67270000D01*
X29480000Y-68730000D01*
X26520000Y-68730000D01*
X26520000Y-67270000D01*
%TO.C,D404*%
X9377400Y-39601200D02*
X9377400Y-41501200D01*
X9377400Y-39601200D02*
X12577400Y-39601200D01*
X9377400Y-41501200D02*
X12577400Y-41501200D01*
X12577400Y-39601200D02*
X12577400Y-41501200D01*
%TD*%
M02*
