%TF.GenerationSoftware,KiCad,Pcbnew,10.0.5*%
%TF.CreationDate,2026-08-05T00:31:16-05:00*%
%TF.ProjectId,filter-clipper,66696c74-6572-42d6-936c-69707065722e,rev?*%
%TF.SameCoordinates,Original*%
%TF.FileFunction,Soldermask,Bot*%
%TF.FilePolarity,Negative*%
%FSLAX46Y46*%
G04 Gerber Fmt 4.6, Leading zero omitted, Abs format (unit mm)*
G04 Created by KiCad (PCBNEW 10.0.5) date 2026-08-05 00:31:16*
%MOMM*%
%LPD*%
G01*
G04 APERTURE LIST*
G04 Aperture macros list*
%AMRoundRect*
0 Rectangle with rounded corners*
0 $1 Rounding radius*
0 $2 $3 $4 $5 $6 $7 $8 $9 X,Y pos of 4 corners*
0 Add a 4 corners polygon primitive as box body*
4,1,4,$2,$3,$4,$5,$6,$7,$8,$9,$2,$3,0*
0 Add four circle primitives for the rounded corners*
1,1,$1+$1,$2,$3*
1,1,$1+$1,$4,$5*
1,1,$1+$1,$6,$7*
1,1,$1+$1,$8,$9*
0 Add four rect primitives between the rounded corners*
20,1,$1+$1,$2,$3,$4,$5,0*
20,1,$1+$1,$4,$5,$6,$7,0*
20,1,$1+$1,$6,$7,$8,$9,0*
20,1,$1+$1,$8,$9,$2,$3,0*%
G04 Aperture macros list end*
%ADD10RoundRect,0.250000X-0.550000X-0.550000X0.550000X-0.550000X0.550000X0.550000X-0.550000X0.550000X0*%
%ADD11C,1.600000*%
%ADD12C,3.200000*%
%ADD13C,1.500000*%
%ADD14R,1.500000X1.500000*%
%ADD15RoundRect,0.250001X-1.099999X-1.099999X1.099999X-1.099999X1.099999X1.099999X-1.099999X1.099999X0*%
%ADD16C,2.700000*%
%ADD17RoundRect,0.250000X-0.600000X-0.725000X0.600000X-0.725000X0.600000X0.725000X-0.600000X0.725000X0*%
%ADD18O,1.700000X1.950000*%
G04 APERTURE END LIST*
D10*
%TO.C,D409*%
X35243600Y-25564700D03*
D11*
X42863600Y-25564700D03*
%TD*%
D12*
%TO.C,H1*%
X3500000Y-3500000D03*
%TD*%
D13*
%TO.C,K403*%
X57080000Y-58000000D03*
X54540000Y-58000000D03*
X59620000Y-58000000D03*
X57080000Y-50380000D03*
X54540000Y-50380000D03*
X59620000Y-50380000D03*
D14*
X52000000Y-58000000D03*
D13*
X52000000Y-50380000D03*
X62160000Y-58000000D03*
X62160000Y-50380000D03*
%TD*%
D15*
%TO.C,P404*%
X82820000Y-12748200D03*
D16*
X86780000Y-12748200D03*
X90740000Y-12748200D03*
%TD*%
D12*
%TO.C,H2*%
X136500000Y-3500000D03*
%TD*%
%TO.C,H3*%
X136500000Y-86500000D03*
%TD*%
D17*
%TO.C,P402*%
X113140000Y-11398200D03*
D18*
X115640000Y-11398200D03*
X118140000Y-11398200D03*
%TD*%
D10*
%TO.C,D412*%
X87279300Y-25564700D03*
D11*
X94899300Y-25564700D03*
%TD*%
D12*
%TO.C,H4*%
X3500000Y-86500000D03*
%TD*%
D17*
%TO.C,P403*%
X9975000Y-11398200D03*
D18*
X12475000Y-11398200D03*
X14975000Y-11398200D03*
X17475000Y-11398200D03*
X19975000Y-11398200D03*
X22475000Y-11398200D03*
X24975000Y-11398200D03*
X27475000Y-11398200D03*
X29975000Y-11398200D03*
X32475000Y-11398200D03*
X34975000Y-11398200D03*
X37475000Y-11398200D03*
%TD*%
D10*
%TO.C,D411*%
X69934100Y-25564700D03*
D11*
X77554100Y-25564700D03*
%TD*%
D13*
%TO.C,K402*%
X37080000Y-58000000D03*
X34540000Y-58000000D03*
X39620000Y-58000000D03*
X37080000Y-50380000D03*
X34540000Y-50380000D03*
X39620000Y-50380000D03*
D14*
X32000000Y-58000000D03*
D13*
X32000000Y-50380000D03*
X42160000Y-58000000D03*
X42160000Y-50380000D03*
%TD*%
D17*
%TO.C,P405*%
X46425000Y-11398200D03*
D18*
X48925000Y-11398200D03*
X51425000Y-11398200D03*
X53925000Y-11398200D03*
X56425000Y-11398200D03*
X58925000Y-11398200D03*
X61425000Y-11398200D03*
X63925000Y-11398200D03*
X66425000Y-11398200D03*
X68925000Y-11398200D03*
X71425000Y-11398200D03*
X73925000Y-11398200D03*
%TD*%
D13*
%TO.C,K401*%
X17080000Y-58000000D03*
X14540000Y-58000000D03*
X19620000Y-58000000D03*
X17080000Y-50380000D03*
X14540000Y-50380000D03*
X19620000Y-50380000D03*
D14*
X12000000Y-58000000D03*
D13*
X12000000Y-50380000D03*
X22160000Y-58000000D03*
X22160000Y-50380000D03*
%TD*%
D17*
%TO.C,P401*%
X99190000Y-11398200D03*
D18*
X101690000Y-11398200D03*
X104190000Y-11398200D03*
%TD*%
D10*
%TO.C,D410*%
X52588800Y-25564700D03*
D11*
X60208800Y-25564700D03*
%TD*%
M02*
