%TF.GenerationSoftware,KiCad,Pcbnew,10.0.5*%
%TF.CreationDate,2026-08-05T00:31:11-05:00*%
%TF.ProjectId,crossfade-feedback-wet,63726f73-7366-4616-9465-2d6665656462,rev?*%
%TF.SameCoordinates,Original*%
%TF.FileFunction,Soldermask,Bot*%
%TF.FilePolarity,Negative*%
%FSLAX46Y46*%
G04 Gerber Fmt 4.6, Leading zero omitted, Abs format (unit mm)*
G04 Created by KiCad (PCBNEW 10.0.5) date 2026-08-05 00:31:11*
%MOMM*%
%LPD*%
G01*
G04 APERTURE LIST*
G04 Aperture macros list*
%AMRoundRect*
0 Rectangle with rounded corners*
0 $1 Rounding radius*
0 $2 $3 $4 $5 $6 $7 $8 $9 X,Y pos of 4 corners*
0 Add a 4 corners polygon primitive as box body*
4,1,4,$2,$3,$4,$5,$6,$7,$8,$9,$2,$3,0*
0 Add four circle primitives for the rounded corners*
1,1,$1+$1,$2,$3*
1,1,$1+$1,$4,$5*
1,1,$1+$1,$6,$7*
1,1,$1+$1,$8,$9*
0 Add four rect primitives between the rounded corners*
20,1,$1+$1,$2,$3,$4,$5,0*
20,1,$1+$1,$4,$5,$6,$7,0*
20,1,$1+$1,$6,$7,$8,$9,0*
20,1,$1+$1,$8,$9,$2,$3,0*%
G04 Aperture macros list end*
%ADD10C,3.200000*%
%ADD11C,1.500000*%
%ADD12R,1.500000X1.500000*%
%ADD13RoundRect,0.250000X-0.600000X-0.725000X0.600000X-0.725000X0.600000X0.725000X-0.600000X0.725000X0*%
%ADD14O,1.700000X1.950000*%
%ADD15RoundRect,0.250001X-1.099999X-1.099999X1.099999X-1.099999X1.099999X1.099999X-1.099999X1.099999X0*%
%ADD16C,2.700000*%
G04 APERTURE END LIST*
D10*
%TO.C,H1*%
X3500000Y-3500000D03*
%TD*%
%TO.C,H2*%
X96500000Y-3500000D03*
%TD*%
D11*
%TO.C,K301*%
X21080000Y-44000000D03*
X18540000Y-44000000D03*
X23620000Y-44000000D03*
X21080000Y-36380000D03*
X18540000Y-36380000D03*
X23620000Y-36380000D03*
D12*
X16000000Y-44000000D03*
D11*
X16000000Y-36380000D03*
X26160000Y-44000000D03*
X26160000Y-36380000D03*
%TD*%
D13*
%TO.C,P301*%
X57740000Y-11398200D03*
D14*
X60240000Y-11398200D03*
X62740000Y-11398200D03*
%TD*%
D10*
%TO.C,H4*%
X3500000Y-66500000D03*
%TD*%
%TO.C,H3*%
X96500000Y-66500000D03*
%TD*%
D13*
%TO.C,P303*%
X9975000Y-26994700D03*
D14*
X12475000Y-26994700D03*
X14975000Y-26994700D03*
%TD*%
D13*
%TO.C,P302*%
X71690000Y-11398200D03*
D14*
X74190000Y-11398200D03*
X76690000Y-11398200D03*
%TD*%
D13*
%TO.C,P305*%
X37875000Y-26994700D03*
D14*
X40375000Y-26994700D03*
X42875000Y-26994700D03*
%TD*%
D15*
%TO.C,P306*%
X41370000Y-12748200D03*
D16*
X45330000Y-12748200D03*
X49290000Y-12748200D03*
%TD*%
D13*
%TO.C,P304*%
X23925000Y-26994700D03*
D14*
X26425000Y-26994700D03*
X28925000Y-26994700D03*
%TD*%
D13*
%TO.C,P307*%
X9975000Y-11398200D03*
D14*
X12475000Y-11398200D03*
X14975000Y-11398200D03*
X17475000Y-11398200D03*
X19975000Y-11398200D03*
X22475000Y-11398200D03*
X24975000Y-11398200D03*
X27475000Y-11398200D03*
X29975000Y-11398200D03*
X32475000Y-11398200D03*
%TD*%
M02*
