%TF.GenerationSoftware,KiCad,Pcbnew,10.0.5*%
%TF.CreationDate,2026-08-05T00:31:11-05:00*%
%TF.ProjectId,crossfade-feedback-wet,63726f73-7366-4616-9465-2d6665656462,rev?*%
%TF.SameCoordinates,Original*%
%TF.FileFunction,Paste,Top*%
%TF.FilePolarity,Positive*%
%FSLAX46Y46*%
G04 Gerber Fmt 4.6, Leading zero omitted, Abs format (unit mm)*
G04 Created by KiCad (PCBNEW 10.0.5) date 2026-08-05 00:31:11*
%MOMM*%
%LPD*%
G01*
G04 APERTURE LIST*
G04 Aperture macros list*
%AMRoundRect*
0 Rectangle with rounded corners*
0 $1 Rounding radius*
0 $2 $3 $4 $5 $6 $7 $8 $9 X,Y pos of 4 corners*
0 Add a 4 corners polygon primitive as box body*
4,1,4,$2,$3,$4,$5,$6,$7,$8,$9,$2,$3,0*
0 Add four circle primitives for the rounded corners*
1,1,$1+$1,$2,$3*
1,1,$1+$1,$4,$5*
1,1,$1+$1,$6,$7*
1,1,$1+$1,$8,$9*
0 Add four rect primitives between the rounded corners*
20,1,$1+$1,$2,$3,$4,$5,0*
20,1,$1+$1,$4,$5,$6,$7,0*
20,1,$1+$1,$6,$7,$8,$9,0*
20,1,$1+$1,$8,$9,$2,$3,0*%
G04 Aperture macros list end*
%ADD10RoundRect,0.200000X-0.200000X-0.275000X0.200000X-0.275000X0.200000X0.275000X-0.200000X0.275000X0*%
%ADD11RoundRect,0.225000X-0.225000X-0.250000X0.225000X-0.250000X0.225000X0.250000X-0.225000X0.250000X0*%
%ADD12RoundRect,0.150000X-0.825000X-0.150000X0.825000X-0.150000X0.825000X0.150000X-0.825000X0.150000X0*%
%ADD13RoundRect,0.225000X-0.225000X-0.375000X0.225000X-0.375000X0.225000X0.375000X-0.225000X0.375000X0*%
%ADD14RoundRect,0.250000X-1.250000X-0.550000X1.250000X-0.550000X1.250000X0.550000X-1.250000X0.550000X0*%
G04 APERTURE END LIST*
D10*
%TO.C,R324*%
X63175000Y-52000000D03*
X64825000Y-52000000D03*
%TD*%
D11*
%TO.C,C322*%
X51225000Y-58000000D03*
X52775000Y-58000000D03*
%TD*%
D12*
%TO.C,U301*%
X51095200Y-24914700D03*
X51095200Y-26184700D03*
X51095200Y-27454700D03*
X51095200Y-28724700D03*
X51095200Y-29994700D03*
X51095200Y-31264700D03*
X51095200Y-32534700D03*
X56045200Y-32534700D03*
X56045200Y-31264700D03*
X56045200Y-29994700D03*
X56045200Y-28724700D03*
X56045200Y-27454700D03*
X56045200Y-26184700D03*
X56045200Y-24914700D03*
%TD*%
D10*
%TO.C,R302*%
X15175000Y-52000000D03*
X16825000Y-52000000D03*
%TD*%
%TO.C,R332*%
X27175000Y-58000000D03*
X28825000Y-58000000D03*
%TD*%
%TO.C,R326*%
X15175000Y-58000000D03*
X16825000Y-58000000D03*
%TD*%
%TO.C,R301*%
X9175000Y-52000000D03*
X10825000Y-52000000D03*
%TD*%
D11*
%TO.C,C391*%
X57225000Y-58000000D03*
X58775000Y-58000000D03*
%TD*%
D10*
%TO.C,R323*%
X57175000Y-52000000D03*
X58825000Y-52000000D03*
%TD*%
%TO.C,R331*%
X21175000Y-58000000D03*
X22825000Y-58000000D03*
%TD*%
%TO.C,R341*%
X33175000Y-58000000D03*
X34825000Y-58000000D03*
%TD*%
D13*
%TO.C,D301*%
X30350000Y-44000000D03*
X33650000Y-44000000D03*
%TD*%
D10*
%TO.C,R342*%
X39175000Y-58000000D03*
X40825000Y-58000000D03*
%TD*%
%TO.C,R309*%
X21175000Y-52000000D03*
X22825000Y-52000000D03*
%TD*%
D14*
%TO.C,C393*%
X11800000Y-65000000D03*
X16200000Y-65000000D03*
%TD*%
D10*
%TO.C,R322*%
X51175000Y-52000000D03*
X52825000Y-52000000D03*
%TD*%
D14*
%TO.C,C394*%
X21800000Y-65000000D03*
X26200000Y-65000000D03*
%TD*%
D11*
%TO.C,C321*%
X45225000Y-58000000D03*
X46775000Y-58000000D03*
%TD*%
%TO.C,C392*%
X63225000Y-58000000D03*
X64775000Y-58000000D03*
%TD*%
D10*
%TO.C,R311*%
X33175000Y-52000000D03*
X34825000Y-52000000D03*
%TD*%
%TO.C,R325*%
X9175000Y-58000000D03*
X10825000Y-58000000D03*
%TD*%
%TO.C,R321*%
X45175000Y-52000000D03*
X46825000Y-52000000D03*
%TD*%
%TO.C,R310*%
X27175000Y-52000000D03*
X28825000Y-52000000D03*
%TD*%
%TO.C,R312*%
X39175000Y-52000000D03*
X40825000Y-52000000D03*
%TD*%
M02*
