%TF.GenerationSoftware,KiCad,Pcbnew,10.0.5*%
%TF.CreationDate,2026-08-05T00:31:11-05:00*%
%TF.ProjectId,crossfade-feedback-wet,63726f73-7366-4616-9465-2d6665656462,rev?*%
%TF.SameCoordinates,Original*%
%TF.FileFunction,Other,User*%
%FSLAX46Y46*%
G04 Gerber Fmt 4.6, Leading zero omitted, Abs format (unit mm)*
G04 Created by KiCad (PCBNEW 10.0.5) date 2026-08-05 00:31:11*
%MOMM*%
%LPD*%
G01*
G04 APERTURE LIST*
%ADD10C,0.050000*%
%ADD11C,0.100000*%
G04 APERTURE END LIST*
%TO.C,R324*%
D10*
X62520000Y-51270000D02*
X65480000Y-51270000D01*
X65480000Y-52730000D01*
X62520000Y-52730000D01*
X62520000Y-51270000D01*
%TO.C,C322*%
X50520000Y-57270000D02*
X53480000Y-57270000D01*
X53480000Y-58730000D01*
X50520000Y-58730000D01*
X50520000Y-57270000D01*
%TO.C,U301*%
X49870200Y-24364700D02*
X51370200Y-24364700D01*
X49870200Y-33084700D02*
X49870200Y-24364700D01*
X51370200Y-24144700D02*
X55770200Y-24144700D01*
X51370200Y-24364700D02*
X51370200Y-24144700D01*
X51370200Y-33084700D02*
X49870200Y-33084700D01*
X51370200Y-33304700D02*
X51370200Y-33084700D01*
X55770200Y-24144700D02*
X55770200Y-24364700D01*
X55770200Y-24364700D02*
X57270200Y-24364700D01*
X55770200Y-33084700D02*
X55770200Y-33304700D01*
X55770200Y-33304700D02*
X51370200Y-33304700D01*
X57270200Y-24364700D02*
X57270200Y-33084700D01*
X57270200Y-33084700D02*
X55770200Y-33084700D01*
%TO.C,K301*%
D11*
X13080000Y-34630000D02*
X29080000Y-34630000D01*
X13080000Y-45750000D02*
X13080000Y-34630000D01*
X29080000Y-34630000D02*
X29080000Y-45750000D01*
X29080000Y-45750000D02*
X13080000Y-45750000D01*
%TO.C,R302*%
D10*
X14520000Y-51270000D02*
X17480000Y-51270000D01*
X17480000Y-52730000D01*
X14520000Y-52730000D01*
X14520000Y-51270000D01*
%TO.C,R332*%
X26520000Y-57270000D02*
X29480000Y-57270000D01*
X29480000Y-58730000D01*
X26520000Y-58730000D01*
X26520000Y-57270000D01*
%TO.C,R326*%
X14520000Y-57270000D02*
X17480000Y-57270000D01*
X17480000Y-58730000D01*
X14520000Y-58730000D01*
X14520000Y-57270000D01*
%TO.C,R301*%
X8520000Y-51270000D02*
X11480000Y-51270000D01*
X11480000Y-52730000D01*
X8520000Y-52730000D01*
X8520000Y-51270000D01*
%TO.C,C391*%
X56520000Y-57270000D02*
X59480000Y-57270000D01*
X59480000Y-58730000D01*
X56520000Y-58730000D01*
X56520000Y-57270000D01*
%TO.C,P301*%
X54790000Y-8548200D02*
X65690000Y-8548200D01*
X65690000Y-15298200D01*
X54790000Y-15298200D01*
X54790000Y-8548200D01*
%TO.C,R323*%
X56520000Y-51270000D02*
X59480000Y-51270000D01*
X59480000Y-52730000D01*
X56520000Y-52730000D01*
X56520000Y-51270000D01*
%TO.C,R331*%
X20520000Y-57270000D02*
X23480000Y-57270000D01*
X23480000Y-58730000D01*
X20520000Y-58730000D01*
X20520000Y-57270000D01*
%TO.C,R341*%
X32520000Y-57270000D02*
X35480000Y-57270000D01*
X35480000Y-58730000D01*
X32520000Y-58730000D01*
X32520000Y-57270000D01*
%TO.C,D301*%
X29650000Y-42850000D02*
X29650000Y-45150000D01*
X29650000Y-42850000D02*
X34350000Y-42850000D01*
X34350000Y-42850000D02*
X34350000Y-45150000D01*
X34350000Y-45150000D02*
X29650000Y-45150000D01*
%TO.C,R342*%
X38520000Y-57270000D02*
X41480000Y-57270000D01*
X41480000Y-58730000D01*
X38520000Y-58730000D01*
X38520000Y-57270000D01*
%TO.C,P303*%
X7025000Y-24144700D02*
X17925000Y-24144700D01*
X17925000Y-30894700D01*
X7025000Y-30894700D01*
X7025000Y-24144700D01*
%TO.C,P302*%
X68740000Y-8548200D02*
X79640000Y-8548200D01*
X79640000Y-15298200D01*
X68740000Y-15298200D01*
X68740000Y-8548200D01*
%TO.C,R309*%
X20520000Y-51270000D02*
X23480000Y-51270000D01*
X23480000Y-52730000D01*
X20520000Y-52730000D01*
X20520000Y-51270000D01*
%TO.C,P305*%
X34925000Y-24144700D02*
X45825000Y-24144700D01*
X45825000Y-30894700D01*
X34925000Y-30894700D01*
X34925000Y-24144700D01*
%TO.C,C393*%
X10050000Y-63950000D02*
X10050000Y-66050000D01*
X10050000Y-66050000D02*
X11100000Y-66050000D01*
X11100000Y-63250000D02*
X11100000Y-63950000D01*
X11100000Y-63250000D02*
X12250000Y-62100000D01*
X11100000Y-63950000D02*
X10050000Y-63950000D01*
X11100000Y-66050000D02*
X11100000Y-66750000D01*
X11100000Y-66750000D02*
X12250000Y-67900000D01*
X12250000Y-62100000D02*
X16900000Y-62100000D01*
X12250000Y-67900000D02*
X16900000Y-67900000D01*
X16900000Y-62100000D02*
X16900000Y-63950000D01*
X16900000Y-63950000D02*
X17950000Y-63950000D01*
X16900000Y-66050000D02*
X16900000Y-67900000D01*
X17950000Y-63950000D02*
X17950000Y-66050000D01*
X17950000Y-66050000D02*
X16900000Y-66050000D01*
%TO.C,P306*%
X38920000Y-8548200D02*
X51740000Y-8548200D01*
X51740000Y-18048200D01*
X38920000Y-18048200D01*
X38920000Y-8548200D01*
%TO.C,R322*%
X50520000Y-51270000D02*
X53480000Y-51270000D01*
X53480000Y-52730000D01*
X50520000Y-52730000D01*
X50520000Y-51270000D01*
%TO.C,C394*%
X20050000Y-63950000D02*
X20050000Y-66050000D01*
X20050000Y-66050000D02*
X21100000Y-66050000D01*
X21100000Y-63250000D02*
X21100000Y-63950000D01*
X21100000Y-63250000D02*
X22250000Y-62100000D01*
X21100000Y-63950000D02*
X20050000Y-63950000D01*
X21100000Y-66050000D02*
X21100000Y-66750000D01*
X21100000Y-66750000D02*
X22250000Y-67900000D01*
X22250000Y-62100000D02*
X26900000Y-62100000D01*
X22250000Y-67900000D02*
X26900000Y-67900000D01*
X26900000Y-62100000D02*
X26900000Y-63950000D01*
X26900000Y-63950000D02*
X27950000Y-63950000D01*
X26900000Y-66050000D02*
X26900000Y-67900000D01*
X27950000Y-63950000D02*
X27950000Y-66050000D01*
X27950000Y-66050000D02*
X26900000Y-66050000D01*
%TO.C,P304*%
X20975000Y-24144700D02*
X31875000Y-24144700D01*
X31875000Y-30894700D01*
X20975000Y-30894700D01*
X20975000Y-24144700D01*
%TO.C,C321*%
X44520000Y-57270000D02*
X47480000Y-57270000D01*
X47480000Y-58730000D01*
X44520000Y-58730000D01*
X44520000Y-57270000D01*
%TO.C,C392*%
X62520000Y-57270000D02*
X65480000Y-57270000D01*
X65480000Y-58730000D01*
X62520000Y-58730000D01*
X62520000Y-57270000D01*
%TO.C,R311*%
X32520000Y-51270000D02*
X35480000Y-51270000D01*
X35480000Y-52730000D01*
X32520000Y-52730000D01*
X32520000Y-51270000D01*
%TO.C,R325*%
X8520000Y-57270000D02*
X11480000Y-57270000D01*
X11480000Y-58730000D01*
X8520000Y-58730000D01*
X8520000Y-57270000D01*
%TO.C,R321*%
X44520000Y-51270000D02*
X47480000Y-51270000D01*
X47480000Y-52730000D01*
X44520000Y-52730000D01*
X44520000Y-51270000D01*
%TO.C,R310*%
X26520000Y-51270000D02*
X29480000Y-51270000D01*
X29480000Y-52730000D01*
X26520000Y-52730000D01*
X26520000Y-51270000D01*
%TO.C,R312*%
X38520000Y-51270000D02*
X41480000Y-51270000D01*
X41480000Y-52730000D01*
X38520000Y-52730000D01*
X38520000Y-51270000D01*
%TO.C,P307*%
X7025000Y-8548200D02*
X35425000Y-8548200D01*
X35425000Y-15298200D01*
X7025000Y-15298200D01*
X7025000Y-8548200D01*
%TD*%
M02*
