M48
; DRILL file KiCad 10.0.5 date 2026-08-05T00:31:12
; FORMAT={-:-/ absolute / metric / decimal}
; #@! TF.CreationDate,2026-08-05T00:31:12-05:00
; #@! TF.GenerationSoftware,Kicad,Pcbnew,10.0.5
; #@! TF.FileFunction,MixedPlating,1,2
FMAT,2
METRIC
; #@! TA.AperFunction,Plated,PTH,ViaDrill
T1C0.300
; #@! TA.AperFunction,Plated,PTH,ComponentDrill
T2C0.950
; #@! TA.AperFunction,Plated,PTH,ComponentDrill
T3C1.000
; #@! TA.AperFunction,Plated,PTH,ComponentDrill
T4C1.700
; #@! TA.AperFunction,NonPlated,NPTH,ComponentDrill
T5C3.200
%
G90
G05
T1
X19.056Y-56.938
X20.243Y-57.776
X21.962Y-50.612
X22.884Y-54.012
X24.133Y-38.215
X26.923Y-56.741
X29.101Y-55.747
X34.994Y-56.878
X36.739Y-59.368
X40.895Y-57.015
X41.393Y-41.936
X43.576Y-57.833
X44.813Y-27.688
X45.592Y-48.162
X48.122Y-39.098
X48.451Y-57.16
X48.527Y-60.437
X54.56Y-51.93
X60.316Y-24.762
T2
X9.975Y-11.398
X9.975Y-26.995
X12.475Y-11.398
X12.475Y-26.995
X14.975Y-11.398
X14.975Y-26.995
X17.475Y-11.398
X19.975Y-11.398
X22.475Y-11.398
X23.925Y-26.995
X24.975Y-11.398
X26.425Y-26.995
X27.475Y-11.398
X28.925Y-26.995
X29.975Y-11.398
X32.475Y-11.398
X37.875Y-26.995
X40.375Y-26.995
X42.875Y-26.995
X57.74Y-11.398
X60.24Y-11.398
X62.74Y-11.398
X71.69Y-11.398
X74.19Y-11.398
X76.69Y-11.398
T3
X16.0Y-36.38
X16.0Y-44.0
X18.54Y-36.38
X18.54Y-44.0
X21.08Y-36.38
X21.08Y-44.0
X23.62Y-36.38
X23.62Y-44.0
X26.16Y-36.38
X26.16Y-44.0
T4
X41.37Y-12.748
X45.33Y-12.748
X49.29Y-12.748
T5
X3.5Y-3.5
X3.5Y-66.5
X96.5Y-3.5
X96.5Y-66.5
M30
