M48
; DRILL file KiCad 10.0.3 date 2026-07-02T03:50:21
; FORMAT={-:-/ absolute / metric / decimal}
; #@! TF.CreationDate,2026-07-02T03:50:21-05:00
; #@! TF.GenerationSoftware,Kicad,Pcbnew,10.0.3
; #@! TF.FileFunction,MixedPlating,1,2
FMAT,2
METRIC
; #@! TA.AperFunction,Plated,PTH,ViaDrill
T1C0.300
; #@! TA.AperFunction,Plated,PTH,ViaDrill
T2C0.400
; #@! TA.AperFunction,Plated,PTH,ComponentDrill
T3C0.700
; #@! TA.AperFunction,Plated,PTH,ComponentDrill
T4C0.950
; #@! TA.AperFunction,Plated,PTH,ComponentDrill
T5C1.700
; #@! TA.AperFunction,NonPlated,NPTH,ComponentDrill
T6C3.200
%
G90
G05
T1
X46.025Y-68.759
X48.889Y-58.462
X52.197Y-87.915
X55.134Y-85.165
X60.684Y-38.123
X62.734Y-65.165
X63.616Y-64.827
X63.616Y-87.818
X66.571Y-54.759
X67.647Y-87.823
X70.165Y-62.807
X70.52Y-60.053
X71.192Y-54.898
X71.723Y-61.795
X72.411Y-52.177
X72.411Y-70.418
X73.142Y-57.367
X82.609Y-41.241
X115.794Y-64.441
X117.478Y-81.243
X139.28Y-81.599
T2
X52.749Y-67.943
X59.828Y-67.236
X70.833Y-63.489
X77.772Y-97.94
X96.851Y-70.201
X106.312Y-74.916
X115.562Y-38.411
X116.043Y-68.678
X140.152Y-36.682
T3
X116.0Y-38.38
X116.0Y-46.0
X116.0Y-54.38
X116.0Y-62.0
X116.0Y-70.38
X116.0Y-78.0
X116.0Y-86.38
X116.0Y-94.0
X123.62Y-38.38
X123.62Y-46.0
X123.62Y-54.38
X123.62Y-62.0
X123.62Y-70.38
X123.62Y-78.0
X123.62Y-86.38
X123.62Y-94.0
X128.7Y-38.38
X128.7Y-46.0
X128.7Y-54.38
X128.7Y-62.0
X128.7Y-70.38
X128.7Y-78.0
X128.7Y-86.38
X128.7Y-94.0
X133.78Y-38.38
X133.78Y-46.0
X133.78Y-54.38
X133.78Y-62.0
X133.78Y-70.38
X133.78Y-78.0
X133.78Y-86.38
X133.78Y-94.0
T4
X38.0Y-45.0
X38.0Y-47.5
X38.0Y-50.0
X38.0Y-61.0
X38.0Y-63.5
X38.0Y-66.0
X56.0Y-102.0
X58.5Y-102.0
X61.0Y-102.0
X63.5Y-102.0
X66.0Y-102.0
X68.5Y-102.0
X71.0Y-102.0
X73.5Y-102.0
X76.0Y-102.0
X78.5Y-102.0
X92.0Y-102.0
X94.5Y-102.0
X97.0Y-102.0
X142.0Y-44.0
X142.0Y-46.5
X142.0Y-49.0
X142.0Y-51.5
X142.0Y-54.0
X142.0Y-56.5
X142.0Y-70.0
X142.0Y-72.5
X142.0Y-75.0
X142.0Y-77.5
X142.0Y-80.0
X142.0Y-82.5
T5
X38.0Y-72.12
X38.0Y-76.08
X38.0Y-80.04
X38.0Y-84.0
T6
X36.0Y-36.0
X36.0Y-104.0
X144.0Y-36.0
X144.0Y-104.0
M30
