%TF.GenerationSoftware,KiCad,Pcbnew,10.0.3*%
%TF.CreationDate,2026-07-04T15:31:07-05:00*%
%TF.ProjectId,ext-tank-routing,6578742d-7461-46e6-9b2d-726f7574696e,rev?*%
%TF.SameCoordinates,Original*%
%TF.FileFunction,Copper,L1,Top*%
%TF.FilePolarity,Positive*%
%FSLAX46Y46*%
G04 Gerber Fmt 4.6, Leading zero omitted, Abs format (unit mm)*
G04 Created by KiCad (PCBNEW 10.0.3) date 2026-07-04 15:31:07*
%MOMM*%
%LPD*%
G01*
G04 APERTURE LIST*
G04 Aperture macros list*
%AMRoundRect*
0 Rectangle with rounded corners*
0 $1 Rounding radius*
0 $2 $3 $4 $5 $6 $7 $8 $9 X,Y pos of 4 corners*
0 Add a 4 corners polygon primitive as box body*
4,1,4,$2,$3,$4,$5,$6,$7,$8,$9,$2,$3,0*
0 Add four circle primitives for the rounded corners*
1,1,$1+$1,$2,$3*
1,1,$1+$1,$4,$5*
1,1,$1+$1,$6,$7*
1,1,$1+$1,$8,$9*
0 Add four rect primitives between the rounded corners*
20,1,$1+$1,$2,$3,$4,$5,0*
20,1,$1+$1,$4,$5,$6,$7,0*
20,1,$1+$1,$6,$7,$8,$9,0*
20,1,$1+$1,$8,$9,$2,$3,0*%
G04 Aperture macros list end*
%TA.AperFunction,SMDPad,CuDef*%
%ADD10RoundRect,0.250000X-0.262500X-0.450000X0.262500X-0.450000X0.262500X0.450000X-0.262500X0.450000X0*%
%TD*%
%TA.AperFunction,ComponentPad*%
%ADD11RoundRect,0.250000X-0.725000X0.600000X-0.725000X-0.600000X0.725000X-0.600000X0.725000X0.600000X0*%
%TD*%
%TA.AperFunction,ComponentPad*%
%ADD12O,1.950000X1.700000*%
%TD*%
%TA.AperFunction,ComponentPad*%
%ADD13RoundRect,0.250000X0.725000X-0.600000X0.725000X0.600000X-0.725000X0.600000X-0.725000X-0.600000X0*%
%TD*%
%TA.AperFunction,SMDPad,CuDef*%
%ADD14RoundRect,0.150000X-0.825000X-0.150000X0.825000X-0.150000X0.825000X0.150000X-0.825000X0.150000X0*%
%TD*%
%TA.AperFunction,SMDPad,CuDef*%
%ADD15RoundRect,0.250000X-0.250000X-0.475000X0.250000X-0.475000X0.250000X0.475000X-0.250000X0.475000X0*%
%TD*%
%TA.AperFunction,ComponentPad*%
%ADD16RoundRect,0.250001X1.099999X-1.099999X1.099999X1.099999X-1.099999X1.099999X-1.099999X-1.099999X0*%
%TD*%
%TA.AperFunction,ComponentPad*%
%ADD17C,2.700000*%
%TD*%
%TA.AperFunction,ComponentPad*%
%ADD18RoundRect,0.250000X-0.600000X-0.725000X0.600000X-0.725000X0.600000X0.725000X-0.600000X0.725000X0*%
%TD*%
%TA.AperFunction,ComponentPad*%
%ADD19O,1.700000X1.950000*%
%TD*%
%TA.AperFunction,SMDPad,CuDef*%
%ADD20RoundRect,0.250000X-0.325000X-1.100000X0.325000X-1.100000X0.325000X1.100000X-0.325000X1.100000X0*%
%TD*%
%TA.AperFunction,SMDPad,CuDef*%
%ADD21RoundRect,0.225000X-0.225000X-0.375000X0.225000X-0.375000X0.225000X0.375000X-0.225000X0.375000X0*%
%TD*%
%TA.AperFunction,ComponentPad*%
%ADD22R,1.400000X1.400000*%
%TD*%
%TA.AperFunction,ComponentPad*%
%ADD23C,1.400000*%
%TD*%
%TA.AperFunction,ViaPad*%
%ADD24C,0.600000*%
%TD*%
%TA.AperFunction,ViaPad*%
%ADD25C,0.800000*%
%TD*%
%TA.AperFunction,Conductor*%
%ADD26C,0.200000*%
%TD*%
%TA.AperFunction,Conductor*%
%ADD27C,0.601000*%
%TD*%
%TA.AperFunction,Conductor*%
%ADD28C,0.800000*%
%TD*%
G04 APERTURE END LIST*
D10*
%TO.P,R223,1*%
%TO.N,EXTMIX_R_WIPER*%
X57087500Y-90000000D03*
%TO.P,R223,2*%
%TO.N,N_SUM_R_M*%
X58912500Y-90000000D03*
%TD*%
D11*
%TO.P,P203,1*%
%TO.N,SEC_SEND_L*%
X142000000Y-70000000D03*
D12*
%TO.P,P203,2*%
%TO.N,SEC_RET_L*%
X142000000Y-72500000D03*
%TO.P,P203,3*%
%TO.N,AGND*%
X142000000Y-75000000D03*
%TO.P,P203,4*%
%TO.N,SEC_SEND_R*%
X142000000Y-77500000D03*
%TO.P,P203,5*%
%TO.N,SEC_RET_R*%
X142000000Y-80000000D03*
%TO.P,P203,6*%
%TO.N,AGND*%
X142000000Y-82500000D03*
%TD*%
D10*
%TO.P,R207,1*%
%TO.N,WET_SEND_L*%
X43087500Y-46000000D03*
%TO.P,R207,2*%
%TO.N,N_SND_L_M*%
X44912500Y-46000000D03*
%TD*%
D13*
%TO.P,P205,1*%
%TO.N,FB_RET_L*%
X38000000Y-66000000D03*
D12*
%TO.P,P205,2*%
%TO.N,AGND*%
X38000000Y-63500000D03*
%TO.P,P205,3*%
%TO.N,FB_RET_R*%
X38000000Y-61000000D03*
%TD*%
D11*
%TO.P,P202,1*%
%TO.N,PRI_SEND_L*%
X142000000Y-44000000D03*
D12*
%TO.P,P202,2*%
%TO.N,PRI_RET_L*%
X142000000Y-46500000D03*
%TO.P,P202,3*%
%TO.N,AGND*%
X142000000Y-49000000D03*
%TO.P,P202,4*%
%TO.N,PRI_SEND_R*%
X142000000Y-51500000D03*
%TO.P,P202,5*%
%TO.N,PRI_RET_R*%
X142000000Y-54000000D03*
%TO.P,P202,6*%
%TO.N,AGND*%
X142000000Y-56500000D03*
%TD*%
D10*
%TO.P,R203,1*%
%TO.N,EXTMIX_L_WIPER*%
X57087500Y-40000000D03*
%TO.P,R203,2*%
%TO.N,N_SUM_L_M*%
X58912500Y-40000000D03*
%TD*%
D14*
%TO.P,U201,1*%
%TO.N,N_TMIX_L*%
X63525000Y-56190000D03*
%TO.P,U201,2*%
%TO.N,N_SUM_L_M*%
X63525000Y-57460000D03*
%TO.P,U201,3*%
%TO.N,AGND*%
X63525000Y-58730000D03*
%TO.P,U201,4*%
%TO.N,+15VA*%
X63525000Y-60000000D03*
%TO.P,U201,5*%
%TO.N,AGND*%
X63525000Y-61270000D03*
%TO.P,U201,6*%
%TO.N,N_SUM_R_M*%
X63525000Y-62540000D03*
%TO.P,U201,7*%
%TO.N,N_TMIX_R*%
X63525000Y-63810000D03*
%TO.P,U201,8*%
%TO.N,N_SECBUF_L*%
X68475000Y-63810000D03*
%TO.P,U201,9*%
%TO.N,N_SECFB_L*%
X68475000Y-62540000D03*
%TO.P,U201,10*%
%TO.N,SEC_DRV_L*%
X68475000Y-61270000D03*
%TO.P,U201,11*%
%TO.N,-15VA*%
X68475000Y-60000000D03*
%TO.P,U201,12*%
%TO.N,SEC_DRV_R*%
X68475000Y-58730000D03*
%TO.P,U201,13*%
%TO.N,N_SECFB_R*%
X68475000Y-57460000D03*
%TO.P,U201,14*%
%TO.N,N_SECBUF_R*%
X68475000Y-56190000D03*
%TD*%
D10*
%TO.P,R208,1*%
%TO.N,SEND_MIX_L*%
X57087500Y-46000000D03*
%TO.P,R208,2*%
%TO.N,N_SND_L_M*%
X58912500Y-46000000D03*
%TD*%
D15*
%TO.P,C297,1*%
%TO.N,-15VA*%
X91050000Y-68000000D03*
%TO.P,C297,2*%
%TO.N,AGND*%
X92950000Y-68000000D03*
%TD*%
D16*
%TO.P,P207,1*%
%TO.N,+15VA*%
X38000000Y-84000000D03*
D17*
%TO.P,P207,2*%
%TO.N,AGND*%
X38000000Y-80040000D03*
%TO.P,P207,3*%
%TO.N,-15VA*%
X38000000Y-76080000D03*
%TO.P,P207,4*%
%TO.N,+5VAUX*%
X38000000Y-72120000D03*
%TD*%
D18*
%TO.P,P206,1*%
%TO.N,EXTMIX_L_HI*%
X56000000Y-102000000D03*
D19*
%TO.P,P206,2*%
%TO.N,EXTMIX_L_WIPER*%
X58500000Y-102000000D03*
%TO.P,P206,3*%
%TO.N,AGND*%
X61000000Y-102000000D03*
%TO.P,P206,4*%
%TO.N,EXTMIX_R_HI*%
X63500000Y-102000000D03*
%TO.P,P206,5*%
%TO.N,EXTMIX_R_WIPER*%
X66000000Y-102000000D03*
%TO.P,P206,6*%
%TO.N,AGND*%
X68500000Y-102000000D03*
%TO.P,P206,7*%
%TO.N,+5VAUX*%
X71000000Y-102000000D03*
%TO.P,P206,8*%
%TO.N,AGND*%
X73500000Y-102000000D03*
%TO.P,P206,9*%
%TO.N,CTL_EXT_MODE_A*%
X76000000Y-102000000D03*
%TO.P,P206,10*%
%TO.N,CTL_EXT_MODE_B*%
X78500000Y-102000000D03*
%TD*%
D20*
%TO.P,C294,1*%
%TO.N,-15VA*%
X69525000Y-68000000D03*
%TO.P,C294,2*%
%TO.N,AGND*%
X72475000Y-68000000D03*
%TD*%
D21*
%TO.P,D262,1*%
%TO.N,CTL_EXT_MODE_A*%
X110350000Y-64000000D03*
%TO.P,D262,2*%
%TO.N,AGND*%
X113650000Y-64000000D03*
%TD*%
D15*
%TO.P,C295,1*%
%TO.N,+5VAUX*%
X77050000Y-68000000D03*
%TO.P,C295,2*%
%TO.N,AGND*%
X78950000Y-68000000D03*
%TD*%
D10*
%TO.P,R241,1*%
%TO.N,N_SECFB_L*%
X91087500Y-52000000D03*
%TO.P,R241,2*%
%TO.N,AGND*%
X92912500Y-52000000D03*
%TD*%
%TO.P,R209,1*%
%TO.N,N_TMIX_L*%
X65087500Y-40000000D03*
%TO.P,R209,2*%
%TO.N,N_SUM_L_M*%
X66912500Y-40000000D03*
%TD*%
%TO.P,R232,1*%
%TO.N,N_SECBUF_R*%
X84087500Y-70000000D03*
%TO.P,R232,2*%
%TO.N,N_SECFB_R*%
X85912500Y-70000000D03*
%TD*%
D22*
%TO.P,K203,1*%
%TO.N,CTL_EXT_MODE_A*%
X116000000Y-62000000D03*
D23*
%TO.P,K203,4*%
%TO.N,SEC_DRV_L*%
X123620000Y-62000000D03*
%TO.P,K203,6*%
%TO.N,N/C*%
X128700000Y-62000000D03*
%TO.P,K203,8*%
%TO.N,SEC_SEL_L*%
X133780000Y-62000000D03*
%TO.P,K203,9*%
%TO.N,EXTMIX_L_HI*%
X133780000Y-54380000D03*
%TO.P,K203,11*%
%TO.N,N/C*%
X128700000Y-54380000D03*
%TO.P,K203,13*%
%TO.N,SEC_RET_L*%
X123620000Y-54380000D03*
%TO.P,K203,16*%
%TO.N,AGND*%
X116000000Y-54380000D03*
%TD*%
D10*
%TO.P,R202,1*%
%TO.N,PRI_RET_L*%
X49087500Y-40000000D03*
%TO.P,R202,2*%
%TO.N,N_SUM_L_M*%
X50912500Y-40000000D03*
%TD*%
%TO.P,R222,1*%
%TO.N,PRI_RET_R*%
X49087500Y-90000000D03*
%TO.P,R222,2*%
%TO.N,N_SUM_R_M*%
X50912500Y-90000000D03*
%TD*%
D21*
%TO.P,D261,1*%
%TO.N,CTL_EXT_MODE_B*%
X102350000Y-64000000D03*
%TO.P,D261,2*%
%TO.N,AGND*%
X105650000Y-64000000D03*
%TD*%
D22*
%TO.P,K201,1*%
%TO.N,CTL_EXT_MODE_B*%
X116000000Y-46000000D03*
D23*
%TO.P,K201,4*%
%TO.N,SEC_SEL_L*%
X123620000Y-46000000D03*
%TO.P,K201,6*%
%TO.N,PRI_RET_L*%
X128700000Y-46000000D03*
%TO.P,K201,8*%
%TO.N,SEND_MIX_L*%
X133780000Y-46000000D03*
%TO.P,K201,9*%
%TO.N,N/C*%
X133780000Y-38380000D03*
%TO.P,K201,11*%
X128700000Y-38380000D03*
%TO.P,K201,13*%
X123620000Y-38380000D03*
%TO.P,K201,16*%
%TO.N,AGND*%
X116000000Y-38380000D03*
%TD*%
D10*
%TO.P,R226,1*%
%TO.N,N_SECBUF_R*%
X98087500Y-70000000D03*
%TO.P,R226,2*%
%TO.N,SEC_SEND_R*%
X99912500Y-70000000D03*
%TD*%
%TO.P,R211,1*%
%TO.N,SEC_DRV_L*%
X77087500Y-52000000D03*
%TO.P,R211,2*%
%TO.N,AGND*%
X78912500Y-52000000D03*
%TD*%
%TO.P,R221,1*%
%TO.N,SEND_MIX_R*%
X93087500Y-90000000D03*
%TO.P,R221,2*%
%TO.N,PRI_SEND_R*%
X94912500Y-90000000D03*
%TD*%
%TO.P,R224,1*%
%TO.N,FB_RET_R*%
X50087500Y-58000000D03*
%TO.P,R224,2*%
%TO.N,N_SND_R_M*%
X51912500Y-58000000D03*
%TD*%
%TO.P,R225,1*%
%TO.N,N_TMIX_R*%
X73087500Y-90000000D03*
%TO.P,R225,2*%
%TO.N,TANK_MIX_R*%
X74912500Y-90000000D03*
%TD*%
%TO.P,R205,1*%
%TO.N,N_TMIX_L*%
X73087500Y-40000000D03*
%TO.P,R205,2*%
%TO.N,TANK_MIX_L*%
X74912500Y-40000000D03*
%TD*%
D22*
%TO.P,K204,1*%
%TO.N,CTL_EXT_MODE_A*%
X116000000Y-94000000D03*
D23*
%TO.P,K204,4*%
%TO.N,SEC_DRV_R*%
X123620000Y-94000000D03*
%TO.P,K204,6*%
%TO.N,N/C*%
X128700000Y-94000000D03*
%TO.P,K204,8*%
%TO.N,SEC_SEL_R*%
X133780000Y-94000000D03*
%TO.P,K204,9*%
%TO.N,EXTMIX_R_HI*%
X133780000Y-86380000D03*
%TO.P,K204,11*%
%TO.N,N/C*%
X128700000Y-86380000D03*
%TO.P,K204,13*%
%TO.N,SEC_RET_R*%
X123620000Y-86380000D03*
%TO.P,K204,16*%
%TO.N,AGND*%
X116000000Y-86380000D03*
%TD*%
D10*
%TO.P,R201,1*%
%TO.N,SEND_MIX_L*%
X93087500Y-40000000D03*
%TO.P,R201,2*%
%TO.N,PRI_SEND_L*%
X94912500Y-40000000D03*
%TD*%
D15*
%TO.P,C296,1*%
%TO.N,+15VA*%
X84050000Y-68000000D03*
%TO.P,C296,2*%
%TO.N,AGND*%
X85950000Y-68000000D03*
%TD*%
D10*
%TO.P,R229,1*%
%TO.N,N_TMIX_R*%
X65087500Y-90000000D03*
%TO.P,R229,2*%
%TO.N,N_SUM_R_M*%
X66912500Y-90000000D03*
%TD*%
D15*
%TO.P,C291,1*%
%TO.N,+15VA*%
X49050000Y-68000000D03*
%TO.P,C291,2*%
%TO.N,AGND*%
X50950000Y-68000000D03*
%TD*%
D14*
%TO.P,U202,1*%
%TO.N,SEND_MIX_L*%
X49525000Y-50095000D03*
%TO.P,U202,2*%
%TO.N,N_SND_L_M*%
X49525000Y-51365000D03*
%TO.P,U202,3*%
%TO.N,AGND*%
X49525000Y-52635000D03*
%TO.P,U202,4*%
%TO.N,-15VA*%
X49525000Y-53905000D03*
%TO.P,U202,5*%
%TO.N,AGND*%
X54475000Y-53905000D03*
%TO.P,U202,6*%
%TO.N,N_SND_R_M*%
X54475000Y-52635000D03*
%TO.P,U202,7*%
%TO.N,SEND_MIX_R*%
X54475000Y-51365000D03*
%TO.P,U202,8*%
%TO.N,+15VA*%
X54475000Y-50095000D03*
%TD*%
D10*
%TO.P,R231,1*%
%TO.N,SEC_DRV_R*%
X77087500Y-70000000D03*
%TO.P,R231,2*%
%TO.N,AGND*%
X78912500Y-70000000D03*
%TD*%
D18*
%TO.P,P204,1*%
%TO.N,TANK_MIX_L*%
X92000000Y-102000000D03*
D19*
%TO.P,P204,2*%
%TO.N,AGND*%
X94500000Y-102000000D03*
%TO.P,P204,3*%
%TO.N,TANK_MIX_R*%
X97000000Y-102000000D03*
%TD*%
D22*
%TO.P,K202,1*%
%TO.N,CTL_EXT_MODE_B*%
X116000000Y-78000000D03*
D23*
%TO.P,K202,4*%
%TO.N,SEC_SEL_R*%
X123620000Y-78000000D03*
%TO.P,K202,6*%
%TO.N,PRI_RET_R*%
X128700000Y-78000000D03*
%TO.P,K202,8*%
%TO.N,SEND_MIX_R*%
X133780000Y-78000000D03*
%TO.P,K202,9*%
%TO.N,N/C*%
X133780000Y-70380000D03*
%TO.P,K202,11*%
X128700000Y-70380000D03*
%TO.P,K202,13*%
X123620000Y-70380000D03*
%TO.P,K202,16*%
%TO.N,AGND*%
X116000000Y-70380000D03*
%TD*%
D13*
%TO.P,P201,1*%
%TO.N,WET_SEND_L*%
X38000000Y-50000000D03*
D12*
%TO.P,P201,2*%
%TO.N,AGND*%
X38000000Y-47500000D03*
%TO.P,P201,3*%
%TO.N,WET_SEND_R*%
X38000000Y-45000000D03*
%TD*%
D10*
%TO.P,R227,1*%
%TO.N,WET_SEND_R*%
X43087500Y-58000000D03*
%TO.P,R227,2*%
%TO.N,N_SND_R_M*%
X44912500Y-58000000D03*
%TD*%
D15*
%TO.P,C292,1*%
%TO.N,-15VA*%
X56050000Y-68000000D03*
%TO.P,C292,2*%
%TO.N,AGND*%
X57950000Y-68000000D03*
%TD*%
D10*
%TO.P,R251,1*%
%TO.N,N_SECFB_R*%
X91087500Y-70000000D03*
%TO.P,R251,2*%
%TO.N,AGND*%
X92912500Y-70000000D03*
%TD*%
%TO.P,R204,1*%
%TO.N,FB_RET_L*%
X50087500Y-46000000D03*
%TO.P,R204,2*%
%TO.N,N_SND_L_M*%
X51912500Y-46000000D03*
%TD*%
D20*
%TO.P,C293,1*%
%TO.N,+15VA*%
X62525000Y-68000000D03*
%TO.P,C293,2*%
%TO.N,AGND*%
X65475000Y-68000000D03*
%TD*%
D10*
%TO.P,R212,1*%
%TO.N,N_SECBUF_L*%
X84087500Y-52000000D03*
%TO.P,R212,2*%
%TO.N,N_SECFB_L*%
X85912500Y-52000000D03*
%TD*%
%TO.P,R228,1*%
%TO.N,SEND_MIX_R*%
X57087500Y-58000000D03*
%TO.P,R228,2*%
%TO.N,N_SND_R_M*%
X58912500Y-58000000D03*
%TD*%
%TO.P,R206,1*%
%TO.N,N_SECBUF_L*%
X98087500Y-52000000D03*
%TO.P,R206,2*%
%TO.N,SEC_SEND_L*%
X99912500Y-52000000D03*
%TD*%
D24*
%TO.N,N_SUM_R_M*%
X62798700Y-88646600D03*
X62137400Y-66096500D03*
D25*
%TO.N,AGND*%
X39379457Y-69935967D03*
X40620213Y-51503254D03*
X135010724Y-79354851D03*
X48296587Y-47347127D03*
X92885061Y-68198776D03*
X50508223Y-52856163D03*
X116364825Y-88903726D03*
X60039216Y-68151949D03*
X102552012Y-67577880D03*
X99537108Y-53720295D03*
X54393475Y-55540400D03*
X83988237Y-88887863D03*
X87538813Y-68548613D03*
X58718659Y-61926830D03*
X119403630Y-95503735D03*
X127046954Y-77868820D03*
X81197826Y-51836899D03*
X62989592Y-82685243D03*
X74313507Y-66819611D03*
X56236639Y-42543532D03*
X125539507Y-78354452D03*
X57301021Y-94202976D03*
X73865454Y-54189861D03*
X98579903Y-64557256D03*
X45241017Y-48788255D03*
X87720918Y-81494300D03*
X74072547Y-98022034D03*
X105386004Y-95141487D03*
X75433149Y-61618568D03*
X47563193Y-62155093D03*
D24*
%TO.N,FB_RET_R*%
X49871000Y-55771700D03*
%TO.N,EXTMIX_L_WIPER*%
X57342600Y-41240900D03*
%TO.N,N_TMIX_R*%
X63326400Y-64917900D03*
X63659500Y-81901200D03*
%TO.N,N_SECBUF_L*%
X70514300Y-63818200D03*
X75342900Y-54876200D03*
%TO.N,N_SECFB_L*%
X78268300Y-61093200D03*
X82231200Y-54323900D03*
%TO.N,-15VA*%
X51888500Y-64058800D03*
X66488100Y-64067900D03*
%TO.N,SEC_DRV_R*%
X86792200Y-85129500D03*
X69983300Y-59073200D03*
X75607300Y-70720300D03*
%TO.N,SEND_MIX_R*%
X60031300Y-58118000D03*
X84085500Y-81954100D03*
%TO.N,TANK_MIX_L*%
X75342900Y-43266000D03*
%TD*%
%TO.N,EXTMIX_R_WIPER*%
D26*
X57087500Y-90000000D02*
X66000000Y-98912500D01*
X66000000Y-98912500D02*
X66000000Y-102000000D01*
%TO.N,N_SUM_R_M*%
X57888600Y-88976100D02*
X51936400Y-88976100D01*
X64572000Y-91012000D02*
X62502700Y-88942600D01*
X65900500Y-91012000D02*
X64572000Y-91012000D01*
X62798700Y-88646600D02*
X62502700Y-88942600D01*
X63525000Y-62540000D02*
X63118600Y-62540000D01*
X62068100Y-89377200D02*
X59535300Y-89377200D01*
X66912500Y-90000000D02*
X65900500Y-91012000D01*
X51936400Y-88976100D02*
X50912500Y-90000000D01*
X59535300Y-89377200D02*
X58912500Y-90000000D01*
X62502700Y-88942600D02*
X62068100Y-89377200D01*
X62137400Y-63521200D02*
X62137400Y-66096500D01*
X63118600Y-62540000D02*
X62137400Y-63521200D01*
X58912500Y-90000000D02*
X57888600Y-88976100D01*
%TO.N,SEC_SEND_L*%
X99912500Y-52000000D02*
X110566200Y-52000000D01*
X110566200Y-52000000D02*
X124756200Y-66190000D01*
X138190000Y-66190000D02*
X142000000Y-70000000D01*
X124756200Y-66190000D02*
X138190000Y-66190000D01*
%TO.N,SEC_RET_L*%
X143289800Y-69172300D02*
X143289800Y-70825900D01*
X127288400Y-58048400D02*
X132165900Y-58048400D01*
X132165900Y-58048400D02*
X143289800Y-69172300D01*
X143289800Y-70825900D02*
X142767400Y-71348300D01*
X123620000Y-54380000D02*
X127288400Y-58048400D01*
X142767400Y-71348300D02*
X142000000Y-71348300D01*
X142000000Y-72500000D02*
X142000000Y-71348300D01*
%TO.N,SEC_SEND_R*%
X140217100Y-76993800D02*
X140723300Y-77500000D01*
X121572400Y-76993800D02*
X140217100Y-76993800D01*
X99912500Y-70000000D02*
X108914200Y-79001700D01*
X119564500Y-79001700D02*
X121572400Y-76993800D01*
X142000000Y-77500000D02*
X140723300Y-77500000D01*
X108914200Y-79001700D02*
X119564500Y-79001700D01*
%TO.N,SEC_RET_R*%
X136075200Y-81151700D02*
X142000000Y-81151700D01*
X142000000Y-80000000D02*
X142000000Y-81151700D01*
X132905900Y-84321000D02*
X136075200Y-81151700D01*
X123620000Y-86380000D02*
X125679000Y-84321000D01*
X125679000Y-84321000D02*
X132905900Y-84321000D01*
%TO.N,WET_SEND_L*%
X38000000Y-50000000D02*
X39087500Y-50000000D01*
X39087500Y-50000000D02*
X43087500Y-46000000D01*
%TO.N,N_SND_L_M*%
X57537300Y-47375200D02*
X53287700Y-47375200D01*
X53287700Y-47970400D02*
X49893100Y-51365000D01*
X58912500Y-46000000D02*
X57537300Y-47375200D01*
X49171600Y-51365000D02*
X44912500Y-47105900D01*
X53287700Y-47375200D02*
X51912500Y-46000000D01*
X49525000Y-51365000D02*
X49171600Y-51365000D01*
X44912500Y-47105900D02*
X44912500Y-46000000D01*
X49893100Y-51365000D02*
X49525000Y-51365000D01*
X53287700Y-47375200D02*
X53287700Y-47970400D01*
%TO.N,FB_RET_L*%
X50087500Y-46000000D02*
X49048100Y-44960600D01*
X43902700Y-60097300D02*
X38000000Y-66000000D01*
X43902700Y-45508800D02*
X43902700Y-60097300D01*
X49048100Y-44960600D02*
X44450900Y-44960600D01*
X44450900Y-44960600D02*
X43902700Y-45508800D01*
%TO.N,FB_RET_R*%
X49871000Y-57783500D02*
X49871000Y-55771700D01*
X50087500Y-58000000D02*
X49871000Y-57783500D01*
%TO.N,PRI_SEND_L*%
X138000000Y-40000000D02*
X142000000Y-44000000D01*
X94912500Y-40000000D02*
X138000000Y-40000000D01*
%TO.N,PRI_RET_L*%
X86288600Y-38578900D02*
X91873500Y-44163800D01*
X50508600Y-38578900D02*
X86288600Y-38578900D01*
X126863800Y-44163800D02*
X128700000Y-46000000D01*
X49087500Y-40000000D02*
X50508600Y-38578900D01*
X91873500Y-44163800D02*
X126863800Y-44163800D01*
%TO.N,PRI_SEND_R*%
X142000000Y-51500000D02*
X142000000Y-52651700D01*
X94912500Y-90000000D02*
X101048100Y-83864400D01*
X142552500Y-78750000D02*
X143737000Y-77565500D01*
X101048100Y-83864400D02*
X132656800Y-83864400D01*
X137771200Y-78750000D02*
X142552500Y-78750000D01*
X132656800Y-83864400D02*
X137771200Y-78750000D01*
X142451700Y-52651700D02*
X142000000Y-52651700D01*
X143737000Y-53937000D02*
X142451700Y-52651700D01*
X143737000Y-77565500D02*
X143737000Y-53937000D01*
%TO.N,PRI_RET_R*%
X126363900Y-80336100D02*
X58751400Y-80336100D01*
X128700000Y-78000000D02*
X126363900Y-80336100D01*
X58751400Y-80336100D02*
X49087500Y-90000000D01*
%TO.N,EXTMIX_L_WIPER*%
X57087500Y-40985800D02*
X57342600Y-41240900D01*
X57087500Y-40000000D02*
X57087500Y-40985800D01*
%TO.N,N_SUM_L_M*%
X63525000Y-57460000D02*
X63167900Y-57460000D01*
X51915200Y-38997300D02*
X57909800Y-38997300D01*
X62066400Y-56358500D02*
X62066400Y-43153900D01*
X57909800Y-38997300D02*
X58912500Y-40000000D01*
X61246200Y-42333600D02*
X58912500Y-40000000D01*
X64590900Y-38988900D02*
X65901400Y-38988900D01*
X63167900Y-57460000D02*
X62066400Y-56358500D01*
X65901400Y-38988900D02*
X66912500Y-40000000D01*
X61246200Y-42333600D02*
X64590900Y-38988900D01*
X62066400Y-43153900D02*
X61246200Y-42333600D01*
X50912500Y-40000000D02*
X51915200Y-38997300D01*
%TO.N,N_TMIX_L*%
X63525000Y-42569600D02*
X65087500Y-41007100D01*
X65087500Y-41007100D02*
X72080400Y-41007100D01*
X63525000Y-56190000D02*
X63525000Y-42569600D01*
X65087500Y-41007100D02*
X65087500Y-40000000D01*
X72080400Y-41007100D02*
X73087500Y-40000000D01*
%TO.N,+15VA*%
D27*
X61036600Y-59630800D02*
X63155800Y-59630800D01*
D28*
X39254300Y-68105600D02*
X36048300Y-71311600D01*
X61183100Y-69341900D02*
X50286300Y-69341900D01*
X76468100Y-66637700D02*
X82687700Y-66637700D01*
X36048300Y-71311600D02*
X36048300Y-82048300D01*
X68836100Y-70002300D02*
X73103500Y-70002300D01*
X63525000Y-60000000D02*
X64312900Y-60000000D01*
X36048300Y-82048300D02*
X38000000Y-84000000D01*
X73103500Y-70002300D02*
X76468100Y-66637700D01*
X65147800Y-65377200D02*
X62525000Y-68000000D01*
X65500700Y-65377200D02*
X67174200Y-67050700D01*
X50286300Y-69341900D02*
X49050000Y-68105600D01*
D27*
X63155800Y-59630800D02*
X63525000Y-60000000D01*
D28*
X64312900Y-60000000D02*
X65147800Y-60834900D01*
X82687700Y-66637700D02*
X84050000Y-68000000D01*
X65147800Y-65377200D02*
X65500700Y-65377200D01*
X65147800Y-60834900D02*
X65147800Y-65377200D01*
X67174200Y-67050700D02*
X67174200Y-68340400D01*
X49050000Y-68105600D02*
X39254300Y-68105600D01*
X61036600Y-55809500D02*
X55322100Y-50095000D01*
X61036600Y-59630800D02*
X61036600Y-55809500D01*
X67174200Y-68340400D02*
X68836100Y-70002300D01*
X49050000Y-68105600D02*
X49050000Y-68000000D01*
X62525000Y-68000000D02*
X61183100Y-69341900D01*
X55322100Y-50095000D02*
X54475000Y-50095000D01*
%TO.N,N_TMIX_R*%
D26*
X66099500Y-84341200D02*
X66099500Y-88988000D01*
X63326400Y-64008600D02*
X63326400Y-64917900D01*
X63659500Y-81901200D02*
X66099500Y-84341200D01*
X65087500Y-90000000D02*
X66099500Y-88988000D01*
X63525000Y-63810000D02*
X63326400Y-64008600D01*
X66099500Y-88988000D02*
X72075500Y-88988000D01*
X72075500Y-88988000D02*
X73087500Y-90000000D01*
%TO.N,N_SECBUF_L*%
X75342900Y-54876200D02*
X76497000Y-53722100D01*
X70506100Y-63810000D02*
X70514300Y-63818200D01*
X76497000Y-53722100D02*
X82365400Y-53722100D01*
X97055900Y-50968400D02*
X98087500Y-52000000D01*
X68475000Y-63810000D02*
X70506100Y-63810000D01*
X85119100Y-50968400D02*
X97055900Y-50968400D01*
X82365400Y-53722100D02*
X84087500Y-52000000D01*
X84087500Y-52000000D02*
X85119100Y-50968400D01*
%TO.N,N_SECFB_L*%
X85912500Y-52000000D02*
X91087500Y-52000000D01*
X83588600Y-54323900D02*
X82231200Y-54323900D01*
X68475000Y-62540000D02*
X76821500Y-62540000D01*
X76821500Y-62540000D02*
X78268300Y-61093200D01*
X85912500Y-52000000D02*
X83588600Y-54323900D01*
%TO.N,SEC_DRV_L*%
X77087500Y-52000000D02*
X78549700Y-50537800D01*
X71033200Y-52000000D02*
X77087500Y-52000000D01*
X67494100Y-58095000D02*
X67191400Y-57792300D01*
X121658000Y-62000000D02*
X123620000Y-62000000D01*
X69928800Y-58095000D02*
X67494100Y-58095000D01*
X70587400Y-59529200D02*
X70587400Y-58753600D01*
X68475000Y-61270000D02*
X68846600Y-61270000D01*
X78549700Y-50537800D02*
X110195800Y-50537800D01*
X67191400Y-57792300D02*
X67191400Y-55841800D01*
X110195800Y-50537800D02*
X121658000Y-62000000D01*
X67191400Y-55841800D02*
X71033200Y-52000000D01*
X68846600Y-61270000D02*
X70587400Y-59529200D01*
X70587400Y-58753600D02*
X69928800Y-58095000D01*
%TO.N,-15VA*%
D28*
X66488100Y-64067900D02*
X66488100Y-61199000D01*
X71008000Y-65621800D02*
X88671800Y-65621800D01*
X88671800Y-65621800D02*
X91050000Y-68000000D01*
X48919300Y-54510700D02*
X48919300Y-60869300D01*
X69525000Y-67104800D02*
X71008000Y-65621800D01*
X49525000Y-53905000D02*
X48919300Y-54510700D01*
X48919300Y-60869300D02*
X51998700Y-63948600D01*
X69525000Y-67104800D02*
X69525000Y-68000000D01*
X67687100Y-60000000D02*
X68475000Y-60000000D01*
X66488100Y-64067900D02*
X69525000Y-67104800D01*
X51998700Y-63948600D02*
X56050000Y-68000000D01*
X51888500Y-64058800D02*
X51998700Y-63948600D01*
X66488100Y-61199000D02*
X67687100Y-60000000D01*
%TO.N,SEC_DRV_R*%
D26*
X76367200Y-70720300D02*
X77087500Y-70000000D01*
X122618300Y-92998300D02*
X123620000Y-94000000D01*
X86792200Y-85248800D02*
X94541700Y-92998300D01*
X69983300Y-59073100D02*
X69983300Y-59073200D01*
X68475000Y-58730000D02*
X68818100Y-59073100D01*
X68818100Y-59073100D02*
X69983300Y-59073100D01*
X86792200Y-85129500D02*
X86792200Y-85248800D01*
X94541700Y-92998300D02*
X122618300Y-92998300D01*
X75607300Y-70720300D02*
X76367200Y-70720300D01*
%TO.N,N_SECFB_R*%
X91087500Y-70000000D02*
X85912500Y-70000000D01*
X82037100Y-57460000D02*
X91885900Y-67308800D01*
X91885900Y-69201600D02*
X91087500Y-70000000D01*
X91885900Y-67308800D02*
X91885900Y-69201600D01*
X68475000Y-57460000D02*
X82037100Y-57460000D01*
%TO.N,N_SECBUF_R*%
X93752700Y-67287200D02*
X93752700Y-70000000D01*
X68475000Y-56190000D02*
X82655500Y-56190000D01*
X98087500Y-70000000D02*
X93752700Y-70000000D01*
X93752700Y-70672300D02*
X93400600Y-71024400D01*
X82655500Y-56190000D02*
X93752700Y-67287200D01*
X93752700Y-70000000D02*
X93752700Y-70672300D01*
X93400600Y-71024400D02*
X85111900Y-71024400D01*
X85111900Y-71024400D02*
X84087500Y-70000000D01*
%TO.N,SEND_MIX_L*%
X51000000Y-48620000D02*
X51000000Y-45411400D01*
X49468300Y-38115000D02*
X91202500Y-38115000D01*
X91202500Y-38115000D02*
X93087500Y-40000000D01*
X133780000Y-46000000D02*
X128934300Y-41154300D01*
X48235900Y-41519300D02*
X48235900Y-39347400D01*
X51000000Y-45411400D02*
X51564000Y-44847400D01*
X55934900Y-44847400D02*
X57087500Y-46000000D01*
X49525000Y-50095000D02*
X51000000Y-48620000D01*
X128934300Y-41154300D02*
X94241800Y-41154300D01*
X51564000Y-44847400D02*
X48235900Y-41519300D01*
X51564000Y-44847400D02*
X55934900Y-44847400D01*
X94241800Y-41154300D02*
X93087500Y-40000000D01*
X48235900Y-39347400D02*
X49468300Y-38115000D01*
%TO.N,+5VAUX*%
D28*
X72930000Y-72120000D02*
X77050000Y-68000000D01*
X38000000Y-72120000D02*
X72930000Y-72120000D01*
%TO.N,EXTMIX_R_HI*%
D26*
X64651700Y-102431900D02*
X65949600Y-103729800D01*
X116430200Y-103729800D02*
X133780000Y-86380000D01*
X63500000Y-102000000D02*
X64651700Y-102000000D01*
X64651700Y-102000000D02*
X64651700Y-102431900D01*
X65949600Y-103729800D02*
X116430200Y-103729800D01*
%TO.N,CTL_EXT_MODE_A*%
X116000000Y-94000000D02*
X114998300Y-94000000D01*
X76000000Y-102000000D02*
X77151700Y-102000000D01*
X77151700Y-102431900D02*
X77151700Y-102000000D01*
X112350000Y-62000000D02*
X110350000Y-64000000D01*
X105694600Y-103303700D02*
X78023500Y-103303700D01*
X114998300Y-94000000D02*
X105694600Y-103303700D01*
X78023500Y-103303700D02*
X77151700Y-102431900D01*
X116000000Y-62000000D02*
X112350000Y-62000000D01*
%TO.N,CTL_EXT_MODE_B*%
X116000000Y-76998300D02*
X115348300Y-76998300D01*
X116000000Y-78000000D02*
X116000000Y-76998300D01*
X115348300Y-76998300D02*
X102350000Y-64000000D01*
%TO.N,SEND_MIX_R*%
X84085500Y-81954100D02*
X85041600Y-81954100D01*
X128372000Y-83408000D02*
X133780000Y-78000000D01*
X93087500Y-90000000D02*
X99679500Y-83408000D01*
X57087500Y-53626900D02*
X57087500Y-55412900D01*
X57860800Y-55412900D02*
X60031300Y-57583400D01*
X60031300Y-57583400D02*
X60031300Y-58118000D01*
X57087500Y-55412900D02*
X57860800Y-55412900D01*
X57087500Y-55412900D02*
X57087500Y-58000000D01*
X54825600Y-51365000D02*
X57087500Y-53626900D01*
X54475000Y-51365000D02*
X54825600Y-51365000D01*
X99679500Y-83408000D02*
X128372000Y-83408000D01*
X85041600Y-81954100D02*
X93087500Y-90000000D01*
%TO.N,N_SND_R_M*%
X52923300Y-59010800D02*
X57901700Y-59010800D01*
X44912500Y-55626400D02*
X44912500Y-58000000D01*
X50749900Y-52000000D02*
X48538900Y-52000000D01*
X51912500Y-58000000D02*
X52923300Y-59010800D01*
X52440100Y-52635000D02*
X51912500Y-53162600D01*
X51912500Y-58000000D02*
X51912500Y-53162600D01*
X51912500Y-53162600D02*
X50749900Y-52000000D01*
X57901700Y-59010800D02*
X58912500Y-58000000D01*
X48538900Y-52000000D02*
X44912500Y-55626400D01*
X54475000Y-52635000D02*
X52440100Y-52635000D01*
%TO.N,TANK_MIX_R*%
X95848300Y-101548300D02*
X95848300Y-102000000D01*
X97000000Y-102000000D02*
X95848300Y-102000000D01*
X84300000Y-90000000D02*
X95848300Y-101548300D01*
X74912500Y-90000000D02*
X84300000Y-90000000D01*
%TO.N,TANK_MIX_L*%
X74912500Y-42835600D02*
X75342900Y-43266000D01*
X74912500Y-40000000D02*
X74912500Y-42835600D01*
%TO.N,WET_SEND_R*%
X36706300Y-46993700D02*
X37548300Y-46151700D01*
X38000000Y-45000000D02*
X38000000Y-46151700D01*
X37548300Y-46151700D02*
X38000000Y-46151700D01*
X43087500Y-58000000D02*
X36706300Y-51618800D01*
X36706300Y-51618800D02*
X36706300Y-46993700D01*
%TD*%
%TA.AperFunction,Conductor*%
%TO.N,AGND*%
G36*
X71860334Y-89507454D02*
G01*
X71941116Y-89561430D01*
X72101570Y-89721884D01*
X72155546Y-89802666D01*
X72174500Y-89897954D01*
X72174500Y-90515704D01*
X72177401Y-90552563D01*
X72177401Y-90552566D01*
X72177402Y-90552569D01*
X72223256Y-90710398D01*
X72306919Y-90851865D01*
X72423135Y-90968081D01*
X72564602Y-91051744D01*
X72722431Y-91097598D01*
X72759306Y-91100500D01*
X72759308Y-91100500D01*
X73415692Y-91100500D01*
X73415694Y-91100500D01*
X73452569Y-91097598D01*
X73610398Y-91051744D01*
X73751865Y-90968081D01*
X73823933Y-90896012D01*
X73904712Y-90842039D01*
X74000000Y-90823085D01*
X74095288Y-90842039D01*
X74176066Y-90896012D01*
X74248135Y-90968081D01*
X74389602Y-91051744D01*
X74547431Y-91097598D01*
X74584306Y-91100500D01*
X74584308Y-91100500D01*
X75240692Y-91100500D01*
X75240694Y-91100500D01*
X75277569Y-91097598D01*
X75435398Y-91051744D01*
X75576865Y-90968081D01*
X75693081Y-90851865D01*
X75776744Y-90710398D01*
X75785566Y-90680031D01*
X75830351Y-90593815D01*
X75904722Y-90531300D01*
X75997355Y-90502004D01*
X76024679Y-90500500D01*
X83989546Y-90500500D01*
X84084834Y-90519454D01*
X84165616Y-90573430D01*
X95274870Y-101682684D01*
X95328846Y-101763466D01*
X95347800Y-101858754D01*
X95347800Y-102065892D01*
X95381906Y-102193181D01*
X95381907Y-102193183D01*
X95381908Y-102193186D01*
X95447800Y-102307314D01*
X95518619Y-102378133D01*
X95572593Y-102458912D01*
X95591547Y-102554200D01*
X95572593Y-102649488D01*
X95518617Y-102730270D01*
X95437835Y-102784246D01*
X95342547Y-102803200D01*
X93499500Y-102803200D01*
X93404212Y-102784246D01*
X93323430Y-102730270D01*
X93269454Y-102649488D01*
X93250500Y-102554200D01*
X93250500Y-101209308D01*
X93250499Y-101209295D01*
X93247598Y-101172436D01*
X93247598Y-101172431D01*
X93201744Y-101014602D01*
X93118081Y-100873135D01*
X93001865Y-100756919D01*
X92860398Y-100673256D01*
X92702569Y-100627402D01*
X92702566Y-100627401D01*
X92702563Y-100627401D01*
X92665704Y-100624500D01*
X92665694Y-100624500D01*
X91334306Y-100624500D01*
X91334295Y-100624500D01*
X91297436Y-100627401D01*
X91297427Y-100627403D01*
X91139601Y-100673256D01*
X90998135Y-100756919D01*
X90881919Y-100873135D01*
X90798256Y-101014601D01*
X90752403Y-101172427D01*
X90752401Y-101172436D01*
X90749500Y-101209295D01*
X90749500Y-102554200D01*
X90730546Y-102649488D01*
X90676570Y-102730270D01*
X90595788Y-102784246D01*
X90500500Y-102803200D01*
X79937212Y-102803200D01*
X79841924Y-102784246D01*
X79761142Y-102730270D01*
X79707166Y-102649488D01*
X79688212Y-102554200D01*
X79700398Y-102477257D01*
X79719709Y-102417826D01*
X79750500Y-102223417D01*
X79750500Y-101776583D01*
X79719709Y-101582174D01*
X79658884Y-101394975D01*
X79569524Y-101219595D01*
X79453828Y-101060354D01*
X79314646Y-100921172D01*
X79256156Y-100878676D01*
X79155410Y-100805479D01*
X79155407Y-100805477D01*
X79155405Y-100805476D01*
X78980025Y-100716116D01*
X78980024Y-100716115D01*
X78980023Y-100716115D01*
X78980017Y-100716113D01*
X78835781Y-100669248D01*
X78792826Y-100655291D01*
X78792824Y-100655290D01*
X78792822Y-100655290D01*
X78598428Y-100624501D01*
X78598419Y-100624500D01*
X78598417Y-100624500D01*
X78401583Y-100624500D01*
X78401580Y-100624500D01*
X78401571Y-100624501D01*
X78207177Y-100655290D01*
X78019982Y-100716113D01*
X78019976Y-100716115D01*
X77939894Y-100756919D01*
X77844595Y-100805476D01*
X77844592Y-100805477D01*
X77844590Y-100805479D01*
X77844589Y-100805479D01*
X77685357Y-100921169D01*
X77546169Y-101060357D01*
X77451444Y-101190734D01*
X77380101Y-101256682D01*
X77288950Y-101290309D01*
X77191870Y-101286494D01*
X77103640Y-101245818D01*
X77048556Y-101190734D01*
X76953830Y-101060357D01*
X76953828Y-101060354D01*
X76814646Y-100921172D01*
X76756156Y-100878676D01*
X76655410Y-100805479D01*
X76655407Y-100805477D01*
X76655405Y-100805476D01*
X76480025Y-100716116D01*
X76480024Y-100716115D01*
X76480023Y-100716115D01*
X76480017Y-100716113D01*
X76335781Y-100669248D01*
X76292826Y-100655291D01*
X76292824Y-100655290D01*
X76292822Y-100655290D01*
X76098428Y-100624501D01*
X76098419Y-100624500D01*
X76098417Y-100624500D01*
X75901583Y-100624500D01*
X75901580Y-100624500D01*
X75901571Y-100624501D01*
X75707177Y-100655290D01*
X75519982Y-100716113D01*
X75519976Y-100716115D01*
X75439894Y-100756919D01*
X75344595Y-100805476D01*
X75344592Y-100805477D01*
X75344590Y-100805479D01*
X75344589Y-100805479D01*
X75185357Y-100921169D01*
X75046169Y-101060357D01*
X74930479Y-101219589D01*
X74930479Y-101219590D01*
X74930477Y-101219592D01*
X74930476Y-101219595D01*
X74894446Y-101290309D01*
X74841115Y-101394976D01*
X74841113Y-101394982D01*
X74780290Y-101582177D01*
X74749501Y-101776571D01*
X74749500Y-101776587D01*
X74749500Y-102223412D01*
X74749501Y-102223428D01*
X74780290Y-102417820D01*
X74780291Y-102417826D01*
X74806318Y-102497928D01*
X74841113Y-102605017D01*
X74841115Y-102605023D01*
X74930478Y-102780409D01*
X74969372Y-102833941D01*
X75010047Y-102922171D01*
X75013861Y-103019252D01*
X74980235Y-103110402D01*
X74914286Y-103181745D01*
X74826056Y-103222420D01*
X74767927Y-103229300D01*
X72232073Y-103229300D01*
X72136785Y-103210346D01*
X72056003Y-103156370D01*
X72002027Y-103075588D01*
X71983073Y-102980300D01*
X72002027Y-102885012D01*
X72030628Y-102833941D01*
X72069521Y-102780409D01*
X72069520Y-102780409D01*
X72069524Y-102780405D01*
X72158884Y-102605025D01*
X72219709Y-102417826D01*
X72250500Y-102223417D01*
X72250500Y-101776583D01*
X72219709Y-101582174D01*
X72158884Y-101394975D01*
X72069524Y-101219595D01*
X71953828Y-101060354D01*
X71814646Y-100921172D01*
X71756156Y-100878676D01*
X71655410Y-100805479D01*
X71655407Y-100805477D01*
X71655405Y-100805476D01*
X71480025Y-100716116D01*
X71480024Y-100716115D01*
X71480023Y-100716115D01*
X71480017Y-100716113D01*
X71335781Y-100669248D01*
X71292826Y-100655291D01*
X71292824Y-100655290D01*
X71292822Y-100655290D01*
X71098428Y-100624501D01*
X71098419Y-100624500D01*
X71098417Y-100624500D01*
X70901583Y-100624500D01*
X70901580Y-100624500D01*
X70901571Y-100624501D01*
X70707177Y-100655290D01*
X70519982Y-100716113D01*
X70519976Y-100716115D01*
X70439894Y-100756919D01*
X70344595Y-100805476D01*
X70344592Y-100805477D01*
X70344590Y-100805479D01*
X70344589Y-100805479D01*
X70185357Y-100921169D01*
X70046169Y-101060357D01*
X69930479Y-101219589D01*
X69930479Y-101219590D01*
X69930477Y-101219592D01*
X69930476Y-101219595D01*
X69894446Y-101290309D01*
X69841115Y-101394976D01*
X69841113Y-101394982D01*
X69780290Y-101582177D01*
X69749501Y-101776571D01*
X69749500Y-101776587D01*
X69749500Y-102223412D01*
X69749501Y-102223428D01*
X69780290Y-102417820D01*
X69780291Y-102417826D01*
X69806318Y-102497928D01*
X69841113Y-102605017D01*
X69841115Y-102605023D01*
X69930478Y-102780409D01*
X69969372Y-102833941D01*
X70010047Y-102922171D01*
X70013861Y-103019252D01*
X69980235Y-103110402D01*
X69914286Y-103181745D01*
X69826056Y-103222420D01*
X69767927Y-103229300D01*
X67232073Y-103229300D01*
X67136785Y-103210346D01*
X67056003Y-103156370D01*
X67002027Y-103075588D01*
X66983073Y-102980300D01*
X67002027Y-102885012D01*
X67030628Y-102833941D01*
X67069521Y-102780409D01*
X67069520Y-102780409D01*
X67069524Y-102780405D01*
X67158884Y-102605025D01*
X67219709Y-102417826D01*
X67250500Y-102223417D01*
X67250500Y-101776583D01*
X67219709Y-101582174D01*
X67158884Y-101394975D01*
X67069524Y-101219595D01*
X66953828Y-101060354D01*
X66814646Y-100921172D01*
X66655405Y-100805476D01*
X66653377Y-100804443D01*
X66636453Y-100795819D01*
X66560157Y-100735670D01*
X66512686Y-100650902D01*
X66500500Y-100573960D01*
X66500500Y-98846607D01*
X66466393Y-98719318D01*
X66466392Y-98719314D01*
X66400500Y-98605186D01*
X66400499Y-98605185D01*
X66400498Y-98605183D01*
X66307314Y-98511999D01*
X66307314Y-98512000D01*
X59277224Y-91481910D01*
X59223248Y-91401128D01*
X59204294Y-91305840D01*
X59223248Y-91210552D01*
X59277224Y-91129770D01*
X59358006Y-91075794D01*
X59383817Y-91066729D01*
X59435398Y-91051744D01*
X59576865Y-90968081D01*
X59693081Y-90851865D01*
X59776744Y-90710398D01*
X59822598Y-90552569D01*
X59825500Y-90515694D01*
X59825500Y-90126700D01*
X59844454Y-90031412D01*
X59898430Y-89950630D01*
X59979212Y-89896654D01*
X60074500Y-89877700D01*
X62133992Y-89877700D01*
X62261282Y-89843593D01*
X62261281Y-89843593D01*
X62261286Y-89843592D01*
X62371328Y-89780058D01*
X62463321Y-89748831D01*
X62560268Y-89755185D01*
X62647404Y-89798155D01*
X62671895Y-89819634D01*
X62883663Y-90031412D01*
X64158028Y-91305840D01*
X64171496Y-91319308D01*
X64171500Y-91319314D01*
X64223089Y-91370903D01*
X64223093Y-91370907D01*
X64264947Y-91412764D01*
X64265578Y-91413233D01*
X64271106Y-91416207D01*
X64284973Y-91424212D01*
X64320179Y-91444538D01*
X64320187Y-91444546D01*
X64320188Y-91444544D01*
X64378803Y-91478388D01*
X64378810Y-91478390D01*
X64378814Y-91478392D01*
X64419792Y-91489371D01*
X64419802Y-91489376D01*
X64419803Y-91489374D01*
X64506096Y-91512499D01*
X64506097Y-91512499D01*
X64506102Y-91512500D01*
X64506108Y-91512500D01*
X64550023Y-91512500D01*
X64550024Y-91512500D01*
X64637880Y-91512502D01*
X64637884Y-91512500D01*
X64655213Y-91512501D01*
X64655242Y-91512500D01*
X65966392Y-91512500D01*
X66093686Y-91478392D01*
X66207814Y-91412500D01*
X66446882Y-91173430D01*
X66527663Y-91119454D01*
X66622951Y-91100500D01*
X67240692Y-91100500D01*
X67240694Y-91100500D01*
X67277569Y-91097598D01*
X67435398Y-91051744D01*
X67576865Y-90968081D01*
X67693081Y-90851865D01*
X67776744Y-90710398D01*
X67822598Y-90552569D01*
X67825500Y-90515694D01*
X67825500Y-89737500D01*
X67844454Y-89642212D01*
X67898430Y-89561430D01*
X67979212Y-89507454D01*
X68074500Y-89488500D01*
X71765046Y-89488500D01*
X71860334Y-89507454D01*
G37*
%TD.AperFunction*%
%TA.AperFunction,Conductor*%
G36*
X122312919Y-93502638D02*
G01*
X122332576Y-93501866D01*
X122360116Y-93512026D01*
X122388911Y-93517754D01*
X122405269Y-93528684D01*
X122423725Y-93535493D01*
X122445278Y-93555417D01*
X122469693Y-93571730D01*
X122480624Y-93588090D01*
X122495068Y-93601442D01*
X122507357Y-93628099D01*
X122523669Y-93652512D01*
X122527507Y-93671806D01*
X122535743Y-93689672D01*
X122536895Y-93719005D01*
X122542623Y-93747800D01*
X122539557Y-93786753D01*
X122519502Y-93913378D01*
X122519500Y-93913389D01*
X122519500Y-94086611D01*
X122519500Y-94086614D01*
X122519501Y-94086621D01*
X122546597Y-94257697D01*
X122600124Y-94422437D01*
X122600126Y-94422443D01*
X122678770Y-94576792D01*
X122780581Y-94716922D01*
X122780583Y-94716924D01*
X122780586Y-94716928D01*
X122903072Y-94839414D01*
X122903075Y-94839416D01*
X122903077Y-94839418D01*
X123043207Y-94941229D01*
X123043209Y-94941230D01*
X123043212Y-94941232D01*
X123197555Y-95019873D01*
X123362299Y-95073402D01*
X123533389Y-95100500D01*
X123533393Y-95100500D01*
X123706607Y-95100500D01*
X123706611Y-95100500D01*
X123716162Y-95098987D01*
X123813240Y-95102796D01*
X123901473Y-95143466D01*
X123967425Y-95214805D01*
X124001057Y-95305954D01*
X123997248Y-95403034D01*
X123956578Y-95491267D01*
X123931195Y-95520989D01*
X116295816Y-103156370D01*
X116215034Y-103210346D01*
X116119746Y-103229300D01*
X107077954Y-103229300D01*
X106982666Y-103210346D01*
X106901884Y-103156370D01*
X106847908Y-103075588D01*
X106828954Y-102980300D01*
X106847908Y-102885012D01*
X106901884Y-102804230D01*
X114693791Y-95012322D01*
X114774573Y-94958346D01*
X114869861Y-94939392D01*
X114965149Y-94958346D01*
X115045927Y-95012319D01*
X115061658Y-95028050D01*
X115061660Y-95028051D01*
X115174696Y-95085646D01*
X115174700Y-95085647D01*
X115248462Y-95097329D01*
X115268481Y-95100500D01*
X116731518Y-95100499D01*
X116825304Y-95085646D01*
X116938342Y-95028050D01*
X117028050Y-94938342D01*
X117085646Y-94825304D01*
X117090233Y-94796346D01*
X117100498Y-94731530D01*
X117100500Y-94731519D01*
X117100499Y-93747798D01*
X117119453Y-93652512D01*
X117173429Y-93571731D01*
X117254211Y-93517754D01*
X117349499Y-93498800D01*
X122293623Y-93498800D01*
X122312919Y-93502638D01*
G37*
%TD.AperFunction*%
%TA.AperFunction,Conductor*%
G36*
X83796370Y-80855554D02*
G01*
X83877152Y-80909530D01*
X83931128Y-80990312D01*
X83950082Y-81085600D01*
X83931128Y-81180888D01*
X83877152Y-81261670D01*
X83796370Y-81315646D01*
X83753691Y-81333324D01*
X83753687Y-81333325D01*
X83638961Y-81409983D01*
X83541383Y-81507561D01*
X83464725Y-81622287D01*
X83464724Y-81622291D01*
X83411919Y-81749772D01*
X83411918Y-81749775D01*
X83385000Y-81885102D01*
X83385000Y-82023097D01*
X83411918Y-82158424D01*
X83411919Y-82158427D01*
X83464724Y-82285908D01*
X83464725Y-82285912D01*
X83541383Y-82400638D01*
X83541386Y-82400642D01*
X83638958Y-82498214D01*
X83638961Y-82498216D01*
X83753687Y-82574874D01*
X83753689Y-82574875D01*
X83881172Y-82627680D01*
X83881175Y-82627681D01*
X84014703Y-82654241D01*
X84016507Y-82654600D01*
X84154493Y-82654600D01*
X84222160Y-82641140D01*
X84289824Y-82627681D01*
X84289825Y-82627680D01*
X84289828Y-82627680D01*
X84417311Y-82574875D01*
X84532042Y-82498214D01*
X84532042Y-82498213D01*
X84534511Y-82496564D01*
X84557168Y-82487179D01*
X84577560Y-82473554D01*
X84601613Y-82468769D01*
X84624270Y-82459385D01*
X84672848Y-82454600D01*
X84731146Y-82454600D01*
X84826434Y-82473554D01*
X84907216Y-82527530D01*
X86502427Y-84122741D01*
X86556403Y-84203523D01*
X86575357Y-84298811D01*
X86556403Y-84394099D01*
X86502427Y-84474881D01*
X86464696Y-84505846D01*
X86345660Y-84585384D01*
X86248083Y-84682961D01*
X86171425Y-84797687D01*
X86171424Y-84797691D01*
X86118619Y-84925172D01*
X86118618Y-84925175D01*
X86091700Y-85060502D01*
X86091700Y-85198497D01*
X86118618Y-85333824D01*
X86118619Y-85333827D01*
X86155958Y-85423970D01*
X86162087Y-85438768D01*
X86171424Y-85461308D01*
X86171425Y-85461312D01*
X86224395Y-85540586D01*
X86248086Y-85576042D01*
X86345658Y-85673614D01*
X86345661Y-85673616D01*
X86460387Y-85750274D01*
X86460388Y-85750274D01*
X86460389Y-85750275D01*
X86587872Y-85803080D01*
X86587882Y-85803082D01*
X86599579Y-85806631D01*
X86598607Y-85809832D01*
X86666899Y-85838098D01*
X86704687Y-85869101D01*
X94141200Y-93305614D01*
X94141199Y-93305614D01*
X94234383Y-93398797D01*
X94234383Y-93398798D01*
X94234385Y-93398799D01*
X94234386Y-93398800D01*
X94348514Y-93464692D01*
X94475808Y-93498800D01*
X114190547Y-93498800D01*
X114285835Y-93517754D01*
X114366617Y-93571730D01*
X114420593Y-93652512D01*
X114439547Y-93747800D01*
X114420593Y-93843088D01*
X114366619Y-93923866D01*
X109778487Y-98511999D01*
X105560216Y-102730270D01*
X105479434Y-102784246D01*
X105384146Y-102803200D01*
X98437212Y-102803200D01*
X98341924Y-102784246D01*
X98261142Y-102730270D01*
X98207166Y-102649488D01*
X98188212Y-102554200D01*
X98200398Y-102477257D01*
X98219709Y-102417826D01*
X98250500Y-102223417D01*
X98250500Y-101776583D01*
X98219709Y-101582174D01*
X98158884Y-101394975D01*
X98069524Y-101219595D01*
X97953828Y-101060354D01*
X97814646Y-100921172D01*
X97756156Y-100878676D01*
X97655410Y-100805479D01*
X97655407Y-100805477D01*
X97655405Y-100805476D01*
X97480025Y-100716116D01*
X97480024Y-100716115D01*
X97480023Y-100716115D01*
X97480017Y-100716113D01*
X97335781Y-100669248D01*
X97292826Y-100655291D01*
X97292824Y-100655290D01*
X97292822Y-100655290D01*
X97098428Y-100624501D01*
X97098419Y-100624500D01*
X97098417Y-100624500D01*
X96901583Y-100624500D01*
X96901580Y-100624500D01*
X96901571Y-100624501D01*
X96707177Y-100655290D01*
X96519982Y-100716113D01*
X96519976Y-100716115D01*
X96344591Y-100805478D01*
X96208919Y-100904051D01*
X96120689Y-100944726D01*
X96023609Y-100948541D01*
X95932459Y-100914914D01*
X95886490Y-100878676D01*
X90313768Y-95305954D01*
X84607314Y-89599500D01*
X84493186Y-89533608D01*
X84493183Y-89533607D01*
X84493181Y-89533606D01*
X84365892Y-89499500D01*
X76024679Y-89499500D01*
X75929391Y-89480546D01*
X75848609Y-89426570D01*
X75794633Y-89345788D01*
X75785566Y-89319968D01*
X75776745Y-89289607D01*
X75776744Y-89289602D01*
X75693081Y-89148135D01*
X75576865Y-89031919D01*
X75435398Y-88948256D01*
X75277569Y-88902402D01*
X75277566Y-88902401D01*
X75277563Y-88902401D01*
X75240704Y-88899500D01*
X75240694Y-88899500D01*
X74584306Y-88899500D01*
X74584295Y-88899500D01*
X74547436Y-88902401D01*
X74547427Y-88902403D01*
X74389601Y-88948256D01*
X74338612Y-88978411D01*
X74248135Y-89031919D01*
X74176066Y-89103987D01*
X74095288Y-89157961D01*
X74000000Y-89176915D01*
X73904712Y-89157961D01*
X73823933Y-89103987D01*
X73751865Y-89031919D01*
X73610398Y-88948256D01*
X73452569Y-88902402D01*
X73452566Y-88902401D01*
X73452563Y-88902401D01*
X73415704Y-88899500D01*
X73415694Y-88899500D01*
X72797954Y-88899500D01*
X72702666Y-88880546D01*
X72621885Y-88826570D01*
X72382815Y-88587501D01*
X72382816Y-88587501D01*
X72362203Y-88575600D01*
X72268686Y-88521608D01*
X72268683Y-88521607D01*
X72268681Y-88521606D01*
X72141392Y-88487500D01*
X66849000Y-88487500D01*
X66753712Y-88468546D01*
X66672930Y-88414570D01*
X66618954Y-88333788D01*
X66600000Y-88238500D01*
X66600000Y-84275308D01*
X66594587Y-84255109D01*
X66594585Y-84255101D01*
X66565892Y-84148013D01*
X66532946Y-84090950D01*
X66500000Y-84033886D01*
X64428724Y-81962610D01*
X64374748Y-81881828D01*
X64360578Y-81835117D01*
X64360000Y-81832211D01*
X64360000Y-81832207D01*
X64333080Y-81696872D01*
X64280275Y-81569389D01*
X64203614Y-81454658D01*
X64106042Y-81357086D01*
X64087783Y-81344886D01*
X64009586Y-81292636D01*
X63940887Y-81223937D01*
X63903707Y-81134177D01*
X63903708Y-81037022D01*
X63940887Y-80947263D01*
X64009586Y-80878564D01*
X64099346Y-80841384D01*
X64147923Y-80836600D01*
X83701082Y-80836600D01*
X83796370Y-80855554D01*
G37*
%TD.AperFunction*%
%TA.AperFunction,Conductor*%
G36*
X63266365Y-80855554D02*
G01*
X63347147Y-80909530D01*
X63401123Y-80990312D01*
X63420077Y-81085600D01*
X63401123Y-81180888D01*
X63347147Y-81261670D01*
X63309414Y-81292636D01*
X63212961Y-81357083D01*
X63115383Y-81454661D01*
X63038725Y-81569387D01*
X63038724Y-81569391D01*
X62985919Y-81696872D01*
X62985918Y-81696875D01*
X62959000Y-81832202D01*
X62959000Y-81970197D01*
X62985918Y-82105524D01*
X62985919Y-82105527D01*
X63038724Y-82233008D01*
X63038725Y-82233012D01*
X63074072Y-82285912D01*
X63115386Y-82347742D01*
X63212958Y-82445314D01*
X63212961Y-82445316D01*
X63327687Y-82521974D01*
X63327689Y-82521975D01*
X63426290Y-82562816D01*
X63455169Y-82574779D01*
X63455170Y-82574779D01*
X63455172Y-82574780D01*
X63590507Y-82601700D01*
X63590511Y-82601700D01*
X63593417Y-82602278D01*
X63683177Y-82639458D01*
X63720910Y-82670424D01*
X65526070Y-84475584D01*
X65580046Y-84556366D01*
X65599000Y-84651654D01*
X65599000Y-88650500D01*
X65580046Y-88745788D01*
X65526070Y-88826570D01*
X65445288Y-88880546D01*
X65350000Y-88899500D01*
X64759295Y-88899500D01*
X64722436Y-88902401D01*
X64722427Y-88902403D01*
X64564601Y-88948256D01*
X64423135Y-89031919D01*
X64306919Y-89148135D01*
X64223256Y-89289601D01*
X64223254Y-89289607D01*
X64190836Y-89401187D01*
X64184465Y-89413450D01*
X64181768Y-89427010D01*
X64162245Y-89456225D01*
X64146050Y-89487403D01*
X64135468Y-89496297D01*
X64127789Y-89507790D01*
X64098576Y-89527308D01*
X64071678Y-89549918D01*
X64058496Y-89554086D01*
X64047006Y-89561764D01*
X64012550Y-89568616D01*
X63979045Y-89579213D01*
X63965273Y-89578019D01*
X63951718Y-89580716D01*
X63917255Y-89573860D01*
X63882253Y-89570828D01*
X63869989Y-89564457D01*
X63856430Y-89561760D01*
X63827214Y-89542237D01*
X63796037Y-89526042D01*
X63775650Y-89507781D01*
X63767369Y-89499500D01*
X63613665Y-89345788D01*
X63486393Y-89218509D01*
X63432419Y-89137726D01*
X63413467Y-89042438D01*
X63417763Y-89020842D01*
X63432421Y-88947156D01*
X63448654Y-88907966D01*
X63472280Y-88850928D01*
X63499200Y-88715593D01*
X63499200Y-88577607D01*
X63485694Y-88509706D01*
X63472281Y-88442275D01*
X63472280Y-88442272D01*
X63455876Y-88402670D01*
X63419475Y-88314789D01*
X63342814Y-88200058D01*
X63245242Y-88102486D01*
X63167485Y-88050530D01*
X63130512Y-88025825D01*
X63130509Y-88025824D01*
X63093170Y-88010358D01*
X63003027Y-87973019D01*
X63003024Y-87973018D01*
X62867697Y-87946100D01*
X62867693Y-87946100D01*
X62729707Y-87946100D01*
X62729702Y-87946100D01*
X62594375Y-87973018D01*
X62594372Y-87973019D01*
X62466891Y-88025824D01*
X62466887Y-88025825D01*
X62352161Y-88102483D01*
X62254583Y-88200061D01*
X62177925Y-88314787D01*
X62177924Y-88314791D01*
X62125119Y-88442272D01*
X62125119Y-88442274D01*
X62097620Y-88580519D01*
X62088236Y-88603172D01*
X62083452Y-88627227D01*
X62069824Y-88647622D01*
X62060440Y-88670278D01*
X62029476Y-88708009D01*
X61933717Y-88803769D01*
X61852935Y-88857746D01*
X61757647Y-88876700D01*
X59469405Y-88876700D01*
X59388698Y-88898325D01*
X59291751Y-88904679D01*
X59279530Y-88902760D01*
X59277567Y-88902401D01*
X59240704Y-88899500D01*
X59240694Y-88899500D01*
X58622952Y-88899500D01*
X58527664Y-88880546D01*
X58446885Y-88826572D01*
X58195914Y-88575600D01*
X58081786Y-88509708D01*
X58081783Y-88509707D01*
X58081781Y-88509706D01*
X57954492Y-88475600D01*
X52002292Y-88475600D01*
X51920854Y-88475600D01*
X51825566Y-88456646D01*
X51744784Y-88402670D01*
X51690808Y-88321888D01*
X51671854Y-88226600D01*
X51690808Y-88131312D01*
X51744784Y-88050530D01*
X58885784Y-80909530D01*
X58966566Y-80855554D01*
X59061854Y-80836600D01*
X63171077Y-80836600D01*
X63266365Y-80855554D01*
G37*
%TD.AperFunction*%
%TA.AperFunction,Conductor*%
G36*
X132473632Y-77498138D02*
G01*
X132493289Y-77497366D01*
X132520830Y-77507526D01*
X132549624Y-77513254D01*
X132565981Y-77524183D01*
X132584439Y-77530993D01*
X132605995Y-77550919D01*
X132630406Y-77567230D01*
X132641336Y-77583588D01*
X132655782Y-77596942D01*
X132668072Y-77623602D01*
X132684382Y-77648012D01*
X132688220Y-77667307D01*
X132696456Y-77685173D01*
X132697608Y-77714505D01*
X132703336Y-77743300D01*
X132700270Y-77782253D01*
X132679501Y-77913380D01*
X132679500Y-77913393D01*
X132679500Y-78086606D01*
X132679501Y-78086622D01*
X132701501Y-78225525D01*
X132697687Y-78322605D01*
X132657012Y-78410836D01*
X132631637Y-78440547D01*
X128237616Y-82834570D01*
X128156834Y-82888546D01*
X128061546Y-82907500D01*
X99613608Y-82907500D01*
X99486318Y-82941606D01*
X99486314Y-82941607D01*
X99486314Y-82941608D01*
X99372186Y-83007500D01*
X93553115Y-88826570D01*
X93472333Y-88880546D01*
X93377045Y-88899500D01*
X92797954Y-88899500D01*
X92702666Y-88880546D01*
X92621884Y-88826570D01*
X88993807Y-85198493D01*
X85348914Y-81553600D01*
X85234786Y-81487708D01*
X85234783Y-81487707D01*
X85234781Y-81487706D01*
X85107492Y-81453600D01*
X84672848Y-81453600D01*
X84655912Y-81450231D01*
X84638677Y-81451244D01*
X84614184Y-81441931D01*
X84577560Y-81434646D01*
X84546892Y-81419393D01*
X84533731Y-81411675D01*
X84532042Y-81409986D01*
X84417311Y-81333325D01*
X84358770Y-81309076D01*
X84343962Y-81300393D01*
X84320241Y-81279304D01*
X84293849Y-81261670D01*
X84284255Y-81247312D01*
X84271352Y-81235841D01*
X84257506Y-81207280D01*
X84239872Y-81180888D01*
X84236503Y-81163953D01*
X84228972Y-81148417D01*
X84227110Y-81116731D01*
X84220918Y-81085600D01*
X84224286Y-81068664D01*
X84223274Y-81051429D01*
X84233679Y-81021443D01*
X84239872Y-80990312D01*
X84249464Y-80975955D01*
X84255125Y-80959644D01*
X84276213Y-80935923D01*
X84293848Y-80909531D01*
X84308205Y-80899937D01*
X84319677Y-80887034D01*
X84348237Y-80873188D01*
X84374630Y-80855554D01*
X84391564Y-80852185D01*
X84407101Y-80844654D01*
X84438786Y-80842792D01*
X84469918Y-80836600D01*
X126429792Y-80836600D01*
X126557086Y-80802492D01*
X126671214Y-80736600D01*
X128259449Y-79148362D01*
X128340231Y-79094386D01*
X128435519Y-79075432D01*
X128474471Y-79078498D01*
X128563117Y-79092537D01*
X128613389Y-79100500D01*
X128613393Y-79100500D01*
X128786607Y-79100500D01*
X128786611Y-79100500D01*
X128957701Y-79073402D01*
X129122445Y-79019873D01*
X129276788Y-78941232D01*
X129416928Y-78839414D01*
X129539414Y-78716928D01*
X129641232Y-78576788D01*
X129719873Y-78422445D01*
X129773402Y-78257701D01*
X129800500Y-78086611D01*
X129800500Y-77913389D01*
X129779730Y-77782252D01*
X129783544Y-77685173D01*
X129824218Y-77596942D01*
X129895561Y-77530993D01*
X129986711Y-77497366D01*
X130025664Y-77494300D01*
X132454336Y-77494300D01*
X132473632Y-77498138D01*
G37*
%TD.AperFunction*%
%TA.AperFunction,Conductor*%
G36*
X140001934Y-77513254D02*
G01*
X140082716Y-77567230D01*
X140339916Y-77824430D01*
X140393892Y-77905212D01*
X140412846Y-78000500D01*
X140393892Y-78095788D01*
X140339916Y-78176570D01*
X140259134Y-78230546D01*
X140163846Y-78249500D01*
X137705308Y-78249500D01*
X137578018Y-78283606D01*
X137578014Y-78283607D01*
X137578014Y-78283608D01*
X137510466Y-78322607D01*
X137463886Y-78349500D01*
X132522416Y-83290970D01*
X132441634Y-83344946D01*
X132346346Y-83363900D01*
X129725054Y-83363900D01*
X129629766Y-83344946D01*
X129548984Y-83290970D01*
X129495008Y-83210188D01*
X129476054Y-83114900D01*
X129495008Y-83019612D01*
X129548984Y-82938830D01*
X130464721Y-82023093D01*
X133339453Y-79148359D01*
X133420232Y-79094386D01*
X133515520Y-79075432D01*
X133554473Y-79078498D01*
X133581354Y-79082755D01*
X133693389Y-79100500D01*
X133693393Y-79100500D01*
X133866607Y-79100500D01*
X133866611Y-79100500D01*
X134037701Y-79073402D01*
X134202445Y-79019873D01*
X134356788Y-78941232D01*
X134496928Y-78839414D01*
X134619414Y-78716928D01*
X134721232Y-78576788D01*
X134799873Y-78422445D01*
X134853402Y-78257701D01*
X134880500Y-78086611D01*
X134880500Y-77913389D01*
X134859730Y-77782252D01*
X134863544Y-77685173D01*
X134904218Y-77596942D01*
X134975561Y-77530993D01*
X135066711Y-77497366D01*
X135105664Y-77494300D01*
X139906646Y-77494300D01*
X140001934Y-77513254D01*
G37*
%TD.AperFunction*%
%TA.AperFunction,Conductor*%
G36*
X122389624Y-77513254D02*
G01*
X122470406Y-77567230D01*
X122524382Y-77648012D01*
X122543336Y-77743300D01*
X122540270Y-77782253D01*
X122519501Y-77913380D01*
X122519500Y-77913393D01*
X122519500Y-78086606D01*
X122519501Y-78086621D01*
X122546597Y-78257697D01*
X122600124Y-78422437D01*
X122600126Y-78422443D01*
X122678770Y-78576792D01*
X122780581Y-78716922D01*
X122780583Y-78716924D01*
X122780586Y-78716928D01*
X122903072Y-78839414D01*
X122903075Y-78839416D01*
X122903077Y-78839418D01*
X123043207Y-78941229D01*
X123043209Y-78941230D01*
X123043212Y-78941232D01*
X123197555Y-79019873D01*
X123362299Y-79073402D01*
X123533389Y-79100500D01*
X123533393Y-79100500D01*
X123706607Y-79100500D01*
X123706611Y-79100500D01*
X123877701Y-79073402D01*
X124042445Y-79019873D01*
X124196788Y-78941232D01*
X124336928Y-78839414D01*
X124459414Y-78716928D01*
X124561232Y-78576788D01*
X124639873Y-78422445D01*
X124693402Y-78257701D01*
X124720500Y-78086611D01*
X124720500Y-77913389D01*
X124699730Y-77782252D01*
X124703544Y-77685173D01*
X124744218Y-77596942D01*
X124815561Y-77530993D01*
X124906711Y-77497366D01*
X124945664Y-77494300D01*
X127374336Y-77494300D01*
X127469624Y-77513254D01*
X127550406Y-77567230D01*
X127604382Y-77648012D01*
X127623336Y-77743300D01*
X127620270Y-77782253D01*
X127599501Y-77913380D01*
X127599500Y-77913393D01*
X127599500Y-78086611D01*
X127621502Y-78225527D01*
X127617687Y-78322607D01*
X127577012Y-78410837D01*
X127551637Y-78440548D01*
X126229516Y-79762670D01*
X126148734Y-79816646D01*
X126053446Y-79835600D01*
X120039553Y-79835600D01*
X119944265Y-79816646D01*
X119863483Y-79762670D01*
X119809507Y-79681888D01*
X119790553Y-79586600D01*
X119809507Y-79491312D01*
X119863483Y-79410530D01*
X119871811Y-79402201D01*
X119871814Y-79402200D01*
X121706784Y-77567230D01*
X121787566Y-77513254D01*
X121882854Y-77494300D01*
X122294336Y-77494300D01*
X122389624Y-77513254D01*
G37*
%TD.AperFunction*%
%TA.AperFunction,Conductor*%
G36*
X96840734Y-51487854D02*
G01*
X96921516Y-51541830D01*
X97101570Y-51721884D01*
X97155546Y-51802666D01*
X97174500Y-51897954D01*
X97174500Y-52515704D01*
X97177401Y-52552563D01*
X97177401Y-52552566D01*
X97177402Y-52552569D01*
X97223256Y-52710398D01*
X97306919Y-52851865D01*
X97423135Y-52968081D01*
X97564602Y-53051744D01*
X97722431Y-53097598D01*
X97759306Y-53100500D01*
X97759308Y-53100500D01*
X98415692Y-53100500D01*
X98415694Y-53100500D01*
X98452569Y-53097598D01*
X98610398Y-53051744D01*
X98751865Y-52968081D01*
X98823933Y-52896012D01*
X98904712Y-52842039D01*
X99000000Y-52823085D01*
X99095288Y-52842039D01*
X99176066Y-52896012D01*
X99248135Y-52968081D01*
X99389602Y-53051744D01*
X99547431Y-53097598D01*
X99584306Y-53100500D01*
X99584308Y-53100500D01*
X100240692Y-53100500D01*
X100240694Y-53100500D01*
X100277569Y-53097598D01*
X100435398Y-53051744D01*
X100576865Y-52968081D01*
X100693081Y-52851865D01*
X100776744Y-52710398D01*
X100785566Y-52680031D01*
X100830351Y-52593815D01*
X100904722Y-52531300D01*
X100997355Y-52502004D01*
X101024679Y-52500500D01*
X110255746Y-52500500D01*
X110351034Y-52519454D01*
X110431816Y-52573430D01*
X124355700Y-66497314D01*
X124355699Y-66497314D01*
X124429199Y-66570813D01*
X124448886Y-66590500D01*
X124448887Y-66590501D01*
X124448889Y-66590502D01*
X124533933Y-66639602D01*
X124533934Y-66639603D01*
X124563011Y-66656391D01*
X124563013Y-66656391D01*
X124563014Y-66656392D01*
X124690307Y-66690500D01*
X124690308Y-66690500D01*
X137879546Y-66690500D01*
X137974834Y-66709454D01*
X138055616Y-66763430D01*
X140551570Y-69259384D01*
X140605546Y-69340166D01*
X140624500Y-69435454D01*
X140624500Y-70665704D01*
X140627401Y-70702563D01*
X140627401Y-70702566D01*
X140627402Y-70702569D01*
X140673256Y-70860398D01*
X140756919Y-71001865D01*
X140873135Y-71118081D01*
X140983476Y-71183336D01*
X141055847Y-71248156D01*
X141097902Y-71335737D01*
X141103241Y-71432746D01*
X141071050Y-71524412D01*
X141032795Y-71573730D01*
X140921172Y-71685353D01*
X140805479Y-71844589D01*
X140805479Y-71844590D01*
X140716115Y-72019976D01*
X140716113Y-72019982D01*
X140655290Y-72207177D01*
X140624501Y-72401571D01*
X140624500Y-72401587D01*
X140624500Y-72598412D01*
X140624501Y-72598428D01*
X140655290Y-72792822D01*
X140655291Y-72792826D01*
X140681318Y-72872928D01*
X140699531Y-72928984D01*
X140716116Y-72980025D01*
X140805476Y-73155405D01*
X140805479Y-73155409D01*
X140805479Y-73155410D01*
X140893570Y-73276655D01*
X140921172Y-73314646D01*
X141060354Y-73453828D01*
X141219595Y-73569524D01*
X141394975Y-73658884D01*
X141582174Y-73719709D01*
X141776583Y-73750500D01*
X141776587Y-73750500D01*
X142223413Y-73750500D01*
X142223417Y-73750500D01*
X142417826Y-73719709D01*
X142605025Y-73658884D01*
X142780405Y-73569524D01*
X142841142Y-73525395D01*
X142929369Y-73484722D01*
X143026450Y-73480906D01*
X143117600Y-73514532D01*
X143188944Y-73580480D01*
X143229619Y-73668710D01*
X143236500Y-73726841D01*
X143236500Y-76273158D01*
X143217546Y-76368446D01*
X143163570Y-76449228D01*
X143082788Y-76503204D01*
X142987500Y-76522158D01*
X142892212Y-76503204D01*
X142841141Y-76474603D01*
X142780409Y-76430478D01*
X142605023Y-76341115D01*
X142605017Y-76341113D01*
X142497928Y-76306318D01*
X142417826Y-76280291D01*
X142417824Y-76280290D01*
X142417822Y-76280290D01*
X142223428Y-76249501D01*
X142223419Y-76249500D01*
X142223417Y-76249500D01*
X141776583Y-76249500D01*
X141776580Y-76249500D01*
X141776571Y-76249501D01*
X141582177Y-76280290D01*
X141394982Y-76341113D01*
X141394976Y-76341115D01*
X141303740Y-76387602D01*
X141219595Y-76430476D01*
X141219592Y-76430477D01*
X141219590Y-76430479D01*
X141219589Y-76430479D01*
X141060353Y-76546172D01*
X140944889Y-76661636D01*
X140864107Y-76715612D01*
X140768819Y-76734566D01*
X140673531Y-76715612D01*
X140592752Y-76661637D01*
X140524416Y-76593302D01*
X140524414Y-76593300D01*
X140410286Y-76527408D01*
X140410283Y-76527407D01*
X140410281Y-76527406D01*
X140282992Y-76493300D01*
X121638292Y-76493300D01*
X121506507Y-76493300D01*
X121379217Y-76527407D01*
X121379216Y-76527407D01*
X121379214Y-76527408D01*
X121284995Y-76581805D01*
X121265084Y-76593301D01*
X119430116Y-78428270D01*
X119349334Y-78482246D01*
X119254046Y-78501200D01*
X117349500Y-78501200D01*
X117254212Y-78482246D01*
X117173430Y-78428270D01*
X117119454Y-78347488D01*
X117100500Y-78252200D01*
X117100499Y-77268484D01*
X117095459Y-77236661D01*
X117085646Y-77174696D01*
X117028050Y-77061658D01*
X116938342Y-76971950D01*
X116938339Y-76971948D01*
X116825303Y-76914353D01*
X116825299Y-76914352D01*
X116731530Y-76899501D01*
X116731521Y-76899500D01*
X116731519Y-76899500D01*
X116731515Y-76899500D01*
X116664646Y-76899500D01*
X116569358Y-76880546D01*
X116488576Y-76826570D01*
X116449006Y-76775000D01*
X116400502Y-76690989D01*
X116400501Y-76690988D01*
X116400500Y-76690986D01*
X116307314Y-76597800D01*
X116193186Y-76531908D01*
X116193183Y-76531907D01*
X116193181Y-76531906D01*
X116065892Y-76497800D01*
X115658754Y-76497800D01*
X115563466Y-76478846D01*
X115482684Y-76424870D01*
X109351207Y-70293393D01*
X122519500Y-70293393D01*
X122519500Y-70466606D01*
X122519501Y-70466621D01*
X122546597Y-70637697D01*
X122600124Y-70802437D01*
X122600126Y-70802443D01*
X122678770Y-70956792D01*
X122780581Y-71096922D01*
X122780583Y-71096924D01*
X122780586Y-71096928D01*
X122903072Y-71219414D01*
X122903075Y-71219416D01*
X122903077Y-71219418D01*
X123043207Y-71321229D01*
X123043209Y-71321230D01*
X123043212Y-71321232D01*
X123197555Y-71399873D01*
X123362299Y-71453402D01*
X123533389Y-71480500D01*
X123533393Y-71480500D01*
X123706607Y-71480500D01*
X123706611Y-71480500D01*
X123877701Y-71453402D01*
X124042445Y-71399873D01*
X124196788Y-71321232D01*
X124336928Y-71219414D01*
X124459414Y-71096928D01*
X124561232Y-70956788D01*
X124639873Y-70802445D01*
X124693402Y-70637701D01*
X124720500Y-70466611D01*
X124720500Y-70293393D01*
X127599500Y-70293393D01*
X127599500Y-70466606D01*
X127599501Y-70466621D01*
X127626597Y-70637697D01*
X127680124Y-70802437D01*
X127680126Y-70802443D01*
X127758770Y-70956792D01*
X127860581Y-71096922D01*
X127860583Y-71096924D01*
X127860586Y-71096928D01*
X127983072Y-71219414D01*
X127983075Y-71219416D01*
X127983077Y-71219418D01*
X128123207Y-71321229D01*
X128123209Y-71321230D01*
X128123212Y-71321232D01*
X128277555Y-71399873D01*
X128442299Y-71453402D01*
X128613389Y-71480500D01*
X128613393Y-71480500D01*
X128786607Y-71480500D01*
X128786611Y-71480500D01*
X128957701Y-71453402D01*
X129122445Y-71399873D01*
X129276788Y-71321232D01*
X129416928Y-71219414D01*
X129539414Y-71096928D01*
X129641232Y-70956788D01*
X129719873Y-70802445D01*
X129773402Y-70637701D01*
X129800500Y-70466611D01*
X129800500Y-70293393D01*
X132679500Y-70293393D01*
X132679500Y-70466606D01*
X132679501Y-70466621D01*
X132706597Y-70637697D01*
X132760124Y-70802437D01*
X132760126Y-70802443D01*
X132838770Y-70956792D01*
X132940581Y-71096922D01*
X132940583Y-71096924D01*
X132940586Y-71096928D01*
X133063072Y-71219414D01*
X133063075Y-71219416D01*
X133063077Y-71219418D01*
X133203207Y-71321229D01*
X133203209Y-71321230D01*
X133203212Y-71321232D01*
X133357555Y-71399873D01*
X133522299Y-71453402D01*
X133693389Y-71480500D01*
X133693393Y-71480500D01*
X133866607Y-71480500D01*
X133866611Y-71480500D01*
X134037701Y-71453402D01*
X134202445Y-71399873D01*
X134356788Y-71321232D01*
X134496928Y-71219414D01*
X134619414Y-71096928D01*
X134721232Y-70956788D01*
X134799873Y-70802445D01*
X134853402Y-70637701D01*
X134880500Y-70466611D01*
X134880500Y-70293389D01*
X134853402Y-70122299D01*
X134799873Y-69957555D01*
X134721232Y-69803212D01*
X134721230Y-69803209D01*
X134721229Y-69803207D01*
X134619418Y-69663077D01*
X134619416Y-69663075D01*
X134619414Y-69663072D01*
X134496928Y-69540586D01*
X134496924Y-69540583D01*
X134496922Y-69540581D01*
X134356792Y-69438770D01*
X134202443Y-69360126D01*
X134202437Y-69360124D01*
X134078849Y-69319968D01*
X134037701Y-69306598D01*
X134037699Y-69306597D01*
X134037697Y-69306597D01*
X133866621Y-69279501D01*
X133866614Y-69279500D01*
X133866611Y-69279500D01*
X133693389Y-69279500D01*
X133693386Y-69279500D01*
X133693378Y-69279501D01*
X133522302Y-69306597D01*
X133357562Y-69360124D01*
X133357556Y-69360126D01*
X133203207Y-69438770D01*
X133063077Y-69540581D01*
X132940581Y-69663077D01*
X132838770Y-69803207D01*
X132760126Y-69957556D01*
X132760124Y-69957562D01*
X132706597Y-70122302D01*
X132679501Y-70293378D01*
X132679500Y-70293393D01*
X129800500Y-70293393D01*
X129800500Y-70293389D01*
X129773402Y-70122299D01*
X129719873Y-69957555D01*
X129641232Y-69803212D01*
X129641230Y-69803209D01*
X129641229Y-69803207D01*
X129539418Y-69663077D01*
X129539416Y-69663075D01*
X129539414Y-69663072D01*
X129416928Y-69540586D01*
X129416924Y-69540583D01*
X129416922Y-69540581D01*
X129276792Y-69438770D01*
X129122443Y-69360126D01*
X129122437Y-69360124D01*
X128998849Y-69319968D01*
X128957701Y-69306598D01*
X128957699Y-69306597D01*
X128957697Y-69306597D01*
X128786621Y-69279501D01*
X128786614Y-69279500D01*
X128786611Y-69279500D01*
X128613389Y-69279500D01*
X128613386Y-69279500D01*
X128613378Y-69279501D01*
X128442302Y-69306597D01*
X128277562Y-69360124D01*
X128277556Y-69360126D01*
X128123207Y-69438770D01*
X127983077Y-69540581D01*
X127860581Y-69663077D01*
X127758770Y-69803207D01*
X127680126Y-69957556D01*
X127680124Y-69957562D01*
X127626597Y-70122302D01*
X127599501Y-70293378D01*
X127599500Y-70293393D01*
X124720500Y-70293393D01*
X124720500Y-70293389D01*
X124693402Y-70122299D01*
X124639873Y-69957555D01*
X124561232Y-69803212D01*
X124561230Y-69803209D01*
X124561229Y-69803207D01*
X124459418Y-69663077D01*
X124459416Y-69663075D01*
X124459414Y-69663072D01*
X124336928Y-69540586D01*
X124336924Y-69540583D01*
X124336922Y-69540581D01*
X124196792Y-69438770D01*
X124042443Y-69360126D01*
X124042437Y-69360124D01*
X123918849Y-69319968D01*
X123877701Y-69306598D01*
X123877699Y-69306597D01*
X123877697Y-69306597D01*
X123706621Y-69279501D01*
X123706614Y-69279500D01*
X123706611Y-69279500D01*
X123533389Y-69279500D01*
X123533386Y-69279500D01*
X123533378Y-69279501D01*
X123362302Y-69306597D01*
X123197562Y-69360124D01*
X123197556Y-69360126D01*
X123043207Y-69438770D01*
X122903077Y-69540581D01*
X122780581Y-69663077D01*
X122678770Y-69803207D01*
X122600126Y-69957556D01*
X122600124Y-69957562D01*
X122546597Y-70122302D01*
X122519501Y-70293378D01*
X122519500Y-70293393D01*
X109351207Y-70293393D01*
X103273429Y-64215615D01*
X103219453Y-64134833D01*
X103200499Y-64039545D01*
X103200499Y-63561848D01*
X103200499Y-63561838D01*
X103200498Y-63561828D01*
X109499500Y-63561828D01*
X109499500Y-64438152D01*
X109499501Y-64438166D01*
X109502290Y-64473622D01*
X109502292Y-64473632D01*
X109546380Y-64625386D01*
X109546380Y-64625387D01*
X109625695Y-64759500D01*
X109626830Y-64761420D01*
X109738580Y-64873170D01*
X109874610Y-64953618D01*
X109874612Y-64953618D01*
X109874613Y-64953619D01*
X109961937Y-64978988D01*
X110026373Y-64997709D01*
X110061837Y-65000500D01*
X110638162Y-65000499D01*
X110673627Y-64997709D01*
X110825390Y-64953618D01*
X110961420Y-64873170D01*
X111073170Y-64761420D01*
X111153618Y-64625390D01*
X111197709Y-64473627D01*
X111200500Y-64438163D01*
X111200499Y-63960453D01*
X111219453Y-63865165D01*
X111273429Y-63784384D01*
X111273430Y-63784383D01*
X112484385Y-62573430D01*
X112565166Y-62519454D01*
X112660454Y-62500500D01*
X114651146Y-62500500D01*
X114746434Y-62519454D01*
X114827216Y-62573430D01*
X114881192Y-62654212D01*
X114897452Y-62721937D01*
X114897971Y-62721855D01*
X114899014Y-62728444D01*
X114899378Y-62729958D01*
X114899500Y-62731510D01*
X114899501Y-62731514D01*
X114899501Y-62731518D01*
X114914354Y-62825304D01*
X114971950Y-62938342D01*
X115061658Y-63028050D01*
X115097636Y-63046382D01*
X115174696Y-63085646D01*
X115174700Y-63085647D01*
X115248462Y-63097329D01*
X115268481Y-63100500D01*
X116731518Y-63100499D01*
X116825304Y-63085646D01*
X116938342Y-63028050D01*
X117028050Y-62938342D01*
X117085646Y-62825304D01*
X117100500Y-62731519D01*
X117100499Y-61268482D01*
X117085646Y-61174696D01*
X117028050Y-61061658D01*
X116938342Y-60971950D01*
X116938339Y-60971948D01*
X116825303Y-60914353D01*
X116825299Y-60914352D01*
X116731530Y-60899501D01*
X116731522Y-60899500D01*
X116731519Y-60899500D01*
X116731514Y-60899500D01*
X115268484Y-60899500D01*
X115174695Y-60914354D01*
X115061659Y-60971949D01*
X114971948Y-61061660D01*
X114914353Y-61174696D01*
X114914352Y-61174700D01*
X114899499Y-61268480D01*
X114899377Y-61270037D01*
X114899094Y-61271039D01*
X114897969Y-61278144D01*
X114897128Y-61278010D01*
X114873005Y-61363544D01*
X114812857Y-61439842D01*
X114728089Y-61487313D01*
X114651145Y-61499500D01*
X112284107Y-61499500D01*
X112156817Y-61533607D01*
X112156816Y-61533607D01*
X112156814Y-61533608D01*
X112080696Y-61577555D01*
X112042684Y-61599501D01*
X110715613Y-62926570D01*
X110634832Y-62980546D01*
X110539545Y-62999500D01*
X110061847Y-62999500D01*
X110061833Y-62999501D01*
X110026377Y-63002290D01*
X110026367Y-63002292D01*
X109874613Y-63046380D01*
X109874612Y-63046380D01*
X109738582Y-63126828D01*
X109626828Y-63238582D01*
X109546380Y-63374612D01*
X109546380Y-63374614D01*
X109502293Y-63526363D01*
X109502290Y-63526377D01*
X109499500Y-63561828D01*
X103200498Y-63561828D01*
X103197709Y-63526373D01*
X103153618Y-63374610D01*
X103073170Y-63238580D01*
X102961420Y-63126830D01*
X102927593Y-63106825D01*
X102871078Y-63073402D01*
X102825390Y-63046382D01*
X102825388Y-63046381D01*
X102825386Y-63046380D01*
X102673636Y-63002293D01*
X102673622Y-63002290D01*
X102638166Y-62999500D01*
X102061847Y-62999500D01*
X102061833Y-62999501D01*
X102026377Y-63002290D01*
X102026367Y-63002292D01*
X101874613Y-63046380D01*
X101874612Y-63046380D01*
X101738582Y-63126828D01*
X101626828Y-63238582D01*
X101546380Y-63374612D01*
X101546380Y-63374614D01*
X101502293Y-63526363D01*
X101502290Y-63526377D01*
X101499500Y-63561828D01*
X101499500Y-64438152D01*
X101499501Y-64438166D01*
X101502290Y-64473622D01*
X101502292Y-64473632D01*
X101546380Y-64625386D01*
X101546380Y-64625387D01*
X101625695Y-64759500D01*
X101626830Y-64761420D01*
X101738580Y-64873170D01*
X101874610Y-64953618D01*
X101874612Y-64953618D01*
X101874613Y-64953619D01*
X101961937Y-64978988D01*
X102026373Y-64997709D01*
X102061837Y-65000500D01*
X102539544Y-65000499D01*
X102634833Y-65019453D01*
X102715614Y-65073429D01*
X102715615Y-65073429D01*
X114826570Y-77184384D01*
X114880546Y-77265166D01*
X114899500Y-77360454D01*
X114899500Y-77872814D01*
X114899501Y-78252200D01*
X114880547Y-78347488D01*
X114826571Y-78428269D01*
X114745789Y-78482246D01*
X114650501Y-78501200D01*
X109224653Y-78501200D01*
X109129365Y-78482246D01*
X109048583Y-78428270D01*
X100898430Y-70278116D01*
X100844454Y-70197334D01*
X100825500Y-70102046D01*
X100825500Y-69484308D01*
X100825499Y-69484295D01*
X100822598Y-69447436D01*
X100822598Y-69447431D01*
X100776744Y-69289602D01*
X100693081Y-69148135D01*
X100576865Y-69031919D01*
X100435398Y-68948256D01*
X100277569Y-68902402D01*
X100277566Y-68902401D01*
X100277563Y-68902401D01*
X100240704Y-68899500D01*
X100240694Y-68899500D01*
X99584306Y-68899500D01*
X99584295Y-68899500D01*
X99547436Y-68902401D01*
X99547427Y-68902403D01*
X99389601Y-68948256D01*
X99267181Y-69020655D01*
X99248135Y-69031919D01*
X99176066Y-69103987D01*
X99095288Y-69157961D01*
X99000000Y-69176915D01*
X98904712Y-69157961D01*
X98823933Y-69103987D01*
X98751865Y-69031919D01*
X98610398Y-68948256D01*
X98452569Y-68902402D01*
X98452566Y-68902401D01*
X98452563Y-68902401D01*
X98415704Y-68899500D01*
X98415694Y-68899500D01*
X97759306Y-68899500D01*
X97759295Y-68899500D01*
X97722436Y-68902401D01*
X97722427Y-68902403D01*
X97564601Y-68948256D01*
X97423135Y-69031919D01*
X97306919Y-69148135D01*
X97223256Y-69289601D01*
X97223256Y-69289602D01*
X97218319Y-69306597D01*
X97214434Y-69319968D01*
X97169649Y-69406185D01*
X97095278Y-69468700D01*
X97002645Y-69497996D01*
X96975321Y-69499500D01*
X94502200Y-69499500D01*
X94406912Y-69480546D01*
X94326130Y-69426570D01*
X94272154Y-69345788D01*
X94253200Y-69250500D01*
X94253200Y-67221307D01*
X94219093Y-67094018D01*
X94219092Y-67094014D01*
X94153200Y-66979886D01*
X94153199Y-66979885D01*
X94153198Y-66979883D01*
X94060014Y-66886699D01*
X94060014Y-66886700D01*
X82962814Y-55789500D01*
X82848686Y-55723608D01*
X82848683Y-55723607D01*
X82848681Y-55723606D01*
X82721392Y-55689500D01*
X76107801Y-55689500D01*
X76012513Y-55670546D01*
X75931731Y-55616570D01*
X75877755Y-55535788D01*
X75858801Y-55440500D01*
X75876706Y-55347786D01*
X75886578Y-55323177D01*
X75887014Y-55322742D01*
X75963675Y-55208011D01*
X76016480Y-55080528D01*
X76043400Y-54945193D01*
X76043400Y-54932290D01*
X76057099Y-54898145D01*
X76071246Y-54876451D01*
X76081158Y-54852523D01*
X76108883Y-54818739D01*
X76110170Y-54816766D01*
X76110928Y-54816246D01*
X76112125Y-54814789D01*
X76631385Y-54295530D01*
X76712166Y-54241554D01*
X76807454Y-54222600D01*
X81292478Y-54222600D01*
X81387766Y-54241554D01*
X81468548Y-54295530D01*
X81522524Y-54376312D01*
X81536691Y-54423016D01*
X81545363Y-54466606D01*
X81557620Y-54528230D01*
X81585226Y-54594875D01*
X81610300Y-54655410D01*
X81610424Y-54655708D01*
X81610425Y-54655712D01*
X81679232Y-54758688D01*
X81687086Y-54770442D01*
X81784658Y-54868014D01*
X81784661Y-54868016D01*
X81899387Y-54944674D01*
X81899389Y-54944675D01*
X82015663Y-54992837D01*
X82026872Y-54997480D01*
X82026875Y-54997481D01*
X82160403Y-55024041D01*
X82162207Y-55024400D01*
X82300193Y-55024400D01*
X82367860Y-55010940D01*
X82435524Y-54997481D01*
X82435525Y-54997480D01*
X82435528Y-54997480D01*
X82563011Y-54944675D01*
X82677742Y-54868014D01*
X82677742Y-54868013D01*
X82680211Y-54866364D01*
X82769970Y-54829185D01*
X82818548Y-54824400D01*
X83654492Y-54824400D01*
X83781786Y-54790292D01*
X83895914Y-54724400D01*
X85446883Y-53173429D01*
X85527665Y-53119454D01*
X85622953Y-53100500D01*
X86240692Y-53100500D01*
X86240694Y-53100500D01*
X86277569Y-53097598D01*
X86435398Y-53051744D01*
X86576865Y-52968081D01*
X86693081Y-52851865D01*
X86776744Y-52710398D01*
X86785566Y-52680031D01*
X86830351Y-52593815D01*
X86904722Y-52531300D01*
X86997355Y-52502004D01*
X87024679Y-52500500D01*
X89975321Y-52500500D01*
X90070609Y-52519454D01*
X90151391Y-52573430D01*
X90205367Y-52654212D01*
X90214432Y-52680028D01*
X90223256Y-52710398D01*
X90306919Y-52851865D01*
X90423135Y-52968081D01*
X90564602Y-53051744D01*
X90722431Y-53097598D01*
X90759306Y-53100500D01*
X90759308Y-53100500D01*
X91415692Y-53100500D01*
X91415694Y-53100500D01*
X91452569Y-53097598D01*
X91610398Y-53051744D01*
X91751865Y-52968081D01*
X91868081Y-52851865D01*
X91951744Y-52710398D01*
X91997598Y-52552569D01*
X92000500Y-52515694D01*
X92000500Y-51717900D01*
X92019454Y-51622612D01*
X92073430Y-51541830D01*
X92154212Y-51487854D01*
X92249500Y-51468900D01*
X96745446Y-51468900D01*
X96840734Y-51487854D01*
G37*
%TD.AperFunction*%
%TA.AperFunction,Conductor*%
G36*
X65419537Y-66454921D02*
G01*
X65500319Y-66508897D01*
X66300770Y-67309348D01*
X66354746Y-67390130D01*
X66373700Y-67485418D01*
X66373700Y-68419246D01*
X66404461Y-68573892D01*
X66404463Y-68573897D01*
X66464803Y-68719573D01*
X66464806Y-68719580D01*
X66552408Y-68850685D01*
X66552411Y-68850689D01*
X68325811Y-70624089D01*
X68456921Y-70711694D01*
X68456923Y-70711694D01*
X68456925Y-70711696D01*
X68520887Y-70738190D01*
X68602603Y-70772038D01*
X68757258Y-70802800D01*
X68914943Y-70802800D01*
X72513982Y-70802800D01*
X72609270Y-70821754D01*
X72690052Y-70875730D01*
X72744028Y-70956512D01*
X72762982Y-71051800D01*
X72744028Y-71147088D01*
X72690052Y-71227870D01*
X72671352Y-71246570D01*
X72590570Y-71300546D01*
X72495282Y-71319500D01*
X39702895Y-71319500D01*
X39607607Y-71300546D01*
X39526825Y-71246570D01*
X39487255Y-71195000D01*
X39458616Y-71145397D01*
X39458611Y-71145388D01*
X39348481Y-71001865D01*
X39318923Y-70963344D01*
X39318922Y-70963343D01*
X39318919Y-70963339D01*
X39156661Y-70801081D01*
X39156656Y-70801077D01*
X39156655Y-70801076D01*
X38974621Y-70661396D01*
X38974622Y-70661396D01*
X38974612Y-70661389D01*
X38962181Y-70654212D01*
X38775893Y-70546658D01*
X38775882Y-70546653D01*
X38682743Y-70508074D01*
X38563887Y-70458842D01*
X38561883Y-70458305D01*
X38560949Y-70457844D01*
X38556161Y-70456219D01*
X38556374Y-70455588D01*
X38474747Y-70415335D01*
X38410687Y-70342290D01*
X38379457Y-70250292D01*
X38385811Y-70153345D01*
X38428781Y-70066209D01*
X38450258Y-70041719D01*
X39512949Y-68979030D01*
X39593730Y-68925054D01*
X39689018Y-68906100D01*
X48208015Y-68906100D01*
X48303303Y-68925054D01*
X48384081Y-68979027D01*
X48398135Y-68993081D01*
X48539602Y-69076744D01*
X48697431Y-69122598D01*
X48734306Y-69125500D01*
X48834682Y-69125500D01*
X48929970Y-69144454D01*
X49010752Y-69198430D01*
X49664511Y-69852189D01*
X49664510Y-69852189D01*
X49746430Y-69934108D01*
X49776011Y-69963689D01*
X49907121Y-70051294D01*
X50023562Y-70099525D01*
X50023563Y-70099525D01*
X50023564Y-70099526D01*
X50052803Y-70111637D01*
X50052806Y-70111638D01*
X50205399Y-70141990D01*
X50207457Y-70142400D01*
X61261942Y-70142400D01*
X61416597Y-70111637D01*
X61562279Y-70051294D01*
X61693389Y-69963689D01*
X61847665Y-69809412D01*
X61928445Y-69755436D01*
X62023733Y-69736482D01*
X62093201Y-69746369D01*
X62097431Y-69747598D01*
X62134306Y-69750500D01*
X62134308Y-69750500D01*
X62915692Y-69750500D01*
X62915694Y-69750500D01*
X62952569Y-69747598D01*
X63110398Y-69701744D01*
X63251865Y-69618081D01*
X63368081Y-69501865D01*
X63451744Y-69360398D01*
X63497598Y-69202569D01*
X63500500Y-69165694D01*
X63500500Y-68259716D01*
X63519454Y-68164428D01*
X63573428Y-68083648D01*
X65148179Y-66508896D01*
X65228961Y-66454921D01*
X65324249Y-66435967D01*
X65419537Y-66454921D01*
G37*
%TD.AperFunction*%
%TA.AperFunction,Conductor*%
G36*
X92730688Y-66999808D02*
G01*
X92811470Y-67053784D01*
X93179270Y-67421584D01*
X93233246Y-67502366D01*
X93252200Y-67597654D01*
X93252200Y-70274900D01*
X93233246Y-70370188D01*
X93179270Y-70450970D01*
X93098488Y-70504946D01*
X93003200Y-70523900D01*
X92249500Y-70523900D01*
X92154212Y-70504946D01*
X92073430Y-70450970D01*
X92019454Y-70370188D01*
X92000500Y-70274900D01*
X92000500Y-69897953D01*
X92019454Y-69802665D01*
X92073427Y-69721886D01*
X92286400Y-69508914D01*
X92352292Y-69394786D01*
X92386400Y-69267493D01*
X92386400Y-69135708D01*
X92386400Y-67242908D01*
X92386400Y-67229854D01*
X92405354Y-67134566D01*
X92459330Y-67053784D01*
X92540112Y-66999808D01*
X92635400Y-66980854D01*
X92730688Y-66999808D01*
G37*
%TD.AperFunction*%
%TA.AperFunction,Conductor*%
G36*
X88332370Y-66441254D02*
G01*
X88413152Y-66495230D01*
X90076570Y-68158648D01*
X90130546Y-68239430D01*
X90149500Y-68334718D01*
X90149500Y-68540704D01*
X90152401Y-68577563D01*
X90152403Y-68577572D01*
X90198256Y-68735398D01*
X90281921Y-68876868D01*
X90283419Y-68878799D01*
X90285355Y-68882675D01*
X90289894Y-68890349D01*
X90289350Y-68890670D01*
X90302503Y-68916996D01*
X90323398Y-68954214D01*
X90324119Y-68960258D01*
X90326843Y-68965709D01*
X90329857Y-69008302D01*
X90334919Y-69050684D01*
X90333234Y-69056019D01*
X90333702Y-69062622D01*
X90308645Y-69144219D01*
X90305041Y-69151310D01*
X90223256Y-69289602D01*
X90207901Y-69342450D01*
X90197300Y-69363312D01*
X90181459Y-69383449D01*
X90169649Y-69406185D01*
X90151714Y-69421260D01*
X90137231Y-69439672D01*
X90114891Y-69452213D01*
X90095278Y-69468700D01*
X90072941Y-69475764D01*
X90052514Y-69487232D01*
X90027073Y-69490270D01*
X90002645Y-69497996D01*
X89975321Y-69499500D01*
X87024679Y-69499500D01*
X86929391Y-69480546D01*
X86848609Y-69426570D01*
X86794633Y-69345788D01*
X86785566Y-69319968D01*
X86776744Y-69289602D01*
X86693081Y-69148135D01*
X86576865Y-69031919D01*
X86435398Y-68948256D01*
X86277569Y-68902402D01*
X86277566Y-68902401D01*
X86277563Y-68902401D01*
X86240704Y-68899500D01*
X86240694Y-68899500D01*
X85584306Y-68899500D01*
X85584295Y-68899500D01*
X85547436Y-68902401D01*
X85547427Y-68902403D01*
X85389602Y-68948256D01*
X85267181Y-69020655D01*
X85175514Y-69052845D01*
X85078505Y-69047506D01*
X84990925Y-69005449D01*
X84926105Y-68933079D01*
X84893915Y-68841412D01*
X84899254Y-68744403D01*
X84901319Y-68736858D01*
X84901742Y-68735400D01*
X84901744Y-68735398D01*
X84947598Y-68577569D01*
X84950500Y-68540694D01*
X84950500Y-67459306D01*
X84947598Y-67422431D01*
X84901744Y-67264602D01*
X84818081Y-67123135D01*
X84701865Y-67006919D01*
X84560398Y-66923256D01*
X84516189Y-66910411D01*
X84429975Y-66865626D01*
X84367460Y-66791256D01*
X84338165Y-66698623D01*
X84346548Y-66601830D01*
X84391335Y-66515614D01*
X84465705Y-66453099D01*
X84558338Y-66423804D01*
X84585661Y-66422300D01*
X88237082Y-66422300D01*
X88332370Y-66441254D01*
G37*
%TD.AperFunction*%
%TA.AperFunction,Conductor*%
G36*
X75045570Y-66441254D02*
G01*
X75126352Y-66495230D01*
X75180328Y-66576012D01*
X75199282Y-66671300D01*
X75180328Y-66766588D01*
X75126352Y-66847370D01*
X72844852Y-69128870D01*
X72764070Y-69182846D01*
X72668782Y-69201800D01*
X70749500Y-69201800D01*
X70654212Y-69182846D01*
X70573430Y-69128870D01*
X70519454Y-69048088D01*
X70500500Y-68952800D01*
X70500500Y-67364518D01*
X70519454Y-67269230D01*
X70573430Y-67188448D01*
X71266648Y-66495230D01*
X71347430Y-66441254D01*
X71442718Y-66422300D01*
X74950282Y-66422300D01*
X75045570Y-66441254D01*
G37*
%TD.AperFunction*%
%TA.AperFunction,Conductor*%
G36*
X47996176Y-53467919D02*
G01*
X48076958Y-53521895D01*
X48130934Y-53602677D01*
X48149888Y-53697965D01*
X48149500Y-53710948D01*
X48149500Y-54098101D01*
X48158690Y-54174635D01*
X48151720Y-54265160D01*
X48151949Y-54265206D01*
X48151570Y-54267110D01*
X48151232Y-54271503D01*
X48149751Y-54276579D01*
X48149564Y-54277194D01*
X48118800Y-54431853D01*
X48118800Y-54431858D01*
X48118800Y-60790465D01*
X48118799Y-60790471D01*
X48118800Y-60819454D01*
X48118800Y-60948152D01*
X48131569Y-61012344D01*
X48131572Y-61012354D01*
X48133930Y-61024207D01*
X48146267Y-61086229D01*
X48149566Y-61102810D01*
X48179344Y-61174696D01*
X48184078Y-61186125D01*
X48184079Y-61186128D01*
X48209903Y-61248474D01*
X48209906Y-61248479D01*
X48297508Y-61379585D01*
X48297517Y-61379596D01*
X48318432Y-61400510D01*
X48318435Y-61400514D01*
X48416268Y-61498346D01*
X48416296Y-61498372D01*
X51042619Y-64124610D01*
X51096596Y-64205390D01*
X51110767Y-64252102D01*
X51118762Y-64292295D01*
X51179105Y-64437977D01*
X51179106Y-64437980D01*
X51258666Y-64557049D01*
X51266711Y-64569089D01*
X51378211Y-64680589D01*
X51378214Y-64680591D01*
X51509319Y-64768193D01*
X51509320Y-64768193D01*
X51509321Y-64768194D01*
X51655003Y-64828537D01*
X51695199Y-64836532D01*
X51784956Y-64873709D01*
X51822691Y-64904678D01*
X54958028Y-68040092D01*
X55034267Y-68116333D01*
X55088242Y-68197115D01*
X55107195Y-68292403D01*
X55088240Y-68387691D01*
X55034262Y-68468472D01*
X54953480Y-68522447D01*
X54858195Y-68541400D01*
X50721018Y-68541400D01*
X50625730Y-68522446D01*
X50544948Y-68468470D01*
X50023430Y-67946952D01*
X49969454Y-67866170D01*
X49950500Y-67770882D01*
X49950500Y-67459308D01*
X49950499Y-67459295D01*
X49947598Y-67422431D01*
X49901744Y-67264602D01*
X49818081Y-67123135D01*
X49701865Y-67006919D01*
X49560398Y-66923256D01*
X49402569Y-66877402D01*
X49402566Y-66877401D01*
X49402563Y-66877401D01*
X49365704Y-66874500D01*
X49365694Y-66874500D01*
X48734306Y-66874500D01*
X48734295Y-66874500D01*
X48697436Y-66877401D01*
X48697427Y-66877403D01*
X48539601Y-66923256D01*
X48410159Y-66999808D01*
X48398135Y-67006919D01*
X48281919Y-67123135D01*
X48246601Y-67182853D01*
X48181784Y-67255221D01*
X48094204Y-67297277D01*
X48032279Y-67305100D01*
X39500291Y-67305100D01*
X39405003Y-67286146D01*
X39324221Y-67232170D01*
X39270245Y-67151388D01*
X39251291Y-67056100D01*
X39270245Y-66960812D01*
X39285962Y-66929356D01*
X39326744Y-66860398D01*
X39372598Y-66702569D01*
X39375500Y-66665694D01*
X39375500Y-65435453D01*
X39394454Y-65340165D01*
X39448430Y-65259383D01*
X41833597Y-62874216D01*
X44303199Y-60404615D01*
X44305082Y-60401353D01*
X44305560Y-60400527D01*
X44334296Y-60350754D01*
X44369092Y-60290486D01*
X44386869Y-60224142D01*
X44403200Y-60163193D01*
X44403200Y-60031408D01*
X44403200Y-59349500D01*
X44422154Y-59254212D01*
X44476130Y-59173430D01*
X44556912Y-59119454D01*
X44652200Y-59100500D01*
X45240692Y-59100500D01*
X45240694Y-59100500D01*
X45277569Y-59097598D01*
X45435398Y-59051744D01*
X45576865Y-58968081D01*
X45693081Y-58851865D01*
X45776744Y-58710398D01*
X45822598Y-58552569D01*
X45825500Y-58515694D01*
X45825500Y-57484306D01*
X45822598Y-57447431D01*
X45776744Y-57289602D01*
X45693081Y-57148135D01*
X45576865Y-57031919D01*
X45576862Y-57031917D01*
X45535246Y-57007305D01*
X45462877Y-56942484D01*
X45420822Y-56854903D01*
X45413000Y-56792982D01*
X45413000Y-55936854D01*
X45431954Y-55841566D01*
X45485930Y-55760784D01*
X46602236Y-54644478D01*
X47724821Y-53521892D01*
X47805600Y-53467919D01*
X47900888Y-53448965D01*
X47996176Y-53467919D01*
G37*
%TD.AperFunction*%
%TA.AperFunction,Conductor*%
G36*
X59872752Y-58803031D02*
G01*
X59879303Y-58802583D01*
X59887749Y-58803669D01*
X59962307Y-58818500D01*
X60003046Y-58818500D01*
X60018867Y-58820535D01*
X60050085Y-58831028D01*
X60082388Y-58837454D01*
X60095737Y-58846374D01*
X60110958Y-58851490D01*
X60135782Y-58873130D01*
X60163170Y-58891430D01*
X60172092Y-58904783D01*
X60184193Y-58915332D01*
X60198846Y-58944824D01*
X60217146Y-58972212D01*
X60220278Y-58987959D01*
X60227423Y-59002339D01*
X60236100Y-59067500D01*
X60236100Y-59709646D01*
X60266861Y-59864292D01*
X60266863Y-59864297D01*
X60327203Y-60009973D01*
X60327206Y-60009980D01*
X60341524Y-60031408D01*
X60414811Y-60141089D01*
X60526311Y-60252589D01*
X60526314Y-60252591D01*
X60657419Y-60340193D01*
X60657420Y-60340193D01*
X60657421Y-60340194D01*
X60803103Y-60400537D01*
X60803105Y-60400537D01*
X60803107Y-60400538D01*
X60824182Y-60404730D01*
X60957758Y-60431300D01*
X61115442Y-60431300D01*
X61270097Y-60400537D01*
X61390288Y-60350752D01*
X61485573Y-60331800D01*
X62023303Y-60331800D01*
X62118591Y-60350754D01*
X62199373Y-60404730D01*
X62221707Y-60430344D01*
X62307078Y-60542922D01*
X62323285Y-60555212D01*
X62427659Y-60634362D01*
X62562158Y-60687401D01*
X62568436Y-60689877D01*
X62656898Y-60700500D01*
X63074820Y-60700500D01*
X63170104Y-60719452D01*
X63291503Y-60769737D01*
X63446158Y-60800500D01*
X63878182Y-60800500D01*
X63973470Y-60819454D01*
X64054252Y-60873430D01*
X64274370Y-61093548D01*
X64328346Y-61174330D01*
X64347300Y-61269618D01*
X64347300Y-61590500D01*
X64328346Y-61685788D01*
X64274370Y-61766570D01*
X64193588Y-61820546D01*
X64098300Y-61839500D01*
X62656898Y-61839500D01*
X62590551Y-61847467D01*
X62568435Y-61850123D01*
X62568431Y-61850124D01*
X62427659Y-61905637D01*
X62307080Y-61997076D01*
X62307076Y-61997080D01*
X62215637Y-62117659D01*
X62160124Y-62258431D01*
X62160123Y-62258435D01*
X62149500Y-62346900D01*
X62149500Y-62698146D01*
X62130546Y-62793434D01*
X62076571Y-62874213D01*
X61830086Y-63120700D01*
X61830085Y-63120699D01*
X61736902Y-63213883D01*
X61736901Y-63213883D01*
X61702143Y-63274086D01*
X61671702Y-63326813D01*
X61671006Y-63328018D01*
X61636900Y-63455307D01*
X61636900Y-65509151D01*
X61617946Y-65604439D01*
X61594936Y-65647488D01*
X61516626Y-65764687D01*
X61516624Y-65764691D01*
X61463819Y-65892172D01*
X61463818Y-65892175D01*
X61436900Y-66027502D01*
X61436900Y-66165497D01*
X61463818Y-66300824D01*
X61463819Y-66300827D01*
X61516624Y-66428308D01*
X61516625Y-66428312D01*
X61551867Y-66481054D01*
X61589046Y-66570813D01*
X61589047Y-66667968D01*
X61583944Y-66688859D01*
X61552404Y-66797420D01*
X61552401Y-66797436D01*
X61549500Y-66834295D01*
X61549500Y-67740282D01*
X61530546Y-67835570D01*
X61476570Y-67916352D01*
X60924452Y-68468470D01*
X60843670Y-68522446D01*
X60748382Y-68541400D01*
X57199500Y-68541400D01*
X57104212Y-68522446D01*
X57023430Y-68468470D01*
X56969454Y-68387688D01*
X56950500Y-68292400D01*
X56950500Y-67459308D01*
X56950499Y-67459295D01*
X56947598Y-67422431D01*
X56901744Y-67264602D01*
X56818081Y-67123135D01*
X56701865Y-67006919D01*
X56560398Y-66923256D01*
X56402569Y-66877402D01*
X56402566Y-66877401D01*
X56402563Y-66877401D01*
X56365704Y-66874500D01*
X56365694Y-66874500D01*
X56159733Y-66874500D01*
X56064445Y-66855546D01*
X55983665Y-66801571D01*
X55884659Y-66702563D01*
X52630133Y-63447957D01*
X52620487Y-63438311D01*
X52620481Y-63438301D01*
X52549578Y-63367400D01*
X52520256Y-63338077D01*
X52501748Y-63319568D01*
X52501714Y-63319537D01*
X50874466Y-61692342D01*
X49792733Y-60610644D01*
X49738756Y-60529864D01*
X49719800Y-60434576D01*
X49719800Y-59349500D01*
X49738754Y-59254212D01*
X49792730Y-59173430D01*
X49873512Y-59119454D01*
X49968800Y-59100500D01*
X50415692Y-59100500D01*
X50415694Y-59100500D01*
X50452569Y-59097598D01*
X50610398Y-59051744D01*
X50751865Y-58968081D01*
X50823933Y-58896012D01*
X50904712Y-58842039D01*
X51000000Y-58823085D01*
X51095288Y-58842039D01*
X51176066Y-58896012D01*
X51248135Y-58968081D01*
X51389602Y-59051744D01*
X51547431Y-59097598D01*
X51584306Y-59100500D01*
X51584308Y-59100500D01*
X52202046Y-59100500D01*
X52297334Y-59119454D01*
X52378115Y-59173430D01*
X52615984Y-59411298D01*
X52615983Y-59411298D01*
X52615985Y-59411299D01*
X52615986Y-59411300D01*
X52730114Y-59477192D01*
X52857407Y-59511300D01*
X57967592Y-59511300D01*
X58094886Y-59477192D01*
X58209014Y-59411300D01*
X58446882Y-59173430D01*
X58527663Y-59119454D01*
X58622951Y-59100500D01*
X59240692Y-59100500D01*
X59240694Y-59100500D01*
X59277569Y-59097598D01*
X59435398Y-59051744D01*
X59576865Y-58968081D01*
X59671469Y-58873476D01*
X59684817Y-58864557D01*
X59695368Y-58852455D01*
X59724859Y-58837801D01*
X59752247Y-58819502D01*
X59767995Y-58816369D01*
X59782375Y-58809225D01*
X59815232Y-58806973D01*
X59847535Y-58800548D01*
X59872752Y-58803031D01*
G37*
%TD.AperFunction*%
%TA.AperFunction,Conductor*%
G36*
X81821934Y-57979454D02*
G01*
X81902716Y-58033430D01*
X88265516Y-64396230D01*
X88319492Y-64477012D01*
X88338446Y-64572300D01*
X88319492Y-64667588D01*
X88265516Y-64748370D01*
X88184734Y-64802346D01*
X88089446Y-64821300D01*
X71094764Y-64821300D01*
X70999476Y-64802346D01*
X70918694Y-64748370D01*
X70864718Y-64667588D01*
X70845764Y-64572300D01*
X70864718Y-64477012D01*
X70918694Y-64396230D01*
X70956428Y-64365264D01*
X70960836Y-64362318D01*
X70960835Y-64362318D01*
X70960842Y-64362314D01*
X71058414Y-64264742D01*
X71135075Y-64150011D01*
X71187880Y-64022528D01*
X71214800Y-63887193D01*
X71214800Y-63749207D01*
X71187880Y-63613872D01*
X71135075Y-63486389D01*
X71135072Y-63486385D01*
X71135071Y-63486382D01*
X71095952Y-63427836D01*
X71058772Y-63338077D01*
X71058773Y-63240922D01*
X71095952Y-63151163D01*
X71164652Y-63082464D01*
X71254411Y-63045284D01*
X71302988Y-63040500D01*
X76887392Y-63040500D01*
X77014686Y-63006392D01*
X77128814Y-62940500D01*
X78206891Y-61862421D01*
X78287670Y-61808448D01*
X78334381Y-61794278D01*
X78337287Y-61793700D01*
X78337293Y-61793700D01*
X78472628Y-61766780D01*
X78600111Y-61713975D01*
X78714842Y-61637314D01*
X78812414Y-61539742D01*
X78889075Y-61425011D01*
X78941880Y-61297528D01*
X78944756Y-61283072D01*
X78966386Y-61174330D01*
X78968800Y-61162193D01*
X78968800Y-61024207D01*
X78960031Y-60980124D01*
X78941881Y-60888875D01*
X78941880Y-60888872D01*
X78935484Y-60873430D01*
X78889075Y-60761389D01*
X78841291Y-60689876D01*
X78812416Y-60646661D01*
X78812414Y-60646658D01*
X78714842Y-60549086D01*
X78714838Y-60549083D01*
X78600112Y-60472425D01*
X78600109Y-60472424D01*
X78559784Y-60455721D01*
X78472627Y-60419619D01*
X78472624Y-60419618D01*
X78337297Y-60392700D01*
X78337293Y-60392700D01*
X78199307Y-60392700D01*
X78199302Y-60392700D01*
X78063975Y-60419618D01*
X78063972Y-60419619D01*
X77936491Y-60472424D01*
X77936487Y-60472425D01*
X77821761Y-60549083D01*
X77724183Y-60646661D01*
X77647525Y-60761387D01*
X77647524Y-60761391D01*
X77594719Y-60888872D01*
X77594719Y-60888874D01*
X77567220Y-61027119D01*
X77530040Y-61116878D01*
X77499075Y-61154609D01*
X76687116Y-61966569D01*
X76606334Y-62020546D01*
X76511046Y-62039500D01*
X70013315Y-62039500D01*
X69918027Y-62020546D01*
X69837245Y-61966570D01*
X69783269Y-61885788D01*
X69764315Y-61790500D01*
X69781675Y-61699154D01*
X69798927Y-61655405D01*
X69839877Y-61551564D01*
X69850500Y-61463102D01*
X69850500Y-61077053D01*
X69869454Y-60981765D01*
X69923430Y-60900983D01*
X70404795Y-60419618D01*
X70987900Y-59836514D01*
X71053792Y-59722386D01*
X71087900Y-59595092D01*
X71087900Y-59463308D01*
X71087900Y-58687708D01*
X71053792Y-58560414D01*
X70987900Y-58446286D01*
X70958821Y-58417207D01*
X70927183Y-58385568D01*
X70873207Y-58304787D01*
X70854254Y-58209498D01*
X70873209Y-58114210D01*
X70927186Y-58033429D01*
X71007967Y-57979453D01*
X71103254Y-57960500D01*
X81726646Y-57960500D01*
X81821934Y-57979454D01*
G37*
%TD.AperFunction*%
%TA.AperFunction,Conductor*%
G36*
X53212690Y-53154454D02*
G01*
X53267853Y-53186093D01*
X53314676Y-53221600D01*
X53377659Y-53269362D01*
X53510119Y-53321597D01*
X53518436Y-53324877D01*
X53606898Y-53335500D01*
X53606901Y-53335500D01*
X55343099Y-53335500D01*
X55343102Y-53335500D01*
X55431564Y-53324877D01*
X55546629Y-53279501D01*
X55572340Y-53269362D01*
X55572340Y-53269361D01*
X55572342Y-53269361D01*
X55655157Y-53206559D01*
X55742533Y-53164087D01*
X55839515Y-53158284D01*
X55931335Y-53190036D01*
X55981681Y-53228895D01*
X56514070Y-53761284D01*
X56568046Y-53842066D01*
X56587000Y-53937354D01*
X56587000Y-56792982D01*
X56568046Y-56888270D01*
X56514070Y-56969052D01*
X56464754Y-57007305D01*
X56423137Y-57031917D01*
X56306919Y-57148135D01*
X56223256Y-57289601D01*
X56177403Y-57447427D01*
X56177401Y-57447436D01*
X56174500Y-57484295D01*
X56174500Y-58261300D01*
X56155546Y-58356588D01*
X56101570Y-58437370D01*
X56020788Y-58491346D01*
X55925500Y-58510300D01*
X53233754Y-58510300D01*
X53138466Y-58491346D01*
X53057684Y-58437370D01*
X52898430Y-58278116D01*
X52844454Y-58197334D01*
X52825500Y-58102046D01*
X52825500Y-57484308D01*
X52825499Y-57484295D01*
X52822598Y-57447436D01*
X52822598Y-57447431D01*
X52776744Y-57289602D01*
X52693081Y-57148135D01*
X52576865Y-57031919D01*
X52576862Y-57031917D01*
X52535246Y-57007305D01*
X52462877Y-56942484D01*
X52420822Y-56854903D01*
X52413000Y-56792982D01*
X52413000Y-53473054D01*
X52431954Y-53377766D01*
X52485930Y-53296984D01*
X52574484Y-53208430D01*
X52655266Y-53154454D01*
X52750554Y-53135500D01*
X53117402Y-53135500D01*
X53212690Y-53154454D01*
G37*
%TD.AperFunction*%
%TA.AperFunction,Conductor*%
G36*
X50534734Y-52519454D02*
G01*
X50615516Y-52573430D01*
X50918534Y-52876448D01*
X50972510Y-52957230D01*
X50991464Y-53052518D01*
X50975927Y-53130626D01*
X51022788Y-53115312D01*
X51119657Y-53122768D01*
X51206298Y-53166726D01*
X51228551Y-53186465D01*
X51339070Y-53296984D01*
X51393046Y-53377766D01*
X51412000Y-53473054D01*
X51412000Y-56792982D01*
X51393046Y-56888270D01*
X51339070Y-56969052D01*
X51321780Y-56984789D01*
X51306651Y-56997312D01*
X51248135Y-57031919D01*
X51167793Y-57112260D01*
X51158780Y-57119722D01*
X51126137Y-57137348D01*
X51095288Y-57157961D01*
X51083693Y-57160267D01*
X51073292Y-57165884D01*
X51036388Y-57169676D01*
X51000000Y-57176915D01*
X50988404Y-57174608D01*
X50976646Y-57175817D01*
X50941100Y-57165199D01*
X50904712Y-57157961D01*
X50894882Y-57151393D01*
X50883556Y-57148010D01*
X50854780Y-57124598D01*
X50823933Y-57103987D01*
X50751865Y-57031919D01*
X50610398Y-56948256D01*
X50551027Y-56931006D01*
X50538764Y-56924636D01*
X50525212Y-56921941D01*
X50495995Y-56902419D01*
X50464813Y-56886221D01*
X50455921Y-56875643D01*
X50444430Y-56867965D01*
X50424906Y-56838744D01*
X50402299Y-56811850D01*
X50398132Y-56798674D01*
X50390454Y-56787183D01*
X50383598Y-56752716D01*
X50373004Y-56719217D01*
X50371500Y-56691895D01*
X50371500Y-56359048D01*
X50390454Y-56263760D01*
X50413464Y-56220711D01*
X50491774Y-56103512D01*
X50491773Y-56103512D01*
X50491775Y-56103511D01*
X50544580Y-55976028D01*
X50571500Y-55840693D01*
X50571500Y-55702707D01*
X50546861Y-55578838D01*
X50544581Y-55567375D01*
X50544580Y-55567372D01*
X50537293Y-55549780D01*
X50491775Y-55439889D01*
X50478695Y-55420314D01*
X50415116Y-55325161D01*
X50415114Y-55325158D01*
X50317542Y-55227586D01*
X50317538Y-55227583D01*
X50202812Y-55150925D01*
X50202809Y-55150924D01*
X50165470Y-55135458D01*
X50075327Y-55098119D01*
X50063622Y-55094569D01*
X50064145Y-55092843D01*
X49988562Y-55061536D01*
X49919863Y-54992837D01*
X49882684Y-54903078D01*
X49882683Y-54805923D01*
X49919863Y-54716163D01*
X49988562Y-54647464D01*
X50078321Y-54610285D01*
X50126899Y-54605500D01*
X50393099Y-54605500D01*
X50393102Y-54605500D01*
X50481564Y-54594877D01*
X50609597Y-54544387D01*
X50622340Y-54539362D01*
X50622340Y-54539361D01*
X50622342Y-54539361D01*
X50742922Y-54447922D01*
X50834361Y-54327342D01*
X50849966Y-54287772D01*
X50858864Y-54265206D01*
X50889877Y-54186564D01*
X50900500Y-54098102D01*
X50900500Y-53711898D01*
X50889877Y-53623436D01*
X50881691Y-53602677D01*
X50828113Y-53466813D01*
X50829460Y-53466281D01*
X50805258Y-53392228D01*
X50812714Y-53295359D01*
X50817123Y-53286667D01*
X50742464Y-53301518D01*
X50647176Y-53282564D01*
X50623930Y-53271264D01*
X50481568Y-53215124D01*
X50481564Y-53215123D01*
X50393102Y-53204500D01*
X50393099Y-53204500D01*
X49975178Y-53204500D01*
X49879890Y-53185546D01*
X49758497Y-53135263D01*
X49758496Y-53135262D01*
X49758492Y-53135261D01*
X49758493Y-53135261D01*
X49603846Y-53104500D01*
X49603842Y-53104500D01*
X49446157Y-53104500D01*
X49446152Y-53104500D01*
X49291507Y-53135261D01*
X49259136Y-53148670D01*
X49170109Y-53185546D01*
X49075046Y-53204500D01*
X48656898Y-53204500D01*
X48653745Y-53204878D01*
X48643189Y-53204888D01*
X48602578Y-53196848D01*
X48561573Y-53191210D01*
X48555165Y-53187461D01*
X48547884Y-53186020D01*
X48513445Y-53163053D01*
X48477715Y-53142150D01*
X48473229Y-53136234D01*
X48467054Y-53132116D01*
X48444025Y-53097718D01*
X48419015Y-53064733D01*
X48417135Y-53057552D01*
X48413005Y-53051383D01*
X48404891Y-53010785D01*
X48394409Y-52970745D01*
X48395419Y-52963392D01*
X48393965Y-52956112D01*
X48402004Y-52915501D01*
X48407643Y-52874496D01*
X48411391Y-52868088D01*
X48412833Y-52860807D01*
X48435799Y-52826368D01*
X48456703Y-52790638D01*
X48466714Y-52780010D01*
X48466737Y-52779977D01*
X48466761Y-52779960D01*
X48466896Y-52779818D01*
X48673285Y-52573430D01*
X48754066Y-52519454D01*
X48849354Y-52500500D01*
X50439446Y-52500500D01*
X50534734Y-52519454D01*
G37*
%TD.AperFunction*%
%TA.AperFunction,Conductor*%
G36*
X43248488Y-47119454D02*
G01*
X43329270Y-47173430D01*
X43383246Y-47254212D01*
X43402200Y-47349500D01*
X43402200Y-56650500D01*
X43383246Y-56745788D01*
X43329270Y-56826570D01*
X43248488Y-56880546D01*
X43153200Y-56899500D01*
X42797954Y-56899500D01*
X42702666Y-56880546D01*
X42621884Y-56826570D01*
X37470884Y-51675570D01*
X37416908Y-51594788D01*
X37397954Y-51499500D01*
X37416908Y-51404212D01*
X37470884Y-51323430D01*
X37551666Y-51269454D01*
X37646954Y-51250500D01*
X38790692Y-51250500D01*
X38790694Y-51250500D01*
X38827569Y-51247598D01*
X38985398Y-51201744D01*
X39126865Y-51118081D01*
X39243081Y-51001865D01*
X39326744Y-50860398D01*
X39372598Y-50702569D01*
X39375500Y-50665694D01*
X39375500Y-50522952D01*
X39394454Y-50427664D01*
X39448426Y-50346887D01*
X42621882Y-47173429D01*
X42702664Y-47119454D01*
X42797952Y-47100500D01*
X43153200Y-47100500D01*
X43248488Y-47119454D01*
G37*
%TD.AperFunction*%
%TA.AperFunction,Conductor*%
G36*
X75988876Y-52503196D02*
G01*
X76002645Y-52502004D01*
X76036145Y-52512598D01*
X76070609Y-52519454D01*
X76082101Y-52527132D01*
X76095278Y-52531300D01*
X76122172Y-52553907D01*
X76151391Y-52573430D01*
X76159069Y-52584922D01*
X76169649Y-52593815D01*
X76185845Y-52624996D01*
X76205367Y-52654212D01*
X76214432Y-52680028D01*
X76223256Y-52710398D01*
X76306919Y-52851865D01*
X76332353Y-52877299D01*
X76386327Y-52958078D01*
X76405281Y-53053366D01*
X76386327Y-53148654D01*
X76332351Y-53229436D01*
X76280781Y-53269006D01*
X76189689Y-53321597D01*
X76189684Y-53321601D01*
X75404309Y-54106975D01*
X75323528Y-54160951D01*
X75276819Y-54175120D01*
X75138574Y-54202619D01*
X75138572Y-54202619D01*
X75011091Y-54255424D01*
X75011087Y-54255425D01*
X74896361Y-54332083D01*
X74798783Y-54429661D01*
X74722125Y-54544387D01*
X74722124Y-54544391D01*
X74669319Y-54671872D01*
X74669318Y-54671875D01*
X74642400Y-54807202D01*
X74642400Y-54945197D01*
X74669318Y-55080524D01*
X74669319Y-55080527D01*
X74696113Y-55145212D01*
X74713716Y-55187711D01*
X74722124Y-55208008D01*
X74722128Y-55208017D01*
X74785035Y-55302164D01*
X74822215Y-55391923D01*
X74822214Y-55489078D01*
X74785035Y-55578838D01*
X74716335Y-55647536D01*
X74626576Y-55684716D01*
X74577999Y-55689500D01*
X69832598Y-55689500D01*
X69737310Y-55670546D01*
X69682146Y-55638906D01*
X69615065Y-55588037D01*
X69572340Y-55555637D01*
X69431568Y-55500124D01*
X69431564Y-55500123D01*
X69343102Y-55489500D01*
X69343099Y-55489500D01*
X68852654Y-55489500D01*
X68757366Y-55470546D01*
X68676584Y-55416570D01*
X68622608Y-55335788D01*
X68603654Y-55240500D01*
X68622608Y-55145212D01*
X68676584Y-55064430D01*
X71167584Y-52573430D01*
X71248366Y-52519454D01*
X71343654Y-52500500D01*
X75975321Y-52500500D01*
X75988876Y-52503196D01*
G37*
%TD.AperFunction*%
%TA.AperFunction,Conductor*%
G36*
X44747488Y-47675507D02*
G01*
X44828266Y-47729480D01*
X46474332Y-49375546D01*
X48077168Y-50978382D01*
X48131144Y-51059164D01*
X48150098Y-51154452D01*
X48149654Y-51169310D01*
X48149500Y-51171886D01*
X48149500Y-51558101D01*
X48149784Y-51562850D01*
X48149500Y-51564915D01*
X48149500Y-51565544D01*
X48149414Y-51565544D01*
X48136553Y-51659100D01*
X48087495Y-51742960D01*
X48077298Y-51753786D01*
X44828270Y-55002815D01*
X44747488Y-55056791D01*
X44652200Y-55075745D01*
X44556912Y-55056791D01*
X44476130Y-55002815D01*
X44422154Y-54922033D01*
X44403200Y-54826745D01*
X44403200Y-47905553D01*
X44422154Y-47810265D01*
X44476130Y-47729483D01*
X44556912Y-47675507D01*
X44652200Y-47656553D01*
X44747488Y-47675507D01*
G37*
%TD.AperFunction*%
%TA.AperFunction,Conductor*%
G36*
X56020788Y-39516754D02*
G01*
X56101570Y-39570730D01*
X56155546Y-39651512D01*
X56174500Y-39746800D01*
X56174500Y-40515704D01*
X56177401Y-40552563D01*
X56177401Y-40552566D01*
X56177402Y-40552569D01*
X56223256Y-40710398D01*
X56306919Y-40851865D01*
X56423135Y-40968081D01*
X56503771Y-41015768D01*
X56534019Y-41042862D01*
X56565977Y-41067933D01*
X56569530Y-41074668D01*
X56576139Y-41080587D01*
X56613649Y-41152589D01*
X56615770Y-41159065D01*
X56621108Y-41178986D01*
X56623850Y-41183736D01*
X56629731Y-41201690D01*
X56634438Y-41240678D01*
X56642100Y-41279189D01*
X56642100Y-41309897D01*
X56669018Y-41445224D01*
X56669019Y-41445227D01*
X56721824Y-41572708D01*
X56721825Y-41572712D01*
X56757293Y-41625793D01*
X56798486Y-41687442D01*
X56896058Y-41785014D01*
X56896061Y-41785016D01*
X57010787Y-41861674D01*
X57010789Y-41861675D01*
X57138272Y-41914480D01*
X57138275Y-41914481D01*
X57271803Y-41941041D01*
X57273607Y-41941400D01*
X57411593Y-41941400D01*
X57479260Y-41927940D01*
X57546924Y-41914481D01*
X57546925Y-41914480D01*
X57546928Y-41914480D01*
X57674411Y-41861675D01*
X57789142Y-41785014D01*
X57886714Y-41687442D01*
X57963375Y-41572711D01*
X58016180Y-41445228D01*
X58043100Y-41309893D01*
X58043100Y-41280865D01*
X58062054Y-41185577D01*
X58116030Y-41104795D01*
X58196812Y-41050819D01*
X58292100Y-41031865D01*
X58374313Y-41048218D01*
X58374559Y-41047373D01*
X58384318Y-41050208D01*
X58387388Y-41050819D01*
X58389504Y-41051715D01*
X58389600Y-41051742D01*
X58389602Y-41051744D01*
X58547431Y-41097598D01*
X58584306Y-41100500D01*
X58584308Y-41100500D01*
X59202082Y-41100500D01*
X59297370Y-41119454D01*
X59378148Y-41173427D01*
X60708485Y-42503707D01*
X60892223Y-42687437D01*
X60892294Y-42687508D01*
X61354958Y-43150228D01*
X61492980Y-43288266D01*
X61546952Y-43369051D01*
X61565900Y-43464325D01*
X61565900Y-54605582D01*
X61546946Y-54700870D01*
X61492970Y-54781652D01*
X61412188Y-54835628D01*
X61316900Y-54854582D01*
X61221612Y-54835628D01*
X61140830Y-54781652D01*
X58493678Y-52134500D01*
X55832389Y-49473211D01*
X55813571Y-49460637D01*
X55701280Y-49385606D01*
X55701273Y-49385603D01*
X55555597Y-49325263D01*
X55555592Y-49325261D01*
X55400946Y-49294500D01*
X55400942Y-49294500D01*
X54396158Y-49294500D01*
X54396153Y-49294500D01*
X54241509Y-49325261D01*
X54241505Y-49325262D01*
X54241503Y-49325263D01*
X54120104Y-49375547D01*
X54024820Y-49394500D01*
X53606898Y-49394500D01*
X53540551Y-49402467D01*
X53518435Y-49405123D01*
X53518431Y-49405124D01*
X53377659Y-49460637D01*
X53257080Y-49552076D01*
X53257076Y-49552080D01*
X53165637Y-49672659D01*
X53110124Y-49813431D01*
X53110123Y-49813435D01*
X53099500Y-49901900D01*
X53099500Y-50288099D01*
X53110123Y-50376564D01*
X53110124Y-50376568D01*
X53165638Y-50517342D01*
X53212809Y-50579546D01*
X53255283Y-50666924D01*
X53261085Y-50763906D01*
X53229332Y-50855726D01*
X53212809Y-50880454D01*
X53165638Y-50942657D01*
X53110124Y-51083431D01*
X53110123Y-51083435D01*
X53110123Y-51083436D01*
X53099500Y-51171898D01*
X53099500Y-51558102D01*
X53107247Y-51622612D01*
X53110123Y-51646564D01*
X53168325Y-51794154D01*
X53185649Y-51889752D01*
X53165070Y-51984702D01*
X53109722Y-52064550D01*
X53028031Y-52117140D01*
X52936685Y-52134500D01*
X52374207Y-52134500D01*
X52246917Y-52168607D01*
X52246916Y-52168607D01*
X52246914Y-52168608D01*
X52197159Y-52197334D01*
X52132783Y-52234501D01*
X52132783Y-52234502D01*
X52088568Y-52278717D01*
X52007786Y-52332693D01*
X51912498Y-52351646D01*
X51817210Y-52332691D01*
X51736431Y-52278716D01*
X51057215Y-51599501D01*
X51057207Y-51599495D01*
X51024997Y-51580898D01*
X51000515Y-51559427D01*
X50973430Y-51541330D01*
X50964300Y-51527667D01*
X50951953Y-51516838D01*
X50937549Y-51487630D01*
X50919454Y-51460548D01*
X50916249Y-51444436D01*
X50908983Y-51429702D01*
X50900500Y-51365260D01*
X50900500Y-51168553D01*
X50919454Y-51073265D01*
X50973430Y-50992483D01*
X52272768Y-49693145D01*
X53688199Y-48277715D01*
X53754092Y-48163586D01*
X53781780Y-48060253D01*
X53824750Y-47973118D01*
X53897796Y-47909059D01*
X53989795Y-47877830D01*
X54022295Y-47875700D01*
X57603192Y-47875700D01*
X57730486Y-47841592D01*
X57844614Y-47775700D01*
X58446882Y-47173430D01*
X58527663Y-47119454D01*
X58622952Y-47100500D01*
X59240692Y-47100500D01*
X59240694Y-47100500D01*
X59277569Y-47097598D01*
X59435398Y-47051744D01*
X59576865Y-46968081D01*
X59693081Y-46851865D01*
X59776744Y-46710398D01*
X59822598Y-46552569D01*
X59825500Y-46515694D01*
X59825500Y-45484306D01*
X59822598Y-45447431D01*
X59776744Y-45289602D01*
X59693081Y-45148135D01*
X59576865Y-45031919D01*
X59435398Y-44948256D01*
X59277569Y-44902402D01*
X59277566Y-44902401D01*
X59277563Y-44902401D01*
X59240704Y-44899500D01*
X59240694Y-44899500D01*
X58584306Y-44899500D01*
X58584295Y-44899500D01*
X58547436Y-44902401D01*
X58547427Y-44902403D01*
X58389601Y-44948256D01*
X58248135Y-45031919D01*
X58176066Y-45103987D01*
X58095288Y-45157961D01*
X58000000Y-45176915D01*
X57904712Y-45157961D01*
X57823933Y-45103987D01*
X57751865Y-45031919D01*
X57610398Y-44948256D01*
X57452569Y-44902402D01*
X57452566Y-44902401D01*
X57452563Y-44902401D01*
X57415704Y-44899500D01*
X57415694Y-44899500D01*
X56797954Y-44899500D01*
X56702666Y-44880546D01*
X56621885Y-44826570D01*
X56242215Y-44446901D01*
X56242216Y-44446901D01*
X56225261Y-44437112D01*
X56128086Y-44381008D01*
X56128083Y-44381007D01*
X56128081Y-44381006D01*
X56000792Y-44346900D01*
X51874454Y-44346900D01*
X51779166Y-44327946D01*
X51698384Y-44273970D01*
X48949984Y-41525570D01*
X48896008Y-41444788D01*
X48877054Y-41349500D01*
X48896008Y-41254212D01*
X48949984Y-41173430D01*
X49030766Y-41119454D01*
X49126054Y-41100500D01*
X49415692Y-41100500D01*
X49415694Y-41100500D01*
X49452569Y-41097598D01*
X49610398Y-41051744D01*
X49751865Y-40968081D01*
X49823933Y-40896012D01*
X49904712Y-40842039D01*
X50000000Y-40823085D01*
X50095288Y-40842039D01*
X50176066Y-40896012D01*
X50248135Y-40968081D01*
X50389602Y-41051744D01*
X50547431Y-41097598D01*
X50584306Y-41100500D01*
X50584308Y-41100500D01*
X51240692Y-41100500D01*
X51240694Y-41100500D01*
X51277569Y-41097598D01*
X51435398Y-41051744D01*
X51576865Y-40968081D01*
X51693081Y-40851865D01*
X51776744Y-40710398D01*
X51822598Y-40552569D01*
X51825500Y-40515694D01*
X51825500Y-39897954D01*
X51844454Y-39802666D01*
X51898430Y-39721884D01*
X52049584Y-39570730D01*
X52130366Y-39516754D01*
X52225654Y-39497800D01*
X55925500Y-39497800D01*
X56020788Y-39516754D01*
G37*
%TD.AperFunction*%
%TA.AperFunction,Conductor*%
G36*
X82999092Y-51045155D02*
G01*
X83034099Y-51048187D01*
X83046363Y-51054558D01*
X83059917Y-51057254D01*
X83089136Y-51076777D01*
X83120315Y-51092974D01*
X83129205Y-51103550D01*
X83140699Y-51111230D01*
X83160224Y-51140452D01*
X83182830Y-51167345D01*
X83186996Y-51180520D01*
X83194675Y-51192012D01*
X83201530Y-51226476D01*
X83212125Y-51259977D01*
X83210932Y-51273744D01*
X83213629Y-51287300D01*
X83203742Y-51356770D01*
X83177403Y-51447427D01*
X83177401Y-51447436D01*
X83174500Y-51484295D01*
X83174500Y-52102046D01*
X83155546Y-52197334D01*
X83101570Y-52278116D01*
X82231016Y-53148670D01*
X82150234Y-53202646D01*
X82054946Y-53221600D01*
X78085963Y-53221600D01*
X77990675Y-53202646D01*
X77909893Y-53148670D01*
X77855917Y-53067888D01*
X77836963Y-52972600D01*
X77855917Y-52877312D01*
X77871633Y-52845858D01*
X77951744Y-52710398D01*
X77997598Y-52552569D01*
X78000500Y-52515694D01*
X78000500Y-51897954D01*
X78019454Y-51802666D01*
X78073430Y-51721884D01*
X78684084Y-51111230D01*
X78764866Y-51057254D01*
X78860154Y-51038300D01*
X82964629Y-51038300D01*
X82999092Y-51045155D01*
G37*
%TD.AperFunction*%
%TA.AperFunction,Conductor*%
G36*
X48832934Y-45480054D02*
G01*
X48913716Y-45534030D01*
X49101570Y-45721884D01*
X49155546Y-45802666D01*
X49174500Y-45897954D01*
X49174500Y-46515704D01*
X49177401Y-46552563D01*
X49177401Y-46552566D01*
X49177402Y-46552569D01*
X49223256Y-46710398D01*
X49306919Y-46851865D01*
X49423135Y-46968081D01*
X49564602Y-47051744D01*
X49722431Y-47097598D01*
X49759306Y-47100500D01*
X49759308Y-47100500D01*
X50250500Y-47100500D01*
X50345788Y-47119454D01*
X50426570Y-47173430D01*
X50480546Y-47254212D01*
X50499500Y-47349500D01*
X50499500Y-48309546D01*
X50480546Y-48404834D01*
X50426570Y-48485616D01*
X49590616Y-49321570D01*
X49509834Y-49375546D01*
X49414546Y-49394500D01*
X48656898Y-49394500D01*
X48590551Y-49402467D01*
X48568435Y-49405123D01*
X48568431Y-49405124D01*
X48427659Y-49460637D01*
X48343251Y-49524647D01*
X48255872Y-49567120D01*
X48158890Y-49572923D01*
X48067071Y-49541170D01*
X48016726Y-49502312D01*
X45705548Y-47191134D01*
X45651572Y-47110352D01*
X45632618Y-47015064D01*
X45651572Y-46919776D01*
X45684871Y-46862449D01*
X45693074Y-46851871D01*
X45693081Y-46851865D01*
X45776744Y-46710398D01*
X45822598Y-46552569D01*
X45825500Y-46515694D01*
X45825500Y-45710100D01*
X45844454Y-45614812D01*
X45898430Y-45534030D01*
X45979212Y-45480054D01*
X46074500Y-45461100D01*
X48737646Y-45461100D01*
X48832934Y-45480054D01*
G37*
%TD.AperFunction*%
%TA.AperFunction,Conductor*%
G36*
X148846288Y-31018954D02*
G01*
X148927070Y-31072930D01*
X148981046Y-31153712D01*
X149000000Y-31249000D01*
X149000000Y-108751000D01*
X148981046Y-108846288D01*
X148927070Y-108927070D01*
X148846288Y-108981046D01*
X148751000Y-109000000D01*
X31249000Y-109000000D01*
X31153712Y-108981046D01*
X31072930Y-108927070D01*
X31018954Y-108846288D01*
X31000000Y-108751000D01*
X31000000Y-103878712D01*
X34149500Y-103878712D01*
X34149500Y-104121288D01*
X34159361Y-104196192D01*
X34181162Y-104361790D01*
X34181163Y-104361795D01*
X34243940Y-104596082D01*
X34243948Y-104596105D01*
X34336770Y-104820201D01*
X34336778Y-104820217D01*
X34458058Y-105030279D01*
X34458064Y-105030289D01*
X34605729Y-105222731D01*
X34605738Y-105222741D01*
X34777258Y-105394261D01*
X34777268Y-105394270D01*
X34898491Y-105487287D01*
X34969711Y-105541936D01*
X34969720Y-105541941D01*
X35179782Y-105663221D01*
X35179798Y-105663229D01*
X35319858Y-105721242D01*
X35403900Y-105756054D01*
X35403911Y-105756057D01*
X35403917Y-105756059D01*
X35587021Y-105805121D01*
X35638211Y-105818838D01*
X35878712Y-105850500D01*
X36121288Y-105850500D01*
X36361789Y-105818838D01*
X36523275Y-105775567D01*
X36596082Y-105756059D01*
X36596084Y-105756058D01*
X36596100Y-105756054D01*
X36747766Y-105693231D01*
X36820201Y-105663229D01*
X36820206Y-105663226D01*
X36820212Y-105663224D01*
X37030289Y-105541936D01*
X37222738Y-105394265D01*
X37394265Y-105222738D01*
X37541936Y-105030289D01*
X37663224Y-104820212D01*
X37756054Y-104596100D01*
X37818838Y-104361789D01*
X37850500Y-104121288D01*
X37850500Y-103878712D01*
X37818838Y-103638211D01*
X37756054Y-103403900D01*
X37689441Y-103243081D01*
X37663229Y-103179798D01*
X37663221Y-103179782D01*
X37577971Y-103032126D01*
X37541936Y-102969711D01*
X37432862Y-102827563D01*
X37394270Y-102777268D01*
X37394261Y-102777258D01*
X37222741Y-102605738D01*
X37222731Y-102605729D01*
X37030289Y-102458064D01*
X37030279Y-102458058D01*
X36820217Y-102336778D01*
X36820201Y-102336770D01*
X36596105Y-102243948D01*
X36596103Y-102243947D01*
X36596100Y-102243946D01*
X36596096Y-102243945D01*
X36596082Y-102243940D01*
X36361795Y-102181163D01*
X36361790Y-102181162D01*
X36121288Y-102149500D01*
X35878712Y-102149500D01*
X35638209Y-102181162D01*
X35638204Y-102181163D01*
X35403917Y-102243940D01*
X35403894Y-102243948D01*
X35179798Y-102336770D01*
X35179782Y-102336778D01*
X34969720Y-102458058D01*
X34969710Y-102458064D01*
X34777268Y-102605729D01*
X34777258Y-102605738D01*
X34605738Y-102777258D01*
X34605729Y-102777268D01*
X34458064Y-102969710D01*
X34458058Y-102969720D01*
X34336778Y-103179782D01*
X34336770Y-103179798D01*
X34243948Y-103403894D01*
X34243940Y-103403917D01*
X34181163Y-103638204D01*
X34181162Y-103638209D01*
X34181162Y-103638211D01*
X34149500Y-103878712D01*
X31000000Y-103878712D01*
X31000000Y-101209295D01*
X54749500Y-101209295D01*
X54749500Y-102790704D01*
X54752401Y-102827563D01*
X54752401Y-102827566D01*
X54752402Y-102827569D01*
X54798256Y-102985398D01*
X54881919Y-103126865D01*
X54998135Y-103243081D01*
X55139602Y-103326744D01*
X55297431Y-103372598D01*
X55334306Y-103375500D01*
X55334308Y-103375500D01*
X56665692Y-103375500D01*
X56665694Y-103375500D01*
X56702569Y-103372598D01*
X56860398Y-103326744D01*
X57001865Y-103243081D01*
X57118081Y-103126865D01*
X57183338Y-103016520D01*
X57248156Y-102944153D01*
X57335737Y-102902097D01*
X57432745Y-102896758D01*
X57524412Y-102928949D01*
X57573726Y-102967200D01*
X57685354Y-103078828D01*
X57685357Y-103078830D01*
X57824326Y-103179798D01*
X57844595Y-103194524D01*
X58019975Y-103283884D01*
X58207174Y-103344709D01*
X58401583Y-103375500D01*
X58401587Y-103375500D01*
X58598413Y-103375500D01*
X58598417Y-103375500D01*
X58792826Y-103344709D01*
X58980025Y-103283884D01*
X59155405Y-103194524D01*
X59314646Y-103078828D01*
X59453828Y-102939646D01*
X59569524Y-102780405D01*
X59658884Y-102605025D01*
X59719709Y-102417826D01*
X59750500Y-102223417D01*
X59750500Y-101776583D01*
X59719709Y-101582174D01*
X59658884Y-101394975D01*
X59569524Y-101219595D01*
X59453828Y-101060354D01*
X59314646Y-100921172D01*
X59256156Y-100878676D01*
X59155410Y-100805479D01*
X59155407Y-100805477D01*
X59155405Y-100805476D01*
X58980025Y-100716116D01*
X58980024Y-100716115D01*
X58980023Y-100716115D01*
X58980017Y-100716113D01*
X58835781Y-100669248D01*
X58792826Y-100655291D01*
X58792824Y-100655290D01*
X58792822Y-100655290D01*
X58598428Y-100624501D01*
X58598419Y-100624500D01*
X58598417Y-100624500D01*
X58401583Y-100624500D01*
X58401580Y-100624500D01*
X58401571Y-100624501D01*
X58207177Y-100655290D01*
X58019982Y-100716113D01*
X58019976Y-100716115D01*
X57939894Y-100756919D01*
X57844595Y-100805476D01*
X57844592Y-100805477D01*
X57844590Y-100805479D01*
X57844589Y-100805479D01*
X57685353Y-100921172D01*
X57573730Y-101032795D01*
X57492948Y-101086771D01*
X57397660Y-101105725D01*
X57302372Y-101086771D01*
X57221591Y-101032794D01*
X57183336Y-100983476D01*
X57118081Y-100873135D01*
X57001865Y-100756919D01*
X56860398Y-100673256D01*
X56702569Y-100627402D01*
X56702566Y-100627401D01*
X56702563Y-100627401D01*
X56665704Y-100624500D01*
X56665694Y-100624500D01*
X55334306Y-100624500D01*
X55334295Y-100624500D01*
X55297436Y-100627401D01*
X55297427Y-100627403D01*
X55139601Y-100673256D01*
X54998135Y-100756919D01*
X54881919Y-100873135D01*
X54798256Y-101014601D01*
X54752403Y-101172427D01*
X54752401Y-101172436D01*
X54749500Y-101209295D01*
X31000000Y-101209295D01*
X31000000Y-71232753D01*
X35247800Y-71232753D01*
X35247800Y-82127146D01*
X35278561Y-82281792D01*
X35278563Y-82281797D01*
X35338903Y-82427473D01*
X35338906Y-82427480D01*
X35402046Y-82521975D01*
X35426511Y-82558589D01*
X36176572Y-83308650D01*
X36230546Y-83389429D01*
X36249500Y-83484717D01*
X36249500Y-85165704D01*
X36252401Y-85202566D01*
X36252402Y-85202569D01*
X36298256Y-85360397D01*
X36381919Y-85501864D01*
X36498136Y-85618081D01*
X36639603Y-85701744D01*
X36797431Y-85747598D01*
X36834306Y-85750500D01*
X36834308Y-85750500D01*
X39165692Y-85750500D01*
X39165694Y-85750500D01*
X39202569Y-85747598D01*
X39360397Y-85701744D01*
X39501864Y-85618081D01*
X39618081Y-85501864D01*
X39701744Y-85360397D01*
X39747598Y-85202569D01*
X39750500Y-85165694D01*
X39750500Y-82834306D01*
X39747598Y-82797431D01*
X39701744Y-82639603D01*
X39618081Y-82498136D01*
X39501864Y-82381919D01*
X39360397Y-82298256D01*
X39202569Y-82252402D01*
X39202566Y-82252401D01*
X39165704Y-82249500D01*
X39165694Y-82249500D01*
X37484718Y-82249500D01*
X37389430Y-82230546D01*
X37308648Y-82176570D01*
X36921730Y-81789652D01*
X36867754Y-81708870D01*
X36848800Y-81613582D01*
X36848800Y-77867938D01*
X36867754Y-77772650D01*
X36921730Y-77691868D01*
X37002512Y-77637892D01*
X37097800Y-77618938D01*
X37193088Y-77637892D01*
X37222302Y-77652299D01*
X37224112Y-77653344D01*
X37436113Y-77741158D01*
X37657762Y-77800548D01*
X37885266Y-77830500D01*
X38114734Y-77830500D01*
X38342238Y-77800548D01*
X38563887Y-77741158D01*
X38775888Y-77653344D01*
X38974612Y-77538611D01*
X39156661Y-77398919D01*
X39318919Y-77236661D01*
X39458611Y-77054612D01*
X39573344Y-76855888D01*
X39661158Y-76643887D01*
X39720548Y-76422238D01*
X39750500Y-76194734D01*
X39750500Y-75965266D01*
X39720548Y-75737762D01*
X39661158Y-75516113D01*
X39573344Y-75304112D01*
X39458611Y-75105388D01*
X39318919Y-74923339D01*
X39156661Y-74761081D01*
X39156656Y-74761077D01*
X39156655Y-74761076D01*
X38974621Y-74621396D01*
X38974622Y-74621396D01*
X38974612Y-74621389D01*
X38974602Y-74621383D01*
X38775893Y-74506658D01*
X38775882Y-74506653D01*
X38563885Y-74418841D01*
X38435911Y-74384551D01*
X38342238Y-74359452D01*
X38342235Y-74359451D01*
X38342236Y-74359451D01*
X38260080Y-74348635D01*
X38246668Y-74346869D01*
X38154671Y-74315640D01*
X38081626Y-74251581D01*
X38038655Y-74164445D01*
X38032301Y-74067498D01*
X38063531Y-73975500D01*
X38127590Y-73902455D01*
X38214726Y-73859484D01*
X38246667Y-73853130D01*
X38342238Y-73840548D01*
X38563887Y-73781158D01*
X38775888Y-73693344D01*
X38974612Y-73578611D01*
X39156661Y-73438919D01*
X39318919Y-73276661D01*
X39458611Y-73094612D01*
X39473937Y-73068065D01*
X39487255Y-73045000D01*
X39551313Y-72971955D01*
X39638449Y-72928984D01*
X39702895Y-72920500D01*
X73008842Y-72920500D01*
X73163497Y-72889737D01*
X73309179Y-72829394D01*
X73440289Y-72741789D01*
X74870539Y-71311537D01*
X74951318Y-71257564D01*
X75046606Y-71238610D01*
X75141894Y-71257564D01*
X75184943Y-71280574D01*
X75275487Y-71341074D01*
X75275489Y-71341075D01*
X75402972Y-71393880D01*
X75402975Y-71393881D01*
X75536503Y-71420441D01*
X75538307Y-71420800D01*
X75676293Y-71420800D01*
X75743960Y-71407340D01*
X75811624Y-71393881D01*
X75811625Y-71393880D01*
X75811628Y-71393880D01*
X75939111Y-71341075D01*
X76053842Y-71264414D01*
X76053842Y-71264413D01*
X76056311Y-71262764D01*
X76146070Y-71225585D01*
X76194648Y-71220800D01*
X76433092Y-71220800D01*
X76560386Y-71186692D01*
X76651895Y-71133858D01*
X76743894Y-71102630D01*
X76776394Y-71100500D01*
X77415692Y-71100500D01*
X77415694Y-71100500D01*
X77452569Y-71097598D01*
X77610398Y-71051744D01*
X77751865Y-70968081D01*
X77868081Y-70851865D01*
X77951744Y-70710398D01*
X77997598Y-70552569D01*
X78000500Y-70515694D01*
X78000500Y-69484306D01*
X77997598Y-69447431D01*
X77951744Y-69289602D01*
X77868081Y-69148135D01*
X77868080Y-69148134D01*
X77858477Y-69135754D01*
X77860302Y-69134337D01*
X77818448Y-69071697D01*
X77799494Y-68976409D01*
X77818448Y-68881121D01*
X77834157Y-68849680D01*
X77901744Y-68735398D01*
X77947598Y-68577569D01*
X77950500Y-68540694D01*
X77950500Y-67687200D01*
X77969454Y-67591912D01*
X78023430Y-67511130D01*
X78104212Y-67457154D01*
X78199500Y-67438200D01*
X82252982Y-67438200D01*
X82348270Y-67457154D01*
X82429052Y-67511130D01*
X83076570Y-68158648D01*
X83130546Y-68239430D01*
X83149500Y-68334718D01*
X83149500Y-68540704D01*
X83152401Y-68577563D01*
X83152403Y-68577572D01*
X83198256Y-68735398D01*
X83281921Y-68876868D01*
X83283419Y-68878799D01*
X83285355Y-68882675D01*
X83289894Y-68890349D01*
X83289350Y-68890670D01*
X83326843Y-68965709D01*
X83333702Y-69062622D01*
X83302952Y-69154782D01*
X83300992Y-69158157D01*
X83223256Y-69289602D01*
X83177403Y-69447427D01*
X83177401Y-69447436D01*
X83174500Y-69484295D01*
X83174500Y-70515704D01*
X83177401Y-70552563D01*
X83177401Y-70552566D01*
X83177402Y-70552569D01*
X83223256Y-70710398D01*
X83306919Y-70851865D01*
X83423135Y-70968081D01*
X83564602Y-71051744D01*
X83722431Y-71097598D01*
X83759306Y-71100500D01*
X83759308Y-71100500D01*
X84377046Y-71100500D01*
X84418837Y-71108812D01*
X84460982Y-71115074D01*
X84465865Y-71118167D01*
X84472334Y-71119454D01*
X84544304Y-71165039D01*
X84548818Y-71169132D01*
X84711400Y-71331714D01*
X84804586Y-71424900D01*
X84853953Y-71453402D01*
X84918714Y-71490792D01*
X85046007Y-71524900D01*
X93466492Y-71524900D01*
X93593786Y-71490792D01*
X93707914Y-71424900D01*
X94153200Y-70979614D01*
X94219092Y-70865486D01*
X94253200Y-70738192D01*
X94253200Y-70738190D01*
X94255330Y-70722014D01*
X94258582Y-70722442D01*
X94272154Y-70654212D01*
X94326130Y-70573430D01*
X94406912Y-70519454D01*
X94502200Y-70500500D01*
X96975321Y-70500500D01*
X97070609Y-70519454D01*
X97151391Y-70573430D01*
X97205367Y-70654212D01*
X97214432Y-70680028D01*
X97223256Y-70710398D01*
X97306919Y-70851865D01*
X97423135Y-70968081D01*
X97564602Y-71051744D01*
X97722431Y-71097598D01*
X97759306Y-71100500D01*
X97759308Y-71100500D01*
X98415692Y-71100500D01*
X98415694Y-71100500D01*
X98452569Y-71097598D01*
X98610398Y-71051744D01*
X98751865Y-70968081D01*
X98823933Y-70896012D01*
X98904712Y-70842039D01*
X99000000Y-70823085D01*
X99095288Y-70842039D01*
X99176066Y-70896012D01*
X99248135Y-70968081D01*
X99389602Y-71051744D01*
X99547431Y-71097598D01*
X99584306Y-71100500D01*
X99584308Y-71100500D01*
X100202046Y-71100500D01*
X100297334Y-71119454D01*
X100378116Y-71173430D01*
X108513698Y-79309011D01*
X108513700Y-79309014D01*
X108606886Y-79402200D01*
X108606888Y-79402201D01*
X108615217Y-79410530D01*
X108669193Y-79491312D01*
X108688147Y-79586600D01*
X108669193Y-79681888D01*
X108615217Y-79762670D01*
X108534435Y-79816646D01*
X108439147Y-79835600D01*
X58685507Y-79835600D01*
X58558217Y-79869707D01*
X58558216Y-79869707D01*
X58558214Y-79869708D01*
X58463995Y-79924105D01*
X58444084Y-79935601D01*
X49553115Y-88826570D01*
X49472333Y-88880546D01*
X49377045Y-88899500D01*
X48759295Y-88899500D01*
X48722436Y-88902401D01*
X48722427Y-88902403D01*
X48564601Y-88948256D01*
X48423135Y-89031919D01*
X48306919Y-89148135D01*
X48223256Y-89289601D01*
X48177403Y-89447427D01*
X48177401Y-89447436D01*
X48174500Y-89484295D01*
X48174500Y-90515704D01*
X48177401Y-90552563D01*
X48177401Y-90552566D01*
X48177402Y-90552569D01*
X48223256Y-90710398D01*
X48306919Y-90851865D01*
X48423135Y-90968081D01*
X48564602Y-91051744D01*
X48722431Y-91097598D01*
X48759306Y-91100500D01*
X48759308Y-91100500D01*
X49415692Y-91100500D01*
X49415694Y-91100500D01*
X49452569Y-91097598D01*
X49610398Y-91051744D01*
X49751865Y-90968081D01*
X49823933Y-90896012D01*
X49904712Y-90842039D01*
X50000000Y-90823085D01*
X50095288Y-90842039D01*
X50176066Y-90896012D01*
X50248135Y-90968081D01*
X50389602Y-91051744D01*
X50547431Y-91097598D01*
X50584306Y-91100500D01*
X50584308Y-91100500D01*
X51240692Y-91100500D01*
X51240694Y-91100500D01*
X51277569Y-91097598D01*
X51435398Y-91051744D01*
X51576865Y-90968081D01*
X51693081Y-90851865D01*
X51776744Y-90710398D01*
X51822598Y-90552569D01*
X51825500Y-90515694D01*
X51825500Y-89897953D01*
X51844454Y-89802665D01*
X51898430Y-89721883D01*
X52070783Y-89549530D01*
X52151565Y-89495554D01*
X52246853Y-89476600D01*
X55925500Y-89476600D01*
X56020788Y-89495554D01*
X56101570Y-89549530D01*
X56155546Y-89630312D01*
X56174500Y-89725600D01*
X56174500Y-90515704D01*
X56177401Y-90552563D01*
X56177401Y-90552566D01*
X56177402Y-90552569D01*
X56223256Y-90710398D01*
X56306919Y-90851865D01*
X56423135Y-90968081D01*
X56564602Y-91051744D01*
X56722431Y-91097598D01*
X56759306Y-91100500D01*
X56759308Y-91100500D01*
X57377046Y-91100500D01*
X57472334Y-91119454D01*
X57553116Y-91173430D01*
X65426570Y-99046884D01*
X65480546Y-99127666D01*
X65499500Y-99222954D01*
X65499500Y-100573960D01*
X65480546Y-100669248D01*
X65426570Y-100750030D01*
X65363547Y-100795819D01*
X65344600Y-100805473D01*
X65344597Y-100805474D01*
X65344595Y-100805476D01*
X65344591Y-100805479D01*
X65185356Y-100921170D01*
X65046169Y-101060357D01*
X64951444Y-101190734D01*
X64880101Y-101256682D01*
X64788950Y-101290309D01*
X64691870Y-101286494D01*
X64603640Y-101245818D01*
X64548556Y-101190734D01*
X64453830Y-101060357D01*
X64453828Y-101060354D01*
X64314646Y-100921172D01*
X64256156Y-100878676D01*
X64155410Y-100805479D01*
X64155407Y-100805477D01*
X64155405Y-100805476D01*
X63980025Y-100716116D01*
X63980024Y-100716115D01*
X63980023Y-100716115D01*
X63980017Y-100716113D01*
X63835781Y-100669248D01*
X63792826Y-100655291D01*
X63792824Y-100655290D01*
X63792822Y-100655290D01*
X63598428Y-100624501D01*
X63598419Y-100624500D01*
X63598417Y-100624500D01*
X63401583Y-100624500D01*
X63401580Y-100624500D01*
X63401571Y-100624501D01*
X63207177Y-100655290D01*
X63019982Y-100716113D01*
X63019976Y-100716115D01*
X62939894Y-100756919D01*
X62844595Y-100805476D01*
X62844592Y-100805477D01*
X62844590Y-100805479D01*
X62844589Y-100805479D01*
X62685357Y-100921169D01*
X62546169Y-101060357D01*
X62430479Y-101219589D01*
X62430479Y-101219590D01*
X62430477Y-101219592D01*
X62430476Y-101219595D01*
X62394446Y-101290309D01*
X62341115Y-101394976D01*
X62341113Y-101394982D01*
X62280290Y-101582177D01*
X62249501Y-101776571D01*
X62249500Y-101776587D01*
X62249500Y-102223412D01*
X62249501Y-102223428D01*
X62280290Y-102417820D01*
X62280291Y-102417826D01*
X62341116Y-102605025D01*
X62430476Y-102780405D01*
X62430479Y-102780409D01*
X62430479Y-102780410D01*
X62538400Y-102928949D01*
X62546172Y-102939646D01*
X62685354Y-103078828D01*
X62685357Y-103078830D01*
X62824326Y-103179798D01*
X62844595Y-103194524D01*
X63019975Y-103283884D01*
X63207174Y-103344709D01*
X63401583Y-103375500D01*
X63401587Y-103375500D01*
X63598413Y-103375500D01*
X63598417Y-103375500D01*
X63792826Y-103344709D01*
X63980025Y-103283884D01*
X64155405Y-103194524D01*
X64302554Y-103087613D01*
X64390776Y-103046942D01*
X64487856Y-103043126D01*
X64579007Y-103076752D01*
X64624977Y-103112991D01*
X65549100Y-104037114D01*
X65549099Y-104037114D01*
X65642283Y-104130297D01*
X65642283Y-104130298D01*
X65642285Y-104130299D01*
X65642286Y-104130300D01*
X65756414Y-104196192D01*
X65883708Y-104230300D01*
X116496092Y-104230300D01*
X116623386Y-104196192D01*
X116737514Y-104130300D01*
X116989102Y-103878712D01*
X142149500Y-103878712D01*
X142149500Y-104121288D01*
X142159361Y-104196192D01*
X142181162Y-104361790D01*
X142181163Y-104361795D01*
X142243940Y-104596082D01*
X142243948Y-104596105D01*
X142336770Y-104820201D01*
X142336778Y-104820217D01*
X142458058Y-105030279D01*
X142458064Y-105030289D01*
X142605729Y-105222731D01*
X142605738Y-105222741D01*
X142777258Y-105394261D01*
X142777268Y-105394270D01*
X142898491Y-105487287D01*
X142969711Y-105541936D01*
X142969720Y-105541941D01*
X143179782Y-105663221D01*
X143179798Y-105663229D01*
X143319858Y-105721242D01*
X143403900Y-105756054D01*
X143403911Y-105756057D01*
X143403917Y-105756059D01*
X143587021Y-105805121D01*
X143638211Y-105818838D01*
X143878712Y-105850500D01*
X144121288Y-105850500D01*
X144361789Y-105818838D01*
X144523275Y-105775567D01*
X144596082Y-105756059D01*
X144596084Y-105756058D01*
X144596100Y-105756054D01*
X144747766Y-105693231D01*
X144820201Y-105663229D01*
X144820206Y-105663226D01*
X144820212Y-105663224D01*
X145030289Y-105541936D01*
X145222738Y-105394265D01*
X145394265Y-105222738D01*
X145541936Y-105030289D01*
X145663224Y-104820212D01*
X145756054Y-104596100D01*
X145818838Y-104361789D01*
X145850500Y-104121288D01*
X145850500Y-103878712D01*
X145818838Y-103638211D01*
X145756054Y-103403900D01*
X145689441Y-103243081D01*
X145663229Y-103179798D01*
X145663221Y-103179782D01*
X145577971Y-103032126D01*
X145541936Y-102969711D01*
X145432862Y-102827563D01*
X145394270Y-102777268D01*
X145394261Y-102777258D01*
X145222741Y-102605738D01*
X145222731Y-102605729D01*
X145030289Y-102458064D01*
X145030279Y-102458058D01*
X144820217Y-102336778D01*
X144820201Y-102336770D01*
X144596105Y-102243948D01*
X144596103Y-102243947D01*
X144596100Y-102243946D01*
X144596096Y-102243945D01*
X144596082Y-102243940D01*
X144361795Y-102181163D01*
X144361790Y-102181162D01*
X144121288Y-102149500D01*
X143878712Y-102149500D01*
X143638209Y-102181162D01*
X143638204Y-102181163D01*
X143403917Y-102243940D01*
X143403894Y-102243948D01*
X143179798Y-102336770D01*
X143179782Y-102336778D01*
X142969720Y-102458058D01*
X142969710Y-102458064D01*
X142777268Y-102605729D01*
X142777258Y-102605738D01*
X142605738Y-102777258D01*
X142605729Y-102777268D01*
X142458064Y-102969710D01*
X142458058Y-102969720D01*
X142336778Y-103179782D01*
X142336770Y-103179798D01*
X142243948Y-103403894D01*
X142243940Y-103403917D01*
X142181163Y-103638204D01*
X142181162Y-103638209D01*
X142181162Y-103638211D01*
X142149500Y-103878712D01*
X116989102Y-103878712D01*
X127179014Y-93688799D01*
X127259792Y-93634826D01*
X127355080Y-93615872D01*
X127450368Y-93634826D01*
X127531150Y-93688802D01*
X127585126Y-93769584D01*
X127604080Y-93864872D01*
X127601015Y-93903819D01*
X127599501Y-93913378D01*
X127599501Y-93913380D01*
X127599500Y-93913389D01*
X127599500Y-94086611D01*
X127599500Y-94086614D01*
X127599501Y-94086621D01*
X127626597Y-94257697D01*
X127680124Y-94422437D01*
X127680126Y-94422443D01*
X127758770Y-94576792D01*
X127860581Y-94716922D01*
X127860583Y-94716924D01*
X127860586Y-94716928D01*
X127983072Y-94839414D01*
X127983075Y-94839416D01*
X127983077Y-94839418D01*
X128123207Y-94941229D01*
X128123209Y-94941230D01*
X128123212Y-94941232D01*
X128277555Y-95019873D01*
X128442299Y-95073402D01*
X128613389Y-95100500D01*
X128613393Y-95100500D01*
X128786607Y-95100500D01*
X128786611Y-95100500D01*
X128957701Y-95073402D01*
X129122445Y-95019873D01*
X129276788Y-94941232D01*
X129416928Y-94839414D01*
X129539414Y-94716928D01*
X129641232Y-94576788D01*
X129719873Y-94422445D01*
X129773402Y-94257701D01*
X129800500Y-94086611D01*
X129800500Y-93913389D01*
X132679500Y-93913389D01*
X132679500Y-94086611D01*
X132679500Y-94086614D01*
X132679501Y-94086621D01*
X132706597Y-94257697D01*
X132760124Y-94422437D01*
X132760126Y-94422443D01*
X132838770Y-94576792D01*
X132940581Y-94716922D01*
X132940583Y-94716924D01*
X132940586Y-94716928D01*
X133063072Y-94839414D01*
X133063075Y-94839416D01*
X133063077Y-94839418D01*
X133203207Y-94941229D01*
X133203209Y-94941230D01*
X133203212Y-94941232D01*
X133357555Y-95019873D01*
X133522299Y-95073402D01*
X133693389Y-95100500D01*
X133693393Y-95100500D01*
X133866607Y-95100500D01*
X133866611Y-95100500D01*
X134037701Y-95073402D01*
X134202445Y-95019873D01*
X134356788Y-94941232D01*
X134496928Y-94839414D01*
X134619414Y-94716928D01*
X134721232Y-94576788D01*
X134799873Y-94422445D01*
X134853402Y-94257701D01*
X134880500Y-94086611D01*
X134880500Y-93913389D01*
X134853402Y-93742299D01*
X134799873Y-93577555D01*
X134721232Y-93423212D01*
X134721230Y-93423209D01*
X134721229Y-93423207D01*
X134619418Y-93283077D01*
X134619416Y-93283075D01*
X134619414Y-93283072D01*
X134496928Y-93160586D01*
X134496924Y-93160583D01*
X134496922Y-93160581D01*
X134356792Y-93058770D01*
X134202443Y-92980126D01*
X134202437Y-92980124D01*
X134108195Y-92949503D01*
X134037701Y-92926598D01*
X134037699Y-92926597D01*
X134037697Y-92926597D01*
X133866621Y-92899501D01*
X133866614Y-92899500D01*
X133866611Y-92899500D01*
X133693389Y-92899500D01*
X133693386Y-92899500D01*
X133693378Y-92899501D01*
X133522302Y-92926597D01*
X133357562Y-92980124D01*
X133357556Y-92980126D01*
X133203207Y-93058770D01*
X133063077Y-93160581D01*
X132940581Y-93283077D01*
X132838770Y-93423207D01*
X132760126Y-93577556D01*
X132760124Y-93577562D01*
X132706597Y-93742302D01*
X132679501Y-93913378D01*
X132679501Y-93913380D01*
X132679500Y-93913389D01*
X129800500Y-93913389D01*
X129773402Y-93742299D01*
X129719873Y-93577555D01*
X129641232Y-93423212D01*
X129641230Y-93423209D01*
X129641229Y-93423207D01*
X129539418Y-93283077D01*
X129539416Y-93283075D01*
X129539414Y-93283072D01*
X129416928Y-93160586D01*
X129416924Y-93160583D01*
X129416922Y-93160581D01*
X129276792Y-93058770D01*
X129122443Y-92980126D01*
X129122437Y-92980124D01*
X129028195Y-92949503D01*
X128957701Y-92926598D01*
X128957699Y-92926597D01*
X128957697Y-92926597D01*
X128786621Y-92899501D01*
X128786614Y-92899500D01*
X128786611Y-92899500D01*
X128613389Y-92899500D01*
X128613386Y-92899500D01*
X128613378Y-92899501D01*
X128603819Y-92901015D01*
X128506739Y-92897199D01*
X128418509Y-92856522D01*
X128352562Y-92785178D01*
X128318937Y-92694027D01*
X128322753Y-92596947D01*
X128363430Y-92508717D01*
X128388794Y-92479018D01*
X133339453Y-87528359D01*
X133420232Y-87474386D01*
X133515520Y-87455432D01*
X133554473Y-87458498D01*
X133581354Y-87462755D01*
X133693389Y-87480500D01*
X133693393Y-87480500D01*
X133866607Y-87480500D01*
X133866611Y-87480500D01*
X134037701Y-87453402D01*
X134202445Y-87399873D01*
X134356788Y-87321232D01*
X134496928Y-87219414D01*
X134619414Y-87096928D01*
X134721232Y-86956788D01*
X134799873Y-86802445D01*
X134853402Y-86637701D01*
X134880500Y-86466611D01*
X134880500Y-86293389D01*
X134853402Y-86122299D01*
X134799873Y-85957555D01*
X134721232Y-85803212D01*
X134721230Y-85803209D01*
X134721229Y-85803207D01*
X134619418Y-85663077D01*
X134619416Y-85663075D01*
X134619414Y-85663072D01*
X134496928Y-85540586D01*
X134496924Y-85540583D01*
X134496922Y-85540581D01*
X134356792Y-85438770D01*
X134202443Y-85360126D01*
X134202437Y-85360124D01*
X134108195Y-85329503D01*
X134037701Y-85306598D01*
X134037699Y-85306597D01*
X134037697Y-85306597D01*
X133866621Y-85279501D01*
X133866614Y-85279500D01*
X133866611Y-85279500D01*
X133693389Y-85279500D01*
X133693386Y-85279500D01*
X133693378Y-85279501D01*
X133522302Y-85306597D01*
X133357562Y-85360124D01*
X133357556Y-85360126D01*
X133203207Y-85438770D01*
X133063077Y-85540581D01*
X132940581Y-85663077D01*
X132838770Y-85803207D01*
X132760126Y-85957556D01*
X132760124Y-85957562D01*
X132706597Y-86122302D01*
X132679501Y-86293378D01*
X132679500Y-86293393D01*
X132679500Y-86466606D01*
X132679501Y-86466622D01*
X132701501Y-86605525D01*
X132697687Y-86702605D01*
X132657012Y-86790836D01*
X132631637Y-86820547D01*
X125140989Y-94311195D01*
X125060207Y-94365171D01*
X124964919Y-94384125D01*
X124869631Y-94365171D01*
X124788849Y-94311195D01*
X124734873Y-94230413D01*
X124715919Y-94135125D01*
X124718986Y-94096167D01*
X124720500Y-94086611D01*
X124720500Y-93913389D01*
X124693402Y-93742299D01*
X124639873Y-93577555D01*
X124561232Y-93423212D01*
X124561230Y-93423209D01*
X124561229Y-93423207D01*
X124459418Y-93283077D01*
X124459416Y-93283075D01*
X124459414Y-93283072D01*
X124336928Y-93160586D01*
X124336924Y-93160583D01*
X124336922Y-93160581D01*
X124196792Y-93058770D01*
X124042443Y-92980126D01*
X124042437Y-92980124D01*
X123948195Y-92949503D01*
X123877701Y-92926598D01*
X123877699Y-92926597D01*
X123877697Y-92926597D01*
X123706621Y-92899501D01*
X123706614Y-92899500D01*
X123706611Y-92899500D01*
X123533389Y-92899500D01*
X123533388Y-92899500D01*
X123394472Y-92921502D01*
X123297392Y-92917687D01*
X123209162Y-92877012D01*
X123179452Y-92851637D01*
X122925615Y-92597801D01*
X122925616Y-92597801D01*
X122908661Y-92588012D01*
X122811486Y-92531908D01*
X122811483Y-92531907D01*
X122811481Y-92531906D01*
X122684192Y-92497800D01*
X94852154Y-92497800D01*
X94756866Y-92478846D01*
X94676084Y-92424870D01*
X93644196Y-91392982D01*
X93590220Y-91312200D01*
X93571266Y-91216912D01*
X93590220Y-91121624D01*
X93644196Y-91040842D01*
X93664034Y-91023024D01*
X93678027Y-91011748D01*
X93751865Y-90968081D01*
X93833372Y-90886573D01*
X93843768Y-90878197D01*
X93875209Y-90861751D01*
X93904712Y-90842039D01*
X93917921Y-90839411D01*
X93929858Y-90833168D01*
X93965201Y-90830006D01*
X94000000Y-90823085D01*
X94013211Y-90825712D01*
X94026627Y-90824513D01*
X94060486Y-90835116D01*
X94095288Y-90842039D01*
X94106488Y-90849522D01*
X94119342Y-90853548D01*
X94146564Y-90876300D01*
X94176066Y-90896012D01*
X94248135Y-90968081D01*
X94389602Y-91051744D01*
X94547431Y-91097598D01*
X94584306Y-91100500D01*
X94584308Y-91100500D01*
X95240692Y-91100500D01*
X95240694Y-91100500D01*
X95277569Y-91097598D01*
X95435398Y-91051744D01*
X95576865Y-90968081D01*
X95693081Y-90851865D01*
X95776744Y-90710398D01*
X95822598Y-90552569D01*
X95825500Y-90515694D01*
X95825500Y-89897953D01*
X95844454Y-89802666D01*
X95898430Y-89721884D01*
X101182484Y-84437830D01*
X101263266Y-84383854D01*
X101358554Y-84364900D01*
X124326147Y-84364900D01*
X124421435Y-84383854D01*
X124502217Y-84437830D01*
X124556193Y-84518612D01*
X124575147Y-84613900D01*
X124556193Y-84709188D01*
X124502219Y-84789965D01*
X124383397Y-84908788D01*
X124060547Y-85231637D01*
X123979766Y-85285613D01*
X123884477Y-85304567D01*
X123845527Y-85301502D01*
X123706611Y-85279500D01*
X123533389Y-85279500D01*
X123533386Y-85279500D01*
X123533378Y-85279501D01*
X123362302Y-85306597D01*
X123197562Y-85360124D01*
X123197556Y-85360126D01*
X123043207Y-85438770D01*
X122903077Y-85540581D01*
X122780581Y-85663077D01*
X122678770Y-85803207D01*
X122600126Y-85957556D01*
X122600124Y-85957562D01*
X122546597Y-86122302D01*
X122519501Y-86293378D01*
X122519500Y-86293393D01*
X122519500Y-86466606D01*
X122519501Y-86466621D01*
X122546597Y-86637697D01*
X122600124Y-86802437D01*
X122600126Y-86802443D01*
X122678770Y-86956792D01*
X122780581Y-87096922D01*
X122780583Y-87096924D01*
X122780586Y-87096928D01*
X122903072Y-87219414D01*
X122903075Y-87219416D01*
X122903077Y-87219418D01*
X123043207Y-87321229D01*
X123043209Y-87321230D01*
X123043212Y-87321232D01*
X123197555Y-87399873D01*
X123362299Y-87453402D01*
X123533389Y-87480500D01*
X123533393Y-87480500D01*
X123706607Y-87480500D01*
X123706611Y-87480500D01*
X123877701Y-87453402D01*
X124042445Y-87399873D01*
X124196788Y-87321232D01*
X124336928Y-87219414D01*
X124459414Y-87096928D01*
X124561232Y-86956788D01*
X124639873Y-86802445D01*
X124693402Y-86637701D01*
X124720500Y-86466611D01*
X124720500Y-86293389D01*
X124698498Y-86154473D01*
X124702312Y-86057392D01*
X124742987Y-85969162D01*
X124768363Y-85939450D01*
X125813385Y-84894430D01*
X125894166Y-84840454D01*
X125989454Y-84821500D01*
X128363154Y-84821500D01*
X128458442Y-84840454D01*
X128539224Y-84894430D01*
X128593200Y-84975212D01*
X128612154Y-85070500D01*
X128593200Y-85165788D01*
X128539224Y-85246570D01*
X128458442Y-85300546D01*
X128440102Y-85307311D01*
X128409107Y-85317382D01*
X128277562Y-85360124D01*
X128277556Y-85360126D01*
X128123207Y-85438770D01*
X127983077Y-85540581D01*
X127860581Y-85663077D01*
X127758770Y-85803207D01*
X127680126Y-85957556D01*
X127680124Y-85957562D01*
X127626597Y-86122302D01*
X127599501Y-86293378D01*
X127599500Y-86293393D01*
X127599500Y-86466606D01*
X127599501Y-86466621D01*
X127626597Y-86637697D01*
X127680124Y-86802437D01*
X127680126Y-86802443D01*
X127758770Y-86956792D01*
X127860581Y-87096922D01*
X127860583Y-87096924D01*
X127860586Y-87096928D01*
X127983072Y-87219414D01*
X127983075Y-87219416D01*
X127983077Y-87219418D01*
X128123207Y-87321229D01*
X128123209Y-87321230D01*
X128123212Y-87321232D01*
X128277555Y-87399873D01*
X128442299Y-87453402D01*
X128613389Y-87480500D01*
X128613393Y-87480500D01*
X128786607Y-87480500D01*
X128786611Y-87480500D01*
X128957701Y-87453402D01*
X129122445Y-87399873D01*
X129276788Y-87321232D01*
X129416928Y-87219414D01*
X129539414Y-87096928D01*
X129641232Y-86956788D01*
X129719873Y-86802445D01*
X129773402Y-86637701D01*
X129800500Y-86466611D01*
X129800500Y-86293389D01*
X129773402Y-86122299D01*
X129719873Y-85957555D01*
X129641232Y-85803212D01*
X129641230Y-85803209D01*
X129641229Y-85803207D01*
X129539418Y-85663077D01*
X129539416Y-85663075D01*
X129539414Y-85663072D01*
X129416928Y-85540586D01*
X129416924Y-85540583D01*
X129416922Y-85540581D01*
X129276792Y-85438770D01*
X129122443Y-85360126D01*
X129122437Y-85360124D01*
X129008509Y-85323106D01*
X128959900Y-85307312D01*
X128875134Y-85259841D01*
X128814985Y-85183544D01*
X128788614Y-85090036D01*
X128800033Y-84993555D01*
X128847505Y-84908788D01*
X128923802Y-84848639D01*
X129017310Y-84822268D01*
X129036846Y-84821500D01*
X132971792Y-84821500D01*
X133099086Y-84787392D01*
X133213214Y-84721500D01*
X136209584Y-81725130D01*
X136290366Y-81671154D01*
X136385654Y-81652200D01*
X142065892Y-81652200D01*
X142193186Y-81618092D01*
X142307314Y-81552200D01*
X142400500Y-81459014D01*
X142466392Y-81344886D01*
X142473498Y-81318363D01*
X142516466Y-81231231D01*
X142589510Y-81167171D01*
X142600972Y-81160948D01*
X142605019Y-81158885D01*
X142605025Y-81158884D01*
X142780405Y-81069524D01*
X142939646Y-80953828D01*
X143078828Y-80814646D01*
X143194524Y-80655405D01*
X143283884Y-80480025D01*
X143344709Y-80292826D01*
X143375500Y-80098417D01*
X143375500Y-79901583D01*
X143344709Y-79707174D01*
X143283884Y-79519975D01*
X143194524Y-79344595D01*
X143097000Y-79210366D01*
X143056325Y-79122136D01*
X143052510Y-79025056D01*
X143086137Y-78933906D01*
X143122367Y-78887946D01*
X144137500Y-77872814D01*
X144203392Y-77758686D01*
X144237500Y-77631392D01*
X144237500Y-77499608D01*
X144237500Y-53871108D01*
X144227614Y-53834214D01*
X144203393Y-53743818D01*
X144203392Y-53743814D01*
X144137500Y-53629686D01*
X144137499Y-53629685D01*
X144137498Y-53629683D01*
X144044314Y-53536499D01*
X144044314Y-53536500D01*
X143121323Y-52613509D01*
X143067347Y-52532727D01*
X143048393Y-52437439D01*
X143067347Y-52342151D01*
X143095945Y-52291085D01*
X143194524Y-52155405D01*
X143283884Y-51980025D01*
X143344709Y-51792826D01*
X143375500Y-51598417D01*
X143375500Y-51401583D01*
X143344709Y-51207174D01*
X143283884Y-51019975D01*
X143194524Y-50844595D01*
X143178164Y-50822078D01*
X143078830Y-50685357D01*
X143078828Y-50685354D01*
X142939646Y-50546172D01*
X142899965Y-50517342D01*
X142780410Y-50430479D01*
X142780407Y-50430477D01*
X142780405Y-50430476D01*
X142605025Y-50341116D01*
X142605024Y-50341115D01*
X142605023Y-50341115D01*
X142605017Y-50341113D01*
X142497928Y-50306318D01*
X142417826Y-50280291D01*
X142417824Y-50280290D01*
X142417822Y-50280290D01*
X142223428Y-50249501D01*
X142223419Y-50249500D01*
X142223417Y-50249500D01*
X141776583Y-50249500D01*
X141776580Y-50249500D01*
X141776571Y-50249501D01*
X141582177Y-50280290D01*
X141394982Y-50341113D01*
X141394976Y-50341115D01*
X141325404Y-50376564D01*
X141219595Y-50430476D01*
X141219592Y-50430477D01*
X141219590Y-50430479D01*
X141219589Y-50430479D01*
X141060357Y-50546169D01*
X140921169Y-50685357D01*
X140805479Y-50844589D01*
X140805479Y-50844590D01*
X140716115Y-51019976D01*
X140716113Y-51019982D01*
X140655290Y-51207177D01*
X140624501Y-51401571D01*
X140624500Y-51401587D01*
X140624500Y-51598412D01*
X140624501Y-51598428D01*
X140654422Y-51787342D01*
X140655291Y-51792826D01*
X140716116Y-51980025D01*
X140805476Y-52155405D01*
X140805479Y-52155409D01*
X140805479Y-52155410D01*
X140894631Y-52278116D01*
X140921172Y-52314646D01*
X141060354Y-52453828D01*
X141060357Y-52453830D01*
X141190734Y-52548556D01*
X141256682Y-52619899D01*
X141290309Y-52711050D01*
X141286494Y-52808130D01*
X141245818Y-52896360D01*
X141190734Y-52951444D01*
X141060357Y-53046169D01*
X140921169Y-53185357D01*
X140805479Y-53344589D01*
X140805479Y-53344590D01*
X140805477Y-53344592D01*
X140805476Y-53344595D01*
X140788575Y-53377766D01*
X140716115Y-53519976D01*
X140716113Y-53519982D01*
X140655290Y-53707177D01*
X140624501Y-53901571D01*
X140624500Y-53901587D01*
X140624500Y-54098412D01*
X140624501Y-54098428D01*
X140655290Y-54292822D01*
X140655291Y-54292826D01*
X140681318Y-54372928D01*
X140711760Y-54466621D01*
X140716116Y-54480025D01*
X140805476Y-54655405D01*
X140805479Y-54655409D01*
X140805479Y-54655410D01*
X140915767Y-54807207D01*
X140921172Y-54814646D01*
X141060354Y-54953828D01*
X141102876Y-54984722D01*
X141212583Y-55064430D01*
X141219595Y-55069524D01*
X141394975Y-55158884D01*
X141582174Y-55219709D01*
X141776583Y-55250500D01*
X141776587Y-55250500D01*
X142223413Y-55250500D01*
X142223417Y-55250500D01*
X142417826Y-55219709D01*
X142605025Y-55158884D01*
X142780405Y-55069524D01*
X142841142Y-55025395D01*
X142929369Y-54984722D01*
X143026450Y-54980906D01*
X143117600Y-55014532D01*
X143188944Y-55080480D01*
X143229619Y-55168710D01*
X143236500Y-55226841D01*
X143236500Y-67810046D01*
X143217546Y-67905334D01*
X143163570Y-67986116D01*
X143082788Y-68040092D01*
X142987500Y-68059046D01*
X142892212Y-68040092D01*
X142811430Y-67986116D01*
X137650613Y-62825299D01*
X132473214Y-57647900D01*
X132359086Y-57582008D01*
X132359083Y-57582007D01*
X132359081Y-57582006D01*
X132231792Y-57547900D01*
X127598854Y-57547900D01*
X127503566Y-57528946D01*
X127422784Y-57474970D01*
X124768362Y-54820548D01*
X124763502Y-54813274D01*
X124756584Y-54807923D01*
X124736668Y-54773114D01*
X124714386Y-54739766D01*
X124712679Y-54731186D01*
X124708336Y-54723595D01*
X124706293Y-54699082D01*
X124695432Y-54644478D01*
X124696031Y-54627223D01*
X124696788Y-54616320D01*
X124720500Y-54466611D01*
X124720500Y-54293393D01*
X127599500Y-54293393D01*
X127599500Y-54466606D01*
X127599501Y-54466621D01*
X127624938Y-54627223D01*
X127626598Y-54637701D01*
X127632352Y-54655409D01*
X127680124Y-54802437D01*
X127680126Y-54802443D01*
X127758770Y-54956792D01*
X127860581Y-55096922D01*
X127860583Y-55096924D01*
X127860586Y-55096928D01*
X127983072Y-55219414D01*
X127983075Y-55219416D01*
X127983077Y-55219418D01*
X128123207Y-55321229D01*
X128123209Y-55321230D01*
X128123212Y-55321232D01*
X128277555Y-55399873D01*
X128442299Y-55453402D01*
X128613389Y-55480500D01*
X128613393Y-55480500D01*
X128786607Y-55480500D01*
X128786611Y-55480500D01*
X128957701Y-55453402D01*
X129122445Y-55399873D01*
X129276788Y-55321232D01*
X129416928Y-55219414D01*
X129539414Y-55096928D01*
X129641232Y-54956788D01*
X129719873Y-54802445D01*
X129773402Y-54637701D01*
X129800500Y-54466611D01*
X129800500Y-54293393D01*
X132679500Y-54293393D01*
X132679500Y-54466606D01*
X132679501Y-54466621D01*
X132704938Y-54627223D01*
X132706598Y-54637701D01*
X132712352Y-54655409D01*
X132760124Y-54802437D01*
X132760126Y-54802443D01*
X132838770Y-54956792D01*
X132940581Y-55096922D01*
X132940583Y-55096924D01*
X132940586Y-55096928D01*
X133063072Y-55219414D01*
X133063075Y-55219416D01*
X133063077Y-55219418D01*
X133203207Y-55321229D01*
X133203209Y-55321230D01*
X133203212Y-55321232D01*
X133357555Y-55399873D01*
X133522299Y-55453402D01*
X133693389Y-55480500D01*
X133693393Y-55480500D01*
X133866607Y-55480500D01*
X133866611Y-55480500D01*
X134037701Y-55453402D01*
X134202445Y-55399873D01*
X134356788Y-55321232D01*
X134496928Y-55219414D01*
X134619414Y-55096928D01*
X134721232Y-54956788D01*
X134799873Y-54802445D01*
X134853402Y-54637701D01*
X134880500Y-54466611D01*
X134880500Y-54293389D01*
X134853402Y-54122299D01*
X134799873Y-53957555D01*
X134721232Y-53803212D01*
X134721230Y-53803209D01*
X134721229Y-53803207D01*
X134619418Y-53663077D01*
X134619416Y-53663075D01*
X134619414Y-53663072D01*
X134496928Y-53540586D01*
X134496924Y-53540583D01*
X134496922Y-53540581D01*
X134356792Y-53438770D01*
X134202443Y-53360126D01*
X134202437Y-53360124D01*
X134108195Y-53329503D01*
X134037701Y-53306598D01*
X134037699Y-53306597D01*
X134037697Y-53306597D01*
X133866621Y-53279501D01*
X133866614Y-53279500D01*
X133866611Y-53279500D01*
X133693389Y-53279500D01*
X133693386Y-53279500D01*
X133693378Y-53279501D01*
X133522302Y-53306597D01*
X133357562Y-53360124D01*
X133357556Y-53360126D01*
X133203207Y-53438770D01*
X133063077Y-53540581D01*
X132940581Y-53663077D01*
X132838770Y-53803207D01*
X132760126Y-53957556D01*
X132760124Y-53957562D01*
X132706597Y-54122302D01*
X132679501Y-54293378D01*
X132679500Y-54293393D01*
X129800500Y-54293393D01*
X129800500Y-54293389D01*
X129773402Y-54122299D01*
X129719873Y-53957555D01*
X129641232Y-53803212D01*
X129641230Y-53803209D01*
X129641229Y-53803207D01*
X129539418Y-53663077D01*
X129539416Y-53663075D01*
X129539414Y-53663072D01*
X129416928Y-53540586D01*
X129416924Y-53540583D01*
X129416922Y-53540581D01*
X129276792Y-53438770D01*
X129122443Y-53360126D01*
X129122437Y-53360124D01*
X129028195Y-53329503D01*
X128957701Y-53306598D01*
X128957699Y-53306597D01*
X128957697Y-53306597D01*
X128786621Y-53279501D01*
X128786614Y-53279500D01*
X128786611Y-53279500D01*
X128613389Y-53279500D01*
X128613386Y-53279500D01*
X128613378Y-53279501D01*
X128442302Y-53306597D01*
X128277562Y-53360124D01*
X128277556Y-53360126D01*
X128123207Y-53438770D01*
X127983077Y-53540581D01*
X127860581Y-53663077D01*
X127758770Y-53803207D01*
X127680126Y-53957556D01*
X127680124Y-53957562D01*
X127626597Y-54122302D01*
X127599501Y-54293378D01*
X127599500Y-54293393D01*
X124720500Y-54293393D01*
X124720500Y-54293389D01*
X124693402Y-54122299D01*
X124639873Y-53957555D01*
X124561232Y-53803212D01*
X124561230Y-53803209D01*
X124561229Y-53803207D01*
X124459418Y-53663077D01*
X124459416Y-53663075D01*
X124459414Y-53663072D01*
X124336928Y-53540586D01*
X124336924Y-53540583D01*
X124336922Y-53540581D01*
X124196792Y-53438770D01*
X124042443Y-53360126D01*
X124042437Y-53360124D01*
X123948195Y-53329503D01*
X123877701Y-53306598D01*
X123877699Y-53306597D01*
X123877697Y-53306597D01*
X123706621Y-53279501D01*
X123706614Y-53279500D01*
X123706611Y-53279500D01*
X123533389Y-53279500D01*
X123533386Y-53279500D01*
X123533378Y-53279501D01*
X123362302Y-53306597D01*
X123197562Y-53360124D01*
X123197556Y-53360126D01*
X123043207Y-53438770D01*
X122903077Y-53540581D01*
X122780581Y-53663077D01*
X122678770Y-53803207D01*
X122600126Y-53957556D01*
X122600124Y-53957562D01*
X122546597Y-54122302D01*
X122519501Y-54293378D01*
X122519500Y-54293393D01*
X122519500Y-54466606D01*
X122519501Y-54466621D01*
X122544938Y-54627223D01*
X122546598Y-54637701D01*
X122552352Y-54655409D01*
X122600124Y-54802437D01*
X122600126Y-54802443D01*
X122678770Y-54956792D01*
X122780581Y-55096922D01*
X122780583Y-55096924D01*
X122780586Y-55096928D01*
X122903072Y-55219414D01*
X122903075Y-55219416D01*
X122903077Y-55219418D01*
X123043207Y-55321229D01*
X123043209Y-55321230D01*
X123043212Y-55321232D01*
X123197555Y-55399873D01*
X123362299Y-55453402D01*
X123533389Y-55480500D01*
X123533393Y-55480500D01*
X123706607Y-55480500D01*
X123706611Y-55480500D01*
X123845525Y-55458498D01*
X123942605Y-55462312D01*
X124030836Y-55502986D01*
X124060548Y-55528362D01*
X126981086Y-58448900D01*
X127095214Y-58514792D01*
X127222508Y-58548900D01*
X127354292Y-58548900D01*
X131855446Y-58548900D01*
X131950734Y-58567854D01*
X132031516Y-58621830D01*
X133884116Y-60474430D01*
X133938092Y-60555212D01*
X133957046Y-60650500D01*
X133938092Y-60745788D01*
X133884116Y-60826570D01*
X133803334Y-60880546D01*
X133708046Y-60899500D01*
X133693389Y-60899500D01*
X133693386Y-60899500D01*
X133693378Y-60899501D01*
X133522302Y-60926597D01*
X133357562Y-60980124D01*
X133357556Y-60980126D01*
X133203207Y-61058770D01*
X133063077Y-61160581D01*
X132940581Y-61283077D01*
X132838770Y-61423207D01*
X132760126Y-61577556D01*
X132760124Y-61577562D01*
X132706597Y-61742302D01*
X132679501Y-61913378D01*
X132679500Y-61913393D01*
X132679500Y-62086606D01*
X132679501Y-62086621D01*
X132705457Y-62250498D01*
X132706598Y-62257701D01*
X132706837Y-62258436D01*
X132760124Y-62422437D01*
X132760126Y-62422443D01*
X132838770Y-62576792D01*
X132940581Y-62716922D01*
X132940583Y-62716924D01*
X132940586Y-62716928D01*
X133063072Y-62839414D01*
X133063075Y-62839416D01*
X133063077Y-62839418D01*
X133203207Y-62941229D01*
X133203209Y-62941230D01*
X133203212Y-62941232D01*
X133357555Y-63019873D01*
X133522299Y-63073402D01*
X133693389Y-63100500D01*
X133693393Y-63100500D01*
X133866607Y-63100500D01*
X133866611Y-63100500D01*
X134037701Y-63073402D01*
X134202445Y-63019873D01*
X134356788Y-62941232D01*
X134496928Y-62839414D01*
X134619414Y-62716928D01*
X134721232Y-62576788D01*
X134799873Y-62422445D01*
X134853402Y-62257701D01*
X134880500Y-62086611D01*
X134880500Y-62071953D01*
X134899454Y-61976665D01*
X134953430Y-61895883D01*
X135034212Y-61841907D01*
X135129500Y-61822953D01*
X135224788Y-61841907D01*
X135305567Y-61895881D01*
X137064597Y-63654911D01*
X138827570Y-65417884D01*
X138881546Y-65498666D01*
X138900500Y-65593954D01*
X138881546Y-65689242D01*
X138827570Y-65770024D01*
X138746788Y-65824000D01*
X138651500Y-65842954D01*
X138556212Y-65824000D01*
X138499914Y-65791496D01*
X138497317Y-65789503D01*
X138497314Y-65789500D01*
X138383186Y-65723608D01*
X138383183Y-65723607D01*
X138383181Y-65723606D01*
X138255892Y-65689500D01*
X125066654Y-65689500D01*
X124971366Y-65670546D01*
X124890584Y-65616570D01*
X122199584Y-62925570D01*
X122145608Y-62844788D01*
X122126654Y-62749500D01*
X122145608Y-62654212D01*
X122199584Y-62573430D01*
X122280366Y-62519454D01*
X122375654Y-62500500D01*
X122496469Y-62500500D01*
X122591757Y-62519454D01*
X122672539Y-62573430D01*
X122697914Y-62603141D01*
X122780581Y-62716922D01*
X122780583Y-62716924D01*
X122780586Y-62716928D01*
X122903072Y-62839414D01*
X122903075Y-62839416D01*
X122903077Y-62839418D01*
X123043207Y-62941229D01*
X123043209Y-62941230D01*
X123043212Y-62941232D01*
X123197555Y-63019873D01*
X123362299Y-63073402D01*
X123533389Y-63100500D01*
X123533393Y-63100500D01*
X123706607Y-63100500D01*
X123706611Y-63100500D01*
X123877701Y-63073402D01*
X124042445Y-63019873D01*
X124196788Y-62941232D01*
X124336928Y-62839414D01*
X124459414Y-62716928D01*
X124561232Y-62576788D01*
X124639873Y-62422445D01*
X124693402Y-62257701D01*
X124720500Y-62086611D01*
X124720500Y-61913393D01*
X127599500Y-61913393D01*
X127599500Y-62086606D01*
X127599501Y-62086621D01*
X127625457Y-62250498D01*
X127626598Y-62257701D01*
X127626837Y-62258436D01*
X127680124Y-62422437D01*
X127680126Y-62422443D01*
X127758770Y-62576792D01*
X127860581Y-62716922D01*
X127860583Y-62716924D01*
X127860586Y-62716928D01*
X127983072Y-62839414D01*
X127983075Y-62839416D01*
X127983077Y-62839418D01*
X128123207Y-62941229D01*
X128123209Y-62941230D01*
X128123212Y-62941232D01*
X128277555Y-63019873D01*
X128442299Y-63073402D01*
X128613389Y-63100500D01*
X128613393Y-63100500D01*
X128786607Y-63100500D01*
X128786611Y-63100500D01*
X128957701Y-63073402D01*
X129122445Y-63019873D01*
X129276788Y-62941232D01*
X129416928Y-62839414D01*
X129539414Y-62716928D01*
X129641232Y-62576788D01*
X129719873Y-62422445D01*
X129773402Y-62257701D01*
X129800500Y-62086611D01*
X129800500Y-61913389D01*
X129773402Y-61742299D01*
X129719873Y-61577555D01*
X129641232Y-61423212D01*
X129641230Y-61423209D01*
X129641229Y-61423207D01*
X129539418Y-61283077D01*
X129539416Y-61283075D01*
X129539414Y-61283072D01*
X129416928Y-61160586D01*
X129416924Y-61160583D01*
X129416922Y-61160581D01*
X129276792Y-61058770D01*
X129122443Y-60980126D01*
X129122437Y-60980124D01*
X129024006Y-60948142D01*
X128957701Y-60926598D01*
X128957699Y-60926597D01*
X128957697Y-60926597D01*
X128786621Y-60899501D01*
X128786614Y-60899500D01*
X128786611Y-60899500D01*
X128613389Y-60899500D01*
X128613386Y-60899500D01*
X128613378Y-60899501D01*
X128442302Y-60926597D01*
X128277562Y-60980124D01*
X128277556Y-60980126D01*
X128123207Y-61058770D01*
X127983077Y-61160581D01*
X127860581Y-61283077D01*
X127758770Y-61423207D01*
X127680126Y-61577556D01*
X127680124Y-61577562D01*
X127626597Y-61742302D01*
X127599501Y-61913378D01*
X127599500Y-61913393D01*
X124720500Y-61913393D01*
X124720500Y-61913389D01*
X124693402Y-61742299D01*
X124639873Y-61577555D01*
X124561232Y-61423212D01*
X124561230Y-61423209D01*
X124561229Y-61423207D01*
X124459418Y-61283077D01*
X124459416Y-61283075D01*
X124459414Y-61283072D01*
X124336928Y-61160586D01*
X124336924Y-61160583D01*
X124336922Y-61160581D01*
X124196792Y-61058770D01*
X124042443Y-60980126D01*
X124042437Y-60980124D01*
X123944006Y-60948142D01*
X123877701Y-60926598D01*
X123877699Y-60926597D01*
X123877697Y-60926597D01*
X123706621Y-60899501D01*
X123706614Y-60899500D01*
X123706611Y-60899500D01*
X123533389Y-60899500D01*
X123533386Y-60899500D01*
X123533378Y-60899501D01*
X123362302Y-60926597D01*
X123197562Y-60980124D01*
X123197556Y-60980126D01*
X123043207Y-61058770D01*
X122903077Y-61160581D01*
X122780581Y-61283077D01*
X122697914Y-61396859D01*
X122626571Y-61462808D01*
X122535421Y-61496434D01*
X122496469Y-61499500D01*
X121968454Y-61499500D01*
X121873166Y-61480546D01*
X121792384Y-61426570D01*
X116155314Y-55789500D01*
X110503114Y-50137300D01*
X110388986Y-50071408D01*
X110388983Y-50071407D01*
X110388981Y-50071406D01*
X110261692Y-50037300D01*
X78615592Y-50037300D01*
X78483807Y-50037300D01*
X78356517Y-50071407D01*
X78356516Y-50071407D01*
X78356514Y-50071408D01*
X78262295Y-50125805D01*
X78242384Y-50137301D01*
X77553115Y-50826570D01*
X77472334Y-50880546D01*
X77377046Y-50899500D01*
X76759295Y-50899500D01*
X76722436Y-50902401D01*
X76722427Y-50902403D01*
X76564601Y-50948256D01*
X76423135Y-51031919D01*
X76306919Y-51148135D01*
X76223256Y-51289601D01*
X76223255Y-51289605D01*
X76214434Y-51319968D01*
X76169649Y-51406185D01*
X76095278Y-51468700D01*
X76002645Y-51497996D01*
X75975321Y-51499500D01*
X70967308Y-51499500D01*
X70840018Y-51533606D01*
X70840014Y-51533607D01*
X70840014Y-51533608D01*
X70758106Y-51580898D01*
X70725886Y-51599500D01*
X66884086Y-55441300D01*
X66884085Y-55441299D01*
X66790902Y-55534483D01*
X66790901Y-55534483D01*
X66765293Y-55578838D01*
X66725631Y-55647536D01*
X66725006Y-55648618D01*
X66690900Y-55775907D01*
X66690900Y-57858192D01*
X66725006Y-57985481D01*
X66725007Y-57985483D01*
X66725008Y-57985486D01*
X66787868Y-58094362D01*
X66790901Y-58099615D01*
X67027711Y-58336426D01*
X67081687Y-58417207D01*
X67100641Y-58512496D01*
X67099629Y-58529453D01*
X67099944Y-58529472D01*
X67099500Y-58536892D01*
X67099500Y-58536898D01*
X67099500Y-58923102D01*
X67107288Y-58987959D01*
X67110123Y-59011564D01*
X67110124Y-59011568D01*
X67171887Y-59168187D01*
X67168254Y-59169619D01*
X67188583Y-59231786D01*
X67181142Y-59328656D01*
X67137197Y-59415304D01*
X67117434Y-59437588D01*
X66168710Y-60386312D01*
X66087928Y-60440288D01*
X65992640Y-60459242D01*
X65897352Y-60440288D01*
X65816570Y-60386312D01*
X65785604Y-60348579D01*
X65782938Y-60344589D01*
X65769589Y-60324611D01*
X65735463Y-60290485D01*
X65658090Y-60213111D01*
X64823189Y-59378211D01*
X64749025Y-59328656D01*
X64692080Y-59290606D01*
X64692073Y-59290603D01*
X64546397Y-59230263D01*
X64546392Y-59230261D01*
X64391746Y-59199500D01*
X64391742Y-59199500D01*
X63819003Y-59199500D01*
X63723715Y-59180546D01*
X63642936Y-59126572D01*
X63602662Y-59086298D01*
X63487848Y-59009582D01*
X63487843Y-59009579D01*
X63360276Y-58956739D01*
X63292558Y-58943269D01*
X63224842Y-58929800D01*
X63224840Y-58929800D01*
X62086100Y-58929800D01*
X61990812Y-58910846D01*
X61910030Y-58856870D01*
X61856054Y-58776088D01*
X61837100Y-58680800D01*
X61837100Y-58123609D01*
X61856054Y-58028321D01*
X61910030Y-57947539D01*
X61990812Y-57893563D01*
X62086100Y-57874609D01*
X62181388Y-57893563D01*
X62262170Y-57947539D01*
X62284504Y-57973154D01*
X62289281Y-57979454D01*
X62307078Y-58002922D01*
X62347309Y-58033430D01*
X62427659Y-58094362D01*
X62501825Y-58123609D01*
X62568436Y-58149877D01*
X62656898Y-58160500D01*
X62656901Y-58160500D01*
X64393099Y-58160500D01*
X64393102Y-58160500D01*
X64481564Y-58149877D01*
X64575416Y-58112866D01*
X64622340Y-58094362D01*
X64622340Y-58094361D01*
X64622342Y-58094361D01*
X64742922Y-58002922D01*
X64834361Y-57882342D01*
X64889877Y-57741564D01*
X64900500Y-57653102D01*
X64900500Y-57266898D01*
X64889877Y-57178436D01*
X64877928Y-57148135D01*
X64834362Y-57037659D01*
X64820485Y-57019360D01*
X64787189Y-56975453D01*
X64744717Y-56888078D01*
X64738914Y-56791096D01*
X64770666Y-56699276D01*
X64787186Y-56674550D01*
X64834361Y-56612342D01*
X64889877Y-56471564D01*
X64900500Y-56383102D01*
X64900500Y-55996898D01*
X64889877Y-55908436D01*
X64863164Y-55840697D01*
X64834362Y-55767659D01*
X64785103Y-55702702D01*
X64742922Y-55647078D01*
X64699195Y-55613919D01*
X64622340Y-55555637D01*
X64481568Y-55500124D01*
X64481564Y-55500123D01*
X64393102Y-55489500D01*
X64393099Y-55489500D01*
X64274500Y-55489500D01*
X64179212Y-55470546D01*
X64098430Y-55416570D01*
X64044454Y-55335788D01*
X64025500Y-55240500D01*
X64025500Y-42880054D01*
X64044454Y-42784766D01*
X64098430Y-42703984D01*
X65221884Y-41580530D01*
X65302666Y-41526554D01*
X65397954Y-41507600D01*
X72146292Y-41507600D01*
X72273586Y-41473492D01*
X72387714Y-41407600D01*
X72621882Y-41173430D01*
X72702663Y-41119454D01*
X72797951Y-41100500D01*
X73415692Y-41100500D01*
X73415694Y-41100500D01*
X73452569Y-41097598D01*
X73610398Y-41051744D01*
X73751865Y-40968081D01*
X73823933Y-40896012D01*
X73854781Y-40875401D01*
X73883555Y-40851991D01*
X73894881Y-40848607D01*
X73904712Y-40842039D01*
X73941100Y-40834800D01*
X73976645Y-40824183D01*
X73988404Y-40825391D01*
X74000000Y-40823085D01*
X74036389Y-40830323D01*
X74073291Y-40834116D01*
X74082086Y-40839413D01*
X74095288Y-40842039D01*
X74158779Y-40880277D01*
X74167791Y-40887737D01*
X74248135Y-40968081D01*
X74306655Y-41002689D01*
X74321779Y-41015209D01*
X74340282Y-41037951D01*
X74362121Y-41057512D01*
X74370654Y-41075281D01*
X74383094Y-41090572D01*
X74391485Y-41118662D01*
X74404177Y-41145093D01*
X74407691Y-41172916D01*
X74410902Y-41183662D01*
X74410070Y-41191747D01*
X74412000Y-41207017D01*
X74412000Y-42901492D01*
X74446106Y-43028781D01*
X74446107Y-43028783D01*
X74446108Y-43028786D01*
X74512000Y-43142914D01*
X74573677Y-43204591D01*
X74627651Y-43285370D01*
X74641820Y-43332080D01*
X74669318Y-43470324D01*
X74669319Y-43470327D01*
X74722124Y-43597808D01*
X74722125Y-43597812D01*
X74798783Y-43712538D01*
X74798786Y-43712542D01*
X74896358Y-43810114D01*
X74896361Y-43810116D01*
X75011087Y-43886774D01*
X75011089Y-43886775D01*
X75138572Y-43939580D01*
X75138575Y-43939581D01*
X75272103Y-43966141D01*
X75273907Y-43966500D01*
X75411893Y-43966500D01*
X75479560Y-43953040D01*
X75547224Y-43939581D01*
X75547225Y-43939580D01*
X75547228Y-43939580D01*
X75674711Y-43886775D01*
X75789442Y-43810114D01*
X75887014Y-43712542D01*
X75963675Y-43597811D01*
X76016480Y-43470328D01*
X76043400Y-43334993D01*
X76043400Y-43197007D01*
X76043041Y-43195203D01*
X76016481Y-43061675D01*
X76016480Y-43061672D01*
X76013065Y-43053428D01*
X75963675Y-42934189D01*
X75905156Y-42846610D01*
X75887016Y-42819461D01*
X75887014Y-42819458D01*
X75789442Y-42721886D01*
X75762650Y-42703984D01*
X75674712Y-42645225D01*
X75566711Y-42600490D01*
X75485930Y-42546513D01*
X75431954Y-42465732D01*
X75413000Y-42370444D01*
X75413000Y-41207017D01*
X75431954Y-41111729D01*
X75485930Y-41030947D01*
X75535246Y-40992694D01*
X75576865Y-40968081D01*
X75693081Y-40851865D01*
X75776744Y-40710398D01*
X75822598Y-40552569D01*
X75825500Y-40515694D01*
X75825500Y-39484306D01*
X75822598Y-39447431D01*
X75808198Y-39397869D01*
X75799816Y-39301077D01*
X75829111Y-39208444D01*
X75891626Y-39134073D01*
X75977842Y-39089287D01*
X76047312Y-39079400D01*
X85978146Y-39079400D01*
X86073434Y-39098354D01*
X86154216Y-39152330D01*
X88828500Y-41826613D01*
X91472998Y-44471111D01*
X91473000Y-44471114D01*
X91566186Y-44564300D01*
X91680314Y-44630192D01*
X91807607Y-44664300D01*
X91807608Y-44664300D01*
X114771957Y-44664300D01*
X114867245Y-44683254D01*
X114948027Y-44737230D01*
X115002003Y-44818012D01*
X115020957Y-44913300D01*
X115002003Y-45008588D01*
X114973402Y-45059659D01*
X114971949Y-45061657D01*
X114914353Y-45174696D01*
X114914352Y-45174700D01*
X114899501Y-45268469D01*
X114899500Y-45268485D01*
X114899500Y-46731515D01*
X114910627Y-46801770D01*
X114914354Y-46825304D01*
X114971950Y-46938342D01*
X115061658Y-47028050D01*
X115061660Y-47028051D01*
X115174696Y-47085646D01*
X115174700Y-47085647D01*
X115248462Y-47097329D01*
X115268481Y-47100500D01*
X116731518Y-47100499D01*
X116825304Y-47085646D01*
X116938342Y-47028050D01*
X117028050Y-46938342D01*
X117085646Y-46825304D01*
X117086483Y-46820023D01*
X117100498Y-46731530D01*
X117100500Y-46731519D01*
X117100499Y-45268482D01*
X117085646Y-45174696D01*
X117028050Y-45061658D01*
X117028049Y-45061657D01*
X117028048Y-45061655D01*
X117026598Y-45059659D01*
X117022481Y-45050728D01*
X117019153Y-45044197D01*
X117019409Y-45044066D01*
X116985923Y-44971428D01*
X116982109Y-44874348D01*
X117015735Y-44783198D01*
X117081684Y-44711855D01*
X117169915Y-44671180D01*
X117228043Y-44664300D01*
X122819807Y-44664300D01*
X122915095Y-44683254D01*
X122995877Y-44737230D01*
X123049853Y-44818012D01*
X123068807Y-44913300D01*
X123049853Y-45008588D01*
X122995877Y-45089370D01*
X122966165Y-45114745D01*
X122903082Y-45160577D01*
X122903079Y-45160580D01*
X122903075Y-45160583D01*
X122903072Y-45160586D01*
X122816060Y-45247598D01*
X122780581Y-45283077D01*
X122678770Y-45423207D01*
X122600126Y-45577556D01*
X122600124Y-45577562D01*
X122546597Y-45742302D01*
X122519501Y-45913378D01*
X122519500Y-45913393D01*
X122519500Y-46086606D01*
X122519501Y-46086621D01*
X122546597Y-46257697D01*
X122546598Y-46257701D01*
X122566310Y-46318367D01*
X122600124Y-46422437D01*
X122600126Y-46422443D01*
X122678770Y-46576792D01*
X122780581Y-46716922D01*
X122780583Y-46716924D01*
X122780586Y-46716928D01*
X122903072Y-46839414D01*
X122903075Y-46839416D01*
X122903077Y-46839418D01*
X123043207Y-46941229D01*
X123043209Y-46941230D01*
X123043212Y-46941232D01*
X123197555Y-47019873D01*
X123362299Y-47073402D01*
X123533389Y-47100500D01*
X123533393Y-47100500D01*
X123706607Y-47100500D01*
X123706611Y-47100500D01*
X123877701Y-47073402D01*
X124042445Y-47019873D01*
X124196788Y-46941232D01*
X124336928Y-46839414D01*
X124459414Y-46716928D01*
X124561232Y-46576788D01*
X124639873Y-46422445D01*
X124693402Y-46257701D01*
X124720500Y-46086611D01*
X124720500Y-45913389D01*
X124693402Y-45742299D01*
X124639873Y-45577555D01*
X124561232Y-45423212D01*
X124561230Y-45423209D01*
X124561229Y-45423207D01*
X124459418Y-45283077D01*
X124459416Y-45283075D01*
X124459414Y-45283072D01*
X124336928Y-45160586D01*
X124336924Y-45160583D01*
X124336921Y-45160580D01*
X124336917Y-45160577D01*
X124273835Y-45114745D01*
X124207886Y-45043402D01*
X124174259Y-44952252D01*
X124178073Y-44855172D01*
X124218748Y-44766942D01*
X124290091Y-44700993D01*
X124381241Y-44667366D01*
X124420193Y-44664300D01*
X126553346Y-44664300D01*
X126648634Y-44683254D01*
X126729416Y-44737230D01*
X127551637Y-45559451D01*
X127605613Y-45640233D01*
X127624567Y-45735521D01*
X127621502Y-45774472D01*
X127599500Y-45913388D01*
X127599500Y-46086606D01*
X127599501Y-46086621D01*
X127626597Y-46257697D01*
X127626598Y-46257701D01*
X127646310Y-46318367D01*
X127680124Y-46422437D01*
X127680126Y-46422443D01*
X127758770Y-46576792D01*
X127860581Y-46716922D01*
X127860583Y-46716924D01*
X127860586Y-46716928D01*
X127983072Y-46839414D01*
X127983075Y-46839416D01*
X127983077Y-46839418D01*
X128123207Y-46941229D01*
X128123209Y-46941230D01*
X128123212Y-46941232D01*
X128277555Y-47019873D01*
X128442299Y-47073402D01*
X128613389Y-47100500D01*
X128613393Y-47100500D01*
X128786607Y-47100500D01*
X128786611Y-47100500D01*
X128957701Y-47073402D01*
X129122445Y-47019873D01*
X129276788Y-46941232D01*
X129416928Y-46839414D01*
X129539414Y-46716928D01*
X129641232Y-46576788D01*
X129719873Y-46422445D01*
X129773402Y-46257701D01*
X129800500Y-46086611D01*
X129800500Y-45913389D01*
X129773402Y-45742299D01*
X129719873Y-45577555D01*
X129641232Y-45423212D01*
X129641230Y-45423209D01*
X129641229Y-45423207D01*
X129539418Y-45283077D01*
X129539416Y-45283075D01*
X129539414Y-45283072D01*
X129416928Y-45160586D01*
X129416924Y-45160583D01*
X129416922Y-45160581D01*
X129276792Y-45058770D01*
X129122443Y-44980126D01*
X129122437Y-44980124D01*
X129024357Y-44948256D01*
X128957701Y-44926598D01*
X128957699Y-44926597D01*
X128957697Y-44926597D01*
X128786621Y-44899501D01*
X128786614Y-44899500D01*
X128786611Y-44899500D01*
X128613389Y-44899500D01*
X128613388Y-44899500D01*
X128474472Y-44921502D01*
X128377392Y-44917687D01*
X128289162Y-44877012D01*
X128259451Y-44851637D01*
X127735760Y-44327946D01*
X127171114Y-43763300D01*
X127056986Y-43697408D01*
X127056983Y-43697407D01*
X127056981Y-43697406D01*
X126929692Y-43663300D01*
X92183953Y-43663300D01*
X92088665Y-43644346D01*
X92007883Y-43590370D01*
X87458084Y-39040570D01*
X87404108Y-38959788D01*
X87385154Y-38864500D01*
X87404108Y-38769212D01*
X87458084Y-38688430D01*
X87538866Y-38634454D01*
X87634154Y-38615500D01*
X90892046Y-38615500D01*
X90987334Y-38634454D01*
X91068116Y-38688430D01*
X92101570Y-39721884D01*
X92155546Y-39802666D01*
X92174500Y-39897954D01*
X92174500Y-40515704D01*
X92177401Y-40552563D01*
X92177401Y-40552566D01*
X92177402Y-40552569D01*
X92223256Y-40710398D01*
X92306919Y-40851865D01*
X92423135Y-40968081D01*
X92564602Y-41051744D01*
X92722431Y-41097598D01*
X92759306Y-41100500D01*
X92759308Y-41100500D01*
X93377046Y-41100500D01*
X93472334Y-41119454D01*
X93553115Y-41173430D01*
X93934484Y-41554798D01*
X93934483Y-41554798D01*
X93934485Y-41554799D01*
X93934486Y-41554800D01*
X94048614Y-41620692D01*
X94175908Y-41654800D01*
X94307693Y-41654800D01*
X128623846Y-41654800D01*
X128719134Y-41673754D01*
X128799916Y-41727730D01*
X132631637Y-45559451D01*
X132685613Y-45640233D01*
X132704567Y-45735521D01*
X132701502Y-45774472D01*
X132679500Y-45913388D01*
X132679500Y-46086606D01*
X132679501Y-46086621D01*
X132706597Y-46257697D01*
X132706598Y-46257701D01*
X132726310Y-46318367D01*
X132760124Y-46422437D01*
X132760126Y-46422443D01*
X132838770Y-46576792D01*
X132940581Y-46716922D01*
X132940583Y-46716924D01*
X132940586Y-46716928D01*
X133063072Y-46839414D01*
X133063075Y-46839416D01*
X133063077Y-46839418D01*
X133203207Y-46941229D01*
X133203209Y-46941230D01*
X133203212Y-46941232D01*
X133357555Y-47019873D01*
X133522299Y-47073402D01*
X133693389Y-47100500D01*
X133693393Y-47100500D01*
X133866607Y-47100500D01*
X133866611Y-47100500D01*
X134037701Y-47073402D01*
X134202445Y-47019873D01*
X134356788Y-46941232D01*
X134496928Y-46839414D01*
X134619414Y-46716928D01*
X134721232Y-46576788D01*
X134799873Y-46422445D01*
X134853402Y-46257701D01*
X134880500Y-46086611D01*
X134880500Y-45913389D01*
X134853402Y-45742299D01*
X134799873Y-45577555D01*
X134721232Y-45423212D01*
X134721230Y-45423209D01*
X134721229Y-45423207D01*
X134619418Y-45283077D01*
X134619416Y-45283075D01*
X134619414Y-45283072D01*
X134496928Y-45160586D01*
X134496924Y-45160583D01*
X134496922Y-45160581D01*
X134356792Y-45058770D01*
X134202443Y-44980126D01*
X134202437Y-44980124D01*
X134104357Y-44948256D01*
X134037701Y-44926598D01*
X134037699Y-44926597D01*
X134037697Y-44926597D01*
X133866621Y-44899501D01*
X133866614Y-44899500D01*
X133866611Y-44899500D01*
X133693389Y-44899500D01*
X133693388Y-44899500D01*
X133554472Y-44921502D01*
X133457392Y-44917687D01*
X133369162Y-44877012D01*
X133339451Y-44851637D01*
X131389290Y-42901476D01*
X129413380Y-40925566D01*
X129359407Y-40844788D01*
X129340453Y-40749500D01*
X129359407Y-40654212D01*
X129413383Y-40573430D01*
X129494165Y-40519454D01*
X129589453Y-40500500D01*
X137689546Y-40500500D01*
X137784834Y-40519454D01*
X137865616Y-40573430D01*
X140551570Y-43259383D01*
X140605546Y-43340165D01*
X140624500Y-43435453D01*
X140624500Y-44665704D01*
X140627401Y-44702563D01*
X140627401Y-44702566D01*
X140627402Y-44702569D01*
X140673256Y-44860398D01*
X140756919Y-45001865D01*
X140873135Y-45118081D01*
X140983476Y-45183336D01*
X141055847Y-45248156D01*
X141097902Y-45335737D01*
X141103241Y-45432746D01*
X141071050Y-45524412D01*
X141032795Y-45573730D01*
X140921172Y-45685353D01*
X140805479Y-45844589D01*
X140805479Y-45844590D01*
X140805477Y-45844592D01*
X140805476Y-45844595D01*
X140770424Y-45913389D01*
X140716115Y-46019976D01*
X140716113Y-46019982D01*
X140655290Y-46207177D01*
X140624501Y-46401571D01*
X140624500Y-46401587D01*
X140624500Y-46598412D01*
X140624501Y-46598428D01*
X140647819Y-46745651D01*
X140655291Y-46792826D01*
X140681318Y-46872928D01*
X140712234Y-46968080D01*
X140716116Y-46980025D01*
X140805476Y-47155405D01*
X140805479Y-47155409D01*
X140805479Y-47155410D01*
X140877264Y-47254212D01*
X140921172Y-47314646D01*
X141060354Y-47453828D01*
X141219595Y-47569524D01*
X141394975Y-47658884D01*
X141582174Y-47719709D01*
X141776583Y-47750500D01*
X141776587Y-47750500D01*
X142223413Y-47750500D01*
X142223417Y-47750500D01*
X142417826Y-47719709D01*
X142605025Y-47658884D01*
X142780405Y-47569524D01*
X142939646Y-47453828D01*
X143078828Y-47314646D01*
X143194524Y-47155405D01*
X143283884Y-46980025D01*
X143344709Y-46792826D01*
X143375500Y-46598417D01*
X143375500Y-46401583D01*
X143344709Y-46207174D01*
X143283884Y-46019975D01*
X143194524Y-45844595D01*
X143078828Y-45685354D01*
X142967201Y-45573727D01*
X142913228Y-45492949D01*
X142894274Y-45397661D01*
X142913228Y-45302373D01*
X142967204Y-45221591D01*
X143016518Y-45183339D01*
X143126865Y-45118081D01*
X143243081Y-45001865D01*
X143326744Y-44860398D01*
X143372598Y-44702569D01*
X143375500Y-44665694D01*
X143375500Y-43334306D01*
X143372598Y-43297431D01*
X143326744Y-43139602D01*
X143243081Y-42998135D01*
X143126865Y-42881919D01*
X142985398Y-42798256D01*
X142827569Y-42752402D01*
X142827566Y-42752401D01*
X142827563Y-42752401D01*
X142790704Y-42749500D01*
X142790694Y-42749500D01*
X141560453Y-42749500D01*
X141465165Y-42730546D01*
X141384383Y-42676570D01*
X139886799Y-41178986D01*
X138307314Y-39599500D01*
X138193186Y-39533608D01*
X138193183Y-39533607D01*
X138193181Y-39533606D01*
X138065892Y-39499500D01*
X134815619Y-39499500D01*
X134720331Y-39480546D01*
X134639549Y-39426570D01*
X134585573Y-39345788D01*
X134566619Y-39250500D01*
X134585573Y-39155212D01*
X134614174Y-39104141D01*
X134721229Y-38956792D01*
X134721228Y-38956792D01*
X134721232Y-38956788D01*
X134799873Y-38802445D01*
X134853402Y-38637701D01*
X134880500Y-38466611D01*
X134880500Y-38293389D01*
X134853402Y-38122299D01*
X134799873Y-37957555D01*
X134721232Y-37803212D01*
X134721230Y-37803209D01*
X134721229Y-37803207D01*
X134619418Y-37663077D01*
X134619416Y-37663075D01*
X134619414Y-37663072D01*
X134496928Y-37540586D01*
X134496924Y-37540583D01*
X134496922Y-37540581D01*
X134356792Y-37438770D01*
X134202443Y-37360126D01*
X134202437Y-37360124D01*
X134108195Y-37329503D01*
X134037701Y-37306598D01*
X134037699Y-37306597D01*
X134037697Y-37306597D01*
X133866621Y-37279501D01*
X133866614Y-37279500D01*
X133866611Y-37279500D01*
X133693389Y-37279500D01*
X133693386Y-37279500D01*
X133693378Y-37279501D01*
X133522302Y-37306597D01*
X133357562Y-37360124D01*
X133357556Y-37360126D01*
X133203207Y-37438770D01*
X133063077Y-37540581D01*
X132940581Y-37663077D01*
X132838770Y-37803207D01*
X132760126Y-37957556D01*
X132760124Y-37957562D01*
X132706597Y-38122302D01*
X132679501Y-38293378D01*
X132679500Y-38293393D01*
X132679500Y-38466606D01*
X132679501Y-38466621D01*
X132706597Y-38637697D01*
X132760124Y-38802437D01*
X132760126Y-38802443D01*
X132838770Y-38956792D01*
X132945826Y-39104141D01*
X132986501Y-39192372D01*
X132990315Y-39289452D01*
X132956689Y-39380602D01*
X132890740Y-39451945D01*
X132802509Y-39492620D01*
X132744381Y-39499500D01*
X129735619Y-39499500D01*
X129640331Y-39480546D01*
X129559549Y-39426570D01*
X129505573Y-39345788D01*
X129486619Y-39250500D01*
X129505573Y-39155212D01*
X129534174Y-39104141D01*
X129641229Y-38956792D01*
X129641228Y-38956792D01*
X129641232Y-38956788D01*
X129719873Y-38802445D01*
X129773402Y-38637701D01*
X129800500Y-38466611D01*
X129800500Y-38293389D01*
X129773402Y-38122299D01*
X129719873Y-37957555D01*
X129641232Y-37803212D01*
X129641230Y-37803209D01*
X129641229Y-37803207D01*
X129539418Y-37663077D01*
X129539416Y-37663075D01*
X129539414Y-37663072D01*
X129416928Y-37540586D01*
X129416924Y-37540583D01*
X129416922Y-37540581D01*
X129276792Y-37438770D01*
X129122443Y-37360126D01*
X129122437Y-37360124D01*
X129028195Y-37329503D01*
X128957701Y-37306598D01*
X128957699Y-37306597D01*
X128957697Y-37306597D01*
X128786621Y-37279501D01*
X128786614Y-37279500D01*
X128786611Y-37279500D01*
X128613389Y-37279500D01*
X128613386Y-37279500D01*
X128613378Y-37279501D01*
X128442302Y-37306597D01*
X128277562Y-37360124D01*
X128277556Y-37360126D01*
X128123207Y-37438770D01*
X127983077Y-37540581D01*
X127860581Y-37663077D01*
X127758770Y-37803207D01*
X127680126Y-37957556D01*
X127680124Y-37957562D01*
X127626597Y-38122302D01*
X127599501Y-38293378D01*
X127599500Y-38293393D01*
X127599500Y-38466606D01*
X127599501Y-38466621D01*
X127626597Y-38637697D01*
X127680124Y-38802437D01*
X127680126Y-38802443D01*
X127758770Y-38956792D01*
X127865826Y-39104141D01*
X127906501Y-39192372D01*
X127910315Y-39289452D01*
X127876689Y-39380602D01*
X127810740Y-39451945D01*
X127722509Y-39492620D01*
X127664381Y-39499500D01*
X124655619Y-39499500D01*
X124560331Y-39480546D01*
X124479549Y-39426570D01*
X124425573Y-39345788D01*
X124406619Y-39250500D01*
X124425573Y-39155212D01*
X124454174Y-39104141D01*
X124561229Y-38956792D01*
X124561228Y-38956792D01*
X124561232Y-38956788D01*
X124639873Y-38802445D01*
X124693402Y-38637701D01*
X124720500Y-38466611D01*
X124720500Y-38293389D01*
X124693402Y-38122299D01*
X124639873Y-37957555D01*
X124561232Y-37803212D01*
X124561230Y-37803209D01*
X124561229Y-37803207D01*
X124459418Y-37663077D01*
X124459416Y-37663075D01*
X124459414Y-37663072D01*
X124336928Y-37540586D01*
X124336924Y-37540583D01*
X124336922Y-37540581D01*
X124196792Y-37438770D01*
X124042443Y-37360126D01*
X124042437Y-37360124D01*
X123948195Y-37329503D01*
X123877701Y-37306598D01*
X123877699Y-37306597D01*
X123877697Y-37306597D01*
X123706621Y-37279501D01*
X123706614Y-37279500D01*
X123706611Y-37279500D01*
X123533389Y-37279500D01*
X123533386Y-37279500D01*
X123533378Y-37279501D01*
X123362302Y-37306597D01*
X123197562Y-37360124D01*
X123197556Y-37360126D01*
X123043207Y-37438770D01*
X122903077Y-37540581D01*
X122780581Y-37663077D01*
X122678770Y-37803207D01*
X122600126Y-37957556D01*
X122600124Y-37957562D01*
X122546597Y-38122302D01*
X122519501Y-38293378D01*
X122519500Y-38293393D01*
X122519500Y-38466606D01*
X122519501Y-38466621D01*
X122546597Y-38637697D01*
X122600124Y-38802437D01*
X122600126Y-38802443D01*
X122678770Y-38956792D01*
X122785826Y-39104141D01*
X122826501Y-39192372D01*
X122830315Y-39289452D01*
X122796689Y-39380602D01*
X122730740Y-39451945D01*
X122642509Y-39492620D01*
X122584381Y-39499500D01*
X96024679Y-39499500D01*
X95929391Y-39480546D01*
X95848609Y-39426570D01*
X95794633Y-39345788D01*
X95785566Y-39319968D01*
X95776744Y-39289602D01*
X95693081Y-39148135D01*
X95576865Y-39031919D01*
X95435398Y-38948256D01*
X95277569Y-38902402D01*
X95277566Y-38902401D01*
X95277563Y-38902401D01*
X95240704Y-38899500D01*
X95240694Y-38899500D01*
X94584306Y-38899500D01*
X94584295Y-38899500D01*
X94547436Y-38902401D01*
X94547427Y-38902403D01*
X94389601Y-38948256D01*
X94370102Y-38959788D01*
X94248135Y-39031919D01*
X94176066Y-39103987D01*
X94095288Y-39157961D01*
X94000000Y-39176915D01*
X93904712Y-39157961D01*
X93823933Y-39103987D01*
X93751865Y-39031919D01*
X93610398Y-38948256D01*
X93452569Y-38902402D01*
X93452566Y-38902401D01*
X93452563Y-38902401D01*
X93415704Y-38899500D01*
X93415694Y-38899500D01*
X92797954Y-38899500D01*
X92702666Y-38880546D01*
X92621884Y-38826570D01*
X92088692Y-38293378D01*
X91509814Y-37714500D01*
X91395686Y-37648608D01*
X91395683Y-37648607D01*
X91395681Y-37648606D01*
X91268392Y-37614500D01*
X49534193Y-37614500D01*
X49402408Y-37614500D01*
X49275118Y-37648606D01*
X49275114Y-37648607D01*
X49275114Y-37648608D01*
X49249790Y-37663229D01*
X49160986Y-37714500D01*
X47928586Y-38946900D01*
X47928585Y-38946899D01*
X47835402Y-39040083D01*
X47835401Y-39040083D01*
X47803315Y-39095658D01*
X47781137Y-39134073D01*
X47769506Y-39154218D01*
X47735400Y-39281507D01*
X47735400Y-41585192D01*
X47769506Y-41712481D01*
X47769507Y-41712483D01*
X47769508Y-41712486D01*
X47835400Y-41826614D01*
X49160088Y-43151302D01*
X50483216Y-44474430D01*
X50537192Y-44555212D01*
X50556146Y-44650500D01*
X50537192Y-44745788D01*
X50483216Y-44826570D01*
X50402434Y-44880546D01*
X50307146Y-44899500D01*
X49797954Y-44899500D01*
X49702666Y-44880546D01*
X49621885Y-44826570D01*
X49355415Y-44560101D01*
X49355416Y-44560101D01*
X49338461Y-44550312D01*
X49241286Y-44494208D01*
X49241283Y-44494207D01*
X49241281Y-44494206D01*
X49113992Y-44460100D01*
X44516793Y-44460100D01*
X44385008Y-44460100D01*
X44257718Y-44494206D01*
X44257714Y-44494207D01*
X44257714Y-44494208D01*
X44213083Y-44519976D01*
X44143584Y-44560101D01*
X43826906Y-44876778D01*
X43746124Y-44930754D01*
X43650836Y-44949708D01*
X43581369Y-44939821D01*
X43452578Y-44902404D01*
X43452571Y-44902402D01*
X43452569Y-44902402D01*
X43452567Y-44902401D01*
X43452563Y-44902401D01*
X43415704Y-44899500D01*
X43415694Y-44899500D01*
X42759306Y-44899500D01*
X42759295Y-44899500D01*
X42722436Y-44902401D01*
X42722427Y-44902403D01*
X42564601Y-44948256D01*
X42423135Y-45031919D01*
X42306919Y-45148135D01*
X42223256Y-45289601D01*
X42177403Y-45447427D01*
X42177401Y-45447436D01*
X42174500Y-45484295D01*
X42174500Y-46102045D01*
X42155546Y-46197333D01*
X42101570Y-46278115D01*
X39488385Y-48891300D01*
X39407603Y-48945276D01*
X39312315Y-48964230D01*
X39217027Y-48945276D01*
X39136248Y-48891302D01*
X39126865Y-48881919D01*
X38985398Y-48798256D01*
X38827569Y-48752402D01*
X38827566Y-48752401D01*
X38827563Y-48752401D01*
X38790704Y-48749500D01*
X38790694Y-48749500D01*
X37455800Y-48749500D01*
X37360512Y-48730546D01*
X37279730Y-48676570D01*
X37225754Y-48595788D01*
X37206800Y-48500500D01*
X37206800Y-47304154D01*
X37225754Y-47208866D01*
X37279730Y-47128084D01*
X37682684Y-46725130D01*
X37763466Y-46671154D01*
X37858754Y-46652200D01*
X38065892Y-46652200D01*
X38193186Y-46618092D01*
X38307314Y-46552200D01*
X38400500Y-46459014D01*
X38466392Y-46344886D01*
X38473498Y-46318363D01*
X38516466Y-46231231D01*
X38589510Y-46167171D01*
X38600972Y-46160948D01*
X38605019Y-46158885D01*
X38605025Y-46158884D01*
X38780405Y-46069524D01*
X38939646Y-45953828D01*
X39078828Y-45814646D01*
X39194524Y-45655405D01*
X39283884Y-45480025D01*
X39344709Y-45292826D01*
X39375500Y-45098417D01*
X39375500Y-44901583D01*
X39344709Y-44707174D01*
X39283884Y-44519975D01*
X39194524Y-44344595D01*
X39078828Y-44185354D01*
X38939646Y-44046172D01*
X38829988Y-43966500D01*
X38780410Y-43930479D01*
X38780407Y-43930477D01*
X38780405Y-43930476D01*
X38605025Y-43841116D01*
X38605024Y-43841115D01*
X38605023Y-43841115D01*
X38605017Y-43841113D01*
X38497928Y-43806318D01*
X38417826Y-43780291D01*
X38417824Y-43780290D01*
X38417822Y-43780290D01*
X38223428Y-43749501D01*
X38223419Y-43749500D01*
X38223417Y-43749500D01*
X37776583Y-43749500D01*
X37776580Y-43749500D01*
X37776571Y-43749501D01*
X37582177Y-43780290D01*
X37394982Y-43841113D01*
X37394976Y-43841115D01*
X37305366Y-43886774D01*
X37219595Y-43930476D01*
X37219592Y-43930477D01*
X37219590Y-43930479D01*
X37219589Y-43930479D01*
X37060357Y-44046169D01*
X36921169Y-44185357D01*
X36805479Y-44344589D01*
X36805479Y-44344590D01*
X36716115Y-44519976D01*
X36716113Y-44519982D01*
X36655290Y-44707177D01*
X36624501Y-44901571D01*
X36624500Y-44901587D01*
X36624500Y-45098412D01*
X36624501Y-45098428D01*
X36653746Y-45283072D01*
X36655291Y-45292826D01*
X36673186Y-45347900D01*
X36705525Y-45447431D01*
X36716116Y-45480025D01*
X36805476Y-45655405D01*
X36805479Y-45655409D01*
X36805479Y-45655410D01*
X36845214Y-45710100D01*
X36904050Y-45791080D01*
X36944726Y-45879309D01*
X36948541Y-45976389D01*
X36914914Y-46067539D01*
X36878676Y-46113508D01*
X36398986Y-46593199D01*
X36305802Y-46686383D01*
X36305801Y-46686383D01*
X36239906Y-46800518D01*
X36205800Y-46927807D01*
X36205800Y-51684692D01*
X36239906Y-51811981D01*
X36239907Y-51811983D01*
X36239908Y-51811986D01*
X36305800Y-51926114D01*
X42101572Y-57721886D01*
X42155546Y-57802665D01*
X42174500Y-57897953D01*
X42174500Y-58515704D01*
X42177401Y-58552563D01*
X42177401Y-58552566D01*
X42177402Y-58552569D01*
X42223256Y-58710398D01*
X42306919Y-58851865D01*
X42423135Y-58968081D01*
X42564602Y-59051744D01*
X42722431Y-59097598D01*
X42759306Y-59100500D01*
X43153200Y-59100500D01*
X43248488Y-59119454D01*
X43329270Y-59173430D01*
X43383246Y-59254212D01*
X43402200Y-59349500D01*
X43402200Y-59786846D01*
X43383246Y-59882134D01*
X43329270Y-59962916D01*
X38615616Y-64676570D01*
X38534834Y-64730546D01*
X38439546Y-64749500D01*
X37209295Y-64749500D01*
X37172436Y-64752401D01*
X37172427Y-64752403D01*
X37014601Y-64798256D01*
X36873135Y-64881919D01*
X36756919Y-64998135D01*
X36673256Y-65139601D01*
X36627403Y-65297427D01*
X36627401Y-65297436D01*
X36624500Y-65334295D01*
X36624500Y-66665704D01*
X36627401Y-66702563D01*
X36627401Y-66702566D01*
X36627402Y-66702569D01*
X36673256Y-66860398D01*
X36756919Y-67001865D01*
X36873135Y-67118081D01*
X37014602Y-67201744D01*
X37172431Y-67247598D01*
X37209306Y-67250500D01*
X37209308Y-67250500D01*
X38376183Y-67250500D01*
X38471471Y-67269454D01*
X38552253Y-67323430D01*
X38606229Y-67404212D01*
X38625183Y-67499500D01*
X38606229Y-67594788D01*
X38552255Y-67675566D01*
X35538011Y-70689811D01*
X35538010Y-70689810D01*
X35426512Y-70801309D01*
X35426510Y-70801312D01*
X35338906Y-70932419D01*
X35338903Y-70932426D01*
X35278563Y-71078102D01*
X35278561Y-71078107D01*
X35247800Y-71232753D01*
X31000000Y-71232753D01*
X31000000Y-60901587D01*
X36624500Y-60901587D01*
X36624500Y-61098412D01*
X36624501Y-61098428D01*
X36653746Y-61283072D01*
X36655291Y-61292826D01*
X36656819Y-61297528D01*
X36710521Y-61462808D01*
X36716116Y-61480025D01*
X36805476Y-61655405D01*
X36805479Y-61655409D01*
X36805479Y-61655410D01*
X36886394Y-61766779D01*
X36921172Y-61814646D01*
X37060354Y-61953828D01*
X37077892Y-61966570D01*
X37178270Y-62039500D01*
X37219595Y-62069524D01*
X37394975Y-62158884D01*
X37582174Y-62219709D01*
X37776583Y-62250500D01*
X37776587Y-62250500D01*
X38223413Y-62250500D01*
X38223417Y-62250500D01*
X38417826Y-62219709D01*
X38605025Y-62158884D01*
X38780405Y-62069524D01*
X38939646Y-61953828D01*
X39078828Y-61814646D01*
X39194524Y-61655405D01*
X39283884Y-61480025D01*
X39344709Y-61292826D01*
X39375500Y-61098417D01*
X39375500Y-60901583D01*
X39344709Y-60707174D01*
X39283884Y-60519975D01*
X39194524Y-60344595D01*
X39191326Y-60340194D01*
X39078830Y-60185357D01*
X39078828Y-60185354D01*
X38939646Y-60046172D01*
X38919325Y-60031408D01*
X38780410Y-59930479D01*
X38780407Y-59930477D01*
X38780405Y-59930476D01*
X38605025Y-59841116D01*
X38605024Y-59841115D01*
X38605023Y-59841115D01*
X38605017Y-59841113D01*
X38497928Y-59806318D01*
X38417826Y-59780291D01*
X38417824Y-59780290D01*
X38417822Y-59780290D01*
X38223428Y-59749501D01*
X38223419Y-59749500D01*
X38223417Y-59749500D01*
X37776583Y-59749500D01*
X37776580Y-59749500D01*
X37776571Y-59749501D01*
X37582177Y-59780290D01*
X37394982Y-59841113D01*
X37394976Y-59841115D01*
X37349489Y-59864292D01*
X37219595Y-59930476D01*
X37219592Y-59930477D01*
X37219590Y-59930479D01*
X37219589Y-59930479D01*
X37060357Y-60046169D01*
X36921169Y-60185357D01*
X36805479Y-60344589D01*
X36805479Y-60344590D01*
X36805477Y-60344592D01*
X36805476Y-60344595D01*
X36774836Y-60404730D01*
X36716115Y-60519976D01*
X36716113Y-60519982D01*
X36655290Y-60707177D01*
X36624501Y-60901571D01*
X36624500Y-60901587D01*
X31000000Y-60901587D01*
X31000000Y-35878712D01*
X34149500Y-35878712D01*
X34149500Y-36121287D01*
X34181162Y-36361790D01*
X34181163Y-36361795D01*
X34243940Y-36596082D01*
X34243948Y-36596105D01*
X34336770Y-36820201D01*
X34336778Y-36820217D01*
X34458058Y-37030279D01*
X34458064Y-37030289D01*
X34605729Y-37222731D01*
X34605738Y-37222741D01*
X34777258Y-37394261D01*
X34777268Y-37394270D01*
X34835262Y-37438770D01*
X34969711Y-37541936D01*
X34969720Y-37541941D01*
X35179782Y-37663221D01*
X35179798Y-37663229D01*
X35319858Y-37721242D01*
X35403900Y-37756054D01*
X35403911Y-37756057D01*
X35403917Y-37756059D01*
X35579876Y-37803207D01*
X35638211Y-37818838D01*
X35878712Y-37850500D01*
X36121288Y-37850500D01*
X36361789Y-37818838D01*
X36523275Y-37775567D01*
X36596082Y-37756059D01*
X36596084Y-37756058D01*
X36596100Y-37756054D01*
X36747766Y-37693231D01*
X36820201Y-37663229D01*
X36820206Y-37663226D01*
X36820212Y-37663224D01*
X37030289Y-37541936D01*
X37222738Y-37394265D01*
X37394265Y-37222738D01*
X37541936Y-37030289D01*
X37663224Y-36820212D01*
X37756054Y-36596100D01*
X37818838Y-36361789D01*
X37850500Y-36121288D01*
X37850500Y-35878712D01*
X142149500Y-35878712D01*
X142149500Y-36121287D01*
X142181162Y-36361790D01*
X142181163Y-36361795D01*
X142243940Y-36596082D01*
X142243948Y-36596105D01*
X142336770Y-36820201D01*
X142336778Y-36820217D01*
X142458058Y-37030279D01*
X142458064Y-37030289D01*
X142605729Y-37222731D01*
X142605738Y-37222741D01*
X142777258Y-37394261D01*
X142777268Y-37394270D01*
X142835262Y-37438770D01*
X142969711Y-37541936D01*
X142969720Y-37541941D01*
X143179782Y-37663221D01*
X143179798Y-37663229D01*
X143319858Y-37721242D01*
X143403900Y-37756054D01*
X143403911Y-37756057D01*
X143403917Y-37756059D01*
X143579876Y-37803207D01*
X143638211Y-37818838D01*
X143878712Y-37850500D01*
X144121288Y-37850500D01*
X144361789Y-37818838D01*
X144523275Y-37775567D01*
X144596082Y-37756059D01*
X144596084Y-37756058D01*
X144596100Y-37756054D01*
X144747766Y-37693231D01*
X144820201Y-37663229D01*
X144820206Y-37663226D01*
X144820212Y-37663224D01*
X145030289Y-37541936D01*
X145222738Y-37394265D01*
X145394265Y-37222738D01*
X145541936Y-37030289D01*
X145663224Y-36820212D01*
X145756054Y-36596100D01*
X145818838Y-36361789D01*
X145850500Y-36121288D01*
X145850500Y-35878712D01*
X145818838Y-35638211D01*
X145756054Y-35403900D01*
X145721242Y-35319858D01*
X145663229Y-35179798D01*
X145663221Y-35179782D01*
X145541941Y-34969720D01*
X145541935Y-34969710D01*
X145394270Y-34777268D01*
X145394261Y-34777258D01*
X145222741Y-34605738D01*
X145222731Y-34605729D01*
X145030289Y-34458064D01*
X145030279Y-34458058D01*
X144820217Y-34336778D01*
X144820201Y-34336770D01*
X144596105Y-34243948D01*
X144596103Y-34243947D01*
X144596100Y-34243946D01*
X144596096Y-34243945D01*
X144596082Y-34243940D01*
X144361795Y-34181163D01*
X144361790Y-34181162D01*
X144121288Y-34149500D01*
X143878712Y-34149500D01*
X143638209Y-34181162D01*
X143638204Y-34181163D01*
X143403917Y-34243940D01*
X143403894Y-34243948D01*
X143179798Y-34336770D01*
X143179782Y-34336778D01*
X142969720Y-34458058D01*
X142969710Y-34458064D01*
X142777268Y-34605729D01*
X142777258Y-34605738D01*
X142605738Y-34777258D01*
X142605729Y-34777268D01*
X142458064Y-34969710D01*
X142458058Y-34969720D01*
X142336778Y-35179782D01*
X142336770Y-35179798D01*
X142243948Y-35403894D01*
X142243940Y-35403917D01*
X142181163Y-35638204D01*
X142181162Y-35638209D01*
X142149500Y-35878712D01*
X37850500Y-35878712D01*
X37818838Y-35638211D01*
X37756054Y-35403900D01*
X37721242Y-35319858D01*
X37663229Y-35179798D01*
X37663221Y-35179782D01*
X37541941Y-34969720D01*
X37541935Y-34969710D01*
X37394270Y-34777268D01*
X37394261Y-34777258D01*
X37222741Y-34605738D01*
X37222731Y-34605729D01*
X37030289Y-34458064D01*
X37030279Y-34458058D01*
X36820217Y-34336778D01*
X36820201Y-34336770D01*
X36596105Y-34243948D01*
X36596103Y-34243947D01*
X36596100Y-34243946D01*
X36596096Y-34243945D01*
X36596082Y-34243940D01*
X36361795Y-34181163D01*
X36361790Y-34181162D01*
X36121288Y-34149500D01*
X35878712Y-34149500D01*
X35638209Y-34181162D01*
X35638204Y-34181163D01*
X35403917Y-34243940D01*
X35403894Y-34243948D01*
X35179798Y-34336770D01*
X35179782Y-34336778D01*
X34969720Y-34458058D01*
X34969710Y-34458064D01*
X34777268Y-34605729D01*
X34777258Y-34605738D01*
X34605738Y-34777258D01*
X34605729Y-34777268D01*
X34458064Y-34969710D01*
X34458058Y-34969720D01*
X34336778Y-35179782D01*
X34336770Y-35179798D01*
X34243948Y-35403894D01*
X34243940Y-35403917D01*
X34181163Y-35638204D01*
X34181162Y-35638209D01*
X34149500Y-35878712D01*
X31000000Y-35878712D01*
X31000000Y-31249000D01*
X31018954Y-31153712D01*
X31072930Y-31072930D01*
X31153712Y-31018954D01*
X31249000Y-31000000D01*
X148751000Y-31000000D01*
X148846288Y-31018954D01*
G37*
%TD.AperFunction*%
%TD*%
M02*
