%TF.GenerationSoftware,KiCad,Pcbnew,10.0.3*%
%TF.CreationDate,2026-07-02T03:50:20-05:00*%
%TF.ProjectId,ext-tank-routing,6578742d-7461-46e6-9b2d-726f7574696e,rev?*%
%TF.SameCoordinates,Original*%
%TF.FileFunction,AssemblyDrawing,Top*%
%FSLAX46Y46*%
G04 Gerber Fmt 4.6, Leading zero omitted, Abs format (unit mm)*
G04 Created by KiCad (PCBNEW 10.0.3) date 2026-07-02 03:50:20*
%MOMM*%
%LPD*%
G01*
G04 APERTURE LIST*
%ADD10C,0.150000*%
%ADD11C,0.080000*%
%ADD12C,0.120000*%
%ADD13C,0.100000*%
G04 APERTURE END LIST*
D10*
X48833333Y-41200057D02*
X48880952Y-41152438D01*
X48880952Y-41152438D02*
X48976190Y-41104819D01*
X48976190Y-41104819D02*
X49214285Y-41104819D01*
X49214285Y-41104819D02*
X49309523Y-41152438D01*
X49309523Y-41152438D02*
X49357142Y-41200057D01*
X49357142Y-41200057D02*
X49404761Y-41295295D01*
X49404761Y-41295295D02*
X49404761Y-41390533D01*
X49404761Y-41390533D02*
X49357142Y-41533390D01*
X49357142Y-41533390D02*
X48785714Y-42104819D01*
X48785714Y-42104819D02*
X49404761Y-42104819D01*
X50023809Y-41104819D02*
X50119047Y-41104819D01*
X50119047Y-41104819D02*
X50214285Y-41152438D01*
X50214285Y-41152438D02*
X50261904Y-41200057D01*
X50261904Y-41200057D02*
X50309523Y-41295295D01*
X50309523Y-41295295D02*
X50357142Y-41485771D01*
X50357142Y-41485771D02*
X50357142Y-41723866D01*
X50357142Y-41723866D02*
X50309523Y-41914342D01*
X50309523Y-41914342D02*
X50261904Y-42009580D01*
X50261904Y-42009580D02*
X50214285Y-42057200D01*
X50214285Y-42057200D02*
X50119047Y-42104819D01*
X50119047Y-42104819D02*
X50023809Y-42104819D01*
X50023809Y-42104819D02*
X49928571Y-42057200D01*
X49928571Y-42057200D02*
X49880952Y-42009580D01*
X49880952Y-42009580D02*
X49833333Y-41914342D01*
X49833333Y-41914342D02*
X49785714Y-41723866D01*
X49785714Y-41723866D02*
X49785714Y-41485771D01*
X49785714Y-41485771D02*
X49833333Y-41295295D01*
X49833333Y-41295295D02*
X49880952Y-41200057D01*
X49880952Y-41200057D02*
X49928571Y-41152438D01*
X49928571Y-41152438D02*
X50023809Y-41104819D01*
X50785714Y-42104819D02*
X50785714Y-41104819D01*
X50880952Y-41723866D02*
X51166666Y-42104819D01*
X51166666Y-41438152D02*
X50785714Y-41819104D01*
D11*
X49440476Y-40227149D02*
X49273810Y-39989054D01*
X49154762Y-40227149D02*
X49154762Y-39727149D01*
X49154762Y-39727149D02*
X49345238Y-39727149D01*
X49345238Y-39727149D02*
X49392857Y-39750959D01*
X49392857Y-39750959D02*
X49416667Y-39774768D01*
X49416667Y-39774768D02*
X49440476Y-39822387D01*
X49440476Y-39822387D02*
X49440476Y-39893816D01*
X49440476Y-39893816D02*
X49416667Y-39941435D01*
X49416667Y-39941435D02*
X49392857Y-39965244D01*
X49392857Y-39965244D02*
X49345238Y-39989054D01*
X49345238Y-39989054D02*
X49154762Y-39989054D01*
X49630953Y-39774768D02*
X49654762Y-39750959D01*
X49654762Y-39750959D02*
X49702381Y-39727149D01*
X49702381Y-39727149D02*
X49821429Y-39727149D01*
X49821429Y-39727149D02*
X49869048Y-39750959D01*
X49869048Y-39750959D02*
X49892857Y-39774768D01*
X49892857Y-39774768D02*
X49916667Y-39822387D01*
X49916667Y-39822387D02*
X49916667Y-39870006D01*
X49916667Y-39870006D02*
X49892857Y-39941435D01*
X49892857Y-39941435D02*
X49607143Y-40227149D01*
X49607143Y-40227149D02*
X49916667Y-40227149D01*
X50226190Y-39727149D02*
X50273809Y-39727149D01*
X50273809Y-39727149D02*
X50321428Y-39750959D01*
X50321428Y-39750959D02*
X50345238Y-39774768D01*
X50345238Y-39774768D02*
X50369047Y-39822387D01*
X50369047Y-39822387D02*
X50392857Y-39917625D01*
X50392857Y-39917625D02*
X50392857Y-40036673D01*
X50392857Y-40036673D02*
X50369047Y-40131911D01*
X50369047Y-40131911D02*
X50345238Y-40179530D01*
X50345238Y-40179530D02*
X50321428Y-40203340D01*
X50321428Y-40203340D02*
X50273809Y-40227149D01*
X50273809Y-40227149D02*
X50226190Y-40227149D01*
X50226190Y-40227149D02*
X50178571Y-40203340D01*
X50178571Y-40203340D02*
X50154762Y-40179530D01*
X50154762Y-40179530D02*
X50130952Y-40131911D01*
X50130952Y-40131911D02*
X50107143Y-40036673D01*
X50107143Y-40036673D02*
X50107143Y-39917625D01*
X50107143Y-39917625D02*
X50130952Y-39822387D01*
X50130952Y-39822387D02*
X50154762Y-39774768D01*
X50154762Y-39774768D02*
X50178571Y-39750959D01*
X50178571Y-39750959D02*
X50226190Y-39727149D01*
X50583333Y-39774768D02*
X50607142Y-39750959D01*
X50607142Y-39750959D02*
X50654761Y-39727149D01*
X50654761Y-39727149D02*
X50773809Y-39727149D01*
X50773809Y-39727149D02*
X50821428Y-39750959D01*
X50821428Y-39750959D02*
X50845237Y-39774768D01*
X50845237Y-39774768D02*
X50869047Y-39822387D01*
X50869047Y-39822387D02*
X50869047Y-39870006D01*
X50869047Y-39870006D02*
X50845237Y-39941435D01*
X50845237Y-39941435D02*
X50559523Y-40227149D01*
X50559523Y-40227149D02*
X50869047Y-40227149D01*
D10*
X135709524Y-76704819D02*
X135709524Y-75704819D01*
X135709524Y-75704819D02*
X136090476Y-75704819D01*
X136090476Y-75704819D02*
X136185714Y-75752438D01*
X136185714Y-75752438D02*
X136233333Y-75800057D01*
X136233333Y-75800057D02*
X136280952Y-75895295D01*
X136280952Y-75895295D02*
X136280952Y-76038152D01*
X136280952Y-76038152D02*
X136233333Y-76133390D01*
X136233333Y-76133390D02*
X136185714Y-76181009D01*
X136185714Y-76181009D02*
X136090476Y-76228628D01*
X136090476Y-76228628D02*
X135709524Y-76228628D01*
X136661905Y-75800057D02*
X136709524Y-75752438D01*
X136709524Y-75752438D02*
X136804762Y-75704819D01*
X136804762Y-75704819D02*
X137042857Y-75704819D01*
X137042857Y-75704819D02*
X137138095Y-75752438D01*
X137138095Y-75752438D02*
X137185714Y-75800057D01*
X137185714Y-75800057D02*
X137233333Y-75895295D01*
X137233333Y-75895295D02*
X137233333Y-75990533D01*
X137233333Y-75990533D02*
X137185714Y-76133390D01*
X137185714Y-76133390D02*
X136614286Y-76704819D01*
X136614286Y-76704819D02*
X137233333Y-76704819D01*
X137852381Y-75704819D02*
X137947619Y-75704819D01*
X137947619Y-75704819D02*
X138042857Y-75752438D01*
X138042857Y-75752438D02*
X138090476Y-75800057D01*
X138090476Y-75800057D02*
X138138095Y-75895295D01*
X138138095Y-75895295D02*
X138185714Y-76085771D01*
X138185714Y-76085771D02*
X138185714Y-76323866D01*
X138185714Y-76323866D02*
X138138095Y-76514342D01*
X138138095Y-76514342D02*
X138090476Y-76609580D01*
X138090476Y-76609580D02*
X138042857Y-76657200D01*
X138042857Y-76657200D02*
X137947619Y-76704819D01*
X137947619Y-76704819D02*
X137852381Y-76704819D01*
X137852381Y-76704819D02*
X137757143Y-76657200D01*
X137757143Y-76657200D02*
X137709524Y-76609580D01*
X137709524Y-76609580D02*
X137661905Y-76514342D01*
X137661905Y-76514342D02*
X137614286Y-76323866D01*
X137614286Y-76323866D02*
X137614286Y-76085771D01*
X137614286Y-76085771D02*
X137661905Y-75895295D01*
X137661905Y-75895295D02*
X137709524Y-75800057D01*
X137709524Y-75800057D02*
X137757143Y-75752438D01*
X137757143Y-75752438D02*
X137852381Y-75704819D01*
X138519048Y-75704819D02*
X139138095Y-75704819D01*
X139138095Y-75704819D02*
X138804762Y-76085771D01*
X138804762Y-76085771D02*
X138947619Y-76085771D01*
X138947619Y-76085771D02*
X139042857Y-76133390D01*
X139042857Y-76133390D02*
X139090476Y-76181009D01*
X139090476Y-76181009D02*
X139138095Y-76276247D01*
X139138095Y-76276247D02*
X139138095Y-76514342D01*
X139138095Y-76514342D02*
X139090476Y-76609580D01*
X139090476Y-76609580D02*
X139042857Y-76657200D01*
X139042857Y-76657200D02*
X138947619Y-76704819D01*
X138947619Y-76704819D02*
X138661905Y-76704819D01*
X138661905Y-76704819D02*
X138566667Y-76657200D01*
X138566667Y-76657200D02*
X138519048Y-76609580D01*
X137609524Y-76704819D02*
X137609524Y-75704819D01*
X137609524Y-75704819D02*
X137990476Y-75704819D01*
X137990476Y-75704819D02*
X138085714Y-75752438D01*
X138085714Y-75752438D02*
X138133333Y-75800057D01*
X138133333Y-75800057D02*
X138180952Y-75895295D01*
X138180952Y-75895295D02*
X138180952Y-76038152D01*
X138180952Y-76038152D02*
X138133333Y-76133390D01*
X138133333Y-76133390D02*
X138085714Y-76181009D01*
X138085714Y-76181009D02*
X137990476Y-76228628D01*
X137990476Y-76228628D02*
X137609524Y-76228628D01*
X138561905Y-75800057D02*
X138609524Y-75752438D01*
X138609524Y-75752438D02*
X138704762Y-75704819D01*
X138704762Y-75704819D02*
X138942857Y-75704819D01*
X138942857Y-75704819D02*
X139038095Y-75752438D01*
X139038095Y-75752438D02*
X139085714Y-75800057D01*
X139085714Y-75800057D02*
X139133333Y-75895295D01*
X139133333Y-75895295D02*
X139133333Y-75990533D01*
X139133333Y-75990533D02*
X139085714Y-76133390D01*
X139085714Y-76133390D02*
X138514286Y-76704819D01*
X138514286Y-76704819D02*
X139133333Y-76704819D01*
X139752381Y-75704819D02*
X139847619Y-75704819D01*
X139847619Y-75704819D02*
X139942857Y-75752438D01*
X139942857Y-75752438D02*
X139990476Y-75800057D01*
X139990476Y-75800057D02*
X140038095Y-75895295D01*
X140038095Y-75895295D02*
X140085714Y-76085771D01*
X140085714Y-76085771D02*
X140085714Y-76323866D01*
X140085714Y-76323866D02*
X140038095Y-76514342D01*
X140038095Y-76514342D02*
X139990476Y-76609580D01*
X139990476Y-76609580D02*
X139942857Y-76657200D01*
X139942857Y-76657200D02*
X139847619Y-76704819D01*
X139847619Y-76704819D02*
X139752381Y-76704819D01*
X139752381Y-76704819D02*
X139657143Y-76657200D01*
X139657143Y-76657200D02*
X139609524Y-76609580D01*
X139609524Y-76609580D02*
X139561905Y-76514342D01*
X139561905Y-76514342D02*
X139514286Y-76323866D01*
X139514286Y-76323866D02*
X139514286Y-76085771D01*
X139514286Y-76085771D02*
X139561905Y-75895295D01*
X139561905Y-75895295D02*
X139609524Y-75800057D01*
X139609524Y-75800057D02*
X139657143Y-75752438D01*
X139657143Y-75752438D02*
X139752381Y-75704819D01*
X140419048Y-75704819D02*
X141038095Y-75704819D01*
X141038095Y-75704819D02*
X140704762Y-76085771D01*
X140704762Y-76085771D02*
X140847619Y-76085771D01*
X140847619Y-76085771D02*
X140942857Y-76133390D01*
X140942857Y-76133390D02*
X140990476Y-76181009D01*
X140990476Y-76181009D02*
X141038095Y-76276247D01*
X141038095Y-76276247D02*
X141038095Y-76514342D01*
X141038095Y-76514342D02*
X140990476Y-76609580D01*
X140990476Y-76609580D02*
X140942857Y-76657200D01*
X140942857Y-76657200D02*
X140847619Y-76704819D01*
X140847619Y-76704819D02*
X140561905Y-76704819D01*
X140561905Y-76704819D02*
X140466667Y-76657200D01*
X140466667Y-76657200D02*
X140419048Y-76609580D01*
X72833333Y-91200057D02*
X72880952Y-91152438D01*
X72880952Y-91152438D02*
X72976190Y-91104819D01*
X72976190Y-91104819D02*
X73214285Y-91104819D01*
X73214285Y-91104819D02*
X73309523Y-91152438D01*
X73309523Y-91152438D02*
X73357142Y-91200057D01*
X73357142Y-91200057D02*
X73404761Y-91295295D01*
X73404761Y-91295295D02*
X73404761Y-91390533D01*
X73404761Y-91390533D02*
X73357142Y-91533390D01*
X73357142Y-91533390D02*
X72785714Y-92104819D01*
X72785714Y-92104819D02*
X73404761Y-92104819D01*
X74023809Y-91104819D02*
X74119047Y-91104819D01*
X74119047Y-91104819D02*
X74214285Y-91152438D01*
X74214285Y-91152438D02*
X74261904Y-91200057D01*
X74261904Y-91200057D02*
X74309523Y-91295295D01*
X74309523Y-91295295D02*
X74357142Y-91485771D01*
X74357142Y-91485771D02*
X74357142Y-91723866D01*
X74357142Y-91723866D02*
X74309523Y-91914342D01*
X74309523Y-91914342D02*
X74261904Y-92009580D01*
X74261904Y-92009580D02*
X74214285Y-92057200D01*
X74214285Y-92057200D02*
X74119047Y-92104819D01*
X74119047Y-92104819D02*
X74023809Y-92104819D01*
X74023809Y-92104819D02*
X73928571Y-92057200D01*
X73928571Y-92057200D02*
X73880952Y-92009580D01*
X73880952Y-92009580D02*
X73833333Y-91914342D01*
X73833333Y-91914342D02*
X73785714Y-91723866D01*
X73785714Y-91723866D02*
X73785714Y-91485771D01*
X73785714Y-91485771D02*
X73833333Y-91295295D01*
X73833333Y-91295295D02*
X73880952Y-91200057D01*
X73880952Y-91200057D02*
X73928571Y-91152438D01*
X73928571Y-91152438D02*
X74023809Y-91104819D01*
X74785714Y-92104819D02*
X74785714Y-91104819D01*
X74880952Y-91723866D02*
X75166666Y-92104819D01*
X75166666Y-91438152D02*
X74785714Y-91819104D01*
D11*
X73440476Y-90227149D02*
X73273810Y-89989054D01*
X73154762Y-90227149D02*
X73154762Y-89727149D01*
X73154762Y-89727149D02*
X73345238Y-89727149D01*
X73345238Y-89727149D02*
X73392857Y-89750959D01*
X73392857Y-89750959D02*
X73416667Y-89774768D01*
X73416667Y-89774768D02*
X73440476Y-89822387D01*
X73440476Y-89822387D02*
X73440476Y-89893816D01*
X73440476Y-89893816D02*
X73416667Y-89941435D01*
X73416667Y-89941435D02*
X73392857Y-89965244D01*
X73392857Y-89965244D02*
X73345238Y-89989054D01*
X73345238Y-89989054D02*
X73154762Y-89989054D01*
X73630953Y-89774768D02*
X73654762Y-89750959D01*
X73654762Y-89750959D02*
X73702381Y-89727149D01*
X73702381Y-89727149D02*
X73821429Y-89727149D01*
X73821429Y-89727149D02*
X73869048Y-89750959D01*
X73869048Y-89750959D02*
X73892857Y-89774768D01*
X73892857Y-89774768D02*
X73916667Y-89822387D01*
X73916667Y-89822387D02*
X73916667Y-89870006D01*
X73916667Y-89870006D02*
X73892857Y-89941435D01*
X73892857Y-89941435D02*
X73607143Y-90227149D01*
X73607143Y-90227149D02*
X73916667Y-90227149D01*
X74107143Y-89774768D02*
X74130952Y-89750959D01*
X74130952Y-89750959D02*
X74178571Y-89727149D01*
X74178571Y-89727149D02*
X74297619Y-89727149D01*
X74297619Y-89727149D02*
X74345238Y-89750959D01*
X74345238Y-89750959D02*
X74369047Y-89774768D01*
X74369047Y-89774768D02*
X74392857Y-89822387D01*
X74392857Y-89822387D02*
X74392857Y-89870006D01*
X74392857Y-89870006D02*
X74369047Y-89941435D01*
X74369047Y-89941435D02*
X74083333Y-90227149D01*
X74083333Y-90227149D02*
X74392857Y-90227149D01*
X74630952Y-90227149D02*
X74726190Y-90227149D01*
X74726190Y-90227149D02*
X74773809Y-90203340D01*
X74773809Y-90203340D02*
X74797618Y-90179530D01*
X74797618Y-90179530D02*
X74845237Y-90108101D01*
X74845237Y-90108101D02*
X74869047Y-90012863D01*
X74869047Y-90012863D02*
X74869047Y-89822387D01*
X74869047Y-89822387D02*
X74845237Y-89774768D01*
X74845237Y-89774768D02*
X74821428Y-89750959D01*
X74821428Y-89750959D02*
X74773809Y-89727149D01*
X74773809Y-89727149D02*
X74678571Y-89727149D01*
X74678571Y-89727149D02*
X74630952Y-89750959D01*
X74630952Y-89750959D02*
X74607142Y-89774768D01*
X74607142Y-89774768D02*
X74583333Y-89822387D01*
X74583333Y-89822387D02*
X74583333Y-89941435D01*
X74583333Y-89941435D02*
X74607142Y-89989054D01*
X74607142Y-89989054D02*
X74630952Y-90012863D01*
X74630952Y-90012863D02*
X74678571Y-90036673D01*
X74678571Y-90036673D02*
X74773809Y-90036673D01*
X74773809Y-90036673D02*
X74821428Y-90012863D01*
X74821428Y-90012863D02*
X74845237Y-89989054D01*
X74845237Y-89989054D02*
X74869047Y-89941435D01*
D10*
X40909524Y-63954819D02*
X40909524Y-62954819D01*
X40909524Y-62954819D02*
X41290476Y-62954819D01*
X41290476Y-62954819D02*
X41385714Y-63002438D01*
X41385714Y-63002438D02*
X41433333Y-63050057D01*
X41433333Y-63050057D02*
X41480952Y-63145295D01*
X41480952Y-63145295D02*
X41480952Y-63288152D01*
X41480952Y-63288152D02*
X41433333Y-63383390D01*
X41433333Y-63383390D02*
X41385714Y-63431009D01*
X41385714Y-63431009D02*
X41290476Y-63478628D01*
X41290476Y-63478628D02*
X40909524Y-63478628D01*
X41861905Y-63050057D02*
X41909524Y-63002438D01*
X41909524Y-63002438D02*
X42004762Y-62954819D01*
X42004762Y-62954819D02*
X42242857Y-62954819D01*
X42242857Y-62954819D02*
X42338095Y-63002438D01*
X42338095Y-63002438D02*
X42385714Y-63050057D01*
X42385714Y-63050057D02*
X42433333Y-63145295D01*
X42433333Y-63145295D02*
X42433333Y-63240533D01*
X42433333Y-63240533D02*
X42385714Y-63383390D01*
X42385714Y-63383390D02*
X41814286Y-63954819D01*
X41814286Y-63954819D02*
X42433333Y-63954819D01*
X43052381Y-62954819D02*
X43147619Y-62954819D01*
X43147619Y-62954819D02*
X43242857Y-63002438D01*
X43242857Y-63002438D02*
X43290476Y-63050057D01*
X43290476Y-63050057D02*
X43338095Y-63145295D01*
X43338095Y-63145295D02*
X43385714Y-63335771D01*
X43385714Y-63335771D02*
X43385714Y-63573866D01*
X43385714Y-63573866D02*
X43338095Y-63764342D01*
X43338095Y-63764342D02*
X43290476Y-63859580D01*
X43290476Y-63859580D02*
X43242857Y-63907200D01*
X43242857Y-63907200D02*
X43147619Y-63954819D01*
X43147619Y-63954819D02*
X43052381Y-63954819D01*
X43052381Y-63954819D02*
X42957143Y-63907200D01*
X42957143Y-63907200D02*
X42909524Y-63859580D01*
X42909524Y-63859580D02*
X42861905Y-63764342D01*
X42861905Y-63764342D02*
X42814286Y-63573866D01*
X42814286Y-63573866D02*
X42814286Y-63335771D01*
X42814286Y-63335771D02*
X42861905Y-63145295D01*
X42861905Y-63145295D02*
X42909524Y-63050057D01*
X42909524Y-63050057D02*
X42957143Y-63002438D01*
X42957143Y-63002438D02*
X43052381Y-62954819D01*
X44290476Y-62954819D02*
X43814286Y-62954819D01*
X43814286Y-62954819D02*
X43766667Y-63431009D01*
X43766667Y-63431009D02*
X43814286Y-63383390D01*
X43814286Y-63383390D02*
X43909524Y-63335771D01*
X43909524Y-63335771D02*
X44147619Y-63335771D01*
X44147619Y-63335771D02*
X44242857Y-63383390D01*
X44242857Y-63383390D02*
X44290476Y-63431009D01*
X44290476Y-63431009D02*
X44338095Y-63526247D01*
X44338095Y-63526247D02*
X44338095Y-63764342D01*
X44338095Y-63764342D02*
X44290476Y-63859580D01*
X44290476Y-63859580D02*
X44242857Y-63907200D01*
X44242857Y-63907200D02*
X44147619Y-63954819D01*
X44147619Y-63954819D02*
X43909524Y-63954819D01*
X43909524Y-63954819D02*
X43814286Y-63907200D01*
X43814286Y-63907200D02*
X43766667Y-63859580D01*
X39009524Y-63954819D02*
X39009524Y-62954819D01*
X39009524Y-62954819D02*
X39390476Y-62954819D01*
X39390476Y-62954819D02*
X39485714Y-63002438D01*
X39485714Y-63002438D02*
X39533333Y-63050057D01*
X39533333Y-63050057D02*
X39580952Y-63145295D01*
X39580952Y-63145295D02*
X39580952Y-63288152D01*
X39580952Y-63288152D02*
X39533333Y-63383390D01*
X39533333Y-63383390D02*
X39485714Y-63431009D01*
X39485714Y-63431009D02*
X39390476Y-63478628D01*
X39390476Y-63478628D02*
X39009524Y-63478628D01*
X39961905Y-63050057D02*
X40009524Y-63002438D01*
X40009524Y-63002438D02*
X40104762Y-62954819D01*
X40104762Y-62954819D02*
X40342857Y-62954819D01*
X40342857Y-62954819D02*
X40438095Y-63002438D01*
X40438095Y-63002438D02*
X40485714Y-63050057D01*
X40485714Y-63050057D02*
X40533333Y-63145295D01*
X40533333Y-63145295D02*
X40533333Y-63240533D01*
X40533333Y-63240533D02*
X40485714Y-63383390D01*
X40485714Y-63383390D02*
X39914286Y-63954819D01*
X39914286Y-63954819D02*
X40533333Y-63954819D01*
X41152381Y-62954819D02*
X41247619Y-62954819D01*
X41247619Y-62954819D02*
X41342857Y-63002438D01*
X41342857Y-63002438D02*
X41390476Y-63050057D01*
X41390476Y-63050057D02*
X41438095Y-63145295D01*
X41438095Y-63145295D02*
X41485714Y-63335771D01*
X41485714Y-63335771D02*
X41485714Y-63573866D01*
X41485714Y-63573866D02*
X41438095Y-63764342D01*
X41438095Y-63764342D02*
X41390476Y-63859580D01*
X41390476Y-63859580D02*
X41342857Y-63907200D01*
X41342857Y-63907200D02*
X41247619Y-63954819D01*
X41247619Y-63954819D02*
X41152381Y-63954819D01*
X41152381Y-63954819D02*
X41057143Y-63907200D01*
X41057143Y-63907200D02*
X41009524Y-63859580D01*
X41009524Y-63859580D02*
X40961905Y-63764342D01*
X40961905Y-63764342D02*
X40914286Y-63573866D01*
X40914286Y-63573866D02*
X40914286Y-63335771D01*
X40914286Y-63335771D02*
X40961905Y-63145295D01*
X40961905Y-63145295D02*
X41009524Y-63050057D01*
X41009524Y-63050057D02*
X41057143Y-63002438D01*
X41057143Y-63002438D02*
X41152381Y-62954819D01*
X42390476Y-62954819D02*
X41914286Y-62954819D01*
X41914286Y-62954819D02*
X41866667Y-63431009D01*
X41866667Y-63431009D02*
X41914286Y-63383390D01*
X41914286Y-63383390D02*
X42009524Y-63335771D01*
X42009524Y-63335771D02*
X42247619Y-63335771D01*
X42247619Y-63335771D02*
X42342857Y-63383390D01*
X42342857Y-63383390D02*
X42390476Y-63431009D01*
X42390476Y-63431009D02*
X42438095Y-63526247D01*
X42438095Y-63526247D02*
X42438095Y-63764342D01*
X42438095Y-63764342D02*
X42390476Y-63859580D01*
X42390476Y-63859580D02*
X42342857Y-63907200D01*
X42342857Y-63907200D02*
X42247619Y-63954819D01*
X42247619Y-63954819D02*
X42009524Y-63954819D01*
X42009524Y-63954819D02*
X41914286Y-63907200D01*
X41914286Y-63907200D02*
X41866667Y-63859580D01*
X84952381Y-53104819D02*
X85047619Y-53104819D01*
X85047619Y-53104819D02*
X85142857Y-53152438D01*
X85142857Y-53152438D02*
X85190476Y-53200057D01*
X85190476Y-53200057D02*
X85238095Y-53295295D01*
X85238095Y-53295295D02*
X85285714Y-53485771D01*
X85285714Y-53485771D02*
X85285714Y-53723866D01*
X85285714Y-53723866D02*
X85238095Y-53914342D01*
X85238095Y-53914342D02*
X85190476Y-54009580D01*
X85190476Y-54009580D02*
X85142857Y-54057200D01*
X85142857Y-54057200D02*
X85047619Y-54104819D01*
X85047619Y-54104819D02*
X84952381Y-54104819D01*
X84952381Y-54104819D02*
X84857143Y-54057200D01*
X84857143Y-54057200D02*
X84809524Y-54009580D01*
X84809524Y-54009580D02*
X84761905Y-53914342D01*
X84761905Y-53914342D02*
X84714286Y-53723866D01*
X84714286Y-53723866D02*
X84714286Y-53485771D01*
X84714286Y-53485771D02*
X84761905Y-53295295D01*
X84761905Y-53295295D02*
X84809524Y-53200057D01*
X84809524Y-53200057D02*
X84857143Y-53152438D01*
X84857143Y-53152438D02*
X84952381Y-53104819D01*
D11*
X84440476Y-52227149D02*
X84273810Y-51989054D01*
X84154762Y-52227149D02*
X84154762Y-51727149D01*
X84154762Y-51727149D02*
X84345238Y-51727149D01*
X84345238Y-51727149D02*
X84392857Y-51750959D01*
X84392857Y-51750959D02*
X84416667Y-51774768D01*
X84416667Y-51774768D02*
X84440476Y-51822387D01*
X84440476Y-51822387D02*
X84440476Y-51893816D01*
X84440476Y-51893816D02*
X84416667Y-51941435D01*
X84416667Y-51941435D02*
X84392857Y-51965244D01*
X84392857Y-51965244D02*
X84345238Y-51989054D01*
X84345238Y-51989054D02*
X84154762Y-51989054D01*
X84630953Y-51774768D02*
X84654762Y-51750959D01*
X84654762Y-51750959D02*
X84702381Y-51727149D01*
X84702381Y-51727149D02*
X84821429Y-51727149D01*
X84821429Y-51727149D02*
X84869048Y-51750959D01*
X84869048Y-51750959D02*
X84892857Y-51774768D01*
X84892857Y-51774768D02*
X84916667Y-51822387D01*
X84916667Y-51822387D02*
X84916667Y-51870006D01*
X84916667Y-51870006D02*
X84892857Y-51941435D01*
X84892857Y-51941435D02*
X84607143Y-52227149D01*
X84607143Y-52227149D02*
X84916667Y-52227149D01*
X85392857Y-52227149D02*
X85107143Y-52227149D01*
X85250000Y-52227149D02*
X85250000Y-51727149D01*
X85250000Y-51727149D02*
X85202381Y-51798578D01*
X85202381Y-51798578D02*
X85154762Y-51846197D01*
X85154762Y-51846197D02*
X85107143Y-51870006D01*
X85583333Y-51774768D02*
X85607142Y-51750959D01*
X85607142Y-51750959D02*
X85654761Y-51727149D01*
X85654761Y-51727149D02*
X85773809Y-51727149D01*
X85773809Y-51727149D02*
X85821428Y-51750959D01*
X85821428Y-51750959D02*
X85845237Y-51774768D01*
X85845237Y-51774768D02*
X85869047Y-51822387D01*
X85869047Y-51822387D02*
X85869047Y-51870006D01*
X85869047Y-51870006D02*
X85845237Y-51941435D01*
X85845237Y-51941435D02*
X85559523Y-52227149D01*
X85559523Y-52227149D02*
X85869047Y-52227149D01*
D10*
X135709524Y-50704819D02*
X135709524Y-49704819D01*
X135709524Y-49704819D02*
X136090476Y-49704819D01*
X136090476Y-49704819D02*
X136185714Y-49752438D01*
X136185714Y-49752438D02*
X136233333Y-49800057D01*
X136233333Y-49800057D02*
X136280952Y-49895295D01*
X136280952Y-49895295D02*
X136280952Y-50038152D01*
X136280952Y-50038152D02*
X136233333Y-50133390D01*
X136233333Y-50133390D02*
X136185714Y-50181009D01*
X136185714Y-50181009D02*
X136090476Y-50228628D01*
X136090476Y-50228628D02*
X135709524Y-50228628D01*
X136661905Y-49800057D02*
X136709524Y-49752438D01*
X136709524Y-49752438D02*
X136804762Y-49704819D01*
X136804762Y-49704819D02*
X137042857Y-49704819D01*
X137042857Y-49704819D02*
X137138095Y-49752438D01*
X137138095Y-49752438D02*
X137185714Y-49800057D01*
X137185714Y-49800057D02*
X137233333Y-49895295D01*
X137233333Y-49895295D02*
X137233333Y-49990533D01*
X137233333Y-49990533D02*
X137185714Y-50133390D01*
X137185714Y-50133390D02*
X136614286Y-50704819D01*
X136614286Y-50704819D02*
X137233333Y-50704819D01*
X137852381Y-49704819D02*
X137947619Y-49704819D01*
X137947619Y-49704819D02*
X138042857Y-49752438D01*
X138042857Y-49752438D02*
X138090476Y-49800057D01*
X138090476Y-49800057D02*
X138138095Y-49895295D01*
X138138095Y-49895295D02*
X138185714Y-50085771D01*
X138185714Y-50085771D02*
X138185714Y-50323866D01*
X138185714Y-50323866D02*
X138138095Y-50514342D01*
X138138095Y-50514342D02*
X138090476Y-50609580D01*
X138090476Y-50609580D02*
X138042857Y-50657200D01*
X138042857Y-50657200D02*
X137947619Y-50704819D01*
X137947619Y-50704819D02*
X137852381Y-50704819D01*
X137852381Y-50704819D02*
X137757143Y-50657200D01*
X137757143Y-50657200D02*
X137709524Y-50609580D01*
X137709524Y-50609580D02*
X137661905Y-50514342D01*
X137661905Y-50514342D02*
X137614286Y-50323866D01*
X137614286Y-50323866D02*
X137614286Y-50085771D01*
X137614286Y-50085771D02*
X137661905Y-49895295D01*
X137661905Y-49895295D02*
X137709524Y-49800057D01*
X137709524Y-49800057D02*
X137757143Y-49752438D01*
X137757143Y-49752438D02*
X137852381Y-49704819D01*
X138566667Y-49800057D02*
X138614286Y-49752438D01*
X138614286Y-49752438D02*
X138709524Y-49704819D01*
X138709524Y-49704819D02*
X138947619Y-49704819D01*
X138947619Y-49704819D02*
X139042857Y-49752438D01*
X139042857Y-49752438D02*
X139090476Y-49800057D01*
X139090476Y-49800057D02*
X139138095Y-49895295D01*
X139138095Y-49895295D02*
X139138095Y-49990533D01*
X139138095Y-49990533D02*
X139090476Y-50133390D01*
X139090476Y-50133390D02*
X138519048Y-50704819D01*
X138519048Y-50704819D02*
X139138095Y-50704819D01*
X137609524Y-50704819D02*
X137609524Y-49704819D01*
X137609524Y-49704819D02*
X137990476Y-49704819D01*
X137990476Y-49704819D02*
X138085714Y-49752438D01*
X138085714Y-49752438D02*
X138133333Y-49800057D01*
X138133333Y-49800057D02*
X138180952Y-49895295D01*
X138180952Y-49895295D02*
X138180952Y-50038152D01*
X138180952Y-50038152D02*
X138133333Y-50133390D01*
X138133333Y-50133390D02*
X138085714Y-50181009D01*
X138085714Y-50181009D02*
X137990476Y-50228628D01*
X137990476Y-50228628D02*
X137609524Y-50228628D01*
X138561905Y-49800057D02*
X138609524Y-49752438D01*
X138609524Y-49752438D02*
X138704762Y-49704819D01*
X138704762Y-49704819D02*
X138942857Y-49704819D01*
X138942857Y-49704819D02*
X139038095Y-49752438D01*
X139038095Y-49752438D02*
X139085714Y-49800057D01*
X139085714Y-49800057D02*
X139133333Y-49895295D01*
X139133333Y-49895295D02*
X139133333Y-49990533D01*
X139133333Y-49990533D02*
X139085714Y-50133390D01*
X139085714Y-50133390D02*
X138514286Y-50704819D01*
X138514286Y-50704819D02*
X139133333Y-50704819D01*
X139752381Y-49704819D02*
X139847619Y-49704819D01*
X139847619Y-49704819D02*
X139942857Y-49752438D01*
X139942857Y-49752438D02*
X139990476Y-49800057D01*
X139990476Y-49800057D02*
X140038095Y-49895295D01*
X140038095Y-49895295D02*
X140085714Y-50085771D01*
X140085714Y-50085771D02*
X140085714Y-50323866D01*
X140085714Y-50323866D02*
X140038095Y-50514342D01*
X140038095Y-50514342D02*
X139990476Y-50609580D01*
X139990476Y-50609580D02*
X139942857Y-50657200D01*
X139942857Y-50657200D02*
X139847619Y-50704819D01*
X139847619Y-50704819D02*
X139752381Y-50704819D01*
X139752381Y-50704819D02*
X139657143Y-50657200D01*
X139657143Y-50657200D02*
X139609524Y-50609580D01*
X139609524Y-50609580D02*
X139561905Y-50514342D01*
X139561905Y-50514342D02*
X139514286Y-50323866D01*
X139514286Y-50323866D02*
X139514286Y-50085771D01*
X139514286Y-50085771D02*
X139561905Y-49895295D01*
X139561905Y-49895295D02*
X139609524Y-49800057D01*
X139609524Y-49800057D02*
X139657143Y-49752438D01*
X139657143Y-49752438D02*
X139752381Y-49704819D01*
X140466667Y-49800057D02*
X140514286Y-49752438D01*
X140514286Y-49752438D02*
X140609524Y-49704819D01*
X140609524Y-49704819D02*
X140847619Y-49704819D01*
X140847619Y-49704819D02*
X140942857Y-49752438D01*
X140942857Y-49752438D02*
X140990476Y-49800057D01*
X140990476Y-49800057D02*
X141038095Y-49895295D01*
X141038095Y-49895295D02*
X141038095Y-49990533D01*
X141038095Y-49990533D02*
X140990476Y-50133390D01*
X140990476Y-50133390D02*
X140419048Y-50704819D01*
X140419048Y-50704819D02*
X141038095Y-50704819D01*
X35190476Y-108604819D02*
X35190476Y-107604819D01*
X35190476Y-107604819D02*
X35523809Y-108319104D01*
X35523809Y-108319104D02*
X35857142Y-107604819D01*
X35857142Y-107604819D02*
X35857142Y-108604819D01*
X36238095Y-107604819D02*
X36857142Y-107604819D01*
X36857142Y-107604819D02*
X36523809Y-107985771D01*
X36523809Y-107985771D02*
X36666666Y-107985771D01*
X36666666Y-107985771D02*
X36761904Y-108033390D01*
X36761904Y-108033390D02*
X36809523Y-108081009D01*
X36809523Y-108081009D02*
X36857142Y-108176247D01*
X36857142Y-108176247D02*
X36857142Y-108414342D01*
X36857142Y-108414342D02*
X36809523Y-108509580D01*
X36809523Y-108509580D02*
X36761904Y-108557200D01*
X36761904Y-108557200D02*
X36666666Y-108604819D01*
X36666666Y-108604819D02*
X36380952Y-108604819D01*
X36380952Y-108604819D02*
X36285714Y-108557200D01*
X36285714Y-108557200D02*
X36238095Y-108509580D01*
X35238095Y-104454819D02*
X35238095Y-103454819D01*
X35238095Y-103931009D02*
X35809523Y-103931009D01*
X35809523Y-104454819D02*
X35809523Y-103454819D01*
X36190476Y-103454819D02*
X36809523Y-103454819D01*
X36809523Y-103454819D02*
X36476190Y-103835771D01*
X36476190Y-103835771D02*
X36619047Y-103835771D01*
X36619047Y-103835771D02*
X36714285Y-103883390D01*
X36714285Y-103883390D02*
X36761904Y-103931009D01*
X36761904Y-103931009D02*
X36809523Y-104026247D01*
X36809523Y-104026247D02*
X36809523Y-104264342D01*
X36809523Y-104264342D02*
X36761904Y-104359580D01*
X36761904Y-104359580D02*
X36714285Y-104407200D01*
X36714285Y-104407200D02*
X36619047Y-104454819D01*
X36619047Y-104454819D02*
X36333333Y-104454819D01*
X36333333Y-104454819D02*
X36238095Y-104407200D01*
X36238095Y-104407200D02*
X36190476Y-104359580D01*
X81333333Y-42104819D02*
X80761905Y-42104819D01*
X81047619Y-42104819D02*
X81047619Y-41104819D01*
X81047619Y-41104819D02*
X80952381Y-41247676D01*
X80952381Y-41247676D02*
X80857143Y-41342914D01*
X80857143Y-41342914D02*
X80761905Y-41390533D01*
X81952381Y-41104819D02*
X82047619Y-41104819D01*
X82047619Y-41104819D02*
X82142857Y-41152438D01*
X82142857Y-41152438D02*
X82190476Y-41200057D01*
X82190476Y-41200057D02*
X82238095Y-41295295D01*
X82238095Y-41295295D02*
X82285714Y-41485771D01*
X82285714Y-41485771D02*
X82285714Y-41723866D01*
X82285714Y-41723866D02*
X82238095Y-41914342D01*
X82238095Y-41914342D02*
X82190476Y-42009580D01*
X82190476Y-42009580D02*
X82142857Y-42057200D01*
X82142857Y-42057200D02*
X82047619Y-42104819D01*
X82047619Y-42104819D02*
X81952381Y-42104819D01*
X81952381Y-42104819D02*
X81857143Y-42057200D01*
X81857143Y-42057200D02*
X81809524Y-42009580D01*
X81809524Y-42009580D02*
X81761905Y-41914342D01*
X81761905Y-41914342D02*
X81714286Y-41723866D01*
X81714286Y-41723866D02*
X81714286Y-41485771D01*
X81714286Y-41485771D02*
X81761905Y-41295295D01*
X81761905Y-41295295D02*
X81809524Y-41200057D01*
X81809524Y-41200057D02*
X81857143Y-41152438D01*
X81857143Y-41152438D02*
X81952381Y-41104819D01*
X82904762Y-41104819D02*
X83000000Y-41104819D01*
X83000000Y-41104819D02*
X83095238Y-41152438D01*
X83095238Y-41152438D02*
X83142857Y-41200057D01*
X83142857Y-41200057D02*
X83190476Y-41295295D01*
X83190476Y-41295295D02*
X83238095Y-41485771D01*
X83238095Y-41485771D02*
X83238095Y-41723866D01*
X83238095Y-41723866D02*
X83190476Y-41914342D01*
X83190476Y-41914342D02*
X83142857Y-42009580D01*
X83142857Y-42009580D02*
X83095238Y-42057200D01*
X83095238Y-42057200D02*
X83000000Y-42104819D01*
X83000000Y-42104819D02*
X82904762Y-42104819D01*
X82904762Y-42104819D02*
X82809524Y-42057200D01*
X82809524Y-42057200D02*
X82761905Y-42009580D01*
X82761905Y-42009580D02*
X82714286Y-41914342D01*
X82714286Y-41914342D02*
X82666667Y-41723866D01*
X82666667Y-41723866D02*
X82666667Y-41485771D01*
X82666667Y-41485771D02*
X82714286Y-41295295D01*
X82714286Y-41295295D02*
X82761905Y-41200057D01*
X82761905Y-41200057D02*
X82809524Y-41152438D01*
X82809524Y-41152438D02*
X82904762Y-41104819D01*
D11*
X81440476Y-40227149D02*
X81273810Y-39989054D01*
X81154762Y-40227149D02*
X81154762Y-39727149D01*
X81154762Y-39727149D02*
X81345238Y-39727149D01*
X81345238Y-39727149D02*
X81392857Y-39750959D01*
X81392857Y-39750959D02*
X81416667Y-39774768D01*
X81416667Y-39774768D02*
X81440476Y-39822387D01*
X81440476Y-39822387D02*
X81440476Y-39893816D01*
X81440476Y-39893816D02*
X81416667Y-39941435D01*
X81416667Y-39941435D02*
X81392857Y-39965244D01*
X81392857Y-39965244D02*
X81345238Y-39989054D01*
X81345238Y-39989054D02*
X81154762Y-39989054D01*
X81630953Y-39774768D02*
X81654762Y-39750959D01*
X81654762Y-39750959D02*
X81702381Y-39727149D01*
X81702381Y-39727149D02*
X81821429Y-39727149D01*
X81821429Y-39727149D02*
X81869048Y-39750959D01*
X81869048Y-39750959D02*
X81892857Y-39774768D01*
X81892857Y-39774768D02*
X81916667Y-39822387D01*
X81916667Y-39822387D02*
X81916667Y-39870006D01*
X81916667Y-39870006D02*
X81892857Y-39941435D01*
X81892857Y-39941435D02*
X81607143Y-40227149D01*
X81607143Y-40227149D02*
X81916667Y-40227149D01*
X82226190Y-39727149D02*
X82273809Y-39727149D01*
X82273809Y-39727149D02*
X82321428Y-39750959D01*
X82321428Y-39750959D02*
X82345238Y-39774768D01*
X82345238Y-39774768D02*
X82369047Y-39822387D01*
X82369047Y-39822387D02*
X82392857Y-39917625D01*
X82392857Y-39917625D02*
X82392857Y-40036673D01*
X82392857Y-40036673D02*
X82369047Y-40131911D01*
X82369047Y-40131911D02*
X82345238Y-40179530D01*
X82345238Y-40179530D02*
X82321428Y-40203340D01*
X82321428Y-40203340D02*
X82273809Y-40227149D01*
X82273809Y-40227149D02*
X82226190Y-40227149D01*
X82226190Y-40227149D02*
X82178571Y-40203340D01*
X82178571Y-40203340D02*
X82154762Y-40179530D01*
X82154762Y-40179530D02*
X82130952Y-40131911D01*
X82130952Y-40131911D02*
X82107143Y-40036673D01*
X82107143Y-40036673D02*
X82107143Y-39917625D01*
X82107143Y-39917625D02*
X82130952Y-39822387D01*
X82130952Y-39822387D02*
X82154762Y-39774768D01*
X82154762Y-39774768D02*
X82178571Y-39750959D01*
X82178571Y-39750959D02*
X82226190Y-39727149D01*
X82845237Y-39727149D02*
X82607142Y-39727149D01*
X82607142Y-39727149D02*
X82583333Y-39965244D01*
X82583333Y-39965244D02*
X82607142Y-39941435D01*
X82607142Y-39941435D02*
X82654761Y-39917625D01*
X82654761Y-39917625D02*
X82773809Y-39917625D01*
X82773809Y-39917625D02*
X82821428Y-39941435D01*
X82821428Y-39941435D02*
X82845237Y-39965244D01*
X82845237Y-39965244D02*
X82869047Y-40012863D01*
X82869047Y-40012863D02*
X82869047Y-40131911D01*
X82869047Y-40131911D02*
X82845237Y-40179530D01*
X82845237Y-40179530D02*
X82821428Y-40203340D01*
X82821428Y-40203340D02*
X82773809Y-40227149D01*
X82773809Y-40227149D02*
X82654761Y-40227149D01*
X82654761Y-40227149D02*
X82607142Y-40203340D01*
X82607142Y-40203340D02*
X82583333Y-40179530D01*
D10*
X93333333Y-92104819D02*
X92761905Y-92104819D01*
X93047619Y-92104819D02*
X93047619Y-91104819D01*
X93047619Y-91104819D02*
X92952381Y-91247676D01*
X92952381Y-91247676D02*
X92857143Y-91342914D01*
X92857143Y-91342914D02*
X92761905Y-91390533D01*
X93952381Y-91104819D02*
X94047619Y-91104819D01*
X94047619Y-91104819D02*
X94142857Y-91152438D01*
X94142857Y-91152438D02*
X94190476Y-91200057D01*
X94190476Y-91200057D02*
X94238095Y-91295295D01*
X94238095Y-91295295D02*
X94285714Y-91485771D01*
X94285714Y-91485771D02*
X94285714Y-91723866D01*
X94285714Y-91723866D02*
X94238095Y-91914342D01*
X94238095Y-91914342D02*
X94190476Y-92009580D01*
X94190476Y-92009580D02*
X94142857Y-92057200D01*
X94142857Y-92057200D02*
X94047619Y-92104819D01*
X94047619Y-92104819D02*
X93952381Y-92104819D01*
X93952381Y-92104819D02*
X93857143Y-92057200D01*
X93857143Y-92057200D02*
X93809524Y-92009580D01*
X93809524Y-92009580D02*
X93761905Y-91914342D01*
X93761905Y-91914342D02*
X93714286Y-91723866D01*
X93714286Y-91723866D02*
X93714286Y-91485771D01*
X93714286Y-91485771D02*
X93761905Y-91295295D01*
X93761905Y-91295295D02*
X93809524Y-91200057D01*
X93809524Y-91200057D02*
X93857143Y-91152438D01*
X93857143Y-91152438D02*
X93952381Y-91104819D01*
X94904762Y-91104819D02*
X95000000Y-91104819D01*
X95000000Y-91104819D02*
X95095238Y-91152438D01*
X95095238Y-91152438D02*
X95142857Y-91200057D01*
X95142857Y-91200057D02*
X95190476Y-91295295D01*
X95190476Y-91295295D02*
X95238095Y-91485771D01*
X95238095Y-91485771D02*
X95238095Y-91723866D01*
X95238095Y-91723866D02*
X95190476Y-91914342D01*
X95190476Y-91914342D02*
X95142857Y-92009580D01*
X95142857Y-92009580D02*
X95095238Y-92057200D01*
X95095238Y-92057200D02*
X95000000Y-92104819D01*
X95000000Y-92104819D02*
X94904762Y-92104819D01*
X94904762Y-92104819D02*
X94809524Y-92057200D01*
X94809524Y-92057200D02*
X94761905Y-92009580D01*
X94761905Y-92009580D02*
X94714286Y-91914342D01*
X94714286Y-91914342D02*
X94666667Y-91723866D01*
X94666667Y-91723866D02*
X94666667Y-91485771D01*
X94666667Y-91485771D02*
X94714286Y-91295295D01*
X94714286Y-91295295D02*
X94761905Y-91200057D01*
X94761905Y-91200057D02*
X94809524Y-91152438D01*
X94809524Y-91152438D02*
X94904762Y-91104819D01*
D11*
X93440476Y-90227149D02*
X93273810Y-89989054D01*
X93154762Y-90227149D02*
X93154762Y-89727149D01*
X93154762Y-89727149D02*
X93345238Y-89727149D01*
X93345238Y-89727149D02*
X93392857Y-89750959D01*
X93392857Y-89750959D02*
X93416667Y-89774768D01*
X93416667Y-89774768D02*
X93440476Y-89822387D01*
X93440476Y-89822387D02*
X93440476Y-89893816D01*
X93440476Y-89893816D02*
X93416667Y-89941435D01*
X93416667Y-89941435D02*
X93392857Y-89965244D01*
X93392857Y-89965244D02*
X93345238Y-89989054D01*
X93345238Y-89989054D02*
X93154762Y-89989054D01*
X93630953Y-89774768D02*
X93654762Y-89750959D01*
X93654762Y-89750959D02*
X93702381Y-89727149D01*
X93702381Y-89727149D02*
X93821429Y-89727149D01*
X93821429Y-89727149D02*
X93869048Y-89750959D01*
X93869048Y-89750959D02*
X93892857Y-89774768D01*
X93892857Y-89774768D02*
X93916667Y-89822387D01*
X93916667Y-89822387D02*
X93916667Y-89870006D01*
X93916667Y-89870006D02*
X93892857Y-89941435D01*
X93892857Y-89941435D02*
X93607143Y-90227149D01*
X93607143Y-90227149D02*
X93916667Y-90227149D01*
X94107143Y-89774768D02*
X94130952Y-89750959D01*
X94130952Y-89750959D02*
X94178571Y-89727149D01*
X94178571Y-89727149D02*
X94297619Y-89727149D01*
X94297619Y-89727149D02*
X94345238Y-89750959D01*
X94345238Y-89750959D02*
X94369047Y-89774768D01*
X94369047Y-89774768D02*
X94392857Y-89822387D01*
X94392857Y-89822387D02*
X94392857Y-89870006D01*
X94392857Y-89870006D02*
X94369047Y-89941435D01*
X94369047Y-89941435D02*
X94083333Y-90227149D01*
X94083333Y-90227149D02*
X94392857Y-90227149D01*
X94869047Y-90227149D02*
X94583333Y-90227149D01*
X94726190Y-90227149D02*
X94726190Y-89727149D01*
X94726190Y-89727149D02*
X94678571Y-89798578D01*
X94678571Y-89798578D02*
X94630952Y-89846197D01*
X94630952Y-89846197D02*
X94583333Y-89870006D01*
D10*
X93333333Y-42104819D02*
X92761905Y-42104819D01*
X93047619Y-42104819D02*
X93047619Y-41104819D01*
X93047619Y-41104819D02*
X92952381Y-41247676D01*
X92952381Y-41247676D02*
X92857143Y-41342914D01*
X92857143Y-41342914D02*
X92761905Y-41390533D01*
X93952381Y-41104819D02*
X94047619Y-41104819D01*
X94047619Y-41104819D02*
X94142857Y-41152438D01*
X94142857Y-41152438D02*
X94190476Y-41200057D01*
X94190476Y-41200057D02*
X94238095Y-41295295D01*
X94238095Y-41295295D02*
X94285714Y-41485771D01*
X94285714Y-41485771D02*
X94285714Y-41723866D01*
X94285714Y-41723866D02*
X94238095Y-41914342D01*
X94238095Y-41914342D02*
X94190476Y-42009580D01*
X94190476Y-42009580D02*
X94142857Y-42057200D01*
X94142857Y-42057200D02*
X94047619Y-42104819D01*
X94047619Y-42104819D02*
X93952381Y-42104819D01*
X93952381Y-42104819D02*
X93857143Y-42057200D01*
X93857143Y-42057200D02*
X93809524Y-42009580D01*
X93809524Y-42009580D02*
X93761905Y-41914342D01*
X93761905Y-41914342D02*
X93714286Y-41723866D01*
X93714286Y-41723866D02*
X93714286Y-41485771D01*
X93714286Y-41485771D02*
X93761905Y-41295295D01*
X93761905Y-41295295D02*
X93809524Y-41200057D01*
X93809524Y-41200057D02*
X93857143Y-41152438D01*
X93857143Y-41152438D02*
X93952381Y-41104819D01*
X94904762Y-41104819D02*
X95000000Y-41104819D01*
X95000000Y-41104819D02*
X95095238Y-41152438D01*
X95095238Y-41152438D02*
X95142857Y-41200057D01*
X95142857Y-41200057D02*
X95190476Y-41295295D01*
X95190476Y-41295295D02*
X95238095Y-41485771D01*
X95238095Y-41485771D02*
X95238095Y-41723866D01*
X95238095Y-41723866D02*
X95190476Y-41914342D01*
X95190476Y-41914342D02*
X95142857Y-42009580D01*
X95142857Y-42009580D02*
X95095238Y-42057200D01*
X95095238Y-42057200D02*
X95000000Y-42104819D01*
X95000000Y-42104819D02*
X94904762Y-42104819D01*
X94904762Y-42104819D02*
X94809524Y-42057200D01*
X94809524Y-42057200D02*
X94761905Y-42009580D01*
X94761905Y-42009580D02*
X94714286Y-41914342D01*
X94714286Y-41914342D02*
X94666667Y-41723866D01*
X94666667Y-41723866D02*
X94666667Y-41485771D01*
X94666667Y-41485771D02*
X94714286Y-41295295D01*
X94714286Y-41295295D02*
X94761905Y-41200057D01*
X94761905Y-41200057D02*
X94809524Y-41152438D01*
X94809524Y-41152438D02*
X94904762Y-41104819D01*
D11*
X93440476Y-40227149D02*
X93273810Y-39989054D01*
X93154762Y-40227149D02*
X93154762Y-39727149D01*
X93154762Y-39727149D02*
X93345238Y-39727149D01*
X93345238Y-39727149D02*
X93392857Y-39750959D01*
X93392857Y-39750959D02*
X93416667Y-39774768D01*
X93416667Y-39774768D02*
X93440476Y-39822387D01*
X93440476Y-39822387D02*
X93440476Y-39893816D01*
X93440476Y-39893816D02*
X93416667Y-39941435D01*
X93416667Y-39941435D02*
X93392857Y-39965244D01*
X93392857Y-39965244D02*
X93345238Y-39989054D01*
X93345238Y-39989054D02*
X93154762Y-39989054D01*
X93630953Y-39774768D02*
X93654762Y-39750959D01*
X93654762Y-39750959D02*
X93702381Y-39727149D01*
X93702381Y-39727149D02*
X93821429Y-39727149D01*
X93821429Y-39727149D02*
X93869048Y-39750959D01*
X93869048Y-39750959D02*
X93892857Y-39774768D01*
X93892857Y-39774768D02*
X93916667Y-39822387D01*
X93916667Y-39822387D02*
X93916667Y-39870006D01*
X93916667Y-39870006D02*
X93892857Y-39941435D01*
X93892857Y-39941435D02*
X93607143Y-40227149D01*
X93607143Y-40227149D02*
X93916667Y-40227149D01*
X94226190Y-39727149D02*
X94273809Y-39727149D01*
X94273809Y-39727149D02*
X94321428Y-39750959D01*
X94321428Y-39750959D02*
X94345238Y-39774768D01*
X94345238Y-39774768D02*
X94369047Y-39822387D01*
X94369047Y-39822387D02*
X94392857Y-39917625D01*
X94392857Y-39917625D02*
X94392857Y-40036673D01*
X94392857Y-40036673D02*
X94369047Y-40131911D01*
X94369047Y-40131911D02*
X94345238Y-40179530D01*
X94345238Y-40179530D02*
X94321428Y-40203340D01*
X94321428Y-40203340D02*
X94273809Y-40227149D01*
X94273809Y-40227149D02*
X94226190Y-40227149D01*
X94226190Y-40227149D02*
X94178571Y-40203340D01*
X94178571Y-40203340D02*
X94154762Y-40179530D01*
X94154762Y-40179530D02*
X94130952Y-40131911D01*
X94130952Y-40131911D02*
X94107143Y-40036673D01*
X94107143Y-40036673D02*
X94107143Y-39917625D01*
X94107143Y-39917625D02*
X94130952Y-39822387D01*
X94130952Y-39822387D02*
X94154762Y-39774768D01*
X94154762Y-39774768D02*
X94178571Y-39750959D01*
X94178571Y-39750959D02*
X94226190Y-39727149D01*
X94869047Y-40227149D02*
X94583333Y-40227149D01*
X94726190Y-40227149D02*
X94726190Y-39727149D01*
X94726190Y-39727149D02*
X94678571Y-39798578D01*
X94678571Y-39798578D02*
X94630952Y-39846197D01*
X94630952Y-39846197D02*
X94583333Y-39870006D01*
D10*
X109285714Y-66554819D02*
X108714286Y-66554819D01*
X109000000Y-66554819D02*
X109000000Y-65554819D01*
X109000000Y-65554819D02*
X108904762Y-65697676D01*
X108904762Y-65697676D02*
X108809524Y-65792914D01*
X108809524Y-65792914D02*
X108714286Y-65840533D01*
X109714286Y-66554819D02*
X109714286Y-65554819D01*
X109714286Y-65554819D02*
X110285714Y-66554819D01*
X110285714Y-66554819D02*
X110285714Y-65554819D01*
X111190476Y-65888152D02*
X111190476Y-66554819D01*
X110952381Y-65507200D02*
X110714286Y-66221485D01*
X110714286Y-66221485D02*
X111333333Y-66221485D01*
X112238095Y-66554819D02*
X111666667Y-66554819D01*
X111952381Y-66554819D02*
X111952381Y-65554819D01*
X111952381Y-65554819D02*
X111857143Y-65697676D01*
X111857143Y-65697676D02*
X111761905Y-65792914D01*
X111761905Y-65792914D02*
X111666667Y-65840533D01*
X113095238Y-65888152D02*
X113095238Y-66554819D01*
X112857143Y-65507200D02*
X112619048Y-66221485D01*
X112619048Y-66221485D02*
X113238095Y-66221485D01*
X113761905Y-65983390D02*
X113666667Y-65935771D01*
X113666667Y-65935771D02*
X113619048Y-65888152D01*
X113619048Y-65888152D02*
X113571429Y-65792914D01*
X113571429Y-65792914D02*
X113571429Y-65745295D01*
X113571429Y-65745295D02*
X113619048Y-65650057D01*
X113619048Y-65650057D02*
X113666667Y-65602438D01*
X113666667Y-65602438D02*
X113761905Y-65554819D01*
X113761905Y-65554819D02*
X113952381Y-65554819D01*
X113952381Y-65554819D02*
X114047619Y-65602438D01*
X114047619Y-65602438D02*
X114095238Y-65650057D01*
X114095238Y-65650057D02*
X114142857Y-65745295D01*
X114142857Y-65745295D02*
X114142857Y-65792914D01*
X114142857Y-65792914D02*
X114095238Y-65888152D01*
X114095238Y-65888152D02*
X114047619Y-65935771D01*
X114047619Y-65935771D02*
X113952381Y-65983390D01*
X113952381Y-65983390D02*
X113761905Y-65983390D01*
X113761905Y-65983390D02*
X113666667Y-66031009D01*
X113666667Y-66031009D02*
X113619048Y-66078628D01*
X113619048Y-66078628D02*
X113571429Y-66173866D01*
X113571429Y-66173866D02*
X113571429Y-66364342D01*
X113571429Y-66364342D02*
X113619048Y-66459580D01*
X113619048Y-66459580D02*
X113666667Y-66507200D01*
X113666667Y-66507200D02*
X113761905Y-66554819D01*
X113761905Y-66554819D02*
X113952381Y-66554819D01*
X113952381Y-66554819D02*
X114047619Y-66507200D01*
X114047619Y-66507200D02*
X114095238Y-66459580D01*
X114095238Y-66459580D02*
X114142857Y-66364342D01*
X114142857Y-66364342D02*
X114142857Y-66173866D01*
X114142857Y-66173866D02*
X114095238Y-66078628D01*
X114095238Y-66078628D02*
X114047619Y-66031009D01*
X114047619Y-66031009D02*
X113952381Y-65983390D01*
X114476191Y-65554819D02*
X114714286Y-66554819D01*
X114714286Y-66554819D02*
X114904762Y-65840533D01*
X114904762Y-65840533D02*
X115095238Y-66554819D01*
X115095238Y-66554819D02*
X115333334Y-65554819D01*
X110309524Y-62454819D02*
X110309524Y-61454819D01*
X110309524Y-61454819D02*
X110547619Y-61454819D01*
X110547619Y-61454819D02*
X110690476Y-61502438D01*
X110690476Y-61502438D02*
X110785714Y-61597676D01*
X110785714Y-61597676D02*
X110833333Y-61692914D01*
X110833333Y-61692914D02*
X110880952Y-61883390D01*
X110880952Y-61883390D02*
X110880952Y-62026247D01*
X110880952Y-62026247D02*
X110833333Y-62216723D01*
X110833333Y-62216723D02*
X110785714Y-62311961D01*
X110785714Y-62311961D02*
X110690476Y-62407200D01*
X110690476Y-62407200D02*
X110547619Y-62454819D01*
X110547619Y-62454819D02*
X110309524Y-62454819D01*
X111261905Y-61550057D02*
X111309524Y-61502438D01*
X111309524Y-61502438D02*
X111404762Y-61454819D01*
X111404762Y-61454819D02*
X111642857Y-61454819D01*
X111642857Y-61454819D02*
X111738095Y-61502438D01*
X111738095Y-61502438D02*
X111785714Y-61550057D01*
X111785714Y-61550057D02*
X111833333Y-61645295D01*
X111833333Y-61645295D02*
X111833333Y-61740533D01*
X111833333Y-61740533D02*
X111785714Y-61883390D01*
X111785714Y-61883390D02*
X111214286Y-62454819D01*
X111214286Y-62454819D02*
X111833333Y-62454819D01*
X112690476Y-61454819D02*
X112500000Y-61454819D01*
X112500000Y-61454819D02*
X112404762Y-61502438D01*
X112404762Y-61502438D02*
X112357143Y-61550057D01*
X112357143Y-61550057D02*
X112261905Y-61692914D01*
X112261905Y-61692914D02*
X112214286Y-61883390D01*
X112214286Y-61883390D02*
X112214286Y-62264342D01*
X112214286Y-62264342D02*
X112261905Y-62359580D01*
X112261905Y-62359580D02*
X112309524Y-62407200D01*
X112309524Y-62407200D02*
X112404762Y-62454819D01*
X112404762Y-62454819D02*
X112595238Y-62454819D01*
X112595238Y-62454819D02*
X112690476Y-62407200D01*
X112690476Y-62407200D02*
X112738095Y-62359580D01*
X112738095Y-62359580D02*
X112785714Y-62264342D01*
X112785714Y-62264342D02*
X112785714Y-62026247D01*
X112785714Y-62026247D02*
X112738095Y-61931009D01*
X112738095Y-61931009D02*
X112690476Y-61883390D01*
X112690476Y-61883390D02*
X112595238Y-61835771D01*
X112595238Y-61835771D02*
X112404762Y-61835771D01*
X112404762Y-61835771D02*
X112309524Y-61883390D01*
X112309524Y-61883390D02*
X112261905Y-61931009D01*
X112261905Y-61931009D02*
X112214286Y-62026247D01*
X113166667Y-61550057D02*
X113214286Y-61502438D01*
X113214286Y-61502438D02*
X113309524Y-61454819D01*
X113309524Y-61454819D02*
X113547619Y-61454819D01*
X113547619Y-61454819D02*
X113642857Y-61502438D01*
X113642857Y-61502438D02*
X113690476Y-61550057D01*
X113690476Y-61550057D02*
X113738095Y-61645295D01*
X113738095Y-61645295D02*
X113738095Y-61740533D01*
X113738095Y-61740533D02*
X113690476Y-61883390D01*
X113690476Y-61883390D02*
X113119048Y-62454819D01*
X113119048Y-62454819D02*
X113738095Y-62454819D01*
X132904761Y-73692438D02*
X132809523Y-73644819D01*
X132809523Y-73644819D02*
X132666666Y-73644819D01*
X132666666Y-73644819D02*
X132523809Y-73692438D01*
X132523809Y-73692438D02*
X132428571Y-73787676D01*
X132428571Y-73787676D02*
X132380952Y-73882914D01*
X132380952Y-73882914D02*
X132333333Y-74073390D01*
X132333333Y-74073390D02*
X132333333Y-74216247D01*
X132333333Y-74216247D02*
X132380952Y-74406723D01*
X132380952Y-74406723D02*
X132428571Y-74501961D01*
X132428571Y-74501961D02*
X132523809Y-74597200D01*
X132523809Y-74597200D02*
X132666666Y-74644819D01*
X132666666Y-74644819D02*
X132761904Y-74644819D01*
X132761904Y-74644819D02*
X132904761Y-74597200D01*
X132904761Y-74597200D02*
X132952380Y-74549580D01*
X132952380Y-74549580D02*
X132952380Y-74216247D01*
X132952380Y-74216247D02*
X132761904Y-74216247D01*
X133857142Y-73644819D02*
X133380952Y-73644819D01*
X133380952Y-73644819D02*
X133333333Y-74121009D01*
X133333333Y-74121009D02*
X133380952Y-74073390D01*
X133380952Y-74073390D02*
X133476190Y-74025771D01*
X133476190Y-74025771D02*
X133714285Y-74025771D01*
X133714285Y-74025771D02*
X133809523Y-74073390D01*
X133809523Y-74073390D02*
X133857142Y-74121009D01*
X133857142Y-74121009D02*
X133904761Y-74216247D01*
X133904761Y-74216247D02*
X133904761Y-74454342D01*
X133904761Y-74454342D02*
X133857142Y-74549580D01*
X133857142Y-74549580D02*
X133809523Y-74597200D01*
X133809523Y-74597200D02*
X133714285Y-74644819D01*
X133714285Y-74644819D02*
X133476190Y-74644819D01*
X133476190Y-74644819D02*
X133380952Y-74597200D01*
X133380952Y-74597200D02*
X133333333Y-74549580D01*
X134190476Y-73644819D02*
X134523809Y-74644819D01*
X134523809Y-74644819D02*
X134857142Y-73644819D01*
X135190476Y-74263866D02*
X135952381Y-74263866D01*
X136380952Y-73740057D02*
X136428571Y-73692438D01*
X136428571Y-73692438D02*
X136523809Y-73644819D01*
X136523809Y-73644819D02*
X136761904Y-73644819D01*
X136761904Y-73644819D02*
X136857142Y-73692438D01*
X136857142Y-73692438D02*
X136904761Y-73740057D01*
X136904761Y-73740057D02*
X136952380Y-73835295D01*
X136952380Y-73835295D02*
X136952380Y-73930533D01*
X136952380Y-73930533D02*
X136904761Y-74073390D01*
X136904761Y-74073390D02*
X136333333Y-74644819D01*
X136333333Y-74644819D02*
X136952380Y-74644819D01*
X138142857Y-74644819D02*
X138142857Y-73644819D01*
X138142857Y-73644819D02*
X138380952Y-73644819D01*
X138380952Y-73644819D02*
X138523809Y-73692438D01*
X138523809Y-73692438D02*
X138619047Y-73787676D01*
X138619047Y-73787676D02*
X138666666Y-73882914D01*
X138666666Y-73882914D02*
X138714285Y-74073390D01*
X138714285Y-74073390D02*
X138714285Y-74216247D01*
X138714285Y-74216247D02*
X138666666Y-74406723D01*
X138666666Y-74406723D02*
X138619047Y-74501961D01*
X138619047Y-74501961D02*
X138523809Y-74597200D01*
X138523809Y-74597200D02*
X138380952Y-74644819D01*
X138380952Y-74644819D02*
X138142857Y-74644819D01*
X139714285Y-74549580D02*
X139666666Y-74597200D01*
X139666666Y-74597200D02*
X139523809Y-74644819D01*
X139523809Y-74644819D02*
X139428571Y-74644819D01*
X139428571Y-74644819D02*
X139285714Y-74597200D01*
X139285714Y-74597200D02*
X139190476Y-74501961D01*
X139190476Y-74501961D02*
X139142857Y-74406723D01*
X139142857Y-74406723D02*
X139095238Y-74216247D01*
X139095238Y-74216247D02*
X139095238Y-74073390D01*
X139095238Y-74073390D02*
X139142857Y-73882914D01*
X139142857Y-73882914D02*
X139190476Y-73787676D01*
X139190476Y-73787676D02*
X139285714Y-73692438D01*
X139285714Y-73692438D02*
X139428571Y-73644819D01*
X139428571Y-73644819D02*
X139523809Y-73644819D01*
X139523809Y-73644819D02*
X139666666Y-73692438D01*
X139666666Y-73692438D02*
X139714285Y-73740057D01*
X140619047Y-73644819D02*
X140142857Y-73644819D01*
X140142857Y-73644819D02*
X140095238Y-74121009D01*
X140095238Y-74121009D02*
X140142857Y-74073390D01*
X140142857Y-74073390D02*
X140238095Y-74025771D01*
X140238095Y-74025771D02*
X140476190Y-74025771D01*
X140476190Y-74025771D02*
X140571428Y-74073390D01*
X140571428Y-74073390D02*
X140619047Y-74121009D01*
X140619047Y-74121009D02*
X140666666Y-74216247D01*
X140666666Y-74216247D02*
X140666666Y-74454342D01*
X140666666Y-74454342D02*
X140619047Y-74549580D01*
X140619047Y-74549580D02*
X140571428Y-74597200D01*
X140571428Y-74597200D02*
X140476190Y-74644819D01*
X140476190Y-74644819D02*
X140238095Y-74644819D01*
X140238095Y-74644819D02*
X140142857Y-74597200D01*
X140142857Y-74597200D02*
X140095238Y-74549580D01*
X123469524Y-74514819D02*
X123469524Y-73514819D01*
X124040952Y-74514819D02*
X123612381Y-73943390D01*
X124040952Y-73514819D02*
X123469524Y-74086247D01*
X124421905Y-73610057D02*
X124469524Y-73562438D01*
X124469524Y-73562438D02*
X124564762Y-73514819D01*
X124564762Y-73514819D02*
X124802857Y-73514819D01*
X124802857Y-73514819D02*
X124898095Y-73562438D01*
X124898095Y-73562438D02*
X124945714Y-73610057D01*
X124945714Y-73610057D02*
X124993333Y-73705295D01*
X124993333Y-73705295D02*
X124993333Y-73800533D01*
X124993333Y-73800533D02*
X124945714Y-73943390D01*
X124945714Y-73943390D02*
X124374286Y-74514819D01*
X124374286Y-74514819D02*
X124993333Y-74514819D01*
X125612381Y-73514819D02*
X125707619Y-73514819D01*
X125707619Y-73514819D02*
X125802857Y-73562438D01*
X125802857Y-73562438D02*
X125850476Y-73610057D01*
X125850476Y-73610057D02*
X125898095Y-73705295D01*
X125898095Y-73705295D02*
X125945714Y-73895771D01*
X125945714Y-73895771D02*
X125945714Y-74133866D01*
X125945714Y-74133866D02*
X125898095Y-74324342D01*
X125898095Y-74324342D02*
X125850476Y-74419580D01*
X125850476Y-74419580D02*
X125802857Y-74467200D01*
X125802857Y-74467200D02*
X125707619Y-74514819D01*
X125707619Y-74514819D02*
X125612381Y-74514819D01*
X125612381Y-74514819D02*
X125517143Y-74467200D01*
X125517143Y-74467200D02*
X125469524Y-74419580D01*
X125469524Y-74419580D02*
X125421905Y-74324342D01*
X125421905Y-74324342D02*
X125374286Y-74133866D01*
X125374286Y-74133866D02*
X125374286Y-73895771D01*
X125374286Y-73895771D02*
X125421905Y-73705295D01*
X125421905Y-73705295D02*
X125469524Y-73610057D01*
X125469524Y-73610057D02*
X125517143Y-73562438D01*
X125517143Y-73562438D02*
X125612381Y-73514819D01*
X126326667Y-73610057D02*
X126374286Y-73562438D01*
X126374286Y-73562438D02*
X126469524Y-73514819D01*
X126469524Y-73514819D02*
X126707619Y-73514819D01*
X126707619Y-73514819D02*
X126802857Y-73562438D01*
X126802857Y-73562438D02*
X126850476Y-73610057D01*
X126850476Y-73610057D02*
X126898095Y-73705295D01*
X126898095Y-73705295D02*
X126898095Y-73800533D01*
X126898095Y-73800533D02*
X126850476Y-73943390D01*
X126850476Y-73943390D02*
X126279048Y-74514819D01*
X126279048Y-74514819D02*
X126898095Y-74514819D01*
X42309524Y-78514819D02*
X42309524Y-77514819D01*
X42309524Y-77514819D02*
X42690476Y-77514819D01*
X42690476Y-77514819D02*
X42785714Y-77562438D01*
X42785714Y-77562438D02*
X42833333Y-77610057D01*
X42833333Y-77610057D02*
X42880952Y-77705295D01*
X42880952Y-77705295D02*
X42880952Y-77848152D01*
X42880952Y-77848152D02*
X42833333Y-77943390D01*
X42833333Y-77943390D02*
X42785714Y-77991009D01*
X42785714Y-77991009D02*
X42690476Y-78038628D01*
X42690476Y-78038628D02*
X42309524Y-78038628D01*
X43261905Y-77610057D02*
X43309524Y-77562438D01*
X43309524Y-77562438D02*
X43404762Y-77514819D01*
X43404762Y-77514819D02*
X43642857Y-77514819D01*
X43642857Y-77514819D02*
X43738095Y-77562438D01*
X43738095Y-77562438D02*
X43785714Y-77610057D01*
X43785714Y-77610057D02*
X43833333Y-77705295D01*
X43833333Y-77705295D02*
X43833333Y-77800533D01*
X43833333Y-77800533D02*
X43785714Y-77943390D01*
X43785714Y-77943390D02*
X43214286Y-78514819D01*
X43214286Y-78514819D02*
X43833333Y-78514819D01*
X44452381Y-77514819D02*
X44547619Y-77514819D01*
X44547619Y-77514819D02*
X44642857Y-77562438D01*
X44642857Y-77562438D02*
X44690476Y-77610057D01*
X44690476Y-77610057D02*
X44738095Y-77705295D01*
X44738095Y-77705295D02*
X44785714Y-77895771D01*
X44785714Y-77895771D02*
X44785714Y-78133866D01*
X44785714Y-78133866D02*
X44738095Y-78324342D01*
X44738095Y-78324342D02*
X44690476Y-78419580D01*
X44690476Y-78419580D02*
X44642857Y-78467200D01*
X44642857Y-78467200D02*
X44547619Y-78514819D01*
X44547619Y-78514819D02*
X44452381Y-78514819D01*
X44452381Y-78514819D02*
X44357143Y-78467200D01*
X44357143Y-78467200D02*
X44309524Y-78419580D01*
X44309524Y-78419580D02*
X44261905Y-78324342D01*
X44261905Y-78324342D02*
X44214286Y-78133866D01*
X44214286Y-78133866D02*
X44214286Y-77895771D01*
X44214286Y-77895771D02*
X44261905Y-77705295D01*
X44261905Y-77705295D02*
X44309524Y-77610057D01*
X44309524Y-77610057D02*
X44357143Y-77562438D01*
X44357143Y-77562438D02*
X44452381Y-77514819D01*
X45119048Y-77514819D02*
X45785714Y-77514819D01*
X45785714Y-77514819D02*
X45357143Y-78514819D01*
X40409524Y-78514819D02*
X40409524Y-77514819D01*
X40409524Y-77514819D02*
X40790476Y-77514819D01*
X40790476Y-77514819D02*
X40885714Y-77562438D01*
X40885714Y-77562438D02*
X40933333Y-77610057D01*
X40933333Y-77610057D02*
X40980952Y-77705295D01*
X40980952Y-77705295D02*
X40980952Y-77848152D01*
X40980952Y-77848152D02*
X40933333Y-77943390D01*
X40933333Y-77943390D02*
X40885714Y-77991009D01*
X40885714Y-77991009D02*
X40790476Y-78038628D01*
X40790476Y-78038628D02*
X40409524Y-78038628D01*
X41361905Y-77610057D02*
X41409524Y-77562438D01*
X41409524Y-77562438D02*
X41504762Y-77514819D01*
X41504762Y-77514819D02*
X41742857Y-77514819D01*
X41742857Y-77514819D02*
X41838095Y-77562438D01*
X41838095Y-77562438D02*
X41885714Y-77610057D01*
X41885714Y-77610057D02*
X41933333Y-77705295D01*
X41933333Y-77705295D02*
X41933333Y-77800533D01*
X41933333Y-77800533D02*
X41885714Y-77943390D01*
X41885714Y-77943390D02*
X41314286Y-78514819D01*
X41314286Y-78514819D02*
X41933333Y-78514819D01*
X42552381Y-77514819D02*
X42647619Y-77514819D01*
X42647619Y-77514819D02*
X42742857Y-77562438D01*
X42742857Y-77562438D02*
X42790476Y-77610057D01*
X42790476Y-77610057D02*
X42838095Y-77705295D01*
X42838095Y-77705295D02*
X42885714Y-77895771D01*
X42885714Y-77895771D02*
X42885714Y-78133866D01*
X42885714Y-78133866D02*
X42838095Y-78324342D01*
X42838095Y-78324342D02*
X42790476Y-78419580D01*
X42790476Y-78419580D02*
X42742857Y-78467200D01*
X42742857Y-78467200D02*
X42647619Y-78514819D01*
X42647619Y-78514819D02*
X42552381Y-78514819D01*
X42552381Y-78514819D02*
X42457143Y-78467200D01*
X42457143Y-78467200D02*
X42409524Y-78419580D01*
X42409524Y-78419580D02*
X42361905Y-78324342D01*
X42361905Y-78324342D02*
X42314286Y-78133866D01*
X42314286Y-78133866D02*
X42314286Y-77895771D01*
X42314286Y-77895771D02*
X42361905Y-77705295D01*
X42361905Y-77705295D02*
X42409524Y-77610057D01*
X42409524Y-77610057D02*
X42457143Y-77562438D01*
X42457143Y-77562438D02*
X42552381Y-77514819D01*
X43219048Y-77514819D02*
X43885714Y-77514819D01*
X43885714Y-77514819D02*
X43457143Y-78514819D01*
X132904761Y-89692438D02*
X132809523Y-89644819D01*
X132809523Y-89644819D02*
X132666666Y-89644819D01*
X132666666Y-89644819D02*
X132523809Y-89692438D01*
X132523809Y-89692438D02*
X132428571Y-89787676D01*
X132428571Y-89787676D02*
X132380952Y-89882914D01*
X132380952Y-89882914D02*
X132333333Y-90073390D01*
X132333333Y-90073390D02*
X132333333Y-90216247D01*
X132333333Y-90216247D02*
X132380952Y-90406723D01*
X132380952Y-90406723D02*
X132428571Y-90501961D01*
X132428571Y-90501961D02*
X132523809Y-90597200D01*
X132523809Y-90597200D02*
X132666666Y-90644819D01*
X132666666Y-90644819D02*
X132761904Y-90644819D01*
X132761904Y-90644819D02*
X132904761Y-90597200D01*
X132904761Y-90597200D02*
X132952380Y-90549580D01*
X132952380Y-90549580D02*
X132952380Y-90216247D01*
X132952380Y-90216247D02*
X132761904Y-90216247D01*
X133857142Y-89644819D02*
X133380952Y-89644819D01*
X133380952Y-89644819D02*
X133333333Y-90121009D01*
X133333333Y-90121009D02*
X133380952Y-90073390D01*
X133380952Y-90073390D02*
X133476190Y-90025771D01*
X133476190Y-90025771D02*
X133714285Y-90025771D01*
X133714285Y-90025771D02*
X133809523Y-90073390D01*
X133809523Y-90073390D02*
X133857142Y-90121009D01*
X133857142Y-90121009D02*
X133904761Y-90216247D01*
X133904761Y-90216247D02*
X133904761Y-90454342D01*
X133904761Y-90454342D02*
X133857142Y-90549580D01*
X133857142Y-90549580D02*
X133809523Y-90597200D01*
X133809523Y-90597200D02*
X133714285Y-90644819D01*
X133714285Y-90644819D02*
X133476190Y-90644819D01*
X133476190Y-90644819D02*
X133380952Y-90597200D01*
X133380952Y-90597200D02*
X133333333Y-90549580D01*
X134190476Y-89644819D02*
X134523809Y-90644819D01*
X134523809Y-90644819D02*
X134857142Y-89644819D01*
X135190476Y-90263866D02*
X135952381Y-90263866D01*
X136380952Y-89740057D02*
X136428571Y-89692438D01*
X136428571Y-89692438D02*
X136523809Y-89644819D01*
X136523809Y-89644819D02*
X136761904Y-89644819D01*
X136761904Y-89644819D02*
X136857142Y-89692438D01*
X136857142Y-89692438D02*
X136904761Y-89740057D01*
X136904761Y-89740057D02*
X136952380Y-89835295D01*
X136952380Y-89835295D02*
X136952380Y-89930533D01*
X136952380Y-89930533D02*
X136904761Y-90073390D01*
X136904761Y-90073390D02*
X136333333Y-90644819D01*
X136333333Y-90644819D02*
X136952380Y-90644819D01*
X138142857Y-90644819D02*
X138142857Y-89644819D01*
X138142857Y-89644819D02*
X138380952Y-89644819D01*
X138380952Y-89644819D02*
X138523809Y-89692438D01*
X138523809Y-89692438D02*
X138619047Y-89787676D01*
X138619047Y-89787676D02*
X138666666Y-89882914D01*
X138666666Y-89882914D02*
X138714285Y-90073390D01*
X138714285Y-90073390D02*
X138714285Y-90216247D01*
X138714285Y-90216247D02*
X138666666Y-90406723D01*
X138666666Y-90406723D02*
X138619047Y-90501961D01*
X138619047Y-90501961D02*
X138523809Y-90597200D01*
X138523809Y-90597200D02*
X138380952Y-90644819D01*
X138380952Y-90644819D02*
X138142857Y-90644819D01*
X139714285Y-90549580D02*
X139666666Y-90597200D01*
X139666666Y-90597200D02*
X139523809Y-90644819D01*
X139523809Y-90644819D02*
X139428571Y-90644819D01*
X139428571Y-90644819D02*
X139285714Y-90597200D01*
X139285714Y-90597200D02*
X139190476Y-90501961D01*
X139190476Y-90501961D02*
X139142857Y-90406723D01*
X139142857Y-90406723D02*
X139095238Y-90216247D01*
X139095238Y-90216247D02*
X139095238Y-90073390D01*
X139095238Y-90073390D02*
X139142857Y-89882914D01*
X139142857Y-89882914D02*
X139190476Y-89787676D01*
X139190476Y-89787676D02*
X139285714Y-89692438D01*
X139285714Y-89692438D02*
X139428571Y-89644819D01*
X139428571Y-89644819D02*
X139523809Y-89644819D01*
X139523809Y-89644819D02*
X139666666Y-89692438D01*
X139666666Y-89692438D02*
X139714285Y-89740057D01*
X140619047Y-89644819D02*
X140142857Y-89644819D01*
X140142857Y-89644819D02*
X140095238Y-90121009D01*
X140095238Y-90121009D02*
X140142857Y-90073390D01*
X140142857Y-90073390D02*
X140238095Y-90025771D01*
X140238095Y-90025771D02*
X140476190Y-90025771D01*
X140476190Y-90025771D02*
X140571428Y-90073390D01*
X140571428Y-90073390D02*
X140619047Y-90121009D01*
X140619047Y-90121009D02*
X140666666Y-90216247D01*
X140666666Y-90216247D02*
X140666666Y-90454342D01*
X140666666Y-90454342D02*
X140619047Y-90549580D01*
X140619047Y-90549580D02*
X140571428Y-90597200D01*
X140571428Y-90597200D02*
X140476190Y-90644819D01*
X140476190Y-90644819D02*
X140238095Y-90644819D01*
X140238095Y-90644819D02*
X140142857Y-90597200D01*
X140142857Y-90597200D02*
X140095238Y-90549580D01*
X123469524Y-90514819D02*
X123469524Y-89514819D01*
X124040952Y-90514819D02*
X123612381Y-89943390D01*
X124040952Y-89514819D02*
X123469524Y-90086247D01*
X124421905Y-89610057D02*
X124469524Y-89562438D01*
X124469524Y-89562438D02*
X124564762Y-89514819D01*
X124564762Y-89514819D02*
X124802857Y-89514819D01*
X124802857Y-89514819D02*
X124898095Y-89562438D01*
X124898095Y-89562438D02*
X124945714Y-89610057D01*
X124945714Y-89610057D02*
X124993333Y-89705295D01*
X124993333Y-89705295D02*
X124993333Y-89800533D01*
X124993333Y-89800533D02*
X124945714Y-89943390D01*
X124945714Y-89943390D02*
X124374286Y-90514819D01*
X124374286Y-90514819D02*
X124993333Y-90514819D01*
X125612381Y-89514819D02*
X125707619Y-89514819D01*
X125707619Y-89514819D02*
X125802857Y-89562438D01*
X125802857Y-89562438D02*
X125850476Y-89610057D01*
X125850476Y-89610057D02*
X125898095Y-89705295D01*
X125898095Y-89705295D02*
X125945714Y-89895771D01*
X125945714Y-89895771D02*
X125945714Y-90133866D01*
X125945714Y-90133866D02*
X125898095Y-90324342D01*
X125898095Y-90324342D02*
X125850476Y-90419580D01*
X125850476Y-90419580D02*
X125802857Y-90467200D01*
X125802857Y-90467200D02*
X125707619Y-90514819D01*
X125707619Y-90514819D02*
X125612381Y-90514819D01*
X125612381Y-90514819D02*
X125517143Y-90467200D01*
X125517143Y-90467200D02*
X125469524Y-90419580D01*
X125469524Y-90419580D02*
X125421905Y-90324342D01*
X125421905Y-90324342D02*
X125374286Y-90133866D01*
X125374286Y-90133866D02*
X125374286Y-89895771D01*
X125374286Y-89895771D02*
X125421905Y-89705295D01*
X125421905Y-89705295D02*
X125469524Y-89610057D01*
X125469524Y-89610057D02*
X125517143Y-89562438D01*
X125517143Y-89562438D02*
X125612381Y-89514819D01*
X126802857Y-89848152D02*
X126802857Y-90514819D01*
X126564762Y-89467200D02*
X126326667Y-90181485D01*
X126326667Y-90181485D02*
X126945714Y-90181485D01*
X69785714Y-69850057D02*
X69833333Y-69802438D01*
X69833333Y-69802438D02*
X69928571Y-69754819D01*
X69928571Y-69754819D02*
X70166666Y-69754819D01*
X70166666Y-69754819D02*
X70261904Y-69802438D01*
X70261904Y-69802438D02*
X70309523Y-69850057D01*
X70309523Y-69850057D02*
X70357142Y-69945295D01*
X70357142Y-69945295D02*
X70357142Y-70040533D01*
X70357142Y-70040533D02*
X70309523Y-70183390D01*
X70309523Y-70183390D02*
X69738095Y-70754819D01*
X69738095Y-70754819D02*
X70357142Y-70754819D01*
X70738095Y-69850057D02*
X70785714Y-69802438D01*
X70785714Y-69802438D02*
X70880952Y-69754819D01*
X70880952Y-69754819D02*
X71119047Y-69754819D01*
X71119047Y-69754819D02*
X71214285Y-69802438D01*
X71214285Y-69802438D02*
X71261904Y-69850057D01*
X71261904Y-69850057D02*
X71309523Y-69945295D01*
X71309523Y-69945295D02*
X71309523Y-70040533D01*
X71309523Y-70040533D02*
X71261904Y-70183390D01*
X71261904Y-70183390D02*
X70690476Y-70754819D01*
X70690476Y-70754819D02*
X71309523Y-70754819D01*
X72166666Y-70088152D02*
X72166666Y-70754819D01*
X71738095Y-70088152D02*
X71738095Y-70611961D01*
X71738095Y-70611961D02*
X71785714Y-70707200D01*
X71785714Y-70707200D02*
X71880952Y-70754819D01*
X71880952Y-70754819D02*
X72023809Y-70754819D01*
X72023809Y-70754819D02*
X72119047Y-70707200D01*
X72119047Y-70707200D02*
X72166666Y-70659580D01*
D12*
X70104762Y-68287664D02*
X70066666Y-68325760D01*
X70066666Y-68325760D02*
X69952381Y-68363855D01*
X69952381Y-68363855D02*
X69876190Y-68363855D01*
X69876190Y-68363855D02*
X69761904Y-68325760D01*
X69761904Y-68325760D02*
X69685714Y-68249569D01*
X69685714Y-68249569D02*
X69647619Y-68173379D01*
X69647619Y-68173379D02*
X69609523Y-68020998D01*
X69609523Y-68020998D02*
X69609523Y-67906712D01*
X69609523Y-67906712D02*
X69647619Y-67754331D01*
X69647619Y-67754331D02*
X69685714Y-67678140D01*
X69685714Y-67678140D02*
X69761904Y-67601950D01*
X69761904Y-67601950D02*
X69876190Y-67563855D01*
X69876190Y-67563855D02*
X69952381Y-67563855D01*
X69952381Y-67563855D02*
X70066666Y-67601950D01*
X70066666Y-67601950D02*
X70104762Y-67640045D01*
X70409523Y-67640045D02*
X70447619Y-67601950D01*
X70447619Y-67601950D02*
X70523809Y-67563855D01*
X70523809Y-67563855D02*
X70714285Y-67563855D01*
X70714285Y-67563855D02*
X70790476Y-67601950D01*
X70790476Y-67601950D02*
X70828571Y-67640045D01*
X70828571Y-67640045D02*
X70866666Y-67716236D01*
X70866666Y-67716236D02*
X70866666Y-67792426D01*
X70866666Y-67792426D02*
X70828571Y-67906712D01*
X70828571Y-67906712D02*
X70371428Y-68363855D01*
X70371428Y-68363855D02*
X70866666Y-68363855D01*
X71247619Y-68363855D02*
X71400000Y-68363855D01*
X71400000Y-68363855D02*
X71476190Y-68325760D01*
X71476190Y-68325760D02*
X71514286Y-68287664D01*
X71514286Y-68287664D02*
X71590476Y-68173379D01*
X71590476Y-68173379D02*
X71628571Y-68020998D01*
X71628571Y-68020998D02*
X71628571Y-67716236D01*
X71628571Y-67716236D02*
X71590476Y-67640045D01*
X71590476Y-67640045D02*
X71552381Y-67601950D01*
X71552381Y-67601950D02*
X71476190Y-67563855D01*
X71476190Y-67563855D02*
X71323809Y-67563855D01*
X71323809Y-67563855D02*
X71247619Y-67601950D01*
X71247619Y-67601950D02*
X71209524Y-67640045D01*
X71209524Y-67640045D02*
X71171428Y-67716236D01*
X71171428Y-67716236D02*
X71171428Y-67906712D01*
X71171428Y-67906712D02*
X71209524Y-67982902D01*
X71209524Y-67982902D02*
X71247619Y-68020998D01*
X71247619Y-68020998D02*
X71323809Y-68059093D01*
X71323809Y-68059093D02*
X71476190Y-68059093D01*
X71476190Y-68059093D02*
X71552381Y-68020998D01*
X71552381Y-68020998D02*
X71590476Y-67982902D01*
X71590476Y-67982902D02*
X71628571Y-67906712D01*
X72314286Y-67830521D02*
X72314286Y-68363855D01*
X72123810Y-67525760D02*
X71933333Y-68097188D01*
X71933333Y-68097188D02*
X72428572Y-68097188D01*
D10*
X76880952Y-70134819D02*
X76309524Y-70134819D01*
X76595238Y-70134819D02*
X76595238Y-69134819D01*
X76595238Y-69134819D02*
X76500000Y-69277676D01*
X76500000Y-69277676D02*
X76404762Y-69372914D01*
X76404762Y-69372914D02*
X76309524Y-69420533D01*
X77500000Y-69134819D02*
X77595238Y-69134819D01*
X77595238Y-69134819D02*
X77690476Y-69182438D01*
X77690476Y-69182438D02*
X77738095Y-69230057D01*
X77738095Y-69230057D02*
X77785714Y-69325295D01*
X77785714Y-69325295D02*
X77833333Y-69515771D01*
X77833333Y-69515771D02*
X77833333Y-69753866D01*
X77833333Y-69753866D02*
X77785714Y-69944342D01*
X77785714Y-69944342D02*
X77738095Y-70039580D01*
X77738095Y-70039580D02*
X77690476Y-70087200D01*
X77690476Y-70087200D02*
X77595238Y-70134819D01*
X77595238Y-70134819D02*
X77500000Y-70134819D01*
X77500000Y-70134819D02*
X77404762Y-70087200D01*
X77404762Y-70087200D02*
X77357143Y-70039580D01*
X77357143Y-70039580D02*
X77309524Y-69944342D01*
X77309524Y-69944342D02*
X77261905Y-69753866D01*
X77261905Y-69753866D02*
X77261905Y-69515771D01*
X77261905Y-69515771D02*
X77309524Y-69325295D01*
X77309524Y-69325295D02*
X77357143Y-69230057D01*
X77357143Y-69230057D02*
X77404762Y-69182438D01*
X77404762Y-69182438D02*
X77500000Y-69134819D01*
X78452381Y-69134819D02*
X78547619Y-69134819D01*
X78547619Y-69134819D02*
X78642857Y-69182438D01*
X78642857Y-69182438D02*
X78690476Y-69230057D01*
X78690476Y-69230057D02*
X78738095Y-69325295D01*
X78738095Y-69325295D02*
X78785714Y-69515771D01*
X78785714Y-69515771D02*
X78785714Y-69753866D01*
X78785714Y-69753866D02*
X78738095Y-69944342D01*
X78738095Y-69944342D02*
X78690476Y-70039580D01*
X78690476Y-70039580D02*
X78642857Y-70087200D01*
X78642857Y-70087200D02*
X78547619Y-70134819D01*
X78547619Y-70134819D02*
X78452381Y-70134819D01*
X78452381Y-70134819D02*
X78357143Y-70087200D01*
X78357143Y-70087200D02*
X78309524Y-70039580D01*
X78309524Y-70039580D02*
X78261905Y-69944342D01*
X78261905Y-69944342D02*
X78214286Y-69753866D01*
X78214286Y-69753866D02*
X78214286Y-69515771D01*
X78214286Y-69515771D02*
X78261905Y-69325295D01*
X78261905Y-69325295D02*
X78309524Y-69230057D01*
X78309524Y-69230057D02*
X78357143Y-69182438D01*
X78357143Y-69182438D02*
X78452381Y-69134819D01*
X79214286Y-69468152D02*
X79214286Y-70134819D01*
X79214286Y-69563390D02*
X79261905Y-69515771D01*
X79261905Y-69515771D02*
X79357143Y-69468152D01*
X79357143Y-69468152D02*
X79500000Y-69468152D01*
X79500000Y-69468152D02*
X79595238Y-69515771D01*
X79595238Y-69515771D02*
X79642857Y-69611009D01*
X79642857Y-69611009D02*
X79642857Y-70134819D01*
D11*
X77440476Y-68179530D02*
X77416667Y-68203340D01*
X77416667Y-68203340D02*
X77345238Y-68227149D01*
X77345238Y-68227149D02*
X77297619Y-68227149D01*
X77297619Y-68227149D02*
X77226191Y-68203340D01*
X77226191Y-68203340D02*
X77178572Y-68155720D01*
X77178572Y-68155720D02*
X77154762Y-68108101D01*
X77154762Y-68108101D02*
X77130953Y-68012863D01*
X77130953Y-68012863D02*
X77130953Y-67941435D01*
X77130953Y-67941435D02*
X77154762Y-67846197D01*
X77154762Y-67846197D02*
X77178572Y-67798578D01*
X77178572Y-67798578D02*
X77226191Y-67750959D01*
X77226191Y-67750959D02*
X77297619Y-67727149D01*
X77297619Y-67727149D02*
X77345238Y-67727149D01*
X77345238Y-67727149D02*
X77416667Y-67750959D01*
X77416667Y-67750959D02*
X77440476Y-67774768D01*
X77630953Y-67774768D02*
X77654762Y-67750959D01*
X77654762Y-67750959D02*
X77702381Y-67727149D01*
X77702381Y-67727149D02*
X77821429Y-67727149D01*
X77821429Y-67727149D02*
X77869048Y-67750959D01*
X77869048Y-67750959D02*
X77892857Y-67774768D01*
X77892857Y-67774768D02*
X77916667Y-67822387D01*
X77916667Y-67822387D02*
X77916667Y-67870006D01*
X77916667Y-67870006D02*
X77892857Y-67941435D01*
X77892857Y-67941435D02*
X77607143Y-68227149D01*
X77607143Y-68227149D02*
X77916667Y-68227149D01*
X78154762Y-68227149D02*
X78250000Y-68227149D01*
X78250000Y-68227149D02*
X78297619Y-68203340D01*
X78297619Y-68203340D02*
X78321428Y-68179530D01*
X78321428Y-68179530D02*
X78369047Y-68108101D01*
X78369047Y-68108101D02*
X78392857Y-68012863D01*
X78392857Y-68012863D02*
X78392857Y-67822387D01*
X78392857Y-67822387D02*
X78369047Y-67774768D01*
X78369047Y-67774768D02*
X78345238Y-67750959D01*
X78345238Y-67750959D02*
X78297619Y-67727149D01*
X78297619Y-67727149D02*
X78202381Y-67727149D01*
X78202381Y-67727149D02*
X78154762Y-67750959D01*
X78154762Y-67750959D02*
X78130952Y-67774768D01*
X78130952Y-67774768D02*
X78107143Y-67822387D01*
X78107143Y-67822387D02*
X78107143Y-67941435D01*
X78107143Y-67941435D02*
X78130952Y-67989054D01*
X78130952Y-67989054D02*
X78154762Y-68012863D01*
X78154762Y-68012863D02*
X78202381Y-68036673D01*
X78202381Y-68036673D02*
X78297619Y-68036673D01*
X78297619Y-68036673D02*
X78345238Y-68012863D01*
X78345238Y-68012863D02*
X78369047Y-67989054D01*
X78369047Y-67989054D02*
X78392857Y-67941435D01*
X78845237Y-67727149D02*
X78607142Y-67727149D01*
X78607142Y-67727149D02*
X78583333Y-67965244D01*
X78583333Y-67965244D02*
X78607142Y-67941435D01*
X78607142Y-67941435D02*
X78654761Y-67917625D01*
X78654761Y-67917625D02*
X78773809Y-67917625D01*
X78773809Y-67917625D02*
X78821428Y-67941435D01*
X78821428Y-67941435D02*
X78845237Y-67965244D01*
X78845237Y-67965244D02*
X78869047Y-68012863D01*
X78869047Y-68012863D02*
X78869047Y-68131911D01*
X78869047Y-68131911D02*
X78845237Y-68179530D01*
X78845237Y-68179530D02*
X78821428Y-68203340D01*
X78821428Y-68203340D02*
X78773809Y-68227149D01*
X78773809Y-68227149D02*
X78654761Y-68227149D01*
X78654761Y-68227149D02*
X78607142Y-68203340D01*
X78607142Y-68203340D02*
X78583333Y-68179530D01*
D10*
X48833333Y-91200057D02*
X48880952Y-91152438D01*
X48880952Y-91152438D02*
X48976190Y-91104819D01*
X48976190Y-91104819D02*
X49214285Y-91104819D01*
X49214285Y-91104819D02*
X49309523Y-91152438D01*
X49309523Y-91152438D02*
X49357142Y-91200057D01*
X49357142Y-91200057D02*
X49404761Y-91295295D01*
X49404761Y-91295295D02*
X49404761Y-91390533D01*
X49404761Y-91390533D02*
X49357142Y-91533390D01*
X49357142Y-91533390D02*
X48785714Y-92104819D01*
X48785714Y-92104819D02*
X49404761Y-92104819D01*
X50023809Y-91104819D02*
X50119047Y-91104819D01*
X50119047Y-91104819D02*
X50214285Y-91152438D01*
X50214285Y-91152438D02*
X50261904Y-91200057D01*
X50261904Y-91200057D02*
X50309523Y-91295295D01*
X50309523Y-91295295D02*
X50357142Y-91485771D01*
X50357142Y-91485771D02*
X50357142Y-91723866D01*
X50357142Y-91723866D02*
X50309523Y-91914342D01*
X50309523Y-91914342D02*
X50261904Y-92009580D01*
X50261904Y-92009580D02*
X50214285Y-92057200D01*
X50214285Y-92057200D02*
X50119047Y-92104819D01*
X50119047Y-92104819D02*
X50023809Y-92104819D01*
X50023809Y-92104819D02*
X49928571Y-92057200D01*
X49928571Y-92057200D02*
X49880952Y-92009580D01*
X49880952Y-92009580D02*
X49833333Y-91914342D01*
X49833333Y-91914342D02*
X49785714Y-91723866D01*
X49785714Y-91723866D02*
X49785714Y-91485771D01*
X49785714Y-91485771D02*
X49833333Y-91295295D01*
X49833333Y-91295295D02*
X49880952Y-91200057D01*
X49880952Y-91200057D02*
X49928571Y-91152438D01*
X49928571Y-91152438D02*
X50023809Y-91104819D01*
X50785714Y-92104819D02*
X50785714Y-91104819D01*
X50880952Y-91723866D02*
X51166666Y-92104819D01*
X51166666Y-91438152D02*
X50785714Y-91819104D01*
D11*
X49440476Y-90227149D02*
X49273810Y-89989054D01*
X49154762Y-90227149D02*
X49154762Y-89727149D01*
X49154762Y-89727149D02*
X49345238Y-89727149D01*
X49345238Y-89727149D02*
X49392857Y-89750959D01*
X49392857Y-89750959D02*
X49416667Y-89774768D01*
X49416667Y-89774768D02*
X49440476Y-89822387D01*
X49440476Y-89822387D02*
X49440476Y-89893816D01*
X49440476Y-89893816D02*
X49416667Y-89941435D01*
X49416667Y-89941435D02*
X49392857Y-89965244D01*
X49392857Y-89965244D02*
X49345238Y-89989054D01*
X49345238Y-89989054D02*
X49154762Y-89989054D01*
X49630953Y-89774768D02*
X49654762Y-89750959D01*
X49654762Y-89750959D02*
X49702381Y-89727149D01*
X49702381Y-89727149D02*
X49821429Y-89727149D01*
X49821429Y-89727149D02*
X49869048Y-89750959D01*
X49869048Y-89750959D02*
X49892857Y-89774768D01*
X49892857Y-89774768D02*
X49916667Y-89822387D01*
X49916667Y-89822387D02*
X49916667Y-89870006D01*
X49916667Y-89870006D02*
X49892857Y-89941435D01*
X49892857Y-89941435D02*
X49607143Y-90227149D01*
X49607143Y-90227149D02*
X49916667Y-90227149D01*
X50107143Y-89774768D02*
X50130952Y-89750959D01*
X50130952Y-89750959D02*
X50178571Y-89727149D01*
X50178571Y-89727149D02*
X50297619Y-89727149D01*
X50297619Y-89727149D02*
X50345238Y-89750959D01*
X50345238Y-89750959D02*
X50369047Y-89774768D01*
X50369047Y-89774768D02*
X50392857Y-89822387D01*
X50392857Y-89822387D02*
X50392857Y-89870006D01*
X50392857Y-89870006D02*
X50369047Y-89941435D01*
X50369047Y-89941435D02*
X50083333Y-90227149D01*
X50083333Y-90227149D02*
X50392857Y-90227149D01*
X50583333Y-89774768D02*
X50607142Y-89750959D01*
X50607142Y-89750959D02*
X50654761Y-89727149D01*
X50654761Y-89727149D02*
X50773809Y-89727149D01*
X50773809Y-89727149D02*
X50821428Y-89750959D01*
X50821428Y-89750959D02*
X50845237Y-89774768D01*
X50845237Y-89774768D02*
X50869047Y-89822387D01*
X50869047Y-89822387D02*
X50869047Y-89870006D01*
X50869047Y-89870006D02*
X50845237Y-89941435D01*
X50845237Y-89941435D02*
X50559523Y-90227149D01*
X50559523Y-90227149D02*
X50869047Y-90227149D01*
D10*
X64833333Y-41200057D02*
X64880952Y-41152438D01*
X64880952Y-41152438D02*
X64976190Y-41104819D01*
X64976190Y-41104819D02*
X65214285Y-41104819D01*
X65214285Y-41104819D02*
X65309523Y-41152438D01*
X65309523Y-41152438D02*
X65357142Y-41200057D01*
X65357142Y-41200057D02*
X65404761Y-41295295D01*
X65404761Y-41295295D02*
X65404761Y-41390533D01*
X65404761Y-41390533D02*
X65357142Y-41533390D01*
X65357142Y-41533390D02*
X64785714Y-42104819D01*
X64785714Y-42104819D02*
X65404761Y-42104819D01*
X66023809Y-41104819D02*
X66119047Y-41104819D01*
X66119047Y-41104819D02*
X66214285Y-41152438D01*
X66214285Y-41152438D02*
X66261904Y-41200057D01*
X66261904Y-41200057D02*
X66309523Y-41295295D01*
X66309523Y-41295295D02*
X66357142Y-41485771D01*
X66357142Y-41485771D02*
X66357142Y-41723866D01*
X66357142Y-41723866D02*
X66309523Y-41914342D01*
X66309523Y-41914342D02*
X66261904Y-42009580D01*
X66261904Y-42009580D02*
X66214285Y-42057200D01*
X66214285Y-42057200D02*
X66119047Y-42104819D01*
X66119047Y-42104819D02*
X66023809Y-42104819D01*
X66023809Y-42104819D02*
X65928571Y-42057200D01*
X65928571Y-42057200D02*
X65880952Y-42009580D01*
X65880952Y-42009580D02*
X65833333Y-41914342D01*
X65833333Y-41914342D02*
X65785714Y-41723866D01*
X65785714Y-41723866D02*
X65785714Y-41485771D01*
X65785714Y-41485771D02*
X65833333Y-41295295D01*
X65833333Y-41295295D02*
X65880952Y-41200057D01*
X65880952Y-41200057D02*
X65928571Y-41152438D01*
X65928571Y-41152438D02*
X66023809Y-41104819D01*
X66785714Y-42104819D02*
X66785714Y-41104819D01*
X66880952Y-41723866D02*
X67166666Y-42104819D01*
X67166666Y-41438152D02*
X66785714Y-41819104D01*
D11*
X65440476Y-40227149D02*
X65273810Y-39989054D01*
X65154762Y-40227149D02*
X65154762Y-39727149D01*
X65154762Y-39727149D02*
X65345238Y-39727149D01*
X65345238Y-39727149D02*
X65392857Y-39750959D01*
X65392857Y-39750959D02*
X65416667Y-39774768D01*
X65416667Y-39774768D02*
X65440476Y-39822387D01*
X65440476Y-39822387D02*
X65440476Y-39893816D01*
X65440476Y-39893816D02*
X65416667Y-39941435D01*
X65416667Y-39941435D02*
X65392857Y-39965244D01*
X65392857Y-39965244D02*
X65345238Y-39989054D01*
X65345238Y-39989054D02*
X65154762Y-39989054D01*
X65630953Y-39774768D02*
X65654762Y-39750959D01*
X65654762Y-39750959D02*
X65702381Y-39727149D01*
X65702381Y-39727149D02*
X65821429Y-39727149D01*
X65821429Y-39727149D02*
X65869048Y-39750959D01*
X65869048Y-39750959D02*
X65892857Y-39774768D01*
X65892857Y-39774768D02*
X65916667Y-39822387D01*
X65916667Y-39822387D02*
X65916667Y-39870006D01*
X65916667Y-39870006D02*
X65892857Y-39941435D01*
X65892857Y-39941435D02*
X65607143Y-40227149D01*
X65607143Y-40227149D02*
X65916667Y-40227149D01*
X66226190Y-39727149D02*
X66273809Y-39727149D01*
X66273809Y-39727149D02*
X66321428Y-39750959D01*
X66321428Y-39750959D02*
X66345238Y-39774768D01*
X66345238Y-39774768D02*
X66369047Y-39822387D01*
X66369047Y-39822387D02*
X66392857Y-39917625D01*
X66392857Y-39917625D02*
X66392857Y-40036673D01*
X66392857Y-40036673D02*
X66369047Y-40131911D01*
X66369047Y-40131911D02*
X66345238Y-40179530D01*
X66345238Y-40179530D02*
X66321428Y-40203340D01*
X66321428Y-40203340D02*
X66273809Y-40227149D01*
X66273809Y-40227149D02*
X66226190Y-40227149D01*
X66226190Y-40227149D02*
X66178571Y-40203340D01*
X66178571Y-40203340D02*
X66154762Y-40179530D01*
X66154762Y-40179530D02*
X66130952Y-40131911D01*
X66130952Y-40131911D02*
X66107143Y-40036673D01*
X66107143Y-40036673D02*
X66107143Y-39917625D01*
X66107143Y-39917625D02*
X66130952Y-39822387D01*
X66130952Y-39822387D02*
X66154762Y-39774768D01*
X66154762Y-39774768D02*
X66178571Y-39750959D01*
X66178571Y-39750959D02*
X66226190Y-39727149D01*
X66821428Y-39893816D02*
X66821428Y-40227149D01*
X66702380Y-39703340D02*
X66583333Y-40060482D01*
X66583333Y-40060482D02*
X66892856Y-40060482D01*
D10*
X98333333Y-72104819D02*
X97761905Y-72104819D01*
X98047619Y-72104819D02*
X98047619Y-71104819D01*
X98047619Y-71104819D02*
X97952381Y-71247676D01*
X97952381Y-71247676D02*
X97857143Y-71342914D01*
X97857143Y-71342914D02*
X97761905Y-71390533D01*
X98952381Y-71104819D02*
X99047619Y-71104819D01*
X99047619Y-71104819D02*
X99142857Y-71152438D01*
X99142857Y-71152438D02*
X99190476Y-71200057D01*
X99190476Y-71200057D02*
X99238095Y-71295295D01*
X99238095Y-71295295D02*
X99285714Y-71485771D01*
X99285714Y-71485771D02*
X99285714Y-71723866D01*
X99285714Y-71723866D02*
X99238095Y-71914342D01*
X99238095Y-71914342D02*
X99190476Y-72009580D01*
X99190476Y-72009580D02*
X99142857Y-72057200D01*
X99142857Y-72057200D02*
X99047619Y-72104819D01*
X99047619Y-72104819D02*
X98952381Y-72104819D01*
X98952381Y-72104819D02*
X98857143Y-72057200D01*
X98857143Y-72057200D02*
X98809524Y-72009580D01*
X98809524Y-72009580D02*
X98761905Y-71914342D01*
X98761905Y-71914342D02*
X98714286Y-71723866D01*
X98714286Y-71723866D02*
X98714286Y-71485771D01*
X98714286Y-71485771D02*
X98761905Y-71295295D01*
X98761905Y-71295295D02*
X98809524Y-71200057D01*
X98809524Y-71200057D02*
X98857143Y-71152438D01*
X98857143Y-71152438D02*
X98952381Y-71104819D01*
X99904762Y-71104819D02*
X100000000Y-71104819D01*
X100000000Y-71104819D02*
X100095238Y-71152438D01*
X100095238Y-71152438D02*
X100142857Y-71200057D01*
X100142857Y-71200057D02*
X100190476Y-71295295D01*
X100190476Y-71295295D02*
X100238095Y-71485771D01*
X100238095Y-71485771D02*
X100238095Y-71723866D01*
X100238095Y-71723866D02*
X100190476Y-71914342D01*
X100190476Y-71914342D02*
X100142857Y-72009580D01*
X100142857Y-72009580D02*
X100095238Y-72057200D01*
X100095238Y-72057200D02*
X100000000Y-72104819D01*
X100000000Y-72104819D02*
X99904762Y-72104819D01*
X99904762Y-72104819D02*
X99809524Y-72057200D01*
X99809524Y-72057200D02*
X99761905Y-72009580D01*
X99761905Y-72009580D02*
X99714286Y-71914342D01*
X99714286Y-71914342D02*
X99666667Y-71723866D01*
X99666667Y-71723866D02*
X99666667Y-71485771D01*
X99666667Y-71485771D02*
X99714286Y-71295295D01*
X99714286Y-71295295D02*
X99761905Y-71200057D01*
X99761905Y-71200057D02*
X99809524Y-71152438D01*
X99809524Y-71152438D02*
X99904762Y-71104819D01*
D11*
X98440476Y-70227149D02*
X98273810Y-69989054D01*
X98154762Y-70227149D02*
X98154762Y-69727149D01*
X98154762Y-69727149D02*
X98345238Y-69727149D01*
X98345238Y-69727149D02*
X98392857Y-69750959D01*
X98392857Y-69750959D02*
X98416667Y-69774768D01*
X98416667Y-69774768D02*
X98440476Y-69822387D01*
X98440476Y-69822387D02*
X98440476Y-69893816D01*
X98440476Y-69893816D02*
X98416667Y-69941435D01*
X98416667Y-69941435D02*
X98392857Y-69965244D01*
X98392857Y-69965244D02*
X98345238Y-69989054D01*
X98345238Y-69989054D02*
X98154762Y-69989054D01*
X98630953Y-69774768D02*
X98654762Y-69750959D01*
X98654762Y-69750959D02*
X98702381Y-69727149D01*
X98702381Y-69727149D02*
X98821429Y-69727149D01*
X98821429Y-69727149D02*
X98869048Y-69750959D01*
X98869048Y-69750959D02*
X98892857Y-69774768D01*
X98892857Y-69774768D02*
X98916667Y-69822387D01*
X98916667Y-69822387D02*
X98916667Y-69870006D01*
X98916667Y-69870006D02*
X98892857Y-69941435D01*
X98892857Y-69941435D02*
X98607143Y-70227149D01*
X98607143Y-70227149D02*
X98916667Y-70227149D01*
X99107143Y-69774768D02*
X99130952Y-69750959D01*
X99130952Y-69750959D02*
X99178571Y-69727149D01*
X99178571Y-69727149D02*
X99297619Y-69727149D01*
X99297619Y-69727149D02*
X99345238Y-69750959D01*
X99345238Y-69750959D02*
X99369047Y-69774768D01*
X99369047Y-69774768D02*
X99392857Y-69822387D01*
X99392857Y-69822387D02*
X99392857Y-69870006D01*
X99392857Y-69870006D02*
X99369047Y-69941435D01*
X99369047Y-69941435D02*
X99083333Y-70227149D01*
X99083333Y-70227149D02*
X99392857Y-70227149D01*
X99821428Y-69727149D02*
X99726190Y-69727149D01*
X99726190Y-69727149D02*
X99678571Y-69750959D01*
X99678571Y-69750959D02*
X99654761Y-69774768D01*
X99654761Y-69774768D02*
X99607142Y-69846197D01*
X99607142Y-69846197D02*
X99583333Y-69941435D01*
X99583333Y-69941435D02*
X99583333Y-70131911D01*
X99583333Y-70131911D02*
X99607142Y-70179530D01*
X99607142Y-70179530D02*
X99630952Y-70203340D01*
X99630952Y-70203340D02*
X99678571Y-70227149D01*
X99678571Y-70227149D02*
X99773809Y-70227149D01*
X99773809Y-70227149D02*
X99821428Y-70203340D01*
X99821428Y-70203340D02*
X99845237Y-70179530D01*
X99845237Y-70179530D02*
X99869047Y-70131911D01*
X99869047Y-70131911D02*
X99869047Y-70012863D01*
X99869047Y-70012863D02*
X99845237Y-69965244D01*
X99845237Y-69965244D02*
X99821428Y-69941435D01*
X99821428Y-69941435D02*
X99773809Y-69917625D01*
X99773809Y-69917625D02*
X99678571Y-69917625D01*
X99678571Y-69917625D02*
X99630952Y-69941435D01*
X99630952Y-69941435D02*
X99607142Y-69965244D01*
X99607142Y-69965244D02*
X99583333Y-70012863D01*
D10*
X143190476Y-40604819D02*
X143190476Y-39604819D01*
X143190476Y-39604819D02*
X143523809Y-40319104D01*
X143523809Y-40319104D02*
X143857142Y-39604819D01*
X143857142Y-39604819D02*
X143857142Y-40604819D01*
X144238095Y-39604819D02*
X144857142Y-39604819D01*
X144857142Y-39604819D02*
X144523809Y-39985771D01*
X144523809Y-39985771D02*
X144666666Y-39985771D01*
X144666666Y-39985771D02*
X144761904Y-40033390D01*
X144761904Y-40033390D02*
X144809523Y-40081009D01*
X144809523Y-40081009D02*
X144857142Y-40176247D01*
X144857142Y-40176247D02*
X144857142Y-40414342D01*
X144857142Y-40414342D02*
X144809523Y-40509580D01*
X144809523Y-40509580D02*
X144761904Y-40557200D01*
X144761904Y-40557200D02*
X144666666Y-40604819D01*
X144666666Y-40604819D02*
X144380952Y-40604819D01*
X144380952Y-40604819D02*
X144285714Y-40557200D01*
X144285714Y-40557200D02*
X144238095Y-40509580D01*
X143238095Y-36454819D02*
X143238095Y-35454819D01*
X143238095Y-35931009D02*
X143809523Y-35931009D01*
X143809523Y-36454819D02*
X143809523Y-35454819D01*
X144238095Y-35550057D02*
X144285714Y-35502438D01*
X144285714Y-35502438D02*
X144380952Y-35454819D01*
X144380952Y-35454819D02*
X144619047Y-35454819D01*
X144619047Y-35454819D02*
X144714285Y-35502438D01*
X144714285Y-35502438D02*
X144761904Y-35550057D01*
X144761904Y-35550057D02*
X144809523Y-35645295D01*
X144809523Y-35645295D02*
X144809523Y-35740533D01*
X144809523Y-35740533D02*
X144761904Y-35883390D01*
X144761904Y-35883390D02*
X144190476Y-36454819D01*
X144190476Y-36454819D02*
X144809523Y-36454819D01*
X132904761Y-41692438D02*
X132809523Y-41644819D01*
X132809523Y-41644819D02*
X132666666Y-41644819D01*
X132666666Y-41644819D02*
X132523809Y-41692438D01*
X132523809Y-41692438D02*
X132428571Y-41787676D01*
X132428571Y-41787676D02*
X132380952Y-41882914D01*
X132380952Y-41882914D02*
X132333333Y-42073390D01*
X132333333Y-42073390D02*
X132333333Y-42216247D01*
X132333333Y-42216247D02*
X132380952Y-42406723D01*
X132380952Y-42406723D02*
X132428571Y-42501961D01*
X132428571Y-42501961D02*
X132523809Y-42597200D01*
X132523809Y-42597200D02*
X132666666Y-42644819D01*
X132666666Y-42644819D02*
X132761904Y-42644819D01*
X132761904Y-42644819D02*
X132904761Y-42597200D01*
X132904761Y-42597200D02*
X132952380Y-42549580D01*
X132952380Y-42549580D02*
X132952380Y-42216247D01*
X132952380Y-42216247D02*
X132761904Y-42216247D01*
X133857142Y-41644819D02*
X133380952Y-41644819D01*
X133380952Y-41644819D02*
X133333333Y-42121009D01*
X133333333Y-42121009D02*
X133380952Y-42073390D01*
X133380952Y-42073390D02*
X133476190Y-42025771D01*
X133476190Y-42025771D02*
X133714285Y-42025771D01*
X133714285Y-42025771D02*
X133809523Y-42073390D01*
X133809523Y-42073390D02*
X133857142Y-42121009D01*
X133857142Y-42121009D02*
X133904761Y-42216247D01*
X133904761Y-42216247D02*
X133904761Y-42454342D01*
X133904761Y-42454342D02*
X133857142Y-42549580D01*
X133857142Y-42549580D02*
X133809523Y-42597200D01*
X133809523Y-42597200D02*
X133714285Y-42644819D01*
X133714285Y-42644819D02*
X133476190Y-42644819D01*
X133476190Y-42644819D02*
X133380952Y-42597200D01*
X133380952Y-42597200D02*
X133333333Y-42549580D01*
X134190476Y-41644819D02*
X134523809Y-42644819D01*
X134523809Y-42644819D02*
X134857142Y-41644819D01*
X135190476Y-42263866D02*
X135952381Y-42263866D01*
X136380952Y-41740057D02*
X136428571Y-41692438D01*
X136428571Y-41692438D02*
X136523809Y-41644819D01*
X136523809Y-41644819D02*
X136761904Y-41644819D01*
X136761904Y-41644819D02*
X136857142Y-41692438D01*
X136857142Y-41692438D02*
X136904761Y-41740057D01*
X136904761Y-41740057D02*
X136952380Y-41835295D01*
X136952380Y-41835295D02*
X136952380Y-41930533D01*
X136952380Y-41930533D02*
X136904761Y-42073390D01*
X136904761Y-42073390D02*
X136333333Y-42644819D01*
X136333333Y-42644819D02*
X136952380Y-42644819D01*
X138142857Y-42644819D02*
X138142857Y-41644819D01*
X138142857Y-41644819D02*
X138380952Y-41644819D01*
X138380952Y-41644819D02*
X138523809Y-41692438D01*
X138523809Y-41692438D02*
X138619047Y-41787676D01*
X138619047Y-41787676D02*
X138666666Y-41882914D01*
X138666666Y-41882914D02*
X138714285Y-42073390D01*
X138714285Y-42073390D02*
X138714285Y-42216247D01*
X138714285Y-42216247D02*
X138666666Y-42406723D01*
X138666666Y-42406723D02*
X138619047Y-42501961D01*
X138619047Y-42501961D02*
X138523809Y-42597200D01*
X138523809Y-42597200D02*
X138380952Y-42644819D01*
X138380952Y-42644819D02*
X138142857Y-42644819D01*
X139714285Y-42549580D02*
X139666666Y-42597200D01*
X139666666Y-42597200D02*
X139523809Y-42644819D01*
X139523809Y-42644819D02*
X139428571Y-42644819D01*
X139428571Y-42644819D02*
X139285714Y-42597200D01*
X139285714Y-42597200D02*
X139190476Y-42501961D01*
X139190476Y-42501961D02*
X139142857Y-42406723D01*
X139142857Y-42406723D02*
X139095238Y-42216247D01*
X139095238Y-42216247D02*
X139095238Y-42073390D01*
X139095238Y-42073390D02*
X139142857Y-41882914D01*
X139142857Y-41882914D02*
X139190476Y-41787676D01*
X139190476Y-41787676D02*
X139285714Y-41692438D01*
X139285714Y-41692438D02*
X139428571Y-41644819D01*
X139428571Y-41644819D02*
X139523809Y-41644819D01*
X139523809Y-41644819D02*
X139666666Y-41692438D01*
X139666666Y-41692438D02*
X139714285Y-41740057D01*
X140619047Y-41644819D02*
X140142857Y-41644819D01*
X140142857Y-41644819D02*
X140095238Y-42121009D01*
X140095238Y-42121009D02*
X140142857Y-42073390D01*
X140142857Y-42073390D02*
X140238095Y-42025771D01*
X140238095Y-42025771D02*
X140476190Y-42025771D01*
X140476190Y-42025771D02*
X140571428Y-42073390D01*
X140571428Y-42073390D02*
X140619047Y-42121009D01*
X140619047Y-42121009D02*
X140666666Y-42216247D01*
X140666666Y-42216247D02*
X140666666Y-42454342D01*
X140666666Y-42454342D02*
X140619047Y-42549580D01*
X140619047Y-42549580D02*
X140571428Y-42597200D01*
X140571428Y-42597200D02*
X140476190Y-42644819D01*
X140476190Y-42644819D02*
X140238095Y-42644819D01*
X140238095Y-42644819D02*
X140142857Y-42597200D01*
X140142857Y-42597200D02*
X140095238Y-42549580D01*
X123469524Y-42514819D02*
X123469524Y-41514819D01*
X124040952Y-42514819D02*
X123612381Y-41943390D01*
X124040952Y-41514819D02*
X123469524Y-42086247D01*
X124421905Y-41610057D02*
X124469524Y-41562438D01*
X124469524Y-41562438D02*
X124564762Y-41514819D01*
X124564762Y-41514819D02*
X124802857Y-41514819D01*
X124802857Y-41514819D02*
X124898095Y-41562438D01*
X124898095Y-41562438D02*
X124945714Y-41610057D01*
X124945714Y-41610057D02*
X124993333Y-41705295D01*
X124993333Y-41705295D02*
X124993333Y-41800533D01*
X124993333Y-41800533D02*
X124945714Y-41943390D01*
X124945714Y-41943390D02*
X124374286Y-42514819D01*
X124374286Y-42514819D02*
X124993333Y-42514819D01*
X125612381Y-41514819D02*
X125707619Y-41514819D01*
X125707619Y-41514819D02*
X125802857Y-41562438D01*
X125802857Y-41562438D02*
X125850476Y-41610057D01*
X125850476Y-41610057D02*
X125898095Y-41705295D01*
X125898095Y-41705295D02*
X125945714Y-41895771D01*
X125945714Y-41895771D02*
X125945714Y-42133866D01*
X125945714Y-42133866D02*
X125898095Y-42324342D01*
X125898095Y-42324342D02*
X125850476Y-42419580D01*
X125850476Y-42419580D02*
X125802857Y-42467200D01*
X125802857Y-42467200D02*
X125707619Y-42514819D01*
X125707619Y-42514819D02*
X125612381Y-42514819D01*
X125612381Y-42514819D02*
X125517143Y-42467200D01*
X125517143Y-42467200D02*
X125469524Y-42419580D01*
X125469524Y-42419580D02*
X125421905Y-42324342D01*
X125421905Y-42324342D02*
X125374286Y-42133866D01*
X125374286Y-42133866D02*
X125374286Y-41895771D01*
X125374286Y-41895771D02*
X125421905Y-41705295D01*
X125421905Y-41705295D02*
X125469524Y-41610057D01*
X125469524Y-41610057D02*
X125517143Y-41562438D01*
X125517143Y-41562438D02*
X125612381Y-41514819D01*
X126898095Y-42514819D02*
X126326667Y-42514819D01*
X126612381Y-42514819D02*
X126612381Y-41514819D01*
X126612381Y-41514819D02*
X126517143Y-41657676D01*
X126517143Y-41657676D02*
X126421905Y-41752914D01*
X126421905Y-41752914D02*
X126326667Y-41800533D01*
X90833333Y-53200057D02*
X90880952Y-53152438D01*
X90880952Y-53152438D02*
X90976190Y-53104819D01*
X90976190Y-53104819D02*
X91214285Y-53104819D01*
X91214285Y-53104819D02*
X91309523Y-53152438D01*
X91309523Y-53152438D02*
X91357142Y-53200057D01*
X91357142Y-53200057D02*
X91404761Y-53295295D01*
X91404761Y-53295295D02*
X91404761Y-53390533D01*
X91404761Y-53390533D02*
X91357142Y-53533390D01*
X91357142Y-53533390D02*
X90785714Y-54104819D01*
X90785714Y-54104819D02*
X91404761Y-54104819D01*
X92023809Y-53104819D02*
X92119047Y-53104819D01*
X92119047Y-53104819D02*
X92214285Y-53152438D01*
X92214285Y-53152438D02*
X92261904Y-53200057D01*
X92261904Y-53200057D02*
X92309523Y-53295295D01*
X92309523Y-53295295D02*
X92357142Y-53485771D01*
X92357142Y-53485771D02*
X92357142Y-53723866D01*
X92357142Y-53723866D02*
X92309523Y-53914342D01*
X92309523Y-53914342D02*
X92261904Y-54009580D01*
X92261904Y-54009580D02*
X92214285Y-54057200D01*
X92214285Y-54057200D02*
X92119047Y-54104819D01*
X92119047Y-54104819D02*
X92023809Y-54104819D01*
X92023809Y-54104819D02*
X91928571Y-54057200D01*
X91928571Y-54057200D02*
X91880952Y-54009580D01*
X91880952Y-54009580D02*
X91833333Y-53914342D01*
X91833333Y-53914342D02*
X91785714Y-53723866D01*
X91785714Y-53723866D02*
X91785714Y-53485771D01*
X91785714Y-53485771D02*
X91833333Y-53295295D01*
X91833333Y-53295295D02*
X91880952Y-53200057D01*
X91880952Y-53200057D02*
X91928571Y-53152438D01*
X91928571Y-53152438D02*
X92023809Y-53104819D01*
X92785714Y-54104819D02*
X92785714Y-53104819D01*
X92880952Y-53723866D02*
X93166666Y-54104819D01*
X93166666Y-53438152D02*
X92785714Y-53819104D01*
D11*
X91440476Y-52227149D02*
X91273810Y-51989054D01*
X91154762Y-52227149D02*
X91154762Y-51727149D01*
X91154762Y-51727149D02*
X91345238Y-51727149D01*
X91345238Y-51727149D02*
X91392857Y-51750959D01*
X91392857Y-51750959D02*
X91416667Y-51774768D01*
X91416667Y-51774768D02*
X91440476Y-51822387D01*
X91440476Y-51822387D02*
X91440476Y-51893816D01*
X91440476Y-51893816D02*
X91416667Y-51941435D01*
X91416667Y-51941435D02*
X91392857Y-51965244D01*
X91392857Y-51965244D02*
X91345238Y-51989054D01*
X91345238Y-51989054D02*
X91154762Y-51989054D01*
X91630953Y-51774768D02*
X91654762Y-51750959D01*
X91654762Y-51750959D02*
X91702381Y-51727149D01*
X91702381Y-51727149D02*
X91821429Y-51727149D01*
X91821429Y-51727149D02*
X91869048Y-51750959D01*
X91869048Y-51750959D02*
X91892857Y-51774768D01*
X91892857Y-51774768D02*
X91916667Y-51822387D01*
X91916667Y-51822387D02*
X91916667Y-51870006D01*
X91916667Y-51870006D02*
X91892857Y-51941435D01*
X91892857Y-51941435D02*
X91607143Y-52227149D01*
X91607143Y-52227149D02*
X91916667Y-52227149D01*
X92345238Y-51893816D02*
X92345238Y-52227149D01*
X92226190Y-51703340D02*
X92107143Y-52060482D01*
X92107143Y-52060482D02*
X92416666Y-52060482D01*
X92869047Y-52227149D02*
X92583333Y-52227149D01*
X92726190Y-52227149D02*
X92726190Y-51727149D01*
X92726190Y-51727149D02*
X92678571Y-51798578D01*
X92678571Y-51798578D02*
X92630952Y-51846197D01*
X92630952Y-51846197D02*
X92583333Y-51870006D01*
D10*
X56833333Y-91200057D02*
X56880952Y-91152438D01*
X56880952Y-91152438D02*
X56976190Y-91104819D01*
X56976190Y-91104819D02*
X57214285Y-91104819D01*
X57214285Y-91104819D02*
X57309523Y-91152438D01*
X57309523Y-91152438D02*
X57357142Y-91200057D01*
X57357142Y-91200057D02*
X57404761Y-91295295D01*
X57404761Y-91295295D02*
X57404761Y-91390533D01*
X57404761Y-91390533D02*
X57357142Y-91533390D01*
X57357142Y-91533390D02*
X56785714Y-92104819D01*
X56785714Y-92104819D02*
X57404761Y-92104819D01*
X58023809Y-91104819D02*
X58119047Y-91104819D01*
X58119047Y-91104819D02*
X58214285Y-91152438D01*
X58214285Y-91152438D02*
X58261904Y-91200057D01*
X58261904Y-91200057D02*
X58309523Y-91295295D01*
X58309523Y-91295295D02*
X58357142Y-91485771D01*
X58357142Y-91485771D02*
X58357142Y-91723866D01*
X58357142Y-91723866D02*
X58309523Y-91914342D01*
X58309523Y-91914342D02*
X58261904Y-92009580D01*
X58261904Y-92009580D02*
X58214285Y-92057200D01*
X58214285Y-92057200D02*
X58119047Y-92104819D01*
X58119047Y-92104819D02*
X58023809Y-92104819D01*
X58023809Y-92104819D02*
X57928571Y-92057200D01*
X57928571Y-92057200D02*
X57880952Y-92009580D01*
X57880952Y-92009580D02*
X57833333Y-91914342D01*
X57833333Y-91914342D02*
X57785714Y-91723866D01*
X57785714Y-91723866D02*
X57785714Y-91485771D01*
X57785714Y-91485771D02*
X57833333Y-91295295D01*
X57833333Y-91295295D02*
X57880952Y-91200057D01*
X57880952Y-91200057D02*
X57928571Y-91152438D01*
X57928571Y-91152438D02*
X58023809Y-91104819D01*
X58785714Y-92104819D02*
X58785714Y-91104819D01*
X58880952Y-91723866D02*
X59166666Y-92104819D01*
X59166666Y-91438152D02*
X58785714Y-91819104D01*
D11*
X57440476Y-90227149D02*
X57273810Y-89989054D01*
X57154762Y-90227149D02*
X57154762Y-89727149D01*
X57154762Y-89727149D02*
X57345238Y-89727149D01*
X57345238Y-89727149D02*
X57392857Y-89750959D01*
X57392857Y-89750959D02*
X57416667Y-89774768D01*
X57416667Y-89774768D02*
X57440476Y-89822387D01*
X57440476Y-89822387D02*
X57440476Y-89893816D01*
X57440476Y-89893816D02*
X57416667Y-89941435D01*
X57416667Y-89941435D02*
X57392857Y-89965244D01*
X57392857Y-89965244D02*
X57345238Y-89989054D01*
X57345238Y-89989054D02*
X57154762Y-89989054D01*
X57630953Y-89774768D02*
X57654762Y-89750959D01*
X57654762Y-89750959D02*
X57702381Y-89727149D01*
X57702381Y-89727149D02*
X57821429Y-89727149D01*
X57821429Y-89727149D02*
X57869048Y-89750959D01*
X57869048Y-89750959D02*
X57892857Y-89774768D01*
X57892857Y-89774768D02*
X57916667Y-89822387D01*
X57916667Y-89822387D02*
X57916667Y-89870006D01*
X57916667Y-89870006D02*
X57892857Y-89941435D01*
X57892857Y-89941435D02*
X57607143Y-90227149D01*
X57607143Y-90227149D02*
X57916667Y-90227149D01*
X58107143Y-89774768D02*
X58130952Y-89750959D01*
X58130952Y-89750959D02*
X58178571Y-89727149D01*
X58178571Y-89727149D02*
X58297619Y-89727149D01*
X58297619Y-89727149D02*
X58345238Y-89750959D01*
X58345238Y-89750959D02*
X58369047Y-89774768D01*
X58369047Y-89774768D02*
X58392857Y-89822387D01*
X58392857Y-89822387D02*
X58392857Y-89870006D01*
X58392857Y-89870006D02*
X58369047Y-89941435D01*
X58369047Y-89941435D02*
X58083333Y-90227149D01*
X58083333Y-90227149D02*
X58392857Y-90227149D01*
X58559523Y-89727149D02*
X58869047Y-89727149D01*
X58869047Y-89727149D02*
X58702380Y-89917625D01*
X58702380Y-89917625D02*
X58773809Y-89917625D01*
X58773809Y-89917625D02*
X58821428Y-89941435D01*
X58821428Y-89941435D02*
X58845237Y-89965244D01*
X58845237Y-89965244D02*
X58869047Y-90012863D01*
X58869047Y-90012863D02*
X58869047Y-90131911D01*
X58869047Y-90131911D02*
X58845237Y-90179530D01*
X58845237Y-90179530D02*
X58821428Y-90203340D01*
X58821428Y-90203340D02*
X58773809Y-90227149D01*
X58773809Y-90227149D02*
X58630952Y-90227149D01*
X58630952Y-90227149D02*
X58583333Y-90203340D01*
X58583333Y-90203340D02*
X58559523Y-90179530D01*
D10*
X81333333Y-92104819D02*
X80761905Y-92104819D01*
X81047619Y-92104819D02*
X81047619Y-91104819D01*
X81047619Y-91104819D02*
X80952381Y-91247676D01*
X80952381Y-91247676D02*
X80857143Y-91342914D01*
X80857143Y-91342914D02*
X80761905Y-91390533D01*
X81952381Y-91104819D02*
X82047619Y-91104819D01*
X82047619Y-91104819D02*
X82142857Y-91152438D01*
X82142857Y-91152438D02*
X82190476Y-91200057D01*
X82190476Y-91200057D02*
X82238095Y-91295295D01*
X82238095Y-91295295D02*
X82285714Y-91485771D01*
X82285714Y-91485771D02*
X82285714Y-91723866D01*
X82285714Y-91723866D02*
X82238095Y-91914342D01*
X82238095Y-91914342D02*
X82190476Y-92009580D01*
X82190476Y-92009580D02*
X82142857Y-92057200D01*
X82142857Y-92057200D02*
X82047619Y-92104819D01*
X82047619Y-92104819D02*
X81952381Y-92104819D01*
X81952381Y-92104819D02*
X81857143Y-92057200D01*
X81857143Y-92057200D02*
X81809524Y-92009580D01*
X81809524Y-92009580D02*
X81761905Y-91914342D01*
X81761905Y-91914342D02*
X81714286Y-91723866D01*
X81714286Y-91723866D02*
X81714286Y-91485771D01*
X81714286Y-91485771D02*
X81761905Y-91295295D01*
X81761905Y-91295295D02*
X81809524Y-91200057D01*
X81809524Y-91200057D02*
X81857143Y-91152438D01*
X81857143Y-91152438D02*
X81952381Y-91104819D01*
X82904762Y-91104819D02*
X83000000Y-91104819D01*
X83000000Y-91104819D02*
X83095238Y-91152438D01*
X83095238Y-91152438D02*
X83142857Y-91200057D01*
X83142857Y-91200057D02*
X83190476Y-91295295D01*
X83190476Y-91295295D02*
X83238095Y-91485771D01*
X83238095Y-91485771D02*
X83238095Y-91723866D01*
X83238095Y-91723866D02*
X83190476Y-91914342D01*
X83190476Y-91914342D02*
X83142857Y-92009580D01*
X83142857Y-92009580D02*
X83095238Y-92057200D01*
X83095238Y-92057200D02*
X83000000Y-92104819D01*
X83000000Y-92104819D02*
X82904762Y-92104819D01*
X82904762Y-92104819D02*
X82809524Y-92057200D01*
X82809524Y-92057200D02*
X82761905Y-92009580D01*
X82761905Y-92009580D02*
X82714286Y-91914342D01*
X82714286Y-91914342D02*
X82666667Y-91723866D01*
X82666667Y-91723866D02*
X82666667Y-91485771D01*
X82666667Y-91485771D02*
X82714286Y-91295295D01*
X82714286Y-91295295D02*
X82761905Y-91200057D01*
X82761905Y-91200057D02*
X82809524Y-91152438D01*
X82809524Y-91152438D02*
X82904762Y-91104819D01*
D11*
X81440476Y-90227149D02*
X81273810Y-89989054D01*
X81154762Y-90227149D02*
X81154762Y-89727149D01*
X81154762Y-89727149D02*
X81345238Y-89727149D01*
X81345238Y-89727149D02*
X81392857Y-89750959D01*
X81392857Y-89750959D02*
X81416667Y-89774768D01*
X81416667Y-89774768D02*
X81440476Y-89822387D01*
X81440476Y-89822387D02*
X81440476Y-89893816D01*
X81440476Y-89893816D02*
X81416667Y-89941435D01*
X81416667Y-89941435D02*
X81392857Y-89965244D01*
X81392857Y-89965244D02*
X81345238Y-89989054D01*
X81345238Y-89989054D02*
X81154762Y-89989054D01*
X81630953Y-89774768D02*
X81654762Y-89750959D01*
X81654762Y-89750959D02*
X81702381Y-89727149D01*
X81702381Y-89727149D02*
X81821429Y-89727149D01*
X81821429Y-89727149D02*
X81869048Y-89750959D01*
X81869048Y-89750959D02*
X81892857Y-89774768D01*
X81892857Y-89774768D02*
X81916667Y-89822387D01*
X81916667Y-89822387D02*
X81916667Y-89870006D01*
X81916667Y-89870006D02*
X81892857Y-89941435D01*
X81892857Y-89941435D02*
X81607143Y-90227149D01*
X81607143Y-90227149D02*
X81916667Y-90227149D01*
X82107143Y-89774768D02*
X82130952Y-89750959D01*
X82130952Y-89750959D02*
X82178571Y-89727149D01*
X82178571Y-89727149D02*
X82297619Y-89727149D01*
X82297619Y-89727149D02*
X82345238Y-89750959D01*
X82345238Y-89750959D02*
X82369047Y-89774768D01*
X82369047Y-89774768D02*
X82392857Y-89822387D01*
X82392857Y-89822387D02*
X82392857Y-89870006D01*
X82392857Y-89870006D02*
X82369047Y-89941435D01*
X82369047Y-89941435D02*
X82083333Y-90227149D01*
X82083333Y-90227149D02*
X82392857Y-90227149D01*
X82845237Y-89727149D02*
X82607142Y-89727149D01*
X82607142Y-89727149D02*
X82583333Y-89965244D01*
X82583333Y-89965244D02*
X82607142Y-89941435D01*
X82607142Y-89941435D02*
X82654761Y-89917625D01*
X82654761Y-89917625D02*
X82773809Y-89917625D01*
X82773809Y-89917625D02*
X82821428Y-89941435D01*
X82821428Y-89941435D02*
X82845237Y-89965244D01*
X82845237Y-89965244D02*
X82869047Y-90012863D01*
X82869047Y-90012863D02*
X82869047Y-90131911D01*
X82869047Y-90131911D02*
X82845237Y-90179530D01*
X82845237Y-90179530D02*
X82821428Y-90203340D01*
X82821428Y-90203340D02*
X82773809Y-90227149D01*
X82773809Y-90227149D02*
X82654761Y-90227149D01*
X82654761Y-90227149D02*
X82607142Y-90203340D01*
X82607142Y-90203340D02*
X82583333Y-90179530D01*
D10*
X76928571Y-72104819D02*
X76357143Y-72104819D01*
X76642857Y-72104819D02*
X76642857Y-71104819D01*
X76642857Y-71104819D02*
X76547619Y-71247676D01*
X76547619Y-71247676D02*
X76452381Y-71342914D01*
X76452381Y-71342914D02*
X76357143Y-71390533D01*
X77547619Y-71104819D02*
X77642857Y-71104819D01*
X77642857Y-71104819D02*
X77738095Y-71152438D01*
X77738095Y-71152438D02*
X77785714Y-71200057D01*
X77785714Y-71200057D02*
X77833333Y-71295295D01*
X77833333Y-71295295D02*
X77880952Y-71485771D01*
X77880952Y-71485771D02*
X77880952Y-71723866D01*
X77880952Y-71723866D02*
X77833333Y-71914342D01*
X77833333Y-71914342D02*
X77785714Y-72009580D01*
X77785714Y-72009580D02*
X77738095Y-72057200D01*
X77738095Y-72057200D02*
X77642857Y-72104819D01*
X77642857Y-72104819D02*
X77547619Y-72104819D01*
X77547619Y-72104819D02*
X77452381Y-72057200D01*
X77452381Y-72057200D02*
X77404762Y-72009580D01*
X77404762Y-72009580D02*
X77357143Y-71914342D01*
X77357143Y-71914342D02*
X77309524Y-71723866D01*
X77309524Y-71723866D02*
X77309524Y-71485771D01*
X77309524Y-71485771D02*
X77357143Y-71295295D01*
X77357143Y-71295295D02*
X77404762Y-71200057D01*
X77404762Y-71200057D02*
X77452381Y-71152438D01*
X77452381Y-71152438D02*
X77547619Y-71104819D01*
X78500000Y-71104819D02*
X78595238Y-71104819D01*
X78595238Y-71104819D02*
X78690476Y-71152438D01*
X78690476Y-71152438D02*
X78738095Y-71200057D01*
X78738095Y-71200057D02*
X78785714Y-71295295D01*
X78785714Y-71295295D02*
X78833333Y-71485771D01*
X78833333Y-71485771D02*
X78833333Y-71723866D01*
X78833333Y-71723866D02*
X78785714Y-71914342D01*
X78785714Y-71914342D02*
X78738095Y-72009580D01*
X78738095Y-72009580D02*
X78690476Y-72057200D01*
X78690476Y-72057200D02*
X78595238Y-72104819D01*
X78595238Y-72104819D02*
X78500000Y-72104819D01*
X78500000Y-72104819D02*
X78404762Y-72057200D01*
X78404762Y-72057200D02*
X78357143Y-72009580D01*
X78357143Y-72009580D02*
X78309524Y-71914342D01*
X78309524Y-71914342D02*
X78261905Y-71723866D01*
X78261905Y-71723866D02*
X78261905Y-71485771D01*
X78261905Y-71485771D02*
X78309524Y-71295295D01*
X78309524Y-71295295D02*
X78357143Y-71200057D01*
X78357143Y-71200057D02*
X78404762Y-71152438D01*
X78404762Y-71152438D02*
X78500000Y-71104819D01*
X79261905Y-72104819D02*
X79261905Y-71104819D01*
X79357143Y-71723866D02*
X79642857Y-72104819D01*
X79642857Y-71438152D02*
X79261905Y-71819104D01*
D11*
X77440476Y-70227149D02*
X77273810Y-69989054D01*
X77154762Y-70227149D02*
X77154762Y-69727149D01*
X77154762Y-69727149D02*
X77345238Y-69727149D01*
X77345238Y-69727149D02*
X77392857Y-69750959D01*
X77392857Y-69750959D02*
X77416667Y-69774768D01*
X77416667Y-69774768D02*
X77440476Y-69822387D01*
X77440476Y-69822387D02*
X77440476Y-69893816D01*
X77440476Y-69893816D02*
X77416667Y-69941435D01*
X77416667Y-69941435D02*
X77392857Y-69965244D01*
X77392857Y-69965244D02*
X77345238Y-69989054D01*
X77345238Y-69989054D02*
X77154762Y-69989054D01*
X77630953Y-69774768D02*
X77654762Y-69750959D01*
X77654762Y-69750959D02*
X77702381Y-69727149D01*
X77702381Y-69727149D02*
X77821429Y-69727149D01*
X77821429Y-69727149D02*
X77869048Y-69750959D01*
X77869048Y-69750959D02*
X77892857Y-69774768D01*
X77892857Y-69774768D02*
X77916667Y-69822387D01*
X77916667Y-69822387D02*
X77916667Y-69870006D01*
X77916667Y-69870006D02*
X77892857Y-69941435D01*
X77892857Y-69941435D02*
X77607143Y-70227149D01*
X77607143Y-70227149D02*
X77916667Y-70227149D01*
X78083333Y-69727149D02*
X78392857Y-69727149D01*
X78392857Y-69727149D02*
X78226190Y-69917625D01*
X78226190Y-69917625D02*
X78297619Y-69917625D01*
X78297619Y-69917625D02*
X78345238Y-69941435D01*
X78345238Y-69941435D02*
X78369047Y-69965244D01*
X78369047Y-69965244D02*
X78392857Y-70012863D01*
X78392857Y-70012863D02*
X78392857Y-70131911D01*
X78392857Y-70131911D02*
X78369047Y-70179530D01*
X78369047Y-70179530D02*
X78345238Y-70203340D01*
X78345238Y-70203340D02*
X78297619Y-70227149D01*
X78297619Y-70227149D02*
X78154762Y-70227149D01*
X78154762Y-70227149D02*
X78107143Y-70203340D01*
X78107143Y-70203340D02*
X78083333Y-70179530D01*
X78869047Y-70227149D02*
X78583333Y-70227149D01*
X78726190Y-70227149D02*
X78726190Y-69727149D01*
X78726190Y-69727149D02*
X78678571Y-69798578D01*
X78678571Y-69798578D02*
X78630952Y-69846197D01*
X78630952Y-69846197D02*
X78583333Y-69870006D01*
D10*
X84952381Y-71104819D02*
X85047619Y-71104819D01*
X85047619Y-71104819D02*
X85142857Y-71152438D01*
X85142857Y-71152438D02*
X85190476Y-71200057D01*
X85190476Y-71200057D02*
X85238095Y-71295295D01*
X85238095Y-71295295D02*
X85285714Y-71485771D01*
X85285714Y-71485771D02*
X85285714Y-71723866D01*
X85285714Y-71723866D02*
X85238095Y-71914342D01*
X85238095Y-71914342D02*
X85190476Y-72009580D01*
X85190476Y-72009580D02*
X85142857Y-72057200D01*
X85142857Y-72057200D02*
X85047619Y-72104819D01*
X85047619Y-72104819D02*
X84952381Y-72104819D01*
X84952381Y-72104819D02*
X84857143Y-72057200D01*
X84857143Y-72057200D02*
X84809524Y-72009580D01*
X84809524Y-72009580D02*
X84761905Y-71914342D01*
X84761905Y-71914342D02*
X84714286Y-71723866D01*
X84714286Y-71723866D02*
X84714286Y-71485771D01*
X84714286Y-71485771D02*
X84761905Y-71295295D01*
X84761905Y-71295295D02*
X84809524Y-71200057D01*
X84809524Y-71200057D02*
X84857143Y-71152438D01*
X84857143Y-71152438D02*
X84952381Y-71104819D01*
D11*
X84440476Y-70227149D02*
X84273810Y-69989054D01*
X84154762Y-70227149D02*
X84154762Y-69727149D01*
X84154762Y-69727149D02*
X84345238Y-69727149D01*
X84345238Y-69727149D02*
X84392857Y-69750959D01*
X84392857Y-69750959D02*
X84416667Y-69774768D01*
X84416667Y-69774768D02*
X84440476Y-69822387D01*
X84440476Y-69822387D02*
X84440476Y-69893816D01*
X84440476Y-69893816D02*
X84416667Y-69941435D01*
X84416667Y-69941435D02*
X84392857Y-69965244D01*
X84392857Y-69965244D02*
X84345238Y-69989054D01*
X84345238Y-69989054D02*
X84154762Y-69989054D01*
X84630953Y-69774768D02*
X84654762Y-69750959D01*
X84654762Y-69750959D02*
X84702381Y-69727149D01*
X84702381Y-69727149D02*
X84821429Y-69727149D01*
X84821429Y-69727149D02*
X84869048Y-69750959D01*
X84869048Y-69750959D02*
X84892857Y-69774768D01*
X84892857Y-69774768D02*
X84916667Y-69822387D01*
X84916667Y-69822387D02*
X84916667Y-69870006D01*
X84916667Y-69870006D02*
X84892857Y-69941435D01*
X84892857Y-69941435D02*
X84607143Y-70227149D01*
X84607143Y-70227149D02*
X84916667Y-70227149D01*
X85083333Y-69727149D02*
X85392857Y-69727149D01*
X85392857Y-69727149D02*
X85226190Y-69917625D01*
X85226190Y-69917625D02*
X85297619Y-69917625D01*
X85297619Y-69917625D02*
X85345238Y-69941435D01*
X85345238Y-69941435D02*
X85369047Y-69965244D01*
X85369047Y-69965244D02*
X85392857Y-70012863D01*
X85392857Y-70012863D02*
X85392857Y-70131911D01*
X85392857Y-70131911D02*
X85369047Y-70179530D01*
X85369047Y-70179530D02*
X85345238Y-70203340D01*
X85345238Y-70203340D02*
X85297619Y-70227149D01*
X85297619Y-70227149D02*
X85154762Y-70227149D01*
X85154762Y-70227149D02*
X85107143Y-70203340D01*
X85107143Y-70203340D02*
X85083333Y-70179530D01*
X85583333Y-69774768D02*
X85607142Y-69750959D01*
X85607142Y-69750959D02*
X85654761Y-69727149D01*
X85654761Y-69727149D02*
X85773809Y-69727149D01*
X85773809Y-69727149D02*
X85821428Y-69750959D01*
X85821428Y-69750959D02*
X85845237Y-69774768D01*
X85845237Y-69774768D02*
X85869047Y-69822387D01*
X85869047Y-69822387D02*
X85869047Y-69870006D01*
X85869047Y-69870006D02*
X85845237Y-69941435D01*
X85845237Y-69941435D02*
X85559523Y-70227149D01*
X85559523Y-70227149D02*
X85869047Y-70227149D01*
D10*
X72833333Y-41200057D02*
X72880952Y-41152438D01*
X72880952Y-41152438D02*
X72976190Y-41104819D01*
X72976190Y-41104819D02*
X73214285Y-41104819D01*
X73214285Y-41104819D02*
X73309523Y-41152438D01*
X73309523Y-41152438D02*
X73357142Y-41200057D01*
X73357142Y-41200057D02*
X73404761Y-41295295D01*
X73404761Y-41295295D02*
X73404761Y-41390533D01*
X73404761Y-41390533D02*
X73357142Y-41533390D01*
X73357142Y-41533390D02*
X72785714Y-42104819D01*
X72785714Y-42104819D02*
X73404761Y-42104819D01*
X74023809Y-41104819D02*
X74119047Y-41104819D01*
X74119047Y-41104819D02*
X74214285Y-41152438D01*
X74214285Y-41152438D02*
X74261904Y-41200057D01*
X74261904Y-41200057D02*
X74309523Y-41295295D01*
X74309523Y-41295295D02*
X74357142Y-41485771D01*
X74357142Y-41485771D02*
X74357142Y-41723866D01*
X74357142Y-41723866D02*
X74309523Y-41914342D01*
X74309523Y-41914342D02*
X74261904Y-42009580D01*
X74261904Y-42009580D02*
X74214285Y-42057200D01*
X74214285Y-42057200D02*
X74119047Y-42104819D01*
X74119047Y-42104819D02*
X74023809Y-42104819D01*
X74023809Y-42104819D02*
X73928571Y-42057200D01*
X73928571Y-42057200D02*
X73880952Y-42009580D01*
X73880952Y-42009580D02*
X73833333Y-41914342D01*
X73833333Y-41914342D02*
X73785714Y-41723866D01*
X73785714Y-41723866D02*
X73785714Y-41485771D01*
X73785714Y-41485771D02*
X73833333Y-41295295D01*
X73833333Y-41295295D02*
X73880952Y-41200057D01*
X73880952Y-41200057D02*
X73928571Y-41152438D01*
X73928571Y-41152438D02*
X74023809Y-41104819D01*
X74785714Y-42104819D02*
X74785714Y-41104819D01*
X74880952Y-41723866D02*
X75166666Y-42104819D01*
X75166666Y-41438152D02*
X74785714Y-41819104D01*
D11*
X73440476Y-40227149D02*
X73273810Y-39989054D01*
X73154762Y-40227149D02*
X73154762Y-39727149D01*
X73154762Y-39727149D02*
X73345238Y-39727149D01*
X73345238Y-39727149D02*
X73392857Y-39750959D01*
X73392857Y-39750959D02*
X73416667Y-39774768D01*
X73416667Y-39774768D02*
X73440476Y-39822387D01*
X73440476Y-39822387D02*
X73440476Y-39893816D01*
X73440476Y-39893816D02*
X73416667Y-39941435D01*
X73416667Y-39941435D02*
X73392857Y-39965244D01*
X73392857Y-39965244D02*
X73345238Y-39989054D01*
X73345238Y-39989054D02*
X73154762Y-39989054D01*
X73630953Y-39774768D02*
X73654762Y-39750959D01*
X73654762Y-39750959D02*
X73702381Y-39727149D01*
X73702381Y-39727149D02*
X73821429Y-39727149D01*
X73821429Y-39727149D02*
X73869048Y-39750959D01*
X73869048Y-39750959D02*
X73892857Y-39774768D01*
X73892857Y-39774768D02*
X73916667Y-39822387D01*
X73916667Y-39822387D02*
X73916667Y-39870006D01*
X73916667Y-39870006D02*
X73892857Y-39941435D01*
X73892857Y-39941435D02*
X73607143Y-40227149D01*
X73607143Y-40227149D02*
X73916667Y-40227149D01*
X74226190Y-39727149D02*
X74273809Y-39727149D01*
X74273809Y-39727149D02*
X74321428Y-39750959D01*
X74321428Y-39750959D02*
X74345238Y-39774768D01*
X74345238Y-39774768D02*
X74369047Y-39822387D01*
X74369047Y-39822387D02*
X74392857Y-39917625D01*
X74392857Y-39917625D02*
X74392857Y-40036673D01*
X74392857Y-40036673D02*
X74369047Y-40131911D01*
X74369047Y-40131911D02*
X74345238Y-40179530D01*
X74345238Y-40179530D02*
X74321428Y-40203340D01*
X74321428Y-40203340D02*
X74273809Y-40227149D01*
X74273809Y-40227149D02*
X74226190Y-40227149D01*
X74226190Y-40227149D02*
X74178571Y-40203340D01*
X74178571Y-40203340D02*
X74154762Y-40179530D01*
X74154762Y-40179530D02*
X74130952Y-40131911D01*
X74130952Y-40131911D02*
X74107143Y-40036673D01*
X74107143Y-40036673D02*
X74107143Y-39917625D01*
X74107143Y-39917625D02*
X74130952Y-39822387D01*
X74130952Y-39822387D02*
X74154762Y-39774768D01*
X74154762Y-39774768D02*
X74178571Y-39750959D01*
X74178571Y-39750959D02*
X74226190Y-39727149D01*
X74630952Y-40227149D02*
X74726190Y-40227149D01*
X74726190Y-40227149D02*
X74773809Y-40203340D01*
X74773809Y-40203340D02*
X74797618Y-40179530D01*
X74797618Y-40179530D02*
X74845237Y-40108101D01*
X74845237Y-40108101D02*
X74869047Y-40012863D01*
X74869047Y-40012863D02*
X74869047Y-39822387D01*
X74869047Y-39822387D02*
X74845237Y-39774768D01*
X74845237Y-39774768D02*
X74821428Y-39750959D01*
X74821428Y-39750959D02*
X74773809Y-39727149D01*
X74773809Y-39727149D02*
X74678571Y-39727149D01*
X74678571Y-39727149D02*
X74630952Y-39750959D01*
X74630952Y-39750959D02*
X74607142Y-39774768D01*
X74607142Y-39774768D02*
X74583333Y-39822387D01*
X74583333Y-39822387D02*
X74583333Y-39941435D01*
X74583333Y-39941435D02*
X74607142Y-39989054D01*
X74607142Y-39989054D02*
X74630952Y-40012863D01*
X74630952Y-40012863D02*
X74678571Y-40036673D01*
X74678571Y-40036673D02*
X74773809Y-40036673D01*
X74773809Y-40036673D02*
X74821428Y-40012863D01*
X74821428Y-40012863D02*
X74845237Y-39989054D01*
X74845237Y-39989054D02*
X74869047Y-39941435D01*
D10*
X65559524Y-107054819D02*
X65559524Y-106054819D01*
X65559524Y-106054819D02*
X65940476Y-106054819D01*
X65940476Y-106054819D02*
X66035714Y-106102438D01*
X66035714Y-106102438D02*
X66083333Y-106150057D01*
X66083333Y-106150057D02*
X66130952Y-106245295D01*
X66130952Y-106245295D02*
X66130952Y-106388152D01*
X66130952Y-106388152D02*
X66083333Y-106483390D01*
X66083333Y-106483390D02*
X66035714Y-106531009D01*
X66035714Y-106531009D02*
X65940476Y-106578628D01*
X65940476Y-106578628D02*
X65559524Y-106578628D01*
X66511905Y-106150057D02*
X66559524Y-106102438D01*
X66559524Y-106102438D02*
X66654762Y-106054819D01*
X66654762Y-106054819D02*
X66892857Y-106054819D01*
X66892857Y-106054819D02*
X66988095Y-106102438D01*
X66988095Y-106102438D02*
X67035714Y-106150057D01*
X67035714Y-106150057D02*
X67083333Y-106245295D01*
X67083333Y-106245295D02*
X67083333Y-106340533D01*
X67083333Y-106340533D02*
X67035714Y-106483390D01*
X67035714Y-106483390D02*
X66464286Y-107054819D01*
X66464286Y-107054819D02*
X67083333Y-107054819D01*
X67702381Y-106054819D02*
X67797619Y-106054819D01*
X67797619Y-106054819D02*
X67892857Y-106102438D01*
X67892857Y-106102438D02*
X67940476Y-106150057D01*
X67940476Y-106150057D02*
X67988095Y-106245295D01*
X67988095Y-106245295D02*
X68035714Y-106435771D01*
X68035714Y-106435771D02*
X68035714Y-106673866D01*
X68035714Y-106673866D02*
X67988095Y-106864342D01*
X67988095Y-106864342D02*
X67940476Y-106959580D01*
X67940476Y-106959580D02*
X67892857Y-107007200D01*
X67892857Y-107007200D02*
X67797619Y-107054819D01*
X67797619Y-107054819D02*
X67702381Y-107054819D01*
X67702381Y-107054819D02*
X67607143Y-107007200D01*
X67607143Y-107007200D02*
X67559524Y-106959580D01*
X67559524Y-106959580D02*
X67511905Y-106864342D01*
X67511905Y-106864342D02*
X67464286Y-106673866D01*
X67464286Y-106673866D02*
X67464286Y-106435771D01*
X67464286Y-106435771D02*
X67511905Y-106245295D01*
X67511905Y-106245295D02*
X67559524Y-106150057D01*
X67559524Y-106150057D02*
X67607143Y-106102438D01*
X67607143Y-106102438D02*
X67702381Y-106054819D01*
X68892857Y-106054819D02*
X68702381Y-106054819D01*
X68702381Y-106054819D02*
X68607143Y-106102438D01*
X68607143Y-106102438D02*
X68559524Y-106150057D01*
X68559524Y-106150057D02*
X68464286Y-106292914D01*
X68464286Y-106292914D02*
X68416667Y-106483390D01*
X68416667Y-106483390D02*
X68416667Y-106864342D01*
X68416667Y-106864342D02*
X68464286Y-106959580D01*
X68464286Y-106959580D02*
X68511905Y-107007200D01*
X68511905Y-107007200D02*
X68607143Y-107054819D01*
X68607143Y-107054819D02*
X68797619Y-107054819D01*
X68797619Y-107054819D02*
X68892857Y-107007200D01*
X68892857Y-107007200D02*
X68940476Y-106959580D01*
X68940476Y-106959580D02*
X68988095Y-106864342D01*
X68988095Y-106864342D02*
X68988095Y-106626247D01*
X68988095Y-106626247D02*
X68940476Y-106531009D01*
X68940476Y-106531009D02*
X68892857Y-106483390D01*
X68892857Y-106483390D02*
X68797619Y-106435771D01*
X68797619Y-106435771D02*
X68607143Y-106435771D01*
X68607143Y-106435771D02*
X68511905Y-106483390D01*
X68511905Y-106483390D02*
X68464286Y-106531009D01*
X68464286Y-106531009D02*
X68416667Y-106626247D01*
X65559524Y-105154819D02*
X65559524Y-104154819D01*
X65559524Y-104154819D02*
X65940476Y-104154819D01*
X65940476Y-104154819D02*
X66035714Y-104202438D01*
X66035714Y-104202438D02*
X66083333Y-104250057D01*
X66083333Y-104250057D02*
X66130952Y-104345295D01*
X66130952Y-104345295D02*
X66130952Y-104488152D01*
X66130952Y-104488152D02*
X66083333Y-104583390D01*
X66083333Y-104583390D02*
X66035714Y-104631009D01*
X66035714Y-104631009D02*
X65940476Y-104678628D01*
X65940476Y-104678628D02*
X65559524Y-104678628D01*
X66511905Y-104250057D02*
X66559524Y-104202438D01*
X66559524Y-104202438D02*
X66654762Y-104154819D01*
X66654762Y-104154819D02*
X66892857Y-104154819D01*
X66892857Y-104154819D02*
X66988095Y-104202438D01*
X66988095Y-104202438D02*
X67035714Y-104250057D01*
X67035714Y-104250057D02*
X67083333Y-104345295D01*
X67083333Y-104345295D02*
X67083333Y-104440533D01*
X67083333Y-104440533D02*
X67035714Y-104583390D01*
X67035714Y-104583390D02*
X66464286Y-105154819D01*
X66464286Y-105154819D02*
X67083333Y-105154819D01*
X67702381Y-104154819D02*
X67797619Y-104154819D01*
X67797619Y-104154819D02*
X67892857Y-104202438D01*
X67892857Y-104202438D02*
X67940476Y-104250057D01*
X67940476Y-104250057D02*
X67988095Y-104345295D01*
X67988095Y-104345295D02*
X68035714Y-104535771D01*
X68035714Y-104535771D02*
X68035714Y-104773866D01*
X68035714Y-104773866D02*
X67988095Y-104964342D01*
X67988095Y-104964342D02*
X67940476Y-105059580D01*
X67940476Y-105059580D02*
X67892857Y-105107200D01*
X67892857Y-105107200D02*
X67797619Y-105154819D01*
X67797619Y-105154819D02*
X67702381Y-105154819D01*
X67702381Y-105154819D02*
X67607143Y-105107200D01*
X67607143Y-105107200D02*
X67559524Y-105059580D01*
X67559524Y-105059580D02*
X67511905Y-104964342D01*
X67511905Y-104964342D02*
X67464286Y-104773866D01*
X67464286Y-104773866D02*
X67464286Y-104535771D01*
X67464286Y-104535771D02*
X67511905Y-104345295D01*
X67511905Y-104345295D02*
X67559524Y-104250057D01*
X67559524Y-104250057D02*
X67607143Y-104202438D01*
X67607143Y-104202438D02*
X67702381Y-104154819D01*
X68892857Y-104154819D02*
X68702381Y-104154819D01*
X68702381Y-104154819D02*
X68607143Y-104202438D01*
X68607143Y-104202438D02*
X68559524Y-104250057D01*
X68559524Y-104250057D02*
X68464286Y-104392914D01*
X68464286Y-104392914D02*
X68416667Y-104583390D01*
X68416667Y-104583390D02*
X68416667Y-104964342D01*
X68416667Y-104964342D02*
X68464286Y-105059580D01*
X68464286Y-105059580D02*
X68511905Y-105107200D01*
X68511905Y-105107200D02*
X68607143Y-105154819D01*
X68607143Y-105154819D02*
X68797619Y-105154819D01*
X68797619Y-105154819D02*
X68892857Y-105107200D01*
X68892857Y-105107200D02*
X68940476Y-105059580D01*
X68940476Y-105059580D02*
X68988095Y-104964342D01*
X68988095Y-104964342D02*
X68988095Y-104726247D01*
X68988095Y-104726247D02*
X68940476Y-104631009D01*
X68940476Y-104631009D02*
X68892857Y-104583390D01*
X68892857Y-104583390D02*
X68797619Y-104535771D01*
X68797619Y-104535771D02*
X68607143Y-104535771D01*
X68607143Y-104535771D02*
X68511905Y-104583390D01*
X68511905Y-104583390D02*
X68464286Y-104631009D01*
X68464286Y-104631009D02*
X68416667Y-104726247D01*
X56833333Y-41200057D02*
X56880952Y-41152438D01*
X56880952Y-41152438D02*
X56976190Y-41104819D01*
X56976190Y-41104819D02*
X57214285Y-41104819D01*
X57214285Y-41104819D02*
X57309523Y-41152438D01*
X57309523Y-41152438D02*
X57357142Y-41200057D01*
X57357142Y-41200057D02*
X57404761Y-41295295D01*
X57404761Y-41295295D02*
X57404761Y-41390533D01*
X57404761Y-41390533D02*
X57357142Y-41533390D01*
X57357142Y-41533390D02*
X56785714Y-42104819D01*
X56785714Y-42104819D02*
X57404761Y-42104819D01*
X58023809Y-41104819D02*
X58119047Y-41104819D01*
X58119047Y-41104819D02*
X58214285Y-41152438D01*
X58214285Y-41152438D02*
X58261904Y-41200057D01*
X58261904Y-41200057D02*
X58309523Y-41295295D01*
X58309523Y-41295295D02*
X58357142Y-41485771D01*
X58357142Y-41485771D02*
X58357142Y-41723866D01*
X58357142Y-41723866D02*
X58309523Y-41914342D01*
X58309523Y-41914342D02*
X58261904Y-42009580D01*
X58261904Y-42009580D02*
X58214285Y-42057200D01*
X58214285Y-42057200D02*
X58119047Y-42104819D01*
X58119047Y-42104819D02*
X58023809Y-42104819D01*
X58023809Y-42104819D02*
X57928571Y-42057200D01*
X57928571Y-42057200D02*
X57880952Y-42009580D01*
X57880952Y-42009580D02*
X57833333Y-41914342D01*
X57833333Y-41914342D02*
X57785714Y-41723866D01*
X57785714Y-41723866D02*
X57785714Y-41485771D01*
X57785714Y-41485771D02*
X57833333Y-41295295D01*
X57833333Y-41295295D02*
X57880952Y-41200057D01*
X57880952Y-41200057D02*
X57928571Y-41152438D01*
X57928571Y-41152438D02*
X58023809Y-41104819D01*
X58785714Y-42104819D02*
X58785714Y-41104819D01*
X58880952Y-41723866D02*
X59166666Y-42104819D01*
X59166666Y-41438152D02*
X58785714Y-41819104D01*
D11*
X57440476Y-40227149D02*
X57273810Y-39989054D01*
X57154762Y-40227149D02*
X57154762Y-39727149D01*
X57154762Y-39727149D02*
X57345238Y-39727149D01*
X57345238Y-39727149D02*
X57392857Y-39750959D01*
X57392857Y-39750959D02*
X57416667Y-39774768D01*
X57416667Y-39774768D02*
X57440476Y-39822387D01*
X57440476Y-39822387D02*
X57440476Y-39893816D01*
X57440476Y-39893816D02*
X57416667Y-39941435D01*
X57416667Y-39941435D02*
X57392857Y-39965244D01*
X57392857Y-39965244D02*
X57345238Y-39989054D01*
X57345238Y-39989054D02*
X57154762Y-39989054D01*
X57630953Y-39774768D02*
X57654762Y-39750959D01*
X57654762Y-39750959D02*
X57702381Y-39727149D01*
X57702381Y-39727149D02*
X57821429Y-39727149D01*
X57821429Y-39727149D02*
X57869048Y-39750959D01*
X57869048Y-39750959D02*
X57892857Y-39774768D01*
X57892857Y-39774768D02*
X57916667Y-39822387D01*
X57916667Y-39822387D02*
X57916667Y-39870006D01*
X57916667Y-39870006D02*
X57892857Y-39941435D01*
X57892857Y-39941435D02*
X57607143Y-40227149D01*
X57607143Y-40227149D02*
X57916667Y-40227149D01*
X58226190Y-39727149D02*
X58273809Y-39727149D01*
X58273809Y-39727149D02*
X58321428Y-39750959D01*
X58321428Y-39750959D02*
X58345238Y-39774768D01*
X58345238Y-39774768D02*
X58369047Y-39822387D01*
X58369047Y-39822387D02*
X58392857Y-39917625D01*
X58392857Y-39917625D02*
X58392857Y-40036673D01*
X58392857Y-40036673D02*
X58369047Y-40131911D01*
X58369047Y-40131911D02*
X58345238Y-40179530D01*
X58345238Y-40179530D02*
X58321428Y-40203340D01*
X58321428Y-40203340D02*
X58273809Y-40227149D01*
X58273809Y-40227149D02*
X58226190Y-40227149D01*
X58226190Y-40227149D02*
X58178571Y-40203340D01*
X58178571Y-40203340D02*
X58154762Y-40179530D01*
X58154762Y-40179530D02*
X58130952Y-40131911D01*
X58130952Y-40131911D02*
X58107143Y-40036673D01*
X58107143Y-40036673D02*
X58107143Y-39917625D01*
X58107143Y-39917625D02*
X58130952Y-39822387D01*
X58130952Y-39822387D02*
X58154762Y-39774768D01*
X58154762Y-39774768D02*
X58178571Y-39750959D01*
X58178571Y-39750959D02*
X58226190Y-39727149D01*
X58559523Y-39727149D02*
X58869047Y-39727149D01*
X58869047Y-39727149D02*
X58702380Y-39917625D01*
X58702380Y-39917625D02*
X58773809Y-39917625D01*
X58773809Y-39917625D02*
X58821428Y-39941435D01*
X58821428Y-39941435D02*
X58845237Y-39965244D01*
X58845237Y-39965244D02*
X58869047Y-40012863D01*
X58869047Y-40012863D02*
X58869047Y-40131911D01*
X58869047Y-40131911D02*
X58845237Y-40179530D01*
X58845237Y-40179530D02*
X58821428Y-40203340D01*
X58821428Y-40203340D02*
X58773809Y-40227149D01*
X58773809Y-40227149D02*
X58630952Y-40227149D01*
X58630952Y-40227149D02*
X58583333Y-40203340D01*
X58583333Y-40203340D02*
X58559523Y-40179530D01*
D10*
X40909524Y-47954819D02*
X40909524Y-46954819D01*
X40909524Y-46954819D02*
X41290476Y-46954819D01*
X41290476Y-46954819D02*
X41385714Y-47002438D01*
X41385714Y-47002438D02*
X41433333Y-47050057D01*
X41433333Y-47050057D02*
X41480952Y-47145295D01*
X41480952Y-47145295D02*
X41480952Y-47288152D01*
X41480952Y-47288152D02*
X41433333Y-47383390D01*
X41433333Y-47383390D02*
X41385714Y-47431009D01*
X41385714Y-47431009D02*
X41290476Y-47478628D01*
X41290476Y-47478628D02*
X40909524Y-47478628D01*
X41861905Y-47050057D02*
X41909524Y-47002438D01*
X41909524Y-47002438D02*
X42004762Y-46954819D01*
X42004762Y-46954819D02*
X42242857Y-46954819D01*
X42242857Y-46954819D02*
X42338095Y-47002438D01*
X42338095Y-47002438D02*
X42385714Y-47050057D01*
X42385714Y-47050057D02*
X42433333Y-47145295D01*
X42433333Y-47145295D02*
X42433333Y-47240533D01*
X42433333Y-47240533D02*
X42385714Y-47383390D01*
X42385714Y-47383390D02*
X41814286Y-47954819D01*
X41814286Y-47954819D02*
X42433333Y-47954819D01*
X43052381Y-46954819D02*
X43147619Y-46954819D01*
X43147619Y-46954819D02*
X43242857Y-47002438D01*
X43242857Y-47002438D02*
X43290476Y-47050057D01*
X43290476Y-47050057D02*
X43338095Y-47145295D01*
X43338095Y-47145295D02*
X43385714Y-47335771D01*
X43385714Y-47335771D02*
X43385714Y-47573866D01*
X43385714Y-47573866D02*
X43338095Y-47764342D01*
X43338095Y-47764342D02*
X43290476Y-47859580D01*
X43290476Y-47859580D02*
X43242857Y-47907200D01*
X43242857Y-47907200D02*
X43147619Y-47954819D01*
X43147619Y-47954819D02*
X43052381Y-47954819D01*
X43052381Y-47954819D02*
X42957143Y-47907200D01*
X42957143Y-47907200D02*
X42909524Y-47859580D01*
X42909524Y-47859580D02*
X42861905Y-47764342D01*
X42861905Y-47764342D02*
X42814286Y-47573866D01*
X42814286Y-47573866D02*
X42814286Y-47335771D01*
X42814286Y-47335771D02*
X42861905Y-47145295D01*
X42861905Y-47145295D02*
X42909524Y-47050057D01*
X42909524Y-47050057D02*
X42957143Y-47002438D01*
X42957143Y-47002438D02*
X43052381Y-46954819D01*
X44338095Y-47954819D02*
X43766667Y-47954819D01*
X44052381Y-47954819D02*
X44052381Y-46954819D01*
X44052381Y-46954819D02*
X43957143Y-47097676D01*
X43957143Y-47097676D02*
X43861905Y-47192914D01*
X43861905Y-47192914D02*
X43766667Y-47240533D01*
X39009524Y-47954819D02*
X39009524Y-46954819D01*
X39009524Y-46954819D02*
X39390476Y-46954819D01*
X39390476Y-46954819D02*
X39485714Y-47002438D01*
X39485714Y-47002438D02*
X39533333Y-47050057D01*
X39533333Y-47050057D02*
X39580952Y-47145295D01*
X39580952Y-47145295D02*
X39580952Y-47288152D01*
X39580952Y-47288152D02*
X39533333Y-47383390D01*
X39533333Y-47383390D02*
X39485714Y-47431009D01*
X39485714Y-47431009D02*
X39390476Y-47478628D01*
X39390476Y-47478628D02*
X39009524Y-47478628D01*
X39961905Y-47050057D02*
X40009524Y-47002438D01*
X40009524Y-47002438D02*
X40104762Y-46954819D01*
X40104762Y-46954819D02*
X40342857Y-46954819D01*
X40342857Y-46954819D02*
X40438095Y-47002438D01*
X40438095Y-47002438D02*
X40485714Y-47050057D01*
X40485714Y-47050057D02*
X40533333Y-47145295D01*
X40533333Y-47145295D02*
X40533333Y-47240533D01*
X40533333Y-47240533D02*
X40485714Y-47383390D01*
X40485714Y-47383390D02*
X39914286Y-47954819D01*
X39914286Y-47954819D02*
X40533333Y-47954819D01*
X41152381Y-46954819D02*
X41247619Y-46954819D01*
X41247619Y-46954819D02*
X41342857Y-47002438D01*
X41342857Y-47002438D02*
X41390476Y-47050057D01*
X41390476Y-47050057D02*
X41438095Y-47145295D01*
X41438095Y-47145295D02*
X41485714Y-47335771D01*
X41485714Y-47335771D02*
X41485714Y-47573866D01*
X41485714Y-47573866D02*
X41438095Y-47764342D01*
X41438095Y-47764342D02*
X41390476Y-47859580D01*
X41390476Y-47859580D02*
X41342857Y-47907200D01*
X41342857Y-47907200D02*
X41247619Y-47954819D01*
X41247619Y-47954819D02*
X41152381Y-47954819D01*
X41152381Y-47954819D02*
X41057143Y-47907200D01*
X41057143Y-47907200D02*
X41009524Y-47859580D01*
X41009524Y-47859580D02*
X40961905Y-47764342D01*
X40961905Y-47764342D02*
X40914286Y-47573866D01*
X40914286Y-47573866D02*
X40914286Y-47335771D01*
X40914286Y-47335771D02*
X40961905Y-47145295D01*
X40961905Y-47145295D02*
X41009524Y-47050057D01*
X41009524Y-47050057D02*
X41057143Y-47002438D01*
X41057143Y-47002438D02*
X41152381Y-46954819D01*
X42438095Y-47954819D02*
X41866667Y-47954819D01*
X42152381Y-47954819D02*
X42152381Y-46954819D01*
X42152381Y-46954819D02*
X42057143Y-47097676D01*
X42057143Y-47097676D02*
X41961905Y-47192914D01*
X41961905Y-47192914D02*
X41866667Y-47240533D01*
X101285714Y-66554819D02*
X100714286Y-66554819D01*
X101000000Y-66554819D02*
X101000000Y-65554819D01*
X101000000Y-65554819D02*
X100904762Y-65697676D01*
X100904762Y-65697676D02*
X100809524Y-65792914D01*
X100809524Y-65792914D02*
X100714286Y-65840533D01*
X101714286Y-66554819D02*
X101714286Y-65554819D01*
X101714286Y-65554819D02*
X102285714Y-66554819D01*
X102285714Y-66554819D02*
X102285714Y-65554819D01*
X103190476Y-65888152D02*
X103190476Y-66554819D01*
X102952381Y-65507200D02*
X102714286Y-66221485D01*
X102714286Y-66221485D02*
X103333333Y-66221485D01*
X104238095Y-66554819D02*
X103666667Y-66554819D01*
X103952381Y-66554819D02*
X103952381Y-65554819D01*
X103952381Y-65554819D02*
X103857143Y-65697676D01*
X103857143Y-65697676D02*
X103761905Y-65792914D01*
X103761905Y-65792914D02*
X103666667Y-65840533D01*
X105095238Y-65888152D02*
X105095238Y-66554819D01*
X104857143Y-65507200D02*
X104619048Y-66221485D01*
X104619048Y-66221485D02*
X105238095Y-66221485D01*
X105761905Y-65983390D02*
X105666667Y-65935771D01*
X105666667Y-65935771D02*
X105619048Y-65888152D01*
X105619048Y-65888152D02*
X105571429Y-65792914D01*
X105571429Y-65792914D02*
X105571429Y-65745295D01*
X105571429Y-65745295D02*
X105619048Y-65650057D01*
X105619048Y-65650057D02*
X105666667Y-65602438D01*
X105666667Y-65602438D02*
X105761905Y-65554819D01*
X105761905Y-65554819D02*
X105952381Y-65554819D01*
X105952381Y-65554819D02*
X106047619Y-65602438D01*
X106047619Y-65602438D02*
X106095238Y-65650057D01*
X106095238Y-65650057D02*
X106142857Y-65745295D01*
X106142857Y-65745295D02*
X106142857Y-65792914D01*
X106142857Y-65792914D02*
X106095238Y-65888152D01*
X106095238Y-65888152D02*
X106047619Y-65935771D01*
X106047619Y-65935771D02*
X105952381Y-65983390D01*
X105952381Y-65983390D02*
X105761905Y-65983390D01*
X105761905Y-65983390D02*
X105666667Y-66031009D01*
X105666667Y-66031009D02*
X105619048Y-66078628D01*
X105619048Y-66078628D02*
X105571429Y-66173866D01*
X105571429Y-66173866D02*
X105571429Y-66364342D01*
X105571429Y-66364342D02*
X105619048Y-66459580D01*
X105619048Y-66459580D02*
X105666667Y-66507200D01*
X105666667Y-66507200D02*
X105761905Y-66554819D01*
X105761905Y-66554819D02*
X105952381Y-66554819D01*
X105952381Y-66554819D02*
X106047619Y-66507200D01*
X106047619Y-66507200D02*
X106095238Y-66459580D01*
X106095238Y-66459580D02*
X106142857Y-66364342D01*
X106142857Y-66364342D02*
X106142857Y-66173866D01*
X106142857Y-66173866D02*
X106095238Y-66078628D01*
X106095238Y-66078628D02*
X106047619Y-66031009D01*
X106047619Y-66031009D02*
X105952381Y-65983390D01*
X106476191Y-65554819D02*
X106714286Y-66554819D01*
X106714286Y-66554819D02*
X106904762Y-65840533D01*
X106904762Y-65840533D02*
X107095238Y-66554819D01*
X107095238Y-66554819D02*
X107333334Y-65554819D01*
X102309524Y-62454819D02*
X102309524Y-61454819D01*
X102309524Y-61454819D02*
X102547619Y-61454819D01*
X102547619Y-61454819D02*
X102690476Y-61502438D01*
X102690476Y-61502438D02*
X102785714Y-61597676D01*
X102785714Y-61597676D02*
X102833333Y-61692914D01*
X102833333Y-61692914D02*
X102880952Y-61883390D01*
X102880952Y-61883390D02*
X102880952Y-62026247D01*
X102880952Y-62026247D02*
X102833333Y-62216723D01*
X102833333Y-62216723D02*
X102785714Y-62311961D01*
X102785714Y-62311961D02*
X102690476Y-62407200D01*
X102690476Y-62407200D02*
X102547619Y-62454819D01*
X102547619Y-62454819D02*
X102309524Y-62454819D01*
X103261905Y-61550057D02*
X103309524Y-61502438D01*
X103309524Y-61502438D02*
X103404762Y-61454819D01*
X103404762Y-61454819D02*
X103642857Y-61454819D01*
X103642857Y-61454819D02*
X103738095Y-61502438D01*
X103738095Y-61502438D02*
X103785714Y-61550057D01*
X103785714Y-61550057D02*
X103833333Y-61645295D01*
X103833333Y-61645295D02*
X103833333Y-61740533D01*
X103833333Y-61740533D02*
X103785714Y-61883390D01*
X103785714Y-61883390D02*
X103214286Y-62454819D01*
X103214286Y-62454819D02*
X103833333Y-62454819D01*
X104690476Y-61454819D02*
X104500000Y-61454819D01*
X104500000Y-61454819D02*
X104404762Y-61502438D01*
X104404762Y-61502438D02*
X104357143Y-61550057D01*
X104357143Y-61550057D02*
X104261905Y-61692914D01*
X104261905Y-61692914D02*
X104214286Y-61883390D01*
X104214286Y-61883390D02*
X104214286Y-62264342D01*
X104214286Y-62264342D02*
X104261905Y-62359580D01*
X104261905Y-62359580D02*
X104309524Y-62407200D01*
X104309524Y-62407200D02*
X104404762Y-62454819D01*
X104404762Y-62454819D02*
X104595238Y-62454819D01*
X104595238Y-62454819D02*
X104690476Y-62407200D01*
X104690476Y-62407200D02*
X104738095Y-62359580D01*
X104738095Y-62359580D02*
X104785714Y-62264342D01*
X104785714Y-62264342D02*
X104785714Y-62026247D01*
X104785714Y-62026247D02*
X104738095Y-61931009D01*
X104738095Y-61931009D02*
X104690476Y-61883390D01*
X104690476Y-61883390D02*
X104595238Y-61835771D01*
X104595238Y-61835771D02*
X104404762Y-61835771D01*
X104404762Y-61835771D02*
X104309524Y-61883390D01*
X104309524Y-61883390D02*
X104261905Y-61931009D01*
X104261905Y-61931009D02*
X104214286Y-62026247D01*
X105738095Y-62454819D02*
X105166667Y-62454819D01*
X105452381Y-62454819D02*
X105452381Y-61454819D01*
X105452381Y-61454819D02*
X105357143Y-61597676D01*
X105357143Y-61597676D02*
X105261905Y-61692914D01*
X105261905Y-61692914D02*
X105166667Y-61740533D01*
X132904761Y-57692438D02*
X132809523Y-57644819D01*
X132809523Y-57644819D02*
X132666666Y-57644819D01*
X132666666Y-57644819D02*
X132523809Y-57692438D01*
X132523809Y-57692438D02*
X132428571Y-57787676D01*
X132428571Y-57787676D02*
X132380952Y-57882914D01*
X132380952Y-57882914D02*
X132333333Y-58073390D01*
X132333333Y-58073390D02*
X132333333Y-58216247D01*
X132333333Y-58216247D02*
X132380952Y-58406723D01*
X132380952Y-58406723D02*
X132428571Y-58501961D01*
X132428571Y-58501961D02*
X132523809Y-58597200D01*
X132523809Y-58597200D02*
X132666666Y-58644819D01*
X132666666Y-58644819D02*
X132761904Y-58644819D01*
X132761904Y-58644819D02*
X132904761Y-58597200D01*
X132904761Y-58597200D02*
X132952380Y-58549580D01*
X132952380Y-58549580D02*
X132952380Y-58216247D01*
X132952380Y-58216247D02*
X132761904Y-58216247D01*
X133857142Y-57644819D02*
X133380952Y-57644819D01*
X133380952Y-57644819D02*
X133333333Y-58121009D01*
X133333333Y-58121009D02*
X133380952Y-58073390D01*
X133380952Y-58073390D02*
X133476190Y-58025771D01*
X133476190Y-58025771D02*
X133714285Y-58025771D01*
X133714285Y-58025771D02*
X133809523Y-58073390D01*
X133809523Y-58073390D02*
X133857142Y-58121009D01*
X133857142Y-58121009D02*
X133904761Y-58216247D01*
X133904761Y-58216247D02*
X133904761Y-58454342D01*
X133904761Y-58454342D02*
X133857142Y-58549580D01*
X133857142Y-58549580D02*
X133809523Y-58597200D01*
X133809523Y-58597200D02*
X133714285Y-58644819D01*
X133714285Y-58644819D02*
X133476190Y-58644819D01*
X133476190Y-58644819D02*
X133380952Y-58597200D01*
X133380952Y-58597200D02*
X133333333Y-58549580D01*
X134190476Y-57644819D02*
X134523809Y-58644819D01*
X134523809Y-58644819D02*
X134857142Y-57644819D01*
X135190476Y-58263866D02*
X135952381Y-58263866D01*
X136380952Y-57740057D02*
X136428571Y-57692438D01*
X136428571Y-57692438D02*
X136523809Y-57644819D01*
X136523809Y-57644819D02*
X136761904Y-57644819D01*
X136761904Y-57644819D02*
X136857142Y-57692438D01*
X136857142Y-57692438D02*
X136904761Y-57740057D01*
X136904761Y-57740057D02*
X136952380Y-57835295D01*
X136952380Y-57835295D02*
X136952380Y-57930533D01*
X136952380Y-57930533D02*
X136904761Y-58073390D01*
X136904761Y-58073390D02*
X136333333Y-58644819D01*
X136333333Y-58644819D02*
X136952380Y-58644819D01*
X138142857Y-58644819D02*
X138142857Y-57644819D01*
X138142857Y-57644819D02*
X138380952Y-57644819D01*
X138380952Y-57644819D02*
X138523809Y-57692438D01*
X138523809Y-57692438D02*
X138619047Y-57787676D01*
X138619047Y-57787676D02*
X138666666Y-57882914D01*
X138666666Y-57882914D02*
X138714285Y-58073390D01*
X138714285Y-58073390D02*
X138714285Y-58216247D01*
X138714285Y-58216247D02*
X138666666Y-58406723D01*
X138666666Y-58406723D02*
X138619047Y-58501961D01*
X138619047Y-58501961D02*
X138523809Y-58597200D01*
X138523809Y-58597200D02*
X138380952Y-58644819D01*
X138380952Y-58644819D02*
X138142857Y-58644819D01*
X139714285Y-58549580D02*
X139666666Y-58597200D01*
X139666666Y-58597200D02*
X139523809Y-58644819D01*
X139523809Y-58644819D02*
X139428571Y-58644819D01*
X139428571Y-58644819D02*
X139285714Y-58597200D01*
X139285714Y-58597200D02*
X139190476Y-58501961D01*
X139190476Y-58501961D02*
X139142857Y-58406723D01*
X139142857Y-58406723D02*
X139095238Y-58216247D01*
X139095238Y-58216247D02*
X139095238Y-58073390D01*
X139095238Y-58073390D02*
X139142857Y-57882914D01*
X139142857Y-57882914D02*
X139190476Y-57787676D01*
X139190476Y-57787676D02*
X139285714Y-57692438D01*
X139285714Y-57692438D02*
X139428571Y-57644819D01*
X139428571Y-57644819D02*
X139523809Y-57644819D01*
X139523809Y-57644819D02*
X139666666Y-57692438D01*
X139666666Y-57692438D02*
X139714285Y-57740057D01*
X140619047Y-57644819D02*
X140142857Y-57644819D01*
X140142857Y-57644819D02*
X140095238Y-58121009D01*
X140095238Y-58121009D02*
X140142857Y-58073390D01*
X140142857Y-58073390D02*
X140238095Y-58025771D01*
X140238095Y-58025771D02*
X140476190Y-58025771D01*
X140476190Y-58025771D02*
X140571428Y-58073390D01*
X140571428Y-58073390D02*
X140619047Y-58121009D01*
X140619047Y-58121009D02*
X140666666Y-58216247D01*
X140666666Y-58216247D02*
X140666666Y-58454342D01*
X140666666Y-58454342D02*
X140619047Y-58549580D01*
X140619047Y-58549580D02*
X140571428Y-58597200D01*
X140571428Y-58597200D02*
X140476190Y-58644819D01*
X140476190Y-58644819D02*
X140238095Y-58644819D01*
X140238095Y-58644819D02*
X140142857Y-58597200D01*
X140142857Y-58597200D02*
X140095238Y-58549580D01*
X123469524Y-58514819D02*
X123469524Y-57514819D01*
X124040952Y-58514819D02*
X123612381Y-57943390D01*
X124040952Y-57514819D02*
X123469524Y-58086247D01*
X124421905Y-57610057D02*
X124469524Y-57562438D01*
X124469524Y-57562438D02*
X124564762Y-57514819D01*
X124564762Y-57514819D02*
X124802857Y-57514819D01*
X124802857Y-57514819D02*
X124898095Y-57562438D01*
X124898095Y-57562438D02*
X124945714Y-57610057D01*
X124945714Y-57610057D02*
X124993333Y-57705295D01*
X124993333Y-57705295D02*
X124993333Y-57800533D01*
X124993333Y-57800533D02*
X124945714Y-57943390D01*
X124945714Y-57943390D02*
X124374286Y-58514819D01*
X124374286Y-58514819D02*
X124993333Y-58514819D01*
X125612381Y-57514819D02*
X125707619Y-57514819D01*
X125707619Y-57514819D02*
X125802857Y-57562438D01*
X125802857Y-57562438D02*
X125850476Y-57610057D01*
X125850476Y-57610057D02*
X125898095Y-57705295D01*
X125898095Y-57705295D02*
X125945714Y-57895771D01*
X125945714Y-57895771D02*
X125945714Y-58133866D01*
X125945714Y-58133866D02*
X125898095Y-58324342D01*
X125898095Y-58324342D02*
X125850476Y-58419580D01*
X125850476Y-58419580D02*
X125802857Y-58467200D01*
X125802857Y-58467200D02*
X125707619Y-58514819D01*
X125707619Y-58514819D02*
X125612381Y-58514819D01*
X125612381Y-58514819D02*
X125517143Y-58467200D01*
X125517143Y-58467200D02*
X125469524Y-58419580D01*
X125469524Y-58419580D02*
X125421905Y-58324342D01*
X125421905Y-58324342D02*
X125374286Y-58133866D01*
X125374286Y-58133866D02*
X125374286Y-57895771D01*
X125374286Y-57895771D02*
X125421905Y-57705295D01*
X125421905Y-57705295D02*
X125469524Y-57610057D01*
X125469524Y-57610057D02*
X125517143Y-57562438D01*
X125517143Y-57562438D02*
X125612381Y-57514819D01*
X126279048Y-57514819D02*
X126898095Y-57514819D01*
X126898095Y-57514819D02*
X126564762Y-57895771D01*
X126564762Y-57895771D02*
X126707619Y-57895771D01*
X126707619Y-57895771D02*
X126802857Y-57943390D01*
X126802857Y-57943390D02*
X126850476Y-57991009D01*
X126850476Y-57991009D02*
X126898095Y-58086247D01*
X126898095Y-58086247D02*
X126898095Y-58324342D01*
X126898095Y-58324342D02*
X126850476Y-58419580D01*
X126850476Y-58419580D02*
X126802857Y-58467200D01*
X126802857Y-58467200D02*
X126707619Y-58514819D01*
X126707619Y-58514819D02*
X126421905Y-58514819D01*
X126421905Y-58514819D02*
X126326667Y-58467200D01*
X126326667Y-58467200D02*
X126279048Y-58419580D01*
X48880952Y-70134819D02*
X48309524Y-70134819D01*
X48595238Y-70134819D02*
X48595238Y-69134819D01*
X48595238Y-69134819D02*
X48500000Y-69277676D01*
X48500000Y-69277676D02*
X48404762Y-69372914D01*
X48404762Y-69372914D02*
X48309524Y-69420533D01*
X49500000Y-69134819D02*
X49595238Y-69134819D01*
X49595238Y-69134819D02*
X49690476Y-69182438D01*
X49690476Y-69182438D02*
X49738095Y-69230057D01*
X49738095Y-69230057D02*
X49785714Y-69325295D01*
X49785714Y-69325295D02*
X49833333Y-69515771D01*
X49833333Y-69515771D02*
X49833333Y-69753866D01*
X49833333Y-69753866D02*
X49785714Y-69944342D01*
X49785714Y-69944342D02*
X49738095Y-70039580D01*
X49738095Y-70039580D02*
X49690476Y-70087200D01*
X49690476Y-70087200D02*
X49595238Y-70134819D01*
X49595238Y-70134819D02*
X49500000Y-70134819D01*
X49500000Y-70134819D02*
X49404762Y-70087200D01*
X49404762Y-70087200D02*
X49357143Y-70039580D01*
X49357143Y-70039580D02*
X49309524Y-69944342D01*
X49309524Y-69944342D02*
X49261905Y-69753866D01*
X49261905Y-69753866D02*
X49261905Y-69515771D01*
X49261905Y-69515771D02*
X49309524Y-69325295D01*
X49309524Y-69325295D02*
X49357143Y-69230057D01*
X49357143Y-69230057D02*
X49404762Y-69182438D01*
X49404762Y-69182438D02*
X49500000Y-69134819D01*
X50452381Y-69134819D02*
X50547619Y-69134819D01*
X50547619Y-69134819D02*
X50642857Y-69182438D01*
X50642857Y-69182438D02*
X50690476Y-69230057D01*
X50690476Y-69230057D02*
X50738095Y-69325295D01*
X50738095Y-69325295D02*
X50785714Y-69515771D01*
X50785714Y-69515771D02*
X50785714Y-69753866D01*
X50785714Y-69753866D02*
X50738095Y-69944342D01*
X50738095Y-69944342D02*
X50690476Y-70039580D01*
X50690476Y-70039580D02*
X50642857Y-70087200D01*
X50642857Y-70087200D02*
X50547619Y-70134819D01*
X50547619Y-70134819D02*
X50452381Y-70134819D01*
X50452381Y-70134819D02*
X50357143Y-70087200D01*
X50357143Y-70087200D02*
X50309524Y-70039580D01*
X50309524Y-70039580D02*
X50261905Y-69944342D01*
X50261905Y-69944342D02*
X50214286Y-69753866D01*
X50214286Y-69753866D02*
X50214286Y-69515771D01*
X50214286Y-69515771D02*
X50261905Y-69325295D01*
X50261905Y-69325295D02*
X50309524Y-69230057D01*
X50309524Y-69230057D02*
X50357143Y-69182438D01*
X50357143Y-69182438D02*
X50452381Y-69134819D01*
X51214286Y-69468152D02*
X51214286Y-70134819D01*
X51214286Y-69563390D02*
X51261905Y-69515771D01*
X51261905Y-69515771D02*
X51357143Y-69468152D01*
X51357143Y-69468152D02*
X51500000Y-69468152D01*
X51500000Y-69468152D02*
X51595238Y-69515771D01*
X51595238Y-69515771D02*
X51642857Y-69611009D01*
X51642857Y-69611009D02*
X51642857Y-70134819D01*
D11*
X49440476Y-68179530D02*
X49416667Y-68203340D01*
X49416667Y-68203340D02*
X49345238Y-68227149D01*
X49345238Y-68227149D02*
X49297619Y-68227149D01*
X49297619Y-68227149D02*
X49226191Y-68203340D01*
X49226191Y-68203340D02*
X49178572Y-68155720D01*
X49178572Y-68155720D02*
X49154762Y-68108101D01*
X49154762Y-68108101D02*
X49130953Y-68012863D01*
X49130953Y-68012863D02*
X49130953Y-67941435D01*
X49130953Y-67941435D02*
X49154762Y-67846197D01*
X49154762Y-67846197D02*
X49178572Y-67798578D01*
X49178572Y-67798578D02*
X49226191Y-67750959D01*
X49226191Y-67750959D02*
X49297619Y-67727149D01*
X49297619Y-67727149D02*
X49345238Y-67727149D01*
X49345238Y-67727149D02*
X49416667Y-67750959D01*
X49416667Y-67750959D02*
X49440476Y-67774768D01*
X49630953Y-67774768D02*
X49654762Y-67750959D01*
X49654762Y-67750959D02*
X49702381Y-67727149D01*
X49702381Y-67727149D02*
X49821429Y-67727149D01*
X49821429Y-67727149D02*
X49869048Y-67750959D01*
X49869048Y-67750959D02*
X49892857Y-67774768D01*
X49892857Y-67774768D02*
X49916667Y-67822387D01*
X49916667Y-67822387D02*
X49916667Y-67870006D01*
X49916667Y-67870006D02*
X49892857Y-67941435D01*
X49892857Y-67941435D02*
X49607143Y-68227149D01*
X49607143Y-68227149D02*
X49916667Y-68227149D01*
X50154762Y-68227149D02*
X50250000Y-68227149D01*
X50250000Y-68227149D02*
X50297619Y-68203340D01*
X50297619Y-68203340D02*
X50321428Y-68179530D01*
X50321428Y-68179530D02*
X50369047Y-68108101D01*
X50369047Y-68108101D02*
X50392857Y-68012863D01*
X50392857Y-68012863D02*
X50392857Y-67822387D01*
X50392857Y-67822387D02*
X50369047Y-67774768D01*
X50369047Y-67774768D02*
X50345238Y-67750959D01*
X50345238Y-67750959D02*
X50297619Y-67727149D01*
X50297619Y-67727149D02*
X50202381Y-67727149D01*
X50202381Y-67727149D02*
X50154762Y-67750959D01*
X50154762Y-67750959D02*
X50130952Y-67774768D01*
X50130952Y-67774768D02*
X50107143Y-67822387D01*
X50107143Y-67822387D02*
X50107143Y-67941435D01*
X50107143Y-67941435D02*
X50130952Y-67989054D01*
X50130952Y-67989054D02*
X50154762Y-68012863D01*
X50154762Y-68012863D02*
X50202381Y-68036673D01*
X50202381Y-68036673D02*
X50297619Y-68036673D01*
X50297619Y-68036673D02*
X50345238Y-68012863D01*
X50345238Y-68012863D02*
X50369047Y-67989054D01*
X50369047Y-67989054D02*
X50392857Y-67941435D01*
X50869047Y-68227149D02*
X50583333Y-68227149D01*
X50726190Y-68227149D02*
X50726190Y-67727149D01*
X50726190Y-67727149D02*
X50678571Y-67798578D01*
X50678571Y-67798578D02*
X50630952Y-67846197D01*
X50630952Y-67846197D02*
X50583333Y-67870006D01*
D10*
X92809524Y-107054819D02*
X92809524Y-106054819D01*
X92809524Y-106054819D02*
X93190476Y-106054819D01*
X93190476Y-106054819D02*
X93285714Y-106102438D01*
X93285714Y-106102438D02*
X93333333Y-106150057D01*
X93333333Y-106150057D02*
X93380952Y-106245295D01*
X93380952Y-106245295D02*
X93380952Y-106388152D01*
X93380952Y-106388152D02*
X93333333Y-106483390D01*
X93333333Y-106483390D02*
X93285714Y-106531009D01*
X93285714Y-106531009D02*
X93190476Y-106578628D01*
X93190476Y-106578628D02*
X92809524Y-106578628D01*
X93761905Y-106150057D02*
X93809524Y-106102438D01*
X93809524Y-106102438D02*
X93904762Y-106054819D01*
X93904762Y-106054819D02*
X94142857Y-106054819D01*
X94142857Y-106054819D02*
X94238095Y-106102438D01*
X94238095Y-106102438D02*
X94285714Y-106150057D01*
X94285714Y-106150057D02*
X94333333Y-106245295D01*
X94333333Y-106245295D02*
X94333333Y-106340533D01*
X94333333Y-106340533D02*
X94285714Y-106483390D01*
X94285714Y-106483390D02*
X93714286Y-107054819D01*
X93714286Y-107054819D02*
X94333333Y-107054819D01*
X94952381Y-106054819D02*
X95047619Y-106054819D01*
X95047619Y-106054819D02*
X95142857Y-106102438D01*
X95142857Y-106102438D02*
X95190476Y-106150057D01*
X95190476Y-106150057D02*
X95238095Y-106245295D01*
X95238095Y-106245295D02*
X95285714Y-106435771D01*
X95285714Y-106435771D02*
X95285714Y-106673866D01*
X95285714Y-106673866D02*
X95238095Y-106864342D01*
X95238095Y-106864342D02*
X95190476Y-106959580D01*
X95190476Y-106959580D02*
X95142857Y-107007200D01*
X95142857Y-107007200D02*
X95047619Y-107054819D01*
X95047619Y-107054819D02*
X94952381Y-107054819D01*
X94952381Y-107054819D02*
X94857143Y-107007200D01*
X94857143Y-107007200D02*
X94809524Y-106959580D01*
X94809524Y-106959580D02*
X94761905Y-106864342D01*
X94761905Y-106864342D02*
X94714286Y-106673866D01*
X94714286Y-106673866D02*
X94714286Y-106435771D01*
X94714286Y-106435771D02*
X94761905Y-106245295D01*
X94761905Y-106245295D02*
X94809524Y-106150057D01*
X94809524Y-106150057D02*
X94857143Y-106102438D01*
X94857143Y-106102438D02*
X94952381Y-106054819D01*
X96142857Y-106388152D02*
X96142857Y-107054819D01*
X95904762Y-106007200D02*
X95666667Y-106721485D01*
X95666667Y-106721485D02*
X96285714Y-106721485D01*
X92809524Y-105154819D02*
X92809524Y-104154819D01*
X92809524Y-104154819D02*
X93190476Y-104154819D01*
X93190476Y-104154819D02*
X93285714Y-104202438D01*
X93285714Y-104202438D02*
X93333333Y-104250057D01*
X93333333Y-104250057D02*
X93380952Y-104345295D01*
X93380952Y-104345295D02*
X93380952Y-104488152D01*
X93380952Y-104488152D02*
X93333333Y-104583390D01*
X93333333Y-104583390D02*
X93285714Y-104631009D01*
X93285714Y-104631009D02*
X93190476Y-104678628D01*
X93190476Y-104678628D02*
X92809524Y-104678628D01*
X93761905Y-104250057D02*
X93809524Y-104202438D01*
X93809524Y-104202438D02*
X93904762Y-104154819D01*
X93904762Y-104154819D02*
X94142857Y-104154819D01*
X94142857Y-104154819D02*
X94238095Y-104202438D01*
X94238095Y-104202438D02*
X94285714Y-104250057D01*
X94285714Y-104250057D02*
X94333333Y-104345295D01*
X94333333Y-104345295D02*
X94333333Y-104440533D01*
X94333333Y-104440533D02*
X94285714Y-104583390D01*
X94285714Y-104583390D02*
X93714286Y-105154819D01*
X93714286Y-105154819D02*
X94333333Y-105154819D01*
X94952381Y-104154819D02*
X95047619Y-104154819D01*
X95047619Y-104154819D02*
X95142857Y-104202438D01*
X95142857Y-104202438D02*
X95190476Y-104250057D01*
X95190476Y-104250057D02*
X95238095Y-104345295D01*
X95238095Y-104345295D02*
X95285714Y-104535771D01*
X95285714Y-104535771D02*
X95285714Y-104773866D01*
X95285714Y-104773866D02*
X95238095Y-104964342D01*
X95238095Y-104964342D02*
X95190476Y-105059580D01*
X95190476Y-105059580D02*
X95142857Y-105107200D01*
X95142857Y-105107200D02*
X95047619Y-105154819D01*
X95047619Y-105154819D02*
X94952381Y-105154819D01*
X94952381Y-105154819D02*
X94857143Y-105107200D01*
X94857143Y-105107200D02*
X94809524Y-105059580D01*
X94809524Y-105059580D02*
X94761905Y-104964342D01*
X94761905Y-104964342D02*
X94714286Y-104773866D01*
X94714286Y-104773866D02*
X94714286Y-104535771D01*
X94714286Y-104535771D02*
X94761905Y-104345295D01*
X94761905Y-104345295D02*
X94809524Y-104250057D01*
X94809524Y-104250057D02*
X94857143Y-104202438D01*
X94857143Y-104202438D02*
X94952381Y-104154819D01*
X96142857Y-104488152D02*
X96142857Y-105154819D01*
X95904762Y-104107200D02*
X95666667Y-104821485D01*
X95666667Y-104821485D02*
X96285714Y-104821485D01*
X90833333Y-71200057D02*
X90880952Y-71152438D01*
X90880952Y-71152438D02*
X90976190Y-71104819D01*
X90976190Y-71104819D02*
X91214285Y-71104819D01*
X91214285Y-71104819D02*
X91309523Y-71152438D01*
X91309523Y-71152438D02*
X91357142Y-71200057D01*
X91357142Y-71200057D02*
X91404761Y-71295295D01*
X91404761Y-71295295D02*
X91404761Y-71390533D01*
X91404761Y-71390533D02*
X91357142Y-71533390D01*
X91357142Y-71533390D02*
X90785714Y-72104819D01*
X90785714Y-72104819D02*
X91404761Y-72104819D01*
X92023809Y-71104819D02*
X92119047Y-71104819D01*
X92119047Y-71104819D02*
X92214285Y-71152438D01*
X92214285Y-71152438D02*
X92261904Y-71200057D01*
X92261904Y-71200057D02*
X92309523Y-71295295D01*
X92309523Y-71295295D02*
X92357142Y-71485771D01*
X92357142Y-71485771D02*
X92357142Y-71723866D01*
X92357142Y-71723866D02*
X92309523Y-71914342D01*
X92309523Y-71914342D02*
X92261904Y-72009580D01*
X92261904Y-72009580D02*
X92214285Y-72057200D01*
X92214285Y-72057200D02*
X92119047Y-72104819D01*
X92119047Y-72104819D02*
X92023809Y-72104819D01*
X92023809Y-72104819D02*
X91928571Y-72057200D01*
X91928571Y-72057200D02*
X91880952Y-72009580D01*
X91880952Y-72009580D02*
X91833333Y-71914342D01*
X91833333Y-71914342D02*
X91785714Y-71723866D01*
X91785714Y-71723866D02*
X91785714Y-71485771D01*
X91785714Y-71485771D02*
X91833333Y-71295295D01*
X91833333Y-71295295D02*
X91880952Y-71200057D01*
X91880952Y-71200057D02*
X91928571Y-71152438D01*
X91928571Y-71152438D02*
X92023809Y-71104819D01*
X92785714Y-72104819D02*
X92785714Y-71104819D01*
X92880952Y-71723866D02*
X93166666Y-72104819D01*
X93166666Y-71438152D02*
X92785714Y-71819104D01*
D11*
X91440476Y-70227149D02*
X91273810Y-69989054D01*
X91154762Y-70227149D02*
X91154762Y-69727149D01*
X91154762Y-69727149D02*
X91345238Y-69727149D01*
X91345238Y-69727149D02*
X91392857Y-69750959D01*
X91392857Y-69750959D02*
X91416667Y-69774768D01*
X91416667Y-69774768D02*
X91440476Y-69822387D01*
X91440476Y-69822387D02*
X91440476Y-69893816D01*
X91440476Y-69893816D02*
X91416667Y-69941435D01*
X91416667Y-69941435D02*
X91392857Y-69965244D01*
X91392857Y-69965244D02*
X91345238Y-69989054D01*
X91345238Y-69989054D02*
X91154762Y-69989054D01*
X91630953Y-69774768D02*
X91654762Y-69750959D01*
X91654762Y-69750959D02*
X91702381Y-69727149D01*
X91702381Y-69727149D02*
X91821429Y-69727149D01*
X91821429Y-69727149D02*
X91869048Y-69750959D01*
X91869048Y-69750959D02*
X91892857Y-69774768D01*
X91892857Y-69774768D02*
X91916667Y-69822387D01*
X91916667Y-69822387D02*
X91916667Y-69870006D01*
X91916667Y-69870006D02*
X91892857Y-69941435D01*
X91892857Y-69941435D02*
X91607143Y-70227149D01*
X91607143Y-70227149D02*
X91916667Y-70227149D01*
X92369047Y-69727149D02*
X92130952Y-69727149D01*
X92130952Y-69727149D02*
X92107143Y-69965244D01*
X92107143Y-69965244D02*
X92130952Y-69941435D01*
X92130952Y-69941435D02*
X92178571Y-69917625D01*
X92178571Y-69917625D02*
X92297619Y-69917625D01*
X92297619Y-69917625D02*
X92345238Y-69941435D01*
X92345238Y-69941435D02*
X92369047Y-69965244D01*
X92369047Y-69965244D02*
X92392857Y-70012863D01*
X92392857Y-70012863D02*
X92392857Y-70131911D01*
X92392857Y-70131911D02*
X92369047Y-70179530D01*
X92369047Y-70179530D02*
X92345238Y-70203340D01*
X92345238Y-70203340D02*
X92297619Y-70227149D01*
X92297619Y-70227149D02*
X92178571Y-70227149D01*
X92178571Y-70227149D02*
X92130952Y-70203340D01*
X92130952Y-70203340D02*
X92107143Y-70179530D01*
X92869047Y-70227149D02*
X92583333Y-70227149D01*
X92726190Y-70227149D02*
X92726190Y-69727149D01*
X92726190Y-69727149D02*
X92678571Y-69798578D01*
X92678571Y-69798578D02*
X92630952Y-69846197D01*
X92630952Y-69846197D02*
X92583333Y-69870006D01*
D10*
X55880952Y-70134819D02*
X55309524Y-70134819D01*
X55595238Y-70134819D02*
X55595238Y-69134819D01*
X55595238Y-69134819D02*
X55500000Y-69277676D01*
X55500000Y-69277676D02*
X55404762Y-69372914D01*
X55404762Y-69372914D02*
X55309524Y-69420533D01*
X56500000Y-69134819D02*
X56595238Y-69134819D01*
X56595238Y-69134819D02*
X56690476Y-69182438D01*
X56690476Y-69182438D02*
X56738095Y-69230057D01*
X56738095Y-69230057D02*
X56785714Y-69325295D01*
X56785714Y-69325295D02*
X56833333Y-69515771D01*
X56833333Y-69515771D02*
X56833333Y-69753866D01*
X56833333Y-69753866D02*
X56785714Y-69944342D01*
X56785714Y-69944342D02*
X56738095Y-70039580D01*
X56738095Y-70039580D02*
X56690476Y-70087200D01*
X56690476Y-70087200D02*
X56595238Y-70134819D01*
X56595238Y-70134819D02*
X56500000Y-70134819D01*
X56500000Y-70134819D02*
X56404762Y-70087200D01*
X56404762Y-70087200D02*
X56357143Y-70039580D01*
X56357143Y-70039580D02*
X56309524Y-69944342D01*
X56309524Y-69944342D02*
X56261905Y-69753866D01*
X56261905Y-69753866D02*
X56261905Y-69515771D01*
X56261905Y-69515771D02*
X56309524Y-69325295D01*
X56309524Y-69325295D02*
X56357143Y-69230057D01*
X56357143Y-69230057D02*
X56404762Y-69182438D01*
X56404762Y-69182438D02*
X56500000Y-69134819D01*
X57452381Y-69134819D02*
X57547619Y-69134819D01*
X57547619Y-69134819D02*
X57642857Y-69182438D01*
X57642857Y-69182438D02*
X57690476Y-69230057D01*
X57690476Y-69230057D02*
X57738095Y-69325295D01*
X57738095Y-69325295D02*
X57785714Y-69515771D01*
X57785714Y-69515771D02*
X57785714Y-69753866D01*
X57785714Y-69753866D02*
X57738095Y-69944342D01*
X57738095Y-69944342D02*
X57690476Y-70039580D01*
X57690476Y-70039580D02*
X57642857Y-70087200D01*
X57642857Y-70087200D02*
X57547619Y-70134819D01*
X57547619Y-70134819D02*
X57452381Y-70134819D01*
X57452381Y-70134819D02*
X57357143Y-70087200D01*
X57357143Y-70087200D02*
X57309524Y-70039580D01*
X57309524Y-70039580D02*
X57261905Y-69944342D01*
X57261905Y-69944342D02*
X57214286Y-69753866D01*
X57214286Y-69753866D02*
X57214286Y-69515771D01*
X57214286Y-69515771D02*
X57261905Y-69325295D01*
X57261905Y-69325295D02*
X57309524Y-69230057D01*
X57309524Y-69230057D02*
X57357143Y-69182438D01*
X57357143Y-69182438D02*
X57452381Y-69134819D01*
X58214286Y-69468152D02*
X58214286Y-70134819D01*
X58214286Y-69563390D02*
X58261905Y-69515771D01*
X58261905Y-69515771D02*
X58357143Y-69468152D01*
X58357143Y-69468152D02*
X58500000Y-69468152D01*
X58500000Y-69468152D02*
X58595238Y-69515771D01*
X58595238Y-69515771D02*
X58642857Y-69611009D01*
X58642857Y-69611009D02*
X58642857Y-70134819D01*
D11*
X56440476Y-68179530D02*
X56416667Y-68203340D01*
X56416667Y-68203340D02*
X56345238Y-68227149D01*
X56345238Y-68227149D02*
X56297619Y-68227149D01*
X56297619Y-68227149D02*
X56226191Y-68203340D01*
X56226191Y-68203340D02*
X56178572Y-68155720D01*
X56178572Y-68155720D02*
X56154762Y-68108101D01*
X56154762Y-68108101D02*
X56130953Y-68012863D01*
X56130953Y-68012863D02*
X56130953Y-67941435D01*
X56130953Y-67941435D02*
X56154762Y-67846197D01*
X56154762Y-67846197D02*
X56178572Y-67798578D01*
X56178572Y-67798578D02*
X56226191Y-67750959D01*
X56226191Y-67750959D02*
X56297619Y-67727149D01*
X56297619Y-67727149D02*
X56345238Y-67727149D01*
X56345238Y-67727149D02*
X56416667Y-67750959D01*
X56416667Y-67750959D02*
X56440476Y-67774768D01*
X56630953Y-67774768D02*
X56654762Y-67750959D01*
X56654762Y-67750959D02*
X56702381Y-67727149D01*
X56702381Y-67727149D02*
X56821429Y-67727149D01*
X56821429Y-67727149D02*
X56869048Y-67750959D01*
X56869048Y-67750959D02*
X56892857Y-67774768D01*
X56892857Y-67774768D02*
X56916667Y-67822387D01*
X56916667Y-67822387D02*
X56916667Y-67870006D01*
X56916667Y-67870006D02*
X56892857Y-67941435D01*
X56892857Y-67941435D02*
X56607143Y-68227149D01*
X56607143Y-68227149D02*
X56916667Y-68227149D01*
X57154762Y-68227149D02*
X57250000Y-68227149D01*
X57250000Y-68227149D02*
X57297619Y-68203340D01*
X57297619Y-68203340D02*
X57321428Y-68179530D01*
X57321428Y-68179530D02*
X57369047Y-68108101D01*
X57369047Y-68108101D02*
X57392857Y-68012863D01*
X57392857Y-68012863D02*
X57392857Y-67822387D01*
X57392857Y-67822387D02*
X57369047Y-67774768D01*
X57369047Y-67774768D02*
X57345238Y-67750959D01*
X57345238Y-67750959D02*
X57297619Y-67727149D01*
X57297619Y-67727149D02*
X57202381Y-67727149D01*
X57202381Y-67727149D02*
X57154762Y-67750959D01*
X57154762Y-67750959D02*
X57130952Y-67774768D01*
X57130952Y-67774768D02*
X57107143Y-67822387D01*
X57107143Y-67822387D02*
X57107143Y-67941435D01*
X57107143Y-67941435D02*
X57130952Y-67989054D01*
X57130952Y-67989054D02*
X57154762Y-68012863D01*
X57154762Y-68012863D02*
X57202381Y-68036673D01*
X57202381Y-68036673D02*
X57297619Y-68036673D01*
X57297619Y-68036673D02*
X57345238Y-68012863D01*
X57345238Y-68012863D02*
X57369047Y-67989054D01*
X57369047Y-67989054D02*
X57392857Y-67941435D01*
X57583333Y-67774768D02*
X57607142Y-67750959D01*
X57607142Y-67750959D02*
X57654761Y-67727149D01*
X57654761Y-67727149D02*
X57773809Y-67727149D01*
X57773809Y-67727149D02*
X57821428Y-67750959D01*
X57821428Y-67750959D02*
X57845237Y-67774768D01*
X57845237Y-67774768D02*
X57869047Y-67822387D01*
X57869047Y-67822387D02*
X57869047Y-67870006D01*
X57869047Y-67870006D02*
X57845237Y-67941435D01*
X57845237Y-67941435D02*
X57559523Y-68227149D01*
X57559523Y-68227149D02*
X57869047Y-68227149D01*
D10*
X35190476Y-40604819D02*
X35190476Y-39604819D01*
X35190476Y-39604819D02*
X35523809Y-40319104D01*
X35523809Y-40319104D02*
X35857142Y-39604819D01*
X35857142Y-39604819D02*
X35857142Y-40604819D01*
X36238095Y-39604819D02*
X36857142Y-39604819D01*
X36857142Y-39604819D02*
X36523809Y-39985771D01*
X36523809Y-39985771D02*
X36666666Y-39985771D01*
X36666666Y-39985771D02*
X36761904Y-40033390D01*
X36761904Y-40033390D02*
X36809523Y-40081009D01*
X36809523Y-40081009D02*
X36857142Y-40176247D01*
X36857142Y-40176247D02*
X36857142Y-40414342D01*
X36857142Y-40414342D02*
X36809523Y-40509580D01*
X36809523Y-40509580D02*
X36761904Y-40557200D01*
X36761904Y-40557200D02*
X36666666Y-40604819D01*
X36666666Y-40604819D02*
X36380952Y-40604819D01*
X36380952Y-40604819D02*
X36285714Y-40557200D01*
X36285714Y-40557200D02*
X36238095Y-40509580D01*
X35238095Y-36454819D02*
X35238095Y-35454819D01*
X35238095Y-35931009D02*
X35809523Y-35931009D01*
X35809523Y-36454819D02*
X35809523Y-35454819D01*
X36809523Y-36454819D02*
X36238095Y-36454819D01*
X36523809Y-36454819D02*
X36523809Y-35454819D01*
X36523809Y-35454819D02*
X36428571Y-35597676D01*
X36428571Y-35597676D02*
X36333333Y-35692914D01*
X36333333Y-35692914D02*
X36238095Y-35740533D01*
X98333333Y-54104819D02*
X97761905Y-54104819D01*
X98047619Y-54104819D02*
X98047619Y-53104819D01*
X98047619Y-53104819D02*
X97952381Y-53247676D01*
X97952381Y-53247676D02*
X97857143Y-53342914D01*
X97857143Y-53342914D02*
X97761905Y-53390533D01*
X98952381Y-53104819D02*
X99047619Y-53104819D01*
X99047619Y-53104819D02*
X99142857Y-53152438D01*
X99142857Y-53152438D02*
X99190476Y-53200057D01*
X99190476Y-53200057D02*
X99238095Y-53295295D01*
X99238095Y-53295295D02*
X99285714Y-53485771D01*
X99285714Y-53485771D02*
X99285714Y-53723866D01*
X99285714Y-53723866D02*
X99238095Y-53914342D01*
X99238095Y-53914342D02*
X99190476Y-54009580D01*
X99190476Y-54009580D02*
X99142857Y-54057200D01*
X99142857Y-54057200D02*
X99047619Y-54104819D01*
X99047619Y-54104819D02*
X98952381Y-54104819D01*
X98952381Y-54104819D02*
X98857143Y-54057200D01*
X98857143Y-54057200D02*
X98809524Y-54009580D01*
X98809524Y-54009580D02*
X98761905Y-53914342D01*
X98761905Y-53914342D02*
X98714286Y-53723866D01*
X98714286Y-53723866D02*
X98714286Y-53485771D01*
X98714286Y-53485771D02*
X98761905Y-53295295D01*
X98761905Y-53295295D02*
X98809524Y-53200057D01*
X98809524Y-53200057D02*
X98857143Y-53152438D01*
X98857143Y-53152438D02*
X98952381Y-53104819D01*
X99904762Y-53104819D02*
X100000000Y-53104819D01*
X100000000Y-53104819D02*
X100095238Y-53152438D01*
X100095238Y-53152438D02*
X100142857Y-53200057D01*
X100142857Y-53200057D02*
X100190476Y-53295295D01*
X100190476Y-53295295D02*
X100238095Y-53485771D01*
X100238095Y-53485771D02*
X100238095Y-53723866D01*
X100238095Y-53723866D02*
X100190476Y-53914342D01*
X100190476Y-53914342D02*
X100142857Y-54009580D01*
X100142857Y-54009580D02*
X100095238Y-54057200D01*
X100095238Y-54057200D02*
X100000000Y-54104819D01*
X100000000Y-54104819D02*
X99904762Y-54104819D01*
X99904762Y-54104819D02*
X99809524Y-54057200D01*
X99809524Y-54057200D02*
X99761905Y-54009580D01*
X99761905Y-54009580D02*
X99714286Y-53914342D01*
X99714286Y-53914342D02*
X99666667Y-53723866D01*
X99666667Y-53723866D02*
X99666667Y-53485771D01*
X99666667Y-53485771D02*
X99714286Y-53295295D01*
X99714286Y-53295295D02*
X99761905Y-53200057D01*
X99761905Y-53200057D02*
X99809524Y-53152438D01*
X99809524Y-53152438D02*
X99904762Y-53104819D01*
D11*
X98440476Y-52227149D02*
X98273810Y-51989054D01*
X98154762Y-52227149D02*
X98154762Y-51727149D01*
X98154762Y-51727149D02*
X98345238Y-51727149D01*
X98345238Y-51727149D02*
X98392857Y-51750959D01*
X98392857Y-51750959D02*
X98416667Y-51774768D01*
X98416667Y-51774768D02*
X98440476Y-51822387D01*
X98440476Y-51822387D02*
X98440476Y-51893816D01*
X98440476Y-51893816D02*
X98416667Y-51941435D01*
X98416667Y-51941435D02*
X98392857Y-51965244D01*
X98392857Y-51965244D02*
X98345238Y-51989054D01*
X98345238Y-51989054D02*
X98154762Y-51989054D01*
X98630953Y-51774768D02*
X98654762Y-51750959D01*
X98654762Y-51750959D02*
X98702381Y-51727149D01*
X98702381Y-51727149D02*
X98821429Y-51727149D01*
X98821429Y-51727149D02*
X98869048Y-51750959D01*
X98869048Y-51750959D02*
X98892857Y-51774768D01*
X98892857Y-51774768D02*
X98916667Y-51822387D01*
X98916667Y-51822387D02*
X98916667Y-51870006D01*
X98916667Y-51870006D02*
X98892857Y-51941435D01*
X98892857Y-51941435D02*
X98607143Y-52227149D01*
X98607143Y-52227149D02*
X98916667Y-52227149D01*
X99226190Y-51727149D02*
X99273809Y-51727149D01*
X99273809Y-51727149D02*
X99321428Y-51750959D01*
X99321428Y-51750959D02*
X99345238Y-51774768D01*
X99345238Y-51774768D02*
X99369047Y-51822387D01*
X99369047Y-51822387D02*
X99392857Y-51917625D01*
X99392857Y-51917625D02*
X99392857Y-52036673D01*
X99392857Y-52036673D02*
X99369047Y-52131911D01*
X99369047Y-52131911D02*
X99345238Y-52179530D01*
X99345238Y-52179530D02*
X99321428Y-52203340D01*
X99321428Y-52203340D02*
X99273809Y-52227149D01*
X99273809Y-52227149D02*
X99226190Y-52227149D01*
X99226190Y-52227149D02*
X99178571Y-52203340D01*
X99178571Y-52203340D02*
X99154762Y-52179530D01*
X99154762Y-52179530D02*
X99130952Y-52131911D01*
X99130952Y-52131911D02*
X99107143Y-52036673D01*
X99107143Y-52036673D02*
X99107143Y-51917625D01*
X99107143Y-51917625D02*
X99130952Y-51822387D01*
X99130952Y-51822387D02*
X99154762Y-51774768D01*
X99154762Y-51774768D02*
X99178571Y-51750959D01*
X99178571Y-51750959D02*
X99226190Y-51727149D01*
X99821428Y-51727149D02*
X99726190Y-51727149D01*
X99726190Y-51727149D02*
X99678571Y-51750959D01*
X99678571Y-51750959D02*
X99654761Y-51774768D01*
X99654761Y-51774768D02*
X99607142Y-51846197D01*
X99607142Y-51846197D02*
X99583333Y-51941435D01*
X99583333Y-51941435D02*
X99583333Y-52131911D01*
X99583333Y-52131911D02*
X99607142Y-52179530D01*
X99607142Y-52179530D02*
X99630952Y-52203340D01*
X99630952Y-52203340D02*
X99678571Y-52227149D01*
X99678571Y-52227149D02*
X99773809Y-52227149D01*
X99773809Y-52227149D02*
X99821428Y-52203340D01*
X99821428Y-52203340D02*
X99845237Y-52179530D01*
X99845237Y-52179530D02*
X99869047Y-52131911D01*
X99869047Y-52131911D02*
X99869047Y-52012863D01*
X99869047Y-52012863D02*
X99845237Y-51965244D01*
X99845237Y-51965244D02*
X99821428Y-51941435D01*
X99821428Y-51941435D02*
X99773809Y-51917625D01*
X99773809Y-51917625D02*
X99678571Y-51917625D01*
X99678571Y-51917625D02*
X99630952Y-51941435D01*
X99630952Y-51941435D02*
X99607142Y-51965244D01*
X99607142Y-51965244D02*
X99583333Y-52012863D01*
D10*
X62785714Y-69850057D02*
X62833333Y-69802438D01*
X62833333Y-69802438D02*
X62928571Y-69754819D01*
X62928571Y-69754819D02*
X63166666Y-69754819D01*
X63166666Y-69754819D02*
X63261904Y-69802438D01*
X63261904Y-69802438D02*
X63309523Y-69850057D01*
X63309523Y-69850057D02*
X63357142Y-69945295D01*
X63357142Y-69945295D02*
X63357142Y-70040533D01*
X63357142Y-70040533D02*
X63309523Y-70183390D01*
X63309523Y-70183390D02*
X62738095Y-70754819D01*
X62738095Y-70754819D02*
X63357142Y-70754819D01*
X63738095Y-69850057D02*
X63785714Y-69802438D01*
X63785714Y-69802438D02*
X63880952Y-69754819D01*
X63880952Y-69754819D02*
X64119047Y-69754819D01*
X64119047Y-69754819D02*
X64214285Y-69802438D01*
X64214285Y-69802438D02*
X64261904Y-69850057D01*
X64261904Y-69850057D02*
X64309523Y-69945295D01*
X64309523Y-69945295D02*
X64309523Y-70040533D01*
X64309523Y-70040533D02*
X64261904Y-70183390D01*
X64261904Y-70183390D02*
X63690476Y-70754819D01*
X63690476Y-70754819D02*
X64309523Y-70754819D01*
X65166666Y-70088152D02*
X65166666Y-70754819D01*
X64738095Y-70088152D02*
X64738095Y-70611961D01*
X64738095Y-70611961D02*
X64785714Y-70707200D01*
X64785714Y-70707200D02*
X64880952Y-70754819D01*
X64880952Y-70754819D02*
X65023809Y-70754819D01*
X65023809Y-70754819D02*
X65119047Y-70707200D01*
X65119047Y-70707200D02*
X65166666Y-70659580D01*
D12*
X63104762Y-68287664D02*
X63066666Y-68325760D01*
X63066666Y-68325760D02*
X62952381Y-68363855D01*
X62952381Y-68363855D02*
X62876190Y-68363855D01*
X62876190Y-68363855D02*
X62761904Y-68325760D01*
X62761904Y-68325760D02*
X62685714Y-68249569D01*
X62685714Y-68249569D02*
X62647619Y-68173379D01*
X62647619Y-68173379D02*
X62609523Y-68020998D01*
X62609523Y-68020998D02*
X62609523Y-67906712D01*
X62609523Y-67906712D02*
X62647619Y-67754331D01*
X62647619Y-67754331D02*
X62685714Y-67678140D01*
X62685714Y-67678140D02*
X62761904Y-67601950D01*
X62761904Y-67601950D02*
X62876190Y-67563855D01*
X62876190Y-67563855D02*
X62952381Y-67563855D01*
X62952381Y-67563855D02*
X63066666Y-67601950D01*
X63066666Y-67601950D02*
X63104762Y-67640045D01*
X63409523Y-67640045D02*
X63447619Y-67601950D01*
X63447619Y-67601950D02*
X63523809Y-67563855D01*
X63523809Y-67563855D02*
X63714285Y-67563855D01*
X63714285Y-67563855D02*
X63790476Y-67601950D01*
X63790476Y-67601950D02*
X63828571Y-67640045D01*
X63828571Y-67640045D02*
X63866666Y-67716236D01*
X63866666Y-67716236D02*
X63866666Y-67792426D01*
X63866666Y-67792426D02*
X63828571Y-67906712D01*
X63828571Y-67906712D02*
X63371428Y-68363855D01*
X63371428Y-68363855D02*
X63866666Y-68363855D01*
X64247619Y-68363855D02*
X64400000Y-68363855D01*
X64400000Y-68363855D02*
X64476190Y-68325760D01*
X64476190Y-68325760D02*
X64514286Y-68287664D01*
X64514286Y-68287664D02*
X64590476Y-68173379D01*
X64590476Y-68173379D02*
X64628571Y-68020998D01*
X64628571Y-68020998D02*
X64628571Y-67716236D01*
X64628571Y-67716236D02*
X64590476Y-67640045D01*
X64590476Y-67640045D02*
X64552381Y-67601950D01*
X64552381Y-67601950D02*
X64476190Y-67563855D01*
X64476190Y-67563855D02*
X64323809Y-67563855D01*
X64323809Y-67563855D02*
X64247619Y-67601950D01*
X64247619Y-67601950D02*
X64209524Y-67640045D01*
X64209524Y-67640045D02*
X64171428Y-67716236D01*
X64171428Y-67716236D02*
X64171428Y-67906712D01*
X64171428Y-67906712D02*
X64209524Y-67982902D01*
X64209524Y-67982902D02*
X64247619Y-68020998D01*
X64247619Y-68020998D02*
X64323809Y-68059093D01*
X64323809Y-68059093D02*
X64476190Y-68059093D01*
X64476190Y-68059093D02*
X64552381Y-68020998D01*
X64552381Y-68020998D02*
X64590476Y-67982902D01*
X64590476Y-67982902D02*
X64628571Y-67906712D01*
X64895238Y-67563855D02*
X65390476Y-67563855D01*
X65390476Y-67563855D02*
X65123810Y-67868617D01*
X65123810Y-67868617D02*
X65238095Y-67868617D01*
X65238095Y-67868617D02*
X65314286Y-67906712D01*
X65314286Y-67906712D02*
X65352381Y-67944807D01*
X65352381Y-67944807D02*
X65390476Y-68020998D01*
X65390476Y-68020998D02*
X65390476Y-68211474D01*
X65390476Y-68211474D02*
X65352381Y-68287664D01*
X65352381Y-68287664D02*
X65314286Y-68325760D01*
X65314286Y-68325760D02*
X65238095Y-68363855D01*
X65238095Y-68363855D02*
X65009524Y-68363855D01*
X65009524Y-68363855D02*
X64933333Y-68325760D01*
X64933333Y-68325760D02*
X64895238Y-68287664D01*
D10*
X64833333Y-91200057D02*
X64880952Y-91152438D01*
X64880952Y-91152438D02*
X64976190Y-91104819D01*
X64976190Y-91104819D02*
X65214285Y-91104819D01*
X65214285Y-91104819D02*
X65309523Y-91152438D01*
X65309523Y-91152438D02*
X65357142Y-91200057D01*
X65357142Y-91200057D02*
X65404761Y-91295295D01*
X65404761Y-91295295D02*
X65404761Y-91390533D01*
X65404761Y-91390533D02*
X65357142Y-91533390D01*
X65357142Y-91533390D02*
X64785714Y-92104819D01*
X64785714Y-92104819D02*
X65404761Y-92104819D01*
X66023809Y-91104819D02*
X66119047Y-91104819D01*
X66119047Y-91104819D02*
X66214285Y-91152438D01*
X66214285Y-91152438D02*
X66261904Y-91200057D01*
X66261904Y-91200057D02*
X66309523Y-91295295D01*
X66309523Y-91295295D02*
X66357142Y-91485771D01*
X66357142Y-91485771D02*
X66357142Y-91723866D01*
X66357142Y-91723866D02*
X66309523Y-91914342D01*
X66309523Y-91914342D02*
X66261904Y-92009580D01*
X66261904Y-92009580D02*
X66214285Y-92057200D01*
X66214285Y-92057200D02*
X66119047Y-92104819D01*
X66119047Y-92104819D02*
X66023809Y-92104819D01*
X66023809Y-92104819D02*
X65928571Y-92057200D01*
X65928571Y-92057200D02*
X65880952Y-92009580D01*
X65880952Y-92009580D02*
X65833333Y-91914342D01*
X65833333Y-91914342D02*
X65785714Y-91723866D01*
X65785714Y-91723866D02*
X65785714Y-91485771D01*
X65785714Y-91485771D02*
X65833333Y-91295295D01*
X65833333Y-91295295D02*
X65880952Y-91200057D01*
X65880952Y-91200057D02*
X65928571Y-91152438D01*
X65928571Y-91152438D02*
X66023809Y-91104819D01*
X66785714Y-92104819D02*
X66785714Y-91104819D01*
X66880952Y-91723866D02*
X67166666Y-92104819D01*
X67166666Y-91438152D02*
X66785714Y-91819104D01*
D11*
X65440476Y-90227149D02*
X65273810Y-89989054D01*
X65154762Y-90227149D02*
X65154762Y-89727149D01*
X65154762Y-89727149D02*
X65345238Y-89727149D01*
X65345238Y-89727149D02*
X65392857Y-89750959D01*
X65392857Y-89750959D02*
X65416667Y-89774768D01*
X65416667Y-89774768D02*
X65440476Y-89822387D01*
X65440476Y-89822387D02*
X65440476Y-89893816D01*
X65440476Y-89893816D02*
X65416667Y-89941435D01*
X65416667Y-89941435D02*
X65392857Y-89965244D01*
X65392857Y-89965244D02*
X65345238Y-89989054D01*
X65345238Y-89989054D02*
X65154762Y-89989054D01*
X65630953Y-89774768D02*
X65654762Y-89750959D01*
X65654762Y-89750959D02*
X65702381Y-89727149D01*
X65702381Y-89727149D02*
X65821429Y-89727149D01*
X65821429Y-89727149D02*
X65869048Y-89750959D01*
X65869048Y-89750959D02*
X65892857Y-89774768D01*
X65892857Y-89774768D02*
X65916667Y-89822387D01*
X65916667Y-89822387D02*
X65916667Y-89870006D01*
X65916667Y-89870006D02*
X65892857Y-89941435D01*
X65892857Y-89941435D02*
X65607143Y-90227149D01*
X65607143Y-90227149D02*
X65916667Y-90227149D01*
X66107143Y-89774768D02*
X66130952Y-89750959D01*
X66130952Y-89750959D02*
X66178571Y-89727149D01*
X66178571Y-89727149D02*
X66297619Y-89727149D01*
X66297619Y-89727149D02*
X66345238Y-89750959D01*
X66345238Y-89750959D02*
X66369047Y-89774768D01*
X66369047Y-89774768D02*
X66392857Y-89822387D01*
X66392857Y-89822387D02*
X66392857Y-89870006D01*
X66392857Y-89870006D02*
X66369047Y-89941435D01*
X66369047Y-89941435D02*
X66083333Y-90227149D01*
X66083333Y-90227149D02*
X66392857Y-90227149D01*
X66821428Y-89893816D02*
X66821428Y-90227149D01*
X66702380Y-89703340D02*
X66583333Y-90060482D01*
X66583333Y-90060482D02*
X66892856Y-90060482D01*
D10*
X61833333Y-64734819D02*
X62023809Y-64734819D01*
X62023809Y-64734819D02*
X62119047Y-64782438D01*
X62119047Y-64782438D02*
X62214285Y-64877676D01*
X62214285Y-64877676D02*
X62261904Y-65068152D01*
X62261904Y-65068152D02*
X62261904Y-65401485D01*
X62261904Y-65401485D02*
X62214285Y-65591961D01*
X62214285Y-65591961D02*
X62119047Y-65687200D01*
X62119047Y-65687200D02*
X62023809Y-65734819D01*
X62023809Y-65734819D02*
X61833333Y-65734819D01*
X61833333Y-65734819D02*
X61738095Y-65687200D01*
X61738095Y-65687200D02*
X61642857Y-65591961D01*
X61642857Y-65591961D02*
X61595238Y-65401485D01*
X61595238Y-65401485D02*
X61595238Y-65068152D01*
X61595238Y-65068152D02*
X61642857Y-64877676D01*
X61642857Y-64877676D02*
X61738095Y-64782438D01*
X61738095Y-64782438D02*
X61833333Y-64734819D01*
X62690476Y-65734819D02*
X62690476Y-64734819D01*
X62690476Y-64734819D02*
X63071428Y-64734819D01*
X63071428Y-64734819D02*
X63166666Y-64782438D01*
X63166666Y-64782438D02*
X63214285Y-64830057D01*
X63214285Y-64830057D02*
X63261904Y-64925295D01*
X63261904Y-64925295D02*
X63261904Y-65068152D01*
X63261904Y-65068152D02*
X63214285Y-65163390D01*
X63214285Y-65163390D02*
X63166666Y-65211009D01*
X63166666Y-65211009D02*
X63071428Y-65258628D01*
X63071428Y-65258628D02*
X62690476Y-65258628D01*
X63642857Y-65449104D02*
X64119047Y-65449104D01*
X63547619Y-65734819D02*
X63880952Y-64734819D01*
X63880952Y-64734819D02*
X64214285Y-65734819D01*
X65071428Y-65734819D02*
X64500000Y-65734819D01*
X64785714Y-65734819D02*
X64785714Y-64734819D01*
X64785714Y-64734819D02*
X64690476Y-64877676D01*
X64690476Y-64877676D02*
X64595238Y-64972914D01*
X64595238Y-64972914D02*
X64500000Y-65020533D01*
X65928571Y-64734819D02*
X65738095Y-64734819D01*
X65738095Y-64734819D02*
X65642857Y-64782438D01*
X65642857Y-64782438D02*
X65595238Y-64830057D01*
X65595238Y-64830057D02*
X65500000Y-64972914D01*
X65500000Y-64972914D02*
X65452381Y-65163390D01*
X65452381Y-65163390D02*
X65452381Y-65544342D01*
X65452381Y-65544342D02*
X65500000Y-65639580D01*
X65500000Y-65639580D02*
X65547619Y-65687200D01*
X65547619Y-65687200D02*
X65642857Y-65734819D01*
X65642857Y-65734819D02*
X65833333Y-65734819D01*
X65833333Y-65734819D02*
X65928571Y-65687200D01*
X65928571Y-65687200D02*
X65976190Y-65639580D01*
X65976190Y-65639580D02*
X66023809Y-65544342D01*
X66023809Y-65544342D02*
X66023809Y-65306247D01*
X66023809Y-65306247D02*
X65976190Y-65211009D01*
X65976190Y-65211009D02*
X65928571Y-65163390D01*
X65928571Y-65163390D02*
X65833333Y-65115771D01*
X65833333Y-65115771D02*
X65642857Y-65115771D01*
X65642857Y-65115771D02*
X65547619Y-65163390D01*
X65547619Y-65163390D02*
X65500000Y-65211009D01*
X65500000Y-65211009D02*
X65452381Y-65306247D01*
X66357143Y-64734819D02*
X67023809Y-64734819D01*
X67023809Y-64734819D02*
X66595238Y-65734819D01*
X67452381Y-65734819D02*
X67642857Y-65734819D01*
X67642857Y-65734819D02*
X67738095Y-65687200D01*
X67738095Y-65687200D02*
X67785714Y-65639580D01*
X67785714Y-65639580D02*
X67880952Y-65496723D01*
X67880952Y-65496723D02*
X67928571Y-65306247D01*
X67928571Y-65306247D02*
X67928571Y-64925295D01*
X67928571Y-64925295D02*
X67880952Y-64830057D01*
X67880952Y-64830057D02*
X67833333Y-64782438D01*
X67833333Y-64782438D02*
X67738095Y-64734819D01*
X67738095Y-64734819D02*
X67547619Y-64734819D01*
X67547619Y-64734819D02*
X67452381Y-64782438D01*
X67452381Y-64782438D02*
X67404762Y-64830057D01*
X67404762Y-64830057D02*
X67357143Y-64925295D01*
X67357143Y-64925295D02*
X67357143Y-65163390D01*
X67357143Y-65163390D02*
X67404762Y-65258628D01*
X67404762Y-65258628D02*
X67452381Y-65306247D01*
X67452381Y-65306247D02*
X67547619Y-65353866D01*
X67547619Y-65353866D02*
X67738095Y-65353866D01*
X67738095Y-65353866D02*
X67833333Y-65306247D01*
X67833333Y-65306247D02*
X67880952Y-65258628D01*
X67880952Y-65258628D02*
X67928571Y-65163390D01*
X68357143Y-65734819D02*
X68357143Y-64734819D01*
X68833333Y-65734819D02*
X68833333Y-64734819D01*
X68833333Y-64734819D02*
X69071428Y-64734819D01*
X69071428Y-64734819D02*
X69214285Y-64782438D01*
X69214285Y-64782438D02*
X69309523Y-64877676D01*
X69309523Y-64877676D02*
X69357142Y-64972914D01*
X69357142Y-64972914D02*
X69404761Y-65163390D01*
X69404761Y-65163390D02*
X69404761Y-65306247D01*
X69404761Y-65306247D02*
X69357142Y-65496723D01*
X69357142Y-65496723D02*
X69309523Y-65591961D01*
X69309523Y-65591961D02*
X69214285Y-65687200D01*
X69214285Y-65687200D02*
X69071428Y-65734819D01*
X69071428Y-65734819D02*
X68833333Y-65734819D01*
X70404761Y-65734819D02*
X70071428Y-65258628D01*
X69833333Y-65734819D02*
X69833333Y-64734819D01*
X69833333Y-64734819D02*
X70214285Y-64734819D01*
X70214285Y-64734819D02*
X70309523Y-64782438D01*
X70309523Y-64782438D02*
X70357142Y-64830057D01*
X70357142Y-64830057D02*
X70404761Y-64925295D01*
X70404761Y-64925295D02*
X70404761Y-65068152D01*
X70404761Y-65068152D02*
X70357142Y-65163390D01*
X70357142Y-65163390D02*
X70309523Y-65211009D01*
X70309523Y-65211009D02*
X70214285Y-65258628D01*
X70214285Y-65258628D02*
X69833333Y-65258628D01*
X65454819Y-61714285D02*
X66264342Y-61714285D01*
X66264342Y-61714285D02*
X66359580Y-61666666D01*
X66359580Y-61666666D02*
X66407200Y-61619047D01*
X66407200Y-61619047D02*
X66454819Y-61523809D01*
X66454819Y-61523809D02*
X66454819Y-61333333D01*
X66454819Y-61333333D02*
X66407200Y-61238095D01*
X66407200Y-61238095D02*
X66359580Y-61190476D01*
X66359580Y-61190476D02*
X66264342Y-61142857D01*
X66264342Y-61142857D02*
X65454819Y-61142857D01*
X65550057Y-60714285D02*
X65502438Y-60666666D01*
X65502438Y-60666666D02*
X65454819Y-60571428D01*
X65454819Y-60571428D02*
X65454819Y-60333333D01*
X65454819Y-60333333D02*
X65502438Y-60238095D01*
X65502438Y-60238095D02*
X65550057Y-60190476D01*
X65550057Y-60190476D02*
X65645295Y-60142857D01*
X65645295Y-60142857D02*
X65740533Y-60142857D01*
X65740533Y-60142857D02*
X65883390Y-60190476D01*
X65883390Y-60190476D02*
X66454819Y-60761904D01*
X66454819Y-60761904D02*
X66454819Y-60142857D01*
X65454819Y-59523809D02*
X65454819Y-59428571D01*
X65454819Y-59428571D02*
X65502438Y-59333333D01*
X65502438Y-59333333D02*
X65550057Y-59285714D01*
X65550057Y-59285714D02*
X65645295Y-59238095D01*
X65645295Y-59238095D02*
X65835771Y-59190476D01*
X65835771Y-59190476D02*
X66073866Y-59190476D01*
X66073866Y-59190476D02*
X66264342Y-59238095D01*
X66264342Y-59238095D02*
X66359580Y-59285714D01*
X66359580Y-59285714D02*
X66407200Y-59333333D01*
X66407200Y-59333333D02*
X66454819Y-59428571D01*
X66454819Y-59428571D02*
X66454819Y-59523809D01*
X66454819Y-59523809D02*
X66407200Y-59619047D01*
X66407200Y-59619047D02*
X66359580Y-59666666D01*
X66359580Y-59666666D02*
X66264342Y-59714285D01*
X66264342Y-59714285D02*
X66073866Y-59761904D01*
X66073866Y-59761904D02*
X65835771Y-59761904D01*
X65835771Y-59761904D02*
X65645295Y-59714285D01*
X65645295Y-59714285D02*
X65550057Y-59666666D01*
X65550057Y-59666666D02*
X65502438Y-59619047D01*
X65502438Y-59619047D02*
X65454819Y-59523809D01*
X66454819Y-58238095D02*
X66454819Y-58809523D01*
X66454819Y-58523809D02*
X65454819Y-58523809D01*
X65454819Y-58523809D02*
X65597676Y-58619047D01*
X65597676Y-58619047D02*
X65692914Y-58714285D01*
X65692914Y-58714285D02*
X65740533Y-58809523D01*
X76928571Y-54104819D02*
X76357143Y-54104819D01*
X76642857Y-54104819D02*
X76642857Y-53104819D01*
X76642857Y-53104819D02*
X76547619Y-53247676D01*
X76547619Y-53247676D02*
X76452381Y-53342914D01*
X76452381Y-53342914D02*
X76357143Y-53390533D01*
X77547619Y-53104819D02*
X77642857Y-53104819D01*
X77642857Y-53104819D02*
X77738095Y-53152438D01*
X77738095Y-53152438D02*
X77785714Y-53200057D01*
X77785714Y-53200057D02*
X77833333Y-53295295D01*
X77833333Y-53295295D02*
X77880952Y-53485771D01*
X77880952Y-53485771D02*
X77880952Y-53723866D01*
X77880952Y-53723866D02*
X77833333Y-53914342D01*
X77833333Y-53914342D02*
X77785714Y-54009580D01*
X77785714Y-54009580D02*
X77738095Y-54057200D01*
X77738095Y-54057200D02*
X77642857Y-54104819D01*
X77642857Y-54104819D02*
X77547619Y-54104819D01*
X77547619Y-54104819D02*
X77452381Y-54057200D01*
X77452381Y-54057200D02*
X77404762Y-54009580D01*
X77404762Y-54009580D02*
X77357143Y-53914342D01*
X77357143Y-53914342D02*
X77309524Y-53723866D01*
X77309524Y-53723866D02*
X77309524Y-53485771D01*
X77309524Y-53485771D02*
X77357143Y-53295295D01*
X77357143Y-53295295D02*
X77404762Y-53200057D01*
X77404762Y-53200057D02*
X77452381Y-53152438D01*
X77452381Y-53152438D02*
X77547619Y-53104819D01*
X78500000Y-53104819D02*
X78595238Y-53104819D01*
X78595238Y-53104819D02*
X78690476Y-53152438D01*
X78690476Y-53152438D02*
X78738095Y-53200057D01*
X78738095Y-53200057D02*
X78785714Y-53295295D01*
X78785714Y-53295295D02*
X78833333Y-53485771D01*
X78833333Y-53485771D02*
X78833333Y-53723866D01*
X78833333Y-53723866D02*
X78785714Y-53914342D01*
X78785714Y-53914342D02*
X78738095Y-54009580D01*
X78738095Y-54009580D02*
X78690476Y-54057200D01*
X78690476Y-54057200D02*
X78595238Y-54104819D01*
X78595238Y-54104819D02*
X78500000Y-54104819D01*
X78500000Y-54104819D02*
X78404762Y-54057200D01*
X78404762Y-54057200D02*
X78357143Y-54009580D01*
X78357143Y-54009580D02*
X78309524Y-53914342D01*
X78309524Y-53914342D02*
X78261905Y-53723866D01*
X78261905Y-53723866D02*
X78261905Y-53485771D01*
X78261905Y-53485771D02*
X78309524Y-53295295D01*
X78309524Y-53295295D02*
X78357143Y-53200057D01*
X78357143Y-53200057D02*
X78404762Y-53152438D01*
X78404762Y-53152438D02*
X78500000Y-53104819D01*
X79261905Y-54104819D02*
X79261905Y-53104819D01*
X79357143Y-53723866D02*
X79642857Y-54104819D01*
X79642857Y-53438152D02*
X79261905Y-53819104D01*
D11*
X77440476Y-52227149D02*
X77273810Y-51989054D01*
X77154762Y-52227149D02*
X77154762Y-51727149D01*
X77154762Y-51727149D02*
X77345238Y-51727149D01*
X77345238Y-51727149D02*
X77392857Y-51750959D01*
X77392857Y-51750959D02*
X77416667Y-51774768D01*
X77416667Y-51774768D02*
X77440476Y-51822387D01*
X77440476Y-51822387D02*
X77440476Y-51893816D01*
X77440476Y-51893816D02*
X77416667Y-51941435D01*
X77416667Y-51941435D02*
X77392857Y-51965244D01*
X77392857Y-51965244D02*
X77345238Y-51989054D01*
X77345238Y-51989054D02*
X77154762Y-51989054D01*
X77630953Y-51774768D02*
X77654762Y-51750959D01*
X77654762Y-51750959D02*
X77702381Y-51727149D01*
X77702381Y-51727149D02*
X77821429Y-51727149D01*
X77821429Y-51727149D02*
X77869048Y-51750959D01*
X77869048Y-51750959D02*
X77892857Y-51774768D01*
X77892857Y-51774768D02*
X77916667Y-51822387D01*
X77916667Y-51822387D02*
X77916667Y-51870006D01*
X77916667Y-51870006D02*
X77892857Y-51941435D01*
X77892857Y-51941435D02*
X77607143Y-52227149D01*
X77607143Y-52227149D02*
X77916667Y-52227149D01*
X78392857Y-52227149D02*
X78107143Y-52227149D01*
X78250000Y-52227149D02*
X78250000Y-51727149D01*
X78250000Y-51727149D02*
X78202381Y-51798578D01*
X78202381Y-51798578D02*
X78154762Y-51846197D01*
X78154762Y-51846197D02*
X78107143Y-51870006D01*
X78869047Y-52227149D02*
X78583333Y-52227149D01*
X78726190Y-52227149D02*
X78726190Y-51727149D01*
X78726190Y-51727149D02*
X78678571Y-51798578D01*
X78678571Y-51798578D02*
X78630952Y-51846197D01*
X78630952Y-51846197D02*
X78583333Y-51870006D01*
D10*
X143190476Y-108604819D02*
X143190476Y-107604819D01*
X143190476Y-107604819D02*
X143523809Y-108319104D01*
X143523809Y-108319104D02*
X143857142Y-107604819D01*
X143857142Y-107604819D02*
X143857142Y-108604819D01*
X144238095Y-107604819D02*
X144857142Y-107604819D01*
X144857142Y-107604819D02*
X144523809Y-107985771D01*
X144523809Y-107985771D02*
X144666666Y-107985771D01*
X144666666Y-107985771D02*
X144761904Y-108033390D01*
X144761904Y-108033390D02*
X144809523Y-108081009D01*
X144809523Y-108081009D02*
X144857142Y-108176247D01*
X144857142Y-108176247D02*
X144857142Y-108414342D01*
X144857142Y-108414342D02*
X144809523Y-108509580D01*
X144809523Y-108509580D02*
X144761904Y-108557200D01*
X144761904Y-108557200D02*
X144666666Y-108604819D01*
X144666666Y-108604819D02*
X144380952Y-108604819D01*
X144380952Y-108604819D02*
X144285714Y-108557200D01*
X144285714Y-108557200D02*
X144238095Y-108509580D01*
X143238095Y-104454819D02*
X143238095Y-103454819D01*
X143238095Y-103931009D02*
X143809523Y-103931009D01*
X143809523Y-104454819D02*
X143809523Y-103454819D01*
X144714285Y-103788152D02*
X144714285Y-104454819D01*
X144476190Y-103407200D02*
X144238095Y-104121485D01*
X144238095Y-104121485D02*
X144857142Y-104121485D01*
%TO.C,R202*%
D13*
X49000000Y-39375000D02*
X51000000Y-39375000D01*
X51000000Y-40625000D01*
X49000000Y-40625000D01*
X49000000Y-39375000D01*
%TO.C,P203*%
X143350000Y-70000000D02*
X144350000Y-70625000D01*
X144350000Y-69375000D02*
X143350000Y-70000000D01*
X138600000Y-67550000D02*
X144350000Y-67550000D01*
X144350000Y-84950000D01*
X138600000Y-84950000D01*
X138600000Y-67550000D01*
%TO.C,R229*%
X73000000Y-89375000D02*
X75000000Y-89375000D01*
X75000000Y-90625000D01*
X73000000Y-90625000D01*
X73000000Y-89375000D01*
%TO.C,P205*%
X35650000Y-66625000D02*
X36650000Y-66000000D01*
X36650000Y-66000000D02*
X35650000Y-65375000D01*
X35650000Y-58550000D02*
X41400000Y-58550000D01*
X41400000Y-68450000D01*
X35650000Y-68450000D01*
X35650000Y-58550000D01*
%TO.C,R212*%
X84000000Y-51375000D02*
X86000000Y-51375000D01*
X86000000Y-52625000D01*
X84000000Y-52625000D01*
X84000000Y-51375000D01*
%TO.C,P202*%
X143350000Y-44000000D02*
X144350000Y-44625000D01*
X144350000Y-43375000D02*
X143350000Y-44000000D01*
X138600000Y-41550000D02*
X144350000Y-41550000D01*
X144350000Y-58950000D01*
X138600000Y-58950000D01*
X138600000Y-41550000D01*
%TO.C,R205*%
X81000000Y-39375000D02*
X83000000Y-39375000D01*
X83000000Y-40625000D01*
X81000000Y-40625000D01*
X81000000Y-39375000D01*
%TO.C,R221*%
X93000000Y-89375000D02*
X95000000Y-89375000D01*
X95000000Y-90625000D01*
X93000000Y-90625000D01*
X93000000Y-89375000D01*
%TO.C,R201*%
X93000000Y-39375000D02*
X95000000Y-39375000D01*
X95000000Y-40625000D01*
X93000000Y-40625000D01*
X93000000Y-39375000D01*
%TO.C,D262*%
X110600000Y-63100000D02*
X113400000Y-63100000D01*
X110600000Y-64900000D02*
X110600000Y-63100000D01*
X111250000Y-64000000D02*
X111650000Y-64000000D01*
X111650000Y-64000000D02*
X111650000Y-63450000D01*
X111650000Y-64000000D02*
X111650000Y-64550000D01*
X111650000Y-64000000D02*
X112250000Y-63600000D01*
X112250000Y-63600000D02*
X112250000Y-64400000D01*
X112250000Y-64000000D02*
X112750000Y-64000000D01*
X112250000Y-64400000D02*
X111650000Y-64000000D01*
X113400000Y-63100000D02*
X113400000Y-64900000D01*
X113400000Y-64900000D02*
X110600000Y-64900000D01*
%TO.C,K202*%
X114740000Y-69140000D02*
X114740000Y-78330000D01*
X115750000Y-79240000D02*
X114740000Y-78330000D01*
X115750000Y-79240000D02*
X135040000Y-79240000D01*
X135040000Y-69140000D02*
X114740000Y-69140000D01*
X135040000Y-79240000D02*
X135040000Y-69140000D01*
%TO.C,P207*%
X34300000Y-71370000D02*
X36000000Y-71370000D01*
X34300000Y-84750000D02*
X34300000Y-71370000D01*
X36000000Y-84750000D02*
X34300000Y-84750000D01*
X37000000Y-85950000D02*
X38000000Y-84950000D01*
X39000000Y-85950000D02*
X38000000Y-84950000D01*
X36000000Y-70170000D02*
X42800000Y-70170000D01*
X42800000Y-85950000D01*
X36000000Y-85950000D01*
X36000000Y-70170000D01*
%TO.C,K204*%
X114740000Y-85140000D02*
X114740000Y-94330000D01*
X115750000Y-95240000D02*
X114740000Y-94330000D01*
X115750000Y-95240000D02*
X135040000Y-95240000D01*
X135040000Y-85140000D02*
X114740000Y-85140000D01*
X135040000Y-95240000D02*
X135040000Y-85140000D01*
%TO.C,C294*%
X69400000Y-66750000D02*
X72600000Y-66750000D01*
X72600000Y-69250000D01*
X69400000Y-69250000D01*
X69400000Y-66750000D01*
%TO.C,C295*%
X77000000Y-67375000D02*
X79000000Y-67375000D01*
X79000000Y-68625000D01*
X77000000Y-68625000D01*
X77000000Y-67375000D01*
%TO.C,R222*%
X49000000Y-89375000D02*
X51000000Y-89375000D01*
X51000000Y-90625000D01*
X49000000Y-90625000D01*
X49000000Y-89375000D01*
%TO.C,R204*%
X65000000Y-39375000D02*
X67000000Y-39375000D01*
X67000000Y-40625000D01*
X65000000Y-40625000D01*
X65000000Y-39375000D01*
%TO.C,R226*%
X98000000Y-69375000D02*
X100000000Y-69375000D01*
X100000000Y-70625000D01*
X98000000Y-70625000D01*
X98000000Y-69375000D01*
%TO.C,K201*%
X114740000Y-37140000D02*
X114740000Y-46330000D01*
X115750000Y-47240000D02*
X114740000Y-46330000D01*
X115750000Y-47240000D02*
X135040000Y-47240000D01*
X135040000Y-37140000D02*
X114740000Y-37140000D01*
X135040000Y-47240000D02*
X135040000Y-37140000D01*
%TO.C,R241*%
X91000000Y-51375000D02*
X93000000Y-51375000D01*
X93000000Y-52625000D01*
X91000000Y-52625000D01*
X91000000Y-51375000D01*
%TO.C,R223*%
X57000000Y-89375000D02*
X59000000Y-89375000D01*
X59000000Y-90625000D01*
X57000000Y-90625000D01*
X57000000Y-89375000D01*
%TO.C,R225*%
X81000000Y-89375000D02*
X83000000Y-89375000D01*
X83000000Y-90625000D01*
X81000000Y-90625000D01*
X81000000Y-89375000D01*
%TO.C,R231*%
X77000000Y-69375000D02*
X79000000Y-69375000D01*
X79000000Y-70625000D01*
X77000000Y-70625000D01*
X77000000Y-69375000D01*
%TO.C,R232*%
X84000000Y-69375000D02*
X86000000Y-69375000D01*
X86000000Y-70625000D01*
X84000000Y-70625000D01*
X84000000Y-69375000D01*
%TO.C,R209*%
X73000000Y-39375000D02*
X75000000Y-39375000D01*
X75000000Y-40625000D01*
X73000000Y-40625000D01*
X73000000Y-39375000D01*
%TO.C,P206*%
X55375000Y-99650000D02*
X56000000Y-100650000D01*
X56000000Y-100650000D02*
X56625000Y-99650000D01*
X53550000Y-99650000D02*
X80950000Y-99650000D01*
X80950000Y-105400000D01*
X53550000Y-105400000D01*
X53550000Y-99650000D01*
%TO.C,R203*%
X57000000Y-39375000D02*
X59000000Y-39375000D01*
X59000000Y-40625000D01*
X57000000Y-40625000D01*
X57000000Y-39375000D01*
%TO.C,P201*%
X35650000Y-50625000D02*
X36650000Y-50000000D01*
X36650000Y-50000000D02*
X35650000Y-49375000D01*
X35650000Y-42550000D02*
X41400000Y-42550000D01*
X41400000Y-52450000D01*
X35650000Y-52450000D01*
X35650000Y-42550000D01*
%TO.C,D261*%
X102600000Y-63100000D02*
X105400000Y-63100000D01*
X102600000Y-64900000D02*
X102600000Y-63100000D01*
X103250000Y-64000000D02*
X103650000Y-64000000D01*
X103650000Y-64000000D02*
X103650000Y-63450000D01*
X103650000Y-64000000D02*
X103650000Y-64550000D01*
X103650000Y-64000000D02*
X104250000Y-63600000D01*
X104250000Y-63600000D02*
X104250000Y-64400000D01*
X104250000Y-64000000D02*
X104750000Y-64000000D01*
X104250000Y-64400000D02*
X103650000Y-64000000D01*
X105400000Y-63100000D02*
X105400000Y-64900000D01*
X105400000Y-64900000D02*
X102600000Y-64900000D01*
%TO.C,K203*%
X114740000Y-53140000D02*
X114740000Y-62330000D01*
X115750000Y-63240000D02*
X114740000Y-62330000D01*
X115750000Y-63240000D02*
X135040000Y-63240000D01*
X135040000Y-53140000D02*
X114740000Y-53140000D01*
X135040000Y-63240000D02*
X135040000Y-53140000D01*
%TO.C,C291*%
X49000000Y-67375000D02*
X51000000Y-67375000D01*
X51000000Y-68625000D01*
X49000000Y-68625000D01*
X49000000Y-67375000D01*
%TO.C,P204*%
X91375000Y-99650000D02*
X92000000Y-100650000D01*
X92000000Y-100650000D02*
X92625000Y-99650000D01*
X89550000Y-99650000D02*
X99450000Y-99650000D01*
X99450000Y-105400000D01*
X89550000Y-105400000D01*
X89550000Y-99650000D01*
%TO.C,R251*%
X91000000Y-69375000D02*
X93000000Y-69375000D01*
X93000000Y-70625000D01*
X91000000Y-70625000D01*
X91000000Y-69375000D01*
%TO.C,C292*%
X56000000Y-67375000D02*
X58000000Y-67375000D01*
X58000000Y-68625000D01*
X56000000Y-68625000D01*
X56000000Y-67375000D01*
%TO.C,R206*%
X98000000Y-51375000D02*
X100000000Y-51375000D01*
X100000000Y-52625000D01*
X98000000Y-52625000D01*
X98000000Y-51375000D01*
%TO.C,C293*%
X62400000Y-66750000D02*
X65600000Y-66750000D01*
X65600000Y-69250000D01*
X62400000Y-69250000D01*
X62400000Y-66750000D01*
%TO.C,R224*%
X65000000Y-89375000D02*
X67000000Y-89375000D01*
X67000000Y-90625000D01*
X65000000Y-90625000D01*
X65000000Y-89375000D01*
%TO.C,U201*%
X65025000Y-55675000D02*
X67950000Y-55675000D01*
X67950000Y-64325000D01*
X64050000Y-64325000D01*
X64050000Y-56650000D01*
X65025000Y-55675000D01*
%TO.C,R211*%
X77000000Y-51375000D02*
X79000000Y-51375000D01*
X79000000Y-52625000D01*
X77000000Y-52625000D01*
X77000000Y-51375000D01*
%TD*%
M02*
