%TF.GenerationSoftware,KiCad,Pcbnew,10.0.3*%
%TF.CreationDate,2026-07-02T03:50:20-05:00*%
%TF.ProjectId,ext-tank-routing,6578742d-7461-46e6-9b2d-726f7574696e,rev?*%
%TF.SameCoordinates,Original*%
%TF.FileFunction,Soldermask,Bot*%
%TF.FilePolarity,Negative*%
%FSLAX46Y46*%
G04 Gerber Fmt 4.6, Leading zero omitted, Abs format (unit mm)*
G04 Created by KiCad (PCBNEW 10.0.3) date 2026-07-02 03:50:20*
%MOMM*%
%LPD*%
G01*
G04 APERTURE LIST*
G04 Aperture macros list*
%AMRoundRect*
0 Rectangle with rounded corners*
0 $1 Rounding radius*
0 $2 $3 $4 $5 $6 $7 $8 $9 X,Y pos of 4 corners*
0 Add a 4 corners polygon primitive as box body*
4,1,4,$2,$3,$4,$5,$6,$7,$8,$9,$2,$3,0*
0 Add four circle primitives for the rounded corners*
1,1,$1+$1,$2,$3*
1,1,$1+$1,$4,$5*
1,1,$1+$1,$6,$7*
1,1,$1+$1,$8,$9*
0 Add four rect primitives between the rounded corners*
20,1,$1+$1,$2,$3,$4,$5,0*
20,1,$1+$1,$4,$5,$6,$7,0*
20,1,$1+$1,$6,$7,$8,$9,0*
20,1,$1+$1,$8,$9,$2,$3,0*%
G04 Aperture macros list end*
%ADD10RoundRect,0.250000X-0.725000X0.600000X-0.725000X-0.600000X0.725000X-0.600000X0.725000X0.600000X0*%
%ADD11O,1.950000X1.700000*%
%ADD12RoundRect,0.250000X0.725000X-0.600000X0.725000X0.600000X-0.725000X0.600000X-0.725000X-0.600000X0*%
%ADD13C,3.200000*%
%ADD14R,1.400000X1.400000*%
%ADD15C,1.400000*%
%ADD16RoundRect,0.250001X1.099999X-1.099999X1.099999X1.099999X-1.099999X1.099999X-1.099999X-1.099999X0*%
%ADD17C,2.700000*%
%ADD18RoundRect,0.250000X-0.600000X-0.725000X0.600000X-0.725000X0.600000X0.725000X-0.600000X0.725000X0*%
%ADD19O,1.700000X1.950000*%
G04 APERTURE END LIST*
D10*
%TO.C,P203*%
X142000000Y-70000000D03*
D11*
X142000000Y-72500000D03*
X142000000Y-75000000D03*
X142000000Y-77500000D03*
X142000000Y-80000000D03*
X142000000Y-82500000D03*
%TD*%
D12*
%TO.C,P205*%
X38000000Y-66000000D03*
D11*
X38000000Y-63500000D03*
X38000000Y-61000000D03*
%TD*%
D10*
%TO.C,P202*%
X142000000Y-44000000D03*
D11*
X142000000Y-46500000D03*
X142000000Y-49000000D03*
X142000000Y-51500000D03*
X142000000Y-54000000D03*
X142000000Y-56500000D03*
%TD*%
D13*
%TO.C,H3*%
X36000000Y-104000000D03*
%TD*%
D14*
%TO.C,K202*%
X116000000Y-78000000D03*
D15*
X123620000Y-78000000D03*
X128700000Y-78000000D03*
X133780000Y-78000000D03*
X133780000Y-70380000D03*
X128700000Y-70380000D03*
X123620000Y-70380000D03*
X116000000Y-70380000D03*
%TD*%
D16*
%TO.C,P207*%
X38000000Y-84000000D03*
D17*
X38000000Y-80040000D03*
X38000000Y-76080000D03*
X38000000Y-72120000D03*
%TD*%
D14*
%TO.C,K204*%
X116000000Y-94000000D03*
D15*
X123620000Y-94000000D03*
X128700000Y-94000000D03*
X133780000Y-94000000D03*
X133780000Y-86380000D03*
X128700000Y-86380000D03*
X123620000Y-86380000D03*
X116000000Y-86380000D03*
%TD*%
D13*
%TO.C,H2*%
X144000000Y-36000000D03*
%TD*%
D14*
%TO.C,K201*%
X116000000Y-46000000D03*
D15*
X123620000Y-46000000D03*
X128700000Y-46000000D03*
X133780000Y-46000000D03*
X133780000Y-38380000D03*
X128700000Y-38380000D03*
X123620000Y-38380000D03*
X116000000Y-38380000D03*
%TD*%
D18*
%TO.C,P206*%
X56000000Y-102000000D03*
D19*
X58500000Y-102000000D03*
X61000000Y-102000000D03*
X63500000Y-102000000D03*
X66000000Y-102000000D03*
X68500000Y-102000000D03*
X71000000Y-102000000D03*
X73500000Y-102000000D03*
X76000000Y-102000000D03*
X78500000Y-102000000D03*
%TD*%
D12*
%TO.C,P201*%
X38000000Y-50000000D03*
D11*
X38000000Y-47500000D03*
X38000000Y-45000000D03*
%TD*%
D14*
%TO.C,K203*%
X116000000Y-62000000D03*
D15*
X123620000Y-62000000D03*
X128700000Y-62000000D03*
X133780000Y-62000000D03*
X133780000Y-54380000D03*
X128700000Y-54380000D03*
X123620000Y-54380000D03*
X116000000Y-54380000D03*
%TD*%
D18*
%TO.C,P204*%
X92000000Y-102000000D03*
D19*
X94500000Y-102000000D03*
X97000000Y-102000000D03*
%TD*%
D13*
%TO.C,H1*%
X36000000Y-36000000D03*
%TD*%
%TO.C,H4*%
X144000000Y-104000000D03*
%TD*%
M02*
