%TF.GenerationSoftware,KiCad,Pcbnew,10.0.3*%
%TF.CreationDate,2026-07-02T03:50:20-05:00*%
%TF.ProjectId,ext-tank-routing,6578742d-7461-46e6-9b2d-726f7574696e,rev?*%
%TF.SameCoordinates,Original*%
%TF.FileFunction,Paste,Top*%
%TF.FilePolarity,Positive*%
%FSLAX46Y46*%
G04 Gerber Fmt 4.6, Leading zero omitted, Abs format (unit mm)*
G04 Created by KiCad (PCBNEW 10.0.3) date 2026-07-02 03:50:20*
%MOMM*%
%LPD*%
G01*
G04 APERTURE LIST*
G04 Aperture macros list*
%AMRoundRect*
0 Rectangle with rounded corners*
0 $1 Rounding radius*
0 $2 $3 $4 $5 $6 $7 $8 $9 X,Y pos of 4 corners*
0 Add a 4 corners polygon primitive as box body*
4,1,4,$2,$3,$4,$5,$6,$7,$8,$9,$2,$3,0*
0 Add four circle primitives for the rounded corners*
1,1,$1+$1,$2,$3*
1,1,$1+$1,$4,$5*
1,1,$1+$1,$6,$7*
1,1,$1+$1,$8,$9*
0 Add four rect primitives between the rounded corners*
20,1,$1+$1,$2,$3,$4,$5,0*
20,1,$1+$1,$4,$5,$6,$7,0*
20,1,$1+$1,$6,$7,$8,$9,0*
20,1,$1+$1,$8,$9,$2,$3,0*%
G04 Aperture macros list end*
%ADD10RoundRect,0.250000X-0.262500X-0.450000X0.262500X-0.450000X0.262500X0.450000X-0.262500X0.450000X0*%
%ADD11RoundRect,0.225000X-0.225000X-0.375000X0.225000X-0.375000X0.225000X0.375000X-0.225000X0.375000X0*%
%ADD12RoundRect,0.250000X-0.325000X-1.100000X0.325000X-1.100000X0.325000X1.100000X-0.325000X1.100000X0*%
%ADD13RoundRect,0.250000X-0.250000X-0.475000X0.250000X-0.475000X0.250000X0.475000X-0.250000X0.475000X0*%
%ADD14RoundRect,0.150000X-0.825000X-0.150000X0.825000X-0.150000X0.825000X0.150000X-0.825000X0.150000X0*%
G04 APERTURE END LIST*
D10*
%TO.C,R202*%
X49087500Y-40000000D03*
X50912500Y-40000000D03*
%TD*%
%TO.C,R229*%
X73087500Y-90000000D03*
X74912500Y-90000000D03*
%TD*%
%TO.C,R212*%
X84087500Y-52000000D03*
X85912500Y-52000000D03*
%TD*%
%TO.C,R205*%
X81087500Y-40000000D03*
X82912500Y-40000000D03*
%TD*%
%TO.C,R221*%
X93087500Y-90000000D03*
X94912500Y-90000000D03*
%TD*%
%TO.C,R201*%
X93087500Y-40000000D03*
X94912500Y-40000000D03*
%TD*%
D11*
%TO.C,D262*%
X110350000Y-64000000D03*
X113650000Y-64000000D03*
%TD*%
D12*
%TO.C,C294*%
X69525000Y-68000000D03*
X72475000Y-68000000D03*
%TD*%
D13*
%TO.C,C295*%
X77050000Y-68000000D03*
X78950000Y-68000000D03*
%TD*%
D10*
%TO.C,R222*%
X49087500Y-90000000D03*
X50912500Y-90000000D03*
%TD*%
%TO.C,R204*%
X65087500Y-40000000D03*
X66912500Y-40000000D03*
%TD*%
%TO.C,R226*%
X98087500Y-70000000D03*
X99912500Y-70000000D03*
%TD*%
%TO.C,R241*%
X91087500Y-52000000D03*
X92912500Y-52000000D03*
%TD*%
%TO.C,R223*%
X57087500Y-90000000D03*
X58912500Y-90000000D03*
%TD*%
%TO.C,R225*%
X81087500Y-90000000D03*
X82912500Y-90000000D03*
%TD*%
%TO.C,R231*%
X77087500Y-70000000D03*
X78912500Y-70000000D03*
%TD*%
%TO.C,R232*%
X84087500Y-70000000D03*
X85912500Y-70000000D03*
%TD*%
%TO.C,R209*%
X73087500Y-40000000D03*
X74912500Y-40000000D03*
%TD*%
%TO.C,R203*%
X57087500Y-40000000D03*
X58912500Y-40000000D03*
%TD*%
D11*
%TO.C,D261*%
X102350000Y-64000000D03*
X105650000Y-64000000D03*
%TD*%
D13*
%TO.C,C291*%
X49050000Y-68000000D03*
X50950000Y-68000000D03*
%TD*%
D10*
%TO.C,R251*%
X91087500Y-70000000D03*
X92912500Y-70000000D03*
%TD*%
D13*
%TO.C,C292*%
X56050000Y-68000000D03*
X57950000Y-68000000D03*
%TD*%
D10*
%TO.C,R206*%
X98087500Y-52000000D03*
X99912500Y-52000000D03*
%TD*%
D12*
%TO.C,C293*%
X62525000Y-68000000D03*
X65475000Y-68000000D03*
%TD*%
D10*
%TO.C,R224*%
X65087500Y-90000000D03*
X66912500Y-90000000D03*
%TD*%
D14*
%TO.C,U201*%
X63525000Y-56190000D03*
X63525000Y-57460000D03*
X63525000Y-58730000D03*
X63525000Y-60000000D03*
X63525000Y-61270000D03*
X63525000Y-62540000D03*
X63525000Y-63810000D03*
X68475000Y-63810000D03*
X68475000Y-62540000D03*
X68475000Y-61270000D03*
X68475000Y-60000000D03*
X68475000Y-58730000D03*
X68475000Y-57460000D03*
X68475000Y-56190000D03*
%TD*%
D10*
%TO.C,R211*%
X77087500Y-52000000D03*
X78912500Y-52000000D03*
%TD*%
M02*
