%TF.GenerationSoftware,KiCad,Pcbnew,10.0.3*%
%TF.CreationDate,2026-07-02T03:50:19-05:00*%
%TF.ProjectId,ext-tank-routing,6578742d-7461-46e6-9b2d-726f7574696e,rev?*%
%TF.SameCoordinates,Original*%
%TF.FileFunction,Copper,L2,Bot*%
%TF.FilePolarity,Positive*%
%FSLAX46Y46*%
G04 Gerber Fmt 4.6, Leading zero omitted, Abs format (unit mm)*
G04 Created by KiCad (PCBNEW 10.0.3) date 2026-07-02 03:50:19*
%MOMM*%
%LPD*%
G01*
G04 APERTURE LIST*
G04 Aperture macros list*
%AMRoundRect*
0 Rectangle with rounded corners*
0 $1 Rounding radius*
0 $2 $3 $4 $5 $6 $7 $8 $9 X,Y pos of 4 corners*
0 Add a 4 corners polygon primitive as box body*
4,1,4,$2,$3,$4,$5,$6,$7,$8,$9,$2,$3,0*
0 Add four circle primitives for the rounded corners*
1,1,$1+$1,$2,$3*
1,1,$1+$1,$4,$5*
1,1,$1+$1,$6,$7*
1,1,$1+$1,$8,$9*
0 Add four rect primitives between the rounded corners*
20,1,$1+$1,$2,$3,$4,$5,0*
20,1,$1+$1,$4,$5,$6,$7,0*
20,1,$1+$1,$6,$7,$8,$9,0*
20,1,$1+$1,$8,$9,$2,$3,0*%
G04 Aperture macros list end*
%TA.AperFunction,ComponentPad*%
%ADD10RoundRect,0.250000X-0.725000X0.600000X-0.725000X-0.600000X0.725000X-0.600000X0.725000X0.600000X0*%
%TD*%
%TA.AperFunction,ComponentPad*%
%ADD11O,1.950000X1.700000*%
%TD*%
%TA.AperFunction,ComponentPad*%
%ADD12RoundRect,0.250000X0.725000X-0.600000X0.725000X0.600000X-0.725000X0.600000X-0.725000X-0.600000X0*%
%TD*%
%TA.AperFunction,ComponentPad*%
%ADD13R,1.400000X1.400000*%
%TD*%
%TA.AperFunction,ComponentPad*%
%ADD14C,1.400000*%
%TD*%
%TA.AperFunction,ComponentPad*%
%ADD15RoundRect,0.250001X1.099999X-1.099999X1.099999X1.099999X-1.099999X1.099999X-1.099999X-1.099999X0*%
%TD*%
%TA.AperFunction,ComponentPad*%
%ADD16C,2.700000*%
%TD*%
%TA.AperFunction,ComponentPad*%
%ADD17RoundRect,0.250000X-0.600000X-0.725000X0.600000X-0.725000X0.600000X0.725000X-0.600000X0.725000X0*%
%TD*%
%TA.AperFunction,ComponentPad*%
%ADD18O,1.700000X1.950000*%
%TD*%
%TA.AperFunction,ViaPad*%
%ADD19C,0.600000*%
%TD*%
%TA.AperFunction,ViaPad*%
%ADD20C,0.800000*%
%TD*%
%TA.AperFunction,Conductor*%
%ADD21C,0.800000*%
%TD*%
%TA.AperFunction,Conductor*%
%ADD22C,0.200000*%
%TD*%
G04 APERTURE END LIST*
D10*
%TO.P,P203,1*%
%TO.N,SEC_SEND_L*%
X142000000Y-70000000D03*
D11*
%TO.P,P203,2*%
%TO.N,SEC_RET_L*%
X142000000Y-72500000D03*
%TO.P,P203,3*%
%TO.N,AGND*%
X142000000Y-75000000D03*
%TO.P,P203,4*%
%TO.N,SEC_SEND_R*%
X142000000Y-77500000D03*
%TO.P,P203,5*%
%TO.N,SEC_RET_R*%
X142000000Y-80000000D03*
%TO.P,P203,6*%
%TO.N,AGND*%
X142000000Y-82500000D03*
%TD*%
D12*
%TO.P,P205,1*%
%TO.N,FB_RET_L*%
X38000000Y-66000000D03*
D11*
%TO.P,P205,2*%
%TO.N,AGND*%
X38000000Y-63500000D03*
%TO.P,P205,3*%
%TO.N,FB_RET_R*%
X38000000Y-61000000D03*
%TD*%
D10*
%TO.P,P202,1*%
%TO.N,PRI_SEND_L*%
X142000000Y-44000000D03*
D11*
%TO.P,P202,2*%
%TO.N,PRI_RET_L*%
X142000000Y-46500000D03*
%TO.P,P202,3*%
%TO.N,AGND*%
X142000000Y-49000000D03*
%TO.P,P202,4*%
%TO.N,PRI_SEND_R*%
X142000000Y-51500000D03*
%TO.P,P202,5*%
%TO.N,PRI_RET_R*%
X142000000Y-54000000D03*
%TO.P,P202,6*%
%TO.N,AGND*%
X142000000Y-56500000D03*
%TD*%
D13*
%TO.P,K202,1*%
%TO.N,CTL_EXT_MODE_B*%
X116000000Y-78000000D03*
D14*
%TO.P,K202,4*%
%TO.N,SEC_SEL_R*%
X123620000Y-78000000D03*
%TO.P,K202,6*%
%TO.N,PRI_RET_R*%
X128700000Y-78000000D03*
%TO.P,K202,8*%
%TO.N,WET_SEND_R*%
X133780000Y-78000000D03*
%TO.P,K202,9*%
%TO.N,N/C*%
X133780000Y-70380000D03*
%TO.P,K202,11*%
X128700000Y-70380000D03*
%TO.P,K202,13*%
X123620000Y-70380000D03*
%TO.P,K202,16*%
%TO.N,AGND*%
X116000000Y-70380000D03*
%TD*%
D15*
%TO.P,P207,1*%
%TO.N,+15VA*%
X38000000Y-84000000D03*
D16*
%TO.P,P207,2*%
%TO.N,AGND*%
X38000000Y-80040000D03*
%TO.P,P207,3*%
%TO.N,-15VA*%
X38000000Y-76080000D03*
%TO.P,P207,4*%
%TO.N,+5VAUX*%
X38000000Y-72120000D03*
%TD*%
D13*
%TO.P,K204,1*%
%TO.N,CTL_EXT_MODE_A*%
X116000000Y-94000000D03*
D14*
%TO.P,K204,4*%
%TO.N,SEC_DRV_R*%
X123620000Y-94000000D03*
%TO.P,K204,6*%
%TO.N,N/C*%
X128700000Y-94000000D03*
%TO.P,K204,8*%
%TO.N,SEC_SEL_R*%
X133780000Y-94000000D03*
%TO.P,K204,9*%
%TO.N,EXTMIX_R_HI*%
X133780000Y-86380000D03*
%TO.P,K204,11*%
%TO.N,N/C*%
X128700000Y-86380000D03*
%TO.P,K204,13*%
%TO.N,SEC_RET_R*%
X123620000Y-86380000D03*
%TO.P,K204,16*%
%TO.N,AGND*%
X116000000Y-86380000D03*
%TD*%
D13*
%TO.P,K201,1*%
%TO.N,CTL_EXT_MODE_B*%
X116000000Y-46000000D03*
D14*
%TO.P,K201,4*%
%TO.N,SEC_SEL_L*%
X123620000Y-46000000D03*
%TO.P,K201,6*%
%TO.N,PRI_RET_L*%
X128700000Y-46000000D03*
%TO.P,K201,8*%
%TO.N,WET_SEND_L*%
X133780000Y-46000000D03*
%TO.P,K201,9*%
%TO.N,N/C*%
X133780000Y-38380000D03*
%TO.P,K201,11*%
X128700000Y-38380000D03*
%TO.P,K201,13*%
X123620000Y-38380000D03*
%TO.P,K201,16*%
%TO.N,AGND*%
X116000000Y-38380000D03*
%TD*%
D17*
%TO.P,P206,1*%
%TO.N,EXTMIX_L_HI*%
X56000000Y-102000000D03*
D18*
%TO.P,P206,2*%
%TO.N,EXTMIX_L_WIPER*%
X58500000Y-102000000D03*
%TO.P,P206,3*%
%TO.N,AGND*%
X61000000Y-102000000D03*
%TO.P,P206,4*%
%TO.N,EXTMIX_R_HI*%
X63500000Y-102000000D03*
%TO.P,P206,5*%
%TO.N,EXTMIX_R_WIPER*%
X66000000Y-102000000D03*
%TO.P,P206,6*%
%TO.N,AGND*%
X68500000Y-102000000D03*
%TO.P,P206,7*%
%TO.N,+5VAUX*%
X71000000Y-102000000D03*
%TO.P,P206,8*%
%TO.N,AGND*%
X73500000Y-102000000D03*
%TO.P,P206,9*%
%TO.N,CTL_EXT_MODE_A*%
X76000000Y-102000000D03*
%TO.P,P206,10*%
%TO.N,CTL_EXT_MODE_B*%
X78500000Y-102000000D03*
%TD*%
D12*
%TO.P,P201,1*%
%TO.N,WET_SEND_L*%
X38000000Y-50000000D03*
D11*
%TO.P,P201,2*%
%TO.N,AGND*%
X38000000Y-47500000D03*
%TO.P,P201,3*%
%TO.N,WET_SEND_R*%
X38000000Y-45000000D03*
%TD*%
D13*
%TO.P,K203,1*%
%TO.N,CTL_EXT_MODE_A*%
X116000000Y-62000000D03*
D14*
%TO.P,K203,4*%
%TO.N,SEC_DRV_L*%
X123620000Y-62000000D03*
%TO.P,K203,6*%
%TO.N,N/C*%
X128700000Y-62000000D03*
%TO.P,K203,8*%
%TO.N,SEC_SEL_L*%
X133780000Y-62000000D03*
%TO.P,K203,9*%
%TO.N,EXTMIX_L_HI*%
X133780000Y-54380000D03*
%TO.P,K203,11*%
%TO.N,N/C*%
X128700000Y-54380000D03*
%TO.P,K203,13*%
%TO.N,SEC_RET_L*%
X123620000Y-54380000D03*
%TO.P,K203,16*%
%TO.N,AGND*%
X116000000Y-54380000D03*
%TD*%
D17*
%TO.P,P204,1*%
%TO.N,TANK_MIX_L*%
X92000000Y-102000000D03*
D18*
%TO.P,P204,2*%
%TO.N,AGND*%
X94500000Y-102000000D03*
%TO.P,P204,3*%
%TO.N,TANK_MIX_R*%
X97000000Y-102000000D03*
%TD*%
D19*
%TO.N,+15VA*%
X46024900Y-68759300D03*
%TO.N,+5VAUX*%
X72411100Y-70417800D03*
D20*
%TO.N,AGND*%
X115562176Y-38410574D03*
X70832733Y-63488594D03*
X77771649Y-97940354D03*
X52748917Y-67942957D03*
X140151945Y-36682422D03*
X116043029Y-68677831D03*
X106311552Y-74915798D03*
X96850572Y-70200735D03*
X59827907Y-67236059D03*
D19*
%TO.N,CTL_EXT_MODE_B*%
X115794100Y-64440700D03*
%TO.N,EXTMIX_L_HI*%
X66570900Y-54759200D03*
%TO.N,EXTMIX_L_WIPER*%
X60683900Y-38123200D03*
%TO.N,FB_RET_R*%
X52197200Y-87915500D03*
%TO.N,N_SECBUF_L*%
X71192400Y-54898200D03*
X70164800Y-62807500D03*
%TO.N,N_SECFB_L*%
X71723300Y-61795500D03*
X73142500Y-57367300D03*
%TO.N,N_SUM_R_M*%
X63615700Y-87817900D03*
X62734400Y-65164900D03*
%TO.N,N_TMIX_R*%
X63615700Y-64827300D03*
X67647100Y-87822600D03*
%TO.N,PRI_SEND_R*%
X139280400Y-81599200D03*
%TO.N,SEC_DRV_L*%
X72411100Y-52177200D03*
X70520000Y-60052700D03*
%TO.N,SEC_DRV_R*%
X117477900Y-81243000D03*
%TO.N,TANK_MIX_L*%
X82609300Y-41240900D03*
%TO.N,WET_SEND_L*%
X48888500Y-58462500D03*
%TO.N,WET_SEND_R*%
X55133800Y-85165100D03*
%TD*%
%TO.N,+15VA*%
D21*
X38000000Y-84000000D02*
X46024900Y-75975100D01*
X46024900Y-75975100D02*
X46024900Y-68759300D01*
%TO.N,+5VAUX*%
X71000000Y-71828900D02*
X72411100Y-70417800D01*
X71000000Y-102000000D02*
X71000000Y-71828900D01*
%TO.N,CTL_EXT_MODE_A*%
D22*
X117001700Y-81617600D02*
X117001700Y-91996600D01*
X116000000Y-94000000D02*
X116000000Y-92998300D01*
X116876200Y-80993900D02*
X116876200Y-81492100D01*
X116876200Y-81492100D02*
X117001700Y-81617600D01*
X117001700Y-64003400D02*
X117001700Y-80868400D01*
X117001700Y-80868400D02*
X116876200Y-80993900D01*
X116000000Y-62000000D02*
X116000000Y-63001700D01*
X117001700Y-91996600D02*
X116000000Y-92998300D01*
X116000000Y-63001700D02*
X117001700Y-64003400D01*
%TO.N,CTL_EXT_MODE_B*%
X78500000Y-102000000D02*
X79651700Y-102000000D01*
X116000000Y-79001700D02*
X115660800Y-79001700D01*
X114998300Y-75996600D02*
X116000000Y-76998300D01*
X93345700Y-102767300D02*
X92808500Y-103304500D01*
X116000000Y-78500800D02*
X116000000Y-78000000D01*
X116000000Y-46000000D02*
X116000000Y-47001700D01*
X114998300Y-48003400D02*
X114998300Y-64440700D01*
X115660800Y-79001700D02*
X93345700Y-101316800D01*
X114998300Y-64440700D02*
X115794100Y-64440700D01*
X92808500Y-103304500D02*
X80956200Y-103304500D01*
X93345700Y-101316800D02*
X93345700Y-102767300D01*
X114998300Y-64440700D02*
X114998300Y-75996600D01*
X80956200Y-103304500D02*
X79651700Y-102000000D01*
X116000000Y-78500800D02*
X116000000Y-79001700D01*
X116000000Y-78000000D02*
X116000000Y-76998300D01*
X116000000Y-47001700D02*
X114998300Y-48003400D01*
%TO.N,EXTMIX_L_HI*%
X56000000Y-65330100D02*
X56000000Y-102000000D01*
X66570900Y-54759200D02*
X56000000Y-65330100D01*
%TO.N,EXTMIX_L_WIPER*%
X58500000Y-66502500D02*
X58500000Y-102000000D01*
X67193300Y-57809200D02*
X58500000Y-66502500D01*
X60683900Y-38123200D02*
X67193300Y-44632600D01*
X67193300Y-44632600D02*
X67193300Y-57809200D01*
%TO.N,FB_RET_R*%
X38000000Y-61000000D02*
X39315300Y-61000000D01*
X52197200Y-73881900D02*
X52197200Y-87915500D01*
X39315300Y-61000000D02*
X52197200Y-73881900D01*
%TO.N,N_SECBUF_L*%
X69918300Y-56172300D02*
X69918300Y-62561000D01*
X69918300Y-62561000D02*
X70164800Y-62807500D01*
X71192400Y-54898200D02*
X69918300Y-56172300D01*
%TO.N,N_SECFB_L*%
X71723300Y-61795500D02*
X73142500Y-60376300D01*
X73142500Y-60376300D02*
X73142500Y-57367300D01*
%TO.N,N_SUM_R_M*%
X63615700Y-87817900D02*
X62734400Y-86936600D01*
X62734400Y-86936600D02*
X62734400Y-65164900D01*
%TO.N,N_TMIX_R*%
X67647100Y-68858700D02*
X67647100Y-87822600D01*
X63615700Y-64827300D02*
X67647100Y-68858700D01*
%TO.N,PRI_RET_R*%
X135323300Y-61396500D02*
X135323300Y-71376700D01*
X142000000Y-54000000D02*
X142000000Y-55151700D01*
X135323300Y-71376700D02*
X128700000Y-78000000D01*
X142000000Y-55151700D02*
X141568100Y-55151700D01*
X141568100Y-55151700D02*
X135323300Y-61396500D01*
%TO.N,PRI_SEND_R*%
X142431900Y-52651700D02*
X143312900Y-53532700D01*
X143312900Y-53532700D02*
X143312900Y-65352200D01*
X143312900Y-65352200D02*
X139280400Y-69384700D01*
X142000000Y-51500000D02*
X142000000Y-52651700D01*
X142000000Y-52651700D02*
X142431900Y-52651700D01*
X139280400Y-69384700D02*
X139280400Y-81599200D01*
%TO.N,SEC_DRV_L*%
X72411100Y-58161600D02*
X72411100Y-52177200D01*
X70520000Y-60052700D02*
X72411100Y-58161600D01*
%TO.N,SEC_DRV_R*%
X123620000Y-94000000D02*
X117477900Y-87857900D01*
X117477900Y-87857900D02*
X117477900Y-81243000D01*
%TO.N,SEC_SEL_L*%
X133780000Y-56160000D02*
X133780000Y-62000000D01*
X123620000Y-46000000D02*
X133780000Y-56160000D01*
%TO.N,SEC_SEL_R*%
X133780000Y-88160000D02*
X123620000Y-78000000D01*
X133780000Y-94000000D02*
X133780000Y-88160000D01*
%TO.N,TANK_MIX_L*%
X92000000Y-50631600D02*
X92000000Y-102000000D01*
X82609300Y-41240900D02*
X92000000Y-50631600D01*
%TO.N,WET_SEND_L*%
X48888500Y-58462500D02*
X46462500Y-58462500D01*
X46462500Y-58462500D02*
X38000000Y-50000000D01*
%TO.N,WET_SEND_R*%
X38000000Y-46151700D02*
X38431900Y-46151700D01*
X38000000Y-45000000D02*
X38000000Y-46151700D01*
X38431900Y-46151700D02*
X55133800Y-62853600D01*
X55133800Y-62853600D02*
X55133800Y-85165100D01*
%TD*%
%TA.AperFunction,Conductor*%
%TO.N,AGND*%
G36*
X116420534Y-64907437D02*
G01*
X116476467Y-64949309D01*
X116500884Y-65014773D01*
X116501200Y-65023619D01*
X116501200Y-76492324D01*
X116481515Y-76559363D01*
X116428711Y-76605118D01*
X116359553Y-76615062D01*
X116295997Y-76586037D01*
X116289519Y-76580005D01*
X115535119Y-75825605D01*
X115501634Y-75764282D01*
X115498800Y-75737924D01*
X115498800Y-65247279D01*
X115518485Y-65180240D01*
X115571289Y-65134485D01*
X115640447Y-65124541D01*
X115646992Y-65125662D01*
X115725104Y-65141200D01*
X115725107Y-65141200D01*
X115863095Y-65141200D01*
X115954141Y-65123089D01*
X115998428Y-65114280D01*
X116125911Y-65061475D01*
X116240642Y-64984814D01*
X116264889Y-64960567D01*
X116289519Y-64935938D01*
X116350842Y-64902453D01*
X116420534Y-64907437D01*
G37*
%TD.AperFunction*%
%TA.AperFunction,Conductor*%
G36*
X148943039Y-31019685D02*
G01*
X148988794Y-31072489D01*
X149000000Y-31124000D01*
X149000000Y-108876000D01*
X148980315Y-108943039D01*
X148927511Y-108988794D01*
X148876000Y-109000000D01*
X31124000Y-109000000D01*
X31056961Y-108980315D01*
X31011206Y-108927511D01*
X31000000Y-108876000D01*
X31000000Y-103878711D01*
X34149500Y-103878711D01*
X34149500Y-104121288D01*
X34181161Y-104361785D01*
X34243947Y-104596104D01*
X34336773Y-104820205D01*
X34336776Y-104820212D01*
X34458064Y-105030289D01*
X34458066Y-105030292D01*
X34458067Y-105030293D01*
X34605733Y-105222736D01*
X34605739Y-105222743D01*
X34777256Y-105394260D01*
X34777262Y-105394265D01*
X34969711Y-105541936D01*
X35179788Y-105663224D01*
X35403900Y-105756054D01*
X35638211Y-105818838D01*
X35818586Y-105842584D01*
X35878711Y-105850500D01*
X35878712Y-105850500D01*
X36121289Y-105850500D01*
X36169388Y-105844167D01*
X36361789Y-105818838D01*
X36596100Y-105756054D01*
X36820212Y-105663224D01*
X37030289Y-105541936D01*
X37222738Y-105394265D01*
X37394265Y-105222738D01*
X37541936Y-105030289D01*
X37663224Y-104820212D01*
X37756054Y-104596100D01*
X37818838Y-104361789D01*
X37850500Y-104121288D01*
X37850500Y-103878712D01*
X37850500Y-103878711D01*
X142149500Y-103878711D01*
X142149500Y-104121288D01*
X142181161Y-104361785D01*
X142243947Y-104596104D01*
X142336773Y-104820205D01*
X142336776Y-104820212D01*
X142458064Y-105030289D01*
X142458066Y-105030292D01*
X142458067Y-105030293D01*
X142605733Y-105222736D01*
X142605739Y-105222743D01*
X142777256Y-105394260D01*
X142777262Y-105394265D01*
X142969711Y-105541936D01*
X143179788Y-105663224D01*
X143403900Y-105756054D01*
X143638211Y-105818838D01*
X143818586Y-105842584D01*
X143878711Y-105850500D01*
X143878712Y-105850500D01*
X144121289Y-105850500D01*
X144169388Y-105844167D01*
X144361789Y-105818838D01*
X144596100Y-105756054D01*
X144820212Y-105663224D01*
X145030289Y-105541936D01*
X145222738Y-105394265D01*
X145394265Y-105222738D01*
X145541936Y-105030289D01*
X145663224Y-104820212D01*
X145756054Y-104596100D01*
X145818838Y-104361789D01*
X145850500Y-104121288D01*
X145850500Y-103878712D01*
X145818838Y-103638211D01*
X145756054Y-103403900D01*
X145663224Y-103179788D01*
X145541936Y-102969711D01*
X145432865Y-102827567D01*
X145394266Y-102777263D01*
X145394260Y-102777256D01*
X145222743Y-102605739D01*
X145222736Y-102605733D01*
X145030293Y-102458067D01*
X145030292Y-102458066D01*
X145030289Y-102458064D01*
X144820212Y-102336776D01*
X144820205Y-102336773D01*
X144596104Y-102243947D01*
X144361785Y-102181161D01*
X144121289Y-102149500D01*
X144121288Y-102149500D01*
X143878712Y-102149500D01*
X143878711Y-102149500D01*
X143638214Y-102181161D01*
X143403895Y-102243947D01*
X143179794Y-102336773D01*
X143179785Y-102336777D01*
X142969706Y-102458067D01*
X142777263Y-102605733D01*
X142777256Y-102605739D01*
X142605739Y-102777256D01*
X142605733Y-102777263D01*
X142458067Y-102969706D01*
X142336777Y-103179785D01*
X142336773Y-103179794D01*
X142243947Y-103403895D01*
X142181161Y-103638214D01*
X142149500Y-103878711D01*
X37850500Y-103878711D01*
X37818838Y-103638211D01*
X37756054Y-103403900D01*
X37663224Y-103179788D01*
X37541936Y-102969711D01*
X37432865Y-102827567D01*
X37394266Y-102777263D01*
X37394260Y-102777256D01*
X37222743Y-102605739D01*
X37222736Y-102605733D01*
X37030293Y-102458067D01*
X37030292Y-102458066D01*
X37030289Y-102458064D01*
X36820212Y-102336776D01*
X36820205Y-102336773D01*
X36596104Y-102243947D01*
X36361785Y-102181161D01*
X36121289Y-102149500D01*
X36121288Y-102149500D01*
X35878712Y-102149500D01*
X35878711Y-102149500D01*
X35638214Y-102181161D01*
X35403895Y-102243947D01*
X35179794Y-102336773D01*
X35179785Y-102336777D01*
X34969706Y-102458067D01*
X34777263Y-102605733D01*
X34777256Y-102605739D01*
X34605739Y-102777256D01*
X34605733Y-102777263D01*
X34458067Y-102969706D01*
X34336777Y-103179785D01*
X34336773Y-103179794D01*
X34243947Y-103403895D01*
X34181161Y-103638214D01*
X34149500Y-103878711D01*
X31000000Y-103878711D01*
X31000000Y-82834298D01*
X36249500Y-82834298D01*
X36249500Y-85165701D01*
X36252401Y-85202567D01*
X36252402Y-85202573D01*
X36298253Y-85360392D01*
X36298255Y-85360395D01*
X36298256Y-85360397D01*
X36303597Y-85369428D01*
X36381917Y-85501861D01*
X36381923Y-85501869D01*
X36498130Y-85618076D01*
X36498134Y-85618079D01*
X36498136Y-85618081D01*
X36639603Y-85701744D01*
X36639604Y-85701744D01*
X36639607Y-85701746D01*
X36797426Y-85747597D01*
X36797429Y-85747597D01*
X36797431Y-85747598D01*
X36834306Y-85750500D01*
X36834314Y-85750500D01*
X39165686Y-85750500D01*
X39165694Y-85750500D01*
X39202569Y-85747598D01*
X39202571Y-85747597D01*
X39202573Y-85747597D01*
X39360392Y-85701746D01*
X39360393Y-85701745D01*
X39360397Y-85701744D01*
X39501864Y-85618081D01*
X39618081Y-85501864D01*
X39701744Y-85360397D01*
X39701745Y-85360393D01*
X39701746Y-85360392D01*
X39747597Y-85202573D01*
X39747598Y-85202567D01*
X39750499Y-85165701D01*
X39750500Y-85165694D01*
X39750500Y-83432940D01*
X39770185Y-83365901D01*
X39786819Y-83345259D01*
X46646686Y-76485392D01*
X46646688Y-76485390D01*
X46661654Y-76462992D01*
X46734294Y-76354279D01*
X46794637Y-76208597D01*
X46825400Y-76053942D01*
X46825400Y-69517276D01*
X46845085Y-69450237D01*
X46897889Y-69404482D01*
X46967047Y-69394538D01*
X47030603Y-69423563D01*
X47037081Y-69429595D01*
X51660381Y-74052895D01*
X51693866Y-74114218D01*
X51696700Y-74140576D01*
X51696700Y-87373981D01*
X51677015Y-87441020D01*
X51660381Y-87461662D01*
X51653088Y-87468954D01*
X51653085Y-87468958D01*
X51576428Y-87583682D01*
X51576421Y-87583695D01*
X51523621Y-87711167D01*
X51523618Y-87711177D01*
X51496700Y-87846504D01*
X51496700Y-87846507D01*
X51496700Y-87984493D01*
X51496700Y-87984495D01*
X51496699Y-87984495D01*
X51523618Y-88119822D01*
X51523621Y-88119832D01*
X51576421Y-88247304D01*
X51576428Y-88247317D01*
X51653085Y-88362041D01*
X51653088Y-88362045D01*
X51750654Y-88459611D01*
X51750658Y-88459614D01*
X51865382Y-88536271D01*
X51865395Y-88536278D01*
X51992867Y-88589078D01*
X51992872Y-88589080D01*
X51992876Y-88589080D01*
X51992877Y-88589081D01*
X52128204Y-88616000D01*
X52128207Y-88616000D01*
X52266195Y-88616000D01*
X52396832Y-88590014D01*
X52401528Y-88589080D01*
X52529011Y-88536275D01*
X52643742Y-88459614D01*
X52741314Y-88362042D01*
X52817975Y-88247311D01*
X52870780Y-88119828D01*
X52879589Y-88075541D01*
X52897700Y-87984495D01*
X52897700Y-87846504D01*
X52870781Y-87711177D01*
X52870780Y-87711176D01*
X52870780Y-87711172D01*
X52824410Y-87599224D01*
X52817978Y-87583695D01*
X52817971Y-87583682D01*
X52741314Y-87468958D01*
X52741311Y-87468954D01*
X52734019Y-87461662D01*
X52700534Y-87400339D01*
X52697700Y-87373981D01*
X52697700Y-73816010D01*
X52697700Y-73816008D01*
X52663592Y-73688714D01*
X52597700Y-73574586D01*
X52504514Y-73481400D01*
X39622614Y-60599500D01*
X39565550Y-60566554D01*
X39508487Y-60533608D01*
X39444839Y-60516554D01*
X39381192Y-60499500D01*
X39381191Y-60499500D01*
X39349440Y-60499500D01*
X39282401Y-60479815D01*
X39238955Y-60431795D01*
X39194523Y-60344594D01*
X39078828Y-60185354D01*
X38939646Y-60046172D01*
X38780405Y-59930476D01*
X38605029Y-59841117D01*
X38417826Y-59780290D01*
X38223422Y-59749500D01*
X38223417Y-59749500D01*
X37776583Y-59749500D01*
X37776578Y-59749500D01*
X37582173Y-59780290D01*
X37394970Y-59841117D01*
X37219594Y-59930476D01*
X37128741Y-59996485D01*
X37060354Y-60046172D01*
X37060352Y-60046174D01*
X37060351Y-60046174D01*
X36921174Y-60185351D01*
X36921174Y-60185352D01*
X36921172Y-60185354D01*
X36906677Y-60205305D01*
X36805476Y-60344594D01*
X36716117Y-60519970D01*
X36655290Y-60707173D01*
X36624500Y-60901577D01*
X36624500Y-61098422D01*
X36655290Y-61292826D01*
X36716117Y-61480029D01*
X36772750Y-61591177D01*
X36805476Y-61655405D01*
X36921172Y-61814646D01*
X37060354Y-61953828D01*
X37219595Y-62069524D01*
X37302455Y-62111743D01*
X37394970Y-62158882D01*
X37394972Y-62158882D01*
X37394975Y-62158884D01*
X37495317Y-62191487D01*
X37582173Y-62219709D01*
X37776578Y-62250500D01*
X37776583Y-62250500D01*
X38223422Y-62250500D01*
X38417826Y-62219709D01*
X38605025Y-62158884D01*
X38780405Y-62069524D01*
X38939646Y-61953828D01*
X39078828Y-61814646D01*
X39137956Y-61733262D01*
X39193284Y-61690598D01*
X39262898Y-61684619D01*
X39324693Y-61717224D01*
X39325954Y-61718468D01*
X45545877Y-67938391D01*
X45579362Y-67999714D01*
X45574378Y-68069406D01*
X45532506Y-68125339D01*
X45527089Y-68129173D01*
X45514609Y-68137511D01*
X45403113Y-68249007D01*
X45403110Y-68249011D01*
X45315509Y-68380114D01*
X45315502Y-68380127D01*
X45255164Y-68525798D01*
X45255161Y-68525810D01*
X45224400Y-68680453D01*
X45224400Y-75592160D01*
X45204715Y-75659199D01*
X45188081Y-75679841D01*
X38654741Y-82213181D01*
X38593418Y-82246666D01*
X38567060Y-82249500D01*
X36834298Y-82249500D01*
X36797432Y-82252401D01*
X36797426Y-82252402D01*
X36639607Y-82298253D01*
X36639604Y-82298255D01*
X36498138Y-82381917D01*
X36498130Y-82381923D01*
X36381923Y-82498130D01*
X36381917Y-82498138D01*
X36298255Y-82639604D01*
X36298253Y-82639607D01*
X36252402Y-82797426D01*
X36252401Y-82797432D01*
X36249500Y-82834298D01*
X31000000Y-82834298D01*
X31000000Y-75965258D01*
X36249500Y-75965258D01*
X36249500Y-76194741D01*
X36274446Y-76384215D01*
X36279452Y-76422238D01*
X36338842Y-76643887D01*
X36426650Y-76855876D01*
X36426656Y-76855888D01*
X36521388Y-77019970D01*
X36541392Y-77054617D01*
X36681081Y-77236661D01*
X36681089Y-77236670D01*
X36843330Y-77398911D01*
X36843338Y-77398918D01*
X37025382Y-77538607D01*
X37025385Y-77538608D01*
X37025388Y-77538611D01*
X37224112Y-77653344D01*
X37224117Y-77653346D01*
X37224123Y-77653349D01*
X37248157Y-77663304D01*
X37436113Y-77741158D01*
X37657762Y-77800548D01*
X37885266Y-77830500D01*
X37885273Y-77830500D01*
X38114727Y-77830500D01*
X38114734Y-77830500D01*
X38342238Y-77800548D01*
X38563887Y-77741158D01*
X38775888Y-77653344D01*
X38974612Y-77538611D01*
X39156661Y-77398919D01*
X39156665Y-77398914D01*
X39156670Y-77398911D01*
X39318911Y-77236670D01*
X39318914Y-77236665D01*
X39318919Y-77236661D01*
X39458611Y-77054612D01*
X39573344Y-76855888D01*
X39661158Y-76643887D01*
X39720548Y-76422238D01*
X39750500Y-76194734D01*
X39750500Y-75965266D01*
X39720548Y-75737762D01*
X39661158Y-75516113D01*
X39573344Y-75304112D01*
X39458611Y-75105388D01*
X39458608Y-75105385D01*
X39458607Y-75105382D01*
X39318918Y-74923338D01*
X39318911Y-74923330D01*
X39156670Y-74761089D01*
X39156661Y-74761081D01*
X38974617Y-74621392D01*
X38775890Y-74506657D01*
X38775876Y-74506650D01*
X38563887Y-74418842D01*
X38342238Y-74359452D01*
X38304215Y-74354446D01*
X38114741Y-74329500D01*
X38114734Y-74329500D01*
X37885266Y-74329500D01*
X37885258Y-74329500D01*
X37668715Y-74358009D01*
X37657762Y-74359452D01*
X37564076Y-74384554D01*
X37436112Y-74418842D01*
X37224123Y-74506650D01*
X37224109Y-74506657D01*
X37025382Y-74621392D01*
X36843338Y-74761081D01*
X36681081Y-74923338D01*
X36541392Y-75105382D01*
X36426657Y-75304109D01*
X36426650Y-75304123D01*
X36338842Y-75516112D01*
X36279453Y-75737759D01*
X36279451Y-75737770D01*
X36249500Y-75965258D01*
X31000000Y-75965258D01*
X31000000Y-72005258D01*
X36249500Y-72005258D01*
X36249500Y-72234741D01*
X36271466Y-72401577D01*
X36279452Y-72462238D01*
X36279453Y-72462240D01*
X36338842Y-72683887D01*
X36426650Y-72895876D01*
X36426657Y-72895890D01*
X36541392Y-73094617D01*
X36681081Y-73276661D01*
X36681089Y-73276670D01*
X36843330Y-73438911D01*
X36843338Y-73438918D01*
X37025382Y-73578607D01*
X37025385Y-73578608D01*
X37025388Y-73578611D01*
X37224112Y-73693344D01*
X37224117Y-73693346D01*
X37224123Y-73693349D01*
X37315480Y-73731190D01*
X37436113Y-73781158D01*
X37657762Y-73840548D01*
X37885266Y-73870500D01*
X37885273Y-73870500D01*
X38114727Y-73870500D01*
X38114734Y-73870500D01*
X38342238Y-73840548D01*
X38563887Y-73781158D01*
X38775888Y-73693344D01*
X38974612Y-73578611D01*
X39156661Y-73438919D01*
X39156665Y-73438914D01*
X39156670Y-73438911D01*
X39318911Y-73276670D01*
X39318914Y-73276665D01*
X39318919Y-73276661D01*
X39458611Y-73094612D01*
X39573344Y-72895888D01*
X39661158Y-72683887D01*
X39720548Y-72462238D01*
X39750500Y-72234734D01*
X39750500Y-72005266D01*
X39720548Y-71777762D01*
X39661158Y-71556113D01*
X39609117Y-71430476D01*
X39573349Y-71344123D01*
X39573346Y-71344117D01*
X39573344Y-71344112D01*
X39458611Y-71145388D01*
X39458608Y-71145385D01*
X39458607Y-71145382D01*
X39318918Y-70963338D01*
X39318911Y-70963330D01*
X39156670Y-70801089D01*
X39156661Y-70801081D01*
X38974617Y-70661392D01*
X38775890Y-70546657D01*
X38775876Y-70546650D01*
X38563887Y-70458842D01*
X38342238Y-70399452D01*
X38304215Y-70394446D01*
X38114741Y-70369500D01*
X38114734Y-70369500D01*
X37885266Y-70369500D01*
X37885258Y-70369500D01*
X37668715Y-70398009D01*
X37657762Y-70399452D01*
X37564076Y-70424554D01*
X37436112Y-70458842D01*
X37224123Y-70546650D01*
X37224109Y-70546657D01*
X37025382Y-70661392D01*
X36843338Y-70801081D01*
X36681081Y-70963338D01*
X36541392Y-71145382D01*
X36426657Y-71344109D01*
X36426650Y-71344123D01*
X36338842Y-71556112D01*
X36279453Y-71777759D01*
X36279451Y-71777770D01*
X36249500Y-72005258D01*
X31000000Y-72005258D01*
X31000000Y-65334298D01*
X36624500Y-65334298D01*
X36624500Y-66665701D01*
X36627401Y-66702567D01*
X36627402Y-66702573D01*
X36673254Y-66860393D01*
X36673255Y-66860396D01*
X36756917Y-67001862D01*
X36756923Y-67001870D01*
X36873129Y-67118076D01*
X36873133Y-67118079D01*
X36873135Y-67118081D01*
X37014602Y-67201744D01*
X37056224Y-67213836D01*
X37172426Y-67247597D01*
X37172429Y-67247597D01*
X37172431Y-67247598D01*
X37209306Y-67250500D01*
X37209314Y-67250500D01*
X38790686Y-67250500D01*
X38790694Y-67250500D01*
X38827569Y-67247598D01*
X38827571Y-67247597D01*
X38827573Y-67247597D01*
X38869191Y-67235505D01*
X38985398Y-67201744D01*
X39126865Y-67118081D01*
X39243081Y-67001865D01*
X39326744Y-66860398D01*
X39372598Y-66702569D01*
X39375500Y-66665694D01*
X39375500Y-65334306D01*
X39372598Y-65297431D01*
X39369366Y-65286308D01*
X39338551Y-65180240D01*
X39326744Y-65139602D01*
X39243081Y-64998135D01*
X39243079Y-64998133D01*
X39243076Y-64998129D01*
X39126870Y-64881923D01*
X39126862Y-64881917D01*
X39044286Y-64833082D01*
X38985398Y-64798256D01*
X38985397Y-64798255D01*
X38985396Y-64798255D01*
X38985393Y-64798254D01*
X38827573Y-64752402D01*
X38827567Y-64752401D01*
X38790701Y-64749500D01*
X38790694Y-64749500D01*
X37209306Y-64749500D01*
X37209298Y-64749500D01*
X37172432Y-64752401D01*
X37172426Y-64752402D01*
X37014606Y-64798254D01*
X37014603Y-64798255D01*
X36873137Y-64881917D01*
X36873129Y-64881923D01*
X36756923Y-64998129D01*
X36756917Y-64998137D01*
X36673255Y-65139603D01*
X36673254Y-65139606D01*
X36627402Y-65297426D01*
X36627401Y-65297432D01*
X36624500Y-65334298D01*
X31000000Y-65334298D01*
X31000000Y-44901577D01*
X36624500Y-44901577D01*
X36624500Y-45098422D01*
X36655290Y-45292826D01*
X36716117Y-45480029D01*
X36805476Y-45655405D01*
X36921172Y-45814646D01*
X37060354Y-45953828D01*
X37219595Y-46069524D01*
X37394975Y-46158884D01*
X37394977Y-46158884D01*
X37394980Y-46158886D01*
X37428204Y-46169681D01*
X37485880Y-46209117D01*
X37509662Y-46255518D01*
X37533608Y-46344886D01*
X37599500Y-46459014D01*
X37692686Y-46552200D01*
X37806814Y-46618092D01*
X37934108Y-46652200D01*
X38065892Y-46652200D01*
X38173224Y-46652200D01*
X38240263Y-46671885D01*
X38260905Y-46688519D01*
X49138923Y-57566537D01*
X49172408Y-57627860D01*
X49167424Y-57697552D01*
X49125552Y-57753485D01*
X49060088Y-57777902D01*
X49027051Y-57775835D01*
X48957497Y-57762000D01*
X48957493Y-57762000D01*
X48819507Y-57762000D01*
X48819505Y-57762000D01*
X48684177Y-57788918D01*
X48684167Y-57788921D01*
X48556695Y-57841721D01*
X48556682Y-57841728D01*
X48441958Y-57918385D01*
X48441954Y-57918388D01*
X48434662Y-57925681D01*
X48373339Y-57959166D01*
X48346981Y-57962000D01*
X46721175Y-57962000D01*
X46654136Y-57942315D01*
X46633494Y-57925681D01*
X39411819Y-50704005D01*
X39378334Y-50642682D01*
X39375500Y-50616324D01*
X39375500Y-49334313D01*
X39375499Y-49334298D01*
X39372598Y-49297432D01*
X39372597Y-49297426D01*
X39326745Y-49139606D01*
X39326744Y-49139603D01*
X39326744Y-49139602D01*
X39243081Y-48998135D01*
X39243079Y-48998133D01*
X39243076Y-48998129D01*
X39126870Y-48881923D01*
X39126862Y-48881917D01*
X38985396Y-48798255D01*
X38985393Y-48798254D01*
X38827573Y-48752402D01*
X38827567Y-48752401D01*
X38790701Y-48749500D01*
X38790694Y-48749500D01*
X37209306Y-48749500D01*
X37209298Y-48749500D01*
X37172432Y-48752401D01*
X37172426Y-48752402D01*
X37014606Y-48798254D01*
X37014603Y-48798255D01*
X36873137Y-48881917D01*
X36873129Y-48881923D01*
X36756923Y-48998129D01*
X36756917Y-48998137D01*
X36673255Y-49139603D01*
X36673254Y-49139606D01*
X36627402Y-49297426D01*
X36627401Y-49297432D01*
X36624500Y-49334298D01*
X36624500Y-50665701D01*
X36627401Y-50702567D01*
X36627402Y-50702573D01*
X36673254Y-50860393D01*
X36673255Y-50860396D01*
X36756917Y-51001862D01*
X36756923Y-51001870D01*
X36873129Y-51118076D01*
X36873133Y-51118079D01*
X36873135Y-51118081D01*
X37014602Y-51201744D01*
X37033289Y-51207173D01*
X37172426Y-51247597D01*
X37172429Y-51247597D01*
X37172431Y-51247598D01*
X37209306Y-51250500D01*
X38491324Y-51250500D01*
X38558363Y-51270185D01*
X38579005Y-51286819D01*
X46057659Y-58765472D01*
X46057669Y-58765483D01*
X46061999Y-58769813D01*
X46062000Y-58769814D01*
X46155186Y-58863000D01*
X46234931Y-58909041D01*
X46234933Y-58909042D01*
X46234934Y-58909043D01*
X46269308Y-58928889D01*
X46269309Y-58928889D01*
X46269314Y-58928892D01*
X46396607Y-58963000D01*
X46396608Y-58963000D01*
X48346981Y-58963000D01*
X48414020Y-58982685D01*
X48434662Y-58999319D01*
X48441954Y-59006611D01*
X48441958Y-59006614D01*
X48556682Y-59083271D01*
X48556695Y-59083278D01*
X48684167Y-59136078D01*
X48684172Y-59136080D01*
X48684176Y-59136080D01*
X48684177Y-59136081D01*
X48819504Y-59163000D01*
X48819507Y-59163000D01*
X48957495Y-59163000D01*
X49048541Y-59144889D01*
X49092828Y-59136080D01*
X49220311Y-59083275D01*
X49335042Y-59006614D01*
X49432614Y-58909042D01*
X49509275Y-58794311D01*
X49562080Y-58666828D01*
X49589000Y-58531493D01*
X49589000Y-58393507D01*
X49589000Y-58393504D01*
X49575164Y-58323949D01*
X49581391Y-58254357D01*
X49624254Y-58199180D01*
X49690143Y-58175935D01*
X49758140Y-58192002D01*
X49784462Y-58212076D01*
X54596981Y-63024595D01*
X54630466Y-63085918D01*
X54633300Y-63112276D01*
X54633300Y-84623581D01*
X54613615Y-84690620D01*
X54596981Y-84711262D01*
X54589688Y-84718554D01*
X54589685Y-84718558D01*
X54513028Y-84833282D01*
X54513021Y-84833295D01*
X54460221Y-84960767D01*
X54460218Y-84960777D01*
X54433300Y-85096104D01*
X54433300Y-85096107D01*
X54433300Y-85234093D01*
X54433300Y-85234095D01*
X54433299Y-85234095D01*
X54460218Y-85369422D01*
X54460221Y-85369432D01*
X54513021Y-85496904D01*
X54513028Y-85496917D01*
X54589685Y-85611641D01*
X54589688Y-85611645D01*
X54687254Y-85709211D01*
X54687258Y-85709214D01*
X54801982Y-85785871D01*
X54801995Y-85785878D01*
X54929467Y-85838678D01*
X54929472Y-85838680D01*
X54929476Y-85838680D01*
X54929477Y-85838681D01*
X55064804Y-85865600D01*
X55064807Y-85865600D01*
X55202795Y-85865600D01*
X55338113Y-85838683D01*
X55338113Y-85838682D01*
X55338128Y-85838680D01*
X55338141Y-85838674D01*
X55339488Y-85838266D01*
X55340245Y-85838259D01*
X55344102Y-85837492D01*
X55344247Y-85838222D01*
X55409355Y-85837633D01*
X55468473Y-85874873D01*
X55498073Y-85938163D01*
X55499500Y-85956922D01*
X55499500Y-100500500D01*
X55479815Y-100567539D01*
X55427011Y-100613294D01*
X55375500Y-100624500D01*
X55334298Y-100624500D01*
X55297432Y-100627401D01*
X55297426Y-100627402D01*
X55139606Y-100673254D01*
X55139603Y-100673255D01*
X54998137Y-100756917D01*
X54998129Y-100756923D01*
X54881923Y-100873129D01*
X54881917Y-100873137D01*
X54798255Y-101014603D01*
X54798254Y-101014606D01*
X54752402Y-101172426D01*
X54752401Y-101172432D01*
X54749500Y-101209298D01*
X54749500Y-102790701D01*
X54752401Y-102827567D01*
X54752402Y-102827573D01*
X54798254Y-102985393D01*
X54798255Y-102985396D01*
X54881917Y-103126862D01*
X54881923Y-103126870D01*
X54998129Y-103243076D01*
X54998133Y-103243079D01*
X54998135Y-103243081D01*
X55139602Y-103326744D01*
X55181224Y-103338836D01*
X55297426Y-103372597D01*
X55297429Y-103372597D01*
X55297431Y-103372598D01*
X55334306Y-103375500D01*
X55334314Y-103375500D01*
X56665686Y-103375500D01*
X56665694Y-103375500D01*
X56702569Y-103372598D01*
X56702571Y-103372597D01*
X56702573Y-103372597D01*
X56744191Y-103360505D01*
X56860398Y-103326744D01*
X57001865Y-103243081D01*
X57118081Y-103126865D01*
X57201744Y-102985398D01*
X57239009Y-102857133D01*
X57276615Y-102798247D01*
X57340087Y-102769041D01*
X57409274Y-102778787D01*
X57458401Y-102818840D01*
X57546172Y-102939646D01*
X57685354Y-103078828D01*
X57844595Y-103194524D01*
X57927455Y-103236743D01*
X58019970Y-103283882D01*
X58019972Y-103283882D01*
X58019975Y-103283884D01*
X58120317Y-103316487D01*
X58207173Y-103344709D01*
X58401578Y-103375500D01*
X58401583Y-103375500D01*
X58598422Y-103375500D01*
X58792826Y-103344709D01*
X58848116Y-103326744D01*
X58980025Y-103283884D01*
X59155405Y-103194524D01*
X59314646Y-103078828D01*
X59453828Y-102939646D01*
X59569524Y-102780405D01*
X59658884Y-102605025D01*
X59719709Y-102417826D01*
X59732546Y-102336776D01*
X59750500Y-102223422D01*
X59750500Y-101776577D01*
X62249500Y-101776577D01*
X62249500Y-102223422D01*
X62280290Y-102417826D01*
X62341117Y-102605029D01*
X62428875Y-102777262D01*
X62430476Y-102780405D01*
X62546172Y-102939646D01*
X62685354Y-103078828D01*
X62844595Y-103194524D01*
X62927455Y-103236743D01*
X63019970Y-103283882D01*
X63019972Y-103283882D01*
X63019975Y-103283884D01*
X63120317Y-103316487D01*
X63207173Y-103344709D01*
X63401578Y-103375500D01*
X63401583Y-103375500D01*
X63598422Y-103375500D01*
X63792826Y-103344709D01*
X63848116Y-103326744D01*
X63980025Y-103283884D01*
X64155405Y-103194524D01*
X64314646Y-103078828D01*
X64453828Y-102939646D01*
X64569524Y-102780405D01*
X64639515Y-102643038D01*
X64687489Y-102592243D01*
X64755310Y-102575448D01*
X64821445Y-102597985D01*
X64860484Y-102643038D01*
X64930476Y-102780405D01*
X65046172Y-102939646D01*
X65185354Y-103078828D01*
X65344595Y-103194524D01*
X65427455Y-103236743D01*
X65519970Y-103283882D01*
X65519972Y-103283882D01*
X65519975Y-103283884D01*
X65620317Y-103316487D01*
X65707173Y-103344709D01*
X65901578Y-103375500D01*
X65901583Y-103375500D01*
X66098422Y-103375500D01*
X66292826Y-103344709D01*
X66348116Y-103326744D01*
X66480025Y-103283884D01*
X66655405Y-103194524D01*
X66814646Y-103078828D01*
X66953828Y-102939646D01*
X67069524Y-102780405D01*
X67158884Y-102605025D01*
X67219709Y-102417826D01*
X67232546Y-102336776D01*
X67250500Y-102223422D01*
X67250500Y-101776577D01*
X69749500Y-101776577D01*
X69749500Y-102223422D01*
X69780290Y-102417826D01*
X69841117Y-102605029D01*
X69928875Y-102777262D01*
X69930476Y-102780405D01*
X70046172Y-102939646D01*
X70185354Y-103078828D01*
X70344595Y-103194524D01*
X70427455Y-103236743D01*
X70519970Y-103283882D01*
X70519972Y-103283882D01*
X70519975Y-103283884D01*
X70620317Y-103316487D01*
X70707173Y-103344709D01*
X70901578Y-103375500D01*
X70901583Y-103375500D01*
X71098422Y-103375500D01*
X71292826Y-103344709D01*
X71348116Y-103326744D01*
X71480025Y-103283884D01*
X71655405Y-103194524D01*
X71814646Y-103078828D01*
X71953828Y-102939646D01*
X72069524Y-102780405D01*
X72158884Y-102605025D01*
X72219709Y-102417826D01*
X72232546Y-102336776D01*
X72250500Y-102223422D01*
X72250500Y-101776577D01*
X74749500Y-101776577D01*
X74749500Y-102223422D01*
X74780290Y-102417826D01*
X74841117Y-102605029D01*
X74928875Y-102777262D01*
X74930476Y-102780405D01*
X75046172Y-102939646D01*
X75185354Y-103078828D01*
X75344595Y-103194524D01*
X75427455Y-103236743D01*
X75519970Y-103283882D01*
X75519972Y-103283882D01*
X75519975Y-103283884D01*
X75620317Y-103316487D01*
X75707173Y-103344709D01*
X75901578Y-103375500D01*
X75901583Y-103375500D01*
X76098422Y-103375500D01*
X76292826Y-103344709D01*
X76348116Y-103326744D01*
X76480025Y-103283884D01*
X76655405Y-103194524D01*
X76814646Y-103078828D01*
X76953828Y-102939646D01*
X77069524Y-102780405D01*
X77139515Y-102643038D01*
X77187489Y-102592243D01*
X77255310Y-102575448D01*
X77321445Y-102597985D01*
X77360484Y-102643038D01*
X77430476Y-102780405D01*
X77546172Y-102939646D01*
X77685354Y-103078828D01*
X77844595Y-103194524D01*
X77927455Y-103236743D01*
X78019970Y-103283882D01*
X78019972Y-103283882D01*
X78019975Y-103283884D01*
X78120317Y-103316487D01*
X78207173Y-103344709D01*
X78401578Y-103375500D01*
X78401583Y-103375500D01*
X78598422Y-103375500D01*
X78792826Y-103344709D01*
X78848116Y-103326744D01*
X78980025Y-103283884D01*
X79155405Y-103194524D01*
X79314646Y-103078828D01*
X79453828Y-102939646D01*
X79549314Y-102808220D01*
X79604643Y-102765556D01*
X79674256Y-102759577D01*
X79736051Y-102792183D01*
X79737312Y-102793426D01*
X80555700Y-103611814D01*
X80648886Y-103705000D01*
X80747721Y-103762063D01*
X80756733Y-103767266D01*
X80763014Y-103770892D01*
X80890308Y-103805000D01*
X80890310Y-103805000D01*
X92874390Y-103805000D01*
X92874392Y-103805000D01*
X93001686Y-103770892D01*
X93007966Y-103767266D01*
X93007967Y-103767266D01*
X93030523Y-103754242D01*
X93115814Y-103705000D01*
X93746200Y-103074614D01*
X93797709Y-102985398D01*
X93812092Y-102960486D01*
X93846200Y-102833192D01*
X93846200Y-101776577D01*
X95749500Y-101776577D01*
X95749500Y-102223422D01*
X95780290Y-102417826D01*
X95841117Y-102605029D01*
X95928875Y-102777262D01*
X95930476Y-102780405D01*
X96046172Y-102939646D01*
X96185354Y-103078828D01*
X96344595Y-103194524D01*
X96427455Y-103236743D01*
X96519970Y-103283882D01*
X96519972Y-103283882D01*
X96519975Y-103283884D01*
X96620317Y-103316487D01*
X96707173Y-103344709D01*
X96901578Y-103375500D01*
X96901583Y-103375500D01*
X97098422Y-103375500D01*
X97292826Y-103344709D01*
X97348116Y-103326744D01*
X97480025Y-103283884D01*
X97655405Y-103194524D01*
X97814646Y-103078828D01*
X97953828Y-102939646D01*
X98069524Y-102780405D01*
X98158884Y-102605025D01*
X98219709Y-102417826D01*
X98232546Y-102336776D01*
X98250500Y-102223422D01*
X98250500Y-101776577D01*
X98219709Y-101582173D01*
X98168494Y-101424551D01*
X98158884Y-101394975D01*
X98158882Y-101394972D01*
X98158882Y-101394970D01*
X98074724Y-101229801D01*
X98069524Y-101219595D01*
X97953828Y-101060354D01*
X97814646Y-100921172D01*
X97655405Y-100805476D01*
X97636197Y-100795689D01*
X97480029Y-100716117D01*
X97292826Y-100655290D01*
X97098422Y-100624500D01*
X97098417Y-100624500D01*
X96901583Y-100624500D01*
X96901578Y-100624500D01*
X96707173Y-100655290D01*
X96519970Y-100716117D01*
X96344594Y-100805476D01*
X96276610Y-100854870D01*
X96185354Y-100921172D01*
X96185352Y-100921174D01*
X96185351Y-100921174D01*
X96046174Y-101060351D01*
X96046174Y-101060352D01*
X96046172Y-101060354D01*
X95996485Y-101128741D01*
X95930476Y-101219594D01*
X95841117Y-101394970D01*
X95780290Y-101582173D01*
X95749500Y-101776577D01*
X93846200Y-101776577D01*
X93846200Y-101575476D01*
X93865885Y-101508437D01*
X93882519Y-101487795D01*
X115831795Y-79538519D01*
X115893118Y-79505034D01*
X115919476Y-79502200D01*
X116065890Y-79502200D01*
X116065892Y-79502200D01*
X116193186Y-79468092D01*
X116307314Y-79402200D01*
X116307315Y-79402198D01*
X116314352Y-79398136D01*
X116315992Y-79400977D01*
X116366876Y-79381304D01*
X116435322Y-79395338D01*
X116485314Y-79444149D01*
X116501200Y-79504873D01*
X116501200Y-80611261D01*
X116481515Y-80678300D01*
X116475751Y-80686497D01*
X116409808Y-80800712D01*
X116375700Y-80928008D01*
X116375700Y-81557991D01*
X116409808Y-81685287D01*
X116437446Y-81733156D01*
X116475700Y-81799414D01*
X116475701Y-81799415D01*
X116479764Y-81806452D01*
X116478614Y-81807115D01*
X116500770Y-81864416D01*
X116501200Y-81874738D01*
X116501200Y-91737924D01*
X116481515Y-91804963D01*
X116464881Y-91825605D01*
X115599502Y-92690983D01*
X115599500Y-92690986D01*
X115533607Y-92805114D01*
X115533607Y-92805115D01*
X115532940Y-92807605D01*
X115531805Y-92809465D01*
X115530500Y-92812618D01*
X115530007Y-92812414D01*
X115496569Y-92867262D01*
X115433719Y-92897785D01*
X115413169Y-92899500D01*
X115268482Y-92899500D01*
X115187519Y-92912323D01*
X115174696Y-92914354D01*
X115061658Y-92971950D01*
X115061657Y-92971951D01*
X115061652Y-92971954D01*
X114971954Y-93061652D01*
X114971951Y-93061657D01*
X114914352Y-93174698D01*
X114899500Y-93268475D01*
X114899500Y-94731517D01*
X114910292Y-94799657D01*
X114914354Y-94825304D01*
X114971950Y-94938342D01*
X114971952Y-94938344D01*
X114971954Y-94938347D01*
X115061652Y-95028045D01*
X115061654Y-95028046D01*
X115061658Y-95028050D01*
X115174694Y-95085645D01*
X115174698Y-95085647D01*
X115268475Y-95100499D01*
X115268481Y-95100500D01*
X116731518Y-95100499D01*
X116825304Y-95085646D01*
X116938342Y-95028050D01*
X117028050Y-94938342D01*
X117085646Y-94825304D01*
X117085646Y-94825302D01*
X117085647Y-94825301D01*
X117100499Y-94731524D01*
X117100500Y-94731519D01*
X117100499Y-93268482D01*
X117085646Y-93174696D01*
X117028050Y-93061658D01*
X117028046Y-93061654D01*
X117028045Y-93061652D01*
X116938347Y-92971954D01*
X116938343Y-92971951D01*
X116938342Y-92971950D01*
X116938340Y-92971949D01*
X116937543Y-92971370D01*
X116936801Y-92970408D01*
X116931442Y-92965049D01*
X116932134Y-92964356D01*
X116894875Y-92916041D01*
X116888894Y-92846428D01*
X116921498Y-92784632D01*
X116922660Y-92783452D01*
X117402200Y-92303914D01*
X117468092Y-92189786D01*
X117502200Y-92062492D01*
X117502200Y-91930707D01*
X117502200Y-88889376D01*
X117521885Y-88822337D01*
X117574689Y-88776582D01*
X117643847Y-88766638D01*
X117707403Y-88795663D01*
X117713881Y-88801695D01*
X122519324Y-93607138D01*
X122552809Y-93668461D01*
X122549577Y-93733127D01*
X122546599Y-93742294D01*
X122546597Y-93742301D01*
X122519500Y-93913389D01*
X122519500Y-94086611D01*
X122546598Y-94257701D01*
X122600127Y-94422445D01*
X122678768Y-94576788D01*
X122780586Y-94716928D01*
X122903072Y-94839414D01*
X123043212Y-94941232D01*
X123197555Y-95019873D01*
X123362299Y-95073402D01*
X123533389Y-95100500D01*
X123533390Y-95100500D01*
X123706610Y-95100500D01*
X123706611Y-95100500D01*
X123877701Y-95073402D01*
X124042445Y-95019873D01*
X124196788Y-94941232D01*
X124336928Y-94839414D01*
X124459414Y-94716928D01*
X124561232Y-94576788D01*
X124639873Y-94422445D01*
X124693402Y-94257701D01*
X124720500Y-94086611D01*
X124720500Y-93913389D01*
X127599500Y-93913389D01*
X127599500Y-94086611D01*
X127626598Y-94257701D01*
X127680127Y-94422445D01*
X127758768Y-94576788D01*
X127860586Y-94716928D01*
X127983072Y-94839414D01*
X128123212Y-94941232D01*
X128277555Y-95019873D01*
X128442299Y-95073402D01*
X128613389Y-95100500D01*
X128613390Y-95100500D01*
X128786610Y-95100500D01*
X128786611Y-95100500D01*
X128957701Y-95073402D01*
X129122445Y-95019873D01*
X129276788Y-94941232D01*
X129416928Y-94839414D01*
X129539414Y-94716928D01*
X129641232Y-94576788D01*
X129719873Y-94422445D01*
X129773402Y-94257701D01*
X129800500Y-94086611D01*
X129800500Y-93913389D01*
X129773402Y-93742299D01*
X129719873Y-93577555D01*
X129641232Y-93423212D01*
X129539414Y-93283072D01*
X129416928Y-93160586D01*
X129276788Y-93058768D01*
X129122445Y-92980127D01*
X128957701Y-92926598D01*
X128957699Y-92926597D01*
X128957698Y-92926597D01*
X128826271Y-92905781D01*
X128786611Y-92899500D01*
X128613389Y-92899500D01*
X128573728Y-92905781D01*
X128442302Y-92926597D01*
X128277552Y-92980128D01*
X128123211Y-93058768D01*
X128043256Y-93116859D01*
X127983072Y-93160586D01*
X127983070Y-93160588D01*
X127983069Y-93160588D01*
X127860588Y-93283069D01*
X127860588Y-93283070D01*
X127860586Y-93283072D01*
X127816859Y-93343256D01*
X127758768Y-93423211D01*
X127680128Y-93577552D01*
X127626597Y-93742302D01*
X127599500Y-93913389D01*
X124720500Y-93913389D01*
X124693402Y-93742299D01*
X124639873Y-93577555D01*
X124561232Y-93423212D01*
X124459414Y-93283072D01*
X124336928Y-93160586D01*
X124196788Y-93058768D01*
X124042445Y-92980127D01*
X123877701Y-92926598D01*
X123877699Y-92926597D01*
X123877698Y-92926597D01*
X123746271Y-92905781D01*
X123706611Y-92899500D01*
X123533389Y-92899500D01*
X123501192Y-92904599D01*
X123362301Y-92926597D01*
X123362294Y-92926599D01*
X123353127Y-92929577D01*
X123283286Y-92931567D01*
X123227138Y-92899324D01*
X118014719Y-87686905D01*
X117981234Y-87625582D01*
X117978400Y-87599224D01*
X117978400Y-86293389D01*
X122519500Y-86293389D01*
X122519500Y-86466611D01*
X122546598Y-86637701D01*
X122600127Y-86802445D01*
X122678768Y-86956788D01*
X122780586Y-87096928D01*
X122903072Y-87219414D01*
X123043212Y-87321232D01*
X123197555Y-87399873D01*
X123362299Y-87453402D01*
X123533389Y-87480500D01*
X123533390Y-87480500D01*
X123706610Y-87480500D01*
X123706611Y-87480500D01*
X123877701Y-87453402D01*
X124042445Y-87399873D01*
X124196788Y-87321232D01*
X124336928Y-87219414D01*
X124459414Y-87096928D01*
X124561232Y-86956788D01*
X124639873Y-86802445D01*
X124693402Y-86637701D01*
X124720500Y-86466611D01*
X124720500Y-86293389D01*
X127599500Y-86293389D01*
X127599500Y-86466611D01*
X127626598Y-86637701D01*
X127680127Y-86802445D01*
X127758768Y-86956788D01*
X127860586Y-87096928D01*
X127983072Y-87219414D01*
X128123212Y-87321232D01*
X128277555Y-87399873D01*
X128442299Y-87453402D01*
X128613389Y-87480500D01*
X128613390Y-87480500D01*
X128786610Y-87480500D01*
X128786611Y-87480500D01*
X128957701Y-87453402D01*
X129122445Y-87399873D01*
X129276788Y-87321232D01*
X129416928Y-87219414D01*
X129539414Y-87096928D01*
X129641232Y-86956788D01*
X129719873Y-86802445D01*
X129773402Y-86637701D01*
X129800500Y-86466611D01*
X129800500Y-86293389D01*
X129773402Y-86122299D01*
X129719873Y-85957555D01*
X129641232Y-85803212D01*
X129539414Y-85663072D01*
X129416928Y-85540586D01*
X129276788Y-85438768D01*
X129122445Y-85360127D01*
X128957701Y-85306598D01*
X128957699Y-85306597D01*
X128957698Y-85306597D01*
X128826271Y-85285781D01*
X128786611Y-85279500D01*
X128613389Y-85279500D01*
X128573728Y-85285781D01*
X128442302Y-85306597D01*
X128277552Y-85360128D01*
X128123211Y-85438768D01*
X128043256Y-85496859D01*
X127983072Y-85540586D01*
X127983070Y-85540588D01*
X127983069Y-85540588D01*
X127860588Y-85663069D01*
X127860588Y-85663070D01*
X127860586Y-85663072D01*
X127832489Y-85701744D01*
X127758768Y-85803211D01*
X127680128Y-85957552D01*
X127626597Y-86122302D01*
X127614862Y-86196397D01*
X127599500Y-86293389D01*
X124720500Y-86293389D01*
X124693402Y-86122299D01*
X124639873Y-85957555D01*
X124561232Y-85803212D01*
X124459414Y-85663072D01*
X124336928Y-85540586D01*
X124196788Y-85438768D01*
X124042445Y-85360127D01*
X123877701Y-85306598D01*
X123877699Y-85306597D01*
X123877698Y-85306597D01*
X123746271Y-85285781D01*
X123706611Y-85279500D01*
X123533389Y-85279500D01*
X123493728Y-85285781D01*
X123362302Y-85306597D01*
X123197552Y-85360128D01*
X123043211Y-85438768D01*
X122963256Y-85496859D01*
X122903072Y-85540586D01*
X122903070Y-85540588D01*
X122903069Y-85540588D01*
X122780588Y-85663069D01*
X122780588Y-85663070D01*
X122780586Y-85663072D01*
X122752489Y-85701744D01*
X122678768Y-85803211D01*
X122600128Y-85957552D01*
X122546597Y-86122302D01*
X122534862Y-86196397D01*
X122519500Y-86293389D01*
X117978400Y-86293389D01*
X117978400Y-81784518D01*
X117998085Y-81717479D01*
X118014723Y-81696833D01*
X118022014Y-81689542D01*
X118098675Y-81574811D01*
X118151480Y-81447328D01*
X118178400Y-81311993D01*
X118178400Y-81174007D01*
X118178400Y-81174004D01*
X118151481Y-81038677D01*
X118151480Y-81038676D01*
X118151480Y-81038672D01*
X118116337Y-80953828D01*
X118098678Y-80911195D01*
X118098671Y-80911182D01*
X118022014Y-80796458D01*
X118022011Y-80796454D01*
X117924445Y-80698888D01*
X117924441Y-80698885D01*
X117809717Y-80622228D01*
X117809704Y-80622221D01*
X117682232Y-80569421D01*
X117682222Y-80569418D01*
X117602008Y-80553462D01*
X117540097Y-80521076D01*
X117505523Y-80460360D01*
X117502200Y-80431845D01*
X117502200Y-77913389D01*
X122519500Y-77913389D01*
X122519500Y-78086611D01*
X122546598Y-78257701D01*
X122600127Y-78422445D01*
X122678768Y-78576788D01*
X122780586Y-78716928D01*
X122903072Y-78839414D01*
X123043212Y-78941232D01*
X123197555Y-79019873D01*
X123362299Y-79073402D01*
X123533389Y-79100500D01*
X123533390Y-79100500D01*
X123706610Y-79100500D01*
X123706611Y-79100500D01*
X123877701Y-79073402D01*
X123886859Y-79070425D01*
X123956700Y-79068429D01*
X124012861Y-79100675D01*
X133243181Y-88330995D01*
X133276666Y-88392318D01*
X133279500Y-88418676D01*
X133279500Y-92943909D01*
X133259815Y-93010948D01*
X133211801Y-93054391D01*
X133203212Y-93058767D01*
X133112617Y-93124589D01*
X133063072Y-93160586D01*
X133063070Y-93160588D01*
X133063069Y-93160588D01*
X132940588Y-93283069D01*
X132940588Y-93283070D01*
X132940586Y-93283072D01*
X132896859Y-93343256D01*
X132838768Y-93423211D01*
X132760128Y-93577552D01*
X132706597Y-93742302D01*
X132679500Y-93913389D01*
X132679500Y-94086611D01*
X132706598Y-94257701D01*
X132760127Y-94422445D01*
X132838768Y-94576788D01*
X132940586Y-94716928D01*
X133063072Y-94839414D01*
X133203212Y-94941232D01*
X133357555Y-95019873D01*
X133522299Y-95073402D01*
X133693389Y-95100500D01*
X133693390Y-95100500D01*
X133866610Y-95100500D01*
X133866611Y-95100500D01*
X134037701Y-95073402D01*
X134202445Y-95019873D01*
X134356788Y-94941232D01*
X134496928Y-94839414D01*
X134619414Y-94716928D01*
X134721232Y-94576788D01*
X134799873Y-94422445D01*
X134853402Y-94257701D01*
X134880500Y-94086611D01*
X134880500Y-93913389D01*
X134853402Y-93742299D01*
X134799873Y-93577555D01*
X134721232Y-93423212D01*
X134619414Y-93283072D01*
X134496928Y-93160586D01*
X134360766Y-93061658D01*
X134356787Y-93058767D01*
X134348199Y-93054391D01*
X134297406Y-93006414D01*
X134280500Y-92943909D01*
X134280500Y-88094110D01*
X134280500Y-88094108D01*
X134246392Y-87966814D01*
X134180500Y-87852686D01*
X134087314Y-87759500D01*
X133987198Y-87659384D01*
X133953713Y-87598061D01*
X133958697Y-87528369D01*
X134000569Y-87472436D01*
X134036561Y-87453772D01*
X134037698Y-87453402D01*
X134037701Y-87453402D01*
X134202445Y-87399873D01*
X134356788Y-87321232D01*
X134496928Y-87219414D01*
X134619414Y-87096928D01*
X134721232Y-86956788D01*
X134799873Y-86802445D01*
X134853402Y-86637701D01*
X134880500Y-86466611D01*
X134880500Y-86293389D01*
X134853402Y-86122299D01*
X134799873Y-85957555D01*
X134721232Y-85803212D01*
X134619414Y-85663072D01*
X134496928Y-85540586D01*
X134356788Y-85438768D01*
X134202445Y-85360127D01*
X134037701Y-85306598D01*
X134037699Y-85306597D01*
X134037698Y-85306597D01*
X133906271Y-85285781D01*
X133866611Y-85279500D01*
X133693389Y-85279500D01*
X133653728Y-85285781D01*
X133522302Y-85306597D01*
X133357552Y-85360128D01*
X133203211Y-85438768D01*
X133123256Y-85496859D01*
X133063072Y-85540586D01*
X133063070Y-85540588D01*
X133063069Y-85540588D01*
X132940588Y-85663069D01*
X132940588Y-85663070D01*
X132940586Y-85663072D01*
X132912489Y-85701744D01*
X132838768Y-85803211D01*
X132760128Y-85957550D01*
X132706227Y-86123439D01*
X132666789Y-86181114D01*
X132602430Y-86208312D01*
X132533584Y-86196397D01*
X132500615Y-86172801D01*
X124720675Y-78392861D01*
X124687190Y-78331538D01*
X124690426Y-78266859D01*
X124693402Y-78257701D01*
X124720500Y-78086611D01*
X124720500Y-77913389D01*
X124693402Y-77742299D01*
X124639873Y-77577555D01*
X124561232Y-77423212D01*
X124459414Y-77283072D01*
X124336928Y-77160586D01*
X124196788Y-77058768D01*
X124042445Y-76980127D01*
X123877701Y-76926598D01*
X123877699Y-76926597D01*
X123877698Y-76926597D01*
X123746271Y-76905781D01*
X123706611Y-76899500D01*
X123533389Y-76899500D01*
X123493728Y-76905781D01*
X123362302Y-76926597D01*
X123362299Y-76926598D01*
X123245250Y-76964630D01*
X123197552Y-76980128D01*
X123043211Y-77058768D01*
X122963256Y-77116859D01*
X122903072Y-77160586D01*
X122903070Y-77160588D01*
X122903069Y-77160588D01*
X122780588Y-77283069D01*
X122780588Y-77283070D01*
X122780586Y-77283072D01*
X122736859Y-77343256D01*
X122678768Y-77423211D01*
X122600128Y-77577552D01*
X122546597Y-77742302D01*
X122537372Y-77800548D01*
X122519500Y-77913389D01*
X117502200Y-77913389D01*
X117502200Y-70293389D01*
X122519500Y-70293389D01*
X122519500Y-70466611D01*
X122546598Y-70637701D01*
X122600127Y-70802445D01*
X122678768Y-70956788D01*
X122780586Y-71096928D01*
X122903072Y-71219414D01*
X123043212Y-71321232D01*
X123197555Y-71399873D01*
X123362299Y-71453402D01*
X123533389Y-71480500D01*
X123533390Y-71480500D01*
X123706610Y-71480500D01*
X123706611Y-71480500D01*
X123877701Y-71453402D01*
X124042445Y-71399873D01*
X124196788Y-71321232D01*
X124336928Y-71219414D01*
X124459414Y-71096928D01*
X124561232Y-70956788D01*
X124639873Y-70802445D01*
X124693402Y-70637701D01*
X124720500Y-70466611D01*
X124720500Y-70293389D01*
X127599500Y-70293389D01*
X127599500Y-70466611D01*
X127626598Y-70637701D01*
X127680127Y-70802445D01*
X127758768Y-70956788D01*
X127860586Y-71096928D01*
X127983072Y-71219414D01*
X128123212Y-71321232D01*
X128277555Y-71399873D01*
X128442299Y-71453402D01*
X128613389Y-71480500D01*
X128613390Y-71480500D01*
X128786610Y-71480500D01*
X128786611Y-71480500D01*
X128957701Y-71453402D01*
X129122445Y-71399873D01*
X129276788Y-71321232D01*
X129416928Y-71219414D01*
X129539414Y-71096928D01*
X129641232Y-70956788D01*
X129719873Y-70802445D01*
X129773402Y-70637701D01*
X129800500Y-70466611D01*
X129800500Y-70293389D01*
X129773402Y-70122299D01*
X129719873Y-69957555D01*
X129641232Y-69803212D01*
X129539414Y-69663072D01*
X129416928Y-69540586D01*
X129276788Y-69438768D01*
X129122445Y-69360127D01*
X128957701Y-69306598D01*
X128957699Y-69306597D01*
X128957698Y-69306597D01*
X128826271Y-69285781D01*
X128786611Y-69279500D01*
X128613389Y-69279500D01*
X128573728Y-69285781D01*
X128442302Y-69306597D01*
X128277552Y-69360128D01*
X128123211Y-69438768D01*
X128107426Y-69450237D01*
X127983072Y-69540586D01*
X127983070Y-69540588D01*
X127983069Y-69540588D01*
X127860588Y-69663069D01*
X127860588Y-69663070D01*
X127860586Y-69663072D01*
X127827650Y-69708404D01*
X127758768Y-69803211D01*
X127680128Y-69957552D01*
X127626597Y-70122302D01*
X127616776Y-70184310D01*
X127599500Y-70293389D01*
X124720500Y-70293389D01*
X124693402Y-70122299D01*
X124639873Y-69957555D01*
X124561232Y-69803212D01*
X124459414Y-69663072D01*
X124336928Y-69540586D01*
X124196788Y-69438768D01*
X124042445Y-69360127D01*
X123877701Y-69306598D01*
X123877699Y-69306597D01*
X123877698Y-69306597D01*
X123746271Y-69285781D01*
X123706611Y-69279500D01*
X123533389Y-69279500D01*
X123493728Y-69285781D01*
X123362302Y-69306597D01*
X123197552Y-69360128D01*
X123043211Y-69438768D01*
X123027426Y-69450237D01*
X122903072Y-69540586D01*
X122903070Y-69540588D01*
X122903069Y-69540588D01*
X122780588Y-69663069D01*
X122780588Y-69663070D01*
X122780586Y-69663072D01*
X122747650Y-69708404D01*
X122678768Y-69803211D01*
X122600128Y-69957552D01*
X122546597Y-70122302D01*
X122536776Y-70184310D01*
X122519500Y-70293389D01*
X117502200Y-70293389D01*
X117502200Y-63937510D01*
X117502200Y-63937508D01*
X117468092Y-63810214D01*
X117402200Y-63696086D01*
X117309014Y-63602900D01*
X116922745Y-63216631D01*
X116889260Y-63155308D01*
X116894244Y-63085616D01*
X116931859Y-63035368D01*
X116931442Y-63034951D01*
X116934347Y-63032045D01*
X116936116Y-63029683D01*
X116937546Y-63028628D01*
X116938336Y-63028052D01*
X116938342Y-63028050D01*
X117028050Y-62938342D01*
X117085646Y-62825304D01*
X117085646Y-62825302D01*
X117085647Y-62825301D01*
X117100499Y-62731524D01*
X117100500Y-62731519D01*
X117100499Y-61913389D01*
X122519500Y-61913389D01*
X122519500Y-62086610D01*
X122544117Y-62242041D01*
X122546598Y-62257701D01*
X122598123Y-62416278D01*
X122600128Y-62422447D01*
X122623889Y-62469081D01*
X122678768Y-62576788D01*
X122780586Y-62716928D01*
X122903072Y-62839414D01*
X123043212Y-62941232D01*
X123197555Y-63019873D01*
X123362299Y-63073402D01*
X123533389Y-63100500D01*
X123533390Y-63100500D01*
X123706610Y-63100500D01*
X123706611Y-63100500D01*
X123877701Y-63073402D01*
X124042445Y-63019873D01*
X124196788Y-62941232D01*
X124336928Y-62839414D01*
X124459414Y-62716928D01*
X124561232Y-62576788D01*
X124639873Y-62422445D01*
X124693402Y-62257701D01*
X124720500Y-62086611D01*
X124720500Y-61913389D01*
X127599500Y-61913389D01*
X127599500Y-62086610D01*
X127624117Y-62242041D01*
X127626598Y-62257701D01*
X127678123Y-62416278D01*
X127680128Y-62422447D01*
X127703889Y-62469081D01*
X127758768Y-62576788D01*
X127860586Y-62716928D01*
X127983072Y-62839414D01*
X128123212Y-62941232D01*
X128277555Y-63019873D01*
X128442299Y-63073402D01*
X128613389Y-63100500D01*
X128613390Y-63100500D01*
X128786610Y-63100500D01*
X128786611Y-63100500D01*
X128957701Y-63073402D01*
X129122445Y-63019873D01*
X129276788Y-62941232D01*
X129416928Y-62839414D01*
X129539414Y-62716928D01*
X129641232Y-62576788D01*
X129719873Y-62422445D01*
X129773402Y-62257701D01*
X129800500Y-62086611D01*
X129800500Y-61913389D01*
X129773402Y-61742299D01*
X129719873Y-61577555D01*
X129641232Y-61423212D01*
X129539414Y-61283072D01*
X129416928Y-61160586D01*
X129276788Y-61058768D01*
X129122445Y-60980127D01*
X128957701Y-60926598D01*
X128957699Y-60926597D01*
X128957698Y-60926597D01*
X128826271Y-60905781D01*
X128786611Y-60899500D01*
X128613389Y-60899500D01*
X128573728Y-60905781D01*
X128442302Y-60926597D01*
X128277552Y-60980128D01*
X128123211Y-61058768D01*
X128073343Y-61095000D01*
X127983072Y-61160586D01*
X127983070Y-61160588D01*
X127983069Y-61160588D01*
X127860588Y-61283069D01*
X127860588Y-61283070D01*
X127860586Y-61283072D01*
X127841792Y-61308940D01*
X127758768Y-61423211D01*
X127680128Y-61577552D01*
X127626597Y-61742302D01*
X127599500Y-61913389D01*
X124720500Y-61913389D01*
X124693402Y-61742299D01*
X124639873Y-61577555D01*
X124561232Y-61423212D01*
X124459414Y-61283072D01*
X124336928Y-61160586D01*
X124196788Y-61058768D01*
X124042445Y-60980127D01*
X123877701Y-60926598D01*
X123877699Y-60926597D01*
X123877698Y-60926597D01*
X123746271Y-60905781D01*
X123706611Y-60899500D01*
X123533389Y-60899500D01*
X123493728Y-60905781D01*
X123362302Y-60926597D01*
X123197552Y-60980128D01*
X123043211Y-61058768D01*
X122993343Y-61095000D01*
X122903072Y-61160586D01*
X122903070Y-61160588D01*
X122903069Y-61160588D01*
X122780588Y-61283069D01*
X122780588Y-61283070D01*
X122780586Y-61283072D01*
X122761792Y-61308940D01*
X122678768Y-61423211D01*
X122600128Y-61577552D01*
X122546597Y-61742302D01*
X122519500Y-61913389D01*
X117100499Y-61913389D01*
X117100499Y-61268482D01*
X117085646Y-61174696D01*
X117028050Y-61061658D01*
X117028046Y-61061654D01*
X117028045Y-61061652D01*
X116938347Y-60971954D01*
X116938344Y-60971952D01*
X116938342Y-60971950D01*
X116849332Y-60926597D01*
X116825301Y-60914352D01*
X116731524Y-60899500D01*
X116731519Y-60899500D01*
X115622800Y-60899500D01*
X115555761Y-60879815D01*
X115510006Y-60827011D01*
X115498800Y-60775500D01*
X115498800Y-54293389D01*
X122519500Y-54293389D01*
X122519500Y-54466611D01*
X122546598Y-54637701D01*
X122600127Y-54802445D01*
X122678768Y-54956788D01*
X122780586Y-55096928D01*
X122903072Y-55219414D01*
X123043212Y-55321232D01*
X123197555Y-55399873D01*
X123362299Y-55453402D01*
X123533389Y-55480500D01*
X123533390Y-55480500D01*
X123706610Y-55480500D01*
X123706611Y-55480500D01*
X123877701Y-55453402D01*
X124042445Y-55399873D01*
X124196788Y-55321232D01*
X124336928Y-55219414D01*
X124459414Y-55096928D01*
X124561232Y-54956788D01*
X124639873Y-54802445D01*
X124693402Y-54637701D01*
X124720500Y-54466611D01*
X124720500Y-54293389D01*
X127599500Y-54293389D01*
X127599500Y-54466611D01*
X127626598Y-54637701D01*
X127680127Y-54802445D01*
X127758768Y-54956788D01*
X127860586Y-55096928D01*
X127983072Y-55219414D01*
X128123212Y-55321232D01*
X128277555Y-55399873D01*
X128442299Y-55453402D01*
X128613389Y-55480500D01*
X128613390Y-55480500D01*
X128786610Y-55480500D01*
X128786611Y-55480500D01*
X128957701Y-55453402D01*
X129122445Y-55399873D01*
X129276788Y-55321232D01*
X129416928Y-55219414D01*
X129539414Y-55096928D01*
X129641232Y-54956788D01*
X129719873Y-54802445D01*
X129773402Y-54637701D01*
X129800500Y-54466611D01*
X129800500Y-54293389D01*
X129773402Y-54122299D01*
X129719873Y-53957555D01*
X129641232Y-53803212D01*
X129539414Y-53663072D01*
X129416928Y-53540586D01*
X129276788Y-53438768D01*
X129122445Y-53360127D01*
X128957701Y-53306598D01*
X128957699Y-53306597D01*
X128957698Y-53306597D01*
X128826271Y-53285781D01*
X128786611Y-53279500D01*
X128613389Y-53279500D01*
X128573728Y-53285781D01*
X128442302Y-53306597D01*
X128277552Y-53360128D01*
X128123211Y-53438768D01*
X128043256Y-53496859D01*
X127983072Y-53540586D01*
X127983070Y-53540588D01*
X127983069Y-53540588D01*
X127860588Y-53663069D01*
X127860588Y-53663070D01*
X127860586Y-53663072D01*
X127828545Y-53707173D01*
X127758768Y-53803211D01*
X127680128Y-53957552D01*
X127626597Y-54122302D01*
X127610392Y-54224618D01*
X127599500Y-54293389D01*
X124720500Y-54293389D01*
X124693402Y-54122299D01*
X124639873Y-53957555D01*
X124561232Y-53803212D01*
X124459414Y-53663072D01*
X124336928Y-53540586D01*
X124196788Y-53438768D01*
X124042445Y-53360127D01*
X123877701Y-53306598D01*
X123877699Y-53306597D01*
X123877698Y-53306597D01*
X123746271Y-53285781D01*
X123706611Y-53279500D01*
X123533389Y-53279500D01*
X123493728Y-53285781D01*
X123362302Y-53306597D01*
X123197552Y-53360128D01*
X123043211Y-53438768D01*
X122963256Y-53496859D01*
X122903072Y-53540586D01*
X122903070Y-53540588D01*
X122903069Y-53540588D01*
X122780588Y-53663069D01*
X122780588Y-53663070D01*
X122780586Y-53663072D01*
X122748545Y-53707173D01*
X122678768Y-53803211D01*
X122600128Y-53957552D01*
X122546597Y-54122302D01*
X122530392Y-54224618D01*
X122519500Y-54293389D01*
X115498800Y-54293389D01*
X115498800Y-48262076D01*
X115518485Y-48195037D01*
X115535119Y-48174395D01*
X115959014Y-47750500D01*
X116400500Y-47309014D01*
X116466392Y-47194886D01*
X116467057Y-47192405D01*
X116468189Y-47190546D01*
X116469504Y-47187374D01*
X116469998Y-47187578D01*
X116503423Y-47132744D01*
X116566270Y-47102216D01*
X116586832Y-47100499D01*
X116731517Y-47100499D01*
X116731518Y-47100499D01*
X116825304Y-47085646D01*
X116938342Y-47028050D01*
X117028050Y-46938342D01*
X117085646Y-46825304D01*
X117085646Y-46825302D01*
X117085647Y-46825301D01*
X117100499Y-46731524D01*
X117100500Y-46731519D01*
X117100499Y-45913389D01*
X122519500Y-45913389D01*
X122519500Y-46086611D01*
X122546598Y-46257701D01*
X122600127Y-46422445D01*
X122678768Y-46576788D01*
X122780586Y-46716928D01*
X122903072Y-46839414D01*
X123043212Y-46941232D01*
X123197555Y-47019873D01*
X123362299Y-47073402D01*
X123533389Y-47100500D01*
X123533390Y-47100500D01*
X123706610Y-47100500D01*
X123706611Y-47100500D01*
X123877701Y-47073402D01*
X123886859Y-47070425D01*
X123956700Y-47068429D01*
X124012861Y-47100675D01*
X133243181Y-56330995D01*
X133276666Y-56392318D01*
X133279500Y-56418676D01*
X133279500Y-60943909D01*
X133259815Y-61010948D01*
X133211801Y-61054391D01*
X133203212Y-61058767D01*
X133148633Y-61098422D01*
X133063072Y-61160586D01*
X133063070Y-61160588D01*
X133063069Y-61160588D01*
X132940588Y-61283069D01*
X132940588Y-61283070D01*
X132940586Y-61283072D01*
X132921792Y-61308940D01*
X132838768Y-61423211D01*
X132760128Y-61577552D01*
X132706597Y-61742302D01*
X132679500Y-61913389D01*
X132679500Y-62086610D01*
X132704117Y-62242041D01*
X132706598Y-62257701D01*
X132758123Y-62416278D01*
X132760128Y-62422447D01*
X132783889Y-62469081D01*
X132838768Y-62576788D01*
X132940586Y-62716928D01*
X133063072Y-62839414D01*
X133203212Y-62941232D01*
X133357555Y-63019873D01*
X133522299Y-63073402D01*
X133693389Y-63100500D01*
X133693390Y-63100500D01*
X133866610Y-63100500D01*
X133866611Y-63100500D01*
X134037701Y-63073402D01*
X134202445Y-63019873D01*
X134356788Y-62941232D01*
X134496928Y-62839414D01*
X134611119Y-62725223D01*
X134672442Y-62691738D01*
X134742134Y-62696722D01*
X134798067Y-62738594D01*
X134822484Y-62804058D01*
X134822800Y-62812904D01*
X134822800Y-69567096D01*
X134803115Y-69634135D01*
X134750311Y-69679890D01*
X134681153Y-69689834D01*
X134617597Y-69660809D01*
X134611119Y-69654777D01*
X134496930Y-69540588D01*
X134496928Y-69540586D01*
X134356788Y-69438768D01*
X134202445Y-69360127D01*
X134037701Y-69306598D01*
X134037699Y-69306597D01*
X134037698Y-69306597D01*
X133906271Y-69285781D01*
X133866611Y-69279500D01*
X133693389Y-69279500D01*
X133653728Y-69285781D01*
X133522302Y-69306597D01*
X133357552Y-69360128D01*
X133203211Y-69438768D01*
X133187426Y-69450237D01*
X133063072Y-69540586D01*
X133063070Y-69540588D01*
X133063069Y-69540588D01*
X132940588Y-69663069D01*
X132940588Y-69663070D01*
X132940586Y-69663072D01*
X132907650Y-69708404D01*
X132838768Y-69803211D01*
X132760128Y-69957552D01*
X132706597Y-70122302D01*
X132696776Y-70184310D01*
X132679500Y-70293389D01*
X132679500Y-70466611D01*
X132706598Y-70637701D01*
X132760127Y-70802445D01*
X132838768Y-70956788D01*
X132940586Y-71096928D01*
X133063072Y-71219414D01*
X133203212Y-71321232D01*
X133357555Y-71399873D01*
X133522299Y-71453402D01*
X133693389Y-71480500D01*
X133693390Y-71480500D01*
X133866610Y-71480500D01*
X133866611Y-71480500D01*
X134037701Y-71453402D01*
X134202445Y-71399873D01*
X134299750Y-71350293D01*
X134368418Y-71337398D01*
X134433159Y-71363674D01*
X134473416Y-71420781D01*
X134476408Y-71490586D01*
X134443725Y-71548460D01*
X129092860Y-76899324D01*
X129031537Y-76932809D01*
X128966866Y-76929576D01*
X128957701Y-76926598D01*
X128957699Y-76926597D01*
X128957697Y-76926597D01*
X128838239Y-76907677D01*
X128786611Y-76899500D01*
X128613389Y-76899500D01*
X128573728Y-76905781D01*
X128442302Y-76926597D01*
X128442299Y-76926598D01*
X128325250Y-76964630D01*
X128277552Y-76980128D01*
X128123211Y-77058768D01*
X128043256Y-77116859D01*
X127983072Y-77160586D01*
X127983070Y-77160588D01*
X127983069Y-77160588D01*
X127860588Y-77283069D01*
X127860588Y-77283070D01*
X127860586Y-77283072D01*
X127816859Y-77343256D01*
X127758768Y-77423211D01*
X127680128Y-77577552D01*
X127626597Y-77742302D01*
X127617372Y-77800548D01*
X127599500Y-77913389D01*
X127599500Y-78086611D01*
X127626598Y-78257701D01*
X127680127Y-78422445D01*
X127758768Y-78576788D01*
X127860586Y-78716928D01*
X127983072Y-78839414D01*
X128123212Y-78941232D01*
X128277555Y-79019873D01*
X128442299Y-79073402D01*
X128613389Y-79100500D01*
X128613390Y-79100500D01*
X128786610Y-79100500D01*
X128786611Y-79100500D01*
X128957701Y-79073402D01*
X129122445Y-79019873D01*
X129276788Y-78941232D01*
X129416928Y-78839414D01*
X129539414Y-78716928D01*
X129641232Y-78576788D01*
X129719873Y-78422445D01*
X129773402Y-78257701D01*
X129800500Y-78086611D01*
X129800500Y-77913389D01*
X132679500Y-77913389D01*
X132679500Y-78086611D01*
X132706598Y-78257701D01*
X132760127Y-78422445D01*
X132838768Y-78576788D01*
X132940586Y-78716928D01*
X133063072Y-78839414D01*
X133203212Y-78941232D01*
X133357555Y-79019873D01*
X133522299Y-79073402D01*
X133693389Y-79100500D01*
X133693390Y-79100500D01*
X133866610Y-79100500D01*
X133866611Y-79100500D01*
X134037701Y-79073402D01*
X134202445Y-79019873D01*
X134356788Y-78941232D01*
X134496928Y-78839414D01*
X134619414Y-78716928D01*
X134721232Y-78576788D01*
X134799873Y-78422445D01*
X134853402Y-78257701D01*
X134880500Y-78086611D01*
X134880500Y-77913389D01*
X134853402Y-77742299D01*
X134799873Y-77577555D01*
X134721232Y-77423212D01*
X134619414Y-77283072D01*
X134496928Y-77160586D01*
X134356788Y-77058768D01*
X134202445Y-76980127D01*
X134037701Y-76926598D01*
X134037699Y-76926597D01*
X134037698Y-76926597D01*
X133906271Y-76905781D01*
X133866611Y-76899500D01*
X133693389Y-76899500D01*
X133653728Y-76905781D01*
X133522302Y-76926597D01*
X133522299Y-76926598D01*
X133405250Y-76964630D01*
X133357552Y-76980128D01*
X133203211Y-77058768D01*
X133123256Y-77116859D01*
X133063072Y-77160586D01*
X133063070Y-77160588D01*
X133063069Y-77160588D01*
X132940588Y-77283069D01*
X132940588Y-77283070D01*
X132940586Y-77283072D01*
X132896859Y-77343256D01*
X132838768Y-77423211D01*
X132760128Y-77577552D01*
X132706597Y-77742302D01*
X132697372Y-77800548D01*
X132679500Y-77913389D01*
X129800500Y-77913389D01*
X129773402Y-77742299D01*
X129767610Y-77724473D01*
X129766092Y-77715499D01*
X129769176Y-77689486D01*
X129768427Y-77663304D01*
X129773285Y-77654842D01*
X129774320Y-77646115D01*
X129787428Y-77630207D01*
X129800672Y-77607140D01*
X135723800Y-71684014D01*
X135789692Y-71569886D01*
X135823800Y-71442592D01*
X135823800Y-71310807D01*
X135823800Y-61655176D01*
X135843485Y-61588137D01*
X135860119Y-61567495D01*
X141739095Y-55688519D01*
X141800418Y-55655034D01*
X141826776Y-55652200D01*
X142065890Y-55652200D01*
X142065892Y-55652200D01*
X142193186Y-55618092D01*
X142307314Y-55552200D01*
X142400500Y-55459014D01*
X142466392Y-55344886D01*
X142490338Y-55255517D01*
X142492461Y-55252034D01*
X142492624Y-55247956D01*
X142510493Y-55222449D01*
X142526702Y-55195858D01*
X142531044Y-55193116D01*
X142532715Y-55190732D01*
X142547067Y-55183000D01*
X142563144Y-55172851D01*
X142567401Y-55171108D01*
X142605025Y-55158884D01*
X142636682Y-55142753D01*
X142641432Y-55140810D01*
X142671284Y-55137728D01*
X142700774Y-55132190D01*
X142705672Y-55134178D01*
X142710932Y-55133635D01*
X142737712Y-55147182D01*
X142765514Y-55158466D01*
X142768560Y-55162786D01*
X142773279Y-55165174D01*
X142788482Y-55191047D01*
X142805772Y-55215572D01*
X142806902Y-55222392D01*
X142808677Y-55225413D01*
X142808429Y-55231609D01*
X142812400Y-55255571D01*
X142812400Y-65093523D01*
X142792715Y-65160562D01*
X142776081Y-65181204D01*
X138955644Y-69001640D01*
X138955645Y-69001641D01*
X138879900Y-69077386D01*
X138814008Y-69191512D01*
X138779900Y-69318808D01*
X138779900Y-81057681D01*
X138760215Y-81124720D01*
X138743581Y-81145362D01*
X138736288Y-81152654D01*
X138736285Y-81152658D01*
X138659628Y-81267382D01*
X138659621Y-81267395D01*
X138606821Y-81394867D01*
X138606818Y-81394877D01*
X138579900Y-81530204D01*
X138579900Y-81530207D01*
X138579900Y-81668193D01*
X138579900Y-81668195D01*
X138579899Y-81668195D01*
X138606818Y-81803522D01*
X138606821Y-81803532D01*
X138659621Y-81931004D01*
X138659628Y-81931017D01*
X138736285Y-82045741D01*
X138736288Y-82045745D01*
X138833854Y-82143311D01*
X138833858Y-82143314D01*
X138948582Y-82219971D01*
X138948595Y-82219978D01*
X139076067Y-82272778D01*
X139076072Y-82272780D01*
X139076076Y-82272780D01*
X139076077Y-82272781D01*
X139211404Y-82299700D01*
X139211407Y-82299700D01*
X139349395Y-82299700D01*
X139440441Y-82281589D01*
X139484728Y-82272780D01*
X139612211Y-82219975D01*
X139726942Y-82143314D01*
X139824514Y-82045742D01*
X139901175Y-81931011D01*
X139953980Y-81803528D01*
X139967978Y-81733156D01*
X139980900Y-81668195D01*
X139980900Y-81530204D01*
X139953981Y-81394877D01*
X139953980Y-81394876D01*
X139953980Y-81394872D01*
X139953978Y-81394867D01*
X139901178Y-81267395D01*
X139901171Y-81267382D01*
X139824514Y-81152658D01*
X139824511Y-81152654D01*
X139817219Y-81145362D01*
X139783734Y-81084039D01*
X139780900Y-81057681D01*
X139780900Y-77401577D01*
X140624500Y-77401577D01*
X140624500Y-77598422D01*
X140655290Y-77792826D01*
X140716117Y-77980029D01*
X140770423Y-78086610D01*
X140805476Y-78155405D01*
X140921172Y-78314646D01*
X141060354Y-78453828D01*
X141219595Y-78569524D01*
X141288613Y-78604690D01*
X141356960Y-78639515D01*
X141407756Y-78687490D01*
X141424551Y-78755311D01*
X141402014Y-78821446D01*
X141356960Y-78860485D01*
X141219594Y-78930476D01*
X141184259Y-78956149D01*
X141060354Y-79046172D01*
X141060352Y-79046174D01*
X141060351Y-79046174D01*
X140921174Y-79185351D01*
X140921174Y-79185352D01*
X140921172Y-79185354D01*
X140914247Y-79194886D01*
X140805476Y-79344594D01*
X140716117Y-79519970D01*
X140655290Y-79707173D01*
X140624500Y-79901577D01*
X140624500Y-80098422D01*
X140655290Y-80292826D01*
X140716117Y-80480029D01*
X140805476Y-80655405D01*
X140921172Y-80814646D01*
X141060354Y-80953828D01*
X141219595Y-81069524D01*
X141297158Y-81109044D01*
X141394970Y-81158882D01*
X141394972Y-81158882D01*
X141394975Y-81158884D01*
X141441519Y-81174007D01*
X141582173Y-81219709D01*
X141776578Y-81250500D01*
X141776583Y-81250500D01*
X142223422Y-81250500D01*
X142417826Y-81219709D01*
X142605025Y-81158884D01*
X142780405Y-81069524D01*
X142939646Y-80953828D01*
X143078828Y-80814646D01*
X143194524Y-80655405D01*
X143283884Y-80480025D01*
X143344709Y-80292826D01*
X143375500Y-80098422D01*
X143375500Y-79901577D01*
X143344709Y-79707173D01*
X143283882Y-79519970D01*
X143221804Y-79398136D01*
X143194524Y-79344595D01*
X143078828Y-79185354D01*
X142939646Y-79046172D01*
X142780405Y-78930476D01*
X142643038Y-78860484D01*
X142592243Y-78812511D01*
X142575448Y-78744690D01*
X142597985Y-78678555D01*
X142643039Y-78639515D01*
X142780405Y-78569524D01*
X142939646Y-78453828D01*
X143078828Y-78314646D01*
X143194524Y-78155405D01*
X143283884Y-77980025D01*
X143344709Y-77792826D01*
X143352712Y-77742299D01*
X143375500Y-77598422D01*
X143375500Y-77401577D01*
X143344709Y-77207173D01*
X143316487Y-77120317D01*
X143283884Y-77019975D01*
X143283882Y-77019972D01*
X143283882Y-77019970D01*
X143236306Y-76926597D01*
X143194524Y-76844595D01*
X143078828Y-76685354D01*
X142939646Y-76546172D01*
X142780405Y-76430476D01*
X142764219Y-76422229D01*
X142605029Y-76341117D01*
X142417826Y-76280290D01*
X142223422Y-76249500D01*
X142223417Y-76249500D01*
X141776583Y-76249500D01*
X141776578Y-76249500D01*
X141582173Y-76280290D01*
X141394970Y-76341117D01*
X141219594Y-76430476D01*
X141174839Y-76462993D01*
X141060354Y-76546172D01*
X141060352Y-76546174D01*
X141060351Y-76546174D01*
X140921174Y-76685351D01*
X140921174Y-76685352D01*
X140921172Y-76685354D01*
X140871485Y-76753741D01*
X140805476Y-76844594D01*
X140716117Y-77019970D01*
X140655290Y-77207173D01*
X140624500Y-77401577D01*
X139780900Y-77401577D01*
X139780900Y-69643374D01*
X139800585Y-69576335D01*
X139817214Y-69555698D01*
X140038614Y-69334298D01*
X140624500Y-69334298D01*
X140624500Y-70665701D01*
X140627401Y-70702567D01*
X140627402Y-70702573D01*
X140673254Y-70860393D01*
X140673255Y-70860396D01*
X140756917Y-71001862D01*
X140756923Y-71001870D01*
X140873129Y-71118076D01*
X140873133Y-71118079D01*
X140873135Y-71118081D01*
X141014602Y-71201744D01*
X141033075Y-71207111D01*
X141142866Y-71239009D01*
X141201752Y-71276615D01*
X141230958Y-71340088D01*
X141221212Y-71409274D01*
X141181157Y-71458403D01*
X141060352Y-71546173D01*
X140921174Y-71685351D01*
X140921174Y-71685352D01*
X140921172Y-71685354D01*
X140874165Y-71750053D01*
X140805476Y-71844594D01*
X140716117Y-72019970D01*
X140655290Y-72207173D01*
X140624500Y-72401577D01*
X140624500Y-72598422D01*
X140655290Y-72792826D01*
X140716117Y-72980029D01*
X140774503Y-73094617D01*
X140805476Y-73155405D01*
X140921172Y-73314646D01*
X141060354Y-73453828D01*
X141219595Y-73569524D01*
X141302455Y-73611743D01*
X141394970Y-73658882D01*
X141394972Y-73658882D01*
X141394975Y-73658884D01*
X141486776Y-73688712D01*
X141582173Y-73719709D01*
X141776578Y-73750500D01*
X141776583Y-73750500D01*
X142223422Y-73750500D01*
X142417826Y-73719709D01*
X142605025Y-73658884D01*
X142780405Y-73569524D01*
X142939646Y-73453828D01*
X143078828Y-73314646D01*
X143194524Y-73155405D01*
X143283884Y-72980025D01*
X143344709Y-72792826D01*
X143361963Y-72683887D01*
X143375500Y-72598422D01*
X143375500Y-72401577D01*
X143344709Y-72207173D01*
X143283882Y-72019970D01*
X143194523Y-71844594D01*
X143078828Y-71685354D01*
X142939646Y-71546172D01*
X142818840Y-71458401D01*
X142776177Y-71403073D01*
X142770198Y-71333459D01*
X142802804Y-71271665D01*
X142857133Y-71239009D01*
X142924588Y-71219411D01*
X142985398Y-71201744D01*
X143126865Y-71118081D01*
X143243081Y-71001865D01*
X143326744Y-70860398D01*
X143372598Y-70702569D01*
X143375500Y-70665694D01*
X143375500Y-69334306D01*
X143372598Y-69297431D01*
X143326744Y-69139602D01*
X143243081Y-68998135D01*
X143243079Y-68998133D01*
X143243076Y-68998129D01*
X143126870Y-68881923D01*
X143126862Y-68881917D01*
X142985396Y-68798255D01*
X142985393Y-68798254D01*
X142827573Y-68752402D01*
X142827567Y-68752401D01*
X142790701Y-68749500D01*
X142790694Y-68749500D01*
X141209306Y-68749500D01*
X141209298Y-68749500D01*
X141172432Y-68752401D01*
X141172426Y-68752402D01*
X141014606Y-68798254D01*
X141014603Y-68798255D01*
X140873137Y-68881917D01*
X140873129Y-68881923D01*
X140756923Y-68998129D01*
X140756917Y-68998137D01*
X140673255Y-69139603D01*
X140673254Y-69139606D01*
X140627402Y-69297426D01*
X140627401Y-69297432D01*
X140624500Y-69334298D01*
X140038614Y-69334298D01*
X143610004Y-65762907D01*
X143610009Y-65762904D01*
X143620212Y-65752700D01*
X143620214Y-65752700D01*
X143713400Y-65659514D01*
X143779292Y-65545386D01*
X143805366Y-65448075D01*
X143813400Y-65418093D01*
X143813400Y-65286308D01*
X143813400Y-53466808D01*
X143779292Y-53339514D01*
X143713400Y-53225386D01*
X143620214Y-53132200D01*
X143028425Y-52540411D01*
X142994940Y-52479088D01*
X142999924Y-52409396D01*
X143028425Y-52365049D01*
X143078828Y-52314646D01*
X143194524Y-52155405D01*
X143283884Y-51980025D01*
X143344709Y-51792826D01*
X143375500Y-51598422D01*
X143375500Y-51401577D01*
X143344709Y-51207173D01*
X143283882Y-51019970D01*
X143194523Y-50844594D01*
X143078828Y-50685354D01*
X142939646Y-50546172D01*
X142780405Y-50430476D01*
X142605029Y-50341117D01*
X142417826Y-50280290D01*
X142223422Y-50249500D01*
X142223417Y-50249500D01*
X141776583Y-50249500D01*
X141776578Y-50249500D01*
X141582173Y-50280290D01*
X141394970Y-50341117D01*
X141219594Y-50430476D01*
X141060351Y-50546174D01*
X140921174Y-50685351D01*
X140921174Y-50685352D01*
X140921172Y-50685354D01*
X140871485Y-50753741D01*
X140805476Y-50844594D01*
X140716117Y-51019970D01*
X140655290Y-51207173D01*
X140624500Y-51401577D01*
X140624500Y-51598422D01*
X140655290Y-51792826D01*
X140716117Y-51980029D01*
X140805476Y-52155405D01*
X140921172Y-52314646D01*
X141060354Y-52453828D01*
X141219595Y-52569524D01*
X141288613Y-52604690D01*
X141356960Y-52639515D01*
X141407756Y-52687490D01*
X141424551Y-52755311D01*
X141402014Y-52821446D01*
X141356960Y-52860485D01*
X141219594Y-52930476D01*
X141128741Y-52996485D01*
X141060354Y-53046172D01*
X141060352Y-53046174D01*
X141060351Y-53046174D01*
X140921174Y-53185351D01*
X140921174Y-53185352D01*
X140921172Y-53185354D01*
X140892089Y-53225383D01*
X140805476Y-53344594D01*
X140716117Y-53519970D01*
X140655290Y-53707173D01*
X140624500Y-53901577D01*
X140624500Y-54098422D01*
X140655290Y-54292826D01*
X140716117Y-54480029D01*
X140760120Y-54566389D01*
X140805476Y-54655405D01*
X140921172Y-54814646D01*
X140921174Y-54814648D01*
X140971575Y-54865049D01*
X141005060Y-54926372D01*
X141000076Y-54996064D01*
X140971575Y-55040411D01*
X134922802Y-61089183D01*
X134922800Y-61089186D01*
X134856909Y-61203312D01*
X134844592Y-61249280D01*
X134808227Y-61308940D01*
X134745380Y-61339469D01*
X134676004Y-61331174D01*
X134624500Y-61290073D01*
X134619414Y-61283072D01*
X134496928Y-61160586D01*
X134360766Y-61061658D01*
X134356787Y-61058767D01*
X134348199Y-61054391D01*
X134297406Y-61006414D01*
X134280500Y-60943909D01*
X134280500Y-56094110D01*
X134280500Y-56094108D01*
X134246392Y-55966814D01*
X134180500Y-55852686D01*
X134087314Y-55759500D01*
X133987198Y-55659384D01*
X133953713Y-55598061D01*
X133958697Y-55528369D01*
X134000569Y-55472436D01*
X134036561Y-55453772D01*
X134037698Y-55453402D01*
X134037701Y-55453402D01*
X134202445Y-55399873D01*
X134356788Y-55321232D01*
X134496928Y-55219414D01*
X134619414Y-55096928D01*
X134721232Y-54956788D01*
X134799873Y-54802445D01*
X134853402Y-54637701D01*
X134880500Y-54466611D01*
X134880500Y-54293389D01*
X134853402Y-54122299D01*
X134799873Y-53957555D01*
X134721232Y-53803212D01*
X134619414Y-53663072D01*
X134496928Y-53540586D01*
X134356788Y-53438768D01*
X134202445Y-53360127D01*
X134037701Y-53306598D01*
X134037699Y-53306597D01*
X134037698Y-53306597D01*
X133906271Y-53285781D01*
X133866611Y-53279500D01*
X133693389Y-53279500D01*
X133653728Y-53285781D01*
X133522302Y-53306597D01*
X133357552Y-53360128D01*
X133203211Y-53438768D01*
X133123256Y-53496859D01*
X133063072Y-53540586D01*
X133063070Y-53540588D01*
X133063069Y-53540588D01*
X132940588Y-53663069D01*
X132940588Y-53663070D01*
X132940586Y-53663072D01*
X132908545Y-53707173D01*
X132838768Y-53803211D01*
X132760128Y-53957550D01*
X132706227Y-54123439D01*
X132666789Y-54181114D01*
X132602430Y-54208312D01*
X132533584Y-54196397D01*
X132500615Y-54172801D01*
X124720675Y-46392861D01*
X124687190Y-46331538D01*
X124690426Y-46266859D01*
X124693402Y-46257701D01*
X124720500Y-46086611D01*
X124720500Y-45913389D01*
X127599500Y-45913389D01*
X127599500Y-46086611D01*
X127626598Y-46257701D01*
X127680127Y-46422445D01*
X127758768Y-46576788D01*
X127860586Y-46716928D01*
X127983072Y-46839414D01*
X128123212Y-46941232D01*
X128277555Y-47019873D01*
X128442299Y-47073402D01*
X128613389Y-47100500D01*
X128613390Y-47100500D01*
X128786610Y-47100500D01*
X128786611Y-47100500D01*
X128957701Y-47073402D01*
X129122445Y-47019873D01*
X129276788Y-46941232D01*
X129416928Y-46839414D01*
X129539414Y-46716928D01*
X129641232Y-46576788D01*
X129719873Y-46422445D01*
X129773402Y-46257701D01*
X129800500Y-46086611D01*
X129800500Y-45913389D01*
X132679500Y-45913389D01*
X132679500Y-46086611D01*
X132706598Y-46257701D01*
X132760127Y-46422445D01*
X132838768Y-46576788D01*
X132940586Y-46716928D01*
X133063072Y-46839414D01*
X133203212Y-46941232D01*
X133357555Y-47019873D01*
X133522299Y-47073402D01*
X133693389Y-47100500D01*
X133693390Y-47100500D01*
X133866610Y-47100500D01*
X133866611Y-47100500D01*
X134037701Y-47073402D01*
X134202445Y-47019873D01*
X134356788Y-46941232D01*
X134496928Y-46839414D01*
X134619414Y-46716928D01*
X134721232Y-46576788D01*
X134799873Y-46422445D01*
X134853402Y-46257701D01*
X134880500Y-46086611D01*
X134880500Y-45913389D01*
X134853402Y-45742299D01*
X134799873Y-45577555D01*
X134721232Y-45423212D01*
X134619414Y-45283072D01*
X134496928Y-45160586D01*
X134356788Y-45058768D01*
X134202445Y-44980127D01*
X134037701Y-44926598D01*
X134037699Y-44926597D01*
X134037698Y-44926597D01*
X133906271Y-44905781D01*
X133866611Y-44899500D01*
X133693389Y-44899500D01*
X133653728Y-44905781D01*
X133522302Y-44926597D01*
X133357552Y-44980128D01*
X133203211Y-45058768D01*
X133148640Y-45098417D01*
X133063072Y-45160586D01*
X133063070Y-45160588D01*
X133063069Y-45160588D01*
X132940588Y-45283069D01*
X132940588Y-45283070D01*
X132940586Y-45283072D01*
X132903978Y-45333459D01*
X132838768Y-45423211D01*
X132760128Y-45577552D01*
X132706597Y-45742302D01*
X132695139Y-45814646D01*
X132679500Y-45913389D01*
X129800500Y-45913389D01*
X129773402Y-45742299D01*
X129719873Y-45577555D01*
X129641232Y-45423212D01*
X129539414Y-45283072D01*
X129416928Y-45160586D01*
X129276788Y-45058768D01*
X129122445Y-44980127D01*
X128957701Y-44926598D01*
X128957699Y-44926597D01*
X128957698Y-44926597D01*
X128826271Y-44905781D01*
X128786611Y-44899500D01*
X128613389Y-44899500D01*
X128573728Y-44905781D01*
X128442302Y-44926597D01*
X128277552Y-44980128D01*
X128123211Y-45058768D01*
X128068640Y-45098417D01*
X127983072Y-45160586D01*
X127983070Y-45160588D01*
X127983069Y-45160588D01*
X127860588Y-45283069D01*
X127860588Y-45283070D01*
X127860586Y-45283072D01*
X127823978Y-45333459D01*
X127758768Y-45423211D01*
X127680128Y-45577552D01*
X127626597Y-45742302D01*
X127615139Y-45814646D01*
X127599500Y-45913389D01*
X124720500Y-45913389D01*
X124693402Y-45742299D01*
X124639873Y-45577555D01*
X124561232Y-45423212D01*
X124459414Y-45283072D01*
X124336928Y-45160586D01*
X124196788Y-45058768D01*
X124042445Y-44980127D01*
X123877701Y-44926598D01*
X123877699Y-44926597D01*
X123877698Y-44926597D01*
X123746271Y-44905781D01*
X123706611Y-44899500D01*
X123533389Y-44899500D01*
X123493728Y-44905781D01*
X123362302Y-44926597D01*
X123197552Y-44980128D01*
X123043211Y-45058768D01*
X122988640Y-45098417D01*
X122903072Y-45160586D01*
X122903070Y-45160588D01*
X122903069Y-45160588D01*
X122780588Y-45283069D01*
X122780588Y-45283070D01*
X122780586Y-45283072D01*
X122743978Y-45333459D01*
X122678768Y-45423211D01*
X122600128Y-45577552D01*
X122546597Y-45742302D01*
X122535139Y-45814646D01*
X122519500Y-45913389D01*
X117100499Y-45913389D01*
X117100499Y-45268482D01*
X117085646Y-45174696D01*
X117028050Y-45061658D01*
X117028046Y-45061654D01*
X117028045Y-45061652D01*
X116938347Y-44971954D01*
X116938344Y-44971952D01*
X116938342Y-44971950D01*
X116849332Y-44926597D01*
X116825301Y-44914352D01*
X116731524Y-44899500D01*
X115268482Y-44899500D01*
X115187519Y-44912323D01*
X115174696Y-44914354D01*
X115061658Y-44971950D01*
X115061657Y-44971951D01*
X115061652Y-44971954D01*
X114971954Y-45061652D01*
X114971951Y-45061657D01*
X114914352Y-45174698D01*
X114899500Y-45268475D01*
X114899500Y-46731517D01*
X114909210Y-46792826D01*
X114914354Y-46825304D01*
X114971950Y-46938342D01*
X114971952Y-46938344D01*
X114971954Y-46938347D01*
X115061650Y-47028043D01*
X115061653Y-47028045D01*
X115061658Y-47028050D01*
X115061663Y-47028052D01*
X115062451Y-47028625D01*
X115063189Y-47029582D01*
X115068558Y-47034951D01*
X115067864Y-47035644D01*
X115105121Y-47083952D01*
X115111105Y-47153565D01*
X115078504Y-47215362D01*
X115077254Y-47216630D01*
X114690986Y-47602900D01*
X114597802Y-47696083D01*
X114597800Y-47696086D01*
X114531908Y-47810212D01*
X114497800Y-47937508D01*
X114497800Y-76062491D01*
X114531908Y-76189787D01*
X114564854Y-76246850D01*
X114597800Y-76303914D01*
X114597802Y-76303916D01*
X115077254Y-76783368D01*
X115110739Y-76844691D01*
X115105755Y-76914383D01*
X115068139Y-76964630D01*
X115068558Y-76965049D01*
X115065645Y-76967961D01*
X115063883Y-76970316D01*
X115062466Y-76971362D01*
X115061657Y-76971949D01*
X114971954Y-77061652D01*
X114971951Y-77061657D01*
X114914352Y-77174698D01*
X114899500Y-77268475D01*
X114899500Y-78731517D01*
X114914354Y-78825304D01*
X114946034Y-78887480D01*
X114958930Y-78956149D01*
X114932653Y-79020889D01*
X114923230Y-79031455D01*
X93187497Y-100767188D01*
X93126174Y-100800673D01*
X93056482Y-100795689D01*
X93012135Y-100767188D01*
X93001870Y-100756923D01*
X93001862Y-100756917D01*
X92860396Y-100673255D01*
X92860393Y-100673254D01*
X92702573Y-100627402D01*
X92702567Y-100627401D01*
X92665701Y-100624500D01*
X92665694Y-100624500D01*
X92624500Y-100624500D01*
X92557461Y-100604815D01*
X92511706Y-100552011D01*
X92500500Y-100500500D01*
X92500500Y-50565707D01*
X92495265Y-50546172D01*
X92495264Y-50546169D01*
X92466392Y-50438414D01*
X92461809Y-50430476D01*
X92400500Y-50324286D01*
X92307314Y-50231100D01*
X92307313Y-50231099D01*
X92302983Y-50226769D01*
X92302972Y-50226759D01*
X85495766Y-43419552D01*
X85410512Y-43334298D01*
X140624500Y-43334298D01*
X140624500Y-44665701D01*
X140627401Y-44702567D01*
X140627402Y-44702573D01*
X140673254Y-44860393D01*
X140673255Y-44860396D01*
X140756917Y-45001862D01*
X140756923Y-45001870D01*
X140873129Y-45118076D01*
X140873133Y-45118079D01*
X140873135Y-45118081D01*
X141014602Y-45201744D01*
X141045620Y-45210755D01*
X141142866Y-45239009D01*
X141201752Y-45276615D01*
X141230958Y-45340088D01*
X141221212Y-45409274D01*
X141181157Y-45458403D01*
X141060352Y-45546173D01*
X140921174Y-45685351D01*
X140921174Y-45685352D01*
X140921172Y-45685354D01*
X140879799Y-45742299D01*
X140805476Y-45844594D01*
X140716117Y-46019970D01*
X140655290Y-46207173D01*
X140624500Y-46401577D01*
X140624500Y-46598422D01*
X140655290Y-46792826D01*
X140716117Y-46980029D01*
X140777590Y-47100675D01*
X140805476Y-47155405D01*
X140921172Y-47314646D01*
X141060354Y-47453828D01*
X141219595Y-47569524D01*
X141285100Y-47602900D01*
X141394970Y-47658882D01*
X141394972Y-47658882D01*
X141394975Y-47658884D01*
X141495317Y-47691487D01*
X141582173Y-47719709D01*
X141776578Y-47750500D01*
X141776583Y-47750500D01*
X142223422Y-47750500D01*
X142417826Y-47719709D01*
X142605025Y-47658884D01*
X142780405Y-47569524D01*
X142939646Y-47453828D01*
X143078828Y-47314646D01*
X143194524Y-47155405D01*
X143283884Y-46980025D01*
X143344709Y-46792826D01*
X143354419Y-46731518D01*
X143375500Y-46598422D01*
X143375500Y-46401577D01*
X143344709Y-46207173D01*
X143305535Y-46086610D01*
X143283884Y-46019975D01*
X143283882Y-46019972D01*
X143283882Y-46019970D01*
X143229576Y-45913389D01*
X143194524Y-45844595D01*
X143078828Y-45685354D01*
X142939646Y-45546172D01*
X142818840Y-45458401D01*
X142776177Y-45403073D01*
X142770198Y-45333459D01*
X142802804Y-45271665D01*
X142857133Y-45239009D01*
X142898799Y-45226903D01*
X142985398Y-45201744D01*
X143126865Y-45118081D01*
X143243081Y-45001865D01*
X143326744Y-44860398D01*
X143371260Y-44707174D01*
X143372597Y-44702573D01*
X143372598Y-44702567D01*
X143375499Y-44665701D01*
X143375500Y-44665694D01*
X143375500Y-43334306D01*
X143372598Y-43297431D01*
X143326744Y-43139602D01*
X143243081Y-42998135D01*
X143243079Y-42998133D01*
X143243076Y-42998129D01*
X143126870Y-42881923D01*
X143126862Y-42881917D01*
X142985396Y-42798255D01*
X142985393Y-42798254D01*
X142827573Y-42752402D01*
X142827567Y-42752401D01*
X142790701Y-42749500D01*
X142790694Y-42749500D01*
X141209306Y-42749500D01*
X141209298Y-42749500D01*
X141172432Y-42752401D01*
X141172426Y-42752402D01*
X141014606Y-42798254D01*
X141014603Y-42798255D01*
X140873137Y-42881917D01*
X140873129Y-42881923D01*
X140756923Y-42998129D01*
X140756917Y-42998137D01*
X140673255Y-43139603D01*
X140673254Y-43139606D01*
X140627402Y-43297426D01*
X140627401Y-43297432D01*
X140624500Y-43334298D01*
X85410512Y-43334298D01*
X83346119Y-41269905D01*
X83312634Y-41208582D01*
X83309800Y-41182224D01*
X83309800Y-41171904D01*
X83282881Y-41036577D01*
X83282880Y-41036576D01*
X83282880Y-41036572D01*
X83282878Y-41036567D01*
X83230078Y-40909095D01*
X83230071Y-40909082D01*
X83153414Y-40794358D01*
X83153411Y-40794354D01*
X83055845Y-40696788D01*
X83055841Y-40696785D01*
X82941117Y-40620128D01*
X82941104Y-40620121D01*
X82813632Y-40567321D01*
X82813622Y-40567318D01*
X82678295Y-40540400D01*
X82678293Y-40540400D01*
X82540307Y-40540400D01*
X82540305Y-40540400D01*
X82404977Y-40567318D01*
X82404967Y-40567321D01*
X82277495Y-40620121D01*
X82277482Y-40620128D01*
X82162758Y-40696785D01*
X82162754Y-40696788D01*
X82065188Y-40794354D01*
X82065185Y-40794358D01*
X81988528Y-40909082D01*
X81988521Y-40909095D01*
X81935721Y-41036567D01*
X81935718Y-41036577D01*
X81908800Y-41171904D01*
X81908800Y-41171907D01*
X81908800Y-41309893D01*
X81908800Y-41309895D01*
X81908799Y-41309895D01*
X81935718Y-41445222D01*
X81935721Y-41445232D01*
X81988521Y-41572704D01*
X81988528Y-41572717D01*
X82065185Y-41687441D01*
X82065188Y-41687445D01*
X82162754Y-41785011D01*
X82162758Y-41785014D01*
X82277482Y-41861671D01*
X82277495Y-41861678D01*
X82404967Y-41914478D01*
X82404972Y-41914480D01*
X82404976Y-41914480D01*
X82404977Y-41914481D01*
X82540304Y-41941400D01*
X82540307Y-41941400D01*
X82550624Y-41941400D01*
X82617663Y-41961085D01*
X82638305Y-41977719D01*
X91463181Y-50802594D01*
X91496666Y-50863917D01*
X91499500Y-50890275D01*
X91499500Y-100500500D01*
X91479815Y-100567539D01*
X91427011Y-100613294D01*
X91375500Y-100624500D01*
X91334298Y-100624500D01*
X91297432Y-100627401D01*
X91297426Y-100627402D01*
X91139606Y-100673254D01*
X91139603Y-100673255D01*
X90998137Y-100756917D01*
X90998129Y-100756923D01*
X90881923Y-100873129D01*
X90881917Y-100873137D01*
X90798255Y-101014603D01*
X90798254Y-101014606D01*
X90752402Y-101172426D01*
X90752401Y-101172432D01*
X90749500Y-101209298D01*
X90749500Y-102680000D01*
X90729815Y-102747039D01*
X90677011Y-102792794D01*
X90625500Y-102804000D01*
X81214876Y-102804000D01*
X81147837Y-102784315D01*
X81127195Y-102767681D01*
X79959016Y-101599502D01*
X79959014Y-101599500D01*
X79844886Y-101533608D01*
X79770241Y-101513607D01*
X79755518Y-101509662D01*
X79695858Y-101473296D01*
X79669681Y-101428204D01*
X79658886Y-101394980D01*
X79658883Y-101394974D01*
X79639515Y-101356960D01*
X79569524Y-101219595D01*
X79453828Y-101060354D01*
X79314646Y-100921172D01*
X79155405Y-100805476D01*
X79136197Y-100795689D01*
X78980029Y-100716117D01*
X78792826Y-100655290D01*
X78598422Y-100624500D01*
X78598417Y-100624500D01*
X78401583Y-100624500D01*
X78401578Y-100624500D01*
X78207173Y-100655290D01*
X78019970Y-100716117D01*
X77844594Y-100805476D01*
X77776610Y-100854870D01*
X77685354Y-100921172D01*
X77685352Y-100921174D01*
X77685351Y-100921174D01*
X77546174Y-101060351D01*
X77546174Y-101060352D01*
X77546172Y-101060354D01*
X77496485Y-101128741D01*
X77430476Y-101219594D01*
X77360485Y-101356960D01*
X77312510Y-101407756D01*
X77244689Y-101424551D01*
X77178554Y-101402014D01*
X77139515Y-101356960D01*
X77074724Y-101229801D01*
X77069524Y-101219595D01*
X76953828Y-101060354D01*
X76814646Y-100921172D01*
X76655405Y-100805476D01*
X76636197Y-100795689D01*
X76480029Y-100716117D01*
X76292826Y-100655290D01*
X76098422Y-100624500D01*
X76098417Y-100624500D01*
X75901583Y-100624500D01*
X75901578Y-100624500D01*
X75707173Y-100655290D01*
X75519970Y-100716117D01*
X75344594Y-100805476D01*
X75276610Y-100854870D01*
X75185354Y-100921172D01*
X75185352Y-100921174D01*
X75185351Y-100921174D01*
X75046174Y-101060351D01*
X75046174Y-101060352D01*
X75046172Y-101060354D01*
X74996485Y-101128741D01*
X74930476Y-101219594D01*
X74841117Y-101394970D01*
X74780290Y-101582173D01*
X74749500Y-101776577D01*
X72250500Y-101776577D01*
X72219709Y-101582173D01*
X72168494Y-101424551D01*
X72158884Y-101394975D01*
X72158882Y-101394972D01*
X72158882Y-101394970D01*
X72074724Y-101229801D01*
X72069524Y-101219595D01*
X71953828Y-101060354D01*
X71836818Y-100943344D01*
X71803334Y-100882021D01*
X71800500Y-100855663D01*
X71800500Y-72211840D01*
X71820185Y-72144801D01*
X71836819Y-72124159D01*
X73032886Y-70928092D01*
X73032889Y-70928089D01*
X73120494Y-70796979D01*
X73180838Y-70651297D01*
X73211600Y-70496642D01*
X73211600Y-70338957D01*
X73180838Y-70184303D01*
X73120494Y-70038621D01*
X73120492Y-70038618D01*
X73120490Y-70038614D01*
X73032889Y-69907511D01*
X73032886Y-69907507D01*
X72921392Y-69796013D01*
X72921388Y-69796010D01*
X72790285Y-69708409D01*
X72790275Y-69708404D01*
X72644597Y-69648062D01*
X72644589Y-69648060D01*
X72489947Y-69617300D01*
X72489943Y-69617300D01*
X72332258Y-69617300D01*
X72332253Y-69617300D01*
X72177610Y-69648060D01*
X72177602Y-69648062D01*
X72031924Y-69708404D01*
X72031914Y-69708409D01*
X71900811Y-69796010D01*
X71900807Y-69796013D01*
X70836429Y-70860393D01*
X70489711Y-71207111D01*
X70457813Y-71239009D01*
X70378209Y-71318612D01*
X70290609Y-71449714D01*
X70290602Y-71449727D01*
X70230264Y-71595398D01*
X70230261Y-71595410D01*
X70199500Y-71750053D01*
X70199500Y-100855663D01*
X70179815Y-100922702D01*
X70163182Y-100943344D01*
X70046171Y-101060355D01*
X69930476Y-101219594D01*
X69841117Y-101394970D01*
X69780290Y-101582173D01*
X69749500Y-101776577D01*
X67250500Y-101776577D01*
X67219709Y-101582173D01*
X67168494Y-101424551D01*
X67158884Y-101394975D01*
X67158882Y-101394972D01*
X67158882Y-101394970D01*
X67074724Y-101229801D01*
X67069524Y-101219595D01*
X66953828Y-101060354D01*
X66814646Y-100921172D01*
X66655405Y-100805476D01*
X66636197Y-100795689D01*
X66480029Y-100716117D01*
X66292826Y-100655290D01*
X66098422Y-100624500D01*
X66098417Y-100624500D01*
X65901583Y-100624500D01*
X65901578Y-100624500D01*
X65707173Y-100655290D01*
X65519970Y-100716117D01*
X65344594Y-100805476D01*
X65276610Y-100854870D01*
X65185354Y-100921172D01*
X65185352Y-100921174D01*
X65185351Y-100921174D01*
X65046174Y-101060351D01*
X65046174Y-101060352D01*
X65046172Y-101060354D01*
X64996485Y-101128741D01*
X64930476Y-101219594D01*
X64860485Y-101356960D01*
X64812510Y-101407756D01*
X64744689Y-101424551D01*
X64678554Y-101402014D01*
X64639515Y-101356960D01*
X64574724Y-101229801D01*
X64569524Y-101219595D01*
X64453828Y-101060354D01*
X64314646Y-100921172D01*
X64155405Y-100805476D01*
X64136197Y-100795689D01*
X63980029Y-100716117D01*
X63792826Y-100655290D01*
X63598422Y-100624500D01*
X63598417Y-100624500D01*
X63401583Y-100624500D01*
X63401578Y-100624500D01*
X63207173Y-100655290D01*
X63019970Y-100716117D01*
X62844594Y-100805476D01*
X62776610Y-100854870D01*
X62685354Y-100921172D01*
X62685352Y-100921174D01*
X62685351Y-100921174D01*
X62546174Y-101060351D01*
X62546174Y-101060352D01*
X62546172Y-101060354D01*
X62496485Y-101128741D01*
X62430476Y-101219594D01*
X62341117Y-101394970D01*
X62280290Y-101582173D01*
X62249500Y-101776577D01*
X59750500Y-101776577D01*
X59719709Y-101582173D01*
X59668494Y-101424551D01*
X59658884Y-101394975D01*
X59658882Y-101394972D01*
X59658882Y-101394970D01*
X59574724Y-101229801D01*
X59569524Y-101219595D01*
X59453828Y-101060354D01*
X59314646Y-100921172D01*
X59155405Y-100805476D01*
X59080261Y-100767188D01*
X59068205Y-100761045D01*
X59017409Y-100713070D01*
X59000500Y-100650560D01*
X59000500Y-66761176D01*
X59020185Y-66694137D01*
X59036819Y-66673495D01*
X60476419Y-65233895D01*
X62033899Y-65233895D01*
X62060818Y-65369222D01*
X62060821Y-65369232D01*
X62113621Y-65496704D01*
X62113628Y-65496717D01*
X62190285Y-65611441D01*
X62197577Y-65618733D01*
X62231065Y-65680055D01*
X62233900Y-65706418D01*
X62233900Y-87002491D01*
X62268008Y-87129787D01*
X62300954Y-87186850D01*
X62333900Y-87243914D01*
X62333902Y-87243916D01*
X62878881Y-87788895D01*
X62912366Y-87850218D01*
X62915200Y-87876576D01*
X62915200Y-87886893D01*
X62915200Y-87886895D01*
X62915199Y-87886895D01*
X62942118Y-88022222D01*
X62942121Y-88022232D01*
X62994921Y-88149704D01*
X62994928Y-88149717D01*
X63071585Y-88264441D01*
X63071588Y-88264445D01*
X63169154Y-88362011D01*
X63169158Y-88362014D01*
X63283882Y-88438671D01*
X63283895Y-88438678D01*
X63334440Y-88459614D01*
X63411372Y-88491480D01*
X63411376Y-88491480D01*
X63411377Y-88491481D01*
X63546704Y-88518400D01*
X63546707Y-88518400D01*
X63684695Y-88518400D01*
X63775741Y-88500289D01*
X63820028Y-88491480D01*
X63947511Y-88438675D01*
X64062242Y-88362014D01*
X64159814Y-88264442D01*
X64236475Y-88149711D01*
X64289280Y-88022228D01*
X64316200Y-87886893D01*
X64316200Y-87748907D01*
X64316200Y-87748904D01*
X64289281Y-87613577D01*
X64289280Y-87613576D01*
X64289280Y-87613572D01*
X64253988Y-87528369D01*
X64236478Y-87486095D01*
X64236471Y-87486082D01*
X64159814Y-87371358D01*
X64159811Y-87371354D01*
X64062245Y-87273788D01*
X64062241Y-87273785D01*
X63947517Y-87197128D01*
X63947504Y-87197121D01*
X63820032Y-87144321D01*
X63820022Y-87144318D01*
X63684695Y-87117400D01*
X63684693Y-87117400D01*
X63674376Y-87117400D01*
X63607337Y-87097715D01*
X63586695Y-87081081D01*
X63271219Y-86765605D01*
X63237734Y-86704282D01*
X63234900Y-86677924D01*
X63234900Y-65706418D01*
X63254585Y-65639379D01*
X63259026Y-65632926D01*
X63264586Y-65625369D01*
X63278514Y-65611442D01*
X63314845Y-65557068D01*
X63316505Y-65554813D01*
X63342151Y-65535282D01*
X63366887Y-65514610D01*
X63369775Y-65514247D01*
X63372092Y-65512483D01*
X63404228Y-65509918D01*
X63436212Y-65505901D01*
X63440571Y-65506688D01*
X63546704Y-65527800D01*
X63546707Y-65527800D01*
X63557024Y-65527800D01*
X63624063Y-65547485D01*
X63644705Y-65564119D01*
X67110281Y-69029695D01*
X67143766Y-69091018D01*
X67146600Y-69117376D01*
X67146600Y-87281081D01*
X67126915Y-87348120D01*
X67110281Y-87368762D01*
X67102988Y-87376054D01*
X67102985Y-87376058D01*
X67026328Y-87490782D01*
X67026321Y-87490795D01*
X66973521Y-87618267D01*
X66973518Y-87618277D01*
X66946600Y-87753604D01*
X66946600Y-87753607D01*
X66946600Y-87891593D01*
X66946600Y-87891595D01*
X66946599Y-87891595D01*
X66973518Y-88026922D01*
X66973521Y-88026932D01*
X67026321Y-88154404D01*
X67026328Y-88154417D01*
X67102985Y-88269141D01*
X67102988Y-88269145D01*
X67200554Y-88366711D01*
X67200558Y-88366714D01*
X67315282Y-88443371D01*
X67315295Y-88443378D01*
X67442767Y-88496178D01*
X67442772Y-88496180D01*
X67442776Y-88496180D01*
X67442777Y-88496181D01*
X67578104Y-88523100D01*
X67578107Y-88523100D01*
X67716095Y-88523100D01*
X67807141Y-88504989D01*
X67851428Y-88496180D01*
X67978911Y-88443375D01*
X68093642Y-88366714D01*
X68191214Y-88269142D01*
X68267875Y-88154411D01*
X68320680Y-88026928D01*
X68347600Y-87891593D01*
X68347600Y-87753607D01*
X68347600Y-87753604D01*
X68320681Y-87618277D01*
X68320680Y-87618276D01*
X68320680Y-87618272D01*
X68312790Y-87599224D01*
X68267878Y-87490795D01*
X68267871Y-87490782D01*
X68191214Y-87376058D01*
X68191211Y-87376054D01*
X68183919Y-87368762D01*
X68150434Y-87307439D01*
X68147600Y-87281081D01*
X68147600Y-68792810D01*
X68147600Y-68792808D01*
X68113492Y-68665514D01*
X68047600Y-68551386D01*
X67954414Y-68458200D01*
X64352519Y-64856305D01*
X64319034Y-64794982D01*
X64316200Y-64768624D01*
X64316200Y-64758304D01*
X64289281Y-64622977D01*
X64289280Y-64622976D01*
X64289280Y-64622972D01*
X64243231Y-64511799D01*
X64236478Y-64495495D01*
X64236471Y-64495482D01*
X64159814Y-64380758D01*
X64159811Y-64380754D01*
X64062245Y-64283188D01*
X64062241Y-64283185D01*
X63947517Y-64206528D01*
X63947504Y-64206521D01*
X63820032Y-64153721D01*
X63820022Y-64153718D01*
X63684695Y-64126800D01*
X63684693Y-64126800D01*
X63546707Y-64126800D01*
X63546705Y-64126800D01*
X63411377Y-64153718D01*
X63411367Y-64153721D01*
X63283895Y-64206521D01*
X63283882Y-64206528D01*
X63169158Y-64283185D01*
X63169154Y-64283188D01*
X63071588Y-64380754D01*
X63071585Y-64380758D01*
X63036822Y-64432785D01*
X62983210Y-64477590D01*
X62913885Y-64486297D01*
X62909529Y-64485511D01*
X62803397Y-64464400D01*
X62803393Y-64464400D01*
X62665407Y-64464400D01*
X62665405Y-64464400D01*
X62530077Y-64491318D01*
X62530067Y-64491321D01*
X62402595Y-64544121D01*
X62402582Y-64544128D01*
X62287858Y-64620785D01*
X62287854Y-64620788D01*
X62190288Y-64718354D01*
X62190285Y-64718358D01*
X62113628Y-64833082D01*
X62113621Y-64833095D01*
X62060821Y-64960567D01*
X62060818Y-64960577D01*
X62033900Y-65095904D01*
X62033900Y-65095907D01*
X62033900Y-65233893D01*
X62033900Y-65233895D01*
X62033899Y-65233895D01*
X60476419Y-65233895D01*
X60708180Y-65002134D01*
X64142819Y-61567495D01*
X67593800Y-58116514D01*
X67659692Y-58002386D01*
X67693800Y-57875092D01*
X67693800Y-57743307D01*
X67693800Y-56106408D01*
X69417800Y-56106408D01*
X69417800Y-62495108D01*
X69417800Y-62626892D01*
X69445836Y-62731524D01*
X69451908Y-62754186D01*
X69454859Y-62761309D01*
X69464300Y-62808766D01*
X69464300Y-62876493D01*
X69464300Y-62876495D01*
X69464299Y-62876495D01*
X69491218Y-63011822D01*
X69491221Y-63011832D01*
X69544021Y-63139304D01*
X69544028Y-63139317D01*
X69620685Y-63254041D01*
X69620688Y-63254045D01*
X69718254Y-63351611D01*
X69718258Y-63351614D01*
X69832982Y-63428271D01*
X69832995Y-63428278D01*
X69960467Y-63481078D01*
X69960472Y-63481080D01*
X69960476Y-63481080D01*
X69960477Y-63481081D01*
X70095804Y-63508000D01*
X70095807Y-63508000D01*
X70233795Y-63508000D01*
X70324841Y-63489889D01*
X70369128Y-63481080D01*
X70496611Y-63428275D01*
X70611342Y-63351614D01*
X70708914Y-63254042D01*
X70785575Y-63139311D01*
X70838380Y-63011828D01*
X70852423Y-62941231D01*
X70865300Y-62876495D01*
X70865300Y-62738504D01*
X70838381Y-62603177D01*
X70838380Y-62603176D01*
X70838380Y-62603172D01*
X70838378Y-62603167D01*
X70785578Y-62475695D01*
X70785571Y-62475682D01*
X70708914Y-62360958D01*
X70708911Y-62360954D01*
X70611345Y-62263388D01*
X70611337Y-62263382D01*
X70496613Y-62186726D01*
X70496610Y-62186724D01*
X70495344Y-62186200D01*
X70494782Y-62185747D01*
X70491233Y-62183850D01*
X70491592Y-62183176D01*
X70440942Y-62142357D01*
X70418879Y-62076062D01*
X70418800Y-62071640D01*
X70418800Y-60877200D01*
X70438485Y-60810161D01*
X70491289Y-60764406D01*
X70542800Y-60753200D01*
X70588995Y-60753200D01*
X70680041Y-60735089D01*
X70724328Y-60726280D01*
X70851811Y-60673475D01*
X70966542Y-60596814D01*
X71064114Y-60499242D01*
X71140775Y-60384511D01*
X71193580Y-60257028D01*
X71207838Y-60185351D01*
X71220500Y-60121695D01*
X71220500Y-60111375D01*
X71240185Y-60044336D01*
X71256819Y-60023694D01*
X72430319Y-58850194D01*
X72491642Y-58816709D01*
X72561334Y-58821693D01*
X72617267Y-58863565D01*
X72641684Y-58929029D01*
X72642000Y-58937875D01*
X72642000Y-60117624D01*
X72622315Y-60184663D01*
X72605681Y-60205305D01*
X71752305Y-61058681D01*
X71690982Y-61092166D01*
X71664624Y-61095000D01*
X71654305Y-61095000D01*
X71518977Y-61121918D01*
X71518967Y-61121921D01*
X71391495Y-61174721D01*
X71391482Y-61174728D01*
X71276758Y-61251385D01*
X71276754Y-61251388D01*
X71179188Y-61348954D01*
X71179185Y-61348958D01*
X71102528Y-61463682D01*
X71102521Y-61463695D01*
X71049721Y-61591167D01*
X71049718Y-61591177D01*
X71022800Y-61726504D01*
X71022800Y-61726507D01*
X71022800Y-61864493D01*
X71022800Y-61864495D01*
X71022799Y-61864495D01*
X71049718Y-61999822D01*
X71049721Y-61999832D01*
X71102521Y-62127304D01*
X71102528Y-62127317D01*
X71179185Y-62242041D01*
X71179188Y-62242045D01*
X71276754Y-62339611D01*
X71276758Y-62339614D01*
X71391482Y-62416271D01*
X71391495Y-62416278D01*
X71518967Y-62469078D01*
X71518972Y-62469080D01*
X71518976Y-62469080D01*
X71518977Y-62469081D01*
X71654304Y-62496000D01*
X71654307Y-62496000D01*
X71792295Y-62496000D01*
X71894372Y-62475695D01*
X71927628Y-62469080D01*
X72026224Y-62428240D01*
X72055104Y-62416278D01*
X72055104Y-62416277D01*
X72055111Y-62416275D01*
X72169842Y-62339614D01*
X72267414Y-62242042D01*
X72344075Y-62127311D01*
X72396880Y-61999828D01*
X72423800Y-61864493D01*
X72423800Y-61854176D01*
X72443485Y-61787137D01*
X72460119Y-61766495D01*
X72977334Y-61249280D01*
X73543000Y-60683614D01*
X73608892Y-60569486D01*
X73643000Y-60442192D01*
X73643000Y-60310407D01*
X73643000Y-57908818D01*
X73662685Y-57841779D01*
X73679323Y-57821133D01*
X73686614Y-57813842D01*
X73763275Y-57699111D01*
X73816080Y-57571628D01*
X73843000Y-57436293D01*
X73843000Y-57298307D01*
X73843000Y-57298304D01*
X73816081Y-57162977D01*
X73816080Y-57162976D01*
X73816080Y-57162972D01*
X73816078Y-57162967D01*
X73763278Y-57035495D01*
X73763271Y-57035482D01*
X73686614Y-56920758D01*
X73686611Y-56920754D01*
X73589045Y-56823188D01*
X73589041Y-56823185D01*
X73474317Y-56746528D01*
X73474304Y-56746521D01*
X73346832Y-56693721D01*
X73346822Y-56693718D01*
X73211495Y-56666800D01*
X73211493Y-56666800D01*
X73073507Y-56666800D01*
X73073505Y-56666800D01*
X73059788Y-56669528D01*
X72990196Y-56663298D01*
X72935020Y-56620434D01*
X72911778Y-56554543D01*
X72911600Y-56547910D01*
X72911600Y-52718718D01*
X72931285Y-52651679D01*
X72947923Y-52631033D01*
X72955214Y-52623742D01*
X73031875Y-52509011D01*
X73084680Y-52381528D01*
X73111600Y-52246193D01*
X73111600Y-52108207D01*
X73111600Y-52108204D01*
X73084681Y-51972877D01*
X73084680Y-51972876D01*
X73084680Y-51972872D01*
X73084678Y-51972867D01*
X73031878Y-51845395D01*
X73031871Y-51845382D01*
X72955214Y-51730658D01*
X72955211Y-51730654D01*
X72857645Y-51633088D01*
X72857641Y-51633085D01*
X72742917Y-51556428D01*
X72742904Y-51556421D01*
X72615432Y-51503621D01*
X72615422Y-51503618D01*
X72480095Y-51476700D01*
X72480093Y-51476700D01*
X72342107Y-51476700D01*
X72342105Y-51476700D01*
X72206777Y-51503618D01*
X72206767Y-51503621D01*
X72079295Y-51556421D01*
X72079282Y-51556428D01*
X71964558Y-51633085D01*
X71964554Y-51633088D01*
X71866988Y-51730654D01*
X71866985Y-51730658D01*
X71790328Y-51845382D01*
X71790321Y-51845395D01*
X71737521Y-51972867D01*
X71737518Y-51972877D01*
X71710600Y-52108204D01*
X71710600Y-52108207D01*
X71710600Y-52246193D01*
X71710600Y-52246195D01*
X71710599Y-52246195D01*
X71737518Y-52381522D01*
X71737521Y-52381532D01*
X71790321Y-52509004D01*
X71790328Y-52509017D01*
X71866985Y-52623741D01*
X71874277Y-52631033D01*
X71907765Y-52692355D01*
X71910600Y-52718718D01*
X71910600Y-54326381D01*
X71890915Y-54393420D01*
X71838111Y-54439175D01*
X71768953Y-54449119D01*
X71705397Y-54420094D01*
X71698919Y-54414062D01*
X71638945Y-54354088D01*
X71638941Y-54354085D01*
X71524217Y-54277428D01*
X71524204Y-54277421D01*
X71396732Y-54224621D01*
X71396722Y-54224618D01*
X71261395Y-54197700D01*
X71261393Y-54197700D01*
X71123407Y-54197700D01*
X71123405Y-54197700D01*
X70988077Y-54224618D01*
X70988067Y-54224621D01*
X70860595Y-54277421D01*
X70860582Y-54277428D01*
X70745858Y-54354085D01*
X70745854Y-54354088D01*
X70648288Y-54451654D01*
X70648285Y-54451658D01*
X70571628Y-54566382D01*
X70571621Y-54566395D01*
X70518821Y-54693867D01*
X70518818Y-54693877D01*
X70491900Y-54829204D01*
X70491900Y-54839524D01*
X70472215Y-54906563D01*
X70455581Y-54927205D01*
X69517802Y-55864983D01*
X69517800Y-55864986D01*
X69451908Y-55979112D01*
X69421096Y-56094108D01*
X69417800Y-56106408D01*
X67693800Y-56106408D01*
X67693800Y-44566708D01*
X67659692Y-44439414D01*
X67593800Y-44325286D01*
X67500614Y-44232100D01*
X61561903Y-38293389D01*
X122519500Y-38293389D01*
X122519500Y-38466611D01*
X122546598Y-38637701D01*
X122600127Y-38802445D01*
X122678768Y-38956788D01*
X122780586Y-39096928D01*
X122903072Y-39219414D01*
X123043212Y-39321232D01*
X123197555Y-39399873D01*
X123362299Y-39453402D01*
X123533389Y-39480500D01*
X123533390Y-39480500D01*
X123706610Y-39480500D01*
X123706611Y-39480500D01*
X123877701Y-39453402D01*
X124042445Y-39399873D01*
X124196788Y-39321232D01*
X124336928Y-39219414D01*
X124459414Y-39096928D01*
X124561232Y-38956788D01*
X124639873Y-38802445D01*
X124693402Y-38637701D01*
X124720500Y-38466611D01*
X124720500Y-38293389D01*
X127599500Y-38293389D01*
X127599500Y-38466611D01*
X127626598Y-38637701D01*
X127680127Y-38802445D01*
X127758768Y-38956788D01*
X127860586Y-39096928D01*
X127983072Y-39219414D01*
X128123212Y-39321232D01*
X128277555Y-39399873D01*
X128442299Y-39453402D01*
X128613389Y-39480500D01*
X128613390Y-39480500D01*
X128786610Y-39480500D01*
X128786611Y-39480500D01*
X128957701Y-39453402D01*
X129122445Y-39399873D01*
X129276788Y-39321232D01*
X129416928Y-39219414D01*
X129539414Y-39096928D01*
X129641232Y-38956788D01*
X129719873Y-38802445D01*
X129773402Y-38637701D01*
X129800500Y-38466611D01*
X129800500Y-38293389D01*
X132679500Y-38293389D01*
X132679500Y-38466611D01*
X132706598Y-38637701D01*
X132760127Y-38802445D01*
X132838768Y-38956788D01*
X132940586Y-39096928D01*
X133063072Y-39219414D01*
X133203212Y-39321232D01*
X133357555Y-39399873D01*
X133522299Y-39453402D01*
X133693389Y-39480500D01*
X133693390Y-39480500D01*
X133866610Y-39480500D01*
X133866611Y-39480500D01*
X134037701Y-39453402D01*
X134202445Y-39399873D01*
X134356788Y-39321232D01*
X134496928Y-39219414D01*
X134619414Y-39096928D01*
X134721232Y-38956788D01*
X134799873Y-38802445D01*
X134853402Y-38637701D01*
X134880500Y-38466611D01*
X134880500Y-38293389D01*
X134853402Y-38122299D01*
X134799873Y-37957555D01*
X134721232Y-37803212D01*
X134619414Y-37663072D01*
X134496928Y-37540586D01*
X134356788Y-37438768D01*
X134202447Y-37360128D01*
X134202446Y-37360127D01*
X134202445Y-37360127D01*
X134037701Y-37306598D01*
X134037699Y-37306597D01*
X134037698Y-37306597D01*
X133906271Y-37285781D01*
X133866611Y-37279500D01*
X133693389Y-37279500D01*
X133653728Y-37285781D01*
X133522302Y-37306597D01*
X133357552Y-37360128D01*
X133203211Y-37438768D01*
X133123256Y-37496859D01*
X133063072Y-37540586D01*
X133063070Y-37540588D01*
X133063069Y-37540588D01*
X132940588Y-37663069D01*
X132940588Y-37663070D01*
X132940586Y-37663072D01*
X132896859Y-37723256D01*
X132838768Y-37803211D01*
X132760128Y-37957552D01*
X132706597Y-38122302D01*
X132679500Y-38293389D01*
X129800500Y-38293389D01*
X129773402Y-38122299D01*
X129719873Y-37957555D01*
X129641232Y-37803212D01*
X129539414Y-37663072D01*
X129416928Y-37540586D01*
X129276788Y-37438768D01*
X129122447Y-37360128D01*
X129122446Y-37360127D01*
X129122445Y-37360127D01*
X128957701Y-37306598D01*
X128957699Y-37306597D01*
X128957698Y-37306597D01*
X128826271Y-37285781D01*
X128786611Y-37279500D01*
X128613389Y-37279500D01*
X128573728Y-37285781D01*
X128442302Y-37306597D01*
X128277552Y-37360128D01*
X128123211Y-37438768D01*
X128043256Y-37496859D01*
X127983072Y-37540586D01*
X127983070Y-37540588D01*
X127983069Y-37540588D01*
X127860588Y-37663069D01*
X127860588Y-37663070D01*
X127860586Y-37663072D01*
X127816859Y-37723256D01*
X127758768Y-37803211D01*
X127680128Y-37957552D01*
X127626597Y-38122302D01*
X127599500Y-38293389D01*
X124720500Y-38293389D01*
X124693402Y-38122299D01*
X124639873Y-37957555D01*
X124561232Y-37803212D01*
X124459414Y-37663072D01*
X124336928Y-37540586D01*
X124196788Y-37438768D01*
X124042447Y-37360128D01*
X124042446Y-37360127D01*
X124042445Y-37360127D01*
X123877701Y-37306598D01*
X123877699Y-37306597D01*
X123877698Y-37306597D01*
X123746271Y-37285781D01*
X123706611Y-37279500D01*
X123533389Y-37279500D01*
X123493728Y-37285781D01*
X123362302Y-37306597D01*
X123197552Y-37360128D01*
X123043211Y-37438768D01*
X122963256Y-37496859D01*
X122903072Y-37540586D01*
X122903070Y-37540588D01*
X122903069Y-37540588D01*
X122780588Y-37663069D01*
X122780588Y-37663070D01*
X122780586Y-37663072D01*
X122736859Y-37723256D01*
X122678768Y-37803211D01*
X122600128Y-37957552D01*
X122546597Y-38122302D01*
X122519500Y-38293389D01*
X61561903Y-38293389D01*
X61420719Y-38152205D01*
X61387234Y-38090882D01*
X61384400Y-38064524D01*
X61384400Y-38054204D01*
X61357481Y-37918877D01*
X61357480Y-37918876D01*
X61357480Y-37918872D01*
X61357478Y-37918867D01*
X61304678Y-37791395D01*
X61304671Y-37791382D01*
X61228014Y-37676658D01*
X61228011Y-37676654D01*
X61130445Y-37579088D01*
X61130441Y-37579085D01*
X61015717Y-37502428D01*
X61015704Y-37502421D01*
X60888232Y-37449621D01*
X60888222Y-37449618D01*
X60752895Y-37422700D01*
X60752893Y-37422700D01*
X60614907Y-37422700D01*
X60614905Y-37422700D01*
X60479577Y-37449618D01*
X60479567Y-37449621D01*
X60352095Y-37502421D01*
X60352082Y-37502428D01*
X60237358Y-37579085D01*
X60237354Y-37579088D01*
X60139788Y-37676654D01*
X60139785Y-37676658D01*
X60063128Y-37791382D01*
X60063121Y-37791395D01*
X60010321Y-37918867D01*
X60010318Y-37918877D01*
X59983400Y-38054204D01*
X59983400Y-38054207D01*
X59983400Y-38192193D01*
X59983400Y-38192195D01*
X59983399Y-38192195D01*
X60010318Y-38327522D01*
X60010321Y-38327532D01*
X60063121Y-38455004D01*
X60063128Y-38455017D01*
X60139785Y-38569741D01*
X60139788Y-38569745D01*
X60237354Y-38667311D01*
X60237358Y-38667314D01*
X60352082Y-38743971D01*
X60352095Y-38743978D01*
X60479567Y-38796778D01*
X60479572Y-38796780D01*
X60479576Y-38796780D01*
X60479577Y-38796781D01*
X60614904Y-38823700D01*
X60614907Y-38823700D01*
X60625224Y-38823700D01*
X60692263Y-38843385D01*
X60712905Y-38860019D01*
X66656481Y-44803595D01*
X66689966Y-44864918D01*
X66692800Y-44891276D01*
X66692800Y-53934700D01*
X66673115Y-54001739D01*
X66620311Y-54047494D01*
X66568800Y-54058700D01*
X66501905Y-54058700D01*
X66366577Y-54085618D01*
X66366567Y-54085621D01*
X66239095Y-54138421D01*
X66239082Y-54138428D01*
X66124358Y-54215085D01*
X66124354Y-54215088D01*
X66026788Y-54312654D01*
X66026785Y-54312658D01*
X65950128Y-54427382D01*
X65950121Y-54427395D01*
X65897321Y-54554867D01*
X65897318Y-54554877D01*
X65870400Y-54690204D01*
X65870400Y-54700524D01*
X65850715Y-54767563D01*
X65834081Y-54788205D01*
X55845981Y-64776305D01*
X55784658Y-64809790D01*
X55714966Y-64804806D01*
X55659033Y-64762934D01*
X55634616Y-64697470D01*
X55634300Y-64688624D01*
X55634300Y-62787710D01*
X55634300Y-62787708D01*
X55600192Y-62660414D01*
X55534300Y-62546286D01*
X55441114Y-62453100D01*
X39028425Y-46040411D01*
X38994940Y-45979088D01*
X38999924Y-45909396D01*
X39028425Y-45865049D01*
X39048880Y-45844594D01*
X39078828Y-45814646D01*
X39194524Y-45655405D01*
X39283884Y-45480025D01*
X39344709Y-45292826D01*
X39351413Y-45250500D01*
X39375500Y-45098422D01*
X39375500Y-44901577D01*
X39344709Y-44707173D01*
X39299069Y-44566710D01*
X39283884Y-44519975D01*
X39283882Y-44519972D01*
X39283882Y-44519970D01*
X39194523Y-44344594D01*
X39180493Y-44325283D01*
X39078828Y-44185354D01*
X38939646Y-44046172D01*
X38780405Y-43930476D01*
X38605029Y-43841117D01*
X38417826Y-43780290D01*
X38223422Y-43749500D01*
X38223417Y-43749500D01*
X37776583Y-43749500D01*
X37776578Y-43749500D01*
X37582173Y-43780290D01*
X37394970Y-43841117D01*
X37219594Y-43930476D01*
X37128741Y-43996485D01*
X37060354Y-44046172D01*
X37060352Y-44046174D01*
X37060351Y-44046174D01*
X36921174Y-44185351D01*
X36921174Y-44185352D01*
X36921172Y-44185354D01*
X36887209Y-44232100D01*
X36805476Y-44344594D01*
X36716117Y-44519970D01*
X36655290Y-44707173D01*
X36624500Y-44901577D01*
X31000000Y-44901577D01*
X31000000Y-35878711D01*
X34149500Y-35878711D01*
X34149500Y-36121288D01*
X34181161Y-36361785D01*
X34243947Y-36596104D01*
X34336773Y-36820205D01*
X34336776Y-36820212D01*
X34458064Y-37030289D01*
X34458066Y-37030292D01*
X34458067Y-37030293D01*
X34605733Y-37222736D01*
X34605739Y-37222743D01*
X34777256Y-37394260D01*
X34777263Y-37394266D01*
X34849402Y-37449620D01*
X34969711Y-37541936D01*
X35179788Y-37663224D01*
X35403900Y-37756054D01*
X35638211Y-37818838D01*
X35818586Y-37842584D01*
X35878711Y-37850500D01*
X35878712Y-37850500D01*
X36121289Y-37850500D01*
X36169388Y-37844167D01*
X36361789Y-37818838D01*
X36596100Y-37756054D01*
X36820212Y-37663224D01*
X37030289Y-37541936D01*
X37222738Y-37394265D01*
X37394265Y-37222738D01*
X37541936Y-37030289D01*
X37663224Y-36820212D01*
X37756054Y-36596100D01*
X37818838Y-36361789D01*
X37850500Y-36121288D01*
X37850500Y-35878712D01*
X37850500Y-35878711D01*
X142149500Y-35878711D01*
X142149500Y-36121288D01*
X142181161Y-36361785D01*
X142243947Y-36596104D01*
X142336773Y-36820205D01*
X142336776Y-36820212D01*
X142458064Y-37030289D01*
X142458066Y-37030292D01*
X142458067Y-37030293D01*
X142605733Y-37222736D01*
X142605739Y-37222743D01*
X142777256Y-37394260D01*
X142777263Y-37394266D01*
X142849402Y-37449620D01*
X142969711Y-37541936D01*
X143179788Y-37663224D01*
X143403900Y-37756054D01*
X143638211Y-37818838D01*
X143818586Y-37842584D01*
X143878711Y-37850500D01*
X143878712Y-37850500D01*
X144121289Y-37850500D01*
X144169388Y-37844167D01*
X144361789Y-37818838D01*
X144596100Y-37756054D01*
X144820212Y-37663224D01*
X145030289Y-37541936D01*
X145222738Y-37394265D01*
X145394265Y-37222738D01*
X145541936Y-37030289D01*
X145663224Y-36820212D01*
X145756054Y-36596100D01*
X145818838Y-36361789D01*
X145850500Y-36121288D01*
X145850500Y-35878712D01*
X145818838Y-35638211D01*
X145756054Y-35403900D01*
X145663224Y-35179788D01*
X145541936Y-34969711D01*
X145394265Y-34777262D01*
X145394260Y-34777256D01*
X145222743Y-34605739D01*
X145222736Y-34605733D01*
X145030293Y-34458067D01*
X145030292Y-34458066D01*
X145030289Y-34458064D01*
X144820212Y-34336776D01*
X144820205Y-34336773D01*
X144596104Y-34243947D01*
X144361785Y-34181161D01*
X144121289Y-34149500D01*
X144121288Y-34149500D01*
X143878712Y-34149500D01*
X143878711Y-34149500D01*
X143638214Y-34181161D01*
X143403895Y-34243947D01*
X143179794Y-34336773D01*
X143179785Y-34336777D01*
X142969706Y-34458067D01*
X142777263Y-34605733D01*
X142777256Y-34605739D01*
X142605739Y-34777256D01*
X142605733Y-34777263D01*
X142458067Y-34969706D01*
X142336777Y-35179785D01*
X142336773Y-35179794D01*
X142243947Y-35403895D01*
X142181161Y-35638214D01*
X142149500Y-35878711D01*
X37850500Y-35878711D01*
X37818838Y-35638211D01*
X37756054Y-35403900D01*
X37663224Y-35179788D01*
X37541936Y-34969711D01*
X37394265Y-34777262D01*
X37394260Y-34777256D01*
X37222743Y-34605739D01*
X37222736Y-34605733D01*
X37030293Y-34458067D01*
X37030292Y-34458066D01*
X37030289Y-34458064D01*
X36820212Y-34336776D01*
X36820205Y-34336773D01*
X36596104Y-34243947D01*
X36361785Y-34181161D01*
X36121289Y-34149500D01*
X36121288Y-34149500D01*
X35878712Y-34149500D01*
X35878711Y-34149500D01*
X35638214Y-34181161D01*
X35403895Y-34243947D01*
X35179794Y-34336773D01*
X35179785Y-34336777D01*
X34969706Y-34458067D01*
X34777263Y-34605733D01*
X34777256Y-34605739D01*
X34605739Y-34777256D01*
X34605733Y-34777263D01*
X34458067Y-34969706D01*
X34336777Y-35179785D01*
X34336773Y-35179794D01*
X34243947Y-35403895D01*
X34181161Y-35638214D01*
X34149500Y-35878711D01*
X31000000Y-35878711D01*
X31000000Y-31124000D01*
X31019685Y-31056961D01*
X31072489Y-31011206D01*
X31124000Y-31000000D01*
X148876000Y-31000000D01*
X148943039Y-31019685D01*
G37*
%TD.AperFunction*%
%TD*%
M02*
