%TF.GenerationSoftware,KiCad,Pcbnew,10.0.5*%
%TF.CreationDate,2026-08-02T05:32:18-05:00*%
%TF.ProjectId,power-backplane,706f7765-722d-4626-9163-6b706c616e65,rev?*%
%TF.SameCoordinates,Original*%
%TF.FileFunction,Copper,L1,Top*%
%TF.FilePolarity,Positive*%
%FSLAX46Y46*%
G04 Gerber Fmt 4.6, Leading zero omitted, Abs format (unit mm)*
G04 Created by KiCad (PCBNEW 10.0.5) date 2026-08-02 05:32:18*
%MOMM*%
%LPD*%
G01*
G04 APERTURE LIST*
G04 Aperture macros list*
%AMRoundRect*
0 Rectangle with rounded corners*
0 $1 Rounding radius*
0 $2 $3 $4 $5 $6 $7 $8 $9 X,Y pos of 4 corners*
0 Add a 4 corners polygon primitive as box body*
4,1,4,$2,$3,$4,$5,$6,$7,$8,$9,$2,$3,0*
0 Add four circle primitives for the rounded corners*
1,1,$1+$1,$2,$3*
1,1,$1+$1,$4,$5*
1,1,$1+$1,$6,$7*
1,1,$1+$1,$8,$9*
0 Add four rect primitives between the rounded corners*
20,1,$1+$1,$2,$3,$4,$5,0*
20,1,$1+$1,$4,$5,$6,$7,0*
20,1,$1+$1,$6,$7,$8,$9,0*
20,1,$1+$1,$8,$9,$2,$3,0*%
G04 Aperture macros list end*
%TA.AperFunction,ComponentPad*%
%ADD10RoundRect,0.250001X-1.099999X-1.099999X1.099999X-1.099999X1.099999X1.099999X-1.099999X1.099999X0*%
%TD*%
%TA.AperFunction,ComponentPad*%
%ADD11C,2.700000*%
%TD*%
%TA.AperFunction,ComponentPad*%
%ADD12R,1.500000X2.300000*%
%TD*%
%TA.AperFunction,ComponentPad*%
%ADD13O,1.500000X2.300000*%
%TD*%
%TA.AperFunction,SMDPad,CuDef*%
%ADD14RoundRect,0.250000X-1.950000X-1.000000X1.950000X-1.000000X1.950000X1.000000X-1.950000X1.000000X0*%
%TD*%
%TA.AperFunction,ComponentPad*%
%ADD15R,3.500000X3.500000*%
%TD*%
%TA.AperFunction,ComponentPad*%
%ADD16RoundRect,0.750000X-0.750000X-1.000000X0.750000X-1.000000X0.750000X1.000000X-0.750000X1.000000X0*%
%TD*%
%TA.AperFunction,ComponentPad*%
%ADD17RoundRect,0.875000X-0.875000X-0.875000X0.875000X-0.875000X0.875000X0.875000X-0.875000X0.875000X0*%
%TD*%
%TA.AperFunction,SMDPad,CuDef*%
%ADD18RoundRect,0.250000X-0.650000X1.000000X-0.650000X-1.000000X0.650000X-1.000000X0.650000X1.000000X0*%
%TD*%
%TA.AperFunction,SMDPad,CuDef*%
%ADD19RoundRect,0.200000X-0.200000X-0.275000X0.200000X-0.275000X0.200000X0.275000X-0.200000X0.275000X0*%
%TD*%
%TA.AperFunction,SMDPad,CuDef*%
%ADD20RoundRect,0.218750X-0.218750X-0.256250X0.218750X-0.256250X0.218750X0.256250X-0.218750X0.256250X0*%
%TD*%
%TA.AperFunction,SMDPad,CuDef*%
%ADD21RoundRect,0.250000X-0.312500X-1.450000X0.312500X-1.450000X0.312500X1.450000X-0.312500X1.450000X0*%
%TD*%
%TA.AperFunction,SMDPad,CuDef*%
%ADD22RoundRect,0.250000X-1.000000X-0.650000X1.000000X-0.650000X1.000000X0.650000X-1.000000X0.650000X0*%
%TD*%
%TA.AperFunction,ComponentPad*%
%ADD23R,2.500000X2.500000*%
%TD*%
%TA.AperFunction,ComponentPad*%
%ADD24C,2.500000*%
%TD*%
%TA.AperFunction,ViaPad*%
%ADD25C,0.600000*%
%TD*%
%TA.AperFunction,Conductor*%
%ADD26C,0.200000*%
%TD*%
G04 APERTURE END LIST*
D10*
%TO.P,P601,1*%
%TO.N,+15VA*%
X10851700Y-12748200D03*
D11*
%TO.P,P601,2*%
%TO.N,AGND*%
X14811700Y-12748200D03*
%TO.P,P601,3*%
%TO.N,+5VAUX*%
X18771700Y-12748200D03*
%TO.P,P601,4*%
%TO.N,-15VA*%
X22731700Y-12748200D03*
%TD*%
D12*
%TO.P,PS501,1*%
%TO.N,+15VA*%
X10670000Y-31004700D03*
D13*
%TO.P,PS501,2*%
%TO.N,AGND*%
X13210000Y-31004700D03*
%TO.P,PS501,3*%
%TO.N,+5VAUX*%
X15750000Y-31004700D03*
%TD*%
D14*
%TO.P,C500,1*%
%TO.N,PGND_IN*%
X86780100Y-28744700D03*
%TO.P,C500,2*%
%TO.N,+30VIN*%
X94180100Y-28744700D03*
%TD*%
D15*
%TO.P,J500,1*%
%TO.N,PGND_IN*%
X14000000Y-50000000D03*
D16*
%TO.P,J500,2*%
%TO.N,VIN_ENTRY*%
X8000000Y-50000000D03*
D17*
%TO.P,J500,3*%
%TO.N,N/C*%
X11000000Y-54700000D03*
%TD*%
D18*
%TO.P,TVS500,1*%
%TO.N,PGND_IN*%
X46123500Y-24166500D03*
%TO.P,TVS500,2*%
%TO.N,+30VIN*%
X46123500Y-28166500D03*
%TD*%
D19*
%TO.P,R502,1*%
%TO.N,PGND_IN*%
X89175000Y-45000000D03*
%TO.P,R502,2*%
%TO.N,AGND*%
X90825000Y-45000000D03*
%TD*%
D10*
%TO.P,P501,1*%
%TO.N,-15VA*%
X127008400Y-12748200D03*
D11*
%TO.P,P501,2*%
%TO.N,AGND*%
X130968400Y-12748200D03*
%TO.P,P501,3*%
%TO.N,+15VA*%
X134928400Y-12748200D03*
%TD*%
D20*
%TO.P,FB500,1*%
%TO.N,+15VA*%
X58142600Y-24874700D03*
%TO.P,FB500,2*%
%TO.N,+15V_RAW*%
X59717600Y-24874700D03*
%TD*%
D10*
%TO.P,P506,1*%
%TO.N,-15VA*%
X33220700Y-12748200D03*
D11*
%TO.P,P506,2*%
%TO.N,AGND*%
X37180700Y-12748200D03*
%TO.P,P506,3*%
%TO.N,+15VA*%
X41140700Y-12748200D03*
%TO.P,P506,4*%
%TO.N,+5VAUX*%
X45100700Y-12748200D03*
%TD*%
D10*
%TO.P,P503,1*%
%TO.N,-15VA*%
X56641200Y-12748200D03*
D11*
%TO.P,P503,2*%
%TO.N,AGND*%
X60601200Y-12748200D03*
%TO.P,P503,3*%
%TO.N,+15VA*%
X64561200Y-12748200D03*
%TD*%
D21*
%TO.P,F500,1*%
%TO.N,VIN_FUSED*%
X23770100Y-26094700D03*
%TO.P,F500,2*%
%TO.N,VIN_ENTRY*%
X28045100Y-26094700D03*
%TD*%
D22*
%TO.P,D500,1*%
%TO.N,VIN_FUSED*%
X34150200Y-25944700D03*
%TO.P,D500,2*%
%TO.N,+30VIN*%
X38150200Y-25944700D03*
%TD*%
D23*
%TO.P,PS500,1*%
%TO.N,PGND_IN*%
X60000000Y-50000000D03*
D24*
%TO.P,PS500,2*%
%TO.N,+30VIN*%
X54920000Y-50000000D03*
%TO.P,PS500,3*%
%TO.N,+15V_RAW*%
X52380000Y-70320000D03*
%TO.P,PS500,4*%
%TO.N,AGND*%
X62540000Y-70320000D03*
%TO.P,PS500,5*%
%TO.N,-15V_RAW*%
X72700000Y-70320000D03*
%TO.P,PS500,6*%
%TO.N,N/C*%
X67620000Y-50000000D03*
%TD*%
D10*
%TO.P,P502,1*%
%TO.N,-15VA*%
X110265300Y-12748200D03*
D11*
%TO.P,P502,2*%
%TO.N,AGND*%
X114225300Y-12748200D03*
%TO.P,P502,3*%
%TO.N,+15VA*%
X118185300Y-12748200D03*
%TD*%
D10*
%TO.P,P505,1*%
%TO.N,-15VA*%
X75819800Y-12748200D03*
D11*
%TO.P,P505,2*%
%TO.N,AGND*%
X79779800Y-12748200D03*
%TO.P,P505,3*%
%TO.N,+15VA*%
X83739800Y-12748200D03*
%TD*%
D20*
%TO.P,FB501,1*%
%TO.N,-15VA*%
X74059200Y-24874700D03*
%TO.P,FB501,2*%
%TO.N,-15V_RAW*%
X75634200Y-24874700D03*
%TD*%
D10*
%TO.P,P504,1*%
%TO.N,-15VA*%
X93260300Y-12748200D03*
D11*
%TO.P,P504,2*%
%TO.N,AGND*%
X97220300Y-12748200D03*
%TO.P,P504,3*%
%TO.N,+15VA*%
X101180300Y-12748200D03*
%TD*%
D25*
%TO.N,PGND_IN*%
X57392600Y-29929500D03*
%TO.N,+15V_RAW*%
X59479000Y-26012700D03*
%TO.N,-15V_RAW*%
X75898600Y-26012700D03*
%TD*%
%TO.N,+15VA*%
D26*
X12529500Y-14426000D02*
X10851700Y-12748200D01*
X83739800Y-12748200D02*
X85392400Y-14400800D01*
X102849600Y-11078900D02*
X116516000Y-11078900D01*
X119882400Y-14445300D02*
X133231300Y-14445300D01*
X116516000Y-11078900D02*
X118185300Y-12748200D01*
X133231300Y-14445300D02*
X134928400Y-12748200D01*
X41140700Y-14426000D02*
X41140700Y-12748200D01*
X58142600Y-24874700D02*
X58142600Y-14426000D01*
X101180300Y-12748200D02*
X102849600Y-11078900D01*
X64561200Y-12748200D02*
X62883400Y-14426000D01*
X62883400Y-14426000D02*
X58142600Y-14426000D01*
X118185300Y-12748200D02*
X119882400Y-14445300D01*
X99527700Y-14400800D02*
X101180300Y-12748200D01*
X85392400Y-14400800D02*
X99527700Y-14400800D01*
X58142600Y-14426000D02*
X41140700Y-14426000D01*
X41140700Y-14426000D02*
X12529500Y-14426000D01*
%TO.N,+5VAUX*%
X18771700Y-12748200D02*
X20431300Y-11088600D01*
X20431300Y-11088600D02*
X43441100Y-11088600D01*
X43441100Y-11088600D02*
X45100700Y-12748200D01*
%TO.N,-15VA*%
X74059200Y-14508800D02*
X75819800Y-12748200D01*
X93260300Y-12748200D02*
X91608600Y-11096500D01*
X91608600Y-11096500D02*
X77471500Y-11096500D01*
X33220700Y-12748200D02*
X22731700Y-12748200D01*
X74150700Y-11079100D02*
X58310300Y-11079100D01*
X74059200Y-24874700D02*
X74059200Y-14508800D01*
X58310300Y-11079100D02*
X56641200Y-12748200D01*
X77471500Y-11096500D02*
X75819800Y-12748200D01*
X75819800Y-12748200D02*
X74150700Y-11079100D01*
%TO.N,PGND_IN*%
X57392600Y-28744700D02*
X57392600Y-29929500D01*
X57392600Y-28744700D02*
X86780100Y-28744700D01*
X16051700Y-50000000D02*
X17603400Y-51551700D01*
X56896600Y-51551700D02*
X58448300Y-50000000D01*
X14000000Y-50000000D02*
X16051700Y-50000000D01*
X61551700Y-50000000D02*
X66551700Y-45000000D01*
X60000000Y-50000000D02*
X61551700Y-50000000D01*
X66551700Y-45000000D02*
X89175000Y-45000000D01*
X57392600Y-28744600D02*
X57392600Y-28744700D01*
X17603400Y-51551700D02*
X56896600Y-51551700D01*
X46123500Y-24166500D02*
X50701600Y-28744600D01*
X60000000Y-50000000D02*
X58448300Y-50000000D01*
X50701600Y-28744600D02*
X57392600Y-28744600D01*
%TO.N,+30VIN*%
X92393600Y-30531200D02*
X94180100Y-28744700D01*
X38150200Y-25944700D02*
X40372000Y-28166500D01*
X48488200Y-30531200D02*
X92393600Y-30531200D01*
X54920000Y-50000000D02*
X46123500Y-41203500D01*
X46123500Y-28166500D02*
X48488200Y-30531200D01*
X46123500Y-41203500D02*
X46123500Y-28166500D01*
X40372000Y-28166500D02*
X46123500Y-28166500D01*
%TO.N,VIN_ENTRY*%
X28045100Y-26094700D02*
X8000000Y-46139800D01*
X8000000Y-46139800D02*
X8000000Y-50000000D01*
%TO.N,+15V_RAW*%
X59717600Y-25774100D02*
X59717600Y-24874700D01*
X59479000Y-26012700D02*
X59717600Y-25774100D01*
%TO.N,VIN_FUSED*%
X25789500Y-24075300D02*
X23770100Y-26094700D01*
X34150200Y-25944700D02*
X32280800Y-24075300D01*
X32280800Y-24075300D02*
X25789500Y-24075300D01*
%TO.N,-15V_RAW*%
X75634200Y-25748300D02*
X75634200Y-24874700D01*
X75898600Y-26012700D02*
X75634200Y-25748300D01*
%TD*%
%TA.AperFunction,Conductor*%
%TO.N,AGND*%
G36*
X149458691Y-519407D02*
G01*
X149494655Y-568907D01*
X149499500Y-599500D01*
X149499500Y-94400500D01*
X149480593Y-94458691D01*
X149431093Y-94494655D01*
X149400500Y-94499500D01*
X599500Y-94499500D01*
X541309Y-94480593D01*
X505345Y-94431093D01*
X500500Y-94400500D01*
X500500Y-91378710D01*
X1649500Y-91378710D01*
X1649500Y-91621289D01*
X1681161Y-91861781D01*
X1681161Y-91861786D01*
X1743944Y-92096092D01*
X1743948Y-92096105D01*
X1836772Y-92320204D01*
X1836774Y-92320208D01*
X1836776Y-92320212D01*
X1958064Y-92530289D01*
X1958066Y-92530292D01*
X2105729Y-92722731D01*
X2105731Y-92722733D01*
X2105735Y-92722738D01*
X2277262Y-92894265D01*
X2277266Y-92894268D01*
X2277268Y-92894270D01*
X2469707Y-93041933D01*
X2469711Y-93041936D01*
X2679788Y-93163224D01*
X2903900Y-93256054D01*
X3138211Y-93318838D01*
X3378712Y-93350500D01*
X3378713Y-93350500D01*
X3621287Y-93350500D01*
X3621288Y-93350500D01*
X3861789Y-93318838D01*
X4096100Y-93256054D01*
X4320212Y-93163224D01*
X4530289Y-93041936D01*
X4722738Y-92894265D01*
X4894265Y-92722738D01*
X5041936Y-92530289D01*
X5163224Y-92320212D01*
X5256054Y-92096100D01*
X5318838Y-91861789D01*
X5350500Y-91621288D01*
X5350500Y-91378712D01*
X5350500Y-91378710D01*
X144649500Y-91378710D01*
X144649500Y-91621289D01*
X144681161Y-91861781D01*
X144681161Y-91861786D01*
X144743944Y-92096092D01*
X144743948Y-92096105D01*
X144836772Y-92320204D01*
X144836774Y-92320208D01*
X144836776Y-92320212D01*
X144958064Y-92530289D01*
X144958066Y-92530292D01*
X145105729Y-92722731D01*
X145105731Y-92722733D01*
X145105735Y-92722738D01*
X145277262Y-92894265D01*
X145277266Y-92894268D01*
X145277268Y-92894270D01*
X145469707Y-93041933D01*
X145469711Y-93041936D01*
X145679788Y-93163224D01*
X145903900Y-93256054D01*
X146138211Y-93318838D01*
X146378712Y-93350500D01*
X146378713Y-93350500D01*
X146621287Y-93350500D01*
X146621288Y-93350500D01*
X146861789Y-93318838D01*
X147096100Y-93256054D01*
X147320212Y-93163224D01*
X147530289Y-93041936D01*
X147722738Y-92894265D01*
X147894265Y-92722738D01*
X148041936Y-92530289D01*
X148163224Y-92320212D01*
X148256054Y-92096100D01*
X148318838Y-91861789D01*
X148350500Y-91621288D01*
X148350500Y-91378712D01*
X148318838Y-91138211D01*
X148256054Y-90903900D01*
X148163224Y-90679788D01*
X148041936Y-90469711D01*
X147894265Y-90277262D01*
X147722738Y-90105735D01*
X147722733Y-90105731D01*
X147722731Y-90105729D01*
X147530292Y-89958066D01*
X147530289Y-89958064D01*
X147320212Y-89836776D01*
X147320208Y-89836774D01*
X147320204Y-89836772D01*
X147096105Y-89743948D01*
X147096104Y-89743947D01*
X147096100Y-89743946D01*
X146861789Y-89681162D01*
X146861786Y-89681161D01*
X146861784Y-89681161D01*
X146621289Y-89649500D01*
X146621288Y-89649500D01*
X146378712Y-89649500D01*
X146378710Y-89649500D01*
X146138218Y-89681161D01*
X146138213Y-89681161D01*
X145903907Y-89743944D01*
X145903894Y-89743948D01*
X145679795Y-89836772D01*
X145469707Y-89958066D01*
X145277268Y-90105729D01*
X145105729Y-90277268D01*
X144958066Y-90469707D01*
X144836772Y-90679795D01*
X144743948Y-90903894D01*
X144743944Y-90903907D01*
X144681161Y-91138213D01*
X144681161Y-91138218D01*
X144649500Y-91378710D01*
X5350500Y-91378710D01*
X5318838Y-91138211D01*
X5256054Y-90903900D01*
X5163224Y-90679788D01*
X5041936Y-90469711D01*
X4894265Y-90277262D01*
X4722738Y-90105735D01*
X4722733Y-90105731D01*
X4722731Y-90105729D01*
X4530292Y-89958066D01*
X4530289Y-89958064D01*
X4320212Y-89836776D01*
X4320208Y-89836774D01*
X4320204Y-89836772D01*
X4096105Y-89743948D01*
X4096104Y-89743947D01*
X4096100Y-89743946D01*
X3861789Y-89681162D01*
X3861786Y-89681161D01*
X3861784Y-89681161D01*
X3621289Y-89649500D01*
X3621288Y-89649500D01*
X3378712Y-89649500D01*
X3378710Y-89649500D01*
X3138218Y-89681161D01*
X3138213Y-89681161D01*
X2903907Y-89743944D01*
X2903894Y-89743948D01*
X2679795Y-89836772D01*
X2469707Y-89958066D01*
X2277268Y-90105729D01*
X2105729Y-90277268D01*
X1958066Y-90469707D01*
X1836772Y-90679795D01*
X1743948Y-90903894D01*
X1743944Y-90903907D01*
X1681161Y-91138213D01*
X1681161Y-91138218D01*
X1649500Y-91378710D01*
X500500Y-91378710D01*
X500500Y-70197969D01*
X50829500Y-70197969D01*
X50829500Y-70442030D01*
X50867677Y-70683071D01*
X50943096Y-70915185D01*
X51053892Y-71132637D01*
X51132348Y-71240623D01*
X51197345Y-71330083D01*
X51369917Y-71502655D01*
X51508361Y-71603240D01*
X51567362Y-71646107D01*
X51676088Y-71701505D01*
X51784815Y-71756904D01*
X52016924Y-71832321D01*
X52016925Y-71832321D01*
X52016928Y-71832322D01*
X52257970Y-71870500D01*
X52257973Y-71870500D01*
X52502030Y-71870500D01*
X52743071Y-71832322D01*
X52743072Y-71832321D01*
X52743076Y-71832321D01*
X52975185Y-71756904D01*
X53192639Y-71646106D01*
X53390083Y-71502655D01*
X53562655Y-71330083D01*
X53706106Y-71132639D01*
X53816904Y-70915185D01*
X53892321Y-70683076D01*
X53893829Y-70673554D01*
X53930500Y-70442030D01*
X53930500Y-70205297D01*
X60790000Y-70205297D01*
X60790000Y-70434702D01*
X60819942Y-70662133D01*
X60819942Y-70662138D01*
X60879315Y-70883718D01*
X60879319Y-70883731D01*
X60967101Y-71095658D01*
X61081805Y-71294332D01*
X61138381Y-71368062D01*
X61862420Y-70644022D01*
X61875359Y-70675258D01*
X61957437Y-70798097D01*
X62061903Y-70902563D01*
X62184742Y-70984641D01*
X62215975Y-70997578D01*
X61491935Y-71721618D01*
X61565667Y-71778194D01*
X61764341Y-71892898D01*
X61976268Y-71980680D01*
X61976281Y-71980684D01*
X62197863Y-72040057D01*
X62425297Y-72069999D01*
X62425300Y-72070000D01*
X62654700Y-72070000D01*
X62654702Y-72069999D01*
X62882133Y-72040057D01*
X62882138Y-72040057D01*
X63103718Y-71980684D01*
X63103731Y-71980680D01*
X63315658Y-71892898D01*
X63514336Y-71778191D01*
X63588064Y-71721618D01*
X62864024Y-70997578D01*
X62895258Y-70984641D01*
X63018097Y-70902563D01*
X63122563Y-70798097D01*
X63204641Y-70675258D01*
X63217578Y-70644024D01*
X63941618Y-71368064D01*
X63998191Y-71294336D01*
X64112898Y-71095658D01*
X64200680Y-70883731D01*
X64200684Y-70883718D01*
X64260057Y-70662138D01*
X64260057Y-70662133D01*
X64289999Y-70434702D01*
X64290000Y-70434700D01*
X64290000Y-70205300D01*
X64289999Y-70205291D01*
X64289035Y-70197969D01*
X71149500Y-70197969D01*
X71149500Y-70442030D01*
X71187677Y-70683071D01*
X71263096Y-70915185D01*
X71373892Y-71132637D01*
X71452348Y-71240623D01*
X71517345Y-71330083D01*
X71689917Y-71502655D01*
X71828361Y-71603240D01*
X71887362Y-71646107D01*
X71996088Y-71701505D01*
X72104815Y-71756904D01*
X72336924Y-71832321D01*
X72336925Y-71832321D01*
X72336928Y-71832322D01*
X72577970Y-71870500D01*
X72577973Y-71870500D01*
X72822030Y-71870500D01*
X73063071Y-71832322D01*
X73063072Y-71832321D01*
X73063076Y-71832321D01*
X73295185Y-71756904D01*
X73512639Y-71646106D01*
X73710083Y-71502655D01*
X73882655Y-71330083D01*
X74026106Y-71132639D01*
X74136904Y-70915185D01*
X74212321Y-70683076D01*
X74213829Y-70673554D01*
X74250500Y-70442030D01*
X74250500Y-70197969D01*
X74212322Y-69956928D01*
X74174948Y-69841903D01*
X74136904Y-69724815D01*
X74058022Y-69570000D01*
X74026107Y-69507362D01*
X73986878Y-69453369D01*
X73882655Y-69309917D01*
X73710083Y-69137345D01*
X73571638Y-69036759D01*
X73512637Y-68993892D01*
X73295185Y-68883096D01*
X73063071Y-68807677D01*
X72822030Y-68769500D01*
X72822027Y-68769500D01*
X72577973Y-68769500D01*
X72577970Y-68769500D01*
X72336928Y-68807677D01*
X72104814Y-68883096D01*
X71887362Y-68993892D01*
X71689918Y-69137344D01*
X71517344Y-69309918D01*
X71373892Y-69507362D01*
X71263096Y-69724814D01*
X71187677Y-69956928D01*
X71149500Y-70197969D01*
X64289035Y-70197969D01*
X64260057Y-69977866D01*
X64260057Y-69977861D01*
X64200684Y-69756281D01*
X64200680Y-69756268D01*
X64112898Y-69544341D01*
X63998194Y-69345667D01*
X63941617Y-69271935D01*
X63217578Y-69995975D01*
X63204641Y-69964742D01*
X63122563Y-69841903D01*
X63018097Y-69737437D01*
X62895258Y-69655359D01*
X62864022Y-69642420D01*
X63588062Y-68918381D01*
X63514332Y-68861805D01*
X63315658Y-68747101D01*
X63103731Y-68659319D01*
X63103718Y-68659315D01*
X62882136Y-68599942D01*
X62654702Y-68570000D01*
X62425297Y-68570000D01*
X62197866Y-68599942D01*
X62197861Y-68599942D01*
X61976281Y-68659315D01*
X61976268Y-68659319D01*
X61764341Y-68747101D01*
X61565662Y-68861808D01*
X61491935Y-68918380D01*
X62215976Y-69642421D01*
X62184742Y-69655359D01*
X62061903Y-69737437D01*
X61957437Y-69841903D01*
X61875359Y-69964742D01*
X61862421Y-69995976D01*
X61138380Y-69271935D01*
X61081808Y-69345662D01*
X60967101Y-69544341D01*
X60879319Y-69756268D01*
X60879315Y-69756281D01*
X60819942Y-69977861D01*
X60819942Y-69977866D01*
X60790000Y-70205297D01*
X53930500Y-70205297D01*
X53930500Y-70197969D01*
X53892322Y-69956928D01*
X53854948Y-69841903D01*
X53816904Y-69724815D01*
X53738022Y-69570000D01*
X53706107Y-69507362D01*
X53666878Y-69453369D01*
X53562655Y-69309917D01*
X53390083Y-69137345D01*
X53192639Y-68993894D01*
X53192638Y-68993893D01*
X53192636Y-68993892D01*
X52975185Y-68883096D01*
X52743071Y-68807677D01*
X52502030Y-68769500D01*
X52502027Y-68769500D01*
X52257973Y-68769500D01*
X52257970Y-68769500D01*
X52016928Y-68807677D01*
X51784814Y-68883096D01*
X51567362Y-68993892D01*
X51369918Y-69137344D01*
X51197344Y-69309918D01*
X51053892Y-69507362D01*
X50943096Y-69724814D01*
X50867677Y-69956928D01*
X50829500Y-70197969D01*
X500500Y-70197969D01*
X500500Y-53752444D01*
X8949500Y-53752444D01*
X8949500Y-55647555D01*
X8955784Y-55738093D01*
X8955785Y-55738103D01*
X9005660Y-55950157D01*
X9005662Y-55950164D01*
X9093657Y-56149454D01*
X9216774Y-56329182D01*
X9370818Y-56483226D01*
X9550546Y-56606343D01*
X9749836Y-56694338D01*
X9898339Y-56729265D01*
X9961896Y-56744214D01*
X9961897Y-56744214D01*
X9961901Y-56744215D01*
X10018492Y-56748143D01*
X10052445Y-56750500D01*
X10052448Y-56750500D01*
X11947555Y-56750500D01*
X11977734Y-56748405D01*
X12038099Y-56744215D01*
X12250164Y-56694338D01*
X12449454Y-56606343D01*
X12629182Y-56483226D01*
X12783226Y-56329182D01*
X12906343Y-56149454D01*
X12994338Y-55950164D01*
X13044215Y-55738099D01*
X13050500Y-55647552D01*
X13050500Y-53752448D01*
X13044215Y-53661901D01*
X12994338Y-53449836D01*
X12906343Y-53250546D01*
X12783226Y-53070818D01*
X12629182Y-52916774D01*
X12449454Y-52793657D01*
X12250164Y-52705662D01*
X12250158Y-52705660D01*
X12250157Y-52705660D01*
X12038103Y-52655785D01*
X12038093Y-52655784D01*
X11947555Y-52649500D01*
X11947552Y-52649500D01*
X10052448Y-52649500D01*
X10052445Y-52649500D01*
X9961906Y-52655784D01*
X9961896Y-52655785D01*
X9749842Y-52705660D01*
X9749838Y-52705661D01*
X9749836Y-52705662D01*
X9650191Y-52749659D01*
X9550547Y-52793656D01*
X9370819Y-52916773D01*
X9216773Y-53070819D01*
X9093656Y-53250547D01*
X9049659Y-53350191D01*
X9005662Y-53449836D01*
X9005661Y-53449838D01*
X9005660Y-53449842D01*
X8955785Y-53661896D01*
X8955784Y-53661906D01*
X8949500Y-53752444D01*
X500500Y-53752444D01*
X500500Y-48948393D01*
X6199500Y-48948393D01*
X6199500Y-51051606D01*
X6214698Y-51205928D01*
X6214699Y-51205934D01*
X6274768Y-51403954D01*
X6372316Y-51586452D01*
X6503585Y-51746404D01*
X6503590Y-51746410D01*
X6503595Y-51746414D01*
X6663547Y-51877683D01*
X6663548Y-51877683D01*
X6663550Y-51877685D01*
X6846046Y-51975232D01*
X6983997Y-52017078D01*
X7044065Y-52035300D01*
X7044071Y-52035301D01*
X7168796Y-52047585D01*
X7198392Y-52050500D01*
X7198393Y-52050500D01*
X8801607Y-52050500D01*
X8801608Y-52050500D01*
X8831554Y-52047550D01*
X8955928Y-52035301D01*
X8955934Y-52035300D01*
X9153954Y-51975232D01*
X9336450Y-51877685D01*
X9496410Y-51746410D01*
X9627685Y-51586450D01*
X9725232Y-51403954D01*
X9785300Y-51205934D01*
X9800500Y-51051608D01*
X9800500Y-48948392D01*
X9787593Y-48817344D01*
X9785301Y-48794071D01*
X9785300Y-48794065D01*
X9767078Y-48733997D01*
X9725232Y-48596046D01*
X9627685Y-48413550D01*
X9496410Y-48253590D01*
X9437372Y-48205139D01*
X9437361Y-48205130D01*
X11949500Y-48205130D01*
X11949500Y-51794860D01*
X11949501Y-51794863D01*
X11952414Y-51819990D01*
X11975459Y-51872180D01*
X11997794Y-51922765D01*
X12077235Y-52002206D01*
X12180009Y-52047585D01*
X12205135Y-52050500D01*
X15794864Y-52050499D01*
X15819991Y-52047585D01*
X15922765Y-52002206D01*
X16002206Y-51922765D01*
X16047585Y-51819991D01*
X16050500Y-51794865D01*
X16050499Y-50804199D01*
X16069406Y-50746009D01*
X16118906Y-50710045D01*
X16180092Y-50710045D01*
X16219503Y-50734196D01*
X17357487Y-51872180D01*
X17357489Y-51872181D01*
X17357490Y-51872182D01*
X17357491Y-51872183D01*
X17448808Y-51924905D01*
X17448806Y-51924905D01*
X17448810Y-51924906D01*
X17448812Y-51924907D01*
X17550673Y-51952200D01*
X17550675Y-51952200D01*
X56949325Y-51952200D01*
X56949327Y-51952200D01*
X57051188Y-51924907D01*
X57051190Y-51924905D01*
X57051192Y-51924905D01*
X57142508Y-51872183D01*
X57142508Y-51872182D01*
X57142513Y-51872180D01*
X58280498Y-50734193D01*
X58335013Y-50706418D01*
X58395445Y-50715989D01*
X58438710Y-50759254D01*
X58449500Y-50804199D01*
X58449500Y-51294860D01*
X58449501Y-51294863D01*
X58452414Y-51319990D01*
X58455115Y-51326106D01*
X58497794Y-51422765D01*
X58577235Y-51502206D01*
X58680009Y-51547585D01*
X58705135Y-51550500D01*
X61294864Y-51550499D01*
X61319991Y-51547585D01*
X61422765Y-51502206D01*
X61502206Y-51422765D01*
X61547585Y-51319991D01*
X61550500Y-51294865D01*
X61550500Y-50490915D01*
X61569407Y-50432724D01*
X61618907Y-50396760D01*
X61623859Y-50395293D01*
X61706288Y-50373207D01*
X61706290Y-50373205D01*
X61706292Y-50373205D01*
X61797608Y-50320483D01*
X61797608Y-50320482D01*
X61797613Y-50320480D01*
X62240124Y-49877969D01*
X66069500Y-49877969D01*
X66069500Y-50122030D01*
X66107677Y-50363071D01*
X66183096Y-50595185D01*
X66293892Y-50812637D01*
X66372348Y-50920623D01*
X66437345Y-51010083D01*
X66609917Y-51182655D01*
X66753369Y-51286878D01*
X66807362Y-51326107D01*
X66916088Y-51381505D01*
X67024815Y-51436904D01*
X67256924Y-51512321D01*
X67256925Y-51512321D01*
X67256928Y-51512322D01*
X67497970Y-51550500D01*
X67497973Y-51550500D01*
X67742030Y-51550500D01*
X67983071Y-51512322D01*
X67983072Y-51512321D01*
X67983076Y-51512321D01*
X68215185Y-51436904D01*
X68432639Y-51326106D01*
X68630083Y-51182655D01*
X68802655Y-51010083D01*
X68946106Y-50812639D01*
X69056904Y-50595185D01*
X69132321Y-50363076D01*
X69139067Y-50320483D01*
X69170500Y-50122030D01*
X69170500Y-49877969D01*
X69132322Y-49636928D01*
X69129030Y-49626795D01*
X69056904Y-49404815D01*
X68996624Y-49286508D01*
X68946107Y-49187362D01*
X68906878Y-49133369D01*
X68802655Y-48989917D01*
X68630083Y-48817345D01*
X68540623Y-48752348D01*
X68432637Y-48673892D01*
X68215185Y-48563096D01*
X67983071Y-48487677D01*
X67742030Y-48449500D01*
X67742027Y-48449500D01*
X67497973Y-48449500D01*
X67497970Y-48449500D01*
X67256928Y-48487677D01*
X67024814Y-48563096D01*
X66807362Y-48673892D01*
X66609918Y-48817344D01*
X66437344Y-48989918D01*
X66293892Y-49187362D01*
X66183096Y-49404814D01*
X66107677Y-49636928D01*
X66069500Y-49877969D01*
X62240124Y-49877969D01*
X66688597Y-45429496D01*
X66743114Y-45401719D01*
X66758601Y-45400500D01*
X88418892Y-45400500D01*
X88477083Y-45419407D01*
X88511649Y-45464901D01*
X88523664Y-45497114D01*
X88531204Y-45517332D01*
X88617450Y-45632541D01*
X88617454Y-45632546D01*
X88617457Y-45632548D01*
X88617458Y-45632549D01*
X88732670Y-45718797D01*
X88867511Y-45769089D01*
X88867512Y-45769089D01*
X88867517Y-45769091D01*
X88927127Y-45775500D01*
X89422872Y-45775499D01*
X89482483Y-45769091D01*
X89549907Y-45743943D01*
X89617329Y-45718797D01*
X89617329Y-45718796D01*
X89617331Y-45718796D01*
X89732546Y-45632546D01*
X89807540Y-45532366D01*
X89857547Y-45497114D01*
X89918726Y-45497988D01*
X89967707Y-45534655D01*
X89981307Y-45562236D01*
X89981978Y-45564390D01*
X89981982Y-45564400D01*
X90069924Y-45709872D01*
X90190127Y-45830075D01*
X90335599Y-45918017D01*
X90335607Y-45918020D01*
X90497889Y-45968589D01*
X90497895Y-45968591D01*
X90568425Y-45974998D01*
X90575000Y-45974998D01*
X90575000Y-45250001D01*
X91075000Y-45250001D01*
X91075000Y-45974998D01*
X91075001Y-45974999D01*
X91081566Y-45974999D01*
X91081582Y-45974998D01*
X91152103Y-45968591D01*
X91152109Y-45968589D01*
X91314392Y-45918020D01*
X91314400Y-45918017D01*
X91459872Y-45830075D01*
X91580075Y-45709872D01*
X91668017Y-45564400D01*
X91668020Y-45564392D01*
X91718589Y-45402110D01*
X91718591Y-45402104D01*
X91724999Y-45331581D01*
X91725000Y-45331568D01*
X91725000Y-45250001D01*
X91724999Y-45250000D01*
X91075001Y-45250000D01*
X91075000Y-45250001D01*
X90575000Y-45250001D01*
X90575000Y-44025001D01*
X91075000Y-44025001D01*
X91075000Y-44749999D01*
X91075001Y-44750000D01*
X91724998Y-44750000D01*
X91724999Y-44749999D01*
X91724999Y-44668433D01*
X91724998Y-44668417D01*
X91718591Y-44597896D01*
X91718589Y-44597890D01*
X91668020Y-44435607D01*
X91668017Y-44435599D01*
X91580075Y-44290127D01*
X91459872Y-44169924D01*
X91314400Y-44081982D01*
X91314392Y-44081979D01*
X91152110Y-44031410D01*
X91152104Y-44031408D01*
X91081581Y-44025000D01*
X91075001Y-44025000D01*
X91075000Y-44025001D01*
X90575000Y-44025001D01*
X90574998Y-44024999D01*
X90568425Y-44025000D01*
X90497896Y-44031408D01*
X90497890Y-44031410D01*
X90335607Y-44081979D01*
X90335599Y-44081982D01*
X90190127Y-44169924D01*
X90069924Y-44290127D01*
X89981982Y-44435599D01*
X89981978Y-44435609D01*
X89981306Y-44437767D01*
X89980487Y-44438922D01*
X89979523Y-44441065D01*
X89979103Y-44440876D01*
X89945937Y-44487693D01*
X89887977Y-44507296D01*
X89829564Y-44489086D01*
X89807539Y-44467632D01*
X89732549Y-44367458D01*
X89732548Y-44367457D01*
X89732546Y-44367454D01*
X89629251Y-44290127D01*
X89617329Y-44281202D01*
X89482488Y-44230910D01*
X89482483Y-44230909D01*
X89482481Y-44230908D01*
X89482477Y-44230908D01*
X89451249Y-44227550D01*
X89422873Y-44224500D01*
X89422870Y-44224500D01*
X88927133Y-44224500D01*
X88927129Y-44224500D01*
X88927128Y-44224501D01*
X88919949Y-44225272D01*
X88867519Y-44230908D01*
X88867514Y-44230909D01*
X88732670Y-44281202D01*
X88617458Y-44367450D01*
X88617450Y-44367458D01*
X88531204Y-44482667D01*
X88522559Y-44505845D01*
X88511649Y-44535098D01*
X88473600Y-44583011D01*
X88418892Y-44599500D01*
X66604427Y-44599500D01*
X66498973Y-44599500D01*
X66436629Y-44616204D01*
X66397107Y-44626794D01*
X66305791Y-44679516D01*
X66305790Y-44679517D01*
X61719503Y-49265803D01*
X61664986Y-49293580D01*
X61604554Y-49284009D01*
X61561289Y-49240744D01*
X61550499Y-49195799D01*
X61550499Y-48705139D01*
X61550499Y-48705136D01*
X61547585Y-48680009D01*
X61502206Y-48577235D01*
X61422765Y-48497794D01*
X61319991Y-48452415D01*
X61319990Y-48452414D01*
X61319988Y-48452414D01*
X61294868Y-48449500D01*
X58705139Y-48449500D01*
X58705136Y-48449501D01*
X58680009Y-48452414D01*
X58577235Y-48497794D01*
X58497794Y-48577235D01*
X58452414Y-48680011D01*
X58449500Y-48705130D01*
X58449500Y-49509084D01*
X58430593Y-49567275D01*
X58381093Y-49603239D01*
X58376124Y-49604711D01*
X58345291Y-49612972D01*
X58293712Y-49626793D01*
X58293710Y-49626793D01*
X58293706Y-49626795D01*
X58202391Y-49679516D01*
X56759703Y-51122204D01*
X56705186Y-51149981D01*
X56689699Y-51151200D01*
X56194426Y-51151200D01*
X56136235Y-51132293D01*
X56100271Y-51082793D01*
X56100271Y-51021607D01*
X56114333Y-50994009D01*
X56246107Y-50812637D01*
X56273307Y-50759254D01*
X56356904Y-50595185D01*
X56432321Y-50363076D01*
X56439067Y-50320483D01*
X56470500Y-50122030D01*
X56470500Y-49877969D01*
X56432322Y-49636928D01*
X56429030Y-49626795D01*
X56356904Y-49404815D01*
X56296624Y-49286508D01*
X56246107Y-49187362D01*
X56206878Y-49133369D01*
X56102655Y-48989917D01*
X55930083Y-48817345D01*
X55840623Y-48752348D01*
X55732637Y-48673892D01*
X55515185Y-48563096D01*
X55283071Y-48487677D01*
X55042030Y-48449500D01*
X55042027Y-48449500D01*
X54797973Y-48449500D01*
X54797970Y-48449500D01*
X54556928Y-48487677D01*
X54324811Y-48563097D01*
X54206508Y-48623374D01*
X54146076Y-48632945D01*
X54091560Y-48605168D01*
X46552996Y-41066603D01*
X46525219Y-41012086D01*
X46524000Y-40996599D01*
X46524000Y-29816000D01*
X46542907Y-29757809D01*
X46592407Y-29721845D01*
X46623000Y-29717000D01*
X46816600Y-29717000D01*
X46816602Y-29717000D01*
X46905064Y-29706377D01*
X46982297Y-29675919D01*
X47043367Y-29672161D01*
X47088620Y-29698013D01*
X48242287Y-30851680D01*
X48242289Y-30851681D01*
X48242290Y-30851682D01*
X48242291Y-30851683D01*
X48333608Y-30904405D01*
X48333606Y-30904405D01*
X48333610Y-30904406D01*
X48333612Y-30904407D01*
X48435473Y-30931700D01*
X48435475Y-30931700D01*
X92446325Y-30931700D01*
X92446327Y-30931700D01*
X92548188Y-30904407D01*
X92548190Y-30904405D01*
X92548192Y-30904405D01*
X92639508Y-30851683D01*
X92639508Y-30851682D01*
X92639513Y-30851680D01*
X93166997Y-30324196D01*
X93221514Y-30296419D01*
X93237001Y-30295200D01*
X96173200Y-30295200D01*
X96173202Y-30295200D01*
X96261664Y-30284577D01*
X96402442Y-30229061D01*
X96523022Y-30137622D01*
X96614461Y-30017042D01*
X96669977Y-29876264D01*
X96680600Y-29787802D01*
X96680600Y-27701598D01*
X96669977Y-27613136D01*
X96614461Y-27472358D01*
X96523022Y-27351778D01*
X96402442Y-27260339D01*
X96402441Y-27260338D01*
X96402439Y-27260337D01*
X96261665Y-27204823D01*
X96173206Y-27194200D01*
X96173202Y-27194200D01*
X92186998Y-27194200D01*
X92186993Y-27194200D01*
X92098534Y-27204823D01*
X91957760Y-27260337D01*
X91957756Y-27260340D01*
X91837181Y-27351775D01*
X91837175Y-27351781D01*
X91745740Y-27472356D01*
X91745737Y-27472360D01*
X91690223Y-27613134D01*
X91679600Y-27701593D01*
X91679600Y-29787806D01*
X91690223Y-29876265D01*
X91737197Y-29995381D01*
X91740956Y-30056451D01*
X91708101Y-30108067D01*
X91651182Y-30130513D01*
X91645100Y-30130700D01*
X89315100Y-30130700D01*
X89256909Y-30111793D01*
X89220945Y-30062293D01*
X89220945Y-30001107D01*
X89223003Y-29995381D01*
X89246795Y-29935048D01*
X89269977Y-29876264D01*
X89280600Y-29787802D01*
X89280600Y-27701598D01*
X89269977Y-27613136D01*
X89214461Y-27472358D01*
X89123022Y-27351778D01*
X89002442Y-27260339D01*
X89002441Y-27260338D01*
X89002439Y-27260337D01*
X88861665Y-27204823D01*
X88773206Y-27194200D01*
X88773202Y-27194200D01*
X84786998Y-27194200D01*
X84786993Y-27194200D01*
X84698534Y-27204823D01*
X84557760Y-27260337D01*
X84557756Y-27260340D01*
X84437181Y-27351775D01*
X84437175Y-27351781D01*
X84345740Y-27472356D01*
X84345737Y-27472360D01*
X84290223Y-27613134D01*
X84279600Y-27701593D01*
X84279600Y-28245200D01*
X84260693Y-28303391D01*
X84211193Y-28339355D01*
X84180600Y-28344200D01*
X57452578Y-28344200D01*
X57451053Y-28344100D01*
X57445327Y-28344100D01*
X50908501Y-28344100D01*
X50850310Y-28325193D01*
X50838497Y-28315104D01*
X47352996Y-24829603D01*
X47325219Y-24775086D01*
X47324000Y-24759599D01*
X47324000Y-23123399D01*
X47323999Y-23123393D01*
X47313377Y-23034936D01*
X47257861Y-22894158D01*
X47166422Y-22773578D01*
X47045842Y-22682139D01*
X47045841Y-22682138D01*
X47045839Y-22682137D01*
X46905065Y-22626623D01*
X46816606Y-22616000D01*
X46816602Y-22616000D01*
X45430398Y-22616000D01*
X45430393Y-22616000D01*
X45341934Y-22626623D01*
X45201160Y-22682137D01*
X45201156Y-22682140D01*
X45080581Y-22773575D01*
X45080575Y-22773581D01*
X44989140Y-22894156D01*
X44989137Y-22894160D01*
X44933623Y-23034934D01*
X44923000Y-23123393D01*
X44923000Y-25209606D01*
X44933623Y-25298065D01*
X44989137Y-25438839D01*
X44989138Y-25438841D01*
X44989139Y-25438842D01*
X45080578Y-25559422D01*
X45201158Y-25650861D01*
X45201159Y-25650861D01*
X45201160Y-25650862D01*
X45255171Y-25672161D01*
X45341936Y-25706377D01*
X45430398Y-25717000D01*
X45430400Y-25717000D01*
X46816600Y-25717000D01*
X46816602Y-25717000D01*
X46905064Y-25706377D01*
X46982297Y-25675919D01*
X47043367Y-25672161D01*
X47088620Y-25698013D01*
X50455687Y-29065080D01*
X50455689Y-29065081D01*
X50455690Y-29065082D01*
X50455691Y-29065083D01*
X50547008Y-29117805D01*
X50547006Y-29117805D01*
X50547010Y-29117806D01*
X50547012Y-29117807D01*
X50648873Y-29145100D01*
X56893100Y-29145100D01*
X56951291Y-29164007D01*
X56987255Y-29213507D01*
X56992100Y-29244100D01*
X56992100Y-29439756D01*
X56973193Y-29497947D01*
X56963104Y-29509759D01*
X56912082Y-29560781D01*
X56912080Y-29560783D01*
X56912080Y-29560784D01*
X56833023Y-29697716D01*
X56808193Y-29790385D01*
X56792100Y-29850444D01*
X56792100Y-30008556D01*
X56792947Y-30014989D01*
X56790955Y-30015251D01*
X56788234Y-30067178D01*
X56749728Y-30114728D01*
X56695809Y-30130700D01*
X48695101Y-30130700D01*
X48636910Y-30111793D01*
X48625097Y-30101704D01*
X47352996Y-28829603D01*
X47325219Y-28775086D01*
X47324000Y-28759599D01*
X47324000Y-27123399D01*
X47323999Y-27123393D01*
X47313377Y-27034936D01*
X47257861Y-26894158D01*
X47166422Y-26773578D01*
X47045842Y-26682139D01*
X47045841Y-26682138D01*
X47045839Y-26682137D01*
X46905065Y-26626623D01*
X46816606Y-26616000D01*
X46816602Y-26616000D01*
X45430398Y-26616000D01*
X45430393Y-26616000D01*
X45341934Y-26626623D01*
X45201160Y-26682137D01*
X45201156Y-26682140D01*
X45080581Y-26773575D01*
X45080575Y-26773581D01*
X44989140Y-26894156D01*
X44989137Y-26894160D01*
X44933623Y-27034934D01*
X44923000Y-27123393D01*
X44923000Y-27667000D01*
X44904093Y-27725191D01*
X44854593Y-27761155D01*
X44824000Y-27766000D01*
X40578900Y-27766000D01*
X40520709Y-27747093D01*
X40508896Y-27737004D01*
X39681712Y-26909820D01*
X39653935Y-26855303D01*
X39659618Y-26803498D01*
X39690077Y-26726264D01*
X39700700Y-26637802D01*
X39700700Y-25251598D01*
X39690077Y-25163136D01*
X39634561Y-25022358D01*
X39543122Y-24901778D01*
X39422542Y-24810339D01*
X39422541Y-24810338D01*
X39422539Y-24810337D01*
X39281765Y-24754823D01*
X39193306Y-24744200D01*
X39193302Y-24744200D01*
X37107098Y-24744200D01*
X37107093Y-24744200D01*
X37018634Y-24754823D01*
X36877860Y-24810337D01*
X36877856Y-24810340D01*
X36757281Y-24901775D01*
X36757275Y-24901781D01*
X36665840Y-25022356D01*
X36665837Y-25022360D01*
X36610323Y-25163134D01*
X36599700Y-25251593D01*
X36599700Y-26637806D01*
X36610323Y-26726265D01*
X36665837Y-26867039D01*
X36665838Y-26867041D01*
X36665839Y-26867042D01*
X36757278Y-26987622D01*
X36877858Y-27079061D01*
X36877859Y-27079061D01*
X36877860Y-27079062D01*
X36948247Y-27106819D01*
X37018636Y-27134577D01*
X37107098Y-27145200D01*
X38743299Y-27145200D01*
X38801490Y-27164107D01*
X38813303Y-27174196D01*
X40051518Y-28412410D01*
X40051520Y-28412413D01*
X40126087Y-28486980D01*
X40126089Y-28486981D01*
X40217409Y-28539705D01*
X40217413Y-28539707D01*
X40319270Y-28567000D01*
X40319272Y-28567001D01*
X40319273Y-28567001D01*
X40430790Y-28567001D01*
X40430806Y-28567000D01*
X44824000Y-28567000D01*
X44882191Y-28585907D01*
X44918155Y-28635407D01*
X44923000Y-28666000D01*
X44923000Y-29209606D01*
X44933623Y-29298065D01*
X44989137Y-29438839D01*
X44989138Y-29438841D01*
X44989139Y-29438842D01*
X45080578Y-29559422D01*
X45201158Y-29650861D01*
X45201159Y-29650861D01*
X45201160Y-29650862D01*
X45255171Y-29672161D01*
X45341936Y-29706377D01*
X45430398Y-29717000D01*
X45624000Y-29717000D01*
X45682191Y-29735907D01*
X45718155Y-29785407D01*
X45723000Y-29816000D01*
X45723000Y-41150773D01*
X45723000Y-41256227D01*
X45747070Y-41346059D01*
X45750294Y-41358092D01*
X45803016Y-41449408D01*
X45803018Y-41449410D01*
X45803020Y-41449413D01*
X49736091Y-45382483D01*
X53525168Y-49171560D01*
X53552945Y-49226077D01*
X53543374Y-49286508D01*
X53483097Y-49404811D01*
X53407677Y-49636928D01*
X53369500Y-49877969D01*
X53369500Y-50122030D01*
X53407677Y-50363071D01*
X53483096Y-50595185D01*
X53593892Y-50812637D01*
X53725667Y-50994009D01*
X53744574Y-51052200D01*
X53725667Y-51110391D01*
X53676167Y-51146355D01*
X53645574Y-51151200D01*
X17810301Y-51151200D01*
X17752110Y-51132293D01*
X17740297Y-51122204D01*
X17050817Y-50432724D01*
X16297613Y-49679520D01*
X16297610Y-49679518D01*
X16297609Y-49679517D01*
X16297608Y-49679516D01*
X16206291Y-49626794D01*
X16206292Y-49626794D01*
X16123876Y-49604711D01*
X16072561Y-49571387D01*
X16050635Y-49514265D01*
X16050499Y-49509084D01*
X16050499Y-48205139D01*
X16050499Y-48205136D01*
X16047585Y-48180009D01*
X16002206Y-48077235D01*
X15922765Y-47997794D01*
X15819991Y-47952415D01*
X15819990Y-47952414D01*
X15819988Y-47952414D01*
X15794868Y-47949500D01*
X12205139Y-47949500D01*
X12205136Y-47949501D01*
X12180009Y-47952414D01*
X12077235Y-47997794D01*
X11997794Y-48077235D01*
X11952414Y-48180011D01*
X11949500Y-48205130D01*
X9437361Y-48205130D01*
X9336452Y-48122316D01*
X9153954Y-48024768D01*
X8955934Y-47964699D01*
X8955928Y-47964698D01*
X8811689Y-47950492D01*
X8801608Y-47949500D01*
X8801607Y-47949500D01*
X8499500Y-47949500D01*
X8441309Y-47930593D01*
X8405345Y-47881093D01*
X8400500Y-47850500D01*
X8400500Y-46346701D01*
X8419407Y-46288510D01*
X8429496Y-46276697D01*
X13709594Y-40996599D01*
X27039954Y-27666238D01*
X27094469Y-27638463D01*
X27154901Y-27648034D01*
X27198166Y-27691299D01*
X27202053Y-27699925D01*
X27248237Y-27817039D01*
X27248238Y-27817041D01*
X27248239Y-27817042D01*
X27339678Y-27937622D01*
X27460258Y-28029061D01*
X27460259Y-28029061D01*
X27460260Y-28029062D01*
X27530647Y-28056819D01*
X27601036Y-28084577D01*
X27689498Y-28095200D01*
X27689500Y-28095200D01*
X28400700Y-28095200D01*
X28400702Y-28095200D01*
X28489164Y-28084577D01*
X28629942Y-28029061D01*
X28750522Y-27937622D01*
X28841961Y-27817042D01*
X28897477Y-27676264D01*
X28908100Y-27587802D01*
X28908100Y-24601598D01*
X28908099Y-24601588D01*
X28906300Y-24586602D01*
X28918136Y-24526572D01*
X28962995Y-24484964D01*
X29004594Y-24475800D01*
X32073899Y-24475800D01*
X32132090Y-24494707D01*
X32143903Y-24504796D01*
X32618686Y-24979579D01*
X32646463Y-25034096D01*
X32640780Y-25085900D01*
X32610323Y-25163135D01*
X32599700Y-25251593D01*
X32599700Y-26637806D01*
X32610323Y-26726265D01*
X32665837Y-26867039D01*
X32665838Y-26867041D01*
X32665839Y-26867042D01*
X32757278Y-26987622D01*
X32877858Y-27079061D01*
X32877859Y-27079061D01*
X32877860Y-27079062D01*
X32948247Y-27106819D01*
X33018636Y-27134577D01*
X33107098Y-27145200D01*
X33107100Y-27145200D01*
X35193300Y-27145200D01*
X35193302Y-27145200D01*
X35281764Y-27134577D01*
X35422542Y-27079061D01*
X35543122Y-26987622D01*
X35634561Y-26867042D01*
X35690077Y-26726264D01*
X35700700Y-26637802D01*
X35700700Y-25251598D01*
X35690077Y-25163136D01*
X35634561Y-25022358D01*
X35543122Y-24901778D01*
X35422542Y-24810339D01*
X35422541Y-24810338D01*
X35422539Y-24810337D01*
X35281765Y-24754823D01*
X35193306Y-24744200D01*
X35193302Y-24744200D01*
X33557101Y-24744200D01*
X33498910Y-24725293D01*
X33487097Y-24715204D01*
X33019723Y-24247830D01*
X32526713Y-23754820D01*
X32526710Y-23754818D01*
X32526709Y-23754817D01*
X32526708Y-23754816D01*
X32435391Y-23702094D01*
X32435393Y-23702094D01*
X32395870Y-23691504D01*
X32333527Y-23674800D01*
X25842227Y-23674800D01*
X25736773Y-23674800D01*
X25674429Y-23691504D01*
X25634907Y-23702094D01*
X25543591Y-23754816D01*
X25543586Y-23754820D01*
X24775246Y-24523159D01*
X24720730Y-24550936D01*
X24660298Y-24541365D01*
X24617033Y-24498100D01*
X24613146Y-24489474D01*
X24566962Y-24372360D01*
X24566961Y-24372359D01*
X24566961Y-24372358D01*
X24475522Y-24251778D01*
X24354942Y-24160339D01*
X24354941Y-24160338D01*
X24354939Y-24160337D01*
X24214165Y-24104823D01*
X24125706Y-24094200D01*
X24125702Y-24094200D01*
X23414498Y-24094200D01*
X23414493Y-24094200D01*
X23326034Y-24104823D01*
X23185260Y-24160337D01*
X23185256Y-24160340D01*
X23064681Y-24251775D01*
X23064675Y-24251781D01*
X22973240Y-24372356D01*
X22973237Y-24372360D01*
X22917723Y-24513134D01*
X22907100Y-24601593D01*
X22907100Y-27587806D01*
X22917723Y-27676265D01*
X22973237Y-27817039D01*
X22973238Y-27817041D01*
X22973239Y-27817042D01*
X23064678Y-27937622D01*
X23185258Y-28029061D01*
X23185259Y-28029061D01*
X23185260Y-28029062D01*
X23255647Y-28056819D01*
X23326036Y-28084577D01*
X23414498Y-28095200D01*
X23414500Y-28095200D01*
X24125700Y-28095200D01*
X24125702Y-28095200D01*
X24214164Y-28084577D01*
X24354942Y-28029061D01*
X24475522Y-27937622D01*
X24566961Y-27817042D01*
X24622477Y-27676264D01*
X24633100Y-27587802D01*
X24633100Y-25839101D01*
X24652007Y-25780910D01*
X24662096Y-25769097D01*
X25926397Y-24504796D01*
X25980914Y-24477019D01*
X25996401Y-24475800D01*
X27085606Y-24475800D01*
X27143797Y-24494707D01*
X27179761Y-24544207D01*
X27183900Y-24586602D01*
X27182100Y-24601588D01*
X27182100Y-26350299D01*
X27163193Y-26408490D01*
X27153104Y-26420303D01*
X7679516Y-45893891D01*
X7626793Y-45985211D01*
X7626792Y-45985211D01*
X7626793Y-45985212D01*
X7599500Y-46087073D01*
X7599500Y-47850500D01*
X7580593Y-47908691D01*
X7531093Y-47944655D01*
X7500500Y-47949500D01*
X7198392Y-47949500D01*
X7188928Y-47950432D01*
X7044071Y-47964698D01*
X7044065Y-47964699D01*
X6846045Y-48024768D01*
X6663547Y-48122316D01*
X6503595Y-48253585D01*
X6503585Y-48253595D01*
X6372316Y-48413547D01*
X6274768Y-48596045D01*
X6214699Y-48794065D01*
X6214698Y-48794071D01*
X6199500Y-48948393D01*
X500500Y-48948393D01*
X500500Y-29809830D01*
X9619500Y-29809830D01*
X9619500Y-32199560D01*
X9619501Y-32199563D01*
X9622414Y-32224690D01*
X9647756Y-32282085D01*
X9667794Y-32327465D01*
X9747235Y-32406906D01*
X9850009Y-32452285D01*
X9875135Y-32455200D01*
X11464864Y-32455199D01*
X11489991Y-32452285D01*
X11592765Y-32406906D01*
X11672206Y-32327465D01*
X11717585Y-32224691D01*
X11720500Y-32199565D01*
X11720499Y-30506319D01*
X11960000Y-30506319D01*
X11960000Y-30754699D01*
X11960001Y-30754700D01*
X12776988Y-30754700D01*
X12744075Y-30811707D01*
X12710000Y-30938874D01*
X12710000Y-31070526D01*
X12744075Y-31197693D01*
X12776988Y-31254700D01*
X11960001Y-31254700D01*
X11960000Y-31254701D01*
X11960000Y-31503080D01*
X11990778Y-31697410D01*
X11990779Y-31697414D01*
X12051576Y-31884526D01*
X12051578Y-31884529D01*
X12140903Y-32059842D01*
X12140907Y-32059848D01*
X12256549Y-32219014D01*
X12395685Y-32358150D01*
X12554851Y-32473792D01*
X12554857Y-32473796D01*
X12730166Y-32563119D01*
X12917295Y-32623922D01*
X12959999Y-32630685D01*
X12960000Y-32630684D01*
X12960000Y-31437712D01*
X13017007Y-31470625D01*
X13144174Y-31504700D01*
X13275826Y-31504700D01*
X13402993Y-31470625D01*
X13460000Y-31437712D01*
X13460000Y-32630685D01*
X13502704Y-32623922D01*
X13689833Y-32563119D01*
X13865142Y-32473796D01*
X13865148Y-32473792D01*
X14024314Y-32358150D01*
X14163450Y-32219014D01*
X14279092Y-32059848D01*
X14279096Y-32059842D01*
X14368421Y-31884529D01*
X14368423Y-31884526D01*
X14429220Y-31697414D01*
X14429221Y-31697410D01*
X14460000Y-31503080D01*
X14460000Y-31254701D01*
X14459999Y-31254700D01*
X13643012Y-31254700D01*
X13675925Y-31197693D01*
X13710000Y-31070526D01*
X13710000Y-30938874D01*
X13675925Y-30811707D01*
X13643012Y-30754700D01*
X14459999Y-30754700D01*
X14460000Y-30754699D01*
X14460000Y-30506322D01*
X14459999Y-30506316D01*
X14459194Y-30501232D01*
X14699500Y-30501232D01*
X14699500Y-31508167D01*
X14739869Y-31711118D01*
X14819058Y-31902297D01*
X14934020Y-32074351D01*
X14934023Y-32074355D01*
X15080345Y-32220677D01*
X15252402Y-32335641D01*
X15443580Y-32414830D01*
X15646535Y-32455200D01*
X15646536Y-32455200D01*
X15853464Y-32455200D01*
X15853465Y-32455200D01*
X16056420Y-32414830D01*
X16247598Y-32335641D01*
X16419655Y-32220677D01*
X16565977Y-32074355D01*
X16680941Y-31902298D01*
X16760130Y-31711120D01*
X16800500Y-31508165D01*
X16800500Y-30501235D01*
X16760130Y-30298280D01*
X16680941Y-30107102D01*
X16565977Y-29935045D01*
X16419655Y-29788723D01*
X16418274Y-29787800D01*
X16247597Y-29673758D01*
X16056418Y-29594569D01*
X15853467Y-29554200D01*
X15853465Y-29554200D01*
X15646535Y-29554200D01*
X15646532Y-29554200D01*
X15443581Y-29594569D01*
X15252402Y-29673758D01*
X15080348Y-29788720D01*
X14934020Y-29935048D01*
X14819058Y-30107102D01*
X14739869Y-30298281D01*
X14699500Y-30501232D01*
X14459194Y-30501232D01*
X14429221Y-30311989D01*
X14429220Y-30311985D01*
X14368423Y-30124873D01*
X14368421Y-30124870D01*
X14279096Y-29949557D01*
X14279092Y-29949551D01*
X14163450Y-29790385D01*
X14024314Y-29651249D01*
X13865148Y-29535607D01*
X13865142Y-29535603D01*
X13689833Y-29446280D01*
X13502706Y-29385479D01*
X13460000Y-29378714D01*
X13460000Y-30571688D01*
X13402993Y-30538775D01*
X13275826Y-30504700D01*
X13144174Y-30504700D01*
X13017007Y-30538775D01*
X12960000Y-30571688D01*
X12960000Y-29378714D01*
X12959999Y-29378714D01*
X12917293Y-29385479D01*
X12730166Y-29446280D01*
X12554857Y-29535603D01*
X12554851Y-29535607D01*
X12395685Y-29651249D01*
X12256549Y-29790385D01*
X12140907Y-29949551D01*
X12140903Y-29949557D01*
X12051578Y-30124870D01*
X12051576Y-30124873D01*
X11990779Y-30311985D01*
X11990778Y-30311989D01*
X11960000Y-30506319D01*
X11720499Y-30506319D01*
X11720499Y-29809836D01*
X11717585Y-29784709D01*
X11672206Y-29681935D01*
X11592765Y-29602494D01*
X11489991Y-29557115D01*
X11489990Y-29557114D01*
X11489988Y-29557114D01*
X11464868Y-29554200D01*
X9875139Y-29554200D01*
X9875136Y-29554201D01*
X9850009Y-29557114D01*
X9747235Y-29602494D01*
X9667794Y-29681935D01*
X9622414Y-29784711D01*
X9619500Y-29809830D01*
X500500Y-29809830D01*
X500500Y-11605098D01*
X9201200Y-11605098D01*
X9201200Y-13891296D01*
X9201201Y-13891302D01*
X9209699Y-13962070D01*
X9211824Y-13979764D01*
X9267339Y-14120542D01*
X9358778Y-14241122D01*
X9479358Y-14332561D01*
X9620136Y-14388076D01*
X9708601Y-14398700D01*
X11894799Y-14398699D01*
X11952990Y-14417606D01*
X11964802Y-14427695D01*
X12205557Y-14668449D01*
X12205562Y-14668455D01*
X12205563Y-14668455D01*
X12209018Y-14671910D01*
X12209020Y-14671913D01*
X12283587Y-14746480D01*
X12283589Y-14746481D01*
X12374907Y-14799204D01*
X12374908Y-14799204D01*
X12374913Y-14799207D01*
X12476774Y-14826501D01*
X12476776Y-14826501D01*
X12588290Y-14826501D01*
X12588306Y-14826500D01*
X41087973Y-14826500D01*
X57643100Y-14826500D01*
X57701291Y-14845407D01*
X57737255Y-14894907D01*
X57742100Y-14925500D01*
X57742100Y-24064577D01*
X57723193Y-24122768D01*
X57679421Y-24156674D01*
X57666967Y-24161585D01*
X57553236Y-24247830D01*
X57553230Y-24247836D01*
X57466986Y-24361566D01*
X57466983Y-24361570D01*
X57414621Y-24494351D01*
X57404600Y-24577795D01*
X57404600Y-25171604D01*
X57414621Y-25255048D01*
X57466983Y-25387829D01*
X57466984Y-25387830D01*
X57466985Y-25387832D01*
X57553233Y-25501567D01*
X57666968Y-25587815D01*
X57666969Y-25587815D01*
X57666970Y-25587816D01*
X57799751Y-25640178D01*
X57799754Y-25640179D01*
X57883198Y-25650200D01*
X57883200Y-25650200D01*
X58402000Y-25650200D01*
X58402002Y-25650200D01*
X58485446Y-25640179D01*
X58618232Y-25587815D01*
X58731967Y-25501567D01*
X58818215Y-25387832D01*
X58838003Y-25337650D01*
X58876939Y-25290456D01*
X58936181Y-25275159D01*
X58993101Y-25297605D01*
X59022195Y-25337649D01*
X59041985Y-25387832D01*
X59081535Y-25439987D01*
X59101630Y-25497777D01*
X59083919Y-25556342D01*
X59072655Y-25569808D01*
X58998482Y-25643981D01*
X58998480Y-25643983D01*
X58998480Y-25643984D01*
X58919423Y-25780916D01*
X58878500Y-25933643D01*
X58878500Y-26091757D01*
X58919423Y-26244484D01*
X58998480Y-26381416D01*
X59110284Y-26493220D01*
X59247216Y-26572277D01*
X59399943Y-26613200D01*
X59399945Y-26613200D01*
X59558055Y-26613200D01*
X59558057Y-26613200D01*
X59710784Y-26572277D01*
X59847716Y-26493220D01*
X59959520Y-26381416D01*
X60038577Y-26244484D01*
X60079500Y-26091757D01*
X60079500Y-25974798D01*
X60090059Y-25935404D01*
X60088323Y-25934685D01*
X60090805Y-25928692D01*
X60090805Y-25928689D01*
X60090807Y-25928687D01*
X60118100Y-25826827D01*
X60118100Y-25684822D01*
X60137007Y-25626631D01*
X60180780Y-25592725D01*
X60193232Y-25587815D01*
X60306967Y-25501567D01*
X60393215Y-25387832D01*
X60445579Y-25255046D01*
X60455600Y-25171602D01*
X60455600Y-24577798D01*
X60445579Y-24494354D01*
X60393215Y-24361568D01*
X60306967Y-24247833D01*
X60193232Y-24161585D01*
X60193231Y-24161584D01*
X60193229Y-24161583D01*
X60060448Y-24109221D01*
X59977004Y-24099200D01*
X59977002Y-24099200D01*
X59458198Y-24099200D01*
X59458195Y-24099200D01*
X59374751Y-24109221D01*
X59241970Y-24161583D01*
X59241966Y-24161586D01*
X59128236Y-24247830D01*
X59128230Y-24247836D01*
X59041986Y-24361566D01*
X59041983Y-24361570D01*
X59022197Y-24411746D01*
X58983261Y-24458943D01*
X58924018Y-24474240D01*
X58867099Y-24451794D01*
X58838003Y-24411746D01*
X58818216Y-24361570D01*
X58818215Y-24361569D01*
X58818215Y-24361568D01*
X58731967Y-24247833D01*
X58618232Y-24161585D01*
X58605779Y-24156674D01*
X58558583Y-24117736D01*
X58543100Y-24064577D01*
X58543100Y-14925500D01*
X58562007Y-14867309D01*
X58611507Y-14831345D01*
X58642100Y-14826500D01*
X62936125Y-14826500D01*
X62936127Y-14826500D01*
X63037988Y-14799207D01*
X63037990Y-14799205D01*
X63037992Y-14799205D01*
X63129308Y-14746483D01*
X63129308Y-14746482D01*
X63129313Y-14746480D01*
X63658413Y-14217378D01*
X63712928Y-14189603D01*
X63773357Y-14199173D01*
X63927628Y-14277779D01*
X64174707Y-14358060D01*
X64174708Y-14358060D01*
X64174711Y-14358061D01*
X64431300Y-14398700D01*
X64431303Y-14398700D01*
X64691100Y-14398700D01*
X64947688Y-14358061D01*
X64947689Y-14358060D01*
X64947693Y-14358060D01*
X65194772Y-14277779D01*
X65426251Y-14159834D01*
X65636429Y-14007131D01*
X65820131Y-13823429D01*
X65972834Y-13613251D01*
X66090779Y-13381772D01*
X66171060Y-13134693D01*
X66174989Y-13109888D01*
X66211700Y-12878100D01*
X66211700Y-12618299D01*
X66171061Y-12361711D01*
X66164935Y-12342855D01*
X66090779Y-12114628D01*
X65972834Y-11883149D01*
X65820131Y-11672971D01*
X65795761Y-11648601D01*
X65767986Y-11594087D01*
X65777557Y-11533655D01*
X65820822Y-11490390D01*
X65865767Y-11479600D01*
X73943799Y-11479600D01*
X74001990Y-11498507D01*
X74013803Y-11508596D01*
X74140304Y-11635097D01*
X74168081Y-11689614D01*
X74169300Y-11705101D01*
X74169300Y-13791299D01*
X74150393Y-13849490D01*
X74140304Y-13861302D01*
X73738720Y-14262886D01*
X73738716Y-14262891D01*
X73685995Y-14354206D01*
X73685993Y-14354210D01*
X73685993Y-14354212D01*
X73674073Y-14398699D01*
X73674073Y-14398700D01*
X73674072Y-14398699D01*
X73658700Y-14456073D01*
X73658700Y-24064577D01*
X73639793Y-24122768D01*
X73596021Y-24156674D01*
X73583567Y-24161585D01*
X73469836Y-24247830D01*
X73469830Y-24247836D01*
X73383586Y-24361566D01*
X73383583Y-24361570D01*
X73331221Y-24494351D01*
X73321200Y-24577795D01*
X73321200Y-25171604D01*
X73331221Y-25255048D01*
X73383583Y-25387829D01*
X73383584Y-25387830D01*
X73383585Y-25387832D01*
X73469833Y-25501567D01*
X73583568Y-25587815D01*
X73583569Y-25587815D01*
X73583570Y-25587816D01*
X73716351Y-25640178D01*
X73716354Y-25640179D01*
X73799798Y-25650200D01*
X73799800Y-25650200D01*
X74318600Y-25650200D01*
X74318602Y-25650200D01*
X74402046Y-25640179D01*
X74534832Y-25587815D01*
X74648567Y-25501567D01*
X74734815Y-25387832D01*
X74754603Y-25337650D01*
X74793539Y-25290456D01*
X74852781Y-25275159D01*
X74909701Y-25297605D01*
X74938795Y-25337649D01*
X74958584Y-25387829D01*
X74958586Y-25387834D01*
X74987006Y-25425311D01*
X75044833Y-25501567D01*
X75158568Y-25587815D01*
X75171019Y-25592725D01*
X75218216Y-25631661D01*
X75233700Y-25684822D01*
X75233700Y-25695573D01*
X75233700Y-25801027D01*
X75260993Y-25902888D01*
X75279766Y-25935404D01*
X75284836Y-25944184D01*
X75298100Y-25993685D01*
X75298100Y-26091757D01*
X75339023Y-26244484D01*
X75418080Y-26381416D01*
X75529884Y-26493220D01*
X75666816Y-26572277D01*
X75819543Y-26613200D01*
X75819545Y-26613200D01*
X75977655Y-26613200D01*
X75977657Y-26613200D01*
X76130384Y-26572277D01*
X76267316Y-26493220D01*
X76379120Y-26381416D01*
X76458177Y-26244484D01*
X76499100Y-26091757D01*
X76499100Y-25933643D01*
X76458177Y-25780916D01*
X76379120Y-25643984D01*
X76290269Y-25555133D01*
X76262494Y-25500619D01*
X76272065Y-25440187D01*
X76281383Y-25425324D01*
X76309815Y-25387832D01*
X76362179Y-25255046D01*
X76372200Y-25171602D01*
X76372200Y-24577798D01*
X76362179Y-24494354D01*
X76309815Y-24361568D01*
X76223567Y-24247833D01*
X76109832Y-24161585D01*
X76109831Y-24161584D01*
X76109829Y-24161583D01*
X75977048Y-24109221D01*
X75893604Y-24099200D01*
X75893602Y-24099200D01*
X75374798Y-24099200D01*
X75374795Y-24099200D01*
X75291351Y-24109221D01*
X75158570Y-24161583D01*
X75158566Y-24161586D01*
X75044836Y-24247830D01*
X75044830Y-24247836D01*
X74958586Y-24361566D01*
X74958583Y-24361570D01*
X74938797Y-24411746D01*
X74899861Y-24458943D01*
X74840618Y-24474240D01*
X74783699Y-24451794D01*
X74754603Y-24411746D01*
X74734816Y-24361570D01*
X74734815Y-24361569D01*
X74734815Y-24361568D01*
X74648567Y-24247833D01*
X74534832Y-24161585D01*
X74522379Y-24156674D01*
X74475183Y-24117736D01*
X74459700Y-24064577D01*
X74459700Y-14715699D01*
X74478607Y-14657508D01*
X74488684Y-14645707D01*
X74706698Y-14427693D01*
X74761213Y-14399918D01*
X74776700Y-14398699D01*
X76962896Y-14398699D01*
X76962898Y-14398699D01*
X77051364Y-14388076D01*
X77192142Y-14332561D01*
X77312722Y-14241122D01*
X77404161Y-14120542D01*
X77459676Y-13979764D01*
X77470300Y-13891299D01*
X77470299Y-11705099D01*
X77489206Y-11646909D01*
X77499296Y-11635096D01*
X77608397Y-11525996D01*
X77662913Y-11498219D01*
X77678400Y-11497000D01*
X78207254Y-11497000D01*
X78265445Y-11515907D01*
X78301409Y-11565407D01*
X78301409Y-11626593D01*
X78285796Y-11656267D01*
X78238283Y-11718186D01*
X78117022Y-11928217D01*
X78024223Y-12152255D01*
X78024219Y-12152268D01*
X77961453Y-12386511D01*
X77961453Y-12386516D01*
X77929800Y-12626944D01*
X77929800Y-12869455D01*
X77961453Y-13109883D01*
X77961453Y-13109888D01*
X78024219Y-13344131D01*
X78024223Y-13344144D01*
X78117022Y-13568182D01*
X78238280Y-13778208D01*
X78306860Y-13867583D01*
X79025684Y-13148759D01*
X79026540Y-13150826D01*
X79119562Y-13290044D01*
X79237956Y-13408438D01*
X79377174Y-13501460D01*
X79379237Y-13502314D01*
X78660414Y-14221138D01*
X78749791Y-14289719D01*
X78959817Y-14410977D01*
X79183855Y-14503776D01*
X79183868Y-14503780D01*
X79418113Y-14566546D01*
X79658544Y-14598199D01*
X79658546Y-14598200D01*
X79901054Y-14598200D01*
X79901055Y-14598199D01*
X80141483Y-14566546D01*
X80141488Y-14566546D01*
X80375731Y-14503780D01*
X80375744Y-14503776D01*
X80599782Y-14410977D01*
X80809812Y-14289716D01*
X80899185Y-14221138D01*
X80180361Y-13502314D01*
X80182426Y-13501460D01*
X80321644Y-13408438D01*
X80440038Y-13290044D01*
X80533060Y-13150826D01*
X80533915Y-13148761D01*
X81252738Y-13867585D01*
X81321316Y-13778212D01*
X81442577Y-13568182D01*
X81535376Y-13344144D01*
X81535380Y-13344131D01*
X81598146Y-13109888D01*
X81598146Y-13109883D01*
X81629799Y-12869455D01*
X81629800Y-12869454D01*
X81629800Y-12626946D01*
X81629799Y-12626944D01*
X81598146Y-12386516D01*
X81598146Y-12386511D01*
X81535380Y-12152268D01*
X81535376Y-12152255D01*
X81442577Y-11928217D01*
X81321316Y-11718186D01*
X81273804Y-11656267D01*
X81253380Y-11598592D01*
X81270758Y-11539926D01*
X81319299Y-11502678D01*
X81352346Y-11497000D01*
X82417833Y-11497000D01*
X82476024Y-11515907D01*
X82511988Y-11565407D01*
X82511988Y-11626593D01*
X82487838Y-11666001D01*
X82480869Y-11672971D01*
X82480868Y-11672972D01*
X82328164Y-11883151D01*
X82210219Y-12114632D01*
X82129938Y-12361711D01*
X82089300Y-12618299D01*
X82089300Y-12878100D01*
X82129938Y-13134688D01*
X82197991Y-13344131D01*
X82210221Y-13381772D01*
X82271205Y-13501460D01*
X82319615Y-13596470D01*
X82328166Y-13613251D01*
X82480869Y-13823429D01*
X82664571Y-14007131D01*
X82874749Y-14159834D01*
X83106228Y-14277779D01*
X83353307Y-14358060D01*
X83353308Y-14358060D01*
X83353311Y-14358061D01*
X83609900Y-14398700D01*
X83609903Y-14398700D01*
X83869700Y-14398700D01*
X84126288Y-14358061D01*
X84126289Y-14358060D01*
X84126293Y-14358060D01*
X84373372Y-14277779D01*
X84527639Y-14199174D01*
X84588069Y-14189603D01*
X84642586Y-14217380D01*
X84642587Y-14217380D01*
X85071920Y-14646713D01*
X85071919Y-14646713D01*
X85140906Y-14715699D01*
X85146487Y-14721280D01*
X85237813Y-14774007D01*
X85339673Y-14801300D01*
X85339675Y-14801300D01*
X99580425Y-14801300D01*
X99580427Y-14801300D01*
X99682288Y-14774007D01*
X99682290Y-14774005D01*
X99682292Y-14774005D01*
X99773608Y-14721283D01*
X99773608Y-14721282D01*
X99773613Y-14721280D01*
X100277513Y-14217378D01*
X100332028Y-14189603D01*
X100392457Y-14199173D01*
X100546728Y-14277779D01*
X100793807Y-14358060D01*
X100793808Y-14358060D01*
X100793811Y-14358061D01*
X101050400Y-14398700D01*
X101050403Y-14398700D01*
X101310200Y-14398700D01*
X101566788Y-14358061D01*
X101566789Y-14358060D01*
X101566793Y-14358060D01*
X101813872Y-14277779D01*
X102045351Y-14159834D01*
X102255529Y-14007131D01*
X102439231Y-13823429D01*
X102591934Y-13613251D01*
X102709879Y-13381772D01*
X102790160Y-13134693D01*
X102794089Y-13109888D01*
X102830800Y-12878100D01*
X102830800Y-12618299D01*
X102790161Y-12361711D01*
X102784035Y-12342855D01*
X102709879Y-12114628D01*
X102631273Y-11960357D01*
X102621703Y-11899926D01*
X102649479Y-11845411D01*
X102986496Y-11508396D01*
X103041012Y-11480619D01*
X103056499Y-11479400D01*
X108518295Y-11479400D01*
X108576486Y-11498307D01*
X108612450Y-11547807D01*
X108616589Y-11590205D01*
X108614800Y-11605098D01*
X108614800Y-13891296D01*
X108614801Y-13891302D01*
X108623299Y-13962070D01*
X108625424Y-13979764D01*
X108680939Y-14120542D01*
X108772378Y-14241122D01*
X108892958Y-14332561D01*
X109033736Y-14388076D01*
X109122201Y-14398700D01*
X111408398Y-14398699D01*
X111496864Y-14388076D01*
X111637642Y-14332561D01*
X111758222Y-14241122D01*
X111849661Y-14120542D01*
X111905176Y-13979764D01*
X111915800Y-13891299D01*
X111915799Y-11605102D01*
X111914010Y-11590204D01*
X111925844Y-11530174D01*
X111970703Y-11488565D01*
X112012304Y-11479400D01*
X112666259Y-11479400D01*
X112724450Y-11498307D01*
X112760414Y-11547807D01*
X112760414Y-11608993D01*
X112744801Y-11638667D01*
X112683783Y-11718186D01*
X112562522Y-11928217D01*
X112469723Y-12152255D01*
X112469719Y-12152268D01*
X112406953Y-12386511D01*
X112406953Y-12386516D01*
X112375300Y-12626944D01*
X112375300Y-12869455D01*
X112406953Y-13109883D01*
X112406953Y-13109888D01*
X112469719Y-13344131D01*
X112469723Y-13344144D01*
X112562522Y-13568182D01*
X112683780Y-13778208D01*
X112752360Y-13867583D01*
X113471184Y-13148759D01*
X113472040Y-13150826D01*
X113565062Y-13290044D01*
X113683456Y-13408438D01*
X113822674Y-13501460D01*
X113824737Y-13502314D01*
X113105914Y-14221138D01*
X113195291Y-14289719D01*
X113405317Y-14410977D01*
X113629355Y-14503776D01*
X113629368Y-14503780D01*
X113863613Y-14566546D01*
X114104044Y-14598199D01*
X114104046Y-14598200D01*
X114346554Y-14598200D01*
X114346555Y-14598199D01*
X114586983Y-14566546D01*
X114586988Y-14566546D01*
X114821231Y-14503780D01*
X114821244Y-14503776D01*
X115045282Y-14410977D01*
X115255312Y-14289716D01*
X115344685Y-14221138D01*
X114625861Y-13502314D01*
X114627926Y-13501460D01*
X114767144Y-13408438D01*
X114885538Y-13290044D01*
X114978560Y-13150826D01*
X114979415Y-13148761D01*
X115698238Y-13867585D01*
X115766816Y-13778212D01*
X115888077Y-13568182D01*
X115980876Y-13344144D01*
X115980880Y-13344131D01*
X116043646Y-13109888D01*
X116043646Y-13109883D01*
X116075299Y-12869455D01*
X116075300Y-12869454D01*
X116075300Y-12626946D01*
X116075299Y-12626944D01*
X116043646Y-12386516D01*
X116043646Y-12386511D01*
X115980880Y-12152268D01*
X115980876Y-12152255D01*
X115888077Y-11928217D01*
X115766816Y-11718186D01*
X115705799Y-11638667D01*
X115685375Y-11580992D01*
X115702752Y-11522326D01*
X115751294Y-11485079D01*
X115784341Y-11479400D01*
X116309099Y-11479400D01*
X116367290Y-11498307D01*
X116379103Y-11508396D01*
X116716118Y-11845411D01*
X116743895Y-11899928D01*
X116734324Y-11960360D01*
X116655721Y-12114627D01*
X116575438Y-12361711D01*
X116534800Y-12618299D01*
X116534800Y-12878100D01*
X116575438Y-13134688D01*
X116643491Y-13344131D01*
X116655721Y-13381772D01*
X116716705Y-13501460D01*
X116765115Y-13596470D01*
X116773666Y-13613251D01*
X116926369Y-13823429D01*
X117110071Y-14007131D01*
X117320249Y-14159834D01*
X117551728Y-14277779D01*
X117798807Y-14358060D01*
X117798808Y-14358060D01*
X117798811Y-14358061D01*
X118055400Y-14398700D01*
X118055403Y-14398700D01*
X118315200Y-14398700D01*
X118571788Y-14358061D01*
X118571789Y-14358060D01*
X118571793Y-14358060D01*
X118818872Y-14277779D01*
X118973139Y-14199174D01*
X119033569Y-14189603D01*
X119088086Y-14217380D01*
X119088087Y-14217380D01*
X119636487Y-14765780D01*
X119636489Y-14765781D01*
X119636490Y-14765782D01*
X119636491Y-14765783D01*
X119727808Y-14818505D01*
X119727806Y-14818505D01*
X119727810Y-14818506D01*
X119727812Y-14818507D01*
X119829673Y-14845800D01*
X119829675Y-14845800D01*
X133284025Y-14845800D01*
X133284027Y-14845800D01*
X133385888Y-14818507D01*
X133385890Y-14818505D01*
X133385892Y-14818505D01*
X133477208Y-14765783D01*
X133477208Y-14765782D01*
X133477213Y-14765780D01*
X134025613Y-14217378D01*
X134080128Y-14189603D01*
X134140557Y-14199173D01*
X134294828Y-14277779D01*
X134541907Y-14358060D01*
X134541908Y-14358060D01*
X134541911Y-14358061D01*
X134798500Y-14398700D01*
X134798503Y-14398700D01*
X135058300Y-14398700D01*
X135314888Y-14358061D01*
X135314889Y-14358060D01*
X135314893Y-14358060D01*
X135561972Y-14277779D01*
X135793451Y-14159834D01*
X136003629Y-14007131D01*
X136187331Y-13823429D01*
X136340034Y-13613251D01*
X136457979Y-13381772D01*
X136538260Y-13134693D01*
X136542189Y-13109888D01*
X136578900Y-12878100D01*
X136578900Y-12618299D01*
X136538261Y-12361711D01*
X136532135Y-12342855D01*
X136457979Y-12114628D01*
X136340034Y-11883149D01*
X136187331Y-11672971D01*
X136003629Y-11489269D01*
X135793451Y-11336566D01*
X135793450Y-11336565D01*
X135793448Y-11336564D01*
X135633909Y-11255275D01*
X135561972Y-11218621D01*
X135561969Y-11218620D01*
X135561967Y-11218619D01*
X135314888Y-11138338D01*
X135058300Y-11097700D01*
X135058297Y-11097700D01*
X134798503Y-11097700D01*
X134798500Y-11097700D01*
X134541911Y-11138338D01*
X134294832Y-11218619D01*
X134063351Y-11336564D01*
X133853172Y-11489268D01*
X133669468Y-11672972D01*
X133516764Y-11883151D01*
X133398819Y-12114632D01*
X133318538Y-12361711D01*
X133277900Y-12618299D01*
X133277900Y-12878100D01*
X133318538Y-13134688D01*
X133386591Y-13344131D01*
X133398821Y-13381772D01*
X133412408Y-13408438D01*
X133477424Y-13536039D01*
X133486995Y-13596471D01*
X133459218Y-13650987D01*
X133094404Y-14015803D01*
X133039887Y-14043581D01*
X133024400Y-14044800D01*
X132506110Y-14044800D01*
X132447919Y-14025893D01*
X132411955Y-13976393D01*
X132411955Y-13915207D01*
X132427568Y-13885533D01*
X132509916Y-13778213D01*
X132631177Y-13568182D01*
X132723976Y-13344144D01*
X132723980Y-13344131D01*
X132786746Y-13109888D01*
X132786746Y-13109883D01*
X132818399Y-12869455D01*
X132818400Y-12869454D01*
X132818400Y-12626946D01*
X132818399Y-12626944D01*
X132786746Y-12386516D01*
X132786746Y-12386511D01*
X132723980Y-12152268D01*
X132723976Y-12152255D01*
X132631177Y-11928217D01*
X132509919Y-11718191D01*
X132441337Y-11628814D01*
X131722514Y-12347637D01*
X131721660Y-12345574D01*
X131628638Y-12206356D01*
X131510244Y-12087962D01*
X131371026Y-11994940D01*
X131368959Y-11994084D01*
X132087784Y-11275260D01*
X131998408Y-11206680D01*
X131788382Y-11085422D01*
X131564344Y-10992623D01*
X131564331Y-10992619D01*
X131330086Y-10929853D01*
X131089655Y-10898200D01*
X130847144Y-10898200D01*
X130606716Y-10929853D01*
X130606711Y-10929853D01*
X130372468Y-10992619D01*
X130372455Y-10992623D01*
X130148417Y-11085422D01*
X129938386Y-11206683D01*
X129849014Y-11275260D01*
X130567838Y-11994084D01*
X130565774Y-11994940D01*
X130426556Y-12087962D01*
X130308162Y-12206356D01*
X130215140Y-12345574D01*
X130214284Y-12347638D01*
X129495460Y-11628814D01*
X129426883Y-11718186D01*
X129305622Y-11928217D01*
X129212823Y-12152255D01*
X129212819Y-12152268D01*
X129150053Y-12386511D01*
X129150053Y-12386516D01*
X129118400Y-12626944D01*
X129118400Y-12869455D01*
X129150053Y-13109883D01*
X129150053Y-13109888D01*
X129212819Y-13344131D01*
X129212823Y-13344144D01*
X129305622Y-13568182D01*
X129426883Y-13778213D01*
X129509232Y-13885533D01*
X129529656Y-13943209D01*
X129512278Y-14001875D01*
X129463737Y-14039122D01*
X129430690Y-14044800D01*
X128752066Y-14044800D01*
X128693875Y-14025893D01*
X128657911Y-13976393D01*
X128653772Y-13933996D01*
X128658900Y-13891299D01*
X128658899Y-11605102D01*
X128648276Y-11516636D01*
X128592761Y-11375858D01*
X128501322Y-11255278D01*
X128380742Y-11163839D01*
X128239964Y-11108324D01*
X128151499Y-11097700D01*
X125865303Y-11097700D01*
X125865297Y-11097701D01*
X125776836Y-11108324D01*
X125636058Y-11163839D01*
X125636057Y-11163839D01*
X125636056Y-11163840D01*
X125515481Y-11255275D01*
X125515475Y-11255281D01*
X125424040Y-11375856D01*
X125368524Y-11516635D01*
X125357900Y-11605098D01*
X125357900Y-13891296D01*
X125357901Y-13891305D01*
X125363028Y-13933997D01*
X125351193Y-13994027D01*
X125306334Y-14035636D01*
X125264734Y-14044800D01*
X120089301Y-14044800D01*
X120031110Y-14025893D01*
X120019297Y-14015804D01*
X119654480Y-13650987D01*
X119626703Y-13596470D01*
X119636273Y-13536042D01*
X119714879Y-13381772D01*
X119795160Y-13134693D01*
X119799089Y-13109888D01*
X119835800Y-12878100D01*
X119835800Y-12618299D01*
X119795161Y-12361711D01*
X119789035Y-12342855D01*
X119714879Y-12114628D01*
X119596934Y-11883149D01*
X119444231Y-11672971D01*
X119260529Y-11489269D01*
X119050351Y-11336566D01*
X119050350Y-11336565D01*
X119050348Y-11336564D01*
X118890809Y-11255275D01*
X118818872Y-11218621D01*
X118818869Y-11218620D01*
X118818867Y-11218619D01*
X118571788Y-11138338D01*
X118315200Y-11097700D01*
X118315197Y-11097700D01*
X118055403Y-11097700D01*
X118055400Y-11097700D01*
X117798811Y-11138338D01*
X117551727Y-11218621D01*
X117397460Y-11297224D01*
X117337028Y-11306795D01*
X117282511Y-11279018D01*
X117072197Y-11068704D01*
X116761913Y-10758420D01*
X116761910Y-10758418D01*
X116761909Y-10758417D01*
X116761908Y-10758416D01*
X116670591Y-10705694D01*
X116670593Y-10705694D01*
X116631070Y-10695104D01*
X116568727Y-10678400D01*
X116568725Y-10678400D01*
X102908406Y-10678400D01*
X102908390Y-10678399D01*
X102902327Y-10678399D01*
X102796873Y-10678399D01*
X102796870Y-10678399D01*
X102695013Y-10705692D01*
X102695009Y-10705694D01*
X102603687Y-10758419D01*
X102529119Y-10832986D01*
X102529120Y-10832987D01*
X102529118Y-10832989D01*
X102529117Y-10832989D01*
X102083087Y-11279018D01*
X102028571Y-11306795D01*
X101968139Y-11297224D01*
X101813872Y-11218621D01*
X101566788Y-11138338D01*
X101310200Y-11097700D01*
X101310197Y-11097700D01*
X101050403Y-11097700D01*
X101050400Y-11097700D01*
X100793811Y-11138338D01*
X100546732Y-11218619D01*
X100315251Y-11336564D01*
X100105072Y-11489268D01*
X99921368Y-11672972D01*
X99768664Y-11883151D01*
X99650719Y-12114632D01*
X99570438Y-12361711D01*
X99529800Y-12618299D01*
X99529800Y-12878100D01*
X99570438Y-13134688D01*
X99638491Y-13344131D01*
X99650721Y-13381772D01*
X99664308Y-13408438D01*
X99729324Y-13536039D01*
X99738895Y-13596471D01*
X99711118Y-13650987D01*
X99390804Y-13971303D01*
X99336287Y-13999081D01*
X99320800Y-14000300D01*
X98792156Y-14000300D01*
X98733965Y-13981393D01*
X98698001Y-13931893D01*
X98698001Y-13870707D01*
X98713614Y-13841033D01*
X98761816Y-13778213D01*
X98883077Y-13568182D01*
X98975876Y-13344144D01*
X98975880Y-13344131D01*
X99038646Y-13109888D01*
X99038646Y-13109883D01*
X99070299Y-12869455D01*
X99070300Y-12869454D01*
X99070300Y-12626946D01*
X99070299Y-12626944D01*
X99038646Y-12386516D01*
X99038646Y-12386511D01*
X98975880Y-12152268D01*
X98975876Y-12152255D01*
X98883077Y-11928217D01*
X98761819Y-11718191D01*
X98693237Y-11628814D01*
X97974414Y-12347637D01*
X97973560Y-12345574D01*
X97880538Y-12206356D01*
X97762144Y-12087962D01*
X97622926Y-11994940D01*
X97620859Y-11994084D01*
X98339684Y-11275260D01*
X98250308Y-11206680D01*
X98040282Y-11085422D01*
X97816244Y-10992623D01*
X97816231Y-10992619D01*
X97581986Y-10929853D01*
X97341555Y-10898200D01*
X97099044Y-10898200D01*
X96858616Y-10929853D01*
X96858611Y-10929853D01*
X96624368Y-10992619D01*
X96624355Y-10992623D01*
X96400317Y-11085422D01*
X96190286Y-11206683D01*
X96100914Y-11275260D01*
X96819738Y-11994084D01*
X96817674Y-11994940D01*
X96678456Y-12087962D01*
X96560062Y-12206356D01*
X96467040Y-12345574D01*
X96466184Y-12347638D01*
X95747360Y-11628814D01*
X95678783Y-11718186D01*
X95557522Y-11928217D01*
X95464723Y-12152255D01*
X95464719Y-12152268D01*
X95401953Y-12386511D01*
X95401953Y-12386516D01*
X95370300Y-12626944D01*
X95370300Y-12869455D01*
X95401953Y-13109883D01*
X95401953Y-13109888D01*
X95464719Y-13344131D01*
X95464723Y-13344144D01*
X95557522Y-13568182D01*
X95678783Y-13778213D01*
X95726986Y-13841033D01*
X95747410Y-13898709D01*
X95730032Y-13957375D01*
X95681490Y-13994622D01*
X95648444Y-14000300D01*
X95009311Y-14000300D01*
X94951120Y-13981393D01*
X94915156Y-13931893D01*
X94911482Y-13894310D01*
X94910623Y-13894259D01*
X94910799Y-13891305D01*
X94910800Y-13891299D01*
X94910799Y-11605102D01*
X94900176Y-11516636D01*
X94844661Y-11375858D01*
X94753222Y-11255278D01*
X94632642Y-11163839D01*
X94491864Y-11108324D01*
X94403401Y-11097700D01*
X94403399Y-11097700D01*
X92217201Y-11097700D01*
X92159010Y-11078793D01*
X92147198Y-11068704D01*
X91854513Y-10776020D01*
X91854508Y-10776016D01*
X91763191Y-10723294D01*
X91763193Y-10723294D01*
X91723670Y-10712704D01*
X91661327Y-10696000D01*
X91661325Y-10696000D01*
X77530306Y-10696000D01*
X77530290Y-10695999D01*
X77524227Y-10695999D01*
X77418773Y-10695999D01*
X77418770Y-10695999D01*
X77316913Y-10723292D01*
X77316909Y-10723294D01*
X77225587Y-10776019D01*
X77151019Y-10850586D01*
X77151020Y-10850587D01*
X76932903Y-11068704D01*
X76878386Y-11096481D01*
X76862899Y-11097700D01*
X74776701Y-11097700D01*
X74718510Y-11078793D01*
X74706698Y-11068704D01*
X74396613Y-10758620D01*
X74396608Y-10758616D01*
X74305291Y-10705894D01*
X74305293Y-10705894D01*
X74265770Y-10695304D01*
X74203427Y-10678600D01*
X58363027Y-10678600D01*
X58257573Y-10678600D01*
X58195229Y-10695304D01*
X58155707Y-10705894D01*
X58064391Y-10758616D01*
X58064386Y-10758620D01*
X57754302Y-11068704D01*
X57699786Y-11096481D01*
X57684299Y-11097700D01*
X55498103Y-11097700D01*
X55498097Y-11097701D01*
X55409636Y-11108324D01*
X55268858Y-11163839D01*
X55268857Y-11163839D01*
X55268856Y-11163840D01*
X55148281Y-11255275D01*
X55148275Y-11255281D01*
X55056840Y-11375856D01*
X55001324Y-11516635D01*
X54990700Y-11605098D01*
X54990700Y-13891296D01*
X54990701Y-13891300D01*
X54991063Y-13894310D01*
X54993510Y-13914694D01*
X54993511Y-13914695D01*
X54981677Y-13974725D01*
X54936819Y-14016335D01*
X54895217Y-14025500D01*
X46396567Y-14025500D01*
X46338376Y-14006593D01*
X46302412Y-13957093D01*
X46302412Y-13895907D01*
X46326561Y-13856498D01*
X46359631Y-13823429D01*
X46512334Y-13613251D01*
X46630279Y-13381772D01*
X46710560Y-13134693D01*
X46714489Y-13109888D01*
X46751200Y-12878100D01*
X46751200Y-12618299D01*
X46710561Y-12361711D01*
X46704435Y-12342855D01*
X46630279Y-12114628D01*
X46512334Y-11883149D01*
X46359631Y-11672971D01*
X46175929Y-11489269D01*
X45965751Y-11336566D01*
X45965750Y-11336565D01*
X45965748Y-11336564D01*
X45806209Y-11255275D01*
X45734272Y-11218621D01*
X45734269Y-11218620D01*
X45734267Y-11218619D01*
X45487188Y-11138338D01*
X45230600Y-11097700D01*
X45230597Y-11097700D01*
X44970803Y-11097700D01*
X44970800Y-11097700D01*
X44714211Y-11138338D01*
X44467127Y-11218621D01*
X44312860Y-11297224D01*
X44252428Y-11306795D01*
X44197911Y-11279018D01*
X43987597Y-11068704D01*
X43687013Y-10768120D01*
X43687010Y-10768118D01*
X43687009Y-10768117D01*
X43687008Y-10768116D01*
X43595691Y-10715394D01*
X43595693Y-10715394D01*
X43556170Y-10704804D01*
X43493827Y-10688100D01*
X20484027Y-10688100D01*
X20378573Y-10688100D01*
X20316229Y-10704804D01*
X20276707Y-10715394D01*
X20185391Y-10768116D01*
X20185386Y-10768120D01*
X19674486Y-11279018D01*
X19619970Y-11306795D01*
X19559538Y-11297224D01*
X19523807Y-11279018D01*
X19405272Y-11218621D01*
X19405269Y-11218620D01*
X19405267Y-11218619D01*
X19158188Y-11138338D01*
X18901600Y-11097700D01*
X18901597Y-11097700D01*
X18641803Y-11097700D01*
X18641800Y-11097700D01*
X18385211Y-11138338D01*
X18138132Y-11218619D01*
X17906651Y-11336564D01*
X17696472Y-11489268D01*
X17512768Y-11672972D01*
X17360064Y-11883151D01*
X17242119Y-12114632D01*
X17161838Y-12361711D01*
X17121200Y-12618299D01*
X17121200Y-12878100D01*
X17161838Y-13134688D01*
X17229891Y-13344131D01*
X17242121Y-13381772D01*
X17303105Y-13501460D01*
X17351515Y-13596470D01*
X17360066Y-13613251D01*
X17512769Y-13823429D01*
X17545838Y-13856498D01*
X17573614Y-13911013D01*
X17564043Y-13971445D01*
X17520778Y-14014710D01*
X17475833Y-14025500D01*
X16364219Y-14025500D01*
X16306028Y-14006593D01*
X16270064Y-13957093D01*
X16270064Y-13895907D01*
X16285677Y-13866233D01*
X16353216Y-13778213D01*
X16474477Y-13568182D01*
X16567276Y-13344144D01*
X16567280Y-13344131D01*
X16630046Y-13109888D01*
X16630046Y-13109883D01*
X16661699Y-12869455D01*
X16661700Y-12869454D01*
X16661700Y-12626946D01*
X16661699Y-12626944D01*
X16630046Y-12386516D01*
X16630046Y-12386511D01*
X16567280Y-12152268D01*
X16567276Y-12152255D01*
X16474477Y-11928217D01*
X16353219Y-11718191D01*
X16284637Y-11628814D01*
X15565814Y-12347637D01*
X15564960Y-12345574D01*
X15471938Y-12206356D01*
X15353544Y-12087962D01*
X15214326Y-11994940D01*
X15212259Y-11994084D01*
X15931084Y-11275260D01*
X15841708Y-11206680D01*
X15631682Y-11085422D01*
X15407644Y-10992623D01*
X15407631Y-10992619D01*
X15173386Y-10929853D01*
X14932955Y-10898200D01*
X14690444Y-10898200D01*
X14450016Y-10929853D01*
X14450011Y-10929853D01*
X14215768Y-10992619D01*
X14215755Y-10992623D01*
X13991717Y-11085422D01*
X13781686Y-11206683D01*
X13692314Y-11275260D01*
X14411138Y-11994084D01*
X14409074Y-11994940D01*
X14269856Y-12087962D01*
X14151462Y-12206356D01*
X14058440Y-12345574D01*
X14057584Y-12347638D01*
X13338760Y-11628814D01*
X13270183Y-11718186D01*
X13148922Y-11928217D01*
X13056123Y-12152255D01*
X13056119Y-12152268D01*
X12993353Y-12386511D01*
X12993353Y-12386516D01*
X12961700Y-12626944D01*
X12961700Y-12869455D01*
X12993353Y-13109883D01*
X12993353Y-13109888D01*
X13056119Y-13344131D01*
X13056123Y-13344144D01*
X13148922Y-13568182D01*
X13270183Y-13778213D01*
X13337723Y-13866233D01*
X13358147Y-13923909D01*
X13340769Y-13982574D01*
X13292228Y-14019822D01*
X13259181Y-14025500D01*
X12736400Y-14025500D01*
X12678209Y-14006593D01*
X12666396Y-13996504D01*
X12531195Y-13861303D01*
X12503418Y-13806786D01*
X12502199Y-13791299D01*
X12502199Y-11605103D01*
X12502199Y-11605101D01*
X12491576Y-11516636D01*
X12436061Y-11375858D01*
X12344622Y-11255278D01*
X12224042Y-11163839D01*
X12083264Y-11108324D01*
X11994799Y-11097700D01*
X9708603Y-11097700D01*
X9708597Y-11097701D01*
X9620136Y-11108324D01*
X9479358Y-11163839D01*
X9479357Y-11163839D01*
X9479356Y-11163840D01*
X9358781Y-11255275D01*
X9358775Y-11255281D01*
X9267340Y-11375856D01*
X9211824Y-11516635D01*
X9201200Y-11605098D01*
X500500Y-11605098D01*
X500500Y-3378710D01*
X1649500Y-3378710D01*
X1649500Y-3621289D01*
X1681161Y-3861781D01*
X1681161Y-3861786D01*
X1743944Y-4096092D01*
X1743948Y-4096105D01*
X1836772Y-4320204D01*
X1836774Y-4320208D01*
X1836776Y-4320212D01*
X1958064Y-4530289D01*
X1958066Y-4530292D01*
X2105729Y-4722731D01*
X2105731Y-4722733D01*
X2105735Y-4722738D01*
X2277262Y-4894265D01*
X2277266Y-4894268D01*
X2277268Y-4894270D01*
X2469707Y-5041933D01*
X2469711Y-5041936D01*
X2679788Y-5163224D01*
X2903900Y-5256054D01*
X3138211Y-5318838D01*
X3378712Y-5350500D01*
X3378713Y-5350500D01*
X3621287Y-5350500D01*
X3621288Y-5350500D01*
X3861789Y-5318838D01*
X4096100Y-5256054D01*
X4320212Y-5163224D01*
X4530289Y-5041936D01*
X4722738Y-4894265D01*
X4894265Y-4722738D01*
X5041936Y-4530289D01*
X5163224Y-4320212D01*
X5256054Y-4096100D01*
X5318838Y-3861789D01*
X5350500Y-3621288D01*
X5350500Y-3378712D01*
X5350500Y-3378710D01*
X144649500Y-3378710D01*
X144649500Y-3621289D01*
X144681161Y-3861781D01*
X144681161Y-3861786D01*
X144743944Y-4096092D01*
X144743948Y-4096105D01*
X144836772Y-4320204D01*
X144836774Y-4320208D01*
X144836776Y-4320212D01*
X144958064Y-4530289D01*
X144958066Y-4530292D01*
X145105729Y-4722731D01*
X145105731Y-4722733D01*
X145105735Y-4722738D01*
X145277262Y-4894265D01*
X145277266Y-4894268D01*
X145277268Y-4894270D01*
X145469707Y-5041933D01*
X145469711Y-5041936D01*
X145679788Y-5163224D01*
X145903900Y-5256054D01*
X146138211Y-5318838D01*
X146378712Y-5350500D01*
X146378713Y-5350500D01*
X146621287Y-5350500D01*
X146621288Y-5350500D01*
X146861789Y-5318838D01*
X147096100Y-5256054D01*
X147320212Y-5163224D01*
X147530289Y-5041936D01*
X147722738Y-4894265D01*
X147894265Y-4722738D01*
X148041936Y-4530289D01*
X148163224Y-4320212D01*
X148256054Y-4096100D01*
X148318838Y-3861789D01*
X148350500Y-3621288D01*
X148350500Y-3378712D01*
X148318838Y-3138211D01*
X148256054Y-2903900D01*
X148163224Y-2679788D01*
X148041936Y-2469711D01*
X147894265Y-2277262D01*
X147722738Y-2105735D01*
X147722733Y-2105731D01*
X147722731Y-2105729D01*
X147530292Y-1958066D01*
X147530289Y-1958064D01*
X147320212Y-1836776D01*
X147320208Y-1836774D01*
X147320204Y-1836772D01*
X147096105Y-1743948D01*
X147096104Y-1743947D01*
X147096100Y-1743946D01*
X146861789Y-1681162D01*
X146861786Y-1681161D01*
X146861784Y-1681161D01*
X146621289Y-1649500D01*
X146621288Y-1649500D01*
X146378712Y-1649500D01*
X146378710Y-1649500D01*
X146138218Y-1681161D01*
X146138213Y-1681161D01*
X145903907Y-1743944D01*
X145903894Y-1743948D01*
X145679795Y-1836772D01*
X145469707Y-1958066D01*
X145277268Y-2105729D01*
X145105729Y-2277268D01*
X144958066Y-2469707D01*
X144836772Y-2679795D01*
X144743948Y-2903894D01*
X144743944Y-2903907D01*
X144681161Y-3138213D01*
X144681161Y-3138218D01*
X144649500Y-3378710D01*
X5350500Y-3378710D01*
X5318838Y-3138211D01*
X5256054Y-2903900D01*
X5163224Y-2679788D01*
X5041936Y-2469711D01*
X4894265Y-2277262D01*
X4722738Y-2105735D01*
X4722733Y-2105731D01*
X4722731Y-2105729D01*
X4530292Y-1958066D01*
X4530289Y-1958064D01*
X4320212Y-1836776D01*
X4320208Y-1836774D01*
X4320204Y-1836772D01*
X4096105Y-1743948D01*
X4096104Y-1743947D01*
X4096100Y-1743946D01*
X3861789Y-1681162D01*
X3861786Y-1681161D01*
X3861784Y-1681161D01*
X3621289Y-1649500D01*
X3621288Y-1649500D01*
X3378712Y-1649500D01*
X3378710Y-1649500D01*
X3138218Y-1681161D01*
X3138213Y-1681161D01*
X2903907Y-1743944D01*
X2903894Y-1743948D01*
X2679795Y-1836772D01*
X2469707Y-1958066D01*
X2277268Y-2105729D01*
X2105729Y-2277268D01*
X1958066Y-2469707D01*
X1836772Y-2679795D01*
X1743948Y-2903894D01*
X1743944Y-2903907D01*
X1681161Y-3138213D01*
X1681161Y-3138218D01*
X1649500Y-3378710D01*
X500500Y-3378710D01*
X500500Y-599500D01*
X519407Y-541309D01*
X568907Y-505345D01*
X599500Y-500500D01*
X149400500Y-500500D01*
X149458691Y-519407D01*
G37*
%TD.AperFunction*%
%TD*%
M02*
