%TF.GenerationSoftware,KiCad,Pcbnew,10.0.5*%
%TF.CreationDate,2026-08-02T05:32:18-05:00*%
%TF.ProjectId,power-backplane,706f7765-722d-4626-9163-6b706c616e65,rev?*%
%TF.SameCoordinates,Original*%
%TF.FileFunction,Soldermask,Top*%
%TF.FilePolarity,Negative*%
%FSLAX46Y46*%
G04 Gerber Fmt 4.6, Leading zero omitted, Abs format (unit mm)*
G04 Created by KiCad (PCBNEW 10.0.5) date 2026-08-02 05:32:18*
%MOMM*%
%LPD*%
G01*
G04 APERTURE LIST*
G04 Aperture macros list*
%AMRoundRect*
0 Rectangle with rounded corners*
0 $1 Rounding radius*
0 $2 $3 $4 $5 $6 $7 $8 $9 X,Y pos of 4 corners*
0 Add a 4 corners polygon primitive as box body*
4,1,4,$2,$3,$4,$5,$6,$7,$8,$9,$2,$3,0*
0 Add four circle primitives for the rounded corners*
1,1,$1+$1,$2,$3*
1,1,$1+$1,$4,$5*
1,1,$1+$1,$6,$7*
1,1,$1+$1,$8,$9*
0 Add four rect primitives between the rounded corners*
20,1,$1+$1,$2,$3,$4,$5,0*
20,1,$1+$1,$4,$5,$6,$7,0*
20,1,$1+$1,$6,$7,$8,$9,0*
20,1,$1+$1,$8,$9,$2,$3,0*%
G04 Aperture macros list end*
%ADD10C,3.200000*%
%ADD11RoundRect,0.250001X-1.099999X-1.099999X1.099999X-1.099999X1.099999X1.099999X-1.099999X1.099999X0*%
%ADD12C,2.700000*%
%ADD13R,1.500000X2.300000*%
%ADD14O,1.500000X2.300000*%
%ADD15RoundRect,0.250000X-1.950000X-1.000000X1.950000X-1.000000X1.950000X1.000000X-1.950000X1.000000X0*%
%ADD16R,3.500000X3.500000*%
%ADD17RoundRect,0.750000X-0.750000X-1.000000X0.750000X-1.000000X0.750000X1.000000X-0.750000X1.000000X0*%
%ADD18RoundRect,0.875000X-0.875000X-0.875000X0.875000X-0.875000X0.875000X0.875000X-0.875000X0.875000X0*%
%ADD19RoundRect,0.250000X-0.650000X1.000000X-0.650000X-1.000000X0.650000X-1.000000X0.650000X1.000000X0*%
%ADD20RoundRect,0.200000X-0.200000X-0.275000X0.200000X-0.275000X0.200000X0.275000X-0.200000X0.275000X0*%
%ADD21RoundRect,0.218750X-0.218750X-0.256250X0.218750X-0.256250X0.218750X0.256250X-0.218750X0.256250X0*%
%ADD22RoundRect,0.250000X-0.312500X-1.450000X0.312500X-1.450000X0.312500X1.450000X-0.312500X1.450000X0*%
%ADD23RoundRect,0.250000X-1.000000X-0.650000X1.000000X-0.650000X1.000000X0.650000X-1.000000X0.650000X0*%
%ADD24R,2.500000X2.500000*%
%ADD25C,2.500000*%
G04 APERTURE END LIST*
D10*
%TO.C,H1*%
X3500000Y-3500000D03*
%TD*%
D11*
%TO.C,P601*%
X10851700Y-12748200D03*
D12*
X14811700Y-12748200D03*
X18771700Y-12748200D03*
X22731700Y-12748200D03*
%TD*%
D10*
%TO.C,H4*%
X3500000Y-91500000D03*
%TD*%
D13*
%TO.C,PS501*%
X10670000Y-31004700D03*
D14*
X13210000Y-31004700D03*
X15750000Y-31004700D03*
%TD*%
D10*
%TO.C,H2*%
X146500000Y-3500000D03*
%TD*%
D15*
%TO.C,C500*%
X86780100Y-28744700D03*
X94180100Y-28744700D03*
%TD*%
D16*
%TO.C,J500*%
X14000000Y-50000000D03*
D17*
X8000000Y-50000000D03*
D18*
X11000000Y-54700000D03*
%TD*%
D19*
%TO.C,TVS500*%
X46123500Y-24166500D03*
X46123500Y-28166500D03*
%TD*%
D10*
%TO.C,H3*%
X146500000Y-91500000D03*
%TD*%
D20*
%TO.C,R502*%
X89175000Y-45000000D03*
X90825000Y-45000000D03*
%TD*%
D11*
%TO.C,P501*%
X127008400Y-12748200D03*
D12*
X130968400Y-12748200D03*
X134928400Y-12748200D03*
%TD*%
D21*
%TO.C,FB500*%
X58142600Y-24874700D03*
X59717600Y-24874700D03*
%TD*%
D11*
%TO.C,P506*%
X33220700Y-12748200D03*
D12*
X37180700Y-12748200D03*
X41140700Y-12748200D03*
X45100700Y-12748200D03*
%TD*%
D11*
%TO.C,P503*%
X56641200Y-12748200D03*
D12*
X60601200Y-12748200D03*
X64561200Y-12748200D03*
%TD*%
D22*
%TO.C,F500*%
X23770100Y-26094700D03*
X28045100Y-26094700D03*
%TD*%
D23*
%TO.C,D500*%
X34150200Y-25944700D03*
X38150200Y-25944700D03*
%TD*%
D24*
%TO.C,PS500*%
X60000000Y-50000000D03*
D25*
X54920000Y-50000000D03*
X52380000Y-70320000D03*
X62540000Y-70320000D03*
X72700000Y-70320000D03*
X67620000Y-50000000D03*
%TD*%
D11*
%TO.C,P502*%
X110265300Y-12748200D03*
D12*
X114225300Y-12748200D03*
X118185300Y-12748200D03*
%TD*%
D11*
%TO.C,P505*%
X75819800Y-12748200D03*
D12*
X79779800Y-12748200D03*
X83739800Y-12748200D03*
%TD*%
D21*
%TO.C,FB501*%
X74059200Y-24874700D03*
X75634200Y-24874700D03*
%TD*%
D11*
%TO.C,P504*%
X93260300Y-12748200D03*
D12*
X97220300Y-12748200D03*
X101180300Y-12748200D03*
%TD*%
M02*
