%TF.GenerationSoftware,KiCad,Pcbnew,10.0.5*%
%TF.CreationDate,2026-08-02T05:32:18-05:00*%
%TF.ProjectId,power-backplane,706f7765-722d-4626-9163-6b706c616e65,rev?*%
%TF.SameCoordinates,Original*%
%TF.FileFunction,Other,Comment*%
%FSLAX46Y46*%
G04 Gerber Fmt 4.6, Leading zero omitted, Abs format (unit mm)*
G04 Created by KiCad (PCBNEW 10.0.5) date 2026-08-02 05:32:18*
%MOMM*%
%LPD*%
G01*
G04 APERTURE LIST*
%ADD10C,0.180000*%
%ADD11C,0.200000*%
%ADD12C,0.150000*%
G04 APERTURE END LIST*
D10*
X-11607142Y-50684568D02*
X-11321428Y-50684568D01*
X-11321428Y-50684568D02*
X-11178571Y-50755997D01*
X-11178571Y-50755997D02*
X-11035714Y-50898854D01*
X-11035714Y-50898854D02*
X-10964285Y-51184568D01*
X-10964285Y-51184568D02*
X-10964285Y-51684568D01*
X-10964285Y-51684568D02*
X-11035714Y-51970282D01*
X-11035714Y-51970282D02*
X-11178571Y-52113140D01*
X-11178571Y-52113140D02*
X-11321428Y-52184568D01*
X-11321428Y-52184568D02*
X-11607142Y-52184568D01*
X-11607142Y-52184568D02*
X-11750000Y-52113140D01*
X-11750000Y-52113140D02*
X-11892857Y-51970282D01*
X-11892857Y-51970282D02*
X-11964285Y-51684568D01*
X-11964285Y-51684568D02*
X-11964285Y-51184568D01*
X-11964285Y-51184568D02*
X-11892857Y-50898854D01*
X-11892857Y-50898854D02*
X-11750000Y-50755997D01*
X-11750000Y-50755997D02*
X-11607142Y-50684568D01*
X-10321428Y-50684568D02*
X-10321428Y-51898854D01*
X-10321428Y-51898854D02*
X-10249999Y-52041711D01*
X-10249999Y-52041711D02*
X-10178571Y-52113140D01*
X-10178571Y-52113140D02*
X-10035713Y-52184568D01*
X-10035713Y-52184568D02*
X-9749999Y-52184568D01*
X-9749999Y-52184568D02*
X-9607142Y-52113140D01*
X-9607142Y-52113140D02*
X-9535713Y-52041711D01*
X-9535713Y-52041711D02*
X-9464285Y-51898854D01*
X-9464285Y-51898854D02*
X-9464285Y-50684568D01*
X-8964284Y-50684568D02*
X-8107142Y-50684568D01*
X-8535713Y-52184568D02*
X-8535713Y-50684568D01*
X-6892856Y-52184568D02*
X-7607142Y-52184568D01*
X-7607142Y-52184568D02*
X-7607142Y-50684568D01*
X-6392856Y-52184568D02*
X-6392856Y-50684568D01*
X-5678570Y-52184568D02*
X-5678570Y-50684568D01*
X-5678570Y-50684568D02*
X-4821427Y-52184568D01*
X-4821427Y-52184568D02*
X-4821427Y-50684568D01*
X-4107141Y-51398854D02*
X-3607141Y-51398854D01*
X-3392855Y-52184568D02*
X-4107141Y-52184568D01*
X-4107141Y-52184568D02*
X-4107141Y-50684568D01*
X-4107141Y-50684568D02*
X-3392855Y-50684568D01*
X-1678569Y-52113140D02*
X-1464284Y-52184568D01*
X-1464284Y-52184568D02*
X-1107141Y-52184568D01*
X-1107141Y-52184568D02*
X-964284Y-52113140D01*
X-964284Y-52113140D02*
X-892855Y-52041711D01*
X-892855Y-52041711D02*
X-821426Y-51898854D01*
X-821426Y-51898854D02*
X-821426Y-51755997D01*
X-821426Y-51755997D02*
X-892855Y-51613140D01*
X-892855Y-51613140D02*
X-964284Y-51541711D01*
X-964284Y-51541711D02*
X-1107141Y-51470282D01*
X-1107141Y-51470282D02*
X-1392855Y-51398854D01*
X-1392855Y-51398854D02*
X-1535712Y-51327425D01*
X-1535712Y-51327425D02*
X-1607141Y-51255997D01*
X-1607141Y-51255997D02*
X-1678569Y-51113140D01*
X-1678569Y-51113140D02*
X-1678569Y-50970282D01*
X-1678569Y-50970282D02*
X-1607141Y-50827425D01*
X-1607141Y-50827425D02*
X-1535712Y-50755997D01*
X-1535712Y-50755997D02*
X-1392855Y-50684568D01*
X-1392855Y-50684568D02*
X-1035712Y-50684568D01*
X-1035712Y-50684568D02*
X-821426Y-50755997D01*
X678572Y-52041711D02*
X607144Y-52113140D01*
X607144Y-52113140D02*
X392858Y-52184568D01*
X392858Y-52184568D02*
X250001Y-52184568D01*
X250001Y-52184568D02*
X35715Y-52113140D01*
X35715Y-52113140D02*
X-107141Y-51970282D01*
X-107141Y-51970282D02*
X-178570Y-51827425D01*
X-178570Y-51827425D02*
X-249998Y-51541711D01*
X-249998Y-51541711D02*
X-249998Y-51327425D01*
X-249998Y-51327425D02*
X-178570Y-51041711D01*
X-178570Y-51041711D02*
X-107141Y-50898854D01*
X-107141Y-50898854D02*
X35715Y-50755997D01*
X35715Y-50755997D02*
X250001Y-50684568D01*
X250001Y-50684568D02*
X392858Y-50684568D01*
X392858Y-50684568D02*
X607144Y-50755997D01*
X607144Y-50755997D02*
X678572Y-50827425D01*
X1250001Y-51755997D02*
X1964287Y-51755997D01*
X1107144Y-52184568D02*
X1607144Y-50684568D01*
X1607144Y-50684568D02*
X2107144Y-52184568D01*
X3107143Y-51398854D02*
X2607143Y-51398854D01*
X2607143Y-52184568D02*
X2607143Y-50684568D01*
X2607143Y-50684568D02*
X3321429Y-50684568D01*
X4392857Y-51398854D02*
X3892857Y-51398854D01*
X3892857Y-52184568D02*
X3892857Y-50684568D01*
X3892857Y-50684568D02*
X4607143Y-50684568D01*
X5464286Y-50684568D02*
X5750000Y-50684568D01*
X5750000Y-50684568D02*
X5892857Y-50755997D01*
X5892857Y-50755997D02*
X6035714Y-50898854D01*
X6035714Y-50898854D02*
X6107143Y-51184568D01*
X6107143Y-51184568D02*
X6107143Y-51684568D01*
X6107143Y-51684568D02*
X6035714Y-51970282D01*
X6035714Y-51970282D02*
X5892857Y-52113140D01*
X5892857Y-52113140D02*
X5750000Y-52184568D01*
X5750000Y-52184568D02*
X5464286Y-52184568D01*
X5464286Y-52184568D02*
X5321429Y-52113140D01*
X5321429Y-52113140D02*
X5178571Y-51970282D01*
X5178571Y-51970282D02*
X5107143Y-51684568D01*
X5107143Y-51684568D02*
X5107143Y-51184568D01*
X5107143Y-51184568D02*
X5178571Y-50898854D01*
X5178571Y-50898854D02*
X5321429Y-50755997D01*
X5321429Y-50755997D02*
X5464286Y-50684568D01*
X7464286Y-52184568D02*
X6750000Y-52184568D01*
X6750000Y-52184568D02*
X6750000Y-50684568D01*
X7964286Y-52184568D02*
X7964286Y-50684568D01*
X7964286Y-50684568D02*
X8321429Y-50684568D01*
X8321429Y-50684568D02*
X8535715Y-50755997D01*
X8535715Y-50755997D02*
X8678572Y-50898854D01*
X8678572Y-50898854D02*
X8750001Y-51041711D01*
X8750001Y-51041711D02*
X8821429Y-51327425D01*
X8821429Y-51327425D02*
X8821429Y-51541711D01*
X8821429Y-51541711D02*
X8750001Y-51827425D01*
X8750001Y-51827425D02*
X8678572Y-51970282D01*
X8678572Y-51970282D02*
X8535715Y-52113140D01*
X8535715Y-52113140D02*
X8321429Y-52184568D01*
X8321429Y-52184568D02*
X7964286Y-52184568D01*
X10607143Y-51613140D02*
X11750001Y-51613140D01*
X13607143Y-52184568D02*
X13607143Y-50684568D01*
X13607143Y-50684568D02*
X14464286Y-52184568D01*
X14464286Y-52184568D02*
X14464286Y-50684568D01*
X15464287Y-50684568D02*
X15750001Y-50684568D01*
X15750001Y-50684568D02*
X15892858Y-50755997D01*
X15892858Y-50755997D02*
X16035715Y-50898854D01*
X16035715Y-50898854D02*
X16107144Y-51184568D01*
X16107144Y-51184568D02*
X16107144Y-51684568D01*
X16107144Y-51684568D02*
X16035715Y-51970282D01*
X16035715Y-51970282D02*
X15892858Y-52113140D01*
X15892858Y-52113140D02*
X15750001Y-52184568D01*
X15750001Y-52184568D02*
X15464287Y-52184568D01*
X15464287Y-52184568D02*
X15321430Y-52113140D01*
X15321430Y-52113140D02*
X15178572Y-51970282D01*
X15178572Y-51970282D02*
X15107144Y-51684568D01*
X15107144Y-51684568D02*
X15107144Y-51184568D01*
X15107144Y-51184568D02*
X15178572Y-50898854D01*
X15178572Y-50898854D02*
X15321430Y-50755997D01*
X15321430Y-50755997D02*
X15464287Y-50684568D01*
X16535716Y-50684568D02*
X17392859Y-50684568D01*
X16964287Y-52184568D02*
X16964287Y-50684568D01*
X19535715Y-51398854D02*
X19035715Y-51398854D01*
X19035715Y-52184568D02*
X19035715Y-50684568D01*
X19035715Y-50684568D02*
X19750001Y-50684568D01*
X20607144Y-50684568D02*
X20892858Y-50684568D01*
X20892858Y-50684568D02*
X21035715Y-50755997D01*
X21035715Y-50755997D02*
X21178572Y-50898854D01*
X21178572Y-50898854D02*
X21250001Y-51184568D01*
X21250001Y-51184568D02*
X21250001Y-51684568D01*
X21250001Y-51684568D02*
X21178572Y-51970282D01*
X21178572Y-51970282D02*
X21035715Y-52113140D01*
X21035715Y-52113140D02*
X20892858Y-52184568D01*
X20892858Y-52184568D02*
X20607144Y-52184568D01*
X20607144Y-52184568D02*
X20464287Y-52113140D01*
X20464287Y-52113140D02*
X20321429Y-51970282D01*
X20321429Y-51970282D02*
X20250001Y-51684568D01*
X20250001Y-51684568D02*
X20250001Y-51184568D01*
X20250001Y-51184568D02*
X20321429Y-50898854D01*
X20321429Y-50898854D02*
X20464287Y-50755997D01*
X20464287Y-50755997D02*
X20607144Y-50684568D01*
X22750001Y-52184568D02*
X22250001Y-51470282D01*
X21892858Y-52184568D02*
X21892858Y-50684568D01*
X21892858Y-50684568D02*
X22464287Y-50684568D01*
X22464287Y-50684568D02*
X22607144Y-50755997D01*
X22607144Y-50755997D02*
X22678573Y-50827425D01*
X22678573Y-50827425D02*
X22750001Y-50970282D01*
X22750001Y-50970282D02*
X22750001Y-51184568D01*
X22750001Y-51184568D02*
X22678573Y-51327425D01*
X22678573Y-51327425D02*
X22607144Y-51398854D01*
X22607144Y-51398854D02*
X22464287Y-51470282D01*
X22464287Y-51470282D02*
X21892858Y-51470282D01*
X25035715Y-51398854D02*
X24535715Y-51398854D01*
X24535715Y-52184568D02*
X24535715Y-50684568D01*
X24535715Y-50684568D02*
X25250001Y-50684568D01*
X25750001Y-51755997D02*
X26464287Y-51755997D01*
X25607144Y-52184568D02*
X26107144Y-50684568D01*
X26107144Y-50684568D02*
X26607144Y-52184568D01*
X27607143Y-51398854D02*
X27821429Y-51470282D01*
X27821429Y-51470282D02*
X27892858Y-51541711D01*
X27892858Y-51541711D02*
X27964286Y-51684568D01*
X27964286Y-51684568D02*
X27964286Y-51898854D01*
X27964286Y-51898854D02*
X27892858Y-52041711D01*
X27892858Y-52041711D02*
X27821429Y-52113140D01*
X27821429Y-52113140D02*
X27678572Y-52184568D01*
X27678572Y-52184568D02*
X27107143Y-52184568D01*
X27107143Y-52184568D02*
X27107143Y-50684568D01*
X27107143Y-50684568D02*
X27607143Y-50684568D01*
X27607143Y-50684568D02*
X27750001Y-50755997D01*
X27750001Y-50755997D02*
X27821429Y-50827425D01*
X27821429Y-50827425D02*
X27892858Y-50970282D01*
X27892858Y-50970282D02*
X27892858Y-51113140D01*
X27892858Y-51113140D02*
X27821429Y-51255997D01*
X27821429Y-51255997D02*
X27750001Y-51327425D01*
X27750001Y-51327425D02*
X27607143Y-51398854D01*
X27607143Y-51398854D02*
X27107143Y-51398854D01*
D11*
X-20809526Y-46510076D02*
X-21000002Y-46414838D01*
X-21000002Y-46414838D02*
X-21285716Y-46414838D01*
X-21285716Y-46414838D02*
X-21571431Y-46510076D01*
X-21571431Y-46510076D02*
X-21761907Y-46700552D01*
X-21761907Y-46700552D02*
X-21857145Y-46891028D01*
X-21857145Y-46891028D02*
X-21952383Y-47271980D01*
X-21952383Y-47271980D02*
X-21952383Y-47557695D01*
X-21952383Y-47557695D02*
X-21857145Y-47938647D01*
X-21857145Y-47938647D02*
X-21761907Y-48129123D01*
X-21761907Y-48129123D02*
X-21571431Y-48319600D01*
X-21571431Y-48319600D02*
X-21285716Y-48414838D01*
X-21285716Y-48414838D02*
X-21095240Y-48414838D01*
X-21095240Y-48414838D02*
X-20809526Y-48319600D01*
X-20809526Y-48319600D02*
X-20714288Y-48224361D01*
X-20714288Y-48224361D02*
X-20714288Y-47557695D01*
X-20714288Y-47557695D02*
X-21095240Y-47557695D01*
X-19952383Y-47843409D02*
X-19000002Y-47843409D01*
X-20142859Y-48414838D02*
X-19476193Y-46414838D01*
X-19476193Y-46414838D02*
X-18809526Y-48414838D01*
X-18238097Y-48319600D02*
X-17952383Y-48414838D01*
X-17952383Y-48414838D02*
X-17476192Y-48414838D01*
X-17476192Y-48414838D02*
X-17285716Y-48319600D01*
X-17285716Y-48319600D02*
X-17190478Y-48224361D01*
X-17190478Y-48224361D02*
X-17095240Y-48033885D01*
X-17095240Y-48033885D02*
X-17095240Y-47843409D01*
X-17095240Y-47843409D02*
X-17190478Y-47652933D01*
X-17190478Y-47652933D02*
X-17285716Y-47557695D01*
X-17285716Y-47557695D02*
X-17476192Y-47462457D01*
X-17476192Y-47462457D02*
X-17857145Y-47367219D01*
X-17857145Y-47367219D02*
X-18047621Y-47271980D01*
X-18047621Y-47271980D02*
X-18142859Y-47176742D01*
X-18142859Y-47176742D02*
X-18238097Y-46986266D01*
X-18238097Y-46986266D02*
X-18238097Y-46795790D01*
X-18238097Y-46795790D02*
X-18142859Y-46605314D01*
X-18142859Y-46605314D02*
X-18047621Y-46510076D01*
X-18047621Y-46510076D02*
X-17857145Y-46414838D01*
X-17857145Y-46414838D02*
X-17380954Y-46414838D01*
X-17380954Y-46414838D02*
X-17095240Y-46510076D01*
X-13571430Y-48414838D02*
X-14238097Y-47462457D01*
X-14714287Y-48414838D02*
X-14714287Y-46414838D01*
X-14714287Y-46414838D02*
X-13952382Y-46414838D01*
X-13952382Y-46414838D02*
X-13761906Y-46510076D01*
X-13761906Y-46510076D02*
X-13666668Y-46605314D01*
X-13666668Y-46605314D02*
X-13571430Y-46795790D01*
X-13571430Y-46795790D02*
X-13571430Y-47081504D01*
X-13571430Y-47081504D02*
X-13666668Y-47271980D01*
X-13666668Y-47271980D02*
X-13761906Y-47367219D01*
X-13761906Y-47367219D02*
X-13952382Y-47462457D01*
X-13952382Y-47462457D02*
X-14714287Y-47462457D01*
X-11952382Y-48319600D02*
X-12142858Y-48414838D01*
X-12142858Y-48414838D02*
X-12523811Y-48414838D01*
X-12523811Y-48414838D02*
X-12714287Y-48319600D01*
X-12714287Y-48319600D02*
X-12809525Y-48129123D01*
X-12809525Y-48129123D02*
X-12809525Y-47367219D01*
X-12809525Y-47367219D02*
X-12714287Y-47176742D01*
X-12714287Y-47176742D02*
X-12523811Y-47081504D01*
X-12523811Y-47081504D02*
X-12142858Y-47081504D01*
X-12142858Y-47081504D02*
X-11952382Y-47176742D01*
X-11952382Y-47176742D02*
X-11857144Y-47367219D01*
X-11857144Y-47367219D02*
X-11857144Y-47557695D01*
X-11857144Y-47557695D02*
X-12809525Y-47748171D01*
X-11190477Y-47081504D02*
X-10714287Y-48414838D01*
X-10714287Y-48414838D02*
X-10238096Y-47081504D01*
X-8047619Y-47843409D02*
X-7095238Y-47843409D01*
X-8238095Y-48414838D02*
X-7571429Y-46414838D01*
X-7571429Y-46414838D02*
X-6904762Y-48414838D01*
X-4714285Y-47652933D02*
X-3190476Y-47652933D01*
X-714285Y-48414838D02*
X-714285Y-46414838D01*
X-714285Y-46414838D02*
X47619Y-46414838D01*
X47619Y-46414838D02*
X238095Y-46510076D01*
X238095Y-46510076D02*
X333333Y-46605314D01*
X333333Y-46605314D02*
X428571Y-46795790D01*
X428571Y-46795790D02*
X428571Y-47081504D01*
X428571Y-47081504D02*
X333333Y-47271980D01*
X333333Y-47271980D02*
X238095Y-47367219D01*
X238095Y-47367219D02*
X47619Y-47462457D01*
X47619Y-47462457D02*
X-714285Y-47462457D01*
X1571428Y-48414838D02*
X1380952Y-48319600D01*
X1380952Y-48319600D02*
X1285714Y-48224361D01*
X1285714Y-48224361D02*
X1190476Y-48033885D01*
X1190476Y-48033885D02*
X1190476Y-47462457D01*
X1190476Y-47462457D02*
X1285714Y-47271980D01*
X1285714Y-47271980D02*
X1380952Y-47176742D01*
X1380952Y-47176742D02*
X1571428Y-47081504D01*
X1571428Y-47081504D02*
X1857143Y-47081504D01*
X1857143Y-47081504D02*
X2047619Y-47176742D01*
X2047619Y-47176742D02*
X2142857Y-47271980D01*
X2142857Y-47271980D02*
X2238095Y-47462457D01*
X2238095Y-47462457D02*
X2238095Y-48033885D01*
X2238095Y-48033885D02*
X2142857Y-48224361D01*
X2142857Y-48224361D02*
X2047619Y-48319600D01*
X2047619Y-48319600D02*
X1857143Y-48414838D01*
X1857143Y-48414838D02*
X1571428Y-48414838D01*
X2904762Y-47081504D02*
X3285714Y-48414838D01*
X3285714Y-48414838D02*
X3666667Y-47462457D01*
X3666667Y-47462457D02*
X4047619Y-48414838D01*
X4047619Y-48414838D02*
X4428571Y-47081504D01*
X5952381Y-48319600D02*
X5761905Y-48414838D01*
X5761905Y-48414838D02*
X5380952Y-48414838D01*
X5380952Y-48414838D02*
X5190476Y-48319600D01*
X5190476Y-48319600D02*
X5095238Y-48129123D01*
X5095238Y-48129123D02*
X5095238Y-47367219D01*
X5095238Y-47367219D02*
X5190476Y-47176742D01*
X5190476Y-47176742D02*
X5380952Y-47081504D01*
X5380952Y-47081504D02*
X5761905Y-47081504D01*
X5761905Y-47081504D02*
X5952381Y-47176742D01*
X5952381Y-47176742D02*
X6047619Y-47367219D01*
X6047619Y-47367219D02*
X6047619Y-47557695D01*
X6047619Y-47557695D02*
X5095238Y-47748171D01*
X6904762Y-48414838D02*
X6904762Y-47081504D01*
X6904762Y-47462457D02*
X7000000Y-47271980D01*
X7000000Y-47271980D02*
X7095238Y-47176742D01*
X7095238Y-47176742D02*
X7285714Y-47081504D01*
X7285714Y-47081504D02*
X7476191Y-47081504D01*
X11095238Y-46319600D02*
X9380953Y-48891028D01*
X13952382Y-47367219D02*
X14238096Y-47462457D01*
X14238096Y-47462457D02*
X14333334Y-47557695D01*
X14333334Y-47557695D02*
X14428572Y-47748171D01*
X14428572Y-47748171D02*
X14428572Y-48033885D01*
X14428572Y-48033885D02*
X14333334Y-48224361D01*
X14333334Y-48224361D02*
X14238096Y-48319600D01*
X14238096Y-48319600D02*
X14047620Y-48414838D01*
X14047620Y-48414838D02*
X13285715Y-48414838D01*
X13285715Y-48414838D02*
X13285715Y-46414838D01*
X13285715Y-46414838D02*
X13952382Y-46414838D01*
X13952382Y-46414838D02*
X14142858Y-46510076D01*
X14142858Y-46510076D02*
X14238096Y-46605314D01*
X14238096Y-46605314D02*
X14333334Y-46795790D01*
X14333334Y-46795790D02*
X14333334Y-46986266D01*
X14333334Y-46986266D02*
X14238096Y-47176742D01*
X14238096Y-47176742D02*
X14142858Y-47271980D01*
X14142858Y-47271980D02*
X13952382Y-47367219D01*
X13952382Y-47367219D02*
X13285715Y-47367219D01*
X16142858Y-48414838D02*
X16142858Y-47367219D01*
X16142858Y-47367219D02*
X16047620Y-47176742D01*
X16047620Y-47176742D02*
X15857144Y-47081504D01*
X15857144Y-47081504D02*
X15476191Y-47081504D01*
X15476191Y-47081504D02*
X15285715Y-47176742D01*
X16142858Y-48319600D02*
X15952382Y-48414838D01*
X15952382Y-48414838D02*
X15476191Y-48414838D01*
X15476191Y-48414838D02*
X15285715Y-48319600D01*
X15285715Y-48319600D02*
X15190477Y-48129123D01*
X15190477Y-48129123D02*
X15190477Y-47938647D01*
X15190477Y-47938647D02*
X15285715Y-47748171D01*
X15285715Y-47748171D02*
X15476191Y-47652933D01*
X15476191Y-47652933D02*
X15952382Y-47652933D01*
X15952382Y-47652933D02*
X16142858Y-47557695D01*
X17952382Y-48319600D02*
X17761906Y-48414838D01*
X17761906Y-48414838D02*
X17380953Y-48414838D01*
X17380953Y-48414838D02*
X17190477Y-48319600D01*
X17190477Y-48319600D02*
X17095239Y-48224361D01*
X17095239Y-48224361D02*
X17000001Y-48033885D01*
X17000001Y-48033885D02*
X17000001Y-47462457D01*
X17000001Y-47462457D02*
X17095239Y-47271980D01*
X17095239Y-47271980D02*
X17190477Y-47176742D01*
X17190477Y-47176742D02*
X17380953Y-47081504D01*
X17380953Y-47081504D02*
X17761906Y-47081504D01*
X17761906Y-47081504D02*
X17952382Y-47176742D01*
X18809525Y-48414838D02*
X18809525Y-46414838D01*
X19000001Y-47652933D02*
X19571430Y-48414838D01*
X19571430Y-47081504D02*
X18809525Y-47843409D01*
X20428573Y-47081504D02*
X20428573Y-49081504D01*
X20428573Y-47176742D02*
X20619049Y-47081504D01*
X20619049Y-47081504D02*
X21000002Y-47081504D01*
X21000002Y-47081504D02*
X21190478Y-47176742D01*
X21190478Y-47176742D02*
X21285716Y-47271980D01*
X21285716Y-47271980D02*
X21380954Y-47462457D01*
X21380954Y-47462457D02*
X21380954Y-48033885D01*
X21380954Y-48033885D02*
X21285716Y-48224361D01*
X21285716Y-48224361D02*
X21190478Y-48319600D01*
X21190478Y-48319600D02*
X21000002Y-48414838D01*
X21000002Y-48414838D02*
X20619049Y-48414838D01*
X20619049Y-48414838D02*
X20428573Y-48319600D01*
X22523811Y-48414838D02*
X22333335Y-48319600D01*
X22333335Y-48319600D02*
X22238097Y-48129123D01*
X22238097Y-48129123D02*
X22238097Y-46414838D01*
X24142859Y-48414838D02*
X24142859Y-47367219D01*
X24142859Y-47367219D02*
X24047621Y-47176742D01*
X24047621Y-47176742D02*
X23857145Y-47081504D01*
X23857145Y-47081504D02*
X23476192Y-47081504D01*
X23476192Y-47081504D02*
X23285716Y-47176742D01*
X24142859Y-48319600D02*
X23952383Y-48414838D01*
X23952383Y-48414838D02*
X23476192Y-48414838D01*
X23476192Y-48414838D02*
X23285716Y-48319600D01*
X23285716Y-48319600D02*
X23190478Y-48129123D01*
X23190478Y-48129123D02*
X23190478Y-47938647D01*
X23190478Y-47938647D02*
X23285716Y-47748171D01*
X23285716Y-47748171D02*
X23476192Y-47652933D01*
X23476192Y-47652933D02*
X23952383Y-47652933D01*
X23952383Y-47652933D02*
X24142859Y-47557695D01*
X25095240Y-47081504D02*
X25095240Y-48414838D01*
X25095240Y-47271980D02*
X25190478Y-47176742D01*
X25190478Y-47176742D02*
X25380954Y-47081504D01*
X25380954Y-47081504D02*
X25666669Y-47081504D01*
X25666669Y-47081504D02*
X25857145Y-47176742D01*
X25857145Y-47176742D02*
X25952383Y-47367219D01*
X25952383Y-47367219D02*
X25952383Y-48414838D01*
X27666669Y-48319600D02*
X27476193Y-48414838D01*
X27476193Y-48414838D02*
X27095240Y-48414838D01*
X27095240Y-48414838D02*
X26904764Y-48319600D01*
X26904764Y-48319600D02*
X26809526Y-48129123D01*
X26809526Y-48129123D02*
X26809526Y-47367219D01*
X26809526Y-47367219D02*
X26904764Y-47176742D01*
X26904764Y-47176742D02*
X27095240Y-47081504D01*
X27095240Y-47081504D02*
X27476193Y-47081504D01*
X27476193Y-47081504D02*
X27666669Y-47176742D01*
X27666669Y-47176742D02*
X27761907Y-47367219D01*
X27761907Y-47367219D02*
X27761907Y-47557695D01*
X27761907Y-47557695D02*
X26809526Y-47748171D01*
X30809527Y-47367219D02*
X31095241Y-47462457D01*
X31095241Y-47462457D02*
X31190479Y-47557695D01*
X31190479Y-47557695D02*
X31285717Y-47748171D01*
X31285717Y-47748171D02*
X31285717Y-48033885D01*
X31285717Y-48033885D02*
X31190479Y-48224361D01*
X31190479Y-48224361D02*
X31095241Y-48319600D01*
X31095241Y-48319600D02*
X30904765Y-48414838D01*
X30904765Y-48414838D02*
X30142860Y-48414838D01*
X30142860Y-48414838D02*
X30142860Y-46414838D01*
X30142860Y-46414838D02*
X30809527Y-46414838D01*
X30809527Y-46414838D02*
X31000003Y-46510076D01*
X31000003Y-46510076D02*
X31095241Y-46605314D01*
X31095241Y-46605314D02*
X31190479Y-46795790D01*
X31190479Y-46795790D02*
X31190479Y-46986266D01*
X31190479Y-46986266D02*
X31095241Y-47176742D01*
X31095241Y-47176742D02*
X31000003Y-47271980D01*
X31000003Y-47271980D02*
X30809527Y-47367219D01*
X30809527Y-47367219D02*
X30142860Y-47367219D01*
X32428574Y-48414838D02*
X32238098Y-48319600D01*
X32238098Y-48319600D02*
X32142860Y-48224361D01*
X32142860Y-48224361D02*
X32047622Y-48033885D01*
X32047622Y-48033885D02*
X32047622Y-47462457D01*
X32047622Y-47462457D02*
X32142860Y-47271980D01*
X32142860Y-47271980D02*
X32238098Y-47176742D01*
X32238098Y-47176742D02*
X32428574Y-47081504D01*
X32428574Y-47081504D02*
X32714289Y-47081504D01*
X32714289Y-47081504D02*
X32904765Y-47176742D01*
X32904765Y-47176742D02*
X33000003Y-47271980D01*
X33000003Y-47271980D02*
X33095241Y-47462457D01*
X33095241Y-47462457D02*
X33095241Y-48033885D01*
X33095241Y-48033885D02*
X33000003Y-48224361D01*
X33000003Y-48224361D02*
X32904765Y-48319600D01*
X32904765Y-48319600D02*
X32714289Y-48414838D01*
X32714289Y-48414838D02*
X32428574Y-48414838D01*
X34809527Y-48414838D02*
X34809527Y-47367219D01*
X34809527Y-47367219D02*
X34714289Y-47176742D01*
X34714289Y-47176742D02*
X34523813Y-47081504D01*
X34523813Y-47081504D02*
X34142860Y-47081504D01*
X34142860Y-47081504D02*
X33952384Y-47176742D01*
X34809527Y-48319600D02*
X34619051Y-48414838D01*
X34619051Y-48414838D02*
X34142860Y-48414838D01*
X34142860Y-48414838D02*
X33952384Y-48319600D01*
X33952384Y-48319600D02*
X33857146Y-48129123D01*
X33857146Y-48129123D02*
X33857146Y-47938647D01*
X33857146Y-47938647D02*
X33952384Y-47748171D01*
X33952384Y-47748171D02*
X34142860Y-47652933D01*
X34142860Y-47652933D02*
X34619051Y-47652933D01*
X34619051Y-47652933D02*
X34809527Y-47557695D01*
X35761908Y-48414838D02*
X35761908Y-47081504D01*
X35761908Y-47462457D02*
X35857146Y-47271980D01*
X35857146Y-47271980D02*
X35952384Y-47176742D01*
X35952384Y-47176742D02*
X36142860Y-47081504D01*
X36142860Y-47081504D02*
X36333337Y-47081504D01*
X37857146Y-48414838D02*
X37857146Y-46414838D01*
X37857146Y-48319600D02*
X37666670Y-48414838D01*
X37666670Y-48414838D02*
X37285717Y-48414838D01*
X37285717Y-48414838D02*
X37095241Y-48319600D01*
X37095241Y-48319600D02*
X37000003Y-48224361D01*
X37000003Y-48224361D02*
X36904765Y-48033885D01*
X36904765Y-48033885D02*
X36904765Y-47462457D01*
X36904765Y-47462457D02*
X37000003Y-47271980D01*
X37000003Y-47271980D02*
X37095241Y-47176742D01*
X37095241Y-47176742D02*
X37285717Y-47081504D01*
X37285717Y-47081504D02*
X37666670Y-47081504D01*
X37666670Y-47081504D02*
X37857146Y-47176742D01*
%TO.C,H1*%
D12*
X6700000Y-3500000D02*
G75*
G02*
X300000Y-3500000I-3200000J0D01*
G01*
X300000Y-3500000D02*
G75*
G02*
X6700000Y-3500000I3200000J0D01*
G01*
%TO.C,H4*%
X6700000Y-91500000D02*
G75*
G02*
X300000Y-91500000I-3200000J0D01*
G01*
X300000Y-91500000D02*
G75*
G02*
X6700000Y-91500000I3200000J0D01*
G01*
%TO.C,H2*%
X149700000Y-3500000D02*
G75*
G02*
X143300000Y-3500000I-3200000J0D01*
G01*
X143300000Y-3500000D02*
G75*
G02*
X149700000Y-3500000I3200000J0D01*
G01*
%TO.C,H3*%
X149700000Y-91500000D02*
G75*
G02*
X143300000Y-91500000I-3200000J0D01*
G01*
X143300000Y-91500000D02*
G75*
G02*
X149700000Y-91500000I3200000J0D01*
G01*
%TD*%
M02*
