%TF.GenerationSoftware,KiCad,Pcbnew,10.0.3*%
%TF.CreationDate,2026-07-02T03:24:24-05:00*%
%TF.ProjectId,crossfade-feedback-wet,63726f73-7366-4616-9465-2d6665656462,rev?*%
%TF.SameCoordinates,Original*%
%TF.FileFunction,Paste,Top*%
%TF.FilePolarity,Positive*%
%FSLAX46Y46*%
G04 Gerber Fmt 4.6, Leading zero omitted, Abs format (unit mm)*
G04 Created by KiCad (PCBNEW 10.0.3) date 2026-07-02 03:24:24*
%MOMM*%
%LPD*%
G01*
G04 APERTURE LIST*
G04 Aperture macros list*
%AMRoundRect*
0 Rectangle with rounded corners*
0 $1 Rounding radius*
0 $2 $3 $4 $5 $6 $7 $8 $9 X,Y pos of 4 corners*
0 Add a 4 corners polygon primitive as box body*
4,1,4,$2,$3,$4,$5,$6,$7,$8,$9,$2,$3,0*
0 Add four circle primitives for the rounded corners*
1,1,$1+$1,$2,$3*
1,1,$1+$1,$4,$5*
1,1,$1+$1,$6,$7*
1,1,$1+$1,$8,$9*
0 Add four rect primitives between the rounded corners*
20,1,$1+$1,$2,$3,$4,$5,0*
20,1,$1+$1,$4,$5,$6,$7,0*
20,1,$1+$1,$6,$7,$8,$9,0*
20,1,$1+$1,$8,$9,$2,$3,0*%
G04 Aperture macros list end*
%ADD10RoundRect,0.250000X-0.262500X-0.450000X0.262500X-0.450000X0.262500X0.450000X-0.262500X0.450000X0*%
%ADD11RoundRect,0.225000X-0.225000X-0.375000X0.225000X-0.375000X0.225000X0.375000X-0.225000X0.375000X0*%
%ADD12RoundRect,0.250000X-0.250000X-0.475000X0.250000X-0.475000X0.250000X0.475000X-0.250000X0.475000X0*%
%ADD13RoundRect,0.250000X-0.325000X-1.100000X0.325000X-1.100000X0.325000X1.100000X-0.325000X1.100000X0*%
%ADD14RoundRect,0.250000X-0.312500X-0.625000X0.312500X-0.625000X0.312500X0.625000X-0.312500X0.625000X0*%
%ADD15RoundRect,0.150000X-0.825000X-0.150000X0.825000X-0.150000X0.825000X0.150000X-0.825000X0.150000X0*%
G04 APERTURE END LIST*
D10*
%TO.C,R326*%
X101087500Y-64000000D03*
X102912500Y-64000000D03*
%TD*%
%TO.C,R302*%
X51087500Y-64000000D03*
X52912500Y-64000000D03*
%TD*%
%TO.C,R310*%
X59087500Y-64000000D03*
X60912500Y-64000000D03*
%TD*%
D11*
%TO.C,D301*%
X70350000Y-86000000D03*
X73650000Y-86000000D03*
%TD*%
D10*
%TO.C,R342*%
X113087500Y-52000000D03*
X114912500Y-52000000D03*
%TD*%
%TO.C,R341*%
X105087500Y-52000000D03*
X106912500Y-52000000D03*
%TD*%
%TO.C,R323*%
X93087500Y-40000000D03*
X94912500Y-40000000D03*
%TD*%
D12*
%TO.C,C392*%
X51050000Y-80000000D03*
X52950000Y-80000000D03*
%TD*%
D10*
%TO.C,R331*%
X111087500Y-82000000D03*
X112912500Y-82000000D03*
%TD*%
%TO.C,R325*%
X101087500Y-40000000D03*
X102912500Y-40000000D03*
%TD*%
D13*
%TO.C,C393*%
X58525000Y-74000000D03*
X61475000Y-74000000D03*
%TD*%
D10*
%TO.C,R311*%
X67087500Y-40000000D03*
X68912500Y-40000000D03*
%TD*%
%TO.C,R321*%
X85087500Y-40000000D03*
X86912500Y-40000000D03*
%TD*%
D14*
%TO.C,R351*%
X70537500Y-80000000D03*
X73462500Y-80000000D03*
%TD*%
D10*
%TO.C,R301*%
X51087500Y-40000000D03*
X52912500Y-40000000D03*
%TD*%
%TO.C,R322*%
X85087500Y-64000000D03*
X86912500Y-64000000D03*
%TD*%
D13*
%TO.C,C394*%
X58525000Y-80000000D03*
X61475000Y-80000000D03*
%TD*%
D12*
%TO.C,C321*%
X109050000Y-40000000D03*
X110950000Y-40000000D03*
%TD*%
D10*
%TO.C,R309*%
X59087500Y-40000000D03*
X60912500Y-40000000D03*
%TD*%
%TO.C,R324*%
X93087500Y-64000000D03*
X94912500Y-64000000D03*
%TD*%
D12*
%TO.C,C322*%
X109050000Y-64000000D03*
X110950000Y-64000000D03*
%TD*%
D15*
%TO.C,U301*%
X67525000Y-48190000D03*
X67525000Y-49460000D03*
X67525000Y-50730000D03*
X67525000Y-52000000D03*
X67525000Y-53270000D03*
X67525000Y-54540000D03*
X67525000Y-55810000D03*
X72475000Y-55810000D03*
X72475000Y-54540000D03*
X72475000Y-53270000D03*
X72475000Y-52000000D03*
X72475000Y-50730000D03*
X72475000Y-49460000D03*
X72475000Y-48190000D03*
%TD*%
D12*
%TO.C,C391*%
X51050000Y-74000000D03*
X52950000Y-74000000D03*
%TD*%
D10*
%TO.C,R332*%
X111087500Y-88000000D03*
X112912500Y-88000000D03*
%TD*%
%TO.C,R312*%
X67087500Y-64000000D03*
X68912500Y-64000000D03*
%TD*%
M02*
