%TF.GenerationSoftware,KiCad,Pcbnew,10.0.3*%
%TF.CreationDate,2026-07-02T03:24:24-05:00*%
%TF.ProjectId,crossfade-feedback-wet,63726f73-7366-4616-9465-2d6665656462,rev?*%
%TF.SameCoordinates,Original*%
%TF.FileFunction,Copper,L2,Bot*%
%TF.FilePolarity,Positive*%
%FSLAX46Y46*%
G04 Gerber Fmt 4.6, Leading zero omitted, Abs format (unit mm)*
G04 Created by KiCad (PCBNEW 10.0.3) date 2026-07-02 03:24:24*
%MOMM*%
%LPD*%
G01*
G04 APERTURE LIST*
G04 Aperture macros list*
%AMRoundRect*
0 Rectangle with rounded corners*
0 $1 Rounding radius*
0 $2 $3 $4 $5 $6 $7 $8 $9 X,Y pos of 4 corners*
0 Add a 4 corners polygon primitive as box body*
4,1,4,$2,$3,$4,$5,$6,$7,$8,$9,$2,$3,0*
0 Add four circle primitives for the rounded corners*
1,1,$1+$1,$2,$3*
1,1,$1+$1,$4,$5*
1,1,$1+$1,$6,$7*
1,1,$1+$1,$8,$9*
0 Add four rect primitives between the rounded corners*
20,1,$1+$1,$2,$3,$4,$5,0*
20,1,$1+$1,$4,$5,$6,$7,0*
20,1,$1+$1,$6,$7,$8,$9,0*
20,1,$1+$1,$8,$9,$2,$3,0*%
G04 Aperture macros list end*
%TA.AperFunction,ComponentPad*%
%ADD10RoundRect,0.250000X0.725000X-0.600000X0.725000X0.600000X-0.725000X0.600000X-0.725000X-0.600000X0*%
%TD*%
%TA.AperFunction,ComponentPad*%
%ADD11O,1.950000X1.700000*%
%TD*%
%TA.AperFunction,ComponentPad*%
%ADD12RoundRect,0.250000X-0.725000X0.600000X-0.725000X-0.600000X0.725000X-0.600000X0.725000X0.600000X0*%
%TD*%
%TA.AperFunction,ComponentPad*%
%ADD13R,1.400000X1.400000*%
%TD*%
%TA.AperFunction,ComponentPad*%
%ADD14C,1.400000*%
%TD*%
%TA.AperFunction,ComponentPad*%
%ADD15RoundRect,0.250001X1.099999X-1.099999X1.099999X1.099999X-1.099999X1.099999X-1.099999X-1.099999X0*%
%TD*%
%TA.AperFunction,ComponentPad*%
%ADD16C,2.700000*%
%TD*%
%TA.AperFunction,ComponentPad*%
%ADD17RoundRect,0.250000X-0.600000X-0.725000X0.600000X-0.725000X0.600000X0.725000X-0.600000X0.725000X0*%
%TD*%
%TA.AperFunction,ComponentPad*%
%ADD18O,1.700000X1.950000*%
%TD*%
%TA.AperFunction,ViaPad*%
%ADD19C,0.600000*%
%TD*%
%TA.AperFunction,ViaPad*%
%ADD20C,0.800000*%
%TD*%
%TA.AperFunction,Conductor*%
%ADD21C,0.800000*%
%TD*%
%TA.AperFunction,Conductor*%
%ADD22C,0.200000*%
%TD*%
G04 APERTURE END LIST*
D10*
%TO.P,P301,1*%
%TO.N,TANK_MIX_L*%
X38000000Y-50000000D03*
D11*
%TO.P,P301,2*%
%TO.N,AGND*%
X38000000Y-47500000D03*
%TO.P,P301,3*%
%TO.N,TANK_MIX_R*%
X38000000Y-45000000D03*
%TD*%
D10*
%TO.P,P303,1*%
%TO.N,FILTCLIP_OUT_L*%
X38000000Y-66000000D03*
D11*
%TO.P,P303,2*%
%TO.N,AGND*%
X38000000Y-63500000D03*
%TO.P,P303,3*%
%TO.N,FILTCLIP_OUT_R*%
X38000000Y-61000000D03*
%TD*%
D12*
%TO.P,P304,1*%
%TO.N,WET_SUM_L*%
X122000000Y-64000000D03*
D11*
%TO.P,P304,2*%
%TO.N,AGND*%
X122000000Y-66500000D03*
%TO.P,P304,3*%
%TO.N,WET_SUM_R*%
X122000000Y-69000000D03*
%TD*%
D13*
%TO.P,K301,1*%
%TO.N,N_K301_C*%
X90000000Y-80000000D03*
D14*
%TO.P,K301,4*%
%TO.N,FB_SEL_L*%
X90000000Y-87620000D03*
%TO.P,K301,6*%
%TO.N,FILTCLIP_OUT_L*%
X90000000Y-92700000D03*
%TO.P,K301,8*%
%TO.N,FB_INV_L*%
X90000000Y-97780000D03*
%TO.P,K301,9*%
%TO.N,FB_INV_R*%
X97620000Y-97780000D03*
%TO.P,K301,11*%
%TO.N,FILTCLIP_OUT_R*%
X97620000Y-92700000D03*
%TO.P,K301,13*%
%TO.N,FB_SEL_R*%
X97620000Y-87620000D03*
%TO.P,K301,16*%
%TO.N,CTL_FB_INV*%
X97620000Y-80000000D03*
%TD*%
D15*
%TO.P,P306,1*%
%TO.N,+15VA*%
X38000000Y-82000000D03*
D16*
%TO.P,P306,2*%
%TO.N,AGND*%
X38000000Y-78040000D03*
%TO.P,P306,3*%
%TO.N,-15VA*%
X38000000Y-74080000D03*
%TD*%
D17*
%TO.P,P307,1*%
%TO.N,TANK_MIX_L*%
X62000000Y-94000000D03*
D18*
%TO.P,P307,2*%
%TO.N,XFD_L_WIPER*%
X64500000Y-94000000D03*
%TO.P,P307,3*%
%TO.N,TANK_MIX_R*%
X67000000Y-94000000D03*
%TO.P,P307,4*%
X69500000Y-94000000D03*
%TO.P,P307,5*%
%TO.N,XFD_R_WIPER*%
X72000000Y-94000000D03*
%TO.P,P307,6*%
%TO.N,TANK_MIX_L*%
X74500000Y-94000000D03*
%TO.P,P307,7*%
%TO.N,FB_L_WIPER*%
X77000000Y-94000000D03*
%TO.P,P307,8*%
%TO.N,FB_R_WIPER*%
X79500000Y-94000000D03*
%TO.P,P307,9*%
%TO.N,CTL_FB_INV*%
X82000000Y-94000000D03*
%TO.P,P307,10*%
%TO.N,AGND*%
X84500000Y-94000000D03*
%TD*%
D12*
%TO.P,P302,1*%
%TO.N,XFADE_OUT_L*%
X122000000Y-48000000D03*
D11*
%TO.P,P302,2*%
%TO.N,AGND*%
X122000000Y-50500000D03*
%TO.P,P302,3*%
%TO.N,XFADE_OUT_R*%
X122000000Y-53000000D03*
%TD*%
D12*
%TO.P,P305,1*%
%TO.N,FB_RET_L*%
X122000000Y-80000000D03*
D11*
%TO.P,P305,2*%
%TO.N,AGND*%
X122000000Y-82500000D03*
%TO.P,P305,3*%
%TO.N,FB_RET_R*%
X122000000Y-85000000D03*
%TD*%
D19*
%TO.N,-15VA*%
X70561200Y-52108500D03*
D20*
%TO.N,AGND*%
X79516332Y-70517321D03*
X83524514Y-72421558D03*
X38941650Y-48504030D03*
X54036605Y-80471879D03*
D19*
%TO.N,FB_INV_L*%
X93262700Y-49332500D03*
%TO.N,FB_INV_R*%
X96208200Y-48912500D03*
X99128700Y-63493500D03*
%TO.N,FB_L_WIPER*%
X86481700Y-41207700D03*
%TO.N,FB_R_WIPER*%
X88201500Y-63429200D03*
%TO.N,FILTCLIP_OUT_L*%
X83760900Y-40137500D03*
X90671000Y-55118000D03*
%TO.N,FILTCLIP_OUT_R*%
X99156900Y-54762500D03*
X52931600Y-65545200D03*
%TO.N,N_FB_R_M*%
X75503300Y-66785100D03*
X70335700Y-49592000D03*
%TO.N,XFD_L_WIPER*%
X47881600Y-55926000D03*
%TO.N,XFD_R_WIPER*%
X67656200Y-75237500D03*
%TD*%
%TO.N,-15VA*%
D21*
X36419300Y-44390000D02*
X36419300Y-72499300D01*
X61995900Y-43543200D02*
X37266100Y-43543200D01*
X37266100Y-43543200D02*
X36419300Y-44390000D01*
X70561200Y-52108500D02*
X61995900Y-43543200D01*
X36419300Y-72499300D02*
X38000000Y-74080000D01*
%TO.N,FB_INV_L*%
D22*
X93262700Y-49332500D02*
X93262700Y-94517300D01*
X93262700Y-94517300D02*
X90000000Y-97780000D01*
%TO.N,FB_INV_R*%
X99128700Y-96271300D02*
X99128700Y-63493500D01*
X99790400Y-52494700D02*
X96208200Y-48912500D01*
X99128700Y-63493500D02*
X99790400Y-62831800D01*
X99790400Y-62831800D02*
X99790400Y-52494700D01*
X97620000Y-97780000D02*
X99128700Y-96271300D01*
%TO.N,FB_L_WIPER*%
X77000000Y-50689400D02*
X77000000Y-94000000D01*
X86481700Y-41207700D02*
X77000000Y-50689400D01*
%TO.N,FB_R_WIPER*%
X80651700Y-94000000D02*
X80651700Y-71538700D01*
X80651700Y-71538700D02*
X88201500Y-63988900D01*
X88201500Y-63988900D02*
X88201500Y-63429200D01*
X79500000Y-94000000D02*
X80651700Y-94000000D01*
%TO.N,FILTCLIP_OUT_L*%
X83760900Y-40137500D02*
X86268900Y-40137500D01*
X91043700Y-91656300D02*
X91043700Y-55490700D01*
X90000000Y-92700000D02*
X91043700Y-91656300D01*
X91043700Y-55490700D02*
X90671000Y-55118000D01*
X86268900Y-40137500D02*
X90671000Y-44539600D01*
X90671000Y-44539600D02*
X90671000Y-55118000D01*
%TO.N,FILTCLIP_OUT_R*%
X49538100Y-62151700D02*
X38000000Y-62151700D01*
X52931600Y-65545200D02*
X49538100Y-62151700D01*
X98486200Y-55433200D02*
X99156900Y-54762500D01*
X97620000Y-92700000D02*
X98623600Y-91696400D01*
X98623600Y-63992100D02*
X98486200Y-63854700D01*
X38000000Y-61000000D02*
X38000000Y-62151700D01*
X98623600Y-91696400D02*
X98623600Y-63992100D01*
X98486200Y-63854700D02*
X98486200Y-55433200D01*
%TO.N,N_FB_R_M*%
X75503300Y-54759600D02*
X75503300Y-66785100D01*
X70335700Y-49592000D02*
X75503300Y-54759600D01*
%TO.N,TANK_MIX_L*%
X62000000Y-94000000D02*
X62000000Y-73762700D01*
X38237300Y-50000000D02*
X38000000Y-50000000D01*
X62000000Y-73762700D02*
X38237300Y-50000000D01*
%TO.N,TANK_MIX_R*%
X67000000Y-94000000D02*
X67000000Y-74193500D01*
X38000000Y-45000000D02*
X38000000Y-46151700D01*
X67000000Y-74193500D02*
X38958200Y-46151700D01*
X38958200Y-46151700D02*
X38000000Y-46151700D01*
%TO.N,XFD_L_WIPER*%
X63348300Y-71392700D02*
X63348300Y-94000000D01*
X64500000Y-94000000D02*
X63348300Y-94000000D01*
X47881600Y-55926000D02*
X63348300Y-71392700D01*
%TO.N,XFD_R_WIPER*%
X67656200Y-75237500D02*
X70848300Y-78429600D01*
X72000000Y-94000000D02*
X70848300Y-94000000D01*
X70848300Y-78429600D02*
X70848300Y-94000000D01*
%TD*%
%TA.AperFunction,Conductor*%
%TO.N,AGND*%
G36*
X37360022Y-46149369D02*
G01*
X37361447Y-46149165D01*
X37391259Y-46157344D01*
X37394960Y-46158876D01*
X37394975Y-46158884D01*
X37400281Y-46160608D01*
X37428204Y-46169681D01*
X37485880Y-46209117D01*
X37509662Y-46255518D01*
X37533608Y-46344886D01*
X37599500Y-46459014D01*
X37692686Y-46552200D01*
X37806814Y-46618092D01*
X37934108Y-46652200D01*
X38699524Y-46652200D01*
X38766563Y-46671885D01*
X38787205Y-46688519D01*
X47370133Y-55271447D01*
X47403618Y-55332770D01*
X47398634Y-55402462D01*
X47370134Y-55446808D01*
X47337489Y-55479453D01*
X47337485Y-55479458D01*
X47260828Y-55594182D01*
X47260821Y-55594195D01*
X47208021Y-55721667D01*
X47208018Y-55721677D01*
X47181100Y-55857004D01*
X47181100Y-55857007D01*
X47181100Y-55994993D01*
X47181100Y-55994995D01*
X47181099Y-55994995D01*
X47208018Y-56130322D01*
X47208021Y-56130332D01*
X47260821Y-56257804D01*
X47260828Y-56257817D01*
X47337485Y-56372541D01*
X47337488Y-56372545D01*
X47435054Y-56470111D01*
X47435058Y-56470114D01*
X47549782Y-56546771D01*
X47549795Y-56546778D01*
X47677267Y-56599578D01*
X47677272Y-56599580D01*
X47677276Y-56599580D01*
X47677277Y-56599581D01*
X47812604Y-56626500D01*
X47812607Y-56626500D01*
X47822924Y-56626500D01*
X47889963Y-56646185D01*
X47910605Y-56662819D01*
X62811481Y-71563695D01*
X62844966Y-71625018D01*
X62847800Y-71651376D01*
X62847800Y-92505228D01*
X62844418Y-92516743D01*
X62845560Y-92528692D01*
X62834756Y-92549649D01*
X62828115Y-92572267D01*
X62819045Y-92580125D01*
X62813545Y-92590796D01*
X62793124Y-92602586D01*
X62775311Y-92618022D01*
X62761919Y-92620603D01*
X62753037Y-92625732D01*
X62732211Y-92626329D01*
X62717903Y-92629088D01*
X62706504Y-92628545D01*
X62702569Y-92627402D01*
X62665694Y-92624500D01*
X62621543Y-92624500D01*
X62618603Y-92624360D01*
X62588255Y-92613857D01*
X62557461Y-92604815D01*
X62555462Y-92602508D01*
X62552575Y-92601509D01*
X62532717Y-92576259D01*
X62511706Y-92552011D01*
X62510963Y-92548598D01*
X62509383Y-92546589D01*
X62508488Y-92537219D01*
X62500500Y-92500500D01*
X62500500Y-73696810D01*
X62500500Y-73696808D01*
X62466392Y-73569514D01*
X62400500Y-73455386D01*
X62307314Y-73362200D01*
X39411819Y-50466705D01*
X39378334Y-50405382D01*
X39375500Y-50379024D01*
X39375500Y-49334313D01*
X39375499Y-49334298D01*
X39372598Y-49297432D01*
X39372597Y-49297426D01*
X39326745Y-49139606D01*
X39326744Y-49139603D01*
X39326744Y-49139602D01*
X39243081Y-48998135D01*
X39243079Y-48998133D01*
X39243076Y-48998129D01*
X39126870Y-48881923D01*
X39126862Y-48881917D01*
X38985396Y-48798255D01*
X38985393Y-48798254D01*
X38827573Y-48752402D01*
X38827567Y-48752401D01*
X38790701Y-48749500D01*
X38790694Y-48749500D01*
X37343800Y-48749500D01*
X37276761Y-48729815D01*
X37231006Y-48677011D01*
X37219800Y-48625500D01*
X37219800Y-46271903D01*
X37229045Y-46240417D01*
X37237162Y-46208624D01*
X37238839Y-46207062D01*
X37239485Y-46204864D01*
X37264271Y-46183386D01*
X37288301Y-46161016D01*
X37290558Y-46160608D01*
X37292289Y-46159109D01*
X37324757Y-46154440D01*
X37357061Y-46148614D01*
X37360022Y-46149369D01*
G37*
%TD.AperFunction*%
%TA.AperFunction,Conductor*%
G36*
X128943039Y-31019685D02*
G01*
X128988794Y-31072489D01*
X129000000Y-31124000D01*
X129000000Y-98876000D01*
X128980315Y-98943039D01*
X128927511Y-98988794D01*
X128876000Y-99000000D01*
X98166172Y-99000000D01*
X98099133Y-98980315D01*
X98053378Y-98927511D01*
X98043434Y-98858353D01*
X98072459Y-98794797D01*
X98109877Y-98765515D01*
X98111597Y-98764638D01*
X98196788Y-98721232D01*
X98336928Y-98619414D01*
X98459414Y-98496928D01*
X98561232Y-98356788D01*
X98639873Y-98202445D01*
X98693402Y-98037701D01*
X98720500Y-97866611D01*
X98720500Y-97693389D01*
X98693402Y-97522299D01*
X98690424Y-97513137D01*
X98688430Y-97443296D01*
X98720675Y-97387138D01*
X99044744Y-97063069D01*
X99529200Y-96578614D01*
X99595092Y-96464486D01*
X99629200Y-96337192D01*
X99629200Y-96205408D01*
X99629200Y-93878711D01*
X122149500Y-93878711D01*
X122149500Y-94121288D01*
X122181161Y-94361785D01*
X122243947Y-94596104D01*
X122336773Y-94820205D01*
X122336777Y-94820214D01*
X122341026Y-94827573D01*
X122458064Y-95030289D01*
X122458066Y-95030292D01*
X122458067Y-95030293D01*
X122605733Y-95222736D01*
X122605739Y-95222743D01*
X122777256Y-95394260D01*
X122777262Y-95394265D01*
X122969711Y-95541936D01*
X123179788Y-95663224D01*
X123403900Y-95756054D01*
X123638211Y-95818838D01*
X123818586Y-95842584D01*
X123878711Y-95850500D01*
X123878712Y-95850500D01*
X124121289Y-95850500D01*
X124169388Y-95844167D01*
X124361789Y-95818838D01*
X124596100Y-95756054D01*
X124820212Y-95663224D01*
X125030289Y-95541936D01*
X125222738Y-95394265D01*
X125394265Y-95222738D01*
X125541936Y-95030289D01*
X125663224Y-94820212D01*
X125756054Y-94596100D01*
X125818838Y-94361789D01*
X125850500Y-94121288D01*
X125850500Y-93878712D01*
X125818838Y-93638211D01*
X125756054Y-93403900D01*
X125663224Y-93179788D01*
X125541936Y-92969711D01*
X125423031Y-92814751D01*
X125394266Y-92777263D01*
X125394260Y-92777256D01*
X125222743Y-92605739D01*
X125222736Y-92605733D01*
X125030293Y-92458067D01*
X125030292Y-92458066D01*
X125030289Y-92458064D01*
X124820212Y-92336776D01*
X124820205Y-92336773D01*
X124596104Y-92243947D01*
X124361785Y-92181161D01*
X124121289Y-92149500D01*
X124121288Y-92149500D01*
X123878712Y-92149500D01*
X123878711Y-92149500D01*
X123638214Y-92181161D01*
X123403895Y-92243947D01*
X123179794Y-92336773D01*
X123179785Y-92336777D01*
X122969706Y-92458067D01*
X122777263Y-92605733D01*
X122777256Y-92605739D01*
X122605739Y-92777256D01*
X122605733Y-92777263D01*
X122458067Y-92969706D01*
X122336777Y-93179785D01*
X122336773Y-93179794D01*
X122243947Y-93403895D01*
X122181161Y-93638214D01*
X122149500Y-93878711D01*
X99629200Y-93878711D01*
X99629200Y-84901577D01*
X120624500Y-84901577D01*
X120624500Y-85098422D01*
X120655290Y-85292826D01*
X120716117Y-85480029D01*
X120805476Y-85655405D01*
X120921172Y-85814646D01*
X121060354Y-85953828D01*
X121219595Y-86069524D01*
X121302455Y-86111743D01*
X121394970Y-86158882D01*
X121394972Y-86158882D01*
X121394975Y-86158884D01*
X121495317Y-86191487D01*
X121582173Y-86219709D01*
X121776578Y-86250500D01*
X121776583Y-86250500D01*
X122223422Y-86250500D01*
X122417826Y-86219709D01*
X122605025Y-86158884D01*
X122780405Y-86069524D01*
X122939646Y-85953828D01*
X123078828Y-85814646D01*
X123194524Y-85655405D01*
X123283884Y-85480025D01*
X123344709Y-85292826D01*
X123375500Y-85098422D01*
X123375500Y-84901577D01*
X123344709Y-84707173D01*
X123283882Y-84519970D01*
X123194523Y-84344594D01*
X123078828Y-84185354D01*
X122939646Y-84046172D01*
X122780405Y-83930476D01*
X122605029Y-83841117D01*
X122417826Y-83780290D01*
X122223422Y-83749500D01*
X122223417Y-83749500D01*
X121776583Y-83749500D01*
X121776578Y-83749500D01*
X121582173Y-83780290D01*
X121394970Y-83841117D01*
X121219594Y-83930476D01*
X121128741Y-83996485D01*
X121060354Y-84046172D01*
X121060352Y-84046174D01*
X121060351Y-84046174D01*
X120921174Y-84185351D01*
X120921174Y-84185352D01*
X120921172Y-84185354D01*
X120871485Y-84253741D01*
X120805476Y-84344594D01*
X120716117Y-84519970D01*
X120655290Y-84707173D01*
X120624500Y-84901577D01*
X99629200Y-84901577D01*
X99629200Y-79334298D01*
X120624500Y-79334298D01*
X120624500Y-80665701D01*
X120627401Y-80702567D01*
X120627402Y-80702573D01*
X120673254Y-80860393D01*
X120673255Y-80860396D01*
X120756917Y-81001862D01*
X120756923Y-81001870D01*
X120873129Y-81118076D01*
X120873133Y-81118079D01*
X120873135Y-81118081D01*
X121014602Y-81201744D01*
X121056224Y-81213836D01*
X121172426Y-81247597D01*
X121172429Y-81247597D01*
X121172431Y-81247598D01*
X121209306Y-81250500D01*
X121209314Y-81250500D01*
X122790686Y-81250500D01*
X122790694Y-81250500D01*
X122827569Y-81247598D01*
X122827571Y-81247597D01*
X122827573Y-81247597D01*
X122869191Y-81235505D01*
X122985398Y-81201744D01*
X123126865Y-81118081D01*
X123243081Y-81001865D01*
X123326744Y-80860398D01*
X123360505Y-80744191D01*
X123372597Y-80702573D01*
X123372598Y-80702567D01*
X123375499Y-80665701D01*
X123375500Y-80665694D01*
X123375500Y-79334306D01*
X123372598Y-79297431D01*
X123368426Y-79283072D01*
X123326745Y-79139606D01*
X123326744Y-79139603D01*
X123326744Y-79139602D01*
X123243081Y-78998135D01*
X123243079Y-78998133D01*
X123243076Y-78998129D01*
X123126870Y-78881923D01*
X123126862Y-78881917D01*
X122985396Y-78798255D01*
X122985393Y-78798254D01*
X122827573Y-78752402D01*
X122827567Y-78752401D01*
X122790701Y-78749500D01*
X122790694Y-78749500D01*
X121209306Y-78749500D01*
X121209298Y-78749500D01*
X121172432Y-78752401D01*
X121172426Y-78752402D01*
X121014606Y-78798254D01*
X121014603Y-78798255D01*
X120873137Y-78881917D01*
X120873129Y-78881923D01*
X120756923Y-78998129D01*
X120756917Y-78998137D01*
X120673255Y-79139603D01*
X120673254Y-79139606D01*
X120627402Y-79297426D01*
X120627401Y-79297432D01*
X120624500Y-79334298D01*
X99629200Y-79334298D01*
X99629200Y-68901577D01*
X120624500Y-68901577D01*
X120624500Y-69098422D01*
X120655290Y-69292826D01*
X120716117Y-69480029D01*
X120805476Y-69655405D01*
X120921172Y-69814646D01*
X121060354Y-69953828D01*
X121219595Y-70069524D01*
X121302455Y-70111743D01*
X121394970Y-70158882D01*
X121394972Y-70158882D01*
X121394975Y-70158884D01*
X121495317Y-70191487D01*
X121582173Y-70219709D01*
X121776578Y-70250500D01*
X121776583Y-70250500D01*
X122223422Y-70250500D01*
X122417826Y-70219709D01*
X122605025Y-70158884D01*
X122780405Y-70069524D01*
X122939646Y-69953828D01*
X123078828Y-69814646D01*
X123194524Y-69655405D01*
X123283884Y-69480025D01*
X123344709Y-69292826D01*
X123375500Y-69098422D01*
X123375500Y-68901577D01*
X123344709Y-68707173D01*
X123283882Y-68519970D01*
X123194523Y-68344594D01*
X123078828Y-68185354D01*
X122939646Y-68046172D01*
X122780405Y-67930476D01*
X122605029Y-67841117D01*
X122417826Y-67780290D01*
X122223422Y-67749500D01*
X122223417Y-67749500D01*
X121776583Y-67749500D01*
X121776578Y-67749500D01*
X121582173Y-67780290D01*
X121394970Y-67841117D01*
X121219594Y-67930476D01*
X121128741Y-67996485D01*
X121060354Y-68046172D01*
X121060352Y-68046174D01*
X121060351Y-68046174D01*
X120921174Y-68185351D01*
X120921174Y-68185352D01*
X120921172Y-68185354D01*
X120871485Y-68253741D01*
X120805476Y-68344594D01*
X120716117Y-68519970D01*
X120655290Y-68707173D01*
X120624500Y-68901577D01*
X99629200Y-68901577D01*
X99629200Y-64035018D01*
X99648885Y-63967979D01*
X99665523Y-63947333D01*
X99672814Y-63940042D01*
X99749475Y-63825311D01*
X99802280Y-63697828D01*
X99829200Y-63562493D01*
X99829200Y-63552176D01*
X99848885Y-63485137D01*
X99865519Y-63464495D01*
X99995716Y-63334298D01*
X120624500Y-63334298D01*
X120624500Y-64665701D01*
X120627401Y-64702567D01*
X120627402Y-64702573D01*
X120673254Y-64860393D01*
X120673255Y-64860396D01*
X120673256Y-64860398D01*
X120685986Y-64881923D01*
X120756917Y-65001862D01*
X120756923Y-65001870D01*
X120873129Y-65118076D01*
X120873133Y-65118079D01*
X120873135Y-65118081D01*
X121014602Y-65201744D01*
X121056224Y-65213836D01*
X121172426Y-65247597D01*
X121172429Y-65247597D01*
X121172431Y-65247598D01*
X121209306Y-65250500D01*
X121209314Y-65250500D01*
X122790686Y-65250500D01*
X122790694Y-65250500D01*
X122827569Y-65247598D01*
X122827571Y-65247597D01*
X122827573Y-65247597D01*
X122869191Y-65235505D01*
X122985398Y-65201744D01*
X123126865Y-65118081D01*
X123243081Y-65001865D01*
X123326744Y-64860398D01*
X123372598Y-64702569D01*
X123375500Y-64665694D01*
X123375500Y-63334306D01*
X123372598Y-63297431D01*
X123351517Y-63224872D01*
X123326745Y-63139606D01*
X123326744Y-63139603D01*
X123326744Y-63139602D01*
X123243081Y-62998135D01*
X123243079Y-62998133D01*
X123243076Y-62998129D01*
X123126870Y-62881923D01*
X123126862Y-62881917D01*
X122985396Y-62798255D01*
X122985393Y-62798254D01*
X122827573Y-62752402D01*
X122827567Y-62752401D01*
X122790701Y-62749500D01*
X122790694Y-62749500D01*
X121209306Y-62749500D01*
X121209298Y-62749500D01*
X121172432Y-62752401D01*
X121172426Y-62752402D01*
X121014606Y-62798254D01*
X121014603Y-62798255D01*
X120873137Y-62881917D01*
X120873129Y-62881923D01*
X120756923Y-62998129D01*
X120756917Y-62998137D01*
X120673255Y-63139603D01*
X120673254Y-63139606D01*
X120627402Y-63297426D01*
X120627401Y-63297432D01*
X120624500Y-63334298D01*
X99995716Y-63334298D01*
X100085824Y-63244190D01*
X100105147Y-63224867D01*
X100190900Y-63139114D01*
X100256792Y-63024986D01*
X100290900Y-62897693D01*
X100290900Y-62765908D01*
X100290900Y-52901577D01*
X120624500Y-52901577D01*
X120624500Y-53098422D01*
X120655290Y-53292826D01*
X120716117Y-53480029D01*
X120805476Y-53655405D01*
X120921172Y-53814646D01*
X121060354Y-53953828D01*
X121219595Y-54069524D01*
X121302455Y-54111743D01*
X121394970Y-54158882D01*
X121394972Y-54158882D01*
X121394975Y-54158884D01*
X121495317Y-54191487D01*
X121582173Y-54219709D01*
X121776578Y-54250500D01*
X121776583Y-54250500D01*
X122223422Y-54250500D01*
X122417826Y-54219709D01*
X122421901Y-54218385D01*
X122605025Y-54158884D01*
X122780405Y-54069524D01*
X122939646Y-53953828D01*
X123078828Y-53814646D01*
X123194524Y-53655405D01*
X123283884Y-53480025D01*
X123344709Y-53292826D01*
X123375500Y-53098422D01*
X123375500Y-52901577D01*
X123344709Y-52707173D01*
X123283882Y-52519970D01*
X123194523Y-52344594D01*
X123192636Y-52341997D01*
X123078828Y-52185354D01*
X122939646Y-52046172D01*
X122780405Y-51930476D01*
X122605029Y-51841117D01*
X122417826Y-51780290D01*
X122223422Y-51749500D01*
X122223417Y-51749500D01*
X121776583Y-51749500D01*
X121776578Y-51749500D01*
X121582173Y-51780290D01*
X121394970Y-51841117D01*
X121219594Y-51930476D01*
X121128741Y-51996485D01*
X121060354Y-52046172D01*
X121060352Y-52046174D01*
X121060351Y-52046174D01*
X120921174Y-52185351D01*
X120921174Y-52185352D01*
X120921172Y-52185354D01*
X120919725Y-52187346D01*
X120805476Y-52344594D01*
X120716117Y-52519970D01*
X120655290Y-52707173D01*
X120624500Y-52901577D01*
X100290900Y-52901577D01*
X100290900Y-52428808D01*
X100256792Y-52301514D01*
X100190900Y-52187386D01*
X100097714Y-52094200D01*
X96945019Y-48941505D01*
X96911534Y-48880182D01*
X96908700Y-48853824D01*
X96908700Y-48843504D01*
X96881781Y-48708177D01*
X96881780Y-48708176D01*
X96881780Y-48708172D01*
X96861379Y-48658920D01*
X96828978Y-48580695D01*
X96828971Y-48580682D01*
X96752314Y-48465958D01*
X96752311Y-48465954D01*
X96654745Y-48368388D01*
X96654741Y-48368385D01*
X96540017Y-48291728D01*
X96540004Y-48291721D01*
X96412532Y-48238921D01*
X96412522Y-48238918D01*
X96277195Y-48212000D01*
X96277193Y-48212000D01*
X96139207Y-48212000D01*
X96139205Y-48212000D01*
X96003877Y-48238918D01*
X96003867Y-48238921D01*
X95876395Y-48291721D01*
X95876382Y-48291728D01*
X95761658Y-48368385D01*
X95761654Y-48368388D01*
X95664088Y-48465954D01*
X95664085Y-48465958D01*
X95587428Y-48580682D01*
X95587421Y-48580695D01*
X95534621Y-48708167D01*
X95534618Y-48708177D01*
X95507700Y-48843504D01*
X95507700Y-48843507D01*
X95507700Y-48981493D01*
X95507700Y-48981495D01*
X95507699Y-48981495D01*
X95534618Y-49116822D01*
X95534621Y-49116832D01*
X95587421Y-49244304D01*
X95587428Y-49244317D01*
X95664085Y-49359041D01*
X95664088Y-49359045D01*
X95761654Y-49456611D01*
X95761658Y-49456614D01*
X95876382Y-49533271D01*
X95876395Y-49533278D01*
X96003867Y-49586078D01*
X96003872Y-49586080D01*
X96003876Y-49586080D01*
X96003877Y-49586081D01*
X96139204Y-49613000D01*
X96139207Y-49613000D01*
X96149524Y-49613000D01*
X96216563Y-49632685D01*
X96237205Y-49649319D01*
X99253581Y-52665695D01*
X99287066Y-52727018D01*
X99289900Y-52753376D01*
X99289900Y-53938000D01*
X99270215Y-54005039D01*
X99217411Y-54050794D01*
X99165900Y-54062000D01*
X99087905Y-54062000D01*
X98952577Y-54088918D01*
X98952567Y-54088921D01*
X98825095Y-54141721D01*
X98825082Y-54141728D01*
X98710358Y-54218385D01*
X98710354Y-54218388D01*
X98612788Y-54315954D01*
X98612785Y-54315958D01*
X98536128Y-54430682D01*
X98536121Y-54430695D01*
X98483321Y-54558167D01*
X98483318Y-54558177D01*
X98456400Y-54693504D01*
X98456400Y-54703824D01*
X98436715Y-54770863D01*
X98420081Y-54791505D01*
X98085702Y-55125883D01*
X98085700Y-55125886D01*
X98019808Y-55240012D01*
X97985700Y-55367308D01*
X97985700Y-63920591D01*
X98019808Y-64047887D01*
X98023795Y-64054792D01*
X98085700Y-64162014D01*
X98085702Y-64162016D01*
X98086781Y-64163095D01*
X98087399Y-64164228D01*
X98090647Y-64168460D01*
X98089987Y-64168966D01*
X98120266Y-64224418D01*
X98123100Y-64250776D01*
X98123100Y-78835662D01*
X98103415Y-78902701D01*
X98050611Y-78948456D01*
X97981453Y-78958400D01*
X97960782Y-78953593D01*
X97877698Y-78926597D01*
X97726821Y-78902701D01*
X97706611Y-78899500D01*
X97533389Y-78899500D01*
X97513179Y-78902701D01*
X97362302Y-78926597D01*
X97197552Y-78980128D01*
X97043211Y-79058768D01*
X96963256Y-79116859D01*
X96903072Y-79160586D01*
X96903070Y-79160588D01*
X96903069Y-79160588D01*
X96780588Y-79283069D01*
X96780588Y-79283070D01*
X96780586Y-79283072D01*
X96770154Y-79297431D01*
X96678768Y-79423211D01*
X96600128Y-79577552D01*
X96546597Y-79742302D01*
X96519500Y-79913389D01*
X96519500Y-80086610D01*
X96545758Y-80252402D01*
X96546598Y-80257701D01*
X96600127Y-80422445D01*
X96678768Y-80576788D01*
X96780586Y-80716928D01*
X96903072Y-80839414D01*
X97043212Y-80941232D01*
X97197555Y-81019873D01*
X97362299Y-81073402D01*
X97533389Y-81100500D01*
X97533390Y-81100500D01*
X97706610Y-81100500D01*
X97706611Y-81100500D01*
X97877701Y-81073402D01*
X97960785Y-81046405D01*
X98030622Y-81044410D01*
X98090455Y-81080490D01*
X98121284Y-81143191D01*
X98123100Y-81164337D01*
X98123100Y-86455662D01*
X98103415Y-86522701D01*
X98050611Y-86568456D01*
X97981453Y-86578400D01*
X97960782Y-86573593D01*
X97877698Y-86546597D01*
X97726821Y-86522701D01*
X97706611Y-86519500D01*
X97533389Y-86519500D01*
X97513179Y-86522701D01*
X97362302Y-86546597D01*
X97362299Y-86546598D01*
X97224325Y-86591429D01*
X97197552Y-86600128D01*
X97043211Y-86678768D01*
X96963256Y-86736859D01*
X96903072Y-86780586D01*
X96903070Y-86780588D01*
X96903069Y-86780588D01*
X96780588Y-86903069D01*
X96780588Y-86903070D01*
X96780586Y-86903072D01*
X96736859Y-86963256D01*
X96678768Y-87043211D01*
X96600128Y-87197552D01*
X96546597Y-87362302D01*
X96519500Y-87533389D01*
X96519500Y-87706611D01*
X96546598Y-87877701D01*
X96600127Y-88042445D01*
X96678768Y-88196788D01*
X96780586Y-88336928D01*
X96903072Y-88459414D01*
X97043212Y-88561232D01*
X97197555Y-88639873D01*
X97362299Y-88693402D01*
X97533389Y-88720500D01*
X97533390Y-88720500D01*
X97706610Y-88720500D01*
X97706611Y-88720500D01*
X97877701Y-88693402D01*
X97960785Y-88666405D01*
X98030622Y-88664410D01*
X98090455Y-88700490D01*
X98121284Y-88763191D01*
X98123100Y-88784337D01*
X98123100Y-91437722D01*
X98114455Y-91467159D01*
X98107932Y-91497150D01*
X98104176Y-91502166D01*
X98103415Y-91504761D01*
X98086781Y-91525404D01*
X98012859Y-91599325D01*
X97951535Y-91632809D01*
X97886863Y-91629575D01*
X97877701Y-91626598D01*
X97877697Y-91626597D01*
X97877696Y-91626597D01*
X97780553Y-91611211D01*
X97706611Y-91599500D01*
X97533389Y-91599500D01*
X97493728Y-91605781D01*
X97362302Y-91626597D01*
X97197552Y-91680128D01*
X97043211Y-91758768D01*
X96963256Y-91816859D01*
X96903072Y-91860586D01*
X96903070Y-91860588D01*
X96903069Y-91860588D01*
X96780588Y-91983069D01*
X96780588Y-91983070D01*
X96780586Y-91983072D01*
X96736859Y-92043256D01*
X96678768Y-92123211D01*
X96600128Y-92277552D01*
X96546597Y-92442302D01*
X96523078Y-92590796D01*
X96519500Y-92613389D01*
X96519500Y-92786611D01*
X96523957Y-92814751D01*
X96540812Y-92921174D01*
X96546598Y-92957701D01*
X96579952Y-93060354D01*
X96600128Y-93122447D01*
X96649626Y-93219594D01*
X96678768Y-93276788D01*
X96780586Y-93416928D01*
X96903072Y-93539414D01*
X97043212Y-93641232D01*
X97197555Y-93719873D01*
X97362299Y-93773402D01*
X97533389Y-93800500D01*
X97533390Y-93800500D01*
X97706610Y-93800500D01*
X97706611Y-93800500D01*
X97877701Y-93773402D01*
X98042445Y-93719873D01*
X98196788Y-93641232D01*
X98336928Y-93539414D01*
X98416519Y-93459823D01*
X98477842Y-93426338D01*
X98547534Y-93431322D01*
X98603467Y-93473194D01*
X98627884Y-93538658D01*
X98628200Y-93547504D01*
X98628200Y-96012623D01*
X98608515Y-96079662D01*
X98591881Y-96100304D01*
X98012860Y-96679324D01*
X97951537Y-96712809D01*
X97886866Y-96709576D01*
X97877701Y-96706598D01*
X97877699Y-96706597D01*
X97877697Y-96706597D01*
X97758239Y-96687677D01*
X97706611Y-96679500D01*
X97533389Y-96679500D01*
X97493728Y-96685781D01*
X97362302Y-96706597D01*
X97197552Y-96760128D01*
X97043211Y-96838768D01*
X96963256Y-96896859D01*
X96903072Y-96940586D01*
X96903070Y-96940588D01*
X96903069Y-96940588D01*
X96780588Y-97063069D01*
X96780588Y-97063070D01*
X96780586Y-97063072D01*
X96736859Y-97123256D01*
X96678768Y-97203211D01*
X96600128Y-97357552D01*
X96546597Y-97522302D01*
X96546597Y-97522303D01*
X96519500Y-97693389D01*
X96519500Y-97866611D01*
X96546598Y-98037701D01*
X96600127Y-98202445D01*
X96678768Y-98356788D01*
X96780586Y-98496928D01*
X96903072Y-98619414D01*
X97043212Y-98721232D01*
X97126684Y-98763763D01*
X97130123Y-98765515D01*
X97180919Y-98813489D01*
X97197714Y-98881310D01*
X97175177Y-98947445D01*
X97120462Y-98990897D01*
X97073828Y-99000000D01*
X90546172Y-99000000D01*
X90479133Y-98980315D01*
X90433378Y-98927511D01*
X90423434Y-98858353D01*
X90452459Y-98794797D01*
X90489877Y-98765515D01*
X90491597Y-98764638D01*
X90576788Y-98721232D01*
X90716928Y-98619414D01*
X90839414Y-98496928D01*
X90941232Y-98356788D01*
X91019873Y-98202445D01*
X91073402Y-98037701D01*
X91100500Y-97866611D01*
X91100500Y-97693389D01*
X91073402Y-97522299D01*
X91070426Y-97513143D01*
X91068427Y-97443304D01*
X91100672Y-97387140D01*
X93663200Y-94824614D01*
X93729092Y-94710486D01*
X93763200Y-94583192D01*
X93763200Y-94451407D01*
X93763200Y-49874018D01*
X93782885Y-49806979D01*
X93799523Y-49786333D01*
X93806814Y-49779042D01*
X93883475Y-49664311D01*
X93936280Y-49536828D01*
X93963200Y-49401493D01*
X93963200Y-49263507D01*
X93963200Y-49263504D01*
X93936281Y-49128177D01*
X93936280Y-49128176D01*
X93936280Y-49128172D01*
X93931579Y-49116822D01*
X93883478Y-49000695D01*
X93883471Y-49000682D01*
X93806814Y-48885958D01*
X93806811Y-48885954D01*
X93709245Y-48788388D01*
X93709241Y-48788385D01*
X93594517Y-48711728D01*
X93594504Y-48711721D01*
X93467032Y-48658921D01*
X93467022Y-48658918D01*
X93331695Y-48632000D01*
X93331693Y-48632000D01*
X93193707Y-48632000D01*
X93193705Y-48632000D01*
X93058377Y-48658918D01*
X93058367Y-48658921D01*
X92930895Y-48711721D01*
X92930882Y-48711728D01*
X92816158Y-48788385D01*
X92816154Y-48788388D01*
X92718588Y-48885954D01*
X92718585Y-48885958D01*
X92641928Y-49000682D01*
X92641921Y-49000695D01*
X92589121Y-49128167D01*
X92589118Y-49128177D01*
X92562200Y-49263504D01*
X92562200Y-49263507D01*
X92562200Y-49401493D01*
X92562200Y-49401495D01*
X92562199Y-49401495D01*
X92589118Y-49536822D01*
X92589121Y-49536832D01*
X92641921Y-49664304D01*
X92641928Y-49664317D01*
X92718585Y-49779041D01*
X92725877Y-49786333D01*
X92759365Y-49847655D01*
X92762200Y-49874018D01*
X92762200Y-94258623D01*
X92742515Y-94325662D01*
X92725881Y-94346304D01*
X90392860Y-96679324D01*
X90331537Y-96712809D01*
X90266866Y-96709576D01*
X90257701Y-96706598D01*
X90257699Y-96706597D01*
X90257697Y-96706597D01*
X90138239Y-96687677D01*
X90086611Y-96679500D01*
X89913389Y-96679500D01*
X89873728Y-96685781D01*
X89742302Y-96706597D01*
X89577552Y-96760128D01*
X89423211Y-96838768D01*
X89343256Y-96896859D01*
X89283072Y-96940586D01*
X89283070Y-96940588D01*
X89283069Y-96940588D01*
X89160588Y-97063069D01*
X89160588Y-97063070D01*
X89160586Y-97063072D01*
X89116859Y-97123256D01*
X89058768Y-97203211D01*
X88980128Y-97357552D01*
X88926597Y-97522302D01*
X88926597Y-97522303D01*
X88899500Y-97693389D01*
X88899500Y-97866611D01*
X88926598Y-98037701D01*
X88980127Y-98202445D01*
X89058768Y-98356788D01*
X89160586Y-98496928D01*
X89283072Y-98619414D01*
X89423212Y-98721232D01*
X89506684Y-98763763D01*
X89510123Y-98765515D01*
X89560919Y-98813489D01*
X89577714Y-98881310D01*
X89555177Y-98947445D01*
X89500462Y-98990897D01*
X89453828Y-99000000D01*
X31124000Y-99000000D01*
X31056961Y-98980315D01*
X31011206Y-98927511D01*
X31000000Y-98876000D01*
X31000000Y-93878711D01*
X34149500Y-93878711D01*
X34149500Y-94121288D01*
X34181161Y-94361785D01*
X34243947Y-94596104D01*
X34336773Y-94820205D01*
X34336777Y-94820214D01*
X34341026Y-94827573D01*
X34458064Y-95030289D01*
X34458066Y-95030292D01*
X34458067Y-95030293D01*
X34605733Y-95222736D01*
X34605739Y-95222743D01*
X34777256Y-95394260D01*
X34777262Y-95394265D01*
X34969711Y-95541936D01*
X35179788Y-95663224D01*
X35403900Y-95756054D01*
X35638211Y-95818838D01*
X35818586Y-95842584D01*
X35878711Y-95850500D01*
X35878712Y-95850500D01*
X36121289Y-95850500D01*
X36169388Y-95844167D01*
X36361789Y-95818838D01*
X36596100Y-95756054D01*
X36820212Y-95663224D01*
X37030289Y-95541936D01*
X37222738Y-95394265D01*
X37394265Y-95222738D01*
X37541936Y-95030289D01*
X37663224Y-94820212D01*
X37756054Y-94596100D01*
X37818838Y-94361789D01*
X37850500Y-94121288D01*
X37850500Y-93878712D01*
X37818838Y-93638211D01*
X37756054Y-93403900D01*
X37663224Y-93179788D01*
X37541936Y-92969711D01*
X37423031Y-92814751D01*
X37394266Y-92777263D01*
X37394260Y-92777256D01*
X37222743Y-92605739D01*
X37222736Y-92605733D01*
X37030293Y-92458067D01*
X37030292Y-92458066D01*
X37030289Y-92458064D01*
X36820212Y-92336776D01*
X36820205Y-92336773D01*
X36596104Y-92243947D01*
X36361785Y-92181161D01*
X36121289Y-92149500D01*
X36121288Y-92149500D01*
X35878712Y-92149500D01*
X35878711Y-92149500D01*
X35638214Y-92181161D01*
X35403895Y-92243947D01*
X35179794Y-92336773D01*
X35179785Y-92336777D01*
X34969706Y-92458067D01*
X34777263Y-92605733D01*
X34777256Y-92605739D01*
X34605739Y-92777256D01*
X34605733Y-92777263D01*
X34458067Y-92969706D01*
X34336777Y-93179785D01*
X34336773Y-93179794D01*
X34243947Y-93403895D01*
X34181161Y-93638214D01*
X34149500Y-93878711D01*
X31000000Y-93878711D01*
X31000000Y-80834298D01*
X36249500Y-80834298D01*
X36249500Y-83165701D01*
X36252401Y-83202567D01*
X36252402Y-83202573D01*
X36298253Y-83360392D01*
X36298255Y-83360395D01*
X36381917Y-83501861D01*
X36381923Y-83501869D01*
X36498130Y-83618076D01*
X36498134Y-83618079D01*
X36498136Y-83618081D01*
X36639603Y-83701744D01*
X36639604Y-83701744D01*
X36639607Y-83701746D01*
X36797426Y-83747597D01*
X36797429Y-83747597D01*
X36797431Y-83747598D01*
X36834306Y-83750500D01*
X36834314Y-83750500D01*
X39165686Y-83750500D01*
X39165694Y-83750500D01*
X39202569Y-83747598D01*
X39202571Y-83747597D01*
X39202573Y-83747597D01*
X39360392Y-83701746D01*
X39360393Y-83701745D01*
X39360397Y-83701744D01*
X39501864Y-83618081D01*
X39618081Y-83501864D01*
X39701744Y-83360397D01*
X39701745Y-83360393D01*
X39701746Y-83360392D01*
X39747597Y-83202573D01*
X39747598Y-83202567D01*
X39750499Y-83165701D01*
X39750500Y-83165694D01*
X39750500Y-80834306D01*
X39747598Y-80797431D01*
X39747597Y-80797426D01*
X39701746Y-80639607D01*
X39701744Y-80639604D01*
X39701744Y-80639603D01*
X39618081Y-80498136D01*
X39618079Y-80498134D01*
X39618076Y-80498130D01*
X39501869Y-80381923D01*
X39501861Y-80381917D01*
X39360395Y-80298255D01*
X39360392Y-80298253D01*
X39202573Y-80252402D01*
X39202567Y-80252401D01*
X39165701Y-80249500D01*
X39165694Y-80249500D01*
X36834306Y-80249500D01*
X36834298Y-80249500D01*
X36797432Y-80252401D01*
X36797426Y-80252402D01*
X36639607Y-80298253D01*
X36639604Y-80298255D01*
X36498138Y-80381917D01*
X36498130Y-80381923D01*
X36381923Y-80498130D01*
X36381917Y-80498138D01*
X36298255Y-80639604D01*
X36298253Y-80639607D01*
X36252402Y-80797426D01*
X36252401Y-80797432D01*
X36249500Y-80834298D01*
X31000000Y-80834298D01*
X31000000Y-44311153D01*
X35618800Y-44311153D01*
X35618800Y-72578146D01*
X35649561Y-72732789D01*
X35649564Y-72732801D01*
X35709902Y-72878472D01*
X35709909Y-72878485D01*
X35797510Y-73009588D01*
X35797513Y-73009592D01*
X36280863Y-73492941D01*
X36314348Y-73554264D01*
X36312957Y-73612715D01*
X36279454Y-73737751D01*
X36279452Y-73737763D01*
X36249500Y-73965258D01*
X36249500Y-74194741D01*
X36271850Y-74364495D01*
X36279452Y-74422238D01*
X36331563Y-74616721D01*
X36338842Y-74643887D01*
X36426650Y-74855876D01*
X36426657Y-74855890D01*
X36541392Y-75054617D01*
X36681081Y-75236661D01*
X36681089Y-75236670D01*
X36843330Y-75398911D01*
X36843338Y-75398918D01*
X37025382Y-75538607D01*
X37025385Y-75538608D01*
X37025388Y-75538611D01*
X37224112Y-75653344D01*
X37224117Y-75653346D01*
X37224123Y-75653349D01*
X37315480Y-75691190D01*
X37436113Y-75741158D01*
X37657762Y-75800548D01*
X37885266Y-75830500D01*
X37885273Y-75830500D01*
X38114727Y-75830500D01*
X38114734Y-75830500D01*
X38342238Y-75800548D01*
X38563887Y-75741158D01*
X38775888Y-75653344D01*
X38974612Y-75538611D01*
X39156661Y-75398919D01*
X39156665Y-75398914D01*
X39156670Y-75398911D01*
X39318911Y-75236670D01*
X39318914Y-75236665D01*
X39318919Y-75236661D01*
X39458611Y-75054612D01*
X39573344Y-74855888D01*
X39661158Y-74643887D01*
X39720548Y-74422238D01*
X39750500Y-74194734D01*
X39750500Y-73965266D01*
X39720548Y-73737762D01*
X39661158Y-73516113D01*
X39573344Y-73304112D01*
X39458611Y-73105388D01*
X39458608Y-73105385D01*
X39458607Y-73105382D01*
X39318918Y-72923338D01*
X39318911Y-72923330D01*
X39156670Y-72761089D01*
X39156661Y-72761081D01*
X38974617Y-72621392D01*
X38775890Y-72506657D01*
X38775876Y-72506650D01*
X38563887Y-72418842D01*
X38536434Y-72411486D01*
X38342238Y-72359452D01*
X38304215Y-72354446D01*
X38114741Y-72329500D01*
X38114734Y-72329500D01*
X37885266Y-72329500D01*
X37885258Y-72329500D01*
X37683040Y-72356124D01*
X37657762Y-72359452D01*
X37657760Y-72359452D01*
X37657751Y-72359454D01*
X37532715Y-72392957D01*
X37520714Y-72392671D01*
X37509468Y-72396866D01*
X37486433Y-72391855D01*
X37462865Y-72391294D01*
X37451217Y-72384194D01*
X37441195Y-72382014D01*
X37412941Y-72360863D01*
X37256119Y-72204041D01*
X37222634Y-72142718D01*
X37219800Y-72116360D01*
X37219800Y-67374500D01*
X37239485Y-67307461D01*
X37292289Y-67261706D01*
X37343800Y-67250500D01*
X38790686Y-67250500D01*
X38790694Y-67250500D01*
X38827569Y-67247598D01*
X38827571Y-67247597D01*
X38827573Y-67247597D01*
X38882493Y-67231641D01*
X38985398Y-67201744D01*
X39126865Y-67118081D01*
X39243081Y-67001865D01*
X39326744Y-66860398D01*
X39372598Y-66702569D01*
X39375500Y-66665694D01*
X39375500Y-65334306D01*
X39372598Y-65297431D01*
X39326744Y-65139602D01*
X39243081Y-64998135D01*
X39243079Y-64998133D01*
X39243076Y-64998129D01*
X39126870Y-64881923D01*
X39126862Y-64881917D01*
X38985396Y-64798255D01*
X38985393Y-64798254D01*
X38827573Y-64752402D01*
X38827567Y-64752401D01*
X38790701Y-64749500D01*
X38790694Y-64749500D01*
X37343800Y-64749500D01*
X37276761Y-64729815D01*
X37231006Y-64677011D01*
X37219800Y-64625500D01*
X37219800Y-62271903D01*
X37227966Y-62244092D01*
X37233319Y-62215601D01*
X37237691Y-62210971D01*
X37239485Y-62204864D01*
X37261389Y-62185883D01*
X37281297Y-62164808D01*
X37287478Y-62163277D01*
X37292289Y-62159109D01*
X37320978Y-62154983D01*
X37349119Y-62148017D01*
X37357118Y-62149787D01*
X37361447Y-62149165D01*
X37383806Y-62154534D01*
X37391755Y-62157243D01*
X37394975Y-62158884D01*
X37429043Y-62169953D01*
X37429893Y-62170243D01*
X37457731Y-62189870D01*
X37485880Y-62209117D01*
X37486361Y-62210055D01*
X37486997Y-62210504D01*
X37488540Y-62214308D01*
X37509662Y-62255518D01*
X37533608Y-62344886D01*
X37599500Y-62459014D01*
X37692686Y-62552200D01*
X37806814Y-62618092D01*
X37934108Y-62652200D01*
X38065892Y-62652200D01*
X49279424Y-62652200D01*
X49346463Y-62671885D01*
X49367105Y-62688519D01*
X52194781Y-65516195D01*
X52228266Y-65577518D01*
X52231100Y-65603876D01*
X52231100Y-65614193D01*
X52231100Y-65614195D01*
X52231099Y-65614195D01*
X52258018Y-65749522D01*
X52258021Y-65749532D01*
X52310821Y-65877004D01*
X52310828Y-65877017D01*
X52387485Y-65991741D01*
X52387488Y-65991745D01*
X52485054Y-66089311D01*
X52485058Y-66089314D01*
X52599782Y-66165971D01*
X52599795Y-66165978D01*
X52727267Y-66218778D01*
X52727272Y-66218780D01*
X52727276Y-66218780D01*
X52727277Y-66218781D01*
X52862604Y-66245700D01*
X52862607Y-66245700D01*
X53000595Y-66245700D01*
X53091641Y-66227589D01*
X53135928Y-66218780D01*
X53263411Y-66165975D01*
X53378142Y-66089314D01*
X53410789Y-66056667D01*
X53472111Y-66023181D01*
X53541803Y-66028165D01*
X53586152Y-66056666D01*
X61463181Y-73933695D01*
X61496666Y-73995018D01*
X61499500Y-74021376D01*
X61499500Y-92500500D01*
X61479815Y-92567539D01*
X61427011Y-92613294D01*
X61375500Y-92624500D01*
X61334298Y-92624500D01*
X61297432Y-92627401D01*
X61297426Y-92627402D01*
X61139606Y-92673254D01*
X61139603Y-92673255D01*
X60998137Y-92756917D01*
X60998129Y-92756923D01*
X60881923Y-92873129D01*
X60881917Y-92873137D01*
X60798255Y-93014603D01*
X60798254Y-93014606D01*
X60752402Y-93172426D01*
X60752401Y-93172432D01*
X60749500Y-93209298D01*
X60749500Y-94790701D01*
X60752401Y-94827567D01*
X60752402Y-94827573D01*
X60798254Y-94985393D01*
X60798255Y-94985396D01*
X60881917Y-95126862D01*
X60881923Y-95126870D01*
X60998129Y-95243076D01*
X60998133Y-95243079D01*
X60998135Y-95243081D01*
X61139602Y-95326744D01*
X61181224Y-95338836D01*
X61297426Y-95372597D01*
X61297429Y-95372597D01*
X61297431Y-95372598D01*
X61334306Y-95375500D01*
X61334314Y-95375500D01*
X62665686Y-95375500D01*
X62665694Y-95375500D01*
X62702569Y-95372598D01*
X62702571Y-95372597D01*
X62702573Y-95372597D01*
X62744191Y-95360505D01*
X62860398Y-95326744D01*
X63001865Y-95243081D01*
X63118081Y-95126865D01*
X63201744Y-94985398D01*
X63239009Y-94857133D01*
X63276615Y-94798247D01*
X63340087Y-94769041D01*
X63409274Y-94778787D01*
X63458401Y-94818840D01*
X63546172Y-94939646D01*
X63685354Y-95078828D01*
X63844595Y-95194524D01*
X63927455Y-95236743D01*
X64019970Y-95283882D01*
X64019972Y-95283882D01*
X64019975Y-95283884D01*
X64120317Y-95316487D01*
X64207173Y-95344709D01*
X64401578Y-95375500D01*
X64401583Y-95375500D01*
X64598422Y-95375500D01*
X64792826Y-95344709D01*
X64848116Y-95326744D01*
X64980025Y-95283884D01*
X65155405Y-95194524D01*
X65314646Y-95078828D01*
X65453828Y-94939646D01*
X65569524Y-94780405D01*
X65639515Y-94643038D01*
X65687489Y-94592243D01*
X65755310Y-94575448D01*
X65821445Y-94597985D01*
X65860484Y-94643038D01*
X65930476Y-94780405D01*
X66046172Y-94939646D01*
X66185354Y-95078828D01*
X66344595Y-95194524D01*
X66427455Y-95236743D01*
X66519970Y-95283882D01*
X66519972Y-95283882D01*
X66519975Y-95283884D01*
X66620317Y-95316487D01*
X66707173Y-95344709D01*
X66901578Y-95375500D01*
X66901583Y-95375500D01*
X67098422Y-95375500D01*
X67292826Y-95344709D01*
X67348116Y-95326744D01*
X67480025Y-95283884D01*
X67655405Y-95194524D01*
X67814646Y-95078828D01*
X67953828Y-94939646D01*
X68069524Y-94780405D01*
X68139515Y-94643038D01*
X68187489Y-94592243D01*
X68255310Y-94575448D01*
X68321445Y-94597985D01*
X68360484Y-94643038D01*
X68430476Y-94780405D01*
X68546172Y-94939646D01*
X68685354Y-95078828D01*
X68844595Y-95194524D01*
X68927455Y-95236743D01*
X69019970Y-95283882D01*
X69019972Y-95283882D01*
X69019975Y-95283884D01*
X69120317Y-95316487D01*
X69207173Y-95344709D01*
X69401578Y-95375500D01*
X69401583Y-95375500D01*
X69598422Y-95375500D01*
X69792826Y-95344709D01*
X69848116Y-95326744D01*
X69980025Y-95283884D01*
X70155405Y-95194524D01*
X70314646Y-95078828D01*
X70453828Y-94939646D01*
X70569524Y-94780405D01*
X70639515Y-94643038D01*
X70687489Y-94592243D01*
X70755310Y-94575448D01*
X70821445Y-94597985D01*
X70860484Y-94643038D01*
X70930476Y-94780405D01*
X71046172Y-94939646D01*
X71185354Y-95078828D01*
X71344595Y-95194524D01*
X71427455Y-95236743D01*
X71519970Y-95283882D01*
X71519972Y-95283882D01*
X71519975Y-95283884D01*
X71620317Y-95316487D01*
X71707173Y-95344709D01*
X71901578Y-95375500D01*
X71901583Y-95375500D01*
X72098422Y-95375500D01*
X72292826Y-95344709D01*
X72348116Y-95326744D01*
X72480025Y-95283884D01*
X72655405Y-95194524D01*
X72814646Y-95078828D01*
X72953828Y-94939646D01*
X73069524Y-94780405D01*
X73139515Y-94643038D01*
X73187489Y-94592243D01*
X73255310Y-94575448D01*
X73321445Y-94597985D01*
X73360484Y-94643038D01*
X73430476Y-94780405D01*
X73546172Y-94939646D01*
X73685354Y-95078828D01*
X73844595Y-95194524D01*
X73927455Y-95236743D01*
X74019970Y-95283882D01*
X74019972Y-95283882D01*
X74019975Y-95283884D01*
X74120317Y-95316487D01*
X74207173Y-95344709D01*
X74401578Y-95375500D01*
X74401583Y-95375500D01*
X74598422Y-95375500D01*
X74792826Y-95344709D01*
X74848116Y-95326744D01*
X74980025Y-95283884D01*
X75155405Y-95194524D01*
X75314646Y-95078828D01*
X75453828Y-94939646D01*
X75569524Y-94780405D01*
X75639515Y-94643038D01*
X75687489Y-94592243D01*
X75755310Y-94575448D01*
X75821445Y-94597985D01*
X75860484Y-94643038D01*
X75930476Y-94780405D01*
X76046172Y-94939646D01*
X76185354Y-95078828D01*
X76344595Y-95194524D01*
X76427455Y-95236743D01*
X76519970Y-95283882D01*
X76519972Y-95283882D01*
X76519975Y-95283884D01*
X76620317Y-95316487D01*
X76707173Y-95344709D01*
X76901578Y-95375500D01*
X76901583Y-95375500D01*
X77098422Y-95375500D01*
X77292826Y-95344709D01*
X77348116Y-95326744D01*
X77480025Y-95283884D01*
X77655405Y-95194524D01*
X77814646Y-95078828D01*
X77953828Y-94939646D01*
X78069524Y-94780405D01*
X78139515Y-94643038D01*
X78187489Y-94592243D01*
X78255310Y-94575448D01*
X78321445Y-94597985D01*
X78360484Y-94643038D01*
X78430476Y-94780405D01*
X78546172Y-94939646D01*
X78685354Y-95078828D01*
X78844595Y-95194524D01*
X78927455Y-95236743D01*
X79019970Y-95283882D01*
X79019972Y-95283882D01*
X79019975Y-95283884D01*
X79120317Y-95316487D01*
X79207173Y-95344709D01*
X79401578Y-95375500D01*
X79401583Y-95375500D01*
X79598422Y-95375500D01*
X79792826Y-95344709D01*
X79848116Y-95326744D01*
X79980025Y-95283884D01*
X80155405Y-95194524D01*
X80314646Y-95078828D01*
X80453828Y-94939646D01*
X80569524Y-94780405D01*
X80639515Y-94643038D01*
X80687489Y-94592243D01*
X80755310Y-94575448D01*
X80821445Y-94597985D01*
X80860484Y-94643038D01*
X80930476Y-94780405D01*
X81046172Y-94939646D01*
X81185354Y-95078828D01*
X81344595Y-95194524D01*
X81427455Y-95236743D01*
X81519970Y-95283882D01*
X81519972Y-95283882D01*
X81519975Y-95283884D01*
X81620317Y-95316487D01*
X81707173Y-95344709D01*
X81901578Y-95375500D01*
X81901583Y-95375500D01*
X82098422Y-95375500D01*
X82292826Y-95344709D01*
X82348116Y-95326744D01*
X82480025Y-95283884D01*
X82655405Y-95194524D01*
X82814646Y-95078828D01*
X82953828Y-94939646D01*
X83069524Y-94780405D01*
X83158884Y-94605025D01*
X83219709Y-94417826D01*
X83250500Y-94223422D01*
X83250500Y-93776577D01*
X83219709Y-93582173D01*
X83184299Y-93473194D01*
X83158884Y-93394975D01*
X83158882Y-93394972D01*
X83158882Y-93394970D01*
X83069523Y-93219594D01*
X82953828Y-93060354D01*
X82814646Y-92921172D01*
X82655405Y-92805476D01*
X82651199Y-92803333D01*
X82480029Y-92716117D01*
X82292826Y-92655290D01*
X82098422Y-92624500D01*
X82098417Y-92624500D01*
X81901583Y-92624500D01*
X81901578Y-92624500D01*
X81707173Y-92655290D01*
X81519970Y-92716117D01*
X81344592Y-92805477D01*
X81340983Y-92807689D01*
X81273536Y-92825928D01*
X81206935Y-92804808D01*
X81162325Y-92751033D01*
X81152200Y-92701957D01*
X81152200Y-71797376D01*
X81171885Y-71730337D01*
X81188519Y-71709695D01*
X84852042Y-68046172D01*
X88602000Y-64296214D01*
X88625579Y-64255374D01*
X88667892Y-64182086D01*
X88702000Y-64054792D01*
X88702000Y-63970718D01*
X88721685Y-63903679D01*
X88738323Y-63883033D01*
X88745614Y-63875742D01*
X88822275Y-63761011D01*
X88875080Y-63633528D01*
X88883889Y-63589241D01*
X88902000Y-63498195D01*
X88902000Y-63360204D01*
X88875081Y-63224877D01*
X88875080Y-63224876D01*
X88875080Y-63224872D01*
X88839761Y-63139603D01*
X88822278Y-63097395D01*
X88822271Y-63097382D01*
X88745614Y-62982658D01*
X88745611Y-62982654D01*
X88648045Y-62885088D01*
X88648041Y-62885085D01*
X88533317Y-62808428D01*
X88533304Y-62808421D01*
X88405832Y-62755621D01*
X88405822Y-62755618D01*
X88270495Y-62728700D01*
X88270493Y-62728700D01*
X88132507Y-62728700D01*
X88132505Y-62728700D01*
X87997177Y-62755618D01*
X87997167Y-62755621D01*
X87869695Y-62808421D01*
X87869682Y-62808428D01*
X87754958Y-62885085D01*
X87754954Y-62885088D01*
X87657388Y-62982654D01*
X87657385Y-62982658D01*
X87580728Y-63097382D01*
X87580721Y-63097395D01*
X87527921Y-63224867D01*
X87527918Y-63224877D01*
X87501000Y-63360204D01*
X87501000Y-63360207D01*
X87501000Y-63498193D01*
X87501000Y-63498195D01*
X87500999Y-63498195D01*
X87527918Y-63633522D01*
X87527921Y-63633532D01*
X87580723Y-63761009D01*
X87583595Y-63766381D01*
X87582519Y-63766955D01*
X87601482Y-63827496D01*
X87583003Y-63894878D01*
X87565183Y-63917401D01*
X80344386Y-71138200D01*
X80251202Y-71231383D01*
X80251200Y-71231386D01*
X80185308Y-71345512D01*
X80151200Y-71472808D01*
X80151200Y-92601439D01*
X80131515Y-92668478D01*
X80078711Y-92714233D01*
X80009553Y-92724177D01*
X79984738Y-92717372D01*
X79984658Y-92717622D01*
X79980028Y-92716117D01*
X79980025Y-92716116D01*
X79909925Y-92693339D01*
X79792826Y-92655290D01*
X79598422Y-92624500D01*
X79598417Y-92624500D01*
X79401583Y-92624500D01*
X79401578Y-92624500D01*
X79207173Y-92655290D01*
X79019970Y-92716117D01*
X78844594Y-92805476D01*
X78818142Y-92824695D01*
X78685354Y-92921172D01*
X78685352Y-92921174D01*
X78685351Y-92921174D01*
X78546174Y-93060351D01*
X78546174Y-93060352D01*
X78546172Y-93060354D01*
X78501060Y-93122445D01*
X78430476Y-93219594D01*
X78360485Y-93356960D01*
X78312510Y-93407756D01*
X78244689Y-93424551D01*
X78178554Y-93402014D01*
X78139515Y-93356960D01*
X78069523Y-93219594D01*
X77953828Y-93060354D01*
X77814646Y-92921172D01*
X77655405Y-92805476D01*
X77651199Y-92803333D01*
X77568205Y-92761045D01*
X77517409Y-92713070D01*
X77500500Y-92650560D01*
X77500500Y-50948076D01*
X77520185Y-50881037D01*
X77536819Y-50860395D01*
X86452695Y-41944519D01*
X86514018Y-41911034D01*
X86540376Y-41908200D01*
X86550695Y-41908200D01*
X86641741Y-41890089D01*
X86686028Y-41881280D01*
X86813511Y-41828475D01*
X86928242Y-41751814D01*
X86964139Y-41715917D01*
X87025461Y-41682431D01*
X87095153Y-41687415D01*
X87139502Y-41715916D01*
X90134181Y-44710595D01*
X90167666Y-44771918D01*
X90170500Y-44798276D01*
X90170500Y-54576481D01*
X90150815Y-54643520D01*
X90134181Y-54664162D01*
X90126888Y-54671454D01*
X90126885Y-54671458D01*
X90050228Y-54786182D01*
X90050221Y-54786195D01*
X89997421Y-54913667D01*
X89997418Y-54913677D01*
X89970500Y-55049004D01*
X89970500Y-55049007D01*
X89970500Y-55186993D01*
X89970500Y-55186995D01*
X89970499Y-55186995D01*
X89997418Y-55322322D01*
X89997421Y-55322332D01*
X90050221Y-55449804D01*
X90050228Y-55449817D01*
X90126885Y-55564541D01*
X90126888Y-55564545D01*
X90224454Y-55662111D01*
X90224458Y-55662114D01*
X90339182Y-55738771D01*
X90339186Y-55738773D01*
X90339189Y-55738775D01*
X90466656Y-55791573D01*
X90521055Y-55835411D01*
X90543121Y-55901705D01*
X90543200Y-55906132D01*
X90543200Y-78775500D01*
X90523515Y-78842539D01*
X90470711Y-78888294D01*
X90419200Y-78899500D01*
X89268482Y-78899500D01*
X89187519Y-78912323D01*
X89174696Y-78914354D01*
X89061658Y-78971950D01*
X89061657Y-78971951D01*
X89061652Y-78971954D01*
X88971954Y-79061652D01*
X88971951Y-79061657D01*
X88914352Y-79174698D01*
X88899500Y-79268475D01*
X88899500Y-80731517D01*
X88909939Y-80797426D01*
X88914354Y-80825304D01*
X88971950Y-80938342D01*
X88971952Y-80938344D01*
X88971954Y-80938347D01*
X89061652Y-81028045D01*
X89061654Y-81028046D01*
X89061658Y-81028050D01*
X89164577Y-81080490D01*
X89174698Y-81085647D01*
X89268475Y-81100499D01*
X89268481Y-81100500D01*
X90419200Y-81100499D01*
X90486239Y-81120184D01*
X90531994Y-81172987D01*
X90543200Y-81224499D01*
X90543200Y-86468691D01*
X90523515Y-86535730D01*
X90470711Y-86581485D01*
X90401553Y-86591429D01*
X90380882Y-86586622D01*
X90257698Y-86546597D01*
X90106821Y-86522701D01*
X90086611Y-86519500D01*
X89913389Y-86519500D01*
X89893179Y-86522701D01*
X89742302Y-86546597D01*
X89742299Y-86546598D01*
X89604325Y-86591429D01*
X89577552Y-86600128D01*
X89423211Y-86678768D01*
X89343256Y-86736859D01*
X89283072Y-86780586D01*
X89283070Y-86780588D01*
X89283069Y-86780588D01*
X89160588Y-86903069D01*
X89160588Y-86903070D01*
X89160586Y-86903072D01*
X89116859Y-86963256D01*
X89058768Y-87043211D01*
X88980128Y-87197552D01*
X88926597Y-87362302D01*
X88899500Y-87533389D01*
X88899500Y-87706611D01*
X88926598Y-87877701D01*
X88980127Y-88042445D01*
X89058768Y-88196788D01*
X89160586Y-88336928D01*
X89283072Y-88459414D01*
X89423212Y-88561232D01*
X89577555Y-88639873D01*
X89742299Y-88693402D01*
X89913389Y-88720500D01*
X89913390Y-88720500D01*
X90086610Y-88720500D01*
X90086611Y-88720500D01*
X90257701Y-88693402D01*
X90380884Y-88653376D01*
X90450722Y-88651382D01*
X90510555Y-88687462D01*
X90541384Y-88750163D01*
X90543200Y-88771308D01*
X90543200Y-91397623D01*
X90534555Y-91427063D01*
X90528032Y-91457050D01*
X90524277Y-91462065D01*
X90523515Y-91464662D01*
X90506881Y-91485305D01*
X90392860Y-91599325D01*
X90331537Y-91632809D01*
X90266866Y-91629576D01*
X90266863Y-91629575D01*
X90257701Y-91626598D01*
X90257699Y-91626597D01*
X90257697Y-91626597D01*
X90138239Y-91607677D01*
X90086611Y-91599500D01*
X89913389Y-91599500D01*
X89873728Y-91605781D01*
X89742302Y-91626597D01*
X89577552Y-91680128D01*
X89423211Y-91758768D01*
X89343256Y-91816859D01*
X89283072Y-91860586D01*
X89283070Y-91860588D01*
X89283069Y-91860588D01*
X89160588Y-91983069D01*
X89160588Y-91983070D01*
X89160586Y-91983072D01*
X89116859Y-92043256D01*
X89058768Y-92123211D01*
X88980128Y-92277552D01*
X88926597Y-92442302D01*
X88903078Y-92590796D01*
X88899500Y-92613389D01*
X88899500Y-92786611D01*
X88903957Y-92814751D01*
X88920812Y-92921174D01*
X88926598Y-92957701D01*
X88959952Y-93060354D01*
X88980128Y-93122447D01*
X89029626Y-93219594D01*
X89058768Y-93276788D01*
X89160586Y-93416928D01*
X89283072Y-93539414D01*
X89423212Y-93641232D01*
X89577555Y-93719873D01*
X89742299Y-93773402D01*
X89913389Y-93800500D01*
X89913390Y-93800500D01*
X90086610Y-93800500D01*
X90086611Y-93800500D01*
X90257701Y-93773402D01*
X90422445Y-93719873D01*
X90576788Y-93641232D01*
X90716928Y-93539414D01*
X90839414Y-93416928D01*
X90941232Y-93276788D01*
X91019873Y-93122445D01*
X91073402Y-92957701D01*
X91100500Y-92786611D01*
X91100500Y-92613389D01*
X91073402Y-92442299D01*
X91070424Y-92433137D01*
X91068430Y-92363296D01*
X91100675Y-92307138D01*
X91226652Y-92181161D01*
X91444200Y-91963614D01*
X91510092Y-91849486D01*
X91544200Y-91722192D01*
X91544200Y-91590407D01*
X91544200Y-55424808D01*
X91541040Y-55413016D01*
X91510092Y-55297514D01*
X91476894Y-55240014D01*
X91444200Y-55183386D01*
X91407819Y-55147005D01*
X91374334Y-55085682D01*
X91371500Y-55059324D01*
X91371500Y-55049004D01*
X91344581Y-54913677D01*
X91344580Y-54913676D01*
X91344580Y-54913672D01*
X91293977Y-54791505D01*
X91291778Y-54786195D01*
X91291771Y-54786182D01*
X91215114Y-54671458D01*
X91215111Y-54671454D01*
X91207819Y-54664162D01*
X91174334Y-54602839D01*
X91171500Y-54576481D01*
X91171500Y-47334298D01*
X120624500Y-47334298D01*
X120624500Y-48665701D01*
X120627401Y-48702567D01*
X120627402Y-48702573D01*
X120673254Y-48860393D01*
X120673255Y-48860396D01*
X120673256Y-48860398D01*
X120685986Y-48881923D01*
X120756917Y-49001862D01*
X120756923Y-49001870D01*
X120873129Y-49118076D01*
X120873133Y-49118079D01*
X120873135Y-49118081D01*
X121014602Y-49201744D01*
X121056224Y-49213836D01*
X121172426Y-49247597D01*
X121172429Y-49247597D01*
X121172431Y-49247598D01*
X121209306Y-49250500D01*
X121209314Y-49250500D01*
X122790686Y-49250500D01*
X122790694Y-49250500D01*
X122827569Y-49247598D01*
X122827571Y-49247597D01*
X122827573Y-49247597D01*
X122869191Y-49235505D01*
X122985398Y-49201744D01*
X123126865Y-49118081D01*
X123243081Y-49001865D01*
X123326744Y-48860398D01*
X123372598Y-48702569D01*
X123375500Y-48665694D01*
X123375500Y-47334306D01*
X123372598Y-47297431D01*
X123326744Y-47139602D01*
X123243081Y-46998135D01*
X123243079Y-46998133D01*
X123243076Y-46998129D01*
X123126870Y-46881923D01*
X123126862Y-46881917D01*
X122985396Y-46798255D01*
X122985393Y-46798254D01*
X122827573Y-46752402D01*
X122827567Y-46752401D01*
X122790701Y-46749500D01*
X122790694Y-46749500D01*
X121209306Y-46749500D01*
X121209298Y-46749500D01*
X121172432Y-46752401D01*
X121172426Y-46752402D01*
X121014606Y-46798254D01*
X121014603Y-46798255D01*
X120873137Y-46881917D01*
X120873129Y-46881923D01*
X120756923Y-46998129D01*
X120756917Y-46998137D01*
X120673255Y-47139603D01*
X120673254Y-47139606D01*
X120627402Y-47297426D01*
X120627401Y-47297432D01*
X120624500Y-47334298D01*
X91171500Y-47334298D01*
X91171500Y-44473710D01*
X91171500Y-44473708D01*
X91137392Y-44346414D01*
X91071500Y-44232286D01*
X90978314Y-44139100D01*
X86576214Y-39737000D01*
X86519150Y-39704054D01*
X86462087Y-39671108D01*
X86398439Y-39654054D01*
X86334792Y-39637000D01*
X86334791Y-39637000D01*
X84302419Y-39637000D01*
X84235380Y-39617315D01*
X84214738Y-39600681D01*
X84207445Y-39593388D01*
X84207441Y-39593385D01*
X84092717Y-39516728D01*
X84092704Y-39516721D01*
X83965232Y-39463921D01*
X83965222Y-39463918D01*
X83829895Y-39437000D01*
X83829893Y-39437000D01*
X83691907Y-39437000D01*
X83691905Y-39437000D01*
X83556577Y-39463918D01*
X83556567Y-39463921D01*
X83429095Y-39516721D01*
X83429082Y-39516728D01*
X83314358Y-39593385D01*
X83314354Y-39593388D01*
X83216788Y-39690954D01*
X83216785Y-39690958D01*
X83140128Y-39805682D01*
X83140121Y-39805695D01*
X83087321Y-39933167D01*
X83087318Y-39933177D01*
X83060400Y-40068504D01*
X83060400Y-40068507D01*
X83060400Y-40206493D01*
X83060400Y-40206495D01*
X83060399Y-40206495D01*
X83087318Y-40341822D01*
X83087321Y-40341832D01*
X83140121Y-40469304D01*
X83140128Y-40469317D01*
X83216785Y-40584041D01*
X83216788Y-40584045D01*
X83314354Y-40681611D01*
X83314358Y-40681614D01*
X83429082Y-40758271D01*
X83429095Y-40758278D01*
X83556567Y-40811078D01*
X83556572Y-40811080D01*
X83556576Y-40811080D01*
X83556577Y-40811081D01*
X83691904Y-40838000D01*
X83691907Y-40838000D01*
X83829895Y-40838000D01*
X83920941Y-40819889D01*
X83965228Y-40811080D01*
X84092711Y-40758275D01*
X84207442Y-40681614D01*
X84207445Y-40681611D01*
X84214738Y-40674319D01*
X84276061Y-40640834D01*
X84302419Y-40638000D01*
X85787889Y-40638000D01*
X85854928Y-40657685D01*
X85900683Y-40710489D01*
X85910627Y-40779647D01*
X85890991Y-40830891D01*
X85860928Y-40875882D01*
X85860921Y-40875895D01*
X85808121Y-41003367D01*
X85808118Y-41003377D01*
X85781200Y-41138704D01*
X85781200Y-41149024D01*
X85761515Y-41216063D01*
X85744881Y-41236705D01*
X76599502Y-50382083D01*
X76599500Y-50382086D01*
X76533608Y-50496212D01*
X76499500Y-50623508D01*
X76499500Y-92650560D01*
X76479815Y-92717599D01*
X76431795Y-92761045D01*
X76344594Y-92805476D01*
X76318142Y-92824695D01*
X76185354Y-92921172D01*
X76185352Y-92921174D01*
X76185351Y-92921174D01*
X76046174Y-93060351D01*
X76046174Y-93060352D01*
X76046172Y-93060354D01*
X76001060Y-93122445D01*
X75930476Y-93219594D01*
X75860485Y-93356960D01*
X75812510Y-93407756D01*
X75744689Y-93424551D01*
X75678554Y-93402014D01*
X75639515Y-93356960D01*
X75569523Y-93219594D01*
X75453828Y-93060354D01*
X75314646Y-92921172D01*
X75155405Y-92805476D01*
X75151199Y-92803333D01*
X74980029Y-92716117D01*
X74792826Y-92655290D01*
X74598422Y-92624500D01*
X74598417Y-92624500D01*
X74401583Y-92624500D01*
X74401578Y-92624500D01*
X74207173Y-92655290D01*
X74019970Y-92716117D01*
X73844594Y-92805476D01*
X73818142Y-92824695D01*
X73685354Y-92921172D01*
X73685352Y-92921174D01*
X73685351Y-92921174D01*
X73546174Y-93060351D01*
X73546174Y-93060352D01*
X73546172Y-93060354D01*
X73501060Y-93122445D01*
X73430476Y-93219594D01*
X73360485Y-93356960D01*
X73312510Y-93407756D01*
X73244689Y-93424551D01*
X73178554Y-93402014D01*
X73139515Y-93356960D01*
X73069523Y-93219594D01*
X72953828Y-93060354D01*
X72814646Y-92921172D01*
X72655405Y-92805476D01*
X72651199Y-92803333D01*
X72480029Y-92716117D01*
X72292826Y-92655290D01*
X72098422Y-92624500D01*
X72098417Y-92624500D01*
X71901583Y-92624500D01*
X71901578Y-92624500D01*
X71707173Y-92655290D01*
X71577704Y-92697358D01*
X71519975Y-92716116D01*
X71519971Y-92716117D01*
X71515342Y-92717622D01*
X71515000Y-92716572D01*
X71450753Y-92723463D01*
X71388282Y-92692173D01*
X71352644Y-92632075D01*
X71348800Y-92601439D01*
X71348800Y-78363710D01*
X71348800Y-78363708D01*
X71314692Y-78236414D01*
X71248800Y-78122286D01*
X71155614Y-78029100D01*
X68393019Y-75266505D01*
X68359534Y-75205182D01*
X68356700Y-75178824D01*
X68356700Y-75168504D01*
X68329781Y-75033177D01*
X68329780Y-75033176D01*
X68329780Y-75033172D01*
X68329778Y-75033167D01*
X68276978Y-74905695D01*
X68276971Y-74905682D01*
X68200314Y-74790958D01*
X68200311Y-74790954D01*
X68102745Y-74693388D01*
X68102741Y-74693385D01*
X67988017Y-74616728D01*
X67988004Y-74616721D01*
X67860532Y-74563921D01*
X67860522Y-74563918D01*
X67725195Y-74537000D01*
X67725193Y-74537000D01*
X67624500Y-74537000D01*
X67557461Y-74517315D01*
X67511706Y-74464511D01*
X67500500Y-74413000D01*
X67500500Y-74127610D01*
X67500500Y-74127608D01*
X67466392Y-74000314D01*
X67400500Y-73886186D01*
X67307314Y-73793000D01*
X39265514Y-45751200D01*
X39265512Y-45751199D01*
X39261205Y-45747894D01*
X39220002Y-45691467D01*
X39215847Y-45621721D01*
X39226207Y-45593223D01*
X39283880Y-45480034D01*
X39283881Y-45480030D01*
X39283884Y-45480025D01*
X39344709Y-45292826D01*
X39375500Y-45098422D01*
X39375500Y-44901577D01*
X39344709Y-44707173D01*
X39283880Y-44519964D01*
X39282017Y-44515466D01*
X39284189Y-44514566D01*
X39273023Y-44455461D01*
X39299228Y-44390691D01*
X39356291Y-44350372D01*
X39396417Y-44343700D01*
X61612960Y-44343700D01*
X61679999Y-44363385D01*
X61700641Y-44380019D01*
X70050906Y-52730285D01*
X70050909Y-52730288D01*
X70182014Y-52817889D01*
X70182018Y-52817891D01*
X70182021Y-52817893D01*
X70327702Y-52878237D01*
X70482352Y-52908999D01*
X70482355Y-52909000D01*
X70482357Y-52909000D01*
X70640044Y-52909000D01*
X70640045Y-52908999D01*
X70794697Y-52878237D01*
X70940379Y-52817893D01*
X71071489Y-52730288D01*
X71182988Y-52618789D01*
X71270593Y-52487679D01*
X71330937Y-52341997D01*
X71361700Y-52187342D01*
X71361700Y-52029657D01*
X71361700Y-52029654D01*
X71361699Y-52029652D01*
X71330937Y-51875002D01*
X71270593Y-51729321D01*
X71270591Y-51729318D01*
X71270589Y-51729314D01*
X71182988Y-51598209D01*
X70069628Y-50484849D01*
X70054431Y-50457019D01*
X70037745Y-50430039D01*
X70037805Y-50426569D01*
X70036143Y-50423526D01*
X70038405Y-50391894D01*
X70038954Y-50360180D01*
X70040879Y-50357294D01*
X70041127Y-50353834D01*
X70060134Y-50328443D01*
X70077740Y-50302064D01*
X70080920Y-50300677D01*
X70082999Y-50297901D01*
X70112709Y-50286819D01*
X70141788Y-50274143D01*
X70146270Y-50274301D01*
X70148463Y-50273484D01*
X70177077Y-50274754D01*
X70179284Y-50275110D01*
X70266707Y-50292500D01*
X70286971Y-50292500D01*
X70296792Y-50294086D01*
X70319703Y-50305032D01*
X70344063Y-50312185D01*
X70357734Y-50323202D01*
X70359836Y-50324206D01*
X70360686Y-50325580D01*
X70364705Y-50328819D01*
X74966481Y-54930595D01*
X74999966Y-54991918D01*
X75002800Y-55018276D01*
X75002800Y-66243581D01*
X74983115Y-66310620D01*
X74966481Y-66331262D01*
X74959188Y-66338554D01*
X74959185Y-66338558D01*
X74882528Y-66453282D01*
X74882521Y-66453295D01*
X74829721Y-66580767D01*
X74829718Y-66580777D01*
X74802800Y-66716104D01*
X74802800Y-66716107D01*
X74802800Y-66854093D01*
X74802800Y-66854095D01*
X74802799Y-66854095D01*
X74829718Y-66989422D01*
X74829721Y-66989432D01*
X74882521Y-67116904D01*
X74882528Y-67116917D01*
X74959185Y-67231641D01*
X74959188Y-67231645D01*
X75056754Y-67329211D01*
X75056758Y-67329214D01*
X75171482Y-67405871D01*
X75171495Y-67405878D01*
X75298967Y-67458678D01*
X75298972Y-67458680D01*
X75298976Y-67458680D01*
X75298977Y-67458681D01*
X75434304Y-67485600D01*
X75434307Y-67485600D01*
X75572295Y-67485600D01*
X75663341Y-67467489D01*
X75707628Y-67458680D01*
X75835111Y-67405875D01*
X75949842Y-67329214D01*
X76047414Y-67231642D01*
X76124075Y-67116911D01*
X76176880Y-66989428D01*
X76202546Y-66860398D01*
X76203800Y-66854095D01*
X76203800Y-66716104D01*
X76176881Y-66580777D01*
X76176880Y-66580776D01*
X76176880Y-66580772D01*
X76176878Y-66580767D01*
X76124078Y-66453295D01*
X76124071Y-66453282D01*
X76047414Y-66338558D01*
X76047411Y-66338554D01*
X76040119Y-66331262D01*
X76006634Y-66269939D01*
X76003800Y-66243581D01*
X76003800Y-54693710D01*
X76003800Y-54693708D01*
X75969692Y-54566414D01*
X75964933Y-54558172D01*
X75960863Y-54551121D01*
X75903800Y-54452286D01*
X75810614Y-54359100D01*
X71072519Y-49621005D01*
X71039034Y-49559682D01*
X71036200Y-49533324D01*
X71036200Y-49523004D01*
X71009281Y-49387677D01*
X71009280Y-49387676D01*
X71009280Y-49387672D01*
X71009278Y-49387667D01*
X70956478Y-49260195D01*
X70956471Y-49260182D01*
X70879814Y-49145458D01*
X70879811Y-49145454D01*
X70782245Y-49047888D01*
X70782241Y-49047885D01*
X70667517Y-48971228D01*
X70667504Y-48971221D01*
X70540032Y-48918421D01*
X70540022Y-48918418D01*
X70404695Y-48891500D01*
X70404693Y-48891500D01*
X70266707Y-48891500D01*
X70266705Y-48891500D01*
X70131377Y-48918418D01*
X70131367Y-48918421D01*
X70003895Y-48971221D01*
X70003882Y-48971228D01*
X69889158Y-49047885D01*
X69889154Y-49047888D01*
X69791588Y-49145454D01*
X69791585Y-49145458D01*
X69714928Y-49260182D01*
X69714921Y-49260195D01*
X69662121Y-49387667D01*
X69662118Y-49387677D01*
X69635200Y-49523004D01*
X69635200Y-49660997D01*
X69652148Y-49746199D01*
X69645921Y-49815790D01*
X69603058Y-49870968D01*
X69537168Y-49894212D01*
X69469171Y-49878144D01*
X69442850Y-49858071D01*
X62506192Y-42921413D01*
X62506188Y-42921410D01*
X62375085Y-42833809D01*
X62375072Y-42833802D01*
X62229401Y-42773464D01*
X62229389Y-42773461D01*
X62074745Y-42742700D01*
X62074742Y-42742700D01*
X37344942Y-42742700D01*
X37187258Y-42742700D01*
X37187255Y-42742700D01*
X37032610Y-42773461D01*
X37032598Y-42773464D01*
X36886927Y-42833802D01*
X36886914Y-42833809D01*
X36755811Y-42921410D01*
X36755807Y-42921413D01*
X35909011Y-43768211D01*
X35853260Y-43823962D01*
X35797509Y-43879712D01*
X35709909Y-44010814D01*
X35709902Y-44010827D01*
X35649564Y-44156498D01*
X35649561Y-44156510D01*
X35618800Y-44311153D01*
X31000000Y-44311153D01*
X31000000Y-35878711D01*
X34149500Y-35878711D01*
X34149500Y-36121288D01*
X34181161Y-36361785D01*
X34243947Y-36596104D01*
X34336773Y-36820205D01*
X34336776Y-36820212D01*
X34458064Y-37030289D01*
X34458066Y-37030292D01*
X34458067Y-37030293D01*
X34605733Y-37222736D01*
X34605739Y-37222743D01*
X34777256Y-37394260D01*
X34777262Y-37394265D01*
X34969711Y-37541936D01*
X35179788Y-37663224D01*
X35403900Y-37756054D01*
X35638211Y-37818838D01*
X35818586Y-37842584D01*
X35878711Y-37850500D01*
X35878712Y-37850500D01*
X36121289Y-37850500D01*
X36169388Y-37844167D01*
X36361789Y-37818838D01*
X36596100Y-37756054D01*
X36820212Y-37663224D01*
X37030289Y-37541936D01*
X37222738Y-37394265D01*
X37394265Y-37222738D01*
X37541936Y-37030289D01*
X37663224Y-36820212D01*
X37756054Y-36596100D01*
X37818838Y-36361789D01*
X37850500Y-36121288D01*
X37850500Y-35878712D01*
X37850500Y-35878711D01*
X122149500Y-35878711D01*
X122149500Y-36121288D01*
X122181161Y-36361785D01*
X122243947Y-36596104D01*
X122336773Y-36820205D01*
X122336776Y-36820212D01*
X122458064Y-37030289D01*
X122458066Y-37030292D01*
X122458067Y-37030293D01*
X122605733Y-37222736D01*
X122605739Y-37222743D01*
X122777256Y-37394260D01*
X122777262Y-37394265D01*
X122969711Y-37541936D01*
X123179788Y-37663224D01*
X123403900Y-37756054D01*
X123638211Y-37818838D01*
X123818586Y-37842584D01*
X123878711Y-37850500D01*
X123878712Y-37850500D01*
X124121289Y-37850500D01*
X124169388Y-37844167D01*
X124361789Y-37818838D01*
X124596100Y-37756054D01*
X124820212Y-37663224D01*
X125030289Y-37541936D01*
X125222738Y-37394265D01*
X125394265Y-37222738D01*
X125541936Y-37030289D01*
X125663224Y-36820212D01*
X125756054Y-36596100D01*
X125818838Y-36361789D01*
X125850500Y-36121288D01*
X125850500Y-35878712D01*
X125818838Y-35638211D01*
X125756054Y-35403900D01*
X125663224Y-35179788D01*
X125541936Y-34969711D01*
X125394265Y-34777262D01*
X125394260Y-34777256D01*
X125222743Y-34605739D01*
X125222736Y-34605733D01*
X125030293Y-34458067D01*
X125030292Y-34458066D01*
X125030289Y-34458064D01*
X124820212Y-34336776D01*
X124820205Y-34336773D01*
X124596104Y-34243947D01*
X124361785Y-34181161D01*
X124121289Y-34149500D01*
X124121288Y-34149500D01*
X123878712Y-34149500D01*
X123878711Y-34149500D01*
X123638214Y-34181161D01*
X123403895Y-34243947D01*
X123179794Y-34336773D01*
X123179785Y-34336777D01*
X122969706Y-34458067D01*
X122777263Y-34605733D01*
X122777256Y-34605739D01*
X122605739Y-34777256D01*
X122605733Y-34777263D01*
X122458067Y-34969706D01*
X122336777Y-35179785D01*
X122336773Y-35179794D01*
X122243947Y-35403895D01*
X122181161Y-35638214D01*
X122149500Y-35878711D01*
X37850500Y-35878711D01*
X37818838Y-35638211D01*
X37756054Y-35403900D01*
X37663224Y-35179788D01*
X37541936Y-34969711D01*
X37394265Y-34777262D01*
X37394260Y-34777256D01*
X37222743Y-34605739D01*
X37222736Y-34605733D01*
X37030293Y-34458067D01*
X37030292Y-34458066D01*
X37030289Y-34458064D01*
X36820212Y-34336776D01*
X36820205Y-34336773D01*
X36596104Y-34243947D01*
X36361785Y-34181161D01*
X36121289Y-34149500D01*
X36121288Y-34149500D01*
X35878712Y-34149500D01*
X35878711Y-34149500D01*
X35638214Y-34181161D01*
X35403895Y-34243947D01*
X35179794Y-34336773D01*
X35179785Y-34336777D01*
X34969706Y-34458067D01*
X34777263Y-34605733D01*
X34777256Y-34605739D01*
X34605739Y-34777256D01*
X34605733Y-34777263D01*
X34458067Y-34969706D01*
X34336777Y-35179785D01*
X34336773Y-35179794D01*
X34243947Y-35403895D01*
X34181161Y-35638214D01*
X34149500Y-35878711D01*
X31000000Y-35878711D01*
X31000000Y-31124000D01*
X31019685Y-31056961D01*
X31072489Y-31011206D01*
X31124000Y-31000000D01*
X128876000Y-31000000D01*
X128943039Y-31019685D01*
G37*
%TD.AperFunction*%
%TD*%
M02*
