%TF.GenerationSoftware,KiCad,Pcbnew,10.0.3*%
%TF.CreationDate,2026-07-02T03:24:24-05:00*%
%TF.ProjectId,crossfade-feedback-wet,63726f73-7366-4616-9465-2d6665656462,rev?*%
%TF.SameCoordinates,Original*%
%TF.FileFunction,Other,User*%
%FSLAX46Y46*%
G04 Gerber Fmt 4.6, Leading zero omitted, Abs format (unit mm)*
G04 Created by KiCad (PCBNEW 10.0.3) date 2026-07-02 03:24:24*
%MOMM*%
%LPD*%
G01*
G04 APERTURE LIST*
%ADD10C,0.050000*%
G04 APERTURE END LIST*
%TO.C,R326*%
D10*
X100320000Y-63050000D02*
X103680000Y-63050000D01*
X103680000Y-64950000D01*
X100320000Y-64950000D01*
X100320000Y-63050000D01*
%TO.C,R302*%
X50320000Y-63050000D02*
X53680000Y-63050000D01*
X53680000Y-64950000D01*
X50320000Y-64950000D01*
X50320000Y-63050000D01*
%TO.C,R310*%
X58320000Y-63050000D02*
X61680000Y-63050000D01*
X61680000Y-64950000D01*
X58320000Y-64950000D01*
X58320000Y-63050000D01*
%TO.C,D301*%
X69650000Y-84850000D02*
X69650000Y-87150000D01*
X69650000Y-84850000D02*
X74350000Y-84850000D01*
X74350000Y-84850000D02*
X74350000Y-87150000D01*
X74350000Y-87150000D02*
X69650000Y-87150000D01*
%TO.C,R342*%
X112320000Y-51050000D02*
X115680000Y-51050000D01*
X115680000Y-52950000D01*
X112320000Y-52950000D01*
X112320000Y-51050000D01*
%TO.C,P301*%
X35150000Y-42050000D02*
X41900000Y-42050000D01*
X41900000Y-52950000D01*
X35150000Y-52950000D01*
X35150000Y-42050000D01*
%TO.C,R341*%
X104320000Y-51050000D02*
X107680000Y-51050000D01*
X107680000Y-52950000D01*
X104320000Y-52950000D01*
X104320000Y-51050000D01*
%TO.C,R323*%
X92320000Y-39050000D02*
X95680000Y-39050000D01*
X95680000Y-40950000D01*
X92320000Y-40950000D01*
X92320000Y-39050000D01*
%TO.C,P303*%
X35150000Y-58050000D02*
X41900000Y-58050000D01*
X41900000Y-68950000D01*
X35150000Y-68950000D01*
X35150000Y-58050000D01*
%TO.C,C392*%
X50300000Y-79020000D02*
X53700000Y-79020000D01*
X53700000Y-80980000D01*
X50300000Y-80980000D01*
X50300000Y-79020000D01*
%TO.C,R331*%
X110320000Y-81050000D02*
X113680000Y-81050000D01*
X113680000Y-82950000D01*
X110320000Y-82950000D01*
X110320000Y-81050000D01*
%TO.C,R325*%
X100320000Y-39050000D02*
X103680000Y-39050000D01*
X103680000Y-40950000D01*
X100320000Y-40950000D01*
X100320000Y-39050000D01*
%TO.C,C393*%
X57700000Y-72400000D02*
X62300000Y-72400000D01*
X62300000Y-75600000D01*
X57700000Y-75600000D01*
X57700000Y-72400000D01*
%TO.C,H2*%
X127450000Y-36000000D02*
G75*
G02*
X120550000Y-36000000I-3450000J0D01*
G01*
X120550000Y-36000000D02*
G75*
G02*
X127450000Y-36000000I3450000J0D01*
G01*
%TO.C,P304*%
X118100000Y-61050000D02*
X124850000Y-61050000D01*
X124850000Y-71950000D01*
X118100000Y-71950000D01*
X118100000Y-61050000D01*
%TO.C,R311*%
X66320000Y-39050000D02*
X69680000Y-39050000D01*
X69680000Y-40950000D01*
X66320000Y-40950000D01*
X66320000Y-39050000D01*
%TO.C,K301*%
X88520000Y-78500000D02*
X88520000Y-99300000D01*
X88520000Y-78500000D02*
X99100000Y-78500000D01*
X99100000Y-78500000D02*
X99100000Y-99300000D01*
X99100000Y-99300000D02*
X88520000Y-99300000D01*
%TO.C,H4*%
X127450000Y-94000000D02*
G75*
G02*
X120550000Y-94000000I-3450000J0D01*
G01*
X120550000Y-94000000D02*
G75*
G02*
X127450000Y-94000000I3450000J0D01*
G01*
%TO.C,P306*%
X33800000Y-71630000D02*
X43300000Y-71630000D01*
X43300000Y-84450000D01*
X33800000Y-84450000D01*
X33800000Y-71630000D01*
%TO.C,P307*%
X59050000Y-91150000D02*
X87450000Y-91150000D01*
X87450000Y-97900000D01*
X59050000Y-97900000D01*
X59050000Y-91150000D01*
%TO.C,R321*%
X84320000Y-39050000D02*
X87680000Y-39050000D01*
X87680000Y-40950000D01*
X84320000Y-40950000D01*
X84320000Y-39050000D01*
%TO.C,R351*%
X69720000Y-78870000D02*
X74280000Y-78870000D01*
X74280000Y-81130000D01*
X69720000Y-81130000D01*
X69720000Y-78870000D01*
%TO.C,R301*%
X50320000Y-39050000D02*
X53680000Y-39050000D01*
X53680000Y-40950000D01*
X50320000Y-40950000D01*
X50320000Y-39050000D01*
%TO.C,R322*%
X84320000Y-63050000D02*
X87680000Y-63050000D01*
X87680000Y-64950000D01*
X84320000Y-64950000D01*
X84320000Y-63050000D01*
%TO.C,C394*%
X57700000Y-78400000D02*
X62300000Y-78400000D01*
X62300000Y-81600000D01*
X57700000Y-81600000D01*
X57700000Y-78400000D01*
%TO.C,H1*%
X39450000Y-36000000D02*
G75*
G02*
X32550000Y-36000000I-3450000J0D01*
G01*
X32550000Y-36000000D02*
G75*
G02*
X39450000Y-36000000I3450000J0D01*
G01*
%TO.C,C321*%
X108300000Y-39020000D02*
X111700000Y-39020000D01*
X111700000Y-40980000D01*
X108300000Y-40980000D01*
X108300000Y-39020000D01*
%TO.C,R309*%
X58320000Y-39050000D02*
X61680000Y-39050000D01*
X61680000Y-40950000D01*
X58320000Y-40950000D01*
X58320000Y-39050000D01*
%TO.C,P302*%
X118100000Y-45050000D02*
X124850000Y-45050000D01*
X124850000Y-55950000D01*
X118100000Y-55950000D01*
X118100000Y-45050000D01*
%TO.C,R324*%
X92320000Y-63050000D02*
X95680000Y-63050000D01*
X95680000Y-64950000D01*
X92320000Y-64950000D01*
X92320000Y-63050000D01*
%TO.C,P305*%
X118100000Y-77050000D02*
X124850000Y-77050000D01*
X124850000Y-87950000D01*
X118100000Y-87950000D01*
X118100000Y-77050000D01*
%TO.C,C322*%
X108300000Y-63020000D02*
X111700000Y-63020000D01*
X111700000Y-64980000D01*
X108300000Y-64980000D01*
X108300000Y-63020000D01*
%TO.C,U301*%
X66300000Y-47640000D02*
X67800000Y-47640000D01*
X66300000Y-56360000D02*
X66300000Y-47640000D01*
X67800000Y-47420000D02*
X72200000Y-47420000D01*
X67800000Y-47640000D02*
X67800000Y-47420000D01*
X67800000Y-56360000D02*
X66300000Y-56360000D01*
X67800000Y-56580000D02*
X67800000Y-56360000D01*
X72200000Y-47420000D02*
X72200000Y-47640000D01*
X72200000Y-47640000D02*
X73700000Y-47640000D01*
X72200000Y-56360000D02*
X72200000Y-56580000D01*
X72200000Y-56580000D02*
X67800000Y-56580000D01*
X73700000Y-47640000D02*
X73700000Y-56360000D01*
X73700000Y-56360000D02*
X72200000Y-56360000D01*
%TO.C,C391*%
X50300000Y-73020000D02*
X53700000Y-73020000D01*
X53700000Y-74980000D01*
X50300000Y-74980000D01*
X50300000Y-73020000D01*
%TO.C,H3*%
X39450000Y-94000000D02*
G75*
G02*
X32550000Y-94000000I-3450000J0D01*
G01*
X32550000Y-94000000D02*
G75*
G02*
X39450000Y-94000000I3450000J0D01*
G01*
%TO.C,R332*%
X110320000Y-87050000D02*
X113680000Y-87050000D01*
X113680000Y-88950000D01*
X110320000Y-88950000D01*
X110320000Y-87050000D01*
%TO.C,R312*%
X66320000Y-63050000D02*
X69680000Y-63050000D01*
X69680000Y-64950000D01*
X66320000Y-64950000D01*
X66320000Y-63050000D01*
%TD*%
M02*
