%TF.GenerationSoftware,KiCad,Pcbnew,10.0.3*%
%TF.CreationDate,2026-07-02T03:24:24-05:00*%
%TF.ProjectId,crossfade-feedback-wet,63726f73-7366-4616-9465-2d6665656462,rev?*%
%TF.SameCoordinates,Original*%
%TF.FileFunction,Legend,Top*%
%TF.FilePolarity,Positive*%
%FSLAX46Y46*%
G04 Gerber Fmt 4.6, Leading zero omitted, Abs format (unit mm)*
G04 Created by KiCad (PCBNEW 10.0.3) date 2026-07-02 03:24:24*
%MOMM*%
%LPD*%
G01*
G04 APERTURE LIST*
%ADD10C,0.150000*%
%ADD11C,0.120000*%
G04 APERTURE END LIST*
D10*
X100880952Y-62804819D02*
X100547619Y-62328628D01*
X100309524Y-62804819D02*
X100309524Y-61804819D01*
X100309524Y-61804819D02*
X100690476Y-61804819D01*
X100690476Y-61804819D02*
X100785714Y-61852438D01*
X100785714Y-61852438D02*
X100833333Y-61900057D01*
X100833333Y-61900057D02*
X100880952Y-61995295D01*
X100880952Y-61995295D02*
X100880952Y-62138152D01*
X100880952Y-62138152D02*
X100833333Y-62233390D01*
X100833333Y-62233390D02*
X100785714Y-62281009D01*
X100785714Y-62281009D02*
X100690476Y-62328628D01*
X100690476Y-62328628D02*
X100309524Y-62328628D01*
X101214286Y-61804819D02*
X101833333Y-61804819D01*
X101833333Y-61804819D02*
X101500000Y-62185771D01*
X101500000Y-62185771D02*
X101642857Y-62185771D01*
X101642857Y-62185771D02*
X101738095Y-62233390D01*
X101738095Y-62233390D02*
X101785714Y-62281009D01*
X101785714Y-62281009D02*
X101833333Y-62376247D01*
X101833333Y-62376247D02*
X101833333Y-62614342D01*
X101833333Y-62614342D02*
X101785714Y-62709580D01*
X101785714Y-62709580D02*
X101738095Y-62757200D01*
X101738095Y-62757200D02*
X101642857Y-62804819D01*
X101642857Y-62804819D02*
X101357143Y-62804819D01*
X101357143Y-62804819D02*
X101261905Y-62757200D01*
X101261905Y-62757200D02*
X101214286Y-62709580D01*
X102214286Y-61900057D02*
X102261905Y-61852438D01*
X102261905Y-61852438D02*
X102357143Y-61804819D01*
X102357143Y-61804819D02*
X102595238Y-61804819D01*
X102595238Y-61804819D02*
X102690476Y-61852438D01*
X102690476Y-61852438D02*
X102738095Y-61900057D01*
X102738095Y-61900057D02*
X102785714Y-61995295D01*
X102785714Y-61995295D02*
X102785714Y-62090533D01*
X102785714Y-62090533D02*
X102738095Y-62233390D01*
X102738095Y-62233390D02*
X102166667Y-62804819D01*
X102166667Y-62804819D02*
X102785714Y-62804819D01*
X103642857Y-61804819D02*
X103452381Y-61804819D01*
X103452381Y-61804819D02*
X103357143Y-61852438D01*
X103357143Y-61852438D02*
X103309524Y-61900057D01*
X103309524Y-61900057D02*
X103214286Y-62042914D01*
X103214286Y-62042914D02*
X103166667Y-62233390D01*
X103166667Y-62233390D02*
X103166667Y-62614342D01*
X103166667Y-62614342D02*
X103214286Y-62709580D01*
X103214286Y-62709580D02*
X103261905Y-62757200D01*
X103261905Y-62757200D02*
X103357143Y-62804819D01*
X103357143Y-62804819D02*
X103547619Y-62804819D01*
X103547619Y-62804819D02*
X103642857Y-62757200D01*
X103642857Y-62757200D02*
X103690476Y-62709580D01*
X103690476Y-62709580D02*
X103738095Y-62614342D01*
X103738095Y-62614342D02*
X103738095Y-62376247D01*
X103738095Y-62376247D02*
X103690476Y-62281009D01*
X103690476Y-62281009D02*
X103642857Y-62233390D01*
X103642857Y-62233390D02*
X103547619Y-62185771D01*
X103547619Y-62185771D02*
X103357143Y-62185771D01*
X103357143Y-62185771D02*
X103261905Y-62233390D01*
X103261905Y-62233390D02*
X103214286Y-62281009D01*
X103214286Y-62281009D02*
X103166667Y-62376247D01*
X50880952Y-62804819D02*
X50547619Y-62328628D01*
X50309524Y-62804819D02*
X50309524Y-61804819D01*
X50309524Y-61804819D02*
X50690476Y-61804819D01*
X50690476Y-61804819D02*
X50785714Y-61852438D01*
X50785714Y-61852438D02*
X50833333Y-61900057D01*
X50833333Y-61900057D02*
X50880952Y-61995295D01*
X50880952Y-61995295D02*
X50880952Y-62138152D01*
X50880952Y-62138152D02*
X50833333Y-62233390D01*
X50833333Y-62233390D02*
X50785714Y-62281009D01*
X50785714Y-62281009D02*
X50690476Y-62328628D01*
X50690476Y-62328628D02*
X50309524Y-62328628D01*
X51214286Y-61804819D02*
X51833333Y-61804819D01*
X51833333Y-61804819D02*
X51500000Y-62185771D01*
X51500000Y-62185771D02*
X51642857Y-62185771D01*
X51642857Y-62185771D02*
X51738095Y-62233390D01*
X51738095Y-62233390D02*
X51785714Y-62281009D01*
X51785714Y-62281009D02*
X51833333Y-62376247D01*
X51833333Y-62376247D02*
X51833333Y-62614342D01*
X51833333Y-62614342D02*
X51785714Y-62709580D01*
X51785714Y-62709580D02*
X51738095Y-62757200D01*
X51738095Y-62757200D02*
X51642857Y-62804819D01*
X51642857Y-62804819D02*
X51357143Y-62804819D01*
X51357143Y-62804819D02*
X51261905Y-62757200D01*
X51261905Y-62757200D02*
X51214286Y-62709580D01*
X52452381Y-61804819D02*
X52547619Y-61804819D01*
X52547619Y-61804819D02*
X52642857Y-61852438D01*
X52642857Y-61852438D02*
X52690476Y-61900057D01*
X52690476Y-61900057D02*
X52738095Y-61995295D01*
X52738095Y-61995295D02*
X52785714Y-62185771D01*
X52785714Y-62185771D02*
X52785714Y-62423866D01*
X52785714Y-62423866D02*
X52738095Y-62614342D01*
X52738095Y-62614342D02*
X52690476Y-62709580D01*
X52690476Y-62709580D02*
X52642857Y-62757200D01*
X52642857Y-62757200D02*
X52547619Y-62804819D01*
X52547619Y-62804819D02*
X52452381Y-62804819D01*
X52452381Y-62804819D02*
X52357143Y-62757200D01*
X52357143Y-62757200D02*
X52309524Y-62709580D01*
X52309524Y-62709580D02*
X52261905Y-62614342D01*
X52261905Y-62614342D02*
X52214286Y-62423866D01*
X52214286Y-62423866D02*
X52214286Y-62185771D01*
X52214286Y-62185771D02*
X52261905Y-61995295D01*
X52261905Y-61995295D02*
X52309524Y-61900057D01*
X52309524Y-61900057D02*
X52357143Y-61852438D01*
X52357143Y-61852438D02*
X52452381Y-61804819D01*
X53166667Y-61900057D02*
X53214286Y-61852438D01*
X53214286Y-61852438D02*
X53309524Y-61804819D01*
X53309524Y-61804819D02*
X53547619Y-61804819D01*
X53547619Y-61804819D02*
X53642857Y-61852438D01*
X53642857Y-61852438D02*
X53690476Y-61900057D01*
X53690476Y-61900057D02*
X53738095Y-61995295D01*
X53738095Y-61995295D02*
X53738095Y-62090533D01*
X53738095Y-62090533D02*
X53690476Y-62233390D01*
X53690476Y-62233390D02*
X53119048Y-62804819D01*
X53119048Y-62804819D02*
X53738095Y-62804819D01*
X58880952Y-62804819D02*
X58547619Y-62328628D01*
X58309524Y-62804819D02*
X58309524Y-61804819D01*
X58309524Y-61804819D02*
X58690476Y-61804819D01*
X58690476Y-61804819D02*
X58785714Y-61852438D01*
X58785714Y-61852438D02*
X58833333Y-61900057D01*
X58833333Y-61900057D02*
X58880952Y-61995295D01*
X58880952Y-61995295D02*
X58880952Y-62138152D01*
X58880952Y-62138152D02*
X58833333Y-62233390D01*
X58833333Y-62233390D02*
X58785714Y-62281009D01*
X58785714Y-62281009D02*
X58690476Y-62328628D01*
X58690476Y-62328628D02*
X58309524Y-62328628D01*
X59214286Y-61804819D02*
X59833333Y-61804819D01*
X59833333Y-61804819D02*
X59500000Y-62185771D01*
X59500000Y-62185771D02*
X59642857Y-62185771D01*
X59642857Y-62185771D02*
X59738095Y-62233390D01*
X59738095Y-62233390D02*
X59785714Y-62281009D01*
X59785714Y-62281009D02*
X59833333Y-62376247D01*
X59833333Y-62376247D02*
X59833333Y-62614342D01*
X59833333Y-62614342D02*
X59785714Y-62709580D01*
X59785714Y-62709580D02*
X59738095Y-62757200D01*
X59738095Y-62757200D02*
X59642857Y-62804819D01*
X59642857Y-62804819D02*
X59357143Y-62804819D01*
X59357143Y-62804819D02*
X59261905Y-62757200D01*
X59261905Y-62757200D02*
X59214286Y-62709580D01*
X60785714Y-62804819D02*
X60214286Y-62804819D01*
X60500000Y-62804819D02*
X60500000Y-61804819D01*
X60500000Y-61804819D02*
X60404762Y-61947676D01*
X60404762Y-61947676D02*
X60309524Y-62042914D01*
X60309524Y-62042914D02*
X60214286Y-62090533D01*
X61404762Y-61804819D02*
X61500000Y-61804819D01*
X61500000Y-61804819D02*
X61595238Y-61852438D01*
X61595238Y-61852438D02*
X61642857Y-61900057D01*
X61642857Y-61900057D02*
X61690476Y-61995295D01*
X61690476Y-61995295D02*
X61738095Y-62185771D01*
X61738095Y-62185771D02*
X61738095Y-62423866D01*
X61738095Y-62423866D02*
X61690476Y-62614342D01*
X61690476Y-62614342D02*
X61642857Y-62709580D01*
X61642857Y-62709580D02*
X61595238Y-62757200D01*
X61595238Y-62757200D02*
X61500000Y-62804819D01*
X61500000Y-62804819D02*
X61404762Y-62804819D01*
X61404762Y-62804819D02*
X61309524Y-62757200D01*
X61309524Y-62757200D02*
X61261905Y-62709580D01*
X61261905Y-62709580D02*
X61214286Y-62614342D01*
X61214286Y-62614342D02*
X61166667Y-62423866D01*
X61166667Y-62423866D02*
X61166667Y-62185771D01*
X61166667Y-62185771D02*
X61214286Y-61995295D01*
X61214286Y-61995295D02*
X61261905Y-61900057D01*
X61261905Y-61900057D02*
X61309524Y-61852438D01*
X61309524Y-61852438D02*
X61404762Y-61804819D01*
X70309524Y-84454819D02*
X70309524Y-83454819D01*
X70309524Y-83454819D02*
X70547619Y-83454819D01*
X70547619Y-83454819D02*
X70690476Y-83502438D01*
X70690476Y-83502438D02*
X70785714Y-83597676D01*
X70785714Y-83597676D02*
X70833333Y-83692914D01*
X70833333Y-83692914D02*
X70880952Y-83883390D01*
X70880952Y-83883390D02*
X70880952Y-84026247D01*
X70880952Y-84026247D02*
X70833333Y-84216723D01*
X70833333Y-84216723D02*
X70785714Y-84311961D01*
X70785714Y-84311961D02*
X70690476Y-84407200D01*
X70690476Y-84407200D02*
X70547619Y-84454819D01*
X70547619Y-84454819D02*
X70309524Y-84454819D01*
X71214286Y-83454819D02*
X71833333Y-83454819D01*
X71833333Y-83454819D02*
X71500000Y-83835771D01*
X71500000Y-83835771D02*
X71642857Y-83835771D01*
X71642857Y-83835771D02*
X71738095Y-83883390D01*
X71738095Y-83883390D02*
X71785714Y-83931009D01*
X71785714Y-83931009D02*
X71833333Y-84026247D01*
X71833333Y-84026247D02*
X71833333Y-84264342D01*
X71833333Y-84264342D02*
X71785714Y-84359580D01*
X71785714Y-84359580D02*
X71738095Y-84407200D01*
X71738095Y-84407200D02*
X71642857Y-84454819D01*
X71642857Y-84454819D02*
X71357143Y-84454819D01*
X71357143Y-84454819D02*
X71261905Y-84407200D01*
X71261905Y-84407200D02*
X71214286Y-84359580D01*
X72452381Y-83454819D02*
X72547619Y-83454819D01*
X72547619Y-83454819D02*
X72642857Y-83502438D01*
X72642857Y-83502438D02*
X72690476Y-83550057D01*
X72690476Y-83550057D02*
X72738095Y-83645295D01*
X72738095Y-83645295D02*
X72785714Y-83835771D01*
X72785714Y-83835771D02*
X72785714Y-84073866D01*
X72785714Y-84073866D02*
X72738095Y-84264342D01*
X72738095Y-84264342D02*
X72690476Y-84359580D01*
X72690476Y-84359580D02*
X72642857Y-84407200D01*
X72642857Y-84407200D02*
X72547619Y-84454819D01*
X72547619Y-84454819D02*
X72452381Y-84454819D01*
X72452381Y-84454819D02*
X72357143Y-84407200D01*
X72357143Y-84407200D02*
X72309524Y-84359580D01*
X72309524Y-84359580D02*
X72261905Y-84264342D01*
X72261905Y-84264342D02*
X72214286Y-84073866D01*
X72214286Y-84073866D02*
X72214286Y-83835771D01*
X72214286Y-83835771D02*
X72261905Y-83645295D01*
X72261905Y-83645295D02*
X72309524Y-83550057D01*
X72309524Y-83550057D02*
X72357143Y-83502438D01*
X72357143Y-83502438D02*
X72452381Y-83454819D01*
X73738095Y-84454819D02*
X73166667Y-84454819D01*
X73452381Y-84454819D02*
X73452381Y-83454819D01*
X73452381Y-83454819D02*
X73357143Y-83597676D01*
X73357143Y-83597676D02*
X73261905Y-83692914D01*
X73261905Y-83692914D02*
X73166667Y-83740533D01*
X112880952Y-50804819D02*
X112547619Y-50328628D01*
X112309524Y-50804819D02*
X112309524Y-49804819D01*
X112309524Y-49804819D02*
X112690476Y-49804819D01*
X112690476Y-49804819D02*
X112785714Y-49852438D01*
X112785714Y-49852438D02*
X112833333Y-49900057D01*
X112833333Y-49900057D02*
X112880952Y-49995295D01*
X112880952Y-49995295D02*
X112880952Y-50138152D01*
X112880952Y-50138152D02*
X112833333Y-50233390D01*
X112833333Y-50233390D02*
X112785714Y-50281009D01*
X112785714Y-50281009D02*
X112690476Y-50328628D01*
X112690476Y-50328628D02*
X112309524Y-50328628D01*
X113214286Y-49804819D02*
X113833333Y-49804819D01*
X113833333Y-49804819D02*
X113500000Y-50185771D01*
X113500000Y-50185771D02*
X113642857Y-50185771D01*
X113642857Y-50185771D02*
X113738095Y-50233390D01*
X113738095Y-50233390D02*
X113785714Y-50281009D01*
X113785714Y-50281009D02*
X113833333Y-50376247D01*
X113833333Y-50376247D02*
X113833333Y-50614342D01*
X113833333Y-50614342D02*
X113785714Y-50709580D01*
X113785714Y-50709580D02*
X113738095Y-50757200D01*
X113738095Y-50757200D02*
X113642857Y-50804819D01*
X113642857Y-50804819D02*
X113357143Y-50804819D01*
X113357143Y-50804819D02*
X113261905Y-50757200D01*
X113261905Y-50757200D02*
X113214286Y-50709580D01*
X114690476Y-50138152D02*
X114690476Y-50804819D01*
X114452381Y-49757200D02*
X114214286Y-50471485D01*
X114214286Y-50471485D02*
X114833333Y-50471485D01*
X115166667Y-49900057D02*
X115214286Y-49852438D01*
X115214286Y-49852438D02*
X115309524Y-49804819D01*
X115309524Y-49804819D02*
X115547619Y-49804819D01*
X115547619Y-49804819D02*
X115642857Y-49852438D01*
X115642857Y-49852438D02*
X115690476Y-49900057D01*
X115690476Y-49900057D02*
X115738095Y-49995295D01*
X115738095Y-49995295D02*
X115738095Y-50090533D01*
X115738095Y-50090533D02*
X115690476Y-50233390D01*
X115690476Y-50233390D02*
X115119048Y-50804819D01*
X115119048Y-50804819D02*
X115738095Y-50804819D01*
X32759524Y-47954819D02*
X32759524Y-46954819D01*
X32759524Y-46954819D02*
X33140476Y-46954819D01*
X33140476Y-46954819D02*
X33235714Y-47002438D01*
X33235714Y-47002438D02*
X33283333Y-47050057D01*
X33283333Y-47050057D02*
X33330952Y-47145295D01*
X33330952Y-47145295D02*
X33330952Y-47288152D01*
X33330952Y-47288152D02*
X33283333Y-47383390D01*
X33283333Y-47383390D02*
X33235714Y-47431009D01*
X33235714Y-47431009D02*
X33140476Y-47478628D01*
X33140476Y-47478628D02*
X32759524Y-47478628D01*
X33664286Y-46954819D02*
X34283333Y-46954819D01*
X34283333Y-46954819D02*
X33950000Y-47335771D01*
X33950000Y-47335771D02*
X34092857Y-47335771D01*
X34092857Y-47335771D02*
X34188095Y-47383390D01*
X34188095Y-47383390D02*
X34235714Y-47431009D01*
X34235714Y-47431009D02*
X34283333Y-47526247D01*
X34283333Y-47526247D02*
X34283333Y-47764342D01*
X34283333Y-47764342D02*
X34235714Y-47859580D01*
X34235714Y-47859580D02*
X34188095Y-47907200D01*
X34188095Y-47907200D02*
X34092857Y-47954819D01*
X34092857Y-47954819D02*
X33807143Y-47954819D01*
X33807143Y-47954819D02*
X33711905Y-47907200D01*
X33711905Y-47907200D02*
X33664286Y-47859580D01*
X34902381Y-46954819D02*
X34997619Y-46954819D01*
X34997619Y-46954819D02*
X35092857Y-47002438D01*
X35092857Y-47002438D02*
X35140476Y-47050057D01*
X35140476Y-47050057D02*
X35188095Y-47145295D01*
X35188095Y-47145295D02*
X35235714Y-47335771D01*
X35235714Y-47335771D02*
X35235714Y-47573866D01*
X35235714Y-47573866D02*
X35188095Y-47764342D01*
X35188095Y-47764342D02*
X35140476Y-47859580D01*
X35140476Y-47859580D02*
X35092857Y-47907200D01*
X35092857Y-47907200D02*
X34997619Y-47954819D01*
X34997619Y-47954819D02*
X34902381Y-47954819D01*
X34902381Y-47954819D02*
X34807143Y-47907200D01*
X34807143Y-47907200D02*
X34759524Y-47859580D01*
X34759524Y-47859580D02*
X34711905Y-47764342D01*
X34711905Y-47764342D02*
X34664286Y-47573866D01*
X34664286Y-47573866D02*
X34664286Y-47335771D01*
X34664286Y-47335771D02*
X34711905Y-47145295D01*
X34711905Y-47145295D02*
X34759524Y-47050057D01*
X34759524Y-47050057D02*
X34807143Y-47002438D01*
X34807143Y-47002438D02*
X34902381Y-46954819D01*
X36188095Y-47954819D02*
X35616667Y-47954819D01*
X35902381Y-47954819D02*
X35902381Y-46954819D01*
X35902381Y-46954819D02*
X35807143Y-47097676D01*
X35807143Y-47097676D02*
X35711905Y-47192914D01*
X35711905Y-47192914D02*
X35616667Y-47240533D01*
X104880952Y-50804819D02*
X104547619Y-50328628D01*
X104309524Y-50804819D02*
X104309524Y-49804819D01*
X104309524Y-49804819D02*
X104690476Y-49804819D01*
X104690476Y-49804819D02*
X104785714Y-49852438D01*
X104785714Y-49852438D02*
X104833333Y-49900057D01*
X104833333Y-49900057D02*
X104880952Y-49995295D01*
X104880952Y-49995295D02*
X104880952Y-50138152D01*
X104880952Y-50138152D02*
X104833333Y-50233390D01*
X104833333Y-50233390D02*
X104785714Y-50281009D01*
X104785714Y-50281009D02*
X104690476Y-50328628D01*
X104690476Y-50328628D02*
X104309524Y-50328628D01*
X105214286Y-49804819D02*
X105833333Y-49804819D01*
X105833333Y-49804819D02*
X105500000Y-50185771D01*
X105500000Y-50185771D02*
X105642857Y-50185771D01*
X105642857Y-50185771D02*
X105738095Y-50233390D01*
X105738095Y-50233390D02*
X105785714Y-50281009D01*
X105785714Y-50281009D02*
X105833333Y-50376247D01*
X105833333Y-50376247D02*
X105833333Y-50614342D01*
X105833333Y-50614342D02*
X105785714Y-50709580D01*
X105785714Y-50709580D02*
X105738095Y-50757200D01*
X105738095Y-50757200D02*
X105642857Y-50804819D01*
X105642857Y-50804819D02*
X105357143Y-50804819D01*
X105357143Y-50804819D02*
X105261905Y-50757200D01*
X105261905Y-50757200D02*
X105214286Y-50709580D01*
X106690476Y-50138152D02*
X106690476Y-50804819D01*
X106452381Y-49757200D02*
X106214286Y-50471485D01*
X106214286Y-50471485D02*
X106833333Y-50471485D01*
X107738095Y-50804819D02*
X107166667Y-50804819D01*
X107452381Y-50804819D02*
X107452381Y-49804819D01*
X107452381Y-49804819D02*
X107357143Y-49947676D01*
X107357143Y-49947676D02*
X107261905Y-50042914D01*
X107261905Y-50042914D02*
X107166667Y-50090533D01*
X92880952Y-38804819D02*
X92547619Y-38328628D01*
X92309524Y-38804819D02*
X92309524Y-37804819D01*
X92309524Y-37804819D02*
X92690476Y-37804819D01*
X92690476Y-37804819D02*
X92785714Y-37852438D01*
X92785714Y-37852438D02*
X92833333Y-37900057D01*
X92833333Y-37900057D02*
X92880952Y-37995295D01*
X92880952Y-37995295D02*
X92880952Y-38138152D01*
X92880952Y-38138152D02*
X92833333Y-38233390D01*
X92833333Y-38233390D02*
X92785714Y-38281009D01*
X92785714Y-38281009D02*
X92690476Y-38328628D01*
X92690476Y-38328628D02*
X92309524Y-38328628D01*
X93214286Y-37804819D02*
X93833333Y-37804819D01*
X93833333Y-37804819D02*
X93500000Y-38185771D01*
X93500000Y-38185771D02*
X93642857Y-38185771D01*
X93642857Y-38185771D02*
X93738095Y-38233390D01*
X93738095Y-38233390D02*
X93785714Y-38281009D01*
X93785714Y-38281009D02*
X93833333Y-38376247D01*
X93833333Y-38376247D02*
X93833333Y-38614342D01*
X93833333Y-38614342D02*
X93785714Y-38709580D01*
X93785714Y-38709580D02*
X93738095Y-38757200D01*
X93738095Y-38757200D02*
X93642857Y-38804819D01*
X93642857Y-38804819D02*
X93357143Y-38804819D01*
X93357143Y-38804819D02*
X93261905Y-38757200D01*
X93261905Y-38757200D02*
X93214286Y-38709580D01*
X94214286Y-37900057D02*
X94261905Y-37852438D01*
X94261905Y-37852438D02*
X94357143Y-37804819D01*
X94357143Y-37804819D02*
X94595238Y-37804819D01*
X94595238Y-37804819D02*
X94690476Y-37852438D01*
X94690476Y-37852438D02*
X94738095Y-37900057D01*
X94738095Y-37900057D02*
X94785714Y-37995295D01*
X94785714Y-37995295D02*
X94785714Y-38090533D01*
X94785714Y-38090533D02*
X94738095Y-38233390D01*
X94738095Y-38233390D02*
X94166667Y-38804819D01*
X94166667Y-38804819D02*
X94785714Y-38804819D01*
X95119048Y-37804819D02*
X95738095Y-37804819D01*
X95738095Y-37804819D02*
X95404762Y-38185771D01*
X95404762Y-38185771D02*
X95547619Y-38185771D01*
X95547619Y-38185771D02*
X95642857Y-38233390D01*
X95642857Y-38233390D02*
X95690476Y-38281009D01*
X95690476Y-38281009D02*
X95738095Y-38376247D01*
X95738095Y-38376247D02*
X95738095Y-38614342D01*
X95738095Y-38614342D02*
X95690476Y-38709580D01*
X95690476Y-38709580D02*
X95642857Y-38757200D01*
X95642857Y-38757200D02*
X95547619Y-38804819D01*
X95547619Y-38804819D02*
X95261905Y-38804819D01*
X95261905Y-38804819D02*
X95166667Y-38757200D01*
X95166667Y-38757200D02*
X95119048Y-38709580D01*
X32759524Y-63954819D02*
X32759524Y-62954819D01*
X32759524Y-62954819D02*
X33140476Y-62954819D01*
X33140476Y-62954819D02*
X33235714Y-63002438D01*
X33235714Y-63002438D02*
X33283333Y-63050057D01*
X33283333Y-63050057D02*
X33330952Y-63145295D01*
X33330952Y-63145295D02*
X33330952Y-63288152D01*
X33330952Y-63288152D02*
X33283333Y-63383390D01*
X33283333Y-63383390D02*
X33235714Y-63431009D01*
X33235714Y-63431009D02*
X33140476Y-63478628D01*
X33140476Y-63478628D02*
X32759524Y-63478628D01*
X33664286Y-62954819D02*
X34283333Y-62954819D01*
X34283333Y-62954819D02*
X33950000Y-63335771D01*
X33950000Y-63335771D02*
X34092857Y-63335771D01*
X34092857Y-63335771D02*
X34188095Y-63383390D01*
X34188095Y-63383390D02*
X34235714Y-63431009D01*
X34235714Y-63431009D02*
X34283333Y-63526247D01*
X34283333Y-63526247D02*
X34283333Y-63764342D01*
X34283333Y-63764342D02*
X34235714Y-63859580D01*
X34235714Y-63859580D02*
X34188095Y-63907200D01*
X34188095Y-63907200D02*
X34092857Y-63954819D01*
X34092857Y-63954819D02*
X33807143Y-63954819D01*
X33807143Y-63954819D02*
X33711905Y-63907200D01*
X33711905Y-63907200D02*
X33664286Y-63859580D01*
X34902381Y-62954819D02*
X34997619Y-62954819D01*
X34997619Y-62954819D02*
X35092857Y-63002438D01*
X35092857Y-63002438D02*
X35140476Y-63050057D01*
X35140476Y-63050057D02*
X35188095Y-63145295D01*
X35188095Y-63145295D02*
X35235714Y-63335771D01*
X35235714Y-63335771D02*
X35235714Y-63573866D01*
X35235714Y-63573866D02*
X35188095Y-63764342D01*
X35188095Y-63764342D02*
X35140476Y-63859580D01*
X35140476Y-63859580D02*
X35092857Y-63907200D01*
X35092857Y-63907200D02*
X34997619Y-63954819D01*
X34997619Y-63954819D02*
X34902381Y-63954819D01*
X34902381Y-63954819D02*
X34807143Y-63907200D01*
X34807143Y-63907200D02*
X34759524Y-63859580D01*
X34759524Y-63859580D02*
X34711905Y-63764342D01*
X34711905Y-63764342D02*
X34664286Y-63573866D01*
X34664286Y-63573866D02*
X34664286Y-63335771D01*
X34664286Y-63335771D02*
X34711905Y-63145295D01*
X34711905Y-63145295D02*
X34759524Y-63050057D01*
X34759524Y-63050057D02*
X34807143Y-63002438D01*
X34807143Y-63002438D02*
X34902381Y-62954819D01*
X35569048Y-62954819D02*
X36188095Y-62954819D01*
X36188095Y-62954819D02*
X35854762Y-63335771D01*
X35854762Y-63335771D02*
X35997619Y-63335771D01*
X35997619Y-63335771D02*
X36092857Y-63383390D01*
X36092857Y-63383390D02*
X36140476Y-63431009D01*
X36140476Y-63431009D02*
X36188095Y-63526247D01*
X36188095Y-63526247D02*
X36188095Y-63764342D01*
X36188095Y-63764342D02*
X36140476Y-63859580D01*
X36140476Y-63859580D02*
X36092857Y-63907200D01*
X36092857Y-63907200D02*
X35997619Y-63954819D01*
X35997619Y-63954819D02*
X35711905Y-63954819D01*
X35711905Y-63954819D02*
X35616667Y-63907200D01*
X35616667Y-63907200D02*
X35569048Y-63859580D01*
X50880952Y-78679580D02*
X50833333Y-78727200D01*
X50833333Y-78727200D02*
X50690476Y-78774819D01*
X50690476Y-78774819D02*
X50595238Y-78774819D01*
X50595238Y-78774819D02*
X50452381Y-78727200D01*
X50452381Y-78727200D02*
X50357143Y-78631961D01*
X50357143Y-78631961D02*
X50309524Y-78536723D01*
X50309524Y-78536723D02*
X50261905Y-78346247D01*
X50261905Y-78346247D02*
X50261905Y-78203390D01*
X50261905Y-78203390D02*
X50309524Y-78012914D01*
X50309524Y-78012914D02*
X50357143Y-77917676D01*
X50357143Y-77917676D02*
X50452381Y-77822438D01*
X50452381Y-77822438D02*
X50595238Y-77774819D01*
X50595238Y-77774819D02*
X50690476Y-77774819D01*
X50690476Y-77774819D02*
X50833333Y-77822438D01*
X50833333Y-77822438D02*
X50880952Y-77870057D01*
X51214286Y-77774819D02*
X51833333Y-77774819D01*
X51833333Y-77774819D02*
X51500000Y-78155771D01*
X51500000Y-78155771D02*
X51642857Y-78155771D01*
X51642857Y-78155771D02*
X51738095Y-78203390D01*
X51738095Y-78203390D02*
X51785714Y-78251009D01*
X51785714Y-78251009D02*
X51833333Y-78346247D01*
X51833333Y-78346247D02*
X51833333Y-78584342D01*
X51833333Y-78584342D02*
X51785714Y-78679580D01*
X51785714Y-78679580D02*
X51738095Y-78727200D01*
X51738095Y-78727200D02*
X51642857Y-78774819D01*
X51642857Y-78774819D02*
X51357143Y-78774819D01*
X51357143Y-78774819D02*
X51261905Y-78727200D01*
X51261905Y-78727200D02*
X51214286Y-78679580D01*
X52309524Y-78774819D02*
X52500000Y-78774819D01*
X52500000Y-78774819D02*
X52595238Y-78727200D01*
X52595238Y-78727200D02*
X52642857Y-78679580D01*
X52642857Y-78679580D02*
X52738095Y-78536723D01*
X52738095Y-78536723D02*
X52785714Y-78346247D01*
X52785714Y-78346247D02*
X52785714Y-77965295D01*
X52785714Y-77965295D02*
X52738095Y-77870057D01*
X52738095Y-77870057D02*
X52690476Y-77822438D01*
X52690476Y-77822438D02*
X52595238Y-77774819D01*
X52595238Y-77774819D02*
X52404762Y-77774819D01*
X52404762Y-77774819D02*
X52309524Y-77822438D01*
X52309524Y-77822438D02*
X52261905Y-77870057D01*
X52261905Y-77870057D02*
X52214286Y-77965295D01*
X52214286Y-77965295D02*
X52214286Y-78203390D01*
X52214286Y-78203390D02*
X52261905Y-78298628D01*
X52261905Y-78298628D02*
X52309524Y-78346247D01*
X52309524Y-78346247D02*
X52404762Y-78393866D01*
X52404762Y-78393866D02*
X52595238Y-78393866D01*
X52595238Y-78393866D02*
X52690476Y-78346247D01*
X52690476Y-78346247D02*
X52738095Y-78298628D01*
X52738095Y-78298628D02*
X52785714Y-78203390D01*
X53166667Y-77870057D02*
X53214286Y-77822438D01*
X53214286Y-77822438D02*
X53309524Y-77774819D01*
X53309524Y-77774819D02*
X53547619Y-77774819D01*
X53547619Y-77774819D02*
X53642857Y-77822438D01*
X53642857Y-77822438D02*
X53690476Y-77870057D01*
X53690476Y-77870057D02*
X53738095Y-77965295D01*
X53738095Y-77965295D02*
X53738095Y-78060533D01*
X53738095Y-78060533D02*
X53690476Y-78203390D01*
X53690476Y-78203390D02*
X53119048Y-78774819D01*
X53119048Y-78774819D02*
X53738095Y-78774819D01*
X110880952Y-80804819D02*
X110547619Y-80328628D01*
X110309524Y-80804819D02*
X110309524Y-79804819D01*
X110309524Y-79804819D02*
X110690476Y-79804819D01*
X110690476Y-79804819D02*
X110785714Y-79852438D01*
X110785714Y-79852438D02*
X110833333Y-79900057D01*
X110833333Y-79900057D02*
X110880952Y-79995295D01*
X110880952Y-79995295D02*
X110880952Y-80138152D01*
X110880952Y-80138152D02*
X110833333Y-80233390D01*
X110833333Y-80233390D02*
X110785714Y-80281009D01*
X110785714Y-80281009D02*
X110690476Y-80328628D01*
X110690476Y-80328628D02*
X110309524Y-80328628D01*
X111214286Y-79804819D02*
X111833333Y-79804819D01*
X111833333Y-79804819D02*
X111500000Y-80185771D01*
X111500000Y-80185771D02*
X111642857Y-80185771D01*
X111642857Y-80185771D02*
X111738095Y-80233390D01*
X111738095Y-80233390D02*
X111785714Y-80281009D01*
X111785714Y-80281009D02*
X111833333Y-80376247D01*
X111833333Y-80376247D02*
X111833333Y-80614342D01*
X111833333Y-80614342D02*
X111785714Y-80709580D01*
X111785714Y-80709580D02*
X111738095Y-80757200D01*
X111738095Y-80757200D02*
X111642857Y-80804819D01*
X111642857Y-80804819D02*
X111357143Y-80804819D01*
X111357143Y-80804819D02*
X111261905Y-80757200D01*
X111261905Y-80757200D02*
X111214286Y-80709580D01*
X112166667Y-79804819D02*
X112785714Y-79804819D01*
X112785714Y-79804819D02*
X112452381Y-80185771D01*
X112452381Y-80185771D02*
X112595238Y-80185771D01*
X112595238Y-80185771D02*
X112690476Y-80233390D01*
X112690476Y-80233390D02*
X112738095Y-80281009D01*
X112738095Y-80281009D02*
X112785714Y-80376247D01*
X112785714Y-80376247D02*
X112785714Y-80614342D01*
X112785714Y-80614342D02*
X112738095Y-80709580D01*
X112738095Y-80709580D02*
X112690476Y-80757200D01*
X112690476Y-80757200D02*
X112595238Y-80804819D01*
X112595238Y-80804819D02*
X112309524Y-80804819D01*
X112309524Y-80804819D02*
X112214286Y-80757200D01*
X112214286Y-80757200D02*
X112166667Y-80709580D01*
X113738095Y-80804819D02*
X113166667Y-80804819D01*
X113452381Y-80804819D02*
X113452381Y-79804819D01*
X113452381Y-79804819D02*
X113357143Y-79947676D01*
X113357143Y-79947676D02*
X113261905Y-80042914D01*
X113261905Y-80042914D02*
X113166667Y-80090533D01*
X100880952Y-38804819D02*
X100547619Y-38328628D01*
X100309524Y-38804819D02*
X100309524Y-37804819D01*
X100309524Y-37804819D02*
X100690476Y-37804819D01*
X100690476Y-37804819D02*
X100785714Y-37852438D01*
X100785714Y-37852438D02*
X100833333Y-37900057D01*
X100833333Y-37900057D02*
X100880952Y-37995295D01*
X100880952Y-37995295D02*
X100880952Y-38138152D01*
X100880952Y-38138152D02*
X100833333Y-38233390D01*
X100833333Y-38233390D02*
X100785714Y-38281009D01*
X100785714Y-38281009D02*
X100690476Y-38328628D01*
X100690476Y-38328628D02*
X100309524Y-38328628D01*
X101214286Y-37804819D02*
X101833333Y-37804819D01*
X101833333Y-37804819D02*
X101500000Y-38185771D01*
X101500000Y-38185771D02*
X101642857Y-38185771D01*
X101642857Y-38185771D02*
X101738095Y-38233390D01*
X101738095Y-38233390D02*
X101785714Y-38281009D01*
X101785714Y-38281009D02*
X101833333Y-38376247D01*
X101833333Y-38376247D02*
X101833333Y-38614342D01*
X101833333Y-38614342D02*
X101785714Y-38709580D01*
X101785714Y-38709580D02*
X101738095Y-38757200D01*
X101738095Y-38757200D02*
X101642857Y-38804819D01*
X101642857Y-38804819D02*
X101357143Y-38804819D01*
X101357143Y-38804819D02*
X101261905Y-38757200D01*
X101261905Y-38757200D02*
X101214286Y-38709580D01*
X102214286Y-37900057D02*
X102261905Y-37852438D01*
X102261905Y-37852438D02*
X102357143Y-37804819D01*
X102357143Y-37804819D02*
X102595238Y-37804819D01*
X102595238Y-37804819D02*
X102690476Y-37852438D01*
X102690476Y-37852438D02*
X102738095Y-37900057D01*
X102738095Y-37900057D02*
X102785714Y-37995295D01*
X102785714Y-37995295D02*
X102785714Y-38090533D01*
X102785714Y-38090533D02*
X102738095Y-38233390D01*
X102738095Y-38233390D02*
X102166667Y-38804819D01*
X102166667Y-38804819D02*
X102785714Y-38804819D01*
X103690476Y-37804819D02*
X103214286Y-37804819D01*
X103214286Y-37804819D02*
X103166667Y-38281009D01*
X103166667Y-38281009D02*
X103214286Y-38233390D01*
X103214286Y-38233390D02*
X103309524Y-38185771D01*
X103309524Y-38185771D02*
X103547619Y-38185771D01*
X103547619Y-38185771D02*
X103642857Y-38233390D01*
X103642857Y-38233390D02*
X103690476Y-38281009D01*
X103690476Y-38281009D02*
X103738095Y-38376247D01*
X103738095Y-38376247D02*
X103738095Y-38614342D01*
X103738095Y-38614342D02*
X103690476Y-38709580D01*
X103690476Y-38709580D02*
X103642857Y-38757200D01*
X103642857Y-38757200D02*
X103547619Y-38804819D01*
X103547619Y-38804819D02*
X103309524Y-38804819D01*
X103309524Y-38804819D02*
X103214286Y-38757200D01*
X103214286Y-38757200D02*
X103166667Y-38709580D01*
X58880952Y-72059580D02*
X58833333Y-72107200D01*
X58833333Y-72107200D02*
X58690476Y-72154819D01*
X58690476Y-72154819D02*
X58595238Y-72154819D01*
X58595238Y-72154819D02*
X58452381Y-72107200D01*
X58452381Y-72107200D02*
X58357143Y-72011961D01*
X58357143Y-72011961D02*
X58309524Y-71916723D01*
X58309524Y-71916723D02*
X58261905Y-71726247D01*
X58261905Y-71726247D02*
X58261905Y-71583390D01*
X58261905Y-71583390D02*
X58309524Y-71392914D01*
X58309524Y-71392914D02*
X58357143Y-71297676D01*
X58357143Y-71297676D02*
X58452381Y-71202438D01*
X58452381Y-71202438D02*
X58595238Y-71154819D01*
X58595238Y-71154819D02*
X58690476Y-71154819D01*
X58690476Y-71154819D02*
X58833333Y-71202438D01*
X58833333Y-71202438D02*
X58880952Y-71250057D01*
X59214286Y-71154819D02*
X59833333Y-71154819D01*
X59833333Y-71154819D02*
X59500000Y-71535771D01*
X59500000Y-71535771D02*
X59642857Y-71535771D01*
X59642857Y-71535771D02*
X59738095Y-71583390D01*
X59738095Y-71583390D02*
X59785714Y-71631009D01*
X59785714Y-71631009D02*
X59833333Y-71726247D01*
X59833333Y-71726247D02*
X59833333Y-71964342D01*
X59833333Y-71964342D02*
X59785714Y-72059580D01*
X59785714Y-72059580D02*
X59738095Y-72107200D01*
X59738095Y-72107200D02*
X59642857Y-72154819D01*
X59642857Y-72154819D02*
X59357143Y-72154819D01*
X59357143Y-72154819D02*
X59261905Y-72107200D01*
X59261905Y-72107200D02*
X59214286Y-72059580D01*
X60309524Y-72154819D02*
X60500000Y-72154819D01*
X60500000Y-72154819D02*
X60595238Y-72107200D01*
X60595238Y-72107200D02*
X60642857Y-72059580D01*
X60642857Y-72059580D02*
X60738095Y-71916723D01*
X60738095Y-71916723D02*
X60785714Y-71726247D01*
X60785714Y-71726247D02*
X60785714Y-71345295D01*
X60785714Y-71345295D02*
X60738095Y-71250057D01*
X60738095Y-71250057D02*
X60690476Y-71202438D01*
X60690476Y-71202438D02*
X60595238Y-71154819D01*
X60595238Y-71154819D02*
X60404762Y-71154819D01*
X60404762Y-71154819D02*
X60309524Y-71202438D01*
X60309524Y-71202438D02*
X60261905Y-71250057D01*
X60261905Y-71250057D02*
X60214286Y-71345295D01*
X60214286Y-71345295D02*
X60214286Y-71583390D01*
X60214286Y-71583390D02*
X60261905Y-71678628D01*
X60261905Y-71678628D02*
X60309524Y-71726247D01*
X60309524Y-71726247D02*
X60404762Y-71773866D01*
X60404762Y-71773866D02*
X60595238Y-71773866D01*
X60595238Y-71773866D02*
X60690476Y-71726247D01*
X60690476Y-71726247D02*
X60738095Y-71678628D01*
X60738095Y-71678628D02*
X60785714Y-71583390D01*
X61119048Y-71154819D02*
X61738095Y-71154819D01*
X61738095Y-71154819D02*
X61404762Y-71535771D01*
X61404762Y-71535771D02*
X61547619Y-71535771D01*
X61547619Y-71535771D02*
X61642857Y-71583390D01*
X61642857Y-71583390D02*
X61690476Y-71631009D01*
X61690476Y-71631009D02*
X61738095Y-71726247D01*
X61738095Y-71726247D02*
X61738095Y-71964342D01*
X61738095Y-71964342D02*
X61690476Y-72059580D01*
X61690476Y-72059580D02*
X61642857Y-72107200D01*
X61642857Y-72107200D02*
X61547619Y-72154819D01*
X61547619Y-72154819D02*
X61261905Y-72154819D01*
X61261905Y-72154819D02*
X61166667Y-72107200D01*
X61166667Y-72107200D02*
X61119048Y-72059580D01*
X123238095Y-32304819D02*
X123238095Y-31304819D01*
X123238095Y-31781009D02*
X123809523Y-31781009D01*
X123809523Y-32304819D02*
X123809523Y-31304819D01*
X124238095Y-31400057D02*
X124285714Y-31352438D01*
X124285714Y-31352438D02*
X124380952Y-31304819D01*
X124380952Y-31304819D02*
X124619047Y-31304819D01*
X124619047Y-31304819D02*
X124714285Y-31352438D01*
X124714285Y-31352438D02*
X124761904Y-31400057D01*
X124761904Y-31400057D02*
X124809523Y-31495295D01*
X124809523Y-31495295D02*
X124809523Y-31590533D01*
X124809523Y-31590533D02*
X124761904Y-31733390D01*
X124761904Y-31733390D02*
X124190476Y-32304819D01*
X124190476Y-32304819D02*
X124809523Y-32304819D01*
X123859524Y-66954819D02*
X123859524Y-65954819D01*
X123859524Y-65954819D02*
X124240476Y-65954819D01*
X124240476Y-65954819D02*
X124335714Y-66002438D01*
X124335714Y-66002438D02*
X124383333Y-66050057D01*
X124383333Y-66050057D02*
X124430952Y-66145295D01*
X124430952Y-66145295D02*
X124430952Y-66288152D01*
X124430952Y-66288152D02*
X124383333Y-66383390D01*
X124383333Y-66383390D02*
X124335714Y-66431009D01*
X124335714Y-66431009D02*
X124240476Y-66478628D01*
X124240476Y-66478628D02*
X123859524Y-66478628D01*
X124764286Y-65954819D02*
X125383333Y-65954819D01*
X125383333Y-65954819D02*
X125050000Y-66335771D01*
X125050000Y-66335771D02*
X125192857Y-66335771D01*
X125192857Y-66335771D02*
X125288095Y-66383390D01*
X125288095Y-66383390D02*
X125335714Y-66431009D01*
X125335714Y-66431009D02*
X125383333Y-66526247D01*
X125383333Y-66526247D02*
X125383333Y-66764342D01*
X125383333Y-66764342D02*
X125335714Y-66859580D01*
X125335714Y-66859580D02*
X125288095Y-66907200D01*
X125288095Y-66907200D02*
X125192857Y-66954819D01*
X125192857Y-66954819D02*
X124907143Y-66954819D01*
X124907143Y-66954819D02*
X124811905Y-66907200D01*
X124811905Y-66907200D02*
X124764286Y-66859580D01*
X126002381Y-65954819D02*
X126097619Y-65954819D01*
X126097619Y-65954819D02*
X126192857Y-66002438D01*
X126192857Y-66002438D02*
X126240476Y-66050057D01*
X126240476Y-66050057D02*
X126288095Y-66145295D01*
X126288095Y-66145295D02*
X126335714Y-66335771D01*
X126335714Y-66335771D02*
X126335714Y-66573866D01*
X126335714Y-66573866D02*
X126288095Y-66764342D01*
X126288095Y-66764342D02*
X126240476Y-66859580D01*
X126240476Y-66859580D02*
X126192857Y-66907200D01*
X126192857Y-66907200D02*
X126097619Y-66954819D01*
X126097619Y-66954819D02*
X126002381Y-66954819D01*
X126002381Y-66954819D02*
X125907143Y-66907200D01*
X125907143Y-66907200D02*
X125859524Y-66859580D01*
X125859524Y-66859580D02*
X125811905Y-66764342D01*
X125811905Y-66764342D02*
X125764286Y-66573866D01*
X125764286Y-66573866D02*
X125764286Y-66335771D01*
X125764286Y-66335771D02*
X125811905Y-66145295D01*
X125811905Y-66145295D02*
X125859524Y-66050057D01*
X125859524Y-66050057D02*
X125907143Y-66002438D01*
X125907143Y-66002438D02*
X126002381Y-65954819D01*
X127192857Y-66288152D02*
X127192857Y-66954819D01*
X126954762Y-65907200D02*
X126716667Y-66621485D01*
X126716667Y-66621485D02*
X127335714Y-66621485D01*
X66880952Y-38804819D02*
X66547619Y-38328628D01*
X66309524Y-38804819D02*
X66309524Y-37804819D01*
X66309524Y-37804819D02*
X66690476Y-37804819D01*
X66690476Y-37804819D02*
X66785714Y-37852438D01*
X66785714Y-37852438D02*
X66833333Y-37900057D01*
X66833333Y-37900057D02*
X66880952Y-37995295D01*
X66880952Y-37995295D02*
X66880952Y-38138152D01*
X66880952Y-38138152D02*
X66833333Y-38233390D01*
X66833333Y-38233390D02*
X66785714Y-38281009D01*
X66785714Y-38281009D02*
X66690476Y-38328628D01*
X66690476Y-38328628D02*
X66309524Y-38328628D01*
X67214286Y-37804819D02*
X67833333Y-37804819D01*
X67833333Y-37804819D02*
X67500000Y-38185771D01*
X67500000Y-38185771D02*
X67642857Y-38185771D01*
X67642857Y-38185771D02*
X67738095Y-38233390D01*
X67738095Y-38233390D02*
X67785714Y-38281009D01*
X67785714Y-38281009D02*
X67833333Y-38376247D01*
X67833333Y-38376247D02*
X67833333Y-38614342D01*
X67833333Y-38614342D02*
X67785714Y-38709580D01*
X67785714Y-38709580D02*
X67738095Y-38757200D01*
X67738095Y-38757200D02*
X67642857Y-38804819D01*
X67642857Y-38804819D02*
X67357143Y-38804819D01*
X67357143Y-38804819D02*
X67261905Y-38757200D01*
X67261905Y-38757200D02*
X67214286Y-38709580D01*
X68785714Y-38804819D02*
X68214286Y-38804819D01*
X68500000Y-38804819D02*
X68500000Y-37804819D01*
X68500000Y-37804819D02*
X68404762Y-37947676D01*
X68404762Y-37947676D02*
X68309524Y-38042914D01*
X68309524Y-38042914D02*
X68214286Y-38090533D01*
X69738095Y-38804819D02*
X69166667Y-38804819D01*
X69452381Y-38804819D02*
X69452381Y-37804819D01*
X69452381Y-37804819D02*
X69357143Y-37947676D01*
X69357143Y-37947676D02*
X69261905Y-38042914D01*
X69261905Y-38042914D02*
X69166667Y-38090533D01*
X92119524Y-77954819D02*
X92119524Y-76954819D01*
X92690952Y-77954819D02*
X92262381Y-77383390D01*
X92690952Y-76954819D02*
X92119524Y-77526247D01*
X93024286Y-76954819D02*
X93643333Y-76954819D01*
X93643333Y-76954819D02*
X93310000Y-77335771D01*
X93310000Y-77335771D02*
X93452857Y-77335771D01*
X93452857Y-77335771D02*
X93548095Y-77383390D01*
X93548095Y-77383390D02*
X93595714Y-77431009D01*
X93595714Y-77431009D02*
X93643333Y-77526247D01*
X93643333Y-77526247D02*
X93643333Y-77764342D01*
X93643333Y-77764342D02*
X93595714Y-77859580D01*
X93595714Y-77859580D02*
X93548095Y-77907200D01*
X93548095Y-77907200D02*
X93452857Y-77954819D01*
X93452857Y-77954819D02*
X93167143Y-77954819D01*
X93167143Y-77954819D02*
X93071905Y-77907200D01*
X93071905Y-77907200D02*
X93024286Y-77859580D01*
X94262381Y-76954819D02*
X94357619Y-76954819D01*
X94357619Y-76954819D02*
X94452857Y-77002438D01*
X94452857Y-77002438D02*
X94500476Y-77050057D01*
X94500476Y-77050057D02*
X94548095Y-77145295D01*
X94548095Y-77145295D02*
X94595714Y-77335771D01*
X94595714Y-77335771D02*
X94595714Y-77573866D01*
X94595714Y-77573866D02*
X94548095Y-77764342D01*
X94548095Y-77764342D02*
X94500476Y-77859580D01*
X94500476Y-77859580D02*
X94452857Y-77907200D01*
X94452857Y-77907200D02*
X94357619Y-77954819D01*
X94357619Y-77954819D02*
X94262381Y-77954819D01*
X94262381Y-77954819D02*
X94167143Y-77907200D01*
X94167143Y-77907200D02*
X94119524Y-77859580D01*
X94119524Y-77859580D02*
X94071905Y-77764342D01*
X94071905Y-77764342D02*
X94024286Y-77573866D01*
X94024286Y-77573866D02*
X94024286Y-77335771D01*
X94024286Y-77335771D02*
X94071905Y-77145295D01*
X94071905Y-77145295D02*
X94119524Y-77050057D01*
X94119524Y-77050057D02*
X94167143Y-77002438D01*
X94167143Y-77002438D02*
X94262381Y-76954819D01*
X95548095Y-77954819D02*
X94976667Y-77954819D01*
X95262381Y-77954819D02*
X95262381Y-76954819D01*
X95262381Y-76954819D02*
X95167143Y-77097676D01*
X95167143Y-77097676D02*
X95071905Y-77192914D01*
X95071905Y-77192914D02*
X94976667Y-77240533D01*
X123238095Y-90304819D02*
X123238095Y-89304819D01*
X123238095Y-89781009D02*
X123809523Y-89781009D01*
X123809523Y-90304819D02*
X123809523Y-89304819D01*
X124714285Y-89638152D02*
X124714285Y-90304819D01*
X124476190Y-89257200D02*
X124238095Y-89971485D01*
X124238095Y-89971485D02*
X124857142Y-89971485D01*
X31409524Y-78494819D02*
X31409524Y-77494819D01*
X31409524Y-77494819D02*
X31790476Y-77494819D01*
X31790476Y-77494819D02*
X31885714Y-77542438D01*
X31885714Y-77542438D02*
X31933333Y-77590057D01*
X31933333Y-77590057D02*
X31980952Y-77685295D01*
X31980952Y-77685295D02*
X31980952Y-77828152D01*
X31980952Y-77828152D02*
X31933333Y-77923390D01*
X31933333Y-77923390D02*
X31885714Y-77971009D01*
X31885714Y-77971009D02*
X31790476Y-78018628D01*
X31790476Y-78018628D02*
X31409524Y-78018628D01*
X32314286Y-77494819D02*
X32933333Y-77494819D01*
X32933333Y-77494819D02*
X32600000Y-77875771D01*
X32600000Y-77875771D02*
X32742857Y-77875771D01*
X32742857Y-77875771D02*
X32838095Y-77923390D01*
X32838095Y-77923390D02*
X32885714Y-77971009D01*
X32885714Y-77971009D02*
X32933333Y-78066247D01*
X32933333Y-78066247D02*
X32933333Y-78304342D01*
X32933333Y-78304342D02*
X32885714Y-78399580D01*
X32885714Y-78399580D02*
X32838095Y-78447200D01*
X32838095Y-78447200D02*
X32742857Y-78494819D01*
X32742857Y-78494819D02*
X32457143Y-78494819D01*
X32457143Y-78494819D02*
X32361905Y-78447200D01*
X32361905Y-78447200D02*
X32314286Y-78399580D01*
X33552381Y-77494819D02*
X33647619Y-77494819D01*
X33647619Y-77494819D02*
X33742857Y-77542438D01*
X33742857Y-77542438D02*
X33790476Y-77590057D01*
X33790476Y-77590057D02*
X33838095Y-77685295D01*
X33838095Y-77685295D02*
X33885714Y-77875771D01*
X33885714Y-77875771D02*
X33885714Y-78113866D01*
X33885714Y-78113866D02*
X33838095Y-78304342D01*
X33838095Y-78304342D02*
X33790476Y-78399580D01*
X33790476Y-78399580D02*
X33742857Y-78447200D01*
X33742857Y-78447200D02*
X33647619Y-78494819D01*
X33647619Y-78494819D02*
X33552381Y-78494819D01*
X33552381Y-78494819D02*
X33457143Y-78447200D01*
X33457143Y-78447200D02*
X33409524Y-78399580D01*
X33409524Y-78399580D02*
X33361905Y-78304342D01*
X33361905Y-78304342D02*
X33314286Y-78113866D01*
X33314286Y-78113866D02*
X33314286Y-77875771D01*
X33314286Y-77875771D02*
X33361905Y-77685295D01*
X33361905Y-77685295D02*
X33409524Y-77590057D01*
X33409524Y-77590057D02*
X33457143Y-77542438D01*
X33457143Y-77542438D02*
X33552381Y-77494819D01*
X34742857Y-77494819D02*
X34552381Y-77494819D01*
X34552381Y-77494819D02*
X34457143Y-77542438D01*
X34457143Y-77542438D02*
X34409524Y-77590057D01*
X34409524Y-77590057D02*
X34314286Y-77732914D01*
X34314286Y-77732914D02*
X34266667Y-77923390D01*
X34266667Y-77923390D02*
X34266667Y-78304342D01*
X34266667Y-78304342D02*
X34314286Y-78399580D01*
X34314286Y-78399580D02*
X34361905Y-78447200D01*
X34361905Y-78447200D02*
X34457143Y-78494819D01*
X34457143Y-78494819D02*
X34647619Y-78494819D01*
X34647619Y-78494819D02*
X34742857Y-78447200D01*
X34742857Y-78447200D02*
X34790476Y-78399580D01*
X34790476Y-78399580D02*
X34838095Y-78304342D01*
X34838095Y-78304342D02*
X34838095Y-78066247D01*
X34838095Y-78066247D02*
X34790476Y-77971009D01*
X34790476Y-77971009D02*
X34742857Y-77923390D01*
X34742857Y-77923390D02*
X34647619Y-77875771D01*
X34647619Y-77875771D02*
X34457143Y-77875771D01*
X34457143Y-77875771D02*
X34361905Y-77923390D01*
X34361905Y-77923390D02*
X34314286Y-77971009D01*
X34314286Y-77971009D02*
X34266667Y-78066247D01*
X71559524Y-90904819D02*
X71559524Y-89904819D01*
X71559524Y-89904819D02*
X71940476Y-89904819D01*
X71940476Y-89904819D02*
X72035714Y-89952438D01*
X72035714Y-89952438D02*
X72083333Y-90000057D01*
X72083333Y-90000057D02*
X72130952Y-90095295D01*
X72130952Y-90095295D02*
X72130952Y-90238152D01*
X72130952Y-90238152D02*
X72083333Y-90333390D01*
X72083333Y-90333390D02*
X72035714Y-90381009D01*
X72035714Y-90381009D02*
X71940476Y-90428628D01*
X71940476Y-90428628D02*
X71559524Y-90428628D01*
X72464286Y-89904819D02*
X73083333Y-89904819D01*
X73083333Y-89904819D02*
X72750000Y-90285771D01*
X72750000Y-90285771D02*
X72892857Y-90285771D01*
X72892857Y-90285771D02*
X72988095Y-90333390D01*
X72988095Y-90333390D02*
X73035714Y-90381009D01*
X73035714Y-90381009D02*
X73083333Y-90476247D01*
X73083333Y-90476247D02*
X73083333Y-90714342D01*
X73083333Y-90714342D02*
X73035714Y-90809580D01*
X73035714Y-90809580D02*
X72988095Y-90857200D01*
X72988095Y-90857200D02*
X72892857Y-90904819D01*
X72892857Y-90904819D02*
X72607143Y-90904819D01*
X72607143Y-90904819D02*
X72511905Y-90857200D01*
X72511905Y-90857200D02*
X72464286Y-90809580D01*
X73702381Y-89904819D02*
X73797619Y-89904819D01*
X73797619Y-89904819D02*
X73892857Y-89952438D01*
X73892857Y-89952438D02*
X73940476Y-90000057D01*
X73940476Y-90000057D02*
X73988095Y-90095295D01*
X73988095Y-90095295D02*
X74035714Y-90285771D01*
X74035714Y-90285771D02*
X74035714Y-90523866D01*
X74035714Y-90523866D02*
X73988095Y-90714342D01*
X73988095Y-90714342D02*
X73940476Y-90809580D01*
X73940476Y-90809580D02*
X73892857Y-90857200D01*
X73892857Y-90857200D02*
X73797619Y-90904819D01*
X73797619Y-90904819D02*
X73702381Y-90904819D01*
X73702381Y-90904819D02*
X73607143Y-90857200D01*
X73607143Y-90857200D02*
X73559524Y-90809580D01*
X73559524Y-90809580D02*
X73511905Y-90714342D01*
X73511905Y-90714342D02*
X73464286Y-90523866D01*
X73464286Y-90523866D02*
X73464286Y-90285771D01*
X73464286Y-90285771D02*
X73511905Y-90095295D01*
X73511905Y-90095295D02*
X73559524Y-90000057D01*
X73559524Y-90000057D02*
X73607143Y-89952438D01*
X73607143Y-89952438D02*
X73702381Y-89904819D01*
X74369048Y-89904819D02*
X75035714Y-89904819D01*
X75035714Y-89904819D02*
X74607143Y-90904819D01*
X84880952Y-38804819D02*
X84547619Y-38328628D01*
X84309524Y-38804819D02*
X84309524Y-37804819D01*
X84309524Y-37804819D02*
X84690476Y-37804819D01*
X84690476Y-37804819D02*
X84785714Y-37852438D01*
X84785714Y-37852438D02*
X84833333Y-37900057D01*
X84833333Y-37900057D02*
X84880952Y-37995295D01*
X84880952Y-37995295D02*
X84880952Y-38138152D01*
X84880952Y-38138152D02*
X84833333Y-38233390D01*
X84833333Y-38233390D02*
X84785714Y-38281009D01*
X84785714Y-38281009D02*
X84690476Y-38328628D01*
X84690476Y-38328628D02*
X84309524Y-38328628D01*
X85214286Y-37804819D02*
X85833333Y-37804819D01*
X85833333Y-37804819D02*
X85500000Y-38185771D01*
X85500000Y-38185771D02*
X85642857Y-38185771D01*
X85642857Y-38185771D02*
X85738095Y-38233390D01*
X85738095Y-38233390D02*
X85785714Y-38281009D01*
X85785714Y-38281009D02*
X85833333Y-38376247D01*
X85833333Y-38376247D02*
X85833333Y-38614342D01*
X85833333Y-38614342D02*
X85785714Y-38709580D01*
X85785714Y-38709580D02*
X85738095Y-38757200D01*
X85738095Y-38757200D02*
X85642857Y-38804819D01*
X85642857Y-38804819D02*
X85357143Y-38804819D01*
X85357143Y-38804819D02*
X85261905Y-38757200D01*
X85261905Y-38757200D02*
X85214286Y-38709580D01*
X86214286Y-37900057D02*
X86261905Y-37852438D01*
X86261905Y-37852438D02*
X86357143Y-37804819D01*
X86357143Y-37804819D02*
X86595238Y-37804819D01*
X86595238Y-37804819D02*
X86690476Y-37852438D01*
X86690476Y-37852438D02*
X86738095Y-37900057D01*
X86738095Y-37900057D02*
X86785714Y-37995295D01*
X86785714Y-37995295D02*
X86785714Y-38090533D01*
X86785714Y-38090533D02*
X86738095Y-38233390D01*
X86738095Y-38233390D02*
X86166667Y-38804819D01*
X86166667Y-38804819D02*
X86785714Y-38804819D01*
X87738095Y-38804819D02*
X87166667Y-38804819D01*
X87452381Y-38804819D02*
X87452381Y-37804819D01*
X87452381Y-37804819D02*
X87357143Y-37947676D01*
X87357143Y-37947676D02*
X87261905Y-38042914D01*
X87261905Y-38042914D02*
X87166667Y-38090533D01*
X70880952Y-78624819D02*
X70547619Y-78148628D01*
X70309524Y-78624819D02*
X70309524Y-77624819D01*
X70309524Y-77624819D02*
X70690476Y-77624819D01*
X70690476Y-77624819D02*
X70785714Y-77672438D01*
X70785714Y-77672438D02*
X70833333Y-77720057D01*
X70833333Y-77720057D02*
X70880952Y-77815295D01*
X70880952Y-77815295D02*
X70880952Y-77958152D01*
X70880952Y-77958152D02*
X70833333Y-78053390D01*
X70833333Y-78053390D02*
X70785714Y-78101009D01*
X70785714Y-78101009D02*
X70690476Y-78148628D01*
X70690476Y-78148628D02*
X70309524Y-78148628D01*
X71214286Y-77624819D02*
X71833333Y-77624819D01*
X71833333Y-77624819D02*
X71500000Y-78005771D01*
X71500000Y-78005771D02*
X71642857Y-78005771D01*
X71642857Y-78005771D02*
X71738095Y-78053390D01*
X71738095Y-78053390D02*
X71785714Y-78101009D01*
X71785714Y-78101009D02*
X71833333Y-78196247D01*
X71833333Y-78196247D02*
X71833333Y-78434342D01*
X71833333Y-78434342D02*
X71785714Y-78529580D01*
X71785714Y-78529580D02*
X71738095Y-78577200D01*
X71738095Y-78577200D02*
X71642857Y-78624819D01*
X71642857Y-78624819D02*
X71357143Y-78624819D01*
X71357143Y-78624819D02*
X71261905Y-78577200D01*
X71261905Y-78577200D02*
X71214286Y-78529580D01*
X72738095Y-77624819D02*
X72261905Y-77624819D01*
X72261905Y-77624819D02*
X72214286Y-78101009D01*
X72214286Y-78101009D02*
X72261905Y-78053390D01*
X72261905Y-78053390D02*
X72357143Y-78005771D01*
X72357143Y-78005771D02*
X72595238Y-78005771D01*
X72595238Y-78005771D02*
X72690476Y-78053390D01*
X72690476Y-78053390D02*
X72738095Y-78101009D01*
X72738095Y-78101009D02*
X72785714Y-78196247D01*
X72785714Y-78196247D02*
X72785714Y-78434342D01*
X72785714Y-78434342D02*
X72738095Y-78529580D01*
X72738095Y-78529580D02*
X72690476Y-78577200D01*
X72690476Y-78577200D02*
X72595238Y-78624819D01*
X72595238Y-78624819D02*
X72357143Y-78624819D01*
X72357143Y-78624819D02*
X72261905Y-78577200D01*
X72261905Y-78577200D02*
X72214286Y-78529580D01*
X73738095Y-78624819D02*
X73166667Y-78624819D01*
X73452381Y-78624819D02*
X73452381Y-77624819D01*
X73452381Y-77624819D02*
X73357143Y-77767676D01*
X73357143Y-77767676D02*
X73261905Y-77862914D01*
X73261905Y-77862914D02*
X73166667Y-77910533D01*
X50880952Y-38804819D02*
X50547619Y-38328628D01*
X50309524Y-38804819D02*
X50309524Y-37804819D01*
X50309524Y-37804819D02*
X50690476Y-37804819D01*
X50690476Y-37804819D02*
X50785714Y-37852438D01*
X50785714Y-37852438D02*
X50833333Y-37900057D01*
X50833333Y-37900057D02*
X50880952Y-37995295D01*
X50880952Y-37995295D02*
X50880952Y-38138152D01*
X50880952Y-38138152D02*
X50833333Y-38233390D01*
X50833333Y-38233390D02*
X50785714Y-38281009D01*
X50785714Y-38281009D02*
X50690476Y-38328628D01*
X50690476Y-38328628D02*
X50309524Y-38328628D01*
X51214286Y-37804819D02*
X51833333Y-37804819D01*
X51833333Y-37804819D02*
X51500000Y-38185771D01*
X51500000Y-38185771D02*
X51642857Y-38185771D01*
X51642857Y-38185771D02*
X51738095Y-38233390D01*
X51738095Y-38233390D02*
X51785714Y-38281009D01*
X51785714Y-38281009D02*
X51833333Y-38376247D01*
X51833333Y-38376247D02*
X51833333Y-38614342D01*
X51833333Y-38614342D02*
X51785714Y-38709580D01*
X51785714Y-38709580D02*
X51738095Y-38757200D01*
X51738095Y-38757200D02*
X51642857Y-38804819D01*
X51642857Y-38804819D02*
X51357143Y-38804819D01*
X51357143Y-38804819D02*
X51261905Y-38757200D01*
X51261905Y-38757200D02*
X51214286Y-38709580D01*
X52452381Y-37804819D02*
X52547619Y-37804819D01*
X52547619Y-37804819D02*
X52642857Y-37852438D01*
X52642857Y-37852438D02*
X52690476Y-37900057D01*
X52690476Y-37900057D02*
X52738095Y-37995295D01*
X52738095Y-37995295D02*
X52785714Y-38185771D01*
X52785714Y-38185771D02*
X52785714Y-38423866D01*
X52785714Y-38423866D02*
X52738095Y-38614342D01*
X52738095Y-38614342D02*
X52690476Y-38709580D01*
X52690476Y-38709580D02*
X52642857Y-38757200D01*
X52642857Y-38757200D02*
X52547619Y-38804819D01*
X52547619Y-38804819D02*
X52452381Y-38804819D01*
X52452381Y-38804819D02*
X52357143Y-38757200D01*
X52357143Y-38757200D02*
X52309524Y-38709580D01*
X52309524Y-38709580D02*
X52261905Y-38614342D01*
X52261905Y-38614342D02*
X52214286Y-38423866D01*
X52214286Y-38423866D02*
X52214286Y-38185771D01*
X52214286Y-38185771D02*
X52261905Y-37995295D01*
X52261905Y-37995295D02*
X52309524Y-37900057D01*
X52309524Y-37900057D02*
X52357143Y-37852438D01*
X52357143Y-37852438D02*
X52452381Y-37804819D01*
X53738095Y-38804819D02*
X53166667Y-38804819D01*
X53452381Y-38804819D02*
X53452381Y-37804819D01*
X53452381Y-37804819D02*
X53357143Y-37947676D01*
X53357143Y-37947676D02*
X53261905Y-38042914D01*
X53261905Y-38042914D02*
X53166667Y-38090533D01*
X84880952Y-62804819D02*
X84547619Y-62328628D01*
X84309524Y-62804819D02*
X84309524Y-61804819D01*
X84309524Y-61804819D02*
X84690476Y-61804819D01*
X84690476Y-61804819D02*
X84785714Y-61852438D01*
X84785714Y-61852438D02*
X84833333Y-61900057D01*
X84833333Y-61900057D02*
X84880952Y-61995295D01*
X84880952Y-61995295D02*
X84880952Y-62138152D01*
X84880952Y-62138152D02*
X84833333Y-62233390D01*
X84833333Y-62233390D02*
X84785714Y-62281009D01*
X84785714Y-62281009D02*
X84690476Y-62328628D01*
X84690476Y-62328628D02*
X84309524Y-62328628D01*
X85214286Y-61804819D02*
X85833333Y-61804819D01*
X85833333Y-61804819D02*
X85500000Y-62185771D01*
X85500000Y-62185771D02*
X85642857Y-62185771D01*
X85642857Y-62185771D02*
X85738095Y-62233390D01*
X85738095Y-62233390D02*
X85785714Y-62281009D01*
X85785714Y-62281009D02*
X85833333Y-62376247D01*
X85833333Y-62376247D02*
X85833333Y-62614342D01*
X85833333Y-62614342D02*
X85785714Y-62709580D01*
X85785714Y-62709580D02*
X85738095Y-62757200D01*
X85738095Y-62757200D02*
X85642857Y-62804819D01*
X85642857Y-62804819D02*
X85357143Y-62804819D01*
X85357143Y-62804819D02*
X85261905Y-62757200D01*
X85261905Y-62757200D02*
X85214286Y-62709580D01*
X86214286Y-61900057D02*
X86261905Y-61852438D01*
X86261905Y-61852438D02*
X86357143Y-61804819D01*
X86357143Y-61804819D02*
X86595238Y-61804819D01*
X86595238Y-61804819D02*
X86690476Y-61852438D01*
X86690476Y-61852438D02*
X86738095Y-61900057D01*
X86738095Y-61900057D02*
X86785714Y-61995295D01*
X86785714Y-61995295D02*
X86785714Y-62090533D01*
X86785714Y-62090533D02*
X86738095Y-62233390D01*
X86738095Y-62233390D02*
X86166667Y-62804819D01*
X86166667Y-62804819D02*
X86785714Y-62804819D01*
X87166667Y-61900057D02*
X87214286Y-61852438D01*
X87214286Y-61852438D02*
X87309524Y-61804819D01*
X87309524Y-61804819D02*
X87547619Y-61804819D01*
X87547619Y-61804819D02*
X87642857Y-61852438D01*
X87642857Y-61852438D02*
X87690476Y-61900057D01*
X87690476Y-61900057D02*
X87738095Y-61995295D01*
X87738095Y-61995295D02*
X87738095Y-62090533D01*
X87738095Y-62090533D02*
X87690476Y-62233390D01*
X87690476Y-62233390D02*
X87119048Y-62804819D01*
X87119048Y-62804819D02*
X87738095Y-62804819D01*
X58880952Y-78059580D02*
X58833333Y-78107200D01*
X58833333Y-78107200D02*
X58690476Y-78154819D01*
X58690476Y-78154819D02*
X58595238Y-78154819D01*
X58595238Y-78154819D02*
X58452381Y-78107200D01*
X58452381Y-78107200D02*
X58357143Y-78011961D01*
X58357143Y-78011961D02*
X58309524Y-77916723D01*
X58309524Y-77916723D02*
X58261905Y-77726247D01*
X58261905Y-77726247D02*
X58261905Y-77583390D01*
X58261905Y-77583390D02*
X58309524Y-77392914D01*
X58309524Y-77392914D02*
X58357143Y-77297676D01*
X58357143Y-77297676D02*
X58452381Y-77202438D01*
X58452381Y-77202438D02*
X58595238Y-77154819D01*
X58595238Y-77154819D02*
X58690476Y-77154819D01*
X58690476Y-77154819D02*
X58833333Y-77202438D01*
X58833333Y-77202438D02*
X58880952Y-77250057D01*
X59214286Y-77154819D02*
X59833333Y-77154819D01*
X59833333Y-77154819D02*
X59500000Y-77535771D01*
X59500000Y-77535771D02*
X59642857Y-77535771D01*
X59642857Y-77535771D02*
X59738095Y-77583390D01*
X59738095Y-77583390D02*
X59785714Y-77631009D01*
X59785714Y-77631009D02*
X59833333Y-77726247D01*
X59833333Y-77726247D02*
X59833333Y-77964342D01*
X59833333Y-77964342D02*
X59785714Y-78059580D01*
X59785714Y-78059580D02*
X59738095Y-78107200D01*
X59738095Y-78107200D02*
X59642857Y-78154819D01*
X59642857Y-78154819D02*
X59357143Y-78154819D01*
X59357143Y-78154819D02*
X59261905Y-78107200D01*
X59261905Y-78107200D02*
X59214286Y-78059580D01*
X60309524Y-78154819D02*
X60500000Y-78154819D01*
X60500000Y-78154819D02*
X60595238Y-78107200D01*
X60595238Y-78107200D02*
X60642857Y-78059580D01*
X60642857Y-78059580D02*
X60738095Y-77916723D01*
X60738095Y-77916723D02*
X60785714Y-77726247D01*
X60785714Y-77726247D02*
X60785714Y-77345295D01*
X60785714Y-77345295D02*
X60738095Y-77250057D01*
X60738095Y-77250057D02*
X60690476Y-77202438D01*
X60690476Y-77202438D02*
X60595238Y-77154819D01*
X60595238Y-77154819D02*
X60404762Y-77154819D01*
X60404762Y-77154819D02*
X60309524Y-77202438D01*
X60309524Y-77202438D02*
X60261905Y-77250057D01*
X60261905Y-77250057D02*
X60214286Y-77345295D01*
X60214286Y-77345295D02*
X60214286Y-77583390D01*
X60214286Y-77583390D02*
X60261905Y-77678628D01*
X60261905Y-77678628D02*
X60309524Y-77726247D01*
X60309524Y-77726247D02*
X60404762Y-77773866D01*
X60404762Y-77773866D02*
X60595238Y-77773866D01*
X60595238Y-77773866D02*
X60690476Y-77726247D01*
X60690476Y-77726247D02*
X60738095Y-77678628D01*
X60738095Y-77678628D02*
X60785714Y-77583390D01*
X61642857Y-77488152D02*
X61642857Y-78154819D01*
X61404762Y-77107200D02*
X61166667Y-77821485D01*
X61166667Y-77821485D02*
X61785714Y-77821485D01*
X35238095Y-32304819D02*
X35238095Y-31304819D01*
X35238095Y-31781009D02*
X35809523Y-31781009D01*
X35809523Y-32304819D02*
X35809523Y-31304819D01*
X36809523Y-32304819D02*
X36238095Y-32304819D01*
X36523809Y-32304819D02*
X36523809Y-31304819D01*
X36523809Y-31304819D02*
X36428571Y-31447676D01*
X36428571Y-31447676D02*
X36333333Y-31542914D01*
X36333333Y-31542914D02*
X36238095Y-31590533D01*
X108880952Y-38679580D02*
X108833333Y-38727200D01*
X108833333Y-38727200D02*
X108690476Y-38774819D01*
X108690476Y-38774819D02*
X108595238Y-38774819D01*
X108595238Y-38774819D02*
X108452381Y-38727200D01*
X108452381Y-38727200D02*
X108357143Y-38631961D01*
X108357143Y-38631961D02*
X108309524Y-38536723D01*
X108309524Y-38536723D02*
X108261905Y-38346247D01*
X108261905Y-38346247D02*
X108261905Y-38203390D01*
X108261905Y-38203390D02*
X108309524Y-38012914D01*
X108309524Y-38012914D02*
X108357143Y-37917676D01*
X108357143Y-37917676D02*
X108452381Y-37822438D01*
X108452381Y-37822438D02*
X108595238Y-37774819D01*
X108595238Y-37774819D02*
X108690476Y-37774819D01*
X108690476Y-37774819D02*
X108833333Y-37822438D01*
X108833333Y-37822438D02*
X108880952Y-37870057D01*
X109214286Y-37774819D02*
X109833333Y-37774819D01*
X109833333Y-37774819D02*
X109500000Y-38155771D01*
X109500000Y-38155771D02*
X109642857Y-38155771D01*
X109642857Y-38155771D02*
X109738095Y-38203390D01*
X109738095Y-38203390D02*
X109785714Y-38251009D01*
X109785714Y-38251009D02*
X109833333Y-38346247D01*
X109833333Y-38346247D02*
X109833333Y-38584342D01*
X109833333Y-38584342D02*
X109785714Y-38679580D01*
X109785714Y-38679580D02*
X109738095Y-38727200D01*
X109738095Y-38727200D02*
X109642857Y-38774819D01*
X109642857Y-38774819D02*
X109357143Y-38774819D01*
X109357143Y-38774819D02*
X109261905Y-38727200D01*
X109261905Y-38727200D02*
X109214286Y-38679580D01*
X110214286Y-37870057D02*
X110261905Y-37822438D01*
X110261905Y-37822438D02*
X110357143Y-37774819D01*
X110357143Y-37774819D02*
X110595238Y-37774819D01*
X110595238Y-37774819D02*
X110690476Y-37822438D01*
X110690476Y-37822438D02*
X110738095Y-37870057D01*
X110738095Y-37870057D02*
X110785714Y-37965295D01*
X110785714Y-37965295D02*
X110785714Y-38060533D01*
X110785714Y-38060533D02*
X110738095Y-38203390D01*
X110738095Y-38203390D02*
X110166667Y-38774819D01*
X110166667Y-38774819D02*
X110785714Y-38774819D01*
X111738095Y-38774819D02*
X111166667Y-38774819D01*
X111452381Y-38774819D02*
X111452381Y-37774819D01*
X111452381Y-37774819D02*
X111357143Y-37917676D01*
X111357143Y-37917676D02*
X111261905Y-38012914D01*
X111261905Y-38012914D02*
X111166667Y-38060533D01*
X58880952Y-38804819D02*
X58547619Y-38328628D01*
X58309524Y-38804819D02*
X58309524Y-37804819D01*
X58309524Y-37804819D02*
X58690476Y-37804819D01*
X58690476Y-37804819D02*
X58785714Y-37852438D01*
X58785714Y-37852438D02*
X58833333Y-37900057D01*
X58833333Y-37900057D02*
X58880952Y-37995295D01*
X58880952Y-37995295D02*
X58880952Y-38138152D01*
X58880952Y-38138152D02*
X58833333Y-38233390D01*
X58833333Y-38233390D02*
X58785714Y-38281009D01*
X58785714Y-38281009D02*
X58690476Y-38328628D01*
X58690476Y-38328628D02*
X58309524Y-38328628D01*
X59214286Y-37804819D02*
X59833333Y-37804819D01*
X59833333Y-37804819D02*
X59500000Y-38185771D01*
X59500000Y-38185771D02*
X59642857Y-38185771D01*
X59642857Y-38185771D02*
X59738095Y-38233390D01*
X59738095Y-38233390D02*
X59785714Y-38281009D01*
X59785714Y-38281009D02*
X59833333Y-38376247D01*
X59833333Y-38376247D02*
X59833333Y-38614342D01*
X59833333Y-38614342D02*
X59785714Y-38709580D01*
X59785714Y-38709580D02*
X59738095Y-38757200D01*
X59738095Y-38757200D02*
X59642857Y-38804819D01*
X59642857Y-38804819D02*
X59357143Y-38804819D01*
X59357143Y-38804819D02*
X59261905Y-38757200D01*
X59261905Y-38757200D02*
X59214286Y-38709580D01*
X60452381Y-37804819D02*
X60547619Y-37804819D01*
X60547619Y-37804819D02*
X60642857Y-37852438D01*
X60642857Y-37852438D02*
X60690476Y-37900057D01*
X60690476Y-37900057D02*
X60738095Y-37995295D01*
X60738095Y-37995295D02*
X60785714Y-38185771D01*
X60785714Y-38185771D02*
X60785714Y-38423866D01*
X60785714Y-38423866D02*
X60738095Y-38614342D01*
X60738095Y-38614342D02*
X60690476Y-38709580D01*
X60690476Y-38709580D02*
X60642857Y-38757200D01*
X60642857Y-38757200D02*
X60547619Y-38804819D01*
X60547619Y-38804819D02*
X60452381Y-38804819D01*
X60452381Y-38804819D02*
X60357143Y-38757200D01*
X60357143Y-38757200D02*
X60309524Y-38709580D01*
X60309524Y-38709580D02*
X60261905Y-38614342D01*
X60261905Y-38614342D02*
X60214286Y-38423866D01*
X60214286Y-38423866D02*
X60214286Y-38185771D01*
X60214286Y-38185771D02*
X60261905Y-37995295D01*
X60261905Y-37995295D02*
X60309524Y-37900057D01*
X60309524Y-37900057D02*
X60357143Y-37852438D01*
X60357143Y-37852438D02*
X60452381Y-37804819D01*
X61261905Y-38804819D02*
X61452381Y-38804819D01*
X61452381Y-38804819D02*
X61547619Y-38757200D01*
X61547619Y-38757200D02*
X61595238Y-38709580D01*
X61595238Y-38709580D02*
X61690476Y-38566723D01*
X61690476Y-38566723D02*
X61738095Y-38376247D01*
X61738095Y-38376247D02*
X61738095Y-37995295D01*
X61738095Y-37995295D02*
X61690476Y-37900057D01*
X61690476Y-37900057D02*
X61642857Y-37852438D01*
X61642857Y-37852438D02*
X61547619Y-37804819D01*
X61547619Y-37804819D02*
X61357143Y-37804819D01*
X61357143Y-37804819D02*
X61261905Y-37852438D01*
X61261905Y-37852438D02*
X61214286Y-37900057D01*
X61214286Y-37900057D02*
X61166667Y-37995295D01*
X61166667Y-37995295D02*
X61166667Y-38233390D01*
X61166667Y-38233390D02*
X61214286Y-38328628D01*
X61214286Y-38328628D02*
X61261905Y-38376247D01*
X61261905Y-38376247D02*
X61357143Y-38423866D01*
X61357143Y-38423866D02*
X61547619Y-38423866D01*
X61547619Y-38423866D02*
X61642857Y-38376247D01*
X61642857Y-38376247D02*
X61690476Y-38328628D01*
X61690476Y-38328628D02*
X61738095Y-38233390D01*
X123859524Y-50954819D02*
X123859524Y-49954819D01*
X123859524Y-49954819D02*
X124240476Y-49954819D01*
X124240476Y-49954819D02*
X124335714Y-50002438D01*
X124335714Y-50002438D02*
X124383333Y-50050057D01*
X124383333Y-50050057D02*
X124430952Y-50145295D01*
X124430952Y-50145295D02*
X124430952Y-50288152D01*
X124430952Y-50288152D02*
X124383333Y-50383390D01*
X124383333Y-50383390D02*
X124335714Y-50431009D01*
X124335714Y-50431009D02*
X124240476Y-50478628D01*
X124240476Y-50478628D02*
X123859524Y-50478628D01*
X124764286Y-49954819D02*
X125383333Y-49954819D01*
X125383333Y-49954819D02*
X125050000Y-50335771D01*
X125050000Y-50335771D02*
X125192857Y-50335771D01*
X125192857Y-50335771D02*
X125288095Y-50383390D01*
X125288095Y-50383390D02*
X125335714Y-50431009D01*
X125335714Y-50431009D02*
X125383333Y-50526247D01*
X125383333Y-50526247D02*
X125383333Y-50764342D01*
X125383333Y-50764342D02*
X125335714Y-50859580D01*
X125335714Y-50859580D02*
X125288095Y-50907200D01*
X125288095Y-50907200D02*
X125192857Y-50954819D01*
X125192857Y-50954819D02*
X124907143Y-50954819D01*
X124907143Y-50954819D02*
X124811905Y-50907200D01*
X124811905Y-50907200D02*
X124764286Y-50859580D01*
X126002381Y-49954819D02*
X126097619Y-49954819D01*
X126097619Y-49954819D02*
X126192857Y-50002438D01*
X126192857Y-50002438D02*
X126240476Y-50050057D01*
X126240476Y-50050057D02*
X126288095Y-50145295D01*
X126288095Y-50145295D02*
X126335714Y-50335771D01*
X126335714Y-50335771D02*
X126335714Y-50573866D01*
X126335714Y-50573866D02*
X126288095Y-50764342D01*
X126288095Y-50764342D02*
X126240476Y-50859580D01*
X126240476Y-50859580D02*
X126192857Y-50907200D01*
X126192857Y-50907200D02*
X126097619Y-50954819D01*
X126097619Y-50954819D02*
X126002381Y-50954819D01*
X126002381Y-50954819D02*
X125907143Y-50907200D01*
X125907143Y-50907200D02*
X125859524Y-50859580D01*
X125859524Y-50859580D02*
X125811905Y-50764342D01*
X125811905Y-50764342D02*
X125764286Y-50573866D01*
X125764286Y-50573866D02*
X125764286Y-50335771D01*
X125764286Y-50335771D02*
X125811905Y-50145295D01*
X125811905Y-50145295D02*
X125859524Y-50050057D01*
X125859524Y-50050057D02*
X125907143Y-50002438D01*
X125907143Y-50002438D02*
X126002381Y-49954819D01*
X126716667Y-50050057D02*
X126764286Y-50002438D01*
X126764286Y-50002438D02*
X126859524Y-49954819D01*
X126859524Y-49954819D02*
X127097619Y-49954819D01*
X127097619Y-49954819D02*
X127192857Y-50002438D01*
X127192857Y-50002438D02*
X127240476Y-50050057D01*
X127240476Y-50050057D02*
X127288095Y-50145295D01*
X127288095Y-50145295D02*
X127288095Y-50240533D01*
X127288095Y-50240533D02*
X127240476Y-50383390D01*
X127240476Y-50383390D02*
X126669048Y-50954819D01*
X126669048Y-50954819D02*
X127288095Y-50954819D01*
X92880952Y-62804819D02*
X92547619Y-62328628D01*
X92309524Y-62804819D02*
X92309524Y-61804819D01*
X92309524Y-61804819D02*
X92690476Y-61804819D01*
X92690476Y-61804819D02*
X92785714Y-61852438D01*
X92785714Y-61852438D02*
X92833333Y-61900057D01*
X92833333Y-61900057D02*
X92880952Y-61995295D01*
X92880952Y-61995295D02*
X92880952Y-62138152D01*
X92880952Y-62138152D02*
X92833333Y-62233390D01*
X92833333Y-62233390D02*
X92785714Y-62281009D01*
X92785714Y-62281009D02*
X92690476Y-62328628D01*
X92690476Y-62328628D02*
X92309524Y-62328628D01*
X93214286Y-61804819D02*
X93833333Y-61804819D01*
X93833333Y-61804819D02*
X93500000Y-62185771D01*
X93500000Y-62185771D02*
X93642857Y-62185771D01*
X93642857Y-62185771D02*
X93738095Y-62233390D01*
X93738095Y-62233390D02*
X93785714Y-62281009D01*
X93785714Y-62281009D02*
X93833333Y-62376247D01*
X93833333Y-62376247D02*
X93833333Y-62614342D01*
X93833333Y-62614342D02*
X93785714Y-62709580D01*
X93785714Y-62709580D02*
X93738095Y-62757200D01*
X93738095Y-62757200D02*
X93642857Y-62804819D01*
X93642857Y-62804819D02*
X93357143Y-62804819D01*
X93357143Y-62804819D02*
X93261905Y-62757200D01*
X93261905Y-62757200D02*
X93214286Y-62709580D01*
X94214286Y-61900057D02*
X94261905Y-61852438D01*
X94261905Y-61852438D02*
X94357143Y-61804819D01*
X94357143Y-61804819D02*
X94595238Y-61804819D01*
X94595238Y-61804819D02*
X94690476Y-61852438D01*
X94690476Y-61852438D02*
X94738095Y-61900057D01*
X94738095Y-61900057D02*
X94785714Y-61995295D01*
X94785714Y-61995295D02*
X94785714Y-62090533D01*
X94785714Y-62090533D02*
X94738095Y-62233390D01*
X94738095Y-62233390D02*
X94166667Y-62804819D01*
X94166667Y-62804819D02*
X94785714Y-62804819D01*
X95642857Y-62138152D02*
X95642857Y-62804819D01*
X95404762Y-61757200D02*
X95166667Y-62471485D01*
X95166667Y-62471485D02*
X95785714Y-62471485D01*
X123859524Y-82954819D02*
X123859524Y-81954819D01*
X123859524Y-81954819D02*
X124240476Y-81954819D01*
X124240476Y-81954819D02*
X124335714Y-82002438D01*
X124335714Y-82002438D02*
X124383333Y-82050057D01*
X124383333Y-82050057D02*
X124430952Y-82145295D01*
X124430952Y-82145295D02*
X124430952Y-82288152D01*
X124430952Y-82288152D02*
X124383333Y-82383390D01*
X124383333Y-82383390D02*
X124335714Y-82431009D01*
X124335714Y-82431009D02*
X124240476Y-82478628D01*
X124240476Y-82478628D02*
X123859524Y-82478628D01*
X124764286Y-81954819D02*
X125383333Y-81954819D01*
X125383333Y-81954819D02*
X125050000Y-82335771D01*
X125050000Y-82335771D02*
X125192857Y-82335771D01*
X125192857Y-82335771D02*
X125288095Y-82383390D01*
X125288095Y-82383390D02*
X125335714Y-82431009D01*
X125335714Y-82431009D02*
X125383333Y-82526247D01*
X125383333Y-82526247D02*
X125383333Y-82764342D01*
X125383333Y-82764342D02*
X125335714Y-82859580D01*
X125335714Y-82859580D02*
X125288095Y-82907200D01*
X125288095Y-82907200D02*
X125192857Y-82954819D01*
X125192857Y-82954819D02*
X124907143Y-82954819D01*
X124907143Y-82954819D02*
X124811905Y-82907200D01*
X124811905Y-82907200D02*
X124764286Y-82859580D01*
X126002381Y-81954819D02*
X126097619Y-81954819D01*
X126097619Y-81954819D02*
X126192857Y-82002438D01*
X126192857Y-82002438D02*
X126240476Y-82050057D01*
X126240476Y-82050057D02*
X126288095Y-82145295D01*
X126288095Y-82145295D02*
X126335714Y-82335771D01*
X126335714Y-82335771D02*
X126335714Y-82573866D01*
X126335714Y-82573866D02*
X126288095Y-82764342D01*
X126288095Y-82764342D02*
X126240476Y-82859580D01*
X126240476Y-82859580D02*
X126192857Y-82907200D01*
X126192857Y-82907200D02*
X126097619Y-82954819D01*
X126097619Y-82954819D02*
X126002381Y-82954819D01*
X126002381Y-82954819D02*
X125907143Y-82907200D01*
X125907143Y-82907200D02*
X125859524Y-82859580D01*
X125859524Y-82859580D02*
X125811905Y-82764342D01*
X125811905Y-82764342D02*
X125764286Y-82573866D01*
X125764286Y-82573866D02*
X125764286Y-82335771D01*
X125764286Y-82335771D02*
X125811905Y-82145295D01*
X125811905Y-82145295D02*
X125859524Y-82050057D01*
X125859524Y-82050057D02*
X125907143Y-82002438D01*
X125907143Y-82002438D02*
X126002381Y-81954819D01*
X127240476Y-81954819D02*
X126764286Y-81954819D01*
X126764286Y-81954819D02*
X126716667Y-82431009D01*
X126716667Y-82431009D02*
X126764286Y-82383390D01*
X126764286Y-82383390D02*
X126859524Y-82335771D01*
X126859524Y-82335771D02*
X127097619Y-82335771D01*
X127097619Y-82335771D02*
X127192857Y-82383390D01*
X127192857Y-82383390D02*
X127240476Y-82431009D01*
X127240476Y-82431009D02*
X127288095Y-82526247D01*
X127288095Y-82526247D02*
X127288095Y-82764342D01*
X127288095Y-82764342D02*
X127240476Y-82859580D01*
X127240476Y-82859580D02*
X127192857Y-82907200D01*
X127192857Y-82907200D02*
X127097619Y-82954819D01*
X127097619Y-82954819D02*
X126859524Y-82954819D01*
X126859524Y-82954819D02*
X126764286Y-82907200D01*
X126764286Y-82907200D02*
X126716667Y-82859580D01*
X108880952Y-62679580D02*
X108833333Y-62727200D01*
X108833333Y-62727200D02*
X108690476Y-62774819D01*
X108690476Y-62774819D02*
X108595238Y-62774819D01*
X108595238Y-62774819D02*
X108452381Y-62727200D01*
X108452381Y-62727200D02*
X108357143Y-62631961D01*
X108357143Y-62631961D02*
X108309524Y-62536723D01*
X108309524Y-62536723D02*
X108261905Y-62346247D01*
X108261905Y-62346247D02*
X108261905Y-62203390D01*
X108261905Y-62203390D02*
X108309524Y-62012914D01*
X108309524Y-62012914D02*
X108357143Y-61917676D01*
X108357143Y-61917676D02*
X108452381Y-61822438D01*
X108452381Y-61822438D02*
X108595238Y-61774819D01*
X108595238Y-61774819D02*
X108690476Y-61774819D01*
X108690476Y-61774819D02*
X108833333Y-61822438D01*
X108833333Y-61822438D02*
X108880952Y-61870057D01*
X109214286Y-61774819D02*
X109833333Y-61774819D01*
X109833333Y-61774819D02*
X109500000Y-62155771D01*
X109500000Y-62155771D02*
X109642857Y-62155771D01*
X109642857Y-62155771D02*
X109738095Y-62203390D01*
X109738095Y-62203390D02*
X109785714Y-62251009D01*
X109785714Y-62251009D02*
X109833333Y-62346247D01*
X109833333Y-62346247D02*
X109833333Y-62584342D01*
X109833333Y-62584342D02*
X109785714Y-62679580D01*
X109785714Y-62679580D02*
X109738095Y-62727200D01*
X109738095Y-62727200D02*
X109642857Y-62774819D01*
X109642857Y-62774819D02*
X109357143Y-62774819D01*
X109357143Y-62774819D02*
X109261905Y-62727200D01*
X109261905Y-62727200D02*
X109214286Y-62679580D01*
X110214286Y-61870057D02*
X110261905Y-61822438D01*
X110261905Y-61822438D02*
X110357143Y-61774819D01*
X110357143Y-61774819D02*
X110595238Y-61774819D01*
X110595238Y-61774819D02*
X110690476Y-61822438D01*
X110690476Y-61822438D02*
X110738095Y-61870057D01*
X110738095Y-61870057D02*
X110785714Y-61965295D01*
X110785714Y-61965295D02*
X110785714Y-62060533D01*
X110785714Y-62060533D02*
X110738095Y-62203390D01*
X110738095Y-62203390D02*
X110166667Y-62774819D01*
X110166667Y-62774819D02*
X110785714Y-62774819D01*
X111166667Y-61870057D02*
X111214286Y-61822438D01*
X111214286Y-61822438D02*
X111309524Y-61774819D01*
X111309524Y-61774819D02*
X111547619Y-61774819D01*
X111547619Y-61774819D02*
X111642857Y-61822438D01*
X111642857Y-61822438D02*
X111690476Y-61870057D01*
X111690476Y-61870057D02*
X111738095Y-61965295D01*
X111738095Y-61965295D02*
X111738095Y-62060533D01*
X111738095Y-62060533D02*
X111690476Y-62203390D01*
X111690476Y-62203390D02*
X111119048Y-62774819D01*
X111119048Y-62774819D02*
X111738095Y-62774819D01*
X68285714Y-46174819D02*
X68285714Y-46984342D01*
X68285714Y-46984342D02*
X68333333Y-47079580D01*
X68333333Y-47079580D02*
X68380952Y-47127200D01*
X68380952Y-47127200D02*
X68476190Y-47174819D01*
X68476190Y-47174819D02*
X68666666Y-47174819D01*
X68666666Y-47174819D02*
X68761904Y-47127200D01*
X68761904Y-47127200D02*
X68809523Y-47079580D01*
X68809523Y-47079580D02*
X68857142Y-46984342D01*
X68857142Y-46984342D02*
X68857142Y-46174819D01*
X69238095Y-46174819D02*
X69857142Y-46174819D01*
X69857142Y-46174819D02*
X69523809Y-46555771D01*
X69523809Y-46555771D02*
X69666666Y-46555771D01*
X69666666Y-46555771D02*
X69761904Y-46603390D01*
X69761904Y-46603390D02*
X69809523Y-46651009D01*
X69809523Y-46651009D02*
X69857142Y-46746247D01*
X69857142Y-46746247D02*
X69857142Y-46984342D01*
X69857142Y-46984342D02*
X69809523Y-47079580D01*
X69809523Y-47079580D02*
X69761904Y-47127200D01*
X69761904Y-47127200D02*
X69666666Y-47174819D01*
X69666666Y-47174819D02*
X69380952Y-47174819D01*
X69380952Y-47174819D02*
X69285714Y-47127200D01*
X69285714Y-47127200D02*
X69238095Y-47079580D01*
X70476190Y-46174819D02*
X70571428Y-46174819D01*
X70571428Y-46174819D02*
X70666666Y-46222438D01*
X70666666Y-46222438D02*
X70714285Y-46270057D01*
X70714285Y-46270057D02*
X70761904Y-46365295D01*
X70761904Y-46365295D02*
X70809523Y-46555771D01*
X70809523Y-46555771D02*
X70809523Y-46793866D01*
X70809523Y-46793866D02*
X70761904Y-46984342D01*
X70761904Y-46984342D02*
X70714285Y-47079580D01*
X70714285Y-47079580D02*
X70666666Y-47127200D01*
X70666666Y-47127200D02*
X70571428Y-47174819D01*
X70571428Y-47174819D02*
X70476190Y-47174819D01*
X70476190Y-47174819D02*
X70380952Y-47127200D01*
X70380952Y-47127200D02*
X70333333Y-47079580D01*
X70333333Y-47079580D02*
X70285714Y-46984342D01*
X70285714Y-46984342D02*
X70238095Y-46793866D01*
X70238095Y-46793866D02*
X70238095Y-46555771D01*
X70238095Y-46555771D02*
X70285714Y-46365295D01*
X70285714Y-46365295D02*
X70333333Y-46270057D01*
X70333333Y-46270057D02*
X70380952Y-46222438D01*
X70380952Y-46222438D02*
X70476190Y-46174819D01*
X71761904Y-47174819D02*
X71190476Y-47174819D01*
X71476190Y-47174819D02*
X71476190Y-46174819D01*
X71476190Y-46174819D02*
X71380952Y-46317676D01*
X71380952Y-46317676D02*
X71285714Y-46412914D01*
X71285714Y-46412914D02*
X71190476Y-46460533D01*
X50880952Y-72679580D02*
X50833333Y-72727200D01*
X50833333Y-72727200D02*
X50690476Y-72774819D01*
X50690476Y-72774819D02*
X50595238Y-72774819D01*
X50595238Y-72774819D02*
X50452381Y-72727200D01*
X50452381Y-72727200D02*
X50357143Y-72631961D01*
X50357143Y-72631961D02*
X50309524Y-72536723D01*
X50309524Y-72536723D02*
X50261905Y-72346247D01*
X50261905Y-72346247D02*
X50261905Y-72203390D01*
X50261905Y-72203390D02*
X50309524Y-72012914D01*
X50309524Y-72012914D02*
X50357143Y-71917676D01*
X50357143Y-71917676D02*
X50452381Y-71822438D01*
X50452381Y-71822438D02*
X50595238Y-71774819D01*
X50595238Y-71774819D02*
X50690476Y-71774819D01*
X50690476Y-71774819D02*
X50833333Y-71822438D01*
X50833333Y-71822438D02*
X50880952Y-71870057D01*
X51214286Y-71774819D02*
X51833333Y-71774819D01*
X51833333Y-71774819D02*
X51500000Y-72155771D01*
X51500000Y-72155771D02*
X51642857Y-72155771D01*
X51642857Y-72155771D02*
X51738095Y-72203390D01*
X51738095Y-72203390D02*
X51785714Y-72251009D01*
X51785714Y-72251009D02*
X51833333Y-72346247D01*
X51833333Y-72346247D02*
X51833333Y-72584342D01*
X51833333Y-72584342D02*
X51785714Y-72679580D01*
X51785714Y-72679580D02*
X51738095Y-72727200D01*
X51738095Y-72727200D02*
X51642857Y-72774819D01*
X51642857Y-72774819D02*
X51357143Y-72774819D01*
X51357143Y-72774819D02*
X51261905Y-72727200D01*
X51261905Y-72727200D02*
X51214286Y-72679580D01*
X52309524Y-72774819D02*
X52500000Y-72774819D01*
X52500000Y-72774819D02*
X52595238Y-72727200D01*
X52595238Y-72727200D02*
X52642857Y-72679580D01*
X52642857Y-72679580D02*
X52738095Y-72536723D01*
X52738095Y-72536723D02*
X52785714Y-72346247D01*
X52785714Y-72346247D02*
X52785714Y-71965295D01*
X52785714Y-71965295D02*
X52738095Y-71870057D01*
X52738095Y-71870057D02*
X52690476Y-71822438D01*
X52690476Y-71822438D02*
X52595238Y-71774819D01*
X52595238Y-71774819D02*
X52404762Y-71774819D01*
X52404762Y-71774819D02*
X52309524Y-71822438D01*
X52309524Y-71822438D02*
X52261905Y-71870057D01*
X52261905Y-71870057D02*
X52214286Y-71965295D01*
X52214286Y-71965295D02*
X52214286Y-72203390D01*
X52214286Y-72203390D02*
X52261905Y-72298628D01*
X52261905Y-72298628D02*
X52309524Y-72346247D01*
X52309524Y-72346247D02*
X52404762Y-72393866D01*
X52404762Y-72393866D02*
X52595238Y-72393866D01*
X52595238Y-72393866D02*
X52690476Y-72346247D01*
X52690476Y-72346247D02*
X52738095Y-72298628D01*
X52738095Y-72298628D02*
X52785714Y-72203390D01*
X53738095Y-72774819D02*
X53166667Y-72774819D01*
X53452381Y-72774819D02*
X53452381Y-71774819D01*
X53452381Y-71774819D02*
X53357143Y-71917676D01*
X53357143Y-71917676D02*
X53261905Y-72012914D01*
X53261905Y-72012914D02*
X53166667Y-72060533D01*
X35238095Y-90304819D02*
X35238095Y-89304819D01*
X35238095Y-89781009D02*
X35809523Y-89781009D01*
X35809523Y-90304819D02*
X35809523Y-89304819D01*
X36190476Y-89304819D02*
X36809523Y-89304819D01*
X36809523Y-89304819D02*
X36476190Y-89685771D01*
X36476190Y-89685771D02*
X36619047Y-89685771D01*
X36619047Y-89685771D02*
X36714285Y-89733390D01*
X36714285Y-89733390D02*
X36761904Y-89781009D01*
X36761904Y-89781009D02*
X36809523Y-89876247D01*
X36809523Y-89876247D02*
X36809523Y-90114342D01*
X36809523Y-90114342D02*
X36761904Y-90209580D01*
X36761904Y-90209580D02*
X36714285Y-90257200D01*
X36714285Y-90257200D02*
X36619047Y-90304819D01*
X36619047Y-90304819D02*
X36333333Y-90304819D01*
X36333333Y-90304819D02*
X36238095Y-90257200D01*
X36238095Y-90257200D02*
X36190476Y-90209580D01*
X110880952Y-86804819D02*
X110547619Y-86328628D01*
X110309524Y-86804819D02*
X110309524Y-85804819D01*
X110309524Y-85804819D02*
X110690476Y-85804819D01*
X110690476Y-85804819D02*
X110785714Y-85852438D01*
X110785714Y-85852438D02*
X110833333Y-85900057D01*
X110833333Y-85900057D02*
X110880952Y-85995295D01*
X110880952Y-85995295D02*
X110880952Y-86138152D01*
X110880952Y-86138152D02*
X110833333Y-86233390D01*
X110833333Y-86233390D02*
X110785714Y-86281009D01*
X110785714Y-86281009D02*
X110690476Y-86328628D01*
X110690476Y-86328628D02*
X110309524Y-86328628D01*
X111214286Y-85804819D02*
X111833333Y-85804819D01*
X111833333Y-85804819D02*
X111500000Y-86185771D01*
X111500000Y-86185771D02*
X111642857Y-86185771D01*
X111642857Y-86185771D02*
X111738095Y-86233390D01*
X111738095Y-86233390D02*
X111785714Y-86281009D01*
X111785714Y-86281009D02*
X111833333Y-86376247D01*
X111833333Y-86376247D02*
X111833333Y-86614342D01*
X111833333Y-86614342D02*
X111785714Y-86709580D01*
X111785714Y-86709580D02*
X111738095Y-86757200D01*
X111738095Y-86757200D02*
X111642857Y-86804819D01*
X111642857Y-86804819D02*
X111357143Y-86804819D01*
X111357143Y-86804819D02*
X111261905Y-86757200D01*
X111261905Y-86757200D02*
X111214286Y-86709580D01*
X112166667Y-85804819D02*
X112785714Y-85804819D01*
X112785714Y-85804819D02*
X112452381Y-86185771D01*
X112452381Y-86185771D02*
X112595238Y-86185771D01*
X112595238Y-86185771D02*
X112690476Y-86233390D01*
X112690476Y-86233390D02*
X112738095Y-86281009D01*
X112738095Y-86281009D02*
X112785714Y-86376247D01*
X112785714Y-86376247D02*
X112785714Y-86614342D01*
X112785714Y-86614342D02*
X112738095Y-86709580D01*
X112738095Y-86709580D02*
X112690476Y-86757200D01*
X112690476Y-86757200D02*
X112595238Y-86804819D01*
X112595238Y-86804819D02*
X112309524Y-86804819D01*
X112309524Y-86804819D02*
X112214286Y-86757200D01*
X112214286Y-86757200D02*
X112166667Y-86709580D01*
X113166667Y-85900057D02*
X113214286Y-85852438D01*
X113214286Y-85852438D02*
X113309524Y-85804819D01*
X113309524Y-85804819D02*
X113547619Y-85804819D01*
X113547619Y-85804819D02*
X113642857Y-85852438D01*
X113642857Y-85852438D02*
X113690476Y-85900057D01*
X113690476Y-85900057D02*
X113738095Y-85995295D01*
X113738095Y-85995295D02*
X113738095Y-86090533D01*
X113738095Y-86090533D02*
X113690476Y-86233390D01*
X113690476Y-86233390D02*
X113119048Y-86804819D01*
X113119048Y-86804819D02*
X113738095Y-86804819D01*
X66880952Y-62804819D02*
X66547619Y-62328628D01*
X66309524Y-62804819D02*
X66309524Y-61804819D01*
X66309524Y-61804819D02*
X66690476Y-61804819D01*
X66690476Y-61804819D02*
X66785714Y-61852438D01*
X66785714Y-61852438D02*
X66833333Y-61900057D01*
X66833333Y-61900057D02*
X66880952Y-61995295D01*
X66880952Y-61995295D02*
X66880952Y-62138152D01*
X66880952Y-62138152D02*
X66833333Y-62233390D01*
X66833333Y-62233390D02*
X66785714Y-62281009D01*
X66785714Y-62281009D02*
X66690476Y-62328628D01*
X66690476Y-62328628D02*
X66309524Y-62328628D01*
X67214286Y-61804819D02*
X67833333Y-61804819D01*
X67833333Y-61804819D02*
X67500000Y-62185771D01*
X67500000Y-62185771D02*
X67642857Y-62185771D01*
X67642857Y-62185771D02*
X67738095Y-62233390D01*
X67738095Y-62233390D02*
X67785714Y-62281009D01*
X67785714Y-62281009D02*
X67833333Y-62376247D01*
X67833333Y-62376247D02*
X67833333Y-62614342D01*
X67833333Y-62614342D02*
X67785714Y-62709580D01*
X67785714Y-62709580D02*
X67738095Y-62757200D01*
X67738095Y-62757200D02*
X67642857Y-62804819D01*
X67642857Y-62804819D02*
X67357143Y-62804819D01*
X67357143Y-62804819D02*
X67261905Y-62757200D01*
X67261905Y-62757200D02*
X67214286Y-62709580D01*
X68785714Y-62804819D02*
X68214286Y-62804819D01*
X68500000Y-62804819D02*
X68500000Y-61804819D01*
X68500000Y-61804819D02*
X68404762Y-61947676D01*
X68404762Y-61947676D02*
X68309524Y-62042914D01*
X68309524Y-62042914D02*
X68214286Y-62090533D01*
X69166667Y-61900057D02*
X69214286Y-61852438D01*
X69214286Y-61852438D02*
X69309524Y-61804819D01*
X69309524Y-61804819D02*
X69547619Y-61804819D01*
X69547619Y-61804819D02*
X69642857Y-61852438D01*
X69642857Y-61852438D02*
X69690476Y-61900057D01*
X69690476Y-61900057D02*
X69738095Y-61995295D01*
X69738095Y-61995295D02*
X69738095Y-62090533D01*
X69738095Y-62090533D02*
X69690476Y-62233390D01*
X69690476Y-62233390D02*
X69119048Y-62804819D01*
X69119048Y-62804819D02*
X69738095Y-62804819D01*
%TO.C,R326*%
D11*
X101772936Y-63265000D02*
X102227064Y-63265000D01*
X101772936Y-64735000D02*
X102227064Y-64735000D01*
%TO.C,R302*%
X51772936Y-63265000D02*
X52227064Y-63265000D01*
X51772936Y-64735000D02*
X52227064Y-64735000D01*
%TO.C,R310*%
X59772936Y-63265000D02*
X60227064Y-63265000D01*
X59772936Y-64735000D02*
X60227064Y-64735000D01*
%TO.C,D301*%
X69640000Y-85000000D02*
X69640000Y-87000000D01*
X69640000Y-85000000D02*
X73650000Y-85000000D01*
X69640000Y-87000000D02*
X73650000Y-87000000D01*
%TO.C,R342*%
X113772936Y-51265000D02*
X114227064Y-51265000D01*
X113772936Y-52735000D02*
X114227064Y-52735000D01*
%TO.C,P301*%
X35250000Y-51600000D02*
X35250000Y-52850000D01*
X35250000Y-52850000D02*
X36500000Y-52850000D01*
X37800000Y-42450000D02*
X37800000Y-43200000D01*
X37800000Y-43200000D02*
X40750000Y-43200000D01*
X37800000Y-51800000D02*
X40750000Y-51800000D01*
X37800000Y-52550000D02*
X37800000Y-51800000D01*
X40750000Y-43200000D02*
X40750000Y-47500000D01*
X40750000Y-51800000D02*
X40750000Y-47500000D01*
X35540000Y-42440000D02*
X41510000Y-42440000D01*
X41510000Y-52560000D01*
X35540000Y-52560000D01*
X35540000Y-42440000D01*
X35550000Y-42450000D02*
X36300000Y-42450000D01*
X36300000Y-44250000D01*
X35550000Y-44250000D01*
X35550000Y-42450000D01*
X35550000Y-45750000D02*
X36300000Y-45750000D01*
X36300000Y-49250000D01*
X35550000Y-49250000D01*
X35550000Y-45750000D01*
X35550000Y-50750000D02*
X36300000Y-50750000D01*
X36300000Y-52550000D01*
X35550000Y-52550000D01*
X35550000Y-50750000D01*
%TO.C,R341*%
X105772936Y-51265000D02*
X106227064Y-51265000D01*
X105772936Y-52735000D02*
X106227064Y-52735000D01*
%TO.C,R323*%
X93772936Y-39265000D02*
X94227064Y-39265000D01*
X93772936Y-40735000D02*
X94227064Y-40735000D01*
%TO.C,P303*%
X35250000Y-67600000D02*
X35250000Y-68850000D01*
X35250000Y-68850000D02*
X36500000Y-68850000D01*
X37800000Y-58450000D02*
X37800000Y-59200000D01*
X37800000Y-59200000D02*
X40750000Y-59200000D01*
X37800000Y-67800000D02*
X40750000Y-67800000D01*
X37800000Y-68550000D02*
X37800000Y-67800000D01*
X40750000Y-59200000D02*
X40750000Y-63500000D01*
X40750000Y-67800000D02*
X40750000Y-63500000D01*
X35540000Y-58440000D02*
X41510000Y-58440000D01*
X41510000Y-68560000D01*
X35540000Y-68560000D01*
X35540000Y-58440000D01*
X35550000Y-58450000D02*
X36300000Y-58450000D01*
X36300000Y-60250000D01*
X35550000Y-60250000D01*
X35550000Y-58450000D01*
X35550000Y-61750000D02*
X36300000Y-61750000D01*
X36300000Y-65250000D01*
X35550000Y-65250000D01*
X35550000Y-61750000D01*
X35550000Y-66750000D02*
X36300000Y-66750000D01*
X36300000Y-68550000D01*
X35550000Y-68550000D01*
X35550000Y-66750000D01*
%TO.C,C392*%
X51738748Y-79265000D02*
X52261252Y-79265000D01*
X51738748Y-80735000D02*
X52261252Y-80735000D01*
%TO.C,R331*%
X111772936Y-81265000D02*
X112227064Y-81265000D01*
X111772936Y-82735000D02*
X112227064Y-82735000D01*
%TO.C,R325*%
X101772936Y-39265000D02*
X102227064Y-39265000D01*
X101772936Y-40735000D02*
X102227064Y-40735000D01*
%TO.C,C393*%
X59288748Y-72640000D02*
X60711252Y-72640000D01*
X59288748Y-75360000D02*
X60711252Y-75360000D01*
%TO.C,P304*%
X119250000Y-62200000D02*
X119250000Y-66500000D01*
X119250000Y-70800000D02*
X119250000Y-66500000D01*
X122200000Y-61450000D02*
X122200000Y-62200000D01*
X122200000Y-62200000D02*
X119250000Y-62200000D01*
X122200000Y-70800000D02*
X119250000Y-70800000D01*
X122200000Y-71550000D02*
X122200000Y-70800000D01*
X124750000Y-61150000D02*
X123500000Y-61150000D01*
X124750000Y-62400000D02*
X124750000Y-61150000D01*
X123700000Y-61450000D02*
X124450000Y-61450000D01*
X124450000Y-63250000D01*
X123700000Y-63250000D01*
X123700000Y-61450000D01*
X123700000Y-64750000D02*
X124450000Y-64750000D01*
X124450000Y-68250000D01*
X123700000Y-68250000D01*
X123700000Y-64750000D01*
X123700000Y-69750000D02*
X124450000Y-69750000D01*
X124450000Y-71550000D01*
X123700000Y-71550000D01*
X123700000Y-69750000D01*
X118490000Y-61440000D02*
X124460000Y-61440000D01*
X124460000Y-71560000D01*
X118490000Y-71560000D01*
X118490000Y-61440000D01*
%TO.C,R311*%
X67772936Y-39265000D02*
X68227064Y-39265000D01*
X67772936Y-40735000D02*
X68227064Y-40735000D01*
%TO.C,K301*%
X88460000Y-78450000D02*
X89670000Y-78450000D01*
X88460000Y-79750000D02*
X88460000Y-78450000D01*
X88620000Y-78600000D02*
X88620000Y-99190000D01*
X88620000Y-99190000D02*
X99000000Y-99190000D01*
X92300000Y-78600000D02*
X92300000Y-79640000D01*
X92300000Y-79660000D02*
X95300000Y-79660000D01*
X93470000Y-79810000D02*
X93470000Y-81010000D01*
X93470000Y-80440000D02*
X92370000Y-80440000D01*
X93470000Y-80610000D02*
X94170000Y-80210000D01*
X93470000Y-81010000D02*
X94170000Y-81010000D01*
X94170000Y-79810000D02*
X93470000Y-79810000D01*
X94170000Y-80440000D02*
X95270000Y-80440000D01*
X94170000Y-81010000D02*
X94170000Y-79810000D01*
X95300000Y-79660000D02*
X95300000Y-78600000D01*
X99000000Y-78600000D02*
X88620000Y-78600000D01*
X99000000Y-99190000D02*
X99000000Y-78600000D01*
%TO.C,P306*%
X34190000Y-73220000D02*
X35890000Y-73220000D01*
X34190000Y-82860000D02*
X34190000Y-73220000D01*
X35890000Y-72020000D02*
X42910000Y-72020000D01*
X35890000Y-73220000D02*
X35890000Y-72020000D01*
X35890000Y-82860000D02*
X34190000Y-82860000D01*
X35890000Y-84060000D02*
X35890000Y-82860000D01*
X37700000Y-84860000D02*
X38000000Y-84260000D01*
X38000000Y-84260000D02*
X38300000Y-84860000D01*
X38300000Y-84860000D02*
X37700000Y-84860000D01*
X42910000Y-72020000D02*
X42910000Y-84060000D01*
X42910000Y-84060000D02*
X35890000Y-84060000D01*
%TO.C,P307*%
X59150000Y-91250000D02*
X59150000Y-92500000D01*
X59450000Y-93800000D02*
X60200000Y-93800000D01*
X60200000Y-93800000D02*
X60200000Y-96750000D01*
X60200000Y-96750000D02*
X73250000Y-96750000D01*
X60400000Y-91250000D02*
X59150000Y-91250000D01*
X86300000Y-93800000D02*
X86300000Y-96750000D01*
X86300000Y-96750000D02*
X73250000Y-96750000D01*
X87050000Y-93800000D02*
X86300000Y-93800000D01*
X59440000Y-91540000D02*
X87060000Y-91540000D01*
X87060000Y-97510000D01*
X59440000Y-97510000D01*
X59440000Y-91540000D01*
X59450000Y-91550000D02*
X61250000Y-91550000D01*
X61250000Y-92300000D01*
X59450000Y-92300000D01*
X59450000Y-91550000D01*
X62750000Y-91550000D02*
X83750000Y-91550000D01*
X83750000Y-92300000D01*
X62750000Y-92300000D01*
X62750000Y-91550000D01*
X85250000Y-91550000D02*
X87050000Y-91550000D01*
X87050000Y-92300000D01*
X85250000Y-92300000D01*
X85250000Y-91550000D01*
%TO.C,R321*%
X85772936Y-39265000D02*
X86227064Y-39265000D01*
X85772936Y-40735000D02*
X86227064Y-40735000D01*
%TO.C,R351*%
X71272936Y-79090000D02*
X72727064Y-79090000D01*
X71272936Y-80910000D02*
X72727064Y-80910000D01*
%TO.C,R301*%
X51772936Y-39265000D02*
X52227064Y-39265000D01*
X51772936Y-40735000D02*
X52227064Y-40735000D01*
%TO.C,R322*%
X85772936Y-63265000D02*
X86227064Y-63265000D01*
X85772936Y-64735000D02*
X86227064Y-64735000D01*
%TO.C,C394*%
X59288748Y-78640000D02*
X60711252Y-78640000D01*
X59288748Y-81360000D02*
X60711252Y-81360000D01*
%TO.C,C321*%
X109738748Y-39265000D02*
X110261252Y-39265000D01*
X109738748Y-40735000D02*
X110261252Y-40735000D01*
%TO.C,R309*%
X59772936Y-39265000D02*
X60227064Y-39265000D01*
X59772936Y-40735000D02*
X60227064Y-40735000D01*
%TO.C,P302*%
X119250000Y-46200000D02*
X119250000Y-50500000D01*
X119250000Y-54800000D02*
X119250000Y-50500000D01*
X122200000Y-45450000D02*
X122200000Y-46200000D01*
X122200000Y-46200000D02*
X119250000Y-46200000D01*
X122200000Y-54800000D02*
X119250000Y-54800000D01*
X122200000Y-55550000D02*
X122200000Y-54800000D01*
X124750000Y-45150000D02*
X123500000Y-45150000D01*
X124750000Y-46400000D02*
X124750000Y-45150000D01*
X123700000Y-45450000D02*
X124450000Y-45450000D01*
X124450000Y-47250000D01*
X123700000Y-47250000D01*
X123700000Y-45450000D01*
X123700000Y-48750000D02*
X124450000Y-48750000D01*
X124450000Y-52250000D01*
X123700000Y-52250000D01*
X123700000Y-48750000D01*
X123700000Y-53750000D02*
X124450000Y-53750000D01*
X124450000Y-55550000D01*
X123700000Y-55550000D01*
X123700000Y-53750000D01*
X118490000Y-45440000D02*
X124460000Y-45440000D01*
X124460000Y-55560000D01*
X118490000Y-55560000D01*
X118490000Y-45440000D01*
%TO.C,R324*%
X93772936Y-63265000D02*
X94227064Y-63265000D01*
X93772936Y-64735000D02*
X94227064Y-64735000D01*
%TO.C,P305*%
X119250000Y-78200000D02*
X119250000Y-82500000D01*
X119250000Y-86800000D02*
X119250000Y-82500000D01*
X122200000Y-77450000D02*
X122200000Y-78200000D01*
X122200000Y-78200000D02*
X119250000Y-78200000D01*
X122200000Y-86800000D02*
X119250000Y-86800000D01*
X122200000Y-87550000D02*
X122200000Y-86800000D01*
X124750000Y-77150000D02*
X123500000Y-77150000D01*
X124750000Y-78400000D02*
X124750000Y-77150000D01*
X123700000Y-77450000D02*
X124450000Y-77450000D01*
X124450000Y-79250000D01*
X123700000Y-79250000D01*
X123700000Y-77450000D01*
X123700000Y-80750000D02*
X124450000Y-80750000D01*
X124450000Y-84250000D01*
X123700000Y-84250000D01*
X123700000Y-80750000D01*
X123700000Y-85750000D02*
X124450000Y-85750000D01*
X124450000Y-87550000D01*
X123700000Y-87550000D01*
X123700000Y-85750000D01*
X118490000Y-77440000D02*
X124460000Y-77440000D01*
X124460000Y-87560000D01*
X118490000Y-87560000D01*
X118490000Y-77440000D01*
%TO.C,C322*%
X109738748Y-63265000D02*
X110261252Y-63265000D01*
X109738748Y-64735000D02*
X110261252Y-64735000D01*
%TO.C,U301*%
X67940000Y-47565000D02*
X72060000Y-47565000D01*
X67940000Y-47630000D02*
X67940000Y-47565000D01*
X67940000Y-56435000D02*
X67940000Y-56370000D01*
X72060000Y-47565000D02*
X72060000Y-47630000D01*
X72060000Y-56370000D02*
X72060000Y-56435000D01*
X72060000Y-56435000D02*
X67940000Y-56435000D01*
X67400000Y-47630000D02*
X67160000Y-47300000D01*
X67640000Y-47300000D01*
X67400000Y-47630000D01*
G36*
X67400000Y-47630000D02*
G01*
X67160000Y-47300000D01*
X67640000Y-47300000D01*
X67400000Y-47630000D01*
G37*
%TO.C,C391*%
X51738748Y-73265000D02*
X52261252Y-73265000D01*
X51738748Y-74735000D02*
X52261252Y-74735000D01*
%TO.C,R332*%
X111772936Y-87265000D02*
X112227064Y-87265000D01*
X111772936Y-88735000D02*
X112227064Y-88735000D01*
%TO.C,R312*%
X67772936Y-63265000D02*
X68227064Y-63265000D01*
X67772936Y-64735000D02*
X68227064Y-64735000D01*
%TD*%
M02*
