%TF.GenerationSoftware,KiCad,Pcbnew,10.0.6*%
%TF.CreationDate,2026-09-21T00:52:01-06:00*%
%TF.ProjectId,control-deck,636f6e74-726f-46c2-9d64-65636b2e6b69,rev?*%
%TF.SameCoordinates,Original*%
%TF.FileFunction,Legend,Bot*%
%TF.FilePolarity,Positive*%
%FSLAX46Y46*%
G04 Gerber Fmt 4.6, Leading zero omitted, Abs format (unit mm)*
G04 Created by KiCad (PCBNEW 10.0.6) date 2026-09-21 00:52:01*
%MOMM*%
%LPD*%
G01*
G04 APERTURE LIST*
G04 Aperture macros list*
%AMRoundRect*
0 Rectangle with rounded corners*
0 $1 Rounding radius*
0 $2 $3 $4 $5 $6 $7 $8 $9 X,Y pos of 4 corners*
0 Add a 4 corners polygon primitive as box body*
4,1,4,$2,$3,$4,$5,$6,$7,$8,$9,$2,$3,0*
0 Add four circle primitives for the rounded corners*
1,1,$1+$1,$2,$3*
1,1,$1+$1,$4,$5*
1,1,$1+$1,$6,$7*
1,1,$1+$1,$8,$9*
0 Add four rect primitives between the rounded corners*
20,1,$1+$1,$2,$3,$4,$5,0*
20,1,$1+$1,$4,$5,$6,$7,0*
20,1,$1+$1,$6,$7,$8,$9,0*
20,1,$1+$1,$8,$9,$2,$3,0*%
G04 Aperture macros list end*
%ADD10C,0.150000*%
%ADD11C,0.120000*%
%ADD12R,2.600000X2.600000*%
%ADD13C,2.600000*%
%ADD14O,3.200000X1.500000*%
%ADD15O,1.500000X3.200000*%
%ADD16C,1.000000*%
%ADD17R,1.800000X1.800000*%
%ADD18C,1.800000*%
%ADD19RoundRect,0.500000X1.000000X-0.500000X1.000000X0.500000X-1.000000X0.500000X-1.000000X-0.500000X0*%
%ADD20O,2.500000X1.300000*%
%ADD21O,1.300000X2.500000*%
%ADD22RoundRect,0.500000X0.500000X1.000000X-0.500000X1.000000X-0.500000X-1.000000X0.500000X-1.000000X0*%
%ADD23RoundRect,0.500000X-0.500000X-1.000000X0.500000X-1.000000X0.500000X1.000000X-0.500000X1.000000X0*%
%ADD24RoundRect,0.500000X-1.000000X0.500000X-1.000000X-0.500000X1.000000X-0.500000X1.000000X0.500000X0*%
%ADD25RoundRect,0.250000X0.600000X0.725000X-0.600000X0.725000X-0.600000X-0.725000X0.600000X-0.725000X0*%
%ADD26O,1.700000X1.950000*%
%ADD27RoundRect,0.250001X1.099999X1.099999X-1.099999X1.099999X-1.099999X-1.099999X1.099999X-1.099999X0*%
%ADD28C,2.700000*%
%ADD29RoundRect,0.250000X0.600000X0.750000X-0.600000X0.750000X-0.600000X-0.750000X0.600000X-0.750000X0*%
%ADD30O,1.700000X2.000000*%
G04 APERTURE END LIST*
D10*
X42938094Y-17104819D02*
X42938094Y-16104819D01*
X42938094Y-16104819D02*
X42557142Y-16104819D01*
X42557142Y-16104819D02*
X42461904Y-16152438D01*
X42461904Y-16152438D02*
X42414285Y-16200057D01*
X42414285Y-16200057D02*
X42366666Y-16295295D01*
X42366666Y-16295295D02*
X42366666Y-16438152D01*
X42366666Y-16438152D02*
X42414285Y-16533390D01*
X42414285Y-16533390D02*
X42461904Y-16581009D01*
X42461904Y-16581009D02*
X42557142Y-16628628D01*
X42557142Y-16628628D02*
X42938094Y-16628628D01*
X41461904Y-16104819D02*
X41938094Y-16104819D01*
X41938094Y-16104819D02*
X41985713Y-16581009D01*
X41985713Y-16581009D02*
X41938094Y-16533390D01*
X41938094Y-16533390D02*
X41842856Y-16485771D01*
X41842856Y-16485771D02*
X41604761Y-16485771D01*
X41604761Y-16485771D02*
X41509523Y-16533390D01*
X41509523Y-16533390D02*
X41461904Y-16581009D01*
X41461904Y-16581009D02*
X41414285Y-16676247D01*
X41414285Y-16676247D02*
X41414285Y-16914342D01*
X41414285Y-16914342D02*
X41461904Y-17009580D01*
X41461904Y-17009580D02*
X41509523Y-17057200D01*
X41509523Y-17057200D02*
X41604761Y-17104819D01*
X41604761Y-17104819D02*
X41842856Y-17104819D01*
X41842856Y-17104819D02*
X41938094Y-17057200D01*
X41938094Y-17057200D02*
X41985713Y-17009580D01*
X66938094Y-17104819D02*
X66938094Y-16104819D01*
X66938094Y-16104819D02*
X66557142Y-16104819D01*
X66557142Y-16104819D02*
X66461904Y-16152438D01*
X66461904Y-16152438D02*
X66414285Y-16200057D01*
X66414285Y-16200057D02*
X66366666Y-16295295D01*
X66366666Y-16295295D02*
X66366666Y-16438152D01*
X66366666Y-16438152D02*
X66414285Y-16533390D01*
X66414285Y-16533390D02*
X66461904Y-16581009D01*
X66461904Y-16581009D02*
X66557142Y-16628628D01*
X66557142Y-16628628D02*
X66938094Y-16628628D01*
X65509523Y-16104819D02*
X65699999Y-16104819D01*
X65699999Y-16104819D02*
X65795237Y-16152438D01*
X65795237Y-16152438D02*
X65842856Y-16200057D01*
X65842856Y-16200057D02*
X65938094Y-16342914D01*
X65938094Y-16342914D02*
X65985713Y-16533390D01*
X65985713Y-16533390D02*
X65985713Y-16914342D01*
X65985713Y-16914342D02*
X65938094Y-17009580D01*
X65938094Y-17009580D02*
X65890475Y-17057200D01*
X65890475Y-17057200D02*
X65795237Y-17104819D01*
X65795237Y-17104819D02*
X65604761Y-17104819D01*
X65604761Y-17104819D02*
X65509523Y-17057200D01*
X65509523Y-17057200D02*
X65461904Y-17009580D01*
X65461904Y-17009580D02*
X65414285Y-16914342D01*
X65414285Y-16914342D02*
X65414285Y-16676247D01*
X65414285Y-16676247D02*
X65461904Y-16581009D01*
X65461904Y-16581009D02*
X65509523Y-16533390D01*
X65509523Y-16533390D02*
X65604761Y-16485771D01*
X65604761Y-16485771D02*
X65795237Y-16485771D01*
X65795237Y-16485771D02*
X65890475Y-16533390D01*
X65890475Y-16533390D02*
X65938094Y-16581009D01*
X65938094Y-16581009D02*
X65985713Y-16676247D01*
X58938094Y-129104819D02*
X58938094Y-128104819D01*
X58938094Y-128104819D02*
X58557142Y-128104819D01*
X58557142Y-128104819D02*
X58461904Y-128152438D01*
X58461904Y-128152438D02*
X58414285Y-128200057D01*
X58414285Y-128200057D02*
X58366666Y-128295295D01*
X58366666Y-128295295D02*
X58366666Y-128438152D01*
X58366666Y-128438152D02*
X58414285Y-128533390D01*
X58414285Y-128533390D02*
X58461904Y-128581009D01*
X58461904Y-128581009D02*
X58557142Y-128628628D01*
X58557142Y-128628628D02*
X58938094Y-128628628D01*
X58033332Y-128104819D02*
X57414285Y-128104819D01*
X57414285Y-128104819D02*
X57747618Y-128485771D01*
X57747618Y-128485771D02*
X57604761Y-128485771D01*
X57604761Y-128485771D02*
X57509523Y-128533390D01*
X57509523Y-128533390D02*
X57461904Y-128581009D01*
X57461904Y-128581009D02*
X57414285Y-128676247D01*
X57414285Y-128676247D02*
X57414285Y-128914342D01*
X57414285Y-128914342D02*
X57461904Y-129009580D01*
X57461904Y-129009580D02*
X57509523Y-129057200D01*
X57509523Y-129057200D02*
X57604761Y-129104819D01*
X57604761Y-129104819D02*
X57890475Y-129104819D01*
X57890475Y-129104819D02*
X57985713Y-129057200D01*
X57985713Y-129057200D02*
X58033332Y-129009580D01*
X102938094Y-89104819D02*
X102938094Y-88104819D01*
X102938094Y-88104819D02*
X102557142Y-88104819D01*
X102557142Y-88104819D02*
X102461904Y-88152438D01*
X102461904Y-88152438D02*
X102414285Y-88200057D01*
X102414285Y-88200057D02*
X102366666Y-88295295D01*
X102366666Y-88295295D02*
X102366666Y-88438152D01*
X102366666Y-88438152D02*
X102414285Y-88533390D01*
X102414285Y-88533390D02*
X102461904Y-88581009D01*
X102461904Y-88581009D02*
X102557142Y-88628628D01*
X102557142Y-88628628D02*
X102938094Y-88628628D01*
X101985713Y-88200057D02*
X101938094Y-88152438D01*
X101938094Y-88152438D02*
X101842856Y-88104819D01*
X101842856Y-88104819D02*
X101604761Y-88104819D01*
X101604761Y-88104819D02*
X101509523Y-88152438D01*
X101509523Y-88152438D02*
X101461904Y-88200057D01*
X101461904Y-88200057D02*
X101414285Y-88295295D01*
X101414285Y-88295295D02*
X101414285Y-88390533D01*
X101414285Y-88390533D02*
X101461904Y-88533390D01*
X101461904Y-88533390D02*
X102033332Y-89104819D01*
X102033332Y-89104819D02*
X101414285Y-89104819D01*
X94938094Y-129104819D02*
X94938094Y-128104819D01*
X94938094Y-128104819D02*
X94557142Y-128104819D01*
X94557142Y-128104819D02*
X94461904Y-128152438D01*
X94461904Y-128152438D02*
X94414285Y-128200057D01*
X94414285Y-128200057D02*
X94366666Y-128295295D01*
X94366666Y-128295295D02*
X94366666Y-128438152D01*
X94366666Y-128438152D02*
X94414285Y-128533390D01*
X94414285Y-128533390D02*
X94461904Y-128581009D01*
X94461904Y-128581009D02*
X94557142Y-128628628D01*
X94557142Y-128628628D02*
X94938094Y-128628628D01*
X93509523Y-128438152D02*
X93509523Y-129104819D01*
X93747618Y-128057200D02*
X93985713Y-128771485D01*
X93985713Y-128771485D02*
X93366666Y-128771485D01*
X104938094Y-15754819D02*
X104938094Y-14754819D01*
X104938094Y-14754819D02*
X104557142Y-14754819D01*
X104557142Y-14754819D02*
X104461904Y-14802438D01*
X104461904Y-14802438D02*
X104414285Y-14850057D01*
X104414285Y-14850057D02*
X104366666Y-14945295D01*
X104366666Y-14945295D02*
X104366666Y-15088152D01*
X104366666Y-15088152D02*
X104414285Y-15183390D01*
X104414285Y-15183390D02*
X104461904Y-15231009D01*
X104461904Y-15231009D02*
X104557142Y-15278628D01*
X104557142Y-15278628D02*
X104938094Y-15278628D01*
X103890475Y-15754819D02*
X103699999Y-15754819D01*
X103699999Y-15754819D02*
X103604761Y-15707200D01*
X103604761Y-15707200D02*
X103557142Y-15659580D01*
X103557142Y-15659580D02*
X103461904Y-15516723D01*
X103461904Y-15516723D02*
X103414285Y-15326247D01*
X103414285Y-15326247D02*
X103414285Y-14945295D01*
X103414285Y-14945295D02*
X103461904Y-14850057D01*
X103461904Y-14850057D02*
X103509523Y-14802438D01*
X103509523Y-14802438D02*
X103604761Y-14754819D01*
X103604761Y-14754819D02*
X103795237Y-14754819D01*
X103795237Y-14754819D02*
X103890475Y-14802438D01*
X103890475Y-14802438D02*
X103938094Y-14850057D01*
X103938094Y-14850057D02*
X103985713Y-14945295D01*
X103985713Y-14945295D02*
X103985713Y-15183390D01*
X103985713Y-15183390D02*
X103938094Y-15278628D01*
X103938094Y-15278628D02*
X103890475Y-15326247D01*
X103890475Y-15326247D02*
X103795237Y-15373866D01*
X103795237Y-15373866D02*
X103604761Y-15373866D01*
X103604761Y-15373866D02*
X103509523Y-15326247D01*
X103509523Y-15326247D02*
X103461904Y-15278628D01*
X103461904Y-15278628D02*
X103414285Y-15183390D01*
X116938094Y-17104819D02*
X116938094Y-16104819D01*
X116938094Y-16104819D02*
X116557142Y-16104819D01*
X116557142Y-16104819D02*
X116461904Y-16152438D01*
X116461904Y-16152438D02*
X116414285Y-16200057D01*
X116414285Y-16200057D02*
X116366666Y-16295295D01*
X116366666Y-16295295D02*
X116366666Y-16438152D01*
X116366666Y-16438152D02*
X116414285Y-16533390D01*
X116414285Y-16533390D02*
X116461904Y-16581009D01*
X116461904Y-16581009D02*
X116557142Y-16628628D01*
X116557142Y-16628628D02*
X116938094Y-16628628D01*
X115795237Y-16533390D02*
X115890475Y-16485771D01*
X115890475Y-16485771D02*
X115938094Y-16438152D01*
X115938094Y-16438152D02*
X115985713Y-16342914D01*
X115985713Y-16342914D02*
X115985713Y-16295295D01*
X115985713Y-16295295D02*
X115938094Y-16200057D01*
X115938094Y-16200057D02*
X115890475Y-16152438D01*
X115890475Y-16152438D02*
X115795237Y-16104819D01*
X115795237Y-16104819D02*
X115604761Y-16104819D01*
X115604761Y-16104819D02*
X115509523Y-16152438D01*
X115509523Y-16152438D02*
X115461904Y-16200057D01*
X115461904Y-16200057D02*
X115414285Y-16295295D01*
X115414285Y-16295295D02*
X115414285Y-16342914D01*
X115414285Y-16342914D02*
X115461904Y-16438152D01*
X115461904Y-16438152D02*
X115509523Y-16485771D01*
X115509523Y-16485771D02*
X115604761Y-16533390D01*
X115604761Y-16533390D02*
X115795237Y-16533390D01*
X115795237Y-16533390D02*
X115890475Y-16581009D01*
X115890475Y-16581009D02*
X115938094Y-16628628D01*
X115938094Y-16628628D02*
X115985713Y-16723866D01*
X115985713Y-16723866D02*
X115985713Y-16914342D01*
X115985713Y-16914342D02*
X115938094Y-17009580D01*
X115938094Y-17009580D02*
X115890475Y-17057200D01*
X115890475Y-17057200D02*
X115795237Y-17104819D01*
X115795237Y-17104819D02*
X115604761Y-17104819D01*
X115604761Y-17104819D02*
X115509523Y-17057200D01*
X115509523Y-17057200D02*
X115461904Y-17009580D01*
X115461904Y-17009580D02*
X115414285Y-16914342D01*
X115414285Y-16914342D02*
X115414285Y-16723866D01*
X115414285Y-16723866D02*
X115461904Y-16628628D01*
X115461904Y-16628628D02*
X115509523Y-16581009D01*
X115509523Y-16581009D02*
X115604761Y-16533390D01*
X50938094Y-89104819D02*
X50938094Y-88104819D01*
X50938094Y-88104819D02*
X50557142Y-88104819D01*
X50557142Y-88104819D02*
X50461904Y-88152438D01*
X50461904Y-88152438D02*
X50414285Y-88200057D01*
X50414285Y-88200057D02*
X50366666Y-88295295D01*
X50366666Y-88295295D02*
X50366666Y-88438152D01*
X50366666Y-88438152D02*
X50414285Y-88533390D01*
X50414285Y-88533390D02*
X50461904Y-88581009D01*
X50461904Y-88581009D02*
X50557142Y-88628628D01*
X50557142Y-88628628D02*
X50938094Y-88628628D01*
X49414285Y-89104819D02*
X49985713Y-89104819D01*
X49699999Y-89104819D02*
X49699999Y-88104819D01*
X49699999Y-88104819D02*
X49795237Y-88247676D01*
X49795237Y-88247676D02*
X49890475Y-88342914D01*
X49890475Y-88342914D02*
X49985713Y-88390533D01*
X88938094Y-17104819D02*
X88938094Y-16104819D01*
X88938094Y-16104819D02*
X88557142Y-16104819D01*
X88557142Y-16104819D02*
X88461904Y-16152438D01*
X88461904Y-16152438D02*
X88414285Y-16200057D01*
X88414285Y-16200057D02*
X88366666Y-16295295D01*
X88366666Y-16295295D02*
X88366666Y-16438152D01*
X88366666Y-16438152D02*
X88414285Y-16533390D01*
X88414285Y-16533390D02*
X88461904Y-16581009D01*
X88461904Y-16581009D02*
X88557142Y-16628628D01*
X88557142Y-16628628D02*
X88938094Y-16628628D01*
X88033332Y-16104819D02*
X87366666Y-16104819D01*
X87366666Y-16104819D02*
X87795237Y-17104819D01*
%TO.C,P5*%
D11*
X34650000Y-20000000D02*
X35400000Y-20000000D01*
X35400000Y-20000000D02*
X35400000Y-22950000D01*
X35400000Y-22950000D02*
X42200000Y-22950000D01*
X48800000Y-17450000D02*
X50050000Y-17450000D01*
X49000000Y-20000000D02*
X49000000Y-22950000D01*
X49000000Y-22950000D02*
X42200000Y-22950000D01*
X49750000Y-20000000D02*
X49000000Y-20000000D01*
X50050000Y-17450000D02*
X50050000Y-18700000D01*
X34650000Y-17750000D02*
X36450000Y-17750000D01*
X36450000Y-18500000D01*
X34650000Y-18500000D01*
X34650000Y-17750000D01*
X37950000Y-17750000D02*
X46450000Y-17750000D01*
X46450000Y-18500000D01*
X37950000Y-18500000D01*
X37950000Y-17750000D01*
X47950000Y-17750000D02*
X49750000Y-17750000D01*
X49750000Y-18500000D01*
X47950000Y-18500000D01*
X47950000Y-17750000D01*
X34640000Y-17740000D02*
X49760000Y-17740000D01*
X49760000Y-23710000D01*
X34640000Y-23710000D01*
X34640000Y-17740000D01*
%TO.C,P6*%
X56150000Y-20000000D02*
X56900000Y-20000000D01*
X56900000Y-20000000D02*
X56900000Y-22950000D01*
X56900000Y-22950000D02*
X66200000Y-22950000D01*
X75300000Y-17450000D02*
X76550000Y-17450000D01*
X75500000Y-20000000D02*
X75500000Y-22950000D01*
X75500000Y-22950000D02*
X66200000Y-22950000D01*
X76250000Y-20000000D02*
X75500000Y-20000000D01*
X76550000Y-17450000D02*
X76550000Y-18700000D01*
X56150000Y-17750000D02*
X57950000Y-17750000D01*
X57950000Y-18500000D01*
X56150000Y-18500000D01*
X56150000Y-17750000D01*
X59450000Y-17750000D02*
X72950000Y-17750000D01*
X72950000Y-18500000D01*
X59450000Y-18500000D01*
X59450000Y-17750000D01*
X74450000Y-17750000D02*
X76250000Y-17750000D01*
X76250000Y-18500000D01*
X74450000Y-18500000D01*
X74450000Y-17750000D01*
X56140000Y-17740000D02*
X76260000Y-17740000D01*
X76260000Y-23710000D01*
X56140000Y-23710000D01*
X56140000Y-17740000D01*
%TO.C,P3*%
X49400000Y-132000000D02*
X50150000Y-132000000D01*
X50150000Y-132000000D02*
X50150000Y-134950000D01*
X50150000Y-134950000D02*
X58200000Y-134950000D01*
X66050000Y-129450000D02*
X67300000Y-129450000D01*
X66250000Y-132000000D02*
X66250000Y-134950000D01*
X66250000Y-134950000D02*
X58200000Y-134950000D01*
X67000000Y-132000000D02*
X66250000Y-132000000D01*
X67300000Y-129450000D02*
X67300000Y-130700000D01*
X49400000Y-129750000D02*
X51200000Y-129750000D01*
X51200000Y-130500000D01*
X49400000Y-130500000D01*
X49400000Y-129750000D01*
X52700000Y-129750000D02*
X63700000Y-129750000D01*
X63700000Y-130500000D01*
X52700000Y-130500000D01*
X52700000Y-129750000D01*
X65200000Y-129750000D02*
X67000000Y-129750000D01*
X67000000Y-130500000D01*
X65200000Y-130500000D01*
X65200000Y-129750000D01*
X49390000Y-129740000D02*
X67010000Y-129740000D01*
X67010000Y-135710000D01*
X49390000Y-135710000D01*
X49390000Y-129740000D01*
%TO.C,P2*%
X85900000Y-92000000D02*
X86650000Y-92000000D01*
X86650000Y-92000000D02*
X86650000Y-94950000D01*
X86650000Y-94950000D02*
X102200000Y-94950000D01*
X117550000Y-89450000D02*
X118800000Y-89450000D01*
X117750000Y-92000000D02*
X117750000Y-94950000D01*
X117750000Y-94950000D02*
X102200000Y-94950000D01*
X118500000Y-92000000D02*
X117750000Y-92000000D01*
X118800000Y-89450000D02*
X118800000Y-90700000D01*
X85900000Y-89750000D02*
X87700000Y-89750000D01*
X87700000Y-90500000D01*
X85900000Y-90500000D01*
X85900000Y-89750000D01*
X89200000Y-89750000D02*
X115200000Y-89750000D01*
X115200000Y-90500000D01*
X89200000Y-90500000D01*
X89200000Y-89750000D01*
X116700000Y-89750000D02*
X118500000Y-89750000D01*
X118500000Y-90500000D01*
X116700000Y-90500000D01*
X116700000Y-89750000D01*
X85890000Y-89740000D02*
X118510000Y-89740000D01*
X118510000Y-95710000D01*
X85890000Y-95710000D01*
X85890000Y-89740000D01*
%TO.C,P4*%
X85400000Y-132000000D02*
X86150000Y-132000000D01*
X86150000Y-132000000D02*
X86150000Y-134950000D01*
X86150000Y-134950000D02*
X94200000Y-134950000D01*
X102050000Y-129450000D02*
X103300000Y-129450000D01*
X102250000Y-132000000D02*
X102250000Y-134950000D01*
X102250000Y-134950000D02*
X94200000Y-134950000D01*
X103000000Y-132000000D02*
X102250000Y-132000000D01*
X103300000Y-129450000D02*
X103300000Y-130700000D01*
X85400000Y-129750000D02*
X87200000Y-129750000D01*
X87200000Y-130500000D01*
X85400000Y-130500000D01*
X85400000Y-129750000D01*
X88700000Y-129750000D02*
X99700000Y-129750000D01*
X99700000Y-130500000D01*
X88700000Y-130500000D01*
X88700000Y-129750000D01*
X101200000Y-129750000D02*
X103000000Y-129750000D01*
X103000000Y-130500000D01*
X101200000Y-130500000D01*
X101200000Y-129750000D01*
X85390000Y-129740000D02*
X103010000Y-129740000D01*
X103010000Y-135710000D01*
X85390000Y-135710000D01*
X85390000Y-129740000D01*
%TO.C,P9*%
X100160000Y-18090000D02*
X100160000Y-25110000D01*
X100160000Y-25110000D02*
X108240000Y-25110000D01*
X101360000Y-16390000D02*
X101360000Y-18090000D01*
X101360000Y-18090000D02*
X100160000Y-18090000D01*
X107040000Y-16390000D02*
X101360000Y-16390000D01*
X107040000Y-18090000D02*
X107040000Y-16390000D01*
X108240000Y-18090000D02*
X107040000Y-18090000D01*
X108240000Y-25110000D02*
X108240000Y-18090000D01*
X108440000Y-20200000D02*
X109040000Y-20500000D01*
X109040000Y-19900000D02*
X108440000Y-20200000D01*
X109040000Y-20500000D02*
X109040000Y-19900000D01*
%TO.C,P8*%
X112400000Y-20000000D02*
X113150000Y-20000000D01*
X113150000Y-20000000D02*
X113150000Y-22950000D01*
X113150000Y-22950000D02*
X116200000Y-22950000D01*
X119050000Y-17450000D02*
X120300000Y-17450000D01*
X119250000Y-20000000D02*
X119250000Y-22950000D01*
X119250000Y-22950000D02*
X116200000Y-22950000D01*
X120000000Y-20000000D02*
X119250000Y-20000000D01*
X120300000Y-17450000D02*
X120300000Y-18700000D01*
X112400000Y-17750000D02*
X114200000Y-17750000D01*
X114200000Y-18500000D01*
X112400000Y-18500000D01*
X112400000Y-17750000D01*
X115700000Y-17750000D02*
X116700000Y-17750000D01*
X116700000Y-18500000D01*
X115700000Y-18500000D01*
X115700000Y-17750000D01*
X118200000Y-17750000D02*
X120000000Y-17750000D01*
X120000000Y-18500000D01*
X118200000Y-18500000D01*
X118200000Y-17750000D01*
X112390000Y-17740000D02*
X120010000Y-17740000D01*
X120010000Y-23710000D01*
X112390000Y-23710000D01*
X112390000Y-17740000D01*
%TO.C,P1*%
X33900000Y-92000000D02*
X34650000Y-92000000D01*
X34650000Y-92000000D02*
X34650000Y-94950000D01*
X34650000Y-94950000D02*
X50200000Y-94950000D01*
X65550000Y-89450000D02*
X66800000Y-89450000D01*
X65750000Y-92000000D02*
X65750000Y-94950000D01*
X65750000Y-94950000D02*
X50200000Y-94950000D01*
X66500000Y-92000000D02*
X65750000Y-92000000D01*
X66800000Y-89450000D02*
X66800000Y-90700000D01*
X33900000Y-89750000D02*
X35700000Y-89750000D01*
X35700000Y-90500000D01*
X33900000Y-90500000D01*
X33900000Y-89750000D01*
X37200000Y-89750000D02*
X63200000Y-89750000D01*
X63200000Y-90500000D01*
X37200000Y-90500000D01*
X37200000Y-89750000D01*
X64700000Y-89750000D02*
X66500000Y-89750000D01*
X66500000Y-90500000D01*
X64700000Y-90500000D01*
X64700000Y-89750000D01*
X33890000Y-89740000D02*
X66510000Y-89740000D01*
X66510000Y-95710000D01*
X33890000Y-95710000D01*
X33890000Y-89740000D01*
%TO.C,P7*%
X81900000Y-20000000D02*
X82650000Y-20000000D01*
X82650000Y-20000000D02*
X82650000Y-22950000D01*
X82650000Y-22950000D02*
X88200000Y-22950000D01*
X93550000Y-17450000D02*
X94800000Y-17450000D01*
X93750000Y-20000000D02*
X93750000Y-22950000D01*
X93750000Y-22950000D02*
X88200000Y-22950000D01*
X94500000Y-20000000D02*
X93750000Y-20000000D01*
X94800000Y-17450000D02*
X94800000Y-18700000D01*
X81900000Y-17750000D02*
X83700000Y-17750000D01*
X83700000Y-18500000D01*
X81900000Y-18500000D01*
X81900000Y-17750000D01*
X85200000Y-17750000D02*
X91200000Y-17750000D01*
X91200000Y-18500000D01*
X85200000Y-18500000D01*
X85200000Y-17750000D01*
X92700000Y-17750000D02*
X94500000Y-17750000D01*
X94500000Y-18500000D01*
X92700000Y-18500000D01*
X92700000Y-17750000D01*
X81890000Y-17740000D02*
X94510000Y-17740000D01*
X94510000Y-23710000D01*
X81890000Y-23710000D01*
X81890000Y-17740000D01*
%TD*%
%LPC*%
D12*
%TO.C,S5*%
X42200000Y-28500000D03*
D13*
X42200000Y-33200000D03*
X42200000Y-37900000D03*
%TD*%
D14*
%TO.C,J6*%
X76200000Y-86900000D03*
D15*
X80600000Y-89460000D03*
D14*
X76200000Y-94700000D03*
%TD*%
D16*
%TO.C,S2*%
X93200000Y-33200000D03*
D12*
X90785000Y-28500000D03*
D13*
X90785000Y-33200000D03*
X90785000Y-37900000D03*
X95615000Y-28500000D03*
X95615000Y-33200000D03*
X95615000Y-37900000D03*
%TD*%
D17*
%TO.C,VR6*%
X48200000Y-109700000D03*
D18*
X50700000Y-109700000D03*
X53200000Y-109700000D03*
X48200000Y-107200000D03*
X50700000Y-107200000D03*
X53200000Y-107200000D03*
D19*
X45950000Y-99700000D03*
X55450000Y-99700000D03*
%TD*%
D16*
%TO.C,J5*%
X76200000Y-10200000D03*
D20*
X76200000Y-14000000D03*
D21*
X80000000Y-10200000D03*
D20*
X76200000Y-6000000D03*
%TD*%
D12*
%TO.C,S7*%
X76200000Y-28500000D03*
D13*
X76200000Y-33200000D03*
X76200000Y-37900000D03*
%TD*%
D17*
%TO.C,VR1*%
X27000000Y-100250000D03*
D18*
X27000000Y-97750000D03*
X27000000Y-95250000D03*
X24500000Y-100250000D03*
X24500000Y-97750000D03*
X24500000Y-95250000D03*
D22*
X17000000Y-102500000D03*
X17000000Y-93000000D03*
%TD*%
D12*
%TO.C,S1*%
X25200000Y-28500000D03*
D13*
X25200000Y-33200000D03*
X25200000Y-37900000D03*
%TD*%
D17*
%TO.C,VR8*%
X99200000Y-109700000D03*
D18*
X101700000Y-109700000D03*
X104200000Y-109700000D03*
X99200000Y-107200000D03*
X101700000Y-107200000D03*
X104200000Y-107200000D03*
D19*
X96950000Y-99700000D03*
X106450000Y-99700000D03*
%TD*%
D12*
%TO.C,S3*%
X110200000Y-28500000D03*
D13*
X110200000Y-33200000D03*
X110200000Y-37900000D03*
%TD*%
D17*
%TO.C,VR7*%
X73700000Y-123200000D03*
D18*
X76200000Y-123200000D03*
X78700000Y-123200000D03*
X73700000Y-120700000D03*
X76200000Y-120700000D03*
X78700000Y-120700000D03*
D19*
X71450000Y-113200000D03*
X80950000Y-113200000D03*
%TD*%
D17*
%TO.C,VR5*%
X125400000Y-95250000D03*
D18*
X125400000Y-97750000D03*
X125400000Y-100250000D03*
X127900000Y-95250000D03*
X127900000Y-97750000D03*
X127900000Y-100250000D03*
D23*
X135400000Y-93000000D03*
X135400000Y-102500000D03*
%TD*%
D12*
%TO.C,S4*%
X127200000Y-28500000D03*
D13*
X127200000Y-33200000D03*
X127200000Y-37900000D03*
%TD*%
D12*
%TO.C,S6*%
X59200000Y-28500000D03*
D13*
X59200000Y-33200000D03*
X59200000Y-37900000D03*
%TD*%
D17*
%TO.C,VR3*%
X78700000Y-129200000D03*
D18*
X76200000Y-129200000D03*
X73700000Y-129200000D03*
X78700000Y-131700000D03*
X76200000Y-131700000D03*
X73700000Y-131700000D03*
D24*
X80950000Y-139200000D03*
X71450000Y-139200000D03*
%TD*%
D25*
%TO.C,P5*%
X47200000Y-20200000D03*
D26*
X44700000Y-20200000D03*
X42200000Y-20200000D03*
X39700000Y-20200000D03*
X37200000Y-20200000D03*
%TD*%
D25*
%TO.C,P6*%
X73700000Y-20200000D03*
D26*
X71200000Y-20200000D03*
X68700000Y-20200000D03*
X66200000Y-20200000D03*
X63700000Y-20200000D03*
X61200000Y-20200000D03*
X58700000Y-20200000D03*
%TD*%
D25*
%TO.C,P3*%
X64450000Y-132200000D03*
D26*
X61950000Y-132200000D03*
X59450000Y-132200000D03*
X56950000Y-132200000D03*
X54450000Y-132200000D03*
X51950000Y-132200000D03*
%TD*%
D25*
%TO.C,P2*%
X115950000Y-92200000D03*
D26*
X113450000Y-92200000D03*
X110950000Y-92200000D03*
X108450000Y-92200000D03*
X105950000Y-92200000D03*
X103450000Y-92200000D03*
X100950000Y-92200000D03*
X98450000Y-92200000D03*
X95950000Y-92200000D03*
X93450000Y-92200000D03*
X90950000Y-92200000D03*
X88450000Y-92200000D03*
%TD*%
D25*
%TO.C,P4*%
X100450000Y-132200000D03*
D26*
X97950000Y-132200000D03*
X95450000Y-132200000D03*
X92950000Y-132200000D03*
X90450000Y-132200000D03*
X87950000Y-132200000D03*
%TD*%
D27*
%TO.C,P9*%
X106180000Y-20200000D03*
D28*
X102220000Y-20200000D03*
%TD*%
D29*
%TO.C,P8*%
X117450000Y-20200000D03*
D30*
X114950000Y-20200000D03*
%TD*%
D25*
%TO.C,P1*%
X63950000Y-92200000D03*
D26*
X61450000Y-92200000D03*
X58950000Y-92200000D03*
X56450000Y-92200000D03*
X53950000Y-92200000D03*
X51450000Y-92200000D03*
X48950000Y-92200000D03*
X46450000Y-92200000D03*
X43950000Y-92200000D03*
X41450000Y-92200000D03*
X38950000Y-92200000D03*
X36450000Y-92200000D03*
%TD*%
D25*
%TO.C,P7*%
X91950000Y-20200000D03*
D26*
X89450000Y-20200000D03*
X86950000Y-20200000D03*
X84450000Y-20200000D03*
%TD*%
%LPD*%
M02*
