%TF.GenerationSoftware,KiCad,Pcbnew,10.0.6*%
%TF.CreationDate,2026-09-21T00:52:01-06:00*%
%TF.ProjectId,control-deck,636f6e74-726f-46c2-9d64-65636b2e6b69,rev?*%
%TF.SameCoordinates,Original*%
%TF.FileFunction,Soldermask,Top*%
%TF.FilePolarity,Negative*%
%FSLAX46Y46*%
G04 Gerber Fmt 4.6, Leading zero omitted, Abs format (unit mm)*
G04 Created by KiCad (PCBNEW 10.0.6) date 2026-09-21 00:52:01*
%MOMM*%
%LPD*%
G01*
G04 APERTURE LIST*
G04 Aperture macros list*
%AMRoundRect*
0 Rectangle with rounded corners*
0 $1 Rounding radius*
0 $2 $3 $4 $5 $6 $7 $8 $9 X,Y pos of 4 corners*
0 Add a 4 corners polygon primitive as box body*
4,1,4,$2,$3,$4,$5,$6,$7,$8,$9,$2,$3,0*
0 Add four circle primitives for the rounded corners*
1,1,$1+$1,$2,$3*
1,1,$1+$1,$4,$5*
1,1,$1+$1,$6,$7*
1,1,$1+$1,$8,$9*
0 Add four rect primitives between the rounded corners*
20,1,$1+$1,$2,$3,$4,$5,0*
20,1,$1+$1,$4,$5,$6,$7,0*
20,1,$1+$1,$6,$7,$8,$9,0*
20,1,$1+$1,$8,$9,$2,$3,0*%
G04 Aperture macros list end*
%ADD10R,2.600000X2.600000*%
%ADD11C,2.600000*%
%ADD12O,3.200000X1.500000*%
%ADD13O,1.500000X3.200000*%
%ADD14C,1.000000*%
%ADD15R,1.800000X1.800000*%
%ADD16C,1.800000*%
%ADD17RoundRect,0.500000X1.000000X-0.500000X1.000000X0.500000X-1.000000X0.500000X-1.000000X-0.500000X0*%
%ADD18O,2.500000X1.300000*%
%ADD19O,1.300000X2.500000*%
%ADD20RoundRect,0.500000X0.500000X1.000000X-0.500000X1.000000X-0.500000X-1.000000X0.500000X-1.000000X0*%
%ADD21RoundRect,0.500000X-0.500000X-1.000000X0.500000X-1.000000X0.500000X1.000000X-0.500000X1.000000X0*%
%ADD22RoundRect,0.500000X-1.000000X0.500000X-1.000000X-0.500000X1.000000X-0.500000X1.000000X0.500000X0*%
%ADD23RoundRect,0.250000X0.600000X0.725000X-0.600000X0.725000X-0.600000X-0.725000X0.600000X-0.725000X0*%
%ADD24O,1.700000X1.950000*%
%ADD25RoundRect,0.250001X1.099999X1.099999X-1.099999X1.099999X-1.099999X-1.099999X1.099999X-1.099999X0*%
%ADD26C,2.700000*%
%ADD27RoundRect,0.250000X0.600000X0.750000X-0.600000X0.750000X-0.600000X-0.750000X0.600000X-0.750000X0*%
%ADD28O,1.700000X2.000000*%
G04 APERTURE END LIST*
D10*
%TO.C,S5*%
X42200000Y-28500000D03*
D11*
X42200000Y-33200000D03*
X42200000Y-37900000D03*
%TD*%
D12*
%TO.C,J6*%
X76200000Y-86900000D03*
D13*
X80600000Y-89460000D03*
D12*
X76200000Y-94700000D03*
%TD*%
D14*
%TO.C,S2*%
X93200000Y-33200000D03*
D10*
X90785000Y-28500000D03*
D11*
X90785000Y-33200000D03*
X90785000Y-37900000D03*
X95615000Y-28500000D03*
X95615000Y-33200000D03*
X95615000Y-37900000D03*
%TD*%
D15*
%TO.C,VR6*%
X48200000Y-109700000D03*
D16*
X50700000Y-109700000D03*
X53200000Y-109700000D03*
X48200000Y-107200000D03*
X50700000Y-107200000D03*
X53200000Y-107200000D03*
D17*
X45950000Y-99700000D03*
X55450000Y-99700000D03*
%TD*%
D14*
%TO.C,J5*%
X76200000Y-10200000D03*
D18*
X76200000Y-14000000D03*
D19*
X80000000Y-10200000D03*
D18*
X76200000Y-6000000D03*
%TD*%
D10*
%TO.C,S7*%
X76200000Y-28500000D03*
D11*
X76200000Y-33200000D03*
X76200000Y-37900000D03*
%TD*%
D15*
%TO.C,VR1*%
X27000000Y-100250000D03*
D16*
X27000000Y-97750000D03*
X27000000Y-95250000D03*
X24500000Y-100250000D03*
X24500000Y-97750000D03*
X24500000Y-95250000D03*
D20*
X17000000Y-102500000D03*
X17000000Y-93000000D03*
%TD*%
D10*
%TO.C,S1*%
X25200000Y-28500000D03*
D11*
X25200000Y-33200000D03*
X25200000Y-37900000D03*
%TD*%
D15*
%TO.C,VR8*%
X99200000Y-109700000D03*
D16*
X101700000Y-109700000D03*
X104200000Y-109700000D03*
X99200000Y-107200000D03*
X101700000Y-107200000D03*
X104200000Y-107200000D03*
D17*
X96950000Y-99700000D03*
X106450000Y-99700000D03*
%TD*%
D10*
%TO.C,S3*%
X110200000Y-28500000D03*
D11*
X110200000Y-33200000D03*
X110200000Y-37900000D03*
%TD*%
D15*
%TO.C,VR7*%
X73700000Y-123200000D03*
D16*
X76200000Y-123200000D03*
X78700000Y-123200000D03*
X73700000Y-120700000D03*
X76200000Y-120700000D03*
X78700000Y-120700000D03*
D17*
X71450000Y-113200000D03*
X80950000Y-113200000D03*
%TD*%
D15*
%TO.C,VR5*%
X125400000Y-95250000D03*
D16*
X125400000Y-97750000D03*
X125400000Y-100250000D03*
X127900000Y-95250000D03*
X127900000Y-97750000D03*
X127900000Y-100250000D03*
D21*
X135400000Y-93000000D03*
X135400000Y-102500000D03*
%TD*%
D10*
%TO.C,S4*%
X127200000Y-28500000D03*
D11*
X127200000Y-33200000D03*
X127200000Y-37900000D03*
%TD*%
D10*
%TO.C,S6*%
X59200000Y-28500000D03*
D11*
X59200000Y-33200000D03*
X59200000Y-37900000D03*
%TD*%
D15*
%TO.C,VR3*%
X78700000Y-129200000D03*
D16*
X76200000Y-129200000D03*
X73700000Y-129200000D03*
X78700000Y-131700000D03*
X76200000Y-131700000D03*
X73700000Y-131700000D03*
D22*
X80950000Y-139200000D03*
X71450000Y-139200000D03*
%TD*%
D23*
%TO.C,P5*%
X47200000Y-20200000D03*
D24*
X44700000Y-20200000D03*
X42200000Y-20200000D03*
X39700000Y-20200000D03*
X37200000Y-20200000D03*
%TD*%
D23*
%TO.C,P6*%
X73700000Y-20200000D03*
D24*
X71200000Y-20200000D03*
X68700000Y-20200000D03*
X66200000Y-20200000D03*
X63700000Y-20200000D03*
X61200000Y-20200000D03*
X58700000Y-20200000D03*
%TD*%
D23*
%TO.C,P3*%
X64450000Y-132200000D03*
D24*
X61950000Y-132200000D03*
X59450000Y-132200000D03*
X56950000Y-132200000D03*
X54450000Y-132200000D03*
X51950000Y-132200000D03*
%TD*%
D23*
%TO.C,P2*%
X115950000Y-92200000D03*
D24*
X113450000Y-92200000D03*
X110950000Y-92200000D03*
X108450000Y-92200000D03*
X105950000Y-92200000D03*
X103450000Y-92200000D03*
X100950000Y-92200000D03*
X98450000Y-92200000D03*
X95950000Y-92200000D03*
X93450000Y-92200000D03*
X90950000Y-92200000D03*
X88450000Y-92200000D03*
%TD*%
D23*
%TO.C,P4*%
X100450000Y-132200000D03*
D24*
X97950000Y-132200000D03*
X95450000Y-132200000D03*
X92950000Y-132200000D03*
X90450000Y-132200000D03*
X87950000Y-132200000D03*
%TD*%
D25*
%TO.C,P9*%
X106180000Y-20200000D03*
D26*
X102220000Y-20200000D03*
%TD*%
D27*
%TO.C,P8*%
X117450000Y-20200000D03*
D28*
X114950000Y-20200000D03*
%TD*%
D23*
%TO.C,P1*%
X63950000Y-92200000D03*
D24*
X61450000Y-92200000D03*
X58950000Y-92200000D03*
X56450000Y-92200000D03*
X53950000Y-92200000D03*
X51450000Y-92200000D03*
X48950000Y-92200000D03*
X46450000Y-92200000D03*
X43950000Y-92200000D03*
X41450000Y-92200000D03*
X38950000Y-92200000D03*
X36450000Y-92200000D03*
%TD*%
D23*
%TO.C,P7*%
X91950000Y-20200000D03*
D24*
X89450000Y-20200000D03*
X86950000Y-20200000D03*
X84450000Y-20200000D03*
%TD*%
M02*
