M48
; DRILL file KiCad 10.0.6 date 2026-09-21T00:52:03
; FORMAT={-:-/ absolute / metric / decimal}
; #@! TF.CreationDate,2026-09-21T00:52:03-06:00
; #@! TF.GenerationSoftware,Kicad,Pcbnew,10.0.6
; #@! TF.FileFunction,Plated,1,2,PTH
FMAT,2
METRIC
; #@! TA.AperFunction,Plated,PTH,ViaDrill
T1C0.300
; #@! TA.AperFunction,Plated,PTH,ViaDrill
T2C0.400
; #@! TA.AperFunction,Plated,PTH,ComponentDrill
T3C0.800
; #@! TA.AperFunction,Plated,PTH,ComponentDrill
T4C0.900
; #@! TA.AperFunction,Plated,PTH,ComponentDrill
T5C0.950
; #@! TA.AperFunction,Plated,PTH,ComponentDrill
T6C1.000
; #@! TA.AperFunction,Plated,PTH,ComponentDrill
T7C1.100
; #@! TA.AperFunction,Plated,PTH,ComponentDrill
T8C1.600
; #@! TA.AperFunction,Plated,PTH,ComponentDrill
T9C1.700
%
G90
G05
T1
X3.95Y-59.95
X3.95Y-67.95
X3.95Y-75.95
X3.95Y-83.95
X11.95Y-43.95
X11.95Y-83.95
X11.95Y-107.95
X19.95Y-27.95
X19.95Y-35.95
X19.95Y-43.95
X19.95Y-83.95
X19.95Y-91.95
X19.95Y-107.95
X19.95Y-115.95
X19.95Y-123.95
X27.95Y-43.95
X27.95Y-83.95
X27.95Y-107.95
X27.95Y-115.95
X27.95Y-123.95
X27.95Y-131.95
X35.95Y-35.95
X35.95Y-43.95
X35.95Y-83.95
X35.95Y-99.95
X35.95Y-107.95
X35.95Y-115.95
X43.95Y-11.95
X43.95Y-43.95
X43.95Y-51.95
X43.95Y-59.95
X43.95Y-67.95
X43.95Y-75.95
X43.95Y-83.95
X43.95Y-107.95
X43.95Y-139.95
X48.95Y-98.475
X51.95Y-11.95
X51.95Y-19.95
X51.95Y-27.95
X51.95Y-35.95
X51.95Y-43.95
X51.95Y-83.95
X51.95Y-99.95
X51.95Y-139.95
X52.264Y-97.849
X55.424Y-106.453
X56.45Y-89.435
X59.95Y-3.95
X59.95Y-11.95
X59.95Y-43.95
X59.95Y-83.95
X59.95Y-99.95
X59.95Y-115.95
X59.95Y-123.95
X59.95Y-139.95
X59.95Y-147.95
X64.232Y-96.025
X64.877Y-12.906
X67.95Y-3.95
X67.95Y-11.95
X67.95Y-27.95
X67.95Y-35.95
X67.95Y-43.95
X67.95Y-83.95
X67.95Y-99.95
X67.95Y-115.95
X67.95Y-123.95
X67.95Y-139.95
X67.95Y-147.95
X75.95Y-43.95
X75.95Y-51.95
X75.95Y-59.95
X75.95Y-67.95
X75.95Y-75.95
X75.95Y-83.95
X75.95Y-99.95
X75.95Y-115.95
X75.95Y-139.95
X75.95Y-147.95
X83.95Y-3.95
X83.95Y-11.95
X83.95Y-35.95
X83.95Y-43.95
X83.95Y-99.95
X83.95Y-139.95
X83.95Y-147.95
X91.95Y-3.95
X91.95Y-11.95
X91.95Y-43.95
X91.95Y-83.95
X91.95Y-123.95
X91.95Y-139.95
X91.95Y-147.95
X99.95Y-11.95
X99.95Y-27.95
X99.95Y-35.95
X99.95Y-43.95
X99.95Y-83.95
X99.95Y-139.95
X101.355Y-98.96
X103.131Y-100.136
X107.95Y-11.95
X107.95Y-35.95
X107.95Y-43.95
X107.95Y-51.95
X107.95Y-59.95
X107.95Y-67.95
X107.95Y-83.95
X107.95Y-107.95
X107.95Y-139.95
X113.45Y-105.191
X115.95Y-27.95
X115.95Y-35.95
X115.95Y-43.95
X115.95Y-83.95
X115.95Y-107.95
X115.95Y-139.95
X123.95Y-19.95
X123.95Y-35.95
X123.95Y-43.95
X123.95Y-83.95
X123.95Y-107.95
X123.95Y-115.95
X123.95Y-123.95
X123.95Y-131.95
X131.95Y-27.95
X131.95Y-35.95
X131.95Y-43.95
X131.95Y-83.95
X131.95Y-107.95
X131.95Y-115.95
X131.95Y-123.95
X139.95Y-43.95
X139.95Y-83.95
X139.95Y-91.95
X139.95Y-107.95
X139.95Y-115.95
X147.95Y-59.95
X147.95Y-67.95
X147.95Y-75.95
X147.95Y-83.95
X147.95Y-91.95
T2
X94.154Y-10.37
T5
X36.45Y-92.2
X37.2Y-20.2
X38.95Y-92.2
X39.7Y-20.2
X41.45Y-92.2
X42.2Y-20.2
X43.95Y-92.2
X44.7Y-20.2
X46.45Y-92.2
X47.2Y-20.2
X48.95Y-92.2
X51.45Y-92.2
X51.95Y-132.2
X53.95Y-92.2
X54.45Y-132.2
X56.45Y-92.2
X56.95Y-132.2
X58.7Y-20.2
X58.95Y-92.2
X59.45Y-132.2
X61.2Y-20.2
X61.45Y-92.2
X61.95Y-132.2
X63.7Y-20.2
X63.95Y-92.2
X64.45Y-132.2
X66.2Y-20.2
X68.7Y-20.2
X71.2Y-20.2
X73.7Y-20.2
X84.45Y-20.2
X86.95Y-20.2
X87.95Y-132.2
X88.45Y-92.2
X89.45Y-20.2
X90.45Y-132.2
X90.95Y-92.2
X91.95Y-20.2
X92.95Y-132.2
X93.45Y-92.2
X95.45Y-132.2
X95.95Y-92.2
X97.95Y-132.2
X98.45Y-92.2
X100.45Y-132.2
X100.95Y-92.2
X103.45Y-92.2
X105.95Y-92.2
X108.45Y-92.2
X110.95Y-92.2
X113.45Y-92.2
X115.95Y-92.2
T6
X24.5Y-95.25
X24.5Y-97.75
X24.5Y-100.25
X27.0Y-95.25
X27.0Y-97.75
X27.0Y-100.25
X48.2Y-107.2
X48.2Y-109.7
X50.7Y-107.2
X50.7Y-109.7
X53.2Y-107.2
X53.2Y-109.7
X73.7Y-120.7
X73.7Y-123.2
X73.7Y-129.2
X73.7Y-131.7
X76.2Y-120.7
X76.2Y-123.2
X76.2Y-129.2
X76.2Y-131.7
X78.7Y-120.7
X78.7Y-123.2
X78.7Y-129.2
X78.7Y-131.7
X99.2Y-107.2
X99.2Y-109.7
X101.7Y-107.2
X101.7Y-109.7
X104.2Y-107.2
X104.2Y-109.7
X114.95Y-20.2
X117.45Y-20.2
X125.4Y-95.25
X125.4Y-97.75
X125.4Y-100.25
X127.9Y-95.25
X127.9Y-97.75
X127.9Y-100.25
T8
X25.2Y-28.5
X25.2Y-33.2
X25.2Y-37.9
X42.2Y-28.5
X42.2Y-33.2
X42.2Y-37.9
X59.2Y-28.5
X59.2Y-33.2
X59.2Y-37.9
X76.2Y-28.5
X76.2Y-33.2
X76.2Y-37.9
X90.785Y-28.5
X90.785Y-33.2
X90.785Y-37.9
X95.615Y-28.5
X95.615Y-33.2
X95.615Y-37.9
X110.2Y-28.5
X110.2Y-33.2
X110.2Y-37.9
X127.2Y-28.5
X127.2Y-33.2
X127.2Y-37.9
T9
X102.22Y-20.2
X106.18Y-20.2
T3
X75.6Y-6.0G85X76.8Y-6.0
G05
X75.6Y-14.0G85X76.8Y-14.0
G05
X80.0Y-9.6G85X80.0Y-10.8
G05
T4
X75.35Y-86.9G85X77.05Y-86.9
G05
X75.35Y-94.7G85X77.05Y-94.7
G05
X80.6Y-88.61G85X80.6Y-90.31
G05
T7
X17.0Y-93.35G85X17.0Y-92.65
G05
X17.0Y-102.85G85X17.0Y-102.15
G05
X45.6Y-99.7G85X46.3Y-99.7
G05
X55.1Y-99.7G85X55.8Y-99.7
G05
X71.1Y-113.2G85X71.8Y-113.2
G05
X71.8Y-139.2G85X71.1Y-139.2
G05
X80.6Y-113.2G85X81.3Y-113.2
G05
X81.3Y-139.2G85X80.6Y-139.2
G05
X96.6Y-99.7G85X97.3Y-99.7
G05
X106.1Y-99.7G85X106.8Y-99.7
G05
X135.4Y-92.65G85X135.4Y-93.35
G05
X135.4Y-102.15G85X135.4Y-102.85
G05
M30
